G04*
G04 #@! TF.GenerationSoftware,Altium Limited,Altium Designer,18.1.9 (240)*
G04*
G04 Layer_Color=8421504*
%FSLAX44Y44*%
%MOMM*%
G71*
G01*
G75*
%ADD12C,0.2540*%
%ADD13P,1.1314X4X270.0*%
D12*
X370000Y750000D02*
G03*
X400000Y720000I30000J0D01*
G01*
X1600000D02*
G03*
X1630000Y750000I0J30000D01*
G01*
Y1050000D02*
G03*
X1600000Y1080000I-30000J0D01*
G01*
X400000D02*
G03*
X370000Y1050000I0J-30000D01*
G01*
X1630000Y750000D02*
Y1050000D01*
X400000Y720000D02*
X1600000D01*
X400000Y1079750D02*
X1600000D01*
X370000Y750000D02*
Y1050000D01*
D13*
X1576388Y786638D02*
D03*
X1565074Y775324D02*
D03*
X1546388Y786638D02*
D03*
X1535074Y775324D02*
D03*
X1516388Y786638D02*
D03*
X1505074Y775324D02*
D03*
X1486388Y786638D02*
D03*
X1475074Y775324D02*
D03*
X1456388Y786638D02*
D03*
X1445074Y775324D02*
D03*
X1426388Y786638D02*
D03*
X1415074Y775324D02*
D03*
X1396388Y786638D02*
D03*
X1385074Y775324D02*
D03*
X1366388Y786638D02*
D03*
X1355074Y775324D02*
D03*
X1336388Y786638D02*
D03*
X1325074Y775324D02*
D03*
X1306388Y786638D02*
D03*
X1295074Y775324D02*
D03*
X1276388Y786638D02*
D03*
X1265074Y775324D02*
D03*
X1246388Y786638D02*
D03*
X1235074Y775324D02*
D03*
X1216388Y786638D02*
D03*
X1205074Y775324D02*
D03*
X1186388Y786638D02*
D03*
X1175074Y775324D02*
D03*
X1156388Y786638D02*
D03*
X1145074Y775324D02*
D03*
X1126388Y786638D02*
D03*
X1115074Y775324D02*
D03*
X1096388Y786638D02*
D03*
X1085074Y775324D02*
D03*
X1066388Y786638D02*
D03*
X1055074Y775324D02*
D03*
X1036388Y786638D02*
D03*
X1025074Y775324D02*
D03*
X1006388Y786638D02*
D03*
X995074Y775324D02*
D03*
X976388Y786638D02*
D03*
X965074Y775324D02*
D03*
X946388Y786638D02*
D03*
X935074Y775324D02*
D03*
X916388Y786638D02*
D03*
X905074Y775324D02*
D03*
X886388Y786638D02*
D03*
X875074Y775324D02*
D03*
X856388Y786638D02*
D03*
X845074Y775324D02*
D03*
X826388Y786638D02*
D03*
X815074Y775324D02*
D03*
X796388Y786638D02*
D03*
X785074Y775324D02*
D03*
X766388Y786638D02*
D03*
X755074Y775324D02*
D03*
X736388Y786638D02*
D03*
X725074Y775324D02*
D03*
X706388Y786638D02*
D03*
X695074Y775324D02*
D03*
X676388Y786638D02*
D03*
X665074Y775324D02*
D03*
X646388Y786638D02*
D03*
X635074Y775324D02*
D03*
X616388Y786638D02*
D03*
X605074Y775324D02*
D03*
X586388Y786638D02*
D03*
X575074Y775324D02*
D03*
X556388Y786638D02*
D03*
X545074Y775324D02*
D03*
X526388Y786638D02*
D03*
X515074Y775324D02*
D03*
X496388Y786638D02*
D03*
X485074Y775324D02*
D03*
X466388Y786638D02*
D03*
X455074Y775324D02*
D03*
X436388Y786638D02*
D03*
X425074Y775324D02*
D03*
X1576388Y816638D02*
D03*
X1565074Y805324D02*
D03*
X1546388Y816638D02*
D03*
X1535074Y805324D02*
D03*
X1516388Y816638D02*
D03*
X1505074Y805324D02*
D03*
X1486388Y816638D02*
D03*
X1475074Y805324D02*
D03*
X1456388Y816638D02*
D03*
X1445074Y805324D02*
D03*
X1426388Y816638D02*
D03*
X1415074Y805324D02*
D03*
X1396388Y816638D02*
D03*
X1385074Y805324D02*
D03*
X1366388Y816638D02*
D03*
X1355074Y805324D02*
D03*
X1336388Y816638D02*
D03*
X1325074Y805324D02*
D03*
X1306388Y816638D02*
D03*
X1295074Y805324D02*
D03*
X1276388Y816638D02*
D03*
X1265074Y805324D02*
D03*
X1246388Y816638D02*
D03*
X1235074Y805324D02*
D03*
X1216388Y816638D02*
D03*
X1205074Y805324D02*
D03*
X1186388Y816638D02*
D03*
X1175074Y805324D02*
D03*
X1156388Y816638D02*
D03*
X1145074Y805324D02*
D03*
X1126388Y816638D02*
D03*
X1115074Y805324D02*
D03*
X1096388Y816638D02*
D03*
X1085074Y805324D02*
D03*
X1066388Y816638D02*
D03*
X1055074Y805324D02*
D03*
X1036388Y816638D02*
D03*
X1025074Y805324D02*
D03*
X1006388Y816638D02*
D03*
X995074Y805324D02*
D03*
X976388Y816638D02*
D03*
X965074Y805324D02*
D03*
X946388Y816638D02*
D03*
X935074Y805324D02*
D03*
X916388Y816638D02*
D03*
X905074Y805324D02*
D03*
X886388Y816638D02*
D03*
X875074Y805324D02*
D03*
X856388Y816638D02*
D03*
X845074Y805324D02*
D03*
X826388Y816638D02*
D03*
X815074Y805324D02*
D03*
X796388Y816638D02*
D03*
X785074Y805324D02*
D03*
X766388Y816638D02*
D03*
X755074Y805324D02*
D03*
X736388Y816638D02*
D03*
X725074Y805324D02*
D03*
X706388Y816638D02*
D03*
X695074Y805324D02*
D03*
X676388Y816638D02*
D03*
X665074Y805324D02*
D03*
X646388Y816638D02*
D03*
X635074Y805324D02*
D03*
X616388Y816638D02*
D03*
X605074Y805324D02*
D03*
X586388Y816638D02*
D03*
X575074Y805324D02*
D03*
X556388Y816638D02*
D03*
X545074Y805324D02*
D03*
X526388Y816638D02*
D03*
X515074Y805324D02*
D03*
X496388Y816638D02*
D03*
X485074Y805324D02*
D03*
X466388Y816638D02*
D03*
X455074Y805324D02*
D03*
X436388Y816638D02*
D03*
X425074Y805324D02*
D03*
X1576388Y846638D02*
D03*
X1565074Y835324D02*
D03*
X1546388Y846638D02*
D03*
X1535074Y835324D02*
D03*
X1516388Y846638D02*
D03*
X1505074Y835324D02*
D03*
X1486388Y846638D02*
D03*
X1475074Y835324D02*
D03*
X1456388Y846638D02*
D03*
X1445074Y835324D02*
D03*
X1426388Y846638D02*
D03*
X1415074Y835324D02*
D03*
X1396388Y846638D02*
D03*
X1385074Y835324D02*
D03*
X1366388Y846638D02*
D03*
X1355074Y835324D02*
D03*
X1336388Y846638D02*
D03*
X1325074Y835324D02*
D03*
X1306388Y846638D02*
D03*
X1295074Y835324D02*
D03*
X1276388Y846638D02*
D03*
X1265074Y835324D02*
D03*
X1246388Y846638D02*
D03*
X1235074Y835324D02*
D03*
X1216388Y846638D02*
D03*
X1205074Y835324D02*
D03*
X1186388Y846638D02*
D03*
X1175074Y835324D02*
D03*
X1156388Y846638D02*
D03*
X1145074Y835324D02*
D03*
X1126388Y846638D02*
D03*
X1115074Y835324D02*
D03*
X1096388Y846638D02*
D03*
X1085074Y835324D02*
D03*
X1066388Y846638D02*
D03*
X1055074Y835324D02*
D03*
X1036388Y846638D02*
D03*
X1025074Y835324D02*
D03*
X1006388Y846638D02*
D03*
X995074Y835324D02*
D03*
X976388Y846638D02*
D03*
X965074Y835324D02*
D03*
X946388Y846638D02*
D03*
X935074Y835324D02*
D03*
X916388Y846638D02*
D03*
X905074Y835324D02*
D03*
X886388Y846638D02*
D03*
X875074Y835324D02*
D03*
X856388Y846638D02*
D03*
X845074Y835324D02*
D03*
X826388Y846638D02*
D03*
X815074Y835324D02*
D03*
X796388Y846638D02*
D03*
X785074Y835324D02*
D03*
X766388Y846638D02*
D03*
X755074Y835324D02*
D03*
X736388Y846638D02*
D03*
X725074Y835324D02*
D03*
X706388Y846638D02*
D03*
X695074Y835324D02*
D03*
X676388Y846638D02*
D03*
X665074Y835324D02*
D03*
X646388Y846638D02*
D03*
X635074Y835324D02*
D03*
X616388Y846638D02*
D03*
X605074Y835324D02*
D03*
X586388Y846638D02*
D03*
X575074Y835324D02*
D03*
X556388Y846638D02*
D03*
X545074Y835324D02*
D03*
X526388Y846638D02*
D03*
X515074Y835324D02*
D03*
X496388Y846638D02*
D03*
X485074Y835324D02*
D03*
X466388Y846638D02*
D03*
X455074Y835324D02*
D03*
X436388Y846638D02*
D03*
X425074Y835324D02*
D03*
X1576388Y876638D02*
D03*
X1565074Y865324D02*
D03*
X1546388Y876638D02*
D03*
X1535074Y865324D02*
D03*
X1516388Y876638D02*
D03*
X1505074Y865324D02*
D03*
X1486388Y876638D02*
D03*
X1475074Y865324D02*
D03*
X1456388Y876638D02*
D03*
X1445074Y865324D02*
D03*
X1426388Y876638D02*
D03*
X1415074Y865324D02*
D03*
X1396388Y876638D02*
D03*
X1385074Y865324D02*
D03*
X1366388Y876638D02*
D03*
X1355074Y865324D02*
D03*
X1336388Y876638D02*
D03*
X1325074Y865324D02*
D03*
X1306388Y876638D02*
D03*
X1295074Y865324D02*
D03*
X1276388Y876638D02*
D03*
X1265074Y865324D02*
D03*
X1246388Y876638D02*
D03*
X1235074Y865324D02*
D03*
X1216388Y876638D02*
D03*
X1205074Y865324D02*
D03*
X1186388Y876638D02*
D03*
X1175074Y865324D02*
D03*
X1156388Y876638D02*
D03*
X1145074Y865324D02*
D03*
X1126388Y876638D02*
D03*
X1115074Y865324D02*
D03*
X1096388Y876638D02*
D03*
X1085074Y865324D02*
D03*
X1066388Y876638D02*
D03*
X1055074Y865324D02*
D03*
X1036388Y876638D02*
D03*
X1025074Y865324D02*
D03*
X1006388Y876638D02*
D03*
X995074Y865324D02*
D03*
X976388Y876638D02*
D03*
X965074Y865324D02*
D03*
X946388Y876638D02*
D03*
X935074Y865324D02*
D03*
X916388Y876638D02*
D03*
X905074Y865324D02*
D03*
X886388Y876638D02*
D03*
X875074Y865324D02*
D03*
X856388Y876638D02*
D03*
X845074Y865324D02*
D03*
X826388Y876638D02*
D03*
X815074Y865324D02*
D03*
X796388Y876638D02*
D03*
X785074Y865324D02*
D03*
X766388Y876638D02*
D03*
X755074Y865324D02*
D03*
X736388Y876638D02*
D03*
X725074Y865324D02*
D03*
X706388Y876638D02*
D03*
X695074Y865324D02*
D03*
X676388Y876638D02*
D03*
X665074Y865324D02*
D03*
X646388Y876638D02*
D03*
X635074Y865324D02*
D03*
X616388Y876638D02*
D03*
X605074Y865324D02*
D03*
X586388Y876638D02*
D03*
X575074Y865324D02*
D03*
X556388Y876638D02*
D03*
X545074Y865324D02*
D03*
X526388Y876638D02*
D03*
X515074Y865324D02*
D03*
X496388Y876638D02*
D03*
X485074Y865324D02*
D03*
X466388Y876638D02*
D03*
X455074Y865324D02*
D03*
X436388Y876638D02*
D03*
X425074Y865324D02*
D03*
X1576388Y906638D02*
D03*
X1565074Y895324D02*
D03*
X1546388Y906638D02*
D03*
X1535074Y895324D02*
D03*
X1516388Y906638D02*
D03*
X1505074Y895324D02*
D03*
X1486388Y906638D02*
D03*
X1475074Y895324D02*
D03*
X1456388Y906638D02*
D03*
X1445074Y895324D02*
D03*
X1426388Y906638D02*
D03*
X1415074Y895324D02*
D03*
X1396388Y906638D02*
D03*
X1385074Y895324D02*
D03*
X1366388Y906638D02*
D03*
X1355074Y895324D02*
D03*
X1336388Y906638D02*
D03*
X1325074Y895324D02*
D03*
X1306388Y906638D02*
D03*
X1295074Y895324D02*
D03*
X1276388Y906638D02*
D03*
X1265074Y895324D02*
D03*
X1246388Y906638D02*
D03*
X1235074Y895324D02*
D03*
X1216388Y906638D02*
D03*
X1205074Y895324D02*
D03*
X1186388Y906638D02*
D03*
X1175074Y895324D02*
D03*
X1156388Y906638D02*
D03*
X1145074Y895324D02*
D03*
X1126388Y906638D02*
D03*
X1115074Y895324D02*
D03*
X1096388Y906638D02*
D03*
X1085074Y895324D02*
D03*
X1066388Y906638D02*
D03*
X1055074Y895324D02*
D03*
X1036388Y906638D02*
D03*
X1025074Y895324D02*
D03*
X1006388Y906638D02*
D03*
X995074Y895324D02*
D03*
X976388Y906638D02*
D03*
X965074Y895324D02*
D03*
X946388Y906638D02*
D03*
X935074Y895324D02*
D03*
X916388Y906638D02*
D03*
X905074Y895324D02*
D03*
X886388Y906638D02*
D03*
X875074Y895324D02*
D03*
X856388Y906638D02*
D03*
X845074Y895324D02*
D03*
X826388Y906638D02*
D03*
X815074Y895324D02*
D03*
X796388Y906638D02*
D03*
X785074Y895324D02*
D03*
X766388Y906638D02*
D03*
X755074Y895324D02*
D03*
X736388Y906638D02*
D03*
X725074Y895324D02*
D03*
X706388Y906638D02*
D03*
X695074Y895324D02*
D03*
X676388Y906638D02*
D03*
X665074Y895324D02*
D03*
X646388Y906638D02*
D03*
X635074Y895324D02*
D03*
X616388Y906638D02*
D03*
X605074Y895324D02*
D03*
X586388Y906638D02*
D03*
X575074Y895324D02*
D03*
X556388Y906638D02*
D03*
X545074Y895324D02*
D03*
X526388Y906638D02*
D03*
X515074Y895324D02*
D03*
X496388Y906638D02*
D03*
X485074Y895324D02*
D03*
X466388Y906638D02*
D03*
X455074Y895324D02*
D03*
X436388Y906638D02*
D03*
X425074Y895324D02*
D03*
X1576388Y936638D02*
D03*
X1565074Y925324D02*
D03*
X1546388Y936638D02*
D03*
X1535074Y925324D02*
D03*
X1516388Y936638D02*
D03*
X1505074Y925324D02*
D03*
X1486388Y936638D02*
D03*
X1475074Y925324D02*
D03*
X1456388Y936638D02*
D03*
X1445074Y925324D02*
D03*
X1426388Y936638D02*
D03*
X1415074Y925324D02*
D03*
X1396388Y936638D02*
D03*
X1385074Y925324D02*
D03*
X1366388Y936638D02*
D03*
X1355074Y925324D02*
D03*
X1336388Y936638D02*
D03*
X1325074Y925324D02*
D03*
X1306388Y936638D02*
D03*
X1295074Y925324D02*
D03*
X1276388Y936638D02*
D03*
X1265074Y925324D02*
D03*
X1246388Y936638D02*
D03*
X1235074Y925324D02*
D03*
X1216388Y936638D02*
D03*
X1205074Y925324D02*
D03*
X1186388Y936638D02*
D03*
X1175074Y925324D02*
D03*
X1156388Y936638D02*
D03*
X1145074Y925324D02*
D03*
X1126388Y936638D02*
D03*
X1115074Y925324D02*
D03*
X1096388Y936638D02*
D03*
X1085074Y925324D02*
D03*
X1066388Y936638D02*
D03*
X1055074Y925324D02*
D03*
X1036388Y936638D02*
D03*
X1025074Y925324D02*
D03*
X1006388Y936638D02*
D03*
X995074Y925324D02*
D03*
X976388Y936638D02*
D03*
X965074Y925324D02*
D03*
X946388Y936638D02*
D03*
X935074Y925324D02*
D03*
X916388Y936638D02*
D03*
X905074Y925324D02*
D03*
X886388Y936638D02*
D03*
X875074Y925324D02*
D03*
X856388Y936638D02*
D03*
X845074Y925324D02*
D03*
X826388Y936638D02*
D03*
X815074Y925324D02*
D03*
X796388Y936638D02*
D03*
X785074Y925324D02*
D03*
X766388Y936638D02*
D03*
X755074Y925324D02*
D03*
X736388Y936638D02*
D03*
X725074Y925324D02*
D03*
X706388Y936638D02*
D03*
X695074Y925324D02*
D03*
X676388Y936638D02*
D03*
X665074Y925324D02*
D03*
X646388Y936638D02*
D03*
X635074Y925324D02*
D03*
X616388Y936638D02*
D03*
X605074Y925324D02*
D03*
X586388Y936638D02*
D03*
X575074Y925324D02*
D03*
X556388Y936638D02*
D03*
X545074Y925324D02*
D03*
X526388Y936638D02*
D03*
X515074Y925324D02*
D03*
X496388Y936638D02*
D03*
X485074Y925324D02*
D03*
X466388Y936638D02*
D03*
X455074Y925324D02*
D03*
X436388Y936638D02*
D03*
X425074Y925324D02*
D03*
X1576388Y966638D02*
D03*
X1565074Y955324D02*
D03*
X1546388Y966638D02*
D03*
X1535074Y955324D02*
D03*
X1516388Y966638D02*
D03*
X1505074Y955324D02*
D03*
X1486388Y966638D02*
D03*
X1475074Y955324D02*
D03*
X1456388Y966638D02*
D03*
X1445074Y955324D02*
D03*
X1426388Y966638D02*
D03*
X1415074Y955324D02*
D03*
X1396388Y966638D02*
D03*
X1385074Y955324D02*
D03*
X1366388Y966638D02*
D03*
X1355074Y955324D02*
D03*
X1336388Y966638D02*
D03*
X1325074Y955324D02*
D03*
X1306388Y966638D02*
D03*
X1295074Y955324D02*
D03*
X1276388Y966638D02*
D03*
X1265074Y955324D02*
D03*
X1246388Y966638D02*
D03*
X1235074Y955324D02*
D03*
X1216388Y966638D02*
D03*
X1205074Y955324D02*
D03*
X1186388Y966638D02*
D03*
X1175074Y955324D02*
D03*
X1156388Y966638D02*
D03*
X1145074Y955324D02*
D03*
X1126388Y966638D02*
D03*
X1115074Y955324D02*
D03*
X1096388Y966638D02*
D03*
X1085074Y955324D02*
D03*
X1066388Y966638D02*
D03*
X1055074Y955324D02*
D03*
X1036388Y966638D02*
D03*
X1025074Y955324D02*
D03*
X1006388Y966638D02*
D03*
X995074Y955324D02*
D03*
X976388Y966638D02*
D03*
X965074Y955324D02*
D03*
X946388Y966638D02*
D03*
X935074Y955324D02*
D03*
X916388Y966638D02*
D03*
X905074Y955324D02*
D03*
X886388Y966638D02*
D03*
X875074Y955324D02*
D03*
X856388Y966638D02*
D03*
X845074Y955324D02*
D03*
X826388Y966638D02*
D03*
X815074Y955324D02*
D03*
X796388Y966638D02*
D03*
X785074Y955324D02*
D03*
X766388Y966638D02*
D03*
X755074Y955324D02*
D03*
X736388Y966638D02*
D03*
X725074Y955324D02*
D03*
X706388Y966638D02*
D03*
X695074Y955324D02*
D03*
X676388Y966638D02*
D03*
X665074Y955324D02*
D03*
X646388Y966638D02*
D03*
X635074Y955324D02*
D03*
X616388Y966638D02*
D03*
X605074Y955324D02*
D03*
X586388Y966638D02*
D03*
X575074Y955324D02*
D03*
X556388Y966638D02*
D03*
X545074Y955324D02*
D03*
X526388Y966638D02*
D03*
X515074Y955324D02*
D03*
X496388Y966638D02*
D03*
X485074Y955324D02*
D03*
X466388Y966638D02*
D03*
X455074Y955324D02*
D03*
X436388Y966638D02*
D03*
X425074Y955324D02*
D03*
X1576388Y996638D02*
D03*
X1565074Y985324D02*
D03*
X1546388Y996638D02*
D03*
X1535074Y985324D02*
D03*
X1516388Y996638D02*
D03*
X1505074Y985324D02*
D03*
X1486388Y996638D02*
D03*
X1475074Y985324D02*
D03*
X1456388Y996638D02*
D03*
X1445074Y985324D02*
D03*
X1426388Y996638D02*
D03*
X1415074Y985324D02*
D03*
X1396388Y996638D02*
D03*
X1385074Y985324D02*
D03*
X1366388Y996638D02*
D03*
X1355074Y985324D02*
D03*
X1336388Y996638D02*
D03*
X1325074Y985324D02*
D03*
X1306388Y996638D02*
D03*
X1295074Y985324D02*
D03*
X1276388Y996638D02*
D03*
X1265074Y985324D02*
D03*
X1246388Y996638D02*
D03*
X1235074Y985324D02*
D03*
X1216388Y996638D02*
D03*
X1205074Y985324D02*
D03*
X1186388Y996638D02*
D03*
X1175074Y985324D02*
D03*
X1156388Y996638D02*
D03*
X1145074Y985324D02*
D03*
X1126388Y996638D02*
D03*
X1115074Y985324D02*
D03*
X1096388Y996638D02*
D03*
X1085074Y985324D02*
D03*
X1066388Y996638D02*
D03*
X1055074Y985324D02*
D03*
X1036388Y996638D02*
D03*
X1025074Y985324D02*
D03*
X1006388Y996638D02*
D03*
X995074Y985324D02*
D03*
X976388Y996638D02*
D03*
X965074Y985324D02*
D03*
X946388Y996638D02*
D03*
X935074Y985324D02*
D03*
X916388Y996638D02*
D03*
X905074Y985324D02*
D03*
X886388Y996638D02*
D03*
X875074Y985324D02*
D03*
X856388Y996638D02*
D03*
X845074Y985324D02*
D03*
X826388Y996638D02*
D03*
X815074Y985324D02*
D03*
X796388Y996638D02*
D03*
X785074Y985324D02*
D03*
X766388Y996638D02*
D03*
X755074Y985324D02*
D03*
X736388Y996638D02*
D03*
X725074Y985324D02*
D03*
X706388Y996638D02*
D03*
X695074Y985324D02*
D03*
X676388Y996638D02*
D03*
X665074Y985324D02*
D03*
X646388Y996638D02*
D03*
X635074Y985324D02*
D03*
X616388Y996638D02*
D03*
X605074Y985324D02*
D03*
X586388Y996638D02*
D03*
X575074Y985324D02*
D03*
X556388Y996638D02*
D03*
X545074Y985324D02*
D03*
X526388Y996638D02*
D03*
X515074Y985324D02*
D03*
X496388Y996638D02*
D03*
X485074Y985324D02*
D03*
X466388Y996638D02*
D03*
X455074Y985324D02*
D03*
X436388Y996638D02*
D03*
X425074Y985324D02*
D03*
X1576388Y1026638D02*
D03*
X1565074Y1015324D02*
D03*
X1546388Y1026638D02*
D03*
X1535074Y1015324D02*
D03*
X1516388Y1026638D02*
D03*
X1505074Y1015324D02*
D03*
X1486388Y1026638D02*
D03*
X1475074Y1015324D02*
D03*
X1456388Y1026638D02*
D03*
X1445074Y1015324D02*
D03*
X1426388Y1026638D02*
D03*
X1415074Y1015324D02*
D03*
X1396388Y1026638D02*
D03*
X1385074Y1015324D02*
D03*
X1366388Y1026638D02*
D03*
X1355074Y1015324D02*
D03*
X1336388Y1026638D02*
D03*
X1325074Y1015324D02*
D03*
X1306388Y1026638D02*
D03*
X1295074Y1015324D02*
D03*
X1276388Y1026638D02*
D03*
X1265074Y1015324D02*
D03*
X1246388Y1026638D02*
D03*
X1235074Y1015324D02*
D03*
X1216388Y1026638D02*
D03*
X1205074Y1015324D02*
D03*
X1186388Y1026638D02*
D03*
X1175074Y1015324D02*
D03*
X1156388Y1026638D02*
D03*
X1145074Y1015324D02*
D03*
X1126388Y1026638D02*
D03*
X1115074Y1015324D02*
D03*
X1096388Y1026638D02*
D03*
X1085074Y1015324D02*
D03*
X1066388Y1026638D02*
D03*
X1055074Y1015324D02*
D03*
X1036388Y1026638D02*
D03*
X1025074Y1015324D02*
D03*
X1006388Y1026638D02*
D03*
X995074Y1015324D02*
D03*
X976388Y1026638D02*
D03*
X965074Y1015324D02*
D03*
X946388Y1026638D02*
D03*
X935074Y1015324D02*
D03*
X916388Y1026638D02*
D03*
X905074Y1015324D02*
D03*
X886388Y1026638D02*
D03*
X875074Y1015324D02*
D03*
X856388Y1026638D02*
D03*
X845074Y1015324D02*
D03*
X826388Y1026638D02*
D03*
X815074Y1015324D02*
D03*
X796388Y1026638D02*
D03*
X785074Y1015324D02*
D03*
X766388Y1026638D02*
D03*
X755074Y1015324D02*
D03*
X736388Y1026638D02*
D03*
X725074Y1015324D02*
D03*
X706388Y1026638D02*
D03*
X695074Y1015324D02*
D03*
X676388Y1026638D02*
D03*
X665074Y1015324D02*
D03*
X646388Y1026638D02*
D03*
X635074Y1015324D02*
D03*
X616388Y1026638D02*
D03*
X605074Y1015324D02*
D03*
X586388Y1026638D02*
D03*
X575074Y1015324D02*
D03*
X556388Y1026638D02*
D03*
X545074Y1015324D02*
D03*
X526388Y1026638D02*
D03*
X515074Y1015324D02*
D03*
X496388Y1026638D02*
D03*
X485074Y1015324D02*
D03*
X466388Y1026638D02*
D03*
X455074Y1015324D02*
D03*
X436388Y1026638D02*
D03*
X425074Y1015324D02*
D03*
M02*
