M48
;Layer_Color=9474304
;FILE_FORMAT=4:4
METRIC,LZ
;TYPE=PLATED
T1F00S00C0.3000
T2F00S00C0.9000
T3F00S00C3.0000
%
T01
X011955Y0076625
X01215Y00768388
X012255Y0076625
X0124275Y00768
X012555Y0076625
X0127375Y00768
X012855Y0076625
X0130375Y00768
X013155Y0076625
X013355Y00768388
X0134575Y0076625
X0136475Y00768388
X013755Y0076625
X0139525Y007685
X0140575Y0076625
X014355
X014655
X014955
X0152575
X0155575Y0076525
X0118425Y00768
X011655Y0076625
X0113575
X011055
X010755
X0104525
X010155Y0076575
X0098575
X009555
X009255
X008955
X0086575
X008355
X008055
X007755
X0074575
X0071575
X006855
X006555
X006255
X0059575
X0056575
X005355
X005055
X004755Y007655
X0044575Y0076575
Y007955
X004755Y0079525
X005055Y007955
X005355
X0056575
X0059575
X006255
X006555
X006855
X0071575
X0074575
X007755
Y0082575
X0074575
X0071575
X007155Y0085575
X007455
X0077525
X007755Y0088575
X0074575
Y0091575
X007755
Y0094575
X0074575
X0071575
Y0091575
Y0088575
X006855
Y0091575
Y0094575
X006555
Y0091575
Y0088575
X006255
X0059575
Y0091575
X006255
Y0094575
X0059575
X0056575
Y0091575
Y0088575
X005655Y0085575
X005955
X0062525
X0065525
X0068525
X006855Y0082575
X006555
X006255
X0059575
X0056575
X005355
X005055
X0050525Y0085575
X0053525
X005355Y0088575
Y0091575
Y0094575
X005055
Y0091575
Y0088575
X004755Y008855
X0044575Y0088575
Y0091575
Y0094575
X004755Y009455
Y009155
X0047525Y008555
X004455Y0085575
X0044575Y0082575
X004755Y008255
X0047525Y0097575
X004455Y00976
X0044575Y01006
X004755Y0100575
X005055Y01006
X005355
X0053525Y00976
X0050525
X005655
X005955
X0062525
X0065525
X0068525
X006855Y01006
X006555
X006255
X0059575
X0056575
X0071575
X0074575
X007755
X0077525Y00976
X007455
X007155
X0080525
X0083525
X008355Y01006
X008055
X0086575
X008955
X009255
X009555
X0095525Y00976
X0092525
X0089525
X008655
X0086575Y0094575
X008955
Y0091575
X0086575
Y0088575
X008955
X009255
X009555
Y0091575
Y0094575
X009255
Y0091575
X0098575
X010155
Y0094575
X0098575
X009855Y00976
X0101525
X01045Y009765
X0104525Y010065
X010155Y01006
X0098575
X010755Y010065
X011055
X0110525Y009765
X0107525
X010755Y0094625
Y0091625
Y0088625
X011055
Y0091625
Y0094625
X0113575
X011655
Y0091625
X0113575
Y0088625
X011655
X0116525Y0085625
X011355
X0113575Y0082625
X011655
Y00796
X0118475Y00799
X0113575Y00796
X011055
X010755
Y0082625
X011055
X0110525Y0085625
X0107525
X01045
X0104525Y0082625
X010155Y0082575
X0098575
X009855Y0085575
X0101525
X010155Y0088575
X0098575
X0104525Y0088625
Y0091625
Y0094625
X011355Y009765
X0116525
X011655Y010065
X0113575
X0104525Y00796
X010155Y007955
X0098575
X009555
X009255
X008955
X0086575
Y0082575
X008955
X009255
X009555
X0095525Y0085575
X0092525
X0089525
X008655
X0083525
X0080525
X008055Y0082575
X008355
Y007955
X008055
Y0088575
X008355
Y0091575
Y0094575
X008055
Y0091575
X011955Y0091625
X012255
Y0094625
X011955
X0119525Y009765
X0122525
X0125525
X0128525
X0131525
X013155Y010065
X012855
X012555
X012255
X011955
Y0088625
X012255
X012555
X0127375Y00888
X012855Y0088625
X013155
Y0091625
X0130375Y00919
X012855Y0091625
Y0094625
X013155
X013355Y00950138
X0134575Y0094625
X013755
Y0091625
X0134575
Y0088625
X013755
X0140575
X014355
X014655
X014955
Y0091625
Y0094625
X014655
Y0091625
X014355
X0140575
Y0094625
X014355
X0143525Y009765
X014055
X0140575Y010065
X0139225Y0100625
X013755Y010065
X0134575
X013455Y009765
X0136475Y0098
X0137525Y009765
X0146525
X0149525
X014955Y010065
X014655
X014355
X0152575
X015255Y009765
X0152575Y0094625
Y0091625
Y0088625
X015255Y0085625
X0152575Y0082625
Y00796
X014955
X014655
X014355
X0140575
Y0082625
X014355
X014655
X014955
X0149525Y0085625
X0146525
X0143525
X014055
X0137525
X013455
X0134575Y0082625
X013755
Y00796
X0134575
X013155
X012855
X012555
X012255
X011955
Y0082625
X01215Y0082825
X012255Y0082625
X012555
X012855
X013155
X0131525Y0085625
X0128525
X0125525
X0124275Y00858
X0122525Y0085625
X0119525
X012555Y0091625
Y0094625
X0155575Y0094525
Y0091525
Y0088525
X015555Y0085525
X0155575Y0082525
Y00795
X015555Y009755
X0155575Y010055
T02
X012033Y00745
X012287
X012541
X012795
X013049
X013303
X013557
X011779
X011525
X00772Y0105525
X007466
X007212
X006958
X006704
X00645
X006196
X005942
X005688
X005434
X00518
X007974
X008228
X008482
X008736
X00899
X009244
X009498
X009752
X010006
X01026
X010514
X010768
X011022
X011276
X011526Y0105525
X01178
X012034
X012288
X012542
X012796
X01305
X013304
X013558
X013812
X014066
X01432
X014574
X014828
T03
X016Y0075
X004
Y0105
X016
M30
