G04*
G04 #@! TF.GenerationSoftware,Altium Limited,Altium Designer,18.1.9 (240)*
G04*
G04 Layer_Color=65535*
%FSLAX44Y44*%
%MOMM*%
G71*
G01*
G75*
%ADD10C,0.2000*%
%ADD11C,0.1270*%
%ADD12C,0.2540*%
D10*
X1158950Y1067950D02*
X1495500D01*
X1139900D02*
X1158950D01*
X1139900Y1042550D02*
Y1067950D01*
Y1042550D02*
X1495500D01*
Y1067950D01*
X1139800Y757700D02*
X1368400D01*
X1139800Y732300D02*
Y757700D01*
Y732300D02*
X1368400D01*
Y757700D01*
X1140300Y1042550D02*
Y1067950D01*
X505300Y1042550D02*
X1140300D01*
X505300D02*
Y1067950D01*
X524350D01*
X1140300D01*
D11*
X1569317Y779567D02*
X1573913Y780628D01*
X1569317Y779567D02*
X1570378Y784163D01*
X1573913Y780628D01*
X1572146Y776739D02*
X1574974Y779567D01*
X1566489Y782396D02*
X1569317Y785224D01*
X1539317Y779567D02*
X1543913Y780628D01*
X1539317Y779567D02*
X1540378Y784163D01*
X1543913Y780628D01*
X1542146Y776739D02*
X1544974Y779567D01*
X1536489Y782396D02*
X1539317Y785224D01*
X1509317Y779567D02*
X1513913Y780628D01*
X1509317Y779567D02*
X1510378Y784163D01*
X1513913Y780628D01*
X1512146Y776739D02*
X1514974Y779567D01*
X1506489Y782396D02*
X1509317Y785224D01*
X1479317Y779567D02*
X1483913Y780628D01*
X1479317Y779567D02*
X1480378Y784163D01*
X1483913Y780628D01*
X1482146Y776739D02*
X1484974Y779567D01*
X1476489Y782396D02*
X1479317Y785224D01*
X1449317Y779567D02*
X1453913Y780628D01*
X1449317Y779567D02*
X1450378Y784163D01*
X1453913Y780628D01*
X1452146Y776739D02*
X1454974Y779567D01*
X1446489Y782396D02*
X1449317Y785224D01*
X1419317Y779567D02*
X1423913Y780628D01*
X1419317Y779567D02*
X1420378Y784163D01*
X1423913Y780628D01*
X1422146Y776739D02*
X1424974Y779567D01*
X1416489Y782396D02*
X1419317Y785224D01*
X1389317Y779567D02*
X1393913Y780628D01*
X1389317Y779567D02*
X1390378Y784163D01*
X1393913Y780628D01*
X1392146Y776739D02*
X1394974Y779567D01*
X1386489Y782396D02*
X1389317Y785224D01*
X1359317Y779567D02*
X1363913Y780628D01*
X1359317Y779567D02*
X1360378Y784163D01*
X1363913Y780628D01*
X1362146Y776739D02*
X1364974Y779567D01*
X1356489Y782396D02*
X1359317Y785224D01*
X1329317Y779567D02*
X1333913Y780628D01*
X1329317Y779567D02*
X1330378Y784163D01*
X1333913Y780628D01*
X1332146Y776739D02*
X1334974Y779567D01*
X1326489Y782396D02*
X1329317Y785224D01*
X1299317Y779567D02*
X1303913Y780628D01*
X1299317Y779567D02*
X1300378Y784163D01*
X1303913Y780628D01*
X1302146Y776739D02*
X1304974Y779567D01*
X1296489Y782396D02*
X1299317Y785224D01*
X1269317Y779567D02*
X1273913Y780628D01*
X1269317Y779567D02*
X1270378Y784163D01*
X1273913Y780628D01*
X1272145Y776739D02*
X1274974Y779567D01*
X1266489Y782396D02*
X1269317Y785224D01*
X1239317Y779567D02*
X1243913Y780628D01*
X1239317Y779567D02*
X1240378Y784163D01*
X1243913Y780628D01*
X1242145Y776739D02*
X1244974Y779567D01*
X1236489Y782396D02*
X1239317Y785224D01*
X1209317Y779567D02*
X1213913Y780628D01*
X1209317Y779567D02*
X1210378Y784163D01*
X1213913Y780628D01*
X1212145Y776739D02*
X1214974Y779567D01*
X1206489Y782396D02*
X1209317Y785224D01*
X1179317Y779567D02*
X1183913Y780628D01*
X1179317Y779567D02*
X1180378Y784163D01*
X1183913Y780628D01*
X1182145Y776739D02*
X1184974Y779567D01*
X1176489Y782396D02*
X1179317Y785224D01*
X1149317Y779567D02*
X1153913Y780628D01*
X1149317Y779567D02*
X1150378Y784163D01*
X1153913Y780628D01*
X1152145Y776739D02*
X1154974Y779567D01*
X1146489Y782396D02*
X1149317Y785224D01*
X1119317Y779567D02*
X1123913Y780628D01*
X1119317Y779567D02*
X1120378Y784163D01*
X1123913Y780628D01*
X1122145Y776739D02*
X1124974Y779567D01*
X1116489Y782396D02*
X1119317Y785224D01*
X1089317Y779567D02*
X1093913Y780628D01*
X1089317Y779567D02*
X1090378Y784163D01*
X1093913Y780628D01*
X1092145Y776739D02*
X1094974Y779567D01*
X1086489Y782396D02*
X1089317Y785224D01*
X1059317Y779567D02*
X1063913Y780628D01*
X1059317Y779567D02*
X1060378Y784163D01*
X1063913Y780628D01*
X1062145Y776739D02*
X1064974Y779567D01*
X1056489Y782396D02*
X1059317Y785224D01*
X1029317Y779567D02*
X1033913Y780628D01*
X1029317Y779567D02*
X1030378Y784163D01*
X1033913Y780628D01*
X1032145Y776739D02*
X1034974Y779567D01*
X1026489Y782396D02*
X1029317Y785224D01*
X999317Y779567D02*
X1003913Y780628D01*
X999317Y779567D02*
X1000378Y784163D01*
X1003913Y780628D01*
X1002145Y776739D02*
X1004974Y779567D01*
X996489Y782396D02*
X999317Y785224D01*
X969317Y779567D02*
X973913Y780628D01*
X969317Y779567D02*
X970378Y784163D01*
X973913Y780628D01*
X972145Y776739D02*
X974974Y779567D01*
X966489Y782396D02*
X969317Y785224D01*
X939317Y779567D02*
X943913Y780628D01*
X939317Y779567D02*
X940378Y784163D01*
X943913Y780628D01*
X942145Y776739D02*
X944974Y779567D01*
X936489Y782396D02*
X939317Y785224D01*
X909317Y779567D02*
X913913Y780628D01*
X909317Y779567D02*
X910378Y784163D01*
X913913Y780628D01*
X912145Y776739D02*
X914974Y779567D01*
X906489Y782396D02*
X909317Y785224D01*
X879317Y779567D02*
X883913Y780628D01*
X879317Y779567D02*
X880378Y784163D01*
X883913Y780628D01*
X882145Y776739D02*
X884974Y779567D01*
X876489Y782396D02*
X879317Y785224D01*
X849317Y779567D02*
X853913Y780628D01*
X849317Y779567D02*
X850378Y784163D01*
X853913Y780628D01*
X852145Y776739D02*
X854974Y779567D01*
X846489Y782396D02*
X849317Y785224D01*
X819317Y779567D02*
X823913Y780628D01*
X819317Y779567D02*
X820378Y784163D01*
X823913Y780628D01*
X822145Y776739D02*
X824974Y779567D01*
X816489Y782396D02*
X819317Y785224D01*
X789317Y779567D02*
X793913Y780628D01*
X789317Y779567D02*
X790378Y784163D01*
X793913Y780628D01*
X792145Y776739D02*
X794974Y779567D01*
X786489Y782396D02*
X789317Y785224D01*
X759317Y779567D02*
X763913Y780628D01*
X759317Y779567D02*
X760378Y784163D01*
X763913Y780628D01*
X762145Y776739D02*
X764974Y779567D01*
X756489Y782396D02*
X759317Y785224D01*
X729317Y779567D02*
X733913Y780628D01*
X729317Y779567D02*
X730378Y784163D01*
X733913Y780628D01*
X732145Y776739D02*
X734974Y779567D01*
X726489Y782396D02*
X729317Y785224D01*
X699317Y779567D02*
X703913Y780628D01*
X699317Y779567D02*
X700378Y784163D01*
X703913Y780628D01*
X702145Y776739D02*
X704974Y779567D01*
X696489Y782396D02*
X699317Y785224D01*
X669317Y779567D02*
X673913Y780628D01*
X669317Y779567D02*
X670378Y784163D01*
X673913Y780628D01*
X672145Y776739D02*
X674974Y779567D01*
X666489Y782396D02*
X669317Y785224D01*
X639317Y779567D02*
X643913Y780628D01*
X639317Y779567D02*
X640378Y784163D01*
X643913Y780628D01*
X642145Y776739D02*
X644974Y779567D01*
X636489Y782396D02*
X639317Y785224D01*
X609317Y779567D02*
X613913Y780628D01*
X609317Y779567D02*
X610378Y784163D01*
X613913Y780628D01*
X612146Y776739D02*
X614974Y779567D01*
X606489Y782396D02*
X609317Y785224D01*
X579317Y779567D02*
X583913Y780628D01*
X579317Y779567D02*
X580378Y784163D01*
X583913Y780628D01*
X582146Y776739D02*
X584974Y779567D01*
X576489Y782396D02*
X579317Y785224D01*
X549317Y779567D02*
X553913Y780628D01*
X549317Y779567D02*
X550378Y784163D01*
X553913Y780628D01*
X552146Y776739D02*
X554974Y779567D01*
X546489Y782396D02*
X549317Y785224D01*
X519317Y779567D02*
X523913Y780628D01*
X519317Y779567D02*
X520378Y784163D01*
X523913Y780628D01*
X522146Y776739D02*
X524974Y779567D01*
X516489Y782396D02*
X519317Y785224D01*
X489317Y779567D02*
X493913Y780628D01*
X489317Y779567D02*
X490378Y784163D01*
X493913Y780628D01*
X492146Y776739D02*
X494974Y779567D01*
X486489Y782396D02*
X489317Y785224D01*
X459317Y779567D02*
X463913Y780628D01*
X459317Y779567D02*
X460378Y784163D01*
X463913Y780628D01*
X462146Y776739D02*
X464974Y779567D01*
X456489Y782396D02*
X459317Y785224D01*
X429317Y779567D02*
X433913Y780628D01*
X429317Y779567D02*
X430378Y784163D01*
X433913Y780628D01*
X432146Y776739D02*
X434974Y779567D01*
X426489Y782396D02*
X429317Y785224D01*
X1569317Y809567D02*
X1573913Y810628D01*
X1569317Y809567D02*
X1570378Y814163D01*
X1573913Y810628D01*
X1572146Y806739D02*
X1574974Y809567D01*
X1566489Y812396D02*
X1569317Y815224D01*
X1539317Y809567D02*
X1543913Y810628D01*
X1539317Y809567D02*
X1540378Y814163D01*
X1543913Y810628D01*
X1542146Y806739D02*
X1544974Y809567D01*
X1536489Y812396D02*
X1539317Y815224D01*
X1509317Y809567D02*
X1513913Y810628D01*
X1509317Y809567D02*
X1510378Y814163D01*
X1513913Y810628D01*
X1512146Y806739D02*
X1514974Y809567D01*
X1506489Y812396D02*
X1509317Y815224D01*
X1479317Y809567D02*
X1483913Y810628D01*
X1479317Y809567D02*
X1480378Y814163D01*
X1483913Y810628D01*
X1482146Y806739D02*
X1484974Y809567D01*
X1476489Y812396D02*
X1479317Y815224D01*
X1449317Y809567D02*
X1453913Y810628D01*
X1449317Y809567D02*
X1450378Y814163D01*
X1453913Y810628D01*
X1452146Y806739D02*
X1454974Y809567D01*
X1446489Y812396D02*
X1449317Y815224D01*
X1419317Y809567D02*
X1423913Y810628D01*
X1419317Y809567D02*
X1420378Y814163D01*
X1423913Y810628D01*
X1422146Y806739D02*
X1424974Y809567D01*
X1416489Y812396D02*
X1419317Y815224D01*
X1389317Y809567D02*
X1393913Y810628D01*
X1389317Y809567D02*
X1390378Y814163D01*
X1393913Y810628D01*
X1392146Y806739D02*
X1394974Y809567D01*
X1386489Y812396D02*
X1389317Y815224D01*
X1359317Y809567D02*
X1363913Y810628D01*
X1359317Y809567D02*
X1360378Y814163D01*
X1363913Y810628D01*
X1362146Y806739D02*
X1364974Y809567D01*
X1356489Y812396D02*
X1359317Y815224D01*
X1329317Y809567D02*
X1333913Y810628D01*
X1329317Y809567D02*
X1330378Y814163D01*
X1333913Y810628D01*
X1332146Y806739D02*
X1334974Y809567D01*
X1326489Y812396D02*
X1329317Y815224D01*
X1299317Y809567D02*
X1303913Y810628D01*
X1299317Y809567D02*
X1300378Y814163D01*
X1303913Y810628D01*
X1302146Y806739D02*
X1304974Y809567D01*
X1296489Y812396D02*
X1299317Y815224D01*
X1269317Y809567D02*
X1273913Y810628D01*
X1269317Y809567D02*
X1270378Y814163D01*
X1273913Y810628D01*
X1272145Y806739D02*
X1274974Y809567D01*
X1266489Y812396D02*
X1269317Y815224D01*
X1239317Y809567D02*
X1243913Y810628D01*
X1239317Y809567D02*
X1240378Y814163D01*
X1243913Y810628D01*
X1242145Y806739D02*
X1244974Y809567D01*
X1236489Y812396D02*
X1239317Y815224D01*
X1209317Y809567D02*
X1213913Y810628D01*
X1209317Y809567D02*
X1210378Y814163D01*
X1213913Y810628D01*
X1212145Y806739D02*
X1214974Y809567D01*
X1206489Y812396D02*
X1209317Y815224D01*
X1179317Y809567D02*
X1183913Y810628D01*
X1179317Y809567D02*
X1180378Y814163D01*
X1183913Y810628D01*
X1182145Y806739D02*
X1184974Y809567D01*
X1176489Y812396D02*
X1179317Y815224D01*
X1149317Y809567D02*
X1153913Y810628D01*
X1149317Y809567D02*
X1150378Y814163D01*
X1153913Y810628D01*
X1152145Y806739D02*
X1154974Y809567D01*
X1146489Y812396D02*
X1149317Y815224D01*
X1119317Y809567D02*
X1123913Y810628D01*
X1119317Y809567D02*
X1120378Y814163D01*
X1123913Y810628D01*
X1122145Y806739D02*
X1124974Y809567D01*
X1116489Y812396D02*
X1119317Y815224D01*
X1089317Y809567D02*
X1093913Y810628D01*
X1089317Y809567D02*
X1090378Y814163D01*
X1093913Y810628D01*
X1092145Y806739D02*
X1094974Y809567D01*
X1086489Y812396D02*
X1089317Y815224D01*
X1059317Y809567D02*
X1063913Y810628D01*
X1059317Y809567D02*
X1060378Y814163D01*
X1063913Y810628D01*
X1062145Y806739D02*
X1064974Y809567D01*
X1056489Y812396D02*
X1059317Y815224D01*
X1029317Y809567D02*
X1033913Y810628D01*
X1029317Y809567D02*
X1030378Y814163D01*
X1033913Y810628D01*
X1032145Y806739D02*
X1034974Y809567D01*
X1026489Y812396D02*
X1029317Y815224D01*
X999317Y809567D02*
X1003913Y810628D01*
X999317Y809567D02*
X1000378Y814163D01*
X1003913Y810628D01*
X1002145Y806739D02*
X1004974Y809567D01*
X996489Y812396D02*
X999317Y815224D01*
X969317Y809567D02*
X973913Y810628D01*
X969317Y809567D02*
X970378Y814163D01*
X973913Y810628D01*
X972145Y806739D02*
X974974Y809567D01*
X966489Y812396D02*
X969317Y815224D01*
X939317Y809567D02*
X943913Y810628D01*
X939317Y809567D02*
X940378Y814163D01*
X943913Y810628D01*
X942145Y806739D02*
X944974Y809567D01*
X936489Y812396D02*
X939317Y815224D01*
X909317Y809567D02*
X913913Y810628D01*
X909317Y809567D02*
X910378Y814163D01*
X913913Y810628D01*
X912145Y806739D02*
X914974Y809567D01*
X906489Y812396D02*
X909317Y815224D01*
X879317Y809567D02*
X883913Y810628D01*
X879317Y809567D02*
X880378Y814163D01*
X883913Y810628D01*
X882145Y806739D02*
X884974Y809567D01*
X876489Y812396D02*
X879317Y815224D01*
X849317Y809567D02*
X853913Y810628D01*
X849317Y809567D02*
X850378Y814163D01*
X853913Y810628D01*
X852145Y806739D02*
X854974Y809567D01*
X846489Y812396D02*
X849317Y815224D01*
X819317Y809567D02*
X823913Y810628D01*
X819317Y809567D02*
X820378Y814163D01*
X823913Y810628D01*
X822145Y806739D02*
X824974Y809567D01*
X816489Y812396D02*
X819317Y815224D01*
X789317Y809567D02*
X793913Y810628D01*
X789317Y809567D02*
X790378Y814163D01*
X793913Y810628D01*
X792145Y806739D02*
X794974Y809567D01*
X786489Y812396D02*
X789317Y815224D01*
X759317Y809567D02*
X763913Y810628D01*
X759317Y809567D02*
X760378Y814163D01*
X763913Y810628D01*
X762145Y806739D02*
X764974Y809567D01*
X756489Y812396D02*
X759317Y815224D01*
X729317Y809567D02*
X733913Y810628D01*
X729317Y809567D02*
X730378Y814163D01*
X733913Y810628D01*
X732145Y806739D02*
X734974Y809567D01*
X726489Y812396D02*
X729317Y815224D01*
X699317Y809567D02*
X703913Y810628D01*
X699317Y809567D02*
X700378Y814163D01*
X703913Y810628D01*
X702145Y806739D02*
X704974Y809567D01*
X696489Y812396D02*
X699317Y815224D01*
X669317Y809567D02*
X673913Y810628D01*
X669317Y809567D02*
X670378Y814163D01*
X673913Y810628D01*
X672145Y806739D02*
X674974Y809567D01*
X666489Y812396D02*
X669317Y815224D01*
X639317Y809567D02*
X643913Y810628D01*
X639317Y809567D02*
X640378Y814163D01*
X643913Y810628D01*
X642145Y806739D02*
X644974Y809567D01*
X636489Y812396D02*
X639317Y815224D01*
X609317Y809567D02*
X613913Y810628D01*
X609317Y809567D02*
X610378Y814163D01*
X613913Y810628D01*
X612146Y806739D02*
X614974Y809567D01*
X606489Y812396D02*
X609317Y815224D01*
X579317Y809567D02*
X583913Y810628D01*
X579317Y809567D02*
X580378Y814163D01*
X583913Y810628D01*
X582146Y806739D02*
X584974Y809567D01*
X576489Y812396D02*
X579317Y815224D01*
X549317Y809567D02*
X553913Y810628D01*
X549317Y809567D02*
X550378Y814163D01*
X553913Y810628D01*
X552146Y806739D02*
X554974Y809567D01*
X546489Y812396D02*
X549317Y815224D01*
X519317Y809567D02*
X523913Y810628D01*
X519317Y809567D02*
X520378Y814163D01*
X523913Y810628D01*
X522146Y806739D02*
X524974Y809567D01*
X516489Y812396D02*
X519317Y815224D01*
X489317Y809567D02*
X493913Y810628D01*
X489317Y809567D02*
X490378Y814163D01*
X493913Y810628D01*
X492146Y806739D02*
X494974Y809567D01*
X486489Y812396D02*
X489317Y815224D01*
X459317Y809567D02*
X463913Y810628D01*
X459317Y809567D02*
X460378Y814163D01*
X463913Y810628D01*
X462146Y806739D02*
X464974Y809567D01*
X456489Y812396D02*
X459317Y815224D01*
X429317Y809567D02*
X433913Y810628D01*
X429317Y809567D02*
X430378Y814163D01*
X433913Y810628D01*
X432146Y806739D02*
X434974Y809567D01*
X426489Y812396D02*
X429317Y815224D01*
X1569317Y839567D02*
X1573913Y840628D01*
X1569317Y839567D02*
X1570378Y844163D01*
X1573913Y840628D01*
X1572146Y836739D02*
X1574974Y839567D01*
X1566489Y842395D02*
X1569317Y845224D01*
X1539317Y839567D02*
X1543913Y840628D01*
X1539317Y839567D02*
X1540378Y844163D01*
X1543913Y840628D01*
X1542146Y836739D02*
X1544974Y839567D01*
X1536489Y842395D02*
X1539317Y845224D01*
X1509317Y839567D02*
X1513913Y840628D01*
X1509317Y839567D02*
X1510378Y844163D01*
X1513913Y840628D01*
X1512146Y836739D02*
X1514974Y839567D01*
X1506489Y842395D02*
X1509317Y845224D01*
X1479317Y839567D02*
X1483913Y840628D01*
X1479317Y839567D02*
X1480378Y844163D01*
X1483913Y840628D01*
X1482146Y836739D02*
X1484974Y839567D01*
X1476489Y842395D02*
X1479317Y845224D01*
X1449317Y839567D02*
X1453913Y840628D01*
X1449317Y839567D02*
X1450378Y844163D01*
X1453913Y840628D01*
X1452146Y836739D02*
X1454974Y839567D01*
X1446489Y842395D02*
X1449317Y845224D01*
X1419317Y839567D02*
X1423913Y840628D01*
X1419317Y839567D02*
X1420378Y844163D01*
X1423913Y840628D01*
X1422146Y836739D02*
X1424974Y839567D01*
X1416489Y842395D02*
X1419317Y845224D01*
X1389317Y839567D02*
X1393913Y840628D01*
X1389317Y839567D02*
X1390378Y844163D01*
X1393913Y840628D01*
X1392146Y836739D02*
X1394974Y839567D01*
X1386489Y842395D02*
X1389317Y845224D01*
X1359317Y839567D02*
X1363913Y840628D01*
X1359317Y839567D02*
X1360378Y844163D01*
X1363913Y840628D01*
X1362146Y836739D02*
X1364974Y839567D01*
X1356489Y842395D02*
X1359317Y845224D01*
X1329317Y839567D02*
X1333913Y840628D01*
X1329317Y839567D02*
X1330378Y844163D01*
X1333913Y840628D01*
X1332146Y836739D02*
X1334974Y839567D01*
X1326489Y842395D02*
X1329317Y845224D01*
X1299317Y839567D02*
X1303913Y840628D01*
X1299317Y839567D02*
X1300378Y844163D01*
X1303913Y840628D01*
X1302146Y836739D02*
X1304974Y839567D01*
X1296489Y842395D02*
X1299317Y845224D01*
X1269317Y839567D02*
X1273913Y840628D01*
X1269317Y839567D02*
X1270378Y844163D01*
X1273913Y840628D01*
X1272145Y836739D02*
X1274974Y839567D01*
X1266489Y842395D02*
X1269317Y845224D01*
X1239317Y839567D02*
X1243913Y840628D01*
X1239317Y839567D02*
X1240378Y844163D01*
X1243913Y840628D01*
X1242145Y836739D02*
X1244974Y839567D01*
X1236489Y842395D02*
X1239317Y845224D01*
X1209317Y839567D02*
X1213913Y840628D01*
X1209317Y839567D02*
X1210378Y844163D01*
X1213913Y840628D01*
X1212145Y836739D02*
X1214974Y839567D01*
X1206489Y842395D02*
X1209317Y845224D01*
X1179317Y839567D02*
X1183913Y840628D01*
X1179317Y839567D02*
X1180378Y844163D01*
X1183913Y840628D01*
X1182145Y836739D02*
X1184974Y839567D01*
X1176489Y842395D02*
X1179317Y845224D01*
X1149317Y839567D02*
X1153913Y840628D01*
X1149317Y839567D02*
X1150378Y844163D01*
X1153913Y840628D01*
X1152145Y836739D02*
X1154974Y839567D01*
X1146489Y842395D02*
X1149317Y845224D01*
X1119317Y839567D02*
X1123913Y840628D01*
X1119317Y839567D02*
X1120378Y844163D01*
X1123913Y840628D01*
X1122145Y836739D02*
X1124974Y839567D01*
X1116489Y842395D02*
X1119317Y845224D01*
X1089317Y839567D02*
X1093913Y840628D01*
X1089317Y839567D02*
X1090378Y844163D01*
X1093913Y840628D01*
X1092145Y836739D02*
X1094974Y839567D01*
X1086489Y842395D02*
X1089317Y845224D01*
X1059317Y839567D02*
X1063913Y840628D01*
X1059317Y839567D02*
X1060378Y844163D01*
X1063913Y840628D01*
X1062145Y836739D02*
X1064974Y839567D01*
X1056489Y842395D02*
X1059317Y845224D01*
X1029317Y839567D02*
X1033913Y840628D01*
X1029317Y839567D02*
X1030378Y844163D01*
X1033913Y840628D01*
X1032145Y836739D02*
X1034974Y839567D01*
X1026489Y842395D02*
X1029317Y845224D01*
X999317Y839567D02*
X1003913Y840628D01*
X999317Y839567D02*
X1000378Y844163D01*
X1003913Y840628D01*
X1002145Y836739D02*
X1004974Y839567D01*
X996489Y842395D02*
X999317Y845224D01*
X969317Y839567D02*
X973913Y840628D01*
X969317Y839567D02*
X970378Y844163D01*
X973913Y840628D01*
X972145Y836739D02*
X974974Y839567D01*
X966489Y842395D02*
X969317Y845224D01*
X939317Y839567D02*
X943913Y840628D01*
X939317Y839567D02*
X940378Y844163D01*
X943913Y840628D01*
X942145Y836739D02*
X944974Y839567D01*
X936489Y842395D02*
X939317Y845224D01*
X909317Y839567D02*
X913913Y840628D01*
X909317Y839567D02*
X910378Y844163D01*
X913913Y840628D01*
X912145Y836739D02*
X914974Y839567D01*
X906489Y842395D02*
X909317Y845224D01*
X879317Y839567D02*
X883913Y840628D01*
X879317Y839567D02*
X880378Y844163D01*
X883913Y840628D01*
X882145Y836739D02*
X884974Y839567D01*
X876489Y842395D02*
X879317Y845224D01*
X849317Y839567D02*
X853913Y840628D01*
X849317Y839567D02*
X850378Y844163D01*
X853913Y840628D01*
X852145Y836739D02*
X854974Y839567D01*
X846489Y842395D02*
X849317Y845224D01*
X819317Y839567D02*
X823913Y840628D01*
X819317Y839567D02*
X820378Y844163D01*
X823913Y840628D01*
X822145Y836739D02*
X824974Y839567D01*
X816489Y842395D02*
X819317Y845224D01*
X789317Y839567D02*
X793913Y840628D01*
X789317Y839567D02*
X790378Y844163D01*
X793913Y840628D01*
X792145Y836739D02*
X794974Y839567D01*
X786489Y842395D02*
X789317Y845224D01*
X759317Y839567D02*
X763913Y840628D01*
X759317Y839567D02*
X760378Y844163D01*
X763913Y840628D01*
X762145Y836739D02*
X764974Y839567D01*
X756489Y842395D02*
X759317Y845224D01*
X729317Y839567D02*
X733913Y840628D01*
X729317Y839567D02*
X730378Y844163D01*
X733913Y840628D01*
X732145Y836739D02*
X734974Y839567D01*
X726489Y842395D02*
X729317Y845224D01*
X699317Y839567D02*
X703913Y840628D01*
X699317Y839567D02*
X700378Y844163D01*
X703913Y840628D01*
X702145Y836739D02*
X704974Y839567D01*
X696489Y842395D02*
X699317Y845224D01*
X669317Y839567D02*
X673913Y840628D01*
X669317Y839567D02*
X670378Y844163D01*
X673913Y840628D01*
X672145Y836739D02*
X674974Y839567D01*
X666489Y842395D02*
X669317Y845224D01*
X639317Y839567D02*
X643913Y840628D01*
X639317Y839567D02*
X640378Y844163D01*
X643913Y840628D01*
X642145Y836739D02*
X644974Y839567D01*
X636489Y842395D02*
X639317Y845224D01*
X609317Y839567D02*
X613913Y840628D01*
X609317Y839567D02*
X610378Y844163D01*
X613913Y840628D01*
X612146Y836739D02*
X614974Y839567D01*
X606489Y842395D02*
X609317Y845224D01*
X579317Y839567D02*
X583913Y840628D01*
X579317Y839567D02*
X580378Y844163D01*
X583913Y840628D01*
X582146Y836739D02*
X584974Y839567D01*
X576489Y842395D02*
X579317Y845224D01*
X549317Y839567D02*
X553913Y840628D01*
X549317Y839567D02*
X550378Y844163D01*
X553913Y840628D01*
X552146Y836739D02*
X554974Y839567D01*
X546489Y842395D02*
X549317Y845224D01*
X519317Y839567D02*
X523913Y840628D01*
X519317Y839567D02*
X520378Y844163D01*
X523913Y840628D01*
X522146Y836739D02*
X524974Y839567D01*
X516489Y842395D02*
X519317Y845224D01*
X489317Y839567D02*
X493913Y840628D01*
X489317Y839567D02*
X490378Y844163D01*
X493913Y840628D01*
X492146Y836739D02*
X494974Y839567D01*
X486489Y842395D02*
X489317Y845224D01*
X459317Y839567D02*
X463913Y840628D01*
X459317Y839567D02*
X460378Y844163D01*
X463913Y840628D01*
X462146Y836739D02*
X464974Y839567D01*
X456489Y842395D02*
X459317Y845224D01*
X429317Y839567D02*
X433913Y840628D01*
X429317Y839567D02*
X430378Y844163D01*
X433913Y840628D01*
X432146Y836739D02*
X434974Y839567D01*
X426489Y842395D02*
X429317Y845224D01*
X1569317Y869567D02*
X1573913Y870628D01*
X1569317Y869567D02*
X1570378Y874163D01*
X1573913Y870628D01*
X1572146Y866739D02*
X1574974Y869567D01*
X1566489Y872396D02*
X1569317Y875224D01*
X1539317Y869567D02*
X1543913Y870628D01*
X1539317Y869567D02*
X1540378Y874163D01*
X1543913Y870628D01*
X1542146Y866739D02*
X1544974Y869567D01*
X1536489Y872396D02*
X1539317Y875224D01*
X1509317Y869567D02*
X1513913Y870628D01*
X1509317Y869567D02*
X1510378Y874163D01*
X1513913Y870628D01*
X1512146Y866739D02*
X1514974Y869567D01*
X1506489Y872396D02*
X1509317Y875224D01*
X1479317Y869567D02*
X1483913Y870628D01*
X1479317Y869567D02*
X1480378Y874163D01*
X1483913Y870628D01*
X1482146Y866739D02*
X1484974Y869567D01*
X1476489Y872396D02*
X1479317Y875224D01*
X1449317Y869567D02*
X1453913Y870628D01*
X1449317Y869567D02*
X1450378Y874163D01*
X1453913Y870628D01*
X1452146Y866739D02*
X1454974Y869567D01*
X1446489Y872396D02*
X1449317Y875224D01*
X1419317Y869567D02*
X1423913Y870628D01*
X1419317Y869567D02*
X1420378Y874163D01*
X1423913Y870628D01*
X1422146Y866739D02*
X1424974Y869567D01*
X1416489Y872396D02*
X1419317Y875224D01*
X1389317Y869567D02*
X1393913Y870628D01*
X1389317Y869567D02*
X1390378Y874163D01*
X1393913Y870628D01*
X1392146Y866739D02*
X1394974Y869567D01*
X1386489Y872396D02*
X1389317Y875224D01*
X1359317Y869567D02*
X1363913Y870628D01*
X1359317Y869567D02*
X1360378Y874163D01*
X1363913Y870628D01*
X1362146Y866739D02*
X1364974Y869567D01*
X1356489Y872396D02*
X1359317Y875224D01*
X1329317Y869567D02*
X1333913Y870628D01*
X1329317Y869567D02*
X1330378Y874163D01*
X1333913Y870628D01*
X1332146Y866739D02*
X1334974Y869567D01*
X1326489Y872396D02*
X1329317Y875224D01*
X1299317Y869567D02*
X1303913Y870628D01*
X1299317Y869567D02*
X1300378Y874163D01*
X1303913Y870628D01*
X1302146Y866739D02*
X1304974Y869567D01*
X1296489Y872396D02*
X1299317Y875224D01*
X1269317Y869567D02*
X1273913Y870628D01*
X1269317Y869567D02*
X1270378Y874163D01*
X1273913Y870628D01*
X1272145Y866739D02*
X1274974Y869567D01*
X1266489Y872396D02*
X1269317Y875224D01*
X1239317Y869567D02*
X1243913Y870628D01*
X1239317Y869567D02*
X1240378Y874163D01*
X1243913Y870628D01*
X1242145Y866739D02*
X1244974Y869567D01*
X1236489Y872396D02*
X1239317Y875224D01*
X1209317Y869567D02*
X1213913Y870628D01*
X1209317Y869567D02*
X1210378Y874163D01*
X1213913Y870628D01*
X1212145Y866739D02*
X1214974Y869567D01*
X1206489Y872396D02*
X1209317Y875224D01*
X1179317Y869567D02*
X1183913Y870628D01*
X1179317Y869567D02*
X1180378Y874163D01*
X1183913Y870628D01*
X1182145Y866739D02*
X1184974Y869567D01*
X1176489Y872396D02*
X1179317Y875224D01*
X1149317Y869567D02*
X1153913Y870628D01*
X1149317Y869567D02*
X1150378Y874163D01*
X1153913Y870628D01*
X1152145Y866739D02*
X1154974Y869567D01*
X1146489Y872396D02*
X1149317Y875224D01*
X1119317Y869567D02*
X1123913Y870628D01*
X1119317Y869567D02*
X1120378Y874163D01*
X1123913Y870628D01*
X1122145Y866739D02*
X1124974Y869567D01*
X1116489Y872396D02*
X1119317Y875224D01*
X1089317Y869567D02*
X1093913Y870628D01*
X1089317Y869567D02*
X1090378Y874163D01*
X1093913Y870628D01*
X1092145Y866739D02*
X1094974Y869567D01*
X1086489Y872396D02*
X1089317Y875224D01*
X1059317Y869567D02*
X1063913Y870628D01*
X1059317Y869567D02*
X1060378Y874163D01*
X1063913Y870628D01*
X1062145Y866739D02*
X1064974Y869567D01*
X1056489Y872396D02*
X1059317Y875224D01*
X1029317Y869567D02*
X1033913Y870628D01*
X1029317Y869567D02*
X1030378Y874163D01*
X1033913Y870628D01*
X1032145Y866739D02*
X1034974Y869567D01*
X1026489Y872396D02*
X1029317Y875224D01*
X999317Y869567D02*
X1003913Y870628D01*
X999317Y869567D02*
X1000378Y874163D01*
X1003913Y870628D01*
X1002145Y866739D02*
X1004974Y869567D01*
X996489Y872396D02*
X999317Y875224D01*
X969317Y869567D02*
X973913Y870628D01*
X969317Y869567D02*
X970378Y874163D01*
X973913Y870628D01*
X972145Y866739D02*
X974974Y869567D01*
X966489Y872396D02*
X969317Y875224D01*
X939317Y869567D02*
X943913Y870628D01*
X939317Y869567D02*
X940378Y874163D01*
X943913Y870628D01*
X942145Y866739D02*
X944974Y869567D01*
X936489Y872396D02*
X939317Y875224D01*
X909317Y869567D02*
X913913Y870628D01*
X909317Y869567D02*
X910378Y874163D01*
X913913Y870628D01*
X912145Y866739D02*
X914974Y869567D01*
X906489Y872396D02*
X909317Y875224D01*
X879317Y869567D02*
X883913Y870628D01*
X879317Y869567D02*
X880378Y874163D01*
X883913Y870628D01*
X882145Y866739D02*
X884974Y869567D01*
X876489Y872396D02*
X879317Y875224D01*
X849317Y869567D02*
X853913Y870628D01*
X849317Y869567D02*
X850378Y874163D01*
X853913Y870628D01*
X852145Y866739D02*
X854974Y869567D01*
X846489Y872396D02*
X849317Y875224D01*
X819317Y869567D02*
X823913Y870628D01*
X819317Y869567D02*
X820378Y874163D01*
X823913Y870628D01*
X822145Y866739D02*
X824974Y869567D01*
X816489Y872396D02*
X819317Y875224D01*
X789317Y869567D02*
X793913Y870628D01*
X789317Y869567D02*
X790378Y874163D01*
X793913Y870628D01*
X792145Y866739D02*
X794974Y869567D01*
X786489Y872396D02*
X789317Y875224D01*
X759317Y869567D02*
X763913Y870628D01*
X759317Y869567D02*
X760378Y874163D01*
X763913Y870628D01*
X762145Y866739D02*
X764974Y869567D01*
X756489Y872396D02*
X759317Y875224D01*
X729317Y869567D02*
X733913Y870628D01*
X729317Y869567D02*
X730378Y874163D01*
X733913Y870628D01*
X732145Y866739D02*
X734974Y869567D01*
X726489Y872396D02*
X729317Y875224D01*
X699317Y869567D02*
X703913Y870628D01*
X699317Y869567D02*
X700378Y874163D01*
X703913Y870628D01*
X702145Y866739D02*
X704974Y869567D01*
X696489Y872396D02*
X699317Y875224D01*
X669317Y869567D02*
X673913Y870628D01*
X669317Y869567D02*
X670378Y874163D01*
X673913Y870628D01*
X672145Y866739D02*
X674974Y869567D01*
X666489Y872396D02*
X669317Y875224D01*
X639317Y869567D02*
X643913Y870628D01*
X639317Y869567D02*
X640378Y874163D01*
X643913Y870628D01*
X642145Y866739D02*
X644974Y869567D01*
X636489Y872396D02*
X639317Y875224D01*
X609317Y869567D02*
X613913Y870628D01*
X609317Y869567D02*
X610378Y874163D01*
X613913Y870628D01*
X612146Y866739D02*
X614974Y869567D01*
X606489Y872396D02*
X609317Y875224D01*
X579317Y869567D02*
X583913Y870628D01*
X579317Y869567D02*
X580378Y874163D01*
X583913Y870628D01*
X582146Y866739D02*
X584974Y869567D01*
X576489Y872396D02*
X579317Y875224D01*
X549317Y869567D02*
X553913Y870628D01*
X549317Y869567D02*
X550378Y874163D01*
X553913Y870628D01*
X552146Y866739D02*
X554974Y869567D01*
X546489Y872396D02*
X549317Y875224D01*
X519317Y869567D02*
X523913Y870628D01*
X519317Y869567D02*
X520378Y874163D01*
X523913Y870628D01*
X522146Y866739D02*
X524974Y869567D01*
X516489Y872396D02*
X519317Y875224D01*
X489317Y869567D02*
X493913Y870628D01*
X489317Y869567D02*
X490378Y874163D01*
X493913Y870628D01*
X492146Y866739D02*
X494974Y869567D01*
X486489Y872396D02*
X489317Y875224D01*
X459317Y869567D02*
X463913Y870628D01*
X459317Y869567D02*
X460378Y874163D01*
X463913Y870628D01*
X462146Y866739D02*
X464974Y869567D01*
X456489Y872396D02*
X459317Y875224D01*
X429317Y869567D02*
X433913Y870628D01*
X429317Y869567D02*
X430378Y874163D01*
X433913Y870628D01*
X432146Y866739D02*
X434974Y869567D01*
X426489Y872396D02*
X429317Y875224D01*
X1569317Y899567D02*
X1573913Y900628D01*
X1569317Y899567D02*
X1570378Y904163D01*
X1573913Y900628D01*
X1572146Y896739D02*
X1574974Y899567D01*
X1566489Y902396D02*
X1569317Y905224D01*
X1539317Y899567D02*
X1543913Y900628D01*
X1539317Y899567D02*
X1540378Y904163D01*
X1543913Y900628D01*
X1542146Y896739D02*
X1544974Y899567D01*
X1536489Y902396D02*
X1539317Y905224D01*
X1509317Y899567D02*
X1513913Y900628D01*
X1509317Y899567D02*
X1510378Y904163D01*
X1513913Y900628D01*
X1512146Y896739D02*
X1514974Y899567D01*
X1506489Y902396D02*
X1509317Y905224D01*
X1479317Y899567D02*
X1483913Y900628D01*
X1479317Y899567D02*
X1480378Y904163D01*
X1483913Y900628D01*
X1482146Y896739D02*
X1484974Y899567D01*
X1476489Y902396D02*
X1479317Y905224D01*
X1449317Y899567D02*
X1453913Y900628D01*
X1449317Y899567D02*
X1450378Y904163D01*
X1453913Y900628D01*
X1452146Y896739D02*
X1454974Y899567D01*
X1446489Y902396D02*
X1449317Y905224D01*
X1419317Y899567D02*
X1423913Y900628D01*
X1419317Y899567D02*
X1420378Y904163D01*
X1423913Y900628D01*
X1422146Y896739D02*
X1424974Y899567D01*
X1416489Y902396D02*
X1419317Y905224D01*
X1389317Y899567D02*
X1393913Y900628D01*
X1389317Y899567D02*
X1390378Y904163D01*
X1393913Y900628D01*
X1392146Y896739D02*
X1394974Y899567D01*
X1386489Y902396D02*
X1389317Y905224D01*
X1359317Y899567D02*
X1363913Y900628D01*
X1359317Y899567D02*
X1360378Y904163D01*
X1363913Y900628D01*
X1362146Y896739D02*
X1364974Y899567D01*
X1356489Y902396D02*
X1359317Y905224D01*
X1329317Y899567D02*
X1333913Y900628D01*
X1329317Y899567D02*
X1330378Y904163D01*
X1333913Y900628D01*
X1332146Y896739D02*
X1334974Y899567D01*
X1326489Y902396D02*
X1329317Y905224D01*
X1299317Y899567D02*
X1303913Y900628D01*
X1299317Y899567D02*
X1300378Y904163D01*
X1303913Y900628D01*
X1302146Y896739D02*
X1304974Y899567D01*
X1296489Y902396D02*
X1299317Y905224D01*
X1269317Y899567D02*
X1273913Y900628D01*
X1269317Y899567D02*
X1270378Y904163D01*
X1273913Y900628D01*
X1272145Y896739D02*
X1274974Y899567D01*
X1266489Y902396D02*
X1269317Y905224D01*
X1239317Y899567D02*
X1243913Y900628D01*
X1239317Y899567D02*
X1240378Y904163D01*
X1243913Y900628D01*
X1242145Y896739D02*
X1244974Y899567D01*
X1236489Y902396D02*
X1239317Y905224D01*
X1209317Y899567D02*
X1213913Y900628D01*
X1209317Y899567D02*
X1210378Y904163D01*
X1213913Y900628D01*
X1212145Y896739D02*
X1214974Y899567D01*
X1206489Y902396D02*
X1209317Y905224D01*
X1179317Y899567D02*
X1183913Y900628D01*
X1179317Y899567D02*
X1180378Y904163D01*
X1183913Y900628D01*
X1182145Y896739D02*
X1184974Y899567D01*
X1176489Y902396D02*
X1179317Y905224D01*
X1149317Y899567D02*
X1153913Y900628D01*
X1149317Y899567D02*
X1150378Y904163D01*
X1153913Y900628D01*
X1152145Y896739D02*
X1154974Y899567D01*
X1146489Y902396D02*
X1149317Y905224D01*
X1119317Y899567D02*
X1123913Y900628D01*
X1119317Y899567D02*
X1120378Y904163D01*
X1123913Y900628D01*
X1122145Y896739D02*
X1124974Y899567D01*
X1116489Y902396D02*
X1119317Y905224D01*
X1089317Y899567D02*
X1093913Y900628D01*
X1089317Y899567D02*
X1090378Y904163D01*
X1093913Y900628D01*
X1092145Y896739D02*
X1094974Y899567D01*
X1086489Y902396D02*
X1089317Y905224D01*
X1059317Y899567D02*
X1063913Y900628D01*
X1059317Y899567D02*
X1060378Y904163D01*
X1063913Y900628D01*
X1062145Y896739D02*
X1064974Y899567D01*
X1056489Y902396D02*
X1059317Y905224D01*
X1029317Y899567D02*
X1033913Y900628D01*
X1029317Y899567D02*
X1030378Y904163D01*
X1033913Y900628D01*
X1032145Y896739D02*
X1034974Y899567D01*
X1026489Y902396D02*
X1029317Y905224D01*
X999317Y899567D02*
X1003913Y900628D01*
X999317Y899567D02*
X1000378Y904163D01*
X1003913Y900628D01*
X1002145Y896739D02*
X1004974Y899567D01*
X996489Y902396D02*
X999317Y905224D01*
X969317Y899567D02*
X973913Y900628D01*
X969317Y899567D02*
X970378Y904163D01*
X973913Y900628D01*
X972145Y896739D02*
X974974Y899567D01*
X966489Y902396D02*
X969317Y905224D01*
X939317Y899567D02*
X943913Y900628D01*
X939317Y899567D02*
X940378Y904163D01*
X943913Y900628D01*
X942145Y896739D02*
X944974Y899567D01*
X936489Y902396D02*
X939317Y905224D01*
X909317Y899567D02*
X913913Y900628D01*
X909317Y899567D02*
X910378Y904163D01*
X913913Y900628D01*
X912145Y896739D02*
X914974Y899567D01*
X906489Y902396D02*
X909317Y905224D01*
X879317Y899567D02*
X883913Y900628D01*
X879317Y899567D02*
X880378Y904163D01*
X883913Y900628D01*
X882145Y896739D02*
X884974Y899567D01*
X876489Y902396D02*
X879317Y905224D01*
X849317Y899567D02*
X853913Y900628D01*
X849317Y899567D02*
X850378Y904163D01*
X853913Y900628D01*
X852145Y896739D02*
X854974Y899567D01*
X846489Y902396D02*
X849317Y905224D01*
X819317Y899567D02*
X823913Y900628D01*
X819317Y899567D02*
X820378Y904163D01*
X823913Y900628D01*
X822145Y896739D02*
X824974Y899567D01*
X816489Y902396D02*
X819317Y905224D01*
X789317Y899567D02*
X793913Y900628D01*
X789317Y899567D02*
X790378Y904163D01*
X793913Y900628D01*
X792145Y896739D02*
X794974Y899567D01*
X786489Y902396D02*
X789317Y905224D01*
X759317Y899567D02*
X763913Y900628D01*
X759317Y899567D02*
X760378Y904163D01*
X763913Y900628D01*
X762145Y896739D02*
X764974Y899567D01*
X756489Y902396D02*
X759317Y905224D01*
X729317Y899567D02*
X733913Y900628D01*
X729317Y899567D02*
X730378Y904163D01*
X733913Y900628D01*
X732145Y896739D02*
X734974Y899567D01*
X726489Y902396D02*
X729317Y905224D01*
X699317Y899567D02*
X703913Y900628D01*
X699317Y899567D02*
X700378Y904163D01*
X703913Y900628D01*
X702145Y896739D02*
X704974Y899567D01*
X696489Y902396D02*
X699317Y905224D01*
X669317Y899567D02*
X673913Y900628D01*
X669317Y899567D02*
X670378Y904163D01*
X673913Y900628D01*
X672145Y896739D02*
X674974Y899567D01*
X666489Y902396D02*
X669317Y905224D01*
X639317Y899567D02*
X643913Y900628D01*
X639317Y899567D02*
X640378Y904163D01*
X643913Y900628D01*
X642145Y896739D02*
X644974Y899567D01*
X636489Y902396D02*
X639317Y905224D01*
X609317Y899567D02*
X613913Y900628D01*
X609317Y899567D02*
X610378Y904163D01*
X613913Y900628D01*
X612146Y896739D02*
X614974Y899567D01*
X606489Y902396D02*
X609317Y905224D01*
X579317Y899567D02*
X583913Y900628D01*
X579317Y899567D02*
X580378Y904163D01*
X583913Y900628D01*
X582146Y896739D02*
X584974Y899567D01*
X576489Y902396D02*
X579317Y905224D01*
X549317Y899567D02*
X553913Y900628D01*
X549317Y899567D02*
X550378Y904163D01*
X553913Y900628D01*
X552146Y896739D02*
X554974Y899567D01*
X546489Y902396D02*
X549317Y905224D01*
X519317Y899567D02*
X523913Y900628D01*
X519317Y899567D02*
X520378Y904163D01*
X523913Y900628D01*
X522146Y896739D02*
X524974Y899567D01*
X516489Y902396D02*
X519317Y905224D01*
X489317Y899567D02*
X493913Y900628D01*
X489317Y899567D02*
X490378Y904163D01*
X493913Y900628D01*
X492146Y896739D02*
X494974Y899567D01*
X486489Y902396D02*
X489317Y905224D01*
X459317Y899567D02*
X463913Y900628D01*
X459317Y899567D02*
X460378Y904163D01*
X463913Y900628D01*
X462146Y896739D02*
X464974Y899567D01*
X456489Y902396D02*
X459317Y905224D01*
X429317Y899567D02*
X433913Y900628D01*
X429317Y899567D02*
X430378Y904163D01*
X433913Y900628D01*
X432146Y896739D02*
X434974Y899567D01*
X426489Y902396D02*
X429317Y905224D01*
X1569317Y929567D02*
X1573913Y930628D01*
X1569317Y929567D02*
X1570378Y934163D01*
X1573913Y930628D01*
X1572146Y926739D02*
X1574974Y929567D01*
X1566489Y932395D02*
X1569317Y935224D01*
X1539317Y929567D02*
X1543913Y930628D01*
X1539317Y929567D02*
X1540378Y934163D01*
X1543913Y930628D01*
X1542146Y926739D02*
X1544974Y929567D01*
X1536489Y932395D02*
X1539317Y935224D01*
X1509317Y929567D02*
X1513913Y930628D01*
X1509317Y929567D02*
X1510378Y934163D01*
X1513913Y930628D01*
X1512146Y926739D02*
X1514974Y929567D01*
X1506489Y932395D02*
X1509317Y935224D01*
X1479317Y929567D02*
X1483913Y930628D01*
X1479317Y929567D02*
X1480378Y934163D01*
X1483913Y930628D01*
X1482146Y926739D02*
X1484974Y929567D01*
X1476489Y932395D02*
X1479317Y935224D01*
X1449317Y929567D02*
X1453913Y930628D01*
X1449317Y929567D02*
X1450378Y934163D01*
X1453913Y930628D01*
X1452146Y926739D02*
X1454974Y929567D01*
X1446489Y932395D02*
X1449317Y935224D01*
X1419317Y929567D02*
X1423913Y930628D01*
X1419317Y929567D02*
X1420378Y934163D01*
X1423913Y930628D01*
X1422146Y926739D02*
X1424974Y929567D01*
X1416489Y932395D02*
X1419317Y935224D01*
X1389317Y929567D02*
X1393913Y930628D01*
X1389317Y929567D02*
X1390378Y934163D01*
X1393913Y930628D01*
X1392146Y926739D02*
X1394974Y929567D01*
X1386489Y932395D02*
X1389317Y935224D01*
X1359317Y929567D02*
X1363913Y930628D01*
X1359317Y929567D02*
X1360378Y934163D01*
X1363913Y930628D01*
X1362146Y926739D02*
X1364974Y929567D01*
X1356489Y932395D02*
X1359317Y935224D01*
X1329317Y929567D02*
X1333913Y930628D01*
X1329317Y929567D02*
X1330378Y934163D01*
X1333913Y930628D01*
X1332146Y926739D02*
X1334974Y929567D01*
X1326489Y932395D02*
X1329317Y935224D01*
X1299317Y929567D02*
X1303913Y930628D01*
X1299317Y929567D02*
X1300378Y934163D01*
X1303913Y930628D01*
X1302146Y926739D02*
X1304974Y929567D01*
X1296489Y932395D02*
X1299317Y935224D01*
X1269317Y929567D02*
X1273913Y930628D01*
X1269317Y929567D02*
X1270378Y934163D01*
X1273913Y930628D01*
X1272145Y926739D02*
X1274974Y929567D01*
X1266489Y932395D02*
X1269317Y935224D01*
X1239317Y929567D02*
X1243913Y930628D01*
X1239317Y929567D02*
X1240378Y934163D01*
X1243913Y930628D01*
X1242145Y926739D02*
X1244974Y929567D01*
X1236489Y932395D02*
X1239317Y935224D01*
X1209317Y929567D02*
X1213913Y930628D01*
X1209317Y929567D02*
X1210378Y934163D01*
X1213913Y930628D01*
X1212145Y926739D02*
X1214974Y929567D01*
X1206489Y932395D02*
X1209317Y935224D01*
X1179317Y929567D02*
X1183913Y930628D01*
X1179317Y929567D02*
X1180378Y934163D01*
X1183913Y930628D01*
X1182145Y926739D02*
X1184974Y929567D01*
X1176489Y932395D02*
X1179317Y935224D01*
X1149317Y929567D02*
X1153913Y930628D01*
X1149317Y929567D02*
X1150378Y934163D01*
X1153913Y930628D01*
X1152145Y926739D02*
X1154974Y929567D01*
X1146489Y932395D02*
X1149317Y935224D01*
X1119317Y929567D02*
X1123913Y930628D01*
X1119317Y929567D02*
X1120378Y934163D01*
X1123913Y930628D01*
X1122145Y926739D02*
X1124974Y929567D01*
X1116489Y932395D02*
X1119317Y935224D01*
X1089317Y929567D02*
X1093913Y930628D01*
X1089317Y929567D02*
X1090378Y934163D01*
X1093913Y930628D01*
X1092145Y926739D02*
X1094974Y929567D01*
X1086489Y932395D02*
X1089317Y935224D01*
X1059317Y929567D02*
X1063913Y930628D01*
X1059317Y929567D02*
X1060378Y934163D01*
X1063913Y930628D01*
X1062145Y926739D02*
X1064974Y929567D01*
X1056489Y932395D02*
X1059317Y935224D01*
X1029317Y929567D02*
X1033913Y930628D01*
X1029317Y929567D02*
X1030378Y934163D01*
X1033913Y930628D01*
X1032145Y926739D02*
X1034974Y929567D01*
X1026489Y932395D02*
X1029317Y935224D01*
X999317Y929567D02*
X1003913Y930628D01*
X999317Y929567D02*
X1000378Y934163D01*
X1003913Y930628D01*
X1002145Y926739D02*
X1004974Y929567D01*
X996489Y932395D02*
X999317Y935224D01*
X969317Y929567D02*
X973913Y930628D01*
X969317Y929567D02*
X970378Y934163D01*
X973913Y930628D01*
X972145Y926739D02*
X974974Y929567D01*
X966489Y932395D02*
X969317Y935224D01*
X939317Y929567D02*
X943913Y930628D01*
X939317Y929567D02*
X940378Y934163D01*
X943913Y930628D01*
X942145Y926739D02*
X944974Y929567D01*
X936489Y932395D02*
X939317Y935224D01*
X909317Y929567D02*
X913913Y930628D01*
X909317Y929567D02*
X910378Y934163D01*
X913913Y930628D01*
X912145Y926739D02*
X914974Y929567D01*
X906489Y932395D02*
X909317Y935224D01*
X879317Y929567D02*
X883913Y930628D01*
X879317Y929567D02*
X880378Y934163D01*
X883913Y930628D01*
X882145Y926739D02*
X884974Y929567D01*
X876489Y932395D02*
X879317Y935224D01*
X849317Y929567D02*
X853913Y930628D01*
X849317Y929567D02*
X850378Y934163D01*
X853913Y930628D01*
X852145Y926739D02*
X854974Y929567D01*
X846489Y932395D02*
X849317Y935224D01*
X819317Y929567D02*
X823913Y930628D01*
X819317Y929567D02*
X820378Y934163D01*
X823913Y930628D01*
X822145Y926739D02*
X824974Y929567D01*
X816489Y932395D02*
X819317Y935224D01*
X789317Y929567D02*
X793913Y930628D01*
X789317Y929567D02*
X790378Y934163D01*
X793913Y930628D01*
X792145Y926739D02*
X794974Y929567D01*
X786489Y932395D02*
X789317Y935224D01*
X759317Y929567D02*
X763913Y930628D01*
X759317Y929567D02*
X760378Y934163D01*
X763913Y930628D01*
X762145Y926739D02*
X764974Y929567D01*
X756489Y932395D02*
X759317Y935224D01*
X729317Y929567D02*
X733913Y930628D01*
X729317Y929567D02*
X730378Y934163D01*
X733913Y930628D01*
X732145Y926739D02*
X734974Y929567D01*
X726489Y932395D02*
X729317Y935224D01*
X699317Y929567D02*
X703913Y930628D01*
X699317Y929567D02*
X700378Y934163D01*
X703913Y930628D01*
X702145Y926739D02*
X704974Y929567D01*
X696489Y932395D02*
X699317Y935224D01*
X669317Y929567D02*
X673913Y930628D01*
X669317Y929567D02*
X670378Y934163D01*
X673913Y930628D01*
X672145Y926739D02*
X674974Y929567D01*
X666489Y932395D02*
X669317Y935224D01*
X639317Y929567D02*
X643913Y930628D01*
X639317Y929567D02*
X640378Y934163D01*
X643913Y930628D01*
X642145Y926739D02*
X644974Y929567D01*
X636489Y932395D02*
X639317Y935224D01*
X609317Y929567D02*
X613913Y930628D01*
X609317Y929567D02*
X610378Y934163D01*
X613913Y930628D01*
X612146Y926739D02*
X614974Y929567D01*
X606489Y932395D02*
X609317Y935224D01*
X579317Y929567D02*
X583913Y930628D01*
X579317Y929567D02*
X580378Y934163D01*
X583913Y930628D01*
X582146Y926739D02*
X584974Y929567D01*
X576489Y932395D02*
X579317Y935224D01*
X549317Y929567D02*
X553913Y930628D01*
X549317Y929567D02*
X550378Y934163D01*
X553913Y930628D01*
X552146Y926739D02*
X554974Y929567D01*
X546489Y932395D02*
X549317Y935224D01*
X519317Y929567D02*
X523913Y930628D01*
X519317Y929567D02*
X520378Y934163D01*
X523913Y930628D01*
X522146Y926739D02*
X524974Y929567D01*
X516489Y932395D02*
X519317Y935224D01*
X489317Y929567D02*
X493913Y930628D01*
X489317Y929567D02*
X490378Y934163D01*
X493913Y930628D01*
X492146Y926739D02*
X494974Y929567D01*
X486489Y932395D02*
X489317Y935224D01*
X459317Y929567D02*
X463913Y930628D01*
X459317Y929567D02*
X460378Y934163D01*
X463913Y930628D01*
X462146Y926739D02*
X464974Y929567D01*
X456489Y932395D02*
X459317Y935224D01*
X429317Y929567D02*
X433913Y930628D01*
X429317Y929567D02*
X430378Y934163D01*
X433913Y930628D01*
X432146Y926739D02*
X434974Y929567D01*
X426489Y932395D02*
X429317Y935224D01*
X1569317Y959567D02*
X1573913Y960628D01*
X1569317Y959567D02*
X1570378Y964163D01*
X1573913Y960628D01*
X1572146Y956739D02*
X1574974Y959567D01*
X1566489Y962396D02*
X1569317Y965224D01*
X1539317Y959567D02*
X1543913Y960628D01*
X1539317Y959567D02*
X1540378Y964163D01*
X1543913Y960628D01*
X1542146Y956739D02*
X1544974Y959567D01*
X1536489Y962396D02*
X1539317Y965224D01*
X1509317Y959567D02*
X1513913Y960628D01*
X1509317Y959567D02*
X1510378Y964163D01*
X1513913Y960628D01*
X1512146Y956739D02*
X1514974Y959567D01*
X1506489Y962396D02*
X1509317Y965224D01*
X1479317Y959567D02*
X1483913Y960628D01*
X1479317Y959567D02*
X1480378Y964163D01*
X1483913Y960628D01*
X1482146Y956739D02*
X1484974Y959567D01*
X1476489Y962396D02*
X1479317Y965224D01*
X1449317Y959567D02*
X1453913Y960628D01*
X1449317Y959567D02*
X1450378Y964163D01*
X1453913Y960628D01*
X1452146Y956739D02*
X1454974Y959567D01*
X1446489Y962396D02*
X1449317Y965224D01*
X1419317Y959567D02*
X1423913Y960628D01*
X1419317Y959567D02*
X1420378Y964163D01*
X1423913Y960628D01*
X1422146Y956739D02*
X1424974Y959567D01*
X1416489Y962396D02*
X1419317Y965224D01*
X1389317Y959567D02*
X1393913Y960628D01*
X1389317Y959567D02*
X1390378Y964163D01*
X1393913Y960628D01*
X1392146Y956739D02*
X1394974Y959567D01*
X1386489Y962396D02*
X1389317Y965224D01*
X1359317Y959567D02*
X1363913Y960628D01*
X1359317Y959567D02*
X1360378Y964163D01*
X1363913Y960628D01*
X1362146Y956739D02*
X1364974Y959567D01*
X1356489Y962396D02*
X1359317Y965224D01*
X1329317Y959567D02*
X1333913Y960628D01*
X1329317Y959567D02*
X1330378Y964163D01*
X1333913Y960628D01*
X1332146Y956739D02*
X1334974Y959567D01*
X1326489Y962396D02*
X1329317Y965224D01*
X1299317Y959567D02*
X1303913Y960628D01*
X1299317Y959567D02*
X1300378Y964163D01*
X1303913Y960628D01*
X1302146Y956739D02*
X1304974Y959567D01*
X1296489Y962396D02*
X1299317Y965224D01*
X1269317Y959567D02*
X1273913Y960628D01*
X1269317Y959567D02*
X1270378Y964163D01*
X1273913Y960628D01*
X1272145Y956739D02*
X1274974Y959567D01*
X1266489Y962396D02*
X1269317Y965224D01*
X1239317Y959567D02*
X1243913Y960628D01*
X1239317Y959567D02*
X1240378Y964163D01*
X1243913Y960628D01*
X1242145Y956739D02*
X1244974Y959567D01*
X1236489Y962396D02*
X1239317Y965224D01*
X1209317Y959567D02*
X1213913Y960628D01*
X1209317Y959567D02*
X1210378Y964163D01*
X1213913Y960628D01*
X1212145Y956739D02*
X1214974Y959567D01*
X1206489Y962396D02*
X1209317Y965224D01*
X1179317Y959567D02*
X1183913Y960628D01*
X1179317Y959567D02*
X1180378Y964163D01*
X1183913Y960628D01*
X1182145Y956739D02*
X1184974Y959567D01*
X1176489Y962396D02*
X1179317Y965224D01*
X1149317Y959567D02*
X1153913Y960628D01*
X1149317Y959567D02*
X1150378Y964163D01*
X1153913Y960628D01*
X1152145Y956739D02*
X1154974Y959567D01*
X1146489Y962396D02*
X1149317Y965224D01*
X1119317Y959567D02*
X1123913Y960628D01*
X1119317Y959567D02*
X1120378Y964163D01*
X1123913Y960628D01*
X1122145Y956739D02*
X1124974Y959567D01*
X1116489Y962396D02*
X1119317Y965224D01*
X1089317Y959567D02*
X1093913Y960628D01*
X1089317Y959567D02*
X1090378Y964163D01*
X1093913Y960628D01*
X1092145Y956739D02*
X1094974Y959567D01*
X1086489Y962396D02*
X1089317Y965224D01*
X1059317Y959567D02*
X1063913Y960628D01*
X1059317Y959567D02*
X1060378Y964163D01*
X1063913Y960628D01*
X1062145Y956739D02*
X1064974Y959567D01*
X1056489Y962396D02*
X1059317Y965224D01*
X1029317Y959567D02*
X1033913Y960628D01*
X1029317Y959567D02*
X1030378Y964163D01*
X1033913Y960628D01*
X1032145Y956739D02*
X1034974Y959567D01*
X1026489Y962396D02*
X1029317Y965224D01*
X999317Y959567D02*
X1003913Y960628D01*
X999317Y959567D02*
X1000378Y964163D01*
X1003913Y960628D01*
X1002145Y956739D02*
X1004974Y959567D01*
X996489Y962396D02*
X999317Y965224D01*
X969317Y959567D02*
X973913Y960628D01*
X969317Y959567D02*
X970378Y964163D01*
X973913Y960628D01*
X972145Y956739D02*
X974974Y959567D01*
X966489Y962396D02*
X969317Y965224D01*
X939317Y959567D02*
X943913Y960628D01*
X939317Y959567D02*
X940378Y964163D01*
X943913Y960628D01*
X942145Y956739D02*
X944974Y959567D01*
X936489Y962396D02*
X939317Y965224D01*
X909317Y959567D02*
X913913Y960628D01*
X909317Y959567D02*
X910378Y964163D01*
X913913Y960628D01*
X912145Y956739D02*
X914974Y959567D01*
X906489Y962396D02*
X909317Y965224D01*
X879317Y959567D02*
X883913Y960628D01*
X879317Y959567D02*
X880378Y964163D01*
X883913Y960628D01*
X882145Y956739D02*
X884974Y959567D01*
X876489Y962396D02*
X879317Y965224D01*
X849317Y959567D02*
X853913Y960628D01*
X849317Y959567D02*
X850378Y964163D01*
X853913Y960628D01*
X852145Y956739D02*
X854974Y959567D01*
X846489Y962396D02*
X849317Y965224D01*
X819317Y959567D02*
X823913Y960628D01*
X819317Y959567D02*
X820378Y964163D01*
X823913Y960628D01*
X822145Y956739D02*
X824974Y959567D01*
X816489Y962396D02*
X819317Y965224D01*
X789317Y959567D02*
X793913Y960628D01*
X789317Y959567D02*
X790378Y964163D01*
X793913Y960628D01*
X792145Y956739D02*
X794974Y959567D01*
X786489Y962396D02*
X789317Y965224D01*
X759317Y959567D02*
X763913Y960628D01*
X759317Y959567D02*
X760378Y964163D01*
X763913Y960628D01*
X762145Y956739D02*
X764974Y959567D01*
X756489Y962396D02*
X759317Y965224D01*
X729317Y959567D02*
X733913Y960628D01*
X729317Y959567D02*
X730378Y964163D01*
X733913Y960628D01*
X732145Y956739D02*
X734974Y959567D01*
X726489Y962396D02*
X729317Y965224D01*
X699317Y959567D02*
X703913Y960628D01*
X699317Y959567D02*
X700378Y964163D01*
X703913Y960628D01*
X702145Y956739D02*
X704974Y959567D01*
X696489Y962396D02*
X699317Y965224D01*
X669317Y959567D02*
X673913Y960628D01*
X669317Y959567D02*
X670378Y964163D01*
X673913Y960628D01*
X672145Y956739D02*
X674974Y959567D01*
X666489Y962396D02*
X669317Y965224D01*
X639317Y959567D02*
X643913Y960628D01*
X639317Y959567D02*
X640378Y964163D01*
X643913Y960628D01*
X642145Y956739D02*
X644974Y959567D01*
X636489Y962396D02*
X639317Y965224D01*
X609317Y959567D02*
X613913Y960628D01*
X609317Y959567D02*
X610378Y964163D01*
X613913Y960628D01*
X612146Y956739D02*
X614974Y959567D01*
X606489Y962396D02*
X609317Y965224D01*
X579317Y959567D02*
X583913Y960628D01*
X579317Y959567D02*
X580378Y964163D01*
X583913Y960628D01*
X582146Y956739D02*
X584974Y959567D01*
X576489Y962396D02*
X579317Y965224D01*
X549317Y959567D02*
X553913Y960628D01*
X549317Y959567D02*
X550378Y964163D01*
X553913Y960628D01*
X552146Y956739D02*
X554974Y959567D01*
X546489Y962396D02*
X549317Y965224D01*
X519317Y959567D02*
X523913Y960628D01*
X519317Y959567D02*
X520378Y964163D01*
X523913Y960628D01*
X522146Y956739D02*
X524974Y959567D01*
X516489Y962396D02*
X519317Y965224D01*
X489317Y959567D02*
X493913Y960628D01*
X489317Y959567D02*
X490378Y964163D01*
X493913Y960628D01*
X492146Y956739D02*
X494974Y959567D01*
X486489Y962396D02*
X489317Y965224D01*
X459317Y959567D02*
X463913Y960628D01*
X459317Y959567D02*
X460378Y964163D01*
X463913Y960628D01*
X462146Y956739D02*
X464974Y959567D01*
X456489Y962396D02*
X459317Y965224D01*
X429317Y959567D02*
X433913Y960628D01*
X429317Y959567D02*
X430378Y964163D01*
X433913Y960628D01*
X432146Y956739D02*
X434974Y959567D01*
X426489Y962396D02*
X429317Y965224D01*
X1569317Y989567D02*
X1573913Y990628D01*
X1569317Y989567D02*
X1570378Y994163D01*
X1573913Y990628D01*
X1572146Y986739D02*
X1574974Y989567D01*
X1566489Y992396D02*
X1569317Y995224D01*
X1539317Y989567D02*
X1543913Y990628D01*
X1539317Y989567D02*
X1540378Y994163D01*
X1543913Y990628D01*
X1542146Y986739D02*
X1544974Y989567D01*
X1536489Y992396D02*
X1539317Y995224D01*
X1509317Y989567D02*
X1513913Y990628D01*
X1509317Y989567D02*
X1510378Y994163D01*
X1513913Y990628D01*
X1512146Y986739D02*
X1514974Y989567D01*
X1506489Y992396D02*
X1509317Y995224D01*
X1479317Y989567D02*
X1483913Y990628D01*
X1479317Y989567D02*
X1480378Y994163D01*
X1483913Y990628D01*
X1482146Y986739D02*
X1484974Y989567D01*
X1476489Y992396D02*
X1479317Y995224D01*
X1449317Y989567D02*
X1453913Y990628D01*
X1449317Y989567D02*
X1450378Y994163D01*
X1453913Y990628D01*
X1452146Y986739D02*
X1454974Y989567D01*
X1446489Y992396D02*
X1449317Y995224D01*
X1419317Y989567D02*
X1423913Y990628D01*
X1419317Y989567D02*
X1420378Y994163D01*
X1423913Y990628D01*
X1422146Y986739D02*
X1424974Y989567D01*
X1416489Y992396D02*
X1419317Y995224D01*
X1389317Y989567D02*
X1393913Y990628D01*
X1389317Y989567D02*
X1390378Y994163D01*
X1393913Y990628D01*
X1392146Y986739D02*
X1394974Y989567D01*
X1386489Y992396D02*
X1389317Y995224D01*
X1359317Y989567D02*
X1363913Y990628D01*
X1359317Y989567D02*
X1360378Y994163D01*
X1363913Y990628D01*
X1362146Y986739D02*
X1364974Y989567D01*
X1356489Y992396D02*
X1359317Y995224D01*
X1329317Y989567D02*
X1333913Y990628D01*
X1329317Y989567D02*
X1330378Y994163D01*
X1333913Y990628D01*
X1332146Y986739D02*
X1334974Y989567D01*
X1326489Y992396D02*
X1329317Y995224D01*
X1299317Y989567D02*
X1303913Y990628D01*
X1299317Y989567D02*
X1300378Y994163D01*
X1303913Y990628D01*
X1302146Y986739D02*
X1304974Y989567D01*
X1296489Y992396D02*
X1299317Y995224D01*
X1269317Y989567D02*
X1273913Y990628D01*
X1269317Y989567D02*
X1270378Y994163D01*
X1273913Y990628D01*
X1272145Y986739D02*
X1274974Y989567D01*
X1266489Y992396D02*
X1269317Y995224D01*
X1239317Y989567D02*
X1243913Y990628D01*
X1239317Y989567D02*
X1240378Y994163D01*
X1243913Y990628D01*
X1242145Y986739D02*
X1244974Y989567D01*
X1236489Y992396D02*
X1239317Y995224D01*
X1209317Y989567D02*
X1213913Y990628D01*
X1209317Y989567D02*
X1210378Y994163D01*
X1213913Y990628D01*
X1212145Y986739D02*
X1214974Y989567D01*
X1206489Y992396D02*
X1209317Y995224D01*
X1179317Y989567D02*
X1183913Y990628D01*
X1179317Y989567D02*
X1180378Y994163D01*
X1183913Y990628D01*
X1182145Y986739D02*
X1184974Y989567D01*
X1176489Y992396D02*
X1179317Y995224D01*
X1149317Y989567D02*
X1153913Y990628D01*
X1149317Y989567D02*
X1150378Y994163D01*
X1153913Y990628D01*
X1152145Y986739D02*
X1154974Y989567D01*
X1146489Y992396D02*
X1149317Y995224D01*
X1119317Y989567D02*
X1123913Y990628D01*
X1119317Y989567D02*
X1120378Y994163D01*
X1123913Y990628D01*
X1122145Y986739D02*
X1124974Y989567D01*
X1116489Y992396D02*
X1119317Y995224D01*
X1089317Y989567D02*
X1093913Y990628D01*
X1089317Y989567D02*
X1090378Y994163D01*
X1093913Y990628D01*
X1092145Y986739D02*
X1094974Y989567D01*
X1086489Y992396D02*
X1089317Y995224D01*
X1059317Y989567D02*
X1063913Y990628D01*
X1059317Y989567D02*
X1060378Y994163D01*
X1063913Y990628D01*
X1062145Y986739D02*
X1064974Y989567D01*
X1056489Y992396D02*
X1059317Y995224D01*
X1029317Y989567D02*
X1033913Y990628D01*
X1029317Y989567D02*
X1030378Y994163D01*
X1033913Y990628D01*
X1032145Y986739D02*
X1034974Y989567D01*
X1026489Y992396D02*
X1029317Y995224D01*
X999317Y989567D02*
X1003913Y990628D01*
X999317Y989567D02*
X1000378Y994163D01*
X1003913Y990628D01*
X1002145Y986739D02*
X1004974Y989567D01*
X996489Y992396D02*
X999317Y995224D01*
X969317Y989567D02*
X973913Y990628D01*
X969317Y989567D02*
X970378Y994163D01*
X973913Y990628D01*
X972145Y986739D02*
X974974Y989567D01*
X966489Y992396D02*
X969317Y995224D01*
X939317Y989567D02*
X943913Y990628D01*
X939317Y989567D02*
X940378Y994163D01*
X943913Y990628D01*
X942145Y986739D02*
X944974Y989567D01*
X936489Y992396D02*
X939317Y995224D01*
X909317Y989567D02*
X913913Y990628D01*
X909317Y989567D02*
X910378Y994163D01*
X913913Y990628D01*
X912145Y986739D02*
X914974Y989567D01*
X906489Y992396D02*
X909317Y995224D01*
X879317Y989567D02*
X883913Y990628D01*
X879317Y989567D02*
X880378Y994163D01*
X883913Y990628D01*
X882145Y986739D02*
X884974Y989567D01*
X876489Y992396D02*
X879317Y995224D01*
X849317Y989567D02*
X853913Y990628D01*
X849317Y989567D02*
X850378Y994163D01*
X853913Y990628D01*
X852145Y986739D02*
X854974Y989567D01*
X846489Y992396D02*
X849317Y995224D01*
X819317Y989567D02*
X823913Y990628D01*
X819317Y989567D02*
X820378Y994163D01*
X823913Y990628D01*
X822145Y986739D02*
X824974Y989567D01*
X816489Y992396D02*
X819317Y995224D01*
X789317Y989567D02*
X793913Y990628D01*
X789317Y989567D02*
X790378Y994163D01*
X793913Y990628D01*
X792145Y986739D02*
X794974Y989567D01*
X786489Y992396D02*
X789317Y995224D01*
X759317Y989567D02*
X763913Y990628D01*
X759317Y989567D02*
X760378Y994163D01*
X763913Y990628D01*
X762145Y986739D02*
X764974Y989567D01*
X756489Y992396D02*
X759317Y995224D01*
X729317Y989567D02*
X733913Y990628D01*
X729317Y989567D02*
X730378Y994163D01*
X733913Y990628D01*
X732145Y986739D02*
X734974Y989567D01*
X726489Y992396D02*
X729317Y995224D01*
X699317Y989567D02*
X703913Y990628D01*
X699317Y989567D02*
X700378Y994163D01*
X703913Y990628D01*
X702145Y986739D02*
X704974Y989567D01*
X696489Y992396D02*
X699317Y995224D01*
X669317Y989567D02*
X673913Y990628D01*
X669317Y989567D02*
X670378Y994163D01*
X673913Y990628D01*
X672145Y986739D02*
X674974Y989567D01*
X666489Y992396D02*
X669317Y995224D01*
X639317Y989567D02*
X643913Y990628D01*
X639317Y989567D02*
X640378Y994163D01*
X643913Y990628D01*
X642145Y986739D02*
X644974Y989567D01*
X636489Y992396D02*
X639317Y995224D01*
X609317Y989567D02*
X613913Y990628D01*
X609317Y989567D02*
X610378Y994163D01*
X613913Y990628D01*
X612146Y986739D02*
X614974Y989567D01*
X606489Y992396D02*
X609317Y995224D01*
X579317Y989567D02*
X583913Y990628D01*
X579317Y989567D02*
X580378Y994163D01*
X583913Y990628D01*
X582146Y986739D02*
X584974Y989567D01*
X576489Y992396D02*
X579317Y995224D01*
X549317Y989567D02*
X553913Y990628D01*
X549317Y989567D02*
X550378Y994163D01*
X553913Y990628D01*
X552146Y986739D02*
X554974Y989567D01*
X546489Y992396D02*
X549317Y995224D01*
X519317Y989567D02*
X523913Y990628D01*
X519317Y989567D02*
X520378Y994163D01*
X523913Y990628D01*
X522146Y986739D02*
X524974Y989567D01*
X516489Y992396D02*
X519317Y995224D01*
X489317Y989567D02*
X493913Y990628D01*
X489317Y989567D02*
X490378Y994163D01*
X493913Y990628D01*
X492146Y986739D02*
X494974Y989567D01*
X486489Y992396D02*
X489317Y995224D01*
X459317Y989567D02*
X463913Y990628D01*
X459317Y989567D02*
X460378Y994163D01*
X463913Y990628D01*
X462146Y986739D02*
X464974Y989567D01*
X456489Y992396D02*
X459317Y995224D01*
X429317Y989567D02*
X433913Y990628D01*
X429317Y989567D02*
X430378Y994163D01*
X433913Y990628D01*
X432146Y986739D02*
X434974Y989567D01*
X426489Y992396D02*
X429317Y995224D01*
X1569317Y1019567D02*
X1573913Y1020628D01*
X1569317Y1019567D02*
X1570378Y1024163D01*
X1573913Y1020628D01*
X1572146Y1016739D02*
X1574974Y1019567D01*
X1566489Y1022395D02*
X1569317Y1025224D01*
X1539317Y1019567D02*
X1543913Y1020628D01*
X1539317Y1019567D02*
X1540378Y1024163D01*
X1543913Y1020628D01*
X1542146Y1016739D02*
X1544974Y1019567D01*
X1536489Y1022395D02*
X1539317Y1025224D01*
X1509317Y1019567D02*
X1513913Y1020628D01*
X1509317Y1019567D02*
X1510378Y1024163D01*
X1513913Y1020628D01*
X1512146Y1016739D02*
X1514974Y1019567D01*
X1506489Y1022395D02*
X1509317Y1025224D01*
X1479317Y1019567D02*
X1483913Y1020628D01*
X1479317Y1019567D02*
X1480378Y1024163D01*
X1483913Y1020628D01*
X1482146Y1016739D02*
X1484974Y1019567D01*
X1476489Y1022395D02*
X1479317Y1025224D01*
X1449317Y1019567D02*
X1453913Y1020628D01*
X1449317Y1019567D02*
X1450378Y1024163D01*
X1453913Y1020628D01*
X1452146Y1016739D02*
X1454974Y1019567D01*
X1446489Y1022395D02*
X1449317Y1025224D01*
X1419317Y1019567D02*
X1423913Y1020628D01*
X1419317Y1019567D02*
X1420378Y1024163D01*
X1423913Y1020628D01*
X1422146Y1016739D02*
X1424974Y1019567D01*
X1416489Y1022395D02*
X1419317Y1025224D01*
X1389317Y1019567D02*
X1393913Y1020628D01*
X1389317Y1019567D02*
X1390378Y1024163D01*
X1393913Y1020628D01*
X1392146Y1016739D02*
X1394974Y1019567D01*
X1386489Y1022395D02*
X1389317Y1025224D01*
X1359317Y1019567D02*
X1363913Y1020628D01*
X1359317Y1019567D02*
X1360378Y1024163D01*
X1363913Y1020628D01*
X1362146Y1016739D02*
X1364974Y1019567D01*
X1356489Y1022395D02*
X1359317Y1025224D01*
X1329317Y1019567D02*
X1333913Y1020628D01*
X1329317Y1019567D02*
X1330378Y1024163D01*
X1333913Y1020628D01*
X1332146Y1016739D02*
X1334974Y1019567D01*
X1326489Y1022395D02*
X1329317Y1025224D01*
X1299317Y1019567D02*
X1303913Y1020628D01*
X1299317Y1019567D02*
X1300378Y1024163D01*
X1303913Y1020628D01*
X1302146Y1016739D02*
X1304974Y1019567D01*
X1296489Y1022395D02*
X1299317Y1025224D01*
X1269317Y1019567D02*
X1273913Y1020628D01*
X1269317Y1019567D02*
X1270378Y1024163D01*
X1273913Y1020628D01*
X1272145Y1016739D02*
X1274974Y1019567D01*
X1266489Y1022395D02*
X1269317Y1025224D01*
X1239317Y1019567D02*
X1243913Y1020628D01*
X1239317Y1019567D02*
X1240378Y1024163D01*
X1243913Y1020628D01*
X1242145Y1016739D02*
X1244974Y1019567D01*
X1236489Y1022395D02*
X1239317Y1025224D01*
X1209317Y1019567D02*
X1213913Y1020628D01*
X1209317Y1019567D02*
X1210378Y1024163D01*
X1213913Y1020628D01*
X1212145Y1016739D02*
X1214974Y1019567D01*
X1206489Y1022395D02*
X1209317Y1025224D01*
X1179317Y1019567D02*
X1183913Y1020628D01*
X1179317Y1019567D02*
X1180378Y1024163D01*
X1183913Y1020628D01*
X1182145Y1016739D02*
X1184974Y1019567D01*
X1176489Y1022395D02*
X1179317Y1025224D01*
X1149317Y1019567D02*
X1153913Y1020628D01*
X1149317Y1019567D02*
X1150378Y1024163D01*
X1153913Y1020628D01*
X1152145Y1016739D02*
X1154974Y1019567D01*
X1146489Y1022395D02*
X1149317Y1025224D01*
X1119317Y1019567D02*
X1123913Y1020628D01*
X1119317Y1019567D02*
X1120378Y1024163D01*
X1123913Y1020628D01*
X1122145Y1016739D02*
X1124974Y1019567D01*
X1116489Y1022395D02*
X1119317Y1025224D01*
X1089317Y1019567D02*
X1093913Y1020628D01*
X1089317Y1019567D02*
X1090378Y1024163D01*
X1093913Y1020628D01*
X1092145Y1016739D02*
X1094974Y1019567D01*
X1086489Y1022395D02*
X1089317Y1025224D01*
X1059317Y1019567D02*
X1063913Y1020628D01*
X1059317Y1019567D02*
X1060378Y1024163D01*
X1063913Y1020628D01*
X1062145Y1016739D02*
X1064974Y1019567D01*
X1056489Y1022395D02*
X1059317Y1025224D01*
X1029317Y1019567D02*
X1033913Y1020628D01*
X1029317Y1019567D02*
X1030378Y1024163D01*
X1033913Y1020628D01*
X1032145Y1016739D02*
X1034974Y1019567D01*
X1026489Y1022395D02*
X1029317Y1025224D01*
X999317Y1019567D02*
X1003913Y1020628D01*
X999317Y1019567D02*
X1000378Y1024163D01*
X1003913Y1020628D01*
X1002145Y1016739D02*
X1004974Y1019567D01*
X996489Y1022395D02*
X999317Y1025224D01*
X969317Y1019567D02*
X973913Y1020628D01*
X969317Y1019567D02*
X970378Y1024163D01*
X973913Y1020628D01*
X972145Y1016739D02*
X974974Y1019567D01*
X966489Y1022395D02*
X969317Y1025224D01*
X939317Y1019567D02*
X943913Y1020628D01*
X939317Y1019567D02*
X940378Y1024163D01*
X943913Y1020628D01*
X942145Y1016739D02*
X944974Y1019567D01*
X936489Y1022395D02*
X939317Y1025224D01*
X909317Y1019567D02*
X913913Y1020628D01*
X909317Y1019567D02*
X910378Y1024163D01*
X913913Y1020628D01*
X912145Y1016739D02*
X914974Y1019567D01*
X906489Y1022395D02*
X909317Y1025224D01*
X879317Y1019567D02*
X883913Y1020628D01*
X879317Y1019567D02*
X880378Y1024163D01*
X883913Y1020628D01*
X882145Y1016739D02*
X884974Y1019567D01*
X876489Y1022395D02*
X879317Y1025224D01*
X849317Y1019567D02*
X853913Y1020628D01*
X849317Y1019567D02*
X850378Y1024163D01*
X853913Y1020628D01*
X852145Y1016739D02*
X854974Y1019567D01*
X846489Y1022395D02*
X849317Y1025224D01*
X819317Y1019567D02*
X823913Y1020628D01*
X819317Y1019567D02*
X820378Y1024163D01*
X823913Y1020628D01*
X822145Y1016739D02*
X824974Y1019567D01*
X816489Y1022395D02*
X819317Y1025224D01*
X789317Y1019567D02*
X793913Y1020628D01*
X789317Y1019567D02*
X790378Y1024163D01*
X793913Y1020628D01*
X792145Y1016739D02*
X794974Y1019567D01*
X786489Y1022395D02*
X789317Y1025224D01*
X759317Y1019567D02*
X763913Y1020628D01*
X759317Y1019567D02*
X760378Y1024163D01*
X763913Y1020628D01*
X762145Y1016739D02*
X764974Y1019567D01*
X756489Y1022395D02*
X759317Y1025224D01*
X729317Y1019567D02*
X733913Y1020628D01*
X729317Y1019567D02*
X730378Y1024163D01*
X733913Y1020628D01*
X732145Y1016739D02*
X734974Y1019567D01*
X726489Y1022395D02*
X729317Y1025224D01*
X699317Y1019567D02*
X703913Y1020628D01*
X699317Y1019567D02*
X700378Y1024163D01*
X703913Y1020628D01*
X702145Y1016739D02*
X704974Y1019567D01*
X696489Y1022395D02*
X699317Y1025224D01*
X669317Y1019567D02*
X673913Y1020628D01*
X669317Y1019567D02*
X670378Y1024163D01*
X673913Y1020628D01*
X672145Y1016739D02*
X674974Y1019567D01*
X666489Y1022395D02*
X669317Y1025224D01*
X639317Y1019567D02*
X643913Y1020628D01*
X639317Y1019567D02*
X640378Y1024163D01*
X643913Y1020628D01*
X642145Y1016739D02*
X644974Y1019567D01*
X636489Y1022395D02*
X639317Y1025224D01*
X609317Y1019567D02*
X613913Y1020628D01*
X609317Y1019567D02*
X610378Y1024163D01*
X613913Y1020628D01*
X612146Y1016739D02*
X614974Y1019567D01*
X606489Y1022395D02*
X609317Y1025224D01*
X579317Y1019567D02*
X583913Y1020628D01*
X579317Y1019567D02*
X580378Y1024163D01*
X583913Y1020628D01*
X582146Y1016739D02*
X584974Y1019567D01*
X576489Y1022395D02*
X579317Y1025224D01*
X549317Y1019567D02*
X553913Y1020628D01*
X549317Y1019567D02*
X550378Y1024163D01*
X553913Y1020628D01*
X552146Y1016739D02*
X554974Y1019567D01*
X546489Y1022395D02*
X549317Y1025224D01*
X519317Y1019567D02*
X523913Y1020628D01*
X519317Y1019567D02*
X520378Y1024163D01*
X523913Y1020628D01*
X522146Y1016739D02*
X524974Y1019567D01*
X516489Y1022395D02*
X519317Y1025224D01*
X489317Y1019567D02*
X493913Y1020628D01*
X489317Y1019567D02*
X490378Y1024163D01*
X493913Y1020628D01*
X492146Y1016739D02*
X494974Y1019567D01*
X486489Y1022395D02*
X489317Y1025224D01*
X459317Y1019567D02*
X463913Y1020628D01*
X459317Y1019567D02*
X460378Y1024163D01*
X463913Y1020628D01*
X462146Y1016739D02*
X464974Y1019567D01*
X456489Y1022395D02*
X459317Y1025224D01*
X429317Y1019567D02*
X433913Y1020628D01*
X429317Y1019567D02*
X430378Y1024163D01*
X433913Y1020628D01*
X432146Y1016739D02*
X434974Y1019567D01*
X426489Y1022395D02*
X429317Y1025224D01*
D12*
X370000Y750000D02*
G03*
X400000Y720000I30000J0D01*
G01*
X1600000D02*
G03*
X1630000Y750000I0J30000D01*
G01*
Y1050000D02*
G03*
X1600000Y1080000I-30000J0D01*
G01*
X400000D02*
G03*
X370000Y1050000I0J-30000D01*
G01*
X1630000Y750000D02*
Y1050000D01*
X400000Y720000D02*
X1600000D01*
X400000Y1079750D02*
X1600000D01*
X370000Y750000D02*
Y1050000D01*
M02*
