G04*
G04 #@! TF.GenerationSoftware,Altium Limited,Altium Designer,18.1.9 (240)*
G04*
G04 Layer_Physical_Order=2*
G04 Layer_Color=16711680*
%FSLAX44Y44*%
%MOMM*%
G71*
G01*
G75*
%ADD12C,0.2540*%
%ADD19C,1.5000*%
%ADD20R,1.5000X1.5000*%
%ADD21C,0.5000*%
%ADD22C,3.0000*%
G36*
X1611759Y1079024D02*
X1616381Y1077109D01*
X1620542Y1074329D01*
X1624079Y1070791D01*
X1626859Y1066631D01*
X1628774Y1062009D01*
X1629750Y1057102D01*
Y1054600D01*
Y745400D01*
Y742898D01*
X1628774Y737991D01*
X1626859Y733369D01*
X1624079Y729208D01*
X1620542Y725670D01*
X1616381Y722891D01*
X1611759Y720976D01*
X1606852Y720000D01*
X392898D01*
X387991Y720976D01*
X383369Y722891D01*
X379208Y725670D01*
X375671Y729208D01*
X372891Y733369D01*
X370976Y737991D01*
X370000Y742898D01*
Y745400D01*
Y1054600D01*
Y1057102D01*
X370976Y1062009D01*
X372891Y1066631D01*
X375671Y1070791D01*
X379208Y1074329D01*
X383369Y1077109D01*
X387991Y1079024D01*
X392898Y1080000D01*
X1606852D01*
X1611759Y1079024D01*
D02*
G37*
%LPC*%
G36*
X822800Y1064352D02*
X820444Y1064042D01*
X818249Y1063132D01*
X816364Y1061686D01*
X814918Y1059801D01*
X814008Y1057606D01*
X813698Y1055250D01*
X814008Y1052894D01*
X814713Y1051192D01*
X773486Y1009964D01*
X772917Y1009114D01*
X772599Y1008901D01*
X771710Y1007570D01*
X771397Y1006000D01*
X771710Y1004430D01*
X772599Y1003099D01*
X772651Y1003064D01*
Y979103D01*
X772349Y978901D01*
X771460Y977570D01*
X771147Y976000D01*
X771460Y974430D01*
X772349Y973099D01*
X772651Y972897D01*
Y948686D01*
X772599Y948651D01*
X771710Y947320D01*
X771397Y945750D01*
X771710Y944180D01*
X772599Y942849D01*
X772651Y942814D01*
Y918686D01*
X772599Y918651D01*
X771710Y917320D01*
X771397Y915750D01*
X771710Y914180D01*
X772599Y912849D01*
X772651Y912814D01*
Y888686D01*
X772599Y888651D01*
X771710Y887320D01*
X771397Y885750D01*
X771710Y884180D01*
X772599Y882849D01*
X772651Y882814D01*
Y858853D01*
X772349Y858651D01*
X771460Y857320D01*
X771147Y855750D01*
X771460Y854180D01*
X772349Y852849D01*
X772651Y852647D01*
Y828686D01*
X772599Y828651D01*
X771710Y827320D01*
X771397Y825750D01*
X771710Y824180D01*
X772599Y822849D01*
X772651Y822814D01*
Y798436D01*
X772599Y798401D01*
X771710Y797070D01*
X771397Y795500D01*
X771710Y793930D01*
X772599Y792599D01*
X772651Y792564D01*
Y768686D01*
X772599Y768651D01*
X771710Y767320D01*
X771397Y765750D01*
X771710Y764180D01*
X772599Y762849D01*
X773930Y761960D01*
X775500Y761647D01*
X777070Y761960D01*
X778401Y762849D01*
X779290Y764180D01*
X779603Y765750D01*
X779290Y767320D01*
X778401Y768651D01*
X778349Y768686D01*
Y792564D01*
X778401Y792599D01*
X779290Y793930D01*
X779603Y795500D01*
X779290Y797070D01*
X778401Y798401D01*
X778349Y798436D01*
Y822814D01*
X778401Y822849D01*
X779290Y824180D01*
X779603Y825750D01*
X779290Y827320D01*
X778401Y828651D01*
X778349Y828686D01*
Y853145D01*
X779041Y854180D01*
X779353Y855750D01*
X779041Y857320D01*
X778349Y858355D01*
Y882814D01*
X778401Y882849D01*
X779290Y884180D01*
X779603Y885750D01*
X779290Y887320D01*
X778401Y888651D01*
X778349Y888686D01*
Y912814D01*
X778401Y912849D01*
X779290Y914180D01*
X779603Y915750D01*
X779290Y917320D01*
X778401Y918651D01*
X778349Y918686D01*
Y942814D01*
X778401Y942849D01*
X779290Y944180D01*
X779603Y945750D01*
X779290Y947320D01*
X778401Y948651D01*
X778349Y948686D01*
Y973395D01*
X779041Y974430D01*
X779353Y976000D01*
X779041Y977570D01*
X778349Y978605D01*
Y1003064D01*
X778401Y1003099D01*
X779290Y1004430D01*
X779603Y1006000D01*
X779290Y1007570D01*
X779234Y1007655D01*
X818742Y1047163D01*
X820444Y1046458D01*
X822800Y1046148D01*
X825156Y1046458D01*
X827351Y1047368D01*
X829236Y1048814D01*
X830682Y1050699D01*
X831592Y1052894D01*
X831902Y1055250D01*
X831592Y1057606D01*
X830682Y1059801D01*
X829236Y1061686D01*
X827351Y1063132D01*
X825156Y1064042D01*
X822800Y1064352D01*
D02*
G37*
G36*
X797400D02*
X795044Y1064042D01*
X792849Y1063132D01*
X790964Y1061686D01*
X789518Y1059801D01*
X788608Y1057606D01*
X788298Y1055250D01*
X788608Y1052894D01*
X789313Y1051192D01*
X748785Y1010664D01*
X747764Y1010764D01*
X746840Y1011382D01*
X745750Y1011599D01*
X744660Y1011382D01*
X743736Y1010764D01*
X743118Y1009840D01*
X742944Y1008965D01*
X742849Y1008901D01*
X741960Y1007570D01*
X741647Y1006000D01*
X741960Y1004430D01*
X742849Y1003099D01*
X742901Y1003064D01*
Y979103D01*
X742599Y978901D01*
X741710Y977570D01*
X741397Y976000D01*
X741710Y974430D01*
X742599Y973099D01*
X742901Y972897D01*
Y948686D01*
X742849Y948651D01*
X741960Y947320D01*
X741647Y945750D01*
X741960Y944180D01*
X742849Y942849D01*
X742901Y942814D01*
Y918686D01*
X742849Y918651D01*
X741960Y917320D01*
X741647Y915750D01*
X741960Y914180D01*
X742849Y912849D01*
X742901Y912814D01*
Y888686D01*
X742849Y888651D01*
X741960Y887320D01*
X741647Y885750D01*
X741960Y884180D01*
X742849Y882849D01*
X742901Y882814D01*
Y858853D01*
X742599Y858651D01*
X741710Y857320D01*
X741397Y855750D01*
X741710Y854180D01*
X742599Y852849D01*
X742901Y852647D01*
Y828686D01*
X742849Y828651D01*
X741960Y827320D01*
X741647Y825750D01*
X741960Y824180D01*
X742849Y822849D01*
X742901Y822814D01*
Y798436D01*
X742849Y798401D01*
X741960Y797070D01*
X741647Y795500D01*
X741960Y793930D01*
X742849Y792599D01*
X742901Y792564D01*
Y768686D01*
X742849Y768651D01*
X741960Y767320D01*
X741647Y765750D01*
X741960Y764180D01*
X742849Y762849D01*
X744180Y761960D01*
X745750Y761647D01*
X747320Y761960D01*
X748651Y762849D01*
X749540Y764180D01*
X749853Y765750D01*
X749540Y767320D01*
X748651Y768651D01*
X748599Y768686D01*
Y792564D01*
X748651Y792599D01*
X749540Y793930D01*
X749853Y795500D01*
X749540Y797070D01*
X748651Y798401D01*
X748599Y798436D01*
Y822814D01*
X748651Y822849D01*
X749540Y824180D01*
X749853Y825750D01*
X749540Y827320D01*
X748651Y828651D01*
X748599Y828686D01*
Y853145D01*
X749290Y854180D01*
X749603Y855750D01*
X749290Y857320D01*
X748599Y858355D01*
Y882814D01*
X748651Y882849D01*
X749540Y884180D01*
X749853Y885750D01*
X749540Y887320D01*
X748651Y888651D01*
X748599Y888686D01*
Y912814D01*
X748651Y912849D01*
X749540Y914180D01*
X749853Y915750D01*
X749540Y917320D01*
X748651Y918651D01*
X748599Y918686D01*
Y942814D01*
X748651Y942849D01*
X749540Y944180D01*
X749853Y945750D01*
X749540Y947320D01*
X748651Y948651D01*
X748599Y948686D01*
Y973395D01*
X749290Y974430D01*
X749603Y976000D01*
X749290Y977570D01*
X748599Y978605D01*
Y1003064D01*
X748651Y1003099D01*
X748768Y1003274D01*
X749240Y1003368D01*
X750164Y1003986D01*
X793342Y1047163D01*
X795044Y1046458D01*
X797400Y1046148D01*
X799756Y1046458D01*
X801951Y1047368D01*
X803836Y1048814D01*
X805282Y1050699D01*
X806192Y1052894D01*
X806502Y1055250D01*
X806192Y1057606D01*
X805282Y1059801D01*
X803836Y1061686D01*
X801951Y1063132D01*
X799756Y1064042D01*
X797400Y1064352D01*
D02*
G37*
G36*
X772000D02*
X769644Y1064042D01*
X767449Y1063132D01*
X765564Y1061686D01*
X764118Y1059801D01*
X763208Y1057606D01*
X762898Y1055250D01*
X763208Y1052894D01*
X763913Y1051192D01*
X721570Y1008849D01*
X718686D01*
X718651Y1008901D01*
X717320Y1009790D01*
X715750Y1010103D01*
X714180Y1009790D01*
X712849Y1008901D01*
X711960Y1007570D01*
X711647Y1006000D01*
X711960Y1004430D01*
X712849Y1003099D01*
X712901Y1003064D01*
Y979103D01*
X712599Y978901D01*
X711710Y977570D01*
X711397Y976000D01*
X711710Y974430D01*
X712599Y973099D01*
X712901Y972897D01*
Y948686D01*
X712849Y948651D01*
X711960Y947320D01*
X711647Y945750D01*
X711960Y944180D01*
X712849Y942849D01*
X712901Y942814D01*
Y918686D01*
X712849Y918651D01*
X711960Y917320D01*
X711647Y915750D01*
X711960Y914180D01*
X712849Y912849D01*
X712901Y912814D01*
Y888686D01*
X712849Y888651D01*
X711960Y887320D01*
X711647Y885750D01*
X711960Y884180D01*
X712849Y882849D01*
X712901Y882814D01*
Y858853D01*
X712599Y858651D01*
X711710Y857320D01*
X711397Y855750D01*
X711710Y854180D01*
X712599Y852849D01*
X712901Y852647D01*
Y828686D01*
X712849Y828651D01*
X711960Y827320D01*
X711647Y825750D01*
X711960Y824180D01*
X712849Y822849D01*
X712901Y822814D01*
Y798436D01*
X712849Y798401D01*
X711960Y797070D01*
X711647Y795500D01*
X711960Y793930D01*
X712849Y792599D01*
X712901Y792564D01*
Y768686D01*
X712849Y768651D01*
X711960Y767320D01*
X711647Y765750D01*
X711960Y764180D01*
X712849Y762849D01*
X714180Y761960D01*
X715750Y761647D01*
X717320Y761960D01*
X718651Y762849D01*
X719540Y764180D01*
X719853Y765750D01*
X719540Y767320D01*
X718651Y768651D01*
X718599Y768686D01*
Y792564D01*
X718651Y792599D01*
X719540Y793930D01*
X719853Y795500D01*
X719540Y797070D01*
X718651Y798401D01*
X718599Y798436D01*
Y822814D01*
X718651Y822849D01*
X719540Y824180D01*
X719853Y825750D01*
X719540Y827320D01*
X718651Y828651D01*
X718599Y828686D01*
Y853145D01*
X719290Y854180D01*
X719603Y855750D01*
X719290Y857320D01*
X718599Y858355D01*
Y882814D01*
X718651Y882849D01*
X719540Y884180D01*
X719853Y885750D01*
X719540Y887320D01*
X718651Y888651D01*
X718599Y888686D01*
Y912814D01*
X718651Y912849D01*
X719540Y914180D01*
X719853Y915750D01*
X719540Y917320D01*
X718651Y918651D01*
X718599Y918686D01*
Y942814D01*
X718651Y942849D01*
X719540Y944180D01*
X719853Y945750D01*
X719540Y947320D01*
X718651Y948651D01*
X718599Y948686D01*
Y973395D01*
X719290Y974430D01*
X719603Y976000D01*
X719290Y977570D01*
X718599Y978605D01*
Y1003064D01*
X718651Y1003099D01*
X718686Y1003151D01*
X722750D01*
X722750Y1003151D01*
X723840Y1003368D01*
X724764Y1003986D01*
X767942Y1047163D01*
X769644Y1046458D01*
X772000Y1046148D01*
X774356Y1046458D01*
X776551Y1047368D01*
X778436Y1048814D01*
X779882Y1050699D01*
X780792Y1052894D01*
X781102Y1055250D01*
X780792Y1057606D01*
X779882Y1059801D01*
X778436Y1061686D01*
X776551Y1063132D01*
X774356Y1064042D01*
X772000Y1064352D01*
D02*
G37*
G36*
X746600D02*
X744244Y1064042D01*
X742049Y1063132D01*
X740164Y1061686D01*
X738718Y1059801D01*
X737808Y1057606D01*
X737498Y1055250D01*
X737808Y1052894D01*
X738513Y1051192D01*
X696170Y1008849D01*
X688436D01*
X688401Y1008901D01*
X687070Y1009790D01*
X685500Y1010103D01*
X683930Y1009790D01*
X682599Y1008901D01*
X681710Y1007570D01*
X681397Y1006000D01*
X681710Y1004430D01*
X682599Y1003099D01*
X682651Y1003064D01*
Y979103D01*
X682349Y978901D01*
X681460Y977570D01*
X681147Y976000D01*
X681460Y974430D01*
X682349Y973099D01*
X682651Y972897D01*
Y948686D01*
X682599Y948651D01*
X681710Y947320D01*
X681397Y945750D01*
X681710Y944180D01*
X682599Y942849D01*
X682651Y942814D01*
Y918686D01*
X682599Y918651D01*
X681710Y917320D01*
X681397Y915750D01*
X681710Y914180D01*
X682599Y912849D01*
X682651Y912814D01*
Y888686D01*
X682599Y888651D01*
X681710Y887320D01*
X681397Y885750D01*
X681710Y884180D01*
X682599Y882849D01*
X682651Y882814D01*
Y858853D01*
X682349Y858651D01*
X681460Y857320D01*
X681147Y855750D01*
X681460Y854180D01*
X682349Y852849D01*
X682651Y852647D01*
Y828686D01*
X682599Y828651D01*
X681710Y827320D01*
X681397Y825750D01*
X681710Y824180D01*
X682599Y822849D01*
X682651Y822814D01*
Y798436D01*
X682599Y798401D01*
X681710Y797070D01*
X681397Y795500D01*
X681710Y793930D01*
X682599Y792599D01*
X682651Y792564D01*
Y768686D01*
X682599Y768651D01*
X681710Y767320D01*
X681397Y765750D01*
X681710Y764180D01*
X682599Y762849D01*
X683930Y761960D01*
X685500Y761647D01*
X687070Y761960D01*
X688401Y762849D01*
X689290Y764180D01*
X689603Y765750D01*
X689290Y767320D01*
X688401Y768651D01*
X688349Y768686D01*
Y792564D01*
X688401Y792599D01*
X689290Y793930D01*
X689603Y795500D01*
X689290Y797070D01*
X688401Y798401D01*
X688349Y798436D01*
Y822814D01*
X688401Y822849D01*
X689290Y824180D01*
X689603Y825750D01*
X689290Y827320D01*
X688401Y828651D01*
X688349Y828686D01*
Y853145D01*
X689041Y854180D01*
X689353Y855750D01*
X689041Y857320D01*
X688349Y858355D01*
Y882814D01*
X688401Y882849D01*
X689290Y884180D01*
X689603Y885750D01*
X689290Y887320D01*
X688401Y888651D01*
X688349Y888686D01*
Y912814D01*
X688401Y912849D01*
X689290Y914180D01*
X689603Y915750D01*
X689290Y917320D01*
X688401Y918651D01*
X688349Y918686D01*
Y942814D01*
X688401Y942849D01*
X689290Y944180D01*
X689603Y945750D01*
X689290Y947320D01*
X688401Y948651D01*
X688349Y948686D01*
Y973395D01*
X689041Y974430D01*
X689353Y976000D01*
X689041Y977570D01*
X688349Y978605D01*
Y1003064D01*
X688401Y1003099D01*
X688436Y1003151D01*
X697350D01*
X697350Y1003151D01*
X698440Y1003368D01*
X699364Y1003986D01*
X742542Y1047163D01*
X744244Y1046458D01*
X746600Y1046148D01*
X748956Y1046458D01*
X751151Y1047368D01*
X753036Y1048814D01*
X754482Y1050699D01*
X755392Y1052894D01*
X755702Y1055250D01*
X755392Y1057606D01*
X754482Y1059801D01*
X753036Y1061686D01*
X751151Y1063132D01*
X748956Y1064042D01*
X746600Y1064352D01*
D02*
G37*
G36*
X721200D02*
X718844Y1064042D01*
X716649Y1063132D01*
X714764Y1061686D01*
X713318Y1059801D01*
X712408Y1057606D01*
X712098Y1055250D01*
X712408Y1052894D01*
X713113Y1051192D01*
X670770Y1008849D01*
X658436D01*
X658401Y1008901D01*
X657070Y1009790D01*
X656316Y1009941D01*
X655897Y1011319D01*
X691742Y1047163D01*
X693444Y1046458D01*
X695800Y1046148D01*
X698156Y1046458D01*
X700351Y1047368D01*
X702236Y1048814D01*
X703682Y1050699D01*
X704592Y1052894D01*
X704902Y1055250D01*
X704592Y1057606D01*
X703682Y1059801D01*
X702236Y1061686D01*
X700351Y1063132D01*
X698156Y1064042D01*
X695800Y1064352D01*
X693444Y1064042D01*
X691249Y1063132D01*
X689364Y1061686D01*
X687918Y1059801D01*
X687008Y1057606D01*
X686698Y1055250D01*
X687008Y1052894D01*
X687713Y1051192D01*
X645370Y1008849D01*
X629677D01*
X629457Y1009116D01*
X629421Y1009329D01*
X629779Y1010728D01*
X630164Y1010986D01*
X666342Y1047163D01*
X668044Y1046458D01*
X670400Y1046148D01*
X672756Y1046458D01*
X674951Y1047368D01*
X676836Y1048814D01*
X678282Y1050699D01*
X679192Y1052894D01*
X679502Y1055250D01*
X679192Y1057606D01*
X678282Y1059801D01*
X676836Y1061686D01*
X674951Y1063132D01*
X672756Y1064042D01*
X670400Y1064352D01*
X668044Y1064042D01*
X665849Y1063132D01*
X663964Y1061686D01*
X662518Y1059801D01*
X661608Y1057606D01*
X661298Y1055250D01*
X661608Y1052894D01*
X662313Y1051192D01*
X626970Y1015849D01*
X611423D01*
X610897Y1017119D01*
X640942Y1047163D01*
X642644Y1046458D01*
X645000Y1046148D01*
X647356Y1046458D01*
X649551Y1047368D01*
X651436Y1048814D01*
X652882Y1050699D01*
X653792Y1052894D01*
X654102Y1055250D01*
X653792Y1057606D01*
X652882Y1059801D01*
X651436Y1061686D01*
X649551Y1063132D01*
X647356Y1064042D01*
X645000Y1064352D01*
X642644Y1064042D01*
X640449Y1063132D01*
X638564Y1061686D01*
X637118Y1059801D01*
X636208Y1057606D01*
X635898Y1055250D01*
X636208Y1052894D01*
X636913Y1051192D01*
X607320Y1021599D01*
X578500D01*
X578500Y1021599D01*
X577410Y1021382D01*
X576486Y1020764D01*
X565812Y1010091D01*
X565750Y1010103D01*
X564180Y1009790D01*
X562849Y1008901D01*
X561959Y1007570D01*
X561647Y1006000D01*
X561959Y1004430D01*
X562849Y1003099D01*
X562901Y1003064D01*
Y979103D01*
X562599Y978901D01*
X561710Y977570D01*
X561397Y976000D01*
X561710Y974430D01*
X562599Y973099D01*
X562901Y972897D01*
Y948686D01*
X562849Y948651D01*
X561959Y947320D01*
X561647Y945750D01*
X561959Y944180D01*
X562849Y942849D01*
X562901Y942814D01*
Y918686D01*
X562849Y918651D01*
X561959Y917320D01*
X561647Y915750D01*
X561959Y914180D01*
X562849Y912849D01*
X562901Y912814D01*
Y888686D01*
X562849Y888651D01*
X561959Y887320D01*
X561647Y885750D01*
X561959Y884180D01*
X562849Y882849D01*
X562901Y882814D01*
Y858853D01*
X562599Y858651D01*
X561710Y857320D01*
X561397Y855750D01*
X561710Y854180D01*
X562599Y852849D01*
X562901Y852647D01*
Y828686D01*
X562849Y828651D01*
X561959Y827320D01*
X561647Y825750D01*
X561959Y824180D01*
X562849Y822849D01*
X562901Y822814D01*
Y798436D01*
X562849Y798401D01*
X561959Y797070D01*
X561647Y795500D01*
X561959Y793930D01*
X562849Y792599D01*
X562901Y792564D01*
Y768686D01*
X562849Y768651D01*
X561959Y767320D01*
X561647Y765750D01*
X561959Y764180D01*
X562849Y762849D01*
X564180Y761960D01*
X565750Y761647D01*
X567320Y761960D01*
X568651Y762849D01*
X569540Y764180D01*
X569853Y765750D01*
X569540Y767320D01*
X568651Y768651D01*
X568599Y768686D01*
Y792564D01*
X568651Y792599D01*
X569540Y793930D01*
X569853Y795500D01*
X569540Y797070D01*
X568651Y798401D01*
X568599Y798436D01*
Y822814D01*
X568651Y822849D01*
X569540Y824180D01*
X569853Y825750D01*
X569540Y827320D01*
X568651Y828651D01*
X568599Y828686D01*
Y853145D01*
X569291Y854180D01*
X569603Y855750D01*
X569291Y857320D01*
X568599Y858355D01*
Y882814D01*
X568651Y882849D01*
X569540Y884180D01*
X569853Y885750D01*
X569540Y887320D01*
X568651Y888651D01*
X568599Y888686D01*
Y912814D01*
X568651Y912849D01*
X569540Y914180D01*
X569853Y915750D01*
X569540Y917320D01*
X568651Y918651D01*
X568599Y918686D01*
Y942814D01*
X568651Y942849D01*
X569540Y944180D01*
X569853Y945750D01*
X569540Y947320D01*
X568651Y948651D01*
X568599Y948686D01*
Y973395D01*
X569291Y974430D01*
X569603Y976000D01*
X569291Y977570D01*
X568599Y978605D01*
Y1003064D01*
X568651Y1003099D01*
X569540Y1004430D01*
X569853Y1006000D01*
X569841Y1006062D01*
X579680Y1015901D01*
X599827D01*
X600353Y1014631D01*
X595812Y1010091D01*
X595750Y1010103D01*
X594180Y1009790D01*
X592849Y1008901D01*
X591959Y1007570D01*
X591647Y1006000D01*
X591959Y1004430D01*
X592849Y1003099D01*
X592901Y1003064D01*
Y979103D01*
X592599Y978901D01*
X591710Y977570D01*
X591397Y976000D01*
X591710Y974430D01*
X592599Y973099D01*
X592901Y972897D01*
Y948686D01*
X592849Y948651D01*
X591959Y947320D01*
X591647Y945750D01*
X591959Y944180D01*
X592849Y942849D01*
X592901Y942814D01*
Y918686D01*
X592849Y918651D01*
X591959Y917320D01*
X591647Y915750D01*
X591959Y914180D01*
X592849Y912849D01*
X592901Y912814D01*
Y888686D01*
X592849Y888651D01*
X591959Y887320D01*
X591647Y885750D01*
X591959Y884180D01*
X592849Y882849D01*
X592901Y882814D01*
Y858853D01*
X592599Y858651D01*
X591710Y857320D01*
X591397Y855750D01*
X591710Y854180D01*
X592599Y852849D01*
X592901Y852647D01*
Y828686D01*
X592849Y828651D01*
X591959Y827320D01*
X591647Y825750D01*
X591959Y824180D01*
X592849Y822849D01*
X592901Y822814D01*
Y798436D01*
X592849Y798401D01*
X591959Y797070D01*
X591647Y795500D01*
X591959Y793930D01*
X592849Y792599D01*
X592901Y792564D01*
Y768686D01*
X592849Y768651D01*
X591959Y767320D01*
X591647Y765750D01*
X591959Y764180D01*
X592849Y762849D01*
X594180Y761960D01*
X595750Y761647D01*
X597320Y761960D01*
X598651Y762849D01*
X599540Y764180D01*
X599853Y765750D01*
X599540Y767320D01*
X598651Y768651D01*
X598599Y768686D01*
Y792564D01*
X598651Y792599D01*
X599540Y793930D01*
X599853Y795500D01*
X599540Y797070D01*
X598651Y798401D01*
X598599Y798436D01*
Y822814D01*
X598651Y822849D01*
X599540Y824180D01*
X599853Y825750D01*
X599540Y827320D01*
X598651Y828651D01*
X598599Y828686D01*
Y853145D01*
X599291Y854180D01*
X599603Y855750D01*
X599291Y857320D01*
X598599Y858355D01*
Y882814D01*
X598651Y882849D01*
X599540Y884180D01*
X599853Y885750D01*
X599540Y887320D01*
X598651Y888651D01*
X598599Y888686D01*
Y912814D01*
X598651Y912849D01*
X599540Y914180D01*
X599853Y915750D01*
X599540Y917320D01*
X598651Y918651D01*
X598599Y918686D01*
Y942814D01*
X598651Y942849D01*
X599540Y944180D01*
X599853Y945750D01*
X599540Y947320D01*
X598651Y948651D01*
X598599Y948686D01*
Y973395D01*
X599291Y974430D01*
X599603Y976000D01*
X599291Y977570D01*
X598599Y978605D01*
Y1003064D01*
X598651Y1003099D01*
X599540Y1004430D01*
X599853Y1006000D01*
X599841Y1006062D01*
X603930Y1010151D01*
X622184D01*
X622599Y1008901D01*
X621710Y1007570D01*
X621397Y1006000D01*
X621710Y1004430D01*
X622599Y1003099D01*
X622651Y1003064D01*
Y979103D01*
X622349Y978901D01*
X621460Y977570D01*
X621147Y976000D01*
X621460Y974430D01*
X622349Y973099D01*
X622651Y972897D01*
Y948686D01*
X622599Y948651D01*
X621710Y947320D01*
X621397Y945750D01*
X621710Y944180D01*
X622599Y942849D01*
X622651Y942814D01*
Y918686D01*
X622599Y918651D01*
X621710Y917320D01*
X621397Y915750D01*
X621710Y914180D01*
X622599Y912849D01*
X622651Y912814D01*
Y888686D01*
X622599Y888651D01*
X621710Y887320D01*
X621397Y885750D01*
X621710Y884180D01*
X622599Y882849D01*
X622651Y882814D01*
Y858853D01*
X622349Y858651D01*
X621460Y857320D01*
X621147Y855750D01*
X621460Y854180D01*
X622349Y852849D01*
X622651Y852647D01*
Y828686D01*
X622599Y828651D01*
X621710Y827320D01*
X621397Y825750D01*
X621710Y824180D01*
X622599Y822849D01*
X622651Y822814D01*
Y798436D01*
X622599Y798401D01*
X621710Y797070D01*
X621397Y795500D01*
X621710Y793930D01*
X622599Y792599D01*
X622651Y792564D01*
Y768686D01*
X622599Y768651D01*
X621710Y767320D01*
X621397Y765750D01*
X621710Y764180D01*
X622599Y762849D01*
X623930Y761960D01*
X625500Y761647D01*
X627070Y761960D01*
X628401Y762849D01*
X629291Y764180D01*
X629603Y765750D01*
X629291Y767320D01*
X628401Y768651D01*
X628349Y768686D01*
Y792564D01*
X628401Y792599D01*
X629291Y793930D01*
X629603Y795500D01*
X629291Y797070D01*
X628401Y798401D01*
X628349Y798436D01*
Y822814D01*
X628401Y822849D01*
X629291Y824180D01*
X629603Y825750D01*
X629291Y827320D01*
X628401Y828651D01*
X628349Y828686D01*
Y853145D01*
X629040Y854180D01*
X629353Y855750D01*
X629040Y857320D01*
X628349Y858355D01*
Y882814D01*
X628401Y882849D01*
X629291Y884180D01*
X629603Y885750D01*
X629291Y887320D01*
X628401Y888651D01*
X628349Y888686D01*
Y912814D01*
X628401Y912849D01*
X629291Y914180D01*
X629603Y915750D01*
X629291Y917320D01*
X628401Y918651D01*
X628349Y918686D01*
Y942814D01*
X628401Y942849D01*
X629291Y944180D01*
X629603Y945750D01*
X629291Y947320D01*
X628401Y948651D01*
X628349Y948686D01*
Y973395D01*
X629040Y974430D01*
X629353Y976000D01*
X629040Y977570D01*
X628349Y978605D01*
Y1003064D01*
X628401Y1003099D01*
X628436Y1003151D01*
X646550D01*
X646550Y1003151D01*
X647640Y1003368D01*
X648564Y1003986D01*
X650181Y1005603D01*
X651559Y1005185D01*
X651710Y1004430D01*
X652599Y1003099D01*
X652651Y1003064D01*
Y979103D01*
X652349Y978901D01*
X651460Y977570D01*
X651147Y976000D01*
X651460Y974430D01*
X652349Y973099D01*
X652651Y972897D01*
Y948686D01*
X652599Y948651D01*
X651710Y947320D01*
X651397Y945750D01*
X651710Y944180D01*
X652599Y942849D01*
X652651Y942814D01*
Y918686D01*
X652599Y918651D01*
X651710Y917320D01*
X651397Y915750D01*
X651710Y914180D01*
X652599Y912849D01*
X652651Y912814D01*
Y888686D01*
X652599Y888651D01*
X651710Y887320D01*
X651397Y885750D01*
X651710Y884180D01*
X652599Y882849D01*
X652651Y882814D01*
Y858853D01*
X652349Y858651D01*
X651460Y857320D01*
X651147Y855750D01*
X651460Y854180D01*
X652349Y852849D01*
X652651Y852647D01*
Y828686D01*
X652599Y828651D01*
X651710Y827320D01*
X651397Y825750D01*
X651710Y824180D01*
X652599Y822849D01*
X652651Y822814D01*
Y798436D01*
X652599Y798401D01*
X651710Y797070D01*
X651397Y795500D01*
X651710Y793930D01*
X652599Y792599D01*
X652651Y792564D01*
Y768686D01*
X652599Y768651D01*
X651710Y767320D01*
X651397Y765750D01*
X651710Y764180D01*
X652599Y762849D01*
X653930Y761960D01*
X655500Y761647D01*
X657070Y761960D01*
X658401Y762849D01*
X659290Y764180D01*
X659603Y765750D01*
X659290Y767320D01*
X658401Y768651D01*
X658349Y768686D01*
Y792564D01*
X658401Y792599D01*
X659290Y793930D01*
X659603Y795500D01*
X659290Y797070D01*
X658401Y798401D01*
X658349Y798436D01*
Y822814D01*
X658401Y822849D01*
X659290Y824180D01*
X659603Y825750D01*
X659290Y827320D01*
X658401Y828651D01*
X658349Y828686D01*
Y853145D01*
X659041Y854180D01*
X659353Y855750D01*
X659041Y857320D01*
X658349Y858355D01*
Y882814D01*
X658401Y882849D01*
X659290Y884180D01*
X659603Y885750D01*
X659290Y887320D01*
X658401Y888651D01*
X658349Y888686D01*
Y912814D01*
X658401Y912849D01*
X659290Y914180D01*
X659603Y915750D01*
X659290Y917320D01*
X658401Y918651D01*
X658349Y918686D01*
Y942814D01*
X658401Y942849D01*
X659290Y944180D01*
X659603Y945750D01*
X659290Y947320D01*
X658401Y948651D01*
X658349Y948686D01*
Y973395D01*
X659041Y974430D01*
X659353Y976000D01*
X659041Y977570D01*
X658349Y978605D01*
Y1003064D01*
X658401Y1003099D01*
X658436Y1003151D01*
X671950D01*
X671950Y1003151D01*
X673040Y1003368D01*
X673964Y1003986D01*
X717142Y1047163D01*
X718844Y1046458D01*
X721200Y1046148D01*
X723556Y1046458D01*
X725751Y1047368D01*
X727636Y1048814D01*
X729082Y1050699D01*
X729992Y1052894D01*
X730302Y1055250D01*
X729992Y1057606D01*
X729082Y1059801D01*
X727636Y1061686D01*
X725751Y1063132D01*
X723556Y1064042D01*
X721200Y1064352D01*
D02*
G37*
G36*
X619600D02*
X617244Y1064042D01*
X615049Y1063132D01*
X613164Y1061686D01*
X611718Y1059801D01*
X610808Y1057606D01*
X610498Y1055250D01*
X610808Y1052894D01*
X611513Y1051192D01*
X588920Y1028599D01*
X573373D01*
X572848Y1029869D01*
X590142Y1047163D01*
X591844Y1046458D01*
X594200Y1046148D01*
X596556Y1046458D01*
X598751Y1047368D01*
X600636Y1048814D01*
X602082Y1050699D01*
X602992Y1052894D01*
X603302Y1055250D01*
X602992Y1057606D01*
X602082Y1059801D01*
X600636Y1061686D01*
X598751Y1063132D01*
X596556Y1064042D01*
X594200Y1064352D01*
X591844Y1064042D01*
X589649Y1063132D01*
X587764Y1061686D01*
X586318Y1059801D01*
X585408Y1057606D01*
X585098Y1055250D01*
X585408Y1052894D01*
X586113Y1051192D01*
X569270Y1034349D01*
X553018D01*
X552890Y1035618D01*
X553814Y1036236D01*
X564742Y1047163D01*
X566444Y1046458D01*
X568800Y1046148D01*
X571156Y1046458D01*
X573351Y1047368D01*
X575236Y1048814D01*
X576682Y1050699D01*
X577592Y1052894D01*
X577902Y1055250D01*
X577592Y1057606D01*
X576682Y1059801D01*
X575236Y1061686D01*
X573351Y1063132D01*
X571156Y1064042D01*
X568800Y1064352D01*
X566444Y1064042D01*
X564249Y1063132D01*
X562364Y1061686D01*
X560918Y1059801D01*
X560008Y1057606D01*
X559698Y1055250D01*
X560008Y1052894D01*
X560713Y1051192D01*
X550620Y1041099D01*
X534999D01*
X534629Y1041818D01*
X534548Y1042369D01*
X539342Y1047163D01*
X541044Y1046458D01*
X543400Y1046148D01*
X545756Y1046458D01*
X547951Y1047368D01*
X549836Y1048814D01*
X551282Y1050699D01*
X552192Y1052894D01*
X552502Y1055250D01*
X552192Y1057606D01*
X551282Y1059801D01*
X549836Y1061686D01*
X547951Y1063132D01*
X545756Y1064042D01*
X543400Y1064352D01*
X541044Y1064042D01*
X538849Y1063132D01*
X536964Y1061686D01*
X535518Y1059801D01*
X534608Y1057606D01*
X534298Y1055250D01*
X534608Y1052894D01*
X535313Y1051192D01*
X531220Y1047099D01*
X527024D01*
Y1064274D01*
X508976D01*
Y1047099D01*
X484000D01*
X482910Y1046882D01*
X481986Y1046264D01*
X481986Y1046264D01*
X445812Y1010091D01*
X445750Y1010103D01*
X444180Y1009790D01*
X442849Y1008901D01*
X441959Y1007570D01*
X441647Y1006000D01*
X441959Y1004430D01*
X442849Y1003099D01*
X442901Y1003064D01*
Y979103D01*
X442599Y978901D01*
X441710Y977570D01*
X441397Y976000D01*
X441710Y974430D01*
X442599Y973099D01*
X442901Y972897D01*
Y948686D01*
X442849Y948651D01*
X441959Y947320D01*
X441647Y945750D01*
X441959Y944180D01*
X442849Y942849D01*
X442901Y942814D01*
Y918686D01*
X442849Y918651D01*
X441959Y917320D01*
X441647Y915750D01*
X441959Y914180D01*
X442849Y912849D01*
X442901Y912814D01*
Y888686D01*
X442849Y888651D01*
X441959Y887320D01*
X441647Y885750D01*
X441959Y884180D01*
X442849Y882849D01*
X442901Y882814D01*
Y858853D01*
X442599Y858651D01*
X441710Y857320D01*
X441397Y855750D01*
X441710Y854180D01*
X442599Y852849D01*
X442901Y852647D01*
Y828686D01*
X442849Y828651D01*
X441959Y827320D01*
X441647Y825750D01*
X441959Y824180D01*
X442849Y822849D01*
X442901Y822814D01*
Y798436D01*
X442849Y798401D01*
X441959Y797070D01*
X441647Y795500D01*
X441959Y793930D01*
X442849Y792599D01*
X442901Y792564D01*
Y768686D01*
X442849Y768651D01*
X441959Y767320D01*
X441647Y765750D01*
X441959Y764180D01*
X442849Y762849D01*
X444180Y761960D01*
X445750Y761647D01*
X447320Y761960D01*
X448651Y762849D01*
X449540Y764180D01*
X449853Y765750D01*
X449540Y767320D01*
X448651Y768651D01*
X448599Y768686D01*
Y792564D01*
X448651Y792599D01*
X449540Y793930D01*
X449853Y795500D01*
X449540Y797070D01*
X448651Y798401D01*
X448599Y798436D01*
Y822814D01*
X448651Y822849D01*
X449540Y824180D01*
X449853Y825750D01*
X449540Y827320D01*
X448651Y828651D01*
X448599Y828686D01*
Y853145D01*
X449291Y854180D01*
X449603Y855750D01*
X449291Y857320D01*
X448599Y858355D01*
Y882814D01*
X448651Y882849D01*
X449540Y884180D01*
X449853Y885750D01*
X449540Y887320D01*
X448651Y888651D01*
X448599Y888686D01*
Y912814D01*
X448651Y912849D01*
X449540Y914180D01*
X449853Y915750D01*
X449540Y917320D01*
X448651Y918651D01*
X448599Y918686D01*
Y942814D01*
X448651Y942849D01*
X449540Y944180D01*
X449853Y945750D01*
X449540Y947320D01*
X448651Y948651D01*
X448599Y948686D01*
Y973395D01*
X449291Y974430D01*
X449603Y976000D01*
X449291Y977570D01*
X448599Y978605D01*
Y1003064D01*
X448651Y1003099D01*
X449540Y1004430D01*
X449853Y1006000D01*
X449841Y1006062D01*
X485180Y1041401D01*
X505401D01*
X505771Y1040682D01*
X505853Y1040131D01*
X475562Y1009841D01*
X475500Y1009853D01*
X473930Y1009541D01*
X472599Y1008651D01*
X471710Y1007320D01*
X471397Y1005750D01*
X471710Y1004180D01*
X472599Y1002849D01*
X472651Y1002814D01*
Y978853D01*
X472349Y978651D01*
X471460Y977320D01*
X471147Y975750D01*
X471460Y974180D01*
X472349Y972849D01*
X472651Y972647D01*
Y948436D01*
X472599Y948401D01*
X471710Y947070D01*
X471397Y945500D01*
X471710Y943930D01*
X472599Y942599D01*
X472651Y942564D01*
Y918436D01*
X472599Y918401D01*
X471710Y917070D01*
X471397Y915500D01*
X471710Y913930D01*
X472599Y912599D01*
X472651Y912564D01*
Y888436D01*
X472599Y888401D01*
X471710Y887070D01*
X471397Y885500D01*
X471710Y883930D01*
X472599Y882599D01*
X472651Y882564D01*
Y858603D01*
X472349Y858401D01*
X471460Y857070D01*
X471147Y855500D01*
X471460Y853930D01*
X472349Y852599D01*
X472651Y852397D01*
Y828436D01*
X472599Y828401D01*
X471710Y827070D01*
X471397Y825500D01*
X471710Y823930D01*
X472599Y822599D01*
X472651Y822564D01*
Y798186D01*
X472599Y798151D01*
X471710Y796820D01*
X471397Y795250D01*
X471710Y793680D01*
X472599Y792349D01*
X472651Y792314D01*
Y768436D01*
X472599Y768401D01*
X471710Y767070D01*
X471397Y765500D01*
X471710Y763930D01*
X472599Y762599D01*
X473930Y761710D01*
X475500Y761397D01*
X477070Y761710D01*
X478401Y762599D01*
X479291Y763930D01*
X479603Y765500D01*
X479291Y767070D01*
X478401Y768401D01*
X478349Y768436D01*
Y792314D01*
X478401Y792349D01*
X479291Y793680D01*
X479603Y795250D01*
X479291Y796820D01*
X478401Y798151D01*
X478349Y798186D01*
Y822564D01*
X478401Y822599D01*
X479291Y823930D01*
X479603Y825500D01*
X479291Y827070D01*
X478401Y828401D01*
X478349Y828436D01*
Y852895D01*
X479040Y853930D01*
X479353Y855500D01*
X479040Y857070D01*
X478349Y858105D01*
Y882564D01*
X478401Y882599D01*
X479291Y883930D01*
X479603Y885500D01*
X479291Y887070D01*
X478401Y888401D01*
X478349Y888436D01*
Y912564D01*
X478401Y912599D01*
X479291Y913930D01*
X479603Y915500D01*
X479291Y917070D01*
X478401Y918401D01*
X478349Y918436D01*
Y942564D01*
X478401Y942599D01*
X479291Y943930D01*
X479603Y945500D01*
X479291Y947070D01*
X478401Y948401D01*
X478349Y948436D01*
Y973145D01*
X479040Y974180D01*
X479353Y975750D01*
X479040Y977320D01*
X478349Y978355D01*
Y1002814D01*
X478401Y1002849D01*
X479291Y1004180D01*
X479603Y1005750D01*
X479590Y1005812D01*
X509180Y1035401D01*
X529781D01*
X529910Y1034132D01*
X528986Y1033514D01*
X528985Y1033514D01*
X505562Y1010091D01*
X505500Y1010103D01*
X503930Y1009790D01*
X502599Y1008901D01*
X501710Y1007570D01*
X501397Y1006000D01*
X501710Y1004430D01*
X502599Y1003099D01*
X502651Y1003064D01*
Y979103D01*
X502349Y978901D01*
X501460Y977570D01*
X501147Y976000D01*
X501460Y974430D01*
X502349Y973099D01*
X502651Y972897D01*
Y948686D01*
X502599Y948651D01*
X501710Y947320D01*
X501397Y945750D01*
X501710Y944180D01*
X502599Y942849D01*
X502651Y942814D01*
Y918686D01*
X502599Y918651D01*
X501710Y917320D01*
X501397Y915750D01*
X501710Y914180D01*
X502599Y912849D01*
X502651Y912814D01*
Y888686D01*
X502599Y888651D01*
X501710Y887320D01*
X501397Y885750D01*
X501710Y884180D01*
X502599Y882849D01*
X502651Y882814D01*
Y858853D01*
X502349Y858651D01*
X501460Y857320D01*
X501147Y855750D01*
X501460Y854180D01*
X502349Y852849D01*
X502651Y852647D01*
Y828686D01*
X502599Y828651D01*
X501710Y827320D01*
X501397Y825750D01*
X501710Y824180D01*
X502599Y822849D01*
X502651Y822814D01*
Y798436D01*
X502599Y798401D01*
X501710Y797070D01*
X501397Y795500D01*
X501710Y793930D01*
X502599Y792599D01*
X502651Y792564D01*
Y768686D01*
X502599Y768651D01*
X501710Y767320D01*
X501397Y765750D01*
X501710Y764180D01*
X502599Y762849D01*
X503930Y761960D01*
X505500Y761647D01*
X507070Y761960D01*
X508401Y762849D01*
X509291Y764180D01*
X509603Y765750D01*
X509291Y767320D01*
X508401Y768651D01*
X508349Y768686D01*
Y792564D01*
X508401Y792599D01*
X509291Y793930D01*
X509603Y795500D01*
X509291Y797070D01*
X508401Y798401D01*
X508349Y798436D01*
Y822814D01*
X508401Y822849D01*
X509291Y824180D01*
X509603Y825750D01*
X509291Y827320D01*
X508401Y828651D01*
X508349Y828686D01*
Y853145D01*
X509040Y854180D01*
X509353Y855750D01*
X509040Y857320D01*
X508349Y858355D01*
Y882814D01*
X508401Y882849D01*
X509291Y884180D01*
X509603Y885750D01*
X509291Y887320D01*
X508401Y888651D01*
X508349Y888686D01*
Y912814D01*
X508401Y912849D01*
X509291Y914180D01*
X509603Y915750D01*
X509291Y917320D01*
X508401Y918651D01*
X508349Y918686D01*
Y942814D01*
X508401Y942849D01*
X509291Y944180D01*
X509603Y945750D01*
X509291Y947320D01*
X508401Y948651D01*
X508349Y948686D01*
Y973395D01*
X509040Y974430D01*
X509353Y976000D01*
X509040Y977570D01*
X508349Y978605D01*
Y1003064D01*
X508401Y1003099D01*
X509291Y1004430D01*
X509603Y1006000D01*
X509590Y1006062D01*
X532180Y1028651D01*
X552326D01*
X552853Y1027381D01*
X535562Y1010091D01*
X535500Y1010103D01*
X533930Y1009790D01*
X532599Y1008901D01*
X531710Y1007570D01*
X531397Y1006000D01*
X531710Y1004430D01*
X532599Y1003099D01*
X532651Y1003064D01*
Y979103D01*
X532349Y978901D01*
X531460Y977570D01*
X531147Y976000D01*
X531460Y974430D01*
X532349Y973099D01*
X532651Y972897D01*
Y948686D01*
X532599Y948651D01*
X531710Y947320D01*
X531397Y945750D01*
X531710Y944180D01*
X532599Y942849D01*
X532651Y942814D01*
Y918686D01*
X532599Y918651D01*
X531710Y917320D01*
X531397Y915750D01*
X531710Y914180D01*
X532599Y912849D01*
X532651Y912814D01*
Y888686D01*
X532599Y888651D01*
X531710Y887320D01*
X531397Y885750D01*
X531710Y884180D01*
X532599Y882849D01*
X532651Y882814D01*
Y858853D01*
X532349Y858651D01*
X531460Y857320D01*
X531147Y855750D01*
X531460Y854180D01*
X532349Y852849D01*
X532651Y852647D01*
Y828686D01*
X532599Y828651D01*
X531710Y827320D01*
X531397Y825750D01*
X531710Y824180D01*
X532599Y822849D01*
X532651Y822814D01*
Y798436D01*
X532599Y798401D01*
X531710Y797070D01*
X531397Y795500D01*
X531710Y793930D01*
X532599Y792599D01*
X532651Y792564D01*
Y768686D01*
X532599Y768651D01*
X531710Y767320D01*
X531397Y765750D01*
X531710Y764180D01*
X532599Y762849D01*
X533930Y761960D01*
X535500Y761647D01*
X537070Y761960D01*
X538401Y762849D01*
X539291Y764180D01*
X539603Y765750D01*
X539291Y767320D01*
X538401Y768651D01*
X538349Y768686D01*
Y792564D01*
X538401Y792599D01*
X539291Y793930D01*
X539603Y795500D01*
X539291Y797070D01*
X538401Y798401D01*
X538349Y798436D01*
Y822814D01*
X538401Y822849D01*
X539291Y824180D01*
X539603Y825750D01*
X539291Y827320D01*
X538401Y828651D01*
X538349Y828686D01*
Y853145D01*
X539040Y854180D01*
X539353Y855750D01*
X539040Y857320D01*
X538349Y858355D01*
Y882814D01*
X538401Y882849D01*
X539291Y884180D01*
X539603Y885750D01*
X539291Y887320D01*
X538401Y888651D01*
X538349Y888686D01*
Y912814D01*
X538401Y912849D01*
X539291Y914180D01*
X539603Y915750D01*
X539291Y917320D01*
X538401Y918651D01*
X538349Y918686D01*
Y942814D01*
X538401Y942849D01*
X539291Y944180D01*
X539603Y945750D01*
X539291Y947320D01*
X538401Y948651D01*
X538349Y948686D01*
Y973395D01*
X539040Y974430D01*
X539353Y976000D01*
X539040Y977570D01*
X538349Y978605D01*
Y1003064D01*
X538401Y1003099D01*
X539291Y1004430D01*
X539603Y1006000D01*
X539590Y1006062D01*
X556430Y1022901D01*
X590100D01*
X590100Y1022901D01*
X591190Y1023118D01*
X592114Y1023736D01*
X615542Y1047163D01*
X617244Y1046458D01*
X619600Y1046148D01*
X621956Y1046458D01*
X624151Y1047368D01*
X626036Y1048814D01*
X627482Y1050699D01*
X628392Y1052894D01*
X628702Y1055250D01*
X628392Y1057606D01*
X627482Y1059801D01*
X626036Y1061686D01*
X624151Y1063132D01*
X621956Y1064042D01*
X619600Y1064352D01*
D02*
G37*
G36*
X1600000Y1066604D02*
X1596761Y1066285D01*
X1593646Y1065340D01*
X1590775Y1063806D01*
X1588259Y1061741D01*
X1586194Y1059225D01*
X1584660Y1056354D01*
X1583715Y1053239D01*
X1583396Y1050000D01*
X1583715Y1046761D01*
X1584660Y1043646D01*
X1586194Y1040775D01*
X1588259Y1038259D01*
X1590775Y1036194D01*
X1593646Y1034660D01*
X1596761Y1033715D01*
X1600000Y1033396D01*
X1603239Y1033715D01*
X1606354Y1034660D01*
X1609225Y1036194D01*
X1611741Y1038259D01*
X1613806Y1040775D01*
X1615340Y1043646D01*
X1616285Y1046761D01*
X1616604Y1050000D01*
X1616285Y1053239D01*
X1615340Y1056354D01*
X1613806Y1059225D01*
X1611741Y1061741D01*
X1609225Y1063806D01*
X1606354Y1065340D01*
X1603239Y1066285D01*
X1600000Y1066604D01*
D02*
G37*
G36*
X400000D02*
X396761Y1066285D01*
X393646Y1065340D01*
X390775Y1063806D01*
X388259Y1061741D01*
X386194Y1059225D01*
X384660Y1056354D01*
X383715Y1053239D01*
X383396Y1050000D01*
X383715Y1046761D01*
X384660Y1043646D01*
X386194Y1040775D01*
X388259Y1038259D01*
X390775Y1036194D01*
X393646Y1034660D01*
X396761Y1033715D01*
X400000Y1033396D01*
X403239Y1033715D01*
X406354Y1034660D01*
X409225Y1036194D01*
X411741Y1038259D01*
X413806Y1040775D01*
X415340Y1043646D01*
X416285Y1046761D01*
X416604Y1050000D01*
X416285Y1053239D01*
X415340Y1056354D01*
X413806Y1059225D01*
X411741Y1061741D01*
X409225Y1063806D01*
X406354Y1065340D01*
X403239Y1066285D01*
X400000Y1066604D01*
D02*
G37*
G36*
X1051400Y1064352D02*
X1049044Y1064042D01*
X1046849Y1063132D01*
X1044964Y1061686D01*
X1043518Y1059801D01*
X1042608Y1057606D01*
X1042298Y1055250D01*
X1042608Y1052894D01*
X1043518Y1050699D01*
X1044964Y1048814D01*
X1046849Y1047368D01*
X1048551Y1046663D01*
Y1013830D01*
X1045312Y1010591D01*
X1045250Y1010603D01*
X1043680Y1010291D01*
X1042349Y1009401D01*
X1041460Y1008070D01*
X1041147Y1006500D01*
X1041460Y1004930D01*
X1042349Y1003599D01*
X1042401Y1003564D01*
Y979603D01*
X1042099Y979401D01*
X1041209Y978070D01*
X1040897Y976500D01*
X1041209Y974930D01*
X1042099Y973599D01*
X1042401Y973397D01*
Y949186D01*
X1042349Y949151D01*
X1041460Y947820D01*
X1041147Y946250D01*
X1041460Y944680D01*
X1042349Y943349D01*
X1042401Y943314D01*
Y919186D01*
X1042349Y919151D01*
X1041460Y917820D01*
X1041147Y916250D01*
X1041460Y914680D01*
X1042349Y913349D01*
X1042401Y913314D01*
Y889186D01*
X1042349Y889151D01*
X1041460Y887820D01*
X1041147Y886250D01*
X1041460Y884680D01*
X1042349Y883349D01*
X1042401Y883314D01*
Y859353D01*
X1042099Y859151D01*
X1041209Y857820D01*
X1040897Y856250D01*
X1041209Y854680D01*
X1042099Y853349D01*
X1042401Y853147D01*
Y829186D01*
X1042349Y829151D01*
X1041460Y827820D01*
X1041147Y826250D01*
X1041460Y824680D01*
X1042349Y823349D01*
X1042401Y823314D01*
Y798936D01*
X1042349Y798901D01*
X1041460Y797570D01*
X1041147Y796000D01*
X1041460Y794430D01*
X1042349Y793099D01*
X1042401Y793064D01*
Y769186D01*
X1042349Y769151D01*
X1041460Y767820D01*
X1041147Y766250D01*
X1041460Y764680D01*
X1042349Y763349D01*
X1043680Y762459D01*
X1045250Y762147D01*
X1046820Y762459D01*
X1048151Y763349D01*
X1049041Y764680D01*
X1049353Y766250D01*
X1049041Y767820D01*
X1048151Y769151D01*
X1048099Y769186D01*
Y793064D01*
X1048151Y793099D01*
X1049041Y794430D01*
X1049353Y796000D01*
X1049041Y797570D01*
X1048151Y798901D01*
X1048099Y798936D01*
Y823314D01*
X1048151Y823349D01*
X1049041Y824680D01*
X1049353Y826250D01*
X1049041Y827820D01*
X1048151Y829151D01*
X1048099Y829186D01*
Y853645D01*
X1048791Y854680D01*
X1049103Y856250D01*
X1048791Y857820D01*
X1048099Y858856D01*
Y883314D01*
X1048151Y883349D01*
X1049041Y884680D01*
X1049353Y886250D01*
X1049041Y887820D01*
X1048151Y889151D01*
X1048099Y889186D01*
Y913314D01*
X1048151Y913349D01*
X1049041Y914680D01*
X1049353Y916250D01*
X1049041Y917820D01*
X1048151Y919151D01*
X1048099Y919186D01*
Y943314D01*
X1048151Y943349D01*
X1049041Y944680D01*
X1049353Y946250D01*
X1049041Y947820D01*
X1048151Y949151D01*
X1048099Y949186D01*
Y973895D01*
X1048791Y974930D01*
X1049103Y976500D01*
X1048791Y978070D01*
X1048099Y979106D01*
Y1003564D01*
X1048151Y1003599D01*
X1049041Y1004930D01*
X1049353Y1006500D01*
X1049341Y1006562D01*
X1053414Y1010636D01*
X1053414Y1010636D01*
X1054032Y1011560D01*
X1054249Y1012650D01*
Y1046663D01*
X1055951Y1047368D01*
X1057836Y1048814D01*
X1059282Y1050699D01*
X1060192Y1052894D01*
X1060502Y1055250D01*
X1060192Y1057606D01*
X1059282Y1059801D01*
X1057836Y1061686D01*
X1055951Y1063132D01*
X1053756Y1064042D01*
X1051400Y1064352D01*
D02*
G37*
G36*
X848200D02*
X845844Y1064042D01*
X843649Y1063132D01*
X841764Y1061686D01*
X840318Y1059801D01*
X839408Y1057606D01*
X839098Y1055250D01*
X839408Y1052894D01*
X840318Y1050699D01*
X841764Y1048814D01*
X842427Y1048306D01*
X842510Y1047038D01*
X805562Y1010091D01*
X805500Y1010103D01*
X803930Y1009790D01*
X802599Y1008901D01*
X801710Y1007570D01*
X801397Y1006000D01*
X801710Y1004430D01*
X802599Y1003099D01*
X802651Y1003064D01*
Y979103D01*
X802349Y978901D01*
X801460Y977570D01*
X801147Y976000D01*
X801460Y974430D01*
X802349Y973099D01*
X802651Y972897D01*
Y948686D01*
X802599Y948651D01*
X801710Y947320D01*
X801397Y945750D01*
X801710Y944180D01*
X802599Y942849D01*
X802651Y942814D01*
Y918686D01*
X802599Y918651D01*
X801710Y917320D01*
X801397Y915750D01*
X801710Y914180D01*
X802599Y912849D01*
X802651Y912814D01*
Y888686D01*
X802599Y888651D01*
X801710Y887320D01*
X801397Y885750D01*
X801710Y884180D01*
X802599Y882849D01*
X802651Y882814D01*
Y858853D01*
X802349Y858651D01*
X801460Y857320D01*
X801147Y855750D01*
X801460Y854180D01*
X802349Y852849D01*
X802651Y852647D01*
Y828686D01*
X802599Y828651D01*
X801710Y827320D01*
X801397Y825750D01*
X801710Y824180D01*
X802599Y822849D01*
X802651Y822814D01*
Y798436D01*
X802599Y798401D01*
X801710Y797070D01*
X801397Y795500D01*
X801710Y793930D01*
X802599Y792599D01*
X802651Y792564D01*
Y768686D01*
X802599Y768651D01*
X801710Y767320D01*
X801397Y765750D01*
X801710Y764180D01*
X802599Y762849D01*
X803930Y761960D01*
X805500Y761647D01*
X807070Y761960D01*
X808401Y762849D01*
X809290Y764180D01*
X809603Y765750D01*
X809290Y767320D01*
X808401Y768651D01*
X808349Y768686D01*
Y792564D01*
X808401Y792599D01*
X809290Y793930D01*
X809603Y795500D01*
X809290Y797070D01*
X808401Y798401D01*
X808349Y798436D01*
Y822814D01*
X808401Y822849D01*
X809290Y824180D01*
X809603Y825750D01*
X809290Y827320D01*
X808401Y828651D01*
X808349Y828686D01*
Y853145D01*
X809041Y854180D01*
X809353Y855750D01*
X809041Y857320D01*
X808349Y858355D01*
Y882814D01*
X808401Y882849D01*
X809290Y884180D01*
X809603Y885750D01*
X809290Y887320D01*
X808401Y888651D01*
X808349Y888686D01*
Y912814D01*
X808401Y912849D01*
X809290Y914180D01*
X809603Y915750D01*
X809290Y917320D01*
X808401Y918651D01*
X808349Y918686D01*
Y942814D01*
X808401Y942849D01*
X809290Y944180D01*
X809603Y945750D01*
X809290Y947320D01*
X808401Y948651D01*
X808349Y948686D01*
Y973395D01*
X809041Y974430D01*
X809353Y976000D01*
X809041Y977570D01*
X808349Y978605D01*
Y1003064D01*
X808401Y1003099D01*
X809290Y1004430D01*
X809603Y1006000D01*
X809591Y1006062D01*
X849901Y1046372D01*
X850556Y1046458D01*
X852751Y1047368D01*
X854636Y1048814D01*
X856082Y1050699D01*
X856992Y1052894D01*
X857302Y1055250D01*
X856992Y1057606D01*
X856082Y1059801D01*
X854636Y1061686D01*
X852751Y1063132D01*
X850556Y1064042D01*
X848200Y1064352D01*
D02*
G37*
G36*
X873600D02*
X871244Y1064042D01*
X869049Y1063132D01*
X867164Y1061686D01*
X865718Y1059801D01*
X864808Y1057606D01*
X864498Y1055250D01*
X864808Y1052894D01*
X865718Y1050699D01*
X867164Y1048814D01*
X869049Y1047368D01*
X870751Y1046663D01*
Y1045280D01*
X835562Y1010091D01*
X835500Y1010103D01*
X833930Y1009790D01*
X832599Y1008901D01*
X831710Y1007570D01*
X831397Y1006000D01*
X831710Y1004430D01*
X832599Y1003099D01*
X832651Y1003064D01*
Y979103D01*
X832349Y978901D01*
X831460Y977570D01*
X831147Y976000D01*
X831460Y974430D01*
X832349Y973099D01*
X832651Y972897D01*
Y948686D01*
X832599Y948651D01*
X831710Y947320D01*
X831397Y945750D01*
X831710Y944180D01*
X832599Y942849D01*
X832651Y942814D01*
Y918686D01*
X832599Y918651D01*
X831710Y917320D01*
X831397Y915750D01*
X831710Y914180D01*
X832599Y912849D01*
X832651Y912814D01*
Y888686D01*
X832599Y888651D01*
X831710Y887320D01*
X831397Y885750D01*
X831710Y884180D01*
X832599Y882849D01*
X832651Y882814D01*
Y858853D01*
X832349Y858651D01*
X831460Y857320D01*
X831147Y855750D01*
X831460Y854180D01*
X832349Y852849D01*
X832651Y852647D01*
Y828686D01*
X832599Y828651D01*
X831710Y827320D01*
X831397Y825750D01*
X831710Y824180D01*
X832599Y822849D01*
X832651Y822814D01*
Y798436D01*
X832599Y798401D01*
X831710Y797070D01*
X831397Y795500D01*
X831710Y793930D01*
X832599Y792599D01*
X832651Y792564D01*
Y768686D01*
X832599Y768651D01*
X831710Y767320D01*
X831397Y765750D01*
X831710Y764180D01*
X832599Y762849D01*
X833930Y761960D01*
X835500Y761647D01*
X837070Y761960D01*
X838401Y762849D01*
X839290Y764180D01*
X839603Y765750D01*
X839290Y767320D01*
X838401Y768651D01*
X838349Y768686D01*
Y792564D01*
X838401Y792599D01*
X839290Y793930D01*
X839603Y795500D01*
X839290Y797070D01*
X838401Y798401D01*
X838349Y798436D01*
Y822814D01*
X838401Y822849D01*
X839290Y824180D01*
X839603Y825750D01*
X839290Y827320D01*
X838401Y828651D01*
X838349Y828686D01*
Y853145D01*
X839041Y854180D01*
X839353Y855750D01*
X839041Y857320D01*
X838349Y858355D01*
Y882814D01*
X838401Y882849D01*
X839290Y884180D01*
X839603Y885750D01*
X839290Y887320D01*
X838401Y888651D01*
X838349Y888686D01*
Y912814D01*
X838401Y912849D01*
X839290Y914180D01*
X839603Y915750D01*
X839290Y917320D01*
X838401Y918651D01*
X838349Y918686D01*
Y942814D01*
X838401Y942849D01*
X839290Y944180D01*
X839603Y945750D01*
X839290Y947320D01*
X838401Y948651D01*
X838349Y948686D01*
Y973395D01*
X839041Y974430D01*
X839353Y976000D01*
X839041Y977570D01*
X838349Y978605D01*
Y1003064D01*
X838401Y1003099D01*
X839290Y1004430D01*
X839603Y1006000D01*
X839591Y1006062D01*
X875614Y1042086D01*
X875614Y1042086D01*
X876232Y1043010D01*
X876449Y1044100D01*
X876449Y1044100D01*
Y1046663D01*
X878151Y1047368D01*
X880036Y1048814D01*
X881482Y1050699D01*
X882392Y1052894D01*
X882702Y1055250D01*
X882392Y1057606D01*
X881482Y1059801D01*
X880036Y1061686D01*
X878151Y1063132D01*
X875956Y1064042D01*
X873600Y1064352D01*
D02*
G37*
G36*
X899000D02*
X896644Y1064042D01*
X894449Y1063132D01*
X892564Y1061686D01*
X891118Y1059801D01*
X890208Y1057606D01*
X889898Y1055250D01*
X890208Y1052894D01*
X891118Y1050699D01*
X892564Y1048814D01*
X894449Y1047368D01*
X896151Y1046663D01*
Y1040430D01*
X865812Y1010091D01*
X865750Y1010103D01*
X864180Y1009790D01*
X862849Y1008901D01*
X861960Y1007570D01*
X861647Y1006000D01*
X861960Y1004430D01*
X862849Y1003099D01*
X862901Y1003064D01*
Y979103D01*
X862599Y978901D01*
X861710Y977570D01*
X861397Y976000D01*
X861710Y974430D01*
X862599Y973099D01*
X862901Y972897D01*
Y948686D01*
X862849Y948651D01*
X861960Y947320D01*
X861647Y945750D01*
X861960Y944180D01*
X862849Y942849D01*
X862901Y942814D01*
Y918686D01*
X862849Y918651D01*
X861960Y917320D01*
X861647Y915750D01*
X861960Y914180D01*
X862849Y912849D01*
X862901Y912814D01*
Y888686D01*
X862849Y888651D01*
X861960Y887320D01*
X861647Y885750D01*
X861960Y884180D01*
X862849Y882849D01*
X862901Y882814D01*
Y858853D01*
X862599Y858651D01*
X861710Y857320D01*
X861397Y855750D01*
X861710Y854180D01*
X862599Y852849D01*
X862901Y852647D01*
Y828686D01*
X862849Y828651D01*
X861960Y827320D01*
X861647Y825750D01*
X861960Y824180D01*
X862849Y822849D01*
X862901Y822814D01*
Y798436D01*
X862849Y798401D01*
X861960Y797070D01*
X861647Y795500D01*
X861960Y793930D01*
X862849Y792599D01*
X862901Y792564D01*
Y768686D01*
X862849Y768651D01*
X861960Y767320D01*
X861647Y765750D01*
X861960Y764180D01*
X862849Y762849D01*
X864180Y761960D01*
X865750Y761647D01*
X867320Y761960D01*
X868651Y762849D01*
X869540Y764180D01*
X869853Y765750D01*
X869540Y767320D01*
X868651Y768651D01*
X868599Y768686D01*
Y792564D01*
X868651Y792599D01*
X869540Y793930D01*
X869853Y795500D01*
X869540Y797070D01*
X868651Y798401D01*
X868599Y798436D01*
Y822814D01*
X868651Y822849D01*
X869540Y824180D01*
X869853Y825750D01*
X869540Y827320D01*
X868651Y828651D01*
X868599Y828686D01*
Y853145D01*
X869290Y854180D01*
X869603Y855750D01*
X869290Y857320D01*
X868599Y858355D01*
Y882814D01*
X868651Y882849D01*
X869540Y884180D01*
X869853Y885750D01*
X869540Y887320D01*
X868651Y888651D01*
X868599Y888686D01*
Y912814D01*
X868651Y912849D01*
X869540Y914180D01*
X869853Y915750D01*
X869540Y917320D01*
X868651Y918651D01*
X868599Y918686D01*
Y942814D01*
X868651Y942849D01*
X869540Y944180D01*
X869853Y945750D01*
X869540Y947320D01*
X868651Y948651D01*
X868599Y948686D01*
Y973395D01*
X869290Y974430D01*
X869603Y976000D01*
X869290Y977570D01*
X868599Y978605D01*
Y1003064D01*
X868651Y1003099D01*
X869540Y1004430D01*
X869853Y1006000D01*
X869840Y1006062D01*
X901014Y1037236D01*
X901014Y1037236D01*
X901632Y1038160D01*
X901849Y1039250D01*
X901849Y1039250D01*
Y1046663D01*
X903551Y1047368D01*
X905436Y1048814D01*
X906882Y1050699D01*
X907792Y1052894D01*
X908102Y1055250D01*
X907792Y1057606D01*
X906882Y1059801D01*
X905436Y1061686D01*
X903551Y1063132D01*
X901356Y1064042D01*
X899000Y1064352D01*
D02*
G37*
G36*
X924400D02*
X922044Y1064042D01*
X919849Y1063132D01*
X917964Y1061686D01*
X916518Y1059801D01*
X915608Y1057606D01*
X915298Y1055250D01*
X915608Y1052894D01*
X916518Y1050699D01*
X917964Y1048814D01*
X919849Y1047368D01*
X921551Y1046663D01*
Y1036080D01*
X895562Y1010091D01*
X895500Y1010103D01*
X893930Y1009790D01*
X892599Y1008901D01*
X891710Y1007570D01*
X891397Y1006000D01*
X891710Y1004430D01*
X892599Y1003099D01*
X892651Y1003064D01*
Y979103D01*
X892349Y978901D01*
X891460Y977570D01*
X891147Y976000D01*
X891460Y974430D01*
X892349Y973099D01*
X892651Y972897D01*
Y948686D01*
X892599Y948651D01*
X891710Y947320D01*
X891397Y945750D01*
X891710Y944180D01*
X892599Y942849D01*
X892651Y942814D01*
Y918686D01*
X892599Y918651D01*
X891710Y917320D01*
X891397Y915750D01*
X891710Y914180D01*
X892599Y912849D01*
X892651Y912814D01*
Y888686D01*
X892599Y888651D01*
X891710Y887320D01*
X891397Y885750D01*
X891710Y884180D01*
X892599Y882849D01*
X892651Y882814D01*
Y858853D01*
X892349Y858651D01*
X891460Y857320D01*
X891147Y855750D01*
X891460Y854180D01*
X892349Y852849D01*
X892651Y852647D01*
Y828686D01*
X892599Y828651D01*
X891710Y827320D01*
X891397Y825750D01*
X891710Y824180D01*
X892599Y822849D01*
X892651Y822814D01*
Y798436D01*
X892599Y798401D01*
X891710Y797070D01*
X891397Y795500D01*
X891710Y793930D01*
X892599Y792599D01*
X892651Y792564D01*
Y768686D01*
X892599Y768651D01*
X891710Y767320D01*
X891397Y765750D01*
X891710Y764180D01*
X892599Y762849D01*
X893930Y761960D01*
X895500Y761647D01*
X897070Y761960D01*
X898401Y762849D01*
X899290Y764180D01*
X899603Y765750D01*
X899290Y767320D01*
X898401Y768651D01*
X898349Y768686D01*
Y792564D01*
X898401Y792599D01*
X899290Y793930D01*
X899603Y795500D01*
X899290Y797070D01*
X898401Y798401D01*
X898349Y798436D01*
Y822814D01*
X898401Y822849D01*
X899290Y824180D01*
X899603Y825750D01*
X899290Y827320D01*
X898401Y828651D01*
X898349Y828686D01*
Y853145D01*
X899041Y854180D01*
X899353Y855750D01*
X899041Y857320D01*
X898349Y858355D01*
Y882814D01*
X898401Y882849D01*
X899290Y884180D01*
X899603Y885750D01*
X899290Y887320D01*
X898401Y888651D01*
X898349Y888686D01*
Y912814D01*
X898401Y912849D01*
X899290Y914180D01*
X899603Y915750D01*
X899290Y917320D01*
X898401Y918651D01*
X898349Y918686D01*
Y942814D01*
X898401Y942849D01*
X899290Y944180D01*
X899603Y945750D01*
X899290Y947320D01*
X898401Y948651D01*
X898349Y948686D01*
Y973395D01*
X899041Y974430D01*
X899353Y976000D01*
X899041Y977570D01*
X898349Y978605D01*
Y1003064D01*
X898401Y1003099D01*
X899290Y1004430D01*
X899603Y1006000D01*
X899591Y1006062D01*
X926414Y1032886D01*
X926414Y1032886D01*
X927032Y1033810D01*
X927249Y1034900D01*
X927249Y1034900D01*
Y1046663D01*
X928951Y1047368D01*
X930836Y1048814D01*
X932282Y1050699D01*
X933192Y1052894D01*
X933502Y1055250D01*
X933192Y1057606D01*
X932282Y1059801D01*
X930836Y1061686D01*
X928951Y1063132D01*
X926756Y1064042D01*
X924400Y1064352D01*
D02*
G37*
G36*
X949800D02*
X947444Y1064042D01*
X945249Y1063132D01*
X943364Y1061686D01*
X941918Y1059801D01*
X941008Y1057606D01*
X940698Y1055250D01*
X941008Y1052894D01*
X941918Y1050699D01*
X943364Y1048814D01*
X945249Y1047368D01*
X946951Y1046663D01*
Y1031480D01*
X925562Y1010091D01*
X925500Y1010103D01*
X923930Y1009790D01*
X922599Y1008901D01*
X921710Y1007570D01*
X921397Y1006000D01*
X921710Y1004430D01*
X922599Y1003099D01*
X922651Y1003064D01*
Y979103D01*
X922349Y978901D01*
X921460Y977570D01*
X921147Y976000D01*
X921460Y974430D01*
X922349Y973099D01*
X922651Y972897D01*
Y948686D01*
X922599Y948651D01*
X921710Y947320D01*
X921397Y945750D01*
X921710Y944180D01*
X922599Y942849D01*
X922651Y942814D01*
Y918686D01*
X922599Y918651D01*
X921710Y917320D01*
X921397Y915750D01*
X921710Y914180D01*
X922599Y912849D01*
X922651Y912814D01*
Y888686D01*
X922599Y888651D01*
X921710Y887320D01*
X921397Y885750D01*
X921710Y884180D01*
X922599Y882849D01*
X922651Y882814D01*
Y858853D01*
X922349Y858651D01*
X921460Y857320D01*
X921147Y855750D01*
X921460Y854180D01*
X922349Y852849D01*
X922651Y852647D01*
Y828686D01*
X922599Y828651D01*
X921710Y827320D01*
X921397Y825750D01*
X921710Y824180D01*
X922599Y822849D01*
X922651Y822814D01*
Y798436D01*
X922599Y798401D01*
X921710Y797070D01*
X921397Y795500D01*
X921710Y793930D01*
X922599Y792599D01*
X922651Y792564D01*
Y768686D01*
X922599Y768651D01*
X921710Y767320D01*
X921397Y765750D01*
X921710Y764180D01*
X922599Y762849D01*
X923930Y761960D01*
X925500Y761647D01*
X927070Y761960D01*
X928401Y762849D01*
X929290Y764180D01*
X929603Y765750D01*
X929290Y767320D01*
X928401Y768651D01*
X928349Y768686D01*
Y792564D01*
X928401Y792599D01*
X929290Y793930D01*
X929603Y795500D01*
X929290Y797070D01*
X928401Y798401D01*
X928349Y798436D01*
Y822814D01*
X928401Y822849D01*
X929290Y824180D01*
X929603Y825750D01*
X929290Y827320D01*
X928401Y828651D01*
X928349Y828686D01*
Y853145D01*
X929041Y854180D01*
X929353Y855750D01*
X929041Y857320D01*
X928349Y858355D01*
Y882814D01*
X928401Y882849D01*
X929290Y884180D01*
X929603Y885750D01*
X929290Y887320D01*
X928401Y888651D01*
X928349Y888686D01*
Y912814D01*
X928401Y912849D01*
X929290Y914180D01*
X929603Y915750D01*
X929290Y917320D01*
X928401Y918651D01*
X928349Y918686D01*
Y942814D01*
X928401Y942849D01*
X929290Y944180D01*
X929603Y945750D01*
X929290Y947320D01*
X928401Y948651D01*
X928349Y948686D01*
Y973395D01*
X929041Y974430D01*
X929353Y976000D01*
X929041Y977570D01*
X928349Y978605D01*
Y1003064D01*
X928401Y1003099D01*
X929290Y1004430D01*
X929603Y1006000D01*
X929591Y1006062D01*
X951814Y1028286D01*
X951814Y1028286D01*
X952432Y1029210D01*
X952649Y1030300D01*
Y1046663D01*
X954351Y1047368D01*
X956236Y1048814D01*
X957682Y1050699D01*
X958592Y1052894D01*
X958902Y1055250D01*
X958592Y1057606D01*
X957682Y1059801D01*
X956236Y1061686D01*
X954351Y1063132D01*
X952156Y1064042D01*
X949800Y1064352D01*
D02*
G37*
G36*
X975200D02*
X972844Y1064042D01*
X970649Y1063132D01*
X968764Y1061686D01*
X967318Y1059801D01*
X966408Y1057606D01*
X966098Y1055250D01*
X966408Y1052894D01*
X967318Y1050699D01*
X968764Y1048814D01*
X970649Y1047368D01*
X972351Y1046663D01*
Y1026880D01*
X955562Y1010091D01*
X955500Y1010103D01*
X953930Y1009790D01*
X952599Y1008901D01*
X951710Y1007570D01*
X951397Y1006000D01*
X951710Y1004430D01*
X952599Y1003099D01*
X952651Y1003064D01*
Y979103D01*
X952349Y978901D01*
X951460Y977570D01*
X951147Y976000D01*
X951460Y974430D01*
X952349Y973099D01*
X952651Y972897D01*
Y948686D01*
X952599Y948651D01*
X951710Y947320D01*
X951397Y945750D01*
X951710Y944180D01*
X952599Y942849D01*
X952651Y942814D01*
Y918686D01*
X952599Y918651D01*
X951710Y917320D01*
X951397Y915750D01*
X951710Y914180D01*
X952599Y912849D01*
X952651Y912814D01*
Y888686D01*
X952599Y888651D01*
X951710Y887320D01*
X951397Y885750D01*
X951710Y884180D01*
X952599Y882849D01*
X952651Y882814D01*
Y858853D01*
X952349Y858651D01*
X951460Y857320D01*
X951147Y855750D01*
X951460Y854180D01*
X952349Y852849D01*
X952651Y852647D01*
Y828686D01*
X952599Y828651D01*
X951710Y827320D01*
X951397Y825750D01*
X951710Y824180D01*
X952599Y822849D01*
X952651Y822814D01*
Y798436D01*
X952599Y798401D01*
X951710Y797070D01*
X951397Y795500D01*
X951710Y793930D01*
X952599Y792599D01*
X952651Y792564D01*
Y768686D01*
X952599Y768651D01*
X951710Y767320D01*
X951397Y765750D01*
X951710Y764180D01*
X952599Y762849D01*
X953930Y761960D01*
X955500Y761647D01*
X957070Y761960D01*
X958401Y762849D01*
X959290Y764180D01*
X959603Y765750D01*
X959290Y767320D01*
X958401Y768651D01*
X958349Y768686D01*
Y792564D01*
X958401Y792599D01*
X959290Y793930D01*
X959603Y795500D01*
X959290Y797070D01*
X958401Y798401D01*
X958349Y798436D01*
Y822814D01*
X958401Y822849D01*
X959290Y824180D01*
X959603Y825750D01*
X959290Y827320D01*
X958401Y828651D01*
X958349Y828686D01*
Y853145D01*
X959041Y854180D01*
X959353Y855750D01*
X959041Y857320D01*
X958349Y858355D01*
Y882814D01*
X958401Y882849D01*
X959290Y884180D01*
X959603Y885750D01*
X959290Y887320D01*
X958401Y888651D01*
X958349Y888686D01*
Y912814D01*
X958401Y912849D01*
X959290Y914180D01*
X959603Y915750D01*
X959290Y917320D01*
X958401Y918651D01*
X958349Y918686D01*
Y942814D01*
X958401Y942849D01*
X959290Y944180D01*
X959603Y945750D01*
X959290Y947320D01*
X958401Y948651D01*
X958349Y948686D01*
Y973395D01*
X959041Y974430D01*
X959353Y976000D01*
X959041Y977570D01*
X958349Y978605D01*
Y1003064D01*
X958401Y1003099D01*
X959290Y1004430D01*
X959603Y1006000D01*
X959591Y1006062D01*
X977214Y1023686D01*
X977214Y1023686D01*
X977832Y1024610D01*
X978049Y1025700D01*
Y1046663D01*
X979751Y1047368D01*
X981636Y1048814D01*
X983082Y1050699D01*
X983992Y1052894D01*
X984302Y1055250D01*
X983992Y1057606D01*
X983082Y1059801D01*
X981636Y1061686D01*
X979751Y1063132D01*
X977556Y1064042D01*
X975200Y1064352D01*
D02*
G37*
G36*
X1000600D02*
X998244Y1064042D01*
X996049Y1063132D01*
X994164Y1061686D01*
X992718Y1059801D01*
X991808Y1057606D01*
X991498Y1055250D01*
X991808Y1052894D01*
X992718Y1050699D01*
X994164Y1048814D01*
X996049Y1047368D01*
X997751Y1046663D01*
Y1022030D01*
X985812Y1010091D01*
X985750Y1010103D01*
X984180Y1009790D01*
X982849Y1008901D01*
X981960Y1007570D01*
X981647Y1006000D01*
X981960Y1004430D01*
X982849Y1003099D01*
X982901Y1003064D01*
Y979103D01*
X982599Y978901D01*
X981710Y977570D01*
X981397Y976000D01*
X981710Y974430D01*
X982599Y973099D01*
X982901Y972897D01*
Y948686D01*
X982849Y948651D01*
X981960Y947320D01*
X981647Y945750D01*
X981960Y944180D01*
X982849Y942849D01*
X982901Y942814D01*
Y918686D01*
X982849Y918651D01*
X981960Y917320D01*
X981647Y915750D01*
X981960Y914180D01*
X982849Y912849D01*
X982901Y912814D01*
Y888686D01*
X982849Y888651D01*
X981960Y887320D01*
X981647Y885750D01*
X981960Y884180D01*
X982849Y882849D01*
X982901Y882814D01*
Y858853D01*
X982599Y858651D01*
X981710Y857320D01*
X981397Y855750D01*
X981710Y854180D01*
X982599Y852849D01*
X982901Y852647D01*
Y828686D01*
X982849Y828651D01*
X981960Y827320D01*
X981647Y825750D01*
X981960Y824180D01*
X982849Y822849D01*
X982901Y822814D01*
Y798436D01*
X982849Y798401D01*
X981960Y797070D01*
X981647Y795500D01*
X981960Y793930D01*
X982849Y792599D01*
X982901Y792564D01*
Y768686D01*
X982849Y768651D01*
X981960Y767320D01*
X981647Y765750D01*
X981960Y764180D01*
X982849Y762849D01*
X984180Y761960D01*
X985750Y761647D01*
X987320Y761960D01*
X988651Y762849D01*
X989540Y764180D01*
X989853Y765750D01*
X989540Y767320D01*
X988651Y768651D01*
X988599Y768686D01*
Y792564D01*
X988651Y792599D01*
X989540Y793930D01*
X989853Y795500D01*
X989540Y797070D01*
X988651Y798401D01*
X988599Y798436D01*
Y822814D01*
X988651Y822849D01*
X989540Y824180D01*
X989853Y825750D01*
X989540Y827320D01*
X988651Y828651D01*
X988599Y828686D01*
Y853145D01*
X989290Y854180D01*
X989603Y855750D01*
X989290Y857320D01*
X988599Y858355D01*
Y882814D01*
X988651Y882849D01*
X989540Y884180D01*
X989853Y885750D01*
X989540Y887320D01*
X988651Y888651D01*
X988599Y888686D01*
Y912814D01*
X988651Y912849D01*
X989540Y914180D01*
X989853Y915750D01*
X989540Y917320D01*
X988651Y918651D01*
X988599Y918686D01*
Y942814D01*
X988651Y942849D01*
X989540Y944180D01*
X989853Y945750D01*
X989540Y947320D01*
X988651Y948651D01*
X988599Y948686D01*
Y973395D01*
X989290Y974430D01*
X989603Y976000D01*
X989290Y977570D01*
X988599Y978605D01*
Y1003064D01*
X988651Y1003099D01*
X989540Y1004430D01*
X989853Y1006000D01*
X989840Y1006062D01*
X1002614Y1018836D01*
X1002614Y1018836D01*
X1003232Y1019760D01*
X1003449Y1020850D01*
Y1046663D01*
X1005151Y1047368D01*
X1007036Y1048814D01*
X1008482Y1050699D01*
X1009392Y1052894D01*
X1009702Y1055250D01*
X1009392Y1057606D01*
X1008482Y1059801D01*
X1007036Y1061686D01*
X1005151Y1063132D01*
X1002956Y1064042D01*
X1000600Y1064352D01*
D02*
G37*
G36*
X1026000D02*
X1023644Y1064042D01*
X1021449Y1063132D01*
X1019564Y1061686D01*
X1018118Y1059801D01*
X1017208Y1057606D01*
X1016898Y1055250D01*
X1017208Y1052894D01*
X1018118Y1050699D01*
X1019564Y1048814D01*
X1021449Y1047368D01*
X1023151Y1046663D01*
Y1017680D01*
X1015562Y1010091D01*
X1015500Y1010103D01*
X1013930Y1009790D01*
X1012599Y1008901D01*
X1011710Y1007570D01*
X1011397Y1006000D01*
X1011710Y1004430D01*
X1012599Y1003099D01*
X1012651Y1003064D01*
Y979103D01*
X1012349Y978901D01*
X1011460Y977570D01*
X1011147Y976000D01*
X1011460Y974430D01*
X1012349Y973099D01*
X1012651Y972897D01*
Y948686D01*
X1012599Y948651D01*
X1011710Y947320D01*
X1011397Y945750D01*
X1011710Y944180D01*
X1012599Y942849D01*
X1012651Y942814D01*
Y918686D01*
X1012599Y918651D01*
X1011710Y917320D01*
X1011397Y915750D01*
X1011710Y914180D01*
X1012599Y912849D01*
X1012651Y912814D01*
Y888686D01*
X1012599Y888651D01*
X1011710Y887320D01*
X1011397Y885750D01*
X1011710Y884180D01*
X1012599Y882849D01*
X1012651Y882814D01*
Y858853D01*
X1012349Y858651D01*
X1011460Y857320D01*
X1011147Y855750D01*
X1011460Y854180D01*
X1012349Y852849D01*
X1012651Y852647D01*
Y828686D01*
X1012599Y828651D01*
X1011710Y827320D01*
X1011397Y825750D01*
X1011710Y824180D01*
X1012599Y822849D01*
X1012651Y822814D01*
Y798436D01*
X1012599Y798401D01*
X1011710Y797070D01*
X1011397Y795500D01*
X1011710Y793930D01*
X1012599Y792599D01*
X1012651Y792564D01*
Y768686D01*
X1012599Y768651D01*
X1011710Y767320D01*
X1011397Y765750D01*
X1011710Y764180D01*
X1012599Y762849D01*
X1013930Y761960D01*
X1015500Y761647D01*
X1017070Y761960D01*
X1018401Y762849D01*
X1019290Y764180D01*
X1019603Y765750D01*
X1019290Y767320D01*
X1018401Y768651D01*
X1018349Y768686D01*
Y792564D01*
X1018401Y792599D01*
X1019290Y793930D01*
X1019603Y795500D01*
X1019290Y797070D01*
X1018401Y798401D01*
X1018349Y798436D01*
Y822814D01*
X1018401Y822849D01*
X1019290Y824180D01*
X1019603Y825750D01*
X1019290Y827320D01*
X1018401Y828651D01*
X1018349Y828686D01*
Y853145D01*
X1019041Y854180D01*
X1019353Y855750D01*
X1019041Y857320D01*
X1018349Y858355D01*
Y882814D01*
X1018401Y882849D01*
X1019290Y884180D01*
X1019603Y885750D01*
X1019290Y887320D01*
X1018401Y888651D01*
X1018349Y888686D01*
Y912814D01*
X1018401Y912849D01*
X1019290Y914180D01*
X1019603Y915750D01*
X1019290Y917320D01*
X1018401Y918651D01*
X1018349Y918686D01*
Y942814D01*
X1018401Y942849D01*
X1019290Y944180D01*
X1019603Y945750D01*
X1019290Y947320D01*
X1018401Y948651D01*
X1018349Y948686D01*
Y973395D01*
X1019041Y974430D01*
X1019353Y976000D01*
X1019041Y977570D01*
X1018349Y978605D01*
Y1003064D01*
X1018401Y1003099D01*
X1019290Y1004430D01*
X1019603Y1006000D01*
X1019591Y1006062D01*
X1028014Y1014486D01*
X1028014Y1014486D01*
X1028632Y1015410D01*
X1028849Y1016500D01*
X1028849Y1016500D01*
Y1046663D01*
X1030551Y1047368D01*
X1032436Y1048814D01*
X1033882Y1050699D01*
X1034792Y1052894D01*
X1035102Y1055250D01*
X1034792Y1057606D01*
X1033882Y1059801D01*
X1032436Y1061686D01*
X1030551Y1063132D01*
X1028356Y1064042D01*
X1026000Y1064352D01*
D02*
G37*
G36*
X1392250Y1010353D02*
X1390680Y1010041D01*
X1389349Y1009151D01*
X1388459Y1007820D01*
X1388147Y1006250D01*
X1388459Y1004680D01*
X1389349Y1003349D01*
X1390680Y1002459D01*
X1392250Y1002147D01*
X1392401Y1000921D01*
Y771436D01*
X1392349Y771401D01*
X1391460Y770070D01*
X1391147Y768500D01*
X1391460Y766930D01*
X1392349Y765599D01*
X1393680Y764709D01*
X1395250Y764397D01*
X1396820Y764709D01*
X1398151Y765599D01*
X1399041Y766930D01*
X1399353Y768500D01*
X1399041Y770070D01*
X1398151Y771401D01*
X1398099Y771436D01*
Y1003250D01*
X1398099Y1003250D01*
X1397882Y1004340D01*
X1397264Y1005264D01*
X1397264Y1005264D01*
X1396340Y1006188D01*
X1396353Y1006250D01*
X1396040Y1007820D01*
X1395151Y1009151D01*
X1393820Y1010041D01*
X1392250Y1010353D01*
D02*
G37*
G36*
X1364750Y984103D02*
X1363180Y983791D01*
X1361849Y982901D01*
X1360959Y981570D01*
X1360647Y980000D01*
X1360959Y978430D01*
X1361849Y977099D01*
X1361901Y977064D01*
Y771324D01*
X1361849Y771289D01*
X1360959Y769958D01*
X1360647Y768388D01*
X1360959Y766818D01*
X1361849Y765487D01*
X1363180Y764598D01*
X1364750Y764285D01*
X1366320Y764598D01*
X1367651Y765487D01*
X1368540Y766818D01*
X1368853Y768388D01*
X1368540Y769958D01*
X1367651Y771289D01*
X1367599Y771324D01*
Y977064D01*
X1367651Y977099D01*
X1368540Y978430D01*
X1368853Y980000D01*
X1368540Y981570D01*
X1367651Y982901D01*
X1366320Y983791D01*
X1364750Y984103D01*
D02*
G37*
G36*
X1335500Y954241D02*
X1333930Y953929D01*
X1332599Y953039D01*
X1331709Y951708D01*
X1331397Y950138D01*
X1331709Y948568D01*
X1332599Y947237D01*
X1332651Y947202D01*
Y771324D01*
X1332599Y771289D01*
X1331709Y769958D01*
X1331397Y768388D01*
X1331709Y766818D01*
X1332599Y765487D01*
X1333930Y764598D01*
X1335500Y764285D01*
X1337070Y764598D01*
X1338401Y765487D01*
X1339290Y766818D01*
X1339603Y768388D01*
X1339290Y769958D01*
X1338401Y771289D01*
X1338349Y771324D01*
Y947202D01*
X1338401Y947237D01*
X1339290Y948568D01*
X1339603Y950138D01*
X1339290Y951708D01*
X1338401Y953039D01*
X1337070Y953929D01*
X1335500Y954241D01*
D02*
G37*
G36*
X1215000Y832353D02*
X1213430Y832040D01*
X1212099Y831151D01*
X1211209Y829820D01*
X1210897Y828250D01*
X1211209Y826680D01*
X1212099Y825349D01*
X1212151Y825314D01*
Y771324D01*
X1212099Y771289D01*
X1211209Y769958D01*
X1210897Y768388D01*
X1211209Y766818D01*
X1212099Y765487D01*
X1213430Y764598D01*
X1215000Y764285D01*
X1216570Y764598D01*
X1217901Y765487D01*
X1218791Y766818D01*
X1219103Y768388D01*
X1218791Y769958D01*
X1217901Y771289D01*
X1217849Y771324D01*
Y825314D01*
X1217901Y825349D01*
X1218791Y826680D01*
X1219103Y828250D01*
X1218791Y829820D01*
X1217901Y831151D01*
X1216570Y832040D01*
X1215000Y832353D01*
D02*
G37*
G36*
X1303750Y923103D02*
X1302180Y922791D01*
X1300849Y921901D01*
X1299960Y920570D01*
X1299647Y919000D01*
X1299960Y917430D01*
X1300849Y916099D01*
X1300901Y916064D01*
Y770936D01*
X1300849Y770901D01*
X1299960Y769570D01*
X1299647Y768000D01*
X1299960Y766430D01*
X1300849Y765099D01*
X1302180Y764210D01*
X1303750Y763897D01*
X1305320Y764210D01*
X1306651Y765099D01*
X1307540Y766430D01*
X1307853Y768000D01*
X1307540Y769570D01*
X1306651Y770901D01*
X1306599Y770936D01*
Y916064D01*
X1306651Y916099D01*
X1307540Y917430D01*
X1307853Y919000D01*
X1307540Y920570D01*
X1306651Y921901D01*
X1305320Y922791D01*
X1303750Y923103D01*
D02*
G37*
G36*
X1273750Y892103D02*
X1272180Y891790D01*
X1270849Y890901D01*
X1269959Y889570D01*
X1269647Y888000D01*
X1269959Y886430D01*
X1270849Y885099D01*
X1270901Y885064D01*
Y770936D01*
X1270849Y770901D01*
X1269959Y769570D01*
X1269647Y768000D01*
X1269959Y766430D01*
X1270849Y765099D01*
X1272180Y764210D01*
X1273750Y763897D01*
X1275320Y764210D01*
X1276651Y765099D01*
X1277541Y766430D01*
X1277853Y768000D01*
X1277541Y769570D01*
X1276651Y770901D01*
X1276599Y770936D01*
Y885064D01*
X1276651Y885099D01*
X1277541Y886430D01*
X1277853Y888000D01*
X1277541Y889570D01*
X1276651Y890901D01*
X1275320Y891790D01*
X1273750Y892103D01*
D02*
G37*
G36*
X1242750Y862103D02*
X1241180Y861790D01*
X1239849Y860901D01*
X1238960Y859570D01*
X1238647Y858000D01*
X1238960Y856430D01*
X1239849Y855099D01*
X1239901Y855064D01*
Y770936D01*
X1239849Y770901D01*
X1238960Y769570D01*
X1238647Y768000D01*
X1238960Y766430D01*
X1239849Y765099D01*
X1241180Y764210D01*
X1242750Y763897D01*
X1244320Y764210D01*
X1245651Y765099D01*
X1246541Y766430D01*
X1246853Y768000D01*
X1246541Y769570D01*
X1245651Y770901D01*
X1245599Y770936D01*
Y855064D01*
X1245651Y855099D01*
X1246541Y856430D01*
X1246853Y858000D01*
X1246541Y859570D01*
X1245651Y860901D01*
X1244320Y861790D01*
X1242750Y862103D01*
D02*
G37*
G36*
X1184750Y803103D02*
X1183180Y802791D01*
X1181849Y801901D01*
X1180959Y800570D01*
X1180647Y799000D01*
X1180959Y797430D01*
X1181849Y796099D01*
X1181901Y796064D01*
Y771270D01*
X1181349Y770901D01*
X1180460Y769570D01*
X1180147Y768000D01*
X1180460Y766430D01*
X1181349Y765099D01*
X1182680Y764210D01*
X1184250Y763897D01*
X1185820Y764210D01*
X1187151Y765099D01*
X1188040Y766430D01*
X1188353Y768000D01*
X1188040Y769570D01*
X1187599Y770231D01*
Y796064D01*
X1187651Y796099D01*
X1188540Y797430D01*
X1188853Y799000D01*
X1188540Y800570D01*
X1187651Y801901D01*
X1186320Y802791D01*
X1184750Y803103D01*
D02*
G37*
G36*
X1457400Y1064352D02*
X1455044Y1064042D01*
X1452849Y1063132D01*
X1450964Y1061686D01*
X1449518Y1059801D01*
X1448608Y1057606D01*
X1448298Y1055250D01*
X1448608Y1052894D01*
X1449518Y1050699D01*
X1450964Y1048814D01*
X1452849Y1047368D01*
X1455044Y1046458D01*
X1457400Y1046148D01*
X1459756Y1046458D01*
X1461951Y1047368D01*
X1463836Y1048814D01*
X1464372Y1048849D01*
X1508736Y1004486D01*
X1509660Y1003868D01*
X1510750Y1003651D01*
X1510750Y1003651D01*
X1522814D01*
X1522849Y1003599D01*
X1522901Y1003564D01*
Y979603D01*
X1522599Y979401D01*
X1521709Y978070D01*
X1521397Y976500D01*
X1521709Y974930D01*
X1522599Y973599D01*
X1522901Y973397D01*
Y949186D01*
X1522849Y949151D01*
X1521960Y947820D01*
X1521647Y946250D01*
X1521960Y944680D01*
X1522849Y943349D01*
X1522901Y943314D01*
Y919186D01*
X1522849Y919151D01*
X1521960Y917820D01*
X1521647Y916250D01*
X1521960Y914680D01*
X1522849Y913349D01*
X1522901Y913314D01*
Y889186D01*
X1522849Y889151D01*
X1521960Y887820D01*
X1521647Y886250D01*
X1521960Y884680D01*
X1522849Y883349D01*
X1522901Y883314D01*
Y859353D01*
X1522599Y859151D01*
X1521709Y857820D01*
X1521397Y856250D01*
X1521709Y854680D01*
X1522599Y853349D01*
X1522901Y853147D01*
Y829186D01*
X1522849Y829151D01*
X1521960Y827820D01*
X1521647Y826250D01*
X1521960Y824680D01*
X1522849Y823349D01*
X1522901Y823314D01*
Y798936D01*
X1522849Y798901D01*
X1521960Y797570D01*
X1521647Y796000D01*
X1521960Y794430D01*
X1522849Y793099D01*
X1522901Y793064D01*
Y769186D01*
X1522849Y769151D01*
X1521960Y767820D01*
X1521647Y766250D01*
X1521960Y764680D01*
X1522849Y763349D01*
X1524180Y762459D01*
X1525750Y762147D01*
X1527320Y762459D01*
X1528651Y763349D01*
X1529541Y764680D01*
X1529853Y766250D01*
X1529541Y767820D01*
X1528651Y769151D01*
X1528599Y769186D01*
Y793064D01*
X1528651Y793099D01*
X1529541Y794430D01*
X1529853Y796000D01*
X1529541Y797570D01*
X1528651Y798901D01*
X1528599Y798936D01*
Y823314D01*
X1528651Y823349D01*
X1529541Y824680D01*
X1529853Y826250D01*
X1529541Y827820D01*
X1528651Y829151D01*
X1528599Y829186D01*
Y853645D01*
X1529290Y854680D01*
X1529603Y856250D01*
X1529290Y857820D01*
X1528599Y858856D01*
Y883314D01*
X1528651Y883349D01*
X1529541Y884680D01*
X1529853Y886250D01*
X1529541Y887820D01*
X1528651Y889151D01*
X1528599Y889186D01*
Y913314D01*
X1528651Y913349D01*
X1529541Y914680D01*
X1529853Y916250D01*
X1529541Y917820D01*
X1528651Y919151D01*
X1528599Y919186D01*
Y943314D01*
X1528651Y943349D01*
X1529541Y944680D01*
X1529853Y946250D01*
X1529541Y947820D01*
X1528651Y949151D01*
X1528599Y949186D01*
Y973895D01*
X1529290Y974930D01*
X1529603Y976500D01*
X1529290Y978070D01*
X1528599Y979106D01*
Y1003564D01*
X1528651Y1003599D01*
X1529541Y1004930D01*
X1529853Y1006500D01*
X1529541Y1008070D01*
X1528651Y1009401D01*
X1527320Y1010291D01*
X1525750Y1010603D01*
X1524180Y1010291D01*
X1522849Y1009401D01*
X1522814Y1009349D01*
X1511930D01*
X1466447Y1054832D01*
X1466502Y1055250D01*
X1466192Y1057606D01*
X1465282Y1059801D01*
X1463836Y1061686D01*
X1461951Y1063132D01*
X1459756Y1064042D01*
X1457400Y1064352D01*
D02*
G37*
G36*
X1432000D02*
X1429644Y1064042D01*
X1427449Y1063132D01*
X1425564Y1061686D01*
X1424118Y1059801D01*
X1423208Y1057606D01*
X1422898Y1055250D01*
X1423208Y1052894D01*
X1424118Y1050699D01*
X1425564Y1048814D01*
X1427449Y1047368D01*
X1429644Y1046458D01*
X1432000Y1046148D01*
X1434356Y1046458D01*
X1436058Y1047163D01*
X1478736Y1004486D01*
X1479660Y1003868D01*
X1480750Y1003651D01*
X1480750Y1003651D01*
X1492564D01*
X1492599Y1003599D01*
X1492651Y1003564D01*
Y979603D01*
X1492349Y979401D01*
X1491460Y978070D01*
X1491147Y976500D01*
X1491460Y974930D01*
X1492349Y973599D01*
X1492651Y973397D01*
Y949186D01*
X1492599Y949151D01*
X1491709Y947820D01*
X1491397Y946250D01*
X1491709Y944680D01*
X1492599Y943349D01*
X1492651Y943314D01*
Y919186D01*
X1492599Y919151D01*
X1491709Y917820D01*
X1491397Y916250D01*
X1491709Y914680D01*
X1492599Y913349D01*
X1492651Y913314D01*
Y889186D01*
X1492599Y889151D01*
X1491709Y887820D01*
X1491397Y886250D01*
X1491709Y884680D01*
X1492599Y883349D01*
X1492651Y883314D01*
Y859353D01*
X1492349Y859151D01*
X1491460Y857820D01*
X1491147Y856250D01*
X1491460Y854680D01*
X1492349Y853349D01*
X1492651Y853147D01*
Y829186D01*
X1492599Y829151D01*
X1491709Y827820D01*
X1491397Y826250D01*
X1491709Y824680D01*
X1492599Y823349D01*
X1492651Y823314D01*
Y798936D01*
X1492599Y798901D01*
X1491709Y797570D01*
X1491397Y796000D01*
X1491709Y794430D01*
X1492599Y793099D01*
X1492651Y793064D01*
Y769186D01*
X1492599Y769151D01*
X1491709Y767820D01*
X1491397Y766250D01*
X1491709Y764680D01*
X1492599Y763349D01*
X1493930Y762459D01*
X1495500Y762147D01*
X1497070Y762459D01*
X1498401Y763349D01*
X1499290Y764680D01*
X1499603Y766250D01*
X1499290Y767820D01*
X1498401Y769151D01*
X1498349Y769186D01*
Y793064D01*
X1498401Y793099D01*
X1499290Y794430D01*
X1499603Y796000D01*
X1499290Y797570D01*
X1498401Y798901D01*
X1498349Y798936D01*
Y823314D01*
X1498401Y823349D01*
X1499290Y824680D01*
X1499603Y826250D01*
X1499290Y827820D01*
X1498401Y829151D01*
X1498349Y829186D01*
Y853645D01*
X1499041Y854680D01*
X1499353Y856250D01*
X1499041Y857820D01*
X1498349Y858856D01*
Y883314D01*
X1498401Y883349D01*
X1499290Y884680D01*
X1499603Y886250D01*
X1499290Y887820D01*
X1498401Y889151D01*
X1498349Y889186D01*
Y913314D01*
X1498401Y913349D01*
X1499290Y914680D01*
X1499603Y916250D01*
X1499290Y917820D01*
X1498401Y919151D01*
X1498349Y919186D01*
Y943314D01*
X1498401Y943349D01*
X1499290Y944680D01*
X1499603Y946250D01*
X1499290Y947820D01*
X1498401Y949151D01*
X1498349Y949186D01*
Y973895D01*
X1499041Y974930D01*
X1499353Y976500D01*
X1499041Y978070D01*
X1498349Y979106D01*
Y1003564D01*
X1498401Y1003599D01*
X1499290Y1004930D01*
X1499603Y1006500D01*
X1499290Y1008070D01*
X1498401Y1009401D01*
X1497070Y1010291D01*
X1495500Y1010603D01*
X1493930Y1010291D01*
X1492599Y1009401D01*
X1492564Y1009349D01*
X1481930D01*
X1440087Y1051192D01*
X1440792Y1052894D01*
X1441102Y1055250D01*
X1440792Y1057606D01*
X1439882Y1059801D01*
X1438436Y1061686D01*
X1436551Y1063132D01*
X1434356Y1064042D01*
X1432000Y1064352D01*
D02*
G37*
G36*
X1406600D02*
X1404244Y1064042D01*
X1402049Y1063132D01*
X1400164Y1061686D01*
X1398718Y1059801D01*
X1397808Y1057606D01*
X1397498Y1055250D01*
X1397808Y1052894D01*
X1398718Y1050699D01*
X1400164Y1048814D01*
X1402049Y1047368D01*
X1404244Y1046458D01*
X1406600Y1046148D01*
X1408956Y1046458D01*
X1410658Y1047163D01*
X1453336Y1004486D01*
X1454260Y1003868D01*
X1455350Y1003651D01*
X1455350Y1003651D01*
X1462564D01*
X1462599Y1003599D01*
X1462651Y1003564D01*
Y979603D01*
X1462349Y979401D01*
X1461460Y978070D01*
X1461147Y976500D01*
X1461460Y974930D01*
X1462349Y973599D01*
X1462651Y973397D01*
Y949186D01*
X1462599Y949151D01*
X1461709Y947820D01*
X1461397Y946250D01*
X1461709Y944680D01*
X1462599Y943349D01*
X1462651Y943314D01*
Y919186D01*
X1462599Y919151D01*
X1461709Y917820D01*
X1461397Y916250D01*
X1461709Y914680D01*
X1462599Y913349D01*
X1462651Y913314D01*
Y889186D01*
X1462599Y889151D01*
X1461709Y887820D01*
X1461397Y886250D01*
X1461709Y884680D01*
X1462599Y883349D01*
X1462651Y883314D01*
Y859353D01*
X1462349Y859151D01*
X1461460Y857820D01*
X1461147Y856250D01*
X1461460Y854680D01*
X1462349Y853349D01*
X1462651Y853147D01*
Y829186D01*
X1462599Y829151D01*
X1461709Y827820D01*
X1461397Y826250D01*
X1461709Y824680D01*
X1462599Y823349D01*
X1462651Y823314D01*
Y798936D01*
X1462599Y798901D01*
X1461709Y797570D01*
X1461397Y796000D01*
X1461709Y794430D01*
X1462599Y793099D01*
X1462651Y793064D01*
Y769186D01*
X1462599Y769151D01*
X1461709Y767820D01*
X1461397Y766250D01*
X1461709Y764680D01*
X1462599Y763349D01*
X1463930Y762459D01*
X1465500Y762147D01*
X1467070Y762459D01*
X1468401Y763349D01*
X1469290Y764680D01*
X1469603Y766250D01*
X1469290Y767820D01*
X1468401Y769151D01*
X1468349Y769186D01*
Y793064D01*
X1468401Y793099D01*
X1469290Y794430D01*
X1469603Y796000D01*
X1469290Y797570D01*
X1468401Y798901D01*
X1468349Y798936D01*
Y823314D01*
X1468401Y823349D01*
X1469290Y824680D01*
X1469603Y826250D01*
X1469290Y827820D01*
X1468401Y829151D01*
X1468349Y829186D01*
Y853645D01*
X1469041Y854680D01*
X1469353Y856250D01*
X1469041Y857820D01*
X1468349Y858856D01*
Y883314D01*
X1468401Y883349D01*
X1469290Y884680D01*
X1469603Y886250D01*
X1469290Y887820D01*
X1468401Y889151D01*
X1468349Y889186D01*
Y913314D01*
X1468401Y913349D01*
X1469290Y914680D01*
X1469603Y916250D01*
X1469290Y917820D01*
X1468401Y919151D01*
X1468349Y919186D01*
Y943314D01*
X1468401Y943349D01*
X1469290Y944680D01*
X1469603Y946250D01*
X1469290Y947820D01*
X1468401Y949151D01*
X1468349Y949186D01*
Y973895D01*
X1469041Y974930D01*
X1469353Y976500D01*
X1469041Y978070D01*
X1468349Y979106D01*
Y1003564D01*
X1468401Y1003599D01*
X1469290Y1004930D01*
X1469603Y1006500D01*
X1469290Y1008070D01*
X1468401Y1009401D01*
X1467070Y1010291D01*
X1465500Y1010603D01*
X1463930Y1010291D01*
X1462599Y1009401D01*
X1462564Y1009349D01*
X1456530D01*
X1414687Y1051192D01*
X1415392Y1052894D01*
X1415702Y1055250D01*
X1415392Y1057606D01*
X1414482Y1059801D01*
X1413036Y1061686D01*
X1411151Y1063132D01*
X1408956Y1064042D01*
X1406600Y1064352D01*
D02*
G37*
G36*
X1381200D02*
X1378844Y1064042D01*
X1376649Y1063132D01*
X1374764Y1061686D01*
X1373318Y1059801D01*
X1372408Y1057606D01*
X1372098Y1055250D01*
X1372408Y1052894D01*
X1373318Y1050699D01*
X1374764Y1048814D01*
X1376649Y1047368D01*
X1378844Y1046458D01*
X1381200Y1046148D01*
X1383556Y1046458D01*
X1385258Y1047163D01*
X1427936Y1004486D01*
X1428860Y1003868D01*
X1429950Y1003651D01*
X1429950Y1003651D01*
X1432564D01*
X1432599Y1003599D01*
X1432651Y1003564D01*
Y979603D01*
X1432349Y979401D01*
X1431460Y978070D01*
X1431147Y976500D01*
X1431460Y974930D01*
X1432349Y973599D01*
X1432651Y973397D01*
Y949186D01*
X1432599Y949151D01*
X1431709Y947820D01*
X1431397Y946250D01*
X1431709Y944680D01*
X1432599Y943349D01*
X1432651Y943314D01*
Y919186D01*
X1432599Y919151D01*
X1431709Y917820D01*
X1431397Y916250D01*
X1431709Y914680D01*
X1432599Y913349D01*
X1432651Y913314D01*
Y889186D01*
X1432599Y889151D01*
X1431709Y887820D01*
X1431397Y886250D01*
X1431709Y884680D01*
X1432599Y883349D01*
X1432651Y883314D01*
Y859353D01*
X1432349Y859151D01*
X1431460Y857820D01*
X1431147Y856250D01*
X1431460Y854680D01*
X1432349Y853349D01*
X1432651Y853147D01*
Y829186D01*
X1432599Y829151D01*
X1431709Y827820D01*
X1431397Y826250D01*
X1431709Y824680D01*
X1432599Y823349D01*
X1432651Y823314D01*
Y798936D01*
X1432599Y798901D01*
X1431709Y797570D01*
X1431397Y796000D01*
X1431709Y794430D01*
X1432599Y793099D01*
X1432651Y793064D01*
Y769186D01*
X1432599Y769151D01*
X1431709Y767820D01*
X1431397Y766250D01*
X1431709Y764680D01*
X1432599Y763349D01*
X1433930Y762459D01*
X1435500Y762147D01*
X1437070Y762459D01*
X1438401Y763349D01*
X1439290Y764680D01*
X1439603Y766250D01*
X1439290Y767820D01*
X1438401Y769151D01*
X1438349Y769186D01*
Y793064D01*
X1438401Y793099D01*
X1439290Y794430D01*
X1439603Y796000D01*
X1439290Y797570D01*
X1438401Y798901D01*
X1438349Y798936D01*
Y823314D01*
X1438401Y823349D01*
X1439290Y824680D01*
X1439603Y826250D01*
X1439290Y827820D01*
X1438401Y829151D01*
X1438349Y829186D01*
Y853645D01*
X1439041Y854680D01*
X1439353Y856250D01*
X1439041Y857820D01*
X1438349Y858856D01*
Y883314D01*
X1438401Y883349D01*
X1439290Y884680D01*
X1439603Y886250D01*
X1439290Y887820D01*
X1438401Y889151D01*
X1438349Y889186D01*
Y913314D01*
X1438401Y913349D01*
X1439290Y914680D01*
X1439603Y916250D01*
X1439290Y917820D01*
X1438401Y919151D01*
X1438349Y919186D01*
Y943314D01*
X1438401Y943349D01*
X1439290Y944680D01*
X1439603Y946250D01*
X1439290Y947820D01*
X1438401Y949151D01*
X1438349Y949186D01*
Y973895D01*
X1439041Y974930D01*
X1439353Y976500D01*
X1439041Y978070D01*
X1438349Y979106D01*
Y1003564D01*
X1438401Y1003599D01*
X1439290Y1004930D01*
X1439603Y1006500D01*
X1439290Y1008070D01*
X1438401Y1009401D01*
X1437070Y1010291D01*
X1435500Y1010603D01*
X1433930Y1010291D01*
X1432599Y1009401D01*
X1432564Y1009349D01*
X1431130D01*
X1389287Y1051192D01*
X1389992Y1052894D01*
X1390302Y1055250D01*
X1389992Y1057606D01*
X1389082Y1059801D01*
X1387636Y1061686D01*
X1385751Y1063132D01*
X1383556Y1064042D01*
X1381200Y1064352D01*
D02*
G37*
G36*
X1355800D02*
X1353444Y1064042D01*
X1351249Y1063132D01*
X1349364Y1061686D01*
X1347918Y1059801D01*
X1347008Y1057606D01*
X1346698Y1055250D01*
X1347008Y1052894D01*
X1347918Y1050699D01*
X1349364Y1048814D01*
X1351249Y1047368D01*
X1353444Y1046458D01*
X1355800Y1046148D01*
X1358156Y1046458D01*
X1359858Y1047163D01*
X1401927Y1005095D01*
X1401960Y1004930D01*
X1402849Y1003599D01*
X1402901Y1003564D01*
Y979603D01*
X1402599Y979401D01*
X1401709Y978070D01*
X1401397Y976500D01*
X1401709Y974930D01*
X1402599Y973599D01*
X1402901Y973397D01*
Y949186D01*
X1402849Y949151D01*
X1401960Y947820D01*
X1401647Y946250D01*
X1401960Y944680D01*
X1402849Y943349D01*
X1402901Y943314D01*
Y919186D01*
X1402849Y919151D01*
X1401960Y917820D01*
X1401647Y916250D01*
X1401960Y914680D01*
X1402849Y913349D01*
X1402901Y913314D01*
Y889186D01*
X1402849Y889151D01*
X1401960Y887820D01*
X1401647Y886250D01*
X1401960Y884680D01*
X1402849Y883349D01*
X1402901Y883314D01*
Y859353D01*
X1402599Y859151D01*
X1401709Y857820D01*
X1401397Y856250D01*
X1401709Y854680D01*
X1402599Y853349D01*
X1402901Y853147D01*
Y829186D01*
X1402849Y829151D01*
X1401960Y827820D01*
X1401647Y826250D01*
X1401960Y824680D01*
X1402849Y823349D01*
X1402901Y823314D01*
Y798936D01*
X1402849Y798901D01*
X1401960Y797570D01*
X1401647Y796000D01*
X1401960Y794430D01*
X1402849Y793099D01*
X1402901Y793064D01*
Y769186D01*
X1402849Y769151D01*
X1401960Y767820D01*
X1401647Y766250D01*
X1401960Y764680D01*
X1402849Y763349D01*
X1404180Y762459D01*
X1405750Y762147D01*
X1407320Y762459D01*
X1408651Y763349D01*
X1409541Y764680D01*
X1409853Y766250D01*
X1409541Y767820D01*
X1408651Y769151D01*
X1408599Y769186D01*
Y793064D01*
X1408651Y793099D01*
X1409541Y794430D01*
X1409853Y796000D01*
X1409541Y797570D01*
X1408651Y798901D01*
X1408599Y798936D01*
Y823314D01*
X1408651Y823349D01*
X1409541Y824680D01*
X1409853Y826250D01*
X1409541Y827820D01*
X1408651Y829151D01*
X1408599Y829186D01*
Y853645D01*
X1409290Y854680D01*
X1409603Y856250D01*
X1409290Y857820D01*
X1408599Y858856D01*
Y883314D01*
X1408651Y883349D01*
X1409541Y884680D01*
X1409853Y886250D01*
X1409541Y887820D01*
X1408651Y889151D01*
X1408599Y889186D01*
Y913314D01*
X1408651Y913349D01*
X1409541Y914680D01*
X1409853Y916250D01*
X1409541Y917820D01*
X1408651Y919151D01*
X1408599Y919186D01*
Y943314D01*
X1408651Y943349D01*
X1409541Y944680D01*
X1409853Y946250D01*
X1409541Y947820D01*
X1408651Y949151D01*
X1408599Y949186D01*
Y973895D01*
X1409290Y974930D01*
X1409603Y976500D01*
X1409290Y978070D01*
X1408599Y979106D01*
Y1003564D01*
X1408651Y1003599D01*
X1409541Y1004930D01*
X1409853Y1006500D01*
X1409541Y1008070D01*
X1408651Y1009401D01*
X1407320Y1010291D01*
X1405750Y1010603D01*
X1404687Y1010391D01*
X1363887Y1051192D01*
X1364592Y1052894D01*
X1364902Y1055250D01*
X1364592Y1057606D01*
X1363682Y1059801D01*
X1362236Y1061686D01*
X1360351Y1063132D01*
X1358156Y1064042D01*
X1355800Y1064352D01*
D02*
G37*
G36*
X1330400D02*
X1328044Y1064042D01*
X1325849Y1063132D01*
X1323964Y1061686D01*
X1322518Y1059801D01*
X1321608Y1057606D01*
X1321298Y1055250D01*
X1321608Y1052894D01*
X1322518Y1050699D01*
X1323964Y1048814D01*
X1325849Y1047368D01*
X1328044Y1046458D01*
X1330400Y1046148D01*
X1331658Y1046314D01*
X1371409Y1006562D01*
X1371397Y1006500D01*
X1371709Y1004930D01*
X1372599Y1003599D01*
X1372651Y1003564D01*
Y979603D01*
X1372349Y979401D01*
X1371460Y978070D01*
X1371147Y976500D01*
X1371460Y974930D01*
X1372349Y973599D01*
X1372651Y973397D01*
Y949186D01*
X1372599Y949151D01*
X1371709Y947820D01*
X1371397Y946250D01*
X1371709Y944680D01*
X1372599Y943349D01*
X1372651Y943314D01*
Y919186D01*
X1372599Y919151D01*
X1371709Y917820D01*
X1371397Y916250D01*
X1371709Y914680D01*
X1372599Y913349D01*
X1372651Y913314D01*
Y889186D01*
X1372599Y889151D01*
X1371709Y887820D01*
X1371397Y886250D01*
X1371709Y884680D01*
X1372599Y883349D01*
X1372651Y883314D01*
Y859353D01*
X1372349Y859151D01*
X1371460Y857820D01*
X1371147Y856250D01*
X1371460Y854680D01*
X1372349Y853349D01*
X1372651Y853147D01*
Y829186D01*
X1372599Y829151D01*
X1371709Y827820D01*
X1371397Y826250D01*
X1371709Y824680D01*
X1372599Y823349D01*
X1372651Y823314D01*
Y798936D01*
X1372599Y798901D01*
X1371709Y797570D01*
X1371397Y796000D01*
X1371709Y794430D01*
X1372599Y793099D01*
X1372651Y793064D01*
Y769186D01*
X1372599Y769151D01*
X1371709Y767820D01*
X1371397Y766250D01*
X1371709Y764680D01*
X1372599Y763349D01*
X1373930Y762459D01*
X1375500Y762147D01*
X1377070Y762459D01*
X1378401Y763349D01*
X1379290Y764680D01*
X1379603Y766250D01*
X1379290Y767820D01*
X1378401Y769151D01*
X1378349Y769186D01*
Y793064D01*
X1378401Y793099D01*
X1379290Y794430D01*
X1379603Y796000D01*
X1379290Y797570D01*
X1378401Y798901D01*
X1378349Y798936D01*
Y823314D01*
X1378401Y823349D01*
X1379290Y824680D01*
X1379603Y826250D01*
X1379290Y827820D01*
X1378401Y829151D01*
X1378349Y829186D01*
Y853645D01*
X1379041Y854680D01*
X1379353Y856250D01*
X1379041Y857820D01*
X1378349Y858856D01*
Y883314D01*
X1378401Y883349D01*
X1379290Y884680D01*
X1379603Y886250D01*
X1379290Y887820D01*
X1378401Y889151D01*
X1378349Y889186D01*
Y913314D01*
X1378401Y913349D01*
X1379290Y914680D01*
X1379603Y916250D01*
X1379290Y917820D01*
X1378401Y919151D01*
X1378349Y919186D01*
Y943314D01*
X1378401Y943349D01*
X1379290Y944680D01*
X1379603Y946250D01*
X1379290Y947820D01*
X1378401Y949151D01*
X1378349Y949186D01*
Y973895D01*
X1379041Y974930D01*
X1379353Y976500D01*
X1379041Y978070D01*
X1378349Y979106D01*
Y1003564D01*
X1378401Y1003599D01*
X1379290Y1004930D01*
X1379603Y1006500D01*
X1379290Y1008070D01*
X1378401Y1009401D01*
X1377070Y1010291D01*
X1375500Y1010603D01*
X1375438Y1010591D01*
X1337000Y1049028D01*
X1338282Y1050699D01*
X1339192Y1052894D01*
X1339502Y1055250D01*
X1339192Y1057606D01*
X1338282Y1059801D01*
X1336836Y1061686D01*
X1334951Y1063132D01*
X1332756Y1064042D01*
X1330400Y1064352D01*
D02*
G37*
G36*
X1305000D02*
X1302644Y1064042D01*
X1300449Y1063132D01*
X1298564Y1061686D01*
X1297118Y1059801D01*
X1296208Y1057606D01*
X1295898Y1055250D01*
X1296208Y1052894D01*
X1297118Y1050699D01*
X1298564Y1048814D01*
X1300449Y1047368D01*
X1302279Y1046610D01*
X1302368Y1046160D01*
X1302986Y1045236D01*
X1341659Y1006562D01*
X1341647Y1006500D01*
X1341960Y1004930D01*
X1342849Y1003599D01*
X1342901Y1003564D01*
Y979603D01*
X1342599Y979401D01*
X1341709Y978070D01*
X1341397Y976500D01*
X1341709Y974930D01*
X1342599Y973599D01*
X1342901Y973397D01*
Y949186D01*
X1342849Y949151D01*
X1341960Y947820D01*
X1341647Y946250D01*
X1341960Y944680D01*
X1342849Y943349D01*
X1342901Y943314D01*
Y919186D01*
X1342849Y919151D01*
X1341960Y917820D01*
X1341647Y916250D01*
X1341960Y914680D01*
X1342849Y913349D01*
X1342901Y913314D01*
Y889186D01*
X1342849Y889151D01*
X1341960Y887820D01*
X1341647Y886250D01*
X1341960Y884680D01*
X1342849Y883349D01*
X1342901Y883314D01*
Y859353D01*
X1342599Y859151D01*
X1341709Y857820D01*
X1341397Y856250D01*
X1341709Y854680D01*
X1342599Y853349D01*
X1342901Y853147D01*
Y829186D01*
X1342849Y829151D01*
X1341960Y827820D01*
X1341647Y826250D01*
X1341960Y824680D01*
X1342849Y823349D01*
X1342901Y823314D01*
Y798936D01*
X1342849Y798901D01*
X1341960Y797570D01*
X1341647Y796000D01*
X1341960Y794430D01*
X1342849Y793099D01*
X1342901Y793064D01*
Y769186D01*
X1342849Y769151D01*
X1341960Y767820D01*
X1341647Y766250D01*
X1341960Y764680D01*
X1342849Y763349D01*
X1344180Y762459D01*
X1345750Y762147D01*
X1347320Y762459D01*
X1348651Y763349D01*
X1349541Y764680D01*
X1349853Y766250D01*
X1349541Y767820D01*
X1348651Y769151D01*
X1348599Y769186D01*
Y793064D01*
X1348651Y793099D01*
X1349541Y794430D01*
X1349853Y796000D01*
X1349541Y797570D01*
X1348651Y798901D01*
X1348599Y798936D01*
Y823314D01*
X1348651Y823349D01*
X1349541Y824680D01*
X1349853Y826250D01*
X1349541Y827820D01*
X1348651Y829151D01*
X1348599Y829186D01*
Y853645D01*
X1349290Y854680D01*
X1349603Y856250D01*
X1349290Y857820D01*
X1348599Y858856D01*
Y883314D01*
X1348651Y883349D01*
X1349541Y884680D01*
X1349853Y886250D01*
X1349541Y887820D01*
X1348651Y889151D01*
X1348599Y889186D01*
Y913314D01*
X1348651Y913349D01*
X1349541Y914680D01*
X1349853Y916250D01*
X1349541Y917820D01*
X1348651Y919151D01*
X1348599Y919186D01*
Y943314D01*
X1348651Y943349D01*
X1349541Y944680D01*
X1349853Y946250D01*
X1349541Y947820D01*
X1348651Y949151D01*
X1348599Y949186D01*
Y973895D01*
X1349290Y974930D01*
X1349603Y976500D01*
X1349290Y978070D01*
X1348599Y979106D01*
Y1003564D01*
X1348651Y1003599D01*
X1349541Y1004930D01*
X1349853Y1006500D01*
X1349541Y1008070D01*
X1348651Y1009401D01*
X1347320Y1010291D01*
X1345750Y1010603D01*
X1345688Y1010591D01*
X1310004Y1046274D01*
X1310205Y1047870D01*
X1311436Y1048814D01*
X1312882Y1050699D01*
X1313792Y1052894D01*
X1314102Y1055250D01*
X1313792Y1057606D01*
X1312882Y1059801D01*
X1311436Y1061686D01*
X1309551Y1063132D01*
X1307356Y1064042D01*
X1305000Y1064352D01*
D02*
G37*
G36*
X1279600D02*
X1277244Y1064042D01*
X1275049Y1063132D01*
X1273164Y1061686D01*
X1271718Y1059801D01*
X1270808Y1057606D01*
X1270498Y1055250D01*
X1270808Y1052894D01*
X1271718Y1050699D01*
X1273164Y1048814D01*
X1275049Y1047368D01*
X1276751Y1046663D01*
Y1042400D01*
X1276751Y1042400D01*
X1276968Y1041310D01*
X1277586Y1040386D01*
X1311409Y1006562D01*
X1311397Y1006500D01*
X1311709Y1004930D01*
X1312599Y1003599D01*
X1312651Y1003564D01*
Y979603D01*
X1312349Y979401D01*
X1311460Y978070D01*
X1311147Y976500D01*
X1311460Y974930D01*
X1312349Y973599D01*
X1312651Y973397D01*
Y949186D01*
X1312599Y949151D01*
X1311709Y947820D01*
X1311397Y946250D01*
X1311709Y944680D01*
X1312599Y943349D01*
X1312651Y943314D01*
Y919186D01*
X1312599Y919151D01*
X1311709Y917820D01*
X1311397Y916250D01*
X1311709Y914680D01*
X1312599Y913349D01*
X1312651Y913314D01*
Y889186D01*
X1312599Y889151D01*
X1311709Y887820D01*
X1311397Y886250D01*
X1311709Y884680D01*
X1312599Y883349D01*
X1312651Y883314D01*
Y859353D01*
X1312349Y859151D01*
X1311460Y857820D01*
X1311147Y856250D01*
X1311460Y854680D01*
X1312349Y853349D01*
X1312651Y853147D01*
Y829186D01*
X1312599Y829151D01*
X1311709Y827820D01*
X1311397Y826250D01*
X1311709Y824680D01*
X1312599Y823349D01*
X1312651Y823314D01*
Y798936D01*
X1312599Y798901D01*
X1311709Y797570D01*
X1311397Y796000D01*
X1311709Y794430D01*
X1312599Y793099D01*
X1312651Y793064D01*
Y769186D01*
X1312599Y769151D01*
X1311709Y767820D01*
X1311397Y766250D01*
X1311709Y764680D01*
X1312599Y763349D01*
X1313930Y762459D01*
X1315500Y762147D01*
X1317070Y762459D01*
X1318401Y763349D01*
X1319290Y764680D01*
X1319603Y766250D01*
X1319290Y767820D01*
X1318401Y769151D01*
X1318349Y769186D01*
Y793064D01*
X1318401Y793099D01*
X1319290Y794430D01*
X1319603Y796000D01*
X1319290Y797570D01*
X1318401Y798901D01*
X1318349Y798936D01*
Y823314D01*
X1318401Y823349D01*
X1319290Y824680D01*
X1319603Y826250D01*
X1319290Y827820D01*
X1318401Y829151D01*
X1318349Y829186D01*
Y853645D01*
X1319041Y854680D01*
X1319353Y856250D01*
X1319041Y857820D01*
X1318349Y858856D01*
Y883314D01*
X1318401Y883349D01*
X1319290Y884680D01*
X1319603Y886250D01*
X1319290Y887820D01*
X1318401Y889151D01*
X1318349Y889186D01*
Y913314D01*
X1318401Y913349D01*
X1319290Y914680D01*
X1319603Y916250D01*
X1319290Y917820D01*
X1318401Y919151D01*
X1318349Y919186D01*
Y943314D01*
X1318401Y943349D01*
X1319290Y944680D01*
X1319603Y946250D01*
X1319290Y947820D01*
X1318401Y949151D01*
X1318349Y949186D01*
Y973895D01*
X1319041Y974930D01*
X1319353Y976500D01*
X1319041Y978070D01*
X1318349Y979106D01*
Y1003564D01*
X1318401Y1003599D01*
X1319290Y1004930D01*
X1319603Y1006500D01*
X1319290Y1008070D01*
X1318401Y1009401D01*
X1317070Y1010291D01*
X1315500Y1010603D01*
X1315438Y1010591D01*
X1282449Y1043580D01*
Y1046663D01*
X1284151Y1047368D01*
X1286036Y1048814D01*
X1287482Y1050699D01*
X1288392Y1052894D01*
X1288702Y1055250D01*
X1288392Y1057606D01*
X1287482Y1059801D01*
X1286036Y1061686D01*
X1284151Y1063132D01*
X1281956Y1064042D01*
X1279600Y1064352D01*
D02*
G37*
G36*
X1254200D02*
X1251844Y1064042D01*
X1249649Y1063132D01*
X1247764Y1061686D01*
X1246318Y1059801D01*
X1245408Y1057606D01*
X1245098Y1055250D01*
X1245408Y1052894D01*
X1246318Y1050699D01*
X1247764Y1048814D01*
X1249649Y1047368D01*
X1251351Y1046663D01*
Y1037800D01*
X1251351Y1037800D01*
X1251568Y1036710D01*
X1252186Y1035786D01*
X1281409Y1006562D01*
X1281397Y1006500D01*
X1281709Y1004930D01*
X1282599Y1003599D01*
X1282651Y1003564D01*
Y979603D01*
X1282349Y979401D01*
X1281460Y978070D01*
X1281147Y976500D01*
X1281460Y974930D01*
X1282349Y973599D01*
X1282651Y973397D01*
Y949186D01*
X1282599Y949151D01*
X1281709Y947820D01*
X1281397Y946250D01*
X1281709Y944680D01*
X1282599Y943349D01*
X1282651Y943314D01*
Y919186D01*
X1282599Y919151D01*
X1281709Y917820D01*
X1281397Y916250D01*
X1281709Y914680D01*
X1282599Y913349D01*
X1282651Y913314D01*
Y889186D01*
X1282599Y889151D01*
X1281709Y887820D01*
X1281397Y886250D01*
X1281709Y884680D01*
X1282599Y883349D01*
X1282651Y883314D01*
Y859353D01*
X1282349Y859151D01*
X1281460Y857820D01*
X1281147Y856250D01*
X1281460Y854680D01*
X1282349Y853349D01*
X1282651Y853147D01*
Y829186D01*
X1282599Y829151D01*
X1281709Y827820D01*
X1281397Y826250D01*
X1281709Y824680D01*
X1282599Y823349D01*
X1282651Y823314D01*
Y798936D01*
X1282599Y798901D01*
X1281709Y797570D01*
X1281397Y796000D01*
X1281709Y794430D01*
X1282599Y793099D01*
X1282651Y793064D01*
Y769186D01*
X1282599Y769151D01*
X1281709Y767820D01*
X1281397Y766250D01*
X1281709Y764680D01*
X1282599Y763349D01*
X1283930Y762459D01*
X1285500Y762147D01*
X1287070Y762459D01*
X1288401Y763349D01*
X1289290Y764680D01*
X1289603Y766250D01*
X1289290Y767820D01*
X1288401Y769151D01*
X1288349Y769186D01*
Y793064D01*
X1288401Y793099D01*
X1289290Y794430D01*
X1289603Y796000D01*
X1289290Y797570D01*
X1288401Y798901D01*
X1288349Y798936D01*
Y823314D01*
X1288401Y823349D01*
X1289290Y824680D01*
X1289603Y826250D01*
X1289290Y827820D01*
X1288401Y829151D01*
X1288349Y829186D01*
Y853645D01*
X1289041Y854680D01*
X1289353Y856250D01*
X1289041Y857820D01*
X1288349Y858856D01*
Y883314D01*
X1288401Y883349D01*
X1289290Y884680D01*
X1289603Y886250D01*
X1289290Y887820D01*
X1288401Y889151D01*
X1288349Y889186D01*
Y913314D01*
X1288401Y913349D01*
X1289290Y914680D01*
X1289603Y916250D01*
X1289290Y917820D01*
X1288401Y919151D01*
X1288349Y919186D01*
Y943314D01*
X1288401Y943349D01*
X1289290Y944680D01*
X1289603Y946250D01*
X1289290Y947820D01*
X1288401Y949151D01*
X1288349Y949186D01*
Y973895D01*
X1289041Y974930D01*
X1289353Y976500D01*
X1289041Y978070D01*
X1288349Y979106D01*
Y1003564D01*
X1288401Y1003599D01*
X1289290Y1004930D01*
X1289603Y1006500D01*
X1289290Y1008070D01*
X1288401Y1009401D01*
X1287070Y1010291D01*
X1285500Y1010603D01*
X1285438Y1010591D01*
X1257049Y1038980D01*
Y1046663D01*
X1258751Y1047368D01*
X1260636Y1048814D01*
X1262082Y1050699D01*
X1262992Y1052894D01*
X1263302Y1055250D01*
X1262992Y1057606D01*
X1262082Y1059801D01*
X1260636Y1061686D01*
X1258751Y1063132D01*
X1256556Y1064042D01*
X1254200Y1064352D01*
D02*
G37*
G36*
X1228800D02*
X1226444Y1064042D01*
X1224249Y1063132D01*
X1222364Y1061686D01*
X1220918Y1059801D01*
X1220008Y1057606D01*
X1219698Y1055250D01*
X1220008Y1052894D01*
X1220918Y1050699D01*
X1222364Y1048814D01*
X1224249Y1047368D01*
X1225951Y1046663D01*
Y1033200D01*
X1225951Y1033200D01*
X1226168Y1032110D01*
X1226786Y1031186D01*
X1251410Y1006562D01*
X1251397Y1006500D01*
X1251710Y1004930D01*
X1252599Y1003599D01*
X1252651Y1003564D01*
Y979603D01*
X1252349Y979401D01*
X1251460Y978070D01*
X1251147Y976500D01*
X1251460Y974930D01*
X1252349Y973599D01*
X1252651Y973397D01*
Y949186D01*
X1252599Y949151D01*
X1251710Y947820D01*
X1251397Y946250D01*
X1251710Y944680D01*
X1252599Y943349D01*
X1252651Y943314D01*
Y919186D01*
X1252599Y919151D01*
X1251710Y917820D01*
X1251397Y916250D01*
X1251710Y914680D01*
X1252599Y913349D01*
X1252651Y913314D01*
Y889186D01*
X1252599Y889151D01*
X1251710Y887820D01*
X1251397Y886250D01*
X1251710Y884680D01*
X1252599Y883349D01*
X1252651Y883314D01*
Y859353D01*
X1252349Y859151D01*
X1251460Y857820D01*
X1251147Y856250D01*
X1251460Y854680D01*
X1252349Y853349D01*
X1252651Y853147D01*
Y829186D01*
X1252599Y829151D01*
X1251710Y827820D01*
X1251397Y826250D01*
X1251710Y824680D01*
X1252599Y823349D01*
X1252651Y823314D01*
Y798936D01*
X1252599Y798901D01*
X1251710Y797570D01*
X1251397Y796000D01*
X1251710Y794430D01*
X1252599Y793099D01*
X1252651Y793064D01*
Y769186D01*
X1252599Y769151D01*
X1251710Y767820D01*
X1251397Y766250D01*
X1251710Y764680D01*
X1252599Y763349D01*
X1253930Y762459D01*
X1255500Y762147D01*
X1257070Y762459D01*
X1258401Y763349D01*
X1259290Y764680D01*
X1259603Y766250D01*
X1259290Y767820D01*
X1258401Y769151D01*
X1258349Y769186D01*
Y793064D01*
X1258401Y793099D01*
X1259290Y794430D01*
X1259603Y796000D01*
X1259290Y797570D01*
X1258401Y798901D01*
X1258349Y798936D01*
Y823314D01*
X1258401Y823349D01*
X1259290Y824680D01*
X1259603Y826250D01*
X1259290Y827820D01*
X1258401Y829151D01*
X1258349Y829186D01*
Y853645D01*
X1259041Y854680D01*
X1259353Y856250D01*
X1259041Y857820D01*
X1258349Y858856D01*
Y883314D01*
X1258401Y883349D01*
X1259290Y884680D01*
X1259603Y886250D01*
X1259290Y887820D01*
X1258401Y889151D01*
X1258349Y889186D01*
Y913314D01*
X1258401Y913349D01*
X1259290Y914680D01*
X1259603Y916250D01*
X1259290Y917820D01*
X1258401Y919151D01*
X1258349Y919186D01*
Y943314D01*
X1258401Y943349D01*
X1259290Y944680D01*
X1259603Y946250D01*
X1259290Y947820D01*
X1258401Y949151D01*
X1258349Y949186D01*
Y973895D01*
X1259041Y974930D01*
X1259353Y976500D01*
X1259041Y978070D01*
X1258349Y979106D01*
Y1003564D01*
X1258401Y1003599D01*
X1259290Y1004930D01*
X1259603Y1006500D01*
X1259290Y1008070D01*
X1258401Y1009401D01*
X1257070Y1010291D01*
X1255500Y1010603D01*
X1255438Y1010591D01*
X1231649Y1034380D01*
Y1046663D01*
X1233351Y1047368D01*
X1235236Y1048814D01*
X1236682Y1050699D01*
X1237592Y1052894D01*
X1237902Y1055250D01*
X1237592Y1057606D01*
X1236682Y1059801D01*
X1235236Y1061686D01*
X1233351Y1063132D01*
X1231156Y1064042D01*
X1228800Y1064352D01*
D02*
G37*
G36*
X1203400D02*
X1201044Y1064042D01*
X1198849Y1063132D01*
X1196964Y1061686D01*
X1195518Y1059801D01*
X1194608Y1057606D01*
X1194298Y1055250D01*
X1194608Y1052894D01*
X1195518Y1050699D01*
X1196964Y1048814D01*
X1198849Y1047368D01*
X1200551Y1046663D01*
Y1028600D01*
X1200551Y1028600D01*
X1200768Y1027510D01*
X1201386Y1026586D01*
X1221409Y1006562D01*
X1221397Y1006500D01*
X1221710Y1004930D01*
X1222599Y1003599D01*
X1222651Y1003564D01*
Y979603D01*
X1222349Y979401D01*
X1221460Y978070D01*
X1221147Y976500D01*
X1221460Y974930D01*
X1222349Y973599D01*
X1222651Y973397D01*
Y949186D01*
X1222599Y949151D01*
X1221710Y947820D01*
X1221397Y946250D01*
X1221710Y944680D01*
X1222599Y943349D01*
X1222651Y943314D01*
Y919186D01*
X1222599Y919151D01*
X1221710Y917820D01*
X1221397Y916250D01*
X1221710Y914680D01*
X1222599Y913349D01*
X1222651Y913314D01*
Y889186D01*
X1222599Y889151D01*
X1221710Y887820D01*
X1221397Y886250D01*
X1221710Y884680D01*
X1222599Y883349D01*
X1222651Y883314D01*
Y859353D01*
X1222349Y859151D01*
X1221460Y857820D01*
X1221147Y856250D01*
X1221460Y854680D01*
X1222349Y853349D01*
X1222651Y853147D01*
Y829186D01*
X1222599Y829151D01*
X1221710Y827820D01*
X1221397Y826250D01*
X1221710Y824680D01*
X1222599Y823349D01*
X1222651Y823314D01*
Y798936D01*
X1222599Y798901D01*
X1221710Y797570D01*
X1221397Y796000D01*
X1221710Y794430D01*
X1222599Y793099D01*
X1222651Y793064D01*
Y769186D01*
X1222599Y769151D01*
X1221710Y767820D01*
X1221397Y766250D01*
X1221710Y764680D01*
X1222599Y763349D01*
X1223930Y762459D01*
X1225500Y762147D01*
X1227070Y762459D01*
X1228401Y763349D01*
X1229290Y764680D01*
X1229603Y766250D01*
X1229290Y767820D01*
X1228401Y769151D01*
X1228349Y769186D01*
Y793064D01*
X1228401Y793099D01*
X1229290Y794430D01*
X1229603Y796000D01*
X1229290Y797570D01*
X1228401Y798901D01*
X1228349Y798936D01*
Y823314D01*
X1228401Y823349D01*
X1229290Y824680D01*
X1229603Y826250D01*
X1229290Y827820D01*
X1228401Y829151D01*
X1228349Y829186D01*
Y853645D01*
X1229041Y854680D01*
X1229353Y856250D01*
X1229041Y857820D01*
X1228349Y858856D01*
Y883314D01*
X1228401Y883349D01*
X1229290Y884680D01*
X1229603Y886250D01*
X1229290Y887820D01*
X1228401Y889151D01*
X1228349Y889186D01*
Y913314D01*
X1228401Y913349D01*
X1229290Y914680D01*
X1229603Y916250D01*
X1229290Y917820D01*
X1228401Y919151D01*
X1228349Y919186D01*
Y943314D01*
X1228401Y943349D01*
X1229290Y944680D01*
X1229603Y946250D01*
X1229290Y947820D01*
X1228401Y949151D01*
X1228349Y949186D01*
Y973895D01*
X1229041Y974930D01*
X1229353Y976500D01*
X1229041Y978070D01*
X1228349Y979106D01*
Y1003564D01*
X1228401Y1003599D01*
X1229290Y1004930D01*
X1229603Y1006500D01*
X1229290Y1008070D01*
X1228401Y1009401D01*
X1227070Y1010291D01*
X1225500Y1010603D01*
X1225438Y1010591D01*
X1206249Y1029780D01*
Y1046663D01*
X1207951Y1047368D01*
X1209836Y1048814D01*
X1211282Y1050699D01*
X1212192Y1052894D01*
X1212502Y1055250D01*
X1212192Y1057606D01*
X1211282Y1059801D01*
X1209836Y1061686D01*
X1207951Y1063132D01*
X1205756Y1064042D01*
X1203400Y1064352D01*
D02*
G37*
G36*
X1178000D02*
X1175644Y1064042D01*
X1173449Y1063132D01*
X1171564Y1061686D01*
X1170118Y1059801D01*
X1169208Y1057606D01*
X1168898Y1055250D01*
X1169208Y1052894D01*
X1170118Y1050699D01*
X1171564Y1048814D01*
X1173449Y1047368D01*
X1175151Y1046663D01*
Y1024000D01*
X1175151Y1024000D01*
X1175368Y1022910D01*
X1175986Y1021986D01*
X1191410Y1006562D01*
X1191397Y1006500D01*
X1191710Y1004930D01*
X1192599Y1003599D01*
X1192651Y1003564D01*
Y979603D01*
X1192349Y979401D01*
X1191460Y978070D01*
X1191147Y976500D01*
X1191460Y974930D01*
X1192349Y973599D01*
X1192651Y973397D01*
Y949186D01*
X1192599Y949151D01*
X1191710Y947820D01*
X1191397Y946250D01*
X1191710Y944680D01*
X1192599Y943349D01*
X1192651Y943314D01*
Y919186D01*
X1192599Y919151D01*
X1191710Y917820D01*
X1191397Y916250D01*
X1191710Y914680D01*
X1192599Y913349D01*
X1192651Y913314D01*
Y889186D01*
X1192599Y889151D01*
X1191710Y887820D01*
X1191397Y886250D01*
X1191710Y884680D01*
X1192599Y883349D01*
X1192651Y883314D01*
Y859353D01*
X1192349Y859151D01*
X1191460Y857820D01*
X1191147Y856250D01*
X1191460Y854680D01*
X1192349Y853349D01*
X1192651Y853147D01*
Y829186D01*
X1192599Y829151D01*
X1191710Y827820D01*
X1191397Y826250D01*
X1191710Y824680D01*
X1192599Y823349D01*
X1192651Y823314D01*
Y798936D01*
X1192599Y798901D01*
X1191710Y797570D01*
X1191397Y796000D01*
X1191710Y794430D01*
X1192599Y793099D01*
X1192651Y793064D01*
Y769186D01*
X1192599Y769151D01*
X1191710Y767820D01*
X1191397Y766250D01*
X1191710Y764680D01*
X1192599Y763349D01*
X1193930Y762459D01*
X1195500Y762147D01*
X1197070Y762459D01*
X1198401Y763349D01*
X1199290Y764680D01*
X1199603Y766250D01*
X1199290Y767820D01*
X1198401Y769151D01*
X1198349Y769186D01*
Y793064D01*
X1198401Y793099D01*
X1199290Y794430D01*
X1199603Y796000D01*
X1199290Y797570D01*
X1198401Y798901D01*
X1198349Y798936D01*
Y823314D01*
X1198401Y823349D01*
X1199290Y824680D01*
X1199603Y826250D01*
X1199290Y827820D01*
X1198401Y829151D01*
X1198349Y829186D01*
Y853645D01*
X1199041Y854680D01*
X1199353Y856250D01*
X1199041Y857820D01*
X1198349Y858856D01*
Y883314D01*
X1198401Y883349D01*
X1199290Y884680D01*
X1199603Y886250D01*
X1199290Y887820D01*
X1198401Y889151D01*
X1198349Y889186D01*
Y913314D01*
X1198401Y913349D01*
X1199290Y914680D01*
X1199603Y916250D01*
X1199290Y917820D01*
X1198401Y919151D01*
X1198349Y919186D01*
Y943314D01*
X1198401Y943349D01*
X1199290Y944680D01*
X1199603Y946250D01*
X1199290Y947820D01*
X1198401Y949151D01*
X1198349Y949186D01*
Y973895D01*
X1199041Y974930D01*
X1199353Y976500D01*
X1199041Y978070D01*
X1198349Y979106D01*
Y1003564D01*
X1198401Y1003599D01*
X1199290Y1004930D01*
X1199603Y1006500D01*
X1199290Y1008070D01*
X1198401Y1009401D01*
X1197070Y1010291D01*
X1195500Y1010603D01*
X1195438Y1010591D01*
X1180849Y1025180D01*
Y1046663D01*
X1182551Y1047368D01*
X1184436Y1048814D01*
X1185882Y1050699D01*
X1186792Y1052894D01*
X1187102Y1055250D01*
X1186792Y1057606D01*
X1185882Y1059801D01*
X1184436Y1061686D01*
X1182551Y1063132D01*
X1180356Y1064042D01*
X1178000Y1064352D01*
D02*
G37*
G36*
X1161624Y1064274D02*
X1143576D01*
Y1046226D01*
X1149751D01*
Y1019400D01*
X1149751Y1019400D01*
X1149968Y1018310D01*
X1150586Y1017386D01*
X1161409Y1006562D01*
X1161397Y1006500D01*
X1161710Y1004930D01*
X1162599Y1003599D01*
X1162651Y1003564D01*
Y979603D01*
X1162349Y979401D01*
X1161460Y978070D01*
X1161147Y976500D01*
X1161460Y974930D01*
X1162349Y973599D01*
X1162651Y973397D01*
Y949186D01*
X1162599Y949151D01*
X1161710Y947820D01*
X1161397Y946250D01*
X1161710Y944680D01*
X1162599Y943349D01*
X1162651Y943314D01*
Y919186D01*
X1162599Y919151D01*
X1161710Y917820D01*
X1161397Y916250D01*
X1161710Y914680D01*
X1162599Y913349D01*
X1162651Y913314D01*
Y889186D01*
X1162599Y889151D01*
X1161710Y887820D01*
X1161397Y886250D01*
X1161710Y884680D01*
X1162599Y883349D01*
X1162651Y883314D01*
Y859353D01*
X1162349Y859151D01*
X1161460Y857820D01*
X1161147Y856250D01*
X1161460Y854680D01*
X1162349Y853349D01*
X1162651Y853147D01*
Y829186D01*
X1162599Y829151D01*
X1161710Y827820D01*
X1161397Y826250D01*
X1161710Y824680D01*
X1162599Y823349D01*
X1162651Y823314D01*
Y798936D01*
X1162599Y798901D01*
X1161710Y797570D01*
X1161397Y796000D01*
X1161710Y794430D01*
X1162599Y793099D01*
X1162651Y793064D01*
Y769186D01*
X1162599Y769151D01*
X1161710Y767820D01*
X1161397Y766250D01*
X1161710Y764680D01*
X1162599Y763349D01*
X1163930Y762459D01*
X1165500Y762147D01*
X1167070Y762459D01*
X1168401Y763349D01*
X1169290Y764680D01*
X1169603Y766250D01*
X1169290Y767820D01*
X1168401Y769151D01*
X1168349Y769186D01*
Y793064D01*
X1168401Y793099D01*
X1169290Y794430D01*
X1169603Y796000D01*
X1169290Y797570D01*
X1168401Y798901D01*
X1168349Y798936D01*
Y823314D01*
X1168401Y823349D01*
X1169290Y824680D01*
X1169603Y826250D01*
X1169290Y827820D01*
X1168401Y829151D01*
X1168349Y829186D01*
Y853645D01*
X1169041Y854680D01*
X1169353Y856250D01*
X1169041Y857820D01*
X1168349Y858856D01*
Y883314D01*
X1168401Y883349D01*
X1169290Y884680D01*
X1169603Y886250D01*
X1169290Y887820D01*
X1168401Y889151D01*
X1168349Y889186D01*
Y913314D01*
X1168401Y913349D01*
X1169290Y914680D01*
X1169603Y916250D01*
X1169290Y917820D01*
X1168401Y919151D01*
X1168349Y919186D01*
Y943314D01*
X1168401Y943349D01*
X1169290Y944680D01*
X1169603Y946250D01*
X1169290Y947820D01*
X1168401Y949151D01*
X1168349Y949186D01*
Y973895D01*
X1169041Y974930D01*
X1169353Y976500D01*
X1169041Y978070D01*
X1168349Y979106D01*
Y1003564D01*
X1168401Y1003599D01*
X1169290Y1004930D01*
X1169603Y1006500D01*
X1169290Y1008070D01*
X1168401Y1009401D01*
X1167070Y1010291D01*
X1165500Y1010603D01*
X1165438Y1010591D01*
X1155449Y1020580D01*
Y1046226D01*
X1161624D01*
Y1064274D01*
D02*
G37*
G36*
X1127600Y1064352D02*
X1125244Y1064042D01*
X1123049Y1063132D01*
X1121164Y1061686D01*
X1119718Y1059801D01*
X1118808Y1057606D01*
X1118498Y1055250D01*
X1118808Y1052894D01*
X1119718Y1050699D01*
X1121164Y1048814D01*
X1123049Y1047368D01*
X1124751Y1046663D01*
Y1014650D01*
X1124751Y1014650D01*
X1124968Y1013560D01*
X1125586Y1012636D01*
X1131659Y1006562D01*
X1131647Y1006500D01*
X1131960Y1004930D01*
X1132849Y1003599D01*
X1132901Y1003564D01*
Y979603D01*
X1132599Y979401D01*
X1131710Y978070D01*
X1131397Y976500D01*
X1131710Y974930D01*
X1132599Y973599D01*
X1132901Y973397D01*
Y949186D01*
X1132849Y949151D01*
X1131960Y947820D01*
X1131647Y946250D01*
X1131960Y944680D01*
X1132849Y943349D01*
X1132901Y943314D01*
Y919186D01*
X1132849Y919151D01*
X1131960Y917820D01*
X1131647Y916250D01*
X1131960Y914680D01*
X1132849Y913349D01*
X1132901Y913314D01*
Y889186D01*
X1132849Y889151D01*
X1131960Y887820D01*
X1131647Y886250D01*
X1131960Y884680D01*
X1132849Y883349D01*
X1132901Y883314D01*
Y859353D01*
X1132599Y859151D01*
X1131710Y857820D01*
X1131397Y856250D01*
X1131710Y854680D01*
X1132599Y853349D01*
X1132901Y853147D01*
Y829186D01*
X1132849Y829151D01*
X1131960Y827820D01*
X1131647Y826250D01*
X1131960Y824680D01*
X1132849Y823349D01*
X1132901Y823314D01*
Y798936D01*
X1132849Y798901D01*
X1131960Y797570D01*
X1131647Y796000D01*
X1131960Y794430D01*
X1132849Y793099D01*
X1132901Y793064D01*
Y769186D01*
X1132849Y769151D01*
X1131960Y767820D01*
X1131647Y766250D01*
X1131960Y764680D01*
X1132849Y763349D01*
X1134180Y762459D01*
X1135750Y762147D01*
X1137320Y762459D01*
X1138651Y763349D01*
X1139540Y764680D01*
X1139853Y766250D01*
X1139540Y767820D01*
X1138651Y769151D01*
X1138599Y769186D01*
Y793064D01*
X1138651Y793099D01*
X1139540Y794430D01*
X1139853Y796000D01*
X1139540Y797570D01*
X1138651Y798901D01*
X1138599Y798936D01*
Y823314D01*
X1138651Y823349D01*
X1139540Y824680D01*
X1139853Y826250D01*
X1139540Y827820D01*
X1138651Y829151D01*
X1138599Y829186D01*
Y853645D01*
X1139290Y854680D01*
X1139603Y856250D01*
X1139290Y857820D01*
X1138599Y858856D01*
Y883314D01*
X1138651Y883349D01*
X1139540Y884680D01*
X1139853Y886250D01*
X1139540Y887820D01*
X1138651Y889151D01*
X1138599Y889186D01*
Y913314D01*
X1138651Y913349D01*
X1139540Y914680D01*
X1139853Y916250D01*
X1139540Y917820D01*
X1138651Y919151D01*
X1138599Y919186D01*
Y943314D01*
X1138651Y943349D01*
X1139540Y944680D01*
X1139853Y946250D01*
X1139540Y947820D01*
X1138651Y949151D01*
X1138599Y949186D01*
Y973895D01*
X1139290Y974930D01*
X1139603Y976500D01*
X1139290Y978070D01*
X1138599Y979106D01*
Y1003564D01*
X1138651Y1003599D01*
X1139540Y1004930D01*
X1139853Y1006500D01*
X1139540Y1008070D01*
X1138651Y1009401D01*
X1137320Y1010291D01*
X1135750Y1010603D01*
X1135688Y1010591D01*
X1130449Y1015830D01*
Y1046663D01*
X1132151Y1047368D01*
X1134036Y1048814D01*
X1135482Y1050699D01*
X1136392Y1052894D01*
X1136702Y1055250D01*
X1136392Y1057606D01*
X1135482Y1059801D01*
X1134036Y1061686D01*
X1132151Y1063132D01*
X1129956Y1064042D01*
X1127600Y1064352D01*
D02*
G37*
G36*
X1102200D02*
X1099844Y1064042D01*
X1097649Y1063132D01*
X1095764Y1061686D01*
X1094318Y1059801D01*
X1093408Y1057606D01*
X1093098Y1055250D01*
X1093408Y1052894D01*
X1094318Y1050699D01*
X1095764Y1048814D01*
X1097649Y1047368D01*
X1099351Y1046663D01*
Y1009800D01*
X1099351Y1009800D01*
X1099568Y1008710D01*
X1100186Y1007786D01*
X1101410Y1006562D01*
X1101397Y1006500D01*
X1101710Y1004930D01*
X1102599Y1003599D01*
X1102651Y1003564D01*
Y979603D01*
X1102349Y979401D01*
X1101460Y978070D01*
X1101147Y976500D01*
X1101460Y974930D01*
X1102349Y973599D01*
X1102651Y973397D01*
Y949186D01*
X1102599Y949151D01*
X1101710Y947820D01*
X1101397Y946250D01*
X1101710Y944680D01*
X1102599Y943349D01*
X1102651Y943314D01*
Y919186D01*
X1102599Y919151D01*
X1101710Y917820D01*
X1101397Y916250D01*
X1101710Y914680D01*
X1102599Y913349D01*
X1102651Y913314D01*
Y889186D01*
X1102599Y889151D01*
X1101710Y887820D01*
X1101397Y886250D01*
X1101710Y884680D01*
X1102599Y883349D01*
X1102651Y883314D01*
Y859353D01*
X1102349Y859151D01*
X1101460Y857820D01*
X1101147Y856250D01*
X1101460Y854680D01*
X1102349Y853349D01*
X1102651Y853147D01*
Y829186D01*
X1102599Y829151D01*
X1101710Y827820D01*
X1101397Y826250D01*
X1101710Y824680D01*
X1102599Y823349D01*
X1102651Y823314D01*
Y798936D01*
X1102599Y798901D01*
X1101710Y797570D01*
X1101397Y796000D01*
X1101710Y794430D01*
X1102599Y793099D01*
X1102651Y793064D01*
Y769186D01*
X1102599Y769151D01*
X1101710Y767820D01*
X1101397Y766250D01*
X1101710Y764680D01*
X1102599Y763349D01*
X1103930Y762459D01*
X1105500Y762147D01*
X1107070Y762459D01*
X1108401Y763349D01*
X1109290Y764680D01*
X1109603Y766250D01*
X1109290Y767820D01*
X1108401Y769151D01*
X1108349Y769186D01*
Y793064D01*
X1108401Y793099D01*
X1109290Y794430D01*
X1109603Y796000D01*
X1109290Y797570D01*
X1108401Y798901D01*
X1108349Y798936D01*
Y823314D01*
X1108401Y823349D01*
X1109290Y824680D01*
X1109603Y826250D01*
X1109290Y827820D01*
X1108401Y829151D01*
X1108349Y829186D01*
Y853645D01*
X1109041Y854680D01*
X1109353Y856250D01*
X1109041Y857820D01*
X1108349Y858856D01*
Y883314D01*
X1108401Y883349D01*
X1109290Y884680D01*
X1109603Y886250D01*
X1109290Y887820D01*
X1108401Y889151D01*
X1108349Y889186D01*
Y913314D01*
X1108401Y913349D01*
X1109290Y914680D01*
X1109603Y916250D01*
X1109290Y917820D01*
X1108401Y919151D01*
X1108349Y919186D01*
Y943314D01*
X1108401Y943349D01*
X1109290Y944680D01*
X1109603Y946250D01*
X1109290Y947820D01*
X1108401Y949151D01*
X1108349Y949186D01*
Y973895D01*
X1109041Y974930D01*
X1109353Y976500D01*
X1109041Y978070D01*
X1108349Y979106D01*
Y1003564D01*
X1108401Y1003599D01*
X1109290Y1004930D01*
X1109603Y1006500D01*
X1109290Y1008070D01*
X1108401Y1009401D01*
X1107070Y1010291D01*
X1105500Y1010603D01*
X1105049Y1011741D01*
Y1046663D01*
X1106751Y1047368D01*
X1108636Y1048814D01*
X1110082Y1050699D01*
X1110992Y1052894D01*
X1111302Y1055250D01*
X1110992Y1057606D01*
X1110082Y1059801D01*
X1108636Y1061686D01*
X1106751Y1063132D01*
X1104556Y1064042D01*
X1102200Y1064352D01*
D02*
G37*
G36*
X1076800D02*
X1074444Y1064042D01*
X1072249Y1063132D01*
X1070364Y1061686D01*
X1068918Y1059801D01*
X1068008Y1057606D01*
X1067698Y1055250D01*
X1068008Y1052894D01*
X1068918Y1050699D01*
X1070364Y1048814D01*
X1072249Y1047368D01*
X1073951Y1046663D01*
Y1010295D01*
X1073930Y1010291D01*
X1072599Y1009401D01*
X1071710Y1008070D01*
X1071397Y1006500D01*
X1071710Y1004930D01*
X1072599Y1003599D01*
X1072651Y1003564D01*
Y979603D01*
X1072349Y979401D01*
X1071460Y978070D01*
X1071147Y976500D01*
X1071460Y974930D01*
X1072349Y973599D01*
X1072651Y973397D01*
Y949186D01*
X1072599Y949151D01*
X1071710Y947820D01*
X1071397Y946250D01*
X1071710Y944680D01*
X1072599Y943349D01*
X1072651Y943314D01*
Y919186D01*
X1072599Y919151D01*
X1071710Y917820D01*
X1071397Y916250D01*
X1071710Y914680D01*
X1072599Y913349D01*
X1072651Y913314D01*
Y889186D01*
X1072599Y889151D01*
X1071710Y887820D01*
X1071397Y886250D01*
X1071710Y884680D01*
X1072599Y883349D01*
X1072651Y883314D01*
Y859353D01*
X1072349Y859151D01*
X1071460Y857820D01*
X1071147Y856250D01*
X1071460Y854680D01*
X1072349Y853349D01*
X1072651Y853147D01*
Y829186D01*
X1072599Y829151D01*
X1071710Y827820D01*
X1071397Y826250D01*
X1071710Y824680D01*
X1072599Y823349D01*
X1072651Y823314D01*
Y798936D01*
X1072599Y798901D01*
X1071710Y797570D01*
X1071397Y796000D01*
X1071710Y794430D01*
X1072599Y793099D01*
X1072651Y793064D01*
Y769186D01*
X1072599Y769151D01*
X1071710Y767820D01*
X1071397Y766250D01*
X1071710Y764680D01*
X1072599Y763349D01*
X1073930Y762459D01*
X1075500Y762147D01*
X1077070Y762459D01*
X1078401Y763349D01*
X1079290Y764680D01*
X1079603Y766250D01*
X1079290Y767820D01*
X1078401Y769151D01*
X1078349Y769186D01*
Y793064D01*
X1078401Y793099D01*
X1079290Y794430D01*
X1079603Y796000D01*
X1079290Y797570D01*
X1078401Y798901D01*
X1078349Y798936D01*
Y823314D01*
X1078401Y823349D01*
X1079290Y824680D01*
X1079603Y826250D01*
X1079290Y827820D01*
X1078401Y829151D01*
X1078349Y829186D01*
Y853645D01*
X1079041Y854680D01*
X1079353Y856250D01*
X1079041Y857820D01*
X1078349Y858856D01*
Y883314D01*
X1078401Y883349D01*
X1079290Y884680D01*
X1079603Y886250D01*
X1079290Y887820D01*
X1078401Y889151D01*
X1078349Y889186D01*
Y913314D01*
X1078401Y913349D01*
X1079290Y914680D01*
X1079603Y916250D01*
X1079290Y917820D01*
X1078401Y919151D01*
X1078349Y919186D01*
Y943314D01*
X1078401Y943349D01*
X1079290Y944680D01*
X1079603Y946250D01*
X1079290Y947820D01*
X1078401Y949151D01*
X1078349Y949186D01*
Y973895D01*
X1079041Y974930D01*
X1079353Y976500D01*
X1079041Y978070D01*
X1078349Y979106D01*
Y1003564D01*
X1078401Y1003599D01*
X1079290Y1004930D01*
X1079603Y1006500D01*
X1079497Y1007035D01*
X1079649Y1007800D01*
Y1046663D01*
X1081351Y1047368D01*
X1083236Y1048814D01*
X1084682Y1050699D01*
X1085592Y1052894D01*
X1085902Y1055250D01*
X1085592Y1057606D01*
X1084682Y1059801D01*
X1083236Y1061686D01*
X1081351Y1063132D01*
X1079156Y1064042D01*
X1076800Y1064352D01*
D02*
G37*
G36*
X1482800Y1064352D02*
X1480444Y1064042D01*
X1478249Y1063132D01*
X1476364Y1061686D01*
X1474918Y1059801D01*
X1474008Y1057606D01*
X1473698Y1055250D01*
X1474008Y1052894D01*
X1474918Y1050699D01*
X1476364Y1048814D01*
X1478249Y1047368D01*
X1480444Y1046458D01*
X1482800Y1046148D01*
X1485156Y1046458D01*
X1487351Y1047368D01*
X1489236Y1048814D01*
X1490682Y1050699D01*
X1491387Y1052401D01*
X1493070D01*
X1541986Y1003486D01*
X1541986Y1003486D01*
X1542910Y1002868D01*
X1544000Y1002651D01*
X1544000Y1002651D01*
X1552814D01*
X1552849Y1002599D01*
X1552901Y1002564D01*
Y978603D01*
X1552599Y978401D01*
X1551709Y977070D01*
X1551397Y975500D01*
X1551709Y973930D01*
X1552599Y972599D01*
X1552901Y972397D01*
Y948186D01*
X1552849Y948151D01*
X1551960Y946820D01*
X1551647Y945250D01*
X1551960Y943680D01*
X1552849Y942349D01*
X1552901Y942314D01*
Y918186D01*
X1552849Y918151D01*
X1551960Y916820D01*
X1551647Y915250D01*
X1551960Y913680D01*
X1552849Y912349D01*
X1552901Y912314D01*
Y888186D01*
X1552849Y888151D01*
X1551960Y886820D01*
X1551647Y885250D01*
X1551960Y883680D01*
X1552849Y882349D01*
X1552901Y882314D01*
Y858353D01*
X1552599Y858151D01*
X1551709Y856820D01*
X1551397Y855250D01*
X1551709Y853680D01*
X1552599Y852349D01*
X1552901Y852147D01*
Y828186D01*
X1552849Y828151D01*
X1551960Y826820D01*
X1551647Y825250D01*
X1551960Y823680D01*
X1552849Y822349D01*
X1552901Y822314D01*
Y797936D01*
X1552849Y797901D01*
X1551960Y796570D01*
X1551647Y795000D01*
X1551960Y793430D01*
X1552849Y792099D01*
X1552901Y792064D01*
Y768186D01*
X1552849Y768151D01*
X1551960Y766820D01*
X1551647Y765250D01*
X1551960Y763680D01*
X1552849Y762349D01*
X1554180Y761460D01*
X1555750Y761147D01*
X1557320Y761460D01*
X1558651Y762349D01*
X1559541Y763680D01*
X1559853Y765250D01*
X1559541Y766820D01*
X1558651Y768151D01*
X1558599Y768186D01*
Y792064D01*
X1558651Y792099D01*
X1559541Y793430D01*
X1559853Y795000D01*
X1559541Y796570D01*
X1558651Y797901D01*
X1558599Y797936D01*
Y822314D01*
X1558651Y822349D01*
X1559541Y823680D01*
X1559853Y825250D01*
X1559541Y826820D01*
X1558651Y828151D01*
X1558599Y828186D01*
Y852645D01*
X1559290Y853680D01*
X1559603Y855250D01*
X1559290Y856820D01*
X1558599Y857856D01*
Y882314D01*
X1558651Y882349D01*
X1559541Y883680D01*
X1559853Y885250D01*
X1559541Y886820D01*
X1558651Y888151D01*
X1558599Y888186D01*
Y912314D01*
X1558651Y912349D01*
X1559541Y913680D01*
X1559853Y915250D01*
X1559541Y916820D01*
X1558651Y918151D01*
X1558599Y918186D01*
Y942314D01*
X1558651Y942349D01*
X1559541Y943680D01*
X1559853Y945250D01*
X1559541Y946820D01*
X1558651Y948151D01*
X1558599Y948186D01*
Y972895D01*
X1559290Y973930D01*
X1559603Y975500D01*
X1559290Y977070D01*
X1558599Y978105D01*
Y1002564D01*
X1558651Y1002599D01*
X1559541Y1003930D01*
X1559853Y1005500D01*
X1559541Y1007070D01*
X1558651Y1008401D01*
X1557320Y1009290D01*
X1555750Y1009603D01*
X1554180Y1009290D01*
X1552849Y1008401D01*
X1552814Y1008349D01*
X1545180D01*
X1496264Y1057264D01*
X1495340Y1057882D01*
X1494250Y1058099D01*
X1494250Y1058099D01*
X1491387D01*
X1490682Y1059801D01*
X1489236Y1061686D01*
X1487351Y1063132D01*
X1485156Y1064042D01*
X1482800Y1064352D01*
D02*
G37*
G36*
X1161524Y754024D02*
X1143476D01*
Y735976D01*
X1161524D01*
Y754024D01*
D02*
G37*
G36*
X1355700Y754102D02*
X1353344Y753792D01*
X1351149Y752882D01*
X1349264Y751436D01*
X1347818Y749551D01*
X1346908Y747356D01*
X1346598Y745000D01*
X1346908Y742644D01*
X1347818Y740449D01*
X1349264Y738564D01*
X1351149Y737118D01*
X1353344Y736208D01*
X1355700Y735898D01*
X1358056Y736208D01*
X1360251Y737118D01*
X1362136Y738564D01*
X1363582Y740449D01*
X1364492Y742644D01*
X1364802Y745000D01*
X1364492Y747356D01*
X1363582Y749551D01*
X1362136Y751436D01*
X1360251Y752882D01*
X1358056Y753792D01*
X1355700Y754102D01*
D02*
G37*
G36*
X1330300D02*
X1327944Y753792D01*
X1325749Y752882D01*
X1323864Y751436D01*
X1322418Y749551D01*
X1321508Y747356D01*
X1321198Y745000D01*
X1321508Y742644D01*
X1322418Y740449D01*
X1323864Y738564D01*
X1325749Y737118D01*
X1327944Y736208D01*
X1330300Y735898D01*
X1332656Y736208D01*
X1334851Y737118D01*
X1336736Y738564D01*
X1338182Y740449D01*
X1339092Y742644D01*
X1339402Y745000D01*
X1339092Y747356D01*
X1338182Y749551D01*
X1336736Y751436D01*
X1334851Y752882D01*
X1332656Y753792D01*
X1330300Y754102D01*
D02*
G37*
G36*
X1304900D02*
X1302544Y753792D01*
X1300349Y752882D01*
X1298464Y751436D01*
X1297018Y749551D01*
X1296108Y747356D01*
X1295798Y745000D01*
X1296108Y742644D01*
X1297018Y740449D01*
X1298464Y738564D01*
X1300349Y737118D01*
X1302544Y736208D01*
X1304900Y735898D01*
X1307256Y736208D01*
X1309451Y737118D01*
X1311336Y738564D01*
X1312782Y740449D01*
X1313692Y742644D01*
X1314002Y745000D01*
X1313692Y747356D01*
X1312782Y749551D01*
X1311336Y751436D01*
X1309451Y752882D01*
X1307256Y753792D01*
X1304900Y754102D01*
D02*
G37*
G36*
X1279500D02*
X1277144Y753792D01*
X1274949Y752882D01*
X1273064Y751436D01*
X1271618Y749551D01*
X1270708Y747356D01*
X1270398Y745000D01*
X1270708Y742644D01*
X1271618Y740449D01*
X1273064Y738564D01*
X1274949Y737118D01*
X1277144Y736208D01*
X1279500Y735898D01*
X1281856Y736208D01*
X1284051Y737118D01*
X1285936Y738564D01*
X1287382Y740449D01*
X1288292Y742644D01*
X1288602Y745000D01*
X1288292Y747356D01*
X1287382Y749551D01*
X1285936Y751436D01*
X1284051Y752882D01*
X1281856Y753792D01*
X1279500Y754102D01*
D02*
G37*
G36*
X1254100D02*
X1251744Y753792D01*
X1249549Y752882D01*
X1247664Y751436D01*
X1246218Y749551D01*
X1245308Y747356D01*
X1244998Y745000D01*
X1245308Y742644D01*
X1246218Y740449D01*
X1247664Y738564D01*
X1249549Y737118D01*
X1251744Y736208D01*
X1254100Y735898D01*
X1256456Y736208D01*
X1258651Y737118D01*
X1260536Y738564D01*
X1261982Y740449D01*
X1262892Y742644D01*
X1263202Y745000D01*
X1262892Y747356D01*
X1261982Y749551D01*
X1260536Y751436D01*
X1258651Y752882D01*
X1256456Y753792D01*
X1254100Y754102D01*
D02*
G37*
G36*
X1228700D02*
X1226344Y753792D01*
X1224149Y752882D01*
X1222264Y751436D01*
X1220818Y749551D01*
X1219908Y747356D01*
X1219598Y745000D01*
X1219908Y742644D01*
X1220818Y740449D01*
X1222264Y738564D01*
X1224149Y737118D01*
X1226344Y736208D01*
X1228700Y735898D01*
X1231056Y736208D01*
X1233251Y737118D01*
X1235136Y738564D01*
X1236582Y740449D01*
X1237492Y742644D01*
X1237802Y745000D01*
X1237492Y747356D01*
X1236582Y749551D01*
X1235136Y751436D01*
X1233251Y752882D01*
X1231056Y753792D01*
X1228700Y754102D01*
D02*
G37*
G36*
X1203300D02*
X1200944Y753792D01*
X1198749Y752882D01*
X1196864Y751436D01*
X1195418Y749551D01*
X1194508Y747356D01*
X1194198Y745000D01*
X1194508Y742644D01*
X1195418Y740449D01*
X1196864Y738564D01*
X1198749Y737118D01*
X1200944Y736208D01*
X1203300Y735898D01*
X1205656Y736208D01*
X1207851Y737118D01*
X1209736Y738564D01*
X1211182Y740449D01*
X1212092Y742644D01*
X1212402Y745000D01*
X1212092Y747356D01*
X1211182Y749551D01*
X1209736Y751436D01*
X1207851Y752882D01*
X1205656Y753792D01*
X1203300Y754102D01*
D02*
G37*
G36*
X1177900D02*
X1175544Y753792D01*
X1173349Y752882D01*
X1171464Y751436D01*
X1170018Y749551D01*
X1169108Y747356D01*
X1168798Y745000D01*
X1169108Y742644D01*
X1170018Y740449D01*
X1171464Y738564D01*
X1173349Y737118D01*
X1175544Y736208D01*
X1177900Y735898D01*
X1180256Y736208D01*
X1182451Y737118D01*
X1184336Y738564D01*
X1185782Y740449D01*
X1186692Y742644D01*
X1187002Y745000D01*
X1186692Y747356D01*
X1185782Y749551D01*
X1184336Y751436D01*
X1182451Y752882D01*
X1180256Y753792D01*
X1177900Y754102D01*
D02*
G37*
G36*
X1600000Y766604D02*
X1596761Y766285D01*
X1593646Y765340D01*
X1590775Y763806D01*
X1588259Y761741D01*
X1586194Y759225D01*
X1584660Y756354D01*
X1583715Y753239D01*
X1583396Y750000D01*
X1583715Y746761D01*
X1584660Y743646D01*
X1586194Y740775D01*
X1588259Y738259D01*
X1590775Y736194D01*
X1593646Y734660D01*
X1596761Y733715D01*
X1600000Y733396D01*
X1603239Y733715D01*
X1606354Y734660D01*
X1609225Y736194D01*
X1611741Y738259D01*
X1613806Y740775D01*
X1615340Y743646D01*
X1616285Y746761D01*
X1616604Y750000D01*
X1616285Y753239D01*
X1615340Y756354D01*
X1613806Y759225D01*
X1611741Y761741D01*
X1609225Y763806D01*
X1606354Y765340D01*
X1603239Y766285D01*
X1600000Y766604D01*
D02*
G37*
G36*
X400000D02*
X396761Y766285D01*
X393646Y765340D01*
X390775Y763806D01*
X388259Y761741D01*
X386194Y759225D01*
X384660Y756354D01*
X383715Y753239D01*
X383396Y750000D01*
X383715Y746761D01*
X384660Y743646D01*
X386194Y740775D01*
X388259Y738259D01*
X390775Y736194D01*
X393646Y734660D01*
X396761Y733715D01*
X400000Y733396D01*
X403239Y733715D01*
X406354Y734660D01*
X409225Y736194D01*
X411741Y738259D01*
X413806Y740775D01*
X415340Y743646D01*
X416285Y746761D01*
X416604Y750000D01*
X416285Y753239D01*
X415340Y756354D01*
X413806Y759225D01*
X411741Y761741D01*
X409225Y763806D01*
X406354Y765340D01*
X403239Y766285D01*
X400000Y766604D01*
D02*
G37*
%LPD*%
D12*
X1555750Y825250D02*
Y885250D01*
Y945250D02*
Y1005000D01*
X1544000Y1005500D02*
X1555750D01*
X1494250Y1055250D02*
X1544000Y1005500D01*
X1482800Y1055250D02*
X1494250D01*
X1525750Y826250D02*
Y886250D01*
Y946250D02*
Y1006000D01*
X1510750Y1006500D02*
X1525750D01*
X1462000Y1055250D02*
X1510750Y1006500D01*
X1457400Y1055250D02*
X1462000D01*
X1392250Y1006250D02*
X1395250Y1003250D01*
Y768500D02*
Y1003250D01*
X1364750Y768388D02*
Y980000D01*
X1335500Y768388D02*
Y950138D01*
X1303750Y768000D02*
Y919000D01*
X1273750Y768000D02*
Y888000D01*
X1242750Y768000D02*
Y858000D01*
X1215000Y768388D02*
Y828250D01*
X1184750Y768500D02*
Y799000D01*
X1184250Y768000D02*
X1184750Y768500D01*
X445750Y945750D02*
Y1005500D01*
Y1006000D02*
X484000Y1044250D01*
X532400D01*
X543400Y1055250D01*
X475500Y945500D02*
Y1005250D01*
Y825500D02*
Y885500D01*
X551800Y1038250D02*
X568800Y1055250D01*
X508000Y1038250D02*
X551800D01*
X475500Y1005750D02*
X508000Y1038250D01*
X505500Y945750D02*
Y1005500D01*
Y825750D02*
Y885750D01*
X570450Y1031500D02*
X594200Y1055250D01*
X531000Y1031500D02*
X570450D01*
X505500Y1006000D02*
X531000Y1031500D01*
X535500Y945750D02*
Y1005500D01*
Y825750D02*
Y885750D01*
X590100Y1025750D02*
X619600Y1055250D01*
X555250Y1025750D02*
X590100D01*
X535500Y1006000D02*
X555250Y1025750D01*
X565750Y945750D02*
Y1005500D01*
Y825750D02*
Y885750D01*
X608500Y1018750D02*
X645000Y1055250D01*
X578500Y1018750D02*
X608500D01*
X565750Y1006000D02*
X578500Y1018750D01*
X595750Y945750D02*
Y1005500D01*
Y825750D02*
Y885750D01*
X628150Y1013000D02*
X670400Y1055250D01*
X602750Y1013000D02*
X628150D01*
X595750Y1006000D02*
X602750Y1013000D01*
X566500Y1055250D02*
X568800D01*
X625500Y1006000D02*
X646550D01*
X625500Y945750D02*
Y1005500D01*
X646550Y1006000D02*
X695800Y1055250D01*
X655500Y945750D02*
Y1005500D01*
Y1006000D02*
X671950D01*
X721200Y1055250D01*
X685500Y945750D02*
Y1005500D01*
Y1006000D02*
X697350D01*
X746600Y1055250D01*
X715750Y945750D02*
Y1005500D01*
Y1006000D02*
X722750D01*
X772000Y1055250D01*
X745750Y945750D02*
Y1005500D01*
Y1006000D02*
X748150D01*
X797400Y1055250D01*
X1495500Y946250D02*
Y1006000D01*
X1480750Y1006500D02*
X1495500D01*
X1432000Y1055250D02*
X1480750Y1006500D01*
X1465500Y946250D02*
Y1006000D01*
X1455350Y1006500D02*
X1465500D01*
X1406600Y1055250D02*
X1455350Y1006500D01*
X1435500Y946250D02*
Y1006000D01*
X1429950Y1006500D02*
X1435500D01*
X1381200Y1055250D02*
X1429950Y1006500D01*
X1405750Y946250D02*
Y1006000D01*
X1404550Y1006500D02*
X1405750D01*
X1355800Y1055250D02*
X1404550Y1006500D01*
X1375500Y946250D02*
Y1006000D01*
X1330400Y1051600D02*
X1375500Y1006500D01*
X1330400Y1051600D02*
Y1055250D01*
X1345750Y946250D02*
Y1006000D01*
X1305000Y1047250D02*
X1345750Y1006500D01*
X1305000Y1047250D02*
Y1055250D01*
X1315500Y946250D02*
Y1006000D01*
X1279600Y1042400D02*
X1315500Y1006500D01*
X1279600Y1042400D02*
Y1055250D01*
X1285500Y946250D02*
Y1006000D01*
X1254200Y1037800D02*
X1285500Y1006500D01*
X1254200Y1037800D02*
Y1055250D01*
X1255500Y946250D02*
Y1006000D01*
X1228800Y1033200D02*
X1255500Y1006500D01*
X1228800Y1033200D02*
Y1055250D01*
X1225500Y946250D02*
Y1006000D01*
X1203400Y1028600D02*
X1225500Y1006500D01*
X1203400Y1028600D02*
Y1055250D01*
X1195500Y946250D02*
Y1006000D01*
X1178000Y1024000D02*
X1195500Y1006500D01*
X1178000Y1024000D02*
Y1055250D01*
X1165500Y946250D02*
Y1006000D01*
X1152600Y1019400D02*
X1165500Y1006500D01*
X1152600Y1019400D02*
Y1055250D01*
X1135750Y946250D02*
Y1006000D01*
X1127600Y1014650D02*
X1135750Y1006500D01*
X1127600Y1014650D02*
Y1055250D01*
X1105500Y946250D02*
Y1006000D01*
X1102200Y1009800D02*
X1105500Y1006500D01*
X1102200Y1009800D02*
Y1055250D01*
X1075500Y946250D02*
Y1006000D01*
Y1006500D02*
X1076800Y1007800D01*
Y1055250D01*
X1045250Y946250D02*
Y1006000D01*
Y1006500D02*
X1051400Y1012650D01*
Y1055250D01*
X1015500Y945750D02*
Y1005500D01*
Y1006000D02*
X1026000Y1016500D01*
Y1055250D01*
X985750Y945750D02*
Y1005500D01*
Y1006000D02*
X1000600Y1020850D01*
Y1055250D01*
X955500Y945750D02*
Y1005500D01*
Y1006000D02*
X975200Y1025700D01*
Y1055250D01*
X925500Y945750D02*
Y1005500D01*
Y1006000D02*
X949800Y1030300D01*
Y1055250D01*
X895500Y945750D02*
Y1005500D01*
Y1006000D02*
X924400Y1034900D01*
Y1055250D01*
X865750Y945750D02*
Y1005500D01*
Y1006000D02*
X899000Y1039250D01*
Y1055250D01*
X835500Y945750D02*
Y1005500D01*
X873600Y1044100D02*
Y1055250D01*
X835500Y1006000D02*
X873600Y1044100D01*
X805500Y945750D02*
Y1005500D01*
X848200Y1048700D02*
Y1055250D01*
X805500Y1006000D02*
X848200Y1048700D01*
X775500Y945750D02*
Y1005500D01*
Y1007950D02*
X822800Y1055250D01*
X775500Y1006000D02*
Y1007950D01*
X745750Y1006000D02*
Y1008750D01*
X718500Y1055250D02*
X721200D01*
X445750Y795500D02*
Y825750D01*
Y885750D01*
Y765750D02*
Y795500D01*
Y915750D02*
Y945750D01*
Y885750D02*
Y915750D01*
X1525750Y766250D02*
Y796000D01*
Y826250D01*
Y886250D02*
Y916250D01*
Y946250D01*
X1495500Y766250D02*
Y796000D01*
Y826250D01*
Y886250D01*
Y916250D01*
Y946250D01*
X1465500Y766250D02*
Y796000D01*
Y826250D01*
Y886250D01*
Y916250D01*
Y946250D01*
X1435500Y766250D02*
Y796000D01*
Y826250D01*
Y886250D01*
Y916250D01*
Y946250D01*
X1405750Y766250D02*
Y796000D01*
Y826250D01*
Y886250D01*
Y916250D01*
Y946250D01*
X1375500Y766250D02*
Y796000D01*
Y826250D01*
Y886250D01*
Y916250D01*
Y946250D01*
X1345750Y766250D02*
Y796000D01*
Y826250D01*
Y886250D01*
Y916250D01*
Y946250D01*
X1315500Y766250D02*
Y796000D01*
Y826250D01*
Y886250D01*
Y916250D01*
Y946250D01*
X1285500Y766250D02*
Y796000D01*
Y826250D01*
Y886250D01*
Y916250D01*
Y946250D01*
X1255500Y766250D02*
Y796000D01*
Y826250D01*
Y886250D01*
Y916250D01*
Y946250D01*
X1225500Y766250D02*
Y796000D01*
Y826250D01*
Y886250D01*
Y916250D01*
Y946250D01*
X1195500Y766250D02*
Y796000D01*
Y826250D01*
Y886250D01*
Y916250D01*
Y946250D01*
X1165500Y766250D02*
Y796000D01*
Y826250D01*
Y886250D01*
Y916250D01*
Y946250D01*
X1135750Y766250D02*
Y796000D01*
Y826250D01*
Y886250D01*
Y916250D01*
Y946250D01*
X1105500Y766250D02*
Y796000D01*
Y826250D01*
Y886250D01*
Y916250D01*
Y946250D01*
X1075500Y766250D02*
Y796000D01*
Y826250D01*
Y886250D01*
Y916250D01*
Y946250D01*
X1045250Y766250D02*
Y796000D01*
Y826250D01*
Y886250D01*
Y916250D01*
Y946250D01*
X1015500Y765750D02*
Y795500D01*
Y825750D01*
Y885750D01*
Y915750D01*
Y945750D01*
X1555750Y765250D02*
Y795000D01*
Y825250D01*
Y885250D02*
Y915250D01*
Y945250D01*
X985750Y765750D02*
Y795500D01*
Y825750D01*
Y885750D01*
Y915750D01*
Y945750D01*
X955500Y765750D02*
Y795500D01*
Y825750D01*
Y885750D01*
Y915750D01*
Y945750D01*
X925500Y765750D02*
Y795500D01*
Y825750D01*
Y885750D01*
Y915750D01*
Y945750D01*
X895500Y765750D02*
Y795500D01*
Y825750D01*
Y885750D01*
Y915750D01*
Y945750D01*
X865750Y765750D02*
Y795500D01*
Y825750D01*
Y885750D01*
Y915750D01*
Y945750D01*
X835500Y765750D02*
Y795500D01*
Y825750D01*
Y885750D01*
Y915750D01*
Y945750D01*
X805500Y765750D02*
Y795500D01*
Y825750D01*
Y885750D01*
Y915750D01*
Y945750D01*
X775500Y765750D02*
Y795500D01*
Y825750D01*
Y885750D01*
Y915750D01*
Y945750D01*
X745750Y765750D02*
Y795500D01*
Y825750D01*
Y885750D01*
Y915750D01*
Y945750D01*
X715750Y765750D02*
Y795500D01*
Y825750D01*
Y885750D01*
Y915750D01*
Y945750D01*
X685500Y765750D02*
Y795500D01*
Y825750D01*
Y885750D01*
Y915750D01*
Y945750D01*
X655500Y765750D02*
Y795500D01*
Y825750D01*
Y885750D01*
Y915750D01*
Y945750D01*
X625500Y765750D02*
Y795500D01*
Y825750D01*
Y885750D01*
Y915750D01*
Y945750D01*
X595750Y765750D02*
Y795500D01*
Y825750D01*
Y885750D02*
Y915750D01*
Y945750D01*
X565750Y765750D02*
Y795500D01*
Y825750D01*
Y885750D02*
Y915750D01*
Y945750D01*
X535500Y765750D02*
Y795500D01*
Y825750D01*
Y885750D02*
Y915750D01*
Y945750D01*
X505500Y765750D02*
Y795500D01*
Y825750D01*
Y885750D02*
Y915750D01*
Y945750D01*
X475500Y765500D02*
Y795250D01*
Y825500D01*
Y885500D02*
Y915500D01*
Y945500D01*
X370000Y750000D02*
G03*
X400000Y720000I30000J0D01*
G01*
X1600000D02*
G03*
X1630000Y750000I0J30000D01*
G01*
Y1050000D02*
G03*
X1600000Y1080000I-30000J0D01*
G01*
X400000D02*
G03*
X370000Y1050000I0J-30000D01*
G01*
X1630000Y750000D02*
Y1050000D01*
X400000Y720000D02*
X1600000D01*
X400000Y1079750D02*
X1600000D01*
X370000Y750000D02*
Y1050000D01*
D19*
X1482800Y1055250D02*
D03*
X1457400D02*
D03*
X1432000D02*
D03*
X1406600D02*
D03*
X1381200D02*
D03*
X1355800D02*
D03*
X1330400D02*
D03*
X1305000D02*
D03*
X1279600D02*
D03*
X1254200D02*
D03*
X1228800D02*
D03*
X1203400D02*
D03*
X1178000D02*
D03*
X1177900Y745000D02*
D03*
X1355700D02*
D03*
X1330300D02*
D03*
X1304900D02*
D03*
X1279500D02*
D03*
X1254100D02*
D03*
X1228700D02*
D03*
X1203300D02*
D03*
X543400Y1055250D02*
D03*
X568800D02*
D03*
X594200D02*
D03*
X619600D02*
D03*
X645000D02*
D03*
X670400D02*
D03*
X695800D02*
D03*
X721200D02*
D03*
X746600D02*
D03*
X772000D02*
D03*
X797400D02*
D03*
X822800D02*
D03*
X848200D02*
D03*
X873600D02*
D03*
X899000D02*
D03*
X924400D02*
D03*
X949800D02*
D03*
X975200D02*
D03*
X1000600D02*
D03*
X1026000D02*
D03*
X1051400D02*
D03*
X1076800D02*
D03*
X1102200D02*
D03*
X1127600D02*
D03*
D20*
X1152600Y1055250D02*
D03*
X1152500Y745000D02*
D03*
X518000Y1055250D02*
D03*
D21*
X1392250Y1006250D02*
D03*
X1395250Y768500D02*
D03*
X1364750Y980000D02*
D03*
Y768388D02*
D03*
X1335500Y950138D02*
D03*
Y768388D02*
D03*
X1303750Y919000D02*
D03*
Y768000D02*
D03*
X1273750Y888000D02*
D03*
Y768000D02*
D03*
X1242750Y858000D02*
D03*
Y768000D02*
D03*
X1215000Y828250D02*
D03*
Y768388D02*
D03*
X1184750Y799000D02*
D03*
X1184250Y768000D02*
D03*
X505500Y1006000D02*
D03*
X625500D02*
D03*
X445750Y825750D02*
D03*
Y795500D02*
D03*
Y765750D02*
D03*
X445500Y855750D02*
D03*
X445750Y885750D02*
D03*
Y915750D02*
D03*
Y945750D02*
D03*
X445500Y976000D02*
D03*
X445750Y1006000D02*
D03*
X1525750Y1006500D02*
D03*
X1525500Y976500D02*
D03*
X1525750Y946250D02*
D03*
Y916250D02*
D03*
Y886250D02*
D03*
X1525500Y856250D02*
D03*
X1525750Y826250D02*
D03*
Y796000D02*
D03*
Y766250D02*
D03*
X1495500Y1006500D02*
D03*
X1495250Y976500D02*
D03*
X1495500Y946250D02*
D03*
Y916250D02*
D03*
Y886250D02*
D03*
X1495250Y856250D02*
D03*
X1495500Y826250D02*
D03*
Y796000D02*
D03*
Y766250D02*
D03*
X1465500Y1006500D02*
D03*
X1465250Y976500D02*
D03*
X1465500Y946250D02*
D03*
Y916250D02*
D03*
Y886250D02*
D03*
X1465250Y856250D02*
D03*
X1465500Y826250D02*
D03*
Y796000D02*
D03*
Y766250D02*
D03*
X1435500Y1006500D02*
D03*
X1435250Y976500D02*
D03*
X1435500Y946250D02*
D03*
Y916250D02*
D03*
Y886250D02*
D03*
X1435250Y856250D02*
D03*
X1435500Y826250D02*
D03*
Y796000D02*
D03*
Y766250D02*
D03*
X1405750Y1006500D02*
D03*
X1405500Y976500D02*
D03*
X1405750Y946250D02*
D03*
Y916250D02*
D03*
Y886250D02*
D03*
X1405500Y856250D02*
D03*
X1405750Y826250D02*
D03*
Y796000D02*
D03*
Y766250D02*
D03*
X1375500Y1006500D02*
D03*
X1375250Y976500D02*
D03*
X1375500Y946250D02*
D03*
Y916250D02*
D03*
Y886250D02*
D03*
X1375250Y856250D02*
D03*
X1375500Y826250D02*
D03*
Y796000D02*
D03*
Y766250D02*
D03*
X1345750Y1006500D02*
D03*
X1345500Y976500D02*
D03*
X1345750Y946250D02*
D03*
Y916250D02*
D03*
Y886250D02*
D03*
X1345500Y856250D02*
D03*
X1345750Y826250D02*
D03*
Y796000D02*
D03*
Y766250D02*
D03*
X1315500Y1006500D02*
D03*
X1315250Y976500D02*
D03*
X1315500Y946250D02*
D03*
Y916250D02*
D03*
Y886250D02*
D03*
X1315250Y856250D02*
D03*
X1315500Y826250D02*
D03*
Y796000D02*
D03*
Y766250D02*
D03*
X1285500Y1006500D02*
D03*
X1285250Y976500D02*
D03*
X1285500Y946250D02*
D03*
Y916250D02*
D03*
Y886250D02*
D03*
X1285250Y856250D02*
D03*
X1285500Y826250D02*
D03*
Y796000D02*
D03*
Y766250D02*
D03*
X1255500Y1006500D02*
D03*
X1255250Y976500D02*
D03*
X1255500Y946250D02*
D03*
Y916250D02*
D03*
Y886250D02*
D03*
X1255250Y856250D02*
D03*
X1255500Y826250D02*
D03*
Y796000D02*
D03*
Y766250D02*
D03*
X1225500Y1006500D02*
D03*
X1225250Y976500D02*
D03*
X1225500Y946250D02*
D03*
Y916250D02*
D03*
Y886250D02*
D03*
X1225250Y856250D02*
D03*
X1225500Y826250D02*
D03*
Y796000D02*
D03*
Y766250D02*
D03*
X1195500Y1006500D02*
D03*
X1195250Y976500D02*
D03*
X1195500Y946250D02*
D03*
Y916250D02*
D03*
Y886250D02*
D03*
X1195250Y856250D02*
D03*
X1195500Y826250D02*
D03*
Y796000D02*
D03*
Y766250D02*
D03*
X1165500Y1006500D02*
D03*
X1165250Y976500D02*
D03*
X1165500Y946250D02*
D03*
Y916250D02*
D03*
Y886250D02*
D03*
X1165250Y856250D02*
D03*
X1165500Y826250D02*
D03*
Y796000D02*
D03*
Y766250D02*
D03*
X1135750Y1006500D02*
D03*
X1135500Y976500D02*
D03*
X1135750Y946250D02*
D03*
Y916250D02*
D03*
Y886250D02*
D03*
X1135500Y856250D02*
D03*
X1135750Y826250D02*
D03*
Y796000D02*
D03*
Y766250D02*
D03*
X1105500Y1006500D02*
D03*
X1105250Y976500D02*
D03*
X1105500Y946250D02*
D03*
Y916250D02*
D03*
Y886250D02*
D03*
X1105250Y856250D02*
D03*
X1105500Y826250D02*
D03*
Y796000D02*
D03*
Y766250D02*
D03*
X1075500Y1006500D02*
D03*
X1075250Y976500D02*
D03*
X1075500Y946250D02*
D03*
Y916250D02*
D03*
Y886250D02*
D03*
X1075250Y856250D02*
D03*
X1075500Y826250D02*
D03*
Y796000D02*
D03*
Y766250D02*
D03*
X1045250Y1006500D02*
D03*
X1045000Y976500D02*
D03*
X1045250Y946250D02*
D03*
Y916250D02*
D03*
Y886250D02*
D03*
X1045000Y856250D02*
D03*
X1045250Y826250D02*
D03*
Y796000D02*
D03*
Y766250D02*
D03*
X1015500Y1006000D02*
D03*
X1015250Y976000D02*
D03*
X1015500Y945750D02*
D03*
Y915750D02*
D03*
Y885750D02*
D03*
X1015250Y855750D02*
D03*
X1015500Y825750D02*
D03*
Y795500D02*
D03*
Y765750D02*
D03*
X1555750Y1005500D02*
D03*
X1555500Y975500D02*
D03*
X1555750Y945250D02*
D03*
Y915250D02*
D03*
Y885250D02*
D03*
X1555500Y855250D02*
D03*
X1555750Y825250D02*
D03*
Y795000D02*
D03*
Y765250D02*
D03*
X985750Y1006000D02*
D03*
X985500Y976000D02*
D03*
X985750Y945750D02*
D03*
Y915750D02*
D03*
Y885750D02*
D03*
X985500Y855750D02*
D03*
X985750Y825750D02*
D03*
Y795500D02*
D03*
Y765750D02*
D03*
X955500Y1006000D02*
D03*
X955250Y976000D02*
D03*
X955500Y945750D02*
D03*
Y915750D02*
D03*
Y885750D02*
D03*
X955250Y855750D02*
D03*
X955500Y825750D02*
D03*
Y795500D02*
D03*
Y765750D02*
D03*
X925500Y1006000D02*
D03*
X925250Y976000D02*
D03*
X925500Y945750D02*
D03*
Y915750D02*
D03*
Y885750D02*
D03*
X925250Y855750D02*
D03*
X925500Y825750D02*
D03*
Y795500D02*
D03*
Y765750D02*
D03*
X895500Y1006000D02*
D03*
X895250Y976000D02*
D03*
X895500Y945750D02*
D03*
Y915750D02*
D03*
Y885750D02*
D03*
X895250Y855750D02*
D03*
X895500Y825750D02*
D03*
Y795500D02*
D03*
Y765750D02*
D03*
X865750Y1006000D02*
D03*
X865500Y976000D02*
D03*
X865750Y945750D02*
D03*
Y915750D02*
D03*
Y885750D02*
D03*
X865500Y855750D02*
D03*
X865750Y825750D02*
D03*
Y795500D02*
D03*
Y765750D02*
D03*
X835500Y1006000D02*
D03*
X835250Y976000D02*
D03*
X835500Y945750D02*
D03*
Y915750D02*
D03*
Y885750D02*
D03*
X835250Y855750D02*
D03*
X835500Y825750D02*
D03*
Y795500D02*
D03*
Y765750D02*
D03*
X805500Y1006000D02*
D03*
X805250Y976000D02*
D03*
X805500Y945750D02*
D03*
Y915750D02*
D03*
Y885750D02*
D03*
X805250Y855750D02*
D03*
X805500Y825750D02*
D03*
Y795500D02*
D03*
Y765750D02*
D03*
X775500Y1006000D02*
D03*
X775250Y976000D02*
D03*
X775500Y945750D02*
D03*
Y915750D02*
D03*
Y885750D02*
D03*
X775250Y855750D02*
D03*
X775500Y825750D02*
D03*
Y795500D02*
D03*
Y765750D02*
D03*
X745750Y1006000D02*
D03*
X745500Y976000D02*
D03*
X745750Y945750D02*
D03*
Y915750D02*
D03*
Y885750D02*
D03*
X745500Y855750D02*
D03*
X745750Y825750D02*
D03*
Y795500D02*
D03*
Y765750D02*
D03*
X715750Y1006000D02*
D03*
X715500Y976000D02*
D03*
X715750Y945750D02*
D03*
Y915750D02*
D03*
Y885750D02*
D03*
X715500Y855750D02*
D03*
X715750Y825750D02*
D03*
Y795500D02*
D03*
Y765750D02*
D03*
X685500Y1006000D02*
D03*
X685250Y976000D02*
D03*
X685500Y945750D02*
D03*
Y915750D02*
D03*
Y885750D02*
D03*
X685250Y855750D02*
D03*
X685500Y825750D02*
D03*
Y795500D02*
D03*
Y765750D02*
D03*
X655500Y1006000D02*
D03*
X655250Y976000D02*
D03*
X655500Y945750D02*
D03*
Y915750D02*
D03*
Y885750D02*
D03*
X655250Y855750D02*
D03*
X655500Y825750D02*
D03*
Y795500D02*
D03*
Y765750D02*
D03*
X625250Y976000D02*
D03*
X625500Y945750D02*
D03*
Y915750D02*
D03*
Y885750D02*
D03*
X625250Y855750D02*
D03*
X625500Y825750D02*
D03*
Y795500D02*
D03*
Y765750D02*
D03*
X595750Y1006000D02*
D03*
X595500Y976000D02*
D03*
X595750Y945750D02*
D03*
Y915750D02*
D03*
Y885750D02*
D03*
X595500Y855750D02*
D03*
X595750Y825750D02*
D03*
Y795500D02*
D03*
Y765750D02*
D03*
X565750Y1006000D02*
D03*
X565500Y976000D02*
D03*
X565750Y945750D02*
D03*
Y915750D02*
D03*
Y885750D02*
D03*
X565500Y855750D02*
D03*
X565750Y825750D02*
D03*
Y795500D02*
D03*
Y765750D02*
D03*
X535500Y1006000D02*
D03*
X535250Y976000D02*
D03*
X535500Y945750D02*
D03*
Y915750D02*
D03*
Y885750D02*
D03*
X535250Y855750D02*
D03*
X535500Y825750D02*
D03*
Y795500D02*
D03*
Y765750D02*
D03*
X505250Y976000D02*
D03*
X505500Y945750D02*
D03*
Y915750D02*
D03*
Y885750D02*
D03*
X505250Y855750D02*
D03*
X505500Y825750D02*
D03*
Y795500D02*
D03*
Y765750D02*
D03*
X475500Y1005750D02*
D03*
X475250Y975750D02*
D03*
X475500Y945500D02*
D03*
Y915500D02*
D03*
Y885500D02*
D03*
X475250Y855500D02*
D03*
X475500Y825500D02*
D03*
Y795250D02*
D03*
Y765500D02*
D03*
D22*
X400000Y750000D02*
D03*
X1600000D02*
D03*
Y1050000D02*
D03*
X400000D02*
D03*
M02*
