G04*
G04 #@! TF.GenerationSoftware,Altium Limited,Altium Designer,18.1.9 (240)*
G04*
G04 Layer_Color=8388736*
%FSLAX44Y44*%
%MOMM*%
G71*
G01*
G75*
%ADD35R,1.1032X1.0032*%
%ADD36R,2.7032X1.7032*%
%ADD37R,3.4532X4.2032*%
%ADD38R,2.8032X1.7032*%
%ADD39R,0.6532X0.8032*%
G04:AMPARAMS|DCode=40|XSize=2.2032mm|YSize=2.2032mm|CornerRadius=1.1016mm|HoleSize=0mm|Usage=FLASHONLY|Rotation=90.000|XOffset=0mm|YOffset=0mm|HoleType=Round|Shape=RoundedRectangle|*
%AMROUNDEDRECTD40*
21,1,2.2032,0.0000,0,0,90.0*
21,1,0.0000,2.2032,0,0,90.0*
1,1,2.2032,0.0000,0.0000*
1,1,2.2032,0.0000,0.0000*
1,1,2.2032,0.0000,0.0000*
1,1,2.2032,0.0000,0.0000*
%
%ADD40ROUNDEDRECTD40*%
G04:AMPARAMS|DCode=41|XSize=2.2032mm|YSize=2.2032mm|CornerRadius=1.1016mm|HoleSize=0mm|Usage=FLASHONLY|Rotation=0.000|XOffset=0mm|YOffset=0mm|HoleType=Round|Shape=RoundedRectangle|*
%AMROUNDEDRECTD41*
21,1,2.2032,0.0000,0,0,0.0*
21,1,0.0000,2.2032,0,0,0.0*
1,1,2.2032,0.0000,0.0000*
1,1,2.2032,0.0000,0.0000*
1,1,2.2032,0.0000,0.0000*
1,1,2.2032,0.0000,0.0000*
%
%ADD41ROUNDEDRECTD41*%
%ADD42R,1.0032X1.1032*%
%ADD43R,0.8032X1.8032*%
%ADD44R,1.7272X0.8382*%
%ADD45R,1.4222X1.1172*%
%ADD46R,1.2532X0.8032*%
%ADD47R,1.5032X0.9032*%
%ADD48R,2.2032X1.1032*%
%ADD49R,1.1032X2.2032*%
%ADD50R,5.2032X5.2032*%
%ADD51R,2.2032X1.0033*%
%ADD52R,1.0033X1.2032*%
%ADD53R,1.0033X1.1031*%
%ADD54R,1.5032X1.5032*%
%ADD55R,1.2532X1.2532*%
%ADD56C,1.7032*%
%ADD57R,1.7032X1.7032*%
%ADD58R,1.7032X1.7032*%
%ADD59C,1.0033*%
%ADD60C,0.7032*%
%ADD61C,0.6532*%
%ADD62C,3.2032*%
D35*
X1422500Y999000D02*
D03*
Y1013000D02*
D03*
X420500Y1042750D02*
D03*
Y1028750D02*
D03*
X568000Y1042500D02*
D03*
Y1028500D02*
D03*
X715500Y1033750D02*
D03*
Y1019750D02*
D03*
X963500Y1070000D02*
D03*
Y1084000D02*
D03*
X983250Y1089750D02*
D03*
Y1103750D02*
D03*
X1172000Y1118500D02*
D03*
Y1104500D02*
D03*
Y1090000D02*
D03*
Y1076000D02*
D03*
X1155750Y1075750D02*
D03*
Y1089750D02*
D03*
X1137000Y1076000D02*
D03*
Y1062000D02*
D03*
X1193250Y1111250D02*
D03*
Y1097250D02*
D03*
X1258250Y1097500D02*
D03*
Y1111500D02*
D03*
X1381750Y1102750D02*
D03*
Y1116750D02*
D03*
X1355500Y1052500D02*
D03*
Y1038500D02*
D03*
X1464750Y975950D02*
D03*
Y961950D02*
D03*
D36*
X1394949Y956000D02*
D03*
Y978500D02*
D03*
Y1001000D02*
D03*
D37*
X1342449Y978500D02*
D03*
D38*
X1396250Y1044500D02*
D03*
D39*
X1386750Y1058500D02*
D03*
X1405750D02*
D03*
X1396250Y1030500D02*
D03*
X1386750D02*
D03*
X1396250Y1058500D02*
D03*
X1405750Y1030500D02*
D03*
D40*
X1004750Y932250D02*
D03*
D41*
X1058750D02*
D03*
X1031750D02*
D03*
X977750D02*
D03*
X1467500Y1184500D02*
D03*
X1449750Y932250D02*
D03*
X1437500Y1155750D02*
D03*
X1326750Y1036500D02*
D03*
D42*
X1062500Y1030000D02*
D03*
X1048500D02*
D03*
X1062500Y1014250D02*
D03*
X1048500D02*
D03*
X1299750Y1027750D02*
D03*
X1285750D02*
D03*
X1446250Y1012000D02*
D03*
X1460250D02*
D03*
X1435750Y962000D02*
D03*
X1449750D02*
D03*
X1449750Y976250D02*
D03*
X1435750D02*
D03*
X1300000Y1012750D02*
D03*
X1286000D02*
D03*
D43*
X1225250Y1064000D02*
D03*
X1215750Y1086000D02*
D03*
X1234750D02*
D03*
X1225000Y1146550D02*
D03*
X1234500Y1124550D02*
D03*
X1215500D02*
D03*
D44*
X1286051Y1072050D02*
D03*
Y1084750D02*
D03*
X1339949Y1160950D02*
D03*
X1286051Y1148250D02*
D03*
X1339949D02*
D03*
Y1122850D02*
D03*
X1286051Y1160950D02*
D03*
X1339949Y1135550D02*
D03*
X1286051D02*
D03*
Y1122850D02*
D03*
Y1097450D02*
D03*
X1339949Y1110150D02*
D03*
Y1097450D02*
D03*
Y1072050D02*
D03*
X1286051Y1110150D02*
D03*
X1339949Y1084750D02*
D03*
D45*
X1416250Y1084117D02*
D03*
Y1116883D02*
D03*
D46*
X1463750Y1102250D02*
D03*
X1440750Y1092750D02*
D03*
Y1111750D02*
D03*
D47*
X1441000Y1036000D02*
D03*
Y1055000D02*
D03*
X1465000D02*
D03*
Y1045500D02*
D03*
Y1036000D02*
D03*
D48*
X924750Y1093350D02*
D03*
Y1080650D02*
D03*
Y1067950D02*
D03*
Y1055250D02*
D03*
Y1042550D02*
D03*
Y1029850D02*
D03*
Y1017150D02*
D03*
Y1004450D02*
D03*
Y991750D02*
D03*
Y979050D02*
D03*
Y966350D02*
D03*
Y953650D02*
D03*
Y940950D02*
D03*
Y928250D02*
D03*
X754750D02*
D03*
Y940950D02*
D03*
Y953650D02*
D03*
Y966350D02*
D03*
Y979050D02*
D03*
Y991750D02*
D03*
Y1004450D02*
D03*
Y1017150D02*
D03*
Y1029850D02*
D03*
Y1042550D02*
D03*
Y1055250D02*
D03*
Y1067950D02*
D03*
Y1080650D02*
D03*
Y1093350D02*
D03*
D49*
X896900Y918250D02*
D03*
X884200D02*
D03*
X871500D02*
D03*
X858800D02*
D03*
X846100D02*
D03*
X833400D02*
D03*
X820700D02*
D03*
X808000D02*
D03*
X795300D02*
D03*
X782600D02*
D03*
D50*
X829750Y1018350D02*
D03*
D51*
X332501Y1116269D02*
D03*
Y1161270D02*
D03*
Y1131270D02*
D03*
D52*
X300250Y1101999D02*
D03*
Y1177001D02*
D03*
D53*
X322750Y1101499D02*
D03*
Y1177501D02*
D03*
D54*
X1540500Y1105375D02*
D03*
Y1159875D02*
D03*
D55*
X1510200Y1108375D02*
D03*
Y1156875D02*
D03*
D56*
X1409300Y1220470D02*
D03*
X1383900D02*
D03*
X1358500D02*
D03*
X1333100D02*
D03*
X1307700D02*
D03*
X1282300D02*
D03*
X1256900D02*
D03*
X1231500D02*
D03*
X1206100D02*
D03*
X1180700D02*
D03*
X1155300D02*
D03*
X1129900D02*
D03*
X1104500D02*
D03*
X1104400Y910220D02*
D03*
X1282200D02*
D03*
X1256800D02*
D03*
X1231400D02*
D03*
X1206000D02*
D03*
X1180600D02*
D03*
X1155200D02*
D03*
X1129800D02*
D03*
X322000Y1013400D02*
D03*
Y988000D02*
D03*
Y962600D02*
D03*
X388501Y1091900D02*
D03*
Y1117300D02*
D03*
Y1142700D02*
D03*
Y1168100D02*
D03*
X876300Y1220470D02*
D03*
X850900D02*
D03*
X825500D02*
D03*
X723900D02*
D03*
X749300D02*
D03*
X774700D02*
D03*
X800100D02*
D03*
X901700D02*
D03*
X469900D02*
D03*
X495300D02*
D03*
X520700D02*
D03*
X546100D02*
D03*
X571500D02*
D03*
X596900D02*
D03*
X622300D02*
D03*
X647700D02*
D03*
X673100D02*
D03*
X698500D02*
D03*
X927100D02*
D03*
X952500D02*
D03*
X977900D02*
D03*
X1003300D02*
D03*
X1028700D02*
D03*
X1054100D02*
D03*
D57*
X1079100Y1220470D02*
D03*
X1079000Y910220D02*
D03*
X444500Y1220470D02*
D03*
D58*
X322000Y1038800D02*
D03*
D59*
X311500Y1124499D02*
D03*
Y1154501D02*
D03*
D60*
X712250Y1005500D02*
D03*
X420500Y1012000D02*
D03*
X568000Y1010750D02*
D03*
X1170750Y977500D02*
D03*
X1078500Y984500D02*
D03*
X1151250D02*
D03*
X1183000Y1043750D02*
D03*
X1305500Y1080839D02*
D03*
X1418500Y1072000D02*
D03*
X1406000Y1066250D02*
D03*
X897000Y943750D02*
D03*
X875500Y939750D02*
D03*
X1201500Y1010250D02*
D03*
X1486250Y1145750D02*
D03*
X1404000Y1188250D02*
D03*
X1071750Y1029750D02*
D03*
X951000Y953650D02*
D03*
X1487750Y985000D02*
D03*
X1470000Y1120000D02*
D03*
X1495000Y1131269D02*
D03*
Y1139300D02*
D03*
X777607Y980000D02*
D03*
Y965000D02*
D03*
X775720Y955000D02*
D03*
Y940000D02*
D03*
X896900Y980000D02*
D03*
X1314500Y1027500D02*
D03*
X1231500Y1027750D02*
D03*
X776750Y1016500D02*
D03*
X947500Y1017000D02*
D03*
X1201500Y1054500D02*
D03*
X947250Y1084850D02*
D03*
X886500Y1055250D02*
D03*
X947750Y1030500D02*
D03*
X893500Y1080500D02*
D03*
X856750Y1067250D02*
D03*
X715250Y1050000D02*
D03*
X705000Y1067750D02*
D03*
X1325200Y1084750D02*
D03*
X1183500Y1034800D02*
D03*
X1226250Y1104750D02*
D03*
X1266500Y1087000D02*
D03*
X1398500Y1095000D02*
D03*
X1433000Y1020750D02*
D03*
X1481750Y1036000D02*
D03*
X1414250Y1165250D02*
D03*
D61*
X1388500Y1040500D02*
D03*
X1396000D02*
D03*
X1403500D02*
D03*
Y1048000D02*
D03*
X1395750D02*
D03*
X1388250Y1048111D02*
D03*
X1156500Y1121750D02*
D03*
X1105000Y1105000D02*
D03*
X1112500D02*
D03*
Y1137500D02*
D03*
X1075000Y1105000D02*
D03*
Y1097500D02*
D03*
X1082500Y1105000D02*
D03*
X1090000D02*
D03*
X1097500D02*
D03*
X1112500Y1097500D02*
D03*
X1105000D02*
D03*
X1097500D02*
D03*
X1090000D02*
D03*
X1082500D02*
D03*
X1075000Y1122500D02*
D03*
X1082500D02*
D03*
X1090000D02*
D03*
X1097500D02*
D03*
X1105000D02*
D03*
X1112500D02*
D03*
Y1130000D02*
D03*
X1105000D02*
D03*
X1097500D02*
D03*
X1090000D02*
D03*
X1082500D02*
D03*
X1075000D02*
D03*
Y1137500D02*
D03*
X1082500D02*
D03*
X1090000D02*
D03*
X1097500D02*
D03*
X1105000D02*
D03*
X1152450Y1111300D02*
D03*
X1144250Y1117250D02*
D03*
X1145500Y1102000D02*
D03*
X1141250Y1093000D02*
D03*
D62*
X326500Y1215220D02*
D03*
X1526500D02*
D03*
Y915220D02*
D03*
X326500D02*
D03*
M02*
