M48
;Layer_Color=9474304
;FILE_FORMAT=4:4
METRIC,LZ
;TYPE=PLATED
T1F00S00C0.3000
T3F00S00C0.5000
T4F00S00C0.6000
T5F00S00C0.8001
T6F00S00C0.9000
T7F00S00C3.0000
%
T01
X0042Y01007
X00566
X00708Y00993
X0077775Y00981
X00779Y00967
X007747Y00954
X00775Y0094
X007Y00907
X00769Y01069
X00816998Y01068998
X00817Y01062
X00816998Y01054998
X00797Y01048
X009074Y00978
X00948
X00958Y00998
X0108Y0103
X01075Y01052
X0112225Y01058
X01135Y0103775
X01172998Y01042998
X01174Y0105025
X011786Y010299
X01149Y01089
X01138Y01088
X01143Y01099
X01154Y01099
X01153Y0111125
X01146998Y01115998
X0116Y01119
X01216Y01111499
X01226
X01243Y01083
X01274Y01084
X01262Y01054
X01259Y01044
X01236Y0103475
X01205Y0103
X01329Y01054
X01339Y010495
X0135Y01065
X01377Y01057
X01378611Y0104
X0135Y0111
X01325Y0108975
X01317Y0109
X01398Y01123
X01403Y01129
X01407Y01143
X01398Y01149
X014425Y01163
X01484Y01156
X01487Y01139
X01484997Y01131998
X01466Y01123
X01475Y01036
X01492Y00985625
X01538Y01052
X01419Y01208
T03
X0107965Y011045
X0108965
X0109965
X0110965
Y011145
X0109965
X0108965
X0107965
Y011245
X0108965
X0109965
X0110965
Y011345
X0109965
X0108965
X0107965
T04
X0151842Y011128
Y011528
T05
X003115Y01124499
Y01154501
T06
X00322Y009626
Y00988
Y010134
Y010388
X01079Y0091022
X011044
X011298
X011552
X011806
X01206
X012314
X012568
X012822
X012823Y0122047
X013077
X013331
X013585
X013839
X014093
X012569
X012315
X012061
X011807
X011553
X011299
X011045
X010791
X010541Y0122047
X010287
X010033
X009779
X009525
X009271
X009017
X008763
X008509
X008255
X008001
X007747
X007493
X007239
X006985
X006731
X006477
X006223
X005969
X005715
X005461
X005207
X004953
X004699
X004445
T07
X003265Y0091522
X015265
Y0121522
X003265
M30
