G04*
G04 #@! TF.GenerationSoftware,Altium Limited,Altium Designer,18.1.9 (240)*
G04*
G04 Layer_Color=65535*
%FSLAX44Y44*%
%MOMM*%
G71*
G01*
G75*
%ADD10C,0.3000*%
%ADD11C,0.2500*%
%ADD12C,0.2032*%
%ADD13C,0.1270*%
%ADD14C,0.2000*%
%ADD15C,0.2540*%
%ADD16R,1.8000X0.5080*%
%ADD17C,0.1000*%
D10*
X732980Y1093130D02*
G03*
X732980Y1093130I-1000J0D01*
G01*
D11*
X1486000Y1118780D02*
G03*
X1486000Y1118780I-1250J0D01*
G01*
X1483750Y976250D02*
G03*
X1483750Y976250I-1250J0D01*
G01*
X1439500Y1119750D02*
G03*
X1439500Y1119750I-1250J0D01*
G01*
X1208250Y1124550D02*
G03*
X1208250Y1124550I-1250J0D01*
G01*
X1244500Y1086000D02*
G03*
X1244500Y1086000I-1250J0D01*
G01*
X1466250Y1027000D02*
G03*
X1466250Y1027000I-1250J0D01*
G01*
D12*
X1326205Y1076000D02*
G03*
X1326205Y1076000I-3256J0D01*
G01*
D13*
X750150Y1105250D02*
X929350D01*
X929750Y913250D02*
Y920750D01*
X904750Y913250D02*
X929750D01*
X749750D02*
X774750D01*
X749750D02*
Y920750D01*
X929750Y1100750D02*
Y1168250D01*
X749750D02*
X929750D01*
X749750Y1100750D02*
Y1168250D01*
X280251Y1125999D02*
X295250D01*
X280251Y1138998D02*
X295250D01*
X280251Y1125999D02*
Y1138998D01*
X322250Y1136499D02*
Y1153499D01*
X302750Y1105999D02*
X315750D01*
X295250Y1109499D02*
Y1125999D01*
Y1138998D01*
Y1169499D01*
X302750Y1172999D02*
X315750D01*
D14*
X1546750Y1179250D02*
X1561750D01*
X1546750Y1086250D02*
X1561750D01*
Y1179250D01*
X1508000Y999750D02*
X1546000D01*
Y965250D02*
Y999750D01*
X1508000Y965250D02*
X1546000D01*
X1508000D02*
Y999750D01*
X1449250Y1087750D02*
X1455250D01*
Y1116750D01*
X1449250D02*
X1455250D01*
X1449250Y1087750D02*
Y1116750D01*
X1425250Y1092690D02*
Y1109560D01*
X1407250Y1092690D02*
Y1109560D01*
Y1092690D02*
X1425250D01*
X1210000Y1136550D02*
Y1142550D01*
X1218000D01*
X1240000Y1136550D02*
Y1142550D01*
X1232000D02*
X1240000D01*
X1240250Y1068000D02*
Y1074000D01*
X1232250Y1068000D02*
X1240250D01*
X1210250D02*
Y1074000D01*
Y1068000D02*
X1218250D01*
X1451500Y1030000D02*
X1454500D01*
X1451500Y1061000D02*
X1454500D01*
Y1030000D02*
Y1061000D01*
X1451500Y1030000D02*
Y1061000D01*
X309300Y1076850D02*
X334700D01*
Y949850D02*
Y1076850D01*
X309300Y949850D02*
Y1076850D01*
Y949850D02*
X334700D01*
X1066300Y922920D02*
X1294900D01*
X1066300Y897520D02*
Y922920D01*
Y897520D02*
X1294900D01*
Y922920D01*
X1066800Y1207770D02*
Y1233170D01*
X431800Y1207770D02*
X1066800D01*
X431800D02*
Y1233170D01*
X450850D01*
X1066800D01*
X1085450Y1233170D02*
X1422000D01*
X1066400D02*
X1085450D01*
X1066400Y1207770D02*
Y1233170D01*
Y1207770D02*
X1422000D01*
Y1233170D01*
D15*
X1293950Y1061890D02*
Y1065700D01*
Y1061890D02*
X1332050D01*
Y1065700D01*
X1293950Y1166030D02*
Y1169840D01*
X1332050D01*
Y1166030D02*
Y1169840D01*
X1406250Y1026000D02*
X1421250D01*
Y1056000D01*
X1391250D02*
X1421250D01*
X1391250Y1026000D02*
Y1056000D01*
Y1026000D02*
X1406250D01*
X1326584Y1006761D02*
X1329123Y1009300D01*
Y1014379D01*
X1326584Y1016918D01*
X1316427D01*
X1313888Y1014379D01*
Y1009300D01*
X1316427Y1006761D01*
X1313888Y1001683D02*
Y996605D01*
Y999144D01*
X1329123D01*
X1326584Y1001683D01*
Y988987D02*
X1329123Y986448D01*
Y981369D01*
X1326584Y978830D01*
X1316427D01*
X1313888Y981369D01*
Y986448D01*
X1316427Y988987D01*
X1326584D01*
X346562Y955221D02*
X331327D01*
Y962839D01*
X333866Y965378D01*
X338945D01*
X341484Y962839D01*
Y955221D01*
Y960300D02*
X346562Y965378D01*
Y970456D02*
Y975535D01*
Y972996D01*
X331327D01*
X333866Y970456D01*
X331327Y993309D02*
Y983152D01*
X338945D01*
X336405Y988231D01*
Y990770D01*
X338945Y993309D01*
X344023D01*
X346562Y990770D01*
Y985691D01*
X344023Y983152D01*
X731927Y1193780D02*
Y1181084D01*
X734466Y1178545D01*
X739545D01*
X742084Y1181084D01*
Y1193780D01*
X747162Y1178545D02*
X752240D01*
X749701D01*
Y1193780D01*
X747162Y1191241D01*
X1494989Y1206193D02*
X1489910D01*
X1492449D01*
Y1193497D01*
X1489910Y1190958D01*
X1487371D01*
X1484832Y1193497D01*
X1500067Y1190958D02*
X1505145D01*
X1502606D01*
Y1206193D01*
X1500067Y1203654D01*
X1482644Y1033660D02*
Y1048895D01*
X1490262D01*
X1492801Y1046356D01*
Y1041277D01*
X1490262Y1038738D01*
X1482644D01*
X1497879Y1033660D02*
X1502957D01*
X1500418D01*
Y1048895D01*
X1497879Y1046356D01*
X1167800Y1132414D02*
Y1147649D01*
X1175417D01*
X1177957Y1145110D01*
Y1140032D01*
X1175417Y1137492D01*
X1167800D01*
X1172878D02*
X1177957Y1132414D01*
X1183035D02*
X1188113D01*
X1185574D01*
Y1147649D01*
X1183035Y1145110D01*
X1269799Y1153250D02*
X1259642D01*
X1269799Y1163407D01*
Y1165946D01*
X1267260Y1168485D01*
X1262181D01*
X1259642Y1165946D01*
X1132868Y1089748D02*
Y1104983D01*
X1140486D01*
X1143025Y1102444D01*
Y1097365D01*
X1140486Y1094826D01*
X1132868D01*
X1137946D02*
X1143025Y1089748D01*
X1158260D02*
X1148103D01*
X1158260Y1099905D01*
Y1102444D01*
X1155721Y1104983D01*
X1150642D01*
X1148103Y1102444D01*
X1432056Y990742D02*
Y1005977D01*
X1439673D01*
X1442213Y1003438D01*
Y998360D01*
X1439673Y995820D01*
X1432056D01*
X1437134D02*
X1442213Y990742D01*
X1447291Y1003438D02*
X1449830Y1005977D01*
X1454909D01*
X1457448Y1003438D01*
Y1000899D01*
X1454909Y998360D01*
X1452369D01*
X1454909D01*
X1457448Y995820D01*
Y993281D01*
X1454909Y990742D01*
X1449830D01*
X1447291Y993281D01*
X1435124Y1145023D02*
X1445281D01*
X1440202D01*
Y1129788D01*
X1450359D02*
X1455437D01*
X1452898D01*
Y1145023D01*
X1450359Y1142484D01*
X1432016Y976344D02*
Y991579D01*
X1439633D01*
X1442173Y989040D01*
Y983961D01*
X1439633Y981422D01*
X1432016D01*
X1437094D02*
X1442173Y976344D01*
X1454869D02*
Y991579D01*
X1447251Y983961D01*
X1457408D01*
X1392400Y1081961D02*
Y1069265D01*
X1394939Y1066726D01*
X1400018D01*
X1402557Y1069265D01*
Y1081961D01*
X1417792Y1066726D02*
X1407635D01*
X1417792Y1076883D01*
Y1079422D01*
X1415253Y1081961D01*
X1410174D01*
X1407635Y1079422D01*
X1408882Y1145565D02*
Y1130330D01*
X1416499D01*
X1419039Y1132869D01*
Y1143026D01*
X1416499Y1145565D01*
X1408882D01*
X1424117Y1130330D02*
X1429195D01*
X1426656D01*
Y1145565D01*
X1424117Y1143026D01*
X261964Y1178015D02*
X264503Y1180555D01*
X269582D01*
X272121Y1178015D01*
Y1175476D01*
X269582Y1172937D01*
X267042D01*
X269582D01*
X272121Y1170398D01*
Y1167859D01*
X269582Y1165320D01*
X264503D01*
X261964Y1167859D01*
X1379193Y1078814D02*
X1376653Y1081353D01*
X1371575D01*
X1369036Y1078814D01*
Y1068657D01*
X1371575Y1066118D01*
X1376653D01*
X1379193Y1068657D01*
X1384271Y1081353D02*
X1394428D01*
Y1078814D01*
X1384271Y1068657D01*
Y1066118D01*
X1377512Y1130626D02*
Y1145861D01*
X1385130D01*
X1387669Y1143322D01*
Y1138243D01*
X1385130Y1135704D01*
X1377512D01*
X1382590D02*
X1387669Y1130626D01*
X1402904Y1145861D02*
X1392747D01*
Y1138243D01*
X1397825Y1140783D01*
X1400365D01*
X1402904Y1138243D01*
Y1133165D01*
X1400365Y1130626D01*
X1395286D01*
X1392747Y1133165D01*
X1167902Y1103920D02*
Y1119155D01*
X1175519D01*
X1178059Y1116616D01*
Y1111537D01*
X1175519Y1108998D01*
X1167902D01*
X1172980D02*
X1178059Y1103920D01*
X1193294Y1119155D02*
X1188215Y1116616D01*
X1183137Y1111537D01*
Y1106459D01*
X1185676Y1103920D01*
X1190755D01*
X1193294Y1106459D01*
Y1108998D01*
X1190755Y1111537D01*
X1183137D01*
X1161741Y1116362D02*
X1159202Y1118901D01*
X1154123D01*
X1151584Y1116362D01*
Y1106205D01*
X1154123Y1103666D01*
X1159202D01*
X1161741Y1106205D01*
X1166819D02*
X1169358Y1103666D01*
X1174437D01*
X1176976Y1106205D01*
Y1116362D01*
X1174437Y1118901D01*
X1169358D01*
X1166819Y1116362D01*
Y1113823D01*
X1169358Y1111284D01*
X1176976D01*
X1282164Y1042246D02*
Y1057481D01*
X1289781D01*
X1292321Y1054942D01*
Y1049864D01*
X1289781Y1047324D01*
X1282164D01*
X1287242D02*
X1292321Y1042246D01*
X1297399Y1054942D02*
X1299938Y1057481D01*
X1305017D01*
X1307556Y1054942D01*
Y1052403D01*
X1305017Y1049864D01*
X1307556Y1047324D01*
Y1044785D01*
X1305017Y1042246D01*
X1299938D01*
X1297399Y1044785D01*
Y1047324D01*
X1299938Y1049864D01*
X1297399Y1052403D01*
Y1054942D01*
X1299938Y1049864D02*
X1305017D01*
X1189108Y1125106D02*
Y1140341D01*
X1196725D01*
X1199265Y1137802D01*
Y1132723D01*
X1196725Y1130184D01*
X1189108D01*
X1194186D02*
X1199265Y1125106D01*
X1204343Y1127645D02*
X1206882Y1125106D01*
X1211961D01*
X1214500Y1127645D01*
Y1137802D01*
X1211961Y1140341D01*
X1206882D01*
X1204343Y1137802D01*
Y1135263D01*
X1206882Y1132723D01*
X1214500D01*
X1217269Y1169851D02*
Y1180008D01*
X1214730Y1182547D01*
X1209651D01*
X1207112Y1180008D01*
Y1169851D01*
X1209651Y1167312D01*
X1214730D01*
X1212190Y1172390D02*
X1217269Y1167312D01*
X1214730D02*
X1217269Y1169851D01*
X1222347Y1167312D02*
X1227425D01*
X1224886D01*
Y1182547D01*
X1222347Y1180008D01*
X1254010Y1125358D02*
Y1140593D01*
X1261628D01*
X1264167Y1138054D01*
Y1132975D01*
X1261628Y1130436D01*
X1254010D01*
X1259088D02*
X1264167Y1125358D01*
X1269245D02*
X1274323D01*
X1271784D01*
Y1140593D01*
X1269245Y1138054D01*
X1281941D02*
X1284480Y1140593D01*
X1289559D01*
X1292098Y1138054D01*
Y1127897D01*
X1289559Y1125358D01*
X1284480D01*
X1281941Y1127897D01*
Y1138054D01*
X1217665Y1109463D02*
Y1119620D01*
X1215126Y1122159D01*
X1210047D01*
X1207508Y1119620D01*
Y1109463D01*
X1210047Y1106924D01*
X1215126D01*
X1212586Y1112002D02*
X1217665Y1106924D01*
X1215126D02*
X1217665Y1109463D01*
X1232900Y1106924D02*
X1222743D01*
X1232900Y1117081D01*
Y1119620D01*
X1230361Y1122159D01*
X1225282D01*
X1222743Y1119620D01*
X1431828Y1089205D02*
Y1076509D01*
X1434367Y1073970D01*
X1439445D01*
X1441985Y1076509D01*
Y1089205D01*
X1447063Y1086666D02*
X1449602Y1089205D01*
X1454681D01*
X1457220Y1086666D01*
Y1084127D01*
X1454681Y1081588D01*
X1452141D01*
X1454681D01*
X1457220Y1079048D01*
Y1076509D01*
X1454681Y1073970D01*
X1449602D01*
X1447063Y1076509D01*
X1470693Y1002470D02*
X1468154Y1005009D01*
X1463075D01*
X1460536Y1002470D01*
Y992313D01*
X1463075Y989774D01*
X1468154D01*
X1470693Y992313D01*
X1475771Y989774D02*
X1480849D01*
X1478310D01*
Y1005009D01*
X1475771Y1002470D01*
X1488467Y989774D02*
X1493545D01*
X1491006D01*
Y1005009D01*
X1488467Y1002470D01*
X1442520Y1026362D02*
Y1041597D01*
X1450137D01*
X1452677Y1039058D01*
Y1033979D01*
X1450137Y1031440D01*
X1442520D01*
X1447598D02*
X1452677Y1026362D01*
X1457755D02*
X1462833D01*
X1460294D01*
Y1041597D01*
X1457755Y1039058D01*
X1470451Y1026362D02*
X1475529D01*
X1472990D01*
Y1041597D01*
X1470451Y1039058D01*
X358154Y989948D02*
Y1005183D01*
X365772D01*
X368311Y1002644D01*
Y997566D01*
X365772Y995026D01*
X358154D01*
X363232D02*
X368311Y989948D01*
X373389D02*
X378467D01*
X375928D01*
Y1005183D01*
X373389Y1002644D01*
X386085D02*
X388624Y1005183D01*
X393703D01*
X396242Y1002644D01*
Y1000105D01*
X393703Y997566D01*
X391163D01*
X393703D01*
X396242Y995026D01*
Y992487D01*
X393703Y989948D01*
X388624D01*
X386085Y992487D01*
X959310Y1097770D02*
Y1113005D01*
X966927D01*
X969467Y1110466D01*
Y1105388D01*
X966927Y1102848D01*
X959310D01*
X964388D02*
X969467Y1097770D01*
X974545D02*
X979623D01*
X977084D01*
Y1113005D01*
X974545Y1110466D01*
X997398Y1097770D02*
X987241D01*
X997398Y1107927D01*
Y1110466D01*
X994858Y1113005D01*
X989780D01*
X987241Y1110466D01*
X310752Y1085476D02*
Y1100711D01*
X318370D01*
X320909Y1098172D01*
Y1093093D01*
X318370Y1090554D01*
X310752D01*
X336144Y1085476D02*
X325987D01*
X336144Y1095633D01*
Y1098172D01*
X333605Y1100711D01*
X328526D01*
X325987Y1098172D01*
X979040Y1117540D02*
Y1132775D01*
X986657D01*
X989197Y1130236D01*
Y1125157D01*
X986657Y1122618D01*
X979040D01*
X984118D02*
X989197Y1117540D01*
X994275D02*
X999353D01*
X996814D01*
Y1132775D01*
X994275Y1130236D01*
X1017128Y1132775D02*
X1012049Y1130236D01*
X1006971Y1125157D01*
Y1120079D01*
X1009510Y1117540D01*
X1014588D01*
X1017128Y1120079D01*
Y1122618D01*
X1014588Y1125157D01*
X1006971D01*
X625088Y971560D02*
Y986795D01*
X632705D01*
X635245Y984256D01*
Y979177D01*
X632705Y976638D01*
X625088D01*
X630166D02*
X635245Y971560D01*
X650480D02*
X640323D01*
X650480Y981717D01*
Y984256D01*
X647941Y986795D01*
X642862D01*
X640323Y984256D01*
X655558D02*
X658097Y986795D01*
X663176D01*
X665715Y984256D01*
Y974099D01*
X663176Y971560D01*
X658097D01*
X655558Y974099D01*
Y984256D01*
X625016Y990048D02*
Y1005283D01*
X632634D01*
X635173Y1002744D01*
Y997665D01*
X632634Y995126D01*
X625016D01*
X630094D02*
X635173Y990048D01*
X640251D02*
X645329D01*
X642790D01*
Y1005283D01*
X640251Y1002744D01*
X652947Y992587D02*
X655486Y990048D01*
X660564D01*
X663104Y992587D01*
Y1002744D01*
X660564Y1005283D01*
X655486D01*
X652947Y1002744D01*
Y1000205D01*
X655486Y997665D01*
X663104D01*
X625142Y1008612D02*
Y1023847D01*
X632760D01*
X635299Y1021308D01*
Y1016229D01*
X632760Y1013690D01*
X625142D01*
X630220D02*
X635299Y1008612D01*
X640377D02*
X645455D01*
X642916D01*
Y1023847D01*
X640377Y1021308D01*
X653073D02*
X655612Y1023847D01*
X660691D01*
X663230Y1021308D01*
Y1018769D01*
X660691Y1016229D01*
X663230Y1013690D01*
Y1011151D01*
X660691Y1008612D01*
X655612D01*
X653073Y1011151D01*
Y1013690D01*
X655612Y1016229D01*
X653073Y1018769D01*
Y1021308D01*
X655612Y1016229D02*
X660691D01*
X625156Y1028036D02*
Y1043271D01*
X632774D01*
X635313Y1040732D01*
Y1035654D01*
X632774Y1033114D01*
X625156D01*
X630234D02*
X635313Y1028036D01*
X640391D02*
X645469D01*
X642930D01*
Y1043271D01*
X640391Y1040732D01*
X653087Y1043271D02*
X663244D01*
Y1040732D01*
X653087Y1030575D01*
Y1028036D01*
X1067816Y931418D02*
Y946653D01*
X1075434D01*
X1077973Y944114D01*
Y939035D01*
X1075434Y936496D01*
X1067816D01*
X1093208Y946653D02*
X1083051D01*
Y939035D01*
X1088129Y941575D01*
X1090669D01*
X1093208Y939035D01*
Y933957D01*
X1090669Y931418D01*
X1085590D01*
X1083051Y933957D01*
X433324Y1241806D02*
Y1257041D01*
X440942D01*
X443481Y1254502D01*
Y1249424D01*
X440942Y1246884D01*
X433324D01*
X448559Y1254502D02*
X451098Y1257041D01*
X456177D01*
X458716Y1254502D01*
Y1251963D01*
X456177Y1249424D01*
X453637D01*
X456177D01*
X458716Y1246884D01*
Y1244345D01*
X456177Y1241806D01*
X451098D01*
X448559Y1244345D01*
X1067816Y1241806D02*
Y1257041D01*
X1075434D01*
X1077973Y1254502D01*
Y1249424D01*
X1075434Y1246884D01*
X1067816D01*
X1090669Y1241806D02*
Y1257041D01*
X1083051Y1249424D01*
X1093208D01*
X326500Y1245220D02*
G03*
X296500Y1215220I0J-30000D01*
G01*
X1556500D02*
G03*
X1526500Y1245220I-30000J0D01*
G01*
Y885220D02*
G03*
X1556500Y915220I0J30000D01*
G01*
X296500D02*
G03*
X326500Y885220I30000J0D01*
G01*
X296500Y915220D02*
Y1215220D01*
X326500Y1244970D02*
X1526500D01*
X326500Y885220D02*
X1526500D01*
X1556500Y915220D02*
Y1215220D01*
D16*
X1416250Y1095230D02*
D03*
D17*
X1445750Y1115850D02*
X1446750Y1116850D01*
X1445750Y1114850D02*
X1447750Y1116850D01*
X1445750Y1113850D02*
X1448750Y1116850D01*
X1445750Y1112850D02*
X1449750Y1116850D01*
X1445750Y1111850D02*
X1450750Y1116850D01*
X1445750Y1110850D02*
X1451750Y1116850D01*
X1445750Y1109850D02*
X1452750Y1116850D01*
X1445750Y1108850D02*
X1453750Y1116850D01*
X1445750Y1107850D02*
X1454750Y1116850D01*
X1445750Y1106850D02*
X1455750Y1116850D01*
X1445750Y1087650D02*
X1458750D01*
Y1116850D01*
X1445750D02*
X1458750D01*
X1445750Y1087650D02*
Y1116850D01*
M02*
