G04*
G04 #@! TF.GenerationSoftware,Altium Limited,Altium Designer,19.0.14 (431)*
G04*
G04 Layer_Physical_Order=2*
G04 Layer_Color=16711680*
%FSLAX44Y44*%
%MOMM*%
G71*
G01*
G75*
%ADD11C,0.2500*%
%ADD12C,0.3000*%
%ADD14C,0.2000*%
%ADD15C,0.1270*%
%ADD17R,0.8000X0.9000*%
%ADD18R,0.9000X0.8000*%
%ADD62C,0.1520*%
%ADD63C,0.5000*%
%ADD64C,0.4500*%
%ADD65C,0.1000*%
G04:AMPARAMS|DCode=67|XSize=2.15mm|YSize=1.05mm|CornerRadius=0.525mm|HoleSize=0mm|Usage=FLASHONLY|Rotation=180.000|XOffset=0mm|YOffset=0mm|HoleType=Round|Shape=RoundedRectangle|*
%AMROUNDEDRECTD67*
21,1,2.1500,0.0000,0,0,180.0*
21,1,1.1000,1.0500,0,0,180.0*
1,1,1.0500,-0.5500,0.0000*
1,1,1.0500,0.5500,0.0000*
1,1,1.0500,0.5500,0.0000*
1,1,1.0500,-0.5500,0.0000*
%
%ADD67ROUNDEDRECTD67*%
%ADD68C,1.0000*%
%ADD69C,1.5000*%
%ADD70R,1.5000X1.5000*%
%ADD71R,1.5000X1.5000*%
%ADD72C,0.8001*%
%ADD73C,0.5000*%
%ADD74C,3.0000*%
%ADD75R,2.5000X0.4000*%
%ADD76R,1.0000X1.0000*%
%ADD77R,0.5300X0.9700*%
%ADD78R,4.9500X4.9500*%
%ADD79R,0.8400X0.2200*%
%ADD80R,0.2200X0.8400*%
%ADD81R,1.3500X1.3500*%
%ADD82R,1.6000X0.8000*%
%ADD83R,3.0000X2.1000*%
%ADD84R,0.8000X0.8000*%
%ADD85R,1.3000X1.5499*%
%ADD86C,0.4000*%
%ADD87C,0.0847*%
D11*
X1128700Y1084050D02*
X1137000Y1075750D01*
X1128700Y1084050D02*
Y1091300D01*
X1059800Y1111300D02*
X1086250D01*
X1094250Y1119300D01*
X1095363Y1118186D02*
X1104751Y1127574D01*
X1104323Y1119300D02*
X1115323D01*
X1099550Y1124600D02*
X1102250Y1127300D01*
X1115323Y1103300D02*
Y1119300D01*
X1104751Y1127574D02*
X1115323D01*
X1102250Y1127300D02*
Y1153750D01*
X1115323Y1119300D02*
Y1127574D01*
Y1119300D02*
X1128700D01*
X1094250D02*
X1095363Y1118186D01*
X1115323Y1103300D02*
X1128700D01*
X1128950D01*
X1155000Y1075750D02*
X1155250Y1076000D01*
X1137000Y1075750D02*
X1137500D01*
X1128700Y1091300D02*
Y1095300D01*
X1260480Y1220470D02*
X1285000Y1195950D01*
X1256900Y1220470D02*
X1260480D01*
X1301000Y1193750D02*
Y1203169D01*
X1307051Y1209220D01*
Y1219821D01*
X1307700Y1220470D01*
X1291819Y1194931D02*
X1293000Y1193750D01*
X1291819Y1194931D02*
Y1202350D01*
X1284692Y1209477D02*
X1291819Y1202350D01*
X1284692Y1209477D02*
Y1218078D01*
X1282300Y1220470D02*
X1284692Y1218078D01*
X1333100Y1220050D02*
Y1220470D01*
X1309000Y1195950D02*
X1333100Y1220050D01*
X1309000Y1193750D02*
Y1195950D01*
X1285000Y1193750D02*
Y1195950D01*
X1394000Y1205170D02*
X1409300Y1220470D01*
X1394000Y1193750D02*
Y1205170D01*
X1384950Y1194800D02*
X1386000Y1193750D01*
X1384950Y1194800D02*
Y1219420D01*
X1383900Y1220470D02*
X1384950Y1219420D01*
X1376620Y1195130D02*
X1378000Y1193750D01*
X1376620Y1195130D02*
Y1202350D01*
X1358500Y1220470D02*
X1376620Y1202350D01*
X1199000Y1193750D02*
Y1202969D01*
X1205251Y1209220D01*
Y1219621D01*
X1206100Y1220470D01*
X1231500Y1220450D02*
Y1220470D01*
X1207000Y1195950D02*
X1231500Y1220450D01*
X1207000Y1193750D02*
Y1195950D01*
X1183000Y1193750D02*
Y1195950D01*
X1158480Y1220470D02*
X1183000Y1195950D01*
X1155300Y1220470D02*
X1158480D01*
X878000Y1193750D02*
Y1195950D01*
X853480Y1220470D02*
X878000Y1195950D01*
X850900Y1220470D02*
X853480D01*
X793000Y1195000D02*
X793006Y1195006D01*
Y1203600D01*
X798626Y1209220D01*
Y1218996D01*
X800100Y1220470D01*
X785000Y1195000D02*
Y1210170D01*
X774700Y1220470D02*
X785000Y1210170D01*
X801000Y1195000D02*
Y1197200D01*
X824270Y1220470D01*
X825500D01*
X777000Y1195000D02*
Y1197200D01*
X775600Y1198600D02*
X777000Y1197200D01*
X771170Y1198600D02*
X775600D01*
X749300Y1220470D02*
X771170Y1198600D01*
X689000Y1193750D02*
X689581Y1194331D01*
Y1202350D01*
X696451Y1209220D01*
Y1218421D01*
X698500Y1220470D01*
X681000Y1193750D02*
Y1202569D01*
X674349Y1209220D02*
X681000Y1202569D01*
X674349Y1209220D02*
Y1219221D01*
X673100Y1220470D02*
X674349Y1219221D01*
X697000Y1193750D02*
Y1195950D01*
X721520Y1220470D01*
X723900D01*
X673000Y1193750D02*
Y1195950D01*
X648480Y1220470D02*
X673000Y1195950D01*
X647700Y1220470D02*
X648480D01*
X621520D02*
X622300D01*
X597000Y1195950D02*
X621520Y1220470D01*
X597000Y1193750D02*
Y1195950D01*
X573000Y1193750D02*
Y1195950D01*
X548480Y1220470D02*
X573000Y1195950D01*
X546100Y1220470D02*
X548480D01*
X589000Y1193750D02*
Y1202569D01*
X595651Y1209220D01*
Y1219221D01*
X596900Y1220470D01*
X580419Y1194331D02*
X581000Y1193750D01*
X580419Y1194331D02*
Y1202350D01*
X573549Y1209220D02*
X580419Y1202350D01*
X573549Y1209220D02*
Y1218421D01*
X571500Y1220470D02*
X573549Y1218421D01*
X494851Y1210221D02*
Y1220021D01*
X489000Y1204370D02*
X494851Y1210221D01*
X489000Y1193750D02*
Y1204370D01*
X481000Y1193750D02*
Y1205000D01*
X469900Y1216100D02*
X481000Y1205000D01*
X469900Y1216100D02*
Y1220470D01*
X465630Y1209370D02*
X473000Y1202000D01*
X455600Y1209370D02*
X465630D01*
X444500Y1220470D02*
X455600Y1209370D01*
X497000Y1201000D02*
X505000Y1209000D01*
X497000Y1193750D02*
Y1201000D01*
X516500Y1209000D02*
X520700Y1213200D01*
X505000Y1209000D02*
X516500D01*
X473000Y1193750D02*
Y1202000D01*
X520700Y1213200D02*
Y1220470D01*
X494851Y1220021D02*
X495300Y1220470D01*
D12*
X1509750Y1068000D02*
X1526620D01*
X1509250Y1067500D02*
X1509750Y1068000D01*
X1509250Y1052000D02*
X1526620D01*
X1509250Y1052000D02*
X1509250Y1052000D01*
X1495250Y1041708D02*
Y1052000D01*
X1489542Y1036000D02*
X1495250Y1041708D01*
X1475000Y1036000D02*
X1489542D01*
D14*
X1129026Y1110974D02*
X1153276D01*
X1128725Y1111275D02*
X1129026Y1110974D01*
X1153276D02*
X1157250Y1107000D01*
X1128700Y1115300D02*
X1146300D01*
X1143074Y1088574D02*
X1143500Y1089000D01*
X1138574Y1088574D02*
X1143074D01*
X1138000Y1088000D02*
X1138574Y1088574D01*
X1143500Y1089000D02*
X1149000D01*
X1117226Y1048419D02*
X1255425Y910220D01*
X1130476Y1056704D02*
X1202475Y984706D01*
X1207714D01*
X1282200Y910220D01*
X1117226Y1048419D02*
Y1068323D01*
X1118250Y1069346D01*
Y1084850D01*
X1122250Y1065105D02*
X1130476Y1056879D01*
Y1056704D02*
Y1056879D01*
X1122250Y1065105D02*
Y1084850D01*
Y1050500D02*
Y1058000D01*
Y1050500D02*
X1135000Y1037750D01*
X1255425Y910220D02*
X1256800D01*
X1403123Y1129000D02*
Y1139099D01*
X1120350Y1177350D02*
X1183000D01*
X770050Y1067950D02*
X817000D01*
X1079570Y1195000D02*
X1087000D01*
X692501Y914499D02*
X700000Y907000D01*
X692501Y914499D02*
Y927799D01*
X1080000Y1030000D02*
Y1047000D01*
X1075000Y1052000D02*
X1080000Y1047000D01*
X1350000Y1065000D02*
Y1110000D01*
X1174000Y1050250D02*
X1213395D01*
X1233919Y1029726D02*
X1256726D01*
X1213395Y1050250D02*
X1233919Y1029726D01*
X1256726D02*
X1317000Y1090000D01*
X1265534Y1025000D02*
X1324784Y1084250D01*
X1225000Y1025000D02*
X1265534D01*
X1207002Y1042998D02*
X1225000Y1025000D01*
X1011976Y1074024D02*
X1016000Y1070000D01*
X478976Y1074024D02*
X1011976D01*
X473000Y1080000D02*
X478976Y1074024D01*
X769000Y1069000D02*
X770050Y1067950D01*
X403000Y1028464D02*
X436536Y1062000D01*
X403000Y1012801D02*
Y1028464D01*
X397501Y1007301D02*
X403000Y1012801D01*
X545001Y1042997D02*
X557002Y1054998D01*
X545001Y1007301D02*
Y1042997D01*
X557002Y1054998D02*
X816998D01*
X436536Y1062000D02*
X817000D01*
X1403000Y1129000D02*
X1403123D01*
X1543000Y1068380D02*
Y1074000D01*
X1542620Y1068000D02*
X1543000Y1068380D01*
X1535000Y1082000D02*
X1543000Y1074000D01*
X1473511Y1082000D02*
X1535000D01*
X1426511Y1129000D02*
X1473511Y1082000D01*
X1403123Y1129000D02*
X1426511D01*
X1324784Y1084250D02*
Y1089534D01*
X1325000Y1089750D01*
X1172998Y1042998D02*
X1207002D01*
X1492427Y1145726D02*
Y1147573D01*
X1484000Y1156000D02*
X1492427Y1147573D01*
X1419000Y1155000D02*
Y1208000D01*
X1407000Y1143000D02*
X1419000Y1155000D01*
X1455750Y1163000D02*
X1456250Y1163500D01*
X1442500Y1163000D02*
X1455750D01*
X1403123Y1139099D02*
X1407000Y1142975D01*
Y1143000D01*
X1392976Y1138976D02*
Y1175226D01*
X1394000Y1176250D01*
X1381300Y1127300D02*
X1392976Y1138976D01*
X1484997Y1131998D02*
X1485311Y1132311D01*
X1511936D01*
X1512250Y1132625D01*
X1487000Y1139000D02*
X1487125Y1139125D01*
X1512250D01*
X907400Y978000D02*
X948000D01*
X397501Y1007301D02*
X397802Y1007000D01*
X420000D01*
X397501Y927799D02*
Y1007301D01*
X545001D02*
X545302Y1007000D01*
X566000D01*
X545001Y927799D02*
Y1007301D01*
X692501Y985000D02*
Y1007301D01*
Y927799D02*
Y985000D01*
X700000D02*
X708000Y993000D01*
X692501Y985000D02*
X700000D01*
X777750Y981000D02*
X787750Y991000D01*
X792130D01*
X795130Y994000D01*
X779000Y967000D02*
X786500Y974500D01*
X795230D01*
X774700Y954000D02*
X776200Y955500D01*
X795230D01*
X775000Y940000D02*
X777750Y937250D01*
X795230D01*
X837000D02*
X837250Y937500D01*
X811230Y937250D02*
X837000D01*
Y955500D02*
X837250Y955750D01*
X811230Y955500D02*
X837000D01*
X811230Y974500D02*
X837250D01*
X837250Y994000D02*
X837250Y994000D01*
X811130Y994000D02*
X837250D01*
X1243000Y1083000D02*
X1267500D01*
X1268500Y1084000D01*
X1274000D01*
X1080000Y1030000D02*
X1086250Y1036250D01*
Y1084850D01*
X1155700Y1123300D02*
X1160000Y1119000D01*
X1128700Y1123300D02*
X1155700D01*
X1145700Y1107300D02*
X1154000Y1099000D01*
X1128700Y1107300D02*
X1145700D01*
X1139700Y1099300D02*
X1140000Y1099000D01*
X1128700Y1099300D02*
X1139700D01*
X1114250Y1027370D02*
Y1084850D01*
Y1027370D02*
X1231400Y910220D01*
X1110250Y1005970D02*
Y1084850D01*
Y1005970D02*
X1206000Y910220D01*
X1106250Y984570D02*
Y1084850D01*
Y984570D02*
X1180600Y910220D01*
X1102250Y963170D02*
Y1084850D01*
Y963170D02*
X1155200Y910220D01*
X1098250Y954000D02*
Y1084850D01*
Y954000D02*
X1129800Y922450D01*
Y910220D02*
Y922450D01*
X1104500Y910320D02*
Y939000D01*
X1104400Y910220D02*
X1104500Y910320D01*
X1094250Y949250D02*
X1104500Y939000D01*
X1094250Y949250D02*
Y1084850D01*
X1079000Y910220D02*
X1090250Y921470D01*
Y1084850D01*
X1128700Y1127300D02*
X1381300D01*
X1128700Y1131300D02*
X1376620D01*
X1386000Y1140680D01*
Y1176250D01*
X1377763Y1141000D02*
Y1176013D01*
X1378000Y1176250D01*
X1372063Y1135300D02*
X1377763Y1141000D01*
X1128700Y1135300D02*
X1372063D01*
X1145000Y1151000D02*
X1279000D01*
X1142250Y1153750D02*
X1145000Y1151000D01*
X1122250Y1153750D02*
X1142250D01*
X1150500Y1171000D02*
X1158500Y1163000D01*
X1120000Y1171000D02*
X1150500D01*
X1110350Y1161350D02*
X1120000Y1171000D01*
X1121100Y1166750D02*
X1147000D01*
X1114350Y1160000D02*
X1121100Y1166750D01*
X1147000D02*
X1155031Y1158719D01*
X1144650Y1161350D02*
X1151499Y1154501D01*
X1120981Y1161350D02*
X1144650D01*
X1118350Y1158719D02*
X1120981Y1161350D01*
X1212550Y1139000D02*
X1293000D01*
X1212250Y1139300D02*
X1212550Y1139000D01*
X1128700Y1139300D02*
X1212250D01*
X1293000Y1139000D02*
X1309000Y1155000D01*
Y1176250D01*
X1301000Y1155506D02*
Y1176250D01*
X1288794Y1143300D02*
X1301000Y1155506D01*
X1128700Y1143300D02*
X1288794D01*
X1293000Y1155625D02*
Y1176250D01*
X1284675Y1147300D02*
X1293000Y1155625D01*
X1128700Y1147300D02*
X1284675D01*
X1279000Y1151000D02*
X1284000Y1156000D01*
Y1175250D01*
X1285000Y1176250D01*
X1158500Y1163000D02*
X1183500D01*
X1189350Y1168850D01*
Y1174600D01*
X1191000Y1176250D01*
X1155031Y1158719D02*
X1188000D01*
X1197681Y1168400D01*
Y1174930D01*
X1199000Y1176250D01*
X1151499Y1154501D02*
X1194501D01*
X1207000Y1167000D02*
Y1176250D01*
X1194501Y1154501D02*
X1207000Y1167000D01*
X1118350Y1153850D02*
Y1158719D01*
X1114350Y1153850D02*
Y1160000D01*
X1110350Y1153850D02*
Y1161350D01*
X1106350Y1163350D02*
X1120350Y1177350D01*
X1106350Y1153850D02*
Y1163350D01*
X1098250Y1161250D02*
X1107350Y1170350D01*
X1094250Y1163250D02*
X1100400Y1169400D01*
Y1176650D01*
X1101000Y1177250D01*
X1093000Y1171000D02*
Y1177250D01*
X1090250Y1168250D02*
X1093000Y1171000D01*
X1090250Y1153750D02*
Y1168250D01*
X1086250Y1153750D02*
Y1176000D01*
X1085000Y1177250D02*
X1086250Y1176000D01*
X1109000Y1194000D02*
Y1194750D01*
Y1199570D02*
X1129900Y1220470D01*
X1109000Y1197000D02*
Y1199570D01*
X1101000Y1216970D02*
X1104500Y1220470D01*
X1101000Y1197000D02*
Y1216970D01*
X1079100Y1220470D02*
X1092000Y1207570D01*
Y1198000D02*
Y1207570D01*
X1075000Y1174000D02*
X1082250Y1166750D01*
X1004250Y1174000D02*
X1075000D01*
X1002000Y1176250D02*
X1004250Y1174000D01*
X1082250Y1153750D02*
Y1166750D01*
X1183000Y1176250D02*
Y1177350D01*
X1118250Y1153750D02*
X1118350Y1153850D01*
X1114250Y1153750D02*
X1114350Y1153850D01*
X1110250Y1153750D02*
X1110350Y1153850D01*
X1106250Y1153750D02*
X1106350Y1153850D01*
X1107350Y1170350D02*
Y1175600D01*
X1109000Y1177250D01*
X1098250Y1153750D02*
Y1161250D01*
X1094250Y1153750D02*
Y1163250D01*
X1084350Y1176600D02*
X1085000Y1177250D01*
X1086250Y1153750D02*
X1086350Y1153850D01*
X981500Y1161000D02*
X1068150D01*
X978000Y1164500D02*
X981500Y1161000D01*
X978000Y1164500D02*
Y1176250D01*
X1005695Y1168876D02*
X1005819Y1169000D01*
X998305Y1168876D02*
X1005695D01*
X998180Y1169000D02*
X998305Y1168876D01*
X994000Y1171000D02*
X996000Y1169000D01*
X994000Y1171000D02*
Y1176250D01*
X996000Y1169000D02*
X998180D01*
X1071250Y1165000D02*
X1074250Y1162000D01*
X989000Y1165000D02*
X1071250D01*
X986000Y1168000D02*
X989000Y1165000D01*
X1068150Y1161000D02*
X1070150Y1159000D01*
X1005819Y1169000D02*
X1074250D01*
X1078250Y1165000D01*
Y1153750D02*
Y1165000D01*
X1074250Y1153750D02*
Y1162000D01*
X986000Y1168000D02*
Y1176250D01*
X1070150Y1153850D02*
Y1159000D01*
Y1153850D02*
X1070250Y1153750D01*
X1191000Y1193750D02*
Y1210170D01*
X1180700Y1220470D02*
X1191000Y1210170D01*
X1054100Y1220470D02*
X1079570Y1195000D01*
X1026520Y1220470D02*
X1028700D01*
X1002000Y1195950D02*
X1026520Y1220470D01*
X1002000Y1193750D02*
Y1195950D01*
X994000Y1193750D02*
Y1201801D01*
X1002169Y1209970D01*
Y1219339D01*
X1003300Y1220470D01*
X986000Y1193750D02*
Y1202401D01*
X978431Y1209970D02*
X986000Y1202401D01*
X978431Y1209970D02*
Y1219939D01*
X977900Y1220470D02*
X978431Y1219939D01*
X978000Y1193750D02*
Y1195950D01*
X953480Y1220470D02*
X978000Y1195950D01*
X952500Y1220470D02*
X953480D01*
X894000Y1193750D02*
Y1202601D01*
X901369Y1209970D01*
Y1220139D01*
X901700Y1220470D01*
X886000Y1193750D02*
Y1210770D01*
X876300Y1220470D02*
X886000Y1210770D01*
X926520Y1220470D02*
X927100D01*
X902000Y1195950D02*
X926520Y1220470D01*
X902000Y1193750D02*
Y1195950D01*
X1065329Y1152828D02*
X1066250Y1153750D01*
X905172Y1152828D02*
X1065329D01*
X902000Y1156000D02*
X905172Y1152828D01*
X902000Y1156000D02*
Y1176250D01*
X497000Y1092000D02*
X502000Y1087000D01*
X497000Y1092000D02*
Y1176250D01*
X489000Y1088500D02*
X495000Y1082500D01*
X489000Y1088500D02*
Y1176250D01*
X481000Y1084000D02*
X487000Y1078000D01*
X481000Y1084000D02*
Y1176250D01*
X473000Y1080000D02*
Y1176250D01*
X1070150Y1084750D02*
X1070250Y1084850D01*
X1070150Y1079881D02*
Y1084750D01*
X1066769Y1076500D02*
X1070150Y1079881D01*
X1048500Y1076500D02*
X1066769D01*
X1042500Y1082500D02*
X1048500Y1076500D01*
X1022000Y1087000D02*
X1026500Y1082500D01*
X1042500D01*
X1074250Y1076750D02*
Y1084850D01*
X1023167Y1078333D02*
X1041500D01*
X1069500Y1072000D02*
X1074250Y1076750D01*
X1047500Y1072000D02*
X1069500D01*
X1041500Y1078000D02*
X1047500Y1072000D01*
X1019000Y1082500D02*
X1023167Y1078333D01*
X495000Y1082500D02*
X1019000D01*
X1082250Y1068750D02*
Y1084850D01*
X1016000Y1070000D02*
X1037000D01*
X1076000Y1062500D02*
X1082250Y1068750D01*
X1044500Y1062500D02*
X1076000D01*
X1037000Y1070000D02*
X1044500Y1062500D01*
X1078250Y1071500D02*
Y1084850D01*
X1019167Y1074167D02*
X1039000D01*
X1074250Y1067500D02*
X1078250Y1071500D01*
X1045500Y1067500D02*
X1074250D01*
X1039000Y1074000D02*
X1045500Y1067500D01*
X1015333Y1078000D02*
X1019167Y1074167D01*
X487000Y1078000D02*
X1015333D01*
X502000Y1087000D02*
X1022000D01*
X1048000D02*
X1050150Y1084850D01*
X1029300Y1087000D02*
X1048000D01*
X1025000Y1091300D02*
X1029300Y1087000D01*
X882950Y1139300D02*
X1059800D01*
X878000Y1144250D02*
X882950Y1139300D01*
X878000Y1144250D02*
Y1176250D01*
X900000Y1147300D02*
X1059800D01*
X894000Y1153300D02*
X900000Y1147300D01*
X894000Y1153300D02*
Y1176250D01*
X890000Y1143300D02*
X1059800D01*
X886000Y1147300D02*
X890000Y1143300D01*
X886000Y1147300D02*
Y1176250D01*
X597000Y1108800D02*
X602500Y1103300D01*
X597000Y1108800D02*
Y1176250D01*
X592414Y1099300D02*
X602500D01*
X589000Y1102714D02*
X592414Y1099300D01*
X589000Y1102714D02*
Y1176250D01*
X605000Y1095300D02*
X1028700Y1095300D01*
X605000D02*
X605000Y1095300D01*
X585000Y1095300D02*
X605000D01*
X581000Y1099300D02*
X585000Y1095300D01*
X581000Y1099300D02*
Y1176250D01*
X580914Y1091300D02*
X1025000D01*
X573000Y1099214D02*
X580914Y1091300D01*
X573000Y1099214D02*
Y1176250D01*
X1050150Y1084850D02*
X1066250D01*
X602500Y1103300D02*
X1036700Y1103300D01*
X602500Y1099300D02*
X1032700Y1099300D01*
X1036700Y1103300D02*
X1040700Y1099300D01*
X1059800D01*
X1028700Y1095300D02*
X1032700Y1091300D01*
X1059800D01*
X1032700Y1099300D02*
X1036700Y1095300D01*
X1059800D01*
X1047700Y1107300D02*
X1059800D01*
X1043700Y1111300D02*
X1047700Y1107300D01*
X689000Y1111300D02*
X1043700D01*
X700700Y1119300D02*
X1059800D01*
X697000Y1123000D02*
X700700Y1119300D01*
X697000Y1123000D02*
Y1176250D01*
X695000Y1115300D02*
X1059800D01*
X689000Y1121300D02*
X695000Y1115300D01*
X689000Y1121300D02*
Y1176250D01*
X681000Y1119300D02*
X689000Y1111300D01*
X681000Y1119300D02*
Y1176250D01*
X673000Y1115300D02*
X681000Y1107300D01*
X673000Y1115300D02*
Y1176250D01*
X681000Y1107300D02*
X1040000D01*
X1044000Y1103300D01*
X1059800D01*
X804700Y1135300D02*
X1059800D01*
X801000Y1139000D02*
X804700Y1135300D01*
X801000Y1139000D02*
Y1177500D01*
X800000Y1131300D02*
X1059800D01*
X793000Y1138300D02*
X800000Y1131300D01*
X793000Y1138300D02*
Y1177500D01*
Y1127300D02*
X1059800D01*
X785000Y1135300D02*
X793000Y1127300D01*
X785000Y1135300D02*
Y1177500D01*
X789700Y1123300D02*
X1059800D01*
X777000Y1136000D02*
X789700Y1123300D01*
X777000Y1136000D02*
Y1177500D01*
D15*
X1097900Y1116800D02*
X1113900Y1100800D01*
X1097900Y1116800D02*
X1105900Y1124800D01*
X1089900Y1108800D02*
X1097900Y1116800D01*
D17*
X1495250Y1067500D02*
D03*
X1509250D02*
D03*
X1509250Y1052000D02*
D03*
X1495250D02*
D03*
X851250Y994000D02*
D03*
X837250D02*
D03*
X851250Y974500D02*
D03*
X837250D02*
D03*
X851250Y955750D02*
D03*
X837250D02*
D03*
X851250Y937500D02*
D03*
X837250D02*
D03*
D18*
X1137500Y1075750D02*
D03*
Y1061750D02*
D03*
X1155250Y1076000D02*
D03*
Y1062000D02*
D03*
D62*
X1146300Y1115300D02*
X1146998Y1115998D01*
D63*
X1154875Y1075875D02*
X1155000Y1075750D01*
X1178600Y1029900D02*
X1204900D01*
X1205000Y1030000D01*
X1332000Y1057000D02*
X1377000D01*
X1329000Y1054000D02*
X1332000Y1057000D01*
X1249000Y1054000D02*
X1262000D01*
X1226000Y1077000D02*
X1249000Y1054000D01*
X1226000Y1077000D02*
Y1111499D01*
X1243250Y1044000D02*
X1259000D01*
X1216000Y1071250D02*
X1243250Y1044000D01*
X1216000Y1071250D02*
Y1111499D01*
X1194750Y1076000D02*
X1236000Y1034750D01*
X1155250Y1076000D02*
X1194750D01*
X1369111Y1049500D02*
X1378611Y1040000D01*
X1339000Y1049500D02*
X1369111D01*
X797000Y1048000D02*
X908000D01*
X958000Y998000D01*
X1137625Y1075875D02*
X1154875D01*
X1137500Y1075750D02*
X1137625Y1075875D01*
X1492000Y985625D02*
X1492125Y985750D01*
X1505500D01*
D64*
X1398000Y1138147D02*
Y1149000D01*
X1396726Y1136873D02*
X1398000Y1138147D01*
X1396726Y1126401D02*
Y1136873D01*
Y1126401D02*
X1397904Y1125223D01*
Y1123096D02*
Y1125223D01*
Y1123096D02*
X1398000Y1123000D01*
D65*
X1128700Y1111300D02*
X1128725Y1111275D01*
D67*
X1542520Y1161100D02*
D03*
X1542620Y1104500D02*
D03*
D68*
X1079650D02*
D03*
X1089650D02*
D03*
X1099650D02*
D03*
X1109650D02*
D03*
Y1114500D02*
D03*
X1099650D02*
D03*
X1089650D02*
D03*
X1079650D02*
D03*
Y1124500D02*
D03*
X1089650D02*
D03*
X1099650D02*
D03*
X1109650D02*
D03*
Y1134500D02*
D03*
X1099650D02*
D03*
X1089650D02*
D03*
X1079650D02*
D03*
D69*
X1409300Y1220470D02*
D03*
X1383900D02*
D03*
X1358500D02*
D03*
X1333100D02*
D03*
X1307700D02*
D03*
X1282300D02*
D03*
X1256900D02*
D03*
X1231500D02*
D03*
X1206100D02*
D03*
X1180700D02*
D03*
X1155300D02*
D03*
X1129900D02*
D03*
X1104500D02*
D03*
X1104400Y910220D02*
D03*
X1282200D02*
D03*
X1256800D02*
D03*
X1231400D02*
D03*
X1206000D02*
D03*
X1180600D02*
D03*
X1155200D02*
D03*
X1129800D02*
D03*
X322000Y1013400D02*
D03*
Y988000D02*
D03*
Y962600D02*
D03*
X876300Y1220470D02*
D03*
X850900D02*
D03*
X825500D02*
D03*
X723900D02*
D03*
X749300D02*
D03*
X774700D02*
D03*
X800100D02*
D03*
X901700D02*
D03*
X469900D02*
D03*
X495300D02*
D03*
X520700D02*
D03*
X546100D02*
D03*
X571500D02*
D03*
X596900D02*
D03*
X622300D02*
D03*
X647700D02*
D03*
X673100D02*
D03*
X698500D02*
D03*
X927100D02*
D03*
X952500D02*
D03*
X977900D02*
D03*
X1003300D02*
D03*
X1028700D02*
D03*
X1054100D02*
D03*
D70*
X1079100Y1220470D02*
D03*
X1079000Y910220D02*
D03*
X444500Y1220470D02*
D03*
D71*
X322000Y1038800D02*
D03*
D72*
X311500Y1124499D02*
D03*
Y1154501D02*
D03*
D73*
X1157250Y1107000D02*
D03*
X1149000Y1089000D02*
D03*
X1138000Y1088000D02*
D03*
X1122250Y1058000D02*
D03*
X1135000Y1037750D02*
D03*
X1205000Y1030000D02*
D03*
X1178600Y1029900D02*
D03*
X700000Y907000D02*
D03*
X1075000Y1052000D02*
D03*
X1350000Y1065000D02*
D03*
Y1110000D02*
D03*
X1377000Y1057000D02*
D03*
X1329000Y1054000D02*
D03*
X1262000D02*
D03*
X1259000Y1044000D02*
D03*
X1236000Y1034750D02*
D03*
X1226000Y1111499D02*
D03*
X1378611Y1040000D02*
D03*
X1339000Y1049500D02*
D03*
X1216000Y1111499D02*
D03*
X769000Y1069000D02*
D03*
X816998Y1068998D02*
D03*
Y1054998D02*
D03*
X817000Y1062000D02*
D03*
X797000Y1048000D02*
D03*
X958000Y998000D02*
D03*
X1325000Y1089750D02*
D03*
X1172998Y1042998D02*
D03*
X1317000Y1090000D02*
D03*
X1174000Y1050250D02*
D03*
X1403000Y1129000D02*
D03*
X1398000Y1123000D02*
D03*
X1484000Y1156000D02*
D03*
X1419000Y1208000D02*
D03*
X1442500Y1163000D02*
D03*
X1407000Y1143000D02*
D03*
X1398000Y1149000D02*
D03*
X1538000Y1052000D02*
D03*
X1475000Y1036000D02*
D03*
X1492000Y985625D02*
D03*
X1466000Y1123000D02*
D03*
X1484997Y1131998D02*
D03*
X1487000Y1139000D02*
D03*
X948000Y978000D02*
D03*
X907400D02*
D03*
X420000Y1007000D02*
D03*
X566000D02*
D03*
X708000Y993000D02*
D03*
X777750Y981000D02*
D03*
X779000Y967000D02*
D03*
X774700Y954000D02*
D03*
X775000Y940000D02*
D03*
X1243000Y1083000D02*
D03*
X1274000Y1084000D02*
D03*
X1080000Y1030000D02*
D03*
X1160000Y1119000D02*
D03*
X1146998Y1115998D02*
D03*
X1154000Y1099000D02*
D03*
X1143000Y1099000D02*
D03*
D74*
X326500Y1215220D02*
D03*
X1526500D02*
D03*
Y915220D02*
D03*
X326500D02*
D03*
D75*
X1510020Y1126300D02*
D03*
Y1119800D02*
D03*
Y1132800D02*
D03*
Y1139300D02*
D03*
Y1145800D02*
D03*
D76*
X1517020Y1164700D02*
D03*
Y1100900D02*
D03*
D77*
X697000Y1193750D02*
D03*
X689000D02*
D03*
X681000D02*
D03*
X673000D02*
D03*
X697000Y1176250D02*
D03*
X689000D02*
D03*
X681000D02*
D03*
X673000D02*
D03*
X801000Y1195000D02*
D03*
X793000D02*
D03*
X785000D02*
D03*
X777000D02*
D03*
X801000Y1177500D02*
D03*
X793000D02*
D03*
X785000D02*
D03*
X777000D02*
D03*
X1109000Y1194750D02*
D03*
X1101000D02*
D03*
X1093000D02*
D03*
X1085000D02*
D03*
X1109000Y1177250D02*
D03*
X1101000D02*
D03*
X1093000D02*
D03*
X1085000D02*
D03*
X1207000Y1193750D02*
D03*
X1199000D02*
D03*
X1191000D02*
D03*
X1183000D02*
D03*
X1207000Y1176250D02*
D03*
X1199000D02*
D03*
X1191000D02*
D03*
X1183000D02*
D03*
X497000Y1193750D02*
D03*
X489000D02*
D03*
X481000D02*
D03*
X473000D02*
D03*
X497000Y1176250D02*
D03*
X489000D02*
D03*
X481000D02*
D03*
X473000D02*
D03*
X597000Y1193750D02*
D03*
X589000D02*
D03*
X581000D02*
D03*
X573000D02*
D03*
X597000Y1176250D02*
D03*
X589000D02*
D03*
X581000D02*
D03*
X573000D02*
D03*
X902000Y1193750D02*
D03*
X894000D02*
D03*
X886000D02*
D03*
X878000D02*
D03*
X902000Y1176250D02*
D03*
X894000D02*
D03*
X886000D02*
D03*
X878000D02*
D03*
X1002000Y1193750D02*
D03*
X994000D02*
D03*
X986000D02*
D03*
X978000D02*
D03*
X1002000Y1176250D02*
D03*
X994000D02*
D03*
X986000D02*
D03*
X978000D02*
D03*
X1309000Y1193750D02*
D03*
X1301000D02*
D03*
X1293000D02*
D03*
X1285000D02*
D03*
X1309000Y1176250D02*
D03*
X1301000D02*
D03*
X1293000D02*
D03*
X1285000D02*
D03*
X1402000Y1193750D02*
D03*
X1394000D02*
D03*
X1386000D02*
D03*
X1378000D02*
D03*
X1402000Y1176250D02*
D03*
X1394000D02*
D03*
X1386000D02*
D03*
X1378000D02*
D03*
D78*
X1094250Y1119300D02*
D03*
D79*
X1059800Y1147300D02*
D03*
Y1143300D02*
D03*
Y1139300D02*
D03*
Y1135300D02*
D03*
Y1131300D02*
D03*
Y1127300D02*
D03*
Y1123300D02*
D03*
Y1119300D02*
D03*
Y1115300D02*
D03*
Y1111300D02*
D03*
Y1107300D02*
D03*
Y1103300D02*
D03*
Y1099300D02*
D03*
Y1095300D02*
D03*
Y1091300D02*
D03*
X1128700D02*
D03*
Y1095300D02*
D03*
Y1099300D02*
D03*
Y1103300D02*
D03*
Y1107300D02*
D03*
Y1111300D02*
D03*
Y1115300D02*
D03*
Y1119300D02*
D03*
Y1123300D02*
D03*
Y1127300D02*
D03*
Y1131300D02*
D03*
Y1135300D02*
D03*
Y1139300D02*
D03*
Y1143300D02*
D03*
Y1147300D02*
D03*
D80*
X1122250Y1153750D02*
D03*
X1118250D02*
D03*
X1114250D02*
D03*
X1110250D02*
D03*
X1106250D02*
D03*
X1102250D02*
D03*
X1098250D02*
D03*
X1094250D02*
D03*
X1090250D02*
D03*
X1086250D02*
D03*
X1082250D02*
D03*
X1078250D02*
D03*
X1074250D02*
D03*
X1070250D02*
D03*
X1066250D02*
D03*
Y1084850D02*
D03*
X1070250D02*
D03*
X1074250D02*
D03*
X1078250D02*
D03*
X1082250D02*
D03*
X1086250D02*
D03*
X1090250D02*
D03*
X1094250D02*
D03*
X1098250D02*
D03*
X1102250D02*
D03*
X1106250D02*
D03*
X1110250D02*
D03*
X1114250D02*
D03*
X1118250D02*
D03*
X1122250D02*
D03*
D81*
X1456250Y1210500D02*
D03*
Y1163500D02*
D03*
D82*
X1505500Y998250D02*
D03*
Y985750D02*
D03*
D83*
X1534500Y1023750D02*
D03*
Y960250D02*
D03*
D84*
X1542620Y1068000D02*
D03*
X1526620D02*
D03*
X1542620Y1052000D02*
D03*
X1526620D02*
D03*
X795230Y955500D02*
D03*
X811230D02*
D03*
X795230Y974500D02*
D03*
X811230D02*
D03*
X795230Y937250D02*
D03*
X811230D02*
D03*
X795130Y994000D02*
D03*
X811130D02*
D03*
D85*
X442499Y927799D02*
D03*
Y1007301D02*
D03*
X397501Y927799D02*
D03*
Y1007301D02*
D03*
X737499Y927799D02*
D03*
Y1007301D02*
D03*
X692501Y927799D02*
D03*
Y1007301D02*
D03*
X589999Y927799D02*
D03*
Y1007301D02*
D03*
X545001Y927799D02*
D03*
Y1007301D02*
D03*
D86*
X1492527Y1145625D02*
X1512250D01*
X1466000Y1137266D02*
X1474459Y1145726D01*
X1466000Y1123000D02*
Y1137266D01*
X1474459Y1145726D02*
X1492427D01*
D87*
X1426153Y912718D02*
X1431237D01*
X1388023D02*
X1393107D01*
X1306680D02*
X1309221D01*
X1490549Y907634D02*
X1493939D01*
X1490549Y906786D02*
X1493091D01*
X1490549Y905939D02*
X1493091D01*
X1489702Y905092D02*
X1493091D01*
X1489702Y904244D02*
X1492244D01*
X1427000Y916107D02*
X1431237D01*
X1427000Y915260D02*
X1431237D01*
X1427000Y914412D02*
X1431237D01*
X1427000Y913565D02*
X1431237D01*
X1428695Y911870D02*
X1431237D01*
X1429542Y911023D02*
X1431237D01*
X1429542Y910176D02*
X1431237D01*
X1429542Y909328D02*
X1431237D01*
X1429542Y908481D02*
X1431237D01*
X1429542Y907634D02*
X1431237D01*
X1429542Y906786D02*
X1431237D01*
X1429542Y905939D02*
X1431237D01*
X1429542Y905092D02*
X1432084D01*
X1404969D02*
X1414290D01*
X1429542Y904244D02*
X1432084D01*
X1407511D02*
X1413443D01*
X1343115Y916107D02*
X1348199D01*
X1341420Y915260D02*
X1349046D01*
X1348199Y914412D02*
X1349893D01*
X1386328Y911870D02*
X1393954D01*
X1368534D02*
X1375313D01*
X1386328Y911023D02*
X1388870D01*
X1368534D02*
X1371924D01*
X1386328Y910176D02*
X1388870D01*
X1368534D02*
X1371076D01*
X1386328Y909328D02*
X1389718D01*
X1368534D02*
X1370229D01*
X1386328Y908481D02*
X1393107D01*
X1368534D02*
X1370229D01*
X1368534Y907634D02*
X1371076D01*
X1368534Y906786D02*
X1371076D01*
X1387176Y905939D02*
X1388870D01*
X1368534D02*
X1371076D01*
X1387176Y905092D02*
X1388870D01*
X1387176Y904244D02*
X1388870D01*
X1344809Y907634D02*
X1348199D01*
X1345657Y906786D02*
X1349046D01*
X1346504Y905939D02*
X1349893D01*
X1341420Y905092D02*
X1350741D01*
X1341420Y904244D02*
X1350741D01*
X1307527Y915260D02*
X1315153D01*
X1306680Y914412D02*
X1310069D01*
X1306680Y913565D02*
X1309221D01*
X1306680Y911870D02*
X1309221D01*
X1306680Y911023D02*
X1309221D01*
X1306680Y910176D02*
X1309221D01*
X1306680Y909328D02*
X1310069D01*
X1307527Y908481D02*
X1310069D01*
X1307527Y907634D02*
X1310916D01*
X1496481Y912718D02*
X1499023D01*
X1493091D02*
X1494786D01*
X1482923D02*
X1488855D01*
X1474450D02*
X1478687D01*
X1466824D02*
X1468519D01*
X1460893D02*
X1464282D01*
X1451573D02*
X1455809D01*
X1441405D02*
X1445641D01*
X1419374D02*
X1421916D01*
X1416832D02*
X1418527D01*
X1410901D02*
X1413443D01*
X1404122D02*
X1405817D01*
X1399038D02*
X1401580D01*
X1395649D02*
X1398191D01*
X1381244D02*
X1382939D01*
X1376160D02*
X1377855D01*
X1370229D02*
X1374466D01*
X1359214D02*
X1364298D01*
X1341420D02*
X1343962D01*
X1336336D02*
X1338031D01*
X1329557D02*
X1332947D01*
X1321084D02*
X1323626D01*
X1313458D02*
X1316000D01*
X1493939Y916107D02*
X1497328D01*
X1493939Y915260D02*
X1498175D01*
X1493091Y914412D02*
X1498175D01*
X1496481Y913565D02*
X1499023D01*
X1493091D02*
X1495634D01*
X1491397Y908481D02*
X1501565D01*
X1499023Y907634D02*
X1501565D01*
X1499023Y906786D02*
X1502412D01*
X1499870Y905939D02*
X1502412D01*
X1499870Y905092D02*
X1503259D01*
X1500717Y904244D02*
X1503259D01*
X1497328Y911870D02*
X1499870D01*
X1492244D02*
X1494786D01*
X1497328Y911023D02*
X1499870D01*
X1492244D02*
X1494786D01*
X1497328Y910176D02*
X1500717D01*
X1492244D02*
X1494786D01*
X1491397Y909328D02*
X1500717D01*
X1482076Y916107D02*
X1486313D01*
X1483771Y915260D02*
X1487160D01*
X1482076D02*
X1482923D01*
X1484618Y914412D02*
X1487160D01*
X1484618Y913565D02*
X1487160D01*
X1482923Y911870D02*
X1488855D01*
X1472756D02*
X1480382D01*
X1484618Y911023D02*
X1487160D01*
X1476992D02*
X1480382D01*
X1471908D02*
X1475298D01*
X1484618Y910176D02*
X1487160D01*
X1478687D02*
X1481229D01*
X1471908D02*
X1474450D01*
X1484618Y909328D02*
X1487160D01*
X1478687D02*
X1481229D01*
X1471908D02*
X1473603D01*
X1484618Y908481D02*
X1487160D01*
X1479534D02*
X1481229D01*
X1471908D02*
X1473603D01*
X1485466Y907634D02*
X1487160D01*
X1479534D02*
X1481229D01*
X1471908D02*
X1473603D01*
X1485466Y906786D02*
X1487160D01*
X1478687D02*
X1481229D01*
X1471908D02*
X1474450D01*
X1485466Y905939D02*
X1487160D01*
X1477840D02*
X1481229D01*
X1471908D02*
X1475298D01*
X1485466Y905092D02*
X1488008D01*
X1472756D02*
X1480382D01*
X1485466Y904244D02*
X1488008D01*
X1473603D02*
X1479534D01*
X1459198Y911870D02*
X1468519D01*
X1450725D02*
X1456656D01*
X1465130Y911023D02*
X1468519D01*
X1459198D02*
X1462588D01*
X1454114D02*
X1456656D01*
X1450725D02*
X1451573D01*
X1465977Y910176D02*
X1468519D01*
X1459198D02*
X1461740D01*
X1454962D02*
X1456656D01*
X1466824Y909328D02*
X1468519D01*
X1459198D02*
X1460893D01*
X1454114D02*
X1456656D01*
X1466824Y908481D02*
X1469366D01*
X1459198D02*
X1460893D01*
X1452420D02*
X1455809D01*
X1466824Y907634D02*
X1469366D01*
X1459198D02*
X1460893D01*
X1451573D02*
X1454114D01*
X1466824Y906786D02*
X1469366D01*
X1459198D02*
X1461740D01*
X1450725D02*
X1453267D01*
X1467672Y905939D02*
X1469366D01*
X1459198D02*
X1461740D01*
X1450725D02*
X1453267D01*
X1467672Y905092D02*
X1469366D01*
X1460046D02*
X1461740D01*
X1450725D02*
X1457504D01*
X1467672Y904244D02*
X1469366D01*
X1460046D02*
X1461740D01*
X1451573D02*
X1457504D01*
X1439710Y911870D02*
X1447336D01*
X1443947Y911023D02*
X1447336D01*
X1438862D02*
X1442252D01*
X1445641Y910176D02*
X1448183D01*
X1438862D02*
X1441405D01*
X1445641Y909328D02*
X1448183D01*
X1438862D02*
X1440557D01*
X1446488Y908481D02*
X1448183D01*
X1438862D02*
X1440557D01*
X1446488Y907634D02*
X1448183D01*
X1438862D02*
X1440557D01*
X1445641Y906786D02*
X1448183D01*
X1438862D02*
X1441405D01*
X1444794Y905939D02*
X1448183D01*
X1438862D02*
X1442252D01*
X1439710Y905092D02*
X1447336D01*
X1440557Y904244D02*
X1446488D01*
X1416832Y916107D02*
X1420221D01*
X1416832Y915260D02*
X1421069D01*
X1416832Y914412D02*
X1421069D01*
X1419374Y913565D02*
X1421916D01*
X1416832D02*
X1418527D01*
X1426153Y911870D02*
X1427847D01*
X1420221D02*
X1421916D01*
X1416832D02*
X1418527D01*
X1410901D02*
X1413443D01*
X1426153Y911023D02*
X1427847D01*
X1420221D02*
X1422763D01*
X1416832D02*
X1419374D01*
X1411748D02*
X1413443D01*
X1425305Y910176D02*
X1427847D01*
X1421069D02*
X1422763D01*
X1416832D02*
X1419374D01*
X1411748D02*
X1413443D01*
X1425305Y909328D02*
X1427000D01*
X1421069D02*
X1423611D01*
X1416832D02*
X1419374D01*
X1411748D02*
X1413443D01*
X1425305Y908481D02*
X1427000D01*
X1421916D02*
X1423611D01*
X1417679D02*
X1419374D01*
X1411748D02*
X1413443D01*
X1425305Y907634D02*
X1427000D01*
X1421916D02*
X1424458D01*
X1417679D02*
X1419374D01*
X1411748D02*
X1414290D01*
X1422763Y906786D02*
X1427000D01*
X1417679D02*
X1419374D01*
X1411748D02*
X1414290D01*
X1422763Y905939D02*
X1426153D01*
X1417679D02*
X1419374D01*
X1410901D02*
X1414290D01*
X1422763Y905092D02*
X1426153D01*
X1417679D02*
X1419374D01*
X1423611Y904244D02*
X1426153D01*
X1417679D02*
X1419374D01*
X1404122Y911870D02*
X1405817D01*
X1395649D02*
X1401580D01*
X1404122Y911023D02*
X1405817D01*
X1397343D02*
X1401580D01*
X1404122Y910176D02*
X1406664D01*
X1398191D02*
X1401580D01*
X1404122Y909328D02*
X1406664D01*
X1399038D02*
X1401580D01*
X1404122Y908481D02*
X1406664D01*
X1399038D02*
X1401580D01*
X1404122Y907634D02*
X1406664D01*
X1399886D02*
X1401580D01*
X1391412D02*
X1394801D01*
X1404969Y906786D02*
X1406664D01*
X1399886D02*
X1401580D01*
X1393107D02*
X1395649D01*
X1404969Y905939D02*
X1407511D01*
X1399886D02*
X1401580D01*
X1393107D02*
X1395649D01*
X1399886Y905092D02*
X1401580D01*
X1392260D02*
X1395649D01*
X1389718D02*
X1390565D01*
X1404969Y904244D02*
X1406664D01*
X1399886D02*
X1402427D01*
X1390565D02*
X1394801D01*
X1381244Y916107D02*
X1382939D01*
X1376160D02*
X1377855D01*
X1381244Y915260D02*
X1382939D01*
X1376160D02*
X1377855D01*
X1381244Y914412D02*
X1382939D01*
X1376160D02*
X1377855D01*
X1381244Y913565D02*
X1382939D01*
X1376160D02*
X1377855D01*
X1381244Y911870D02*
X1382939D01*
X1376160D02*
X1377855D01*
X1381244Y911023D02*
X1383786D01*
X1374466D02*
X1378702D01*
X1381244Y910176D02*
X1383786D01*
X1375313D02*
X1378702D01*
X1381244Y909328D02*
X1383786D01*
X1376160D02*
X1378702D01*
X1381244Y908481D02*
X1383786D01*
X1376160D02*
X1378702D01*
X1386328Y907634D02*
X1388023D01*
X1381244D02*
X1383786D01*
X1376160D02*
X1378702D01*
X1386328Y906786D02*
X1388023D01*
X1382092D02*
X1383786D01*
X1377008D02*
X1378702D01*
X1382092Y905939D02*
X1383786D01*
X1377008D02*
X1378702D01*
X1382092Y905092D02*
X1383786D01*
X1377008D02*
X1378702D01*
X1369382D02*
X1371076D01*
X1382092Y904244D02*
X1383786D01*
X1377008D02*
X1378702D01*
X1369382D02*
X1371076D01*
X1357519Y911870D02*
X1365145D01*
X1357519Y911023D02*
X1360061D01*
X1357519Y910176D02*
X1360061D01*
X1357519Y909328D02*
X1360909D01*
X1357519Y908481D02*
X1364298D01*
X1362603Y907634D02*
X1365992D01*
X1357519D02*
X1359214D01*
X1364298Y906786D02*
X1366840D01*
X1357519D02*
X1359214D01*
X1364298Y905939D02*
X1366840D01*
X1358366D02*
X1360061D01*
X1363450Y905092D02*
X1366840D01*
X1360909D02*
X1361756D01*
X1358366D02*
X1360061D01*
X1361756Y904244D02*
X1365992D01*
X1358366D02*
X1360061D01*
X1335489Y916107D02*
X1338031D01*
X1335489Y915260D02*
X1338031D01*
X1341420Y914412D02*
X1345657D01*
X1335489D02*
X1338031D01*
X1341420Y913565D02*
X1343962D01*
X1336336D02*
X1338031D01*
X1341420Y911870D02*
X1343962D01*
X1336336D02*
X1338031D01*
X1330405D02*
X1333794D01*
X1342267Y911023D02*
X1344809D01*
X1336336D02*
X1338031D01*
X1331252D02*
X1333794D01*
X1342267Y910176D02*
X1345657D01*
X1336336D02*
X1338031D01*
X1332099D02*
X1334641D01*
X1343115Y909328D02*
X1346504D01*
X1336336D02*
X1338031D01*
X1332947D02*
X1335489D01*
X1343962Y908481D02*
X1347351D01*
X1336336D02*
X1338031D01*
X1332947D02*
X1335489D01*
X1336336Y907634D02*
X1338031D01*
X1332947D02*
X1335489D01*
X1336336Y906786D02*
X1338031D01*
X1332099D02*
X1334641D01*
X1336336Y905939D02*
X1338031D01*
X1331252D02*
X1333794D01*
X1336336Y905092D02*
X1338878D01*
X1330405D02*
X1332947D01*
X1336336Y904244D02*
X1338878D01*
X1329557D02*
X1332947D01*
X1321084Y916107D02*
X1323626D01*
X1309221D02*
X1313458D01*
X1321084Y915260D02*
X1325321D01*
X1321084Y914412D02*
X1325321D01*
X1311763D02*
X1316000D01*
X1324473Y913565D02*
X1325321D01*
X1321084D02*
X1323626D01*
X1313458D02*
X1316000D01*
X1321084Y911870D02*
X1323626D01*
X1313458D02*
X1316000D01*
X1321084Y911023D02*
X1323626D01*
X1312611D02*
X1316000D01*
X1321084Y910176D02*
X1323626D01*
X1310069D02*
X1316000D01*
X1321084Y909328D02*
X1323626D01*
X1310916D02*
X1315153D01*
X1321084Y908481D02*
X1323626D01*
X1321084Y907634D02*
X1323626D01*
X1321084Y906786D02*
X1323626D01*
X1308374D02*
X1311763D01*
X1321084Y905939D02*
X1323626D01*
X1309221D02*
X1311763D01*
X1321084Y905092D02*
X1323626D01*
X1309221D02*
X1312611D01*
X1321084Y904244D02*
X1323626D01*
X1310069D02*
X1313458D01*
M02*
