G04*
G04 #@! TF.GenerationSoftware,Altium Limited,Altium Designer,18.1.9 (240)*
G04*
G04 Layer_Color=32896*
%FSLAX44Y44*%
%MOMM*%
G71*
G01*
G75*
%ADD11C,0.0000*%
%ADD15C,0.1270*%
%ADD16C,0.2540*%
%ADD66C,0.0500*%
G36*
X714660Y1006250D02*
Y978250D01*
X702660D01*
Y1006250D01*
X714660D01*
D02*
G37*
D11*
X920490Y1001090D02*
G03*
X920490Y1001090I-2000J0D01*
G01*
D02*
G03*
X920490Y1001090I-2000J0D01*
G01*
D15*
X983690Y1008940D02*
Y1078940D01*
X913690Y1008940D02*
Y1078940D01*
X983690D01*
X913690Y1008940D02*
X983690D01*
Y1078940D01*
X913690Y1008940D02*
Y1078940D01*
X983690D01*
X913690Y1008940D02*
X983690D01*
D16*
X326500Y1245220D02*
G03*
X296500Y1215220I0J-30000D01*
G01*
X1556500D02*
G03*
X1526500Y1245220I-30000J0D01*
G01*
Y885220D02*
G03*
X1556500Y915220I0J30000D01*
G01*
X296500D02*
G03*
X326500Y885220I30000J0D01*
G01*
X296500Y915220D02*
Y1215220D01*
X326500Y1244970D02*
X1526500D01*
X326500Y885220D02*
X1526500D01*
X1556500Y915220D02*
Y1215220D01*
D66*
X1460810Y1159300D02*
X1530810D01*
X1460810D02*
Y1164300D01*
X1265810D02*
X1460810D01*
X1265810Y969300D02*
Y1164300D01*
Y969300D02*
X1460810D01*
Y974300D01*
X1530810D01*
Y1159300D01*
M02*
