M48
;Layer_Color=9474304
;FILE_FORMAT=4:4
METRIC,LZ
;TYPE=PLATED
T1F00S00C0.1000
T2F00S00C0.2000
T3F00S00C0.3000
T6F00S00C0.8001
T7F00S00C0.9000
T8F00S00C3.0000
%
T01
X0153238Y010905
X0154162
Y01175
X0153238
T02
X01075Y010975
X010825
Y01105
X01075
X0109
X010975
X01105
X011125
Y010975
X01105
X010975
X0109
Y011225
X010975
X01105
X011125
Y0113
Y011375
X01105
Y0113
X010975
X0109
X010825
X01075
Y011225
X010825
Y011375
X01075
X0109
X010975
X0114425Y0111725
X0115245Y011113
X011565Y0112175
X011455Y01102
X0114125Y01093
T03
X0077572Y0094
Y00955
X00777607Y00965
Y0098
X0077675Y010165
X0071525Y0105
X00705Y0106775
X0085675Y0106725
X008865Y0105525
X008935Y010805
X0094725Y0108485
X0094775Y010305
X009475Y01017
X00951Y0095365
X0089225Y0093925
X00868Y00941
X008969Y0098
X0108
X010785Y0101175
X0107175Y0102975
X011835Y010348
Y010475
X01172298Y0097
X011512Y0098
X012015Y01017
Y010545
X012315Y0102775
X0122625Y0110475
X012665Y01087
X0130951Y0108485
X013252Y0108475
X013145Y010275
X0137475Y0101275
X014155Y010139
X01433Y0102075
X0142825Y0106875
X013985Y01095
X0141425Y0116525
X013935Y011865
X0147Y0112
X01495Y01131269
Y011393
X0148175Y01036
X0148775Y00985
T06
X003115Y01124499
Y01154501
X00388501Y011427
Y011173
Y010919
Y011681
T07
X00322Y009626
Y00988
Y010134
Y010388
X01079Y0091022
X011044
X011298
X011552
X011806
X01206
X012314
X012568
X012822
X012823Y0122047
X013077
X013331
X013585
X013839
X014093
X012569
X012315
X012061
X011807
X011553
X011299
X011045
X010791
X010541Y0122047
X010287
X010033
X009779
X009525
X009271
X009017
X008763
X008509
X008255
X008001
X007747
X007493
X007239
X006985
X006731
X006477
X006223
X005969
X005715
X005461
X005207
X004953
X004699
X004445
T08
X003265Y0091522
X015265
Y0121522
X003265
M30
