G04*
G04 #@! TF.GenerationSoftware,Altium Limited,Altium Designer,18.1.9 (240)*
G04*
G04 Layer_Color=16711935*
%FSLAX44Y44*%
%MOMM*%
G71*
G01*
G75*
%ADD35R,1.1032X1.0032*%
%ADD42R,1.0032X1.1032*%
%ADD54R,1.5032X1.5032*%
%ADD55R,1.2532X1.2532*%
%ADD56C,1.7032*%
%ADD57R,1.7032X1.7032*%
%ADD58R,1.7032X1.7032*%
%ADD59C,1.0033*%
%ADD60C,0.7032*%
%ADD61C,0.6532*%
%ADD62C,3.2032*%
%ADD90C,0.0847*%
%ADD91R,2.7032X1.6282*%
%ADD92R,1.9532X0.6032*%
%ADD93R,1.5532X1.5532*%
%ADD94R,0.4232X1.0432*%
%ADD95R,1.0432X0.4232*%
%ADD96R,5.1532X5.1532*%
%ADD97R,1.8032X1.0032*%
%ADD98R,3.2032X2.3032*%
%ADD99R,1.0032X1.0032*%
%ADD100R,1.5032X1.7531*%
G36*
X1501900Y1114625D02*
Y1092625D01*
X1518500D01*
Y1114625D01*
X1501900D01*
D02*
G37*
G36*
X1519000Y1092625D02*
Y1113125D01*
X1547500D01*
X1547663Y1113139D01*
X1547952Y1113149D01*
X1548241Y1113144D01*
X1548530Y1113124D01*
X1548817Y1113089D01*
X1549101Y1113039D01*
X1549383Y1112974D01*
X1549661Y1112894D01*
X1549935Y1112800D01*
X1550203Y1112691D01*
X1550465Y1112569D01*
X1550720Y1112433D01*
X1550968Y1112284D01*
X1551208Y1112123D01*
X1551439Y1111949D01*
X1551661Y1111763D01*
X1551872Y1111565D01*
X1552073Y1111357D01*
X1552263Y1111139D01*
X1552441Y1110911D01*
X1552607Y1110674D01*
X1552760Y1110429D01*
X1552900Y1110176D01*
X1553027Y1109916D01*
X1553140Y1109650D01*
X1553239Y1109378D01*
X1553324Y1109101D01*
X1553394Y1108821D01*
X1553449Y1108537D01*
X1553489Y1108250D01*
X1553500Y1108125D01*
Y1103125D01*
X1553488Y1102960D01*
X1553452Y1102666D01*
X1553401Y1102376D01*
X1553335Y1102088D01*
X1553253Y1101804D01*
X1553157Y1101525D01*
X1553047Y1101251D01*
X1552922Y1100984D01*
X1552783Y1100723D01*
X1552631Y1100470D01*
X1552466Y1100225D01*
X1552289Y1099989D01*
X1552099Y1099763D01*
X1551897Y1099547D01*
X1551685Y1099342D01*
X1551462Y1099148D01*
X1551230Y1098967D01*
X1550988Y1098797D01*
X1550737Y1098641D01*
X1550479Y1098498D01*
X1550214Y1098368D01*
X1549942Y1098253D01*
X1549664Y1098152D01*
X1549382Y1098066D01*
X1549096Y1097994D01*
X1548806Y1097938D01*
X1548513Y1097897D01*
X1548219Y1097871D01*
X1547924Y1097861D01*
X1547629Y1097866D01*
X1547500Y1097875D01*
X1528000D01*
Y1092625D01*
X1519000D01*
D01*
D02*
G37*
G36*
X1501900Y1172625D02*
Y1150625D01*
X1518500D01*
Y1172625D01*
X1501900D01*
D02*
G37*
G36*
X1519000D02*
Y1152125D01*
X1547500D01*
X1547663Y1152111D01*
X1547952Y1152101D01*
X1548241Y1152106D01*
X1548530Y1152126D01*
X1548817Y1152161D01*
X1549101Y1152211D01*
X1549383Y1152276D01*
X1549661Y1152356D01*
X1549935Y1152450D01*
X1550203Y1152559D01*
X1550465Y1152681D01*
X1550720Y1152817D01*
X1550968Y1152966D01*
X1551208Y1153127D01*
X1551439Y1153301D01*
X1551661Y1153487D01*
X1551872Y1153685D01*
X1552073Y1153893D01*
X1552263Y1154111D01*
X1552441Y1154339D01*
X1552607Y1154576D01*
X1552760Y1154821D01*
X1552900Y1155074D01*
X1553027Y1155334D01*
X1553140Y1155600D01*
X1553239Y1155872D01*
X1553324Y1156149D01*
X1553394Y1156429D01*
X1553449Y1156713D01*
X1553489Y1157000D01*
X1553500Y1157125D01*
Y1162125D01*
X1553488Y1162290D01*
X1553452Y1162583D01*
X1553401Y1162874D01*
X1553335Y1163162D01*
X1553253Y1163446D01*
X1553157Y1163725D01*
X1553047Y1163999D01*
X1552922Y1164266D01*
X1552783Y1164527D01*
X1552631Y1164780D01*
X1552466Y1165025D01*
X1552289Y1165261D01*
X1552099Y1165487D01*
X1551897Y1165703D01*
X1551685Y1165908D01*
X1551462Y1166102D01*
X1551230Y1166283D01*
X1550988Y1166453D01*
X1550737Y1166609D01*
X1550479Y1166752D01*
X1550214Y1166882D01*
X1549942Y1166997D01*
X1549664Y1167098D01*
X1549382Y1167184D01*
X1549096Y1167256D01*
X1548806Y1167312D01*
X1548513Y1167353D01*
X1548219Y1167379D01*
X1547924Y1167389D01*
X1547629Y1167384D01*
X1547500Y1167375D01*
X1528000D01*
Y1172625D01*
X1519000D01*
D01*
D02*
G37*
D35*
X1137500Y1075750D02*
D03*
Y1061750D02*
D03*
X1155250Y1076000D02*
D03*
Y1062000D02*
D03*
D42*
X851250Y955750D02*
D03*
X837250D02*
D03*
X851250Y994000D02*
D03*
X837250D02*
D03*
X851250Y974500D02*
D03*
X837250D02*
D03*
X851250Y937500D02*
D03*
X837250D02*
D03*
X1495250Y1067500D02*
D03*
X1509250D02*
D03*
X1509250Y1052000D02*
D03*
X1495250D02*
D03*
D54*
X1540500Y1105375D02*
D03*
Y1159875D02*
D03*
D55*
X1510200Y1108375D02*
D03*
Y1156875D02*
D03*
D56*
X1409300Y1220470D02*
D03*
X1383900D02*
D03*
X1358500D02*
D03*
X1333100D02*
D03*
X1307700D02*
D03*
X1282300D02*
D03*
X1256900D02*
D03*
X1231500D02*
D03*
X1206100D02*
D03*
X1180700D02*
D03*
X1155300D02*
D03*
X1129900D02*
D03*
X1104500D02*
D03*
X1104400Y910220D02*
D03*
X1282200D02*
D03*
X1256800D02*
D03*
X1231400D02*
D03*
X1206000D02*
D03*
X1180600D02*
D03*
X1155200D02*
D03*
X1129800D02*
D03*
X322000Y1013400D02*
D03*
Y988000D02*
D03*
Y962600D02*
D03*
X388501Y1091900D02*
D03*
Y1117300D02*
D03*
Y1142700D02*
D03*
Y1168100D02*
D03*
X876300Y1220470D02*
D03*
X850900D02*
D03*
X825500D02*
D03*
X723900D02*
D03*
X749300D02*
D03*
X774700D02*
D03*
X800100D02*
D03*
X901700D02*
D03*
X469900D02*
D03*
X495300D02*
D03*
X520700D02*
D03*
X546100D02*
D03*
X571500D02*
D03*
X596900D02*
D03*
X622300D02*
D03*
X647700D02*
D03*
X673100D02*
D03*
X698500D02*
D03*
X927100D02*
D03*
X952500D02*
D03*
X977900D02*
D03*
X1003300D02*
D03*
X1028700D02*
D03*
X1054100D02*
D03*
D57*
X1079100Y1220470D02*
D03*
X1079000Y910220D02*
D03*
X444500Y1220470D02*
D03*
D58*
X322000Y1038800D02*
D03*
D59*
X311500Y1124499D02*
D03*
Y1154501D02*
D03*
D60*
X712250Y1005500D02*
D03*
X420500Y1012000D02*
D03*
X568000Y1010750D02*
D03*
X1170750Y977500D02*
D03*
X1078500Y984500D02*
D03*
X1151250D02*
D03*
X1183000Y1043750D02*
D03*
X1305500Y1080839D02*
D03*
X1418500Y1072000D02*
D03*
X1406000Y1066250D02*
D03*
X897000Y943750D02*
D03*
X875500Y939750D02*
D03*
X1201500Y1010250D02*
D03*
X1486250Y1145750D02*
D03*
X1404000Y1188250D02*
D03*
X1071750Y1029750D02*
D03*
X951000Y953650D02*
D03*
X1487750Y985000D02*
D03*
X1470000Y1120000D02*
D03*
X1495000Y1131269D02*
D03*
Y1139300D02*
D03*
X777607Y980000D02*
D03*
Y965000D02*
D03*
X775720Y955000D02*
D03*
Y940000D02*
D03*
X896900Y980000D02*
D03*
X1314500Y1027500D02*
D03*
X1231500Y1027750D02*
D03*
X776750Y1016500D02*
D03*
X947500Y1017000D02*
D03*
X1201500Y1054500D02*
D03*
X947250Y1084850D02*
D03*
X886500Y1055250D02*
D03*
X947750Y1030500D02*
D03*
X893500Y1080500D02*
D03*
X856750Y1067250D02*
D03*
X715250Y1050000D02*
D03*
X705000Y1067750D02*
D03*
X1325200Y1084750D02*
D03*
X1183500Y1034800D02*
D03*
X1226250Y1104750D02*
D03*
X1266500Y1087000D02*
D03*
X1398500Y1095000D02*
D03*
X1433000Y1020750D02*
D03*
X1481750Y1036000D02*
D03*
X1414250Y1165250D02*
D03*
D61*
X1388500Y1040500D02*
D03*
X1396000D02*
D03*
X1403500D02*
D03*
Y1048000D02*
D03*
X1395750D02*
D03*
X1388250Y1048111D02*
D03*
X1156500Y1121750D02*
D03*
X1105000Y1105000D02*
D03*
X1112500D02*
D03*
Y1137500D02*
D03*
X1075000Y1105000D02*
D03*
Y1097500D02*
D03*
X1082500Y1105000D02*
D03*
X1090000D02*
D03*
X1097500D02*
D03*
X1112500Y1097500D02*
D03*
X1105000D02*
D03*
X1097500D02*
D03*
X1090000D02*
D03*
X1082500D02*
D03*
X1075000Y1122500D02*
D03*
X1082500D02*
D03*
X1090000D02*
D03*
X1097500D02*
D03*
X1105000D02*
D03*
X1112500D02*
D03*
Y1130000D02*
D03*
X1105000D02*
D03*
X1097500D02*
D03*
X1090000D02*
D03*
X1082500D02*
D03*
X1075000D02*
D03*
Y1137500D02*
D03*
X1082500D02*
D03*
X1090000D02*
D03*
X1097500D02*
D03*
X1105000D02*
D03*
X1152450Y1111300D02*
D03*
X1144250Y1117250D02*
D03*
X1145500Y1102000D02*
D03*
X1141250Y1093000D02*
D03*
D62*
X326500Y1215220D02*
D03*
X1526500D02*
D03*
Y915220D02*
D03*
X326500D02*
D03*
D90*
X1371832Y975457D02*
X1420130D01*
X1390473Y986472D02*
X1402336D01*
X1390473Y985625D02*
X1402336D01*
X1389626Y984778D02*
X1402336D01*
X1389626Y983931D02*
X1402336D01*
X1387931Y983083D02*
X1404030D01*
X1386237Y982236D02*
X1405725D01*
X1383695Y981388D02*
X1408267D01*
X1370137Y980541D02*
X1422672D01*
X1369290Y979694D02*
X1422672D01*
X1370137Y978847D02*
X1422672D01*
X1370137Y977999D02*
X1421824D01*
X1370985Y977152D02*
X1420977D01*
X1370985Y976304D02*
X1420977D01*
X1372679Y974610D02*
X1419282D01*
X1372679Y973763D02*
X1419282D01*
X1373527Y972915D02*
X1418435D01*
X1374374Y972068D02*
X1418435D01*
X1373527Y971220D02*
X1418435D01*
X1373527Y970373D02*
X1418435D01*
X1372679Y969526D02*
X1419282D01*
X1372679Y968679D02*
X1419282D01*
X1372679Y967831D02*
X1392168D01*
X1372679Y950037D02*
X1392168D01*
X1372679Y949190D02*
X1392168D01*
X1404878Y955121D02*
X1429450D01*
X1362511D02*
X1387931D01*
X1399794Y967831D02*
X1420130D01*
X1401488Y966984D02*
X1420130D01*
X1402336Y966137D02*
X1420130D01*
X1403183Y965289D02*
X1422672D01*
X1404030Y964442D02*
X1426061D01*
X1404030Y963595D02*
X1429450D01*
X1404878Y962747D02*
X1429450D01*
X1404878Y961900D02*
X1429450D01*
X1404878Y961053D02*
X1429450D01*
X1405725Y960205D02*
X1429450D01*
X1405725Y959358D02*
X1429450D01*
X1405725Y958511D02*
X1429450D01*
X1404878Y957663D02*
X1429450D01*
X1404878Y956816D02*
X1429450D01*
X1404878Y955969D02*
X1429450D01*
X1403183Y953427D02*
X1423519D01*
X1402336Y952579D02*
X1420977D01*
X1401488Y951732D02*
X1420130D01*
X1400641Y950885D02*
X1420130D01*
X1399794Y950037D02*
X1420130D01*
X1399794Y949190D02*
X1419282D01*
X1400641Y948343D02*
X1419282D01*
X1400641Y947495D02*
X1418435D01*
X1401488Y946648D02*
X1418435D01*
X1401488Y945801D02*
X1418435D01*
X1402336Y944953D02*
X1418435D01*
X1402336Y944106D02*
X1419282D01*
X1402336Y943259D02*
X1420130D01*
X1404030Y939870D02*
X1422672D01*
X1404030Y939022D02*
X1422672D01*
X1404878Y938175D02*
X1422672D01*
X1404030Y954274D02*
X1427756D01*
X1370137Y981388D02*
X1382847D01*
X1371832Y966984D02*
X1390473D01*
X1371832Y966137D02*
X1389626D01*
X1369290Y965289D02*
X1388779D01*
X1365901Y964442D02*
X1387931D01*
X1362511Y963595D02*
X1387931D01*
X1362511Y962747D02*
X1387084D01*
X1362511Y961900D02*
X1387084D01*
X1362511Y961053D02*
X1387084D01*
X1362511Y960205D02*
X1386237D01*
X1362511Y959358D02*
X1386237D01*
X1362511Y958511D02*
X1386237D01*
X1362511Y957663D02*
X1387084D01*
X1362511Y956816D02*
X1387084D01*
X1362511Y955969D02*
X1387084D01*
X1365053Y954274D02*
X1387931D01*
X1369290Y953427D02*
X1388779D01*
X1370985Y952579D02*
X1389626D01*
X1371832Y951732D02*
X1390473D01*
X1371832Y950885D02*
X1391321D01*
X1372679Y948343D02*
X1391321D01*
X1373527Y947495D02*
X1391321D01*
X1373527Y946648D02*
X1391321D01*
X1373527Y945801D02*
X1390473D01*
X1373527Y944953D02*
X1390473D01*
X1372679Y944106D02*
X1389626D01*
X1371832Y943259D02*
X1389626D01*
X1371832Y942411D02*
X1388779D01*
X1370985Y941564D02*
X1388779D01*
X1370137Y940717D02*
X1388779D01*
X1370137Y939870D02*
X1387931D01*
X1369290Y939022D02*
X1387931D01*
X1369290Y938175D02*
X1387931D01*
X1370137Y937327D02*
X1387084D01*
X1370985Y936480D02*
X1382000D01*
X1412504Y934786D02*
X1419282D01*
X1372679D02*
X1379458D01*
X1415893Y985625D02*
X1417588D01*
X1414198Y984778D02*
X1418435D01*
X1413351Y983931D02*
X1419282D01*
X1411656Y983083D02*
X1420130D01*
X1410809Y982236D02*
X1420977D01*
X1409114Y981388D02*
X1421824D01*
X1403183Y942411D02*
X1420977D01*
X1403183Y941564D02*
X1420977D01*
X1403183Y940717D02*
X1421824D01*
X1404878Y937327D02*
X1421824D01*
X1409962Y936480D02*
X1420977D01*
X1404878D02*
X1408267D01*
X1411656Y935633D02*
X1420130D01*
X1405725D02*
X1406572D01*
X1414198Y933938D02*
X1418435D01*
X1415046Y933091D02*
X1417588D01*
X1391321Y992404D02*
X1400641D01*
X1391321Y991556D02*
X1400641D01*
X1391321Y990709D02*
X1401488D01*
X1391321Y989862D02*
X1401488D01*
X1390473Y989015D02*
X1401488D01*
X1390473Y988167D02*
X1401488D01*
X1390473Y987320D02*
X1401488D01*
X1383695Y936480D02*
X1387084D01*
X1385389Y935633D02*
X1386237D01*
X1374374Y985625D02*
X1376916D01*
X1374374Y984778D02*
X1377763D01*
X1372679Y983931D02*
X1379458D01*
X1372679Y983083D02*
X1380305D01*
X1371832Y982236D02*
X1381153D01*
X1371832Y935633D02*
X1380305D01*
X1373527Y933938D02*
X1378611D01*
X1374374Y933091D02*
X1376916D01*
X1419282Y914450D02*
X1424366D01*
X1381153D02*
X1386237D01*
X1299809D02*
X1302351D01*
X1482832Y905976D02*
X1485374D01*
X1482832Y906824D02*
X1486221D01*
X1483679Y907671D02*
X1486221D01*
X1483679Y908518D02*
X1486221D01*
X1483679Y909366D02*
X1487068D01*
X1420130Y915297D02*
X1424366D01*
X1420130Y916144D02*
X1424366D01*
X1420130Y916992D02*
X1424366D01*
X1420130Y917839D02*
X1424366D01*
X1400641Y905976D02*
X1406572D01*
X1422672D02*
X1425214D01*
X1398099Y906824D02*
X1407420D01*
X1422672D02*
X1425214D01*
X1422672Y907671D02*
X1424366D01*
X1422672Y908518D02*
X1424366D01*
X1422672Y909366D02*
X1424366D01*
X1422672Y910213D02*
X1424366D01*
X1422672Y911060D02*
X1424366D01*
X1422672Y911908D02*
X1424366D01*
X1422672Y912755D02*
X1424366D01*
X1421824Y913602D02*
X1424366D01*
X1341328Y916144D02*
X1343023D01*
X1334550Y916992D02*
X1342176D01*
X1336244Y917839D02*
X1341328D01*
X1334550Y905976D02*
X1343870D01*
X1334550Y906824D02*
X1343870D01*
X1339634Y907671D02*
X1343023D01*
X1338786Y908518D02*
X1342176D01*
X1337939Y909366D02*
X1341328D01*
X1380305Y905976D02*
X1382000D01*
X1380305Y906824D02*
X1382000D01*
X1361664Y907671D02*
X1364206D01*
X1380305D02*
X1382000D01*
X1361664Y908518D02*
X1364206D01*
X1361664Y909366D02*
X1364206D01*
X1361664Y910213D02*
X1363359D01*
X1379458D02*
X1386237D01*
X1361664Y911060D02*
X1363359D01*
X1379458D02*
X1382847D01*
X1361664Y911908D02*
X1364206D01*
X1379458D02*
X1382000D01*
X1361664Y912755D02*
X1365053D01*
X1379458D02*
X1382000D01*
X1361664Y913602D02*
X1368443D01*
X1379458D02*
X1387084D01*
X1299809Y915297D02*
X1302351D01*
X1299809Y916144D02*
X1303199D01*
X1300657Y916992D02*
X1308282D01*
X1300657Y909366D02*
X1304046D01*
X1300657Y910213D02*
X1303199D01*
X1299809Y911060D02*
X1303199D01*
X1299809Y911908D02*
X1302351D01*
X1299809Y912755D02*
X1302351D01*
X1299809Y913602D02*
X1302351D01*
X1486221Y914450D02*
X1487916D01*
X1489610D02*
X1492153D01*
X1467580D02*
X1471817D01*
X1476053D02*
X1481985D01*
X1444702D02*
X1448939D01*
X1454023D02*
X1457412D01*
X1459954D02*
X1461649D01*
X1434534D02*
X1438771D01*
X1404030D02*
X1406572D01*
X1409962D02*
X1411656D01*
X1412504D02*
X1415046D01*
X1388779D02*
X1391321D01*
X1392168D02*
X1394710D01*
X1397252D02*
X1398947D01*
X1363359D02*
X1367595D01*
X1369290D02*
X1370985D01*
X1374374D02*
X1376069D01*
X1352343D02*
X1357428D01*
X1322687D02*
X1326076D01*
X1329466D02*
X1331160D01*
X1334550D02*
X1337092D01*
X1306588D02*
X1309130D01*
X1314214D02*
X1316756D01*
X1486221Y915297D02*
X1488763D01*
X1489610D02*
X1492153D01*
X1486221Y916144D02*
X1491305D01*
X1487068Y916992D02*
X1491305D01*
X1487068Y917839D02*
X1490458D01*
X1484527Y911060D02*
X1493847D01*
X1485374Y911908D02*
X1487916D01*
X1490458D02*
X1493847D01*
X1485374Y912755D02*
X1487916D01*
X1490458D02*
X1493000D01*
X1485374Y913602D02*
X1487916D01*
X1490458D02*
X1493000D01*
X1493847Y905976D02*
X1496389D01*
X1493000Y906824D02*
X1496389D01*
X1493000Y907671D02*
X1495542D01*
X1492153Y908518D02*
X1495542D01*
X1492153Y909366D02*
X1494694D01*
X1484527Y910213D02*
X1494694D01*
X1477748Y915297D02*
X1480290D01*
X1477748Y916144D02*
X1480290D01*
X1475206Y916992D02*
X1476053D01*
X1476901D02*
X1480290D01*
X1475206Y917839D02*
X1479443D01*
X1466733Y905976D02*
X1472664D01*
X1478595D02*
X1481137D01*
X1465885Y906824D02*
X1473511D01*
X1478595D02*
X1481137D01*
X1465038Y907671D02*
X1468427D01*
X1470969D02*
X1474359D01*
X1478595D02*
X1480290D01*
X1465038Y908518D02*
X1467580D01*
X1471817D02*
X1474359D01*
X1478595D02*
X1480290D01*
X1465038Y909366D02*
X1466733D01*
X1472664D02*
X1474359D01*
X1478595D02*
X1480290D01*
X1465038Y910213D02*
X1466733D01*
X1472664D02*
X1474359D01*
X1477748D02*
X1480290D01*
X1465038Y911060D02*
X1466733D01*
X1471817D02*
X1474359D01*
X1477748D02*
X1480290D01*
X1465038Y911908D02*
X1467580D01*
X1471817D02*
X1474359D01*
X1477748D02*
X1480290D01*
X1465038Y912755D02*
X1468427D01*
X1470122D02*
X1473511D01*
X1477748D02*
X1480290D01*
X1465885Y913602D02*
X1473511D01*
X1476053D02*
X1481985D01*
X1444702Y905976D02*
X1450633D01*
X1453175D02*
X1454870D01*
X1460801D02*
X1462496D01*
X1443855Y906824D02*
X1450633D01*
X1453175D02*
X1454870D01*
X1460801D02*
X1462496D01*
X1443855Y907671D02*
X1446397D01*
X1452328D02*
X1454870D01*
X1460801D02*
X1462496D01*
X1443855Y908518D02*
X1446397D01*
X1452328D02*
X1454870D01*
X1459954D02*
X1462496D01*
X1444702Y909366D02*
X1447244D01*
X1452328D02*
X1454023D01*
X1459954D02*
X1462496D01*
X1445549Y910213D02*
X1448939D01*
X1452328D02*
X1454023D01*
X1459954D02*
X1462496D01*
X1447244Y911060D02*
X1449786D01*
X1452328D02*
X1454023D01*
X1459954D02*
X1461649D01*
X1448091Y911908D02*
X1449786D01*
X1452328D02*
X1454870D01*
X1459107D02*
X1461649D01*
X1443855Y912755D02*
X1444702D01*
X1447244D02*
X1449786D01*
X1452328D02*
X1455717D01*
X1458259D02*
X1461649D01*
X1443855Y913602D02*
X1449786D01*
X1452328D02*
X1461649D01*
X1433687Y905976D02*
X1439618D01*
X1432840Y906824D02*
X1440466D01*
X1431992Y907671D02*
X1435382D01*
X1437923D02*
X1441313D01*
X1431992Y908518D02*
X1434534D01*
X1438771D02*
X1441313D01*
X1431992Y909366D02*
X1433687D01*
X1439618D02*
X1441313D01*
X1431992Y910213D02*
X1433687D01*
X1439618D02*
X1441313D01*
X1431992Y911060D02*
X1433687D01*
X1438771D02*
X1441313D01*
X1431992Y911908D02*
X1434534D01*
X1438771D02*
X1441313D01*
X1431992Y912755D02*
X1435382D01*
X1437076D02*
X1440466D01*
X1432840Y913602D02*
X1440466D01*
X1409962Y915297D02*
X1411656D01*
X1412504D02*
X1415046D01*
X1409962Y916144D02*
X1414198D01*
X1409962Y916992D02*
X1414198D01*
X1409962Y917839D02*
X1413351D01*
X1410809Y905976D02*
X1412504D01*
X1416740D02*
X1419282D01*
X1410809Y906824D02*
X1412504D01*
X1415893D02*
X1419282D01*
X1404030Y907671D02*
X1407420D01*
X1410809D02*
X1412504D01*
X1415893D02*
X1419282D01*
X1404878Y908518D02*
X1407420D01*
X1410809D02*
X1412504D01*
X1415893D02*
X1420130D01*
X1404878Y909366D02*
X1407420D01*
X1410809D02*
X1412504D01*
X1415046D02*
X1417588D01*
X1418435D02*
X1420130D01*
X1404878Y910213D02*
X1406572D01*
X1410809D02*
X1412504D01*
X1415046D02*
X1416740D01*
X1418435D02*
X1420130D01*
X1404878Y911060D02*
X1406572D01*
X1409962D02*
X1412504D01*
X1414198D02*
X1416740D01*
X1418435D02*
X1420130D01*
X1404878Y911908D02*
X1406572D01*
X1409962D02*
X1412504D01*
X1414198D02*
X1415893D01*
X1418435D02*
X1420977D01*
X1404878Y912755D02*
X1406572D01*
X1409962D02*
X1412504D01*
X1413351D02*
X1415893D01*
X1419282D02*
X1420977D01*
X1404030Y913602D02*
X1406572D01*
X1409962D02*
X1411656D01*
X1413351D02*
X1415046D01*
X1419282D02*
X1420977D01*
X1383695Y905976D02*
X1387931D01*
X1393015D02*
X1395557D01*
X1398099D02*
X1399794D01*
X1382847Y906824D02*
X1383695D01*
X1385389D02*
X1388779D01*
X1393015D02*
X1394710D01*
X1386237Y907671D02*
X1388779D01*
X1393015D02*
X1394710D01*
X1398099D02*
X1400641D01*
X1386237Y908518D02*
X1388779D01*
X1393015D02*
X1394710D01*
X1398099D02*
X1399794D01*
X1384542Y909366D02*
X1387931D01*
X1393015D02*
X1394710D01*
X1397252D02*
X1399794D01*
X1392168Y910213D02*
X1394710D01*
X1397252D02*
X1399794D01*
X1392168Y911060D02*
X1394710D01*
X1397252D02*
X1399794D01*
X1391321Y911908D02*
X1394710D01*
X1397252D02*
X1399794D01*
X1390473Y912755D02*
X1394710D01*
X1397252D02*
X1398947D01*
X1388779Y913602D02*
X1394710D01*
X1397252D02*
X1398947D01*
X1369290Y915297D02*
X1370985D01*
X1374374D02*
X1376069D01*
X1369290Y916144D02*
X1370985D01*
X1374374D02*
X1376069D01*
X1369290Y916992D02*
X1370985D01*
X1374374D02*
X1376069D01*
X1369290Y917839D02*
X1370985D01*
X1374374D02*
X1376069D01*
X1362511Y905976D02*
X1364206D01*
X1370137D02*
X1371832D01*
X1375221D02*
X1376916D01*
X1362511Y906824D02*
X1364206D01*
X1370137D02*
X1371832D01*
X1375221D02*
X1376916D01*
X1370137Y907671D02*
X1371832D01*
X1375221D02*
X1376916D01*
X1370137Y908518D02*
X1371832D01*
X1375221D02*
X1376916D01*
X1379458D02*
X1381153D01*
X1369290Y909366D02*
X1371832D01*
X1374374D02*
X1376916D01*
X1379458D02*
X1381153D01*
X1369290Y910213D02*
X1371832D01*
X1374374D02*
X1376916D01*
X1369290Y911060D02*
X1371832D01*
X1374374D02*
X1376916D01*
X1368443Y911908D02*
X1371832D01*
X1374374D02*
X1376916D01*
X1367595Y912755D02*
X1371832D01*
X1374374D02*
X1376916D01*
X1369290Y913602D02*
X1370985D01*
X1374374D02*
X1376069D01*
X1351496Y905976D02*
X1353191D01*
X1354886D02*
X1359122D01*
X1351496Y906824D02*
X1353191D01*
X1354038D02*
X1354886D01*
X1356580D02*
X1359969D01*
X1351496Y907671D02*
X1353191D01*
X1357428D02*
X1359969D01*
X1350649Y908518D02*
X1352343D01*
X1357428D02*
X1359969D01*
X1350649Y909366D02*
X1352343D01*
X1355733D02*
X1359122D01*
X1350649Y910213D02*
X1357428D01*
X1350649Y911060D02*
X1354038D01*
X1350649Y911908D02*
X1353191D01*
X1350649Y912755D02*
X1353191D01*
X1350649Y913602D02*
X1358275D01*
X1329466Y915297D02*
X1331160D01*
X1334550D02*
X1337092D01*
X1328618Y916144D02*
X1331160D01*
X1334550D02*
X1338786D01*
X1328618Y916992D02*
X1331160D01*
X1328618Y917839D02*
X1331160D01*
X1322687Y905976D02*
X1326076D01*
X1329466D02*
X1332008D01*
X1323534Y906824D02*
X1326076D01*
X1329466D02*
X1332008D01*
X1324382Y907671D02*
X1326924D01*
X1329466D02*
X1331160D01*
X1325229Y908518D02*
X1327771D01*
X1329466D02*
X1331160D01*
X1326076Y909366D02*
X1328618D01*
X1329466D02*
X1331160D01*
X1326076Y910213D02*
X1328618D01*
X1329466D02*
X1331160D01*
X1337092D02*
X1340481D01*
X1326076Y911060D02*
X1328618D01*
X1329466D02*
X1331160D01*
X1336244D02*
X1339634D01*
X1325229Y911908D02*
X1327771D01*
X1329466D02*
X1331160D01*
X1335397D02*
X1338786D01*
X1324382Y912755D02*
X1326924D01*
X1329466D02*
X1331160D01*
X1335397D02*
X1337939D01*
X1323534Y913602D02*
X1326924D01*
X1329466D02*
X1331160D01*
X1334550D02*
X1337092D01*
X1306588Y915297D02*
X1309130D01*
X1314214D02*
X1316756D01*
X1317603D02*
X1318450D01*
X1304893Y916144D02*
X1309130D01*
X1314214D02*
X1318450D01*
X1314214Y916992D02*
X1318450D01*
X1302351Y917839D02*
X1306588D01*
X1314214D02*
X1316756D01*
X1303199Y905976D02*
X1306588D01*
X1314214D02*
X1316756D01*
X1302351Y906824D02*
X1305741D01*
X1314214D02*
X1316756D01*
X1302351Y907671D02*
X1304893D01*
X1314214D02*
X1316756D01*
X1301504Y908518D02*
X1304893D01*
X1314214D02*
X1316756D01*
X1314214Y909366D02*
X1316756D01*
X1314214Y910213D02*
X1316756D01*
X1304046Y911060D02*
X1308282D01*
X1314214D02*
X1316756D01*
X1303199Y911908D02*
X1309130D01*
X1314214D02*
X1316756D01*
X1305741Y912755D02*
X1309130D01*
X1314214D02*
X1316756D01*
X1306588Y913602D02*
X1309130D01*
X1314214D02*
X1316756D01*
D91*
X1543000Y1123000D02*
D03*
Y1142250D02*
D03*
D92*
X1512250Y1119625D02*
D03*
Y1126125D02*
D03*
Y1132625D02*
D03*
Y1139125D02*
D03*
Y1145625D02*
D03*
D93*
X1456250Y1210500D02*
D03*
Y1163500D02*
D03*
D94*
X1122250Y1084850D02*
D03*
X1118250D02*
D03*
X1114250D02*
D03*
X1110250D02*
D03*
X1106250D02*
D03*
X1102250D02*
D03*
X1098250D02*
D03*
X1094250D02*
D03*
X1090250D02*
D03*
X1086250D02*
D03*
X1082250D02*
D03*
X1078250D02*
D03*
X1074250D02*
D03*
X1070250D02*
D03*
X1066250D02*
D03*
Y1153750D02*
D03*
X1070250D02*
D03*
X1074250D02*
D03*
X1078250D02*
D03*
X1082250D02*
D03*
X1086250D02*
D03*
X1090250D02*
D03*
X1094250D02*
D03*
X1098250D02*
D03*
X1102250D02*
D03*
X1106250D02*
D03*
X1110250D02*
D03*
X1114250D02*
D03*
X1118250D02*
D03*
X1122250D02*
D03*
D95*
X1128700Y1147300D02*
D03*
Y1143300D02*
D03*
Y1139300D02*
D03*
Y1135300D02*
D03*
Y1131300D02*
D03*
Y1127300D02*
D03*
Y1123300D02*
D03*
Y1119300D02*
D03*
Y1115300D02*
D03*
Y1111300D02*
D03*
Y1107300D02*
D03*
Y1103300D02*
D03*
Y1099300D02*
D03*
Y1095300D02*
D03*
Y1091300D02*
D03*
X1059800D02*
D03*
Y1095300D02*
D03*
Y1099300D02*
D03*
Y1103300D02*
D03*
Y1107300D02*
D03*
Y1111300D02*
D03*
Y1115300D02*
D03*
Y1119300D02*
D03*
Y1123300D02*
D03*
Y1127300D02*
D03*
Y1131300D02*
D03*
Y1135300D02*
D03*
Y1139300D02*
D03*
Y1143300D02*
D03*
Y1147300D02*
D03*
D96*
X1094250Y1119300D02*
D03*
D97*
X1505500Y998250D02*
D03*
Y985750D02*
D03*
D98*
X1534500Y1023750D02*
D03*
Y960250D02*
D03*
D99*
X1542620Y1068000D02*
D03*
X1526620D02*
D03*
X1542620Y1052000D02*
D03*
X1526620D02*
D03*
X795230Y955500D02*
D03*
X811230D02*
D03*
X795230Y974500D02*
D03*
X811230D02*
D03*
X795230Y937250D02*
D03*
X811230D02*
D03*
X795130Y994000D02*
D03*
X811130D02*
D03*
D100*
X442499Y927799D02*
D03*
Y1007301D02*
D03*
X397501Y927799D02*
D03*
Y1007301D02*
D03*
X737499Y927799D02*
D03*
Y1007301D02*
D03*
X692501Y927799D02*
D03*
Y1007301D02*
D03*
X589999Y927799D02*
D03*
Y1007301D02*
D03*
X545001Y927799D02*
D03*
Y1007301D02*
D03*
M02*
