G04*
G04 #@! TF.GenerationSoftware,Altium Limited,Altium Designer,18.1.9 (240)*
G04*
G04 Layer_Color=32896*
%FSLAX44Y44*%
%MOMM*%
G71*
G01*
G75*
%ADD15C,0.1270*%
%ADD91C,0.0000*%
%ADD94C,0.0500*%
G36*
X1548620Y1062000D02*
X1520620D01*
Y1074000D01*
X1548620D01*
Y1062000D01*
D02*
G37*
G36*
Y1046000D02*
X1520620D01*
Y1058000D01*
X1548620D01*
Y1046000D01*
D02*
G37*
G36*
X817130Y988000D02*
X789130D01*
Y1000000D01*
X817130D01*
Y988000D01*
D02*
G37*
G36*
X817230Y968500D02*
X789230D01*
Y980500D01*
X817230D01*
Y968500D01*
D02*
G37*
G36*
Y949500D02*
X789230D01*
Y961500D01*
X817230D01*
Y949500D01*
D02*
G37*
G36*
Y931250D02*
X789230D01*
Y943250D01*
X817230D01*
Y931250D01*
D02*
G37*
D15*
X1059250Y1084300D02*
X1129250D01*
X1059250Y1154300D02*
X1129250D01*
X1059250Y1084300D02*
Y1154300D01*
X1129250Y1084300D02*
Y1154300D01*
X1059250Y1084300D02*
X1129250D01*
X1059250Y1154300D02*
X1129250D01*
X1059250Y1084300D02*
Y1154300D01*
X1129250Y1084300D02*
Y1154300D01*
D91*
X1139100Y1149500D02*
G03*
X1139100Y1149500I-2000J0D01*
G01*
D02*
G03*
X1139100Y1149500I-2000J0D01*
G01*
D94*
X747250Y1100750D02*
Y1170750D01*
X742250Y1100750D02*
X747250D01*
X742250Y905750D02*
Y1100750D01*
Y905750D02*
X937250D01*
Y1100750D01*
X932250D02*
X937250D01*
X932250D02*
Y1170750D01*
X747250D02*
X932250D01*
M02*
