G04*
G04 #@! TF.GenerationSoftware,Altium Limited,Altium Designer,18.1.9 (240)*
G04*
G04 Layer_Color=8421504*
%FSLAX44Y44*%
%MOMM*%
G71*
G01*
G75*
%ADD17R,0.8000X0.9000*%
%ADD18R,0.9000X0.8000*%
%ADD19R,0.6000X1.6000*%
%ADD20R,1.5240X0.6350*%
%ADD21R,1.2190X0.9140*%
%ADD22R,1.0500X0.6000*%
%ADD23R,1.3000X0.7000*%
%ADD24R,2.6000X1.8000*%
%ADD25R,0.4500X0.6000*%
%ADD26R,2.0000X0.9000*%
%ADD27R,0.9000X2.0000*%
%ADD28R,5.0000X5.0000*%
%ADD29R,2.0000X0.8001*%
%ADD30R,0.8001X1.0000*%
%ADD31R,0.8001X0.8999*%
G36*
X813893Y1034161D02*
X845561D01*
Y1002471D01*
X813893D01*
Y1034161D01*
D02*
G37*
D17*
X1062500Y1030000D02*
D03*
X1048500D02*
D03*
X1062500Y1014250D02*
D03*
X1048500D02*
D03*
X1299750Y1027750D02*
D03*
X1285750D02*
D03*
X1446250Y1012000D02*
D03*
X1460250D02*
D03*
X1435750Y962000D02*
D03*
X1449750D02*
D03*
X1449750Y976250D02*
D03*
X1435750D02*
D03*
X1300000Y1012750D02*
D03*
X1286000D02*
D03*
D18*
X963500Y1070000D02*
D03*
Y1084000D02*
D03*
X983250Y1089750D02*
D03*
Y1103750D02*
D03*
X1172000Y1118500D02*
D03*
Y1104500D02*
D03*
Y1090000D02*
D03*
Y1076000D02*
D03*
X1155750Y1075750D02*
D03*
Y1089750D02*
D03*
X1137000Y1076000D02*
D03*
Y1062000D02*
D03*
X1193250Y1111250D02*
D03*
Y1097250D02*
D03*
X1258250Y1097500D02*
D03*
Y1111500D02*
D03*
X1381750Y1102750D02*
D03*
Y1116750D02*
D03*
X1373250Y1052250D02*
D03*
Y1038250D02*
D03*
X1464750Y975950D02*
D03*
Y961950D02*
D03*
D19*
X1225250Y1064000D02*
D03*
X1215750Y1086000D02*
D03*
X1234750D02*
D03*
X1225000Y1146550D02*
D03*
X1234500Y1124550D02*
D03*
X1215500D02*
D03*
D20*
X1286051Y1072050D02*
D03*
Y1084750D02*
D03*
X1339949Y1160950D02*
D03*
X1286051Y1148250D02*
D03*
X1339949D02*
D03*
Y1122850D02*
D03*
X1286051Y1160950D02*
D03*
X1339949Y1135550D02*
D03*
X1286051D02*
D03*
Y1122850D02*
D03*
Y1097450D02*
D03*
X1339949Y1110150D02*
D03*
Y1097450D02*
D03*
Y1072050D02*
D03*
X1286051Y1110150D02*
D03*
X1339949Y1084750D02*
D03*
D21*
X1416250Y1084117D02*
D03*
Y1116883D02*
D03*
D22*
X1463750Y1102250D02*
D03*
X1440750Y1092750D02*
D03*
Y1111750D02*
D03*
D23*
X1441000Y1036000D02*
D03*
Y1055000D02*
D03*
X1465000D02*
D03*
Y1045500D02*
D03*
Y1036000D02*
D03*
D24*
X1406250Y1041000D02*
D03*
D25*
X1396750Y1055000D02*
D03*
X1415750D02*
D03*
X1406250Y1027000D02*
D03*
X1396750D02*
D03*
X1406250Y1055000D02*
D03*
X1415750Y1027000D02*
D03*
D26*
X924750Y1093350D02*
D03*
Y1080650D02*
D03*
Y1067950D02*
D03*
Y1055250D02*
D03*
Y1042550D02*
D03*
Y1029850D02*
D03*
Y1017150D02*
D03*
Y1004450D02*
D03*
Y991750D02*
D03*
Y979050D02*
D03*
Y966350D02*
D03*
Y953650D02*
D03*
Y940950D02*
D03*
Y928250D02*
D03*
X754750D02*
D03*
Y940950D02*
D03*
Y953650D02*
D03*
Y966350D02*
D03*
Y979050D02*
D03*
Y991750D02*
D03*
Y1004450D02*
D03*
Y1017150D02*
D03*
Y1029850D02*
D03*
Y1042550D02*
D03*
Y1055250D02*
D03*
Y1067950D02*
D03*
Y1080650D02*
D03*
Y1093350D02*
D03*
D27*
X896900Y918250D02*
D03*
X884200D02*
D03*
X871500D02*
D03*
X858800D02*
D03*
X846100D02*
D03*
X833400D02*
D03*
X820700D02*
D03*
X808000D02*
D03*
X795300D02*
D03*
X782600D02*
D03*
D28*
X829750Y1018350D02*
D03*
D29*
X332501Y1116269D02*
D03*
Y1161270D02*
D03*
Y1131270D02*
D03*
D30*
X300250Y1101999D02*
D03*
Y1177001D02*
D03*
D31*
X322750Y1101499D02*
D03*
Y1177501D02*
D03*
M02*
