M48
;Layer_Color=9474304
;FILE_FORMAT=4:4
METRIC,LZ
;TYPE=PLATED
T1F00S00C0.1000
T2F00S00C0.2000
T3F00S00C0.3000
T6F00S00C0.8001
T7F00S00C0.9000
T8F00S00C3.0000
%
T01
X0152038Y010905
X0152962
Y01175
X0152038
T02
X0114125Y01093
X011455Y01102
X0115245Y011113
X0114425Y0111725
X011565Y0112175
T03
X006545Y0095725
X0065425Y009755
Y009945
Y0101375
X0069725
X006975Y0099475
X00698Y0097575
Y009575
X0071525Y0105
X00705Y0106775
X0077675Y010165
X0085675Y0106725
X008865Y0105525
X008935Y010805
X0094725Y0108485
X0094775Y010305
X009475Y01017
X008969Y0098
X0108
X010785Y0101175
X011512Y0098
X01172298Y0097
X011835Y010348
Y010475
X012015Y010545
Y01017
X012315Y0102775
X0122625Y0110475
X012665Y01087
X0130951Y0108485
X013252Y0108475
X013145Y010275
X0135075Y01029
X014155Y010139
X01433Y0102075
X0142825Y0106875
X013985Y01095
X0141425Y0116525
X013935Y011865
X014415Y0114375
X0145775Y0112675
X0148175Y01036
T06
X0030875Y01124498
Y011545
X00388501Y011427
Y011173
Y010919
Y011681
T07
X00322Y0096255
Y0098795
Y0101335
Y0103875
Y0106415
X01079Y0091022
X011044
X011298
X011552
X011806
X01206
X012314
X012568
X012822
X012823Y0122047
X013077
X013331
X013585
X013839
X014093
X012569
X012315
X012061
X011807
X011553
X011299
X011045
X010791
X010541Y0122047
X010287
X010033
X009779
X009525
X009271
X009017
X008763
X008509
X008255
X008001
X007747
X007493
X007239
X006985
X006731
X006477
X006223
X005969
X005715
X005461
X005207
X004953
X004699
X004445
T08
X003265Y0091522
X015265
Y0121522
X003265
M30
