G04*
G04 #@! TF.GenerationSoftware,Altium Limited,Altium Designer,18.1.9 (240)*
G04*
G04 Layer_Color=16711935*
%FSLAX44Y44*%
%MOMM*%
G71*
G01*
G75*
%ADD10C,0.2540*%
%ADD13C,0.3000*%
%ADD15C,0.1270*%
%ADD101C,0.0000*%
%ADD102C,0.1984*%
D10*
X1526500Y885220D02*
G03*
X1556500Y915220I0J30000D01*
G01*
X296500D02*
G03*
X326500Y885220I30000J0D01*
G01*
Y1245220D02*
G03*
X296500Y1215220I0J-30000D01*
G01*
X1556500D02*
G03*
X1526500Y1245220I-30000J0D01*
G01*
X296500Y915220D02*
Y1215220D01*
X326500Y885220D02*
X1526500D01*
X326500Y1245220D02*
X1526500D01*
X1556500Y915220D02*
Y1215220D01*
D13*
X757980Y1093130D02*
G03*
X757980Y1093130I-1000J0D01*
G01*
D15*
X1526620Y1072000D02*
X1542620D01*
X1526620Y1064000D02*
X1542620D01*
X1526620D02*
Y1072000D01*
X1542620Y1064000D02*
Y1072000D01*
X1526620Y1056000D02*
X1542620D01*
X1526620Y1048000D02*
X1542620D01*
X1526620D02*
Y1056000D01*
X1542620Y1048000D02*
Y1056000D01*
X795230Y951500D02*
X811230D01*
X795230Y959500D02*
X811230D01*
Y951500D02*
Y959500D01*
X795230Y951500D02*
Y959500D01*
Y970500D02*
X811230D01*
X795230Y978500D02*
X811230D01*
Y970500D02*
Y978500D01*
X795230Y970500D02*
Y978500D01*
Y933250D02*
X811230D01*
X795230Y941250D02*
X811230D01*
Y933250D02*
Y941250D01*
X795230Y933250D02*
Y941250D01*
X795130Y990000D02*
X811130D01*
X795130Y998000D02*
X811130D01*
Y990000D02*
Y998000D01*
X795130Y990000D02*
Y998000D01*
X750150Y1105250D02*
X929350D01*
X749750Y913250D02*
Y1168250D01*
Y913250D02*
X929750D01*
Y1168250D01*
X749750D02*
X929750D01*
D101*
X1543000Y1101875D02*
G03*
X1543000Y1108875I0J3500D01*
G01*
X1538000D02*
G03*
X1538000Y1101875I0J-3500D01*
G01*
X1543000Y1156375D02*
G03*
X1543000Y1163375I0J3500D01*
G01*
X1538000D02*
G03*
X1538000Y1156375I0J-3500D01*
G01*
X1508200Y1111625D02*
G03*
X1508200Y1105125I0J-3250D01*
G01*
X1512200D02*
G03*
X1512200Y1111625I0J3250D01*
G01*
X1508200Y1160125D02*
G03*
X1508200Y1153625I0J-3250D01*
G01*
X1512200D02*
G03*
X1512200Y1160125I0J3250D01*
G01*
X1538000Y1108875D02*
X1543000D01*
X1538000Y1101875D02*
X1543000D01*
X1538000Y1156375D02*
X1543000D01*
X1538000Y1163375D02*
X1543000D01*
X1508200Y1111625D02*
X1512200D01*
X1508200Y1105125D02*
X1512200D01*
X1508200Y1153625D02*
X1512200D01*
X1508200Y1160125D02*
X1512200D01*
D102*
X796784Y1124760D02*
X789642Y1143505D01*
X782501Y1124760D01*
X785179Y1131008D02*
X794106D01*
X801158Y1143505D02*
Y1124760D01*
Y1143505D02*
X813655Y1124760D01*
Y1143505D02*
Y1124760D01*
X825081Y1143505D02*
Y1124760D01*
X818832Y1143505D02*
X831330D01*
X845166D02*
X833561D01*
Y1124760D01*
X845166D01*
X833561Y1134579D02*
X840703D01*
X848290Y1143505D02*
Y1124760D01*
Y1143505D02*
X860788Y1124760D01*
Y1143505D02*
Y1124760D01*
X865965Y1143505D02*
Y1124760D01*
Y1143505D02*
X878463Y1124760D01*
Y1143505D02*
Y1124760D01*
X897923D02*
X890781Y1143505D01*
X883640Y1124760D01*
X886318Y1131008D02*
X895245D01*
M02*
