G04*
G04 #@! TF.GenerationSoftware,Altium Limited,Altium Designer,18.1.9 (240)*
G04*
G04 Layer_Color=16711935*
%FSLAX44Y44*%
%MOMM*%
G71*
G01*
G75*
%ADD67C,0.1000*%
D67*
X1417750Y997250D02*
Y1014750D01*
X1427250Y997250D02*
Y1014750D01*
X1417750Y997250D02*
X1427250D01*
X1417750Y1014750D02*
X1427250D01*
X425250Y1027000D02*
Y1044500D01*
X415750Y1027000D02*
Y1044500D01*
X425250D01*
X415750Y1027000D02*
X425250D01*
X572750Y1026750D02*
Y1044250D01*
X563250Y1026750D02*
Y1044250D01*
X572750D01*
X563250Y1026750D02*
X572750D01*
X720250Y1018000D02*
Y1035500D01*
X710750Y1018000D02*
Y1035500D01*
X720250D01*
X710750Y1018000D02*
X720250D01*
X1046750Y1025250D02*
X1064250D01*
X1046750Y1034750D02*
X1064250D01*
Y1025250D02*
Y1034750D01*
X1046750Y1025250D02*
Y1034750D01*
Y1009500D02*
X1064250D01*
X1046750Y1019000D02*
X1064250D01*
Y1009500D02*
Y1019000D01*
X1046750Y1009500D02*
Y1019000D01*
X835500Y960500D02*
X853000D01*
X835500Y951000D02*
X853000D01*
Y960500D01*
X835500Y951000D02*
Y960500D01*
Y998750D02*
X853000D01*
X835500Y989250D02*
X853000D01*
Y998750D01*
X835500Y989250D02*
Y998750D01*
Y979250D02*
X853000D01*
X835500Y969750D02*
X853000D01*
Y979250D01*
X835500Y969750D02*
Y979250D01*
Y942250D02*
X853000D01*
X835500Y932750D02*
X853000D01*
Y942250D01*
X835500Y932750D02*
Y942250D01*
X1132750Y1060000D02*
Y1077500D01*
X1142250Y1060000D02*
Y1077500D01*
X1132750D02*
X1142250D01*
X1132750Y1060000D02*
X1142250D01*
X1150500Y1060250D02*
Y1077750D01*
X1160000Y1060250D02*
Y1077750D01*
X1150500D02*
X1160000D01*
X1150500Y1060250D02*
X1160000D01*
X1493500Y1062750D02*
X1511000D01*
X1493500Y1072250D02*
X1511000D01*
X1493500Y1062750D02*
Y1072250D01*
X1511000Y1062750D02*
Y1072250D01*
X1493500Y1056750D02*
X1511000D01*
X1493500Y1047250D02*
X1511000D01*
Y1056750D01*
X1493500Y1047250D02*
Y1056750D01*
X1513500Y970750D02*
Y1013249D01*
X1555500D01*
Y970750D02*
Y1013249D01*
X1513500Y970750D02*
X1555500D01*
X958750Y1068250D02*
Y1085750D01*
X968250Y1068250D02*
Y1085750D01*
X958750Y1068250D02*
X968250D01*
X958750Y1085750D02*
X968250D01*
X978500Y1088000D02*
Y1105500D01*
X988000Y1088000D02*
Y1105500D01*
X978500Y1088000D02*
X988000D01*
X978500Y1105500D02*
X988000D01*
X1176750Y1102750D02*
Y1120250D01*
X1167250Y1102750D02*
Y1120250D01*
X1176750D01*
X1167250Y1102750D02*
X1176750D01*
Y1074250D02*
Y1091750D01*
X1167250Y1074250D02*
Y1091750D01*
X1176750D01*
X1167250Y1074250D02*
X1176750D01*
X1151000Y1074000D02*
Y1091500D01*
X1160500Y1074000D02*
Y1091500D01*
X1151000Y1074000D02*
X1160500D01*
X1151000Y1091500D02*
X1160500D01*
X1141750Y1060250D02*
Y1077750D01*
X1132250Y1060250D02*
Y1077750D01*
X1141750D01*
X1132250Y1060250D02*
X1141750D01*
X1198000Y1095500D02*
Y1113000D01*
X1188500Y1095500D02*
Y1113000D01*
X1198000D01*
X1188500Y1095500D02*
X1198000D01*
X1210050Y1068000D02*
Y1082000D01*
X1240450Y1068000D02*
Y1082000D01*
X1210050Y1068000D02*
X1240450D01*
X1210050Y1082000D02*
X1240450D01*
X1240200Y1128550D02*
Y1142550D01*
X1209800Y1128550D02*
Y1142550D01*
X1240200D01*
X1209800Y1128550D02*
X1240200D01*
X1284000Y1023000D02*
X1301500D01*
X1284000Y1032500D02*
X1301500D01*
Y1023000D02*
Y1032500D01*
X1284000Y1023000D02*
Y1032500D01*
X1253500Y1095750D02*
Y1113250D01*
X1263000Y1095750D02*
Y1113250D01*
X1253500Y1095750D02*
X1263000D01*
X1253500Y1113250D02*
X1263000D01*
X1377000Y1101000D02*
Y1118500D01*
X1386500Y1101000D02*
Y1118500D01*
X1377000Y1101000D02*
X1386500D01*
X1377000Y1118500D02*
X1386500D01*
X1408250Y1087000D02*
Y1114000D01*
Y1087000D02*
X1424250D01*
X1408250Y1114000D02*
X1424250D01*
Y1087000D02*
Y1114000D01*
X1444000Y1061000D02*
X1462000D01*
X1444000Y1030000D02*
X1462000D01*
X1444000D02*
Y1061000D01*
X1462000Y1030000D02*
Y1061000D01*
X1360250Y1036750D02*
Y1054250D01*
X1350750Y1036750D02*
Y1054250D01*
X1360250D01*
X1350750Y1036750D02*
X1360250D01*
X1444500Y1016750D02*
X1462000D01*
X1444500Y1007250D02*
X1462000D01*
X1444500D02*
Y1016750D01*
X1462000Y1007250D02*
Y1016750D01*
X1469500Y960200D02*
Y977700D01*
X1460000Y960200D02*
Y977700D01*
X1469500D01*
X1460000Y960200D02*
X1469500D01*
X1434000Y966750D02*
X1451500D01*
X1434000Y957250D02*
X1451500D01*
X1434000D02*
Y966750D01*
X1451500Y957250D02*
Y966750D01*
X1434000Y971500D02*
X1451500D01*
X1434000Y981000D02*
X1451500D01*
Y971500D02*
Y981000D01*
X1434000Y971500D02*
Y981000D01*
X1301750Y1008000D02*
Y1017500D01*
X1284250Y1008000D02*
Y1017500D01*
Y1008000D02*
X1301750D01*
X1284250Y1017500D02*
X1301750D01*
M02*
