G04*
G04 #@! TF.GenerationSoftware,Altium Limited,Altium Designer,18.1.9 (240)*
G04*
G04 Layer_Color=32768*
%FSLAX44Y44*%
%MOMM*%
G71*
G01*
G75*
%ADD16C,0.2540*%
%ADD66C,0.0500*%
%ADD67C,0.1000*%
D16*
X326500Y1245220D02*
G03*
X296500Y1215220I0J-30000D01*
G01*
X1556500D02*
G03*
X1526500Y1245220I-30000J0D01*
G01*
Y885220D02*
G03*
X1556500Y915220I0J30000D01*
G01*
X296500D02*
G03*
X326500Y885220I30000J0D01*
G01*
X296500Y915220D02*
Y1215220D01*
X326500Y1244970D02*
X1526500D01*
X326500Y885220D02*
X1526500D01*
X1556500Y915220D02*
Y1215220D01*
D66*
X370680Y1031190D02*
Y1128690D01*
X297180Y1031190D02*
X370680D01*
X297180Y1128690D02*
X370680D01*
X297180Y1031190D02*
Y1128690D01*
X617850Y895170D02*
Y936170D01*
X664850Y895170D02*
Y936170D01*
X617850D02*
X664850D01*
X617850Y895170D02*
X664850D01*
X556390Y965520D02*
Y1005520D01*
X604390Y965520D02*
Y1005520D01*
X556390D02*
X604390D01*
X556390Y965520D02*
X604390D01*
X386210D02*
Y1005520D01*
X434210Y965520D02*
Y1005520D01*
X386210D02*
X434210D01*
X386210Y965520D02*
X434210D01*
X966830Y1134000D02*
Y1152000D01*
X922930D02*
X966830D01*
X922930Y1134000D02*
Y1152000D01*
Y1134000D02*
X966830D01*
D67*
X1426310Y899110D02*
X1438810D01*
X1426310Y924610D02*
X1438810D01*
X1426310Y899110D02*
Y924610D01*
X1438810Y899110D02*
Y924610D01*
X1432560Y907110D02*
Y916610D01*
X1427810Y911860D02*
X1437310D01*
X1355190Y899110D02*
X1367690D01*
X1355190Y924610D02*
X1367690D01*
X1355190Y899110D02*
Y924610D01*
X1367690Y899110D02*
Y924610D01*
X1361440Y907110D02*
Y916610D01*
X1356690Y911860D02*
X1366190D01*
X1284070Y899110D02*
X1296570D01*
X1284070Y924610D02*
X1296570D01*
X1284070Y899110D02*
Y924610D01*
X1296570Y899110D02*
Y924610D01*
X1290320Y907110D02*
Y916610D01*
X1285570Y911860D02*
X1295070D01*
X339930Y1079940D02*
X349930D01*
X344930Y1074940D02*
Y1084940D01*
X339930Y1079940D02*
X349930D01*
X344930Y1074940D02*
Y1084940D01*
X1148030Y970380D02*
Y982880D01*
X1173530Y970380D02*
Y982880D01*
X1148030D02*
X1173530D01*
X1148030Y970380D02*
X1173530D01*
X1156030Y976630D02*
X1165530D01*
X1160780Y971880D02*
Y981380D01*
X1104850Y970380D02*
Y982880D01*
X1130350Y970380D02*
Y982880D01*
X1104850D02*
X1130350D01*
X1104850Y970380D02*
X1130350D01*
X1112850Y976630D02*
X1122350D01*
X1117600Y971880D02*
Y981380D01*
X1061670Y970380D02*
Y982880D01*
X1087170Y970380D02*
Y982880D01*
X1061670D02*
X1087170D01*
X1061670Y970380D02*
X1087170D01*
X1069670Y976630D02*
X1079170D01*
X1074420Y971880D02*
Y981380D01*
X1018490Y970380D02*
Y982880D01*
X1043990Y970380D02*
Y982880D01*
X1018490D02*
X1043990D01*
X1018490Y970380D02*
X1043990D01*
X1026490Y976630D02*
X1035990D01*
X1031240Y971880D02*
Y981380D01*
X636350Y915670D02*
X646350D01*
X641350Y910670D02*
Y920670D01*
X575260Y923390D02*
Y935890D01*
X600760Y923390D02*
Y935890D01*
X575260D02*
X600760D01*
X575260Y923390D02*
X600760D01*
X583260Y929640D02*
X592760D01*
X588010Y924890D02*
Y934390D01*
X532080Y923390D02*
Y935890D01*
X557580Y923390D02*
Y935890D01*
X532080D02*
X557580D01*
X532080Y923390D02*
X557580D01*
X540080Y929640D02*
X549580D01*
X544830Y924890D02*
Y934390D01*
X461110Y910540D02*
X473610D01*
X461110Y936040D02*
X473610D01*
X461110Y910540D02*
Y936040D01*
X473610Y910540D02*
Y936040D01*
X467360Y918540D02*
Y928040D01*
X462610Y923290D02*
X472110D01*
X417780Y923390D02*
Y935890D01*
X443280Y923390D02*
Y935890D01*
X417780D02*
X443280D01*
X417780Y923390D02*
X443280D01*
X425780Y929640D02*
X435280D01*
X430530Y924890D02*
Y934390D01*
X660350Y993240D02*
Y1005740D01*
X685850Y993240D02*
Y1005740D01*
X660350D02*
X685850D01*
X660350Y993240D02*
X685850D01*
X668350Y999490D02*
X677850D01*
X673100Y994740D02*
Y1004240D01*
X617170Y993240D02*
Y1005740D01*
X642670Y993240D02*
Y1005740D01*
X617170D02*
X642670D01*
X617170Y993240D02*
X642670D01*
X625170Y999490D02*
X634670D01*
X629920Y994740D02*
Y1004240D01*
X575390Y985520D02*
X585390D01*
X580390Y980520D02*
Y990520D01*
X448410Y980390D02*
X460910D01*
X448410Y1005890D02*
X460910D01*
X448410Y980390D02*
Y1005890D01*
X460910Y980390D02*
Y1005890D01*
X454660Y988390D02*
Y997890D01*
X449910Y993140D02*
X459410D01*
X405210Y985520D02*
X415210D01*
X410210Y980520D02*
Y990520D01*
X944880Y1140500D02*
Y1145500D01*
X942380Y1143000D02*
X947380D01*
X852270Y1126440D02*
X864770D01*
X852270Y1151940D02*
X864770D01*
X852270Y1126440D02*
Y1151940D01*
X864770Y1126440D02*
Y1151940D01*
X858520Y1134440D02*
Y1143940D01*
X853770Y1139190D02*
X863270D01*
X801320Y1139290D02*
Y1151790D01*
X826820Y1139290D02*
Y1151790D01*
X801320D02*
X826820D01*
X801320Y1139290D02*
X826820D01*
X809320Y1145540D02*
X818820D01*
X814070Y1140790D02*
Y1150290D01*
X428090Y1126440D02*
X440590D01*
X428090Y1151940D02*
X440590D01*
X428090Y1126440D02*
Y1151940D01*
X440590Y1126440D02*
Y1151940D01*
X434340Y1134440D02*
Y1143940D01*
X429590Y1139190D02*
X439090D01*
X372210Y1126440D02*
X384710D01*
X372210Y1151940D02*
X384710D01*
X372210Y1126440D02*
Y1151940D01*
X384710Y1126440D02*
Y1151940D01*
X378460Y1134440D02*
Y1143940D01*
X373710Y1139190D02*
X383210D01*
M02*
