G04*
G04 #@! TF.GenerationSoftware,Altium Limited,Altium Designer,18.1.9 (240)*
G04*
G04 Layer_Physical_Order=2*
G04 Layer_Color=16711680*
%FSLAX44Y44*%
%MOMM*%
G71*
G01*
G75*
%ADD10C,0.2500*%
%ADD15C,0.1270*%
%ADD17R,0.8000X0.9000*%
%ADD18R,0.9000X0.8000*%
%ADD58C,0.5000*%
%ADD59C,0.1000*%
%ADD62C,1.5000*%
%ADD63R,1.5000X1.5000*%
%ADD64R,1.1000X1.1000*%
%ADD65O,1.8000X1.1000*%
%ADD66O,1.6000X1.2000*%
%ADD67C,1.2002*%
%ADD68C,0.8001*%
%ADD69R,1.5000X1.5000*%
%ADD70C,0.5000*%
%ADD71C,0.4500*%
%ADD72C,3.0000*%
%ADD73R,0.2200X0.8400*%
%ADD74R,0.8400X0.2200*%
%ADD75R,4.9500X4.9500*%
%ADD76R,1.6000X0.8000*%
%ADD77R,3.0000X2.1000*%
%ADD78R,1.2000X0.4500*%
%ADD79R,1.5499X1.3000*%
%ADD80R,0.8000X0.8000*%
%ADD81R,1.3000X1.5499*%
G36*
X328628Y1245750D02*
X1525372D01*
X1525372Y1245750D01*
X1525372Y1245750D01*
X1527422Y1245748D01*
X1531487Y1245210D01*
X1535447Y1244146D01*
X1539234Y1242574D01*
X1542784Y1240521D01*
X1546035Y1238022D01*
X1548932Y1235121D01*
X1551426Y1231866D01*
X1553473Y1228313D01*
X1555039Y1224524D01*
X1556098Y1220562D01*
X1556630Y1216496D01*
X1556628Y1214446D01*
Y1178861D01*
X1555474Y1178565D01*
X1555358Y1178578D01*
X1554260Y1180010D01*
X1552792Y1181135D01*
X1551084Y1181843D01*
X1549250Y1182085D01*
X1542250D01*
X1541790Y1182024D01*
X1532210D01*
X1531750Y1182085D01*
X1524750D01*
X1522916Y1181843D01*
X1521208Y1181135D01*
X1519740Y1180010D01*
X1518615Y1178542D01*
X1517907Y1176834D01*
X1517838Y1176314D01*
X1517704Y1176147D01*
X1516459Y1175565D01*
X1515214Y1176080D01*
X1513250Y1176339D01*
X1509250D01*
X1507286Y1176080D01*
X1505455Y1175322D01*
X1503884Y1174116D01*
X1502678Y1172544D01*
X1501920Y1170714D01*
X1501661Y1168750D01*
X1501920Y1166786D01*
X1502678Y1164956D01*
X1503884Y1163384D01*
X1505455Y1162178D01*
X1507286Y1161420D01*
X1509250Y1161161D01*
X1513250D01*
X1515214Y1161420D01*
X1517044Y1162178D01*
X1518616Y1163384D01*
X1519822Y1164956D01*
X1520580Y1166786D01*
X1520702Y1167711D01*
X1522087Y1168500D01*
X1522916Y1168157D01*
X1524750Y1167915D01*
X1531750D01*
X1532210Y1167976D01*
X1541790D01*
X1542250Y1167915D01*
X1549250D01*
X1551084Y1168157D01*
X1552792Y1168865D01*
X1554260Y1169990D01*
X1555358Y1171422D01*
X1555474Y1171435D01*
X1556628Y1171139D01*
Y1094361D01*
X1555474Y1094065D01*
X1555358Y1094078D01*
X1554260Y1095510D01*
X1552792Y1096635D01*
X1551084Y1097343D01*
X1549250Y1097585D01*
X1542250D01*
X1541790Y1097524D01*
X1532210D01*
X1531750Y1097585D01*
X1524750D01*
X1522916Y1097343D01*
X1522087Y1097000D01*
X1520702Y1097789D01*
X1520580Y1098714D01*
X1519822Y1100545D01*
X1518616Y1102116D01*
X1517044Y1103322D01*
X1515214Y1104080D01*
X1513250Y1104339D01*
X1509250D01*
X1507286Y1104080D01*
X1505455Y1103322D01*
X1503884Y1102116D01*
X1502678Y1100545D01*
X1501920Y1098714D01*
X1501661Y1096750D01*
X1501920Y1094786D01*
X1502678Y1092955D01*
X1503884Y1091384D01*
X1505455Y1090178D01*
X1507286Y1089420D01*
X1509250Y1089161D01*
X1513250D01*
X1515214Y1089420D01*
X1516459Y1089935D01*
X1517704Y1089353D01*
X1517838Y1089186D01*
X1517907Y1088666D01*
X1518615Y1086958D01*
X1519740Y1085490D01*
X1521208Y1084365D01*
X1521791Y1084123D01*
X1521539Y1082853D01*
X1438250D01*
X1436680Y1082541D01*
X1435349Y1081651D01*
X1425349Y1071651D01*
X1424460Y1070320D01*
X1424147Y1068750D01*
X1424460Y1067180D01*
X1425349Y1065849D01*
X1426680Y1064959D01*
X1428250Y1064647D01*
X1429820Y1064959D01*
X1431151Y1065849D01*
X1439949Y1074647D01*
X1487484D01*
X1488710Y1074540D01*
X1488710Y1073377D01*
Y1068770D01*
X1495250D01*
X1501790D01*
X1501790Y1074540D01*
X1503016Y1074647D01*
X1503371D01*
X1503726Y1073524D01*
X1503726Y1073377D01*
Y1069469D01*
X1503459Y1069070D01*
X1503147Y1067500D01*
X1503459Y1065930D01*
X1503726Y1065531D01*
Y1061476D01*
X1514774D01*
Y1063897D01*
X1521096D01*
Y1062476D01*
X1532144D01*
Y1073377D01*
X1532144Y1073524D01*
X1532498Y1074647D01*
X1535801D01*
X1537096Y1073352D01*
Y1062476D01*
X1548144D01*
Y1073524D01*
X1546723D01*
Y1073630D01*
X1546411Y1075200D01*
X1545521Y1076531D01*
X1540401Y1081651D01*
X1539571Y1082206D01*
X1539956Y1083476D01*
X1541790D01*
X1542250Y1083415D01*
X1549250D01*
X1551084Y1083657D01*
X1552792Y1084365D01*
X1554260Y1085490D01*
X1555358Y1086922D01*
X1555474Y1086935D01*
X1556628Y1086639D01*
Y914446D01*
X1556628Y914446D01*
X1556628Y912401D01*
X1556094Y908347D01*
X1555036Y904397D01*
X1553471Y900619D01*
X1551426Y897077D01*
X1548937Y893833D01*
X1546045Y890941D01*
X1542801Y888452D01*
X1539259Y886407D01*
X1535481Y884842D01*
X1531531Y883784D01*
X1527477Y883250D01*
X1525432D01*
X325324Y883250D01*
X323278Y883250D01*
X319220Y883784D01*
X315267Y884844D01*
X311486Y886410D01*
X307942Y888456D01*
X304695Y890947D01*
X301801Y893841D01*
X299310Y897088D01*
X297264Y900632D01*
X295698Y904413D01*
X294639Y908366D01*
X294104Y912424D01*
X294104Y914470D01*
X294229Y1217263D01*
X294229Y1217263D01*
X294229Y1217263D01*
X294423Y1219324D01*
X295345Y1223360D01*
X296786Y1227241D01*
X298721Y1230901D01*
X301118Y1234277D01*
X303934Y1237311D01*
X307123Y1239951D01*
X310629Y1242153D01*
X314392Y1243878D01*
X318349Y1245098D01*
X322430Y1245790D01*
X326567Y1245944D01*
X328628Y1245750D01*
D02*
G37*
%LPC*%
G36*
X1054100Y1229572D02*
X1051744Y1229262D01*
X1049549Y1228352D01*
X1047664Y1226906D01*
X1046218Y1225021D01*
X1045308Y1222826D01*
X1044998Y1220470D01*
X1045308Y1218114D01*
X1046218Y1215919D01*
X1047664Y1214034D01*
X1049549Y1212588D01*
X1051744Y1211678D01*
X1051899Y1211658D01*
Y1206400D01*
X1051989Y1205947D01*
X1050818Y1205322D01*
X1037554Y1218586D01*
X1037802Y1220470D01*
X1037492Y1222826D01*
X1036582Y1225021D01*
X1035136Y1226906D01*
X1033251Y1228352D01*
X1031056Y1229262D01*
X1028700Y1229572D01*
X1026344Y1229262D01*
X1024149Y1228352D01*
X1022264Y1226906D01*
X1020818Y1225021D01*
X1019908Y1222826D01*
X1019598Y1220470D01*
X1019908Y1218114D01*
X1020818Y1215919D01*
X1022074Y1214282D01*
X1021687Y1213012D01*
X1013871D01*
X1011088Y1215796D01*
X1011182Y1215919D01*
X1012092Y1218114D01*
X1012402Y1220470D01*
X1012092Y1222826D01*
X1011182Y1225021D01*
X1009736Y1226906D01*
X1007851Y1228352D01*
X1005656Y1229262D01*
X1003300Y1229572D01*
X1000944Y1229262D01*
X998749Y1228352D01*
X996864Y1226906D01*
X995418Y1225021D01*
X994508Y1222826D01*
X994198Y1220470D01*
X994508Y1218114D01*
X995418Y1215919D01*
X996864Y1214034D01*
X998749Y1212588D01*
X1000944Y1211678D01*
X1003300Y1211368D01*
X1005656Y1211678D01*
X1007851Y1212588D01*
X1007974Y1212682D01*
X1010185Y1210472D01*
X1009659Y1209202D01*
X994411D01*
X986342Y1217271D01*
X986692Y1218114D01*
X987002Y1220470D01*
X986692Y1222826D01*
X985782Y1225021D01*
X984336Y1226906D01*
X982451Y1228352D01*
X980256Y1229262D01*
X977900Y1229572D01*
X975544Y1229262D01*
X973349Y1228352D01*
X971464Y1226906D01*
X970018Y1225021D01*
X969108Y1222826D01*
X968798Y1220470D01*
X969108Y1218114D01*
X970018Y1215919D01*
X971464Y1214034D01*
X973349Y1212588D01*
X975544Y1211678D01*
X977900Y1211368D01*
X980256Y1211678D01*
X982451Y1212588D01*
X983780Y1213607D01*
X990725Y1206662D01*
X990199Y1205392D01*
X970691D01*
X960288Y1215796D01*
X960382Y1215919D01*
X961292Y1218114D01*
X961602Y1220470D01*
X961292Y1222826D01*
X960382Y1225021D01*
X958936Y1226906D01*
X957051Y1228352D01*
X954856Y1229262D01*
X952500Y1229572D01*
X950144Y1229262D01*
X947949Y1228352D01*
X946064Y1226906D01*
X944618Y1225021D01*
X943708Y1222826D01*
X943398Y1220470D01*
X943708Y1218114D01*
X944618Y1215919D01*
X946064Y1214034D01*
X947949Y1212588D01*
X950144Y1211678D01*
X952500Y1211368D01*
X954856Y1211678D01*
X957051Y1212588D01*
X957175Y1212682D01*
X967005Y1202852D01*
X966479Y1201582D01*
X946781D01*
X933880Y1214483D01*
X934982Y1215919D01*
X935892Y1218114D01*
X936202Y1220470D01*
X935892Y1222826D01*
X934982Y1225021D01*
X933536Y1226906D01*
X931651Y1228352D01*
X929456Y1229262D01*
X927100Y1229572D01*
X924744Y1229262D01*
X922549Y1228352D01*
X920664Y1226906D01*
X919218Y1225021D01*
X918308Y1222826D01*
X917998Y1220470D01*
X918308Y1218114D01*
X919218Y1215919D01*
X920664Y1214034D01*
X922549Y1212588D01*
X924744Y1211678D01*
X927100Y1211368D01*
X929456Y1211678D01*
X930165Y1211972D01*
X944166Y1197971D01*
X944067Y1197369D01*
X943707Y1196701D01*
X928582D01*
X909488Y1215796D01*
X909582Y1215919D01*
X910492Y1218114D01*
X910802Y1220470D01*
X910492Y1222826D01*
X909582Y1225021D01*
X908136Y1226906D01*
X906251Y1228352D01*
X904056Y1229262D01*
X901700Y1229572D01*
X899344Y1229262D01*
X897149Y1228352D01*
X895264Y1226906D01*
X893818Y1225021D01*
X892908Y1222826D01*
X892598Y1220470D01*
X892908Y1218114D01*
X893818Y1215919D01*
X895264Y1214034D01*
X897149Y1212588D01*
X899344Y1211678D01*
X901700Y1211368D01*
X904056Y1211678D01*
X906251Y1212588D01*
X906375Y1212682D01*
X925048Y1194009D01*
X924522Y1192739D01*
X907144D01*
X884088Y1215796D01*
X884182Y1215919D01*
X885092Y1218114D01*
X885402Y1220470D01*
X885092Y1222826D01*
X884182Y1225021D01*
X882736Y1226906D01*
X880851Y1228352D01*
X878656Y1229262D01*
X876300Y1229572D01*
X873944Y1229262D01*
X871749Y1228352D01*
X869864Y1226906D01*
X868418Y1225021D01*
X867508Y1222826D01*
X867198Y1220470D01*
X867508Y1218114D01*
X868418Y1215919D01*
X869864Y1214034D01*
X871749Y1212588D01*
X873944Y1211678D01*
X876300Y1211368D01*
X878656Y1211678D01*
X880851Y1212588D01*
X880975Y1212682D01*
X903610Y1190046D01*
X903084Y1188776D01*
X885707D01*
X858688Y1215796D01*
X858782Y1215919D01*
X859692Y1218114D01*
X860002Y1220470D01*
X859692Y1222826D01*
X858782Y1225021D01*
X857336Y1226906D01*
X855451Y1228352D01*
X853256Y1229262D01*
X850900Y1229572D01*
X848544Y1229262D01*
X846349Y1228352D01*
X844464Y1226906D01*
X843018Y1225021D01*
X842108Y1222826D01*
X841798Y1220470D01*
X842108Y1218114D01*
X843018Y1215919D01*
X844464Y1214034D01*
X846349Y1212588D01*
X848544Y1211678D01*
X850900Y1211368D01*
X853256Y1211678D01*
X855451Y1212588D01*
X855574Y1212682D01*
X882173Y1186084D01*
X881647Y1184814D01*
X864269D01*
X833288Y1215796D01*
X833382Y1215919D01*
X834292Y1218114D01*
X834602Y1220470D01*
X834292Y1222826D01*
X833382Y1225021D01*
X831936Y1226906D01*
X830051Y1228352D01*
X827856Y1229262D01*
X825500Y1229572D01*
X823144Y1229262D01*
X820949Y1228352D01*
X819064Y1226906D01*
X817618Y1225021D01*
X816708Y1222826D01*
X816398Y1220470D01*
X816708Y1218114D01*
X817618Y1215919D01*
X819064Y1214034D01*
X820949Y1212588D01*
X823144Y1211678D01*
X825500Y1211368D01*
X827856Y1211678D01*
X830051Y1212588D01*
X830174Y1212682D01*
X860735Y1182122D01*
X860209Y1180852D01*
X842831D01*
X807888Y1215796D01*
X807982Y1215919D01*
X808892Y1218114D01*
X809202Y1220470D01*
X808892Y1222826D01*
X807982Y1225021D01*
X806536Y1226906D01*
X804651Y1228352D01*
X802456Y1229262D01*
X800100Y1229572D01*
X797744Y1229262D01*
X795549Y1228352D01*
X793664Y1226906D01*
X792218Y1225021D01*
X791308Y1222826D01*
X790998Y1220470D01*
X791308Y1218114D01*
X792218Y1215919D01*
X793664Y1214034D01*
X795549Y1212588D01*
X797744Y1211678D01*
X800100Y1211368D01*
X802456Y1211678D01*
X804651Y1212588D01*
X804774Y1212682D01*
X839298Y1178159D01*
X838772Y1176889D01*
X821394D01*
X782488Y1215796D01*
X782582Y1215919D01*
X783492Y1218114D01*
X783802Y1220470D01*
X783492Y1222826D01*
X782582Y1225021D01*
X781136Y1226906D01*
X779251Y1228352D01*
X777056Y1229262D01*
X774700Y1229572D01*
X772344Y1229262D01*
X770149Y1228352D01*
X768264Y1226906D01*
X766818Y1225021D01*
X765908Y1222826D01*
X765598Y1220470D01*
X765908Y1218114D01*
X766818Y1215919D01*
X768264Y1214034D01*
X770149Y1212588D01*
X772344Y1211678D01*
X774700Y1211368D01*
X777056Y1211678D01*
X779251Y1212588D01*
X779374Y1212682D01*
X817860Y1174197D01*
X817334Y1172927D01*
X799956D01*
X757088Y1215796D01*
X757182Y1215919D01*
X758092Y1218114D01*
X758402Y1220470D01*
X758092Y1222826D01*
X757182Y1225021D01*
X755736Y1226906D01*
X753851Y1228352D01*
X751656Y1229262D01*
X749300Y1229572D01*
X746944Y1229262D01*
X744749Y1228352D01*
X742864Y1226906D01*
X741418Y1225021D01*
X740508Y1222826D01*
X740198Y1220470D01*
X740508Y1218114D01*
X741418Y1215919D01*
X742864Y1214034D01*
X744749Y1212588D01*
X746944Y1211678D01*
X749300Y1211368D01*
X751656Y1211678D01*
X753851Y1212588D01*
X753975Y1212682D01*
X796422Y1170235D01*
X795896Y1168964D01*
X778519D01*
X731688Y1215796D01*
X731782Y1215919D01*
X732692Y1218114D01*
X733002Y1220470D01*
X732692Y1222826D01*
X731782Y1225021D01*
X730336Y1226906D01*
X728451Y1228352D01*
X726256Y1229262D01*
X723900Y1229572D01*
X721544Y1229262D01*
X719349Y1228352D01*
X717464Y1226906D01*
X716018Y1225021D01*
X715108Y1222826D01*
X714798Y1220470D01*
X715108Y1218114D01*
X716018Y1215919D01*
X717464Y1214034D01*
X719349Y1212588D01*
X721544Y1211678D01*
X723900Y1211368D01*
X726256Y1211678D01*
X728451Y1212588D01*
X728575Y1212682D01*
X774985Y1166272D01*
X774459Y1165002D01*
X757081D01*
X706288Y1215796D01*
X706382Y1215919D01*
X707292Y1218114D01*
X707602Y1220470D01*
X707292Y1222826D01*
X706382Y1225021D01*
X704936Y1226906D01*
X703051Y1228352D01*
X700856Y1229262D01*
X698500Y1229572D01*
X696144Y1229262D01*
X693949Y1228352D01*
X692064Y1226906D01*
X690618Y1225021D01*
X689708Y1222826D01*
X689398Y1220470D01*
X689708Y1218114D01*
X690618Y1215919D01*
X692064Y1214034D01*
X693949Y1212588D01*
X696144Y1211678D01*
X698500Y1211368D01*
X700856Y1211678D01*
X703051Y1212588D01*
X703175Y1212682D01*
X753547Y1162310D01*
X753021Y1161040D01*
X735643D01*
X680888Y1215796D01*
X680982Y1215919D01*
X681892Y1218114D01*
X682202Y1220470D01*
X681892Y1222826D01*
X680982Y1225021D01*
X679536Y1226906D01*
X677651Y1228352D01*
X675456Y1229262D01*
X673100Y1229572D01*
X670744Y1229262D01*
X668549Y1228352D01*
X666664Y1226906D01*
X665218Y1225021D01*
X664308Y1222826D01*
X663998Y1220470D01*
X664308Y1218114D01*
X665218Y1215919D01*
X666664Y1214034D01*
X668549Y1212588D01*
X670744Y1211678D01*
X673100Y1211368D01*
X675456Y1211678D01*
X677651Y1212588D01*
X677775Y1212682D01*
X732110Y1158347D01*
X731583Y1157077D01*
X714206D01*
X655488Y1215796D01*
X655582Y1215919D01*
X656492Y1218114D01*
X656802Y1220470D01*
X656492Y1222826D01*
X655582Y1225021D01*
X654136Y1226906D01*
X652251Y1228352D01*
X650056Y1229262D01*
X647700Y1229572D01*
X645344Y1229262D01*
X643149Y1228352D01*
X641264Y1226906D01*
X639818Y1225021D01*
X638908Y1222826D01*
X638598Y1220470D01*
X638908Y1218114D01*
X639818Y1215919D01*
X641264Y1214034D01*
X643149Y1212588D01*
X645344Y1211678D01*
X647700Y1211368D01*
X650056Y1211678D01*
X652251Y1212588D01*
X652374Y1212682D01*
X710672Y1154385D01*
X710146Y1153115D01*
X692768D01*
X630088Y1215796D01*
X630182Y1215919D01*
X631092Y1218114D01*
X631402Y1220470D01*
X631092Y1222826D01*
X630182Y1225021D01*
X628736Y1226906D01*
X626851Y1228352D01*
X624656Y1229262D01*
X622300Y1229572D01*
X619944Y1229262D01*
X617749Y1228352D01*
X615864Y1226906D01*
X614418Y1225021D01*
X613508Y1222826D01*
X613198Y1220470D01*
X613508Y1218114D01*
X614418Y1215919D01*
X615864Y1214034D01*
X617749Y1212588D01*
X619944Y1211678D01*
X622300Y1211368D01*
X624656Y1211678D01*
X626851Y1212588D01*
X626974Y1212682D01*
X689234Y1150423D01*
X688708Y1149153D01*
X671331D01*
X604688Y1215796D01*
X604782Y1215919D01*
X605692Y1218114D01*
X606002Y1220470D01*
X605692Y1222826D01*
X604782Y1225021D01*
X603336Y1226906D01*
X601451Y1228352D01*
X599256Y1229262D01*
X596900Y1229572D01*
X594544Y1229262D01*
X592349Y1228352D01*
X590464Y1226906D01*
X589018Y1225021D01*
X588108Y1222826D01*
X587798Y1220470D01*
X588108Y1218114D01*
X589018Y1215919D01*
X590464Y1214034D01*
X592349Y1212588D01*
X594544Y1211678D01*
X596900Y1211368D01*
X599256Y1211678D01*
X601451Y1212588D01*
X601575Y1212682D01*
X667797Y1146460D01*
X667271Y1145190D01*
X649893D01*
X579288Y1215796D01*
X579382Y1215919D01*
X580292Y1218114D01*
X580602Y1220470D01*
X580292Y1222826D01*
X579382Y1225021D01*
X577936Y1226906D01*
X576051Y1228352D01*
X573856Y1229262D01*
X571500Y1229572D01*
X569144Y1229262D01*
X566949Y1228352D01*
X565064Y1226906D01*
X563618Y1225021D01*
X562708Y1222826D01*
X562398Y1220470D01*
X562708Y1218114D01*
X563618Y1215919D01*
X565064Y1214034D01*
X566949Y1212588D01*
X569144Y1211678D01*
X571500Y1211368D01*
X573856Y1211678D01*
X576051Y1212588D01*
X576175Y1212682D01*
X647425Y1141432D01*
X648139Y1140955D01*
X647932Y1139701D01*
X629982D01*
X553888Y1215796D01*
X553982Y1215919D01*
X554892Y1218114D01*
X555202Y1220470D01*
X554892Y1222826D01*
X553982Y1225021D01*
X552536Y1226906D01*
X550651Y1228352D01*
X548456Y1229262D01*
X546100Y1229572D01*
X543744Y1229262D01*
X541549Y1228352D01*
X539664Y1226906D01*
X538218Y1225021D01*
X537308Y1222826D01*
X536998Y1220470D01*
X537308Y1218114D01*
X538218Y1215919D01*
X539664Y1214034D01*
X541549Y1212588D01*
X543744Y1211678D01*
X546100Y1211368D01*
X548456Y1211678D01*
X550651Y1212588D01*
X550774Y1212682D01*
X627513Y1135944D01*
X628228Y1135466D01*
X628645Y1135383D01*
X628520Y1134113D01*
X610170D01*
X528488Y1215796D01*
X528582Y1215919D01*
X529492Y1218114D01*
X529802Y1220470D01*
X529492Y1222826D01*
X528582Y1225021D01*
X527136Y1226906D01*
X525251Y1228352D01*
X523056Y1229262D01*
X520700Y1229572D01*
X518344Y1229262D01*
X516149Y1228352D01*
X514264Y1226906D01*
X512818Y1225021D01*
X511908Y1222826D01*
X511598Y1220470D01*
X511908Y1218114D01*
X512818Y1215919D01*
X514264Y1214034D01*
X516149Y1212588D01*
X518344Y1211678D01*
X520700Y1211368D01*
X523056Y1211678D01*
X525251Y1212588D01*
X525374Y1212682D01*
X607701Y1130356D01*
X608416Y1129878D01*
X608833Y1129795D01*
X608708Y1128525D01*
X590358D01*
X503088Y1215796D01*
X503182Y1215919D01*
X504092Y1218114D01*
X504402Y1220470D01*
X504092Y1222826D01*
X503182Y1225021D01*
X501736Y1226906D01*
X499851Y1228352D01*
X497656Y1229262D01*
X495300Y1229572D01*
X492944Y1229262D01*
X490749Y1228352D01*
X488864Y1226906D01*
X487418Y1225021D01*
X486508Y1222826D01*
X486198Y1220470D01*
X486508Y1218114D01*
X487418Y1215919D01*
X488864Y1214034D01*
X490749Y1212588D01*
X492944Y1211678D01*
X495300Y1211368D01*
X497656Y1211678D01*
X499851Y1212588D01*
X499975Y1212682D01*
X587889Y1124768D01*
X588604Y1124290D01*
X589021Y1124207D01*
X588896Y1122937D01*
X570546D01*
X477688Y1215796D01*
X477782Y1215919D01*
X478692Y1218114D01*
X479002Y1220470D01*
X478692Y1222826D01*
X477782Y1225021D01*
X476336Y1226906D01*
X474451Y1228352D01*
X472256Y1229262D01*
X469900Y1229572D01*
X467544Y1229262D01*
X465349Y1228352D01*
X463464Y1226906D01*
X462018Y1225021D01*
X461108Y1222826D01*
X460798Y1220470D01*
X461108Y1218114D01*
X462018Y1215919D01*
X463464Y1214034D01*
X465349Y1212588D01*
X467544Y1211678D01*
X469900Y1211368D01*
X472256Y1211678D01*
X474451Y1212588D01*
X474575Y1212682D01*
X568077Y1119180D01*
X568792Y1118702D01*
X569209Y1118619D01*
X569084Y1117349D01*
X550734D01*
X453524Y1214559D01*
Y1229494D01*
X435476D01*
Y1211446D01*
X450411D01*
X548265Y1113592D01*
X548980Y1113114D01*
X549822Y1112947D01*
X930088D01*
X992841Y1050193D01*
X993556Y1049716D01*
X994398Y1049549D01*
X1066887D01*
X1067730Y1049716D01*
X1068444Y1050193D01*
X1082845Y1064594D01*
X1084115Y1064068D01*
Y1058728D01*
X1076193Y1050807D01*
X1075716Y1050092D01*
X1075549Y1049250D01*
Y1036662D01*
X1072576Y1033689D01*
X1071750Y1033853D01*
X1070180Y1033540D01*
X1068849Y1032651D01*
X1067960Y1031320D01*
X1067647Y1029750D01*
X1067960Y1028180D01*
X1068849Y1026849D01*
X1070180Y1025959D01*
X1071750Y1025647D01*
X1073320Y1025959D01*
X1074651Y1026849D01*
X1075540Y1028180D01*
X1075853Y1029750D01*
X1075689Y1030576D01*
X1079307Y1034193D01*
X1079784Y1034908D01*
X1079951Y1035750D01*
Y1048338D01*
X1086779Y1055166D01*
X1088049Y1054640D01*
Y939662D01*
X1077443Y929056D01*
X1076966Y928342D01*
X1076799Y927500D01*
Y919244D01*
X1069976D01*
Y901196D01*
X1088024D01*
Y919244D01*
X1081201D01*
Y926588D01*
X1091807Y937194D01*
X1092284Y937908D01*
X1092392Y938449D01*
X1093182Y938845D01*
X1093721Y938916D01*
X1102199Y930438D01*
Y919032D01*
X1102044Y919012D01*
X1099849Y918102D01*
X1097964Y916656D01*
X1096518Y914771D01*
X1095608Y912576D01*
X1095298Y910220D01*
X1095608Y907864D01*
X1096518Y905669D01*
X1097964Y903784D01*
X1099849Y902338D01*
X1102044Y901428D01*
X1104400Y901118D01*
X1106756Y901428D01*
X1108951Y902338D01*
X1110836Y903784D01*
X1112282Y905669D01*
X1113192Y907864D01*
X1113502Y910220D01*
X1113192Y912576D01*
X1112282Y914771D01*
X1110836Y916656D01*
X1108951Y918102D01*
X1106756Y919012D01*
X1106601Y919032D01*
Y931350D01*
X1106461Y932053D01*
X1106578Y932395D01*
X1107222Y933299D01*
X1116588D01*
X1127599Y922288D01*
Y919032D01*
X1127444Y919012D01*
X1125249Y918102D01*
X1123364Y916656D01*
X1121918Y914771D01*
X1121008Y912576D01*
X1120698Y910220D01*
X1121008Y907864D01*
X1121918Y905669D01*
X1123364Y903784D01*
X1125249Y902338D01*
X1127444Y901428D01*
X1129800Y901118D01*
X1132156Y901428D01*
X1134351Y902338D01*
X1136236Y903784D01*
X1137682Y905669D01*
X1138592Y907864D01*
X1138902Y910220D01*
X1138592Y912576D01*
X1137682Y914771D01*
X1136236Y916656D01*
X1134351Y918102D01*
X1132156Y919012D01*
X1132001Y919032D01*
Y923200D01*
X1131834Y924042D01*
X1131357Y924756D01*
X1119084Y937029D01*
X1119088Y937148D01*
X1119483Y938299D01*
X1124008D01*
X1147412Y914894D01*
X1147318Y914771D01*
X1146408Y912576D01*
X1146098Y910220D01*
X1146408Y907864D01*
X1147318Y905669D01*
X1148764Y903784D01*
X1150649Y902338D01*
X1152844Y901428D01*
X1155200Y901118D01*
X1157556Y901428D01*
X1159751Y902338D01*
X1161636Y903784D01*
X1163082Y905669D01*
X1163992Y907864D01*
X1164302Y910220D01*
X1163992Y912576D01*
X1163082Y914771D01*
X1161636Y916656D01*
X1159751Y918102D01*
X1157556Y919012D01*
X1155200Y919322D01*
X1152844Y919012D01*
X1150649Y918102D01*
X1150526Y918008D01*
X1127694Y940839D01*
X1128220Y942109D01*
X1145598D01*
X1172812Y914894D01*
X1172718Y914771D01*
X1171808Y912576D01*
X1171498Y910220D01*
X1171808Y907864D01*
X1172718Y905669D01*
X1174164Y903784D01*
X1176049Y902338D01*
X1178244Y901428D01*
X1180600Y901118D01*
X1182956Y901428D01*
X1185151Y902338D01*
X1187036Y903784D01*
X1188482Y905669D01*
X1189392Y907864D01*
X1189702Y910220D01*
X1189392Y912576D01*
X1188482Y914771D01*
X1187036Y916656D01*
X1185151Y918102D01*
X1182956Y919012D01*
X1180600Y919322D01*
X1178244Y919012D01*
X1176049Y918102D01*
X1175926Y918008D01*
X1148404Y945529D01*
X1148882Y946799D01*
X1166308D01*
X1198212Y914894D01*
X1198118Y914771D01*
X1197208Y912576D01*
X1196898Y910220D01*
X1197208Y907864D01*
X1198118Y905669D01*
X1199564Y903784D01*
X1201449Y902338D01*
X1203644Y901428D01*
X1206000Y901118D01*
X1208356Y901428D01*
X1210551Y902338D01*
X1212436Y903784D01*
X1213882Y905669D01*
X1214792Y907864D01*
X1215102Y910220D01*
X1214792Y912576D01*
X1213882Y914771D01*
X1212436Y916656D01*
X1210551Y918102D01*
X1208356Y919012D01*
X1206000Y919322D01*
X1203644Y919012D01*
X1201449Y918102D01*
X1201326Y918008D01*
X1169554Y949779D01*
X1170080Y951049D01*
X1187458D01*
X1223612Y914894D01*
X1223518Y914771D01*
X1222608Y912576D01*
X1222298Y910220D01*
X1222608Y907864D01*
X1223518Y905669D01*
X1224964Y903784D01*
X1226849Y902338D01*
X1229044Y901428D01*
X1231400Y901118D01*
X1233756Y901428D01*
X1235951Y902338D01*
X1237836Y903784D01*
X1239282Y905669D01*
X1240192Y907864D01*
X1240502Y910220D01*
X1240192Y912576D01*
X1239282Y914771D01*
X1237836Y916656D01*
X1235951Y918102D01*
X1233756Y919012D01*
X1231400Y919322D01*
X1229044Y919012D01*
X1226849Y918102D01*
X1226725Y918008D01*
X1190704Y954029D01*
X1191230Y955299D01*
X1208608D01*
X1249012Y914894D01*
X1248918Y914771D01*
X1248008Y912576D01*
X1247698Y910220D01*
X1248008Y907864D01*
X1248918Y905669D01*
X1250364Y903784D01*
X1252249Y902338D01*
X1254444Y901428D01*
X1256800Y901118D01*
X1259156Y901428D01*
X1261351Y902338D01*
X1263236Y903784D01*
X1264682Y905669D01*
X1265592Y907864D01*
X1265902Y910220D01*
X1265592Y912576D01*
X1264682Y914771D01*
X1263236Y916656D01*
X1261351Y918102D01*
X1259156Y919012D01*
X1256800Y919322D01*
X1254444Y919012D01*
X1252249Y918102D01*
X1252125Y918008D01*
X1211354Y958779D01*
X1211693Y959874D01*
X1211825Y960049D01*
X1229258D01*
X1274412Y914894D01*
X1274318Y914771D01*
X1273408Y912576D01*
X1273098Y910220D01*
X1273408Y907864D01*
X1274318Y905669D01*
X1275764Y903784D01*
X1277649Y902338D01*
X1279844Y901428D01*
X1282200Y901118D01*
X1284556Y901428D01*
X1286751Y902338D01*
X1288636Y903784D01*
X1290082Y905669D01*
X1290992Y907864D01*
X1291302Y910220D01*
X1290992Y912576D01*
X1290082Y914771D01*
X1288636Y916656D01*
X1286751Y918102D01*
X1284556Y919012D01*
X1282200Y919322D01*
X1279844Y919012D01*
X1277649Y918102D01*
X1277525Y918008D01*
X1231727Y963807D01*
X1231012Y964284D01*
X1230170Y964451D01*
X1126662D01*
X1124451Y966662D01*
Y1079126D01*
X1124874D01*
Y1088676D01*
X1126499D01*
Y1078050D01*
X1126666Y1077208D01*
X1127143Y1076494D01*
X1129193Y1074443D01*
X1129908Y1073966D01*
X1130750Y1073799D01*
X1131476D01*
Y1070226D01*
X1143524D01*
Y1073799D01*
X1149226D01*
Y1070476D01*
X1161274D01*
Y1071897D01*
X1178301D01*
X1197865Y1052333D01*
X1197339Y1051063D01*
X1185411D01*
X1185070Y1051291D01*
X1183500Y1051603D01*
X1181930Y1051291D01*
X1180599Y1050401D01*
X1179709Y1049070D01*
X1179397Y1047500D01*
X1179709Y1045930D01*
X1180599Y1044599D01*
X1181139Y1044059D01*
X1182470Y1043169D01*
X1184040Y1042857D01*
X1253660D01*
X1255230Y1043169D01*
X1256561Y1044059D01*
X1305949Y1093447D01*
X1309801D01*
X1321399Y1081849D01*
X1322730Y1080959D01*
X1324300Y1080647D01*
X1325200D01*
X1326770Y1080959D01*
X1328101Y1081849D01*
X1328990Y1083180D01*
X1329303Y1084750D01*
X1328990Y1086320D01*
X1328101Y1087651D01*
X1326770Y1088540D01*
X1326198Y1088654D01*
X1314401Y1100451D01*
X1313070Y1101340D01*
X1311500Y1101653D01*
X1304250D01*
X1302680Y1101340D01*
X1301349Y1100451D01*
X1251961Y1051063D01*
X1205570D01*
X1204892Y1052333D01*
X1205291Y1052930D01*
X1205603Y1054500D01*
X1205291Y1056070D01*
X1204401Y1057401D01*
X1182901Y1078901D01*
X1181570Y1079790D01*
X1180000Y1080103D01*
X1161274D01*
Y1081524D01*
X1149226D01*
Y1078201D01*
X1143524D01*
Y1081274D01*
X1131476D01*
X1130901Y1082306D01*
Y1088676D01*
X1134424D01*
Y1097099D01*
X1138388D01*
X1138529Y1095721D01*
X1137695Y1094473D01*
X1137402Y1093000D01*
X1137695Y1091527D01*
X1138529Y1090279D01*
X1139778Y1089445D01*
X1141250Y1089152D01*
X1142722Y1089445D01*
X1143971Y1090279D01*
X1144805Y1091527D01*
X1145098Y1093000D01*
X1144805Y1094473D01*
X1143971Y1095721D01*
X1143451Y1096068D01*
Y1097350D01*
X1143448Y1097364D01*
X1143521Y1097500D01*
X1144549Y1098341D01*
X1145500Y1098152D01*
X1146973Y1098445D01*
X1148221Y1099279D01*
X1149055Y1100527D01*
X1149348Y1102000D01*
X1149055Y1103473D01*
X1148221Y1104721D01*
X1146973Y1105555D01*
X1145500Y1105848D01*
X1144887Y1105726D01*
X1142647Y1107966D01*
X1143173Y1109236D01*
X1149290D01*
X1149729Y1108579D01*
X1150977Y1107745D01*
X1152450Y1107452D01*
X1153923Y1107745D01*
X1155171Y1108579D01*
X1156005Y1109827D01*
X1156298Y1111300D01*
X1156005Y1112773D01*
X1155171Y1114021D01*
X1153923Y1114855D01*
X1152450Y1115148D01*
X1150977Y1114855D01*
X1149729Y1114021D01*
X1149290Y1113364D01*
X1147513D01*
X1147161Y1114119D01*
X1147041Y1114634D01*
X1147805Y1115777D01*
X1148098Y1117250D01*
X1147805Y1118723D01*
X1147066Y1119829D01*
X1147229Y1120457D01*
X1147569Y1121099D01*
X1152782D01*
X1152945Y1120277D01*
X1153779Y1119029D01*
X1155027Y1118195D01*
X1156500Y1117902D01*
X1157972Y1118195D01*
X1159221Y1119029D01*
X1160055Y1120277D01*
X1160348Y1121750D01*
X1160055Y1123223D01*
X1159650Y1123829D01*
X1160329Y1125099D01*
X1237800D01*
X1238642Y1125266D01*
X1239357Y1125743D01*
X1286092Y1172479D01*
X1363510D01*
X1364352Y1172646D01*
X1365067Y1173123D01*
X1404626Y1212682D01*
X1404749Y1212588D01*
X1406944Y1211678D01*
X1409300Y1211368D01*
X1411656Y1211678D01*
X1413851Y1212588D01*
X1415736Y1214034D01*
X1417182Y1215919D01*
X1418092Y1218114D01*
X1418402Y1220470D01*
X1418092Y1222826D01*
X1417182Y1225021D01*
X1415736Y1226906D01*
X1413851Y1228352D01*
X1411656Y1229262D01*
X1409300Y1229572D01*
X1406944Y1229262D01*
X1404749Y1228352D01*
X1402864Y1226906D01*
X1401418Y1225021D01*
X1400508Y1222826D01*
X1400198Y1220470D01*
X1400508Y1218114D01*
X1401418Y1215919D01*
X1401512Y1215796D01*
X1362598Y1176881D01*
X1345220D01*
X1344694Y1178151D01*
X1379225Y1212682D01*
X1379349Y1212588D01*
X1381544Y1211678D01*
X1383900Y1211368D01*
X1386256Y1211678D01*
X1388451Y1212588D01*
X1390336Y1214034D01*
X1391782Y1215919D01*
X1392692Y1218114D01*
X1393002Y1220470D01*
X1392692Y1222826D01*
X1391782Y1225021D01*
X1390336Y1226906D01*
X1388451Y1228352D01*
X1386256Y1229262D01*
X1383900Y1229572D01*
X1381544Y1229262D01*
X1379349Y1228352D01*
X1377464Y1226906D01*
X1376018Y1225021D01*
X1375108Y1222826D01*
X1374798Y1220470D01*
X1375108Y1218114D01*
X1376018Y1215919D01*
X1376112Y1215796D01*
X1341262Y1180945D01*
X1323884D01*
X1323358Y1182215D01*
X1353826Y1212682D01*
X1353949Y1212588D01*
X1356144Y1211678D01*
X1358500Y1211368D01*
X1360856Y1211678D01*
X1363051Y1212588D01*
X1364936Y1214034D01*
X1366382Y1215919D01*
X1367292Y1218114D01*
X1367602Y1220470D01*
X1367292Y1222826D01*
X1366382Y1225021D01*
X1364936Y1226906D01*
X1363051Y1228352D01*
X1360856Y1229262D01*
X1358500Y1229572D01*
X1356144Y1229262D01*
X1353949Y1228352D01*
X1352064Y1226906D01*
X1350618Y1225021D01*
X1349708Y1222826D01*
X1349398Y1220470D01*
X1349708Y1218114D01*
X1350618Y1215919D01*
X1350712Y1215796D01*
X1319926Y1185009D01*
X1302548D01*
X1302022Y1186279D01*
X1328425Y1212682D01*
X1328549Y1212588D01*
X1330744Y1211678D01*
X1333100Y1211368D01*
X1335456Y1211678D01*
X1337651Y1212588D01*
X1339536Y1214034D01*
X1340982Y1215919D01*
X1341892Y1218114D01*
X1342202Y1220470D01*
X1341892Y1222826D01*
X1340982Y1225021D01*
X1339536Y1226906D01*
X1337651Y1228352D01*
X1335456Y1229262D01*
X1333100Y1229572D01*
X1330744Y1229262D01*
X1328549Y1228352D01*
X1326664Y1226906D01*
X1325218Y1225021D01*
X1324308Y1222826D01*
X1323998Y1220470D01*
X1324308Y1218114D01*
X1325218Y1215919D01*
X1325312Y1215795D01*
X1298590Y1189073D01*
X1281212D01*
X1280686Y1190343D01*
X1303026Y1212682D01*
X1303149Y1212588D01*
X1305344Y1211678D01*
X1307700Y1211368D01*
X1310056Y1211678D01*
X1312251Y1212588D01*
X1314136Y1214034D01*
X1315582Y1215919D01*
X1316492Y1218114D01*
X1316802Y1220470D01*
X1316492Y1222826D01*
X1315582Y1225021D01*
X1314136Y1226906D01*
X1312251Y1228352D01*
X1310056Y1229262D01*
X1307700Y1229572D01*
X1305344Y1229262D01*
X1303149Y1228352D01*
X1301264Y1226906D01*
X1299818Y1225021D01*
X1298908Y1222826D01*
X1298598Y1220470D01*
X1298908Y1218114D01*
X1299818Y1215919D01*
X1299912Y1215795D01*
X1277254Y1193137D01*
X1259876D01*
X1259350Y1194407D01*
X1277626Y1212682D01*
X1277749Y1212588D01*
X1279944Y1211678D01*
X1282300Y1211368D01*
X1284656Y1211678D01*
X1286851Y1212588D01*
X1288736Y1214034D01*
X1290182Y1215919D01*
X1291092Y1218114D01*
X1291402Y1220470D01*
X1291092Y1222826D01*
X1290182Y1225021D01*
X1288736Y1226906D01*
X1286851Y1228352D01*
X1284656Y1229262D01*
X1282300Y1229572D01*
X1279944Y1229262D01*
X1277749Y1228352D01*
X1275864Y1226906D01*
X1274418Y1225021D01*
X1273508Y1222826D01*
X1273198Y1220470D01*
X1273508Y1218114D01*
X1274418Y1215919D01*
X1274512Y1215796D01*
X1255918Y1197201D01*
X1241110D01*
X1240584Y1198471D01*
X1254012Y1211899D01*
X1254544Y1211678D01*
X1256900Y1211368D01*
X1259256Y1211678D01*
X1261451Y1212588D01*
X1263336Y1214034D01*
X1264782Y1215919D01*
X1265692Y1218114D01*
X1266002Y1220470D01*
X1265692Y1222826D01*
X1264782Y1225021D01*
X1263336Y1226906D01*
X1261451Y1228352D01*
X1259256Y1229262D01*
X1256900Y1229572D01*
X1254544Y1229262D01*
X1252349Y1228352D01*
X1250464Y1226906D01*
X1249018Y1225021D01*
X1248108Y1222826D01*
X1247798Y1220470D01*
X1248108Y1218114D01*
X1249018Y1215919D01*
X1250228Y1214341D01*
X1237469Y1201582D01*
X1217521D01*
X1216995Y1202852D01*
X1226825Y1212682D01*
X1226949Y1212588D01*
X1229144Y1211678D01*
X1231500Y1211368D01*
X1233856Y1211678D01*
X1236051Y1212588D01*
X1237936Y1214034D01*
X1239382Y1215919D01*
X1240292Y1218114D01*
X1240602Y1220470D01*
X1240292Y1222826D01*
X1239382Y1225021D01*
X1237936Y1226906D01*
X1236051Y1228352D01*
X1233856Y1229262D01*
X1231500Y1229572D01*
X1229144Y1229262D01*
X1226949Y1228352D01*
X1225064Y1226906D01*
X1223618Y1225021D01*
X1222708Y1222826D01*
X1222398Y1220470D01*
X1222708Y1218114D01*
X1223618Y1215919D01*
X1223712Y1215796D01*
X1213309Y1205392D01*
X1195931D01*
X1195405Y1206662D01*
X1201425Y1212682D01*
X1201549Y1212588D01*
X1203744Y1211678D01*
X1206100Y1211368D01*
X1208456Y1211678D01*
X1210651Y1212588D01*
X1212536Y1214034D01*
X1213982Y1215919D01*
X1214892Y1218114D01*
X1215202Y1220470D01*
X1214892Y1222826D01*
X1213982Y1225021D01*
X1212536Y1226906D01*
X1210651Y1228352D01*
X1208456Y1229262D01*
X1206100Y1229572D01*
X1203744Y1229262D01*
X1201549Y1228352D01*
X1199664Y1226906D01*
X1198218Y1225021D01*
X1197308Y1222826D01*
X1196998Y1220470D01*
X1197308Y1218114D01*
X1198218Y1215919D01*
X1198312Y1215796D01*
X1191719Y1209202D01*
X1180750D01*
X1179908Y1209035D01*
X1179193Y1208558D01*
X1147837Y1177201D01*
X1125345D01*
X1124757Y1178471D01*
X1124823Y1178549D01*
X1144750D01*
X1145592Y1178716D01*
X1146307Y1179193D01*
X1178739Y1211626D01*
X1180700Y1211368D01*
X1183056Y1211678D01*
X1185251Y1212588D01*
X1187136Y1214034D01*
X1188582Y1215919D01*
X1189492Y1218114D01*
X1189802Y1220470D01*
X1189492Y1222826D01*
X1188582Y1225021D01*
X1187136Y1226906D01*
X1185251Y1228352D01*
X1183056Y1229262D01*
X1180700Y1229572D01*
X1178344Y1229262D01*
X1176149Y1228352D01*
X1174264Y1226906D01*
X1172818Y1225021D01*
X1171908Y1222826D01*
X1171598Y1220470D01*
X1171908Y1218114D01*
X1172818Y1215919D01*
X1174264Y1214034D01*
X1174304Y1213418D01*
X1143838Y1182951D01*
X1122750D01*
X1121908Y1182784D01*
X1121193Y1182307D01*
X1110543Y1171656D01*
X1109165Y1172074D01*
X1109085Y1172472D01*
X1122320Y1185707D01*
X1139974D01*
X1140817Y1185874D01*
X1141531Y1186352D01*
X1156857Y1201677D01*
X1157334Y1202392D01*
X1157501Y1203234D01*
Y1211658D01*
X1157656Y1211678D01*
X1159851Y1212588D01*
X1161736Y1214034D01*
X1163182Y1215919D01*
X1164092Y1218114D01*
X1164402Y1220470D01*
X1164092Y1222826D01*
X1163182Y1225021D01*
X1161736Y1226906D01*
X1159851Y1228352D01*
X1157656Y1229262D01*
X1155300Y1229572D01*
X1152944Y1229262D01*
X1150749Y1228352D01*
X1148864Y1226906D01*
X1147418Y1225021D01*
X1146508Y1222826D01*
X1146198Y1220470D01*
X1146508Y1218114D01*
X1147418Y1215919D01*
X1148864Y1214034D01*
X1150749Y1212588D01*
X1152944Y1211678D01*
X1153099Y1211658D01*
Y1204146D01*
X1139062Y1190109D01*
X1121408D01*
X1120566Y1189942D01*
X1119852Y1189465D01*
X1104694Y1174306D01*
X1104216Y1173592D01*
X1104049Y1172750D01*
Y1160490D01*
X1103520D01*
Y1153750D01*
Y1147010D01*
X1105890D01*
Y1148026D01*
X1122976D01*
Y1144676D01*
Y1140676D01*
Y1136676D01*
Y1132676D01*
Y1128676D01*
Y1124676D01*
Y1122940D01*
X1121960D01*
Y1120570D01*
X1128700D01*
Y1118030D01*
X1121960D01*
Y1115660D01*
X1122976D01*
Y1112676D01*
Y1108676D01*
Y1106940D01*
X1121960D01*
Y1104570D01*
X1128700D01*
Y1102030D01*
X1121960D01*
Y1099660D01*
X1122976D01*
Y1096676D01*
Y1092676D01*
Y1090574D01*
X1065524D01*
Y1092676D01*
Y1096676D01*
Y1100676D01*
Y1104676D01*
Y1107660D01*
X1066540D01*
Y1110030D01*
X1059800D01*
X1053060D01*
Y1109501D01*
X1010472D01*
X960644Y1159330D01*
X961170Y1160600D01*
X971537D01*
X1018393Y1113744D01*
X1019108Y1113266D01*
X1019950Y1113099D01*
X1053060D01*
Y1112570D01*
X1059800D01*
X1066540D01*
Y1114940D01*
X1065524D01*
Y1116676D01*
Y1120676D01*
Y1124676D01*
Y1128676D01*
Y1132676D01*
Y1136676D01*
Y1140676D01*
Y1144676D01*
Y1148026D01*
X1098610D01*
Y1147010D01*
X1100980D01*
Y1153750D01*
Y1160490D01*
X1100451D01*
Y1187908D01*
X1125226Y1212682D01*
X1125349Y1212588D01*
X1127544Y1211678D01*
X1129900Y1211368D01*
X1132256Y1211678D01*
X1134451Y1212588D01*
X1136336Y1214034D01*
X1137782Y1215919D01*
X1138692Y1218114D01*
X1139002Y1220470D01*
X1138692Y1222826D01*
X1137782Y1225021D01*
X1136336Y1226906D01*
X1134451Y1228352D01*
X1132256Y1229262D01*
X1129900Y1229572D01*
X1127544Y1229262D01*
X1125349Y1228352D01*
X1123464Y1226906D01*
X1122018Y1225021D01*
X1121108Y1222826D01*
X1120798Y1220470D01*
X1121108Y1218114D01*
X1122018Y1215919D01*
X1122112Y1215796D01*
X1097721Y1191404D01*
X1096451Y1191930D01*
Y1195588D01*
X1106057Y1205193D01*
X1106534Y1205908D01*
X1106701Y1206750D01*
Y1211658D01*
X1106856Y1211678D01*
X1109051Y1212588D01*
X1110936Y1214034D01*
X1112382Y1215919D01*
X1113292Y1218114D01*
X1113602Y1220470D01*
X1113292Y1222826D01*
X1112382Y1225021D01*
X1110936Y1226906D01*
X1109051Y1228352D01*
X1106856Y1229262D01*
X1104500Y1229572D01*
X1102144Y1229262D01*
X1099949Y1228352D01*
X1098064Y1226906D01*
X1096618Y1225021D01*
X1095708Y1222826D01*
X1095398Y1220470D01*
X1095708Y1218114D01*
X1096618Y1215919D01*
X1098064Y1214034D01*
X1099949Y1212588D01*
X1102144Y1211678D01*
X1102299Y1211658D01*
Y1207662D01*
X1093147Y1198510D01*
X1091795Y1198466D01*
X1091523Y1198590D01*
X1081301Y1208812D01*
Y1211446D01*
X1088124D01*
Y1229494D01*
X1070076D01*
Y1211446D01*
X1076899D01*
Y1207900D01*
X1077066Y1207058D01*
X1077543Y1206344D01*
X1087894Y1195993D01*
Y1177515D01*
X1086624Y1176989D01*
X1056301Y1207312D01*
Y1211658D01*
X1056456Y1211678D01*
X1058651Y1212588D01*
X1060536Y1214034D01*
X1061982Y1215919D01*
X1062892Y1218114D01*
X1063202Y1220470D01*
X1062892Y1222826D01*
X1061982Y1225021D01*
X1060536Y1226906D01*
X1058651Y1228352D01*
X1056456Y1229262D01*
X1054100Y1229572D01*
D02*
G37*
G36*
X1526500Y1231824D02*
X1523261Y1231505D01*
X1520146Y1230560D01*
X1517275Y1229026D01*
X1514759Y1226961D01*
X1512694Y1224445D01*
X1511160Y1221574D01*
X1510215Y1218459D01*
X1509896Y1215220D01*
X1510215Y1211981D01*
X1511160Y1208866D01*
X1512694Y1205995D01*
X1514759Y1203479D01*
X1517275Y1201414D01*
X1520146Y1199880D01*
X1523261Y1198935D01*
X1526500Y1198616D01*
X1529739Y1198935D01*
X1532854Y1199880D01*
X1535725Y1201414D01*
X1538241Y1203479D01*
X1540306Y1205995D01*
X1541840Y1208866D01*
X1542785Y1211981D01*
X1543104Y1215220D01*
X1542785Y1218459D01*
X1541840Y1221574D01*
X1540306Y1224445D01*
X1538241Y1226961D01*
X1535725Y1229026D01*
X1532854Y1230560D01*
X1529739Y1231505D01*
X1526500Y1231824D01*
D02*
G37*
G36*
X326500D02*
X323261Y1231505D01*
X320146Y1230560D01*
X317275Y1229026D01*
X314759Y1226961D01*
X312694Y1224445D01*
X311160Y1221574D01*
X310215Y1218459D01*
X309896Y1215220D01*
X310215Y1211981D01*
X311160Y1208866D01*
X312694Y1205995D01*
X314759Y1203479D01*
X317275Y1201414D01*
X320146Y1199880D01*
X323261Y1198935D01*
X326500Y1198616D01*
X329739Y1198935D01*
X332854Y1199880D01*
X335725Y1201414D01*
X338241Y1203479D01*
X340306Y1205995D01*
X341840Y1208866D01*
X342785Y1211981D01*
X343104Y1215220D01*
X342785Y1218459D01*
X341840Y1221574D01*
X340306Y1224445D01*
X338241Y1226961D01*
X335725Y1229026D01*
X332854Y1230560D01*
X329739Y1231505D01*
X326500Y1231824D01*
D02*
G37*
G36*
X389771Y1176547D02*
Y1169370D01*
X396948D01*
X396822Y1170330D01*
X395961Y1172407D01*
X394593Y1174192D01*
X392808Y1175560D01*
X390731Y1176421D01*
X389771Y1176547D01*
D02*
G37*
G36*
X387231D02*
X386272Y1176421D01*
X384194Y1175560D01*
X382410Y1174192D01*
X381041Y1172407D01*
X380180Y1170330D01*
X380054Y1169370D01*
X387231D01*
Y1176547D01*
D02*
G37*
G36*
X396948Y1166830D02*
X389771D01*
Y1159653D01*
X390731Y1159779D01*
X392808Y1160640D01*
X394593Y1162009D01*
X395961Y1163793D01*
X396822Y1165871D01*
X396948Y1166830D01*
D02*
G37*
G36*
X387231D02*
X380054D01*
X380180Y1165871D01*
X381041Y1163793D01*
X382410Y1162009D01*
X384194Y1160640D01*
X386272Y1159779D01*
X387231Y1159653D01*
Y1166830D01*
D02*
G37*
G36*
X311500Y1160134D02*
X309345Y1159705D01*
X307517Y1158484D01*
X306296Y1156657D01*
X305867Y1154501D01*
X306296Y1152346D01*
X307517Y1150518D01*
X309345Y1149297D01*
X311500Y1148868D01*
X313656Y1149297D01*
X315483Y1150518D01*
X316704Y1152346D01*
X317133Y1154501D01*
X316704Y1156657D01*
X315483Y1158484D01*
X313656Y1159705D01*
X311500Y1160134D01*
D02*
G37*
G36*
X388501Y1150290D02*
X386537Y1150031D01*
X384706Y1149273D01*
X383134Y1148067D01*
X382165Y1146803D01*
X378700D01*
X377130Y1146491D01*
X375799Y1145601D01*
X341349Y1111151D01*
X340460Y1109820D01*
X340147Y1108250D01*
Y1052449D01*
X332197Y1044500D01*
X331024Y1044986D01*
Y1047824D01*
X312976D01*
Y1029776D01*
X331024D01*
Y1034647D01*
X332250D01*
X333820Y1034959D01*
X335151Y1035849D01*
X347151Y1047849D01*
X348041Y1049180D01*
X348353Y1050750D01*
Y1106551D01*
X380400Y1138597D01*
X382165D01*
X383134Y1137333D01*
X384706Y1136127D01*
X386537Y1135369D01*
X388501Y1135110D01*
X390466Y1135369D01*
X392296Y1136127D01*
X393868Y1137333D01*
X395074Y1138905D01*
X395832Y1140736D01*
X396091Y1142700D01*
X395832Y1144665D01*
X395074Y1146495D01*
X393868Y1148067D01*
X392296Y1149273D01*
X390466Y1150031D01*
X388501Y1150290D01*
D02*
G37*
G36*
X1515774Y1149524D02*
X1500726D01*
Y1148578D01*
X1475750D01*
X1474668Y1148363D01*
X1473750Y1147750D01*
X1468000Y1142000D01*
X1467387Y1141082D01*
X1467172Y1140000D01*
Y1122950D01*
X1467099Y1122901D01*
X1466210Y1121570D01*
X1465897Y1120000D01*
X1466210Y1118430D01*
X1467099Y1117099D01*
X1468430Y1116209D01*
X1470000Y1115897D01*
X1471570Y1116209D01*
X1472901Y1117099D01*
X1473790Y1118430D01*
X1474103Y1120000D01*
X1473790Y1121570D01*
X1472901Y1122901D01*
X1472828Y1122950D01*
Y1138829D01*
X1476922Y1142922D01*
X1491065D01*
X1491732Y1141652D01*
X1491210Y1140870D01*
X1490897Y1139300D01*
X1491210Y1137730D01*
X1492099Y1136399D01*
X1492623Y1136048D01*
Y1134521D01*
X1492099Y1134170D01*
X1491210Y1132839D01*
X1490897Y1131269D01*
X1491210Y1129699D01*
X1492099Y1128368D01*
X1493430Y1127479D01*
X1495000Y1127166D01*
X1496570Y1127479D01*
X1497901Y1128368D01*
X1498790Y1129699D01*
X1498835Y1129922D01*
X1500726D01*
Y1124540D01*
X1499710D01*
Y1121020D01*
X1508250D01*
X1516790D01*
Y1124540D01*
X1515774D01*
Y1135476D01*
Y1141976D01*
Y1149524D01*
D02*
G37*
G36*
X311500Y1130132D02*
X309345Y1129703D01*
X307517Y1128482D01*
X306296Y1126654D01*
X305867Y1124499D01*
X306296Y1122343D01*
X307517Y1120516D01*
X309345Y1119295D01*
X311500Y1118866D01*
X313656Y1119295D01*
X315483Y1120516D01*
X316704Y1122343D01*
X317133Y1124499D01*
X316704Y1126654D01*
X315483Y1128482D01*
X313656Y1129703D01*
X311500Y1130132D01*
D02*
G37*
G36*
X1516790Y1118480D02*
X1509520D01*
Y1114960D01*
X1516790D01*
Y1118480D01*
D02*
G37*
G36*
X1506980D02*
X1499710D01*
Y1114960D01*
X1506980D01*
Y1118480D01*
D02*
G37*
G36*
X388501Y1124890D02*
X386537Y1124631D01*
X384706Y1123873D01*
X383134Y1122667D01*
X381928Y1121095D01*
X381170Y1119265D01*
X380911Y1117300D01*
X381119Y1115721D01*
X356099Y1090700D01*
X355210Y1089369D01*
X354897Y1087799D01*
Y1034949D01*
X337401Y1017453D01*
X330089D01*
X329882Y1017951D01*
X328436Y1019836D01*
X326551Y1021282D01*
X324356Y1022192D01*
X322000Y1022502D01*
X319644Y1022192D01*
X317449Y1021282D01*
X315564Y1019836D01*
X314118Y1017951D01*
X313208Y1015756D01*
X312898Y1013400D01*
X313208Y1011044D01*
X314118Y1008849D01*
X315564Y1006964D01*
X317449Y1005518D01*
X319644Y1004608D01*
X322000Y1004298D01*
X324356Y1004608D01*
X326551Y1005518D01*
X328436Y1006964D01*
X329882Y1008849D01*
X330047Y1009247D01*
X339100D01*
X340670Y1009559D01*
X342001Y1010449D01*
X361901Y1030349D01*
X362790Y1031680D01*
X363103Y1033250D01*
Y1086099D01*
X386922Y1109918D01*
X388501Y1109710D01*
X390466Y1109969D01*
X392296Y1110727D01*
X393868Y1111933D01*
X395074Y1113505D01*
X395832Y1115336D01*
X396091Y1117300D01*
X395832Y1119265D01*
X395074Y1121095D01*
X393868Y1122667D01*
X392296Y1123873D01*
X390466Y1124631D01*
X388501Y1124890D01*
D02*
G37*
G36*
X1120524Y1145574D02*
X1067976D01*
Y1093026D01*
X1073074D01*
X1073131Y1092988D01*
X1075000Y1092616D01*
X1076869Y1092988D01*
X1076926Y1093026D01*
X1080574D01*
X1080631Y1092988D01*
X1082500Y1092616D01*
X1084369Y1092988D01*
X1084426Y1093026D01*
X1088074D01*
X1088131Y1092988D01*
X1090000Y1092616D01*
X1091869Y1092988D01*
X1091926Y1093026D01*
X1095574D01*
X1095631Y1092988D01*
X1097500Y1092616D01*
X1099369Y1092988D01*
X1099426Y1093026D01*
X1103074D01*
X1103131Y1092988D01*
X1105000Y1092616D01*
X1106869Y1092988D01*
X1106926Y1093026D01*
X1110574D01*
X1110631Y1092988D01*
X1112500Y1092616D01*
X1114369Y1092988D01*
X1114426Y1093026D01*
X1120524D01*
Y1145574D01*
D02*
G37*
G36*
X1393500Y1190603D02*
X1391930Y1190291D01*
X1390599Y1189401D01*
X1389709Y1188070D01*
X1389397Y1186500D01*
X1389709Y1184930D01*
X1390599Y1183599D01*
X1394147Y1180051D01*
Y1095250D01*
X1394460Y1093680D01*
X1395349Y1092349D01*
X1395599Y1092099D01*
X1396930Y1091209D01*
X1398500Y1090897D01*
X1400070Y1091209D01*
X1401401Y1092099D01*
X1402290Y1093430D01*
X1402603Y1095000D01*
X1402353Y1096257D01*
Y1181750D01*
X1402041Y1183320D01*
X1401151Y1184651D01*
X1396401Y1189401D01*
X1395070Y1190291D01*
X1393500Y1190603D01*
D02*
G37*
G36*
X388501Y1099490D02*
X386537Y1099231D01*
X384706Y1098473D01*
X383134Y1097267D01*
X381928Y1095695D01*
X381170Y1093865D01*
X380911Y1091900D01*
X381119Y1090321D01*
X375849Y1085050D01*
X374959Y1083719D01*
X374647Y1082149D01*
Y1022011D01*
X344689Y992053D01*
X330089D01*
X329882Y992551D01*
X328436Y994436D01*
X326551Y995882D01*
X324356Y996792D01*
X322000Y997102D01*
X319644Y996792D01*
X317449Y995882D01*
X315564Y994436D01*
X314118Y992551D01*
X313208Y990356D01*
X312898Y988000D01*
X313208Y985644D01*
X314118Y983449D01*
X315564Y981564D01*
X317449Y980118D01*
X319644Y979208D01*
X322000Y978898D01*
X324356Y979208D01*
X326551Y980118D01*
X328436Y981564D01*
X329882Y983449D01*
X330047Y983847D01*
X346389D01*
X347959Y984159D01*
X349290Y985049D01*
X381651Y1017410D01*
X382541Y1018741D01*
X382853Y1020311D01*
Y1080450D01*
X386922Y1084518D01*
X388501Y1084311D01*
X390466Y1084569D01*
X392296Y1085327D01*
X393868Y1086533D01*
X395074Y1088105D01*
X395832Y1089936D01*
X396091Y1091900D01*
X395832Y1093865D01*
X395074Y1095695D01*
X393868Y1097267D01*
X392296Y1098473D01*
X390466Y1099231D01*
X388501Y1099490D01*
D02*
G37*
G36*
X1248750Y1108853D02*
X1226250D01*
X1224680Y1108540D01*
X1223349Y1107651D01*
X1222459Y1106320D01*
X1222147Y1104750D01*
X1222459Y1103180D01*
X1223349Y1101849D01*
X1224680Y1100959D01*
X1226250Y1100647D01*
X1247051D01*
X1263599Y1084099D01*
X1264930Y1083210D01*
X1266500Y1082897D01*
X1268070Y1083210D01*
X1269401Y1084099D01*
X1270291Y1085430D01*
X1270603Y1087000D01*
X1270291Y1088570D01*
X1269401Y1089901D01*
X1251651Y1107651D01*
X1250320Y1108540D01*
X1248750Y1108853D01*
D02*
G37*
G36*
X1162290Y1068540D02*
X1156520D01*
Y1063270D01*
X1162290D01*
Y1068540D01*
D02*
G37*
G36*
X1153980D02*
X1148210D01*
Y1063270D01*
X1153980D01*
Y1068540D01*
D02*
G37*
G36*
X705000Y1071853D02*
X703430Y1071541D01*
X702099Y1070651D01*
X701209Y1069320D01*
X700897Y1067750D01*
X701209Y1066180D01*
X702099Y1064849D01*
X702599Y1064349D01*
X703930Y1063459D01*
X705500Y1063147D01*
X856750D01*
X858320Y1063459D01*
X859651Y1064349D01*
X860540Y1065680D01*
X860853Y1067250D01*
X860540Y1068820D01*
X859651Y1070151D01*
X858320Y1071040D01*
X856750Y1071353D01*
X706851D01*
X706570Y1071541D01*
X705000Y1071853D01*
D02*
G37*
G36*
X1144540Y1068290D02*
X1138770D01*
Y1063020D01*
X1144540D01*
Y1068290D01*
D02*
G37*
G36*
X1136230D02*
X1130460D01*
Y1063020D01*
X1136230D01*
Y1068290D01*
D02*
G37*
G36*
X1501790Y1066230D02*
X1496520D01*
Y1060460D01*
X1501790D01*
Y1066230D01*
D02*
G37*
G36*
X1493980D02*
X1488710D01*
Y1060460D01*
X1493980D01*
Y1066230D01*
D02*
G37*
G36*
X1162290Y1060730D02*
X1156520D01*
Y1055460D01*
X1162290D01*
Y1060730D01*
D02*
G37*
G36*
X1153980D02*
X1148210D01*
Y1055460D01*
X1153980D01*
Y1060730D01*
D02*
G37*
G36*
X1144540Y1060480D02*
X1138770D01*
Y1055210D01*
X1144540D01*
Y1060480D01*
D02*
G37*
G36*
X1136230D02*
X1130460D01*
Y1055210D01*
X1136230D01*
Y1060480D01*
D02*
G37*
G36*
X893500Y1084603D02*
X887250D01*
X885680Y1084290D01*
X884349Y1083401D01*
X855051Y1054103D01*
X715250D01*
X713680Y1053791D01*
X712349Y1052901D01*
X711460Y1051570D01*
X711147Y1050000D01*
X711460Y1048430D01*
X712349Y1047099D01*
X713680Y1046209D01*
X715250Y1045897D01*
X856750D01*
X858320Y1046209D01*
X859651Y1047099D01*
X888949Y1076397D01*
X893500D01*
X895070Y1076710D01*
X896401Y1077599D01*
X897290Y1078930D01*
X897603Y1080500D01*
X897290Y1082070D01*
X896401Y1083401D01*
X895070Y1084290D01*
X893500Y1084603D01*
D02*
G37*
G36*
X947250Y1088953D02*
X945680Y1088641D01*
X944349Y1087751D01*
X943845Y1086998D01*
X937349Y1080501D01*
X936460Y1079170D01*
X936147Y1077600D01*
Y1038000D01*
X936460Y1036430D01*
X936832Y1035873D01*
X936153Y1034603D01*
X912950D01*
X889401Y1058151D01*
X888070Y1059041D01*
X886500Y1059353D01*
X884930Y1059041D01*
X883599Y1058151D01*
X882710Y1056820D01*
X882397Y1055250D01*
X882710Y1053680D01*
X883599Y1052349D01*
X908349Y1027599D01*
X909680Y1026710D01*
X911250Y1026397D01*
X947750D01*
X949320Y1026710D01*
X950651Y1027599D01*
X951541Y1028930D01*
X951853Y1030500D01*
X951541Y1032070D01*
X950651Y1033401D01*
X944353Y1039699D01*
Y1075901D01*
X950151Y1081699D01*
X951040Y1083030D01*
X951353Y1084600D01*
Y1084850D01*
X951040Y1086420D01*
X950151Y1087751D01*
X948820Y1088641D01*
X947250Y1088953D01*
D02*
G37*
G36*
X1500774Y1058024D02*
X1489726D01*
Y1045976D01*
X1491147D01*
Y1043449D01*
X1487801Y1040103D01*
X1481750D01*
X1480180Y1039790D01*
X1478849Y1038901D01*
X1477959Y1037570D01*
X1477647Y1036000D01*
X1477959Y1034430D01*
X1478849Y1033099D01*
X1480180Y1032209D01*
X1481750Y1031897D01*
X1489500D01*
X1491070Y1032209D01*
X1492401Y1033099D01*
X1498151Y1038849D01*
X1499041Y1040180D01*
X1499353Y1041750D01*
Y1045976D01*
X1500774D01*
Y1058024D01*
D02*
G37*
G36*
X947500Y1021103D02*
X777250D01*
X775680Y1020790D01*
X774349Y1019901D01*
X773849Y1019401D01*
X772960Y1018070D01*
X772647Y1016500D01*
X772960Y1014930D01*
X773849Y1013599D01*
X775180Y1012710D01*
X776750Y1012397D01*
X778320Y1012710D01*
X778601Y1012897D01*
X947500D01*
X949070Y1013210D01*
X950401Y1014099D01*
X951291Y1015430D01*
X951603Y1017000D01*
X951291Y1018570D01*
X950401Y1019901D01*
X949070Y1020790D01*
X947500Y1021103D01*
D02*
G37*
G36*
X1514774Y1058024D02*
X1503726D01*
Y1045976D01*
X1505675D01*
X1505840Y1045757D01*
X1505545Y1044033D01*
X1505349Y1043901D01*
X1486301Y1024853D01*
X1433000D01*
X1431430Y1024540D01*
X1430099Y1023651D01*
X1429209Y1022320D01*
X1428897Y1020750D01*
X1429209Y1019180D01*
X1430099Y1017849D01*
X1431430Y1016960D01*
X1433000Y1016647D01*
X1488000D01*
X1489570Y1016960D01*
X1490901Y1017849D01*
X1509949Y1036897D01*
X1517622D01*
X1517976Y1035774D01*
X1517976Y1035627D01*
Y1011726D01*
X1551024D01*
Y1035774D01*
X1538363D01*
X1538238Y1037044D01*
X1539070Y1037209D01*
X1540401Y1038099D01*
X1545521Y1043219D01*
X1546411Y1044550D01*
X1546723Y1046120D01*
Y1046476D01*
X1548144D01*
Y1057524D01*
X1537096D01*
Y1046476D01*
X1537096Y1046476D01*
X1537096D01*
X1536291Y1045593D01*
X1535801Y1045103D01*
X1515682D01*
X1514774Y1045976D01*
X1514774Y1046373D01*
Y1047897D01*
X1521096D01*
Y1046476D01*
X1532144D01*
Y1057524D01*
X1521096D01*
Y1056103D01*
X1514774D01*
Y1058024D01*
D02*
G37*
G36*
X1414250Y1169353D02*
X1412680Y1169041D01*
X1411349Y1168151D01*
X1410459Y1166820D01*
X1410147Y1165250D01*
X1410459Y1163680D01*
X1411349Y1162349D01*
X1411397Y1162301D01*
Y1013900D01*
X1411709Y1012330D01*
X1412599Y1010999D01*
X1413930Y1010109D01*
X1415500Y1009797D01*
X1417070Y1010109D01*
X1418401Y1010999D01*
X1419290Y1012330D01*
X1419603Y1013900D01*
Y1164000D01*
X1419290Y1165570D01*
X1418401Y1166901D01*
X1417151Y1168151D01*
X1415820Y1169041D01*
X1414250Y1169353D01*
D02*
G37*
G36*
X746539Y1017590D02*
X738769D01*
Y1008571D01*
X746539D01*
Y1017590D01*
D02*
G37*
G36*
X451539D02*
X443769D01*
Y1008571D01*
X451539D01*
Y1017590D01*
D02*
G37*
G36*
X736229D02*
X728459D01*
Y1008571D01*
X736229D01*
Y1017590D01*
D02*
G37*
G36*
X441229D02*
X433459D01*
Y1008571D01*
X441229D01*
Y1017590D01*
D02*
G37*
G36*
X599039D02*
X591269D01*
Y1008571D01*
X599039D01*
Y1017590D01*
D02*
G37*
G36*
X588729D02*
X580959D01*
Y1008571D01*
X588729D01*
Y1017590D01*
D02*
G37*
G36*
X1078500Y1015853D02*
X1076930Y1015540D01*
X1075599Y1014651D01*
X1074709Y1013320D01*
X1074397Y1011750D01*
X1074709Y1010180D01*
X1075599Y1008849D01*
X1076930Y1007960D01*
X1078500Y1007647D01*
X1080070Y1007960D01*
X1081401Y1008849D01*
X1082290Y1010180D01*
X1082603Y1011750D01*
X1082290Y1013320D01*
X1081401Y1014651D01*
X1080070Y1015540D01*
X1078500Y1015853D01*
D02*
G37*
G36*
X842774Y1000024D02*
X831726D01*
Y998103D01*
X816654D01*
Y999524D01*
X805606D01*
Y988476D01*
X816654D01*
Y989897D01*
X831726D01*
Y987976D01*
X842774D01*
Y1000024D01*
D02*
G37*
G36*
X1374750Y1016853D02*
X1373180Y1016541D01*
X1371849Y1015651D01*
X1370959Y1014320D01*
X1370647Y1012750D01*
X1370959Y1011180D01*
X1371849Y1009849D01*
X1379148Y1002550D01*
Y997352D01*
X1370523D01*
Y1001273D01*
X1351976D01*
Y985226D01*
X1370523D01*
Y989146D01*
X1431478D01*
Y985226D01*
X1450025D01*
Y1001273D01*
X1431478D01*
Y997352D01*
X1387354D01*
Y1004249D01*
X1387041Y1005819D01*
X1386152Y1007150D01*
X1377651Y1015651D01*
X1376320Y1016541D01*
X1374750Y1016853D01*
D02*
G37*
G36*
X746539Y1006031D02*
X738769D01*
Y997011D01*
X746539D01*
Y1006031D01*
D02*
G37*
G36*
X736229D02*
X728459D01*
Y997011D01*
X736229D01*
Y1006031D01*
D02*
G37*
G36*
X599039Y1006031D02*
X591269D01*
Y997011D01*
X599039D01*
Y1006031D01*
D02*
G37*
G36*
X588729D02*
X580959D01*
Y997011D01*
X588729D01*
Y1006031D01*
D02*
G37*
G36*
X451539Y1006031D02*
X443769D01*
Y997011D01*
X451539D01*
Y1006031D01*
D02*
G37*
G36*
X441229D02*
X433459D01*
Y997011D01*
X441229D01*
Y1006031D01*
D02*
G37*
G36*
X857790Y1001040D02*
X852520D01*
Y995270D01*
X857790D01*
Y1001040D01*
D02*
G37*
G36*
X849980D02*
X844710D01*
Y995270D01*
X849980D01*
Y1001040D01*
D02*
G37*
G36*
X1515024Y1003774D02*
X1495976D01*
Y1002353D01*
X1491500D01*
X1489930Y1002040D01*
X1488599Y1001151D01*
X1484849Y997401D01*
X1483960Y996070D01*
X1483647Y994500D01*
Y985000D01*
X1483960Y983430D01*
X1484849Y982099D01*
X1486180Y981209D01*
X1487750Y980897D01*
X1489320Y981209D01*
X1490651Y982099D01*
X1491901Y983349D01*
X1492791Y984680D01*
X1493103Y986250D01*
X1492791Y987820D01*
X1491901Y989151D01*
X1491853Y989183D01*
Y992801D01*
X1493199Y994147D01*
X1495078D01*
X1495267Y993959D01*
X1495072Y992357D01*
X1494960Y992290D01*
X1494960Y992113D01*
X1494960Y992113D01*
Y987020D01*
X1505500D01*
X1516040D01*
Y992113D01*
X1516040Y992113D01*
Y992290D01*
X1515024Y992903D01*
X1515024Y993560D01*
Y1003774D01*
D02*
G37*
G36*
X857790Y992730D02*
X852520D01*
Y986960D01*
X857790D01*
Y992730D01*
D02*
G37*
G36*
X849980D02*
X844710D01*
Y986960D01*
X849980D01*
Y992730D01*
D02*
G37*
G36*
X800654Y999524D02*
X789606D01*
Y995916D01*
X789357Y995750D01*
X789357Y995750D01*
X777693Y984086D01*
X777607Y984103D01*
X776037Y983791D01*
X774706Y982901D01*
X773816Y981570D01*
X773504Y980000D01*
X773816Y978430D01*
X774706Y977099D01*
X776037Y976209D01*
X777607Y975897D01*
X779177Y976209D01*
X780508Y977099D01*
X781397Y978430D01*
X781710Y980000D01*
X781693Y980086D01*
X790083Y988476D01*
X800654D01*
Y999524D01*
D02*
G37*
G36*
X1516040Y984480D02*
X1506770D01*
Y979210D01*
X1516040D01*
Y984480D01*
D02*
G37*
G36*
X1504230D02*
X1494960D01*
Y979210D01*
X1504230D01*
Y984480D01*
D02*
G37*
G36*
X842774Y980524D02*
X831726D01*
Y978603D01*
X816754D01*
Y980024D01*
X805706D01*
Y968976D01*
X816754D01*
Y970397D01*
X831726D01*
Y968476D01*
X842774D01*
Y980524D01*
D02*
G37*
G36*
X1309510Y1088953D02*
X1307940Y1088641D01*
X1306609Y1087751D01*
X1257761Y1038903D01*
X1183500D01*
X1181930Y1038590D01*
X1180599Y1037701D01*
X1179709Y1036370D01*
X1179397Y1034800D01*
X1179709Y1033230D01*
X1180599Y1031899D01*
X1181930Y1031010D01*
X1182156Y1030965D01*
X1182574Y1029586D01*
X1172099Y1019111D01*
X1171209Y1017780D01*
X1170897Y1016210D01*
Y1005499D01*
X1148299Y982901D01*
X1147410Y981570D01*
X1147097Y980000D01*
X1147410Y978430D01*
X1148299Y977099D01*
X1149630Y976209D01*
X1151200Y975897D01*
X1152770Y976209D01*
X1154101Y977099D01*
X1177901Y1000899D01*
X1178791Y1002230D01*
X1179103Y1003800D01*
Y1014511D01*
X1187749Y1023157D01*
X1314260D01*
X1315830Y1023469D01*
X1317161Y1024359D01*
X1317401Y1024599D01*
X1318291Y1025930D01*
X1318603Y1027500D01*
X1318291Y1029070D01*
X1317401Y1030401D01*
X1316070Y1031291D01*
X1314500Y1031603D01*
X1313293Y1031363D01*
X1263622D01*
X1263096Y1032633D01*
X1312412Y1081949D01*
X1313301Y1083280D01*
X1313613Y1084850D01*
X1313301Y1086420D01*
X1312412Y1087751D01*
X1311081Y1088641D01*
X1309510Y1088953D01*
D02*
G37*
G36*
X1080000Y984103D02*
X896900D01*
X895330Y983791D01*
X893999Y982901D01*
X893110Y981570D01*
X892797Y980000D01*
X893110Y978430D01*
X893999Y977099D01*
X895330Y976209D01*
X896900Y975897D01*
X1080000D01*
X1081570Y976209D01*
X1082901Y977099D01*
X1083791Y978430D01*
X1084103Y980000D01*
X1083791Y981570D01*
X1082901Y982901D01*
X1081570Y983791D01*
X1080000Y984103D01*
D02*
G37*
G36*
X857790Y981540D02*
X852520D01*
Y975770D01*
X857790D01*
Y981540D01*
D02*
G37*
G36*
X849980D02*
X844710D01*
Y975770D01*
X849980D01*
Y981540D01*
D02*
G37*
G36*
X800754Y980024D02*
X789706D01*
Y977328D01*
X787107D01*
X786024Y977113D01*
X785107Y976500D01*
X777693Y969086D01*
X777607Y969103D01*
X776037Y968791D01*
X774706Y967901D01*
X773816Y966570D01*
X773504Y965000D01*
X773816Y963430D01*
X774706Y962099D01*
X776037Y961209D01*
X777607Y960897D01*
X779177Y961209D01*
X780508Y962099D01*
X781397Y963430D01*
X781710Y965000D01*
X781693Y965086D01*
X788278Y971672D01*
X789706D01*
Y968976D01*
X800754D01*
Y980024D01*
D02*
G37*
G36*
X857790Y973230D02*
X852520D01*
Y967460D01*
X857790D01*
Y973230D01*
D02*
G37*
G36*
X849980D02*
X844710D01*
Y967460D01*
X849980D01*
Y973230D01*
D02*
G37*
G36*
X1201500Y1021103D02*
X1199930Y1020790D01*
X1198599Y1019901D01*
X1197710Y1018570D01*
X1197397Y1017000D01*
Y993199D01*
X1178301Y974103D01*
X1172298D01*
X1170728Y973791D01*
X1169397Y972901D01*
X1168507Y971570D01*
X1168195Y970000D01*
X1168507Y968430D01*
X1169397Y967099D01*
X1170728Y966209D01*
X1172298Y965897D01*
X1180000D01*
X1181570Y966209D01*
X1182901Y967099D01*
X1204401Y988599D01*
X1205291Y989930D01*
X1205603Y991500D01*
Y1017000D01*
X1205291Y1018570D01*
X1204401Y1019901D01*
X1203070Y1020790D01*
X1201500Y1021103D01*
D02*
G37*
G36*
X323270Y972559D02*
Y963870D01*
X331959D01*
X331782Y965221D01*
X330770Y967663D01*
X329161Y969761D01*
X327063Y971370D01*
X324621Y972382D01*
X323270Y972559D01*
D02*
G37*
G36*
X320730Y972559D02*
X319379Y972382D01*
X316937Y971370D01*
X314839Y969761D01*
X313230Y967663D01*
X312218Y965221D01*
X312041Y963870D01*
X320730D01*
Y972559D01*
D02*
G37*
G36*
X842774Y961774D02*
X831726D01*
Y959853D01*
X816754D01*
Y961024D01*
X805706D01*
Y949976D01*
X816754D01*
Y951647D01*
X831726D01*
Y949726D01*
X842774D01*
Y961774D01*
D02*
G37*
G36*
X800754Y961024D02*
X789706D01*
Y958328D01*
X777982D01*
X777290Y958791D01*
X775720Y959103D01*
X774150Y958791D01*
X772819Y957901D01*
X771929Y956570D01*
X771617Y955000D01*
X771929Y953430D01*
X772819Y952099D01*
X774150Y951209D01*
X775720Y950897D01*
X777290Y951209D01*
X778621Y952099D01*
X779004Y952672D01*
X789706D01*
Y949976D01*
X800754D01*
Y961024D01*
D02*
G37*
G36*
X857790Y962790D02*
X852520D01*
Y957020D01*
X857790D01*
Y962790D01*
D02*
G37*
G36*
X849980D02*
X844710D01*
Y957020D01*
X849980D01*
Y962790D01*
D02*
G37*
G36*
X320730Y961330D02*
X312041D01*
X312218Y959979D01*
X313230Y957537D01*
X314839Y955439D01*
X316937Y953830D01*
X319379Y952818D01*
X320730Y952641D01*
Y961330D01*
D02*
G37*
G36*
X331959D02*
X323270D01*
Y952641D01*
X324621Y952818D01*
X327063Y953830D01*
X329161Y955439D01*
X330770Y957537D01*
X331782Y959979D01*
X331959Y961330D01*
D02*
G37*
G36*
X1451041Y957290D02*
X1442021D01*
Y949521D01*
X1451041D01*
Y957290D01*
D02*
G37*
G36*
X1439481D02*
X1430461D01*
Y949521D01*
X1439481D01*
Y957290D01*
D02*
G37*
G36*
X1371539D02*
X1362519D01*
Y949521D01*
X1371539D01*
Y957290D01*
D02*
G37*
G36*
X1359979D02*
X1350959D01*
Y949521D01*
X1359979D01*
Y957290D01*
D02*
G37*
G36*
X857790Y954480D02*
X852520D01*
Y948710D01*
X857790D01*
Y954480D01*
D02*
G37*
G36*
X849980D02*
X844710D01*
Y948710D01*
X849980D01*
Y954480D01*
D02*
G37*
G36*
X1551024Y972274D02*
X1517976D01*
Y948226D01*
X1551024D01*
Y972274D01*
D02*
G37*
G36*
X842774Y943524D02*
X831726D01*
Y941603D01*
X816754D01*
Y942774D01*
X805706D01*
Y931726D01*
X816754D01*
Y933397D01*
X831726D01*
Y931476D01*
X842774D01*
Y943524D01*
D02*
G37*
G36*
X1451041Y946981D02*
X1442021D01*
Y939211D01*
X1451041D01*
Y946981D01*
D02*
G37*
G36*
X1439481D02*
X1430461D01*
Y939211D01*
X1439481D01*
Y946981D01*
D02*
G37*
G36*
X1371539D02*
X1362519D01*
Y939211D01*
X1371539D01*
Y946981D01*
D02*
G37*
G36*
X1359979D02*
X1350959D01*
Y939211D01*
X1359979D01*
Y946981D01*
D02*
G37*
G36*
X857790Y944540D02*
X852520D01*
Y938770D01*
X857790D01*
Y944540D01*
D02*
G37*
G36*
X849980D02*
X844710D01*
Y938770D01*
X849980D01*
Y944540D01*
D02*
G37*
G36*
X775720Y944103D02*
X774150Y943791D01*
X772819Y942901D01*
X771929Y941570D01*
X771617Y940000D01*
X771929Y938430D01*
X772819Y937099D01*
X774150Y936209D01*
X775720Y935897D01*
X775806Y935914D01*
X776470Y935250D01*
X777388Y934637D01*
X778470Y934422D01*
X789706D01*
Y931726D01*
X800754D01*
Y942774D01*
X789706D01*
Y940078D01*
X779807D01*
X779510Y941570D01*
X778621Y942901D01*
X777290Y943791D01*
X775720Y944103D01*
D02*
G37*
G36*
X857790Y936230D02*
X852520D01*
Y930460D01*
X857790D01*
Y936230D01*
D02*
G37*
G36*
X849980D02*
X844710D01*
Y930460D01*
X849980D01*
Y936230D01*
D02*
G37*
G36*
X746539Y938089D02*
X738769D01*
Y929069D01*
X746539D01*
Y938089D01*
D02*
G37*
G36*
X451539D02*
X443769D01*
Y929069D01*
X451539D01*
Y938089D01*
D02*
G37*
G36*
X736229D02*
X728459D01*
Y929069D01*
X736229D01*
Y938089D01*
D02*
G37*
G36*
X441229D02*
X433459D01*
Y929069D01*
X441229D01*
Y938089D01*
D02*
G37*
G36*
X599039D02*
X591269D01*
Y929069D01*
X599039D01*
Y938089D01*
D02*
G37*
G36*
X588729D02*
X580959D01*
Y929069D01*
X588729D01*
Y938089D01*
D02*
G37*
G36*
X700525Y1016574D02*
X684477D01*
Y998027D01*
X688398D01*
Y937073D01*
X684477D01*
Y918525D01*
X700525D01*
Y923696D01*
X702299D01*
X703869Y924008D01*
X705200Y924898D01*
X725949Y945647D01*
X746091D01*
X772889Y918849D01*
X774220Y917960D01*
X775790Y917647D01*
X857500D01*
X859070Y917960D01*
X860401Y918849D01*
X870901Y929349D01*
X871790Y930680D01*
X872103Y932250D01*
Y941000D01*
X871790Y942570D01*
X870901Y943901D01*
X869570Y944790D01*
X868000Y945103D01*
X866430Y944790D01*
X865099Y943901D01*
X864210Y942570D01*
X863897Y941000D01*
Y933949D01*
X855800Y925853D01*
X777490D01*
X750692Y952651D01*
X749361Y953540D01*
X747791Y953853D01*
X724250D01*
X722680Y953540D01*
X721349Y952651D01*
X701795Y933097D01*
X700525Y933623D01*
Y937073D01*
X696603D01*
Y998027D01*
X700525D01*
Y1016574D01*
D02*
G37*
G36*
X746539Y926529D02*
X738769D01*
Y917510D01*
X746539D01*
Y926529D01*
D02*
G37*
G36*
X736229D02*
X728459D01*
Y917510D01*
X736229D01*
Y926529D01*
D02*
G37*
G36*
X599039Y926529D02*
X591269D01*
Y917510D01*
X599039D01*
Y926529D01*
D02*
G37*
G36*
X588729D02*
X580959D01*
Y917510D01*
X588729D01*
Y926529D01*
D02*
G37*
G36*
X451539Y926529D02*
X443769D01*
Y917510D01*
X451539D01*
Y926529D01*
D02*
G37*
G36*
X441229D02*
X433459D01*
Y917510D01*
X441229D01*
Y926529D01*
D02*
G37*
G36*
X553024Y1016574D02*
X536977D01*
Y998027D01*
X540898D01*
Y937073D01*
X536977D01*
Y918525D01*
X542147D01*
Y913750D01*
X542459Y912180D01*
X543349Y910849D01*
X549770Y904428D01*
X551101Y903539D01*
X552671Y903226D01*
X566234D01*
X566259Y903210D01*
X567829Y902897D01*
X860000D01*
X861570Y903210D01*
X862901Y904099D01*
X895151Y936349D01*
X896040Y937680D01*
X896353Y939250D01*
X896040Y940820D01*
X895151Y942151D01*
X893820Y943040D01*
X892250Y943353D01*
X890680Y943040D01*
X889349Y942151D01*
X858301Y911103D01*
X569096D01*
X569070Y911120D01*
X567500Y911432D01*
X554370D01*
X550353Y915449D01*
Y918525D01*
X553024D01*
Y937073D01*
X549104D01*
Y998027D01*
X553024D01*
Y1016574D01*
D02*
G37*
G36*
X1526500Y931824D02*
X1523261Y931505D01*
X1520146Y930560D01*
X1517275Y929026D01*
X1514759Y926961D01*
X1512694Y924445D01*
X1511160Y921574D01*
X1510215Y918459D01*
X1509896Y915220D01*
X1510215Y911981D01*
X1511160Y908866D01*
X1512694Y905995D01*
X1514759Y903479D01*
X1517275Y901414D01*
X1520146Y899880D01*
X1523261Y898935D01*
X1526500Y898616D01*
X1529739Y898935D01*
X1532854Y899880D01*
X1535725Y901414D01*
X1538241Y903479D01*
X1540306Y905995D01*
X1541840Y908866D01*
X1542785Y911981D01*
X1543104Y915220D01*
X1542785Y918459D01*
X1541840Y921574D01*
X1540306Y924445D01*
X1538241Y926961D01*
X1535725Y929026D01*
X1532854Y930560D01*
X1529739Y931505D01*
X1526500Y931824D01*
D02*
G37*
G36*
X326500D02*
X323261Y931505D01*
X320146Y930560D01*
X317275Y929026D01*
X314759Y926961D01*
X312694Y924445D01*
X311160Y921574D01*
X310215Y918459D01*
X309896Y915220D01*
X310215Y911981D01*
X311160Y908866D01*
X312694Y905995D01*
X314759Y903479D01*
X317275Y901414D01*
X320146Y899880D01*
X323261Y898935D01*
X326500Y898616D01*
X329739Y898935D01*
X332854Y899880D01*
X335725Y901414D01*
X338241Y903479D01*
X340306Y905995D01*
X341840Y908866D01*
X342785Y911981D01*
X343104Y915220D01*
X342785Y918459D01*
X341840Y921574D01*
X340306Y924445D01*
X338241Y926961D01*
X335725Y929026D01*
X332854Y930560D01*
X329739Y931505D01*
X326500Y931824D01*
D02*
G37*
G36*
X405524Y1016574D02*
X389477D01*
Y998027D01*
X393398D01*
Y937073D01*
X389477D01*
Y918525D01*
X393398D01*
Y899249D01*
X393710Y897679D01*
X394599Y896348D01*
X398349Y892599D01*
X399680Y891710D01*
X401250Y891397D01*
X892850D01*
X894420Y891710D01*
X895751Y892599D01*
X953901Y950749D01*
X954790Y952080D01*
X955103Y953650D01*
X954790Y955220D01*
X953901Y956551D01*
X952570Y957440D01*
X951000Y957753D01*
X949430Y957440D01*
X948099Y956551D01*
X891151Y899603D01*
X402949D01*
X401604Y900949D01*
Y918525D01*
X405524D01*
Y937073D01*
X401604D01*
Y998027D01*
X405524D01*
Y1016574D01*
D02*
G37*
%LPD*%
G36*
X1183562Y1203530D02*
X1150544Y1170511D01*
X1125087D01*
X1124245Y1170344D01*
X1123460Y1171347D01*
X1124912Y1172799D01*
X1148749D01*
X1149591Y1172966D01*
X1150306Y1173444D01*
X1181662Y1204800D01*
X1183036D01*
X1183562Y1203530D01*
D02*
G37*
G36*
X1196310Y1195910D02*
X1149901Y1149501D01*
X1134424D01*
Y1149924D01*
X1124874D01*
Y1159474D01*
X1124874Y1159474D01*
X1124874D01*
X1125704Y1160341D01*
X1127662Y1162299D01*
X1158399D01*
X1159241Y1162466D01*
X1159956Y1162943D01*
X1194192Y1197180D01*
X1195784D01*
X1196310Y1195910D01*
D02*
G37*
G36*
X1064049Y1164313D02*
Y1159474D01*
X1063626D01*
Y1149924D01*
X1054076D01*
Y1149501D01*
X1052083D01*
X1005674Y1195910D01*
X1005773Y1196512D01*
X1006132Y1197180D01*
X1031182D01*
X1064049Y1164313D01*
D02*
G37*
G36*
X1282660Y1175273D02*
X1236888Y1129501D01*
X1160913D01*
X1160387Y1130771D01*
X1206158Y1176543D01*
X1282134D01*
X1282660Y1175273D01*
D02*
G37*
G36*
X993950Y1089099D02*
X1054076D01*
Y1088676D01*
X1063626D01*
Y1079126D01*
X1063626D01*
X1063532Y1077895D01*
X1061940Y1076303D01*
X1004568D01*
X992833Y1088039D01*
X993474Y1089193D01*
X993950Y1089099D01*
D02*
G37*
D10*
X1470000Y1120000D02*
Y1140000D01*
X1475750Y1145750D01*
X1511500D01*
X1496481Y1132750D02*
X1511500D01*
X1495000Y1131269D02*
X1496481Y1132750D01*
X1495000Y1139300D02*
X1495050Y1139250D01*
X1511500D01*
X777607Y980000D02*
X791357Y993750D01*
X795230D01*
X777607Y965000D02*
X787107Y974500D01*
X795230D01*
X775720Y955000D02*
X776220Y955500D01*
X795230D01*
X775720Y940000D02*
X778470Y937250D01*
X795230D01*
D15*
X1071750Y1029750D02*
X1077750Y1035750D01*
Y1049250D01*
X1121408Y1187908D02*
X1139974D01*
X1106250Y1172750D02*
X1121408Y1187908D01*
X1106250Y1153750D02*
Y1172750D01*
X1155300Y1203234D02*
Y1220470D01*
X1139974Y1187908D02*
X1155300Y1203234D01*
X1122750Y1180750D02*
X1144750D01*
X1110070Y1168070D02*
X1122750Y1180750D01*
X1110070Y1154601D02*
Y1168070D01*
X1124000Y1175000D02*
X1148749D01*
X1114250Y1165250D02*
X1124000Y1175000D01*
X1114250Y1153750D02*
Y1165250D01*
X1180700Y1216700D02*
Y1220470D01*
X1144750Y1180750D02*
X1180700Y1216700D01*
X1148749Y1175000D02*
X1180750Y1207001D01*
X1192631D01*
X1126750Y1164500D02*
X1158399D01*
X1122250Y1160000D02*
X1126750Y1164500D01*
X1122250Y1153750D02*
Y1160000D01*
X1151456Y1168310D02*
X1186337Y1203191D01*
X1125087Y1168310D02*
X1151456D01*
X1118440Y1161663D02*
X1125087Y1168310D01*
X1118440Y1153940D02*
Y1161663D01*
X1118250Y1153750D02*
X1118440Y1153940D01*
X1186337Y1203191D02*
X1214221D01*
X1158399Y1164500D02*
X1193280Y1199381D01*
X1238381D01*
X1157803Y1131300D02*
X1205247Y1178744D01*
X1128700Y1131300D02*
X1157803D01*
X1205247Y1178744D02*
X1342174D01*
X1156055Y1135300D02*
X1203563Y1182808D01*
X1128700Y1135300D02*
X1156055D01*
X1203563Y1182808D02*
X1320838D01*
X1154308Y1139300D02*
X1201880Y1186872D01*
X1128700Y1139300D02*
X1154308D01*
X1201880Y1186872D02*
X1299502D01*
X1152561Y1143300D02*
X1200197Y1190936D01*
X1128700Y1143300D02*
X1152561D01*
X1200197Y1190936D02*
X1278166D01*
X1150813Y1147300D02*
X1198513Y1195000D01*
X1128700Y1147300D02*
X1150813D01*
X1198513Y1195000D02*
X1256830D01*
X1285180Y1174680D02*
X1363510D01*
X1237800Y1127300D02*
X1285180Y1174680D01*
X1128700Y1127300D02*
X1237800D01*
X1094250Y1119300D02*
X1110250Y1103300D01*
X1102250Y1127300D02*
Y1153750D01*
X1094250Y1119300D02*
X1102250Y1127300D01*
X1086250Y1111300D02*
X1094250Y1119300D01*
X1059800Y1111300D02*
X1086250D01*
X1110250Y1103300D02*
X1128700D01*
X1094250Y1119300D02*
X1128700D01*
X1129800Y910220D02*
Y923200D01*
X1117500Y935500D02*
X1129800Y923200D01*
X1106250Y935500D02*
X1117500D01*
X1130750Y1076000D02*
X1155250D01*
X945869Y1199381D02*
X1032093D01*
X927100Y1218150D02*
X945869Y1199381D01*
X927100Y1218150D02*
Y1220470D01*
X969779Y1203191D02*
X1033671D01*
X952500Y1220470D02*
X969779Y1203191D01*
X1012959Y1210811D02*
X1036828D01*
X1003300Y1220470D02*
X1012959Y1210811D01*
X993499Y1207001D02*
X1035250D01*
X980030Y1220470D02*
X993499Y1207001D01*
X977900Y1220470D02*
X980030D01*
X1192631Y1207001D02*
X1206100Y1220470D01*
X1256900Y1217900D02*
Y1220470D01*
X1238381Y1199381D02*
X1256900Y1217900D01*
X1214221Y1203191D02*
X1231500Y1220470D01*
X1086285Y1153785D02*
Y1174215D01*
X1054100Y1206400D02*
X1086285Y1174215D01*
X1054100Y1206400D02*
Y1220470D01*
X1090095Y1153905D02*
Y1196905D01*
X1079100Y1207900D02*
X1090095Y1196905D01*
X1079100Y1207900D02*
Y1220470D01*
X1104500Y1206750D02*
Y1220470D01*
X1094250Y1196500D02*
X1104500Y1206750D01*
X1094250Y1153750D02*
Y1196500D01*
X1125750Y962250D02*
X1230170D01*
X1123750Y957500D02*
X1209520D01*
X1119750Y953250D02*
X1188370D01*
X1122250Y965750D02*
X1125750Y962250D01*
X1118250Y963000D02*
X1123750Y957500D01*
X1114250Y958750D02*
X1119750Y953250D01*
X1154950Y1123300D02*
X1156500Y1121750D01*
X1141250Y1093000D02*
Y1097350D01*
X1139300Y1099300D02*
X1141250Y1097350D01*
X1128700Y1099300D02*
X1139300D01*
X1142300Y1115300D02*
X1144250Y1117250D01*
X1128700Y1123300D02*
X1154950D01*
X1140200Y1107300D02*
X1145500Y1102000D01*
X1077750Y1049250D02*
X1086316Y1057816D01*
Y1084784D01*
X1086250Y1084850D02*
X1086316Y1084784D01*
X1078250Y1077692D02*
Y1084850D01*
Y1077692D02*
X1078442Y1077500D01*
Y1069052D02*
Y1077500D01*
X1128700Y1078050D02*
X1130750Y1076000D01*
X1128700Y1078050D02*
Y1091300D01*
Y1095300D01*
X1113750Y949000D02*
X1167220D01*
X1110250Y952500D02*
X1113750Y949000D01*
X1167220D02*
X1206000Y910220D01*
X549822Y1115148D02*
X931000D01*
X444500Y1220470D02*
X549822Y1115148D01*
X1128700Y1115300D02*
X1142300D01*
X1128700Y1107300D02*
X1140200D01*
X1128700D02*
X1128900Y1107500D01*
X1098060Y943690D02*
X1106250Y935500D01*
X1122250Y965750D02*
Y1084850D01*
X1188370Y953250D02*
X1231400Y910220D01*
X1110250Y952500D02*
Y1084850D01*
X1109078Y944310D02*
X1146510D01*
X1106250Y947138D02*
Y1084850D01*
X1102250Y945750D02*
X1107500Y940500D01*
X1102250Y945750D02*
Y1084850D01*
X1342174Y1178744D02*
X1383900Y1220470D01*
X1230170Y962250D02*
X1282200Y910220D01*
X1118250Y963000D02*
Y1084850D01*
X1114250Y958750D02*
Y1084850D01*
X1209520Y957500D02*
X1256800Y910220D01*
X1106250Y947138D02*
X1109078Y944310D01*
X1146510D02*
X1180600Y910220D01*
X1107500Y940500D02*
X1124920D01*
X1094250Y941500D02*
Y1084850D01*
Y941500D02*
X1104400Y931350D01*
X1090250Y938750D02*
Y1084850D01*
X1079000Y927500D02*
X1090250Y938750D01*
X1098060Y943690D02*
X1098250Y943880D01*
X1079000Y910220D02*
Y927500D01*
X1124920Y940500D02*
X1155200Y910220D01*
X1098250Y943880D02*
Y1084850D01*
X1104400Y910220D02*
Y931350D01*
X940258Y1137500D02*
X1003656Y1074102D01*
X629070Y1137500D02*
X940258D01*
X1003656Y1074102D02*
X1062852D01*
X993950Y1091300D02*
X1059800D01*
X942261Y1142989D02*
X993950Y1091300D01*
X997853Y1095300D02*
X1059800D01*
X946201Y1146951D02*
X997853Y1095300D01*
X670419Y1146951D02*
X946201D01*
X648981Y1142989D02*
X942261D01*
X1009560Y1107300D02*
X1059800D01*
X958022Y1158838D02*
X1009560Y1107300D01*
X1019950Y1115300D02*
X1059800D01*
X972449Y1162801D02*
X1019950Y1115300D01*
X1023853Y1119300D02*
X1059800D01*
X976389Y1166763D02*
X1023853Y1119300D01*
X1027755Y1123300D02*
X1059800D01*
X980330Y1170726D02*
X1027755Y1123300D01*
X799044Y1170726D02*
X980330D01*
X1031658Y1127300D02*
X1059800D01*
X984270Y1174688D02*
X1031658Y1127300D01*
X1035560Y1131300D02*
X1059800D01*
X988210Y1178650D02*
X1035560Y1131300D01*
X1039463Y1135300D02*
X1059800D01*
X992150Y1182613D02*
X1039463Y1135300D01*
X1043366Y1139300D02*
X1059800D01*
X996090Y1186575D02*
X1043366Y1139300D01*
X1363510Y1174680D02*
X1409300Y1220470D01*
X1320838Y1182808D02*
X1358500Y1220470D01*
X1299502Y1186872D02*
X1333100Y1220470D01*
X1278166Y1190936D02*
X1307700Y1220470D01*
X1256830Y1195000D02*
X1282300Y1220470D01*
X1062852Y1074102D02*
X1066250Y1077500D01*
X1082250Y1079080D02*
Y1084850D01*
Y1079080D02*
X1082252Y1079078D01*
Y1077754D02*
Y1079078D01*
Y1077754D02*
X1082506Y1077500D01*
X1066250Y1077500D02*
Y1084850D01*
X1070250Y1080015D02*
Y1084850D01*
Y1080015D02*
X1070314Y1079951D01*
Y1072419D02*
Y1079951D01*
X1074250Y1080015D02*
Y1084850D01*
Y1080015D02*
X1074378Y1079887D01*
Y1070735D02*
Y1079887D01*
X1066887Y1051750D02*
X1082506Y1067369D01*
X994398Y1051750D02*
X1066887D01*
X1082506Y1067369D02*
Y1077500D01*
X1066728Y1057338D02*
X1078442Y1069052D01*
X996713Y1057338D02*
X1066728D01*
X1066569Y1062926D02*
X1074378Y1070735D01*
X999027Y1062926D02*
X1066569D01*
X1066409Y1068514D02*
X1070314Y1072419D01*
X1001342Y1068514D02*
X1066409D01*
X937944Y1131912D02*
X1001342Y1068514D01*
X935629Y1126324D02*
X999027Y1062926D01*
X933315Y1120736D02*
X996713Y1057338D01*
X931000Y1115148D02*
X994398Y1051750D01*
X569634Y1120736D02*
X933315D01*
X469900Y1220470D02*
X569634Y1120736D01*
X589446Y1126324D02*
X935629D01*
X495300Y1220470D02*
X589446Y1126324D01*
X609258Y1131912D02*
X937944D01*
X520700Y1220470D02*
X609258Y1131912D01*
X546100Y1220470D02*
X629070Y1137500D01*
X571500Y1220470D02*
X648981Y1142989D01*
X596900Y1220470D02*
X670419Y1146951D01*
X622300Y1220470D02*
X691856Y1150914D01*
X950142D01*
X647700Y1220470D02*
X713294Y1154876D01*
X954082D01*
X673100Y1220470D02*
X734732Y1158838D01*
X958022D01*
X1001755Y1099300D02*
X1059800D01*
X1005658Y1103300D02*
X1059800D01*
X954082Y1154876D02*
X1005658Y1103300D01*
X950142Y1150914D02*
X1001755Y1099300D01*
X901700Y1220470D02*
X927670Y1194500D01*
X1003971D01*
X1059550Y1143050D02*
X1059800Y1143300D01*
X876300Y1220470D02*
X906232Y1190538D01*
X1000031D01*
X850900Y1220470D02*
X884795Y1186575D01*
X996090D01*
X825500Y1220470D02*
X863357Y1182613D01*
X992150D01*
X698500Y1220470D02*
X756169Y1162801D01*
X972449D01*
X723900Y1220470D02*
X777607Y1166763D01*
X976389D01*
X749300Y1220470D02*
X799044Y1170726D01*
X774700Y1220470D02*
X820482Y1174688D01*
X984270D01*
X800100Y1220470D02*
X841920Y1178650D01*
X988210D01*
X1051171Y1147300D02*
X1059800D01*
X1047268Y1143300D02*
X1059800D01*
X1003971Y1194500D02*
X1051171Y1147300D01*
X1000031Y1190538D02*
X1047268Y1143300D01*
X1110250Y1153750D02*
Y1154420D01*
X1110070Y1154601D02*
X1110250Y1154420D01*
X1118250Y1153750D02*
Y1157197D01*
X1098250Y1153750D02*
Y1188820D01*
X1032557Y1220470D02*
X1082475Y1170552D01*
Y1155363D02*
Y1170552D01*
X1036828Y1210811D02*
X1078250Y1169389D01*
Y1153750D02*
Y1169389D01*
X1098250Y1188820D02*
X1129900Y1220470D01*
X1082440Y1155328D02*
X1082475Y1155363D01*
X1082440Y1153940D02*
Y1155328D01*
X1082250Y1153750D02*
X1082440Y1153940D01*
X1090095Y1153905D02*
X1090250Y1153750D01*
X1086250D02*
X1086285Y1153785D01*
X1035250Y1207001D02*
X1074250Y1168001D01*
Y1153750D02*
Y1168001D01*
X1033671Y1203191D02*
X1070250Y1166612D01*
Y1153750D02*
Y1166612D01*
X1032093Y1199381D02*
X1066250Y1165224D01*
Y1153750D02*
Y1165224D01*
X1028700Y1220470D02*
X1032557D01*
D17*
X851250Y955750D02*
D03*
X837250D02*
D03*
X851250Y994000D02*
D03*
X837250D02*
D03*
X851250Y974500D02*
D03*
X837250D02*
D03*
X851250Y937500D02*
D03*
X837250D02*
D03*
X1495250Y1067500D02*
D03*
X1509250D02*
D03*
X1509250Y1052000D02*
D03*
X1495250D02*
D03*
D18*
X1137500Y1075750D02*
D03*
Y1061750D02*
D03*
X1155250Y1076000D02*
D03*
Y1062000D02*
D03*
D58*
X552671Y907329D02*
X567500D01*
X546250Y913750D02*
X552671Y907329D01*
X546250Y913750D02*
Y926550D01*
X545001Y927799D02*
X546250Y926550D01*
X567500Y907329D02*
X567829Y907000D01*
X860000D01*
X692501Y927799D02*
X702299D01*
X724250Y949750D01*
X747791D01*
X775790Y921750D01*
X857500D01*
X868000Y932250D01*
Y941000D01*
X892850Y895500D02*
X951000Y953650D01*
X401250Y895500D02*
X892850D01*
X397501Y899249D02*
X401250Y895500D01*
X860000Y907000D02*
X892250Y939250D01*
X397501Y899249D02*
Y927799D01*
Y1007301D01*
X545001Y927799D02*
Y1007301D01*
X692501Y927799D02*
Y1007301D01*
X811230Y937250D02*
X811480Y937500D01*
X837250D01*
X811230Y955500D02*
X811480Y955750D01*
X837250D01*
X811230Y974500D02*
X837250D01*
X811130Y994000D02*
X811130Y994000D01*
X837250D01*
X1361249Y993249D02*
X1440751D01*
X1383251D02*
Y1004249D01*
X1374750Y1012750D02*
X1383251Y1004249D01*
X344250Y1050750D02*
Y1108250D01*
X332250Y1038750D02*
X344250Y1050750D01*
X322000Y1038750D02*
X332250D01*
X344250Y1108250D02*
X378700Y1142700D01*
X359000Y1087799D02*
X388501Y1117300D01*
X359000Y1033250D02*
Y1087799D01*
X339100Y1013350D02*
X359000Y1033250D01*
X378750Y1082149D02*
X388501Y1091900D01*
X378750Y1020311D02*
Y1082149D01*
X346389Y987950D02*
X378750Y1020311D01*
X378700Y1142700D02*
X388501D01*
X1481750Y1036000D02*
X1489500D01*
X1495250Y1041750D01*
Y1052000D01*
X1428250Y1068750D02*
X1438250Y1078750D01*
X1537500D01*
X1542620Y1073630D01*
Y1068000D02*
Y1073630D01*
X1433000Y1020750D02*
X1488000D01*
X1508250Y1041000D01*
X1537500D01*
X1542620Y1046120D01*
Y1052000D01*
X1526620Y1052000D02*
X1526620Y1052000D01*
X1509250Y1052000D02*
X1526620D01*
X1507750Y1068000D02*
X1526620D01*
X1507250Y1067500D02*
X1507750Y1068000D01*
X1487750Y985000D02*
Y994500D01*
X1491500Y998250D01*
X1505500D01*
X1487750Y985000D02*
X1489000Y986250D01*
X1186050Y1027260D02*
X1314260D01*
X1175000Y1016210D02*
X1186050Y1027260D01*
X1175000Y1003800D02*
Y1016210D01*
X1151200Y980000D02*
X1175000Y1003800D01*
X896900Y980000D02*
X1080000D01*
X1314260Y1027260D02*
X1314500Y1027500D01*
X1172298Y970000D02*
X1180000D01*
X1201500Y991500D01*
Y1017000D01*
X776750Y1016500D02*
X777250Y1017000D01*
X947500D01*
X1253660Y1046960D02*
X1304250Y1097550D01*
X1184040Y1046960D02*
X1253660D01*
X1183500Y1047500D02*
X1184040Y1046960D01*
X1180000Y1076000D02*
X1201500Y1054500D01*
X1155250Y1076000D02*
X1180000D01*
X322000Y987950D02*
X346389D01*
X322000Y1013350D02*
X339100D01*
X940250Y1038000D02*
X947750Y1030500D01*
X940250Y1038000D02*
Y1077600D01*
X911250Y1030500D02*
X947750D01*
X947250Y1084600D02*
Y1084850D01*
X940250Y1077600D02*
X947250Y1084600D01*
X886500Y1055250D02*
X911250Y1030500D01*
X887250Y1080500D02*
X893500D01*
X856750Y1050000D02*
X887250Y1080500D01*
X705500Y1067250D02*
X856750D01*
X705000Y1067750D02*
X705500Y1067250D01*
X715250Y1050000D02*
X856750D01*
X1311500Y1097550D02*
X1324300Y1084750D01*
X1304250Y1097550D02*
X1311500D01*
X1324300Y1084750D02*
X1325200D01*
X1183500Y1034800D02*
X1259461D01*
X1309510Y1084850D01*
X1226250Y1104750D02*
X1248750D01*
X1266500Y1087000D01*
X1398250Y1095250D02*
X1398500Y1095000D01*
X1398250Y1095250D02*
Y1181750D01*
X1393500Y1186500D02*
X1398250Y1181750D01*
X1414250Y1165250D02*
X1415500Y1164000D01*
Y1013900D02*
Y1164000D01*
D59*
X1128700Y1111300D02*
X1152450D01*
D62*
X322000Y962600D02*
D03*
Y988000D02*
D03*
Y1013400D02*
D03*
X1104400Y910220D02*
D03*
X1282200D02*
D03*
X1256800D02*
D03*
X1231400D02*
D03*
X1206000D02*
D03*
X1180600D02*
D03*
X1155200D02*
D03*
X1129800D02*
D03*
X1307700Y1220470D02*
D03*
X1333100D02*
D03*
X1409300D02*
D03*
X1383900D02*
D03*
X1358500D02*
D03*
X1282300D02*
D03*
X876300Y1220470D02*
D03*
X850900D02*
D03*
X825500D02*
D03*
X723900D02*
D03*
X749300D02*
D03*
X774700D02*
D03*
X800100D02*
D03*
X901700D02*
D03*
X469900D02*
D03*
X495300D02*
D03*
X520700D02*
D03*
X546100D02*
D03*
X571500D02*
D03*
X596900D02*
D03*
X622300D02*
D03*
X647700D02*
D03*
X673100D02*
D03*
X698500D02*
D03*
X927100D02*
D03*
X952500D02*
D03*
X977900D02*
D03*
X1003300D02*
D03*
X1028700D02*
D03*
X1054100D02*
D03*
X1256900Y1220470D02*
D03*
X1231500D02*
D03*
X1206100D02*
D03*
X1180700D02*
D03*
X1155300D02*
D03*
X1129900D02*
D03*
X1104500D02*
D03*
D63*
X322000Y1038800D02*
D03*
D64*
X1532380Y1175000D02*
D03*
X1541620D02*
D03*
Y1090500D02*
D03*
X1532380D02*
D03*
D65*
X1528250D02*
D03*
X1545750D02*
D03*
Y1175000D02*
D03*
X1528250D02*
D03*
D66*
X1511250Y1096750D02*
D03*
Y1168750D02*
D03*
D67*
X388501Y1091900D02*
D03*
Y1117300D02*
D03*
Y1142700D02*
D03*
Y1168100D02*
D03*
D68*
X311500Y1124499D02*
D03*
Y1154501D02*
D03*
D69*
X1079000Y910220D02*
D03*
X444500Y1220470D02*
D03*
X1079100Y1220470D02*
D03*
D70*
X1071750Y1029750D02*
D03*
X868000Y941000D02*
D03*
X951000Y953650D02*
D03*
X892250Y939250D02*
D03*
X1374750Y1012750D02*
D03*
X1487750Y985000D02*
D03*
X1470000Y1120000D02*
D03*
X1495000Y1131269D02*
D03*
Y1139300D02*
D03*
X777607Y980000D02*
D03*
Y965000D02*
D03*
X775720Y955000D02*
D03*
Y940000D02*
D03*
X1151200Y980000D02*
D03*
X1080000D02*
D03*
X896900D02*
D03*
X1314500Y1027500D02*
D03*
X1231500Y1027750D02*
D03*
X1172298Y970000D02*
D03*
X1201500Y1017000D02*
D03*
X776750Y1016500D02*
D03*
X947500Y1017000D02*
D03*
X1078500Y1011750D02*
D03*
X1201500Y1054500D02*
D03*
X947250Y1084850D02*
D03*
X886500Y1055250D02*
D03*
X947750Y1030500D02*
D03*
X893500Y1080500D02*
D03*
X856750Y1067250D02*
D03*
X715250Y1050000D02*
D03*
X705000Y1067750D02*
D03*
X1309510Y1084850D02*
D03*
X1325200Y1084750D02*
D03*
X1183500Y1047500D02*
D03*
Y1034800D02*
D03*
X1226250Y1104750D02*
D03*
X1266500Y1087000D02*
D03*
X1398500Y1095000D02*
D03*
X1393500Y1186500D02*
D03*
X1433000Y1020750D02*
D03*
X1481750Y1036000D02*
D03*
X1428250Y1068750D02*
D03*
X1415500Y1013900D02*
D03*
X1414250Y1165250D02*
D03*
D71*
X1105000Y1105000D02*
D03*
X1112500D02*
D03*
Y1137500D02*
D03*
X1075000Y1105000D02*
D03*
Y1097500D02*
D03*
X1082500Y1105000D02*
D03*
X1090000D02*
D03*
X1097500D02*
D03*
X1112500Y1097500D02*
D03*
X1105000D02*
D03*
X1097500D02*
D03*
X1090000D02*
D03*
X1082500D02*
D03*
X1075000Y1122500D02*
D03*
X1082500D02*
D03*
X1090000D02*
D03*
X1097500D02*
D03*
X1105000D02*
D03*
X1112500D02*
D03*
Y1130000D02*
D03*
X1105000D02*
D03*
X1097500D02*
D03*
X1090000D02*
D03*
X1082500D02*
D03*
X1075000D02*
D03*
Y1137500D02*
D03*
X1082500D02*
D03*
X1090000D02*
D03*
X1097500D02*
D03*
X1105000D02*
D03*
X1152450Y1111300D02*
D03*
X1156500Y1121750D02*
D03*
X1144250Y1117250D02*
D03*
X1145500Y1102000D02*
D03*
X1141250Y1093000D02*
D03*
D72*
X326500Y1215220D02*
D03*
X1526500D02*
D03*
Y915220D02*
D03*
X326500D02*
D03*
D73*
X1122250Y1084850D02*
D03*
X1118250D02*
D03*
X1114250D02*
D03*
X1110250D02*
D03*
X1106250D02*
D03*
X1102250D02*
D03*
X1098250D02*
D03*
X1094250D02*
D03*
X1090250D02*
D03*
X1086250D02*
D03*
X1082250D02*
D03*
X1078250D02*
D03*
X1074250D02*
D03*
X1070250D02*
D03*
X1066250D02*
D03*
Y1153750D02*
D03*
X1070250D02*
D03*
X1074250D02*
D03*
X1078250D02*
D03*
X1082250D02*
D03*
X1086250D02*
D03*
X1090250D02*
D03*
X1094250D02*
D03*
X1098250D02*
D03*
X1102250D02*
D03*
X1106250D02*
D03*
X1110250D02*
D03*
X1114250D02*
D03*
X1118250D02*
D03*
X1122250D02*
D03*
D74*
X1128700Y1147300D02*
D03*
Y1143300D02*
D03*
Y1139300D02*
D03*
Y1135300D02*
D03*
Y1131300D02*
D03*
Y1127300D02*
D03*
Y1123300D02*
D03*
Y1119300D02*
D03*
Y1115300D02*
D03*
Y1111300D02*
D03*
Y1107300D02*
D03*
Y1103300D02*
D03*
Y1099300D02*
D03*
Y1095300D02*
D03*
Y1091300D02*
D03*
X1059800D02*
D03*
Y1095300D02*
D03*
Y1099300D02*
D03*
Y1103300D02*
D03*
Y1107300D02*
D03*
Y1111300D02*
D03*
Y1115300D02*
D03*
Y1119300D02*
D03*
Y1123300D02*
D03*
Y1127300D02*
D03*
Y1131300D02*
D03*
Y1135300D02*
D03*
Y1139300D02*
D03*
Y1143300D02*
D03*
Y1147300D02*
D03*
D75*
X1094250Y1119300D02*
D03*
D76*
X1505500Y998250D02*
D03*
Y985750D02*
D03*
D77*
X1534500Y1023750D02*
D03*
Y960250D02*
D03*
D78*
X1508250Y1119750D02*
D03*
Y1126250D02*
D03*
Y1132750D02*
D03*
Y1139250D02*
D03*
Y1145750D02*
D03*
D79*
X1361249Y948251D02*
D03*
X1440751D02*
D03*
X1361249Y993249D02*
D03*
X1440751D02*
D03*
D80*
X1542620Y1068000D02*
D03*
X1526620D02*
D03*
X1542620Y1052000D02*
D03*
X1526620D02*
D03*
X795230Y955500D02*
D03*
X811230D02*
D03*
X795230Y974500D02*
D03*
X811230D02*
D03*
X795230Y937250D02*
D03*
X811230D02*
D03*
X795130Y994000D02*
D03*
X811130D02*
D03*
D81*
X442499Y927799D02*
D03*
Y1007301D02*
D03*
X397501Y927799D02*
D03*
Y1007301D02*
D03*
X737499Y927799D02*
D03*
Y1007301D02*
D03*
X692501Y927799D02*
D03*
Y1007301D02*
D03*
X589999Y927799D02*
D03*
Y1007301D02*
D03*
X545001Y927799D02*
D03*
Y1007301D02*
D03*
M02*
