G04*
G04 #@! TF.GenerationSoftware,Altium Limited,Altium Designer,19.0.14 (431)*
G04*
G04 Layer_Color=65535*
%FSLAX44Y44*%
%MOMM*%
G71*
G01*
G75*
%ADD10C,0.2540*%
%ADD11C,0.2500*%
%ADD12C,0.3000*%
%ADD13C,0.1524*%
%ADD14C,0.2000*%
%ADD15C,0.1270*%
%ADD16R,1.8000X0.5080*%
D10*
X1351414Y1097241D02*
G03*
X1351414Y1097241I-1414J0D01*
G01*
X1353716D02*
G03*
X1353716Y1097241I-3717J0D01*
G01*
X1289000Y1171997D02*
Y1163666D01*
X1290666Y1162000D01*
X1293998D01*
X1295665Y1163666D01*
Y1171997D01*
X1303995Y1162000D02*
Y1171997D01*
X1298997Y1166998D01*
X1305661D01*
X962000Y1011000D02*
Y1020997D01*
X966998D01*
X968664Y1019331D01*
Y1015998D01*
X966998Y1014332D01*
X962000D01*
X965332D02*
X968664Y1011000D01*
X978661D02*
X971997D01*
X978661Y1017664D01*
Y1019331D01*
X976995Y1020997D01*
X973663D01*
X971997Y1019331D01*
X988658Y1020997D02*
X985326Y1019331D01*
X981994Y1015998D01*
Y1012666D01*
X983660Y1011000D01*
X986992D01*
X988658Y1012666D01*
Y1014332D01*
X986992Y1015998D01*
X981994D01*
X962000Y1057000D02*
Y1066997D01*
X966998D01*
X968664Y1065331D01*
Y1061998D01*
X966998Y1060332D01*
X962000D01*
X965332D02*
X968664Y1057000D01*
X978661D02*
X971997D01*
X978661Y1063664D01*
Y1065331D01*
X976995Y1066997D01*
X973663D01*
X971997Y1065331D01*
X988658Y1066997D02*
X981994D01*
Y1061998D01*
X985326Y1063664D01*
X986992D01*
X988658Y1061998D01*
Y1058666D01*
X986992Y1057000D01*
X983660D01*
X981994Y1058666D01*
X1373669Y1183664D02*
X1372003Y1181998D01*
Y1178666D01*
X1373669Y1177000D01*
X1380334D01*
X1382000Y1178666D01*
Y1181998D01*
X1380334Y1183664D01*
X1382000Y1186997D02*
Y1190329D01*
Y1188663D01*
X1372003D01*
X1373669Y1186997D01*
Y1195327D02*
X1372003Y1196994D01*
Y1200326D01*
X1373669Y1201992D01*
X1375336D01*
X1377002Y1200326D01*
X1378668Y1201992D01*
X1380334D01*
X1382000Y1200326D01*
Y1196994D01*
X1380334Y1195327D01*
X1378668D01*
X1377002Y1196994D01*
X1375336Y1195327D01*
X1373669D01*
X1377002Y1196994D02*
Y1200326D01*
X1355669Y1183664D02*
X1354003Y1181998D01*
Y1178666D01*
X1355669Y1177000D01*
X1362334D01*
X1364000Y1178666D01*
Y1181998D01*
X1362334Y1183664D01*
X1364000Y1186997D02*
Y1190329D01*
Y1188663D01*
X1354003D01*
X1355669Y1186997D01*
X1354003Y1195327D02*
Y1201992D01*
X1355669D01*
X1362334Y1195327D01*
X1364000D01*
X1379534Y1135075D02*
X1377868Y1136741D01*
X1374536D01*
X1372870Y1135075D01*
Y1128410D01*
X1374536Y1126744D01*
X1377868D01*
X1379534Y1128410D01*
X1389531Y1136741D02*
X1386199Y1135075D01*
X1382867Y1131742D01*
Y1128410D01*
X1384533Y1126744D01*
X1387865D01*
X1389531Y1128410D01*
Y1130076D01*
X1387865Y1131742D01*
X1382867D01*
X1363533Y1135075D02*
X1361866Y1136741D01*
X1358534D01*
X1356868Y1135075D01*
Y1128410D01*
X1358534Y1126744D01*
X1361866D01*
X1363533Y1128410D01*
X1373529Y1136741D02*
X1366865D01*
Y1131742D01*
X1370197Y1133409D01*
X1371863D01*
X1373529Y1131742D01*
Y1128410D01*
X1371863Y1126744D01*
X1368531D01*
X1366865Y1128410D01*
X1398250Y996750D02*
Y1006747D01*
X1403248D01*
X1404915Y1005081D01*
Y1001748D01*
X1403248Y1000082D01*
X1398250D01*
X1401582D02*
X1404915Y996750D01*
X1414911D02*
X1408247D01*
X1414911Y1003415D01*
Y1005081D01*
X1413245Y1006747D01*
X1409913D01*
X1408247Y1005081D01*
X1418244D02*
X1419910Y1006747D01*
X1423242D01*
X1424908Y1005081D01*
Y1003415D01*
X1423242Y1001748D01*
X1421576D01*
X1423242D01*
X1424908Y1000082D01*
Y998416D01*
X1423242Y996750D01*
X1419910D01*
X1418244Y998416D01*
X1381000Y1081997D02*
X1387664D01*
X1384332D01*
Y1072000D01*
X1397661D02*
X1390997D01*
X1397661Y1078664D01*
Y1080331D01*
X1395995Y1081997D01*
X1392663D01*
X1390997Y1080331D01*
X1214500Y988447D02*
X1221164D01*
X1217832D01*
Y978450D01*
X1224497D02*
Y988447D01*
X1229495D01*
X1231161Y986781D01*
Y983448D01*
X1229495Y981782D01*
X1224497D01*
X1241158Y988447D02*
X1237826Y986781D01*
X1234494Y983448D01*
Y980116D01*
X1236160Y978450D01*
X1239492D01*
X1241158Y980116D01*
Y981782D01*
X1239492Y983448D01*
X1234494D01*
X1348000Y950997D02*
X1354664D01*
X1351332D01*
Y941000D01*
X1359663D02*
X1362995D01*
X1364661Y942666D01*
Y945998D01*
X1362995Y947664D01*
X1359663D01*
X1357997Y945998D01*
Y942666D01*
X1359663Y941000D01*
X1367994D02*
Y950997D01*
X1372992D01*
X1374658Y949331D01*
Y945998D01*
X1372992Y944332D01*
X1367994D01*
X1371326D02*
X1374658Y941000D01*
X1382989D02*
X1379657D01*
X1377990Y942666D01*
Y945998D01*
X1379657Y947664D01*
X1382989D01*
X1384655Y945998D01*
Y944332D01*
X1377990D01*
X1391319Y937668D02*
X1392986D01*
X1394652Y939334D01*
Y947664D01*
X1389653D01*
X1387987Y945998D01*
Y942666D01*
X1389653Y941000D01*
X1394652D01*
X1486003Y1179250D02*
X1492668D01*
X1496000Y1182582D01*
X1492668Y1185915D01*
X1486003D01*
Y1189247D02*
X1496000D01*
Y1194245D01*
X1494334Y1195911D01*
X1492668D01*
X1491002Y1194245D01*
Y1189247D01*
Y1194245D01*
X1489335Y1195911D01*
X1487669D01*
X1486003Y1194245D01*
Y1189247D01*
X1489335Y1199244D02*
X1494334D01*
X1496000Y1200910D01*
Y1205908D01*
X1489335D01*
X1496000Y1209240D02*
Y1214239D01*
X1494334Y1215905D01*
X1492668Y1214239D01*
Y1210907D01*
X1491002Y1209240D01*
X1489335Y1210907D01*
Y1215905D01*
X1509003Y942492D02*
X1515668D01*
X1519000Y945824D01*
X1515668Y949156D01*
X1509003D01*
Y952488D02*
X1519000D01*
Y957487D01*
X1517334Y959153D01*
X1515668D01*
X1514002Y957487D01*
Y952488D01*
Y957487D01*
X1512336Y959153D01*
X1510669D01*
X1509003Y957487D01*
Y952488D01*
X1512336Y964151D02*
Y967484D01*
X1514002Y969150D01*
X1519000D01*
Y964151D01*
X1517334Y962485D01*
X1515668Y964151D01*
Y969150D01*
X1510669Y974148D02*
X1512336D01*
Y972482D01*
Y975814D01*
Y974148D01*
X1517334D01*
X1519000Y975814D01*
X705000Y1016250D02*
Y1026247D01*
X709998D01*
X711665Y1024581D01*
Y1021248D01*
X709998Y1019582D01*
X705000D01*
X708332D02*
X711665Y1016250D01*
X721661D02*
X714997D01*
X721661Y1022914D01*
Y1024581D01*
X719995Y1026247D01*
X716663D01*
X714997Y1024581D01*
X724994Y1016250D02*
X728326D01*
X726660D01*
Y1026247D01*
X724994Y1024581D01*
X579250Y1016500D02*
Y1026497D01*
X584248D01*
X585914Y1024831D01*
Y1021498D01*
X584248Y1019832D01*
X579250D01*
X582582D02*
X585914Y1016500D01*
X589247D02*
X592579D01*
X590913D01*
Y1026497D01*
X589247Y1024831D01*
X604242Y1026497D02*
X597577D01*
Y1021498D01*
X600910Y1023165D01*
X602576D01*
X604242Y1021498D01*
Y1018166D01*
X602576Y1016500D01*
X599244D01*
X597577Y1018166D01*
X431750Y1016000D02*
Y1025997D01*
X436748D01*
X438414Y1024331D01*
Y1020998D01*
X436748Y1019332D01*
X431750D01*
X435082D02*
X438414Y1016000D01*
X441747D02*
X445079D01*
X443413D01*
Y1025997D01*
X441747Y1024331D01*
X450077D02*
X451744Y1025997D01*
X455076D01*
X456742Y1024331D01*
Y1022664D01*
X455076Y1020998D01*
X453410D01*
X455076D01*
X456742Y1019332D01*
Y1017666D01*
X455076Y1016000D01*
X451744D01*
X450077Y1017666D01*
X1487997Y1054000D02*
X1479666D01*
X1478000Y1052334D01*
Y1049002D01*
X1479666Y1047336D01*
X1487997D01*
X1486331Y1044003D02*
X1487997Y1042337D01*
Y1039005D01*
X1486331Y1037339D01*
X1484664D01*
X1482998Y1039005D01*
Y1040671D01*
Y1039005D01*
X1481332Y1037339D01*
X1479666D01*
X1478000Y1039005D01*
Y1042337D01*
X1479666Y1044003D01*
X732028Y1188557D02*
Y1180226D01*
X733694Y1178560D01*
X737026D01*
X738692Y1180226D01*
Y1188557D01*
X742025Y1178560D02*
X745357D01*
X743691D01*
Y1188557D01*
X742025Y1186891D01*
X1440000Y1131747D02*
X1446664D01*
X1443332D01*
Y1121750D01*
X1449997D02*
X1453329D01*
X1451663D01*
Y1131747D01*
X1449997Y1130081D01*
X1025750Y1053250D02*
X1035747D01*
Y1048252D01*
X1034081Y1046585D01*
X1030748D01*
X1029082Y1048252D01*
Y1053250D01*
Y1049918D02*
X1025750Y1046585D01*
Y1043253D02*
Y1039921D01*
Y1041587D01*
X1035747D01*
X1034081Y1043253D01*
X1035747Y1028258D02*
X1034081Y1031590D01*
X1030748Y1034923D01*
X1027416D01*
X1025750Y1033256D01*
Y1029924D01*
X1027416Y1028258D01*
X1029082D01*
X1030748Y1029924D01*
Y1034923D01*
X1004500Y1045870D02*
X1014497D01*
Y1040872D01*
X1012831Y1039205D01*
X1009498D01*
X1007832Y1040872D01*
Y1045870D01*
Y1042538D02*
X1004500Y1039205D01*
Y1035873D02*
Y1032541D01*
Y1034207D01*
X1014497D01*
X1012831Y1035873D01*
X1004500Y1020878D02*
Y1027543D01*
X1011164Y1020878D01*
X1012831D01*
X1014497Y1022544D01*
Y1025876D01*
X1012831Y1027543D01*
X1470000Y1007000D02*
Y1016997D01*
X1474998D01*
X1476664Y1015331D01*
Y1011998D01*
X1474998Y1010332D01*
X1470000D01*
X1473332D02*
X1476664Y1007000D01*
X1479997D02*
X1483329D01*
X1481663D01*
Y1016997D01*
X1479997Y1015331D01*
X1488327Y1007000D02*
X1491660D01*
X1489994D01*
Y1016997D01*
X1488327Y1015331D01*
X1319000Y1064000D02*
Y1073997D01*
X1323998D01*
X1325665Y1072331D01*
Y1068998D01*
X1323998Y1067332D01*
X1319000D01*
X1322332D02*
X1325665Y1064000D01*
X1328997D02*
X1332329D01*
X1330663D01*
Y1073997D01*
X1328997Y1072331D01*
X1337327D02*
X1338994Y1073997D01*
X1342326D01*
X1343992Y1072331D01*
Y1065666D01*
X1342326Y1064000D01*
X1338994D01*
X1337327Y1065666D01*
Y1072331D01*
X1310000Y1080000D02*
Y1089997D01*
X1314998D01*
X1316664Y1088331D01*
Y1084998D01*
X1314998Y1083332D01*
X1310000D01*
X1313332D02*
X1316664Y1080000D01*
X1319997Y1081666D02*
X1321663Y1080000D01*
X1324995D01*
X1326661Y1081666D01*
Y1088331D01*
X1324995Y1089997D01*
X1321663D01*
X1319997Y1088331D01*
Y1086665D01*
X1321663Y1084998D01*
X1326661D01*
X1394000Y1191000D02*
Y1200997D01*
X1398998D01*
X1400665Y1199331D01*
Y1195998D01*
X1398998Y1194332D01*
X1394000D01*
X1397332D02*
X1400665Y1191000D01*
X1403997Y1199331D02*
X1405663Y1200997D01*
X1408995D01*
X1410661Y1199331D01*
Y1197664D01*
X1408995Y1195998D01*
X1410661Y1194332D01*
Y1192666D01*
X1408995Y1191000D01*
X1405663D01*
X1403997Y1192666D01*
Y1194332D01*
X1405663Y1195998D01*
X1403997Y1197664D01*
Y1199331D01*
X1405663Y1195998D02*
X1408995D01*
X1177000Y1046000D02*
X1167003D01*
Y1050998D01*
X1168669Y1052664D01*
X1172002D01*
X1173668Y1050998D01*
Y1046000D01*
Y1049332D02*
X1177000Y1052664D01*
X1167003Y1062661D02*
X1168669Y1059329D01*
X1172002Y1055997D01*
X1175334D01*
X1177000Y1057663D01*
Y1060995D01*
X1175334Y1062661D01*
X1173668D01*
X1172002Y1060995D01*
Y1055997D01*
X1403000Y1124500D02*
X1393003D01*
Y1129498D01*
X1394669Y1131164D01*
X1398002D01*
X1399668Y1129498D01*
Y1124500D01*
Y1127832D02*
X1403000Y1131164D01*
X1393003Y1141161D02*
Y1134497D01*
X1398002D01*
X1396335Y1137829D01*
Y1139495D01*
X1398002Y1141161D01*
X1401334D01*
X1403000Y1139495D01*
Y1136163D01*
X1401334Y1134497D01*
X1435000Y941000D02*
Y950997D01*
X1439998D01*
X1441664Y949331D01*
Y945998D01*
X1439998Y944332D01*
X1435000D01*
X1438332D02*
X1441664Y941000D01*
X1449995D02*
Y950997D01*
X1444997Y945998D01*
X1451661D01*
X1434000Y986000D02*
Y995997D01*
X1438998D01*
X1440665Y994331D01*
Y990998D01*
X1438998Y989332D01*
X1434000D01*
X1437332D02*
X1440665Y986000D01*
X1443997Y994331D02*
X1445663Y995997D01*
X1448995D01*
X1450661Y994331D01*
Y992664D01*
X1448995Y990998D01*
X1447329D01*
X1448995D01*
X1450661Y989332D01*
Y987666D01*
X1448995Y986000D01*
X1445663D01*
X1443997Y987666D01*
X1144000Y1034000D02*
X1134003D01*
Y1038998D01*
X1135669Y1040665D01*
X1139002D01*
X1140668Y1038998D01*
Y1034000D01*
Y1037332D02*
X1144000Y1040665D01*
Y1050661D02*
Y1043997D01*
X1137336Y1050661D01*
X1135669D01*
X1134003Y1048995D01*
Y1045663D01*
X1135669Y1043997D01*
X1177500Y1127000D02*
X1167503D01*
Y1131998D01*
X1169169Y1133664D01*
X1172502D01*
X1174168Y1131998D01*
Y1127000D01*
Y1130332D02*
X1177500Y1133664D01*
Y1136997D02*
Y1140329D01*
Y1138663D01*
X1167503D01*
X1169169Y1136997D01*
X1242664Y1137666D02*
Y1144331D01*
X1240998Y1145997D01*
X1237666D01*
X1236000Y1144331D01*
Y1137666D01*
X1237666Y1136000D01*
X1240998D01*
X1239332Y1139332D02*
X1242664Y1136000D01*
X1240998D02*
X1242664Y1137666D01*
X1252661Y1136000D02*
X1245997D01*
X1252661Y1142664D01*
Y1144331D01*
X1250995Y1145997D01*
X1247663D01*
X1245997Y1144331D01*
X1236665Y1050666D02*
Y1057331D01*
X1234998Y1058997D01*
X1231666D01*
X1230000Y1057331D01*
Y1050666D01*
X1231666Y1049000D01*
X1234998D01*
X1233332Y1052332D02*
X1236665Y1049000D01*
X1234998D02*
X1236665Y1050666D01*
X1239997Y1049000D02*
X1243329D01*
X1241663D01*
Y1058997D01*
X1239997Y1057331D01*
X1412253Y1127500D02*
X1422250D01*
Y1132498D01*
X1420584Y1134165D01*
X1413919D01*
X1412253Y1132498D01*
Y1127500D01*
X1422250Y1137497D02*
Y1140829D01*
Y1139163D01*
X1412253D01*
X1413919Y1137497D01*
X1470331Y943335D02*
X1471997Y945002D01*
Y948334D01*
X1470331Y950000D01*
X1463666D01*
X1462000Y948334D01*
Y945002D01*
X1463666Y943335D01*
X1462000Y940003D02*
Y936671D01*
Y938337D01*
X1471997D01*
X1470331Y940003D01*
X1462000Y931673D02*
Y928340D01*
Y930006D01*
X1471997D01*
X1470331Y931673D01*
X1414664Y1167331D02*
X1412998Y1168997D01*
X1409666D01*
X1408000Y1167331D01*
Y1160666D01*
X1409666Y1159000D01*
X1412998D01*
X1414664Y1160666D01*
X1417997Y1159000D02*
X1421329D01*
X1419663D01*
Y1168997D01*
X1417997Y1167331D01*
X1426327D02*
X1427994Y1168997D01*
X1431326D01*
X1432992Y1167331D01*
Y1160666D01*
X1431326Y1159000D01*
X1427994D01*
X1426327Y1160666D01*
Y1167331D01*
X1152669Y1052664D02*
X1151003Y1050998D01*
Y1047666D01*
X1152669Y1046000D01*
X1159334D01*
X1161000Y1047666D01*
Y1050998D01*
X1159334Y1052664D01*
Y1055997D02*
X1161000Y1057663D01*
Y1060995D01*
X1159334Y1062661D01*
X1152669D01*
X1151003Y1060995D01*
Y1057663D01*
X1152669Y1055997D01*
X1154335D01*
X1156002Y1057663D01*
Y1062661D01*
X1363665Y1018331D02*
X1361998Y1019997D01*
X1358666D01*
X1357000Y1018331D01*
Y1011666D01*
X1358666Y1010000D01*
X1361998D01*
X1363665Y1011666D01*
X1366997Y1019997D02*
X1373661D01*
Y1018331D01*
X1366997Y1011666D01*
Y1010000D01*
D11*
X1394000Y1064750D02*
G03*
X1394000Y1064750I-1250J0D01*
G01*
X1243250Y1113499D02*
G03*
X1243250Y1113499I-1250J0D01*
G01*
X1237250Y1083000D02*
G03*
X1237250Y1083000I-1250J0D01*
G01*
X1439500Y1119750D02*
G03*
X1439500Y1119750I-1250J0D01*
G01*
X1466250Y1027000D02*
G03*
X1466250Y1027000I-1250J0D01*
G01*
X1466000Y1070000D02*
Y1079997D01*
X1470998D01*
X1472664Y1078331D01*
Y1074998D01*
X1470998Y1073332D01*
X1466000D01*
X1469332D02*
X1472664Y1070000D01*
X1482661D02*
X1475997D01*
X1482661Y1076665D01*
Y1078331D01*
X1480995Y1079997D01*
X1477663D01*
X1475997Y1078331D01*
X1490992Y1070000D02*
Y1079997D01*
X1485993Y1074998D01*
X1492658D01*
D12*
X732980Y1093130D02*
G03*
X732980Y1093130I-1000J0D01*
G01*
D13*
X1335343Y1103952D02*
X1342289D01*
X1335343Y1156530D02*
X1342289D01*
X1289711Y1149584D02*
Y1156530D01*
Y1103952D02*
X1296657D01*
X1342289D02*
Y1110898D01*
Y1149584D02*
Y1156530D01*
X1289711D02*
X1296657D01*
X1289711Y1103952D02*
Y1110898D01*
D14*
X1403750Y1032750D02*
X1409750D01*
Y1061750D01*
X1403750D02*
X1409750D01*
X1403750Y1032750D02*
Y1061750D01*
X1085450Y1233170D02*
X1422000D01*
X1066400D02*
X1085450D01*
X1066400Y1207770D02*
Y1233170D01*
Y1207770D02*
X1422000D01*
Y1233170D01*
X1066300Y922920D02*
X1294900D01*
X1066300Y897520D02*
Y922920D01*
Y897520D02*
X1294900D01*
Y922920D01*
X309300Y949900D02*
X334700D01*
X309300D02*
Y1051500D01*
X334700Y949900D02*
Y1051500D01*
X309300D02*
X334700D01*
X1267000Y1131499D02*
X1275000D01*
Y1125499D02*
Y1131499D01*
X1245000D02*
X1253000D01*
X1245000Y1125499D02*
Y1131499D01*
X1203000Y1065000D02*
X1211000D01*
X1203000D02*
Y1071000D01*
X1225000Y1065000D02*
X1233000D01*
Y1071000D01*
X1407250Y1092690D02*
X1425250D01*
X1407250D02*
Y1109560D01*
X1425250Y1092690D02*
Y1109560D01*
X1449250Y1087750D02*
Y1116750D01*
X1455250D01*
Y1087750D02*
Y1116750D01*
X1449250Y1087750D02*
X1455250D01*
X1451500Y1030000D02*
Y1061000D01*
X1454500Y1030000D02*
Y1061000D01*
X1451500D02*
X1454500D01*
X1451500Y1030000D02*
X1454500D01*
X1066800Y1207770D02*
Y1233170D01*
X431800Y1207770D02*
X1066800D01*
X431800D02*
Y1233170D01*
X450850D01*
X1066800D01*
D15*
X750150Y1105250D02*
X929350D01*
X929750Y913250D02*
Y920750D01*
X904750Y913250D02*
X929750D01*
X749750D02*
X774750D01*
X749750D02*
Y920750D01*
X929750Y1100750D02*
Y1168250D01*
X749750D02*
X929750D01*
X749750Y1100750D02*
Y1168250D01*
X325000Y1136500D02*
Y1153501D01*
X305501Y1106000D02*
X318500D01*
X298000Y1109500D02*
Y1126000D01*
Y1139000D01*
Y1169500D01*
X305501Y1173000D02*
X318500D01*
D16*
X1416248Y1095230D02*
D03*
M02*
