G04*
G04 #@! TF.GenerationSoftware,Altium Limited,Altium Designer,18.1.9 (240)*
G04*
G04 Layer_Color=8388736*
%FSLAX44Y44*%
%MOMM*%
G71*
G01*
G75*
%ADD11C,0.2032*%
%ADD14C,0.2540*%
%ADD17C,0.1000*%
%ADD93R,1.0259X0.4902*%
D11*
X1361001Y970750D02*
G03*
X1361001Y970750I-17501J0D01*
G01*
X437501Y967550D02*
G03*
X437501Y967550I-17501J0D01*
G01*
X732501D02*
G03*
X732501Y967550I-17501J0D01*
G01*
X585001D02*
G03*
X585001Y967550I-17501J0D01*
G01*
X1295050Y1164399D02*
X1330950D01*
X1295050Y1068601D02*
Y1164399D01*
Y1068601D02*
X1330950D01*
Y1164399D01*
X1312499Y939749D02*
X1374501D01*
Y1001751D01*
X1312499D02*
X1374501D01*
X1312499Y939749D02*
Y1001751D01*
X451001Y936549D02*
Y998551D01*
X388999D02*
X451001D01*
X388999Y936549D02*
Y998551D01*
Y936549D02*
X451001D01*
X746001D02*
Y998551D01*
X683999D02*
X746001D01*
X683999Y936549D02*
Y998551D01*
Y936549D02*
X746001D01*
X598501D02*
Y998551D01*
X536499D02*
X598501D01*
X536499Y936549D02*
Y998551D01*
Y936549D02*
X598501D01*
D14*
X326500Y1245220D02*
G03*
X296500Y1215220I0J-30000D01*
G01*
X1556500D02*
G03*
X1526500Y1245220I-30000J0D01*
G01*
Y885220D02*
G03*
X1556500Y915220I0J30000D01*
G01*
X296500D02*
G03*
X326500Y885220I30000J0D01*
G01*
X296500Y915220D02*
Y1215220D01*
X326500Y1244970D02*
X1526500D01*
X326500Y885220D02*
X1526500D01*
X1556500Y915220D02*
Y1215220D01*
D17*
X1445750Y1087650D02*
Y1116850D01*
X1458750D01*
Y1087650D02*
Y1116850D01*
X1445750Y1087650D02*
X1458750D01*
X1445750Y1106850D02*
X1455750Y1116850D01*
X1445750Y1107850D02*
X1454750Y1116850D01*
X1445750Y1108850D02*
X1453750Y1116850D01*
X1445750Y1109850D02*
X1452750Y1116850D01*
X1445750Y1110850D02*
X1451750Y1116850D01*
X1445750Y1111850D02*
X1450750Y1116850D01*
X1445750Y1112850D02*
X1449750Y1116850D01*
X1445750Y1113850D02*
X1448750Y1116850D01*
X1445750Y1114850D02*
X1447750Y1116850D01*
X1445750Y1115850D02*
X1446750Y1116850D01*
D93*
X1288920Y1072050D02*
D03*
Y1084750D02*
D03*
Y1097450D02*
D03*
Y1110150D02*
D03*
Y1122850D02*
D03*
Y1135550D02*
D03*
Y1148250D02*
D03*
Y1160950D02*
D03*
X1337081D02*
D03*
Y1148250D02*
D03*
Y1135550D02*
D03*
Y1122850D02*
D03*
Y1110150D02*
D03*
Y1097450D02*
D03*
Y1084750D02*
D03*
Y1072050D02*
D03*
M02*
