G04*
G04 #@! TF.GenerationSoftware,Altium Limited,Altium Designer,18.1.9 (240)*
G04*
G04 Layer_Color=32896*
%FSLAX44Y44*%
%MOMM*%
G71*
G01*
G75*
%ADD10C,0.2540*%
%ADD11C,0.2500*%
%ADD14C,0.2000*%
%ADD15C,0.1270*%
%ADD90C,0.0847*%
%ADD101C,0.0000*%
D10*
X1465250Y1187000D02*
G03*
X1465250Y1187000I-9000J0D01*
G01*
X1558801Y1201415D02*
X1563880D01*
X1561340D01*
Y1188719D01*
X1563880Y1186180D01*
X1566419D01*
X1568958Y1188719D01*
X1543566Y1186180D02*
X1553723D01*
X1543566Y1196337D01*
Y1198876D01*
X1546105Y1201415D01*
X1551184D01*
X1553723Y1198876D01*
D11*
X1493250Y998250D02*
G03*
X1493250Y998250I-1250J0D01*
G01*
X1441250Y1212000D02*
X1471250D01*
X1441250Y1162000D02*
Y1212000D01*
Y1162000D02*
X1471250D01*
Y1212000D01*
D14*
X1496500Y1146125D02*
G03*
X1496500Y1146125I-1000J0D01*
G01*
X1517500Y974750D02*
Y1009250D01*
X1555500D01*
Y974750D02*
Y1009250D01*
X1517500Y974750D02*
X1555500D01*
D15*
X1557500Y1095125D02*
Y1113625D01*
Y1151625D02*
Y1170125D01*
X1530500D02*
X1557500D01*
X1530500Y1095125D02*
X1557500D01*
X1059250Y1084300D02*
X1062750D01*
X1059250Y1154300D02*
X1062750D01*
X1125750Y1084300D02*
X1129250D01*
X1125750Y1154300D02*
X1129250D01*
X1059250Y1084300D02*
Y1087800D01*
Y1150800D02*
Y1154300D01*
X1129250Y1084300D02*
Y1087800D01*
Y1150800D02*
Y1154300D01*
X1532620Y1068000D02*
X1536620Y1070500D01*
X1532620Y1068000D02*
X1536620Y1065500D01*
Y1070500D01*
X1532620Y1072000D02*
X1536620D01*
X1532620Y1064000D02*
X1536620D01*
X1532620Y1052000D02*
X1536620Y1054500D01*
X1532620Y1052000D02*
X1536620Y1049500D01*
Y1054500D01*
X1532620Y1056000D02*
X1536620D01*
X1532620Y1048000D02*
X1536620D01*
X801230Y953000D02*
X805230Y955500D01*
X801230Y958000D02*
X805230Y955500D01*
X801230Y953000D02*
Y958000D01*
Y951500D02*
X805230D01*
X801230Y959500D02*
X805230D01*
X801230Y972000D02*
X805230Y974500D01*
X801230Y977000D02*
X805230Y974500D01*
X801230Y972000D02*
Y977000D01*
Y970500D02*
X805230D01*
X801230Y978500D02*
X805230D01*
X801230Y934750D02*
X805230Y937250D01*
X801230Y939750D02*
X805230Y937250D01*
X801230Y934750D02*
Y939750D01*
Y933250D02*
X805230D01*
X801230Y941250D02*
X805230D01*
X801130Y991500D02*
X805130Y994000D01*
X801130Y996500D02*
X805130Y994000D01*
X801130Y991500D02*
Y996500D01*
Y990000D02*
X805130D01*
X801130Y998000D02*
X805130D01*
D90*
X321994Y1245754D02*
X1526893D01*
X318605Y1244907D02*
X1531977D01*
X313521Y1244060D02*
X1536214D01*
X310979Y1243213D02*
X1538755D01*
X310131Y1242365D02*
X1539603D01*
X309284Y1241518D02*
X1541297D01*
X307589Y1240670D02*
X1542992D01*
X305895Y1239823D02*
X1543839D01*
X305047Y1238976D02*
X1544687D01*
X303353Y1238129D02*
X1546381D01*
X302505Y1237281D02*
X1547229D01*
X302505Y1236434D02*
X1547229D01*
X300811Y1235587D02*
X1548076D01*
X300811Y1234739D02*
X1548923D01*
X299963Y1233892D02*
X1550618D01*
X299116Y1233045D02*
X1550618D01*
X299116Y1232197D02*
X1551465D01*
X298269Y1231350D02*
X1551465D01*
X297421Y1230503D02*
X1552313D01*
X296574Y1229655D02*
X1553160D01*
X296574Y1228808D02*
X1553160D01*
X296574Y1227961D02*
X1554007D01*
X295727Y1227113D02*
X1554007D01*
X295727Y1226266D02*
X1554855D01*
X295727Y1225419D02*
X1554855D01*
X294879Y1224571D02*
X1555702D01*
X294879Y1223724D02*
X1555702D01*
X294032Y1222877D02*
X1555702D01*
X294032Y1222029D02*
X1556549D01*
X294032Y1221182D02*
X1556549D01*
X294032Y1220335D02*
X1556549D01*
X294032Y1219487D02*
X1556549D01*
X294032Y1218640D02*
X1557397D01*
X294032Y1217793D02*
X1557397D01*
X293185Y1216945D02*
X1557397D01*
X293185Y1216098D02*
X1557397D01*
X293185Y1215251D02*
X1557397D01*
X293185Y1214403D02*
X1557397D01*
X293185Y1213556D02*
X1557397D01*
X293185Y1212709D02*
X1557397D01*
X293185Y1211861D02*
X1557397D01*
X293185Y1211014D02*
X1557397D01*
X293185Y1210167D02*
X1557397D01*
X293185Y1209320D02*
X1557397D01*
X293185Y1208472D02*
X1557397D01*
X293185Y1207625D02*
X1557397D01*
X293185Y1206777D02*
X1557397D01*
X293185Y1205930D02*
X1557397D01*
X293185Y1205083D02*
X1557397D01*
X293185Y1204236D02*
X1557397D01*
X293185Y1203388D02*
X1557397D01*
X293185Y1202541D02*
X1557397D01*
X293185Y1201693D02*
X1557397D01*
X293185Y1200846D02*
X1557397D01*
X293185Y1199999D02*
X1557397D01*
X293185Y1199152D02*
X1557397D01*
X293185Y1198304D02*
X1557397D01*
X293185Y1197457D02*
X1557397D01*
X293185Y1196609D02*
X1557397D01*
X1394710Y1195762D02*
X1557397D01*
X293185D02*
X1265916D01*
X1398099Y1194915D02*
X1557397D01*
X293185D02*
X1262527D01*
X1400641Y1194068D02*
X1557397D01*
X293185D02*
X1259985D01*
X1402336Y1193220D02*
X1557397D01*
X293185D02*
X1258290D01*
X1404030Y1192373D02*
X1557397D01*
X293185D02*
X1256596D01*
X1405725Y1191526D02*
X1557397D01*
X293185D02*
X1254901D01*
X1406572Y1190678D02*
X1557397D01*
X293185D02*
X1254054D01*
X1407420Y1189831D02*
X1557397D01*
X293185D02*
X1253206D01*
X1409114Y1188984D02*
X1557397D01*
X293185D02*
X1251512D01*
X1409962Y1188136D02*
X1557397D01*
X1359969D02*
X1362511D01*
X1294725D02*
X1297267D01*
X293185D02*
X1250664D01*
X1410809Y1187289D02*
X1557397D01*
X1354038D02*
X1368443D01*
X1288794D02*
X1302351D01*
X293185D02*
X1249817D01*
X1411656Y1186442D02*
X1557397D01*
X1351496D02*
X1370985D01*
X1286252D02*
X1305741D01*
X293185D02*
X1248970D01*
X1412504Y1185594D02*
X1557397D01*
X1349801D02*
X1372679D01*
X1284557D02*
X1307435D01*
X293185D02*
X1248122D01*
X1412504Y1184747D02*
X1557397D01*
X1365053D02*
X1374374D01*
X1348107D02*
X1357428D01*
X1299809D02*
X1309130D01*
X1282863D02*
X1292183D01*
X293185D02*
X1248122D01*
X1413351Y1183900D02*
X1557397D01*
X1368443D02*
X1375221D01*
X1346412D02*
X1354038D01*
X1303199D02*
X1309977D01*
X1281168D02*
X1288794D01*
X293185D02*
X1247275D01*
X1414198Y1183052D02*
X1557397D01*
X1370137D02*
X1376916D01*
X1345565D02*
X1352343D01*
X1304893D02*
X1311672D01*
X1280321D02*
X1287099D01*
X293185D02*
X1246428D01*
X1415046Y1182205D02*
X1557397D01*
X1371832D02*
X1377763D01*
X1344718D02*
X1350649D01*
X1306588D02*
X1312519D01*
X1279473D02*
X1285405D01*
X865130D02*
X1245580D01*
X293185D02*
X851573D01*
X1415046Y1181358D02*
X1557397D01*
X1373527D02*
X1378611D01*
X1343870D02*
X1348954D01*
X1307435D02*
X1313367D01*
X1278626D02*
X1283710D01*
X868520D02*
X1245580D01*
X293185D02*
X848184D01*
X1415893Y1180510D02*
X1557397D01*
X1374374D02*
X1379458D01*
X1343023D02*
X1348107D01*
X1309130D02*
X1314214D01*
X1277779D02*
X1282863D01*
X871909D02*
X1244733D01*
X293185D02*
X845642D01*
X1415893Y1179663D02*
X1557397D01*
X1375221D02*
X1380305D01*
X1342176D02*
X1347260D01*
X1309977D02*
X1315061D01*
X1276931D02*
X1282015D01*
X873604D02*
X1244733D01*
X293185D02*
X843100D01*
X1416740Y1178816D02*
X1557397D01*
X1376069D02*
X1381153D01*
X1341328D02*
X1346412D01*
X1310824D02*
X1315908D01*
X1276084D02*
X1280321D01*
X875298D02*
X1243886D01*
X293185D02*
X841405D01*
X1416740Y1177968D02*
X1557397D01*
X1376916D02*
X1382000D01*
X1340481D02*
X1345565D01*
X1311672D02*
X1315908D01*
X1275237D02*
X1279473D01*
X876993D02*
X1243886D01*
X293185D02*
X839711D01*
X1417588Y1177121D02*
X1557397D01*
X1377763D02*
X1382000D01*
X1340481D02*
X1344718D01*
X1312519D02*
X1316756D01*
X1293031D02*
X1298962D01*
X1274389D02*
X1279473D01*
X878688D02*
X1243038D01*
X293185D02*
X838016D01*
X1417588Y1176274D02*
X1557397D01*
X1378611D02*
X1382847D01*
X1339634D02*
X1343870D01*
X1313367D02*
X1317603D01*
X1293031D02*
X1298962D01*
X1274389D02*
X1278626D01*
X880382D02*
X1243038D01*
X293185D02*
X837169D01*
X1417588Y1175426D02*
X1557397D01*
X1379458D02*
X1383695D01*
X1338786D02*
X1343023D01*
X1314214D02*
X1317603D01*
X1293031D02*
X1298962D01*
X1273542D02*
X1277779D01*
X882077D02*
X1243038D01*
X293185D02*
X835474D01*
X1418435Y1174579D02*
X1557397D01*
X1379458D02*
X1383695D01*
X1356580D02*
X1362511D01*
X1338786D02*
X1343023D01*
X1314214D02*
X1318450D01*
X1289641D02*
X1302351D01*
X1273542D02*
X1276931D01*
X883772D02*
X1242191D01*
X293185D02*
X834627D01*
X1418435Y1173732D02*
X1557397D01*
X1380305D02*
X1384542D01*
X1357428D02*
X1362511D01*
X1337939D02*
X1342176D01*
X1315061D02*
X1318450D01*
X1288794D02*
X1303199D01*
X1272695D02*
X1276931D01*
X884619D02*
X1242191D01*
X293185D02*
X833779D01*
X1418435Y1172884D02*
X1557397D01*
X1381153D02*
X1384542D01*
X1357428D02*
X1362511D01*
X1337939D02*
X1341328D01*
X1315061D02*
X1319298D01*
X1288794D02*
X1303199D01*
X1272695D02*
X1276084D01*
X886314D02*
X1242191D01*
X293185D02*
X832932D01*
X1419282Y1172037D02*
X1557397D01*
X1381153D02*
X1384542D01*
X1358275D02*
X1362511D01*
X1337939D02*
X1341328D01*
X1315908D02*
X1319298D01*
X1288794D02*
X1303199D01*
X1271847D02*
X1276084D01*
X888008D02*
X1241344D01*
X293185D02*
X832085D01*
X1419282Y1171190D02*
X1557397D01*
X1382000D02*
X1385389D01*
X1358275D02*
X1363359D01*
X1337092D02*
X1340481D01*
X1315908D02*
X1319298D01*
X1288794D02*
X1303199D01*
X1271847D02*
X1275237D01*
X889703D02*
X1241344D01*
X293185D02*
X831237D01*
X1419282Y1170342D02*
X1557397D01*
X1382000D02*
X1385389D01*
X1358275D02*
X1363359D01*
X1337092D02*
X1340481D01*
X1316756D02*
X1320145D01*
X1288794D02*
X1303199D01*
X1271847D02*
X1275237D01*
X891398D02*
X1241344D01*
X293185D02*
X830390D01*
X1419282Y1169495D02*
X1557397D01*
X1382000D02*
X1385389D01*
X1359122D02*
X1363359D01*
X1337092D02*
X1340481D01*
X1316756D02*
X1320145D01*
X1288794D02*
X1303199D01*
X1271847D02*
X1274389D01*
X893092D02*
X1241344D01*
X293185D02*
X829543D01*
X1419282Y1168648D02*
X1557397D01*
X1382847D02*
X1385389D01*
X1359122D02*
X1363359D01*
X1337092D02*
X1339634D01*
X1316756D02*
X1320145D01*
X1295573D02*
X1303199D01*
X1288794D02*
X1294725D01*
X1271000D02*
X1274389D01*
X894787D02*
X1241344D01*
X293185D02*
X828696D01*
X1419282Y1167800D02*
X1557397D01*
X1382847D02*
X1386237D01*
X1359122D02*
X1363359D01*
X1336244D02*
X1339634D01*
X1317603D02*
X1320145D01*
X1295573D02*
X1303199D01*
X1288794D02*
X1294725D01*
X1271000D02*
X1274389D01*
X896482D02*
X1241344D01*
X293185D02*
X827848D01*
X1419282Y1166953D02*
X1557397D01*
X1382847D02*
X1386237D01*
X1359969D02*
X1364206D01*
X1336244D02*
X1339634D01*
X1317603D02*
X1320992D01*
X1296420D02*
X1303199D01*
X1288794D02*
X1294725D01*
X1271000D02*
X1274389D01*
X897329D02*
X1241344D01*
X293185D02*
X827001D01*
X1419282Y1166106D02*
X1557397D01*
X1382847D02*
X1386237D01*
X1359969D02*
X1364206D01*
X1336244D02*
X1339634D01*
X1317603D02*
X1320992D01*
X1297267D02*
X1303199D01*
X1288794D02*
X1294725D01*
X1271000D02*
X1274389D01*
X899024D02*
X1241344D01*
X293185D02*
X827001D01*
X1419282Y1165258D02*
X1557397D01*
X1382847D02*
X1386237D01*
X1360817D02*
X1364206D01*
X1336244D02*
X1339634D01*
X1317603D02*
X1320992D01*
X1297267D02*
X1303199D01*
X1288794D02*
X1294725D01*
X1271000D02*
X1273542D01*
X900718D02*
X1241344D01*
X293185D02*
X826153D01*
X1419282Y1164411D02*
X1557397D01*
X1382847D02*
X1386237D01*
X1360817D02*
X1364206D01*
X1336244D02*
X1338786D01*
X1317603D02*
X1320992D01*
X1298115D02*
X1303199D01*
X1288794D02*
X1294725D01*
X1271000D02*
X1273542D01*
X902413D02*
X1241344D01*
X293185D02*
X825306D01*
X1419282Y1163564D02*
X1557397D01*
X1383695D02*
X1386237D01*
X1356580D02*
X1365053D01*
X1336244D02*
X1338786D01*
X1317603D02*
X1320992D01*
X1298115D02*
X1303199D01*
X1288794D02*
X1294725D01*
X1271000D02*
X1273542D01*
X904108D02*
X1241344D01*
X293185D02*
X825306D01*
X1419282Y1162716D02*
X1557397D01*
X1383695D02*
X1386237D01*
X1357428D02*
X1365053D01*
X1336244D02*
X1338786D01*
X1317603D02*
X1320992D01*
X1298962D02*
X1303199D01*
X1288794D02*
X1294725D01*
X1271000D02*
X1273542D01*
X905802D02*
X1241344D01*
X293185D02*
X824459D01*
X1419282Y1161869D02*
X1557397D01*
X1383695D02*
X1386237D01*
X1357428D02*
X1365053D01*
X1336244D02*
X1338786D01*
X1317603D02*
X1320992D01*
X1298962D02*
X1303199D01*
X1288794D02*
X1291336D01*
X1271000D02*
X1273542D01*
X907497D02*
X1241344D01*
X293185D02*
X823612D01*
X1419282Y1161022D02*
X1557397D01*
X1382847D02*
X1386237D01*
X1358275D02*
X1365053D01*
X1336244D02*
X1339634D01*
X1317603D02*
X1320992D01*
X1299809D02*
X1303199D01*
X1288794D02*
X1292183D01*
X1271000D02*
X1273542D01*
X1119329D02*
X1241344D01*
X909192D02*
X1065947D01*
X293185D02*
X823612D01*
X1419282Y1160174D02*
X1557397D01*
X1382847D02*
X1386237D01*
X1358275D02*
X1360817D01*
X1336244D02*
X1339634D01*
X1317603D02*
X1320992D01*
X1299809D02*
X1303199D01*
X1288794D02*
X1293031D01*
X1271000D02*
X1273542D01*
X1122718D02*
X1241344D01*
X910039D02*
X1063405D01*
X293185D02*
X822764D01*
X1419282Y1159327D02*
X1557397D01*
X1382847D02*
X1386237D01*
X1359122D02*
X1361664D01*
X1336244D02*
X1339634D01*
X1317603D02*
X1320992D01*
X1297267D02*
X1303199D01*
X1288794D02*
X1293031D01*
X1271000D02*
X1274389D01*
X1124413D02*
X1241344D01*
X911733D02*
X1061710D01*
X293185D02*
X822764D01*
X1419282Y1158480D02*
X1557397D01*
X1382847D02*
X1386237D01*
X1359969D02*
X1361664D01*
X1336244D02*
X1339634D01*
X1317603D02*
X1320145D01*
X1297267D02*
X1303199D01*
X1288794D02*
X1293878D01*
X1271000D02*
X1274389D01*
X1126107D02*
X1241344D01*
X913428D02*
X1060016D01*
X871062D02*
X873604D01*
X293185D02*
X821917D01*
X1419282Y1157633D02*
X1557397D01*
X1382847D02*
X1385389D01*
X1359969D02*
X1361664D01*
X1336244D02*
X1339634D01*
X1316756D02*
X1320145D01*
X1297267D02*
X1303199D01*
X1288794D02*
X1293878D01*
X1271000D02*
X1274389D01*
X1126954D02*
X1241344D01*
X915123D02*
X1059168D01*
X870214D02*
X875298D01*
X293185D02*
X821917D01*
X1419282Y1156785D02*
X1557397D01*
X1382000D02*
X1385389D01*
X1360817D02*
X1362511D01*
X1337092D02*
X1340481D01*
X1316756D02*
X1320145D01*
X1297267D02*
X1303199D01*
X1288794D02*
X1294725D01*
X1271847D02*
X1274389D01*
X1127802D02*
X1241344D01*
X916817D02*
X1057474D01*
X870214D02*
X876146D01*
X293185D02*
X821069D01*
X1419282Y1155938D02*
X1557397D01*
X1382000D02*
X1385389D01*
X1361664D02*
X1362511D01*
X1337092D02*
X1340481D01*
X1316756D02*
X1320145D01*
X1297267D02*
X1303199D01*
X1288794D02*
X1294725D01*
X1271847D02*
X1275237D01*
X1128649D02*
X1241344D01*
X918512D02*
X1056626D01*
X869367D02*
X877840D01*
X293185D02*
X821069D01*
X1419282Y1155090D02*
X1557397D01*
X1382000D02*
X1385389D01*
X1361664D02*
X1363359D01*
X1337092D02*
X1340481D01*
X1315908D02*
X1320145D01*
X1297267D02*
X1303199D01*
X1288794D02*
X1295573D01*
X1271847D02*
X1275237D01*
X1129497D02*
X1241344D01*
X920207D02*
X1055779D01*
X869367D02*
X879535D01*
X293185D02*
X820222D01*
X1419282Y1154243D02*
X1557397D01*
X1381153D02*
X1384542D01*
X1362511D02*
X1363359D01*
X1337939D02*
X1341328D01*
X1315908D02*
X1319298D01*
X1297267D02*
X1303199D01*
X1288794D02*
X1295573D01*
X1271847D02*
X1276084D01*
X1130344D02*
X1242191D01*
X921901D02*
X1055779D01*
X868520D02*
X881230D01*
X293185D02*
X820222D01*
X1418435Y1153396D02*
X1557397D01*
X1381153D02*
X1384542D01*
X1362511D02*
X1363359D01*
X1337939D02*
X1341328D01*
X1315061D02*
X1319298D01*
X1297267D02*
X1303199D01*
X1288794D02*
X1296420D01*
X1272695D02*
X1276084D01*
X1131191D02*
X1242191D01*
X922749D02*
X1054932D01*
X867673D02*
X882924D01*
X293185D02*
X819375D01*
X1418435Y1152549D02*
X1557397D01*
X1380305D02*
X1384542D01*
X1337939D02*
X1342176D01*
X1315061D02*
X1318450D01*
X1297267D02*
X1303199D01*
X1288794D02*
X1296420D01*
X1272695D02*
X1276931D01*
X1131191D02*
X1242191D01*
X924443D02*
X1054084D01*
X867673D02*
X884619D01*
X293185D02*
X819375D01*
X1418435Y1151701D02*
X1557397D01*
X1380305D02*
X1383695D01*
X1338786D02*
X1342176D01*
X1314214D02*
X1318450D01*
X1288794D02*
X1303199D01*
X1273542D02*
X1276931D01*
X1132038D02*
X1242191D01*
X926138D02*
X1054084D01*
X866825D02*
X886314D01*
X293185D02*
X818528D01*
X1417588Y1150854D02*
X1557397D01*
X1379458D02*
X1383695D01*
X1338786D02*
X1343023D01*
X1314214D02*
X1317603D01*
X1288794D02*
X1303199D01*
X1273542D02*
X1277779D01*
X1132038D02*
X1243038D01*
X927833D02*
X1053237D01*
X866825D02*
X888008D01*
X293185D02*
X818528D01*
X1417588Y1150007D02*
X1557397D01*
X1378611D02*
X1382847D01*
X1339634D02*
X1343870D01*
X1313367D02*
X1317603D01*
X1288794D02*
X1303199D01*
X1274389D02*
X1278626D01*
X1132886D02*
X1243038D01*
X929527D02*
X1053237D01*
X868520D02*
X888856D01*
X293185D02*
X817680D01*
X1417588Y1149159D02*
X1557397D01*
X1377763D02*
X1382000D01*
X1340481D02*
X1344718D01*
X1312519D02*
X1316756D01*
X1288794D02*
X1303199D01*
X1274389D02*
X1278626D01*
X1132886D02*
X1243038D01*
X931222D02*
X1052390D01*
X869367D02*
X890550D01*
X293185D02*
X816833D01*
X1416740Y1148312D02*
X1557397D01*
X1376916D02*
X1382000D01*
X1340481D02*
X1345565D01*
X1311672D02*
X1316756D01*
X1275237D02*
X1279473D01*
X1132886D02*
X1243886D01*
X932917D02*
X1052390D01*
X871062D02*
X892245D01*
X293185D02*
X816833D01*
X1416740Y1147465D02*
X1557397D01*
X1376069D02*
X1381153D01*
X1341328D02*
X1346412D01*
X1310824D02*
X1315908D01*
X1276084D02*
X1280321D01*
X1133733D02*
X1243886D01*
X934611D02*
X1052390D01*
X872757D02*
X893940D01*
X293185D02*
X815986D01*
X1415893Y1146617D02*
X1557397D01*
X1375221D02*
X1380305D01*
X1342176D02*
X1347260D01*
X1309977D02*
X1315061D01*
X1276931D02*
X1281168D01*
X1133733D02*
X1244733D01*
X935459D02*
X1052390D01*
X874451D02*
X895634D01*
X293185D02*
X815986D01*
X1415893Y1145770D02*
X1557397D01*
X1374374D02*
X1379458D01*
X1343023D02*
X1348107D01*
X1309130D02*
X1314214D01*
X1276931D02*
X1282863D01*
X1133733D02*
X1244733D01*
X937153D02*
X1051542D01*
X876146D02*
X897329D01*
X293185D02*
X815138D01*
X1415046Y1144923D02*
X1557397D01*
X1373527D02*
X1378611D01*
X1343870D02*
X1348954D01*
X1308282D02*
X1313367D01*
X1277779D02*
X1283710D01*
X1133733D02*
X1245580D01*
X938848D02*
X1051542D01*
X877840D02*
X899024D01*
X293185D02*
X815138D01*
X1414198Y1144075D02*
X1557397D01*
X1371832D02*
X1377763D01*
X1344718D02*
X1350649D01*
X1306588D02*
X1312519D01*
X1278626D02*
X1284557D01*
X1133733D02*
X1246428D01*
X940543D02*
X1051542D01*
X879535D02*
X900718D01*
X293185D02*
X814291D01*
X1414198Y1143228D02*
X1557397D01*
X1370137D02*
X1376916D01*
X1345565D02*
X1351496D01*
X1304893D02*
X1311672D01*
X1280321D02*
X1286252D01*
X1133733D02*
X1246428D01*
X942237D02*
X1051542D01*
X881230D02*
X902413D01*
X293185D02*
X814291D01*
X1413351Y1142381D02*
X1557397D01*
X1368443D02*
X1376069D01*
X1346412D02*
X1354038D01*
X1303199D02*
X1310824D01*
X1281168D02*
X1288794D01*
X1133733D02*
X1247275D01*
X943932D02*
X1051542D01*
X882924D02*
X903260D01*
X293185D02*
X813444D01*
X1412504Y1141533D02*
X1557397D01*
X1365901D02*
X1374374D01*
X1348107D02*
X1356580D01*
X1300657D02*
X1309130D01*
X1282863D02*
X1291336D01*
X1133733D02*
X1248122D01*
X945627D02*
X1051542D01*
X883772D02*
X904955D01*
X293185D02*
X813444D01*
X1411656Y1140686D02*
X1557397D01*
X1349801D02*
X1372679D01*
X1283710D02*
X1307435D01*
X1133733D02*
X1248970D01*
X947321D02*
X1051542D01*
X885466D02*
X904955D01*
X293185D02*
X812596D01*
X1411656Y1139839D02*
X1557397D01*
X1351496D02*
X1370985D01*
X1286252D02*
X1305741D01*
X1133733D02*
X1249817D01*
X948168D02*
X1051542D01*
X887161D02*
X904108D01*
X293185D02*
X812596D01*
X1410809Y1138991D02*
X1557397D01*
X1354038D02*
X1368443D01*
X1288794D02*
X1303199D01*
X1133733D02*
X1249817D01*
X949863D02*
X1051542D01*
X888856D02*
X904108D01*
X293185D02*
X811749D01*
X1409962Y1138144D02*
X1557397D01*
X1358275D02*
X1365901D01*
X1293031D02*
X1299809D01*
X1133733D02*
X1251512D01*
X951558D02*
X1051542D01*
X890550D02*
X903260D01*
X293185D02*
X811749D01*
X1408267Y1137297D02*
X1557397D01*
X1360817D02*
X1365901D01*
X1295573D02*
X1300657D01*
X1133733D02*
X1252359D01*
X953253D02*
X1051542D01*
X892245D02*
X903260D01*
X870214D02*
X872757D01*
X293185D02*
X810902D01*
X1407420Y1136449D02*
X1557397D01*
X1361664D02*
X1366748D01*
X1296420D02*
X1301504D01*
X1133733D02*
X1253206D01*
X954947D02*
X1051542D01*
X893940D02*
X902413D01*
X870214D02*
X874451D01*
X293185D02*
X810902D01*
X1406572Y1135602D02*
X1557397D01*
X1362511D02*
X1367595D01*
X1297267D02*
X1302351D01*
X1133733D02*
X1254054D01*
X956642D02*
X1051542D01*
X895634D02*
X901566D01*
X869367D02*
X876146D01*
X293185D02*
X810054D01*
X1404878Y1134755D02*
X1557397D01*
X1363359D02*
X1368443D01*
X1298115D02*
X1303199D01*
X1133733D02*
X1255748D01*
X958336D02*
X1051542D01*
X896482D02*
X901566D01*
X868520D02*
X877840D01*
X293185D02*
X810054D01*
X1404030Y1133907D02*
X1557397D01*
X1364206D02*
X1369290D01*
X1298962D02*
X1304046D01*
X1133733D02*
X1256596D01*
X960031D02*
X1051542D01*
X898176D02*
X900718D01*
X868520D02*
X878688D01*
X857505D02*
X859199D01*
X293185D02*
X809207D01*
X1402336Y1133060D02*
X1557397D01*
X1365053D02*
X1370137D01*
X1299809D02*
X1304893D01*
X1133733D02*
X1258290D01*
X960879D02*
X1051542D01*
X899871D02*
X900718D01*
X867673D02*
X880382D01*
X857505D02*
X860894D01*
X293185D02*
X809207D01*
X1400641Y1132213D02*
X1557397D01*
X1365901D02*
X1370985D01*
X1300657D02*
X1305741D01*
X1133733D02*
X1259985D01*
X962573D02*
X1051542D01*
X899871D02*
X902413D01*
X867673D02*
X882077D01*
X856657D02*
X862589D01*
X293185D02*
X809207D01*
X1398099Y1131365D02*
X1557397D01*
X1366748D02*
X1371832D01*
X1301504D02*
X1306588D01*
X1133733D02*
X1262527D01*
X964268D02*
X1051542D01*
X899024D02*
X904108D01*
X866825D02*
X883772D01*
X856657D02*
X864283D01*
X293185D02*
X808360D01*
X1394710Y1130518D02*
X1557397D01*
X1367595D02*
X1372679D01*
X1302351D02*
X1307435D01*
X1133733D02*
X1265916D01*
X965962D02*
X1051542D01*
X899024D02*
X905802D01*
X866825D02*
X885466D01*
X855810D02*
X865130D01*
X293185D02*
X808360D01*
X1383695Y1129671D02*
X1557397D01*
X1368443D02*
X1373527D01*
X1303199D02*
X1308282D01*
X1133733D02*
X1293031D01*
X967657D02*
X1051542D01*
X898176D02*
X907497D01*
X855810D02*
X887161D01*
X293185D02*
X808360D01*
X1384542Y1128823D02*
X1557397D01*
X1369290D02*
X1374374D01*
X1304046D02*
X1309130D01*
X1133733D02*
X1293878D01*
X969352D02*
X1051542D01*
X898176D02*
X909192D01*
X867673D02*
X888856D01*
X854963D02*
X865978D01*
X293185D02*
X807512D01*
X1385389Y1127976D02*
X1557397D01*
X1370137D02*
X1375221D01*
X1304893D02*
X1309977D01*
X1133733D02*
X1294725D01*
X971046D02*
X1051542D01*
X897329D02*
X908344D01*
X869367D02*
X890550D01*
X854963D02*
X865978D01*
X293185D02*
X807512D01*
X1386237Y1127129D02*
X1557397D01*
X1370985D02*
X1376069D01*
X1305741D02*
X1310824D01*
X1133733D02*
X1295573D01*
X972741D02*
X1051542D01*
X897329D02*
X908344D01*
X871062D02*
X892245D01*
X854115D02*
X865130D01*
X293185D02*
X807512D01*
X1387084Y1126281D02*
X1557397D01*
X1371832D02*
X1376916D01*
X1306588D02*
X1311672D01*
X1133733D02*
X1296420D01*
X973588D02*
X1051542D01*
X896482D02*
X907497D01*
X872757D02*
X893092D01*
X853268D02*
X865130D01*
X293185D02*
X807512D01*
X1387931Y1125434D02*
X1557397D01*
X1372679D02*
X1377763D01*
X1307435D02*
X1312519D01*
X1133733D02*
X1297267D01*
X975283D02*
X1051542D01*
X896482D02*
X907497D01*
X874451D02*
X894787D01*
X854115D02*
X864283D01*
X293185D02*
X807512D01*
X1388779Y1124587D02*
X1557397D01*
X1373527D02*
X1378611D01*
X1308282D02*
X1313367D01*
X1133733D02*
X1298115D01*
X976978D02*
X1051542D01*
X876146D02*
X906649D01*
X855810D02*
X864283D01*
X293185D02*
X807512D01*
X1389626Y1123739D02*
X1557397D01*
X1374374D02*
X1379458D01*
X1309130D02*
X1314214D01*
X1133733D02*
X1298962D01*
X978672D02*
X1051542D01*
X897329D02*
X906649D01*
X876993D02*
X895634D01*
X857505D02*
X863436D01*
X293185D02*
X806665D01*
X1390473Y1122892D02*
X1557397D01*
X1375221D02*
X1380305D01*
X1309977D02*
X1315061D01*
X1133733D02*
X1299809D01*
X980367D02*
X1051542D01*
X899024D02*
X905802D01*
X878688D02*
X894787D01*
X858352D02*
X863436D01*
X293185D02*
X806665D01*
X1391321Y1122045D02*
X1557397D01*
X1376069D02*
X1381153D01*
X1310824D02*
X1315908D01*
X1133733D02*
X1300657D01*
X982062D02*
X1051542D01*
X900718D02*
X905802D01*
X880382D02*
X894787D01*
X860047D02*
X862589D01*
X293185D02*
X806665D01*
X1392168Y1121198D02*
X1557397D01*
X1376916D02*
X1382000D01*
X1311672D02*
X1316756D01*
X1133733D02*
X1301504D01*
X983756D02*
X1051542D01*
X902413D02*
X904955D01*
X882077D02*
X893940D01*
X861741D02*
X862589D01*
X293185D02*
X806665D01*
X1393015Y1120350D02*
X1557397D01*
X1377763D02*
X1382847D01*
X1312519D02*
X1317603D01*
X1133733D02*
X1302351D01*
X985451D02*
X1051542D01*
X904108D02*
X904955D01*
X883772D02*
X893940D01*
X860894D02*
X864283D01*
X293185D02*
X806665D01*
X1393862Y1119503D02*
X1557397D01*
X1378611D02*
X1383695D01*
X1313367D02*
X1318450D01*
X1133733D02*
X1303199D01*
X986298D02*
X1051542D01*
X885466D02*
X893092D01*
X860894D02*
X865978D01*
X293185D02*
X806665D01*
X1394710Y1118655D02*
X1557397D01*
X1379458D02*
X1384542D01*
X1314214D02*
X1319298D01*
X1133733D02*
X1304046D01*
X987993D02*
X1051542D01*
X887161D02*
X893092D01*
X860047D02*
X867673D01*
X293185D02*
X806665D01*
X1395557Y1117808D02*
X1557397D01*
X1380305D02*
X1385389D01*
X1315061D02*
X1320145D01*
X1133733D02*
X1304893D01*
X989688D02*
X1051542D01*
X888856D02*
X892245D01*
X860047D02*
X869367D01*
X293185D02*
X806665D01*
X1396405Y1116961D02*
X1557397D01*
X1381153D02*
X1386237D01*
X1315908D02*
X1320992D01*
X1133733D02*
X1305741D01*
X991382D02*
X1051542D01*
X889703D02*
X892245D01*
X859199D02*
X871062D01*
X293185D02*
X806665D01*
X1397252Y1116114D02*
X1557397D01*
X1382000D02*
X1387084D01*
X1316756D02*
X1321840D01*
X1133733D02*
X1306588D01*
X993077D02*
X1051542D01*
X859199D02*
X871909D01*
X293185D02*
X806665D01*
X1398099Y1115266D02*
X1557397D01*
X1382847D02*
X1387931D01*
X1317603D02*
X1322687D01*
X1133733D02*
X1307435D01*
X994771D02*
X1051542D01*
X858352D02*
X873604D01*
X293185D02*
X807512D01*
X1398947Y1114419D02*
X1557397D01*
X1383695D02*
X1388779D01*
X1318450D02*
X1323534D01*
X1133733D02*
X1308282D01*
X996466D02*
X1051542D01*
X954947D02*
X955795D01*
X858352D02*
X875298D01*
X293185D02*
X807512D01*
X1399794Y1113571D02*
X1557397D01*
X1384542D02*
X1389626D01*
X1319298D02*
X1324382D01*
X1133733D02*
X1309130D01*
X998161D02*
X1051542D01*
X954100D02*
X957489D01*
X857505D02*
X876993D01*
X293185D02*
X807512D01*
X1400641Y1112724D02*
X1557397D01*
X1385389D02*
X1390473D01*
X1320145D02*
X1325229D01*
X1133733D02*
X1309977D01*
X999008D02*
X1051542D01*
X954100D02*
X959184D01*
X857505D02*
X878688D01*
X293185D02*
X807512D01*
X1401488Y1111877D02*
X1557397D01*
X1386237D02*
X1391321D01*
X1320992D02*
X1326076D01*
X1133733D02*
X1310824D01*
X1000703D02*
X1051542D01*
X953253D02*
X960879D01*
X859199D02*
X880382D01*
X293185D02*
X807512D01*
X1402336Y1111030D02*
X1557397D01*
X1387084D02*
X1392168D01*
X1321840D02*
X1326924D01*
X1133733D02*
X1311672D01*
X1002398D02*
X1051542D01*
X952405D02*
X962573D01*
X860894D02*
X882077D01*
X293185D02*
X808360D01*
X1403183Y1110182D02*
X1557397D01*
X1387931D02*
X1393015D01*
X1322687D02*
X1327771D01*
X1133733D02*
X1312519D01*
X1004092D02*
X1051542D01*
X952405D02*
X963420D01*
X862589D02*
X883772D01*
X293185D02*
X808360D01*
X1404030Y1109335D02*
X1557397D01*
X1388779D02*
X1393862D01*
X1323534D02*
X1328618D01*
X1133733D02*
X1313367D01*
X1005787D02*
X1051542D01*
X951558D02*
X963420D01*
X864283D02*
X885466D01*
X293185D02*
X808360D01*
X1404878Y1108487D02*
X1557397D01*
X1389626D02*
X1394710D01*
X1324382D02*
X1329466D01*
X1133733D02*
X1314214D01*
X1007481D02*
X1051542D01*
X951558D02*
X962573D01*
X865978D02*
X886314D01*
X293185D02*
X808360D01*
X1405725Y1107640D02*
X1557397D01*
X1390473D02*
X1395557D01*
X1325229D02*
X1330313D01*
X1133733D02*
X1315061D01*
X1009176D02*
X1051542D01*
X950711D02*
X962573D01*
X866825D02*
X888008D01*
X293185D02*
X809207D01*
X1406572Y1106793D02*
X1557397D01*
X1391321D02*
X1396405D01*
X1326076D02*
X1331160D01*
X1133733D02*
X1315908D01*
X1010871D02*
X1051542D01*
X950711D02*
X961726D01*
X868520D02*
X889703D01*
X293185D02*
X809207D01*
X1407420Y1105946D02*
X1557397D01*
X1392168D02*
X1397252D01*
X1326924D02*
X1332008D01*
X1133733D02*
X1316756D01*
X1011718D02*
X1051542D01*
X949863D02*
X961726D01*
X870214D02*
X891398D01*
X293185D02*
X809207D01*
X1408267Y1105098D02*
X1557397D01*
X1393015D02*
X1398099D01*
X1327771D02*
X1332855D01*
X1133733D02*
X1317603D01*
X1013413D02*
X1051542D01*
X949863D02*
X960879D01*
X871909D02*
X893092D01*
X293185D02*
X810054D01*
X1409114Y1104251D02*
X1557397D01*
X1393862D02*
X1398947D01*
X1328618D02*
X1333702D01*
X1133733D02*
X1318450D01*
X1015107D02*
X1051542D01*
X949016D02*
X960031D01*
X873604D02*
X894787D01*
X293185D02*
X810054D01*
X1409962Y1103404D02*
X1557397D01*
X1394710D02*
X1399794D01*
X1329466D02*
X1334550D01*
X1133733D02*
X1319298D01*
X1016802D02*
X1051542D01*
X949016D02*
X960031D01*
X875298D02*
X895634D01*
X293185D02*
X810902D01*
X1410809Y1102556D02*
X1557397D01*
X1395557D02*
X1400641D01*
X1330313D02*
X1335397D01*
X1133733D02*
X1320145D01*
X1018497D02*
X1051542D01*
X948168D02*
X959184D01*
X876993D02*
X894787D01*
X293185D02*
X810902D01*
X1411656Y1101709D02*
X1557397D01*
X1396405D02*
X1401488D01*
X1331160D02*
X1336244D01*
X1133733D02*
X1320992D01*
X1020191D02*
X1051542D01*
X948168D02*
X959184D01*
X878688D02*
X894787D01*
X293185D02*
X811749D01*
X1412504Y1100862D02*
X1557397D01*
X1397252D02*
X1402336D01*
X1332008D02*
X1337092D01*
X1133733D02*
X1321840D01*
X1021886D02*
X1051542D01*
X979520D02*
X982062D01*
X947321D02*
X958336D01*
X879535D02*
X893940D01*
X293185D02*
X811749D01*
X1413351Y1100014D02*
X1557397D01*
X1398099D02*
X1403183D01*
X1332855D02*
X1337939D01*
X1133733D02*
X1322687D01*
X1023581D02*
X1051542D01*
X979520D02*
X982909D01*
X947321D02*
X958336D01*
X881230D02*
X893940D01*
X293185D02*
X812596D01*
X1414198Y1099167D02*
X1557397D01*
X1398947D02*
X1404030D01*
X1333702D02*
X1338786D01*
X1133733D02*
X1323534D01*
X1024428D02*
X1051542D01*
X978672D02*
X984604D01*
X946474D02*
X957489D01*
X882924D02*
X893092D01*
X293185D02*
X813444D01*
X1415046Y1098320D02*
X1557397D01*
X1399794D02*
X1404878D01*
X1334550D02*
X1339634D01*
X1133733D02*
X1324382D01*
X1026123D02*
X1051542D01*
X977825D02*
X986298D01*
X946474D02*
X957489D01*
X903260D02*
X905802D01*
X884619D02*
X893092D01*
X293185D02*
X813444D01*
X1415893Y1097472D02*
X1557397D01*
X1400641D02*
X1405725D01*
X1335397D02*
X1340481D01*
X1133733D02*
X1325229D01*
X1027817D02*
X1051542D01*
X977825D02*
X987993D01*
X966810D02*
X967657D01*
X945627D02*
X956642D01*
X902413D02*
X907497D01*
X886314D02*
X892245D01*
X293185D02*
X814291D01*
X1416740Y1096625D02*
X1557397D01*
X1401488D02*
X1406572D01*
X1336244D02*
X1341328D01*
X1133733D02*
X1326076D01*
X1029512D02*
X1051542D01*
X976978D02*
X989688D01*
X966810D02*
X969352D01*
X944779D02*
X956642D01*
X902413D02*
X909192D01*
X888008D02*
X892245D01*
X293185D02*
X815138D01*
X1417588Y1095778D02*
X1557397D01*
X1402336D02*
X1407420D01*
X1337092D02*
X1342176D01*
X1133733D02*
X1326924D01*
X1031207D02*
X1052390D01*
X976978D02*
X991382D01*
X965962D02*
X971046D01*
X944779D02*
X955795D01*
X901566D02*
X910886D01*
X889703D02*
X891398D01*
X293185D02*
X815986D01*
X1418435Y1094930D02*
X1557397D01*
X1403183D02*
X1408267D01*
X1337939D02*
X1343023D01*
X1133733D02*
X1327771D01*
X1032901D02*
X1052390D01*
X976130D02*
X993077D01*
X965962D02*
X972741D01*
X943932D02*
X955795D01*
X901566D02*
X912581D01*
X293185D02*
X815986D01*
X1419282Y1094083D02*
X1557397D01*
X1404030D02*
X1409114D01*
X1338786D02*
X1343870D01*
X1132886D02*
X1328618D01*
X1034596D02*
X1052390D01*
X976130D02*
X994771D01*
X965115D02*
X974436D01*
X943932D02*
X954947D01*
X900718D02*
X913428D01*
X293185D02*
X816833D01*
X1420130Y1093236D02*
X1557397D01*
X1404878D02*
X1409962D01*
X1339634D02*
X1344718D01*
X1132886D02*
X1329466D01*
X1036291D02*
X1052390D01*
X965115D02*
X995619D01*
X943085D02*
X954947D01*
X900718D02*
X915123D01*
X293185D02*
X817680D01*
X1420977Y1092388D02*
X1557397D01*
X1405725D02*
X1410809D01*
X1340481D02*
X1345565D01*
X1132886D02*
X1330313D01*
X1037138D02*
X1053237D01*
X976130D02*
X997314D01*
X964268D02*
X975283D01*
X943085D02*
X954100D01*
X899871D02*
X916817D01*
X293185D02*
X818528D01*
X1421824Y1091541D02*
X1557397D01*
X1406572D02*
X1411656D01*
X1341328D02*
X1346412D01*
X1132038D02*
X1331160D01*
X1038832D02*
X1053237D01*
X977825D02*
X999008D01*
X964268D02*
X975283D01*
X942237D02*
X953253D01*
X899871D02*
X918512D01*
X293185D02*
X819375D01*
X1422672Y1090694D02*
X1557397D01*
X1407420D02*
X1412504D01*
X1342176D02*
X1347260D01*
X1132038D02*
X1332008D01*
X1040527D02*
X1054084D01*
X979520D02*
X1000703D01*
X963420D02*
X974436D01*
X942237D02*
X953253D01*
X899024D02*
X920207D01*
X293185D02*
X820222D01*
X1423519Y1089846D02*
X1557397D01*
X1408267D02*
X1413351D01*
X1343023D02*
X1348107D01*
X1157458D02*
X1332855D01*
X1131191D02*
X1134581D01*
X1042222D02*
X1054084D01*
X981214D02*
X1002398D01*
X962573D02*
X974436D01*
X941390D02*
X952405D01*
X900718D02*
X921901D01*
X293185D02*
X821917D01*
X1424366Y1088999D02*
X1557397D01*
X1409114D02*
X1414198D01*
X1343870D02*
X1348954D01*
X1160000D02*
X1333702D01*
X1130344D02*
X1132038D01*
X1043916D02*
X1054932D01*
X982909D02*
X1004092D01*
X962573D02*
X973588D01*
X941390D02*
X952405D01*
X902413D02*
X923596D01*
X293185D02*
X822764D01*
X1425214Y1088152D02*
X1557397D01*
X1409962D02*
X1415046D01*
X1344718D02*
X1349801D01*
X1160848D02*
X1334550D01*
X1130344D02*
X1131191D01*
X1045611D02*
X1055779D01*
X984604D02*
X1004939D01*
X964268D02*
X973588D01*
X940543D02*
X951558D01*
X904108D02*
X925291D01*
X293185D02*
X823612D01*
X1426061Y1087304D02*
X1557397D01*
X1410809D02*
X1415893D01*
X1345565D02*
X1350649D01*
X1162542D02*
X1335397D01*
X1047306D02*
X1056626D01*
X986298D02*
X1004939D01*
X965962D02*
X972741D01*
X940543D02*
X951558D01*
X905802D02*
X926138D01*
X293185D02*
X825306D01*
X1426908Y1086457D02*
X1557397D01*
X1411656D02*
X1416740D01*
X1346412D02*
X1351496D01*
X1163390D02*
X1336244D01*
X1049000D02*
X1057474D01*
X987993D02*
X1004092D01*
X967657D02*
X972741D01*
X939695D02*
X950711D01*
X906649D02*
X927833D01*
X293185D02*
X827001D01*
X1412504Y1085610D02*
X1417588D01*
X1347260D02*
X1352343D01*
X1164237D02*
X1337092D01*
X1049848D02*
X1058321D01*
X989688D02*
X1004092D01*
X969352D02*
X971894D01*
X939695D02*
X950711D01*
X908344D02*
X929527D01*
X293185D02*
X827848D01*
X1413351Y1084762D02*
X1418435D01*
X1348107D02*
X1353191D01*
X1165084D02*
X1337939D01*
X1051542D02*
X1059168D01*
X990535D02*
X1003245D01*
X970199D02*
X971894D01*
X938848D02*
X949863D01*
X910039D02*
X931222D01*
X293185D02*
X829543D01*
X1414198Y1083915D02*
X1419282D01*
X1348954D02*
X1354038D01*
X1165084D02*
X1338786D01*
X1125260D02*
X1126954D01*
X1053237D02*
X1060016D01*
X992230D02*
X1003245D01*
X970199D02*
X972741D01*
X938001D02*
X949863D01*
X911733D02*
X932917D01*
X293185D02*
X831237D01*
X1415046Y1083068D02*
X1420130D01*
X1349801D02*
X1354886D01*
X1165932D02*
X1339634D01*
X1123565D02*
X1126107D01*
X1054932D02*
X1061710D01*
X993924D02*
X1002398D01*
X970199D02*
X974436D01*
X938001D02*
X949016D01*
X913428D02*
X934611D01*
X293185D02*
X832932D01*
X1415893Y1082220D02*
X1420977D01*
X1350649D02*
X1355733D01*
X1166779D02*
X1340481D01*
X1121871D02*
X1125260D01*
X1056626D02*
X1064252D01*
X995619D02*
X1002398D01*
X969352D02*
X976130D01*
X937153D02*
X949016D01*
X915123D02*
X936306D01*
X293185D02*
X834627D01*
X1416740Y1081373D02*
X1421824D01*
X1351496D02*
X1356580D01*
X1166779D02*
X1341328D01*
X1118481D02*
X1125260D01*
X1058321D02*
X1067642D01*
X997314D02*
X1001550D01*
X969352D02*
X977825D01*
X916817D02*
X948168D01*
X293185D02*
X836321D01*
X1417588Y1080526D02*
X1422672D01*
X1352343D02*
X1357428D01*
X1166779D02*
X1342176D01*
X1060016D02*
X1125260D01*
X999008D02*
X1001550D01*
X968504D02*
X979520D01*
X938001D02*
X948168D01*
X918512D02*
X937153D01*
X293185D02*
X838016D01*
X1418435Y1079678D02*
X1423519D01*
X1353191D02*
X1358275D01*
X1167626D02*
X1343023D01*
X1061710D02*
X1124413D01*
X999855D02*
X1001550D01*
X968504D02*
X981214D01*
X939695D02*
X947321D01*
X919359D02*
X936306D01*
X293185D02*
X839711D01*
X1419282Y1078831D02*
X1424366D01*
X1354038D02*
X1359122D01*
X1167626D02*
X1343870D01*
X1062558D02*
X1124413D01*
X1021886D02*
X1022733D01*
X999855D02*
X1003245D01*
X967657D02*
X982909D01*
X941390D02*
X947321D01*
X921054D02*
X936306D01*
X293185D02*
X840558D01*
X1420130Y1077984D02*
X1425214D01*
X1354886D02*
X1359969D01*
X1167626D02*
X1344718D01*
X1064252D02*
X1124413D01*
X1021039D02*
X1024428D01*
X999855D02*
X1004092D01*
X967657D02*
X984604D01*
X943085D02*
X946474D01*
X922749D02*
X935459D01*
X293185D02*
X842253D01*
X1420977Y1077137D02*
X1426061D01*
X1355733D02*
X1360817D01*
X1167626D02*
X1345565D01*
X1065947D02*
X1124413D01*
X1020191D02*
X1026123D01*
X999008D02*
X1005787D01*
X966810D02*
X985451D01*
X944779D02*
X945627D01*
X924443D02*
X935459D01*
X293185D02*
X843947D01*
X1421824Y1076289D02*
X1426908D01*
X1356580D02*
X1361664D01*
X1167626D02*
X1346412D01*
X1067642D02*
X1124413D01*
X1020191D02*
X1027817D01*
X999008D02*
X1007481D01*
X966810D02*
X987146D01*
X926138D02*
X934611D01*
X293185D02*
X843947D01*
X1422672Y1075442D02*
X1427756D01*
X1357428D02*
X1362511D01*
X1167626D02*
X1347260D01*
X1069336D02*
X1124413D01*
X1019344D02*
X1029512D01*
X998161D02*
X1009176D01*
X968504D02*
X988840D01*
X927833D02*
X934611D01*
X293185D02*
X843947D01*
X1423519Y1074594D02*
X1428603D01*
X1358275D02*
X1363359D01*
X1167626D02*
X1348107D01*
X1071031D02*
X1124413D01*
X1019344D02*
X1030359D01*
X997314D02*
X1009176D01*
X969352D02*
X990535D01*
X929527D02*
X933764D01*
X293185D02*
X843100D01*
X1424366Y1073747D02*
X1429450D01*
X1359122D02*
X1364206D01*
X1167626D02*
X1348954D01*
X1072726D02*
X1124413D01*
X1018497D02*
X1030359D01*
X997314D02*
X1008329D01*
X971046D02*
X992230D01*
X931222D02*
X933764D01*
X293185D02*
X842253D01*
X1425214Y1072900D02*
X1430298D01*
X1359969D02*
X1365053D01*
X1167626D02*
X1349801D01*
X1074420D02*
X1124413D01*
X1018497D02*
X1029512D01*
X996466D02*
X1008329D01*
X972741D02*
X993924D01*
X293185D02*
X842253D01*
X1426061Y1072053D02*
X1431145D01*
X1360817D02*
X1365901D01*
X1167626D02*
X1350649D01*
X1075268D02*
X1124413D01*
X1017649D02*
X1028665D01*
X996466D02*
X1007481D01*
X974436D02*
X995619D01*
X953253D02*
X954947D01*
X293185D02*
X841405D01*
X1426908Y1071205D02*
X1431992D01*
X1361664D02*
X1366748D01*
X1167626D02*
X1351496D01*
X1076962D02*
X1124413D01*
X1017649D02*
X1028665D01*
X976130D02*
X1007481D01*
X953253D02*
X956642D01*
X293185D02*
X841405D01*
X1427756Y1070358D02*
X1478595D01*
X1362511D02*
X1367595D01*
X1167626D02*
X1352343D01*
X1078657D02*
X1124413D01*
X1017649D02*
X1027817D01*
X977825D02*
X1006634D01*
X952405D02*
X958336D01*
X293185D02*
X840558D01*
X1428603Y1069510D02*
X1478595D01*
X1363359D02*
X1368443D01*
X1167626D02*
X1353191D01*
X1080352D02*
X1124413D01*
X1019344D02*
X1027817D01*
X979520D02*
X1006634D01*
X952405D02*
X960031D01*
X293185D02*
X840558D01*
X1429450Y1068663D02*
X1478595D01*
X1364206D02*
X1369290D01*
X1167626D02*
X1354038D01*
X1082046D02*
X1124413D01*
X1021039D02*
X1026970D01*
X981214D02*
X1005787D01*
X951558D02*
X961726D01*
X293185D02*
X839711D01*
X1365053Y1067816D02*
X1370137D01*
X1167626D02*
X1354886D01*
X1083741D02*
X1124413D01*
X1022733D02*
X1026970D01*
X982909D02*
X1004939D01*
X951558D02*
X963420D01*
X293185D02*
X839711D01*
X1365901Y1066969D02*
X1370985D01*
X1167626D02*
X1355733D01*
X1085435D02*
X1124413D01*
X1024428D02*
X1026123D01*
X983756D02*
X1004939D01*
X950711D02*
X965115D01*
X910039D02*
X913428D01*
X293185D02*
X838863D01*
X1366748Y1066121D02*
X1371832D01*
X1167626D02*
X1356580D01*
X1087130D02*
X1124413D01*
X1025275D02*
X1026970D01*
X985451D02*
X1004092D01*
X950711D02*
X965962D01*
X908344D02*
X915123D01*
X293185D02*
X838863D01*
X1367595Y1065274D02*
X1372679D01*
X1167626D02*
X1357428D01*
X1087978D02*
X1124413D01*
X1025275D02*
X1028665D01*
X987146D02*
X1004092D01*
X949863D02*
X967657D01*
X906649D02*
X915970D01*
X293185D02*
X838016D01*
X1368443Y1064426D02*
X1373527D01*
X1167626D02*
X1358275D01*
X1089672D02*
X1124413D01*
X1024428D02*
X1030359D01*
X988840D02*
X1003245D01*
X949863D02*
X969352D01*
X905802D02*
X916817D01*
X293185D02*
X838016D01*
X1369290Y1063579D02*
X1374374D01*
X1167626D02*
X1359122D01*
X1091367D02*
X1124413D01*
X1024428D02*
X1031207D01*
X990535D02*
X1003245D01*
X949863D02*
X971046D01*
X904955D02*
X917665D01*
X293185D02*
X837169D01*
X1370137Y1062732D02*
X1375221D01*
X1167626D02*
X1359969D01*
X1093062D02*
X1124413D01*
X1023581D02*
X1032901D01*
X991382D02*
X1002398D01*
X951558D02*
X972741D01*
X904955D02*
X917665D01*
X293185D02*
X837169D01*
X1370985Y1061885D02*
X1376069D01*
X1167626D02*
X1360817D01*
X1094756D02*
X1124413D01*
X1023581D02*
X1033749D01*
X991382D02*
X1002398D01*
X953253D02*
X974436D01*
X904108D02*
X918512D01*
X887161D02*
X888008D01*
X293185D02*
X836321D01*
X1371832Y1061037D02*
X1376916D01*
X1167626D02*
X1361664D01*
X1096451D02*
X1124413D01*
X1054932D02*
X1056626D01*
X1022733D02*
X1033749D01*
X990535D02*
X1001550D01*
X954947D02*
X976130D01*
X915123D02*
X918512D01*
X903260D02*
X913428D01*
X887161D02*
X888856D01*
X293185D02*
X835474D01*
X1372679Y1060190D02*
X1377763D01*
X1167626D02*
X1362511D01*
X1098145D02*
X1124413D01*
X1054084D02*
X1058321D01*
X1022733D02*
X1033749D01*
X989688D02*
X1001550D01*
X956642D02*
X977825D01*
X915123D02*
X919359D01*
X902413D02*
X912581D01*
X887161D02*
X889703D01*
X293185D02*
X835474D01*
X1373527Y1059343D02*
X1378611D01*
X1167626D02*
X1363359D01*
X1099840D02*
X1124413D01*
X1054084D02*
X1060016D01*
X1021886D02*
X1032901D01*
X989688D02*
X1000703D01*
X958336D02*
X978672D01*
X915970D02*
X919359D01*
X901566D02*
X912581D01*
X888008D02*
X889703D01*
X293185D02*
X834627D01*
X1374374Y1058495D02*
X1379458D01*
X1167626D02*
X1364206D01*
X1100687D02*
X1124413D01*
X1053237D02*
X1061710D01*
X1021039D02*
X1032901D01*
X988840D02*
X1000703D01*
X959184D02*
X980367D01*
X915970D02*
X919359D01*
X901566D02*
X911733D01*
X888008D02*
X890550D01*
X293185D02*
X834627D01*
X1375221Y1057648D02*
X1380305D01*
X1166779D02*
X1365053D01*
X1102382D02*
X1125260D01*
X1053237D02*
X1062558D01*
X1021886D02*
X1032054D01*
X988840D02*
X999855D01*
X960879D02*
X982062D01*
X915970D02*
X919359D01*
X901566D02*
X911733D01*
X888008D02*
X890550D01*
X293185D02*
X833779D01*
X1376069Y1056801D02*
X1381153D01*
X1166779D02*
X1365901D01*
X1104077D02*
X1125260D01*
X1052390D02*
X1063405D01*
X1042222D02*
X1043916D01*
X1023581D02*
X1031207D01*
X987993D02*
X999855D01*
X962573D02*
X983756D01*
X915970D02*
X919359D01*
X900718D02*
X911733D01*
X888856D02*
X891398D01*
X293185D02*
X833779D01*
X1376916Y1055953D02*
X1382000D01*
X1166779D02*
X1366748D01*
X1105771D02*
X1125260D01*
X1052390D02*
X1063405D01*
X1041375D02*
X1045611D01*
X1024428D02*
X1031207D01*
X987993D02*
X999008D01*
X964268D02*
X985451D01*
X915970D02*
X920207D01*
X899871D02*
X910886D01*
X888856D02*
X892245D01*
X293185D02*
X832932D01*
X1377763Y1055106D02*
X1382847D01*
X1165932D02*
X1367595D01*
X1107466D02*
X1126107D01*
X1051542D02*
X1062558D01*
X1041375D02*
X1047306D01*
X1026123D02*
X1030359D01*
X965962D02*
X998161D01*
X915970D02*
X920207D01*
X899871D02*
X910886D01*
X889703D02*
X892245D01*
X293185D02*
X832932D01*
X1378611Y1054259D02*
X1383695D01*
X1165932D02*
X1368443D01*
X1109161D02*
X1126954D01*
X1051542D02*
X1062558D01*
X1040527D02*
X1049000D01*
X1027817D02*
X1030359D01*
X987993D02*
X998161D01*
X967657D02*
X987146D01*
X915970D02*
X920207D01*
X899024D02*
X910039D01*
X889703D02*
X893092D01*
X293185D02*
X832085D01*
X1379458Y1053411D02*
X1384542D01*
X1165084D02*
X1369290D01*
X1110855D02*
X1126954D01*
X1039680D02*
X1061710D01*
X1029512D02*
X1030359D01*
X989688D02*
X997314D01*
X969352D02*
X987146D01*
X929527D02*
X932917D01*
X915970D02*
X920207D01*
X899024D02*
X910039D01*
X889703D02*
X893940D01*
X293185D02*
X832085D01*
X1380305Y1052564D02*
X1385389D01*
X1164237D02*
X1370137D01*
X1112550D02*
X1127802D01*
X1051542D02*
X1061710D01*
X1039680D02*
X1050695D01*
X1028665D02*
X1032054D01*
X991382D02*
X997314D01*
X971046D02*
X986298D01*
X926985D02*
X934611D01*
X915970D02*
X920207D01*
X898176D02*
X909192D01*
X890550D02*
X893940D01*
X293185D02*
X831237D01*
X1381153Y1051717D02*
X1478595D01*
X1163390D02*
X1370985D01*
X1113397D02*
X1128649D01*
X1071031D02*
X1074420D01*
X1053237D02*
X1060863D01*
X1038832D02*
X1050695D01*
X1028665D02*
X1033749D01*
X992230D02*
X996466D01*
X972741D02*
X986298D01*
X923596D02*
X934611D01*
X915970D02*
X920207D01*
X898176D02*
X909192D01*
X891398D02*
X894787D01*
X293185D02*
X831237D01*
X1382000Y1050869D02*
X1478595D01*
X1162542D02*
X1371832D01*
X1115092D02*
X1129497D01*
X1071031D02*
X1075268D01*
X1054932D02*
X1060863D01*
X1038832D02*
X1049848D01*
X1027817D02*
X1035443D01*
X993924D02*
X996466D01*
X973588D02*
X985451D01*
X944779D02*
X950711D01*
X921901D02*
X934611D01*
X915970D02*
X920207D01*
X897329D02*
X908344D01*
X891398D02*
X894787D01*
X293185D02*
X831237D01*
X1382847Y1050022D02*
X1478595D01*
X1161695D02*
X1371832D01*
X1116787D02*
X1131191D01*
X1070184D02*
X1076962D01*
X1055779D02*
X1060016D01*
X1037985D02*
X1049848D01*
X1027817D02*
X1037138D01*
X975283D02*
X985451D01*
X943932D02*
X953253D01*
X921054D02*
X934611D01*
X915970D02*
X920207D01*
X897329D02*
X908344D01*
X892245D02*
X895634D01*
X293185D02*
X830390D01*
X1385389Y1049175D02*
X1478595D01*
X1160000D02*
X1372679D01*
X1118481D02*
X1132038D01*
X1070184D02*
X1078657D01*
X1057474D02*
X1060016D01*
X1026970D02*
X1049000D01*
X1016802D02*
X1018497D01*
X976978D02*
X984604D01*
X943932D02*
X954100D01*
X915970D02*
X933764D01*
X896482D02*
X907497D01*
X892245D02*
X895634D01*
X293185D02*
X830390D01*
X1157458Y1048327D02*
X1373527D01*
X1120176D02*
X1134581D01*
X1069336D02*
X1080352D01*
X1038832D02*
X1049000D01*
X1026970D02*
X1037985D01*
X1015955D02*
X1020191D01*
X978672D02*
X984604D01*
X943085D02*
X954947D01*
X915970D02*
X933764D01*
X893092D02*
X907497D01*
X293185D02*
X830390D01*
X1121871Y1047480D02*
X1374374D01*
X1069336D02*
X1080352D01*
X1040527D02*
X1048153D01*
X1026123D02*
X1037138D01*
X1015955D02*
X1021886D01*
X980367D02*
X983756D01*
X943085D02*
X955795D01*
X915970D02*
X932917D01*
X893092D02*
X906649D01*
X293185D02*
X830390D01*
X1123565Y1046633D02*
X1375221D01*
X1068489D02*
X1079504D01*
X1042222D02*
X1047306D01*
X1026123D02*
X1037138D01*
X1015107D02*
X1023581D01*
X982062D02*
X982909D01*
X942237D02*
X955795D01*
X915970D02*
X932069D01*
X893092D02*
X906649D01*
X293185D02*
X830390D01*
X1125260Y1045785D02*
X1376069D01*
X1068489D02*
X1079504D01*
X1043916D02*
X1047306D01*
X1025275D02*
X1036291D01*
X1014260D02*
X1024428D01*
X1004092D02*
X1004939D01*
X942237D02*
X956642D01*
X915970D02*
X932069D01*
X893940D02*
X905802D01*
X293185D02*
X829543D01*
X1126107Y1044938D02*
X1376916D01*
X1067642D02*
X1078657D01*
X1045611D02*
X1046459D01*
X1014260D02*
X1036291D01*
X1003245D02*
X1005787D01*
X952405D02*
X956642D01*
X942237D02*
X950711D01*
X915970D02*
X931222D01*
X893940D02*
X905802D01*
X293185D02*
X829543D01*
X1127802Y1044091D02*
X1377763D01*
X1067642D02*
X1078657D01*
X1026970D02*
X1035443D01*
X1013413D02*
X1024428D01*
X1003245D02*
X1007481D01*
X952405D02*
X956642D01*
X942237D02*
X950711D01*
X915970D02*
X930375D01*
X894787D02*
X905802D01*
X293185D02*
X829543D01*
X1129497Y1043243D02*
X1378611D01*
X1069336D02*
X1077810D01*
X1028665D02*
X1035443D01*
X1013413D02*
X1024428D01*
X1002398D02*
X1009176D01*
X952405D02*
X957489D01*
X941390D02*
X950711D01*
X915970D02*
X930375D01*
X894787D02*
X904955D01*
X293185D02*
X829543D01*
X1131191Y1042396D02*
X1379458D01*
X1070184D02*
X1077810D01*
X1030359D02*
X1034596D01*
X1012565D02*
X1023581D01*
X1002398D02*
X1010871D01*
X953253D02*
X957489D01*
X941390D02*
X950711D01*
X915970D02*
X929527D01*
X893940D02*
X904955D01*
X293185D02*
X829543D01*
X1132886Y1041549D02*
X1380305D01*
X1071878D02*
X1076962D01*
X1032054D02*
X1034596D01*
X1001550D02*
X1023581D01*
X953253D02*
X957489D01*
X941390D02*
X949863D01*
X915123D02*
X928680D01*
X893940D02*
X904108D01*
X293185D02*
X829543D01*
X1134581Y1040701D02*
X1381153D01*
X1073573D02*
X1076962D01*
X1032901D02*
X1034596D01*
X1013413D02*
X1022733D01*
X1001550D02*
X1012565D01*
X954100D02*
X957489D01*
X941390D02*
X949863D01*
X915123D02*
X928680D01*
X893940D02*
X904108D01*
X293185D02*
X829543D01*
X1136275Y1039854D02*
X1382000D01*
X1075268D02*
X1076115D01*
X1032901D02*
X1036291D01*
X1015107D02*
X1022733D01*
X1000703D02*
X1011718D01*
X954100D02*
X958336D01*
X940543D02*
X949863D01*
X915123D02*
X927833D01*
X893940D02*
X904108D01*
X293185D02*
X829543D01*
X1137970Y1039007D02*
X1383695D01*
X1097298D02*
X1098145D01*
X1032054D02*
X1037138D01*
X1016802D02*
X1021886D01*
X1000703D02*
X1011718D01*
X954100D02*
X958336D01*
X940543D02*
X949863D01*
X914276D02*
X927833D01*
X893092D02*
X903260D01*
X293185D02*
X829543D01*
X1138817Y1038159D02*
X1385389D01*
X1096451D02*
X1099840D01*
X1032054D02*
X1038832D01*
X1017649D02*
X1021886D01*
X999855D02*
X1010871D01*
X954100D02*
X958336D01*
X940543D02*
X949863D01*
X914276D02*
X926985D01*
X893092D02*
X903260D01*
X293185D02*
X830390D01*
X1140512Y1037312D02*
X1387084D01*
X1096451D02*
X1101535D01*
X1031207D02*
X1040527D01*
X1019344D02*
X1021039D01*
X999855D02*
X1010871D01*
X954947D02*
X958336D01*
X940543D02*
X949863D01*
X914276D02*
X926985D01*
X893092D02*
X903260D01*
X293185D02*
X830390D01*
X1142206Y1036465D02*
X1389626D01*
X1095603D02*
X1102382D01*
X1031207D02*
X1042222D01*
X1000703D02*
X1010023D01*
X954947D02*
X958336D01*
X940543D02*
X949863D01*
X913428D02*
X926138D01*
X893092D02*
X902413D01*
X293185D02*
X830390D01*
X1143901Y1035617D02*
X1393862D01*
X1095603D02*
X1104077D01*
X1062558D02*
X1064252D01*
X1030359D02*
X1042222D01*
X1002398D02*
X1010023D01*
X954947D02*
X959184D01*
X940543D02*
X949863D01*
X913428D02*
X926138D01*
X893092D02*
X902413D01*
X293185D02*
X830390D01*
X1145596Y1034770D02*
X1557397D01*
X1094756D02*
X1105771D01*
X1083741D02*
X1086283D01*
X1062558D02*
X1065100D01*
X1030359D02*
X1041375D01*
X1004092D02*
X1009176D01*
X965962D02*
X971046D01*
X955795D02*
X959184D01*
X940543D02*
X949016D01*
X913428D02*
X926138D01*
X893092D02*
X902413D01*
X293185D02*
X830390D01*
X1147290Y1033923D02*
X1557397D01*
X1094756D02*
X1107466D01*
X1083741D02*
X1087130D01*
X1061710D02*
X1066794D01*
X1029512D02*
X1040527D01*
X1005787D02*
X1009176D01*
X965115D02*
X971894D01*
X955795D02*
X959184D01*
X940543D02*
X949016D01*
X912581D02*
X926138D01*
X893092D02*
X902413D01*
X293185D02*
X831237D01*
X1148138Y1033075D02*
X1557397D01*
X1093909D02*
X1109161D01*
X1082894D02*
X1088825D01*
X1061710D02*
X1068489D01*
X1029512D02*
X1040527D01*
X1007481D02*
X1008329D01*
X964268D02*
X972741D01*
X955795D02*
X959184D01*
X940543D02*
X949016D01*
X912581D02*
X926138D01*
X893092D02*
X902413D01*
X293185D02*
X831237D01*
X1149832Y1032228D02*
X1557397D01*
X1093062D02*
X1110855D01*
X1082894D02*
X1090519D01*
X1060863D02*
X1070184D01*
X1029512D02*
X1039680D01*
X964268D02*
X973588D01*
X956642D02*
X959184D01*
X940543D02*
X949016D01*
X911733D02*
X926138D01*
X893092D02*
X902413D01*
X293185D02*
X831237D01*
X1150680Y1031381D02*
X1557397D01*
X1093062D02*
X1112550D01*
X1082046D02*
X1092214D01*
X1060863D02*
X1071878D01*
X1031207D02*
X1039680D01*
X963420D02*
X974436D01*
X956642D02*
X959184D01*
X940543D02*
X949016D01*
X911733D02*
X926138D01*
X893092D02*
X903260D01*
X293185D02*
X832085D01*
X1151527Y1030533D02*
X1557397D01*
X1082046D02*
X1114245D01*
X1060016D02*
X1071031D01*
X1032054D02*
X1038832D01*
X963420D02*
X974436D01*
X956642D02*
X959184D01*
X940543D02*
X949016D01*
X911733D02*
X926138D01*
X893940D02*
X903260D01*
X293185D02*
X832085D01*
X1153222Y1029686D02*
X1557397D01*
X1094756D02*
X1115092D01*
X1081199D02*
X1092214D01*
X1060016D02*
X1071031D01*
X1033749D02*
X1038832D01*
X971046D02*
X974436D01*
X962573D02*
X970199D01*
X956642D02*
X959184D01*
X939695D02*
X949016D01*
X923596D02*
X926138D01*
X910886D02*
X922749D01*
X893940D02*
X903260D01*
X293185D02*
X832932D01*
X1154069Y1028839D02*
X1557397D01*
X1096451D02*
X1116787D01*
X1081199D02*
X1092214D01*
X1059168D02*
X1070184D01*
X1035443D02*
X1037985D01*
X971046D02*
X975283D01*
X962573D02*
X970199D01*
X956642D02*
X960031D01*
X939695D02*
X948168D01*
X923596D02*
X926138D01*
X910886D02*
X921901D01*
X894787D02*
X903260D01*
X293185D02*
X832932D01*
X1154916Y1027991D02*
X1557397D01*
X1098145D02*
X1118481D01*
X1080352D02*
X1091367D01*
X1059168D02*
X1070184D01*
X1037138D02*
X1037985D01*
X987146D02*
X992230D01*
X971894D02*
X975283D01*
X962573D02*
X970199D01*
X957489D02*
X960031D01*
X939695D02*
X948168D01*
X923596D02*
X926138D01*
X910886D02*
X921901D01*
X900718D02*
X903260D01*
X894787D02*
X899871D01*
X293185D02*
X833779D01*
X1155764Y1027144D02*
X1557397D01*
X1098993D02*
X1120176D01*
X1080352D02*
X1091367D01*
X1058321D02*
X1069336D01*
X1037138D02*
X1039680D01*
X986298D02*
X992230D01*
X971894D02*
X975283D01*
X961726D02*
X969352D01*
X957489D02*
X960031D01*
X938848D02*
X948168D01*
X923596D02*
X926138D01*
X910039D02*
X921054D01*
X900718D02*
X903260D01*
X894787D02*
X899024D01*
X293185D02*
X833779D01*
X1156611Y1026297D02*
X1557397D01*
X1100687D02*
X1121871D01*
X1079504D02*
X1090519D01*
X1058321D02*
X1069336D01*
X1036291D02*
X1041375D01*
X986298D02*
X992230D01*
X972741D02*
X975283D01*
X961726D02*
X969352D01*
X957489D02*
X960031D01*
X938848D02*
X948168D01*
X923596D02*
X926138D01*
X910039D02*
X921054D01*
X900718D02*
X902413D01*
X895634D02*
X899024D01*
X293185D02*
X834627D01*
X1156611Y1025450D02*
X1557397D01*
X1102382D02*
X1123565D01*
X1079504D02*
X1090519D01*
X1057474D02*
X1068489D01*
X1036291D02*
X1043069D01*
X985451D02*
X992230D01*
X972741D02*
X976130D01*
X961726D02*
X969352D01*
X957489D02*
X960031D01*
X938848D02*
X948168D01*
X922749D02*
X926138D01*
X909192D02*
X920207D01*
X895634D02*
X902413D01*
X293185D02*
X835474D01*
X1157458Y1024602D02*
X1557397D01*
X1104077D02*
X1125260D01*
X1078657D02*
X1089672D01*
X1056626D02*
X1068489D01*
X1035443D02*
X1044764D01*
X983756D02*
X991382D01*
X972741D02*
X976130D01*
X960879D02*
X969352D01*
X957489D02*
X960031D01*
X938001D02*
X947321D01*
X922749D02*
X926138D01*
X909192D02*
X919359D01*
X895634D02*
X902413D01*
X293185D02*
X835474D01*
X1158306Y1023755D02*
X1557397D01*
X1105771D02*
X1126954D01*
X1078657D02*
X1089672D01*
X1056626D02*
X1067642D01*
X1035443D02*
X1045611D01*
X983756D02*
X991382D01*
X972741D02*
X976130D01*
X960879D02*
X969352D01*
X957489D02*
X960031D01*
X938001D02*
X947321D01*
X922749D02*
X926138D01*
X908344D02*
X919359D01*
X896482D02*
X901566D01*
X293185D02*
X836321D01*
X1159153Y1022907D02*
X1557397D01*
X1107466D02*
X1127802D01*
X1077810D02*
X1088825D01*
X1055779D02*
X1067642D01*
X1034596D02*
X1045611D01*
X983756D02*
X991382D01*
X972741D02*
X976130D01*
X960879D02*
X968504D01*
X957489D02*
X960031D01*
X938001D02*
X947321D01*
X922749D02*
X926138D01*
X908344D02*
X918512D01*
X896482D02*
X899024D01*
X293185D02*
X837169D01*
X1159153Y1022060D02*
X1557397D01*
X1109161D02*
X1129497D01*
X1077810D02*
X1088825D01*
X1055779D02*
X1066794D01*
X1034596D02*
X1045611D01*
X982909D02*
X990535D01*
X972741D02*
X976130D01*
X957489D02*
X968504D01*
X938001D02*
X947321D01*
X922749D02*
X926138D01*
X908344D02*
X918512D01*
X293185D02*
X838016D01*
X1160000Y1021213D02*
X1557397D01*
X1110855D02*
X1130344D01*
X1076962D02*
X1087978D01*
X1054932D02*
X1065947D01*
X1033749D02*
X1044764D01*
X982909D02*
X990535D01*
X972741D02*
X976130D01*
X957489D02*
X968504D01*
X937153D02*
X947321D01*
X922749D02*
X926138D01*
X908344D02*
X917665D01*
X293185D02*
X838863D01*
X1160848Y1020366D02*
X1557397D01*
X1112550D02*
X1130344D01*
X1076115D02*
X1087978D01*
X1054932D02*
X1065947D01*
X1032901D02*
X1044764D01*
X982909D02*
X990535D01*
X972741D02*
X976130D01*
X957489D02*
X968504D01*
X937153D02*
X946474D01*
X922749D02*
X926138D01*
X907497D02*
X917665D01*
X293185D02*
X839711D01*
X1160848Y1019518D02*
X1557397D01*
X1113397D02*
X1129497D01*
X1076115D02*
X1087130D01*
X1054084D02*
X1065100D01*
X1032901D02*
X1043916D01*
X982062D02*
X989688D01*
X972741D02*
X976130D01*
X957489D02*
X967657D01*
X937153D02*
X946474D01*
X922749D02*
X926138D01*
X907497D02*
X916817D01*
X293185D02*
X840558D01*
X1161695Y1018671D02*
X1557397D01*
X1115092D02*
X1129497D01*
X1076115D02*
X1086283D01*
X1054084D02*
X1065100D01*
X1034596D02*
X1043916D01*
X982062D02*
X989688D01*
X972741D02*
X976130D01*
X957489D02*
X967657D01*
X936306D02*
X946474D01*
X922749D02*
X926138D01*
X907497D02*
X916817D01*
X293185D02*
X842253D01*
X1161695Y1017824D02*
X1557397D01*
X1116787D02*
X1128649D01*
X1076962D02*
X1086283D01*
X1053237D02*
X1064252D01*
X1036291D02*
X1043069D01*
X981214D02*
X989688D01*
X972741D02*
X976130D01*
X957489D02*
X967657D01*
X936306D02*
X945627D01*
X922749D02*
X926138D01*
X906649D02*
X915970D01*
X293185D02*
X843100D01*
X1162542Y1016976D02*
X1557397D01*
X1117634D02*
X1128649D01*
X1078657D02*
X1085435D01*
X1053237D02*
X1064252D01*
X1037985D02*
X1043069D01*
X1004092D02*
X1007481D01*
X981214D02*
X989688D01*
X972741D02*
X976130D01*
X957489D02*
X967657D01*
X936306D02*
X945627D01*
X922749D02*
X926138D01*
X906649D02*
X915970D01*
X293185D02*
X844795D01*
X1162542Y1016129D02*
X1557397D01*
X1116787D02*
X1127802D01*
X1079504D02*
X1085435D01*
X1052390D02*
X1063405D01*
X1039680D02*
X1042222D01*
X1002398D02*
X1009176D01*
X980367D02*
X988840D01*
X972741D02*
X976130D01*
X957489D02*
X967657D01*
X936306D02*
X945627D01*
X922749D02*
X926138D01*
X905802D02*
X915123D01*
X293185D02*
X846489D01*
X1163390Y1015282D02*
X1557397D01*
X1116787D02*
X1127802D01*
X1081199D02*
X1084588D01*
X1052390D02*
X1063405D01*
X1040527D02*
X1041375D01*
X1001550D02*
X1010023D01*
X980367D02*
X988840D01*
X972741D02*
X976978D01*
X957489D02*
X966810D01*
X935459D02*
X944779D01*
X922749D02*
X926138D01*
X904955D02*
X915123D01*
X293185D02*
X848184D01*
X1163390Y1014434D02*
X1557397D01*
X1115939D02*
X1126954D01*
X1082894D02*
X1084588D01*
X1051542D02*
X1062558D01*
X1007481D02*
X1010871D01*
X1000703D02*
X1004939D01*
X980367D02*
X988840D01*
X972741D02*
X976978D01*
X957489D02*
X966810D01*
X935459D02*
X944779D01*
X922749D02*
X926138D01*
X904955D02*
X914276D01*
X293185D02*
X849031D01*
X1163390Y1013587D02*
X1557397D01*
X1115939D02*
X1126954D01*
X1083741D02*
X1085435D01*
X1051542D02*
X1062558D01*
X1009176D02*
X1012565D01*
X1000703D02*
X1003245D01*
X979520D02*
X987993D01*
X972741D02*
X976978D01*
X957489D02*
X966810D01*
X934611D02*
X943932D01*
X922749D02*
X926138D01*
X904108D02*
X913428D01*
X293185D02*
X850726D01*
X1164237Y1012740D02*
X1557397D01*
X1115092D02*
X1126107D01*
X1082894D02*
X1087130D01*
X1050695D02*
X1061710D01*
X1010023D02*
X1013413D01*
X979520D02*
X987993D01*
X972741D02*
X976978D01*
X957489D02*
X966810D01*
X934611D02*
X943932D01*
X922749D02*
X926138D01*
X904108D02*
X913428D01*
X293185D02*
X852421D01*
X1164237Y1011892D02*
X1557397D01*
X1114245D02*
X1126107D01*
X1082894D02*
X1088825D01*
X1050695D02*
X1061710D01*
X1010871D02*
X1014260D01*
X999008D02*
X1001550D01*
X978672D02*
X987146D01*
X972741D02*
X976978D01*
X957489D02*
X966810D01*
X933764D02*
X943085D01*
X922749D02*
X926138D01*
X903260D02*
X912581D01*
X293185D02*
X854115D01*
X1164237Y1011045D02*
X1557397D01*
X1114245D02*
X1125260D01*
X1082046D02*
X1090519D01*
X1049848D02*
X1060863D01*
X1010871D02*
X1015107D01*
X998161D02*
X1002398D01*
X978672D02*
X987146D01*
X972741D02*
X976978D01*
X957489D02*
X965962D01*
X933764D02*
X943085D01*
X922749D02*
X926138D01*
X903260D02*
X912581D01*
X293185D02*
X855810D01*
X1165084Y1010198D02*
X1557397D01*
X1113397D02*
X1125260D01*
X1082046D02*
X1092214D01*
X1050695D02*
X1060863D01*
X1011718D02*
X1015107D01*
X998161D02*
X1003245D01*
X977825D02*
X987146D01*
X972741D02*
X976978D01*
X957489D02*
X965962D01*
X932917D02*
X942237D01*
X922749D02*
X926138D01*
X903260D02*
X911733D01*
X293185D02*
X857505D01*
X1165084Y1009350D02*
X1557397D01*
X1113397D02*
X1124413D01*
X1081199D02*
X1093909D01*
X1052390D02*
X1060016D01*
X1011718D02*
X1015955D01*
X998161D02*
X1003245D01*
X977825D02*
X986298D01*
X972741D02*
X976978D01*
X957489D02*
X965962D01*
X932917D02*
X942237D01*
X922749D02*
X926138D01*
X902413D02*
X911733D01*
X851573D02*
X859199D01*
X293185D02*
X794802D01*
X1165084Y1008503D02*
X1557397D01*
X1112550D02*
X1123565D01*
X1081199D02*
X1094756D01*
X1053237D02*
X1059168D01*
X1011718D02*
X1015955D01*
X997314D02*
X1003245D01*
X977825D02*
X986298D01*
X972741D02*
X976978D01*
X957489D02*
X965962D01*
X932917D02*
X941390D01*
X922749D02*
X926985D01*
X901566D02*
X910886D01*
X854115D02*
X860894D01*
X293185D02*
X791413D01*
X1165084Y1007656D02*
X1557397D01*
X1112550D02*
X1123565D01*
X1080352D02*
X1096451D01*
X1054932D02*
X1059168D01*
X1011718D02*
X1015955D01*
X997314D02*
X1002398D01*
X972741D02*
X986298D01*
X957489D02*
X965115D01*
X932069D02*
X941390D01*
X922749D02*
X926985D01*
X901566D02*
X910039D01*
X855810D02*
X861741D01*
X293185D02*
X789718D01*
X1165084Y1006808D02*
X1557397D01*
X1111703D02*
X1122718D01*
X1080352D02*
X1098145D01*
X1056626D02*
X1058321D01*
X1011718D02*
X1015955D01*
X996466D02*
X1002398D01*
X972741D02*
X986298D01*
X957489D02*
X965115D01*
X932069D02*
X940543D01*
X922749D02*
X926985D01*
X900718D02*
X910039D01*
X857505D02*
X863436D01*
X293185D02*
X788024D01*
X1165932Y1005961D02*
X1557397D01*
X1111703D02*
X1122718D01*
X1079504D02*
X1099840D01*
X1010871D02*
X1016802D01*
X996466D02*
X1002398D01*
X972741D02*
X986298D01*
X957489D02*
X964268D01*
X931222D02*
X939695D01*
X923596D02*
X926985D01*
X900718D02*
X909192D01*
X858352D02*
X865130D01*
X293185D02*
X787177D01*
X1165932Y1005114D02*
X1557397D01*
X1110855D02*
X1121871D01*
X1080352D02*
X1101535D01*
X1028665D02*
X1031207D01*
X1010871D02*
X1016802D01*
X996466D02*
X1002398D01*
X972741D02*
X986298D01*
X956642D02*
X964268D01*
X929527D02*
X939695D01*
X923596D02*
X927833D01*
X899871D02*
X909192D01*
X859199D02*
X866825D01*
X293185D02*
X786329D01*
X1165932Y1004266D02*
X1557397D01*
X1110855D02*
X1121871D01*
X1082046D02*
X1103229D01*
X1026970D02*
X1034596D01*
X1010871D02*
X1016802D01*
X995619D02*
X1002398D01*
X971894D02*
X985451D01*
X956642D02*
X963420D01*
X924443D02*
X938848D01*
X899871D02*
X908344D01*
X860047D02*
X868520D01*
X293185D02*
X785482D01*
X1165932Y1003419D02*
X1557397D01*
X1110008D02*
X1121023D01*
X1083741D02*
X1104924D01*
X1026123D02*
X1035443D01*
X1010871D02*
X1016802D01*
X995619D02*
X1002398D01*
X971894D02*
X985451D01*
X955795D02*
X963420D01*
X924443D02*
X938001D01*
X899024D02*
X908344D01*
X860894D02*
X870214D01*
X293185D02*
X784634D01*
X1165932Y1002572D02*
X1557397D01*
X1110008D02*
X1121023D01*
X1085435D02*
X1106619D01*
X1026123D02*
X1037138D01*
X1010871D02*
X1016802D01*
X995619D02*
X1001550D01*
X971894D02*
X985451D01*
X956642D02*
X962573D01*
X925291D02*
X937153D01*
X899024D02*
X907497D01*
X861741D02*
X871909D01*
X293185D02*
X784634D01*
X1165932Y1001724D02*
X1557397D01*
X1109161D02*
X1120176D01*
X1087130D02*
X1107466D01*
X1032901D02*
X1037985D01*
X1025275D02*
X1029512D01*
X1010871D02*
X1016802D01*
X994771D02*
X1001550D01*
X971894D02*
X985451D01*
X956642D02*
X961726D01*
X926138D02*
X935459D01*
X899024D02*
X907497D01*
X861741D02*
X873604D01*
X293185D02*
X783787D01*
X1431145Y1000877D02*
X1557397D01*
X1165932D02*
X1361664D01*
X1088825D02*
X1120176D01*
X1033749D02*
X1038832D01*
X1025275D02*
X1028665D01*
X1010871D02*
X1016802D01*
X994771D02*
X1001550D01*
X971894D02*
X985451D01*
X928680D02*
X933764D01*
X898176D02*
X906649D01*
X862589D02*
X874451D01*
X293185D02*
X783787D01*
X1433687Y1000030D02*
X1557397D01*
X1165932D02*
X1358275D01*
X1090519D02*
X1119329D01*
X1034596D02*
X1039680D01*
X1025275D02*
X1028665D01*
X1010023D02*
X1016802D01*
X994771D02*
X1001550D01*
X971894D02*
X985451D01*
X898176D02*
X906649D01*
X862589D02*
X876146D01*
X293185D02*
X782940D01*
X1436229Y999182D02*
X1557397D01*
X1165932D02*
X1356580D01*
X1091367D02*
X1119329D01*
X1034596D02*
X1040527D01*
X1025275D02*
X1027817D01*
X1010023D02*
X1016802D01*
X993924D02*
X1000703D01*
X971894D02*
X985451D01*
X898176D02*
X905802D01*
X863436D02*
X877840D01*
X293185D02*
X782940D01*
X1437923Y998335D02*
X1557397D01*
X1165932D02*
X1354886D01*
X1093062D02*
X1118481D01*
X1034596D02*
X1040527D01*
X1025275D02*
X1027817D01*
X1010023D02*
X1015955D01*
X993924D02*
X1000703D01*
X982909D02*
X985451D01*
X971894D02*
X982062D01*
X898176D02*
X905802D01*
X863436D02*
X879535D01*
X293185D02*
X782093D01*
X1438771Y997488D02*
X1557397D01*
X1165932D02*
X1353191D01*
X1094756D02*
X1118481D01*
X1034596D02*
X1041375D01*
X1010023D02*
X1015955D01*
X993077D02*
X1000703D01*
X982909D02*
X985451D01*
X971894D02*
X982062D01*
X898176D02*
X904955D01*
X863436D02*
X881230D01*
X293185D02*
X782093D01*
X1440466Y996640D02*
X1557397D01*
X1165932D02*
X1352343D01*
X1096451D02*
X1117634D01*
X1034596D02*
X1041375D01*
X1010023D02*
X1015955D01*
X993077D02*
X1000703D01*
X982909D02*
X985451D01*
X971894D02*
X981214D01*
X898176D02*
X904955D01*
X863436D02*
X882924D01*
X293185D02*
X782093D01*
X1441313Y995793D02*
X1557397D01*
X1165932D02*
X1350649D01*
X1098145D02*
X1116787D01*
X1034596D02*
X1042222D01*
X1009176D02*
X1015955D01*
X993077D02*
X1000703D01*
X982909D02*
X985451D01*
X971894D02*
X981214D01*
X898176D02*
X904108D01*
X864283D02*
X884619D01*
X293185D02*
X782093D01*
X1442160Y994946D02*
X1557397D01*
X1165932D02*
X1349801D01*
X1099840D02*
X1116787D01*
X1034596D02*
X1042222D01*
X1009176D02*
X1015955D01*
X992230D02*
X1000703D01*
X982909D02*
X985451D01*
X972741D02*
X980367D01*
X898176D02*
X904108D01*
X864283D02*
X886314D01*
X293185D02*
X782093D01*
X1443008Y994098D02*
X1557397D01*
X1165084D02*
X1348954D01*
X1101535D02*
X1115939D01*
X1034596D02*
X1042222D01*
X1009176D02*
X1015107D01*
X992230D02*
X1000703D01*
X982909D02*
X985451D01*
X972741D02*
X980367D01*
X898176D02*
X903260D01*
X864283D02*
X887161D01*
X293185D02*
X782093D01*
X1443855Y993251D02*
X1557397D01*
X1165084D02*
X1348107D01*
X1103229D02*
X1115939D01*
X1034596D02*
X1042222D01*
X1009176D02*
X1015107D01*
X992230D02*
X1000703D01*
X982909D02*
X985451D01*
X972741D02*
X979520D01*
X898176D02*
X903260D01*
X864283D02*
X888856D01*
X293185D02*
X782093D01*
X1444702Y992404D02*
X1557397D01*
X1165084D02*
X1347260D01*
X1104077D02*
X1115092D01*
X1034596D02*
X1042222D01*
X1008329D02*
X1015107D01*
X991382D02*
X1001550D01*
X982909D02*
X985451D01*
X899024D02*
X902413D01*
X864283D02*
X890550D01*
X293185D02*
X782093D01*
X1445549Y991556D02*
X1557397D01*
X1165084D02*
X1346412D01*
X1104077D02*
X1115092D01*
X1034596D02*
X1042222D01*
X1007481D02*
X1015107D01*
X991382D02*
X1001550D01*
X982909D02*
X985451D01*
X864283D02*
X892245D01*
X293185D02*
X782093D01*
X1446397Y990709D02*
X1557397D01*
X1164237D02*
X1345565D01*
X1103229D02*
X1114245D01*
X1034596D02*
X1042222D01*
X1007481D02*
X1014260D01*
X991382D02*
X1002398D01*
X982909D02*
X985451D01*
X864283D02*
X893940D01*
X293185D02*
X782093D01*
X1447244Y989862D02*
X1557397D01*
X1164237D02*
X1345565D01*
X1103229D02*
X1114245D01*
X1033749D02*
X1042222D01*
X1006634D02*
X1014260D01*
X999008D02*
X1002398D01*
X990535D02*
X998161D01*
X982909D02*
X986298D01*
X864283D02*
X895634D01*
X293185D02*
X782093D01*
X1447244Y989015D02*
X1557397D01*
X1164237D02*
X1344718D01*
X1102382D02*
X1113397D01*
X1033749D02*
X1042222D01*
X999855D02*
X1014260D01*
X990535D02*
X998161D01*
X983756D02*
X986298D01*
X864283D02*
X897329D01*
X293185D02*
X782093D01*
X1448091Y988167D02*
X1557397D01*
X1164237D02*
X1343870D01*
X1102382D02*
X1113397D01*
X1033749D02*
X1042222D01*
X999855D02*
X1013413D01*
X989688D02*
X997314D01*
X983756D02*
X986298D01*
X864283D02*
X899024D01*
X293185D02*
X782093D01*
X1448091Y987320D02*
X1557397D01*
X1163390D02*
X1343870D01*
X1101535D02*
X1112550D01*
X1033749D02*
X1041375D01*
X1000703D02*
X1013413D01*
X989688D02*
X997314D01*
X983756D02*
X987146D01*
X864283D02*
X899871D01*
X293185D02*
X782093D01*
X1448939Y986472D02*
X1557397D01*
X1163390D02*
X1343023D01*
X1101535D02*
X1112550D01*
X1032901D02*
X1041375D01*
X1001550D02*
X1013413D01*
X988840D02*
X997314D01*
X983756D02*
X987993D01*
X864283D02*
X901566D01*
X293185D02*
X782093D01*
X1448939Y985625D02*
X1557397D01*
X1162542D02*
X1343023D01*
X1100687D02*
X1111703D01*
X1032901D02*
X1041375D01*
X1002398D02*
X1013413D01*
X984604D02*
X996466D01*
X864283D02*
X903260D01*
X293185D02*
X782093D01*
X1449786Y984778D02*
X1557397D01*
X1162542D02*
X1342176D01*
X1099840D02*
X1111703D01*
X1032901D02*
X1041375D01*
X1003245D02*
X1013413D01*
X984604D02*
X996466D01*
X864283D02*
X904955D01*
X293185D02*
X782093D01*
X1449786Y983931D02*
X1557397D01*
X1161695D02*
X1342176D01*
X1100687D02*
X1110855D01*
X1032901D02*
X1041375D01*
X1011718D02*
X1013413D01*
X1005787D02*
X1009176D01*
X984604D02*
X995619D01*
X864283D02*
X906649D01*
X293185D02*
X782093D01*
X1449786Y983083D02*
X1557397D01*
X1161695D02*
X1342176D01*
X1102382D02*
X1110855D01*
X1032054D02*
X1040527D01*
X1011718D02*
X1014260D01*
X985451D02*
X995619D01*
X864283D02*
X908344D01*
X293185D02*
X782093D01*
X1450633Y982236D02*
X1557397D01*
X1160848D02*
X1341328D01*
X1103229D02*
X1110008D01*
X1032054D02*
X1040527D01*
X1011718D02*
X1014260D01*
X986298D02*
X994771D01*
X864283D02*
X910039D01*
X293185D02*
X782093D01*
X1450633Y981388D02*
X1557397D01*
X1160848D02*
X1341328D01*
X1104924D02*
X1109161D01*
X1032054D02*
X1040527D01*
X1011718D02*
X1014260D01*
X987146D02*
X993924D01*
X864283D02*
X911733D01*
X293185D02*
X782093D01*
X1450633Y980541D02*
X1557397D01*
X1160000D02*
X1341328D01*
X1106619D02*
X1109161D01*
X1032054D02*
X1039680D01*
X1012565D02*
X1014260D01*
X988840D02*
X992230D01*
X864283D02*
X912581D01*
X293185D02*
X782093D01*
X1450633Y979694D02*
X1557397D01*
X1160000D02*
X1341328D01*
X1031207D02*
X1039680D01*
X1012565D02*
X1015107D01*
X864283D02*
X914276D01*
X293185D02*
X782093D01*
X1451481Y978847D02*
X1557397D01*
X1159153D02*
X1341328D01*
X1031207D02*
X1039680D01*
X1012565D02*
X1015107D01*
X864283D02*
X915970D01*
X293185D02*
X782093D01*
X1451481Y977999D02*
X1557397D01*
X1159153D02*
X1340481D01*
X1031207D02*
X1039680D01*
X1012565D02*
X1015107D01*
X864283D02*
X917665D01*
X293185D02*
X782093D01*
X1451481Y977152D02*
X1557397D01*
X1158306D02*
X1340481D01*
X1030359D02*
X1038832D01*
X1013413D02*
X1015955D01*
X864283D02*
X919359D01*
X293185D02*
X782093D01*
X1451481Y976304D02*
X1557397D01*
X1158306D02*
X1340481D01*
X1030359D02*
X1038832D01*
X1013413D02*
X1015955D01*
X864283D02*
X921054D01*
X293185D02*
X782093D01*
X1451481Y975457D02*
X1557397D01*
X1157458D02*
X1340481D01*
X1029512D02*
X1037985D01*
X1013413D02*
X1015955D01*
X864283D02*
X922749D01*
X293185D02*
X782093D01*
X1451481Y974610D02*
X1557397D01*
X1157458D02*
X1340481D01*
X1029512D02*
X1037985D01*
X1013413D02*
X1015955D01*
X864283D02*
X924443D01*
X293185D02*
X782093D01*
X1451481Y973763D02*
X1557397D01*
X1156611D02*
X1340481D01*
X1028665D02*
X1037985D01*
X1014260D02*
X1016802D01*
X864283D02*
X925291D01*
X293185D02*
X782093D01*
X1451481Y972915D02*
X1557397D01*
X1156611D02*
X1340481D01*
X1028665D02*
X1037138D01*
X1014260D02*
X1016802D01*
X864283D02*
X926985D01*
X293185D02*
X782093D01*
X1451481Y972068D02*
X1557397D01*
X1155764D02*
X1340481D01*
X1027817D02*
X1037138D01*
X1014260D02*
X1016802D01*
X864283D02*
X928680D01*
X293185D02*
X782093D01*
X1451481Y971220D02*
X1557397D01*
X1154916D02*
X1340481D01*
X1026970D02*
X1036291D01*
X1014260D02*
X1017649D01*
X864283D02*
X930375D01*
X293185D02*
X782093D01*
X1451481Y970373D02*
X1557397D01*
X1154916D02*
X1340481D01*
X1026970D02*
X1036291D01*
X1015107D02*
X1017649D01*
X864283D02*
X932069D01*
X293185D02*
X782093D01*
X1451481Y969526D02*
X1557397D01*
X1154069D02*
X1340481D01*
X1026123D02*
X1035443D01*
X1015955D02*
X1018497D01*
X864283D02*
X933764D01*
X293185D02*
X782093D01*
X1451481Y968679D02*
X1557397D01*
X1154069D02*
X1340481D01*
X1025275D02*
X1035443D01*
X1015955D02*
X1019344D01*
X864283D02*
X935459D01*
X293185D02*
X782093D01*
X1451481Y967831D02*
X1557397D01*
X1153222D02*
X1340481D01*
X1024428D02*
X1034596D01*
X1016802D02*
X1020191D01*
X864283D02*
X937153D01*
X293185D02*
X782093D01*
X1451481Y966984D02*
X1557397D01*
X1153222D02*
X1340481D01*
X1023581D02*
X1033749D01*
X1016802D02*
X1021039D01*
X864283D02*
X938001D01*
X293185D02*
X782093D01*
X1451481Y966137D02*
X1557397D01*
X1152374D02*
X1340481D01*
X1017649D02*
X1033749D01*
X864283D02*
X939695D01*
X293185D02*
X782093D01*
X1451481Y965289D02*
X1557397D01*
X1152374D02*
X1340481D01*
X1018497D02*
X1032901D01*
X864283D02*
X941390D01*
X293185D02*
X782093D01*
X1451481Y964442D02*
X1557397D01*
X1151527D02*
X1340481D01*
X1019344D02*
X1032054D01*
X864283D02*
X943085D01*
X293185D02*
X782093D01*
X1451481Y963595D02*
X1557397D01*
X1151527D02*
X1340481D01*
X1020191D02*
X1031207D01*
X864283D02*
X944779D01*
X293185D02*
X782093D01*
X1451481Y962747D02*
X1557397D01*
X1150680D02*
X1340481D01*
X1021039D02*
X1029512D01*
X864283D02*
X946474D01*
X293185D02*
X782093D01*
X1451481Y961900D02*
X1557397D01*
X1150680D02*
X1340481D01*
X864283D02*
X948168D01*
X293185D02*
X782093D01*
X1451481Y961053D02*
X1557397D01*
X1149832D02*
X1340481D01*
X864283D02*
X949863D01*
X293185D02*
X782093D01*
X1451481Y960205D02*
X1557397D01*
X1149832D02*
X1340481D01*
X864283D02*
X950711D01*
X293185D02*
X782093D01*
X1451481Y959358D02*
X1557397D01*
X1148985D02*
X1340481D01*
X864283D02*
X952405D01*
X293185D02*
X782093D01*
X1451481Y958511D02*
X1557397D01*
X1148138D02*
X1340481D01*
X864283D02*
X954100D01*
X293185D02*
X782093D01*
X1451481Y957663D02*
X1557397D01*
X1148138D02*
X1340481D01*
X864283D02*
X955795D01*
X293185D02*
X782093D01*
X1451481Y956816D02*
X1557397D01*
X1147290D02*
X1340481D01*
X864283D02*
X957489D01*
X293185D02*
X782093D01*
X1451481Y955969D02*
X1557397D01*
X1147290D02*
X1340481D01*
X864283D02*
X959184D01*
X293185D02*
X782093D01*
X1451481Y955121D02*
X1557397D01*
X1146443D02*
X1340481D01*
X864283D02*
X960879D01*
X293185D02*
X782093D01*
X1451481Y954274D02*
X1557397D01*
X1145596D02*
X1340481D01*
X864283D02*
X962573D01*
X293185D02*
X782093D01*
X1451481Y953427D02*
X1557397D01*
X1145596D02*
X1340481D01*
X864283D02*
X963420D01*
X293185D02*
X782093D01*
X1451481Y952579D02*
X1557397D01*
X1144748D02*
X1340481D01*
X864283D02*
X965115D01*
X293185D02*
X782093D01*
X1451481Y951732D02*
X1557397D01*
X1143901D02*
X1340481D01*
X864283D02*
X966810D01*
X293185D02*
X782093D01*
X1451481Y950885D02*
X1557397D01*
X1143054D02*
X1340481D01*
X864283D02*
X968504D01*
X293185D02*
X782093D01*
X1451481Y950037D02*
X1557397D01*
X1142206D02*
X1340481D01*
X864283D02*
X970199D01*
X293185D02*
X782093D01*
X1451481Y949190D02*
X1557397D01*
X1141359D02*
X1340481D01*
X864283D02*
X971894D01*
X293185D02*
X782093D01*
X1451481Y948343D02*
X1557397D01*
X1140512D02*
X1340481D01*
X864283D02*
X973588D01*
X293185D02*
X782093D01*
X1451481Y947495D02*
X1557397D01*
X1139664D02*
X1340481D01*
X1086283D02*
X1087130D01*
X864283D02*
X975283D01*
X293185D02*
X782093D01*
X1451481Y946648D02*
X1557397D01*
X1138817D02*
X1340481D01*
X1086283D02*
X1088825D01*
X864283D02*
X976130D01*
X293185D02*
X782093D01*
X1451481Y945801D02*
X1557397D01*
X1137970D02*
X1340481D01*
X1085435D02*
X1090519D01*
X864283D02*
X977825D01*
X293185D02*
X782093D01*
X1451481Y944953D02*
X1557397D01*
X1136275D02*
X1340481D01*
X1085435D02*
X1092214D01*
X864283D02*
X979520D01*
X293185D02*
X782093D01*
X1451481Y944106D02*
X1557397D01*
X1135428D02*
X1340481D01*
X1084588D02*
X1093909D01*
X864283D02*
X981214D01*
X293185D02*
X782093D01*
X1451481Y943259D02*
X1557397D01*
X1133733D02*
X1340481D01*
X1084588D02*
X1094756D01*
X864283D02*
X982909D01*
X293185D02*
X782093D01*
X1451481Y942411D02*
X1557397D01*
X1132038D02*
X1340481D01*
X1083741D02*
X1096451D01*
X864283D02*
X984604D01*
X293185D02*
X782093D01*
X1451481Y941564D02*
X1557397D01*
X1130344D02*
X1340481D01*
X1083741D02*
X1098145D01*
X864283D02*
X986298D01*
X293185D02*
X782093D01*
X1451481Y940717D02*
X1557397D01*
X1128649D02*
X1340481D01*
X1082894D02*
X1100687D01*
X864283D02*
X987993D01*
X293185D02*
X782093D01*
X1451481Y939870D02*
X1557397D01*
X1126107D02*
X1340481D01*
X1082894D02*
X1102382D01*
X864283D02*
X988840D01*
X293185D02*
X782093D01*
X1451481Y939022D02*
X1557397D01*
X1122718D02*
X1340481D01*
X1082046D02*
X1105771D01*
X864283D02*
X990535D01*
X293185D02*
X782093D01*
X1451481Y938175D02*
X1557397D01*
X1117634D02*
X1340481D01*
X1082046D02*
X1110855D01*
X864283D02*
X992230D01*
X293185D02*
X782093D01*
X1451481Y937327D02*
X1557397D01*
X1081199D02*
X1340481D01*
X864283D02*
X993924D01*
X293185D02*
X782093D01*
X1451481Y936480D02*
X1557397D01*
X1081199D02*
X1340481D01*
X863436D02*
X995619D01*
X293185D02*
X782093D01*
X1451481Y935633D02*
X1557397D01*
X1080352D02*
X1340481D01*
X863436D02*
X997314D01*
X293185D02*
X782093D01*
X1451481Y934786D02*
X1557397D01*
X1079504D02*
X1340481D01*
X863436D02*
X999008D01*
X293185D02*
X782093D01*
X1451481Y933938D02*
X1557397D01*
X1079504D02*
X1340481D01*
X863436D02*
X1000703D01*
X293185D02*
X782940D01*
X1451481Y933091D02*
X1557397D01*
X1078657D02*
X1340481D01*
X862589D02*
X1001550D01*
X293185D02*
X782940D01*
X1451481Y932244D02*
X1557397D01*
X1078657D02*
X1340481D01*
X862589D02*
X1003245D01*
X293185D02*
X783787D01*
X1451481Y931396D02*
X1557397D01*
X1077810D02*
X1340481D01*
X861741D02*
X1004939D01*
X293185D02*
X783787D01*
X1451481Y930549D02*
X1557397D01*
X1077810D02*
X1340481D01*
X861741D02*
X1006634D01*
X293185D02*
X784634D01*
X1451481Y929702D02*
X1557397D01*
X1076962D02*
X1340481D01*
X860894D02*
X1008329D01*
X293185D02*
X784634D01*
X1451481Y928854D02*
X1557397D01*
X1076962D02*
X1340481D01*
X860047D02*
X1010023D01*
X293185D02*
X785482D01*
X1451481Y928007D02*
X1557397D01*
X1076115D02*
X1340481D01*
X859199D02*
X1011718D01*
X293185D02*
X786329D01*
X1498084Y927160D02*
X1557397D01*
X1076115D02*
X1293878D01*
X858352D02*
X1013413D01*
X293185D02*
X787177D01*
X1499778Y926312D02*
X1557397D01*
X1075268D02*
X1292183D01*
X857505D02*
X1014260D01*
X293185D02*
X788024D01*
X1500626Y925465D02*
X1557397D01*
X1075268D02*
X1291336D01*
X855810D02*
X1015955D01*
X293185D02*
X789718D01*
X1501473Y924618D02*
X1557397D01*
X1074420D02*
X1290489D01*
X854115D02*
X1017649D01*
X293185D02*
X791413D01*
X1502320Y923770D02*
X1557397D01*
X1073573D02*
X1290489D01*
X851573D02*
X1019344D01*
X293185D02*
X794802D01*
X1502320Y922923D02*
X1557397D01*
X1072726D02*
X1289641D01*
X293185D02*
X1021039D01*
X1503168Y922076D02*
X1557397D01*
X1072726D02*
X1289641D01*
X293185D02*
X1022733D01*
X1503168Y921228D02*
X1557397D01*
X1071878D02*
X1289641D01*
X293185D02*
X1024428D01*
X1503168Y920381D02*
X1557397D01*
X1071031D02*
X1289641D01*
X293185D02*
X1026123D01*
X1503168Y919534D02*
X1557397D01*
X1070184D02*
X1289641D01*
X293185D02*
X1026970D01*
X1503168Y918686D02*
X1557397D01*
X1069336D02*
X1289641D01*
X293185D02*
X1028665D01*
X1503168Y917839D02*
X1557397D01*
X1068489D02*
X1289641D01*
X293185D02*
X1030359D01*
X1503168Y916992D02*
X1557397D01*
X1066794D02*
X1289641D01*
X293185D02*
X1032054D01*
X1503168Y916144D02*
X1557397D01*
X1065947D02*
X1289641D01*
X293185D02*
X1033749D01*
X1503168Y915297D02*
X1557397D01*
X1064252D02*
X1289641D01*
X293185D02*
X1035443D01*
X1503168Y914450D02*
X1557397D01*
X1063405D02*
X1289641D01*
X293185D02*
X1037138D01*
X1503168Y913602D02*
X1557397D01*
X1060863D02*
X1289641D01*
X293185D02*
X1038832D01*
X1503168Y912755D02*
X1557397D01*
X1059168D02*
X1289641D01*
X293185D02*
X1040527D01*
X1503168Y911908D02*
X1557397D01*
X1055779D02*
X1289641D01*
X293185D02*
X1043916D01*
X1503168Y911060D02*
X1557397D01*
X293185D02*
X1289641D01*
X1503168Y910213D02*
X1557397D01*
X293185D02*
X1289641D01*
X1503168Y909366D02*
X1557397D01*
X293185D02*
X1289641D01*
X1503168Y908518D02*
X1557397D01*
X293185D02*
X1289641D01*
X1503168Y907671D02*
X1557397D01*
X293185D02*
X1289641D01*
X1503168Y906824D02*
X1557397D01*
X294032D02*
X1289641D01*
X1503168Y905976D02*
X1557397D01*
X294032D02*
X1289641D01*
X1503168Y905129D02*
X1557397D01*
X294032D02*
X1289641D01*
X1503168Y904282D02*
X1556549D01*
X294032D02*
X1289641D01*
X1503168Y903434D02*
X1556549D01*
X294032D02*
X1289641D01*
X1503168Y902587D02*
X1556549D01*
X294032D02*
X1289641D01*
X1502320Y901740D02*
X1556549D01*
X294879D02*
X1289641D01*
X1502320Y900892D02*
X1555702D01*
X294879D02*
X1290489D01*
X1501473Y900045D02*
X1555702D01*
X294879D02*
X1290489D01*
X1500626Y899198D02*
X1555702D01*
X295727D02*
X1291336D01*
X1499778Y898350D02*
X1554855D01*
X295727D02*
X1292183D01*
X1498084Y897503D02*
X1554855D01*
X295727D02*
X1294725D01*
X296574Y896656D02*
X1554007D01*
X296574Y895808D02*
X1554007D01*
X297421Y894961D02*
X1553160D01*
X298269Y894114D02*
X1553160D01*
X298269Y893267D02*
X1552313D01*
X299116Y892419D02*
X1551465D01*
X299963Y891572D02*
X1551465D01*
X299963Y890724D02*
X1550618D01*
X300811Y889877D02*
X1549771D01*
X301658Y889030D02*
X1548923D01*
X302505Y888183D02*
X1548076D01*
X303353Y887335D02*
X1547229D01*
X304200Y886488D02*
X1546381D01*
X305047Y885640D02*
X1545534D01*
X305895Y884793D02*
X1544687D01*
X307589Y883946D02*
X1543839D01*
X308437Y883099D02*
X1542145D01*
X310131Y882251D02*
X1541297D01*
X311826Y881404D02*
X1538755D01*
X314368Y880557D02*
X1537061D01*
X315215Y879709D02*
X1535366D01*
X317757Y878862D02*
X1532824D01*
X321994Y878015D02*
X1528587D01*
D101*
X1139100Y1149500D02*
G03*
X1139100Y1149500I-2000J0D01*
G01*
M02*
