G04*
G04 #@! TF.GenerationSoftware,Altium Limited,Altium Designer,19.0.14 (431)*
G04*
G04 Layer_Color=16711935*
%FSLAX44Y44*%
%MOMM*%
G71*
G01*
G75*
%ADD10C,0.2540*%
%ADD12C,0.3000*%
%ADD15C,0.1270*%
%ADD63C,0.1520*%
%ADD101C,0.1984*%
D10*
X1526500Y885220D02*
G03*
X1556500Y915220I0J30000D01*
G01*
X296500D02*
G03*
X326500Y885220I30000J0D01*
G01*
Y1245220D02*
G03*
X296500Y1215220I0J-30000D01*
G01*
X1556500D02*
G03*
X1526500Y1245220I-30000J0D01*
G01*
X296500Y915220D02*
Y1215220D01*
X326500Y885220D02*
X1526500D01*
X326500Y1245220D02*
X1526500D01*
X1556500Y915220D02*
Y1215220D01*
D12*
X757980Y1093130D02*
G03*
X757980Y1093130I-1000J0D01*
G01*
D15*
X1526620Y1072000D02*
X1542620D01*
X1526620Y1064000D02*
X1542620D01*
X1526620D02*
Y1072000D01*
X1542620Y1064000D02*
Y1072000D01*
X1526620Y1056000D02*
X1542620D01*
X1526620Y1048000D02*
X1542620D01*
X1526620D02*
Y1056000D01*
X1542620Y1048000D02*
Y1056000D01*
X795230Y951500D02*
X811230D01*
X795230Y959500D02*
X811230D01*
Y951500D02*
Y959500D01*
X795230Y951500D02*
Y959500D01*
Y970500D02*
X811230D01*
X795230Y978500D02*
X811230D01*
Y970500D02*
Y978500D01*
X795230Y970500D02*
Y978500D01*
Y933250D02*
X811230D01*
X795230Y941250D02*
X811230D01*
Y933250D02*
Y941250D01*
X795230Y933250D02*
Y941250D01*
X795130Y990000D02*
X811130D01*
X795130Y998000D02*
X811130D01*
Y990000D02*
Y998000D01*
X795130Y990000D02*
Y998000D01*
X750150Y1105250D02*
X929350D01*
X749750Y913250D02*
Y1168250D01*
Y913250D02*
X929750D01*
Y1168250D01*
X749750D02*
X929750D01*
D63*
X1557020Y1132800D02*
Y1164800D01*
Y1100800D02*
Y1164800D01*
Y1103800D02*
Y1164800D01*
D101*
X790118Y1124760D02*
X786310Y1134757D01*
X782501Y1124760D01*
X783929Y1128092D02*
X788690D01*
X792451Y1134757D02*
Y1124760D01*
Y1134757D02*
X799117Y1124760D01*
Y1134757D02*
Y1124760D01*
X805210Y1134757D02*
Y1124760D01*
X801878Y1134757D02*
X808543D01*
X815922D02*
X809733D01*
Y1124760D01*
X815922D01*
X809733Y1129996D02*
X813542D01*
X817589Y1134757D02*
Y1124760D01*
Y1134757D02*
X824254Y1124760D01*
Y1134757D02*
Y1124760D01*
X827015Y1134757D02*
Y1124760D01*
Y1134757D02*
X833680Y1124760D01*
Y1134757D02*
Y1124760D01*
X844059D02*
X840250Y1134757D01*
X836442Y1124760D01*
X837870Y1128092D02*
X842631D01*
M02*
