G04*
G04 #@! TF.GenerationSoftware,Altium Limited,Altium Designer,18.1.9 (240)*
G04*
G04 Layer_Physical_Order=2*
G04 Layer_Color=16711680*
%FSLAX44Y44*%
%MOMM*%
G71*
G01*
G75*
%ADD11C,0.2500*%
%ADD15C,0.1270*%
%ADD18R,0.9000X0.8000*%
%ADD23R,0.8000X0.9000*%
%ADD65C,0.5000*%
%ADD67C,0.1000*%
%ADD71R,1.3000X1.3000*%
%ADD72R,1.0500X1.0500*%
%ADD73C,1.5000*%
%ADD74R,1.5000X1.5000*%
%ADD75R,1.5000X1.5000*%
%ADD76C,0.8001*%
%ADD77C,0.5000*%
%ADD78C,0.4500*%
%ADD79C,3.0000*%
%ADD80R,2.5000X1.4250*%
%ADD81R,1.7500X0.4000*%
%ADD82R,1.3500X1.3500*%
%ADD83R,0.2200X0.8400*%
%ADD84R,0.8400X0.2200*%
%ADD85R,4.9500X4.9500*%
%ADD86R,1.6000X0.8000*%
%ADD87R,3.0000X2.1000*%
%ADD88R,0.8000X0.8000*%
%ADD89R,1.3000X1.5499*%
%ADD90C,0.0847*%
G36*
X1527000Y1166375D02*
X1534500D01*
Y1153375D01*
X1520000D01*
Y1171625D01*
X1527000D01*
Y1166375D01*
D02*
G37*
G36*
X1548078Y1166387D02*
X1548320Y1166370D01*
X1548561Y1166341D01*
X1548800Y1166299D01*
X1549037Y1166244D01*
X1549271Y1166177D01*
X1549501Y1166098D01*
X1549726Y1166007D01*
X1549946Y1165904D01*
X1550161Y1165790D01*
X1550369Y1165665D01*
X1550571Y1165529D01*
X1550765Y1165383D01*
X1550951Y1165227D01*
X1551129Y1165061D01*
X1551297Y1164886D01*
X1551457Y1164703D01*
X1551606Y1164511D01*
X1551746Y1164312D01*
X1551875Y1164106D01*
X1551992Y1163893D01*
X1552099Y1163675D01*
X1552194Y1163451D01*
X1552277Y1163223D01*
X1552348Y1162990D01*
X1552407Y1162755D01*
X1552453Y1162516D01*
X1552487Y1162275D01*
X1552500Y1162125D01*
Y1157125D01*
X1552485Y1157020D01*
X1552441Y1156793D01*
X1552385Y1156569D01*
X1552318Y1156347D01*
X1552238Y1156130D01*
X1552148Y1155917D01*
X1552046Y1155709D01*
X1551934Y1155506D01*
X1551812Y1155310D01*
X1551679Y1155120D01*
X1551536Y1154938D01*
X1551384Y1154763D01*
X1551224Y1154597D01*
X1551054Y1154439D01*
X1550877Y1154290D01*
X1550692Y1154151D01*
X1550500Y1154021D01*
X1550302Y1153902D01*
X1550098Y1153793D01*
X1549888Y1153696D01*
X1549673Y1153609D01*
X1549454Y1153534D01*
X1549232Y1153470D01*
X1549006Y1153418D01*
X1548778Y1153378D01*
X1548549Y1153349D01*
X1548318Y1153333D01*
X1548086Y1153329D01*
X1547855Y1153337D01*
X1547625Y1153357D01*
X1547500Y1153375D01*
X1546500D01*
Y1166375D01*
X1547500D01*
X1547592Y1166383D01*
X1547834Y1166392D01*
X1548078Y1166387D01*
D02*
G37*
G36*
X1517500Y1151625D02*
X1515450D01*
Y1161625D01*
X1504950D01*
Y1151625D01*
X1502900D01*
Y1171625D01*
X1517500D01*
Y1151625D01*
D02*
G37*
G36*
X328628Y1245750D02*
X1525372D01*
X1525372Y1245750D01*
X1525372Y1245750D01*
X1527422Y1245748D01*
X1531487Y1245210D01*
X1535447Y1244146D01*
X1539234Y1242574D01*
X1542784Y1240521D01*
X1546035Y1238022D01*
X1548932Y1235121D01*
X1551426Y1231866D01*
X1553473Y1228313D01*
X1555039Y1224524D01*
X1556098Y1220562D01*
X1556630Y1216496D01*
X1556628Y1214446D01*
Y1150899D01*
X1551595D01*
X1551321Y1151201D01*
X1551273Y1151444D01*
X1551252Y1151627D01*
X1551296Y1152066D01*
X1551565Y1152750D01*
X1551614Y1152783D01*
X1551640Y1152822D01*
X1551685Y1152833D01*
X1551870Y1152973D01*
X1551893Y1153013D01*
X1551937Y1153027D01*
X1552115Y1153175D01*
X1552136Y1153216D01*
X1552180Y1153232D01*
X1552349Y1153390D01*
X1552368Y1153432D01*
X1552410Y1153451D01*
X1552571Y1153617D01*
X1552588Y1153660D01*
X1552629Y1153681D01*
X1552781Y1153856D01*
X1552796Y1153900D01*
X1552836Y1153922D01*
X1552979Y1154105D01*
X1552991Y1154149D01*
X1553030Y1154174D01*
X1553163Y1154364D01*
X1553173Y1154409D01*
X1553210Y1154436D01*
X1553333Y1154632D01*
X1553341Y1154678D01*
X1553377Y1154706D01*
X1553489Y1154909D01*
X1553494Y1154955D01*
X1553529Y1154985D01*
X1553630Y1155193D01*
X1553633Y1155240D01*
X1553667Y1155272D01*
X1553757Y1155486D01*
X1553757Y1155531D01*
X1553788Y1155565D01*
X1553867Y1155783D01*
X1553866Y1155829D01*
X1553895Y1155865D01*
X1553963Y1156087D01*
X1553958Y1156132D01*
X1553986Y1156169D01*
X1554042Y1156394D01*
X1554035Y1156440D01*
X1554060Y1156478D01*
X1554104Y1156705D01*
X1554095Y1156751D01*
X1554119Y1156791D01*
X1554133Y1156896D01*
X1554103Y1157013D01*
X1554150Y1157125D01*
Y1162125D01*
X1554120Y1162195D01*
X1554143Y1162268D01*
X1554130Y1162419D01*
X1554109Y1162460D01*
X1554120Y1162505D01*
X1554087Y1162746D01*
X1554063Y1162785D01*
X1554072Y1162831D01*
X1554026Y1163070D01*
X1554001Y1163108D01*
X1554007Y1163153D01*
X1553949Y1163389D01*
X1553921Y1163427D01*
X1553925Y1163473D01*
X1553854Y1163706D01*
X1553825Y1163741D01*
X1553827Y1163787D01*
X1553744Y1164015D01*
X1553712Y1164049D01*
X1553712Y1164096D01*
X1553617Y1164320D01*
X1553584Y1164352D01*
X1553582Y1164398D01*
X1553475Y1164616D01*
X1553440Y1164647D01*
X1553435Y1164693D01*
X1553317Y1164905D01*
X1553281Y1164934D01*
X1553273Y1164980D01*
X1553144Y1165186D01*
X1553107Y1165213D01*
X1553097Y1165258D01*
X1552958Y1165457D01*
X1552919Y1165482D01*
X1552906Y1165527D01*
X1552757Y1165718D01*
X1552716Y1165741D01*
X1552702Y1165785D01*
X1552542Y1165968D01*
X1552501Y1165989D01*
X1552484Y1166032D01*
X1552315Y1166207D01*
X1552273Y1166225D01*
X1552254Y1166267D01*
X1552076Y1166433D01*
X1552032Y1166449D01*
X1552011Y1166490D01*
X1551825Y1166646D01*
X1551781Y1166660D01*
X1551757Y1166700D01*
X1551563Y1166846D01*
X1551519Y1166858D01*
X1551493Y1166896D01*
X1551292Y1167032D01*
X1551246Y1167041D01*
X1551219Y1167079D01*
X1551010Y1167204D01*
X1550965Y1167211D01*
X1550935Y1167246D01*
X1550721Y1167361D01*
X1550674Y1167365D01*
X1550643Y1167399D01*
X1550423Y1167502D01*
X1550377Y1167504D01*
X1550344Y1167536D01*
X1550118Y1167627D01*
X1550072Y1167627D01*
X1550038Y1167658D01*
X1549808Y1167737D01*
X1549762Y1167734D01*
X1549726Y1167763D01*
X1549492Y1167830D01*
X1549446Y1167824D01*
X1549408Y1167851D01*
X1549172Y1167906D01*
X1549126Y1167898D01*
X1549087Y1167923D01*
X1548848Y1167965D01*
X1548802Y1167955D01*
X1548762Y1167978D01*
X1548521Y1168008D01*
X1548476Y1167995D01*
X1548435Y1168016D01*
X1548192Y1168033D01*
X1548149Y1168018D01*
X1548107Y1168037D01*
X1547864Y1168041D01*
X1547820Y1168024D01*
X1547777Y1168040D01*
X1547534Y1168032D01*
X1547510Y1168021D01*
X1547500Y1168025D01*
X1547452D01*
X1547446Y1168026D01*
X1547427Y1168025D01*
X1546500D01*
X1546197Y1167899D01*
X1534803D01*
X1534500Y1168025D01*
X1528650D01*
Y1171625D01*
X1528166Y1172791D01*
X1527000Y1173275D01*
X1520000D01*
X1518834Y1172791D01*
X1518666Y1172791D01*
X1517500Y1173275D01*
X1502900D01*
X1501734Y1172791D01*
X1501250Y1171625D01*
Y1151625D01*
X1501734Y1150459D01*
X1501443Y1149215D01*
X1500999Y1148643D01*
X1500874Y1148578D01*
X1489200D01*
X1489151Y1148651D01*
X1487820Y1149541D01*
X1486250Y1149853D01*
X1484680Y1149541D01*
X1483349Y1148651D01*
X1483300Y1148578D01*
X1475750D01*
X1474668Y1148363D01*
X1473750Y1147750D01*
X1468000Y1142000D01*
X1467387Y1141082D01*
X1467172Y1140000D01*
Y1122950D01*
X1467099Y1122901D01*
X1466210Y1121570D01*
X1465897Y1120000D01*
X1466210Y1118430D01*
X1467099Y1117099D01*
X1468430Y1116209D01*
X1470000Y1115897D01*
X1471570Y1116209D01*
X1472901Y1117099D01*
X1473790Y1118430D01*
X1474103Y1120000D01*
X1473790Y1121570D01*
X1472901Y1122901D01*
X1472828Y1122950D01*
Y1138829D01*
X1476922Y1142922D01*
X1483300D01*
X1483349Y1142849D01*
X1484680Y1141960D01*
X1486250Y1141647D01*
X1487820Y1141960D01*
X1489151Y1142849D01*
X1489200Y1142922D01*
X1491065D01*
X1491732Y1141652D01*
X1491210Y1140870D01*
X1490897Y1139300D01*
X1491210Y1137730D01*
X1492099Y1136399D01*
X1492623Y1136048D01*
Y1134521D01*
X1492099Y1134170D01*
X1491210Y1132839D01*
X1490897Y1131269D01*
X1491210Y1129699D01*
X1492099Y1128368D01*
X1493430Y1127479D01*
X1495000Y1127166D01*
X1496570Y1127479D01*
X1497901Y1128368D01*
X1498790Y1129699D01*
X1498835Y1129922D01*
X1501976D01*
Y1124165D01*
X1500960D01*
Y1120895D01*
X1512250D01*
X1523540D01*
Y1124165D01*
X1522524D01*
Y1135601D01*
Y1142101D01*
Y1149149D01*
X1518824D01*
X1518571Y1150419D01*
X1518666Y1150459D01*
X1518824Y1150838D01*
X1520000Y1151725D01*
X1528048D01*
X1528976Y1150899D01*
X1528976Y1150455D01*
Y1133601D01*
X1556628D01*
Y1131649D01*
X1528976D01*
Y1114795D01*
X1528976Y1114351D01*
X1528048Y1113525D01*
X1520404D01*
X1520200Y1113815D01*
X1520858Y1115085D01*
X1523540D01*
Y1118355D01*
X1512250D01*
X1500960D01*
Y1115085D01*
X1500960Y1115085D01*
X1500960D01*
X1501329Y1113815D01*
X1501250Y1113625D01*
Y1093625D01*
X1501734Y1092459D01*
X1502900Y1091975D01*
X1517500D01*
X1518666Y1092458D01*
X1518834Y1092459D01*
X1520000Y1091975D01*
X1527000D01*
X1528166Y1092459D01*
X1528650Y1093625D01*
Y1097225D01*
X1534500D01*
X1534803Y1097351D01*
X1546197D01*
X1546500Y1097225D01*
X1547427D01*
X1547446Y1097224D01*
X1547452Y1097225D01*
X1547500D01*
X1547510Y1097229D01*
X1547534Y1097218D01*
X1547777Y1097210D01*
X1547820Y1097226D01*
X1547864Y1097209D01*
X1548107Y1097213D01*
X1548149Y1097232D01*
X1548192Y1097217D01*
X1548435Y1097234D01*
X1548476Y1097255D01*
X1548521Y1097242D01*
X1548762Y1097272D01*
X1548802Y1097295D01*
X1548848Y1097285D01*
X1549087Y1097327D01*
X1549126Y1097352D01*
X1549172Y1097344D01*
X1549408Y1097399D01*
X1549446Y1097426D01*
X1549492Y1097420D01*
X1549726Y1097487D01*
X1549762Y1097516D01*
X1549808Y1097513D01*
X1550038Y1097592D01*
X1550072Y1097623D01*
X1550118Y1097623D01*
X1550344Y1097714D01*
X1550377Y1097746D01*
X1550423Y1097748D01*
X1550643Y1097851D01*
X1550674Y1097885D01*
X1550721Y1097889D01*
X1550935Y1098003D01*
X1550965Y1098039D01*
X1551010Y1098046D01*
X1551219Y1098171D01*
X1551246Y1098208D01*
X1551292Y1098218D01*
X1551493Y1098354D01*
X1551518Y1098392D01*
X1551563Y1098403D01*
X1551757Y1098550D01*
X1551781Y1098590D01*
X1551825Y1098604D01*
X1552011Y1098760D01*
X1552032Y1098801D01*
X1552076Y1098817D01*
X1552254Y1098983D01*
X1552273Y1099025D01*
X1552315Y1099043D01*
X1552484Y1099218D01*
X1552501Y1099261D01*
X1552542Y1099282D01*
X1552702Y1099465D01*
X1552716Y1099509D01*
X1552757Y1099532D01*
X1552906Y1099724D01*
X1552919Y1099768D01*
X1552958Y1099793D01*
X1553097Y1099992D01*
X1553107Y1100037D01*
X1553144Y1100063D01*
X1553273Y1100269D01*
X1553281Y1100316D01*
X1553317Y1100345D01*
X1553435Y1100557D01*
X1553440Y1100603D01*
X1553475Y1100634D01*
X1553582Y1100852D01*
X1553584Y1100898D01*
X1553617Y1100930D01*
X1553712Y1101154D01*
X1553712Y1101200D01*
X1553744Y1101235D01*
X1553827Y1101463D01*
X1553825Y1101509D01*
X1553854Y1101544D01*
X1553925Y1101777D01*
X1553921Y1101824D01*
X1553949Y1101861D01*
X1554007Y1102097D01*
X1554001Y1102142D01*
X1554026Y1102180D01*
X1554072Y1102419D01*
X1554063Y1102465D01*
X1554087Y1102504D01*
X1554120Y1102745D01*
X1554109Y1102790D01*
X1554130Y1102831D01*
X1554143Y1102982D01*
X1554120Y1103055D01*
X1554150Y1103125D01*
Y1108125D01*
X1554103Y1108237D01*
X1554133Y1108354D01*
X1554119Y1108459D01*
X1554095Y1108499D01*
X1554104Y1108545D01*
X1554060Y1108772D01*
X1554035Y1108810D01*
X1554042Y1108856D01*
X1553986Y1109081D01*
X1553958Y1109118D01*
X1553963Y1109163D01*
X1553895Y1109385D01*
X1553866Y1109421D01*
X1553867Y1109467D01*
X1553788Y1109685D01*
X1553757Y1109718D01*
X1553757Y1109764D01*
X1553667Y1109978D01*
X1553633Y1110010D01*
X1553630Y1110057D01*
X1553529Y1110265D01*
X1553494Y1110295D01*
X1553489Y1110341D01*
X1553377Y1110544D01*
X1553341Y1110572D01*
X1553333Y1110618D01*
X1553210Y1110814D01*
X1553173Y1110841D01*
X1553163Y1110886D01*
X1553030Y1111076D01*
X1552991Y1111101D01*
X1552979Y1111145D01*
X1552836Y1111328D01*
X1552796Y1111350D01*
X1552781Y1111394D01*
X1552629Y1111569D01*
X1552588Y1111590D01*
X1552571Y1111633D01*
X1552410Y1111799D01*
X1552368Y1111817D01*
X1552349Y1111860D01*
X1552180Y1112017D01*
X1552136Y1112034D01*
X1552115Y1112075D01*
X1551937Y1112224D01*
X1551893Y1112237D01*
X1551870Y1112277D01*
X1551685Y1112417D01*
X1551640Y1112428D01*
X1551614Y1112467D01*
X1551565Y1112500D01*
X1551296Y1113183D01*
X1551252Y1113623D01*
X1551273Y1113806D01*
X1551321Y1114048D01*
X1551595Y1114351D01*
X1556628D01*
Y914446D01*
X1556628Y914446D01*
X1556628Y912401D01*
X1556094Y908347D01*
X1555036Y904397D01*
X1553471Y900619D01*
X1551426Y897077D01*
X1548937Y893833D01*
X1546045Y890941D01*
X1542801Y888452D01*
X1539259Y886407D01*
X1535481Y884842D01*
X1531531Y883784D01*
X1527477Y883250D01*
X1525432D01*
X325324Y883250D01*
X323278Y883250D01*
X319220Y883784D01*
X315267Y884844D01*
X311486Y886410D01*
X307942Y888456D01*
X304695Y890947D01*
X301801Y893841D01*
X299310Y897088D01*
X297264Y900632D01*
X295698Y904413D01*
X294639Y908366D01*
X294104Y912424D01*
X294104Y914470D01*
X294229Y1217263D01*
X294229Y1217263D01*
X294229Y1217263D01*
X294423Y1219324D01*
X295345Y1223360D01*
X296786Y1227241D01*
X298721Y1230901D01*
X301118Y1234277D01*
X303934Y1237311D01*
X307123Y1239951D01*
X310629Y1242153D01*
X314392Y1243878D01*
X318349Y1245098D01*
X322430Y1245790D01*
X326567Y1245944D01*
X328628Y1245750D01*
D02*
G37*
G36*
X1517500Y1093625D02*
X1502900D01*
Y1113625D01*
X1504950D01*
Y1103625D01*
X1515450D01*
Y1113625D01*
X1517500D01*
Y1093625D01*
D02*
G37*
G36*
X1548318Y1111917D02*
X1548549Y1111901D01*
X1548778Y1111872D01*
X1549006Y1111832D01*
X1549232Y1111780D01*
X1549454Y1111716D01*
X1549673Y1111641D01*
X1549888Y1111554D01*
X1550098Y1111457D01*
X1550302Y1111348D01*
X1550500Y1111229D01*
X1550692Y1111099D01*
X1550877Y1110960D01*
X1551054Y1110811D01*
X1551224Y1110653D01*
X1551384Y1110487D01*
X1551536Y1110312D01*
X1551679Y1110130D01*
X1551812Y1109940D01*
X1551934Y1109744D01*
X1552046Y1109541D01*
X1552148Y1109333D01*
X1552238Y1109120D01*
X1552318Y1108903D01*
X1552385Y1108681D01*
X1552441Y1108457D01*
X1552485Y1108230D01*
X1552500Y1108125D01*
Y1103125D01*
X1552487Y1102975D01*
X1552453Y1102734D01*
X1552407Y1102495D01*
X1552348Y1102260D01*
X1552277Y1102027D01*
X1552194Y1101799D01*
X1552099Y1101575D01*
X1551992Y1101357D01*
X1551875Y1101144D01*
X1551746Y1100938D01*
X1551606Y1100739D01*
X1551457Y1100547D01*
X1551297Y1100364D01*
X1551129Y1100189D01*
X1550951Y1100023D01*
X1550765Y1099867D01*
X1550571Y1099721D01*
X1550369Y1099585D01*
X1550161Y1099460D01*
X1549946Y1099346D01*
X1549726Y1099243D01*
X1549501Y1099152D01*
X1549271Y1099073D01*
X1549037Y1099006D01*
X1548800Y1098951D01*
X1548561Y1098909D01*
X1548320Y1098880D01*
X1548078Y1098863D01*
X1547834Y1098858D01*
X1547592Y1098867D01*
X1547500Y1098875D01*
X1546500D01*
Y1111875D01*
X1547500D01*
X1547625Y1111892D01*
X1547855Y1111913D01*
X1548086Y1111921D01*
X1548318Y1111917D01*
D02*
G37*
G36*
X1534500Y1098875D02*
X1527000D01*
Y1093625D01*
X1520000D01*
Y1111875D01*
X1534500D01*
Y1098875D01*
D02*
G37*
%LPC*%
G36*
X1054100Y1229572D02*
X1051744Y1229262D01*
X1049549Y1228352D01*
X1047664Y1226906D01*
X1046218Y1225021D01*
X1045308Y1222826D01*
X1044998Y1220470D01*
X1045138Y1219408D01*
X1043935Y1218815D01*
X1040280Y1222470D01*
X1039362Y1223083D01*
X1038280Y1223298D01*
X1037296D01*
X1036582Y1225021D01*
X1035136Y1226906D01*
X1033251Y1228352D01*
X1031056Y1229262D01*
X1028700Y1229572D01*
X1026344Y1229262D01*
X1024149Y1228352D01*
X1022264Y1226906D01*
X1020818Y1225021D01*
X1019908Y1222826D01*
X1019598Y1220470D01*
X1019908Y1218114D01*
X1020818Y1215919D01*
X1022064Y1214294D01*
X1021666Y1213024D01*
X1014746D01*
X1011378Y1216392D01*
X1012092Y1218114D01*
X1012402Y1220470D01*
X1012092Y1222826D01*
X1011182Y1225021D01*
X1009736Y1226906D01*
X1007851Y1228352D01*
X1005656Y1229262D01*
X1003300Y1229572D01*
X1000944Y1229262D01*
X998749Y1228352D01*
X996864Y1226906D01*
X995418Y1225021D01*
X994508Y1222826D01*
X994198Y1220470D01*
X994508Y1218114D01*
X995418Y1215919D01*
X996864Y1214034D01*
X998749Y1212588D01*
X1000944Y1211678D01*
X1003300Y1211368D01*
X1005656Y1211678D01*
X1007378Y1212392D01*
X1010422Y1209348D01*
X1009896Y1208078D01*
X996422D01*
X986602Y1217898D01*
X986692Y1218114D01*
X987002Y1220470D01*
X986692Y1222826D01*
X985782Y1225021D01*
X984336Y1226906D01*
X982451Y1228352D01*
X980256Y1229262D01*
X977900Y1229572D01*
X975544Y1229262D01*
X973349Y1228352D01*
X971464Y1226906D01*
X970018Y1225021D01*
X969108Y1222826D01*
X968798Y1220470D01*
X969108Y1218114D01*
X970018Y1215919D01*
X971464Y1214034D01*
X973349Y1212588D01*
X975544Y1211678D01*
X977900Y1211368D01*
X980256Y1211678D01*
X982451Y1212588D01*
X983278Y1213222D01*
X991248Y1205252D01*
X990762Y1204078D01*
X972891D01*
X960578Y1216392D01*
X961292Y1218114D01*
X961602Y1220470D01*
X961292Y1222826D01*
X960382Y1225021D01*
X958936Y1226906D01*
X957051Y1228352D01*
X954856Y1229262D01*
X952500Y1229572D01*
X950144Y1229262D01*
X947949Y1228352D01*
X946064Y1226906D01*
X944618Y1225021D01*
X943708Y1222826D01*
X943398Y1220470D01*
X943708Y1218114D01*
X944618Y1215919D01*
X946064Y1214034D01*
X947949Y1212588D01*
X950144Y1211678D01*
X952500Y1211368D01*
X954856Y1211678D01*
X956578Y1212392D01*
X968872Y1200098D01*
X968346Y1198828D01*
X950422D01*
X934265Y1214985D01*
X934982Y1215919D01*
X935892Y1218114D01*
X936202Y1220470D01*
X935892Y1222826D01*
X934982Y1225021D01*
X933536Y1226906D01*
X931651Y1228352D01*
X929456Y1229262D01*
X927100Y1229572D01*
X924744Y1229262D01*
X922549Y1228352D01*
X920664Y1226906D01*
X919218Y1225021D01*
X918308Y1222826D01*
X917998Y1220470D01*
X918308Y1218114D01*
X919218Y1215919D01*
X920664Y1214034D01*
X922549Y1212588D01*
X924744Y1211678D01*
X927100Y1211368D01*
X929456Y1211678D01*
X929538Y1211712D01*
X946652Y1194598D01*
X946126Y1193328D01*
X932841D01*
X909778Y1216392D01*
X910492Y1218114D01*
X910802Y1220470D01*
X910492Y1222826D01*
X909582Y1225021D01*
X908136Y1226906D01*
X906251Y1228352D01*
X904056Y1229262D01*
X901700Y1229572D01*
X899344Y1229262D01*
X897149Y1228352D01*
X895264Y1226906D01*
X893818Y1225021D01*
X892908Y1222826D01*
X892598Y1220470D01*
X892908Y1218114D01*
X893818Y1215919D01*
X895264Y1214034D01*
X897149Y1212588D01*
X899344Y1211678D01*
X901700Y1211368D01*
X904056Y1211678D01*
X905778Y1212392D01*
X929322Y1188848D01*
X928829Y1187578D01*
X913192D01*
X884378Y1216392D01*
X885092Y1218114D01*
X885402Y1220470D01*
X885092Y1222826D01*
X884182Y1225021D01*
X882736Y1226906D01*
X880851Y1228352D01*
X878656Y1229262D01*
X876300Y1229572D01*
X873944Y1229262D01*
X871749Y1228352D01*
X869864Y1226906D01*
X868418Y1225021D01*
X867508Y1222826D01*
X867198Y1220470D01*
X867508Y1218114D01*
X868418Y1215919D01*
X869864Y1214034D01*
X871749Y1212588D01*
X873944Y1211678D01*
X876300Y1211368D01*
X878656Y1211678D01*
X880378Y1212392D01*
X909422Y1183348D01*
X908896Y1182078D01*
X892120D01*
X891038Y1181863D01*
X890120Y1181250D01*
X889507Y1180332D01*
X889292Y1179250D01*
X889507Y1178168D01*
X889887Y1177598D01*
X889440Y1176462D01*
X889325Y1176328D01*
X872470D01*
X871388Y1176113D01*
X870470Y1175500D01*
X869857Y1174582D01*
X869642Y1173500D01*
X869857Y1172418D01*
X870237Y1171848D01*
X869790Y1170712D01*
X869675Y1170578D01*
X852820D01*
X851738Y1170363D01*
X850820Y1169750D01*
X850207Y1168832D01*
X849992Y1167750D01*
X850207Y1166668D01*
X850587Y1166098D01*
X850140Y1164962D01*
X850025Y1164828D01*
X833170D01*
X832088Y1164613D01*
X831170Y1164000D01*
X830557Y1163082D01*
X830342Y1162000D01*
X830557Y1160918D01*
X831104Y1160098D01*
X830991Y1159605D01*
X830638Y1158828D01*
X813770D01*
X812688Y1158613D01*
X811770Y1158000D01*
X811157Y1157082D01*
X810942Y1156000D01*
X811157Y1154918D01*
X811203Y1154848D01*
X810524Y1153578D01*
X793620D01*
X792538Y1153363D01*
X791620Y1152750D01*
X791007Y1151832D01*
X790792Y1150750D01*
X791007Y1149668D01*
X791387Y1149098D01*
X790940Y1147962D01*
X790825Y1147828D01*
X773970D01*
X772888Y1147613D01*
X771970Y1147000D01*
X771357Y1146082D01*
X771142Y1145000D01*
X771357Y1143918D01*
X771570Y1143598D01*
X770891Y1142328D01*
X754070D01*
X752988Y1142113D01*
X752070Y1141500D01*
X751457Y1140582D01*
X751242Y1139500D01*
X751457Y1138418D01*
X751670Y1138098D01*
X750992Y1136828D01*
X734170D01*
X733088Y1136613D01*
X732170Y1136000D01*
X731557Y1135082D01*
X731342Y1134000D01*
X731557Y1132918D01*
X731937Y1132348D01*
X731490Y1131212D01*
X731375Y1131078D01*
X714520D01*
X713438Y1130863D01*
X712520Y1130250D01*
X711907Y1129332D01*
X711692Y1128250D01*
X711907Y1127168D01*
X712120Y1126848D01*
X711441Y1125578D01*
X694620D01*
X693538Y1125363D01*
X692620Y1124750D01*
X692007Y1123832D01*
X691792Y1122750D01*
X692007Y1121668D01*
X692187Y1121398D01*
X691508Y1120128D01*
X674670D01*
X673587Y1119913D01*
X672670Y1119300D01*
X672057Y1118382D01*
X671842Y1117300D01*
X672057Y1116218D01*
X672304Y1115848D01*
X671638Y1114578D01*
X654820D01*
X653738Y1114363D01*
X652820Y1113750D01*
X652207Y1112832D01*
X651992Y1111750D01*
X652207Y1110668D01*
X652253Y1110598D01*
X651574Y1109328D01*
X634670D01*
X633588Y1109113D01*
X632670Y1108500D01*
X632057Y1107582D01*
X631842Y1106500D01*
X632057Y1105418D01*
X632270Y1105098D01*
X631591Y1103828D01*
X614770D01*
X613688Y1103613D01*
X612770Y1103000D01*
X612157Y1102082D01*
X611942Y1101000D01*
X612157Y1099918D01*
X612203Y1099848D01*
X611524Y1098578D01*
X594620D01*
X593538Y1098363D01*
X592620Y1097750D01*
X592007Y1096832D01*
X591792Y1095750D01*
X592007Y1094668D01*
X592053Y1094598D01*
X591374Y1093328D01*
X574470D01*
X573388Y1093113D01*
X572470Y1092500D01*
X571857Y1091582D01*
X571642Y1090500D01*
X571857Y1089418D01*
X572470Y1088500D01*
X573388Y1087887D01*
X574470Y1087672D01*
X942723D01*
X943249Y1086402D01*
X937349Y1080501D01*
X936460Y1079170D01*
X936147Y1077600D01*
Y1038000D01*
X936460Y1036430D01*
X936832Y1035873D01*
X936153Y1034603D01*
X912950D01*
X889401Y1058151D01*
X888070Y1059041D01*
X886500Y1059353D01*
X884930Y1059041D01*
X883599Y1058151D01*
X882710Y1056820D01*
X882397Y1055250D01*
X882710Y1053680D01*
X883599Y1052349D01*
X908349Y1027599D01*
X909680Y1026710D01*
X911250Y1026397D01*
X947750D01*
X949320Y1026710D01*
X950651Y1027599D01*
X951541Y1028930D01*
X951853Y1030500D01*
X951541Y1032070D01*
X950651Y1033401D01*
X944353Y1039699D01*
Y1075901D01*
X950151Y1081699D01*
X951040Y1083030D01*
X951353Y1084600D01*
Y1084850D01*
X951040Y1086420D01*
X950953Y1086552D01*
X951551Y1087672D01*
X954476D01*
X988148Y1054000D01*
X989066Y1053387D01*
X990148Y1053172D01*
X1075934D01*
X1076968Y1053377D01*
X1077063Y1053316D01*
X1077717Y1052330D01*
X1076193Y1050807D01*
X1075716Y1050092D01*
X1075549Y1049250D01*
Y1036662D01*
X1072576Y1033689D01*
X1071750Y1033853D01*
X1070180Y1033540D01*
X1068849Y1032651D01*
X1067960Y1031320D01*
X1067647Y1029750D01*
X1067960Y1028180D01*
X1068849Y1026849D01*
X1070180Y1025959D01*
X1071750Y1025647D01*
X1073320Y1025959D01*
X1074651Y1026849D01*
X1075540Y1028180D01*
X1075853Y1029750D01*
X1075689Y1030576D01*
X1079307Y1034193D01*
X1079784Y1034908D01*
X1079951Y1035750D01*
Y1048338D01*
X1086248Y1054635D01*
X1087422Y1054149D01*
Y939922D01*
X1077000Y929500D01*
X1076387Y928582D01*
X1076172Y927500D01*
Y919244D01*
X1069976D01*
Y901196D01*
X1088024D01*
Y919244D01*
X1081828D01*
Y926328D01*
X1090248Y934748D01*
X1091422Y934262D01*
Y932810D01*
X1091637Y931728D01*
X1092250Y930810D01*
X1101572Y921488D01*
Y918816D01*
X1099849Y918102D01*
X1097964Y916656D01*
X1096518Y914771D01*
X1095608Y912576D01*
X1095298Y910220D01*
X1095608Y907864D01*
X1096518Y905669D01*
X1097964Y903784D01*
X1099849Y902338D01*
X1102044Y901428D01*
X1104400Y901118D01*
X1106756Y901428D01*
X1108951Y902338D01*
X1110836Y903784D01*
X1112282Y905669D01*
X1113192Y907864D01*
X1113502Y910220D01*
X1113192Y912576D01*
X1112282Y914771D01*
X1110836Y916656D01*
X1108951Y918102D01*
X1107228Y918816D01*
Y922660D01*
X1107013Y923742D01*
X1106400Y924660D01*
X1097078Y933981D01*
Y939392D01*
X1098252Y939878D01*
X1110130Y928000D01*
X1110130Y928000D01*
X1111048Y927387D01*
X1112130Y927172D01*
X1121829D01*
X1126972Y922029D01*
Y918816D01*
X1125249Y918102D01*
X1123364Y916656D01*
X1121918Y914771D01*
X1121008Y912576D01*
X1120698Y910220D01*
X1121008Y907864D01*
X1121918Y905669D01*
X1123364Y903784D01*
X1125249Y902338D01*
X1127444Y901428D01*
X1129800Y901118D01*
X1132156Y901428D01*
X1134351Y902338D01*
X1136236Y903784D01*
X1137682Y905669D01*
X1138592Y907864D01*
X1138902Y910220D01*
X1138592Y912576D01*
X1137682Y914771D01*
X1136236Y916656D01*
X1134351Y918102D01*
X1132628Y918816D01*
Y923200D01*
X1132628Y923200D01*
X1132413Y924282D01*
X1131800Y925200D01*
X1131800Y925200D01*
X1125098Y931902D01*
X1125144Y932316D01*
X1125532Y933172D01*
X1128248D01*
X1147122Y914298D01*
X1146408Y912576D01*
X1146098Y910220D01*
X1146408Y907864D01*
X1147318Y905669D01*
X1148764Y903784D01*
X1150649Y902338D01*
X1152844Y901428D01*
X1155200Y901118D01*
X1157556Y901428D01*
X1159751Y902338D01*
X1161636Y903784D01*
X1163082Y905669D01*
X1163992Y907864D01*
X1164302Y910220D01*
X1163992Y912576D01*
X1163082Y914771D01*
X1161636Y916656D01*
X1159751Y918102D01*
X1157556Y919012D01*
X1155200Y919322D01*
X1152844Y919012D01*
X1151122Y918298D01*
X1132268Y937152D01*
X1132794Y938422D01*
X1148398D01*
X1172522Y914298D01*
X1171808Y912576D01*
X1171498Y910220D01*
X1171808Y907864D01*
X1172718Y905669D01*
X1174164Y903784D01*
X1176049Y902338D01*
X1178244Y901428D01*
X1180600Y901118D01*
X1182956Y901428D01*
X1185151Y902338D01*
X1187036Y903784D01*
X1188482Y905669D01*
X1189392Y907864D01*
X1189702Y910220D01*
X1189392Y912576D01*
X1188482Y914771D01*
X1187036Y916656D01*
X1185151Y918102D01*
X1182956Y919012D01*
X1180600Y919322D01*
X1178244Y919012D01*
X1176522Y918298D01*
X1152668Y942152D01*
X1153194Y943422D01*
X1168798D01*
X1197922Y914298D01*
X1197208Y912576D01*
X1196898Y910220D01*
X1197208Y907864D01*
X1198118Y905669D01*
X1199564Y903784D01*
X1201449Y902338D01*
X1203644Y901428D01*
X1206000Y901118D01*
X1208356Y901428D01*
X1210551Y902338D01*
X1212436Y903784D01*
X1213882Y905669D01*
X1214792Y907864D01*
X1215102Y910220D01*
X1214792Y912576D01*
X1213882Y914771D01*
X1212436Y916656D01*
X1210551Y918102D01*
X1208356Y919012D01*
X1206000Y919322D01*
X1203644Y919012D01*
X1201922Y918298D01*
X1172818Y947402D01*
X1173344Y948672D01*
X1188948D01*
X1223322Y914298D01*
X1222608Y912576D01*
X1222298Y910220D01*
X1222608Y907864D01*
X1223518Y905669D01*
X1224964Y903784D01*
X1226849Y902338D01*
X1229044Y901428D01*
X1231400Y901118D01*
X1233756Y901428D01*
X1235951Y902338D01*
X1237836Y903784D01*
X1239282Y905669D01*
X1240192Y907864D01*
X1240502Y910220D01*
X1240192Y912576D01*
X1239282Y914771D01*
X1237836Y916656D01*
X1235951Y918102D01*
X1233756Y919012D01*
X1231400Y919322D01*
X1229044Y919012D01*
X1227322Y918298D01*
X1192902Y952718D01*
X1193428Y953988D01*
X1209032D01*
X1248722Y914298D01*
X1248008Y912576D01*
X1247698Y910220D01*
X1248008Y907864D01*
X1248918Y905669D01*
X1250364Y903784D01*
X1252249Y902338D01*
X1254444Y901428D01*
X1256800Y901118D01*
X1259156Y901428D01*
X1261351Y902338D01*
X1263236Y903784D01*
X1264682Y905669D01*
X1265592Y907864D01*
X1265902Y910220D01*
X1265592Y912576D01*
X1264682Y914771D01*
X1263236Y916656D01*
X1261351Y918102D01*
X1259156Y919012D01*
X1256800Y919322D01*
X1254444Y919012D01*
X1252722Y918298D01*
X1213368Y957652D01*
X1213894Y958922D01*
X1229499D01*
X1274122Y914298D01*
X1273408Y912576D01*
X1273098Y910220D01*
X1273408Y907864D01*
X1274318Y905669D01*
X1275764Y903784D01*
X1277649Y902338D01*
X1279844Y901428D01*
X1282200Y901118D01*
X1284556Y901428D01*
X1286751Y902338D01*
X1288636Y903784D01*
X1290082Y905669D01*
X1290992Y907864D01*
X1291302Y910220D01*
X1290992Y912576D01*
X1290082Y914771D01*
X1288636Y916656D01*
X1286751Y918102D01*
X1284556Y919012D01*
X1282200Y919322D01*
X1279844Y919012D01*
X1278122Y918298D01*
X1232670Y963750D01*
X1231752Y964363D01*
X1230670Y964578D01*
X1127421D01*
X1125078Y966921D01*
Y1084850D01*
X1124874Y1085877D01*
Y1088676D01*
X1126499D01*
Y1078050D01*
X1126666Y1077208D01*
X1127143Y1076494D01*
X1129193Y1074443D01*
X1129908Y1073966D01*
X1130750Y1073799D01*
X1131476D01*
Y1070226D01*
X1143524D01*
Y1073799D01*
X1149226D01*
Y1070476D01*
X1161274D01*
Y1071897D01*
X1178301D01*
X1198599Y1051599D01*
X1199930Y1050710D01*
X1201500Y1050397D01*
X1203070Y1050710D01*
X1204401Y1051599D01*
X1205291Y1052930D01*
X1205603Y1054500D01*
X1205291Y1056070D01*
X1204401Y1057401D01*
X1182901Y1078901D01*
X1181570Y1079790D01*
X1180000Y1080103D01*
X1161274D01*
Y1081524D01*
X1149226D01*
Y1078201D01*
X1143524D01*
Y1081274D01*
X1131476D01*
X1130901Y1082306D01*
Y1088676D01*
X1134424D01*
Y1097099D01*
X1138388D01*
X1138529Y1095721D01*
X1137695Y1094473D01*
X1137402Y1093000D01*
X1137695Y1091527D01*
X1138529Y1090279D01*
X1139778Y1089445D01*
X1141250Y1089152D01*
X1142722Y1089445D01*
X1143971Y1090279D01*
X1144805Y1091527D01*
X1145098Y1093000D01*
X1144805Y1094473D01*
X1143971Y1095721D01*
X1143451Y1096068D01*
Y1097350D01*
X1143448Y1097364D01*
X1143521Y1097500D01*
X1144549Y1098341D01*
X1145500Y1098152D01*
X1146973Y1098445D01*
X1148221Y1099279D01*
X1149055Y1100527D01*
X1149348Y1102000D01*
X1149055Y1103473D01*
X1148221Y1104721D01*
X1146973Y1105555D01*
X1145500Y1105848D01*
X1144887Y1105726D01*
X1142647Y1107966D01*
X1143173Y1109236D01*
X1149290D01*
X1149729Y1108579D01*
X1150977Y1107745D01*
X1152450Y1107452D01*
X1153923Y1107745D01*
X1155171Y1108579D01*
X1156005Y1109827D01*
X1156298Y1111300D01*
X1156005Y1112773D01*
X1155171Y1114021D01*
X1153923Y1114855D01*
X1152450Y1115148D01*
X1150977Y1114855D01*
X1149729Y1114021D01*
X1149290Y1113364D01*
X1147513D01*
X1147161Y1114119D01*
X1147041Y1114634D01*
X1147805Y1115777D01*
X1148098Y1117250D01*
X1147805Y1118723D01*
X1147066Y1119829D01*
X1147229Y1120457D01*
X1147569Y1121099D01*
X1152782D01*
X1152945Y1120277D01*
X1153779Y1119029D01*
X1155027Y1118195D01*
X1156500Y1117902D01*
X1157972Y1118195D01*
X1159221Y1119029D01*
X1160055Y1120277D01*
X1160348Y1121750D01*
X1160055Y1123223D01*
X1160748Y1124472D01*
X1237800D01*
X1238882Y1124687D01*
X1239800Y1125300D01*
X1276672Y1162172D01*
X1353830D01*
X1354912Y1162387D01*
X1355830Y1163000D01*
X1356443Y1163918D01*
X1356658Y1165000D01*
X1356443Y1166082D01*
X1355830Y1167000D01*
X1354912Y1167613D01*
X1353830Y1167828D01*
X1336962D01*
X1336609Y1168605D01*
X1336496Y1169098D01*
X1337043Y1169918D01*
X1337258Y1171000D01*
X1337043Y1172082D01*
X1336430Y1173000D01*
X1335512Y1173613D01*
X1334430Y1173828D01*
X1317526D01*
X1316847Y1175098D01*
X1316893Y1175168D01*
X1317108Y1176250D01*
X1316893Y1177332D01*
X1316280Y1178250D01*
X1315362Y1178863D01*
X1314280Y1179078D01*
X1270124D01*
X1269605Y1180032D01*
X1269562Y1180312D01*
X1273294Y1184044D01*
X1299502D01*
X1300584Y1184259D01*
X1301502Y1184872D01*
X1302115Y1185790D01*
X1302330Y1186872D01*
X1302115Y1187954D01*
X1301502Y1188872D01*
X1300584Y1189485D01*
X1299502Y1189700D01*
X1282043D01*
X1280994Y1190936D01*
X1280779Y1192018D01*
X1280166Y1192936D01*
X1279248Y1193549D01*
X1278166Y1193764D01*
X1267086D01*
X1267086Y1193764D01*
X1266004Y1193549D01*
X1265086Y1192936D01*
X1219131Y1146981D01*
X1217379Y1147023D01*
X1217128Y1147300D01*
X1216913Y1148382D01*
X1216300Y1149300D01*
X1215382Y1149913D01*
X1214300Y1150128D01*
X1128700D01*
X1127673Y1149924D01*
X1124874D01*
Y1152723D01*
X1125078Y1153750D01*
Y1158828D01*
X1125672Y1159422D01*
X1156149D01*
X1157231Y1159637D01*
X1158149Y1160250D01*
X1185821Y1187922D01*
X1229750D01*
X1230832Y1188137D01*
X1231750Y1188750D01*
X1232363Y1189668D01*
X1232578Y1190750D01*
X1232363Y1191832D01*
X1231750Y1192750D01*
X1230832Y1193363D01*
X1229750Y1193578D01*
X1210055D01*
X1209679Y1194848D01*
X1210280Y1195250D01*
X1210893Y1196168D01*
X1211108Y1197250D01*
X1210893Y1198332D01*
X1210280Y1199250D01*
X1209362Y1199863D01*
X1208280Y1200078D01*
X1180396D01*
X1179136Y1201100D01*
X1179109Y1201238D01*
X1179946Y1202172D01*
X1190630D01*
X1191712Y1202387D01*
X1192630Y1203000D01*
X1193243Y1203918D01*
X1193458Y1205000D01*
X1193243Y1206082D01*
X1192630Y1207000D01*
X1191712Y1207613D01*
X1190630Y1207828D01*
X1178749D01*
X1177667Y1207613D01*
X1176890Y1207094D01*
X1176081Y1208081D01*
X1179523Y1211523D01*
X1180700Y1211368D01*
X1183056Y1211678D01*
X1185251Y1212588D01*
X1187136Y1214034D01*
X1188582Y1215919D01*
X1189492Y1218114D01*
X1189802Y1220470D01*
X1189492Y1222826D01*
X1188582Y1225021D01*
X1187136Y1226906D01*
X1185251Y1228352D01*
X1183056Y1229262D01*
X1180700Y1229572D01*
X1178344Y1229262D01*
X1176149Y1228352D01*
X1174264Y1226906D01*
X1172818Y1225021D01*
X1171908Y1222826D01*
X1171598Y1220470D01*
X1171908Y1218114D01*
X1172818Y1215919D01*
X1174164Y1214164D01*
X1143578Y1183578D01*
X1124000D01*
X1123356Y1184848D01*
X1123526Y1185080D01*
X1139974D01*
X1141057Y1185295D01*
X1141974Y1185908D01*
X1157300Y1201234D01*
X1157913Y1202152D01*
X1158128Y1203234D01*
X1157913Y1204316D01*
X1157300Y1205234D01*
X1156382Y1205847D01*
X1155300Y1206062D01*
X1154218Y1205847D01*
X1153300Y1205234D01*
X1138803Y1190736D01*
X1121408D01*
X1120326Y1190521D01*
X1119408Y1189908D01*
X1104250Y1174750D01*
X1103637Y1173832D01*
X1103422Y1172750D01*
Y1160490D01*
X1101078D01*
Y1187648D01*
X1125822Y1212392D01*
X1127544Y1211678D01*
X1129900Y1211368D01*
X1132256Y1211678D01*
X1134451Y1212588D01*
X1136336Y1214034D01*
X1137782Y1215919D01*
X1138692Y1218114D01*
X1139002Y1220470D01*
X1138692Y1222826D01*
X1137782Y1225021D01*
X1136336Y1226906D01*
X1134451Y1228352D01*
X1132256Y1229262D01*
X1129900Y1229572D01*
X1127544Y1229262D01*
X1125349Y1228352D01*
X1123464Y1226906D01*
X1122018Y1225021D01*
X1121108Y1222826D01*
X1120798Y1220470D01*
X1121108Y1218114D01*
X1121822Y1216392D01*
X1098252Y1192822D01*
X1097078Y1193308D01*
Y1195329D01*
X1106500Y1204750D01*
X1107113Y1205668D01*
X1107328Y1206750D01*
Y1211874D01*
X1109051Y1212588D01*
X1110936Y1214034D01*
X1112382Y1215919D01*
X1113292Y1218114D01*
X1113602Y1220470D01*
X1113292Y1222826D01*
X1112382Y1225021D01*
X1110936Y1226906D01*
X1109051Y1228352D01*
X1106856Y1229262D01*
X1104500Y1229572D01*
X1102144Y1229262D01*
X1099949Y1228352D01*
X1098064Y1226906D01*
X1096618Y1225021D01*
X1095708Y1222826D01*
X1095398Y1220470D01*
X1095708Y1218114D01*
X1096618Y1215919D01*
X1098064Y1214034D01*
X1099949Y1212588D01*
X1101672Y1211874D01*
Y1207922D01*
X1092478Y1198727D01*
X1092250Y1198750D01*
X1081928Y1209072D01*
Y1211446D01*
X1088124D01*
Y1229494D01*
X1070076D01*
Y1211446D01*
X1076272D01*
Y1207900D01*
X1076487Y1206818D01*
X1077100Y1205900D01*
X1087422Y1195578D01*
Y1187238D01*
X1086248Y1186752D01*
X1060329Y1212671D01*
X1060412Y1213939D01*
X1060536Y1214034D01*
X1061982Y1215919D01*
X1062892Y1218114D01*
X1063202Y1220470D01*
X1062892Y1222826D01*
X1061982Y1225021D01*
X1060536Y1226906D01*
X1058651Y1228352D01*
X1056456Y1229262D01*
X1054100Y1229572D01*
D02*
G37*
G36*
X1465540Y1219790D02*
X1457520D01*
Y1211770D01*
X1465540D01*
Y1219790D01*
D02*
G37*
G36*
X1454980D02*
X1446960D01*
Y1211770D01*
X1454980D01*
Y1219790D01*
D02*
G37*
G36*
X453524Y1229494D02*
X435476D01*
Y1211446D01*
X453524D01*
Y1229494D01*
D02*
G37*
G36*
X850900Y1229572D02*
X848544Y1229262D01*
X846349Y1228352D01*
X844464Y1226906D01*
X843018Y1225021D01*
X842108Y1222826D01*
X841798Y1220470D01*
X842108Y1218114D01*
X843018Y1215919D01*
X844464Y1214034D01*
X846349Y1212588D01*
X848544Y1211678D01*
X850900Y1211368D01*
X853256Y1211678D01*
X855451Y1212588D01*
X857336Y1214034D01*
X858782Y1215919D01*
X859692Y1218114D01*
X860002Y1220470D01*
X859692Y1222826D01*
X858782Y1225021D01*
X857336Y1226906D01*
X855451Y1228352D01*
X853256Y1229262D01*
X850900Y1229572D01*
D02*
G37*
G36*
X825500D02*
X823144Y1229262D01*
X820949Y1228352D01*
X819064Y1226906D01*
X817618Y1225021D01*
X816708Y1222826D01*
X816398Y1220470D01*
X816708Y1218114D01*
X817618Y1215919D01*
X819064Y1214034D01*
X820949Y1212588D01*
X823144Y1211678D01*
X825500Y1211368D01*
X827856Y1211678D01*
X830051Y1212588D01*
X831936Y1214034D01*
X833382Y1215919D01*
X834292Y1218114D01*
X834602Y1220470D01*
X834292Y1222826D01*
X833382Y1225021D01*
X831936Y1226906D01*
X830051Y1228352D01*
X827856Y1229262D01*
X825500Y1229572D01*
D02*
G37*
G36*
X800100D02*
X797744Y1229262D01*
X795549Y1228352D01*
X793664Y1226906D01*
X792218Y1225021D01*
X791308Y1222826D01*
X790998Y1220470D01*
X791308Y1218114D01*
X792218Y1215919D01*
X793664Y1214034D01*
X795549Y1212588D01*
X797744Y1211678D01*
X800100Y1211368D01*
X802456Y1211678D01*
X804651Y1212588D01*
X806536Y1214034D01*
X807982Y1215919D01*
X808892Y1218114D01*
X809202Y1220470D01*
X808892Y1222826D01*
X807982Y1225021D01*
X806536Y1226906D01*
X804651Y1228352D01*
X802456Y1229262D01*
X800100Y1229572D01*
D02*
G37*
G36*
X774700D02*
X772344Y1229262D01*
X770149Y1228352D01*
X768264Y1226906D01*
X766818Y1225021D01*
X765908Y1222826D01*
X765598Y1220470D01*
X765908Y1218114D01*
X766818Y1215919D01*
X768264Y1214034D01*
X770149Y1212588D01*
X772344Y1211678D01*
X774700Y1211368D01*
X777056Y1211678D01*
X779251Y1212588D01*
X781136Y1214034D01*
X782582Y1215919D01*
X783492Y1218114D01*
X783802Y1220470D01*
X783492Y1222826D01*
X782582Y1225021D01*
X781136Y1226906D01*
X779251Y1228352D01*
X777056Y1229262D01*
X774700Y1229572D01*
D02*
G37*
G36*
X749300D02*
X746944Y1229262D01*
X744749Y1228352D01*
X742864Y1226906D01*
X741418Y1225021D01*
X740508Y1222826D01*
X740198Y1220470D01*
X740508Y1218114D01*
X741418Y1215919D01*
X742864Y1214034D01*
X744749Y1212588D01*
X746944Y1211678D01*
X749300Y1211368D01*
X751656Y1211678D01*
X753851Y1212588D01*
X755736Y1214034D01*
X757182Y1215919D01*
X758092Y1218114D01*
X758402Y1220470D01*
X758092Y1222826D01*
X757182Y1225021D01*
X755736Y1226906D01*
X753851Y1228352D01*
X751656Y1229262D01*
X749300Y1229572D01*
D02*
G37*
G36*
X723900D02*
X721544Y1229262D01*
X719349Y1228352D01*
X717464Y1226906D01*
X716018Y1225021D01*
X715108Y1222826D01*
X714798Y1220470D01*
X715108Y1218114D01*
X716018Y1215919D01*
X717464Y1214034D01*
X719349Y1212588D01*
X721544Y1211678D01*
X723900Y1211368D01*
X726256Y1211678D01*
X728451Y1212588D01*
X730336Y1214034D01*
X731782Y1215919D01*
X732692Y1218114D01*
X733002Y1220470D01*
X732692Y1222826D01*
X731782Y1225021D01*
X730336Y1226906D01*
X728451Y1228352D01*
X726256Y1229262D01*
X723900Y1229572D01*
D02*
G37*
G36*
X698500D02*
X696144Y1229262D01*
X693949Y1228352D01*
X692064Y1226906D01*
X690618Y1225021D01*
X689708Y1222826D01*
X689398Y1220470D01*
X689708Y1218114D01*
X690618Y1215919D01*
X692064Y1214034D01*
X693949Y1212588D01*
X696144Y1211678D01*
X698500Y1211368D01*
X700856Y1211678D01*
X703051Y1212588D01*
X704936Y1214034D01*
X706382Y1215919D01*
X707292Y1218114D01*
X707602Y1220470D01*
X707292Y1222826D01*
X706382Y1225021D01*
X704936Y1226906D01*
X703051Y1228352D01*
X700856Y1229262D01*
X698500Y1229572D01*
D02*
G37*
G36*
X673100D02*
X670744Y1229262D01*
X668549Y1228352D01*
X666664Y1226906D01*
X665218Y1225021D01*
X664308Y1222826D01*
X663998Y1220470D01*
X664308Y1218114D01*
X665218Y1215919D01*
X666664Y1214034D01*
X668549Y1212588D01*
X670744Y1211678D01*
X673100Y1211368D01*
X675456Y1211678D01*
X677651Y1212588D01*
X679536Y1214034D01*
X680982Y1215919D01*
X681892Y1218114D01*
X682202Y1220470D01*
X681892Y1222826D01*
X680982Y1225021D01*
X679536Y1226906D01*
X677651Y1228352D01*
X675456Y1229262D01*
X673100Y1229572D01*
D02*
G37*
G36*
X647700D02*
X645344Y1229262D01*
X643149Y1228352D01*
X641264Y1226906D01*
X639818Y1225021D01*
X638908Y1222826D01*
X638598Y1220470D01*
X638908Y1218114D01*
X639818Y1215919D01*
X641264Y1214034D01*
X643149Y1212588D01*
X645344Y1211678D01*
X647700Y1211368D01*
X650056Y1211678D01*
X652251Y1212588D01*
X654136Y1214034D01*
X655582Y1215919D01*
X656492Y1218114D01*
X656802Y1220470D01*
X656492Y1222826D01*
X655582Y1225021D01*
X654136Y1226906D01*
X652251Y1228352D01*
X650056Y1229262D01*
X647700Y1229572D01*
D02*
G37*
G36*
X622300D02*
X619944Y1229262D01*
X617749Y1228352D01*
X615864Y1226906D01*
X614418Y1225021D01*
X613508Y1222826D01*
X613198Y1220470D01*
X613508Y1218114D01*
X614418Y1215919D01*
X615864Y1214034D01*
X617749Y1212588D01*
X619944Y1211678D01*
X622300Y1211368D01*
X624656Y1211678D01*
X626851Y1212588D01*
X628736Y1214034D01*
X630182Y1215919D01*
X631092Y1218114D01*
X631402Y1220470D01*
X631092Y1222826D01*
X630182Y1225021D01*
X628736Y1226906D01*
X626851Y1228352D01*
X624656Y1229262D01*
X622300Y1229572D01*
D02*
G37*
G36*
X596900D02*
X594544Y1229262D01*
X592349Y1228352D01*
X590464Y1226906D01*
X589018Y1225021D01*
X588108Y1222826D01*
X587798Y1220470D01*
X588108Y1218114D01*
X589018Y1215919D01*
X590464Y1214034D01*
X592349Y1212588D01*
X594544Y1211678D01*
X596900Y1211368D01*
X599256Y1211678D01*
X601451Y1212588D01*
X603336Y1214034D01*
X604782Y1215919D01*
X605692Y1218114D01*
X606002Y1220470D01*
X605692Y1222826D01*
X604782Y1225021D01*
X603336Y1226906D01*
X601451Y1228352D01*
X599256Y1229262D01*
X596900Y1229572D01*
D02*
G37*
G36*
X571500D02*
X569144Y1229262D01*
X566949Y1228352D01*
X565064Y1226906D01*
X563618Y1225021D01*
X562708Y1222826D01*
X562398Y1220470D01*
X562708Y1218114D01*
X563618Y1215919D01*
X565064Y1214034D01*
X566949Y1212588D01*
X569144Y1211678D01*
X571500Y1211368D01*
X573856Y1211678D01*
X576051Y1212588D01*
X577936Y1214034D01*
X579382Y1215919D01*
X580292Y1218114D01*
X580602Y1220470D01*
X580292Y1222826D01*
X579382Y1225021D01*
X577936Y1226906D01*
X576051Y1228352D01*
X573856Y1229262D01*
X571500Y1229572D01*
D02*
G37*
G36*
X546100D02*
X543744Y1229262D01*
X541549Y1228352D01*
X539664Y1226906D01*
X538218Y1225021D01*
X537308Y1222826D01*
X536998Y1220470D01*
X537308Y1218114D01*
X538218Y1215919D01*
X539664Y1214034D01*
X541549Y1212588D01*
X543744Y1211678D01*
X546100Y1211368D01*
X548456Y1211678D01*
X550651Y1212588D01*
X552536Y1214034D01*
X553982Y1215919D01*
X554892Y1218114D01*
X555202Y1220470D01*
X554892Y1222826D01*
X553982Y1225021D01*
X552536Y1226906D01*
X550651Y1228352D01*
X548456Y1229262D01*
X546100Y1229572D01*
D02*
G37*
G36*
X520700D02*
X518344Y1229262D01*
X516149Y1228352D01*
X514264Y1226906D01*
X512818Y1225021D01*
X511908Y1222826D01*
X511598Y1220470D01*
X511908Y1218114D01*
X512818Y1215919D01*
X514264Y1214034D01*
X516149Y1212588D01*
X518344Y1211678D01*
X520700Y1211368D01*
X523056Y1211678D01*
X525251Y1212588D01*
X527136Y1214034D01*
X528582Y1215919D01*
X529492Y1218114D01*
X529802Y1220470D01*
X529492Y1222826D01*
X528582Y1225021D01*
X527136Y1226906D01*
X525251Y1228352D01*
X523056Y1229262D01*
X520700Y1229572D01*
D02*
G37*
G36*
X495300D02*
X492944Y1229262D01*
X490749Y1228352D01*
X488864Y1226906D01*
X487418Y1225021D01*
X486508Y1222826D01*
X486198Y1220470D01*
X486508Y1218114D01*
X487418Y1215919D01*
X488864Y1214034D01*
X490749Y1212588D01*
X492944Y1211678D01*
X495300Y1211368D01*
X497656Y1211678D01*
X499851Y1212588D01*
X501736Y1214034D01*
X503182Y1215919D01*
X504092Y1218114D01*
X504402Y1220470D01*
X504092Y1222826D01*
X503182Y1225021D01*
X501736Y1226906D01*
X499851Y1228352D01*
X497656Y1229262D01*
X495300Y1229572D01*
D02*
G37*
G36*
X469900D02*
X467544Y1229262D01*
X465349Y1228352D01*
X463464Y1226906D01*
X462018Y1225021D01*
X461108Y1222826D01*
X460798Y1220470D01*
X461108Y1218114D01*
X462018Y1215919D01*
X463464Y1214034D01*
X465349Y1212588D01*
X467544Y1211678D01*
X469900Y1211368D01*
X472256Y1211678D01*
X474451Y1212588D01*
X476336Y1214034D01*
X477782Y1215919D01*
X478692Y1218114D01*
X479002Y1220470D01*
X478692Y1222826D01*
X477782Y1225021D01*
X476336Y1226906D01*
X474451Y1228352D01*
X472256Y1229262D01*
X469900Y1229572D01*
D02*
G37*
G36*
X1409300Y1229572D02*
X1406944Y1229262D01*
X1404749Y1228352D01*
X1402864Y1226906D01*
X1401418Y1225021D01*
X1400508Y1222826D01*
X1400198Y1220470D01*
X1400508Y1218114D01*
X1401418Y1215919D01*
X1402864Y1214034D01*
X1404749Y1212588D01*
X1406944Y1211678D01*
X1409300Y1211368D01*
X1411656Y1211678D01*
X1413851Y1212588D01*
X1415736Y1214034D01*
X1417182Y1215919D01*
X1418092Y1218114D01*
X1418402Y1220470D01*
X1418092Y1222826D01*
X1417182Y1225021D01*
X1415736Y1226906D01*
X1413851Y1228352D01*
X1411656Y1229262D01*
X1409300Y1229572D01*
D02*
G37*
G36*
X1383900D02*
X1381544Y1229262D01*
X1379349Y1228352D01*
X1377464Y1226906D01*
X1376018Y1225021D01*
X1375108Y1222826D01*
X1374798Y1220470D01*
X1375108Y1218114D01*
X1376018Y1215919D01*
X1377464Y1214034D01*
X1379349Y1212588D01*
X1381544Y1211678D01*
X1383900Y1211368D01*
X1386256Y1211678D01*
X1388451Y1212588D01*
X1390336Y1214034D01*
X1391782Y1215919D01*
X1392692Y1218114D01*
X1393002Y1220470D01*
X1392692Y1222826D01*
X1391782Y1225021D01*
X1390336Y1226906D01*
X1388451Y1228352D01*
X1386256Y1229262D01*
X1383900Y1229572D01*
D02*
G37*
G36*
X1358500D02*
X1356144Y1229262D01*
X1353949Y1228352D01*
X1352064Y1226906D01*
X1350618Y1225021D01*
X1349708Y1222826D01*
X1349398Y1220470D01*
X1349708Y1218114D01*
X1350618Y1215919D01*
X1352064Y1214034D01*
X1353949Y1212588D01*
X1356144Y1211678D01*
X1358500Y1211368D01*
X1360856Y1211678D01*
X1363051Y1212588D01*
X1364936Y1214034D01*
X1366382Y1215919D01*
X1367292Y1218114D01*
X1367602Y1220470D01*
X1367292Y1222826D01*
X1366382Y1225021D01*
X1364936Y1226906D01*
X1363051Y1228352D01*
X1360856Y1229262D01*
X1358500Y1229572D01*
D02*
G37*
G36*
X1333100D02*
X1330744Y1229262D01*
X1328549Y1228352D01*
X1326664Y1226906D01*
X1325218Y1225021D01*
X1324308Y1222826D01*
X1323998Y1220470D01*
X1324308Y1218114D01*
X1325218Y1215919D01*
X1326664Y1214034D01*
X1328549Y1212588D01*
X1330744Y1211678D01*
X1333100Y1211368D01*
X1335456Y1211678D01*
X1337651Y1212588D01*
X1339536Y1214034D01*
X1340982Y1215919D01*
X1341892Y1218114D01*
X1342202Y1220470D01*
X1341892Y1222826D01*
X1340982Y1225021D01*
X1339536Y1226906D01*
X1337651Y1228352D01*
X1335456Y1229262D01*
X1333100Y1229572D01*
D02*
G37*
G36*
X1307700D02*
X1305344Y1229262D01*
X1303149Y1228352D01*
X1301264Y1226906D01*
X1299818Y1225021D01*
X1298908Y1222826D01*
X1298598Y1220470D01*
X1298908Y1218114D01*
X1299818Y1215919D01*
X1301264Y1214034D01*
X1303149Y1212588D01*
X1305344Y1211678D01*
X1307700Y1211368D01*
X1310056Y1211678D01*
X1312251Y1212588D01*
X1314136Y1214034D01*
X1315582Y1215919D01*
X1316492Y1218114D01*
X1316802Y1220470D01*
X1316492Y1222826D01*
X1315582Y1225021D01*
X1314136Y1226906D01*
X1312251Y1228352D01*
X1310056Y1229262D01*
X1307700Y1229572D01*
D02*
G37*
G36*
X1282300D02*
X1279944Y1229262D01*
X1277749Y1228352D01*
X1275864Y1226906D01*
X1274418Y1225021D01*
X1273508Y1222826D01*
X1273198Y1220470D01*
X1273508Y1218114D01*
X1274418Y1215919D01*
X1275864Y1214034D01*
X1277749Y1212588D01*
X1279944Y1211678D01*
X1282300Y1211368D01*
X1284656Y1211678D01*
X1286851Y1212588D01*
X1288736Y1214034D01*
X1290182Y1215919D01*
X1291092Y1218114D01*
X1291402Y1220470D01*
X1291092Y1222826D01*
X1290182Y1225021D01*
X1288736Y1226906D01*
X1286851Y1228352D01*
X1284656Y1229262D01*
X1282300Y1229572D01*
D02*
G37*
G36*
X1256900D02*
X1254544Y1229262D01*
X1252349Y1228352D01*
X1250464Y1226906D01*
X1249018Y1225021D01*
X1248108Y1222826D01*
X1247798Y1220470D01*
X1248108Y1218114D01*
X1249018Y1215919D01*
X1250464Y1214034D01*
X1252349Y1212588D01*
X1254544Y1211678D01*
X1256900Y1211368D01*
X1259256Y1211678D01*
X1261451Y1212588D01*
X1263336Y1214034D01*
X1264782Y1215919D01*
X1265692Y1218114D01*
X1266002Y1220470D01*
X1265692Y1222826D01*
X1264782Y1225021D01*
X1263336Y1226906D01*
X1261451Y1228352D01*
X1259256Y1229262D01*
X1256900Y1229572D01*
D02*
G37*
G36*
X1231500D02*
X1229144Y1229262D01*
X1226949Y1228352D01*
X1225064Y1226906D01*
X1223618Y1225021D01*
X1222708Y1222826D01*
X1222398Y1220470D01*
X1222708Y1218114D01*
X1223618Y1215919D01*
X1225064Y1214034D01*
X1226949Y1212588D01*
X1229144Y1211678D01*
X1231500Y1211368D01*
X1233856Y1211678D01*
X1236051Y1212588D01*
X1237936Y1214034D01*
X1239382Y1215919D01*
X1240292Y1218114D01*
X1240602Y1220470D01*
X1240292Y1222826D01*
X1239382Y1225021D01*
X1237936Y1226906D01*
X1236051Y1228352D01*
X1233856Y1229262D01*
X1231500Y1229572D01*
D02*
G37*
G36*
X1206100D02*
X1203744Y1229262D01*
X1201549Y1228352D01*
X1199664Y1226906D01*
X1198218Y1225021D01*
X1197308Y1222826D01*
X1196998Y1220470D01*
X1197308Y1218114D01*
X1198218Y1215919D01*
X1199664Y1214034D01*
X1201549Y1212588D01*
X1203744Y1211678D01*
X1206100Y1211368D01*
X1208456Y1211678D01*
X1210651Y1212588D01*
X1212536Y1214034D01*
X1213982Y1215919D01*
X1214892Y1218114D01*
X1215202Y1220470D01*
X1214892Y1222826D01*
X1213982Y1225021D01*
X1212536Y1226906D01*
X1210651Y1228352D01*
X1208456Y1229262D01*
X1206100Y1229572D01*
D02*
G37*
G36*
X1155300D02*
X1152944Y1229262D01*
X1150749Y1228352D01*
X1148864Y1226906D01*
X1147418Y1225021D01*
X1146508Y1222826D01*
X1146198Y1220470D01*
X1146508Y1218114D01*
X1147418Y1215919D01*
X1148864Y1214034D01*
X1150749Y1212588D01*
X1152944Y1211678D01*
X1155300Y1211368D01*
X1157656Y1211678D01*
X1159851Y1212588D01*
X1161736Y1214034D01*
X1163182Y1215919D01*
X1164092Y1218114D01*
X1164402Y1220470D01*
X1164092Y1222826D01*
X1163182Y1225021D01*
X1161736Y1226906D01*
X1159851Y1228352D01*
X1157656Y1229262D01*
X1155300Y1229572D01*
D02*
G37*
G36*
X1465540Y1209230D02*
X1457520D01*
Y1201210D01*
X1465540D01*
Y1209230D01*
D02*
G37*
G36*
X1454980D02*
X1446960D01*
Y1201210D01*
X1454980D01*
Y1209230D01*
D02*
G37*
G36*
X1526500Y1231824D02*
X1523261Y1231505D01*
X1520146Y1230560D01*
X1517275Y1229026D01*
X1514759Y1226961D01*
X1512694Y1224445D01*
X1511160Y1221574D01*
X1510215Y1218459D01*
X1509896Y1215220D01*
X1510215Y1211981D01*
X1511160Y1208866D01*
X1512694Y1205995D01*
X1514759Y1203479D01*
X1517275Y1201414D01*
X1520146Y1199880D01*
X1523261Y1198935D01*
X1526500Y1198616D01*
X1529739Y1198935D01*
X1532854Y1199880D01*
X1535725Y1201414D01*
X1538241Y1203479D01*
X1540306Y1205995D01*
X1541840Y1208866D01*
X1542785Y1211981D01*
X1543104Y1215220D01*
X1542785Y1218459D01*
X1541840Y1221574D01*
X1540306Y1224445D01*
X1538241Y1226961D01*
X1535725Y1229026D01*
X1532854Y1230560D01*
X1529739Y1231505D01*
X1526500Y1231824D01*
D02*
G37*
G36*
X326500D02*
X323261Y1231505D01*
X320146Y1230560D01*
X317275Y1229026D01*
X314759Y1226961D01*
X312694Y1224445D01*
X311160Y1221574D01*
X310215Y1218459D01*
X309896Y1215220D01*
X310215Y1211981D01*
X311160Y1208866D01*
X312694Y1205995D01*
X314759Y1203479D01*
X317275Y1201414D01*
X320146Y1199880D01*
X323261Y1198935D01*
X326500Y1198616D01*
X329739Y1198935D01*
X332854Y1199880D01*
X335725Y1201414D01*
X338241Y1203479D01*
X340306Y1205995D01*
X341840Y1208866D01*
X342785Y1211981D01*
X343104Y1215220D01*
X342785Y1218459D01*
X341840Y1221574D01*
X340306Y1224445D01*
X338241Y1226961D01*
X335725Y1229026D01*
X332854Y1230560D01*
X329739Y1231505D01*
X326500Y1231824D01*
D02*
G37*
G36*
X389771Y1178059D02*
Y1169370D01*
X398461D01*
X398283Y1170721D01*
X397271Y1173163D01*
X395662Y1175261D01*
X393564Y1176870D01*
X391122Y1177882D01*
X389771Y1178059D01*
D02*
G37*
G36*
X387231D02*
X385880Y1177882D01*
X383438Y1176870D01*
X381341Y1175261D01*
X379731Y1173163D01*
X378720Y1170721D01*
X378542Y1169370D01*
X387231D01*
Y1178059D01*
D02*
G37*
G36*
X398461Y1166830D02*
X389771D01*
Y1158141D01*
X391122Y1158319D01*
X393564Y1159330D01*
X395662Y1160939D01*
X397271Y1163037D01*
X398283Y1165479D01*
X398461Y1166830D01*
D02*
G37*
G36*
X387231D02*
X378542D01*
X378720Y1165479D01*
X379731Y1163037D01*
X381341Y1160939D01*
X383438Y1159330D01*
X385880Y1158319D01*
X387231Y1158141D01*
Y1166830D01*
D02*
G37*
G36*
X1436122Y1203853D02*
X1394500D01*
X1392930Y1203540D01*
X1391599Y1202651D01*
X1382599Y1193651D01*
X1381709Y1192320D01*
X1381397Y1190750D01*
Y1100200D01*
X1311599Y1030401D01*
X1304050Y1022853D01*
X1234433D01*
X1234048Y1024123D01*
X1234401Y1024359D01*
X1235291Y1025690D01*
X1235603Y1027260D01*
X1235554Y1027505D01*
X1235603Y1027750D01*
X1235291Y1029320D01*
X1235219Y1029427D01*
X1235898Y1030697D01*
X1259461D01*
X1261031Y1031010D01*
X1262362Y1031899D01*
X1308401Y1077938D01*
X1309290Y1079269D01*
X1309603Y1080839D01*
X1309290Y1082410D01*
X1308978Y1082877D01*
X1309657Y1084147D01*
X1319100D01*
X1321399Y1081849D01*
X1322730Y1080959D01*
X1324300Y1080647D01*
X1325200D01*
X1326770Y1080959D01*
X1328101Y1081849D01*
X1328990Y1083180D01*
X1329303Y1084750D01*
X1328990Y1086320D01*
X1328101Y1087651D01*
X1326770Y1088540D01*
X1326198Y1088654D01*
X1323701Y1091151D01*
X1322370Y1092040D01*
X1320800Y1092353D01*
X1299750D01*
X1298180Y1092040D01*
X1296849Y1091151D01*
X1253551Y1047853D01*
X1183000D01*
X1181430Y1047541D01*
X1180099Y1046651D01*
X1179210Y1045320D01*
X1178897Y1043750D01*
X1179210Y1042180D01*
X1180099Y1040849D01*
X1181430Y1039959D01*
X1181866Y1039873D01*
X1181924Y1038708D01*
X1181901Y1038571D01*
X1180599Y1037701D01*
X1179709Y1036370D01*
X1179397Y1034800D01*
X1179709Y1033230D01*
X1180599Y1031899D01*
X1181930Y1031010D01*
X1183500Y1030697D01*
X1226849D01*
X1227375Y1029427D01*
X1220801Y1022853D01*
X1199500D01*
X1197930Y1022541D01*
X1196599Y1021651D01*
X1163551Y988603D01*
X1151250D01*
X1149680Y988290D01*
X1148349Y987401D01*
X1147459Y986070D01*
X1147147Y984500D01*
X1147459Y982930D01*
X1148349Y981599D01*
X1149680Y980710D01*
X1151250Y980397D01*
X1165250D01*
X1166483Y980642D01*
X1167258Y979753D01*
X1167322Y979613D01*
X1166960Y979070D01*
X1166647Y977500D01*
X1166960Y975930D01*
X1167849Y974599D01*
X1169180Y973709D01*
X1170750Y973397D01*
X1172320Y973709D01*
X1173651Y974599D01*
X1174054Y975202D01*
X1174500Y975500D01*
X1203500Y1004500D01*
X1204113Y1005418D01*
X1204328Y1006500D01*
Y1007300D01*
X1204401Y1007349D01*
X1205291Y1008680D01*
X1205603Y1010250D01*
X1205291Y1011820D01*
X1204401Y1013151D01*
X1204063Y1013377D01*
X1204448Y1014647D01*
X1305750D01*
X1307320Y1014959D01*
X1308651Y1015849D01*
X1317401Y1024599D01*
X1388401Y1095599D01*
X1389290Y1096930D01*
X1389603Y1098500D01*
Y1189051D01*
X1396199Y1195647D01*
X1434423D01*
X1452147Y1177923D01*
Y1171774D01*
X1447976D01*
Y1155226D01*
X1464524D01*
Y1171774D01*
X1460353D01*
Y1179622D01*
X1460040Y1181192D01*
X1459151Y1182523D01*
X1439023Y1202651D01*
X1437692Y1203540D01*
X1436122Y1203853D01*
D02*
G37*
G36*
X311500Y1160134D02*
X309345Y1159705D01*
X307517Y1158484D01*
X306296Y1156657D01*
X305867Y1154501D01*
X306296Y1152346D01*
X307517Y1150518D01*
X309345Y1149297D01*
X311500Y1148868D01*
X313656Y1149297D01*
X315483Y1150518D01*
X316704Y1152346D01*
X317133Y1154501D01*
X316704Y1156657D01*
X315483Y1158484D01*
X313656Y1159705D01*
X311500Y1160134D01*
D02*
G37*
G36*
X388501Y1151802D02*
X386146Y1151492D01*
X383950Y1150583D01*
X382065Y1149136D01*
X380619Y1147251D01*
X380433Y1146803D01*
X369950D01*
X368380Y1146491D01*
X367049Y1145601D01*
X338099Y1116651D01*
X337210Y1115320D01*
X336897Y1113750D01*
Y1049200D01*
X332197Y1044500D01*
X331024Y1044986D01*
Y1047824D01*
X312976D01*
Y1029776D01*
X331024D01*
Y1034647D01*
X332250D01*
X333820Y1034959D01*
X335151Y1035849D01*
X343901Y1044599D01*
X344790Y1045930D01*
X345103Y1047500D01*
Y1112051D01*
X371650Y1138597D01*
X380433D01*
X380619Y1138149D01*
X382065Y1136264D01*
X383950Y1134818D01*
X386146Y1133908D01*
X388501Y1133598D01*
X390857Y1133908D01*
X393052Y1134818D01*
X394937Y1136264D01*
X396384Y1138149D01*
X397293Y1140344D01*
X397603Y1142700D01*
X397293Y1145056D01*
X396384Y1147251D01*
X394937Y1149136D01*
X393052Y1150583D01*
X390857Y1151492D01*
X388501Y1151802D01*
D02*
G37*
G36*
X311500Y1130132D02*
X309345Y1129703D01*
X307517Y1128482D01*
X306296Y1126654D01*
X305867Y1124499D01*
X306296Y1122343D01*
X307517Y1120516D01*
X309345Y1119295D01*
X311500Y1118866D01*
X313656Y1119295D01*
X315483Y1120516D01*
X316704Y1122343D01*
X317133Y1124499D01*
X316704Y1126654D01*
X315483Y1128482D01*
X313656Y1129703D01*
X311500Y1130132D01*
D02*
G37*
G36*
X388501Y1126402D02*
X386146Y1126092D01*
X383950Y1125183D01*
X382065Y1123736D01*
X380619Y1121851D01*
X380433Y1121403D01*
X372300D01*
X370730Y1121091D01*
X369399Y1120201D01*
X352099Y1102901D01*
X351209Y1101570D01*
X350897Y1100000D01*
Y1030949D01*
X337401Y1017453D01*
X330089D01*
X329882Y1017951D01*
X328436Y1019836D01*
X326551Y1021282D01*
X324356Y1022192D01*
X322000Y1022502D01*
X319644Y1022192D01*
X317449Y1021282D01*
X315564Y1019836D01*
X314118Y1017951D01*
X313208Y1015756D01*
X312898Y1013400D01*
X313208Y1011044D01*
X314118Y1008849D01*
X315564Y1006964D01*
X317449Y1005518D01*
X319644Y1004608D01*
X322000Y1004298D01*
X324356Y1004608D01*
X326551Y1005518D01*
X328436Y1006964D01*
X329882Y1008849D01*
X330047Y1009247D01*
X339100D01*
X340670Y1009559D01*
X342001Y1010449D01*
X357901Y1026349D01*
X358791Y1027680D01*
X359103Y1029250D01*
Y1098300D01*
X374000Y1113197D01*
X380433D01*
X380619Y1112749D01*
X382065Y1110864D01*
X383950Y1109418D01*
X386146Y1108508D01*
X388501Y1108198D01*
X390857Y1108508D01*
X393052Y1109418D01*
X394937Y1110864D01*
X396384Y1112749D01*
X397293Y1114944D01*
X397603Y1117300D01*
X397293Y1119656D01*
X396384Y1121851D01*
X394937Y1123736D01*
X393052Y1125183D01*
X390857Y1126092D01*
X388501Y1126402D01*
D02*
G37*
G36*
X1404000Y1192353D02*
X1402430Y1192040D01*
X1401099Y1191151D01*
X1400849Y1190901D01*
X1399960Y1189570D01*
X1399647Y1188000D01*
Y1101949D01*
X1395599Y1097901D01*
X1394709Y1096570D01*
X1394397Y1095000D01*
X1394709Y1093430D01*
X1395599Y1092099D01*
X1396930Y1091209D01*
X1398500Y1090897D01*
X1400070Y1091209D01*
X1401401Y1092099D01*
X1406651Y1097349D01*
X1407540Y1098680D01*
X1407853Y1100250D01*
Y1186993D01*
X1408103Y1188250D01*
X1407791Y1189820D01*
X1406901Y1191151D01*
X1405570Y1192040D01*
X1404000Y1192353D01*
D02*
G37*
G36*
X1248750Y1108853D02*
X1226250D01*
X1224680Y1108540D01*
X1223349Y1107651D01*
X1222459Y1106320D01*
X1222147Y1104750D01*
X1222459Y1103180D01*
X1223349Y1101849D01*
X1224680Y1100959D01*
X1226250Y1100647D01*
X1247051D01*
X1263599Y1084099D01*
X1264930Y1083210D01*
X1266500Y1082897D01*
X1268070Y1083210D01*
X1269401Y1084099D01*
X1270291Y1085430D01*
X1270603Y1087000D01*
X1270291Y1088570D01*
X1269401Y1089901D01*
X1251651Y1107651D01*
X1250320Y1108540D01*
X1248750Y1108853D01*
D02*
G37*
G36*
X388501Y1101002D02*
X386146Y1100692D01*
X383950Y1099783D01*
X382065Y1098336D01*
X380619Y1096451D01*
X380391Y1095902D01*
X379330Y1095691D01*
X377999Y1094801D01*
X366849Y1083651D01*
X365960Y1082320D01*
X365647Y1080750D01*
Y1013011D01*
X344689Y992053D01*
X330089D01*
X329882Y992551D01*
X328436Y994436D01*
X326551Y995882D01*
X324356Y996792D01*
X322000Y997102D01*
X319644Y996792D01*
X317449Y995882D01*
X315564Y994436D01*
X314118Y992551D01*
X313208Y990356D01*
X312898Y988000D01*
X313208Y985644D01*
X314118Y983449D01*
X315564Y981564D01*
X317449Y980118D01*
X319644Y979208D01*
X322000Y978898D01*
X324356Y979208D01*
X326551Y980118D01*
X328436Y981564D01*
X329882Y983449D01*
X330047Y983847D01*
X346389D01*
X347959Y984159D01*
X349290Y985049D01*
X372651Y1008410D01*
X373540Y1009741D01*
X373853Y1011311D01*
Y1079051D01*
X380603Y1085801D01*
X381870Y1085718D01*
X382065Y1085464D01*
X383950Y1084018D01*
X386146Y1083108D01*
X388501Y1082798D01*
X390857Y1083108D01*
X393052Y1084018D01*
X394937Y1085464D01*
X396384Y1087349D01*
X397293Y1089544D01*
X397603Y1091900D01*
X397293Y1094256D01*
X396384Y1096451D01*
X394937Y1098336D01*
X393052Y1099783D01*
X390857Y1100692D01*
X388501Y1101002D01*
D02*
G37*
G36*
X1162290Y1068540D02*
X1156520D01*
Y1063270D01*
X1162290D01*
Y1068540D01*
D02*
G37*
G36*
X1153980D02*
X1148210D01*
Y1063270D01*
X1153980D01*
Y1068540D01*
D02*
G37*
G36*
X705000Y1071853D02*
X703430Y1071541D01*
X702099Y1070651D01*
X701209Y1069320D01*
X700897Y1067750D01*
X701209Y1066180D01*
X702099Y1064849D01*
X702599Y1064349D01*
X703930Y1063459D01*
X705500Y1063147D01*
X856750D01*
X858320Y1063459D01*
X859651Y1064349D01*
X860540Y1065680D01*
X860853Y1067250D01*
X860540Y1068820D01*
X859651Y1070151D01*
X858320Y1071040D01*
X856750Y1071353D01*
X706851D01*
X706570Y1071541D01*
X705000Y1071853D01*
D02*
G37*
G36*
X1144540Y1068290D02*
X1138770D01*
Y1063020D01*
X1144540D01*
Y1068290D01*
D02*
G37*
G36*
X1136230D02*
X1130460D01*
Y1063020D01*
X1136230D01*
Y1068290D01*
D02*
G37*
G36*
X1537500Y1082853D02*
X1438250D01*
X1436680Y1082541D01*
X1435349Y1081651D01*
X1429801Y1076103D01*
X1418500D01*
X1416930Y1075790D01*
X1415599Y1074901D01*
X1414709Y1073570D01*
X1414397Y1072000D01*
X1414709Y1070430D01*
X1415599Y1069099D01*
X1416930Y1068210D01*
X1418500Y1067897D01*
X1431500D01*
X1433070Y1068210D01*
X1434401Y1069099D01*
X1439949Y1074647D01*
X1487484D01*
X1488710Y1074540D01*
X1488710Y1073377D01*
Y1068770D01*
X1495250D01*
X1501790D01*
X1501790Y1074540D01*
X1503016Y1074647D01*
X1503371D01*
X1503726Y1073524D01*
X1503726Y1073377D01*
Y1069469D01*
X1503459Y1069070D01*
X1503147Y1067500D01*
X1503459Y1065930D01*
X1503726Y1065531D01*
Y1061476D01*
X1514774D01*
Y1063897D01*
X1521096D01*
Y1062476D01*
X1532144D01*
Y1073377D01*
X1532144Y1073524D01*
X1532498Y1074647D01*
X1535801D01*
X1537096Y1073352D01*
Y1062476D01*
X1548144D01*
Y1073524D01*
X1546723D01*
Y1073630D01*
X1546411Y1075200D01*
X1545521Y1076531D01*
X1540401Y1081651D01*
X1539070Y1082541D01*
X1537500Y1082853D01*
D02*
G37*
G36*
X1414250Y1169353D02*
X1412680Y1169041D01*
X1411349Y1168151D01*
X1410459Y1166820D01*
X1410147Y1165250D01*
Y1087449D01*
X1403099Y1080401D01*
X1402209Y1079070D01*
X1401897Y1077500D01*
Y1066250D01*
X1402209Y1064680D01*
X1403099Y1063349D01*
X1404430Y1062459D01*
X1406000Y1062147D01*
X1407570Y1062459D01*
X1408901Y1063349D01*
X1409790Y1064680D01*
X1410103Y1066250D01*
Y1075801D01*
X1417151Y1082849D01*
X1418040Y1084180D01*
X1418353Y1085750D01*
Y1165250D01*
X1418040Y1166820D01*
X1417151Y1168151D01*
X1415820Y1169041D01*
X1414250Y1169353D01*
D02*
G37*
G36*
X1501790Y1066230D02*
X1496520D01*
Y1060460D01*
X1501790D01*
Y1066230D01*
D02*
G37*
G36*
X1493980D02*
X1488710D01*
Y1060460D01*
X1493980D01*
Y1066230D01*
D02*
G37*
G36*
X1162290Y1060730D02*
X1156520D01*
Y1055460D01*
X1162290D01*
Y1060730D01*
D02*
G37*
G36*
X1153980D02*
X1148210D01*
Y1055460D01*
X1153980D01*
Y1060730D01*
D02*
G37*
G36*
X1144540Y1060480D02*
X1138770D01*
Y1055210D01*
X1144540D01*
Y1060480D01*
D02*
G37*
G36*
X1136230D02*
X1130460D01*
Y1055210D01*
X1136230D01*
Y1060480D01*
D02*
G37*
G36*
X1386980Y1052742D02*
X1386381Y1052623D01*
X1384797Y1051564D01*
X1383738Y1049980D01*
X1383619Y1049381D01*
X1386980D01*
Y1052742D01*
D02*
G37*
G36*
X1404770Y1052631D02*
Y1049270D01*
X1408131D01*
X1408012Y1049869D01*
X1406953Y1051453D01*
X1405369Y1052512D01*
X1404770Y1052631D01*
D02*
G37*
G36*
X893500Y1084603D02*
X887250D01*
X885680Y1084290D01*
X884349Y1083401D01*
X855051Y1054103D01*
X715250D01*
X713680Y1053791D01*
X712349Y1052901D01*
X711460Y1051570D01*
X711147Y1050000D01*
X711460Y1048430D01*
X712349Y1047099D01*
X713680Y1046209D01*
X715250Y1045897D01*
X856750D01*
X858320Y1046209D01*
X859651Y1047099D01*
X888949Y1076397D01*
X893500D01*
X895070Y1076710D01*
X896401Y1077599D01*
X897290Y1078930D01*
X897603Y1080500D01*
X897290Y1082070D01*
X896401Y1083401D01*
X895070Y1084290D01*
X893500Y1084603D01*
D02*
G37*
G36*
X1408131Y1039230D02*
X1404770D01*
Y1035869D01*
X1405369Y1035988D01*
X1406953Y1037047D01*
X1408012Y1038631D01*
X1408131Y1039230D01*
D02*
G37*
G36*
X1389520Y1052742D02*
Y1048111D01*
X1388250D01*
Y1046841D01*
X1383619D01*
X1383738Y1046242D01*
X1384494Y1045111D01*
X1384776Y1044520D01*
X1384589Y1043269D01*
X1383988Y1042369D01*
X1383869Y1041770D01*
X1388500D01*
Y1040500D01*
X1389770D01*
Y1035869D01*
X1390369Y1035988D01*
X1391308Y1036615D01*
X1392250Y1036943D01*
X1393192Y1036615D01*
X1394131Y1035988D01*
X1394730Y1035869D01*
Y1040500D01*
X1397270D01*
Y1035869D01*
X1397869Y1035988D01*
X1398808Y1036615D01*
X1399750Y1036943D01*
X1400692Y1036615D01*
X1401631Y1035988D01*
X1402230Y1035869D01*
Y1040500D01*
X1403500D01*
Y1041770D01*
X1408131D01*
X1408012Y1042369D01*
X1407385Y1043307D01*
X1407057Y1044250D01*
X1407385Y1045192D01*
X1408012Y1046131D01*
X1408131Y1046730D01*
X1403500D01*
Y1048000D01*
X1402230D01*
Y1052631D01*
X1401631Y1052512D01*
X1400047Y1051453D01*
X1399203D01*
X1397619Y1052512D01*
X1397020Y1052631D01*
Y1048000D01*
X1394480D01*
Y1052631D01*
X1393881Y1052512D01*
X1392994Y1051919D01*
X1391703Y1051564D01*
X1390119Y1052623D01*
X1389520Y1052742D01*
D02*
G37*
G36*
X1387230Y1039230D02*
X1383869D01*
X1383988Y1038631D01*
X1385047Y1037047D01*
X1386631Y1035988D01*
X1387230Y1035869D01*
Y1039230D01*
D02*
G37*
G36*
X1500774Y1058024D02*
X1489726D01*
Y1045976D01*
X1491147D01*
Y1043449D01*
X1487801Y1040103D01*
X1481750D01*
X1480180Y1039790D01*
X1478849Y1038901D01*
X1477959Y1037570D01*
X1477647Y1036000D01*
X1477959Y1034430D01*
X1478849Y1033099D01*
X1480180Y1032209D01*
X1481750Y1031897D01*
X1489500D01*
X1491070Y1032209D01*
X1492401Y1033099D01*
X1498151Y1038849D01*
X1499041Y1040180D01*
X1499353Y1041750D01*
Y1045976D01*
X1500774D01*
Y1058024D01*
D02*
G37*
G36*
X947500Y1021103D02*
X777250D01*
X775680Y1020790D01*
X774349Y1019901D01*
X773849Y1019401D01*
X772960Y1018070D01*
X772647Y1016500D01*
X772960Y1014930D01*
X773849Y1013599D01*
X775180Y1012710D01*
X776750Y1012397D01*
X778320Y1012710D01*
X778601Y1012897D01*
X947500D01*
X949070Y1013210D01*
X950401Y1014099D01*
X951291Y1015430D01*
X951603Y1017000D01*
X951291Y1018570D01*
X950401Y1019901D01*
X949070Y1020790D01*
X947500Y1021103D01*
D02*
G37*
G36*
X1514774Y1058024D02*
X1503726D01*
Y1045976D01*
X1505675D01*
X1505840Y1045757D01*
X1505545Y1044033D01*
X1505349Y1043901D01*
X1486301Y1024853D01*
X1433000D01*
X1431430Y1024540D01*
X1430099Y1023651D01*
X1429209Y1022320D01*
X1428897Y1020750D01*
X1429209Y1019180D01*
X1430099Y1017849D01*
X1431430Y1016960D01*
X1433000Y1016647D01*
X1488000D01*
X1489570Y1016960D01*
X1490901Y1017849D01*
X1509949Y1036897D01*
X1517622D01*
X1517976Y1035774D01*
X1517976Y1035627D01*
Y1011726D01*
X1551024D01*
Y1035774D01*
X1538363D01*
X1538238Y1037044D01*
X1539070Y1037209D01*
X1540401Y1038099D01*
X1545521Y1043219D01*
X1546411Y1044550D01*
X1546723Y1046120D01*
Y1046476D01*
X1548144D01*
Y1057524D01*
X1537096D01*
Y1046476D01*
X1537096Y1046476D01*
X1537096D01*
X1536291Y1045593D01*
X1535801Y1045103D01*
X1515682D01*
X1514774Y1045976D01*
X1514774Y1046373D01*
Y1047897D01*
X1521096D01*
Y1046476D01*
X1532144D01*
Y1057524D01*
X1521096D01*
Y1056103D01*
X1514774D01*
Y1058024D01*
D02*
G37*
G36*
X746539Y1017590D02*
X738769D01*
Y1008571D01*
X746539D01*
Y1017590D01*
D02*
G37*
G36*
X451539D02*
X443769D01*
Y1008571D01*
X451539D01*
Y1017590D01*
D02*
G37*
G36*
X736229D02*
X728459D01*
Y1008571D01*
X736229D01*
Y1017590D01*
D02*
G37*
G36*
X441229D02*
X433459D01*
Y1008571D01*
X441229D01*
Y1017590D01*
D02*
G37*
G36*
X599039D02*
X591269D01*
Y1008571D01*
X599039D01*
Y1017590D01*
D02*
G37*
G36*
X588729D02*
X580959D01*
Y1008571D01*
X588729D01*
Y1017590D01*
D02*
G37*
G36*
X1516040Y1004790D02*
X1506770D01*
Y999520D01*
X1516040D01*
Y1004790D01*
D02*
G37*
G36*
X1504230D02*
X1494960D01*
Y999520D01*
X1504230D01*
Y1004790D01*
D02*
G37*
G36*
X842774Y1000024D02*
X831726D01*
Y998103D01*
X816654D01*
Y999524D01*
X805606D01*
Y988476D01*
X816654D01*
Y989897D01*
X831726D01*
Y987976D01*
X842774D01*
Y1000024D01*
D02*
G37*
G36*
X746539Y1006031D02*
X738769D01*
Y997011D01*
X746539D01*
Y1006031D01*
D02*
G37*
G36*
X736229D02*
X728459D01*
Y997011D01*
X736229D01*
Y1006031D01*
D02*
G37*
G36*
X599039Y1006031D02*
X591269D01*
Y997011D01*
X599039D01*
Y1006031D01*
D02*
G37*
G36*
X588729D02*
X580959D01*
Y997011D01*
X588729D01*
Y1006031D01*
D02*
G37*
G36*
X451539Y1006031D02*
X443769D01*
Y997011D01*
X451539D01*
Y1006031D01*
D02*
G37*
G36*
X441229D02*
X433459D01*
Y997011D01*
X441229D01*
Y1006031D01*
D02*
G37*
G36*
X857790Y1001040D02*
X852520D01*
Y995270D01*
X857790D01*
Y1001040D01*
D02*
G37*
G36*
X849980D02*
X844710D01*
Y995270D01*
X849980D01*
Y1001040D01*
D02*
G37*
G36*
X857790Y992730D02*
X852520D01*
Y986960D01*
X857790D01*
Y992730D01*
D02*
G37*
G36*
X849980D02*
X844710D01*
Y986960D01*
X849980D01*
Y992730D01*
D02*
G37*
G36*
X800654Y999524D02*
X789606D01*
Y995916D01*
X789357Y995750D01*
X789357Y995750D01*
X777693Y984086D01*
X777607Y984103D01*
X776037Y983791D01*
X774706Y982901D01*
X773816Y981570D01*
X773504Y980000D01*
X773816Y978430D01*
X774706Y977099D01*
X776037Y976209D01*
X777607Y975897D01*
X779177Y976209D01*
X780508Y977099D01*
X781397Y978430D01*
X781710Y980000D01*
X781693Y980086D01*
X790083Y988476D01*
X800654D01*
Y999524D01*
D02*
G37*
G36*
X1400641Y994389D02*
X1391321D01*
X1390561Y994238D01*
X1389916Y993808D01*
X1389486Y993164D01*
X1389335Y992404D01*
X1389419Y991980D01*
X1389335Y991556D01*
X1389419Y991133D01*
X1389335Y990709D01*
X1389355Y990609D01*
X1389069Y990419D01*
X1388639Y989774D01*
X1388487Y989015D01*
X1388572Y988591D01*
X1388487Y988167D01*
X1388572Y987743D01*
X1388487Y987320D01*
X1388572Y986896D01*
X1388487Y986472D01*
X1388507Y986373D01*
X1388222Y986182D01*
X1387791Y985538D01*
X1387688Y985021D01*
X1387171Y984918D01*
X1386527Y984487D01*
X1386349Y984222D01*
X1386237D01*
X1385477Y984070D01*
X1384832Y983640D01*
X1384655Y983374D01*
X1383695D01*
X1383271Y983290D01*
X1382847Y983374D01*
X1382734D01*
X1382557Y983640D01*
X1382049Y983979D01*
X1381709Y984487D01*
X1381201Y984827D01*
X1380862Y985335D01*
X1380218Y985765D01*
X1379458Y985916D01*
X1379345D01*
X1379167Y986182D01*
X1378660Y986521D01*
X1378320Y987029D01*
X1377676Y987460D01*
X1376916Y987611D01*
X1374374D01*
X1373614Y987460D01*
X1372970Y987029D01*
X1372539Y986385D01*
X1372437Y985868D01*
X1371919Y985765D01*
X1371275Y985335D01*
X1370845Y984690D01*
X1370694Y983931D01*
X1370137Y983374D01*
X1369377Y983223D01*
X1368733Y982793D01*
X1368303Y982148D01*
X1368152Y981388D01*
X1368171Y981289D01*
X1367886Y981098D01*
X1367455Y980454D01*
X1367304Y979694D01*
X1367455Y978934D01*
X1367886Y978290D01*
X1368171Y978099D01*
X1368152Y977999D01*
X1368303Y977239D01*
X1368733Y976595D01*
X1369019Y976404D01*
X1368999Y976304D01*
X1369150Y975545D01*
X1369581Y974900D01*
X1370089Y974561D01*
X1370428Y974053D01*
X1370713Y973862D01*
X1370694Y973763D01*
X1370845Y973003D01*
X1371275Y972358D01*
X1371388Y972283D01*
X1371292Y970941D01*
X1371275Y970930D01*
X1370845Y970286D01*
X1370694Y969526D01*
X1370778Y969102D01*
X1370694Y968679D01*
X1370713Y968579D01*
X1370428Y968388D01*
X1369997Y967744D01*
X1369904Y967275D01*
X1369290D01*
X1368530Y967124D01*
X1367886Y966693D01*
X1367708Y966428D01*
X1365901D01*
X1365141Y966277D01*
X1364497Y965846D01*
X1364319Y965580D01*
X1362511D01*
X1361752Y965429D01*
X1361107Y964999D01*
X1360677Y964355D01*
X1360526Y963595D01*
X1360610Y963171D01*
X1360526Y962747D01*
X1360610Y962324D01*
X1360526Y961900D01*
X1360610Y961476D01*
X1360526Y961053D01*
X1360610Y960629D01*
X1360526Y960205D01*
X1360610Y959782D01*
X1360526Y959358D01*
X1360610Y958934D01*
X1360526Y958511D01*
X1360610Y958087D01*
X1360526Y957663D01*
X1360610Y957240D01*
X1360526Y956816D01*
X1360610Y956392D01*
X1360526Y955969D01*
X1360610Y955545D01*
X1360526Y955121D01*
X1360677Y954361D01*
X1361107Y953717D01*
X1361752Y953287D01*
X1362511Y953136D01*
X1363472D01*
X1363649Y952870D01*
X1364294Y952439D01*
X1365053Y952288D01*
X1367708D01*
X1367886Y952022D01*
X1368530Y951592D01*
X1369290Y951441D01*
X1369846Y950885D01*
X1369997Y950125D01*
X1370428Y949481D01*
X1370713Y949290D01*
X1370694Y949190D01*
X1370778Y948766D01*
X1370694Y948343D01*
X1370845Y947583D01*
X1371275Y946939D01*
X1371388Y946863D01*
Y945586D01*
X1371275Y945510D01*
X1370936Y945002D01*
X1370428Y944663D01*
X1369997Y944019D01*
X1369846Y943259D01*
X1369866Y943159D01*
X1369581Y942968D01*
X1369241Y942460D01*
X1368733Y942121D01*
X1368303Y941477D01*
X1368152Y940717D01*
X1368171Y940617D01*
X1367886Y940426D01*
X1367455Y939782D01*
X1367304Y939022D01*
X1367388Y938598D01*
X1367304Y938175D01*
X1367455Y937415D01*
X1367886Y936771D01*
X1368394Y936431D01*
X1368733Y935923D01*
X1369241Y935584D01*
X1369581Y935076D01*
X1370089Y934737D01*
X1370428Y934229D01*
X1370936Y933889D01*
X1371275Y933381D01*
X1371783Y933042D01*
X1372122Y932534D01*
X1372630Y932195D01*
X1372970Y931687D01*
X1373614Y931256D01*
X1374374Y931105D01*
X1376916D01*
X1377676Y931256D01*
X1378320Y931687D01*
X1378498Y931952D01*
X1378611D01*
X1379371Y932104D01*
X1380015Y932534D01*
X1380354Y933042D01*
X1380862Y933381D01*
X1381201Y933889D01*
X1381709Y934229D01*
X1381732Y934262D01*
X1382847Y934618D01*
X1383963Y934262D01*
X1383985Y934229D01*
X1384629Y933798D01*
X1385389Y933647D01*
X1386237D01*
X1386996Y933798D01*
X1387641Y934229D01*
X1387980Y934737D01*
X1388488Y935076D01*
X1388919Y935720D01*
X1389070Y936480D01*
X1389050Y936580D01*
X1389335Y936771D01*
X1389766Y937415D01*
X1389917Y938175D01*
X1389833Y938598D01*
X1389917Y939022D01*
X1389897Y939122D01*
X1390183Y939313D01*
X1390613Y939957D01*
X1390764Y940717D01*
X1390680Y941141D01*
X1390764Y941564D01*
X1390744Y941664D01*
X1391030Y941855D01*
X1391461Y942499D01*
X1391612Y943259D01*
X1391592Y943359D01*
X1391877Y943549D01*
X1392308Y944193D01*
X1392459Y944953D01*
X1392439Y945053D01*
X1392725Y945244D01*
X1393155Y945888D01*
X1393306Y946648D01*
X1393222Y947072D01*
X1393306Y947495D01*
X1393286Y947595D01*
X1393572Y947786D01*
X1394003Y948430D01*
X1394154Y949190D01*
X1394069Y949614D01*
X1394154Y950037D01*
X1394003Y950797D01*
X1393572Y951442D01*
X1393064Y951781D01*
X1392725Y952289D01*
X1392217Y952628D01*
X1391877Y953136D01*
X1391369Y953476D01*
X1391030Y953984D01*
X1390522Y954323D01*
X1390183Y954831D01*
X1389897Y955022D01*
X1389917Y955121D01*
X1389766Y955881D01*
X1389335Y956525D01*
X1389050Y956716D01*
X1389070Y956816D01*
X1388985Y957240D01*
X1389070Y957663D01*
X1388919Y958423D01*
X1388488Y959649D01*
X1388919Y960293D01*
X1389070Y961053D01*
X1388985Y961476D01*
X1389070Y961900D01*
X1389050Y962000D01*
X1389335Y962190D01*
X1389766Y962835D01*
X1389917Y963595D01*
X1389897Y963694D01*
X1390183Y963885D01*
X1390522Y964393D01*
X1391030Y964732D01*
X1391369Y965240D01*
X1391877Y965580D01*
X1392055Y965845D01*
X1392168D01*
X1392928Y965997D01*
X1393572Y966427D01*
X1393750Y966693D01*
X1398212D01*
X1398390Y966427D01*
X1399034Y965997D01*
X1399794Y965845D01*
X1399907D01*
X1400084Y965580D01*
X1400592Y965240D01*
X1400932Y964732D01*
X1401440Y964393D01*
X1401779Y963885D01*
X1402065Y963694D01*
X1402045Y963595D01*
X1402196Y962835D01*
X1402626Y962190D01*
X1402912Y962000D01*
X1402892Y961900D01*
X1402976Y961476D01*
X1402892Y961053D01*
X1403043Y960293D01*
X1403372Y959358D01*
X1403043Y958423D01*
X1402892Y957663D01*
X1402976Y957240D01*
X1402892Y956816D01*
X1402976Y956392D01*
X1402892Y955969D01*
X1402912Y955869D01*
X1402626Y955678D01*
X1402287Y955170D01*
X1401779Y954831D01*
X1401440Y954323D01*
X1400932Y953984D01*
X1400592Y953476D01*
X1400084Y953136D01*
X1399745Y952628D01*
X1399237Y952289D01*
X1398898Y951781D01*
X1398390Y951442D01*
X1397959Y950797D01*
X1397808Y950037D01*
X1397892Y949614D01*
X1397808Y949190D01*
X1397959Y948430D01*
X1398390Y947786D01*
X1398675Y947595D01*
X1398655Y947495D01*
X1398806Y946736D01*
X1399237Y946091D01*
X1399523Y945900D01*
X1399503Y945801D01*
X1399654Y945041D01*
X1400084Y944397D01*
X1400370Y944206D01*
X1400350Y944106D01*
X1400434Y943682D01*
X1400350Y943259D01*
X1400501Y942499D01*
X1400932Y941855D01*
X1401217Y941664D01*
X1401197Y941564D01*
X1401282Y941141D01*
X1401197Y940717D01*
X1401349Y939957D01*
X1401779Y939313D01*
X1402065Y939122D01*
X1402045Y939022D01*
X1402196Y938262D01*
X1402626Y937618D01*
X1402912Y937427D01*
X1402892Y937327D01*
X1402976Y936904D01*
X1402892Y936480D01*
X1403043Y935720D01*
X1403474Y935076D01*
X1403981Y934737D01*
X1404321Y934229D01*
X1404965Y933798D01*
X1405725Y933647D01*
X1406572D01*
X1407332Y933798D01*
X1407977Y934229D01*
X1407999Y934262D01*
X1409114Y934618D01*
X1410230Y934262D01*
X1410252Y934229D01*
X1410760Y933889D01*
X1411100Y933381D01*
X1411744Y932951D01*
X1412504Y932800D01*
X1412617D01*
X1412794Y932534D01*
X1413302Y932195D01*
X1413642Y931687D01*
X1414286Y931256D01*
X1415046Y931105D01*
X1417588D01*
X1418348Y931256D01*
X1418992Y931687D01*
X1419331Y932195D01*
X1419839Y932534D01*
X1420179Y933042D01*
X1420686Y933381D01*
X1421026Y933889D01*
X1421534Y934229D01*
X1421873Y934737D01*
X1422381Y935076D01*
X1422720Y935584D01*
X1423228Y935923D01*
X1423568Y936431D01*
X1424076Y936771D01*
X1424506Y937415D01*
X1424657Y938175D01*
X1424573Y938598D01*
X1424657Y939022D01*
X1424573Y939446D01*
X1424657Y939870D01*
X1424506Y940629D01*
X1424076Y941274D01*
X1423568Y941613D01*
X1423228Y942121D01*
X1422943Y942312D01*
X1422963Y942411D01*
X1422812Y943171D01*
X1422381Y943816D01*
X1421873Y944155D01*
X1421534Y944663D01*
X1421026Y945002D01*
X1420686Y945510D01*
X1420573Y945586D01*
Y946863D01*
X1420686Y946939D01*
X1421117Y947583D01*
X1421268Y948343D01*
X1421248Y948442D01*
X1421534Y948633D01*
X1421964Y949277D01*
X1422115Y950037D01*
X1422047Y950383D01*
X1422556Y951110D01*
X1423202Y951441D01*
X1423519D01*
X1424279Y951592D01*
X1424923Y952022D01*
X1425101Y952288D01*
X1427756D01*
X1428516Y952439D01*
X1429160Y952870D01*
X1429337Y953136D01*
X1429450D01*
X1430210Y953287D01*
X1430854Y953717D01*
X1431285Y954361D01*
X1431436Y955121D01*
X1431352Y955545D01*
X1431436Y955969D01*
X1431352Y956392D01*
X1431436Y956816D01*
X1431352Y957240D01*
X1431436Y957663D01*
X1431352Y958087D01*
X1431436Y958511D01*
X1431352Y958934D01*
X1431436Y959358D01*
X1431352Y959782D01*
X1431436Y960205D01*
X1431352Y960629D01*
X1431436Y961053D01*
X1431352Y961476D01*
X1431436Y961900D01*
X1431352Y962324D01*
X1431436Y962747D01*
X1431352Y963171D01*
X1431436Y963595D01*
X1431285Y964355D01*
X1430854Y964999D01*
X1430210Y965429D01*
X1429450Y965580D01*
X1427643D01*
X1427465Y965846D01*
X1426821Y966277D01*
X1426061Y966428D01*
X1424253D01*
X1424076Y966693D01*
X1423432Y967124D01*
X1423274Y967155D01*
X1422115Y967831D01*
X1421964Y968591D01*
X1421534Y969235D01*
X1421248Y969426D01*
X1421268Y969526D01*
X1421117Y970286D01*
X1420686Y970930D01*
X1420573Y971006D01*
X1420573Y972283D01*
X1420686Y972358D01*
X1421117Y973003D01*
X1421268Y973763D01*
X1421248Y973862D01*
X1421534Y974053D01*
X1421873Y974561D01*
X1422381Y974900D01*
X1422812Y975545D01*
X1422963Y976304D01*
X1422943Y976404D01*
X1423228Y976595D01*
X1423568Y977103D01*
X1424076Y977442D01*
X1424506Y978087D01*
X1424657Y978847D01*
X1424573Y979270D01*
X1424657Y979694D01*
X1424573Y980117D01*
X1424657Y980541D01*
X1424506Y981301D01*
X1424076Y981945D01*
X1423568Y982285D01*
X1423228Y982793D01*
X1422720Y983132D01*
X1422381Y983640D01*
X1421873Y983979D01*
X1421534Y984487D01*
X1421026Y984827D01*
X1420686Y985335D01*
X1420179Y985674D01*
X1419839Y986182D01*
X1419331Y986521D01*
X1418992Y987029D01*
X1418348Y987460D01*
X1417588Y987611D01*
X1415893D01*
X1415133Y987460D01*
X1414489Y987029D01*
X1414311Y986764D01*
X1414198D01*
X1413438Y986612D01*
X1412794Y986182D01*
X1412455Y985674D01*
X1411947Y985335D01*
X1411769Y985069D01*
X1411656D01*
X1410896Y984918D01*
X1410252Y984487D01*
X1409913Y983979D01*
X1409405Y983640D01*
X1409227Y983374D01*
X1409114D01*
X1408691Y983290D01*
X1408267Y983374D01*
X1407307D01*
X1407129Y983640D01*
X1406485Y984070D01*
X1405725Y984222D01*
X1405612D01*
X1405435Y984487D01*
X1404790Y984918D01*
X1404678Y984940D01*
X1404271Y986216D01*
X1404322Y986472D01*
X1404170Y987232D01*
X1403740Y987877D01*
X1403454Y988067D01*
X1403474Y988167D01*
X1403390Y988591D01*
X1403474Y989015D01*
X1403390Y989438D01*
X1403474Y989862D01*
X1403390Y990285D01*
X1403474Y990709D01*
X1403323Y991469D01*
X1402893Y992113D01*
X1402607Y992304D01*
X1402627Y992404D01*
X1402476Y993164D01*
X1402045Y993808D01*
X1401401Y994238D01*
X1400641Y994389D01*
D02*
G37*
G36*
X1516040Y996980D02*
X1505500D01*
X1494960D01*
Y991887D01*
X1494960Y991887D01*
Y991710D01*
X1495072Y991643D01*
X1495267Y990042D01*
X1495078Y989853D01*
X1488500D01*
X1486930Y989540D01*
X1485599Y988651D01*
X1484849Y987901D01*
X1483960Y986570D01*
X1483647Y985000D01*
X1483960Y983430D01*
X1484849Y982099D01*
X1486180Y981209D01*
X1487750Y980897D01*
X1489320Y981209D01*
X1489975Y981647D01*
X1495976D01*
Y980226D01*
X1515024D01*
X1515024Y991097D01*
X1516040Y991710D01*
X1516040Y991887D01*
X1516040Y991887D01*
Y996980D01*
D02*
G37*
G36*
X842774Y980524D02*
X831726D01*
Y978603D01*
X816754D01*
Y980024D01*
X805706D01*
Y968976D01*
X816754D01*
Y970397D01*
X831726D01*
Y968476D01*
X842774D01*
Y980524D01*
D02*
G37*
G36*
X1078500Y988603D02*
X901400D01*
X899830Y988290D01*
X898499Y987401D01*
X893999Y982901D01*
X893110Y981570D01*
X892797Y980000D01*
X893110Y978430D01*
X893999Y977099D01*
X895330Y976209D01*
X896900Y975897D01*
X898470Y976209D01*
X899801Y977099D01*
X903100Y980397D01*
X1078500D01*
X1080070Y980710D01*
X1081401Y981599D01*
X1082290Y982930D01*
X1082603Y984500D01*
X1082290Y986070D01*
X1081401Y987401D01*
X1080070Y988290D01*
X1078500Y988603D01*
D02*
G37*
G36*
X857790Y981540D02*
X852520D01*
Y975770D01*
X857790D01*
Y981540D01*
D02*
G37*
G36*
X849980D02*
X844710D01*
Y975770D01*
X849980D01*
Y981540D01*
D02*
G37*
G36*
X800754Y980024D02*
X789706D01*
Y977328D01*
X787107D01*
X786024Y977113D01*
X785107Y976500D01*
X777693Y969086D01*
X777607Y969103D01*
X776037Y968791D01*
X774706Y967901D01*
X773816Y966570D01*
X773504Y965000D01*
X773816Y963430D01*
X774706Y962099D01*
X776037Y961209D01*
X777607Y960897D01*
X779177Y961209D01*
X780508Y962099D01*
X781397Y963430D01*
X781710Y965000D01*
X781693Y965086D01*
X788278Y971672D01*
X789706D01*
Y968976D01*
X800754D01*
Y980024D01*
D02*
G37*
G36*
X857790Y973230D02*
X852520D01*
Y967460D01*
X857790D01*
Y973230D01*
D02*
G37*
G36*
X849980D02*
X844710D01*
Y967460D01*
X849980D01*
Y973230D01*
D02*
G37*
G36*
X323270Y972559D02*
Y963870D01*
X331959D01*
X331782Y965221D01*
X330770Y967663D01*
X329161Y969761D01*
X327063Y971370D01*
X324621Y972382D01*
X323270Y972559D01*
D02*
G37*
G36*
X320730Y972559D02*
X319379Y972382D01*
X316937Y971370D01*
X314839Y969761D01*
X313230Y967663D01*
X312218Y965221D01*
X312041Y963870D01*
X320730D01*
Y972559D01*
D02*
G37*
G36*
X842774Y961774D02*
X831726D01*
Y959853D01*
X816754D01*
Y961024D01*
X805706D01*
Y949976D01*
X816754D01*
Y951647D01*
X831726D01*
Y949726D01*
X842774D01*
Y961774D01*
D02*
G37*
G36*
X800754Y961024D02*
X789706D01*
Y958328D01*
X777982D01*
X777290Y958791D01*
X775720Y959103D01*
X774150Y958791D01*
X772819Y957901D01*
X771929Y956570D01*
X771617Y955000D01*
X771929Y953430D01*
X772819Y952099D01*
X774150Y951209D01*
X775720Y950897D01*
X777290Y951209D01*
X778621Y952099D01*
X779004Y952672D01*
X789706D01*
Y949976D01*
X800754D01*
Y961024D01*
D02*
G37*
G36*
X857790Y962790D02*
X852520D01*
Y957020D01*
X857790D01*
Y962790D01*
D02*
G37*
G36*
X849980D02*
X844710D01*
Y957020D01*
X849980D01*
Y962790D01*
D02*
G37*
G36*
X320730Y961330D02*
X312041D01*
X312218Y959979D01*
X313230Y957537D01*
X314839Y955439D01*
X316937Y953830D01*
X319379Y952818D01*
X320730Y952641D01*
Y961330D01*
D02*
G37*
G36*
X331959D02*
X323270D01*
Y952641D01*
X324621Y952818D01*
X327063Y953830D01*
X329161Y955439D01*
X330770Y957537D01*
X331782Y959979D01*
X331959Y961330D01*
D02*
G37*
G36*
X857790Y954480D02*
X852520D01*
Y948710D01*
X857790D01*
Y954480D01*
D02*
G37*
G36*
X849980D02*
X844710D01*
Y948710D01*
X849980D01*
Y954480D01*
D02*
G37*
G36*
X1551024Y972274D02*
X1517976D01*
Y948226D01*
X1551024D01*
Y972274D01*
D02*
G37*
G36*
X842774Y943524D02*
X831726D01*
Y941603D01*
X816754D01*
Y942774D01*
X805706D01*
Y931726D01*
X816754D01*
Y933397D01*
X831726D01*
Y931476D01*
X842774D01*
Y943524D01*
D02*
G37*
G36*
X857790Y944540D02*
X852520D01*
Y938770D01*
X857790D01*
Y944540D01*
D02*
G37*
G36*
X849980D02*
X844710D01*
Y938770D01*
X849980D01*
Y944540D01*
D02*
G37*
G36*
X775720Y944103D02*
X774150Y943791D01*
X772819Y942901D01*
X771929Y941570D01*
X771617Y940000D01*
X771929Y938430D01*
X772819Y937099D01*
X774150Y936209D01*
X775720Y935897D01*
X775806Y935914D01*
X776470Y935250D01*
X777388Y934637D01*
X778470Y934422D01*
X789706D01*
Y931726D01*
X800754D01*
Y942774D01*
X789706D01*
Y940078D01*
X779807D01*
X779510Y941570D01*
X778621Y942901D01*
X777290Y943791D01*
X775720Y944103D01*
D02*
G37*
G36*
X857790Y936230D02*
X852520D01*
Y930460D01*
X857790D01*
Y936230D01*
D02*
G37*
G36*
X849980D02*
X844710D01*
Y930460D01*
X849980D01*
Y936230D01*
D02*
G37*
G36*
X746539Y938089D02*
X738769D01*
Y929069D01*
X746539D01*
Y938089D01*
D02*
G37*
G36*
X451539D02*
X443769D01*
Y929069D01*
X451539D01*
Y938089D01*
D02*
G37*
G36*
X736229D02*
X728459D01*
Y929069D01*
X736229D01*
Y938089D01*
D02*
G37*
G36*
X441229D02*
X433459D01*
Y929069D01*
X441229D01*
Y938089D01*
D02*
G37*
G36*
X599039D02*
X591269D01*
Y929069D01*
X599039D01*
Y938089D01*
D02*
G37*
G36*
X588729D02*
X580959D01*
Y929069D01*
X588729D01*
Y938089D01*
D02*
G37*
G36*
X1341328Y919825D02*
X1336244D01*
X1335484Y919674D01*
X1334840Y919243D01*
X1334663Y918978D01*
X1334550D01*
X1333790Y918826D01*
X1333004Y918602D01*
X1332565Y919243D01*
X1331920Y919674D01*
X1331160Y919825D01*
X1328618D01*
X1327858Y919674D01*
X1327214Y919243D01*
X1326784Y918599D01*
X1326633Y917839D01*
X1326678Y917611D01*
X1326330Y916931D01*
X1326236Y916806D01*
X1325448Y916435D01*
X1322687D01*
X1321927Y916284D01*
X1321642Y916094D01*
X1321572Y916097D01*
X1320559Y916488D01*
X1320369Y916655D01*
X1320436Y916992D01*
X1320285Y917752D01*
X1319855Y918396D01*
X1319210Y918826D01*
X1318450Y918978D01*
X1318338D01*
X1318160Y919243D01*
X1317516Y919674D01*
X1316756Y919825D01*
X1314214D01*
X1313454Y919674D01*
X1312810Y919243D01*
X1312379Y918599D01*
X1312228Y917839D01*
X1312018Y917613D01*
X1310534Y917549D01*
X1310026Y917888D01*
X1309687Y918396D01*
X1309043Y918826D01*
X1308282Y918978D01*
X1308170D01*
X1307992Y919243D01*
X1307348Y919674D01*
X1306588Y919825D01*
X1302351D01*
X1301591Y919674D01*
X1300947Y919243D01*
X1300770Y918978D01*
X1300657D01*
X1299897Y918826D01*
X1299252Y918396D01*
X1298913Y917888D01*
X1298405Y917549D01*
X1297975Y916904D01*
X1297823Y916144D01*
X1297908Y915721D01*
X1297823Y915297D01*
X1297908Y914873D01*
X1297823Y914450D01*
X1297908Y914026D01*
X1297823Y913602D01*
X1297908Y913179D01*
X1297823Y912755D01*
X1297908Y912331D01*
X1297823Y911908D01*
X1297908Y911484D01*
X1297823Y911060D01*
X1297975Y910300D01*
X1298405Y909656D01*
X1298691Y909465D01*
X1298671Y909366D01*
X1298822Y908606D01*
X1299252Y907962D01*
X1299760Y907622D01*
X1300100Y907114D01*
X1300385Y906923D01*
X1300365Y906824D01*
X1300517Y906064D01*
X1300947Y905420D01*
X1301455Y905080D01*
X1301794Y904572D01*
X1302439Y904142D01*
X1303199Y903991D01*
X1306588D01*
X1307348Y904142D01*
X1307992Y904572D01*
X1308423Y905217D01*
X1308574Y905976D01*
X1308423Y906736D01*
X1307992Y907381D01*
X1307484Y907720D01*
X1307428Y907805D01*
X1307989Y909073D01*
X1307990Y909075D01*
X1308282D01*
X1309043Y909226D01*
X1309687Y909656D01*
X1310026Y910164D01*
X1310534Y910503D01*
X1312018Y910439D01*
X1312228Y910213D01*
X1312312Y909789D01*
X1312228Y909366D01*
X1312312Y908942D01*
X1312228Y908518D01*
X1312312Y908095D01*
X1312228Y907671D01*
X1312312Y907247D01*
X1312228Y906824D01*
X1312312Y906400D01*
X1312228Y905976D01*
X1312379Y905217D01*
X1312810Y904572D01*
X1313454Y904142D01*
X1314214Y903991D01*
X1316756D01*
X1317516Y904142D01*
X1318160Y904572D01*
X1318591Y905217D01*
X1318742Y905976D01*
X1318657Y906400D01*
X1318742Y906824D01*
X1318657Y907247D01*
X1318742Y907671D01*
X1318657Y908095D01*
X1318742Y908518D01*
X1318657Y908942D01*
X1318742Y909366D01*
X1318657Y909789D01*
X1318742Y910213D01*
X1318657Y910637D01*
X1318742Y911060D01*
X1318657Y911484D01*
X1318742Y911908D01*
X1318657Y912331D01*
X1318742Y912755D01*
X1319210Y913462D01*
X1319557Y913694D01*
X1320338Y913691D01*
X1321049Y913395D01*
X1321283Y913046D01*
X1321791Y912706D01*
X1322130Y912198D01*
X1322638Y911859D01*
X1322978Y911351D01*
X1323327Y911117D01*
X1323648Y910348D01*
X1323498Y909719D01*
X1323327Y909309D01*
X1322978Y909075D01*
X1322638Y908567D01*
X1322130Y908228D01*
X1321791Y907720D01*
X1321283Y907381D01*
X1320852Y906736D01*
X1320701Y905976D01*
X1320852Y905217D01*
X1321283Y904572D01*
X1321927Y904142D01*
X1322687Y903991D01*
X1326076D01*
X1326836Y904142D01*
X1327771Y904470D01*
X1328706Y904142D01*
X1329466Y903991D01*
X1332008D01*
X1332768Y904142D01*
X1333279Y904483D01*
X1333790Y904142D01*
X1334550Y903991D01*
X1343870D01*
X1344630Y904142D01*
X1345274Y904572D01*
X1345705Y905217D01*
X1345856Y905976D01*
X1345772Y906400D01*
X1345856Y906824D01*
X1345705Y907584D01*
X1345274Y908228D01*
X1344767Y908567D01*
X1344427Y909075D01*
X1343919Y909415D01*
X1343580Y909922D01*
X1343072Y910262D01*
X1342732Y910770D01*
X1342224Y911109D01*
X1341885Y911617D01*
X1341377Y911957D01*
X1341038Y912465D01*
X1340530Y912804D01*
X1340361Y913056D01*
X1340806Y914014D01*
X1340991Y914226D01*
X1341328Y914158D01*
X1343023D01*
X1343783Y914310D01*
X1344427Y914740D01*
X1344858Y915384D01*
X1345009Y916144D01*
X1344858Y916904D01*
X1344427Y917549D01*
X1343919Y917888D01*
X1343580Y918396D01*
X1343072Y918735D01*
X1342732Y919243D01*
X1342088Y919674D01*
X1341328Y919825D01*
D02*
G37*
G36*
X746539Y926529D02*
X738769D01*
Y917510D01*
X746539D01*
Y926529D01*
D02*
G37*
G36*
X736229D02*
X728459D01*
Y917510D01*
X736229D01*
Y926529D01*
D02*
G37*
G36*
X599039Y926529D02*
X591269D01*
Y917510D01*
X599039D01*
Y926529D01*
D02*
G37*
G36*
X588729D02*
X580959D01*
Y917510D01*
X588729D01*
Y926529D01*
D02*
G37*
G36*
X451539Y926529D02*
X443769D01*
Y917510D01*
X451539D01*
Y926529D01*
D02*
G37*
G36*
X441229D02*
X433459D01*
Y917510D01*
X441229D01*
Y926529D01*
D02*
G37*
G36*
X1424366Y919825D02*
X1420130D01*
X1419370Y919674D01*
X1418725Y919243D01*
X1418295Y918599D01*
X1418144Y917839D01*
X1418228Y917415D01*
X1418144Y916992D01*
X1418089Y916922D01*
X1417807Y916720D01*
X1416741Y916705D01*
X1416155Y917140D01*
X1416033Y917752D01*
X1415603Y918396D01*
X1415095Y918735D01*
X1414755Y919243D01*
X1414111Y919674D01*
X1413351Y919825D01*
X1409962D01*
X1409202Y919674D01*
X1408558Y919243D01*
X1408127Y918599D01*
X1407976Y917839D01*
X1408060Y917415D01*
X1408044Y917336D01*
X1407724Y916863D01*
X1406801Y916390D01*
X1406572Y916435D01*
X1404030D01*
X1403271Y916284D01*
X1402626Y915854D01*
X1402196Y915210D01*
X1402136Y914909D01*
X1400841D01*
X1400781Y915210D01*
X1400351Y915854D01*
X1399706Y916284D01*
X1398947Y916435D01*
X1397252D01*
X1396492Y916284D01*
X1395981Y915943D01*
X1395470Y916284D01*
X1394710Y916435D01*
X1392168D01*
X1391744Y916351D01*
X1391321Y916435D01*
X1388779D01*
X1388019Y916284D01*
X1387508Y915943D01*
X1386996Y916284D01*
X1386237Y916435D01*
X1381153D01*
X1380393Y916284D01*
X1379749Y915854D01*
X1378976Y915962D01*
X1378055Y916992D01*
X1377970Y917415D01*
X1378055Y917839D01*
X1377903Y918599D01*
X1377473Y919243D01*
X1376829Y919674D01*
X1376069Y919825D01*
X1374374D01*
X1373614Y919674D01*
X1372970Y919243D01*
X1372389D01*
X1371745Y919674D01*
X1370985Y919825D01*
X1369290D01*
X1368530Y919674D01*
X1367886Y919243D01*
X1367455Y918599D01*
X1367304Y917839D01*
X1367331Y917706D01*
X1366810Y916760D01*
X1366120Y916435D01*
X1363359D01*
X1362599Y916284D01*
X1361955Y915854D01*
X1361777Y915588D01*
X1361664D01*
X1360904Y915437D01*
X1360260Y915006D01*
X1359065Y915504D01*
X1358832Y915854D01*
X1358187Y916284D01*
X1357428Y916435D01*
X1352343D01*
X1351584Y916284D01*
X1350939Y915854D01*
X1350762Y915588D01*
X1350649D01*
X1349889Y915437D01*
X1349245Y915006D01*
X1348814Y914362D01*
X1348663Y913602D01*
X1348747Y913179D01*
X1348663Y912755D01*
X1348747Y912331D01*
X1348663Y911908D01*
X1348747Y911484D01*
X1348663Y911060D01*
X1348747Y910637D01*
X1348663Y910213D01*
X1348747Y909789D01*
X1348663Y909366D01*
X1348747Y908942D01*
X1348663Y908518D01*
X1348814Y907758D01*
X1349245Y907114D01*
X1349530Y906923D01*
X1349510Y906824D01*
X1349595Y906400D01*
X1349510Y905976D01*
X1349662Y905217D01*
X1350092Y904572D01*
X1350736Y904142D01*
X1351496Y903991D01*
X1353191D01*
X1353951Y904142D01*
X1354038Y904200D01*
X1354126Y904142D01*
X1354886Y903991D01*
X1359122D01*
X1359882Y904142D01*
X1360817Y904470D01*
X1361752Y904142D01*
X1362511Y903991D01*
X1364206D01*
X1364966Y904142D01*
X1365610Y904572D01*
X1366041Y905217D01*
X1366192Y905976D01*
X1366108Y906400D01*
X1366192Y906824D01*
X1366108Y907247D01*
X1366192Y907671D01*
X1366402Y907897D01*
X1367886Y907962D01*
X1368171Y907771D01*
X1368152Y907671D01*
X1368236Y907247D01*
X1368152Y906824D01*
X1368236Y906400D01*
X1368152Y905976D01*
X1368303Y905217D01*
X1368733Y904572D01*
X1369377Y904142D01*
X1370137Y903991D01*
X1371832D01*
X1372592Y904142D01*
X1373527Y904470D01*
X1374461Y904142D01*
X1375221Y903991D01*
X1376916D01*
X1377676Y904142D01*
X1378611Y904470D01*
X1379545Y904142D01*
X1380305Y903991D01*
X1382000D01*
X1382760Y904142D01*
X1382847Y904200D01*
X1382935Y904142D01*
X1383695Y903991D01*
X1387931D01*
X1388691Y904142D01*
X1389335Y904572D01*
X1389675Y905080D01*
X1389885Y905220D01*
X1390268Y905219D01*
X1391029Y905067D01*
X1391378Y904922D01*
X1391611Y904572D01*
X1392255Y904142D01*
X1393015Y903991D01*
X1395557D01*
X1396317Y904142D01*
X1396828Y904483D01*
X1397339Y904142D01*
X1398099Y903991D01*
X1399794D01*
X1400217Y904075D01*
X1400641Y903991D01*
X1406572D01*
X1407332Y904142D01*
X1407977Y904572D01*
X1409402D01*
X1409411Y904568D01*
X1410049Y904142D01*
X1410809Y903991D01*
X1412504D01*
X1413264Y904142D01*
X1413902Y904568D01*
X1413911Y904572D01*
X1415336D01*
X1415980Y904142D01*
X1416740Y903991D01*
X1419282D01*
X1420042Y904142D01*
X1420686Y904572D01*
X1421268D01*
X1421912Y904142D01*
X1422672Y903991D01*
X1425214D01*
X1425974Y904142D01*
X1426618Y904572D01*
X1427048Y905217D01*
X1427199Y905976D01*
X1427115Y906400D01*
X1427199Y906824D01*
X1427048Y907584D01*
X1426618Y908228D01*
X1426332Y908419D01*
X1426352Y908518D01*
X1426268Y908942D01*
X1426352Y909366D01*
X1426268Y909789D01*
X1426352Y910213D01*
X1426268Y910637D01*
X1426352Y911060D01*
X1426268Y911484D01*
X1426352Y911908D01*
X1426268Y912331D01*
X1426352Y912755D01*
X1426268Y913179D01*
X1426352Y913602D01*
X1426268Y914026D01*
X1426352Y914450D01*
X1426268Y914873D01*
X1426352Y915297D01*
X1426268Y915721D01*
X1426352Y916144D01*
X1426268Y916568D01*
X1426352Y916992D01*
X1426268Y917415D01*
X1426352Y917839D01*
X1426201Y918599D01*
X1425771Y919243D01*
X1425126Y919674D01*
X1424366Y919825D01*
D02*
G37*
G36*
X1490458D02*
X1487068D01*
X1486309Y919674D01*
X1485664Y919243D01*
X1485234Y918599D01*
X1485083Y917839D01*
X1485103Y917739D01*
X1484817Y917549D01*
X1484386Y916904D01*
X1484333Y916634D01*
X1484201Y916525D01*
X1483099Y916097D01*
X1483029Y916094D01*
X1482744Y916284D01*
X1482276Y916992D01*
X1482124Y917752D01*
X1481694Y918396D01*
X1481186Y918735D01*
X1480847Y919243D01*
X1480202Y919674D01*
X1479443Y919825D01*
X1475206D01*
X1474446Y919674D01*
X1473802Y919243D01*
X1473371Y918599D01*
X1473220Y917839D01*
X1473304Y917415D01*
X1473289Y917336D01*
X1473166Y917154D01*
X1472430Y916587D01*
X1472045Y916390D01*
X1471817Y916435D01*
X1467580D01*
X1466820Y916284D01*
X1466176Y915854D01*
X1465998Y915588D01*
X1465885D01*
X1465125Y915437D01*
X1464779Y915206D01*
X1463998Y915208D01*
X1463286Y915504D01*
X1463053Y915854D01*
X1462409Y916284D01*
X1461649Y916435D01*
X1459954D01*
X1459194Y916284D01*
X1458683Y915943D01*
X1458172Y916284D01*
X1457412Y916435D01*
X1454023D01*
X1453263Y916284D01*
X1452619Y915854D01*
X1452441Y915588D01*
X1452328D01*
X1451568Y915437D01*
X1451057Y915096D01*
X1450682Y915346D01*
X1450343Y915854D01*
X1449699Y916284D01*
X1448939Y916435D01*
X1444702D01*
X1443942Y916284D01*
X1443298Y915854D01*
X1443064Y915504D01*
X1442654Y915333D01*
X1441978Y915172D01*
X1441225Y915437D01*
X1440466Y915588D01*
X1440353D01*
X1440175Y915854D01*
X1439531Y916284D01*
X1438771Y916435D01*
X1434534D01*
X1433774Y916284D01*
X1433130Y915854D01*
X1432953Y915588D01*
X1432840D01*
X1432080Y915437D01*
X1431435Y915006D01*
X1431096Y914499D01*
X1430588Y914159D01*
X1430158Y913515D01*
X1430006Y912755D01*
X1430091Y912331D01*
X1430006Y911908D01*
X1430091Y911484D01*
X1430006Y911060D01*
X1430091Y910637D01*
X1430006Y910213D01*
X1430091Y909789D01*
X1430006Y909366D01*
X1430091Y908942D01*
X1430006Y908518D01*
X1430091Y908095D01*
X1430006Y907671D01*
X1430158Y906911D01*
X1430588Y906267D01*
X1431096Y905928D01*
X1431435Y905420D01*
X1431943Y905080D01*
X1432283Y904572D01*
X1432927Y904142D01*
X1433687Y903991D01*
X1439618D01*
X1440378Y904142D01*
X1441022Y904572D01*
X1441256Y904922D01*
X1441666Y905093D01*
X1442160Y905210D01*
X1442654Y905093D01*
X1443065Y904922D01*
X1443298Y904572D01*
X1443942Y904142D01*
X1444702Y903991D01*
X1450633D01*
X1451393Y904142D01*
X1451904Y904483D01*
X1452415Y904142D01*
X1453175Y903991D01*
X1454870D01*
X1455630Y904142D01*
X1456274Y904572D01*
X1456705Y905217D01*
X1456856Y905976D01*
X1456772Y906400D01*
X1456856Y906824D01*
X1457066Y907049D01*
X1458550Y907114D01*
X1458835Y906923D01*
X1458815Y906824D01*
X1458900Y906400D01*
X1458815Y905976D01*
X1458967Y905217D01*
X1459397Y904572D01*
X1460041Y904142D01*
X1460801Y903991D01*
X1462496D01*
X1463256Y904142D01*
X1463895Y904568D01*
X1463903Y904572D01*
X1465329D01*
X1465973Y904142D01*
X1466733Y903991D01*
X1472664D01*
X1473424Y904142D01*
X1474068Y904572D01*
X1474408Y905080D01*
X1474915Y905420D01*
X1475255Y905928D01*
X1475403Y906027D01*
X1475473Y906024D01*
X1476575Y905596D01*
X1476707Y905487D01*
X1476761Y905217D01*
X1477191Y904572D01*
X1477835Y904142D01*
X1478595Y903991D01*
X1481137D01*
X1481897Y904142D01*
X1481985Y904200D01*
X1482072Y904142D01*
X1482832Y903991D01*
X1485374D01*
X1486134Y904142D01*
X1486778Y904572D01*
X1487117Y905080D01*
X1487625Y905420D01*
X1488056Y906064D01*
X1488207Y906824D01*
X1488138Y907169D01*
X1488648Y907897D01*
X1488998Y908076D01*
X1490318Y907758D01*
X1490748Y907114D01*
X1491034Y906923D01*
X1491014Y906824D01*
X1491165Y906064D01*
X1491596Y905420D01*
X1492103Y905080D01*
X1492443Y904572D01*
X1493087Y904142D01*
X1493847Y903991D01*
X1496389D01*
X1497149Y904142D01*
X1497793Y904572D01*
X1498224Y905217D01*
X1498375Y905976D01*
X1498291Y906400D01*
X1498375Y906824D01*
X1498224Y907584D01*
X1497793Y908228D01*
X1497508Y908419D01*
X1497528Y908518D01*
X1497376Y909278D01*
X1496946Y909922D01*
X1496660Y910113D01*
X1496680Y910213D01*
X1496529Y910973D01*
X1496099Y911617D01*
X1495813Y911808D01*
X1495833Y911908D01*
X1495682Y912668D01*
X1495251Y913312D01*
X1494966Y913503D01*
X1494986Y913602D01*
X1494834Y914362D01*
X1494404Y915006D01*
X1494118Y915197D01*
X1494138Y915297D01*
X1493987Y916057D01*
X1493557Y916701D01*
X1493271Y916892D01*
X1493291Y916992D01*
X1493140Y917752D01*
X1492709Y918396D01*
X1492201Y918735D01*
X1491862Y919243D01*
X1491218Y919674D01*
X1490458Y919825D01*
D02*
G37*
G36*
X700525Y1016574D02*
X684477D01*
Y998027D01*
X688398D01*
Y937073D01*
X684477D01*
Y918525D01*
X700525D01*
Y923696D01*
X702299D01*
X703869Y924008D01*
X705200Y924898D01*
X725949Y945647D01*
X746091D01*
X777139Y914599D01*
X778470Y913709D01*
X780041Y913397D01*
X853250D01*
X854820Y913709D01*
X856151Y914599D01*
X878401Y936849D01*
X879290Y938180D01*
X879603Y939750D01*
X879290Y941320D01*
X878401Y942651D01*
X877070Y943540D01*
X875500Y943853D01*
X873930Y943540D01*
X872599Y942651D01*
X851551Y921603D01*
X781740D01*
X750692Y952651D01*
X749361Y953540D01*
X747791Y953853D01*
X724250D01*
X722680Y953540D01*
X721349Y952651D01*
X701795Y933097D01*
X700525Y933623D01*
Y937073D01*
X696603D01*
Y998027D01*
X700525D01*
Y1001397D01*
X712250D01*
X713820Y1001710D01*
X715151Y1002599D01*
X716040Y1003930D01*
X716353Y1005500D01*
X716040Y1007070D01*
X715151Y1008401D01*
X713820Y1009290D01*
X712250Y1009603D01*
X700525D01*
Y1016574D01*
D02*
G37*
G36*
X553024D02*
X536977D01*
Y998027D01*
X540898D01*
Y937073D01*
X536977D01*
Y918525D01*
X542147D01*
Y913750D01*
X542459Y912180D01*
X543349Y910849D01*
X549770Y904428D01*
X551101Y903539D01*
X552671Y903226D01*
X566234D01*
X566259Y903210D01*
X567829Y902897D01*
X860000D01*
X861570Y903210D01*
X862901Y904099D01*
X899148Y940346D01*
X899901Y940849D01*
X900790Y942180D01*
X901103Y943750D01*
X900790Y945320D01*
X899901Y946651D01*
X898570Y947541D01*
X897000Y947853D01*
X896750D01*
X895180Y947541D01*
X893849Y946651D01*
X858301Y911103D01*
X569096D01*
X569070Y911120D01*
X567500Y911432D01*
X554370D01*
X550353Y915449D01*
Y918525D01*
X553024D01*
Y937073D01*
X549104D01*
Y998027D01*
X553024D01*
Y1003198D01*
X564551D01*
X566121Y1003511D01*
X567452Y1004400D01*
X570901Y1007849D01*
X571791Y1009180D01*
X572103Y1010750D01*
X571791Y1012320D01*
X570901Y1013651D01*
X569570Y1014540D01*
X568000Y1014853D01*
X566430Y1014540D01*
X565099Y1013651D01*
X562852Y1011404D01*
X553024D01*
Y1016574D01*
D02*
G37*
G36*
X1526500Y931824D02*
X1523261Y931505D01*
X1520146Y930560D01*
X1517275Y929026D01*
X1514759Y926961D01*
X1512694Y924445D01*
X1511160Y921574D01*
X1510215Y918459D01*
X1509896Y915220D01*
X1510215Y911981D01*
X1511160Y908866D01*
X1512694Y905995D01*
X1514759Y903479D01*
X1517275Y901414D01*
X1520146Y899880D01*
X1523261Y898935D01*
X1526500Y898616D01*
X1529739Y898935D01*
X1532854Y899880D01*
X1535725Y901414D01*
X1538241Y903479D01*
X1540306Y905995D01*
X1541840Y908866D01*
X1542785Y911981D01*
X1543104Y915220D01*
X1542785Y918459D01*
X1541840Y921574D01*
X1540306Y924445D01*
X1538241Y926961D01*
X1535725Y929026D01*
X1532854Y930560D01*
X1529739Y931505D01*
X1526500Y931824D01*
D02*
G37*
G36*
X326500D02*
X323261Y931505D01*
X320146Y930560D01*
X317275Y929026D01*
X314759Y926961D01*
X312694Y924445D01*
X311160Y921574D01*
X310215Y918459D01*
X309896Y915220D01*
X310215Y911981D01*
X311160Y908866D01*
X312694Y905995D01*
X314759Y903479D01*
X317275Y901414D01*
X320146Y899880D01*
X323261Y898935D01*
X326500Y898616D01*
X329739Y898935D01*
X332854Y899880D01*
X335725Y901414D01*
X338241Y903479D01*
X340306Y905995D01*
X341840Y908866D01*
X342785Y911981D01*
X343104Y915220D01*
X342785Y918459D01*
X341840Y921574D01*
X340306Y924445D01*
X338241Y926961D01*
X335725Y929026D01*
X332854Y930560D01*
X329739Y931505D01*
X326500Y931824D01*
D02*
G37*
G36*
X405524Y1016574D02*
X389477D01*
Y998027D01*
X393398D01*
Y937073D01*
X389477D01*
Y918525D01*
X393398D01*
Y899249D01*
X393710Y897679D01*
X394599Y896348D01*
X398599Y892349D01*
X399930Y891460D01*
X401500Y891147D01*
X923750D01*
X925320Y891460D01*
X926651Y892349D01*
X953901Y919599D01*
X954790Y920930D01*
X955103Y922500D01*
Y953650D01*
X954790Y955220D01*
X953901Y956551D01*
X952570Y957440D01*
X951000Y957753D01*
X949430Y957440D01*
X948099Y956551D01*
X947209Y955220D01*
X946897Y953650D01*
Y924199D01*
X922051Y899353D01*
X403199D01*
X401604Y900949D01*
Y918525D01*
X405524D01*
Y937073D01*
X401604D01*
Y998027D01*
X405524D01*
Y1003198D01*
X415801D01*
X417371Y1003511D01*
X418702Y1004400D01*
X423401Y1009099D01*
X424291Y1010430D01*
X424603Y1012000D01*
X424291Y1013570D01*
X423401Y1014901D01*
X422070Y1015790D01*
X420500Y1016103D01*
X418930Y1015790D01*
X417599Y1014901D01*
X414102Y1011404D01*
X405524D01*
Y1016574D01*
D02*
G37*
%LPD*%
G36*
X1064576Y1160647D02*
X1064090Y1159474D01*
X1063626D01*
Y1156578D01*
X1058422D01*
X1017848Y1197152D01*
X1018374Y1198422D01*
X1026802D01*
X1064576Y1160647D01*
D02*
G37*
G36*
X1055250Y1151750D02*
X1055776Y1151398D01*
X1055391Y1150128D01*
X1052342D01*
X1010569Y1191902D01*
X1011095Y1193172D01*
X1013829D01*
X1055250Y1151750D01*
D02*
G37*
G36*
X1103520Y1153253D02*
Y1147010D01*
X1105890D01*
Y1148026D01*
X1122976D01*
Y1144676D01*
Y1140676D01*
Y1136676D01*
Y1132676D01*
Y1128676D01*
Y1124676D01*
Y1122940D01*
X1121960D01*
Y1120570D01*
X1128700D01*
Y1118030D01*
X1121960D01*
Y1115660D01*
X1122976D01*
Y1112676D01*
Y1108676D01*
Y1106940D01*
X1121960D01*
Y1104570D01*
X1128700D01*
Y1102030D01*
X1121960D01*
Y1099660D01*
X1122976D01*
Y1096676D01*
Y1092676D01*
Y1090574D01*
X1065524D01*
Y1092676D01*
Y1096676D01*
Y1100676D01*
Y1104676D01*
Y1107660D01*
X1066540D01*
Y1110030D01*
X1060297D01*
X1059800Y1110129D01*
Y1112471D01*
X1060297Y1112570D01*
X1066540D01*
Y1114940D01*
X1065524D01*
Y1116676D01*
Y1120676D01*
Y1124676D01*
Y1128676D01*
Y1132676D01*
Y1136676D01*
Y1140676D01*
Y1144676D01*
Y1148026D01*
X1098610D01*
Y1147010D01*
X1100980D01*
Y1153253D01*
X1101079Y1153750D01*
X1103421D01*
X1103520Y1153253D01*
D02*
G37*
G36*
X1009950Y1113300D02*
X1010868Y1112687D01*
X1011950Y1112472D01*
X1053060D01*
Y1110128D01*
X1010732D01*
X980697Y1140163D01*
X981127Y1141530D01*
X981631Y1141619D01*
X1009950Y1113300D01*
D02*
G37*
G36*
X1063626Y1079126D02*
X1067486D01*
Y1076985D01*
X1066078Y1075578D01*
X998277D01*
X993104Y1080752D01*
X993630Y1082022D01*
X1063626D01*
Y1079126D01*
D02*
G37*
%LPC*%
G36*
X1120524Y1145574D02*
X1067976D01*
Y1093026D01*
X1073074D01*
X1073131Y1092988D01*
X1075000Y1092616D01*
X1076869Y1092988D01*
X1076926Y1093026D01*
X1080574D01*
X1080631Y1092988D01*
X1082500Y1092616D01*
X1084369Y1092988D01*
X1084426Y1093026D01*
X1088074D01*
X1088131Y1092988D01*
X1090000Y1092616D01*
X1091869Y1092988D01*
X1091926Y1093026D01*
X1095574D01*
X1095631Y1092988D01*
X1097500Y1092616D01*
X1099369Y1092988D01*
X1099426Y1093026D01*
X1103074D01*
X1103131Y1092988D01*
X1105000Y1092616D01*
X1106869Y1092988D01*
X1106926Y1093026D01*
X1110574D01*
X1110631Y1092988D01*
X1112500Y1092616D01*
X1114369Y1092988D01*
X1114426Y1093026D01*
X1120524D01*
Y1145574D01*
D02*
G37*
%LPD*%
D11*
X1172500Y977500D02*
X1201500Y1006500D01*
X1170750Y977500D02*
X1172500D01*
X1201500Y1006500D02*
Y1010250D01*
X1126250Y961750D02*
X1230670D01*
X1122250Y965750D02*
X1126250Y961750D01*
X1156149Y1162250D02*
X1184649Y1190750D01*
X1152146Y1169000D02*
X1180396Y1197250D01*
X1148749Y1175000D02*
X1178749Y1205000D01*
X971720Y1201250D02*
X1027973D01*
X952500Y1220470D02*
X971720Y1201250D01*
X1027973D02*
X1070250Y1158973D01*
X1180396Y1197250D02*
X1208280D01*
X1184649Y1190750D02*
X1229750D01*
X1125777Y1169000D02*
X1152146D01*
X1118250Y1161473D02*
X1125777Y1169000D01*
X1124500Y1162250D02*
X1156149D01*
X1122250Y1160000D02*
X1124500Y1162250D01*
X1230670Y961750D02*
X1282200Y910220D01*
X1210204Y956816D02*
X1256800Y910220D01*
X1124434Y956816D02*
X1210204D01*
X1118250Y963000D02*
X1124434Y956816D01*
X1190120Y951500D02*
X1231400Y910220D01*
X1121500Y951500D02*
X1190120D01*
X1114250Y958750D02*
X1121500Y951500D01*
X1169970Y946250D02*
X1206000Y910220D01*
X1118250Y946250D02*
X1169970D01*
X1110250Y954250D02*
X1118250Y946250D01*
X1149570Y941250D02*
X1180600Y910220D01*
X1115138Y941250D02*
X1149570D01*
X1106250Y950138D02*
X1115138Y941250D01*
X1129420Y936000D02*
X1155200Y910220D01*
X1113250Y936000D02*
X1129420D01*
X1102250Y947000D02*
X1113250Y936000D01*
X1123000Y930000D02*
X1129800Y923200D01*
X1112130Y930000D02*
X1123000D01*
X1098250Y943880D02*
X1112130Y930000D01*
X1094250Y932810D02*
Y1084850D01*
X1090250Y938750D02*
Y1084850D01*
X1079000Y927500D02*
X1090250Y938750D01*
X1094250Y932810D02*
X1104400Y922660D01*
Y910220D02*
Y922660D01*
X1102250Y947000D02*
Y1084850D01*
X1106250Y950138D02*
Y1084850D01*
X1110250Y954250D02*
Y1084850D01*
X1075934Y1056000D02*
X1082506Y1062572D01*
X990148Y1056000D02*
X1075934D01*
X955648Y1090500D02*
X990148Y1056000D01*
X1073750Y1061750D02*
X1078442Y1066442D01*
X992301Y1061750D02*
X1073750D01*
X958301Y1095750D02*
X992301Y1061750D01*
X1071393Y1067750D02*
X1074378Y1070735D01*
X994203Y1067750D02*
X1071393D01*
X960953Y1101000D02*
X994203Y1067750D01*
X1067250Y1072750D02*
X1070314Y1075814D01*
X997106Y1072750D02*
X1067250D01*
X963356Y1106500D02*
X997106Y1072750D01*
X1070314Y1075814D02*
Y1079951D01*
X992908Y1084850D02*
X1066250D01*
X966009Y1111750D02*
X992908Y1084850D01*
X1074378Y1070735D02*
Y1079887D01*
X1078442Y1066442D02*
Y1077500D01*
X1082506Y1062572D02*
Y1077500D01*
X1028700Y1220470D02*
X1038280D01*
X1082250Y1153750D02*
Y1176500D01*
X1038280Y1220470D02*
X1082250Y1176500D01*
X1003300Y1220470D02*
X1013574Y1210196D01*
X1032956D01*
X1033260Y1210500D02*
X1036500D01*
X1032956Y1210196D02*
X1033260Y1210500D01*
X1036500D02*
X1078250Y1168750D01*
X1033500Y1205250D02*
X1074250Y1164500D01*
X995250Y1205250D02*
X1033500D01*
X980030Y1220470D02*
X995250Y1205250D01*
X1015000Y1196000D02*
X1057250Y1153750D01*
X949250Y1196000D02*
X1015000D01*
X927100Y1218150D02*
X949250Y1196000D01*
X1007971Y1190500D02*
X1051171Y1147300D01*
X931670Y1190500D02*
X1007971D01*
X901700Y1220470D02*
X931670Y1190500D01*
X1005818Y1184750D02*
X1047268Y1143300D01*
X912020Y1184750D02*
X1005818D01*
X876300Y1220470D02*
X912020Y1184750D01*
X1003416Y1179250D02*
X1043366Y1139300D01*
X892120Y1179250D02*
X1003416D01*
X999500Y1173500D02*
X1037700Y1135300D01*
X872470Y1173500D02*
X999500D01*
X996500Y1167750D02*
X1032950Y1131300D01*
X852820Y1167750D02*
X996500D01*
X992500Y1162000D02*
X1027200Y1127300D01*
X833170Y1162000D02*
X992500D01*
X989500Y1156000D02*
X1022200Y1123300D01*
X813770Y1156000D02*
X989500D01*
X985250Y1150750D02*
X1016700Y1119300D01*
X793620Y1150750D02*
X985250D01*
X982250Y1145000D02*
X1011950Y1115300D01*
X773970Y1145000D02*
X982250D01*
X977360Y1139500D02*
X1009560Y1107300D01*
X754070Y1139500D02*
X977360D01*
X974958Y1134000D02*
X1005658Y1103300D01*
X734170Y1134000D02*
X974958D01*
X972805Y1128250D02*
X1001755Y1099300D01*
X714520Y1128250D02*
X972805D01*
X970403Y1122750D02*
X997853Y1095300D01*
X694620Y1122750D02*
X970403D01*
X967950Y1117300D02*
X993950Y1091300D01*
X674670Y1117300D02*
X967950D01*
X654820Y1111750D02*
X966009D01*
X634670Y1106500D02*
X963356D01*
X614770Y1101000D02*
X960953D01*
X594620Y1095750D02*
X958301D01*
X574470Y1090500D02*
X955648D01*
X1037700Y1135300D02*
X1059800D01*
X1032950Y1131300D02*
X1059800D01*
X1027200Y1127300D02*
X1059800D01*
X1022200Y1123300D02*
X1059800D01*
X1016700Y1119300D02*
X1059800D01*
X1011950Y1115300D02*
X1059800D01*
X1074250Y1153750D02*
Y1164500D01*
X1078250Y1153750D02*
Y1168750D01*
X1070250Y1153750D02*
Y1158973D01*
X1057250Y1153750D02*
X1066250D01*
X1086250D02*
Y1182750D01*
X1090250Y1153750D02*
Y1196750D01*
X1054100Y1214900D02*
X1086250Y1182750D01*
X1079100Y1207900D02*
X1090250Y1196750D01*
X1118250Y1157197D02*
Y1161473D01*
X1110250Y1168250D02*
X1122750Y1180750D01*
X1110250Y1154420D02*
Y1168250D01*
X1106250Y1172750D02*
X1121408Y1187908D01*
X1106250Y1153750D02*
Y1172750D01*
X1178749Y1205000D02*
X1190630D01*
X1282300Y1215300D02*
Y1220470D01*
X1128700Y1147300D02*
X1214300D01*
X1267086Y1190936D02*
X1278166D01*
X1219450Y1143300D02*
X1267086Y1190936D01*
X1128700Y1143300D02*
X1219450D01*
X1272122Y1186872D02*
X1299502D01*
X1224550Y1139300D02*
X1272122Y1186872D01*
X1128700Y1139300D02*
X1224550D01*
X1269750Y1176250D02*
X1314280D01*
X1228800Y1135300D02*
X1269750Y1176250D01*
X1128700Y1135300D02*
X1228800D01*
X1274000Y1171000D02*
X1334430D01*
X1234300Y1131300D02*
X1274000Y1171000D01*
X1128700Y1131300D02*
X1234300D01*
X1128700Y1127300D02*
X1237800D01*
X1275500Y1165000D02*
X1353830D01*
X1237800Y1127300D02*
X1275500Y1165000D01*
X1486250Y1145750D02*
X1511500D01*
X1475750D02*
X1486250D01*
X1121408Y1187908D02*
X1139974D01*
X1155300Y1203234D01*
X1122750Y1180750D02*
X1144750D01*
X1124000Y1175000D02*
X1148749D01*
X1114250Y1165250D02*
X1124000Y1175000D01*
X1114250Y1153750D02*
Y1165250D01*
X1144750Y1180750D02*
X1180700Y1216700D01*
X1122250Y1153750D02*
Y1160000D01*
X1129800Y910220D02*
Y923200D01*
X1079100Y1207900D02*
Y1220470D01*
X1104500Y1206750D02*
Y1220470D01*
X1094250Y1196500D02*
X1104500Y1206750D01*
X1094250Y1153750D02*
Y1196500D01*
X1470000Y1120000D02*
Y1140000D01*
X1475750Y1145750D01*
X1496481Y1132750D02*
X1511500D01*
X1495000Y1131269D02*
X1496481Y1132750D01*
X1495000Y1139300D02*
X1495050Y1139250D01*
X1511500D01*
X777607Y980000D02*
X791357Y993750D01*
X795230D01*
X777607Y965000D02*
X787107Y974500D01*
X795230D01*
X775720Y955000D02*
X776220Y955500D01*
X795230D01*
X775720Y940000D02*
X778470Y937250D01*
X795230D01*
X1078250Y1077692D02*
Y1084850D01*
Y1077692D02*
X1078442Y1077500D01*
X1122250Y965750D02*
Y1084850D01*
X1118250Y963000D02*
Y1084850D01*
X1114250Y958750D02*
Y1084850D01*
X1079000Y910220D02*
Y927500D01*
X1098250Y943880D02*
Y1084850D01*
X993950Y1091300D02*
X1059800D01*
X997853Y1095300D02*
X1059800D01*
X1009560Y1107300D02*
X1059800D01*
X1043366Y1139300D02*
X1059800D01*
X1082250Y1079080D02*
Y1084850D01*
Y1079080D02*
X1082252Y1079078D01*
Y1077754D02*
Y1079078D01*
Y1077754D02*
X1082506Y1077500D01*
X1070250Y1080015D02*
Y1084850D01*
Y1080015D02*
X1070314Y1079951D01*
X1074250Y1080015D02*
Y1084850D01*
Y1080015D02*
X1074378Y1079887D01*
X1001755Y1099300D02*
X1059800D01*
X1005658Y1103300D02*
X1059800D01*
X1051171Y1147300D02*
X1059800D01*
X1047268Y1143300D02*
X1059800D01*
X1098250Y1153750D02*
Y1188820D01*
X1129900Y1220470D01*
D15*
X1130750Y1076000D02*
X1155250D01*
X1054100Y1214900D02*
Y1220470D01*
X1082440Y1155328D02*
X1082475Y1155363D01*
X1154950Y1123300D02*
X1156500Y1121750D01*
X1071750Y1029750D02*
X1077750Y1035750D01*
Y1049250D01*
X1180700Y1216700D02*
Y1220470D01*
X1094250Y1119300D02*
X1110250Y1103300D01*
X1102250Y1127300D02*
Y1153750D01*
X1094250Y1119300D02*
X1102250Y1127300D01*
X1086250Y1111300D02*
X1094250Y1119300D01*
X1059800Y1111300D02*
X1086250D01*
X1110250Y1103300D02*
X1128700D01*
X1094250Y1119300D02*
X1128700D01*
X927100Y1218150D02*
Y1220470D01*
X977900D02*
X980030D01*
X1256900Y1217900D02*
Y1220470D01*
X1141250Y1093000D02*
Y1097350D01*
X1139300Y1099300D02*
X1141250Y1097350D01*
X1128700Y1099300D02*
X1139300D01*
X1142300Y1115300D02*
X1144250Y1117250D01*
X1128700Y1123300D02*
X1154950D01*
X1140200Y1107300D02*
X1145500Y1102000D01*
X1077750Y1049250D02*
X1086316Y1057816D01*
Y1084784D01*
X1086250Y1084850D02*
X1086316Y1084784D01*
X1128700Y1078050D02*
X1130750Y1076000D01*
X1128700Y1078050D02*
Y1091300D01*
Y1095300D01*
Y1115300D02*
X1142300D01*
X1128700Y1107300D02*
X1140200D01*
X1128700D02*
X1128900Y1107500D01*
X1059550Y1143050D02*
X1059800Y1143300D01*
X1110250Y1153750D02*
Y1154420D01*
X1118250Y1153750D02*
Y1157197D01*
X1082440Y1153940D02*
Y1155328D01*
X1082250Y1153750D02*
X1082440Y1153940D01*
D18*
X1137500Y1075750D02*
D03*
Y1061750D02*
D03*
X1155250Y1076000D02*
D03*
Y1062000D02*
D03*
D23*
X851250Y955750D02*
D03*
X837250D02*
D03*
X851250Y994000D02*
D03*
X837250D02*
D03*
X851250Y974500D02*
D03*
X837250D02*
D03*
X851250Y937500D02*
D03*
X837250D02*
D03*
X1495250Y1067500D02*
D03*
X1509250D02*
D03*
X1509250Y1052000D02*
D03*
X1495250D02*
D03*
D65*
X694302Y1005500D02*
X712250D01*
X692501Y1007301D02*
X694302Y1005500D01*
X397501Y1007301D02*
X415801D01*
X420500Y1012000D01*
X545001Y1007301D02*
X564551D01*
X568000Y1010750D01*
X322000Y1038750D02*
X332250D01*
X322000Y1013350D02*
X339100D01*
X1231010Y1027260D02*
X1231500D01*
X1199500Y1018750D02*
X1222500D01*
X1165250Y984500D02*
X1199500Y1018750D01*
X1151250Y984500D02*
X1165250D01*
X901400D02*
X1078500D01*
X896900Y980000D02*
X901400Y984500D01*
X1183000Y1043750D02*
X1255250D01*
X1299750Y1088250D01*
X1320800D01*
X1324300Y1084750D01*
X1259461Y1034800D02*
X1305500Y1080839D01*
X1456250Y1163500D02*
Y1179622D01*
X1436122Y1199750D02*
X1456250Y1179622D01*
X1394500Y1199750D02*
X1436122D01*
X1385500Y1190750D02*
X1394500Y1199750D01*
X1385500Y1098500D02*
Y1190750D01*
X1314500Y1027500D02*
X1385500Y1098500D01*
X1431500Y1072000D02*
X1438250Y1078750D01*
X1418500Y1072000D02*
X1431500D01*
X1414250Y1085750D02*
Y1165250D01*
X1406000Y1077500D02*
X1414250Y1085750D01*
X1406000Y1066250D02*
Y1077500D01*
X322000Y987950D02*
X346389D01*
X369750Y1080750D02*
X380900Y1091900D01*
X369750Y1011311D02*
Y1080750D01*
X346389Y987950D02*
X369750Y1011311D01*
X355000Y1100000D02*
X372300Y1117300D01*
X355000Y1029250D02*
Y1100000D01*
X339100Y1013350D02*
X355000Y1029250D01*
X341000Y1113750D02*
X369950Y1142700D01*
X341000Y1047500D02*
Y1113750D01*
X332250Y1038750D02*
X341000Y1047500D01*
X380900Y1091900D02*
X388501D01*
X372300Y1117300D02*
X388501D01*
X369950Y1142700D02*
X388501D01*
X896750Y943750D02*
X897000D01*
X860000Y907000D02*
X896750Y943750D01*
X853250Y917500D02*
X875500Y939750D01*
X1222500Y1018750D02*
X1305750D01*
X1222500D02*
X1231010Y1027260D01*
X1305750Y1018750D02*
X1314500Y1027500D01*
X923750Y895250D02*
X951000Y922500D01*
X401500Y895250D02*
X923750D01*
X397501Y899249D02*
X401500Y895250D01*
X780041Y917500D02*
X853250D01*
X747791Y949750D02*
X780041Y917500D01*
X940250Y1038000D02*
X947750Y1030500D01*
X940250Y1038000D02*
Y1077600D01*
X1403750Y1100250D02*
Y1188000D01*
X1404000Y1188250D01*
X1398500Y1095000D02*
X1403750Y1100250D01*
X951000Y922500D02*
Y953650D01*
X1487750Y985000D02*
X1488500Y985750D01*
X1505500D01*
X552671Y907329D02*
X567500D01*
X546250Y913750D02*
X552671Y907329D01*
X546250Y913750D02*
Y926550D01*
X545001Y927799D02*
X546250Y926550D01*
X567500Y907329D02*
X567829Y907000D01*
X860000D01*
X692501Y927799D02*
X702299D01*
X724250Y949750D01*
X747791D01*
X397501Y899249D02*
Y927799D01*
Y1007301D01*
X545001Y927799D02*
Y1007301D01*
X692501Y927799D02*
Y1007301D01*
X811230Y937250D02*
X811480Y937500D01*
X837250D01*
X811230Y955500D02*
X811480Y955750D01*
X837250D01*
X811230Y974500D02*
X837250D01*
X811130Y994000D02*
X811130Y994000D01*
X837250D01*
X1481750Y1036000D02*
X1489500D01*
X1495250Y1041750D01*
Y1052000D01*
X1438250Y1078750D02*
X1537500D01*
X1542620Y1073630D01*
Y1068000D02*
Y1073630D01*
X1433000Y1020750D02*
X1488000D01*
X1508250Y1041000D01*
X1537500D01*
X1542620Y1046120D01*
Y1052000D01*
X1526620Y1052000D02*
X1526620Y1052000D01*
X1509250Y1052000D02*
X1526620D01*
X1507750Y1068000D02*
X1526620D01*
X1507250Y1067500D02*
X1507750Y1068000D01*
X776750Y1016500D02*
X777250Y1017000D01*
X947500D01*
X1180000Y1076000D02*
X1201500Y1054500D01*
X1155250Y1076000D02*
X1180000D01*
X911250Y1030500D02*
X947750D01*
X947250Y1084600D02*
Y1084850D01*
X940250Y1077600D02*
X947250Y1084600D01*
X886500Y1055250D02*
X911250Y1030500D01*
X887250Y1080500D02*
X893500D01*
X856750Y1050000D02*
X887250Y1080500D01*
X705500Y1067250D02*
X856750D01*
X705000Y1067750D02*
X705500Y1067250D01*
X715250Y1050000D02*
X856750D01*
X1324300Y1084750D02*
X1325200D01*
X1183500Y1034800D02*
X1259461D01*
X1226250Y1104750D02*
X1248750D01*
X1266500Y1087000D01*
D67*
X1128700Y1111300D02*
X1152450D01*
D71*
X1540500Y1105375D02*
D03*
Y1159875D02*
D03*
D72*
X1510200Y1108375D02*
D03*
Y1156875D02*
D03*
D73*
X1409300Y1220470D02*
D03*
X1383900D02*
D03*
X1358500D02*
D03*
X1333100D02*
D03*
X1307700D02*
D03*
X1282300D02*
D03*
X1256900D02*
D03*
X1231500D02*
D03*
X1206100D02*
D03*
X1180700D02*
D03*
X1155300D02*
D03*
X1129900D02*
D03*
X1104500D02*
D03*
X1104400Y910220D02*
D03*
X1282200D02*
D03*
X1256800D02*
D03*
X1231400D02*
D03*
X1206000D02*
D03*
X1180600D02*
D03*
X1155200D02*
D03*
X1129800D02*
D03*
X322000Y1013400D02*
D03*
Y988000D02*
D03*
Y962600D02*
D03*
X388501Y1091900D02*
D03*
Y1117300D02*
D03*
Y1142700D02*
D03*
Y1168100D02*
D03*
X876300Y1220470D02*
D03*
X850900D02*
D03*
X825500D02*
D03*
X723900D02*
D03*
X749300D02*
D03*
X774700D02*
D03*
X800100D02*
D03*
X901700D02*
D03*
X469900D02*
D03*
X495300D02*
D03*
X520700D02*
D03*
X546100D02*
D03*
X571500D02*
D03*
X596900D02*
D03*
X622300D02*
D03*
X647700D02*
D03*
X673100D02*
D03*
X698500D02*
D03*
X927100D02*
D03*
X952500D02*
D03*
X977900D02*
D03*
X1003300D02*
D03*
X1028700D02*
D03*
X1054100D02*
D03*
D74*
X1079100Y1220470D02*
D03*
X1079000Y910220D02*
D03*
X444500Y1220470D02*
D03*
D75*
X322000Y1038800D02*
D03*
D76*
X311500Y1124499D02*
D03*
Y1154501D02*
D03*
D77*
X712250Y1005500D02*
D03*
X420500Y1012000D02*
D03*
X568000Y1010750D02*
D03*
X1170750Y977500D02*
D03*
X1078500Y984500D02*
D03*
X1151250D02*
D03*
X1183000Y1043750D02*
D03*
X1305500Y1080839D02*
D03*
X1418500Y1072000D02*
D03*
X1406000Y1066250D02*
D03*
X897000Y943750D02*
D03*
X875500Y939750D02*
D03*
X1201500Y1010250D02*
D03*
X1486250Y1145750D02*
D03*
X1404000Y1188250D02*
D03*
X1071750Y1029750D02*
D03*
X951000Y953650D02*
D03*
X1487750Y985000D02*
D03*
X1470000Y1120000D02*
D03*
X1495000Y1131269D02*
D03*
Y1139300D02*
D03*
X777607Y980000D02*
D03*
Y965000D02*
D03*
X775720Y955000D02*
D03*
Y940000D02*
D03*
X896900Y980000D02*
D03*
X1314500Y1027500D02*
D03*
X1231500Y1027750D02*
D03*
X776750Y1016500D02*
D03*
X947500Y1017000D02*
D03*
X1201500Y1054500D02*
D03*
X947250Y1084850D02*
D03*
X886500Y1055250D02*
D03*
X947750Y1030500D02*
D03*
X893500Y1080500D02*
D03*
X856750Y1067250D02*
D03*
X715250Y1050000D02*
D03*
X705000Y1067750D02*
D03*
X1325200Y1084750D02*
D03*
X1183500Y1034800D02*
D03*
X1226250Y1104750D02*
D03*
X1266500Y1087000D02*
D03*
X1398500Y1095000D02*
D03*
X1433000Y1020750D02*
D03*
X1481750Y1036000D02*
D03*
X1414250Y1165250D02*
D03*
D78*
X1388500Y1040500D02*
D03*
X1396000D02*
D03*
X1403500D02*
D03*
Y1048000D02*
D03*
X1395750D02*
D03*
X1388250Y1048111D02*
D03*
X1156500Y1121750D02*
D03*
X1105000Y1105000D02*
D03*
X1112500D02*
D03*
Y1137500D02*
D03*
X1075000Y1105000D02*
D03*
Y1097500D02*
D03*
X1082500Y1105000D02*
D03*
X1090000D02*
D03*
X1097500D02*
D03*
X1112500Y1097500D02*
D03*
X1105000D02*
D03*
X1097500D02*
D03*
X1090000D02*
D03*
X1082500D02*
D03*
X1075000Y1122500D02*
D03*
X1082500D02*
D03*
X1090000D02*
D03*
X1097500D02*
D03*
X1105000D02*
D03*
X1112500D02*
D03*
Y1130000D02*
D03*
X1105000D02*
D03*
X1097500D02*
D03*
X1090000D02*
D03*
X1082500D02*
D03*
X1075000D02*
D03*
Y1137500D02*
D03*
X1082500D02*
D03*
X1090000D02*
D03*
X1097500D02*
D03*
X1105000D02*
D03*
X1152450Y1111300D02*
D03*
X1144250Y1117250D02*
D03*
X1145500Y1102000D02*
D03*
X1141250Y1093000D02*
D03*
D79*
X326500Y1215220D02*
D03*
X1526500D02*
D03*
Y915220D02*
D03*
X326500D02*
D03*
D80*
X1543000Y1123000D02*
D03*
Y1142250D02*
D03*
D81*
X1512250Y1119625D02*
D03*
Y1126125D02*
D03*
Y1132625D02*
D03*
Y1139125D02*
D03*
Y1145625D02*
D03*
D82*
X1456250Y1210500D02*
D03*
Y1163500D02*
D03*
D83*
X1122250Y1084850D02*
D03*
X1118250D02*
D03*
X1114250D02*
D03*
X1110250D02*
D03*
X1106250D02*
D03*
X1102250D02*
D03*
X1098250D02*
D03*
X1094250D02*
D03*
X1090250D02*
D03*
X1086250D02*
D03*
X1082250D02*
D03*
X1078250D02*
D03*
X1074250D02*
D03*
X1070250D02*
D03*
X1066250D02*
D03*
Y1153750D02*
D03*
X1070250D02*
D03*
X1074250D02*
D03*
X1078250D02*
D03*
X1082250D02*
D03*
X1086250D02*
D03*
X1090250D02*
D03*
X1094250D02*
D03*
X1098250D02*
D03*
X1102250D02*
D03*
X1106250D02*
D03*
X1110250D02*
D03*
X1114250D02*
D03*
X1118250D02*
D03*
X1122250D02*
D03*
D84*
X1128700Y1147300D02*
D03*
Y1143300D02*
D03*
Y1139300D02*
D03*
Y1135300D02*
D03*
Y1131300D02*
D03*
Y1127300D02*
D03*
Y1123300D02*
D03*
Y1119300D02*
D03*
Y1115300D02*
D03*
Y1111300D02*
D03*
Y1107300D02*
D03*
Y1103300D02*
D03*
Y1099300D02*
D03*
Y1095300D02*
D03*
Y1091300D02*
D03*
X1059800D02*
D03*
Y1095300D02*
D03*
Y1099300D02*
D03*
Y1103300D02*
D03*
Y1107300D02*
D03*
Y1111300D02*
D03*
Y1115300D02*
D03*
Y1119300D02*
D03*
Y1123300D02*
D03*
Y1127300D02*
D03*
Y1131300D02*
D03*
Y1135300D02*
D03*
Y1139300D02*
D03*
Y1143300D02*
D03*
Y1147300D02*
D03*
D85*
X1094250Y1119300D02*
D03*
D86*
X1505500Y998250D02*
D03*
Y985750D02*
D03*
D87*
X1534500Y1023750D02*
D03*
Y960250D02*
D03*
D88*
X1542620Y1068000D02*
D03*
X1526620D02*
D03*
X1542620Y1052000D02*
D03*
X1526620D02*
D03*
X795230Y955500D02*
D03*
X811230D02*
D03*
X795230Y974500D02*
D03*
X811230D02*
D03*
X795230Y937250D02*
D03*
X811230D02*
D03*
X795130Y994000D02*
D03*
X811130D02*
D03*
D89*
X442499Y927799D02*
D03*
Y1007301D02*
D03*
X397501Y927799D02*
D03*
Y1007301D02*
D03*
X737499Y927799D02*
D03*
Y1007301D02*
D03*
X692501Y927799D02*
D03*
Y1007301D02*
D03*
X589999Y927799D02*
D03*
Y1007301D02*
D03*
X545001Y927799D02*
D03*
Y1007301D02*
D03*
D90*
X1371832Y975457D02*
X1420130D01*
X1370985Y976304D02*
X1420977D01*
X1370985Y977152D02*
X1420977D01*
X1370137Y977999D02*
X1421824D01*
X1370137Y978847D02*
X1422672D01*
X1369290Y979694D02*
X1422672D01*
X1370137Y980541D02*
X1422672D01*
X1383695Y981388D02*
X1408267D01*
X1386237Y982236D02*
X1405725D01*
X1387931Y983083D02*
X1404030D01*
X1389626Y983931D02*
X1402336D01*
X1389626Y984778D02*
X1402336D01*
X1390473Y985625D02*
X1402336D01*
X1390473Y986472D02*
X1402336D01*
X1372679Y967831D02*
X1392168D01*
X1372679Y968679D02*
X1419282D01*
X1372679Y969526D02*
X1419282D01*
X1373527Y970373D02*
X1418435D01*
X1373527Y971220D02*
X1418435D01*
X1374374Y972068D02*
X1418435D01*
X1373527Y972915D02*
X1418435D01*
X1372679Y973763D02*
X1419282D01*
X1372679Y974610D02*
X1419282D01*
X1372679Y949190D02*
X1392168D01*
X1372679Y950037D02*
X1392168D01*
X1404878Y955121D02*
X1429450D01*
X1362511D02*
X1387931D01*
X1404878Y955969D02*
X1429450D01*
X1404878Y956816D02*
X1429450D01*
X1404878Y957663D02*
X1429450D01*
X1405725Y958511D02*
X1429450D01*
X1405725Y959358D02*
X1429450D01*
X1405725Y960205D02*
X1429450D01*
X1404878Y961053D02*
X1429450D01*
X1404878Y961900D02*
X1429450D01*
X1404878Y962747D02*
X1429450D01*
X1404030Y963595D02*
X1429450D01*
X1404030Y964442D02*
X1426061D01*
X1403183Y965289D02*
X1422672D01*
X1402336Y966137D02*
X1420130D01*
X1401488Y966984D02*
X1420130D01*
X1399794Y967831D02*
X1420130D01*
X1404030Y954274D02*
X1427756D01*
X1404878Y938175D02*
X1422672D01*
X1404030Y939022D02*
X1422672D01*
X1404030Y939870D02*
X1422672D01*
X1402336Y943259D02*
X1420130D01*
X1402336Y944106D02*
X1419282D01*
X1402336Y944953D02*
X1418435D01*
X1401488Y945801D02*
X1418435D01*
X1401488Y946648D02*
X1418435D01*
X1400641Y947495D02*
X1418435D01*
X1400641Y948343D02*
X1419282D01*
X1399794Y949190D02*
X1419282D01*
X1399794Y950037D02*
X1420130D01*
X1400641Y950885D02*
X1420130D01*
X1401488Y951732D02*
X1420130D01*
X1402336Y952579D02*
X1420977D01*
X1403183Y953427D02*
X1423519D01*
X1370137Y981388D02*
X1382847D01*
X1362511Y955969D02*
X1387084D01*
X1362511Y956816D02*
X1387084D01*
X1362511Y957663D02*
X1387084D01*
X1362511Y958511D02*
X1386237D01*
X1362511Y959358D02*
X1386237D01*
X1362511Y960205D02*
X1386237D01*
X1362511Y961053D02*
X1387084D01*
X1362511Y961900D02*
X1387084D01*
X1362511Y962747D02*
X1387084D01*
X1362511Y963595D02*
X1387931D01*
X1365901Y964442D02*
X1387931D01*
X1369290Y965289D02*
X1388779D01*
X1371832Y966137D02*
X1389626D01*
X1371832Y966984D02*
X1390473D01*
X1370985Y936480D02*
X1382000D01*
X1370137Y937327D02*
X1387084D01*
X1369290Y938175D02*
X1387931D01*
X1369290Y939022D02*
X1387931D01*
X1370137Y939870D02*
X1387931D01*
X1370137Y940717D02*
X1388779D01*
X1370985Y941564D02*
X1388779D01*
X1371832Y942411D02*
X1388779D01*
X1371832Y943259D02*
X1389626D01*
X1372679Y944106D02*
X1389626D01*
X1373527Y944953D02*
X1390473D01*
X1373527Y945801D02*
X1390473D01*
X1373527Y946648D02*
X1391321D01*
X1373527Y947495D02*
X1391321D01*
X1372679Y948343D02*
X1391321D01*
X1371832Y950885D02*
X1391321D01*
X1371832Y951732D02*
X1390473D01*
X1370985Y952579D02*
X1389626D01*
X1369290Y953427D02*
X1388779D01*
X1365053Y954274D02*
X1387931D01*
X1412504Y934786D02*
X1419282D01*
X1372679D02*
X1379458D01*
X1409114Y981388D02*
X1421824D01*
X1410809Y982236D02*
X1420977D01*
X1411656Y983083D02*
X1420130D01*
X1413351Y983931D02*
X1419282D01*
X1414198Y984778D02*
X1418435D01*
X1415893Y985625D02*
X1417588D01*
X1405725Y935633D02*
X1406572D01*
X1411656D02*
X1420130D01*
X1404878Y936480D02*
X1408267D01*
X1409962D02*
X1420977D01*
X1404878Y937327D02*
X1421824D01*
X1403183Y940717D02*
X1421824D01*
X1403183Y941564D02*
X1420977D01*
X1403183Y942411D02*
X1420977D01*
X1415046Y933091D02*
X1417588D01*
X1414198Y933938D02*
X1418435D01*
X1390473Y987320D02*
X1401488D01*
X1390473Y988167D02*
X1401488D01*
X1390473Y989015D02*
X1401488D01*
X1391321Y989862D02*
X1401488D01*
X1391321Y990709D02*
X1401488D01*
X1391321Y991556D02*
X1400641D01*
X1391321Y992404D02*
X1400641D01*
X1385389Y935633D02*
X1386237D01*
X1383695Y936480D02*
X1387084D01*
X1371832Y982236D02*
X1381153D01*
X1372679Y983083D02*
X1380305D01*
X1372679Y983931D02*
X1379458D01*
X1374374Y984778D02*
X1377763D01*
X1374374Y985625D02*
X1376916D01*
X1371832Y935633D02*
X1380305D01*
X1374374Y933091D02*
X1376916D01*
X1373527Y933938D02*
X1378611D01*
X1419282Y914450D02*
X1424366D01*
X1381153D02*
X1386237D01*
X1299809D02*
X1302351D01*
X1483679Y909366D02*
X1487068D01*
X1483679Y908518D02*
X1486221D01*
X1483679Y907671D02*
X1486221D01*
X1482832Y906824D02*
X1486221D01*
X1482832Y905976D02*
X1485374D01*
X1420130Y917839D02*
X1424366D01*
X1420130Y916992D02*
X1424366D01*
X1420130Y916144D02*
X1424366D01*
X1420130Y915297D02*
X1424366D01*
X1421824Y913602D02*
X1424366D01*
X1422672Y912755D02*
X1424366D01*
X1422672Y911908D02*
X1424366D01*
X1422672Y911060D02*
X1424366D01*
X1422672Y910213D02*
X1424366D01*
X1422672Y909366D02*
X1424366D01*
X1422672Y908518D02*
X1424366D01*
X1422672Y907671D02*
X1424366D01*
X1422672Y906824D02*
X1425214D01*
X1398099D02*
X1407420D01*
X1422672Y905976D02*
X1425214D01*
X1400641D02*
X1406572D01*
X1336244Y917839D02*
X1341328D01*
X1334550Y916992D02*
X1342176D01*
X1341328Y916144D02*
X1343023D01*
X1379458Y913602D02*
X1387084D01*
X1361664D02*
X1368443D01*
X1379458Y912755D02*
X1382000D01*
X1361664D02*
X1365053D01*
X1379458Y911908D02*
X1382000D01*
X1361664D02*
X1364206D01*
X1379458Y911060D02*
X1382847D01*
X1361664D02*
X1363359D01*
X1379458Y910213D02*
X1386237D01*
X1361664D02*
X1363359D01*
X1361664Y909366D02*
X1364206D01*
X1361664Y908518D02*
X1364206D01*
X1380305Y907671D02*
X1382000D01*
X1361664D02*
X1364206D01*
X1380305Y906824D02*
X1382000D01*
X1380305Y905976D02*
X1382000D01*
X1337939Y909366D02*
X1341328D01*
X1338786Y908518D02*
X1342176D01*
X1339634Y907671D02*
X1343023D01*
X1334550Y906824D02*
X1343870D01*
X1334550Y905976D02*
X1343870D01*
X1300657Y916992D02*
X1308282D01*
X1299809Y916144D02*
X1303199D01*
X1299809Y915297D02*
X1302351D01*
X1299809Y913602D02*
X1302351D01*
X1299809Y912755D02*
X1302351D01*
X1299809Y911908D02*
X1302351D01*
X1299809Y911060D02*
X1303199D01*
X1300657Y910213D02*
X1303199D01*
X1300657Y909366D02*
X1304046D01*
X1489610Y914450D02*
X1492153D01*
X1486221D02*
X1487916D01*
X1476053D02*
X1481985D01*
X1467580D02*
X1471817D01*
X1459954D02*
X1461649D01*
X1454023D02*
X1457412D01*
X1444702D02*
X1448939D01*
X1434534D02*
X1438771D01*
X1412504D02*
X1415046D01*
X1409962D02*
X1411656D01*
X1404030D02*
X1406572D01*
X1397252D02*
X1398947D01*
X1392168D02*
X1394710D01*
X1388779D02*
X1391321D01*
X1374374D02*
X1376069D01*
X1369290D02*
X1370985D01*
X1363359D02*
X1367595D01*
X1352343D02*
X1357428D01*
X1334550D02*
X1337092D01*
X1329466D02*
X1331160D01*
X1322687D02*
X1326076D01*
X1314214D02*
X1316756D01*
X1306588D02*
X1309130D01*
X1487068Y917839D02*
X1490458D01*
X1487068Y916992D02*
X1491305D01*
X1486221Y916144D02*
X1491305D01*
X1489610Y915297D02*
X1492153D01*
X1486221D02*
X1488763D01*
X1484527Y910213D02*
X1494694D01*
X1492153Y909366D02*
X1494694D01*
X1492153Y908518D02*
X1495542D01*
X1493000Y907671D02*
X1495542D01*
X1493000Y906824D02*
X1496389D01*
X1493847Y905976D02*
X1496389D01*
X1490458Y913602D02*
X1493000D01*
X1485374D02*
X1487916D01*
X1490458Y912755D02*
X1493000D01*
X1485374D02*
X1487916D01*
X1490458Y911908D02*
X1493847D01*
X1485374D02*
X1487916D01*
X1484527Y911060D02*
X1493847D01*
X1475206Y917839D02*
X1479443D01*
X1476901Y916992D02*
X1480290D01*
X1475206D02*
X1476053D01*
X1477748Y916144D02*
X1480290D01*
X1477748Y915297D02*
X1480290D01*
X1476053Y913602D02*
X1481985D01*
X1465885D02*
X1473511D01*
X1477748Y912755D02*
X1480290D01*
X1470122D02*
X1473511D01*
X1465038D02*
X1468427D01*
X1477748Y911908D02*
X1480290D01*
X1471817D02*
X1474359D01*
X1465038D02*
X1467580D01*
X1477748Y911060D02*
X1480290D01*
X1471817D02*
X1474359D01*
X1465038D02*
X1466733D01*
X1477748Y910213D02*
X1480290D01*
X1472664D02*
X1474359D01*
X1465038D02*
X1466733D01*
X1478595Y909366D02*
X1480290D01*
X1472664D02*
X1474359D01*
X1465038D02*
X1466733D01*
X1478595Y908518D02*
X1480290D01*
X1471817D02*
X1474359D01*
X1465038D02*
X1467580D01*
X1478595Y907671D02*
X1480290D01*
X1470969D02*
X1474359D01*
X1465038D02*
X1468427D01*
X1478595Y906824D02*
X1481137D01*
X1465885D02*
X1473511D01*
X1478595Y905976D02*
X1481137D01*
X1466733D02*
X1472664D01*
X1452328Y913602D02*
X1461649D01*
X1443855D02*
X1449786D01*
X1458259Y912755D02*
X1461649D01*
X1452328D02*
X1455717D01*
X1447244D02*
X1449786D01*
X1443855D02*
X1444702D01*
X1459107Y911908D02*
X1461649D01*
X1452328D02*
X1454870D01*
X1448091D02*
X1449786D01*
X1459954Y911060D02*
X1461649D01*
X1452328D02*
X1454023D01*
X1447244D02*
X1449786D01*
X1459954Y910213D02*
X1462496D01*
X1452328D02*
X1454023D01*
X1445549D02*
X1448939D01*
X1459954Y909366D02*
X1462496D01*
X1452328D02*
X1454023D01*
X1444702D02*
X1447244D01*
X1459954Y908518D02*
X1462496D01*
X1452328D02*
X1454870D01*
X1443855D02*
X1446397D01*
X1460801Y907671D02*
X1462496D01*
X1452328D02*
X1454870D01*
X1443855D02*
X1446397D01*
X1460801Y906824D02*
X1462496D01*
X1453175D02*
X1454870D01*
X1443855D02*
X1450633D01*
X1460801Y905976D02*
X1462496D01*
X1453175D02*
X1454870D01*
X1444702D02*
X1450633D01*
X1432840Y913602D02*
X1440466D01*
X1437076Y912755D02*
X1440466D01*
X1431992D02*
X1435382D01*
X1438771Y911908D02*
X1441313D01*
X1431992D02*
X1434534D01*
X1438771Y911060D02*
X1441313D01*
X1431992D02*
X1433687D01*
X1439618Y910213D02*
X1441313D01*
X1431992D02*
X1433687D01*
X1439618Y909366D02*
X1441313D01*
X1431992D02*
X1433687D01*
X1438771Y908518D02*
X1441313D01*
X1431992D02*
X1434534D01*
X1437923Y907671D02*
X1441313D01*
X1431992D02*
X1435382D01*
X1432840Y906824D02*
X1440466D01*
X1433687Y905976D02*
X1439618D01*
X1409962Y917839D02*
X1413351D01*
X1409962Y916992D02*
X1414198D01*
X1409962Y916144D02*
X1414198D01*
X1412504Y915297D02*
X1415046D01*
X1409962D02*
X1411656D01*
X1419282Y913602D02*
X1420977D01*
X1413351D02*
X1415046D01*
X1409962D02*
X1411656D01*
X1404030D02*
X1406572D01*
X1419282Y912755D02*
X1420977D01*
X1413351D02*
X1415893D01*
X1409962D02*
X1412504D01*
X1404878D02*
X1406572D01*
X1418435Y911908D02*
X1420977D01*
X1414198D02*
X1415893D01*
X1409962D02*
X1412504D01*
X1404878D02*
X1406572D01*
X1418435Y911060D02*
X1420130D01*
X1414198D02*
X1416740D01*
X1409962D02*
X1412504D01*
X1404878D02*
X1406572D01*
X1418435Y910213D02*
X1420130D01*
X1415046D02*
X1416740D01*
X1410809D02*
X1412504D01*
X1404878D02*
X1406572D01*
X1418435Y909366D02*
X1420130D01*
X1415046D02*
X1417588D01*
X1410809D02*
X1412504D01*
X1404878D02*
X1407420D01*
X1415893Y908518D02*
X1420130D01*
X1410809D02*
X1412504D01*
X1404878D02*
X1407420D01*
X1415893Y907671D02*
X1419282D01*
X1410809D02*
X1412504D01*
X1404030D02*
X1407420D01*
X1415893Y906824D02*
X1419282D01*
X1410809D02*
X1412504D01*
X1416740Y905976D02*
X1419282D01*
X1410809D02*
X1412504D01*
X1397252Y913602D02*
X1398947D01*
X1388779D02*
X1394710D01*
X1397252Y912755D02*
X1398947D01*
X1390473D02*
X1394710D01*
X1397252Y911908D02*
X1399794D01*
X1391321D02*
X1394710D01*
X1397252Y911060D02*
X1399794D01*
X1392168D02*
X1394710D01*
X1397252Y910213D02*
X1399794D01*
X1392168D02*
X1394710D01*
X1397252Y909366D02*
X1399794D01*
X1393015D02*
X1394710D01*
X1384542D02*
X1387931D01*
X1398099Y908518D02*
X1399794D01*
X1393015D02*
X1394710D01*
X1386237D02*
X1388779D01*
X1398099Y907671D02*
X1400641D01*
X1393015D02*
X1394710D01*
X1386237D02*
X1388779D01*
X1393015Y906824D02*
X1394710D01*
X1385389D02*
X1388779D01*
X1382847D02*
X1383695D01*
X1398099Y905976D02*
X1399794D01*
X1393015D02*
X1395557D01*
X1383695D02*
X1387931D01*
X1374374Y917839D02*
X1376069D01*
X1369290D02*
X1370985D01*
X1374374Y916992D02*
X1376069D01*
X1369290D02*
X1370985D01*
X1374374Y916144D02*
X1376069D01*
X1369290D02*
X1370985D01*
X1374374Y915297D02*
X1376069D01*
X1369290D02*
X1370985D01*
X1374374Y913602D02*
X1376069D01*
X1369290D02*
X1370985D01*
X1374374Y912755D02*
X1376916D01*
X1367595D02*
X1371832D01*
X1374374Y911908D02*
X1376916D01*
X1368443D02*
X1371832D01*
X1374374Y911060D02*
X1376916D01*
X1369290D02*
X1371832D01*
X1374374Y910213D02*
X1376916D01*
X1369290D02*
X1371832D01*
X1379458Y909366D02*
X1381153D01*
X1374374D02*
X1376916D01*
X1369290D02*
X1371832D01*
X1379458Y908518D02*
X1381153D01*
X1375221D02*
X1376916D01*
X1370137D02*
X1371832D01*
X1375221Y907671D02*
X1376916D01*
X1370137D02*
X1371832D01*
X1375221Y906824D02*
X1376916D01*
X1370137D02*
X1371832D01*
X1362511D02*
X1364206D01*
X1375221Y905976D02*
X1376916D01*
X1370137D02*
X1371832D01*
X1362511D02*
X1364206D01*
X1350649Y913602D02*
X1358275D01*
X1350649Y912755D02*
X1353191D01*
X1350649Y911908D02*
X1353191D01*
X1350649Y911060D02*
X1354038D01*
X1350649Y910213D02*
X1357428D01*
X1355733Y909366D02*
X1359122D01*
X1350649D02*
X1352343D01*
X1357428Y908518D02*
X1359969D01*
X1350649D02*
X1352343D01*
X1357428Y907671D02*
X1359969D01*
X1351496D02*
X1353191D01*
X1356580Y906824D02*
X1359969D01*
X1354038D02*
X1354886D01*
X1351496D02*
X1353191D01*
X1354886Y905976D02*
X1359122D01*
X1351496D02*
X1353191D01*
X1328618Y917839D02*
X1331160D01*
X1328618Y916992D02*
X1331160D01*
X1334550Y916144D02*
X1338786D01*
X1328618D02*
X1331160D01*
X1334550Y915297D02*
X1337092D01*
X1329466D02*
X1331160D01*
X1334550Y913602D02*
X1337092D01*
X1329466D02*
X1331160D01*
X1323534D02*
X1326924D01*
X1335397Y912755D02*
X1337939D01*
X1329466D02*
X1331160D01*
X1324382D02*
X1326924D01*
X1335397Y911908D02*
X1338786D01*
X1329466D02*
X1331160D01*
X1325229D02*
X1327771D01*
X1336244Y911060D02*
X1339634D01*
X1329466D02*
X1331160D01*
X1326076D02*
X1328618D01*
X1337092Y910213D02*
X1340481D01*
X1329466D02*
X1331160D01*
X1326076D02*
X1328618D01*
X1329466Y909366D02*
X1331160D01*
X1326076D02*
X1328618D01*
X1329466Y908518D02*
X1331160D01*
X1325229D02*
X1327771D01*
X1329466Y907671D02*
X1331160D01*
X1324382D02*
X1326924D01*
X1329466Y906824D02*
X1332008D01*
X1323534D02*
X1326076D01*
X1329466Y905976D02*
X1332008D01*
X1322687D02*
X1326076D01*
X1314214Y917839D02*
X1316756D01*
X1302351D02*
X1306588D01*
X1314214Y916992D02*
X1318450D01*
X1314214Y916144D02*
X1318450D01*
X1304893D02*
X1309130D01*
X1317603Y915297D02*
X1318450D01*
X1314214D02*
X1316756D01*
X1306588D02*
X1309130D01*
X1314214Y913602D02*
X1316756D01*
X1306588D02*
X1309130D01*
X1314214Y912755D02*
X1316756D01*
X1305741D02*
X1309130D01*
X1314214Y911908D02*
X1316756D01*
X1303199D02*
X1309130D01*
X1314214Y911060D02*
X1316756D01*
X1304046D02*
X1308282D01*
X1314214Y910213D02*
X1316756D01*
X1314214Y909366D02*
X1316756D01*
X1314214Y908518D02*
X1316756D01*
X1301504D02*
X1304893D01*
X1314214Y907671D02*
X1316756D01*
X1302351D02*
X1304893D01*
X1314214Y906824D02*
X1316756D01*
X1302351D02*
X1305741D01*
X1314214Y905976D02*
X1316756D01*
X1303199D02*
X1306588D01*
M02*
