G04*
G04 #@! TF.GenerationSoftware,Altium Limited,Altium Designer,18.1.9 (240)*
G04*
G04 Layer_Color=8388736*
%FSLAX44Y44*%
%MOMM*%
G71*
G01*
G75*
%ADD11C,0.2032*%
%ADD96R,1.0259X0.4902*%
D11*
X1418501Y970750D02*
G03*
X1418501Y970750I-17501J0D01*
G01*
X437501Y967550D02*
G03*
X437501Y967550I-17501J0D01*
G01*
X732501D02*
G03*
X732501Y967550I-17501J0D01*
G01*
X585001D02*
G03*
X585001Y967550I-17501J0D01*
G01*
X1295050Y1164399D02*
X1330950D01*
X1295050Y1068601D02*
Y1164399D01*
Y1068601D02*
X1330950D01*
Y1164399D01*
X1369999Y939749D02*
X1432001D01*
Y1001751D01*
X1369999D02*
X1432001D01*
X1369999Y939749D02*
Y1001751D01*
X451001Y936549D02*
Y998551D01*
X388999D02*
X451001D01*
X388999Y936549D02*
Y998551D01*
Y936549D02*
X451001D01*
X746001D02*
Y998551D01*
X683999D02*
X746001D01*
X683999Y936549D02*
Y998551D01*
Y936549D02*
X746001D01*
X598501D02*
Y998551D01*
X536499D02*
X598501D01*
X536499Y936549D02*
Y998551D01*
Y936549D02*
X598501D01*
D96*
X1288920Y1072050D02*
D03*
Y1084750D02*
D03*
Y1097450D02*
D03*
Y1110150D02*
D03*
Y1122850D02*
D03*
Y1135550D02*
D03*
Y1148250D02*
D03*
Y1160950D02*
D03*
X1337081D02*
D03*
Y1148250D02*
D03*
Y1135550D02*
D03*
Y1122850D02*
D03*
Y1110150D02*
D03*
Y1097450D02*
D03*
Y1084750D02*
D03*
Y1072050D02*
D03*
M02*
