G04*
G04 #@! TF.GenerationSoftware,Altium Limited,Altium Designer,18.1.9 (240)*
G04*
G04 Layer_Color=32896*
%FSLAX44Y44*%
%MOMM*%
G71*
G01*
G75*
%ADD13C,0.1270*%
%ADD15C,0.2540*%
%ADD17C,0.1000*%
%ADD87C,0.0000*%
D13*
X1531370Y1068000D02*
X1535370Y1070500D01*
X1531370Y1068000D02*
X1535370Y1065500D01*
Y1070500D01*
X1531370Y1072000D02*
X1535370D01*
X1531370Y1064000D02*
X1535370D01*
X1530620Y1048000D02*
X1534620Y1050500D01*
X1530620Y1048000D02*
X1534620Y1045500D01*
Y1050500D01*
X1530620Y1052000D02*
X1534620D01*
X1530620Y1044000D02*
X1534620D01*
X672120Y975500D02*
X676120Y978000D01*
X672120Y975500D02*
X676120Y973000D01*
Y978000D01*
X672120Y979500D02*
X676120D01*
X672120Y971500D02*
X676120D01*
X672120Y994500D02*
X676120Y997000D01*
X672120Y994500D02*
X676120Y992000D01*
Y997000D01*
X672120Y998500D02*
X676120D01*
X672120Y990500D02*
X676120D01*
X672120Y957250D02*
X676120Y959750D01*
X672120Y957250D02*
X676120Y954750D01*
Y959750D01*
X672120Y961250D02*
X676120D01*
X672120Y953250D02*
X676120D01*
X672120Y1013750D02*
X676120Y1016250D01*
X672120Y1013750D02*
X676120Y1011250D01*
Y1016250D01*
X672120Y1017750D02*
X676120D01*
X672120Y1009750D02*
X676120D01*
X1129250Y1150800D02*
Y1154300D01*
Y1084300D02*
Y1087800D01*
X1059250Y1150800D02*
Y1154300D01*
Y1084300D02*
Y1087800D01*
X1125750Y1154300D02*
X1129250D01*
X1125750Y1084300D02*
X1129250D01*
X1059250Y1154300D02*
X1062750D01*
X1059250Y1084300D02*
X1062750D01*
D15*
X1378207Y1029458D02*
X1380746Y1031997D01*
X1385825D01*
X1388364Y1029458D01*
Y1026919D01*
X1385825Y1024380D01*
X1380746D01*
X1378207Y1021840D01*
Y1019301D01*
X1380746Y1016762D01*
X1385825D01*
X1388364Y1019301D01*
X1373129Y1016762D02*
X1368051D01*
X1370590D01*
Y1031997D01*
X1373129Y1029458D01*
X1071327Y1068774D02*
X1073867Y1071313D01*
X1078945D01*
X1081484Y1068774D01*
Y1058617D01*
X1078945Y1056078D01*
X1073867D01*
X1071327Y1058617D01*
X1058631Y1056078D02*
Y1071313D01*
X1066249Y1063696D01*
X1056092D01*
X1131468Y1102244D02*
X1134007Y1104783D01*
X1139086D01*
X1141625Y1102244D01*
Y1092087D01*
X1139086Y1089548D01*
X1134007D01*
X1131468Y1092087D01*
X1126390Y1089548D02*
X1121311D01*
X1123851D01*
Y1104783D01*
X1126390Y1102244D01*
X1071323Y1052950D02*
X1073863Y1055489D01*
X1078941D01*
X1081480Y1052950D01*
Y1042793D01*
X1078941Y1040254D01*
X1073863D01*
X1071323Y1042793D01*
X1066245Y1052950D02*
X1063706Y1055489D01*
X1058627D01*
X1056088Y1052950D01*
Y1050411D01*
X1058627Y1047871D01*
X1061167D01*
X1058627D01*
X1056088Y1045332D01*
Y1042793D01*
X1058627Y1040254D01*
X1063706D01*
X1066245Y1042793D01*
X1149257Y1102606D02*
X1151796Y1105145D01*
X1156875D01*
X1159414Y1102606D01*
Y1092449D01*
X1156875Y1089910D01*
X1151796D01*
X1149257Y1092449D01*
X1134022Y1089910D02*
X1144179D01*
X1134022Y1100067D01*
Y1102606D01*
X1136561Y1105145D01*
X1141640D01*
X1144179Y1102606D01*
X1511554Y1062482D02*
Y1077717D01*
X1503936D01*
X1501397Y1075178D01*
Y1070099D01*
X1503936Y1067560D01*
X1511554D01*
X1506476D02*
X1501397Y1062482D01*
X1496319D02*
X1491241D01*
X1493780D01*
Y1077717D01*
X1496319Y1075178D01*
X1476006Y1062482D02*
Y1077717D01*
X1483623Y1070099D01*
X1473466D01*
X1511046Y1081786D02*
Y1097021D01*
X1503428D01*
X1500889Y1094482D01*
Y1089404D01*
X1503428Y1086864D01*
X1511046D01*
X1505968D02*
X1500889Y1081786D01*
X1495811Y1097021D02*
X1485654D01*
Y1094482D01*
X1495811Y1084325D01*
Y1081786D01*
X1534727Y1094232D02*
X1537266Y1096771D01*
X1542345D01*
X1544884Y1094232D01*
Y1084075D01*
X1542345Y1081536D01*
X1537266D01*
X1534727Y1084075D01*
X1529649Y1094232D02*
X1527110Y1096771D01*
X1522031D01*
X1519492Y1094232D01*
Y1091693D01*
X1522031Y1089154D01*
X1519492Y1086614D01*
Y1084075D01*
X1522031Y1081536D01*
X1527110D01*
X1529649Y1084075D01*
Y1086614D01*
X1527110Y1089154D01*
X1529649Y1091693D01*
Y1094232D01*
X1527110Y1089154D02*
X1522031D01*
X1533909Y1074424D02*
X1536449Y1076963D01*
X1541527D01*
X1544066Y1074424D01*
Y1064267D01*
X1541527Y1061728D01*
X1536449D01*
X1533909Y1064267D01*
X1528831Y1061728D02*
X1523753D01*
X1526292D01*
Y1076963D01*
X1528831Y1074424D01*
X1505978Y1061728D02*
X1516135D01*
X1505978Y1071885D01*
Y1074424D01*
X1508517Y1076963D01*
X1513596D01*
X1516135Y1074424D01*
X675393Y1001876D02*
X677933Y1004415D01*
X683011D01*
X685550Y1001876D01*
Y991719D01*
X683011Y989180D01*
X677933D01*
X675393Y991719D01*
X670315Y989180D02*
X665237D01*
X667776D01*
Y1004415D01*
X670315Y1001876D01*
X647462Y1004415D02*
X657619D01*
Y996797D01*
X652541Y999337D01*
X650002D01*
X647462Y996797D01*
Y991719D01*
X650002Y989180D01*
X655080D01*
X657619Y991719D01*
X675393Y1020732D02*
X677933Y1023271D01*
X683011D01*
X685550Y1020732D01*
Y1010575D01*
X683011Y1008036D01*
X677933D01*
X675393Y1010575D01*
X670315Y1008036D02*
X665237D01*
X667776D01*
Y1023271D01*
X670315Y1020732D01*
X650002Y1008036D02*
Y1023271D01*
X657619Y1015654D01*
X647462D01*
X639690Y950676D02*
X637151Y953215D01*
Y958294D01*
X639690Y960833D01*
X649847D01*
X652386Y958294D01*
Y953215D01*
X649847Y950676D01*
X652386Y945598D02*
Y940519D01*
Y943059D01*
X637151D01*
X639690Y945598D01*
X637151Y922745D02*
X639690Y927823D01*
X644769Y932902D01*
X649847D01*
X652386Y930363D01*
Y925284D01*
X649847Y922745D01*
X647308D01*
X644769Y925284D01*
Y932902D01*
X675393Y1040105D02*
X677933Y1042644D01*
X683011D01*
X685550Y1040105D01*
Y1029948D01*
X683011Y1027409D01*
X677933D01*
X675393Y1029948D01*
X670315Y1027409D02*
X665237D01*
X667776D01*
Y1042644D01*
X670315Y1040105D01*
X657619D02*
X655080Y1042644D01*
X650002D01*
X647462Y1040105D01*
Y1037566D01*
X650002Y1035027D01*
X652541D01*
X650002D01*
X647462Y1032487D01*
Y1029948D01*
X650002Y1027409D01*
X655080D01*
X657619Y1029948D01*
X448567Y1055112D02*
X451106Y1057651D01*
X456185D01*
X458724Y1055112D01*
Y1052573D01*
X456185Y1050033D01*
X451106D01*
X448567Y1047494D01*
Y1044955D01*
X451106Y1042416D01*
X456185D01*
X458724Y1044955D01*
X433332Y1042416D02*
X443489D01*
X433332Y1052573D01*
Y1055112D01*
X435871Y1057651D01*
X440950D01*
X443489Y1055112D01*
X602491D02*
X605031Y1057651D01*
X610109D01*
X612648Y1055112D01*
Y1052573D01*
X610109Y1050033D01*
X605031D01*
X602491Y1047494D01*
Y1044955D01*
X605031Y1042416D01*
X610109D01*
X612648Y1044955D01*
X589795Y1042416D02*
Y1057651D01*
X597413Y1050033D01*
X587256D01*
X525783Y1055112D02*
X528322Y1057651D01*
X533401D01*
X535940Y1055112D01*
Y1052573D01*
X533401Y1050033D01*
X528322D01*
X525783Y1047494D01*
Y1044955D01*
X528322Y1042416D01*
X533401D01*
X535940Y1044955D01*
X520705Y1055112D02*
X518166Y1057651D01*
X513087D01*
X510548Y1055112D01*
Y1052573D01*
X513087Y1050033D01*
X515627D01*
X513087D01*
X510548Y1047494D01*
Y1044955D01*
X513087Y1042416D01*
X518166D01*
X520705Y1044955D01*
X754380Y1215385D02*
Y1200150D01*
X744223D01*
X739145D02*
X734067D01*
X736606D01*
Y1215385D01*
X739145Y1212846D01*
X1151908Y1142922D02*
X1146830D01*
X1149369D01*
Y1158157D01*
X1151908Y1155618D01*
X326500Y1245220D02*
G03*
X296500Y1215220I0J-30000D01*
G01*
X1556500D02*
G03*
X1526500Y1245220I-30000J0D01*
G01*
Y885220D02*
G03*
X1556500Y915220I0J30000D01*
G01*
X296500D02*
G03*
X326500Y885220I30000J0D01*
G01*
X296500Y915220D02*
Y1215220D01*
X326500Y1244970D02*
X1526500D01*
X326500Y885220D02*
X1526500D01*
X1556500Y915220D02*
Y1215220D01*
D17*
X1445750Y1115850D02*
X1446750Y1116850D01*
X1445750Y1114850D02*
X1447750Y1116850D01*
X1445750Y1113850D02*
X1448750Y1116850D01*
X1445750Y1112850D02*
X1449750Y1116850D01*
X1445750Y1111850D02*
X1450750Y1116850D01*
X1445750Y1110850D02*
X1451750Y1116850D01*
X1445750Y1109850D02*
X1452750Y1116850D01*
X1445750Y1108850D02*
X1453750Y1116850D01*
X1445750Y1107850D02*
X1454750Y1116850D01*
X1445750Y1106850D02*
X1455750Y1116850D01*
X1445750Y1087650D02*
X1458750D01*
Y1116850D01*
X1445750D02*
X1458750D01*
X1445750Y1087650D02*
Y1116850D01*
D87*
X1139100Y1149500D02*
G03*
X1139100Y1149500I-2000J0D01*
G01*
M02*
