M48
;Layer_Color=9474304
;FILE_FORMAT=4:4
METRIC,LZ
;TYPE=PLATED
T1F00S00C0.2000
T2F00S00C0.3000
T3F00S00C0.6500
T4F00S00C0.7000
T5F00S00C0.8001
T6F00S00C0.9000
T7F00S00C3.0000
%
T01
X01075Y010975
X010825
Y01105
X01075
X0109
X010975
X01105
X011125
Y010975
X01105
X010975
X0109
Y011225
X010975
X01105
X011125
Y0113
Y011375
X01105
Y0113
X010975
X0109
X010825
X01075
Y011225
X010825
Y011375
X01075
X0109
X010975
X0114425Y0111725
X0115245Y011113
X011565Y0112175
X011455Y01102
X0114125Y01093
X0138825Y01048111
X0139575Y01048
X01396Y010405
X013885
X014035
Y01048
T02
X004205Y01012
X00568Y0101075
X0071225Y010055
X0071525Y0105
X00705Y0106775
X0077675Y010165
X00777607Y0098
Y00965
X0077572Y00955
Y0094
X008755Y0093975
X00897Y0094375
X008969Y0098
X00951Y0095365
X009475Y01017
X0094775Y010305
X0094725Y0108485
X008935Y010805
X008865Y0105525
X0085675Y0106725
X0107175Y0102975
X010785Y009845
X0115125
X0117075Y009775
X011835Y010348
X01183Y0104375
X012015Y010545
Y0101025
X012315Y0102775
X0122625Y0110475
X012665Y01087
X013055Y01080839
X013252Y0108475
X013145Y010275
X01433Y0102075
X0148175Y01036
X0148775Y00985
X0147Y0112
X01495Y01131269
Y011393
X0148625Y0114575
X0141425Y0116525
X01404Y0118825
X013985Y01095
X01406Y0106625
X014185Y01072
T03
X015102Y01108375
Y01156875
T04
X015405Y01105375
Y01159875
T05
X003115Y01124499
Y01154501
T06
X00322Y009626
Y00988
Y010134
Y010388
X00388501Y010919
Y011173
Y011427
Y011681
X01079Y0091022
X011044
X011298
X011552
X011806
X01206
X012314
X012568
X012822
X012823Y0122047
X013077
X013331
X013585
X013839
X014093
X012569
X012315
X012061
X011807
X011553
X011299
X011045
X010791
X010541Y0122047
X010287
X010033
X009779
X009525
X009271
X009017
X008763
X008509
X008255
X008001
X007747
X007493
X007239
X006985
X006731
X006477
X006223
X005969
X005715
X005461
X005207
X004953
X004699
X004445
T07
X003265Y0091522
X015265
Y0121522
X003265
M30
