G04*
G04 #@! TF.GenerationSoftware,Altium Limited,Altium Designer,18.1.9 (240)*
G04*
G04 Layer_Color=128*
%FSLAX44Y44*%
%MOMM*%
G71*
G01*
G75*
%ADD15C,0.2540*%
%ADD17C,0.1000*%
%ADD18R,0.8000X0.9000*%
%ADD25R,0.9000X0.8000*%
%ADD77R,1.3000X1.5499*%
%ADD78R,0.8000X0.8000*%
%ADD79R,4.9500X4.9500*%
%ADD80R,0.8400X0.2200*%
%ADD81R,0.2200X0.8400*%
G36*
X1091050Y1116100D02*
X1072650D01*
Y1097700D01*
X1091050D01*
Y1116100D01*
D02*
G37*
G36*
Y1140900D02*
X1072650D01*
Y1122500D01*
X1091050D01*
Y1140900D01*
D02*
G37*
G36*
X1115850Y1116100D02*
X1097450D01*
Y1097700D01*
X1115850D01*
Y1116100D01*
D02*
G37*
G36*
Y1140900D02*
X1097450D01*
Y1122500D01*
X1115850D01*
Y1140900D01*
D02*
G37*
D15*
X326500Y1245220D02*
G03*
X296500Y1215220I0J-30000D01*
G01*
X1556500D02*
G03*
X1526500Y1245220I-30000J0D01*
G01*
Y885220D02*
G03*
X1556500Y915220I0J30000D01*
G01*
X296500D02*
G03*
X326500Y885220I30000J0D01*
G01*
X296500Y915220D02*
Y1215220D01*
X326500Y1244970D02*
X1526500D01*
X326500Y885220D02*
X1526500D01*
X1556500Y915220D02*
Y1215220D01*
D17*
X1445750Y1115850D02*
X1446750Y1116850D01*
X1445750Y1114850D02*
X1447750Y1116850D01*
X1445750Y1113850D02*
X1448750Y1116850D01*
X1445750Y1112850D02*
X1449750Y1116850D01*
X1445750Y1111850D02*
X1450750Y1116850D01*
X1445750Y1110850D02*
X1451750Y1116850D01*
X1445750Y1109850D02*
X1452750Y1116850D01*
X1445750Y1108850D02*
X1453750Y1116850D01*
X1445750Y1107850D02*
X1454750Y1116850D01*
X1445750Y1106850D02*
X1455750Y1116850D01*
X1445750Y1087650D02*
X1458750D01*
Y1116850D01*
X1445750D02*
X1458750D01*
X1445750Y1087650D02*
Y1116850D01*
D18*
X1063750Y1041750D02*
D03*
X1077750D02*
D03*
X1063750Y1026000D02*
D03*
X1077750D02*
D03*
X1493750Y1048000D02*
D03*
X1507750D02*
D03*
X1507250Y1067500D02*
D03*
X1493250D02*
D03*
D25*
X1137500Y1061750D02*
D03*
Y1075750D02*
D03*
X1155250Y1062000D02*
D03*
Y1076000D02*
D03*
D77*
X1336501Y1000501D02*
D03*
Y920999D02*
D03*
X1381499Y1000501D02*
D03*
Y920999D02*
D03*
X451862Y946559D02*
D03*
Y1026061D02*
D03*
X406863Y946559D02*
D03*
Y1026061D02*
D03*
X605619Y946559D02*
D03*
Y1026061D02*
D03*
X560620Y946559D02*
D03*
Y1026061D02*
D03*
X528865Y946559D02*
D03*
Y1026061D02*
D03*
X483867Y946559D02*
D03*
Y1026061D02*
D03*
D78*
X1541370Y1068000D02*
D03*
X1525370D02*
D03*
X1540620Y1048000D02*
D03*
X1524620D02*
D03*
X682120Y975500D02*
D03*
X666120D02*
D03*
X682120Y994500D02*
D03*
X666120D02*
D03*
X682120Y957250D02*
D03*
X666120D02*
D03*
X682120Y1013750D02*
D03*
X666120D02*
D03*
D79*
X1094250Y1119300D02*
D03*
D80*
X1059800Y1147300D02*
D03*
Y1143300D02*
D03*
Y1139300D02*
D03*
Y1135300D02*
D03*
Y1131300D02*
D03*
Y1127300D02*
D03*
Y1123300D02*
D03*
Y1119300D02*
D03*
Y1115300D02*
D03*
Y1111300D02*
D03*
Y1107300D02*
D03*
Y1103300D02*
D03*
Y1099300D02*
D03*
Y1095300D02*
D03*
Y1091300D02*
D03*
X1128700D02*
D03*
Y1095300D02*
D03*
Y1099300D02*
D03*
Y1103300D02*
D03*
Y1107300D02*
D03*
Y1111300D02*
D03*
Y1115300D02*
D03*
Y1119300D02*
D03*
Y1123300D02*
D03*
Y1127300D02*
D03*
Y1131300D02*
D03*
Y1135300D02*
D03*
Y1139300D02*
D03*
Y1143300D02*
D03*
Y1147300D02*
D03*
D81*
X1122250Y1153750D02*
D03*
X1118250D02*
D03*
X1114250D02*
D03*
X1110250D02*
D03*
X1106250D02*
D03*
X1102250D02*
D03*
X1098250D02*
D03*
X1094250D02*
D03*
X1090250D02*
D03*
X1086250D02*
D03*
X1082250D02*
D03*
X1078250D02*
D03*
X1074250D02*
D03*
X1070250D02*
D03*
X1066250D02*
D03*
Y1084850D02*
D03*
X1070250D02*
D03*
X1074250D02*
D03*
X1078250D02*
D03*
X1082250D02*
D03*
X1086250D02*
D03*
X1090250D02*
D03*
X1094250D02*
D03*
X1098250D02*
D03*
X1102250D02*
D03*
X1106250D02*
D03*
X1110250D02*
D03*
X1114250D02*
D03*
X1118250D02*
D03*
X1122250D02*
D03*
M02*
