G04*
G04 #@! TF.GenerationSoftware,Altium Limited,Altium Designer,18.1.9 (240)*
G04*
G04 Layer_Color=32768*
%FSLAX44Y44*%
%MOMM*%
G71*
G01*
G75*
%ADD14C,0.2540*%
%ADD17C,0.1000*%
%ADD92C,0.0500*%
D14*
X326500Y1245220D02*
G03*
X296500Y1215220I0J-30000D01*
G01*
X1556500D02*
G03*
X1526500Y1245220I-30000J0D01*
G01*
Y885220D02*
G03*
X1556500Y915220I0J30000D01*
G01*
X296500D02*
G03*
X326500Y885220I30000J0D01*
G01*
X296500Y915220D02*
Y1215220D01*
X326500Y1244970D02*
X1526500D01*
X326500Y885220D02*
X1526500D01*
X1556500Y915220D02*
Y1215220D01*
D17*
X844250Y951000D02*
Y960500D01*
X839500Y955750D02*
X849000D01*
X831500Y962000D02*
X857000D01*
X831500Y949500D02*
X857000D01*
Y962000D01*
X831500Y949500D02*
Y962000D01*
X844250Y989250D02*
Y998750D01*
X839500Y994000D02*
X849000D01*
X831500Y1000250D02*
X857000D01*
X831500Y987750D02*
X857000D01*
Y1000250D01*
X831500Y987750D02*
Y1000250D01*
X844250Y969750D02*
Y979250D01*
X839500Y974500D02*
X849000D01*
X831500Y980750D02*
X857000D01*
X831500Y968250D02*
X857000D01*
Y980750D01*
X831500Y968250D02*
Y980750D01*
X844250Y932750D02*
Y942250D01*
X839500Y937500D02*
X849000D01*
X831500Y943750D02*
X857000D01*
X831500Y931250D02*
X857000D01*
Y943750D01*
X831500Y931250D02*
Y943750D01*
X1070750Y1037000D02*
Y1046500D01*
X1066000Y1041750D02*
X1075500D01*
X1058000Y1048000D02*
X1083500D01*
X1058000Y1035500D02*
X1083500D01*
Y1048000D01*
X1058000Y1035500D02*
Y1048000D01*
X1070750Y1021250D02*
Y1030750D01*
X1066000Y1026000D02*
X1075500D01*
X1058000Y1032250D02*
X1083500D01*
X1058000Y1019750D02*
X1083500D01*
Y1032250D01*
X1058000Y1019750D02*
Y1032250D01*
X1132750Y1068750D02*
X1142250D01*
X1137500Y1064000D02*
Y1073500D01*
X1131250Y1056000D02*
Y1081500D01*
X1143750Y1056000D02*
Y1081500D01*
X1131250D02*
X1143750D01*
X1131250Y1056000D02*
X1143750D01*
X1150500Y1069000D02*
X1160000D01*
X1155250Y1064250D02*
Y1073750D01*
X1149000Y1056250D02*
Y1081750D01*
X1161500Y1056250D02*
Y1081750D01*
X1149000D02*
X1161500D01*
X1149000Y1056250D02*
X1161500D01*
X1502250Y1062750D02*
Y1072250D01*
X1497500Y1067500D02*
X1507000D01*
X1489500Y1061250D02*
X1515000D01*
X1489500Y1073750D02*
X1515000D01*
X1489500Y1061250D02*
Y1073750D01*
X1515000Y1061250D02*
Y1073750D01*
X1502250Y1047250D02*
Y1056750D01*
X1497500Y1052000D02*
X1507000D01*
X1489500Y1058250D02*
X1515000D01*
X1489500Y1045750D02*
X1515000D01*
Y1058250D01*
X1489500Y1045750D02*
Y1058250D01*
X1515000Y992000D02*
X1525000D01*
X1520000Y987000D02*
Y997000D01*
X958750Y1077000D02*
X968250D01*
X963500Y1072250D02*
Y1081750D01*
X957250Y1064250D02*
Y1089750D01*
X969750Y1064250D02*
Y1089750D01*
X957250Y1064250D02*
X969750D01*
X957250Y1089750D02*
X969750D01*
X978500Y1096750D02*
X988000D01*
X983250Y1092000D02*
Y1101500D01*
X977000Y1084000D02*
Y1109500D01*
X989500Y1084000D02*
Y1109500D01*
X977000Y1084000D02*
X989500D01*
X977000Y1109500D02*
X989500D01*
X1167250Y1111500D02*
X1176750D01*
X1172000Y1106750D02*
Y1116250D01*
X1178250Y1098750D02*
Y1124250D01*
X1165750Y1098750D02*
Y1124250D01*
X1178250D01*
X1165750Y1098750D02*
X1178250D01*
X1167250Y1083000D02*
X1176750D01*
X1172000Y1078250D02*
Y1087750D01*
X1178250Y1070250D02*
Y1095750D01*
X1165750Y1070250D02*
Y1095750D01*
X1178250D01*
X1165750Y1070250D02*
X1178250D01*
X1151000Y1082750D02*
X1160500D01*
X1155750Y1078000D02*
Y1087500D01*
X1149500Y1070000D02*
Y1095500D01*
X1162000Y1070000D02*
Y1095500D01*
X1149500Y1070000D02*
X1162000D01*
X1149500Y1095500D02*
X1162000D01*
X1132250Y1069000D02*
X1141750D01*
X1137000Y1064250D02*
Y1073750D01*
X1143250Y1056250D02*
Y1081750D01*
X1130750Y1056250D02*
Y1081750D01*
X1143250D01*
X1130750Y1056250D02*
X1143250D01*
X1188500Y1104250D02*
X1198000D01*
X1193250Y1099500D02*
Y1109000D01*
X1199500Y1091500D02*
Y1117000D01*
X1187000Y1091500D02*
Y1117000D01*
X1199500D01*
X1187000Y1091500D02*
X1199500D01*
X1220250Y1075000D02*
X1230250D01*
X1225250Y1070000D02*
Y1080000D01*
X1220000Y1135550D02*
X1230000D01*
X1225000Y1130550D02*
Y1140550D01*
X1292750Y1023000D02*
Y1032500D01*
X1288000Y1027750D02*
X1297500D01*
X1280000Y1021500D02*
X1305500D01*
X1280000Y1034000D02*
X1305500D01*
Y1021500D02*
Y1034000D01*
X1280000Y1021500D02*
Y1034000D01*
X1253500Y1104500D02*
X1263000D01*
X1258250Y1099750D02*
Y1109250D01*
X1252000Y1091750D02*
Y1117250D01*
X1264500Y1091750D02*
Y1117250D01*
X1252000Y1091750D02*
X1264500D01*
X1252000Y1117250D02*
X1264500D01*
X1377000Y1109750D02*
X1386500D01*
X1381750Y1105000D02*
Y1114500D01*
X1375500Y1097000D02*
Y1122500D01*
X1388000Y1097000D02*
Y1122500D01*
X1375500Y1097000D02*
X1388000D01*
X1375500Y1122500D02*
X1388000D01*
X1416250Y1098000D02*
Y1103000D01*
X1413750Y1100500D02*
X1418750D01*
X1453000Y1040500D02*
Y1050500D01*
X1448000Y1045500D02*
X1458000D01*
X1368500Y1045250D02*
X1378000D01*
X1373250Y1040500D02*
Y1050000D01*
X1379500Y1032500D02*
Y1058000D01*
X1367000Y1032500D02*
Y1058000D01*
X1379500D01*
X1367000Y1032500D02*
X1379500D01*
X1453250Y1007250D02*
Y1016750D01*
X1448500Y1012000D02*
X1458000D01*
X1440500Y1018250D02*
X1466000D01*
X1440500Y1005750D02*
X1466000D01*
X1440500D02*
Y1018250D01*
X1466000Y1005750D02*
Y1018250D01*
X1460000Y968950D02*
X1469500D01*
X1464750Y964200D02*
Y973700D01*
X1471000Y956200D02*
Y981700D01*
X1458500Y956200D02*
Y981700D01*
X1471000D01*
X1458500Y956200D02*
X1471000D01*
X1442750Y957250D02*
Y966750D01*
X1438000Y962000D02*
X1447500D01*
X1430000Y968250D02*
X1455500D01*
X1430000Y955750D02*
X1455500D01*
X1430000D02*
Y968250D01*
X1455500Y955750D02*
Y968250D01*
X1442750Y971500D02*
Y981000D01*
X1438000Y976250D02*
X1447500D01*
X1430000Y970000D02*
X1455500D01*
X1430000Y982500D02*
X1455500D01*
Y970000D02*
Y982500D01*
X1430000Y970000D02*
Y982500D01*
X1527000Y1127750D02*
Y1137750D01*
X1522000Y1132750D02*
X1532000D01*
X1527000Y1127750D02*
Y1137750D01*
X1522000Y1132750D02*
X1532000D01*
X1305750Y1006500D02*
Y1019000D01*
X1280250Y1006500D02*
Y1019000D01*
Y1006500D02*
X1305750D01*
X1280250Y1019000D02*
X1305750D01*
X1288250Y1012750D02*
X1297750D01*
X1293000Y1008000D02*
Y1017500D01*
X1445750Y1087650D02*
Y1116850D01*
X1458750D01*
Y1087650D02*
Y1116850D01*
X1445750Y1087650D02*
X1458750D01*
X1445750Y1106850D02*
X1455750Y1116850D01*
X1445750Y1107850D02*
X1454750Y1116850D01*
X1445750Y1108850D02*
X1453750Y1116850D01*
X1445750Y1109850D02*
X1452750Y1116850D01*
X1445750Y1110850D02*
X1451750Y1116850D01*
X1445750Y1111850D02*
X1450750Y1116850D01*
X1445750Y1112850D02*
X1449750Y1116850D01*
X1445750Y1113850D02*
X1448750Y1116850D01*
X1445750Y1114850D02*
X1447750Y1116850D01*
X1445750Y1115850D02*
X1446750Y1116850D01*
D92*
X1455750Y1102250D02*
G03*
X1455750Y1102250I-3500J0D01*
G01*
X1496500Y1035250D02*
X1556500D01*
X1496500Y948750D02*
Y1035250D01*
X1556500Y948750D02*
Y1035250D01*
X1496500Y948750D02*
X1556500D01*
X1205250Y1051000D02*
Y1099000D01*
X1245250Y1051000D02*
Y1099000D01*
X1205250Y1051000D02*
X1245250D01*
X1205250Y1099000D02*
X1245250D01*
X1245000Y1111550D02*
Y1159550D01*
X1205000Y1111550D02*
Y1159550D01*
X1245000D01*
X1205000Y1111550D02*
X1245000D01*
X1407250Y1078550D02*
Y1122450D01*
X1425250D01*
Y1078550D02*
Y1122450D01*
X1407250Y1078550D02*
X1425250D01*
X1447250Y1102250D02*
X1457250D01*
X1452250Y1097250D02*
Y1107250D01*
X1432750Y1084250D02*
Y1120250D01*
X1471750D01*
Y1084250D02*
Y1120250D01*
X1432750Y1084250D02*
X1471750D01*
X1429500Y1066000D02*
X1476500D01*
X1429500Y1025000D02*
X1476500D01*
X1429500D02*
Y1066000D01*
X1476500Y1025000D02*
Y1066000D01*
X1501250Y1084000D02*
Y1181500D01*
M02*
