G04*
G04 #@! TF.GenerationSoftware,Altium Limited,Altium Designer,18.1.9 (240)*
G04*
G04 Layer_Color=8421504*
%FSLAX44Y44*%
%MOMM*%
G71*
G01*
G75*
%ADD16C,0.2540*%
%ADD18R,0.9000X2.0000*%
%ADD19R,2.0000X0.9000*%
%ADD20R,5.0000X5.0000*%
%ADD21R,0.9000X0.8000*%
%ADD22R,0.8400X0.2200*%
%ADD23R,0.2200X0.8400*%
%ADD24R,4.9500X4.9500*%
%ADD25R,1.2000X0.4500*%
%ADD26R,0.8000X0.9000*%
%ADD27R,1.5240X0.6350*%
%ADD28R,1.3000X0.7000*%
%ADD29R,0.8000X0.8000*%
%ADD30R,1.6000X0.6000*%
%ADD31R,0.4500X0.6000*%
%ADD32R,2.6000X1.8000*%
%ADD33R,0.9140X1.2190*%
%ADD34R,1.3000X1.5499*%
G36*
X927090Y1022340D02*
Y1040740D01*
X945490D01*
Y1022340D01*
X927090D01*
D02*
G37*
G36*
Y1047140D02*
Y1065540D01*
X945490D01*
Y1047140D01*
X927090D01*
D02*
G37*
G36*
X951890Y1022340D02*
Y1040740D01*
X970290D01*
Y1022340D01*
X951890D01*
D02*
G37*
G36*
Y1047140D02*
Y1065540D01*
X970290D01*
Y1047140D01*
X951890D01*
D02*
G37*
G36*
X1394221Y1092657D02*
Y1060989D01*
X1362531D01*
Y1092657D01*
X1394221D01*
D02*
G37*
D16*
X326500Y1245220D02*
G03*
X296500Y1215220I0J-30000D01*
G01*
X1556500D02*
G03*
X1526500Y1245220I-30000J0D01*
G01*
Y885220D02*
G03*
X1556500Y915220I0J30000D01*
G01*
X296500D02*
G03*
X326500Y885220I30000J0D01*
G01*
X296500Y915220D02*
Y1215220D01*
X326500Y1244970D02*
X1526500D01*
X326500Y885220D02*
X1526500D01*
X1556500Y915220D02*
Y1215220D01*
D18*
X1453410Y981800D02*
D03*
X1440710D02*
D03*
X1428010D02*
D03*
X1415310D02*
D03*
X1402610D02*
D03*
X1389910D02*
D03*
X1377210D02*
D03*
X1364510D02*
D03*
X1351810D02*
D03*
X1339110D02*
D03*
X1326410D02*
D03*
X1313710D02*
D03*
X1301010D02*
D03*
X1288310D02*
D03*
Y1151800D02*
D03*
X1301010D02*
D03*
X1313710D02*
D03*
X1326410D02*
D03*
X1339110D02*
D03*
X1351810D02*
D03*
X1364510D02*
D03*
X1377210D02*
D03*
X1389910D02*
D03*
X1402610D02*
D03*
X1415310D02*
D03*
X1428010D02*
D03*
X1440710D02*
D03*
X1453410D02*
D03*
D19*
X1278310Y1009650D02*
D03*
Y1022350D02*
D03*
Y1035050D02*
D03*
Y1047750D02*
D03*
Y1060450D02*
D03*
Y1073150D02*
D03*
Y1085850D02*
D03*
Y1098550D02*
D03*
Y1111250D02*
D03*
Y1123950D02*
D03*
D20*
X1378410Y1076800D02*
D03*
D21*
X1432560Y904860D02*
D03*
Y918860D02*
D03*
X1361440Y904860D02*
D03*
Y918860D02*
D03*
X1290320Y904860D02*
D03*
Y918860D02*
D03*
X467360Y916290D02*
D03*
Y930290D02*
D03*
X454660Y986140D02*
D03*
Y1000140D02*
D03*
X858520Y1132190D02*
D03*
Y1146190D02*
D03*
X434340Y1132190D02*
D03*
Y1146190D02*
D03*
X378460Y1132190D02*
D03*
Y1146190D02*
D03*
D22*
X983140Y1015940D02*
D03*
Y1019940D02*
D03*
Y1023940D02*
D03*
Y1027940D02*
D03*
Y1031940D02*
D03*
Y1035940D02*
D03*
Y1039940D02*
D03*
Y1043940D02*
D03*
Y1047940D02*
D03*
Y1051940D02*
D03*
Y1055940D02*
D03*
Y1059940D02*
D03*
Y1063940D02*
D03*
Y1067940D02*
D03*
Y1071940D02*
D03*
X914240D02*
D03*
Y1067940D02*
D03*
Y1063940D02*
D03*
Y1059940D02*
D03*
Y1055940D02*
D03*
Y1051940D02*
D03*
Y1047940D02*
D03*
Y1043940D02*
D03*
Y1039940D02*
D03*
Y1035940D02*
D03*
Y1031940D02*
D03*
Y1027940D02*
D03*
Y1023940D02*
D03*
Y1019940D02*
D03*
Y1015940D02*
D03*
D23*
X920690Y1009490D02*
D03*
X924690D02*
D03*
X928690D02*
D03*
X932690D02*
D03*
X936690D02*
D03*
X940690D02*
D03*
X944690D02*
D03*
X948690D02*
D03*
X952690D02*
D03*
X956690D02*
D03*
X960690D02*
D03*
X964690D02*
D03*
X968690D02*
D03*
X972690D02*
D03*
X976690D02*
D03*
Y1078390D02*
D03*
X972690D02*
D03*
X968690D02*
D03*
X964690D02*
D03*
X960690D02*
D03*
X956690D02*
D03*
X952690D02*
D03*
X948690D02*
D03*
X944690D02*
D03*
X940690D02*
D03*
X936690D02*
D03*
X932690D02*
D03*
X928690D02*
D03*
X924690D02*
D03*
X920690D02*
D03*
D24*
X948690Y1043940D02*
D03*
D25*
X363680Y1092940D02*
D03*
Y1086440D02*
D03*
Y1079940D02*
D03*
Y1073440D02*
D03*
Y1066940D02*
D03*
D26*
X1153780Y976630D02*
D03*
X1167780D02*
D03*
X1110600D02*
D03*
X1124600D02*
D03*
X1067420D02*
D03*
X1081420D02*
D03*
X1024240D02*
D03*
X1038240D02*
D03*
X581010Y929640D02*
D03*
X595010D02*
D03*
X537830D02*
D03*
X551830D02*
D03*
X423530D02*
D03*
X437530D02*
D03*
X666100Y999490D02*
D03*
X680100D02*
D03*
X622920D02*
D03*
X636920D02*
D03*
X807070Y1145540D02*
D03*
X821070D02*
D03*
D27*
X1225829Y1084580D02*
D03*
X1171931Y1109980D02*
D03*
X1225829Y1071880D02*
D03*
Y1097280D02*
D03*
Y1109980D02*
D03*
X1171931Y1097280D02*
D03*
Y1122680D02*
D03*
Y1135380D02*
D03*
X1225829D02*
D03*
X1171931Y1160780D02*
D03*
X1225829Y1122680D02*
D03*
Y1148080D02*
D03*
X1171931D02*
D03*
X1225829Y1160780D02*
D03*
X1171931Y1084580D02*
D03*
Y1071880D02*
D03*
D28*
X629350Y925170D02*
D03*
Y915670D02*
D03*
Y906170D02*
D03*
X653350D02*
D03*
Y925170D02*
D03*
D29*
X708660Y984250D02*
D03*
Y1000250D02*
D03*
D30*
X569390Y995020D02*
D03*
Y976020D02*
D03*
X591390Y985520D02*
D03*
X399210Y995020D02*
D03*
Y976020D02*
D03*
X421210Y985520D02*
D03*
D31*
X986180Y1148110D02*
D03*
X995680Y1120110D02*
D03*
X1005180Y1148110D02*
D03*
X995680D02*
D03*
X986180Y1120110D02*
D03*
X1005180D02*
D03*
D32*
X995680Y1134110D02*
D03*
D33*
X928497Y1143000D02*
D03*
X961263D02*
D03*
D34*
X733151Y1063879D02*
D03*
Y1143381D02*
D03*
X778149Y1063879D02*
D03*
Y1143381D02*
D03*
X656951Y1063879D02*
D03*
Y1143381D02*
D03*
X701949Y1063879D02*
D03*
Y1143381D02*
D03*
X579481Y1063879D02*
D03*
Y1143381D02*
D03*
X624479Y1063879D02*
D03*
Y1143381D02*
D03*
X503281Y1063879D02*
D03*
Y1143381D02*
D03*
X548279Y1063879D02*
D03*
Y1143381D02*
D03*
M02*
