G04*
G04 #@! TF.GenerationSoftware,Altium Limited,Altium Designer,18.1.9 (240)*
G04*
G04 Layer_Physical_Order=2*
G04 Layer_Color=16711680*
%FSLAX44Y44*%
%MOMM*%
G71*
G01*
G75*
%ADD16C,0.2540*%
%ADD59R,1.5000X1.5000*%
%ADD60C,1.5000*%
%ADD61R,1.1000X1.1000*%
%ADD62O,1.6000X1.2000*%
%ADD63O,1.8000X1.1000*%
%ADD64R,1.5000X1.5000*%
%ADD65C,3.0000*%
D16*
X326500Y1245220D02*
G03*
X296500Y1215220I0J-30000D01*
G01*
X1556500D02*
G03*
X1526500Y1245220I-30000J0D01*
G01*
Y885220D02*
G03*
X1556500Y915220I0J30000D01*
G01*
X296500D02*
G03*
X326500Y885220I30000J0D01*
G01*
X296500Y915220D02*
Y1215220D01*
X326500Y1244970D02*
X1526500D01*
X326500Y885220D02*
X1526500D01*
X1556500Y915220D02*
Y1215220D01*
D59*
X444500Y1220470D02*
D03*
X1079100Y1220470D02*
D03*
X1099820Y927100D02*
D03*
D60*
X469900Y1220470D02*
D03*
X495300D02*
D03*
X520700D02*
D03*
X546100D02*
D03*
X571500D02*
D03*
X596900D02*
D03*
X622300D02*
D03*
X647700D02*
D03*
X673100D02*
D03*
X698500D02*
D03*
X723900D02*
D03*
X749300D02*
D03*
X774700D02*
D03*
X800100D02*
D03*
X825500D02*
D03*
X850900D02*
D03*
X876300D02*
D03*
X901700D02*
D03*
X927100D02*
D03*
X952500D02*
D03*
X977900D02*
D03*
X1003300D02*
D03*
X1028700D02*
D03*
X1054100D02*
D03*
X1409300Y1220470D02*
D03*
X1383900D02*
D03*
X1358500D02*
D03*
X1333100D02*
D03*
X1307700D02*
D03*
X1282300D02*
D03*
X1256900D02*
D03*
X1231500D02*
D03*
X1206100D02*
D03*
X1180700D02*
D03*
X1155300D02*
D03*
X1129900D02*
D03*
X1104500D02*
D03*
X1049020Y927100D02*
D03*
X1023620D02*
D03*
X998220D02*
D03*
X972820D02*
D03*
X947420D02*
D03*
X922020D02*
D03*
X896620D02*
D03*
X1074420D02*
D03*
X825500Y1051940D02*
D03*
Y1026540D02*
D03*
Y1001140D02*
D03*
Y975740D02*
D03*
D61*
X339550Y1037690D02*
D03*
X330310D02*
D03*
Y1122190D02*
D03*
X339550D02*
D03*
D62*
X360680Y1115940D02*
D03*
Y1043940D02*
D03*
D63*
X343680Y1122190D02*
D03*
X326180D02*
D03*
Y1037690D02*
D03*
X343680D02*
D03*
D64*
X825500Y950340D02*
D03*
D65*
X326500Y1215220D02*
D03*
X1526500D02*
D03*
Y915220D02*
D03*
X326500D02*
D03*
M02*
