G04*
G04 #@! TF.GenerationSoftware,Altium Limited,Altium Designer,18.1.9 (240)*
G04*
G04 Layer_Physical_Order=1*
G04 Layer_Color=255*
%FSLAX44Y44*%
%MOMM*%
G71*
G01*
G75*
%ADD10C,0.2500*%
%ADD15C,0.1270*%
%ADD17R,0.8000X0.9000*%
%ADD18R,0.9000X0.8000*%
%ADD19R,0.6000X1.6000*%
%ADD20R,1.5240X0.6350*%
%ADD21R,1.2190X0.9140*%
%ADD22R,1.0500X0.6000*%
%ADD23R,1.3000X0.7000*%
%ADD24R,2.6000X1.8000*%
%ADD25R,0.4500X0.6000*%
%ADD26R,2.0000X0.9000*%
%ADD27R,0.9000X2.0000*%
%ADD28R,5.0000X5.0000*%
%ADD29R,2.0000X0.8001*%
%ADD30R,0.8001X1.0000*%
%ADD31R,0.8001X0.8999*%
%ADD58C,0.5000*%
%ADD59C,0.1000*%
%ADD60R,5.0250X1.6628*%
%ADD61R,5.0071X2.3200*%
%ADD62C,1.5000*%
%ADD63R,1.5000X1.5000*%
%ADD64R,1.1000X1.1000*%
%ADD65O,1.8000X1.1000*%
%ADD66O,1.6000X1.2000*%
%ADD67C,1.2002*%
%ADD68C,0.8001*%
%ADD69R,1.5000X1.5000*%
%ADD70C,0.5000*%
%ADD71C,0.4500*%
%ADD72C,3.0000*%
G36*
X326274Y1246494D02*
X1529000Y1246494D01*
X1529000Y1246494D01*
X1529000Y1246494D01*
X1531075Y1246292D01*
X1535138Y1245349D01*
X1539043Y1243883D01*
X1542723Y1241921D01*
X1546116Y1239495D01*
X1549163Y1236647D01*
X1551812Y1233426D01*
X1554018Y1229886D01*
X1555743Y1226089D01*
X1556958Y1222099D01*
X1557641Y1217985D01*
X1557782Y1213817D01*
X1557580Y1211741D01*
X1557774Y912500D01*
X1557774Y912500D01*
X1557554Y910424D01*
X1556577Y906364D01*
X1555078Y902467D01*
X1553083Y898798D01*
X1550626Y895422D01*
X1547750Y892394D01*
X1544503Y889769D01*
X1540941Y887589D01*
X1537125Y885893D01*
X1533121Y884710D01*
X1528996Y884059D01*
X1524822Y883953D01*
X1522746Y884172D01*
X326273D01*
X324257Y884172D01*
X320257Y884699D01*
X316360Y885743D01*
X312633Y887287D01*
X309140Y889304D01*
X305940Y891759D01*
X303087Y894612D01*
X300631Y897812D01*
X298614Y901306D01*
X297071Y905033D01*
X296026Y908930D01*
X295500Y912929D01*
X295500Y914946D01*
Y986025D01*
X295500Y987250D01*
X295500Y987250D01*
X295499Y987253D01*
X295490Y987347D01*
X295416Y987527D01*
X295416Y987528D01*
X295336Y987607D01*
X294996Y988346D01*
X294500Y1074750D01*
X294569Y1094270D01*
X294726Y1095475D01*
X295844Y1095475D01*
X305775D01*
Y1108523D01*
X295890D01*
X294625Y1109752D01*
X294841Y1170477D01*
X305775D01*
Y1183525D01*
X295787D01*
X294890Y1184424D01*
X295000Y1215220D01*
X295000Y1215220D01*
X295000Y1217270D01*
X295535Y1221334D01*
X296596Y1225294D01*
X298165Y1229082D01*
X300214Y1232632D01*
X302710Y1235885D01*
X305609Y1238784D01*
X308862Y1241279D01*
X312412Y1243329D01*
X316199Y1244898D01*
X320159Y1245959D01*
X324224Y1246494D01*
X326274Y1246494D01*
D02*
G37*
%LPC*%
G36*
X453524Y1229494D02*
X435476D01*
Y1211446D01*
X453524D01*
Y1229494D01*
D02*
G37*
G36*
X1088124Y1229494D02*
X1070076D01*
Y1211446D01*
X1088124D01*
Y1229494D01*
D02*
G37*
G36*
X1054100Y1229572D02*
X1051744Y1229262D01*
X1049549Y1228352D01*
X1047664Y1226906D01*
X1046218Y1225021D01*
X1045308Y1222826D01*
X1044998Y1220470D01*
X1045308Y1218114D01*
X1046218Y1215919D01*
X1047664Y1214034D01*
X1049549Y1212588D01*
X1051744Y1211678D01*
X1054100Y1211368D01*
X1056456Y1211678D01*
X1058651Y1212588D01*
X1060536Y1214034D01*
X1061982Y1215919D01*
X1062892Y1218114D01*
X1063202Y1220470D01*
X1062892Y1222826D01*
X1061982Y1225021D01*
X1060536Y1226906D01*
X1058651Y1228352D01*
X1056456Y1229262D01*
X1054100Y1229572D01*
D02*
G37*
G36*
X1028700D02*
X1026344Y1229262D01*
X1024149Y1228352D01*
X1022264Y1226906D01*
X1020818Y1225021D01*
X1019908Y1222826D01*
X1019598Y1220470D01*
X1019908Y1218114D01*
X1020818Y1215919D01*
X1022264Y1214034D01*
X1024149Y1212588D01*
X1026344Y1211678D01*
X1028700Y1211368D01*
X1031056Y1211678D01*
X1033251Y1212588D01*
X1035136Y1214034D01*
X1036582Y1215919D01*
X1037492Y1218114D01*
X1037802Y1220470D01*
X1037492Y1222826D01*
X1036582Y1225021D01*
X1035136Y1226906D01*
X1033251Y1228352D01*
X1031056Y1229262D01*
X1028700Y1229572D01*
D02*
G37*
G36*
X1003300D02*
X1000944Y1229262D01*
X998749Y1228352D01*
X996864Y1226906D01*
X995418Y1225021D01*
X994508Y1222826D01*
X994198Y1220470D01*
X994508Y1218114D01*
X995418Y1215919D01*
X996864Y1214034D01*
X998749Y1212588D01*
X1000944Y1211678D01*
X1003300Y1211368D01*
X1005656Y1211678D01*
X1007851Y1212588D01*
X1009736Y1214034D01*
X1011182Y1215919D01*
X1012092Y1218114D01*
X1012402Y1220470D01*
X1012092Y1222826D01*
X1011182Y1225021D01*
X1009736Y1226906D01*
X1007851Y1228352D01*
X1005656Y1229262D01*
X1003300Y1229572D01*
D02*
G37*
G36*
X977900D02*
X975544Y1229262D01*
X973349Y1228352D01*
X971464Y1226906D01*
X970018Y1225021D01*
X969108Y1222826D01*
X968798Y1220470D01*
X969108Y1218114D01*
X970018Y1215919D01*
X971464Y1214034D01*
X973349Y1212588D01*
X975544Y1211678D01*
X977900Y1211368D01*
X980256Y1211678D01*
X982451Y1212588D01*
X984336Y1214034D01*
X985782Y1215919D01*
X986692Y1218114D01*
X987002Y1220470D01*
X986692Y1222826D01*
X985782Y1225021D01*
X984336Y1226906D01*
X982451Y1228352D01*
X980256Y1229262D01*
X977900Y1229572D01*
D02*
G37*
G36*
X952500D02*
X950144Y1229262D01*
X947949Y1228352D01*
X946064Y1226906D01*
X944618Y1225021D01*
X943708Y1222826D01*
X943398Y1220470D01*
X943708Y1218114D01*
X944618Y1215919D01*
X946064Y1214034D01*
X947949Y1212588D01*
X950144Y1211678D01*
X952500Y1211368D01*
X954856Y1211678D01*
X957051Y1212588D01*
X958936Y1214034D01*
X960382Y1215919D01*
X961292Y1218114D01*
X961602Y1220470D01*
X961292Y1222826D01*
X960382Y1225021D01*
X958936Y1226906D01*
X957051Y1228352D01*
X954856Y1229262D01*
X952500Y1229572D01*
D02*
G37*
G36*
X927100D02*
X924744Y1229262D01*
X922549Y1228352D01*
X920664Y1226906D01*
X919218Y1225021D01*
X918308Y1222826D01*
X917998Y1220470D01*
X918308Y1218114D01*
X919218Y1215919D01*
X920664Y1214034D01*
X922549Y1212588D01*
X924744Y1211678D01*
X927100Y1211368D01*
X929456Y1211678D01*
X931651Y1212588D01*
X933536Y1214034D01*
X934982Y1215919D01*
X935892Y1218114D01*
X936202Y1220470D01*
X935892Y1222826D01*
X934982Y1225021D01*
X933536Y1226906D01*
X931651Y1228352D01*
X929456Y1229262D01*
X927100Y1229572D01*
D02*
G37*
G36*
X901700D02*
X899344Y1229262D01*
X897149Y1228352D01*
X895264Y1226906D01*
X893818Y1225021D01*
X892908Y1222826D01*
X892598Y1220470D01*
X892908Y1218114D01*
X893818Y1215919D01*
X895264Y1214034D01*
X897149Y1212588D01*
X899344Y1211678D01*
X901700Y1211368D01*
X904056Y1211678D01*
X906251Y1212588D01*
X908136Y1214034D01*
X909582Y1215919D01*
X910492Y1218114D01*
X910802Y1220470D01*
X910492Y1222826D01*
X909582Y1225021D01*
X908136Y1226906D01*
X906251Y1228352D01*
X904056Y1229262D01*
X901700Y1229572D01*
D02*
G37*
G36*
X876300D02*
X873944Y1229262D01*
X871749Y1228352D01*
X869864Y1226906D01*
X868418Y1225021D01*
X867508Y1222826D01*
X867198Y1220470D01*
X867508Y1218114D01*
X868418Y1215919D01*
X869864Y1214034D01*
X871749Y1212588D01*
X873944Y1211678D01*
X876300Y1211368D01*
X878656Y1211678D01*
X880851Y1212588D01*
X882736Y1214034D01*
X884182Y1215919D01*
X885092Y1218114D01*
X885402Y1220470D01*
X885092Y1222826D01*
X884182Y1225021D01*
X882736Y1226906D01*
X880851Y1228352D01*
X878656Y1229262D01*
X876300Y1229572D01*
D02*
G37*
G36*
X850900D02*
X848544Y1229262D01*
X846349Y1228352D01*
X844464Y1226906D01*
X843018Y1225021D01*
X842108Y1222826D01*
X841798Y1220470D01*
X842108Y1218114D01*
X843018Y1215919D01*
X844464Y1214034D01*
X846349Y1212588D01*
X848544Y1211678D01*
X850900Y1211368D01*
X853256Y1211678D01*
X855451Y1212588D01*
X857336Y1214034D01*
X858782Y1215919D01*
X859692Y1218114D01*
X860002Y1220470D01*
X859692Y1222826D01*
X858782Y1225021D01*
X857336Y1226906D01*
X855451Y1228352D01*
X853256Y1229262D01*
X850900Y1229572D01*
D02*
G37*
G36*
X825500D02*
X823144Y1229262D01*
X820949Y1228352D01*
X819064Y1226906D01*
X817618Y1225021D01*
X816708Y1222826D01*
X816398Y1220470D01*
X816708Y1218114D01*
X817618Y1215919D01*
X819064Y1214034D01*
X820949Y1212588D01*
X823144Y1211678D01*
X825500Y1211368D01*
X827856Y1211678D01*
X830051Y1212588D01*
X831936Y1214034D01*
X833382Y1215919D01*
X834292Y1218114D01*
X834602Y1220470D01*
X834292Y1222826D01*
X833382Y1225021D01*
X831936Y1226906D01*
X830051Y1228352D01*
X827856Y1229262D01*
X825500Y1229572D01*
D02*
G37*
G36*
X800100D02*
X797744Y1229262D01*
X795549Y1228352D01*
X793664Y1226906D01*
X792218Y1225021D01*
X791308Y1222826D01*
X790998Y1220470D01*
X791308Y1218114D01*
X792218Y1215919D01*
X793664Y1214034D01*
X795549Y1212588D01*
X797744Y1211678D01*
X800100Y1211368D01*
X802456Y1211678D01*
X804651Y1212588D01*
X806536Y1214034D01*
X807982Y1215919D01*
X808892Y1218114D01*
X809202Y1220470D01*
X808892Y1222826D01*
X807982Y1225021D01*
X806536Y1226906D01*
X804651Y1228352D01*
X802456Y1229262D01*
X800100Y1229572D01*
D02*
G37*
G36*
X774700D02*
X772344Y1229262D01*
X770149Y1228352D01*
X768264Y1226906D01*
X766818Y1225021D01*
X765908Y1222826D01*
X765598Y1220470D01*
X765908Y1218114D01*
X766818Y1215919D01*
X768264Y1214034D01*
X770149Y1212588D01*
X772344Y1211678D01*
X774700Y1211368D01*
X777056Y1211678D01*
X779251Y1212588D01*
X781136Y1214034D01*
X782582Y1215919D01*
X783492Y1218114D01*
X783802Y1220470D01*
X783492Y1222826D01*
X782582Y1225021D01*
X781136Y1226906D01*
X779251Y1228352D01*
X777056Y1229262D01*
X774700Y1229572D01*
D02*
G37*
G36*
X749300D02*
X746944Y1229262D01*
X744749Y1228352D01*
X742864Y1226906D01*
X741418Y1225021D01*
X740508Y1222826D01*
X740198Y1220470D01*
X740508Y1218114D01*
X741418Y1215919D01*
X742864Y1214034D01*
X744749Y1212588D01*
X746944Y1211678D01*
X749300Y1211368D01*
X751656Y1211678D01*
X753851Y1212588D01*
X755736Y1214034D01*
X757182Y1215919D01*
X758092Y1218114D01*
X758402Y1220470D01*
X758092Y1222826D01*
X757182Y1225021D01*
X755736Y1226906D01*
X753851Y1228352D01*
X751656Y1229262D01*
X749300Y1229572D01*
D02*
G37*
G36*
X723900D02*
X721544Y1229262D01*
X719349Y1228352D01*
X717464Y1226906D01*
X716018Y1225021D01*
X715108Y1222826D01*
X714798Y1220470D01*
X715108Y1218114D01*
X716018Y1215919D01*
X717464Y1214034D01*
X719349Y1212588D01*
X721544Y1211678D01*
X723900Y1211368D01*
X726256Y1211678D01*
X728451Y1212588D01*
X730336Y1214034D01*
X731782Y1215919D01*
X732692Y1218114D01*
X733002Y1220470D01*
X732692Y1222826D01*
X731782Y1225021D01*
X730336Y1226906D01*
X728451Y1228352D01*
X726256Y1229262D01*
X723900Y1229572D01*
D02*
G37*
G36*
X698500D02*
X696144Y1229262D01*
X693949Y1228352D01*
X692064Y1226906D01*
X690618Y1225021D01*
X689708Y1222826D01*
X689398Y1220470D01*
X689708Y1218114D01*
X690618Y1215919D01*
X692064Y1214034D01*
X693949Y1212588D01*
X696144Y1211678D01*
X698500Y1211368D01*
X700856Y1211678D01*
X703051Y1212588D01*
X704936Y1214034D01*
X706382Y1215919D01*
X707292Y1218114D01*
X707602Y1220470D01*
X707292Y1222826D01*
X706382Y1225021D01*
X704936Y1226906D01*
X703051Y1228352D01*
X700856Y1229262D01*
X698500Y1229572D01*
D02*
G37*
G36*
X673100D02*
X670744Y1229262D01*
X668549Y1228352D01*
X666664Y1226906D01*
X665218Y1225021D01*
X664308Y1222826D01*
X663998Y1220470D01*
X664308Y1218114D01*
X665218Y1215919D01*
X666664Y1214034D01*
X668549Y1212588D01*
X670744Y1211678D01*
X673100Y1211368D01*
X675456Y1211678D01*
X677651Y1212588D01*
X679536Y1214034D01*
X680982Y1215919D01*
X681892Y1218114D01*
X682202Y1220470D01*
X681892Y1222826D01*
X680982Y1225021D01*
X679536Y1226906D01*
X677651Y1228352D01*
X675456Y1229262D01*
X673100Y1229572D01*
D02*
G37*
G36*
X647700D02*
X645344Y1229262D01*
X643149Y1228352D01*
X641264Y1226906D01*
X639818Y1225021D01*
X638908Y1222826D01*
X638598Y1220470D01*
X638908Y1218114D01*
X639818Y1215919D01*
X641264Y1214034D01*
X643149Y1212588D01*
X645344Y1211678D01*
X647700Y1211368D01*
X650056Y1211678D01*
X652251Y1212588D01*
X654136Y1214034D01*
X655582Y1215919D01*
X656492Y1218114D01*
X656802Y1220470D01*
X656492Y1222826D01*
X655582Y1225021D01*
X654136Y1226906D01*
X652251Y1228352D01*
X650056Y1229262D01*
X647700Y1229572D01*
D02*
G37*
G36*
X622300D02*
X619944Y1229262D01*
X617749Y1228352D01*
X615864Y1226906D01*
X614418Y1225021D01*
X613508Y1222826D01*
X613198Y1220470D01*
X613508Y1218114D01*
X614418Y1215919D01*
X615864Y1214034D01*
X617749Y1212588D01*
X619944Y1211678D01*
X622300Y1211368D01*
X624656Y1211678D01*
X626851Y1212588D01*
X628736Y1214034D01*
X630182Y1215919D01*
X631092Y1218114D01*
X631402Y1220470D01*
X631092Y1222826D01*
X630182Y1225021D01*
X628736Y1226906D01*
X626851Y1228352D01*
X624656Y1229262D01*
X622300Y1229572D01*
D02*
G37*
G36*
X596900D02*
X594544Y1229262D01*
X592349Y1228352D01*
X590464Y1226906D01*
X589018Y1225021D01*
X588108Y1222826D01*
X587798Y1220470D01*
X588108Y1218114D01*
X589018Y1215919D01*
X590464Y1214034D01*
X592349Y1212588D01*
X594544Y1211678D01*
X596900Y1211368D01*
X599256Y1211678D01*
X601451Y1212588D01*
X603336Y1214034D01*
X604782Y1215919D01*
X605692Y1218114D01*
X606002Y1220470D01*
X605692Y1222826D01*
X604782Y1225021D01*
X603336Y1226906D01*
X601451Y1228352D01*
X599256Y1229262D01*
X596900Y1229572D01*
D02*
G37*
G36*
X571500D02*
X569144Y1229262D01*
X566949Y1228352D01*
X565064Y1226906D01*
X563618Y1225021D01*
X562708Y1222826D01*
X562398Y1220470D01*
X562708Y1218114D01*
X563618Y1215919D01*
X565064Y1214034D01*
X566949Y1212588D01*
X569144Y1211678D01*
X571500Y1211368D01*
X573856Y1211678D01*
X576051Y1212588D01*
X577936Y1214034D01*
X579382Y1215919D01*
X580292Y1218114D01*
X580602Y1220470D01*
X580292Y1222826D01*
X579382Y1225021D01*
X577936Y1226906D01*
X576051Y1228352D01*
X573856Y1229262D01*
X571500Y1229572D01*
D02*
G37*
G36*
X546100D02*
X543744Y1229262D01*
X541549Y1228352D01*
X539664Y1226906D01*
X538218Y1225021D01*
X537308Y1222826D01*
X536998Y1220470D01*
X537308Y1218114D01*
X538218Y1215919D01*
X539664Y1214034D01*
X541549Y1212588D01*
X543744Y1211678D01*
X546100Y1211368D01*
X548456Y1211678D01*
X550651Y1212588D01*
X552536Y1214034D01*
X553982Y1215919D01*
X554892Y1218114D01*
X555202Y1220470D01*
X554892Y1222826D01*
X553982Y1225021D01*
X552536Y1226906D01*
X550651Y1228352D01*
X548456Y1229262D01*
X546100Y1229572D01*
D02*
G37*
G36*
X520700D02*
X518344Y1229262D01*
X516149Y1228352D01*
X514264Y1226906D01*
X512818Y1225021D01*
X511908Y1222826D01*
X511598Y1220470D01*
X511908Y1218114D01*
X512818Y1215919D01*
X514264Y1214034D01*
X516149Y1212588D01*
X518344Y1211678D01*
X520700Y1211368D01*
X523056Y1211678D01*
X525251Y1212588D01*
X527136Y1214034D01*
X528582Y1215919D01*
X529492Y1218114D01*
X529802Y1220470D01*
X529492Y1222826D01*
X528582Y1225021D01*
X527136Y1226906D01*
X525251Y1228352D01*
X523056Y1229262D01*
X520700Y1229572D01*
D02*
G37*
G36*
X495300D02*
X492944Y1229262D01*
X490749Y1228352D01*
X488864Y1226906D01*
X487418Y1225021D01*
X486508Y1222826D01*
X486198Y1220470D01*
X486508Y1218114D01*
X487418Y1215919D01*
X488864Y1214034D01*
X490749Y1212588D01*
X492944Y1211678D01*
X495300Y1211368D01*
X497656Y1211678D01*
X499851Y1212588D01*
X501736Y1214034D01*
X503182Y1215919D01*
X504092Y1218114D01*
X504402Y1220470D01*
X504092Y1222826D01*
X503182Y1225021D01*
X501736Y1226906D01*
X499851Y1228352D01*
X497656Y1229262D01*
X495300Y1229572D01*
D02*
G37*
G36*
X469900D02*
X467544Y1229262D01*
X465349Y1228352D01*
X463464Y1226906D01*
X462018Y1225021D01*
X461108Y1222826D01*
X460798Y1220470D01*
X461108Y1218114D01*
X462018Y1215919D01*
X463464Y1214034D01*
X465349Y1212588D01*
X467544Y1211678D01*
X469900Y1211368D01*
X472256Y1211678D01*
X474451Y1212588D01*
X476336Y1214034D01*
X477782Y1215919D01*
X478692Y1218114D01*
X479002Y1220470D01*
X478692Y1222826D01*
X477782Y1225021D01*
X476336Y1226906D01*
X474451Y1228352D01*
X472256Y1229262D01*
X469900Y1229572D01*
D02*
G37*
G36*
X1409300Y1229572D02*
X1406944Y1229262D01*
X1404749Y1228352D01*
X1402864Y1226906D01*
X1401418Y1225021D01*
X1400508Y1222826D01*
X1400198Y1220470D01*
X1400508Y1218114D01*
X1401418Y1215919D01*
X1402864Y1214034D01*
X1404749Y1212588D01*
X1406944Y1211678D01*
X1409300Y1211368D01*
X1411656Y1211678D01*
X1413851Y1212588D01*
X1415736Y1214034D01*
X1417182Y1215919D01*
X1418092Y1218114D01*
X1418402Y1220470D01*
X1418092Y1222826D01*
X1417182Y1225021D01*
X1415736Y1226906D01*
X1413851Y1228352D01*
X1411656Y1229262D01*
X1409300Y1229572D01*
D02*
G37*
G36*
X1383900D02*
X1381544Y1229262D01*
X1379349Y1228352D01*
X1377464Y1226906D01*
X1376018Y1225021D01*
X1375108Y1222826D01*
X1374798Y1220470D01*
X1375108Y1218114D01*
X1376018Y1215919D01*
X1377464Y1214034D01*
X1379349Y1212588D01*
X1381544Y1211678D01*
X1383900Y1211368D01*
X1386256Y1211678D01*
X1388451Y1212588D01*
X1390336Y1214034D01*
X1391782Y1215919D01*
X1392692Y1218114D01*
X1393002Y1220470D01*
X1392692Y1222826D01*
X1391782Y1225021D01*
X1390336Y1226906D01*
X1388451Y1228352D01*
X1386256Y1229262D01*
X1383900Y1229572D01*
D02*
G37*
G36*
X1358500D02*
X1356144Y1229262D01*
X1353949Y1228352D01*
X1352064Y1226906D01*
X1350618Y1225021D01*
X1349708Y1222826D01*
X1349398Y1220470D01*
X1349708Y1218114D01*
X1350618Y1215919D01*
X1352064Y1214034D01*
X1353949Y1212588D01*
X1356144Y1211678D01*
X1358500Y1211368D01*
X1360856Y1211678D01*
X1363051Y1212588D01*
X1364936Y1214034D01*
X1366382Y1215919D01*
X1367292Y1218114D01*
X1367602Y1220470D01*
X1367292Y1222826D01*
X1366382Y1225021D01*
X1364936Y1226906D01*
X1363051Y1228352D01*
X1360856Y1229262D01*
X1358500Y1229572D01*
D02*
G37*
G36*
X1333100D02*
X1330744Y1229262D01*
X1328549Y1228352D01*
X1326664Y1226906D01*
X1325218Y1225021D01*
X1324308Y1222826D01*
X1323998Y1220470D01*
X1324308Y1218114D01*
X1325218Y1215919D01*
X1326664Y1214034D01*
X1328549Y1212588D01*
X1330744Y1211678D01*
X1333100Y1211368D01*
X1335456Y1211678D01*
X1337651Y1212588D01*
X1339536Y1214034D01*
X1340982Y1215919D01*
X1341892Y1218114D01*
X1342202Y1220470D01*
X1341892Y1222826D01*
X1340982Y1225021D01*
X1339536Y1226906D01*
X1337651Y1228352D01*
X1335456Y1229262D01*
X1333100Y1229572D01*
D02*
G37*
G36*
X1307700D02*
X1305344Y1229262D01*
X1303149Y1228352D01*
X1301264Y1226906D01*
X1299818Y1225021D01*
X1298908Y1222826D01*
X1298598Y1220470D01*
X1298908Y1218114D01*
X1299818Y1215919D01*
X1301264Y1214034D01*
X1303149Y1212588D01*
X1305344Y1211678D01*
X1307700Y1211368D01*
X1310056Y1211678D01*
X1312251Y1212588D01*
X1314136Y1214034D01*
X1315582Y1215919D01*
X1316492Y1218114D01*
X1316802Y1220470D01*
X1316492Y1222826D01*
X1315582Y1225021D01*
X1314136Y1226906D01*
X1312251Y1228352D01*
X1310056Y1229262D01*
X1307700Y1229572D01*
D02*
G37*
G36*
X1282300D02*
X1279944Y1229262D01*
X1277749Y1228352D01*
X1275864Y1226906D01*
X1274418Y1225021D01*
X1273508Y1222826D01*
X1273198Y1220470D01*
X1273508Y1218114D01*
X1274418Y1215919D01*
X1275864Y1214034D01*
X1277749Y1212588D01*
X1279944Y1211678D01*
X1282300Y1211368D01*
X1284656Y1211678D01*
X1286851Y1212588D01*
X1288736Y1214034D01*
X1290182Y1215919D01*
X1291092Y1218114D01*
X1291402Y1220470D01*
X1291092Y1222826D01*
X1290182Y1225021D01*
X1288736Y1226906D01*
X1286851Y1228352D01*
X1284656Y1229262D01*
X1282300Y1229572D01*
D02*
G37*
G36*
X1256900D02*
X1254544Y1229262D01*
X1252349Y1228352D01*
X1250464Y1226906D01*
X1249018Y1225021D01*
X1248108Y1222826D01*
X1247798Y1220470D01*
X1248108Y1218114D01*
X1249018Y1215919D01*
X1250464Y1214034D01*
X1252349Y1212588D01*
X1254544Y1211678D01*
X1256900Y1211368D01*
X1259256Y1211678D01*
X1261451Y1212588D01*
X1263336Y1214034D01*
X1264782Y1215919D01*
X1265692Y1218114D01*
X1266002Y1220470D01*
X1265692Y1222826D01*
X1264782Y1225021D01*
X1263336Y1226906D01*
X1261451Y1228352D01*
X1259256Y1229262D01*
X1256900Y1229572D01*
D02*
G37*
G36*
X1231500D02*
X1229144Y1229262D01*
X1226949Y1228352D01*
X1225064Y1226906D01*
X1223618Y1225021D01*
X1222708Y1222826D01*
X1222398Y1220470D01*
X1222708Y1218114D01*
X1223618Y1215919D01*
X1225064Y1214034D01*
X1226949Y1212588D01*
X1229144Y1211678D01*
X1231500Y1211368D01*
X1233856Y1211678D01*
X1236051Y1212588D01*
X1237936Y1214034D01*
X1239382Y1215919D01*
X1240292Y1218114D01*
X1240602Y1220470D01*
X1240292Y1222826D01*
X1239382Y1225021D01*
X1237936Y1226906D01*
X1236051Y1228352D01*
X1233856Y1229262D01*
X1231500Y1229572D01*
D02*
G37*
G36*
X1206100D02*
X1203744Y1229262D01*
X1201549Y1228352D01*
X1199664Y1226906D01*
X1198218Y1225021D01*
X1197308Y1222826D01*
X1196998Y1220470D01*
X1197308Y1218114D01*
X1198218Y1215919D01*
X1199664Y1214034D01*
X1201549Y1212588D01*
X1203744Y1211678D01*
X1206100Y1211368D01*
X1208456Y1211678D01*
X1210651Y1212588D01*
X1212536Y1214034D01*
X1213982Y1215919D01*
X1214892Y1218114D01*
X1215202Y1220470D01*
X1214892Y1222826D01*
X1213982Y1225021D01*
X1212536Y1226906D01*
X1210651Y1228352D01*
X1208456Y1229262D01*
X1206100Y1229572D01*
D02*
G37*
G36*
X1180700D02*
X1178344Y1229262D01*
X1176149Y1228352D01*
X1174264Y1226906D01*
X1172818Y1225021D01*
X1171908Y1222826D01*
X1171598Y1220470D01*
X1171908Y1218114D01*
X1172818Y1215919D01*
X1174264Y1214034D01*
X1176149Y1212588D01*
X1178344Y1211678D01*
X1180700Y1211368D01*
X1183056Y1211678D01*
X1185251Y1212588D01*
X1187136Y1214034D01*
X1188582Y1215919D01*
X1189492Y1218114D01*
X1189802Y1220470D01*
X1189492Y1222826D01*
X1188582Y1225021D01*
X1187136Y1226906D01*
X1185251Y1228352D01*
X1183056Y1229262D01*
X1180700Y1229572D01*
D02*
G37*
G36*
X1155300D02*
X1152944Y1229262D01*
X1150749Y1228352D01*
X1148864Y1226906D01*
X1147418Y1225021D01*
X1146508Y1222826D01*
X1146198Y1220470D01*
X1146508Y1218114D01*
X1147418Y1215919D01*
X1148864Y1214034D01*
X1150749Y1212588D01*
X1152944Y1211678D01*
X1155300Y1211368D01*
X1157656Y1211678D01*
X1159851Y1212588D01*
X1161736Y1214034D01*
X1163182Y1215919D01*
X1164092Y1218114D01*
X1164402Y1220470D01*
X1164092Y1222826D01*
X1163182Y1225021D01*
X1161736Y1226906D01*
X1159851Y1228352D01*
X1157656Y1229262D01*
X1155300Y1229572D01*
D02*
G37*
G36*
X1129900D02*
X1127544Y1229262D01*
X1125349Y1228352D01*
X1123464Y1226906D01*
X1122018Y1225021D01*
X1121108Y1222826D01*
X1120798Y1220470D01*
X1121108Y1218114D01*
X1122018Y1215919D01*
X1123464Y1214034D01*
X1125349Y1212588D01*
X1127544Y1211678D01*
X1129900Y1211368D01*
X1132256Y1211678D01*
X1134451Y1212588D01*
X1136336Y1214034D01*
X1137782Y1215919D01*
X1138692Y1218114D01*
X1139002Y1220470D01*
X1138692Y1222826D01*
X1137782Y1225021D01*
X1136336Y1226906D01*
X1134451Y1228352D01*
X1132256Y1229262D01*
X1129900Y1229572D01*
D02*
G37*
G36*
X1104500D02*
X1102144Y1229262D01*
X1099949Y1228352D01*
X1098064Y1226906D01*
X1096618Y1225021D01*
X1095708Y1222826D01*
X1095398Y1220470D01*
X1095708Y1218114D01*
X1096618Y1215919D01*
X1098064Y1214034D01*
X1099949Y1212588D01*
X1102144Y1211678D01*
X1104500Y1211368D01*
X1106856Y1211678D01*
X1109051Y1212588D01*
X1110936Y1214034D01*
X1112382Y1215919D01*
X1113292Y1218114D01*
X1113602Y1220470D01*
X1113292Y1222826D01*
X1112382Y1225021D01*
X1110936Y1226906D01*
X1109051Y1228352D01*
X1106856Y1229262D01*
X1104500Y1229572D01*
D02*
G37*
G36*
X1526500Y1231824D02*
X1523261Y1231505D01*
X1520146Y1230560D01*
X1517275Y1229026D01*
X1514759Y1226961D01*
X1512694Y1224445D01*
X1511160Y1221574D01*
X1510215Y1218459D01*
X1509896Y1215220D01*
X1510215Y1211981D01*
X1511160Y1208866D01*
X1512694Y1205995D01*
X1514759Y1203479D01*
X1517275Y1201414D01*
X1520146Y1199880D01*
X1523261Y1198935D01*
X1526500Y1198616D01*
X1529739Y1198935D01*
X1532854Y1199880D01*
X1535725Y1201414D01*
X1538241Y1203479D01*
X1540306Y1205995D01*
X1541840Y1208866D01*
X1542785Y1211981D01*
X1543104Y1215220D01*
X1542785Y1218459D01*
X1541840Y1221574D01*
X1540306Y1224445D01*
X1538241Y1226961D01*
X1535725Y1229026D01*
X1532854Y1230560D01*
X1529739Y1231505D01*
X1526500Y1231824D01*
D02*
G37*
G36*
X326500D02*
X323261Y1231505D01*
X320146Y1230560D01*
X317275Y1229026D01*
X314759Y1226961D01*
X312694Y1224445D01*
X311160Y1221574D01*
X310215Y1218459D01*
X309896Y1215220D01*
X310215Y1211981D01*
X311160Y1208866D01*
X312694Y1205995D01*
X314759Y1203479D01*
X317275Y1201414D01*
X320146Y1199880D01*
X323261Y1198935D01*
X326500Y1198616D01*
X329739Y1198935D01*
X332854Y1199880D01*
X335725Y1201414D01*
X338241Y1203479D01*
X340306Y1205995D01*
X341840Y1208866D01*
X342785Y1211981D01*
X343104Y1215220D01*
X342785Y1218459D01*
X341840Y1221574D01*
X340306Y1224445D01*
X338241Y1226961D01*
X335725Y1229026D01*
X332854Y1230560D01*
X329739Y1231505D01*
X326500Y1231824D01*
D02*
G37*
G36*
X1549250Y1182085D02*
X1542250D01*
X1541790Y1182024D01*
X1532210D01*
X1531750Y1182085D01*
X1524750D01*
X1522916Y1181843D01*
X1521208Y1181135D01*
X1519740Y1180010D01*
X1518615Y1178542D01*
X1517907Y1176834D01*
X1517838Y1176314D01*
X1517704Y1176147D01*
X1516459Y1175565D01*
X1515214Y1176080D01*
X1513250Y1176339D01*
X1509250D01*
X1507286Y1176080D01*
X1505455Y1175322D01*
X1503884Y1174116D01*
X1502678Y1172544D01*
X1501920Y1170714D01*
X1501661Y1168750D01*
X1501920Y1166786D01*
X1502678Y1164956D01*
X1503884Y1163384D01*
X1505455Y1162178D01*
X1507286Y1161420D01*
X1509250Y1161161D01*
X1513250D01*
X1515214Y1161420D01*
X1517044Y1162178D01*
X1518616Y1163384D01*
X1519822Y1164956D01*
X1520580Y1166786D01*
X1520702Y1167711D01*
X1522087Y1168500D01*
X1522916Y1168157D01*
X1524750Y1167915D01*
X1531750D01*
X1532210Y1167976D01*
X1541790D01*
X1542250Y1167915D01*
X1549250D01*
X1551084Y1168157D01*
X1552792Y1168865D01*
X1554260Y1169990D01*
X1555385Y1171458D01*
X1556093Y1173166D01*
X1556335Y1175000D01*
X1556093Y1176834D01*
X1555385Y1178542D01*
X1554260Y1180010D01*
X1552792Y1181135D01*
X1551084Y1181843D01*
X1549250Y1182085D01*
D02*
G37*
G36*
X328274Y1183525D02*
X317225D01*
Y1171477D01*
X328274D01*
Y1183525D01*
D02*
G37*
G36*
X389771Y1176547D02*
Y1169370D01*
X396948D01*
X396822Y1170330D01*
X395961Y1172407D01*
X394593Y1174192D01*
X392808Y1175560D01*
X390731Y1176421D01*
X389771Y1176547D01*
D02*
G37*
G36*
X387231D02*
X386272Y1176421D01*
X384194Y1175560D01*
X382410Y1174192D01*
X381041Y1172407D01*
X380180Y1170330D01*
X380054Y1169370D01*
X387231D01*
Y1176547D01*
D02*
G37*
G36*
X1385250Y1198853D02*
X363232D01*
X361661Y1198540D01*
X360331Y1197651D01*
X329474Y1166795D01*
X320977D01*
Y1155746D01*
X344025D01*
Y1166795D01*
X342738D01*
X342252Y1167968D01*
X364931Y1190647D01*
X1382564D01*
X1382747Y1190373D01*
X1382068Y1189103D01*
X382161D01*
X380591Y1188791D01*
X379260Y1187901D01*
X350849Y1159490D01*
X349959Y1158159D01*
X349647Y1156589D01*
Y1137101D01*
X347919Y1135372D01*
X344025D01*
Y1136795D01*
X320977D01*
Y1125746D01*
X344025D01*
Y1127166D01*
X349618D01*
X351188Y1127479D01*
X352519Y1128368D01*
X356651Y1132500D01*
X357541Y1133831D01*
X357853Y1135401D01*
Y1154889D01*
X383861Y1180897D01*
X1382637D01*
X1387476Y1176059D01*
X1388807Y1175170D01*
X1390377Y1174857D01*
X1396623D01*
X1398193Y1175170D01*
X1398544Y1175404D01*
X1410845Y1163102D01*
X1411349Y1162349D01*
X1412680Y1161460D01*
X1414250Y1161147D01*
X1415820Y1161460D01*
X1417151Y1162349D01*
X1418040Y1163680D01*
X1418353Y1165250D01*
Y1165500D01*
X1418040Y1167070D01*
X1417151Y1168401D01*
X1401608Y1183944D01*
X1400277Y1184834D01*
X1398707Y1185146D01*
X1398625Y1185130D01*
X1397545Y1186210D01*
X1397603Y1186500D01*
X1397290Y1188070D01*
X1396401Y1189401D01*
X1388151Y1197651D01*
X1386820Y1198540D01*
X1385250Y1198853D01*
D02*
G37*
G36*
X396948Y1166830D02*
X389771D01*
Y1159653D01*
X390731Y1159779D01*
X392808Y1160640D01*
X394593Y1162009D01*
X395961Y1163793D01*
X396822Y1165871D01*
X396948Y1166830D01*
D02*
G37*
G36*
X387231D02*
X380054D01*
X380180Y1165871D01*
X381041Y1163793D01*
X382410Y1162009D01*
X384194Y1160640D01*
X386272Y1159779D01*
X387231Y1159653D01*
Y1166830D01*
D02*
G37*
G36*
X1349093Y1165649D02*
X1330805D01*
Y1156251D01*
X1349093D01*
Y1165649D01*
D02*
G37*
G36*
X1295195D02*
X1276907D01*
Y1156251D01*
X1295195D01*
Y1165649D01*
D02*
G37*
G36*
X311500Y1160134D02*
X309345Y1159705D01*
X307517Y1158484D01*
X306296Y1156657D01*
X305867Y1154501D01*
X306296Y1152346D01*
X307517Y1150518D01*
X309345Y1149297D01*
X311500Y1148868D01*
X313656Y1149297D01*
X315483Y1150518D01*
X316704Y1152346D01*
X317133Y1154501D01*
X316704Y1156657D01*
X315483Y1158484D01*
X313656Y1159705D01*
X311500Y1160134D01*
D02*
G37*
G36*
X1349093Y1152949D02*
X1330805D01*
Y1143551D01*
X1349093D01*
Y1152949D01*
D02*
G37*
G36*
X1295195D02*
X1276907D01*
Y1143551D01*
X1295195D01*
Y1152949D01*
D02*
G37*
G36*
X1495000Y1143403D02*
X1493430Y1143091D01*
X1492099Y1142201D01*
X1492050Y1142128D01*
X1362250D01*
X1362250Y1142128D01*
X1361168Y1141913D01*
X1360250Y1141300D01*
X1357328Y1138378D01*
X1349093D01*
Y1140249D01*
X1330805D01*
Y1130851D01*
X1349093D01*
Y1132722D01*
X1358500D01*
X1359582Y1132937D01*
X1360500Y1133550D01*
X1363422Y1136472D01*
X1492050D01*
X1492099Y1136399D01*
X1492277Y1136280D01*
X1492356Y1134905D01*
X1491520Y1134118D01*
X1374040D01*
X1374040Y1134118D01*
X1372958Y1133903D01*
X1372040Y1133290D01*
X1372040Y1133290D01*
X1364429Y1125678D01*
X1349093D01*
Y1127549D01*
X1330805D01*
Y1118151D01*
X1349093D01*
Y1120022D01*
X1365600D01*
X1366682Y1120237D01*
X1367600Y1120850D01*
X1375211Y1128462D01*
X1492036D01*
X1492099Y1128368D01*
X1493430Y1127479D01*
X1495000Y1127166D01*
X1496570Y1127479D01*
X1497901Y1128368D01*
X1498790Y1129699D01*
X1499103Y1131269D01*
X1498790Y1132839D01*
X1497901Y1134170D01*
X1497377Y1134521D01*
Y1136048D01*
X1497901Y1136399D01*
X1498790Y1137730D01*
X1499103Y1139300D01*
X1498790Y1140870D01*
X1497901Y1142201D01*
X1496570Y1143091D01*
X1495000Y1143403D01*
D02*
G37*
G36*
X1113770Y1142131D02*
Y1138770D01*
X1117131D01*
X1117012Y1139369D01*
X1115953Y1140953D01*
X1114369Y1142012D01*
X1113770Y1142131D01*
D02*
G37*
G36*
X1073730D02*
X1073131Y1142012D01*
X1071547Y1140953D01*
X1070488Y1139369D01*
X1070369Y1138770D01*
X1073730D01*
Y1142131D01*
D02*
G37*
G36*
X1220000Y1170053D02*
X1199750D01*
X1198180Y1169741D01*
X1196849Y1168851D01*
X1180599Y1152601D01*
X1179709Y1151270D01*
X1179397Y1149700D01*
Y1112162D01*
X1179040Y1111040D01*
X1178127Y1111040D01*
X1173270D01*
Y1104500D01*
Y1097960D01*
X1179040Y1097960D01*
X1179397Y1096838D01*
Y1083662D01*
X1179040Y1082540D01*
X1178127Y1082540D01*
X1173270D01*
Y1076000D01*
Y1069460D01*
X1179040Y1069460D01*
X1179397Y1068338D01*
Y1060087D01*
X1179709Y1058517D01*
X1180599Y1057186D01*
X1185231Y1052553D01*
X1184606Y1051383D01*
X1183500Y1051603D01*
X1123410D01*
X1116862Y1058151D01*
X1115531Y1059041D01*
X1113960Y1059353D01*
X937172D01*
X936274Y1060251D01*
X936274Y1061600D01*
X936274Y1062544D01*
Y1065749D01*
X957476D01*
Y1064476D01*
X969524D01*
Y1067936D01*
X983750D01*
X983750Y1067936D01*
X984540Y1068093D01*
X985209Y1068541D01*
X1025905Y1109236D01*
X1070606D01*
X1071221Y1107966D01*
X1070488Y1106869D01*
X1070369Y1106270D01*
X1075000D01*
Y1103730D01*
X1070369D01*
X1070488Y1103131D01*
X1071115Y1102193D01*
X1071443Y1101250D01*
X1071115Y1100307D01*
X1070488Y1099369D01*
X1070369Y1098770D01*
X1075000D01*
Y1097500D01*
X1076270D01*
Y1092869D01*
X1076869Y1092988D01*
X1078453Y1094047D01*
X1079047D01*
X1080631Y1092988D01*
X1081230Y1092869D01*
Y1097500D01*
X1083770D01*
Y1092869D01*
X1084369Y1092988D01*
X1085307Y1093615D01*
X1086250Y1093943D01*
X1087193Y1093615D01*
X1088131Y1092988D01*
X1088730Y1092869D01*
Y1097500D01*
X1091270D01*
Y1092869D01*
X1091869Y1092988D01*
X1093453Y1094047D01*
X1094047D01*
X1095631Y1092988D01*
X1096230Y1092869D01*
Y1097500D01*
X1098770D01*
Y1092869D01*
X1099369Y1092988D01*
X1100307Y1093615D01*
X1101250Y1093943D01*
X1102193Y1093615D01*
X1103131Y1092988D01*
X1103730Y1092869D01*
Y1097500D01*
X1106270D01*
Y1092869D01*
X1106869Y1092988D01*
X1107807Y1093615D01*
X1108750Y1093943D01*
X1109693Y1093615D01*
X1110631Y1092988D01*
X1111230Y1092869D01*
Y1097500D01*
X1112500D01*
Y1098770D01*
X1117131D01*
X1117012Y1099369D01*
X1116385Y1100307D01*
X1116057Y1101250D01*
X1116385Y1102193D01*
X1117012Y1103131D01*
X1117131Y1103730D01*
X1112500D01*
Y1106270D01*
X1117131D01*
X1117012Y1106869D01*
X1116279Y1107966D01*
X1116894Y1109236D01*
X1149290D01*
X1149729Y1108579D01*
X1150977Y1107745D01*
X1152450Y1107452D01*
X1153923Y1107745D01*
X1155171Y1108579D01*
X1156005Y1109827D01*
X1156298Y1111300D01*
X1156005Y1112773D01*
X1155171Y1114021D01*
X1153923Y1114855D01*
X1152450Y1115148D01*
X1150977Y1114855D01*
X1149729Y1114021D01*
X1149290Y1113364D01*
X1147513D01*
X1147161Y1114119D01*
X1147041Y1114634D01*
X1147805Y1115777D01*
X1148098Y1117250D01*
X1147805Y1118723D01*
X1146971Y1119971D01*
X1145723Y1120805D01*
X1144250Y1121098D01*
X1142777Y1120805D01*
X1141529Y1119971D01*
X1141182Y1119451D01*
X1117571D01*
X1117045Y1120436D01*
X1117030Y1120721D01*
X1117131Y1121230D01*
X1112500D01*
Y1123770D01*
X1117131D01*
X1117012Y1124369D01*
X1116385Y1125307D01*
X1116057Y1126250D01*
X1116385Y1127193D01*
X1117012Y1128131D01*
X1117131Y1128730D01*
X1112500D01*
Y1131270D01*
X1117131D01*
X1117012Y1131869D01*
X1116385Y1132807D01*
X1116057Y1133750D01*
X1116385Y1134693D01*
X1117012Y1135631D01*
X1117131Y1136230D01*
X1112500D01*
Y1137500D01*
X1111230D01*
Y1142131D01*
X1110631Y1142012D01*
X1109693Y1141385D01*
X1108750Y1141057D01*
X1107807Y1141385D01*
X1106869Y1142012D01*
X1106270Y1142131D01*
Y1137500D01*
X1103730D01*
Y1142131D01*
X1103131Y1142012D01*
X1102193Y1141385D01*
X1101250Y1141057D01*
X1100307Y1141385D01*
X1099369Y1142012D01*
X1098770Y1142131D01*
Y1137500D01*
X1096230D01*
Y1142131D01*
X1095631Y1142012D01*
X1094047Y1140953D01*
X1093453D01*
X1091869Y1142012D01*
X1091270Y1142131D01*
Y1137500D01*
X1088730D01*
Y1142131D01*
X1088131Y1142012D01*
X1087193Y1141385D01*
X1086250Y1141057D01*
X1085307Y1141385D01*
X1084369Y1142012D01*
X1083770Y1142131D01*
Y1137500D01*
X1081230D01*
Y1142131D01*
X1080631Y1142012D01*
X1079047Y1140953D01*
X1078453D01*
X1076869Y1142012D01*
X1076270Y1142131D01*
Y1137500D01*
X1075000D01*
Y1136230D01*
X1070369D01*
X1070488Y1135631D01*
X1071115Y1134693D01*
X1071443Y1133750D01*
X1071115Y1132807D01*
X1070488Y1131869D01*
X1070369Y1131270D01*
X1075000D01*
Y1128730D01*
X1070369D01*
X1070488Y1128131D01*
X1071115Y1127193D01*
X1071443Y1126250D01*
X1071115Y1125307D01*
X1070488Y1124369D01*
X1070369Y1123770D01*
X1075000D01*
Y1121230D01*
X1070369D01*
X1070470Y1120721D01*
X1070455Y1120436D01*
X1069929Y1119451D01*
X1014750D01*
X1013908Y1119284D01*
X1013194Y1118807D01*
X990275Y1095888D01*
X989274Y1095274D01*
Y1095274D01*
X989274Y1095274D01*
X977226D01*
Y1084226D01*
X977226D01*
X977632Y1083245D01*
X973838Y1079451D01*
X969524D01*
Y1089524D01*
X967603D01*
Y1091801D01*
X975450Y1099647D01*
X977226D01*
Y1098226D01*
X989274D01*
Y1109274D01*
X977226D01*
Y1107853D01*
X973750D01*
X972180Y1107541D01*
X970849Y1106651D01*
X960599Y1096401D01*
X959709Y1095070D01*
X959397Y1093500D01*
Y1089524D01*
X957476D01*
Y1088953D01*
X947250D01*
X945680Y1088641D01*
X944349Y1087751D01*
X943459Y1086420D01*
X943147Y1084850D01*
X943459Y1083280D01*
X944349Y1081949D01*
X945680Y1081059D01*
X947250Y1080747D01*
X957476D01*
Y1079451D01*
X936274D01*
Y1086310D01*
X937290D01*
Y1092080D01*
X924750D01*
X912210D01*
Y1086310D01*
X913226D01*
Y1084753D01*
X893650D01*
X892080Y1084441D01*
X890749Y1083551D01*
X890599Y1083401D01*
X889709Y1082070D01*
X889397Y1080500D01*
X889709Y1078930D01*
X890599Y1077599D01*
X891930Y1076710D01*
X893500Y1076397D01*
X894254Y1076547D01*
X913226D01*
Y1074626D01*
X913226D01*
Y1073974D01*
X913226D01*
Y1071353D01*
X856750D01*
X855180Y1071040D01*
X853849Y1070151D01*
X852960Y1068820D01*
X852647Y1067250D01*
X852960Y1065680D01*
X853849Y1064349D01*
X855180Y1063459D01*
X856750Y1063147D01*
X912328D01*
X913226Y1062249D01*
X913226Y1061600D01*
X913226Y1060656D01*
Y1049844D01*
X913226Y1048900D01*
X913226Y1047956D01*
Y1037144D01*
X913226Y1036200D01*
X913226Y1035256D01*
Y1024444D01*
X913226Y1023500D01*
X913226Y1022556D01*
Y1011744D01*
X913226Y1010800D01*
X913226Y1009856D01*
Y999044D01*
X913226Y998100D01*
X913226Y997156D01*
Y986344D01*
X913226Y985400D01*
X913226Y984456D01*
Y973644D01*
X913226Y972700D01*
X913226Y971756D01*
Y960944D01*
X913226Y960000D01*
X913226Y959056D01*
Y957753D01*
X905580D01*
X904010Y957440D01*
X902679Y956551D01*
X889349Y943221D01*
X888459Y941890D01*
X888147Y940320D01*
Y939250D01*
X888311Y938426D01*
X887115Y937931D01*
X887101Y937951D01*
X881151Y943901D01*
X879820Y944790D01*
X878250Y945103D01*
X868000D01*
X866430Y944790D01*
X865099Y943901D01*
X864210Y942570D01*
X863897Y941000D01*
X864210Y939430D01*
X865099Y938099D01*
X866430Y937209D01*
X868000Y936897D01*
X876551D01*
X880097Y933351D01*
Y930672D01*
X879199Y929774D01*
X877850Y929774D01*
X876906Y929774D01*
X866094D01*
X865150Y929774D01*
X864206Y929774D01*
X853394D01*
X852450Y929774D01*
X851506Y929774D01*
X840694D01*
X839750Y929774D01*
X838806Y929774D01*
X827994D01*
X827050Y929774D01*
X826106Y929774D01*
X815294D01*
X814350Y929774D01*
X813406Y929774D01*
X802594D01*
X801650Y929774D01*
X800706Y929774D01*
X789640D01*
Y930790D01*
X783870D01*
Y918250D01*
Y905710D01*
X789640D01*
Y906726D01*
X800706D01*
X801650Y906726D01*
X802594Y906726D01*
X813406D01*
X814350Y906726D01*
X815294Y906726D01*
X826106D01*
X827050Y906726D01*
X827994Y906726D01*
X838806D01*
X839750Y906726D01*
X840694Y906726D01*
X851506D01*
X852450Y906726D01*
X853394Y906726D01*
X864206D01*
X865150Y906726D01*
X866094Y906726D01*
X876906D01*
X877850Y906726D01*
X878794Y906726D01*
X889606D01*
X890550Y906726D01*
X891494Y906726D01*
X902924D01*
Y929774D01*
X891494D01*
X890550Y929774D01*
X889606Y929774D01*
X888303D01*
Y935050D01*
X888139Y935874D01*
X889335Y936369D01*
X889349Y936349D01*
X890680Y935460D01*
X892250Y935147D01*
X893820Y935460D01*
X895151Y936349D01*
X896040Y937680D01*
X896197Y938464D01*
X907279Y949547D01*
X912328D01*
X913226Y948649D01*
X913226Y947300D01*
X913226Y946356D01*
Y935544D01*
X913226Y934600D01*
X913226Y933656D01*
Y922226D01*
X936274D01*
Y924147D01*
X1006950D01*
X1008520Y924460D01*
X1009851Y925349D01*
X1050399Y965897D01*
X1172298D01*
X1173868Y966209D01*
X1175199Y967099D01*
X1176088Y968430D01*
X1176401Y970000D01*
X1176088Y971570D01*
X1175199Y972901D01*
X1173868Y973791D01*
X1172298Y974103D01*
X1048700D01*
X1047130Y973791D01*
X1045799Y972901D01*
X1005251Y932353D01*
X937172D01*
X936274Y933251D01*
X936274Y934600D01*
X936274Y935544D01*
Y946356D01*
X936274Y947300D01*
X936274Y948244D01*
Y959056D01*
X936274Y960000D01*
X936274Y960944D01*
Y962247D01*
X943451D01*
X946897Y958801D01*
Y953650D01*
X947209Y952080D01*
X948099Y950749D01*
X949430Y949859D01*
X951000Y949547D01*
X952570Y949859D01*
X953901Y950749D01*
X954790Y952080D01*
X955103Y953650D01*
Y960500D01*
X954790Y962070D01*
X953901Y963401D01*
X948051Y969251D01*
X946720Y970141D01*
X945150Y970453D01*
X937172D01*
X936274Y971351D01*
X936274Y972700D01*
X936274Y973644D01*
Y984456D01*
X936274Y985400D01*
X936274Y986344D01*
Y997156D01*
X936274Y998100D01*
X936274Y999044D01*
Y1009856D01*
X936274Y1010800D01*
X936274Y1011744D01*
Y1022556D01*
X936274Y1023500D01*
X936274Y1024444D01*
Y1035256D01*
X936274Y1036200D01*
X936274Y1037144D01*
Y1038447D01*
X1107001D01*
X1113549Y1031899D01*
X1114880Y1031010D01*
X1116450Y1030697D01*
X1183500D01*
X1185070Y1031010D01*
X1186401Y1031899D01*
X1187290Y1033230D01*
X1187603Y1034800D01*
X1187290Y1036370D01*
X1186401Y1037701D01*
X1185070Y1038590D01*
X1183500Y1038903D01*
X1118149D01*
X1111601Y1045451D01*
X1110270Y1046340D01*
X1108700Y1046653D01*
X937172D01*
X936274Y1047551D01*
X936274Y1048900D01*
X936274Y1049844D01*
Y1051147D01*
X1112261D01*
X1118809Y1044599D01*
X1120140Y1043709D01*
X1121711Y1043397D01*
X1183500D01*
X1185070Y1043709D01*
X1186401Y1044599D01*
X1187290Y1045930D01*
X1187603Y1047500D01*
X1187383Y1048606D01*
X1188553Y1049231D01*
X1197397Y1040387D01*
Y1017000D01*
X1197710Y1015430D01*
X1198599Y1014099D01*
X1199930Y1013210D01*
X1201500Y1012897D01*
X1203070Y1013210D01*
X1204401Y1014099D01*
X1205291Y1015430D01*
X1205603Y1017000D01*
Y1028799D01*
X1206873Y1029325D01*
X1220749Y1015449D01*
X1222080Y1014559D01*
X1223650Y1014247D01*
X1240350D01*
X1241347Y1014445D01*
X1241973Y1013275D01*
X1234301Y1005603D01*
X1089449D01*
X1082429Y1012623D01*
X1082290Y1013320D01*
X1081401Y1014651D01*
X1078901Y1017151D01*
X1077570Y1018040D01*
X1076000Y1018353D01*
X1068024D01*
Y1020274D01*
X1064701D01*
Y1023976D01*
X1068024D01*
Y1025971D01*
X1069294Y1026551D01*
X1070180Y1025959D01*
X1071750Y1025647D01*
X1073320Y1025959D01*
X1074651Y1026849D01*
X1075540Y1028180D01*
X1075853Y1029750D01*
X1075540Y1031320D01*
X1074651Y1032651D01*
X1073320Y1033540D01*
X1071750Y1033853D01*
X1070180Y1033540D01*
X1069294Y1032949D01*
X1068024Y1033529D01*
Y1036024D01*
X1056976D01*
Y1023976D01*
X1060299D01*
Y1020274D01*
X1056976D01*
Y1008226D01*
X1068024D01*
Y1010147D01*
X1074301D01*
X1074571Y1009877D01*
X1074709Y1009180D01*
X1075599Y1007849D01*
X1076672Y1006776D01*
X1076186Y1005603D01*
X978449D01*
X950651Y1033401D01*
X949320Y1034290D01*
X947750Y1034603D01*
X946180Y1034290D01*
X944849Y1033401D01*
X943960Y1032070D01*
X943647Y1030500D01*
X943960Y1028930D01*
X944849Y1027599D01*
X973849Y998599D01*
X975180Y997710D01*
X976750Y997397D01*
X1236000D01*
X1237570Y997710D01*
X1238901Y998599D01*
X1288450Y1048147D01*
X1290435D01*
X1290922Y1046974D01*
X1282849Y1038901D01*
X1281960Y1037570D01*
X1281647Y1036000D01*
Y1033774D01*
X1280226D01*
Y1021726D01*
X1291274D01*
Y1033774D01*
X1291122D01*
X1290596Y1035044D01*
X1300151Y1044599D01*
X1301040Y1045930D01*
X1301353Y1047500D01*
Y1048147D01*
X1367226D01*
Y1046726D01*
X1379274D01*
Y1048147D01*
X1380750D01*
X1382320Y1048459D01*
X1383651Y1049349D01*
X1385199Y1050897D01*
X1391726D01*
Y1030476D01*
X1392976D01*
Y1022476D01*
X1400524D01*
X1401460Y1021670D01*
Y1021460D01*
X1404980D01*
Y1027000D01*
X1407520D01*
Y1021460D01*
X1411040D01*
X1411647Y1020442D01*
Y1015157D01*
X1411397Y1013900D01*
X1411709Y1012330D01*
X1412599Y1010999D01*
X1413930Y1010109D01*
X1415500Y1009797D01*
X1417070Y1010109D01*
X1418401Y1010999D01*
X1418651Y1011249D01*
X1419541Y1012580D01*
X1419853Y1014150D01*
Y1027000D01*
X1419541Y1028570D01*
X1419524Y1028595D01*
Y1030476D01*
X1420774D01*
Y1051524D01*
X1419524D01*
Y1052972D01*
X1423159Y1056607D01*
X1427009D01*
X1427535Y1055337D01*
X1424349Y1052151D01*
X1423459Y1050820D01*
X1423147Y1049250D01*
Y1026500D01*
X1423459Y1024930D01*
X1424349Y1023599D01*
X1430099Y1017849D01*
X1431430Y1016960D01*
X1433000Y1016647D01*
X1434570Y1016960D01*
X1435627Y1017666D01*
X1436609Y1017344D01*
X1436923Y1017120D01*
X1437209Y1015680D01*
X1438099Y1014349D01*
X1440726Y1011722D01*
Y1005976D01*
X1451774D01*
Y1018024D01*
X1446028D01*
X1445103Y1018949D01*
Y1030976D01*
X1449024D01*
Y1041024D01*
X1432976D01*
Y1030976D01*
X1436897D01*
Y1024397D01*
X1436707Y1024255D01*
X1435627Y1023925D01*
X1431353Y1028199D01*
Y1047551D01*
X1432869Y1049067D01*
X1433996D01*
X1435566Y1049380D01*
X1436459Y1049976D01*
X1449024D01*
Y1056472D01*
X1454901Y1062349D01*
X1455791Y1063680D01*
X1456103Y1065250D01*
Y1096818D01*
X1456976Y1097726D01*
X1457373Y1097726D01*
X1459647D01*
Y1060024D01*
X1456976D01*
Y1051540D01*
X1455960D01*
Y1046770D01*
X1465000D01*
Y1044230D01*
X1455960D01*
Y1039460D01*
X1456976D01*
Y1030976D01*
X1473024D01*
Y1031897D01*
X1481750D01*
X1483320Y1032209D01*
X1483361Y1032237D01*
X1484795Y1031668D01*
X1484850Y1031431D01*
X1484828Y1031380D01*
X1476349Y1022901D01*
X1475459Y1021570D01*
X1475147Y1020000D01*
Y981449D01*
X1473751Y980053D01*
X1470774D01*
Y981474D01*
X1458726D01*
Y980353D01*
X1455274D01*
Y982274D01*
X1444226D01*
Y970310D01*
X1444226Y970226D01*
X1444023Y969040D01*
X1443210D01*
Y963270D01*
X1449750D01*
X1456290D01*
Y969040D01*
X1455477D01*
X1455274Y970226D01*
X1455274Y970310D01*
Y972147D01*
X1458726D01*
Y970426D01*
X1470774D01*
Y971847D01*
X1478700D01*
X1480270Y972160D01*
X1481601Y973049D01*
X1490651Y982099D01*
X1491541Y983430D01*
X1491853Y985000D01*
X1491541Y986570D01*
X1490651Y987901D01*
X1489320Y988791D01*
X1487750Y989103D01*
X1486180Y988791D01*
X1484849Y987901D01*
X1484526Y987578D01*
X1483353Y988064D01*
Y1018301D01*
X1492651Y1027599D01*
X1493540Y1028930D01*
X1493853Y1030500D01*
Y1050750D01*
X1493540Y1052320D01*
X1492651Y1053651D01*
X1488401Y1057901D01*
X1487070Y1058791D01*
X1485500Y1059103D01*
X1473024D01*
Y1060024D01*
X1467853D01*
Y1097726D01*
X1470524D01*
Y1106774D01*
X1464324D01*
X1464160Y1106993D01*
X1464454Y1108717D01*
X1464651Y1108849D01*
X1472901Y1117099D01*
X1473790Y1118430D01*
X1474103Y1120000D01*
X1473790Y1121570D01*
X1472901Y1122901D01*
X1471570Y1123791D01*
X1470000Y1124103D01*
X1468430Y1123791D01*
X1467099Y1122901D01*
X1460051Y1115853D01*
X1447524D01*
Y1116274D01*
X1433976D01*
Y1115853D01*
X1429449D01*
X1425518Y1119784D01*
X1424187Y1120674D01*
X1423869Y1120737D01*
Y1122977D01*
X1408631D01*
Y1120986D01*
X1401883D01*
X1401214Y1120853D01*
X1387774D01*
Y1122274D01*
X1375726D01*
Y1111226D01*
X1387774D01*
Y1112647D01*
X1401750D01*
X1402419Y1112780D01*
X1408631D01*
Y1110789D01*
X1422909D01*
X1424849Y1108849D01*
X1426180Y1107960D01*
X1427750Y1107647D01*
X1433976D01*
Y1107226D01*
X1447524D01*
X1447897Y1106111D01*
Y1098389D01*
X1447524Y1097274D01*
X1433976D01*
Y1093528D01*
X1428668Y1088220D01*
X1423869D01*
Y1090211D01*
X1408631D01*
Y1088220D01*
X1405832D01*
X1402603Y1091449D01*
Y1095000D01*
X1402290Y1096570D01*
X1401401Y1097901D01*
X1400070Y1098791D01*
X1398500Y1099103D01*
X1396930Y1098791D01*
X1395599Y1097901D01*
X1394709Y1096570D01*
X1394397Y1095000D01*
Y1089750D01*
X1394709Y1088180D01*
X1395599Y1086849D01*
X1401232Y1081216D01*
X1402563Y1080327D01*
X1404133Y1080014D01*
X1408631D01*
Y1078023D01*
X1423869D01*
Y1080014D01*
X1430367D01*
X1431937Y1080327D01*
X1433268Y1081216D01*
X1433724Y1081672D01*
X1434897Y1081186D01*
Y1070536D01*
X1433559Y1069198D01*
X1432181Y1069616D01*
X1432041Y1070320D01*
X1431151Y1071651D01*
X1429820Y1072541D01*
X1428250Y1072853D01*
X1426680Y1072541D01*
X1426399Y1072353D01*
X1404500D01*
X1402930Y1072040D01*
X1401599Y1071151D01*
X1393849Y1063401D01*
X1392959Y1062070D01*
X1392647Y1060500D01*
Y1059103D01*
X1383500D01*
X1381930Y1058791D01*
X1380599Y1057901D01*
X1380121Y1057423D01*
X1379274Y1057774D01*
Y1057774D01*
X1367226D01*
Y1056353D01*
X1365699D01*
X1363103Y1058949D01*
Y1105000D01*
X1362791Y1106570D01*
X1361901Y1107901D01*
X1356751Y1113051D01*
X1355420Y1113941D01*
X1353850Y1114253D01*
X1349093D01*
Y1114849D01*
X1330805D01*
Y1105451D01*
X1349093D01*
Y1106047D01*
X1352151D01*
X1354897Y1103301D01*
Y1057250D01*
X1354161Y1056353D01*
X1327449D01*
X1308851Y1074951D01*
X1307520Y1075841D01*
X1305950Y1076153D01*
X1295195D01*
Y1076749D01*
X1276907D01*
Y1067351D01*
X1295195D01*
Y1067947D01*
X1304251D01*
X1314671Y1057526D01*
X1314185Y1056353D01*
X1274250D01*
X1272680Y1056040D01*
X1271349Y1055151D01*
X1238651Y1022453D01*
X1232005D01*
X1231880Y1023723D01*
X1232319Y1023810D01*
X1233070Y1023960D01*
X1234401Y1024849D01*
X1235291Y1026180D01*
X1235603Y1027750D01*
X1235291Y1029320D01*
X1234401Y1030651D01*
X1229353Y1035699D01*
Y1054476D01*
X1229774D01*
Y1073524D01*
X1220726D01*
Y1054476D01*
X1221147D01*
Y1034000D01*
X1221460Y1032430D01*
X1222349Y1031099D01*
X1228599Y1024849D01*
X1229930Y1023960D01*
X1230681Y1023810D01*
X1231120Y1023723D01*
X1230994Y1022453D01*
X1225350D01*
X1213143Y1034659D01*
Y1045210D01*
X1212831Y1046780D01*
X1211941Y1048111D01*
X1205603Y1054449D01*
Y1054500D01*
X1205291Y1056070D01*
X1204401Y1057401D01*
X1203070Y1058290D01*
X1201500Y1058603D01*
X1199930Y1058290D01*
X1198599Y1057401D01*
X1197710Y1056070D01*
X1197397Y1054500D01*
Y1053788D01*
X1196127Y1053262D01*
X1187603Y1061786D01*
Y1091726D01*
X1189301D01*
X1189459Y1090930D01*
X1190349Y1089599D01*
X1196849Y1083099D01*
X1198180Y1082209D01*
X1199750Y1081897D01*
X1211226D01*
Y1076476D01*
X1220274D01*
Y1095524D01*
X1220855Y1096553D01*
X1224949Y1100647D01*
X1226250D01*
X1227820Y1100959D01*
X1229151Y1101849D01*
X1230041Y1103180D01*
X1230353Y1104750D01*
X1230041Y1106320D01*
X1229151Y1107651D01*
X1227820Y1108540D01*
X1226250Y1108853D01*
X1223250D01*
X1221680Y1108540D01*
X1220349Y1107651D01*
X1212849Y1100151D01*
X1211960Y1098820D01*
X1211647Y1097250D01*
Y1095524D01*
X1211226D01*
Y1090103D01*
X1201449D01*
X1199274Y1092278D01*
Y1102774D01*
X1187603D01*
Y1105726D01*
X1199274D01*
Y1116774D01*
X1198622D01*
X1198096Y1118044D01*
X1200499Y1120447D01*
X1210976D01*
Y1115026D01*
X1220024D01*
Y1134074D01*
X1210976D01*
Y1128653D01*
X1198800D01*
X1197230Y1128341D01*
X1195899Y1127451D01*
X1190349Y1121901D01*
X1189459Y1120570D01*
X1189147Y1119000D01*
Y1116774D01*
X1187603D01*
Y1148001D01*
X1201449Y1161847D01*
X1218301D01*
X1220897Y1159251D01*
Y1156074D01*
X1220476D01*
Y1137026D01*
X1229524D01*
Y1156074D01*
X1229103D01*
Y1160950D01*
X1228791Y1162520D01*
X1227901Y1163851D01*
X1222901Y1168851D01*
X1221570Y1169741D01*
X1220000Y1170053D01*
D02*
G37*
G36*
X1295195Y1140249D02*
X1276907D01*
Y1130851D01*
X1295195D01*
Y1140249D01*
D02*
G37*
G36*
X311500Y1130132D02*
X309345Y1129703D01*
X307517Y1128482D01*
X306296Y1126654D01*
X305867Y1124499D01*
X306296Y1122343D01*
X307517Y1120516D01*
X309345Y1119295D01*
X311500Y1118866D01*
X313656Y1119295D01*
X315483Y1120516D01*
X316704Y1122343D01*
X317133Y1124499D01*
X316704Y1126654D01*
X315483Y1128482D01*
X313656Y1129703D01*
X311500Y1130132D01*
D02*
G37*
G36*
X1295195Y1127549D02*
X1276907D01*
Y1118151D01*
X1295195D01*
Y1127549D01*
D02*
G37*
G36*
X1156500Y1125598D02*
X1155027Y1125305D01*
X1153779Y1124471D01*
X1152945Y1123223D01*
X1152652Y1121750D01*
X1152945Y1120277D01*
X1153779Y1119029D01*
X1155027Y1118195D01*
X1156500Y1117902D01*
X1157972Y1118195D01*
X1159221Y1119029D01*
X1159568Y1119549D01*
X1165976D01*
Y1112976D01*
X1178024D01*
Y1124024D01*
X1165976D01*
Y1123951D01*
X1159568D01*
X1159221Y1124471D01*
X1157972Y1125305D01*
X1156500Y1125598D01*
D02*
G37*
G36*
X344025Y1121794D02*
X320977D01*
Y1110745D01*
X344025D01*
Y1121794D01*
D02*
G37*
G36*
X1170730Y1111040D02*
X1164960D01*
Y1105770D01*
X1170730D01*
Y1111040D01*
D02*
G37*
G36*
X1239024Y1134074D02*
X1229976D01*
Y1115026D01*
X1239024D01*
Y1118479D01*
X1239951Y1119099D01*
X1240841Y1120430D01*
X1240844Y1120447D01*
X1251251D01*
X1253404Y1118294D01*
X1252878Y1117024D01*
X1252226D01*
Y1105976D01*
X1264274D01*
Y1106047D01*
X1276907D01*
Y1105451D01*
X1295195D01*
Y1114849D01*
X1276907D01*
Y1114253D01*
X1264274D01*
Y1117024D01*
X1262353D01*
Y1119250D01*
X1262041Y1120820D01*
X1261151Y1122151D01*
X1255851Y1127451D01*
X1254520Y1128341D01*
X1252950Y1128653D01*
X1239024D01*
Y1134074D01*
D02*
G37*
G36*
X1388790Y1109290D02*
X1383020D01*
Y1104020D01*
X1388790D01*
Y1109290D01*
D02*
G37*
G36*
X1380480D02*
X1374710D01*
Y1104020D01*
X1380480D01*
Y1109290D01*
D02*
G37*
G36*
X1170730Y1103230D02*
X1164960D01*
Y1097960D01*
X1170730D01*
Y1103230D01*
D02*
G37*
G36*
X1388790Y1101480D02*
X1383020D01*
Y1096210D01*
X1388790D01*
Y1101480D01*
D02*
G37*
G36*
X1380480D02*
X1374710D01*
Y1096210D01*
X1380480D01*
Y1101480D01*
D02*
G37*
G36*
X328274Y1107523D02*
X317225D01*
Y1095475D01*
X328274D01*
Y1107523D01*
D02*
G37*
G36*
X937290Y1100390D02*
X926020D01*
Y1094620D01*
X937290D01*
Y1100390D01*
D02*
G37*
G36*
X767290D02*
X756020D01*
Y1094620D01*
X767290D01*
Y1100390D01*
D02*
G37*
G36*
X753480D02*
X742210D01*
Y1094620D01*
X753480D01*
Y1100390D01*
D02*
G37*
G36*
X923480D02*
X912210D01*
Y1094620D01*
X923480D01*
Y1100390D01*
D02*
G37*
G36*
X1117131Y1096230D02*
X1113770D01*
Y1092869D01*
X1114369Y1092988D01*
X1115953Y1094047D01*
X1117012Y1095631D01*
X1117131Y1096230D01*
D02*
G37*
G36*
X1073730D02*
X1070369D01*
X1070488Y1095631D01*
X1071547Y1094047D01*
X1073131Y1092988D01*
X1073730Y1092869D01*
Y1096230D01*
D02*
G37*
G36*
X1349093Y1102149D02*
X1330805D01*
Y1101553D01*
X1322110D01*
X1320540Y1101240D01*
X1319209Y1100351D01*
X1306609Y1087751D01*
X1305720Y1086420D01*
X1305408Y1084850D01*
X1305720Y1083280D01*
X1306609Y1081949D01*
X1307940Y1081059D01*
X1309510Y1080747D01*
X1311081Y1081059D01*
X1312412Y1081949D01*
X1323810Y1093347D01*
X1330805D01*
Y1092751D01*
X1349093D01*
Y1102149D01*
D02*
G37*
G36*
X1264274Y1103024D02*
X1252226D01*
Y1092528D01*
X1249801Y1090103D01*
X1239274D01*
Y1095524D01*
X1230226D01*
Y1076476D01*
X1239274D01*
Y1081897D01*
X1251500D01*
X1253070Y1082209D01*
X1254401Y1083099D01*
X1261151Y1089849D01*
X1262041Y1091180D01*
X1262199Y1091976D01*
X1263628Y1091976D01*
X1263858Y1091420D01*
X1264154Y1090706D01*
X1263599Y1090151D01*
X1262710Y1088820D01*
X1262397Y1087250D01*
Y1087000D01*
X1262710Y1085430D01*
X1263599Y1084099D01*
X1264930Y1083210D01*
X1266500Y1082897D01*
X1268070Y1083210D01*
X1269401Y1084099D01*
X1269905Y1084852D01*
X1277803Y1092751D01*
X1295195D01*
Y1102149D01*
X1276907D01*
Y1101553D01*
X1276700D01*
X1275130Y1101240D01*
X1273799Y1100351D01*
X1265544Y1092096D01*
X1264274Y1092622D01*
X1264274Y1092989D01*
Y1103024D01*
D02*
G37*
G36*
X1141250Y1096848D02*
X1139778Y1096555D01*
X1138529Y1095721D01*
X1137695Y1094473D01*
X1137402Y1093000D01*
X1137524Y1092387D01*
X1135443Y1090306D01*
X1134966Y1089592D01*
X1134799Y1088750D01*
Y1081524D01*
X1130976D01*
Y1070476D01*
X1143024D01*
Y1081524D01*
X1139201D01*
Y1087838D01*
X1140637Y1089274D01*
X1141250Y1089152D01*
X1142722Y1089445D01*
X1143971Y1090279D01*
X1144805Y1091527D01*
X1145098Y1093000D01*
X1144805Y1094473D01*
X1143971Y1095721D01*
X1142722Y1096555D01*
X1141250Y1096848D01*
D02*
G37*
G36*
X1145500Y1105848D02*
X1144027Y1105555D01*
X1142779Y1104721D01*
X1141945Y1103473D01*
X1141652Y1102000D01*
X1141945Y1100527D01*
X1142779Y1099279D01*
X1144027Y1098445D01*
X1145500Y1098152D01*
X1146973Y1098445D01*
X1148221Y1099279D01*
X1148568Y1099799D01*
X1150288D01*
X1153543Y1096544D01*
X1153535Y1095274D01*
X1149726D01*
Y1084226D01*
X1161774D01*
Y1087172D01*
X1165976D01*
Y1084476D01*
X1178024D01*
Y1095524D01*
X1165976D01*
Y1092828D01*
X1161774D01*
Y1095274D01*
X1157951D01*
Y1097450D01*
X1157784Y1098292D01*
X1157307Y1099007D01*
X1152757Y1103557D01*
X1152042Y1104034D01*
X1151200Y1104201D01*
X1148568D01*
X1148221Y1104721D01*
X1146973Y1105555D01*
X1145500Y1105848D01*
D02*
G37*
G36*
X1513250Y1104339D02*
X1509250D01*
X1507286Y1104080D01*
X1505455Y1103322D01*
X1503884Y1102116D01*
X1502678Y1100545D01*
X1501920Y1098714D01*
X1501661Y1096750D01*
X1501920Y1094786D01*
X1502678Y1092955D01*
X1503884Y1091384D01*
X1505455Y1090178D01*
X1507286Y1089420D01*
X1509250Y1089161D01*
X1513250D01*
X1515214Y1089420D01*
X1516459Y1089935D01*
X1517704Y1089353D01*
X1517838Y1089186D01*
X1517907Y1088666D01*
X1518615Y1086958D01*
X1519740Y1085490D01*
X1521208Y1084365D01*
X1522916Y1083657D01*
X1524750Y1083415D01*
X1531750D01*
X1532210Y1083476D01*
X1541790D01*
X1542250Y1083415D01*
X1549250D01*
X1551084Y1083657D01*
X1552792Y1084365D01*
X1554260Y1085490D01*
X1555385Y1086958D01*
X1556093Y1088666D01*
X1556335Y1090500D01*
X1556093Y1092334D01*
X1555385Y1094042D01*
X1554260Y1095510D01*
X1552792Y1096635D01*
X1551084Y1097343D01*
X1549250Y1097585D01*
X1542250D01*
X1541790Y1097524D01*
X1532210D01*
X1531750Y1097585D01*
X1524750D01*
X1522916Y1097343D01*
X1522087Y1097000D01*
X1520702Y1097789D01*
X1520580Y1098714D01*
X1519822Y1100545D01*
X1518616Y1102116D01*
X1517044Y1103322D01*
X1515214Y1104080D01*
X1513250Y1104339D01*
D02*
G37*
G36*
X1349093Y1089449D02*
X1330805D01*
Y1088853D01*
X1325200D01*
X1323630Y1088540D01*
X1322299Y1087651D01*
X1321409Y1086320D01*
X1321097Y1084750D01*
X1321409Y1083180D01*
X1322299Y1081849D01*
X1323630Y1080959D01*
X1325200Y1080647D01*
X1330805D01*
Y1080051D01*
X1349093D01*
Y1089449D01*
D02*
G37*
G36*
X1295195D02*
X1276907D01*
Y1080051D01*
X1295195D01*
Y1089449D01*
D02*
G37*
G36*
X1170730Y1082540D02*
X1164960D01*
Y1077270D01*
X1170730D01*
Y1082540D01*
D02*
G37*
G36*
X1162790Y1082290D02*
X1157020D01*
Y1077020D01*
X1162790D01*
Y1082290D01*
D02*
G37*
G36*
X1154480D02*
X1148710D01*
Y1077020D01*
X1154480D01*
Y1082290D01*
D02*
G37*
G36*
X1350109Y1077765D02*
X1341219D01*
Y1073320D01*
X1350109D01*
Y1077765D01*
D02*
G37*
G36*
X1338679D02*
X1329789D01*
Y1073320D01*
X1338679D01*
Y1077765D01*
D02*
G37*
G36*
X1170730Y1074730D02*
X1164960D01*
Y1069460D01*
X1170730D01*
Y1074730D01*
D02*
G37*
G36*
X1162790Y1074480D02*
X1157020D01*
Y1069210D01*
X1162790D01*
Y1074480D01*
D02*
G37*
G36*
X1154480D02*
X1148710D01*
Y1069210D01*
X1154480D01*
Y1074480D01*
D02*
G37*
G36*
X1350109Y1070780D02*
X1341219D01*
Y1066335D01*
X1350109D01*
Y1070780D01*
D02*
G37*
G36*
X1338679D02*
X1329789D01*
Y1066335D01*
X1338679D01*
Y1070780D01*
D02*
G37*
G36*
X388501Y1124890D02*
X386537Y1124631D01*
X384706Y1123873D01*
X383134Y1122667D01*
X381928Y1121095D01*
X381170Y1119265D01*
X380911Y1117300D01*
X381170Y1115336D01*
X381928Y1113505D01*
X383134Y1111933D01*
X384706Y1110727D01*
X386537Y1109969D01*
X388501Y1109710D01*
X390466Y1109969D01*
X392296Y1110727D01*
X393868Y1111933D01*
X394838Y1113197D01*
X474250D01*
X522599Y1064849D01*
X523930Y1063960D01*
X525500Y1063647D01*
X705000D01*
X706570Y1063960D01*
X707901Y1064849D01*
X708791Y1066180D01*
X709103Y1067750D01*
X708791Y1069320D01*
X707901Y1070651D01*
X706570Y1071541D01*
X705000Y1071853D01*
X527200D01*
X478851Y1120201D01*
X477520Y1121091D01*
X475950Y1121403D01*
X394838D01*
X393868Y1122667D01*
X392296Y1123873D01*
X390466Y1124631D01*
X388501Y1124890D01*
D02*
G37*
G36*
X1144040Y1068540D02*
X1138270D01*
Y1063270D01*
X1144040D01*
Y1068540D01*
D02*
G37*
G36*
X1135730D02*
X1129960D01*
Y1063270D01*
X1135730D01*
Y1068540D01*
D02*
G37*
G36*
X1144040Y1060730D02*
X1138270D01*
Y1055460D01*
X1144040D01*
Y1060730D01*
D02*
G37*
G36*
X1135730D02*
X1129960D01*
Y1055460D01*
X1135730D01*
Y1060730D01*
D02*
G37*
G36*
X388501Y1150290D02*
X386537Y1150031D01*
X384706Y1149273D01*
X383134Y1148067D01*
X381928Y1146495D01*
X381170Y1144665D01*
X380911Y1142700D01*
X381170Y1140736D01*
X381928Y1138905D01*
X383134Y1137333D01*
X384706Y1136127D01*
X386537Y1135369D01*
X388501Y1135110D01*
X390466Y1135369D01*
X392296Y1136127D01*
X393868Y1137333D01*
X394838Y1138597D01*
X480350D01*
X541199Y1077749D01*
X542530Y1076860D01*
X544100Y1076547D01*
X742328D01*
X743226Y1075649D01*
X743226Y1074300D01*
X743226Y1073356D01*
Y1062290D01*
X742210D01*
Y1056520D01*
X767290D01*
Y1062290D01*
X766274D01*
Y1063847D01*
X772601D01*
X785897Y1050551D01*
Y995000D01*
X786209Y993430D01*
X787099Y992099D01*
X802099Y977099D01*
X803430Y976209D01*
X805000Y975897D01*
X896900D01*
X898470Y976209D01*
X899801Y977099D01*
X900691Y978430D01*
X901003Y980000D01*
X900691Y981570D01*
X899801Y982901D01*
X898470Y983791D01*
X896900Y984103D01*
X806700D01*
X794103Y996700D01*
Y1052250D01*
X793791Y1053820D01*
X792901Y1055151D01*
X777201Y1070851D01*
X775870Y1071740D01*
X774300Y1072053D01*
X767172D01*
X766274Y1072951D01*
X766274Y1074300D01*
X766274Y1075244D01*
Y1076547D01*
X813401D01*
X838099Y1051849D01*
X839430Y1050959D01*
X841000Y1050647D01*
X873500D01*
X875070Y1050959D01*
X875351Y1051147D01*
X886500D01*
X888070Y1051460D01*
X889401Y1052349D01*
X890291Y1053680D01*
X890603Y1055250D01*
X890291Y1056820D01*
X889401Y1058151D01*
X888070Y1059041D01*
X886500Y1059353D01*
X874000D01*
X872430Y1059041D01*
X872149Y1058853D01*
X842700D01*
X818001Y1083551D01*
X816670Y1084441D01*
X815100Y1084753D01*
X766274D01*
Y1086310D01*
X767290D01*
Y1092080D01*
X742210D01*
Y1086310D01*
X743226D01*
Y1084753D01*
X545799D01*
X484951Y1145601D01*
X483620Y1146491D01*
X482050Y1146803D01*
X394838D01*
X393868Y1148067D01*
X392296Y1149273D01*
X390466Y1150031D01*
X388501Y1150290D01*
D02*
G37*
G36*
Y1099490D02*
X386537Y1099231D01*
X384706Y1098473D01*
X383134Y1097267D01*
X381928Y1095695D01*
X381170Y1093865D01*
X380911Y1091900D01*
X381170Y1089936D01*
X381928Y1088105D01*
X383134Y1086533D01*
X384706Y1085327D01*
X386537Y1084569D01*
X388501Y1084311D01*
X390466Y1084569D01*
X392296Y1085327D01*
X393868Y1086533D01*
X394838Y1087797D01*
X470900D01*
X511599Y1047099D01*
X512930Y1046209D01*
X514500Y1045897D01*
X715250D01*
X716820Y1046209D01*
X718151Y1047099D01*
X719041Y1048430D01*
X719353Y1050000D01*
X719041Y1051570D01*
X718151Y1052901D01*
X716820Y1053791D01*
X715250Y1054103D01*
X516199D01*
X475501Y1094801D01*
X474170Y1095691D01*
X472600Y1096003D01*
X394838D01*
X393868Y1097267D01*
X392296Y1098473D01*
X390466Y1099231D01*
X388501Y1099490D01*
D02*
G37*
G36*
X767290Y1053980D02*
X742210D01*
Y1048210D01*
Y1043820D01*
X767290D01*
Y1048210D01*
Y1053980D01*
D02*
G37*
G36*
X1380290Y1044790D02*
X1374520D01*
Y1039520D01*
X1380290D01*
Y1044790D01*
D02*
G37*
G36*
X1371980D02*
X1366210D01*
Y1039520D01*
X1371980D01*
Y1044790D01*
D02*
G37*
G36*
X1380290Y1036980D02*
X1374520D01*
Y1031710D01*
X1380290D01*
Y1036980D01*
D02*
G37*
G36*
X1371980D02*
X1366210D01*
Y1031710D01*
X1371980D01*
Y1036980D01*
D02*
G37*
G36*
X1055040Y1037040D02*
X1049770D01*
Y1031270D01*
X1055040D01*
Y1037040D01*
D02*
G37*
G36*
X1047230D02*
X1041960D01*
Y1031270D01*
X1047230D01*
Y1037040D01*
D02*
G37*
G36*
X331024Y1047824D02*
X312976D01*
Y1029776D01*
X331024D01*
Y1047824D01*
D02*
G37*
G36*
X1055040Y1028730D02*
X1049770D01*
Y1022960D01*
X1055040D01*
Y1028730D01*
D02*
G37*
G36*
X1047230D02*
X1041960D01*
Y1022960D01*
X1047230D01*
Y1028730D01*
D02*
G37*
G36*
X857290Y1045890D02*
X831020D01*
Y1019620D01*
X857290D01*
Y1045890D01*
D02*
G37*
G36*
X828480D02*
X802210D01*
Y1019620D01*
X828480D01*
Y1045890D01*
D02*
G37*
G36*
X1055040Y1021290D02*
X1049770D01*
Y1015520D01*
X1055040D01*
Y1021290D01*
D02*
G37*
G36*
X1047230D02*
X1041960D01*
Y1015520D01*
X1047230D01*
Y1021290D01*
D02*
G37*
G36*
X1292540Y1019790D02*
X1287270D01*
Y1014020D01*
X1292540D01*
Y1019790D01*
D02*
G37*
G36*
X1284730D02*
X1279460D01*
Y1014020D01*
X1284730D01*
Y1019790D01*
D02*
G37*
G36*
X1466790Y1019040D02*
X1461520D01*
Y1013270D01*
X1466790D01*
Y1019040D01*
D02*
G37*
G36*
X1458980D02*
X1453710D01*
Y1013270D01*
X1458980D01*
Y1019040D01*
D02*
G37*
G36*
X1055040Y1012980D02*
X1049770D01*
Y1007210D01*
X1055040D01*
Y1012980D01*
D02*
G37*
G36*
X1047230D02*
X1041960D01*
Y1007210D01*
X1047230D01*
Y1012980D01*
D02*
G37*
G36*
X1305274Y1033774D02*
X1294226D01*
Y1021726D01*
X1295897D01*
Y1018774D01*
X1294476D01*
Y1006726D01*
X1305524D01*
Y1008647D01*
X1374750D01*
X1376320Y1008960D01*
X1377651Y1009849D01*
X1378541Y1011180D01*
X1378853Y1012750D01*
X1378541Y1014320D01*
X1377651Y1015651D01*
X1376320Y1016541D01*
X1374750Y1016853D01*
X1305524D01*
Y1018774D01*
X1304103D01*
Y1021726D01*
X1305274D01*
Y1023397D01*
X1314500D01*
X1316070Y1023709D01*
X1317401Y1024599D01*
X1318291Y1025930D01*
X1318603Y1027500D01*
X1318291Y1029070D01*
X1317401Y1030401D01*
X1316070Y1031291D01*
X1314500Y1031603D01*
X1305274D01*
Y1033774D01*
D02*
G37*
G36*
X1292540Y1011480D02*
X1287270D01*
Y1005710D01*
X1292540D01*
Y1011480D01*
D02*
G37*
G36*
X1284730D02*
X1279460D01*
Y1005710D01*
X1284730D01*
Y1011480D01*
D02*
G37*
G36*
X1466790Y1010730D02*
X1461520D01*
Y1004960D01*
X1466790D01*
Y1010730D01*
D02*
G37*
G36*
X1458980D02*
X1453710D01*
Y1004960D01*
X1458980D01*
Y1010730D01*
D02*
G37*
G36*
X322000Y1022502D02*
X319644Y1022192D01*
X317449Y1021282D01*
X315564Y1019836D01*
X314118Y1017951D01*
X313208Y1015756D01*
X312898Y1013400D01*
X313208Y1011044D01*
X314118Y1008849D01*
X315564Y1006964D01*
X317449Y1005518D01*
X319644Y1004608D01*
X322000Y1004298D01*
X324356Y1004608D01*
X326551Y1005518D01*
X328436Y1006964D01*
X329882Y1008849D01*
X330792Y1011044D01*
X331102Y1013400D01*
X330792Y1015756D01*
X329882Y1017951D01*
X328436Y1019836D01*
X326551Y1021282D01*
X324356Y1022192D01*
X322000Y1022502D01*
D02*
G37*
G36*
X857290Y1017080D02*
X831020D01*
Y990810D01*
X857290D01*
Y1017080D01*
D02*
G37*
G36*
X828480D02*
X802210D01*
Y990810D01*
X828480D01*
Y1017080D01*
D02*
G37*
G36*
X322000Y997102D02*
X319644Y996792D01*
X317449Y995882D01*
X315564Y994436D01*
X314118Y992551D01*
X313208Y990356D01*
X312898Y988000D01*
X313208Y985644D01*
X314118Y983449D01*
X315564Y981564D01*
X317449Y980118D01*
X319644Y979208D01*
X322000Y978898D01*
X324356Y979208D01*
X326551Y980118D01*
X328436Y981564D01*
X329882Y983449D01*
X330792Y985644D01*
X331102Y988000D01*
X330792Y990356D01*
X329882Y992551D01*
X328436Y994436D01*
X326551Y995882D01*
X324356Y996792D01*
X322000Y997102D01*
D02*
G37*
G36*
X767290Y1041280D02*
X742210D01*
Y1035510D01*
X743226D01*
Y1024444D01*
X743226Y1023500D01*
X743226Y1022556D01*
Y1011744D01*
X743226Y1010800D01*
X743226Y1009856D01*
Y999044D01*
X743226Y998100D01*
X743226Y997156D01*
Y986344D01*
X743226Y985400D01*
X743226Y984456D01*
Y973644D01*
X743226Y972700D01*
X743226Y971756D01*
Y960944D01*
X743226Y960000D01*
X743226Y959056D01*
Y948244D01*
X743226Y947300D01*
X743226Y946356D01*
Y935544D01*
X743226Y934600D01*
X743226Y933656D01*
Y922226D01*
X766274D01*
Y933656D01*
X766274Y934600D01*
X766274Y935544D01*
Y938122D01*
X772135D01*
X772819Y937099D01*
X774150Y936209D01*
X775720Y935897D01*
X777290Y936209D01*
X778621Y937099D01*
X779510Y938430D01*
X779823Y940000D01*
X779510Y941570D01*
X778621Y942901D01*
X777290Y943791D01*
X775720Y944103D01*
X774150Y943791D01*
X774132Y943778D01*
X767172D01*
X766274Y944676D01*
X766274Y947300D01*
X766274Y948244D01*
Y950822D01*
X774370D01*
X775235Y950994D01*
X775720Y950897D01*
X777290Y951209D01*
X778621Y952099D01*
X779510Y953430D01*
X779823Y955000D01*
X779510Y956570D01*
X778621Y957901D01*
X777290Y958791D01*
X775720Y959103D01*
X774150Y958791D01*
X772819Y957901D01*
X771929Y956570D01*
X771911Y956478D01*
X767172D01*
X766274Y957376D01*
X766274Y960000D01*
X766274Y960944D01*
Y963522D01*
X773798D01*
X773816Y963430D01*
X774706Y962099D01*
X776037Y961209D01*
X777607Y960897D01*
X779177Y961209D01*
X780508Y962099D01*
X781397Y963430D01*
X781710Y965000D01*
X781397Y966570D01*
X780508Y967901D01*
X779177Y968791D01*
X777607Y969103D01*
X777122Y969006D01*
X776257Y969178D01*
X767172D01*
X766274Y970076D01*
X766274Y972700D01*
X766274Y973644D01*
Y977172D01*
X774657D01*
X774706Y977099D01*
X776037Y976209D01*
X777607Y975897D01*
X779177Y976209D01*
X780508Y977099D01*
X781397Y978430D01*
X781710Y980000D01*
X781397Y981570D01*
X780508Y982901D01*
X779177Y983791D01*
X777607Y984103D01*
X776037Y983791D01*
X774706Y982901D01*
X774657Y982828D01*
X767172D01*
X766274Y983726D01*
X766274Y985400D01*
X766274Y986344D01*
Y997156D01*
X766274Y998100D01*
X766274Y999044D01*
Y1011499D01*
X767172Y1012397D01*
X776750D01*
X778320Y1012710D01*
X779651Y1013599D01*
X780540Y1014930D01*
X780853Y1016500D01*
X780540Y1018070D01*
X779651Y1019401D01*
X778320Y1020291D01*
X776750Y1020603D01*
X767172D01*
X766274Y1021501D01*
X766274Y1023500D01*
X766274Y1024444D01*
Y1035510D01*
X767290D01*
Y1041280D01*
D02*
G37*
G36*
X323270Y972559D02*
Y963870D01*
X331959D01*
X331782Y965221D01*
X330770Y967663D01*
X329161Y969761D01*
X327063Y971370D01*
X324621Y972382D01*
X323270Y972559D01*
D02*
G37*
G36*
X320730Y972559D02*
X319379Y972382D01*
X316937Y971370D01*
X314839Y969761D01*
X313230Y967663D01*
X312218Y965221D01*
X312041Y963870D01*
X320730D01*
Y972559D01*
D02*
G37*
G36*
X1471790Y968490D02*
X1466020D01*
Y963220D01*
X1471790D01*
Y968490D01*
D02*
G37*
G36*
X1463480D02*
X1457710D01*
Y963220D01*
X1463480D01*
Y968490D01*
D02*
G37*
G36*
X947500Y1021103D02*
X946500D01*
X944930Y1020790D01*
X943599Y1019901D01*
X942710Y1018570D01*
X942397Y1017000D01*
X942710Y1015430D01*
X943599Y1014099D01*
X972649Y985049D01*
X973980Y984159D01*
X975550Y983847D01*
X1076320D01*
X1076473Y983661D01*
X1076882Y982577D01*
X1076209Y981570D01*
X1075897Y980000D01*
X1076209Y978430D01*
X1077099Y977099D01*
X1078430Y976209D01*
X1080000Y975897D01*
X1151200D01*
X1152770Y976209D01*
X1154101Y977099D01*
X1154990Y978430D01*
X1155303Y980000D01*
X1154990Y981570D01*
X1154318Y982577D01*
X1154727Y983661D01*
X1154880Y983847D01*
X1422351D01*
X1430226Y975972D01*
Y970226D01*
X1431647D01*
Y968024D01*
X1430226D01*
Y955976D01*
X1441274D01*
Y968024D01*
X1439853D01*
Y970226D01*
X1441274D01*
Y982274D01*
X1435528D01*
X1426951Y990851D01*
X1425620Y991740D01*
X1424050Y992053D01*
X977250D01*
X951429Y1017873D01*
X951291Y1018570D01*
X950401Y1019901D01*
X949070Y1020790D01*
X947500Y1021103D01*
D02*
G37*
G36*
X1471790Y960680D02*
X1466020D01*
Y955410D01*
X1471790D01*
Y960680D01*
D02*
G37*
G36*
X1463480D02*
X1457710D01*
Y955410D01*
X1463480D01*
Y960680D01*
D02*
G37*
G36*
X1456290Y960730D02*
X1451020D01*
Y954960D01*
X1456290D01*
Y960730D01*
D02*
G37*
G36*
X1448480D02*
X1443210D01*
Y954960D01*
X1448480D01*
Y960730D01*
D02*
G37*
G36*
X320730Y961330D02*
X312041D01*
X312218Y959979D01*
X313230Y957537D01*
X314839Y955439D01*
X316937Y953830D01*
X319379Y952818D01*
X320730Y952641D01*
Y961330D01*
D02*
G37*
G36*
X331959D02*
X323270D01*
Y952641D01*
X324621Y952818D01*
X327063Y953830D01*
X329161Y955439D01*
X330770Y957537D01*
X331782Y959979D01*
X331959Y961330D01*
D02*
G37*
G36*
X781330Y930790D02*
X775560D01*
Y919520D01*
X781330D01*
Y930790D01*
D02*
G37*
G36*
Y916980D02*
X775560D01*
Y905710D01*
X781330D01*
Y916980D01*
D02*
G37*
G36*
X1088024Y919244D02*
X1069976D01*
Y901196D01*
X1088024D01*
Y919244D01*
D02*
G37*
G36*
X1282200Y919322D02*
X1279844Y919012D01*
X1277649Y918102D01*
X1275764Y916656D01*
X1274318Y914771D01*
X1273408Y912576D01*
X1273098Y910220D01*
X1273408Y907864D01*
X1274318Y905669D01*
X1275764Y903784D01*
X1277649Y902338D01*
X1279844Y901428D01*
X1282200Y901118D01*
X1284556Y901428D01*
X1286751Y902338D01*
X1288636Y903784D01*
X1290082Y905669D01*
X1290992Y907864D01*
X1291302Y910220D01*
X1290992Y912576D01*
X1290082Y914771D01*
X1288636Y916656D01*
X1286751Y918102D01*
X1284556Y919012D01*
X1282200Y919322D01*
D02*
G37*
G36*
X1256800D02*
X1254444Y919012D01*
X1252249Y918102D01*
X1250364Y916656D01*
X1248918Y914771D01*
X1248008Y912576D01*
X1247698Y910220D01*
X1248008Y907864D01*
X1248918Y905669D01*
X1250364Y903784D01*
X1252249Y902338D01*
X1254444Y901428D01*
X1256800Y901118D01*
X1259156Y901428D01*
X1261351Y902338D01*
X1263236Y903784D01*
X1264682Y905669D01*
X1265592Y907864D01*
X1265902Y910220D01*
X1265592Y912576D01*
X1264682Y914771D01*
X1263236Y916656D01*
X1261351Y918102D01*
X1259156Y919012D01*
X1256800Y919322D01*
D02*
G37*
G36*
X1231400D02*
X1229044Y919012D01*
X1226849Y918102D01*
X1224964Y916656D01*
X1223518Y914771D01*
X1222608Y912576D01*
X1222298Y910220D01*
X1222608Y907864D01*
X1223518Y905669D01*
X1224964Y903784D01*
X1226849Y902338D01*
X1229044Y901428D01*
X1231400Y901118D01*
X1233756Y901428D01*
X1235951Y902338D01*
X1237836Y903784D01*
X1239282Y905669D01*
X1240192Y907864D01*
X1240502Y910220D01*
X1240192Y912576D01*
X1239282Y914771D01*
X1237836Y916656D01*
X1235951Y918102D01*
X1233756Y919012D01*
X1231400Y919322D01*
D02*
G37*
G36*
X1206000D02*
X1203644Y919012D01*
X1201449Y918102D01*
X1199564Y916656D01*
X1198118Y914771D01*
X1197208Y912576D01*
X1196898Y910220D01*
X1197208Y907864D01*
X1198118Y905669D01*
X1199564Y903784D01*
X1201449Y902338D01*
X1203644Y901428D01*
X1206000Y901118D01*
X1208356Y901428D01*
X1210551Y902338D01*
X1212436Y903784D01*
X1213882Y905669D01*
X1214792Y907864D01*
X1215102Y910220D01*
X1214792Y912576D01*
X1213882Y914771D01*
X1212436Y916656D01*
X1210551Y918102D01*
X1208356Y919012D01*
X1206000Y919322D01*
D02*
G37*
G36*
X1180600D02*
X1178244Y919012D01*
X1176049Y918102D01*
X1174164Y916656D01*
X1172718Y914771D01*
X1171808Y912576D01*
X1171498Y910220D01*
X1171808Y907864D01*
X1172718Y905669D01*
X1174164Y903784D01*
X1176049Y902338D01*
X1178244Y901428D01*
X1180600Y901118D01*
X1182956Y901428D01*
X1185151Y902338D01*
X1187036Y903784D01*
X1188482Y905669D01*
X1189392Y907864D01*
X1189702Y910220D01*
X1189392Y912576D01*
X1188482Y914771D01*
X1187036Y916656D01*
X1185151Y918102D01*
X1182956Y919012D01*
X1180600Y919322D01*
D02*
G37*
G36*
X1155200D02*
X1152844Y919012D01*
X1150649Y918102D01*
X1148764Y916656D01*
X1147318Y914771D01*
X1146408Y912576D01*
X1146098Y910220D01*
X1146408Y907864D01*
X1147318Y905669D01*
X1148764Y903784D01*
X1150649Y902338D01*
X1152844Y901428D01*
X1155200Y901118D01*
X1157556Y901428D01*
X1159751Y902338D01*
X1161636Y903784D01*
X1163082Y905669D01*
X1163992Y907864D01*
X1164302Y910220D01*
X1163992Y912576D01*
X1163082Y914771D01*
X1161636Y916656D01*
X1159751Y918102D01*
X1157556Y919012D01*
X1155200Y919322D01*
D02*
G37*
G36*
X1129800D02*
X1127444Y919012D01*
X1125249Y918102D01*
X1123364Y916656D01*
X1121918Y914771D01*
X1121008Y912576D01*
X1120698Y910220D01*
X1121008Y907864D01*
X1121918Y905669D01*
X1123364Y903784D01*
X1125249Y902338D01*
X1127444Y901428D01*
X1129800Y901118D01*
X1132156Y901428D01*
X1134351Y902338D01*
X1136236Y903784D01*
X1137682Y905669D01*
X1138592Y907864D01*
X1138902Y910220D01*
X1138592Y912576D01*
X1137682Y914771D01*
X1136236Y916656D01*
X1134351Y918102D01*
X1132156Y919012D01*
X1129800Y919322D01*
D02*
G37*
G36*
X1104400D02*
X1102044Y919012D01*
X1099849Y918102D01*
X1097964Y916656D01*
X1096518Y914771D01*
X1095608Y912576D01*
X1095298Y910220D01*
X1095608Y907864D01*
X1096518Y905669D01*
X1097964Y903784D01*
X1099849Y902338D01*
X1102044Y901428D01*
X1104400Y901118D01*
X1106756Y901428D01*
X1108951Y902338D01*
X1110836Y903784D01*
X1112282Y905669D01*
X1113192Y907864D01*
X1113502Y910220D01*
X1113192Y912576D01*
X1112282Y914771D01*
X1110836Y916656D01*
X1108951Y918102D01*
X1106756Y919012D01*
X1104400Y919322D01*
D02*
G37*
G36*
X1526500Y931824D02*
X1523261Y931505D01*
X1520146Y930560D01*
X1517275Y929026D01*
X1514759Y926961D01*
X1512694Y924445D01*
X1511160Y921574D01*
X1510215Y918459D01*
X1509896Y915220D01*
X1510215Y911981D01*
X1511160Y908866D01*
X1512694Y905995D01*
X1514759Y903479D01*
X1517275Y901414D01*
X1520146Y899880D01*
X1523261Y898935D01*
X1526500Y898616D01*
X1529739Y898935D01*
X1532854Y899880D01*
X1535725Y901414D01*
X1538241Y903479D01*
X1540306Y905995D01*
X1541840Y908866D01*
X1542785Y911981D01*
X1543104Y915220D01*
X1542785Y918459D01*
X1541840Y921574D01*
X1540306Y924445D01*
X1538241Y926961D01*
X1535725Y929026D01*
X1532854Y930560D01*
X1529739Y931505D01*
X1526500Y931824D01*
D02*
G37*
G36*
X326500D02*
X323261Y931505D01*
X320146Y930560D01*
X317275Y929026D01*
X314759Y926961D01*
X312694Y924445D01*
X311160Y921574D01*
X310215Y918459D01*
X309896Y915220D01*
X310215Y911981D01*
X311160Y908866D01*
X312694Y905995D01*
X314759Y903479D01*
X317275Y901414D01*
X320146Y899880D01*
X323261Y898935D01*
X326500Y898616D01*
X329739Y898935D01*
X332854Y899880D01*
X335725Y901414D01*
X338241Y903479D01*
X340306Y905995D01*
X341840Y908866D01*
X342785Y911981D01*
X343104Y915220D01*
X342785Y918459D01*
X341840Y921574D01*
X340306Y924445D01*
X338241Y926961D01*
X335725Y929026D01*
X332854Y930560D01*
X329739Y931505D01*
X326500Y931824D01*
D02*
G37*
%LPD*%
G36*
X1140771Y1114634D02*
X1140770Y1114516D01*
X1139975Y1113364D01*
X1025050D01*
X1025050Y1113364D01*
X1024260Y1113207D01*
X1023591Y1112759D01*
X1023591Y1112759D01*
X982895Y1072064D01*
X969524D01*
Y1075049D01*
X974750D01*
X975592Y1075216D01*
X976307Y1075694D01*
X984839Y1084226D01*
X989274D01*
Y1088661D01*
X1015662Y1115049D01*
X1140313D01*
X1140771Y1114634D01*
D02*
G37*
D10*
X1365600Y1122850D02*
X1374040Y1131290D01*
X1494979D01*
X1495000Y1131269D01*
X1339949Y1135550D02*
X1358500D01*
X1362250Y1139300D01*
X1495000D01*
X754750Y979050D02*
X755700Y980000D01*
X777607D01*
X754750Y966350D02*
X776257D01*
X777607Y965000D01*
X754750Y953650D02*
X774370D01*
X775720Y955000D01*
X754750Y940950D02*
X774770D01*
X775720Y940000D01*
X753950Y941750D02*
X754750Y940950D01*
X752650Y955750D02*
X754750Y953650D01*
X753600Y967500D02*
X754750Y966350D01*
X1155750Y1089750D02*
X1156000Y1090000D01*
X1172000D01*
X1339949Y1122850D02*
X1365600D01*
D15*
X1062500Y1014250D02*
Y1030000D01*
X1062750Y1029750D01*
X1071750D01*
X974750Y1077250D02*
X1014750Y1117250D01*
X959550Y1067950D02*
X961600Y1070000D01*
X924750Y1067950D02*
X959550D01*
X1156500Y1121750D02*
X1168750D01*
X1014750Y1117250D02*
X1144250D01*
X1145500Y1102000D02*
X1151200D01*
X928150Y1077250D02*
X974750D01*
X924750Y1080650D02*
X928150Y1077250D01*
X1155750Y1089750D02*
Y1097450D01*
X1151200Y1102000D02*
X1155750Y1097450D01*
X1168750Y1121750D02*
X1172000Y1118500D01*
X1137000Y1076000D02*
Y1088750D01*
X1141250Y1093000D01*
D17*
X1062500Y1030000D02*
D03*
X1048500D02*
D03*
X1062500Y1014250D02*
D03*
X1048500D02*
D03*
X1299750Y1027750D02*
D03*
X1285750D02*
D03*
X1446250Y1012000D02*
D03*
X1460250D02*
D03*
X1435750Y962000D02*
D03*
X1449750D02*
D03*
X1449750Y976250D02*
D03*
X1435750D02*
D03*
X1300000Y1012750D02*
D03*
X1286000D02*
D03*
D18*
X963500Y1070000D02*
D03*
Y1084000D02*
D03*
X983250Y1089750D02*
D03*
Y1103750D02*
D03*
X1172000Y1118500D02*
D03*
Y1104500D02*
D03*
Y1090000D02*
D03*
Y1076000D02*
D03*
X1155750Y1075750D02*
D03*
Y1089750D02*
D03*
X1137000Y1076000D02*
D03*
Y1062000D02*
D03*
X1193250Y1111250D02*
D03*
Y1097250D02*
D03*
X1258250Y1097500D02*
D03*
Y1111500D02*
D03*
X1381750Y1102750D02*
D03*
Y1116750D02*
D03*
X1373250Y1052250D02*
D03*
Y1038250D02*
D03*
X1464750Y975950D02*
D03*
Y961950D02*
D03*
D19*
X1225250Y1064000D02*
D03*
X1215750Y1086000D02*
D03*
X1234750D02*
D03*
X1225000Y1146550D02*
D03*
X1234500Y1124550D02*
D03*
X1215500D02*
D03*
D20*
X1286051Y1072050D02*
D03*
Y1084750D02*
D03*
X1339949Y1160950D02*
D03*
X1286051Y1148250D02*
D03*
X1339949D02*
D03*
Y1122850D02*
D03*
X1286051Y1160950D02*
D03*
X1339949Y1135550D02*
D03*
X1286051D02*
D03*
Y1122850D02*
D03*
Y1097450D02*
D03*
X1339949Y1110150D02*
D03*
Y1097450D02*
D03*
Y1072050D02*
D03*
X1286051Y1110150D02*
D03*
X1339949Y1084750D02*
D03*
D21*
X1416250Y1084117D02*
D03*
Y1116883D02*
D03*
D22*
X1463750Y1102250D02*
D03*
X1440750Y1092750D02*
D03*
Y1111750D02*
D03*
D23*
X1441000Y1036000D02*
D03*
Y1055000D02*
D03*
X1465000D02*
D03*
Y1045500D02*
D03*
Y1036000D02*
D03*
D24*
X1406250Y1041000D02*
D03*
D25*
X1396750Y1055000D02*
D03*
X1415750D02*
D03*
X1406250Y1027000D02*
D03*
X1396750D02*
D03*
X1406250Y1055000D02*
D03*
X1415750Y1027000D02*
D03*
D26*
X924750Y1093350D02*
D03*
Y1080650D02*
D03*
Y1067950D02*
D03*
Y1055250D02*
D03*
Y1042550D02*
D03*
Y1029850D02*
D03*
Y1017150D02*
D03*
Y1004450D02*
D03*
Y991750D02*
D03*
Y979050D02*
D03*
Y966350D02*
D03*
Y953650D02*
D03*
Y940950D02*
D03*
Y928250D02*
D03*
X754750D02*
D03*
Y940950D02*
D03*
Y953650D02*
D03*
Y966350D02*
D03*
Y979050D02*
D03*
Y991750D02*
D03*
Y1004450D02*
D03*
Y1017150D02*
D03*
Y1029850D02*
D03*
Y1042550D02*
D03*
Y1055250D02*
D03*
Y1067950D02*
D03*
Y1080650D02*
D03*
Y1093350D02*
D03*
D27*
X896900Y918250D02*
D03*
X884200D02*
D03*
X871500D02*
D03*
X858800D02*
D03*
X846100D02*
D03*
X833400D02*
D03*
X820700D02*
D03*
X808000D02*
D03*
X795300D02*
D03*
X782600D02*
D03*
D28*
X829750Y1018350D02*
D03*
D29*
X332501Y1116269D02*
D03*
Y1161270D02*
D03*
Y1131270D02*
D03*
D30*
X300250Y1101999D02*
D03*
Y1177001D02*
D03*
D31*
X322750Y1101499D02*
D03*
Y1177501D02*
D03*
D58*
X1062500Y1014250D02*
X1076000D01*
X1078500Y1011750D01*
X382161Y1185000D02*
X1384337D01*
X353750Y1156589D02*
X382161Y1185000D01*
X1384337D02*
X1390377Y1178960D01*
X329751Y1131269D02*
X349618D01*
X1183500Y1149700D02*
X1199750Y1165950D01*
X1183500Y1060087D02*
Y1149700D01*
X1199750Y1165950D02*
X1220000D01*
X353750Y1135401D02*
Y1156589D01*
X349618Y1131269D02*
X353750Y1135401D01*
X868000Y941000D02*
X878250D01*
X884200Y935050D01*
Y918250D02*
Y935050D01*
X951000Y953650D02*
Y960500D01*
X945150Y966350D02*
X951000Y960500D01*
X924750Y966350D02*
X945150D01*
X892250Y939250D02*
Y940320D01*
X905580Y953650D01*
X924750D01*
X1396750Y1055000D02*
X1406250D01*
X1300000Y1012750D02*
X1374750D01*
X1475450Y975950D02*
X1478700D01*
X1487750Y985000D01*
X1464750Y975950D02*
X1475450D01*
X1479250Y979750D01*
Y1020000D01*
X1461750Y1111750D02*
X1470000Y1120000D01*
X1456000Y1111750D02*
X1461750D01*
X1080000Y980000D02*
X1151200D01*
X805000D02*
X896900D01*
X790000Y995000D02*
X805000Y980000D01*
X790000Y995000D02*
Y1052250D01*
X774300Y1067950D02*
X790000Y1052250D01*
X754750Y1067950D02*
X774300D01*
X1300000Y1027500D02*
X1314500D01*
X1225250Y1034000D02*
X1231500Y1027750D01*
X1225250Y1034000D02*
Y1064000D01*
X1240350Y1018350D02*
X1274250Y1052250D01*
X1223650Y1018350D02*
X1240350D01*
X1209040Y1032960D02*
X1223650Y1018350D01*
X1209040Y1032960D02*
Y1045210D01*
X1201500Y1052750D02*
X1209040Y1045210D01*
X1201500Y1052750D02*
Y1054500D01*
X1274250Y1052250D02*
X1286750D01*
X1297250D01*
X1236000Y1001500D02*
X1286750Y1052250D01*
X1087750Y1001500D02*
X1236000D01*
X1048700Y970000D02*
X1172298D01*
X1006950Y928250D02*
X1048700Y970000D01*
X946500Y1017000D02*
X975550Y987950D01*
X1424050D02*
X1435750Y976250D01*
X975550Y987950D02*
X1424050D01*
X1201500Y1017000D02*
Y1042087D01*
X1183500Y1060087D02*
X1201500Y1042087D01*
X924750Y928250D02*
X1006950D01*
X963500Y1093500D02*
X973750Y1103750D01*
X963500Y1084000D02*
Y1093500D01*
X1220000Y1165950D02*
X1225000Y1160950D01*
Y1146550D02*
Y1160950D01*
X1398707Y1181043D02*
X1414250Y1165500D01*
X1398707Y1181043D02*
X1398707D01*
X1396623Y1178960D02*
X1398707Y1181043D01*
X1390377Y1178960D02*
X1396623D01*
X1300000Y1012750D02*
Y1027500D01*
X1297250Y1052250D02*
X1325750D01*
X1285750Y1027750D02*
Y1036000D01*
X1297250Y1047500D01*
Y1052250D01*
X754750Y1017150D02*
X755400Y1016500D01*
X776750D01*
X946500Y1017000D02*
X947500D01*
X1435750Y962000D02*
X1435750Y962000D01*
Y976250D01*
X1464450D02*
X1464750Y975950D01*
X1449750Y976250D02*
X1464450D01*
X976750Y1001500D02*
X1087750D01*
X1078500Y1010750D02*
Y1011750D01*
Y1010750D02*
X1087750Y1001500D01*
X973750Y1103750D02*
X983250D01*
X962650Y1084850D02*
X963500Y1084000D01*
X947250Y1084850D02*
X962650D01*
X873500Y1054750D02*
X874000Y1055250D01*
X886500D01*
X947750Y1030500D02*
X976750Y1001500D01*
X841000Y1054750D02*
X873500D01*
X815100Y1080650D02*
X841000Y1054750D01*
X754750Y1080650D02*
X815100D01*
X1364000Y1052250D02*
X1373250D01*
X1325750D02*
X1364000D01*
X1305950Y1072050D02*
X1325750Y1052250D01*
X1286051Y1072050D02*
X1305950D01*
X893650Y1080650D02*
X924750D01*
X893500Y1080500D02*
X893650Y1080650D01*
X924050Y1067250D02*
X924750Y1067950D01*
X856750Y1067250D02*
X924050D01*
X514500Y1050000D02*
X715250D01*
X472600Y1091900D02*
X514500Y1050000D01*
X388501Y1091900D02*
X472600D01*
X525500Y1067750D02*
X705000D01*
X475950Y1117300D02*
X525500Y1067750D01*
X388501Y1117300D02*
X475950D01*
X482050Y1142700D02*
X544100Y1080650D01*
X388501Y1142700D02*
X482050D01*
X544100Y1080650D02*
X754750D01*
X1322110Y1097450D02*
X1339949D01*
X1309510Y1084850D02*
X1322110Y1097450D01*
X1325200Y1084750D02*
X1339949D01*
X924750Y1055250D02*
X1113960D01*
X1121711Y1047500D02*
X1183500D01*
X1113960Y1055250D02*
X1121711Y1047500D01*
X924750Y1042550D02*
X1108700D01*
X1116450Y1034800D02*
X1183500D01*
X1108700Y1042550D02*
X1116450Y1034800D01*
X1215750Y1086000D02*
Y1097250D01*
X1223250Y1104750D01*
X1226250D01*
X1266500Y1087000D02*
Y1087250D01*
X1276700Y1097450D01*
X1286051D01*
X1234750Y1086000D02*
X1251500D01*
X1258250Y1092750D01*
Y1097500D01*
Y1111500D02*
Y1119250D01*
X1252950Y1124550D02*
X1258250Y1119250D01*
X1234500Y1124550D02*
X1252950D01*
X1258250Y1111500D02*
X1259600Y1110150D01*
X1198800Y1124550D02*
X1215500D01*
X1193250Y1119000D02*
X1198800Y1124550D01*
X1193250Y1111250D02*
Y1119000D01*
Y1092500D02*
Y1097250D01*
Y1092500D02*
X1199750Y1086000D01*
X1215750D01*
X1234500Y1124550D02*
X1237050Y1122000D01*
X1259600Y1110150D02*
X1286051D01*
X1359000Y1057250D02*
X1364000Y1052250D01*
X1359000Y1057250D02*
Y1105000D01*
X1353850Y1110150D02*
X1359000Y1105000D01*
X1339949Y1110150D02*
X1353850D01*
X363232Y1194750D02*
X1385250D01*
X1404133Y1084117D02*
X1416250D01*
X1398500Y1089750D02*
X1404133Y1084117D01*
X1398500Y1089750D02*
Y1095000D01*
X1385250Y1194750D02*
X1393500Y1186500D01*
X1439000Y1068837D02*
Y1092750D01*
X1430873Y1060710D02*
X1439000Y1068837D01*
X1421460Y1060710D02*
X1430873D01*
X1415750Y1055000D02*
X1421460Y1060710D01*
X1435826Y1055000D02*
X1441000D01*
X1433996Y1053170D02*
X1435826Y1055000D01*
X1431170Y1053170D02*
X1433996D01*
X1427250Y1049250D02*
X1431170Y1053170D01*
X1465000Y1055000D02*
X1485500D01*
X1489750Y1050750D01*
Y1030500D02*
Y1050750D01*
X1479250Y1020000D02*
X1489750Y1030500D01*
X1427250Y1026500D02*
Y1049250D01*
Y1026500D02*
X1433000Y1020750D01*
X1427750Y1068250D02*
X1428250Y1068750D01*
X1404500Y1068250D02*
X1427750D01*
X1396750Y1060500D02*
X1404500Y1068250D01*
X1396750Y1055000D02*
Y1060500D01*
X1441000Y1017250D02*
X1446250Y1012000D01*
X1441000Y1017250D02*
Y1036000D01*
X1465000D02*
X1481750D01*
X1373250Y1052250D02*
X1380750D01*
X1383500Y1055000D01*
X1396750D01*
X1463750Y1056250D02*
X1465000Y1055000D01*
X1463750Y1056250D02*
Y1102250D01*
X1452000Y1107750D02*
X1456000Y1111750D01*
X1441000Y1055000D02*
X1441750D01*
X1452000Y1065250D01*
Y1107750D01*
X1401883Y1116883D02*
X1416250D01*
X1401750Y1116750D02*
X1401883Y1116883D01*
X1381750Y1116750D02*
X1401750D01*
X1440750Y1111750D02*
X1456000D01*
X1416250Y1084117D02*
X1430367D01*
X1439000Y1092750D01*
X1427750Y1111750D02*
X1440750D01*
X1422617Y1116883D02*
X1427750Y1111750D01*
X1416250Y1116883D02*
X1422617D01*
X1415500Y1013900D02*
X1415750Y1014150D01*
Y1027000D01*
X1414250Y1165250D02*
Y1165500D01*
X329751Y1161269D02*
X363232Y1194750D01*
D59*
X963500Y1070000D02*
X983750D01*
X961600D02*
X963500D01*
X983750D02*
X1025050Y1111300D01*
X1152450D01*
D60*
X1092625Y1100936D02*
D03*
D61*
X1092535Y1131100D02*
D03*
D62*
X322000Y962600D02*
D03*
Y988000D02*
D03*
Y1013400D02*
D03*
X1104400Y910220D02*
D03*
X1282200D02*
D03*
X1256800D02*
D03*
X1231400D02*
D03*
X1206000D02*
D03*
X1180600D02*
D03*
X1155200D02*
D03*
X1129800D02*
D03*
X1307700Y1220470D02*
D03*
X1333100D02*
D03*
X1409300D02*
D03*
X1383900D02*
D03*
X1358500D02*
D03*
X1282300D02*
D03*
X876300Y1220470D02*
D03*
X850900D02*
D03*
X825500D02*
D03*
X723900D02*
D03*
X749300D02*
D03*
X774700D02*
D03*
X800100D02*
D03*
X901700D02*
D03*
X469900D02*
D03*
X495300D02*
D03*
X520700D02*
D03*
X546100D02*
D03*
X571500D02*
D03*
X596900D02*
D03*
X622300D02*
D03*
X647700D02*
D03*
X673100D02*
D03*
X698500D02*
D03*
X927100D02*
D03*
X952500D02*
D03*
X977900D02*
D03*
X1003300D02*
D03*
X1028700D02*
D03*
X1054100D02*
D03*
X1256900Y1220470D02*
D03*
X1231500D02*
D03*
X1206100D02*
D03*
X1180700D02*
D03*
X1155300D02*
D03*
X1129900D02*
D03*
X1104500D02*
D03*
D63*
X322000Y1038800D02*
D03*
D64*
X1532380Y1175000D02*
D03*
X1541620D02*
D03*
Y1090500D02*
D03*
X1532380D02*
D03*
D65*
X1528250D02*
D03*
X1545750D02*
D03*
Y1175000D02*
D03*
X1528250D02*
D03*
D66*
X1511250Y1096750D02*
D03*
Y1168750D02*
D03*
D67*
X388501Y1091900D02*
D03*
Y1117300D02*
D03*
Y1142700D02*
D03*
Y1168100D02*
D03*
D68*
X311500Y1124499D02*
D03*
Y1154501D02*
D03*
D69*
X1079000Y910220D02*
D03*
X444500Y1220470D02*
D03*
X1079100Y1220470D02*
D03*
D70*
X1071750Y1029750D02*
D03*
X868000Y941000D02*
D03*
X951000Y953650D02*
D03*
X892250Y939250D02*
D03*
X1374750Y1012750D02*
D03*
X1487750Y985000D02*
D03*
X1470000Y1120000D02*
D03*
X1495000Y1131269D02*
D03*
Y1139300D02*
D03*
X777607Y980000D02*
D03*
Y965000D02*
D03*
X775720Y955000D02*
D03*
Y940000D02*
D03*
X1151200Y980000D02*
D03*
X1080000D02*
D03*
X896900D02*
D03*
X1314500Y1027500D02*
D03*
X1231500Y1027750D02*
D03*
X1172298Y970000D02*
D03*
X1201500Y1017000D02*
D03*
X776750Y1016500D02*
D03*
X947500Y1017000D02*
D03*
X1078500Y1011750D02*
D03*
X1201500Y1054500D02*
D03*
X947250Y1084850D02*
D03*
X886500Y1055250D02*
D03*
X947750Y1030500D02*
D03*
X893500Y1080500D02*
D03*
X856750Y1067250D02*
D03*
X715250Y1050000D02*
D03*
X705000Y1067750D02*
D03*
X1309510Y1084850D02*
D03*
X1325200Y1084750D02*
D03*
X1183500Y1047500D02*
D03*
Y1034800D02*
D03*
X1226250Y1104750D02*
D03*
X1266500Y1087000D02*
D03*
X1398500Y1095000D02*
D03*
X1393500Y1186500D02*
D03*
X1433000Y1020750D02*
D03*
X1481750Y1036000D02*
D03*
X1428250Y1068750D02*
D03*
X1415500Y1013900D02*
D03*
X1414250Y1165250D02*
D03*
D71*
X1105000Y1105000D02*
D03*
X1112500D02*
D03*
Y1137500D02*
D03*
X1075000Y1105000D02*
D03*
Y1097500D02*
D03*
X1082500Y1105000D02*
D03*
X1090000D02*
D03*
X1097500D02*
D03*
X1112500Y1097500D02*
D03*
X1105000D02*
D03*
X1097500D02*
D03*
X1090000D02*
D03*
X1082500D02*
D03*
X1075000Y1122500D02*
D03*
X1082500D02*
D03*
X1090000D02*
D03*
X1097500D02*
D03*
X1105000D02*
D03*
X1112500D02*
D03*
Y1130000D02*
D03*
X1105000D02*
D03*
X1097500D02*
D03*
X1090000D02*
D03*
X1082500D02*
D03*
X1075000D02*
D03*
Y1137500D02*
D03*
X1082500D02*
D03*
X1090000D02*
D03*
X1097500D02*
D03*
X1105000D02*
D03*
X1152450Y1111300D02*
D03*
X1156500Y1121750D02*
D03*
X1144250Y1117250D02*
D03*
X1145500Y1102000D02*
D03*
X1141250Y1093000D02*
D03*
D72*
X326500Y1215220D02*
D03*
X1526500D02*
D03*
Y915220D02*
D03*
X326500D02*
D03*
M02*
