G04*
G04 #@! TF.GenerationSoftware,Altium Limited,Altium Designer,19.0.14 (431)*
G04*
G04 Layer_Color=32768*
%FSLAX44Y44*%
%MOMM*%
G71*
G01*
G75*
%ADD13C,0.1524*%
%ADD65C,0.1000*%
%ADD104C,0.0500*%
D13*
X1343559Y1148797D02*
Y1157800D01*
Y1148797D02*
X1346607D01*
Y1111685D02*
Y1148797D01*
X1343559Y1111685D02*
X1346607D01*
X1343559Y1102682D02*
Y1111685D01*
X1334556Y1102682D02*
X1343559D01*
X1334556Y1099634D02*
Y1102682D01*
X1297444Y1099634D02*
X1334556D01*
X1297444D02*
Y1102682D01*
X1288441D02*
X1297444D01*
X1288441D02*
Y1111685D01*
X1285393D02*
X1288441D01*
X1285393D02*
Y1148797D01*
X1288441D01*
Y1157800D01*
X1297444D01*
Y1160848D01*
X1334556D01*
Y1157800D02*
Y1160848D01*
Y1157800D02*
X1343559D01*
D65*
X986750Y1040550D02*
Y1053050D01*
X961250Y1040550D02*
Y1053050D01*
Y1040550D02*
X986750D01*
X961250Y1053050D02*
X986750D01*
X969250Y1046800D02*
X978750D01*
X974000Y1042050D02*
Y1051550D01*
X986750Y1024550D02*
Y1037050D01*
X961250Y1024550D02*
Y1037050D01*
Y1024550D02*
X986750D01*
X961250Y1037050D02*
X986750D01*
X969250Y1030800D02*
X978750D01*
X974000Y1026050D02*
Y1035550D01*
X1370750Y1172625D02*
X1383250D01*
X1370750Y1147125D02*
X1383250D01*
Y1172625D01*
X1370750Y1147125D02*
Y1172625D01*
X1377000Y1155125D02*
Y1164625D01*
X1372250Y1159875D02*
X1381750D01*
X1354485Y1172750D02*
X1366985D01*
X1354485Y1147250D02*
X1366985D01*
Y1172750D01*
X1354485Y1147250D02*
Y1172750D01*
X1360735Y1155250D02*
Y1164750D01*
X1355985Y1160000D02*
X1365485D01*
X1132750Y1068750D02*
X1142250D01*
X1137500Y1064000D02*
Y1073500D01*
X1131250Y1056000D02*
Y1081500D01*
X1143750Y1056000D02*
Y1081500D01*
X1131250D02*
X1143750D01*
X1131250Y1056000D02*
X1143750D01*
X1150500Y1069000D02*
X1160000D01*
X1155250Y1064250D02*
Y1073750D01*
X1149000Y1056250D02*
Y1081750D01*
X1161500Y1056250D02*
Y1081750D01*
X1149000D02*
X1161500D01*
X1149000Y1056250D02*
X1161500D01*
X1339000Y1010250D02*
Y1019750D01*
X1334250Y1015000D02*
X1343750D01*
X1326250Y1021250D02*
X1351750D01*
X1326250Y1008750D02*
X1351750D01*
X1326250D02*
Y1021250D01*
X1351750Y1008750D02*
Y1021250D01*
X1151000Y1082750D02*
X1160500D01*
X1155750Y1078000D02*
Y1087500D01*
X1149500Y1070000D02*
Y1095500D01*
X1162000Y1070000D02*
Y1095500D01*
X1149500Y1070000D02*
X1162000D01*
X1149500Y1095500D02*
X1162000D01*
X1426250Y1174000D02*
Y1183500D01*
X1421500Y1178750D02*
X1431000D01*
X1413500Y1185000D02*
X1439000D01*
X1413500Y1172500D02*
X1439000D01*
X1413500D02*
Y1185000D01*
X1439000Y1172500D02*
Y1185000D01*
X1460000Y968950D02*
X1469500D01*
X1464750Y964200D02*
Y973700D01*
X1471000Y956200D02*
Y981700D01*
X1458500Y956200D02*
Y981700D01*
X1471000D01*
X1458500Y956200D02*
X1471000D01*
X1167250Y1111500D02*
X1176750D01*
X1172000Y1106750D02*
Y1116250D01*
X1178250Y1098750D02*
Y1124250D01*
X1165750Y1098750D02*
Y1124250D01*
X1178250D01*
X1165750Y1098750D02*
X1178250D01*
X1135250Y1069000D02*
X1144750D01*
X1140000Y1064250D02*
Y1073750D01*
X1146250Y1056250D02*
Y1081750D01*
X1133750Y1056250D02*
Y1081750D01*
X1146250D01*
X1133750Y1056250D02*
X1146250D01*
X1442750Y971500D02*
Y981000D01*
X1438000Y976250D02*
X1447500D01*
X1430000Y970000D02*
X1455500D01*
X1430000Y982500D02*
X1455500D01*
Y970000D02*
Y982500D01*
X1430000Y970000D02*
Y982500D01*
X1442750Y957250D02*
Y966750D01*
X1438000Y962000D02*
X1447500D01*
X1430000Y968250D02*
X1455500D01*
X1430000Y955750D02*
X1455500D01*
X1430000D02*
Y968250D01*
X1455500Y955750D02*
Y968250D01*
X1392750Y1109000D02*
X1402250D01*
X1397500Y1104250D02*
Y1113750D01*
X1391250Y1096250D02*
Y1121750D01*
X1403750Y1096250D02*
Y1121750D01*
X1391250Y1096250D02*
X1403750D01*
X1391250Y1121750D02*
X1403750D01*
X1167250Y1083000D02*
X1176750D01*
X1172000Y1078250D02*
Y1087750D01*
X1178250Y1070250D02*
Y1095750D01*
X1165750Y1070250D02*
Y1095750D01*
X1178250D01*
X1165750Y1070250D02*
X1178250D01*
X1502250Y1062750D02*
Y1072250D01*
X1497500Y1067500D02*
X1507000D01*
X1489500Y1061250D02*
X1515000D01*
X1489500Y1073750D02*
X1515000D01*
X1489500Y1061250D02*
Y1073750D01*
X1515000Y1061250D02*
Y1073750D01*
X1426000Y1190250D02*
Y1199750D01*
X1421250Y1195000D02*
X1430750D01*
X1413250Y1188750D02*
X1438750D01*
X1413250Y1201250D02*
X1438750D01*
Y1188750D02*
Y1201250D01*
X1413250Y1188750D02*
Y1201250D01*
X1292759Y1079367D02*
Y1088867D01*
X1288009Y1084117D02*
X1297509D01*
X1280009Y1090367D02*
X1305509D01*
X1280009Y1077867D02*
X1305509D01*
X1280009D02*
Y1090367D01*
X1305509Y1077867D02*
Y1090367D01*
X1302000Y1063976D02*
Y1073476D01*
X1297250Y1068726D02*
X1306750D01*
X1289250Y1074976D02*
X1314750D01*
X1289250Y1062476D02*
X1314750D01*
X1289250D02*
Y1074976D01*
X1314750Y1062476D02*
Y1074976D01*
X1453250Y1007250D02*
Y1016750D01*
X1448500Y1012000D02*
X1458000D01*
X1440500Y1018250D02*
X1466000D01*
X1440500Y1005750D02*
X1466000D01*
X1440500D02*
Y1018250D01*
X1466000Y1005750D02*
Y1018250D01*
X1006250Y1062000D02*
X1015750D01*
X1011000Y1057250D02*
Y1066750D01*
X1017250Y1049250D02*
Y1074750D01*
X1004750Y1049250D02*
Y1074750D01*
X1017250D01*
X1004750Y1049250D02*
X1017250D01*
X1502250Y1047250D02*
Y1056750D01*
X1497500Y1052000D02*
X1507000D01*
X1489500Y1058250D02*
X1515000D01*
X1489500Y1045750D02*
X1515000D01*
Y1058250D01*
X1489500Y1045750D02*
Y1058250D01*
X1025250Y1069000D02*
X1034750D01*
X1030000Y1064250D02*
Y1073750D01*
X1036250Y1056250D02*
Y1081750D01*
X1023750Y1056250D02*
Y1081750D01*
X1036250D01*
X1023750Y1056250D02*
X1036250D01*
X844250Y989250D02*
Y998750D01*
X839500Y994000D02*
X849000D01*
X831500Y1000250D02*
X857000D01*
X831500Y987750D02*
X857000D01*
Y1000250D01*
X831500Y987750D02*
Y1000250D01*
X844250Y969750D02*
Y979250D01*
X839500Y974500D02*
X849000D01*
X831500Y980750D02*
X857000D01*
X831500Y968250D02*
X857000D01*
Y980750D01*
X831500Y968250D02*
Y980750D01*
X844250Y951000D02*
Y960500D01*
X839500Y955750D02*
X849000D01*
X831500Y962000D02*
X857000D01*
X831500Y949500D02*
X857000D01*
Y962000D01*
X831500Y949500D02*
Y962000D01*
X844250Y932750D02*
Y942250D01*
X839500Y937500D02*
X849000D01*
X831500Y943750D02*
X857000D01*
X831500Y931250D02*
X857000D01*
Y943750D01*
X831500Y931250D02*
Y943750D01*
X444500Y1002250D02*
Y1011750D01*
X439750Y1007000D02*
X449250D01*
X431750Y1000750D02*
X457250D01*
X431750Y1013250D02*
X457250D01*
Y1000750D02*
Y1013250D01*
X431750Y1000750D02*
Y1013250D01*
X590000Y1002250D02*
Y1011750D01*
X585250Y1007000D02*
X594750D01*
X577250Y1000750D02*
X602750D01*
X577250Y1013250D02*
X602750D01*
Y1000750D02*
Y1013250D01*
X577250Y1000750D02*
Y1013250D01*
X715000Y1002250D02*
Y1011750D01*
X710250Y1007000D02*
X719750D01*
X702250Y1000750D02*
X727750D01*
X702250Y1013250D02*
X727750D01*
Y1000750D02*
Y1013250D01*
X702250Y1000750D02*
Y1013250D01*
X1411750Y1012250D02*
Y1021750D01*
X1407000Y1017000D02*
X1416500D01*
X1399000Y1010750D02*
X1424500D01*
X1399000Y1023250D02*
X1424500D01*
Y1010750D02*
Y1023250D01*
X1399000Y1010750D02*
Y1023250D01*
X1447750Y1070000D02*
Y1079500D01*
X1443000Y1074750D02*
X1452500D01*
X1435000Y1081000D02*
X1460500D01*
X1435000Y1068500D02*
X1460500D01*
X1435000D02*
Y1081000D01*
X1460500Y1068500D02*
Y1081000D01*
X1356250Y1106000D02*
X1365750D01*
X1361000Y1101250D02*
Y1110750D01*
X1367250Y1093250D02*
Y1118750D01*
X1354750Y1093250D02*
Y1118750D01*
X1367250D01*
X1354750Y1093250D02*
X1367250D01*
X1372250Y1106000D02*
X1381750D01*
X1377000Y1101250D02*
Y1110750D01*
X1383250Y1093250D02*
Y1118750D01*
X1370750Y1093250D02*
Y1118750D01*
X1383250D01*
X1370750Y1093250D02*
X1383250D01*
X1515000Y992000D02*
X1525000D01*
X1520000Y987000D02*
Y997000D01*
X1255000Y1124499D02*
X1265000D01*
X1260000Y1119499D02*
Y1129499D01*
X1213000Y1072000D02*
X1223000D01*
X1218000Y1067000D02*
Y1077000D01*
X1416250Y1098000D02*
Y1103000D01*
X1413750Y1100500D02*
X1418750D01*
X1453000Y1040500D02*
Y1050500D01*
X1448000Y1045500D02*
X1458000D01*
D104*
X1410250Y1047250D02*
G03*
X1410250Y1047250I-3500J0D01*
G01*
X1455750Y1102250D02*
G03*
X1455750Y1102250I-3500J0D01*
G01*
X1387250Y1029250D02*
X1426250D01*
Y1065250D01*
X1387250D02*
X1426250D01*
X1387250Y1029250D02*
Y1065250D01*
X1406750Y1042250D02*
Y1052250D01*
X1401750Y1047250D02*
X1411750D01*
X1496500Y1035250D02*
X1556500D01*
X1496500Y948750D02*
Y1035250D01*
X1556500Y948750D02*
Y1035250D01*
X1496500Y948750D02*
X1556500D01*
X1280000Y1100499D02*
Y1148499D01*
X1240000Y1100499D02*
Y1148499D01*
X1280000D01*
X1240000Y1100499D02*
X1280000D01*
X1198000Y1048000D02*
Y1096000D01*
X1238000Y1048000D02*
Y1096000D01*
X1198000Y1048000D02*
X1238000D01*
X1198000Y1096000D02*
X1238000D01*
X1407250Y1078550D02*
Y1122450D01*
X1425250D01*
Y1078550D02*
Y1122450D01*
X1407250Y1078550D02*
X1425250D01*
X1447250Y1102250D02*
X1457250D01*
X1452250Y1097250D02*
Y1107250D01*
X1432750Y1084250D02*
Y1120250D01*
X1471750D01*
Y1084250D02*
Y1120250D01*
X1432750Y1084250D02*
X1471750D01*
X1429500Y1066000D02*
X1476500D01*
X1429500Y1025000D02*
X1476500D01*
X1429500D02*
Y1066000D01*
X1476500Y1025000D02*
Y1066000D01*
M02*
