G04*
G04 #@! TF.GenerationSoftware,Altium Limited,Altium Designer,18.1.9 (240)*
G04*
G04 Layer_Color=65535*
%FSLAX44Y44*%
%MOMM*%
G71*
G01*
G75*
%ADD10C,0.3000*%
%ADD11C,0.0000*%
%ADD12C,0.2500*%
%ADD13C,0.2032*%
%ADD14C,0.2000*%
%ADD15C,0.1270*%
%ADD16C,0.2540*%
%ADD17R,0.5080X1.8000*%
D10*
X1454190Y1174570D02*
G03*
X1454190Y1174570I-1000J0D01*
G01*
D11*
X920490Y1001090D02*
G03*
X920490Y1001090I-2000J0D01*
G01*
D12*
X376430Y1093910D02*
G03*
X376430Y1093910I-1250J0D01*
G01*
X630600Y934170D02*
G03*
X630600Y934170I-1250J0D01*
G01*
X570640Y1003520D02*
G03*
X570640Y1003520I-1250J0D01*
G01*
X400460D02*
G03*
X400460Y1003520I-1250J0D01*
G01*
D13*
X1212085Y1075830D02*
G03*
X1212085Y1075830I-3256J0D01*
G01*
D14*
X1066800Y1207770D02*
Y1233170D01*
X431800Y1207770D02*
X1066800D01*
X431800D02*
Y1233170D01*
X450850D01*
X1066800D01*
X1085450Y1233170D02*
X1422000D01*
X1066400D02*
X1085450D01*
X1066400Y1207770D02*
Y1233170D01*
Y1207770D02*
X1422000D01*
Y1233170D01*
X883920Y914400D02*
Y939800D01*
X1112520D01*
Y914400D02*
Y939800D01*
X883920Y914400D02*
X1112520D01*
X298180Y1033440D02*
X313180D01*
X298180Y1126440D02*
X313180D01*
X298180Y1033440D02*
Y1126440D01*
X812800Y937640D02*
X838200D01*
X812800D02*
Y1064640D01*
X838200Y937640D02*
Y1064640D01*
X812800D02*
X838200D01*
X639850Y931170D02*
X642850D01*
X639850Y900170D02*
X642850D01*
X639850D02*
Y931170D01*
X642850Y900170D02*
Y931170D01*
X581390Y1000520D02*
X587390D01*
Y992520D02*
Y1000520D01*
X581390Y970520D02*
X587390D01*
Y978520D01*
X411210Y1000520D02*
X417210D01*
Y992520D02*
Y1000520D01*
X411210Y970520D02*
X417210D01*
Y978520D01*
X935820Y1152000D02*
X952690D01*
X935820Y1134000D02*
X952690D01*
Y1152000D01*
D15*
X1465310Y977200D02*
Y1156400D01*
X1273310Y976800D02*
X1280810D01*
X1273310D02*
Y1001800D01*
Y1131800D02*
Y1156800D01*
X1280810D01*
X1460810Y976800D02*
X1528310D01*
Y1156800D01*
X1460810D02*
X1528310D01*
X983690Y1075440D02*
Y1078940D01*
X913690Y1075440D02*
Y1078940D01*
X983690Y1008940D02*
Y1012440D01*
X913690Y1008940D02*
Y1012440D01*
X980190Y1078940D02*
X983690D01*
X913690D02*
X917190D01*
X980190Y1008940D02*
X983690D01*
X913690D02*
X917190D01*
X706160Y990250D02*
X708660Y994250D01*
X711160Y990250D01*
X706160D02*
X711160D01*
X704660D02*
Y994250D01*
X712660Y990250D02*
Y994250D01*
D16*
X1179830Y1061720D02*
Y1065530D01*
Y1061720D02*
X1217930D01*
Y1065530D01*
X1179830Y1165860D02*
Y1169670D01*
X1217930D01*
Y1165860D02*
Y1169670D01*
X980680Y1149110D02*
X995680D01*
X980680Y1119110D02*
Y1149110D01*
Y1119110D02*
X1010680D01*
Y1149110D01*
X995680D02*
X1010680D01*
X433324Y1241806D02*
Y1257041D01*
X440942D01*
X443481Y1254502D01*
Y1249424D01*
X440942Y1246884D01*
X433324D01*
X458716Y1257041D02*
X448559D01*
Y1249424D01*
X453637Y1251963D01*
X456177D01*
X458716Y1249424D01*
Y1244345D01*
X456177Y1241806D01*
X451098D01*
X448559Y1244345D01*
X1067816Y1244346D02*
Y1259581D01*
X1075434D01*
X1077973Y1257042D01*
Y1251964D01*
X1075434Y1249424D01*
X1067816D01*
X1083051Y1257042D02*
X1085590Y1259581D01*
X1090669D01*
X1093208Y1257042D01*
Y1254503D01*
X1090669Y1251964D01*
X1088129D01*
X1090669D01*
X1093208Y1249424D01*
Y1246885D01*
X1090669Y1244346D01*
X1085590D01*
X1083051Y1246885D01*
X1098286Y1241807D02*
X1108443D01*
X1113521Y1244346D02*
X1118600D01*
X1116060D01*
Y1259581D01*
X1113521Y1257042D01*
X981837Y1174872D02*
Y1162176D01*
X984376Y1159637D01*
X989454D01*
X991994Y1162176D01*
Y1174872D01*
X997072Y1172333D02*
X999611Y1174872D01*
X1004690D01*
X1007229Y1172333D01*
Y1169794D01*
X1004690Y1167254D01*
X1002150D01*
X1004690D01*
X1007229Y1164715D01*
Y1162176D01*
X1004690Y1159637D01*
X999611D01*
X997072Y1162176D01*
X620141Y959480D02*
Y946784D01*
X622680Y944245D01*
X627758D01*
X630298Y946784D01*
Y959480D01*
X645533Y944245D02*
X635376D01*
X645533Y954402D01*
Y956941D01*
X642994Y959480D01*
X637915D01*
X635376Y956941D01*
X1268222Y1199891D02*
Y1187195D01*
X1270761Y1184656D01*
X1275839D01*
X1278379Y1187195D01*
Y1199891D01*
X1283457Y1184656D02*
X1288535D01*
X1285996D01*
Y1199891D01*
X1283457Y1197352D01*
X506346Y1172587D02*
X503806Y1175126D01*
X498728D01*
X496189Y1172587D01*
Y1170048D01*
X498728Y1167508D01*
X503806D01*
X506346Y1164969D01*
Y1162430D01*
X503806Y1159891D01*
X498728D01*
X496189Y1162430D01*
X519042Y1159891D02*
Y1175126D01*
X511424Y1167508D01*
X521581D01*
X736216Y1172587D02*
X733677Y1175126D01*
X728598D01*
X726059Y1172587D01*
Y1170048D01*
X728598Y1167508D01*
X733677D01*
X736216Y1164969D01*
Y1162430D01*
X733677Y1159891D01*
X728598D01*
X726059Y1162430D01*
X741294Y1172587D02*
X743833Y1175126D01*
X748912D01*
X751451Y1172587D01*
Y1170048D01*
X748912Y1167508D01*
X746372D01*
X748912D01*
X751451Y1164969D01*
Y1162430D01*
X748912Y1159891D01*
X743833D01*
X741294Y1162430D01*
X660016Y1172587D02*
X657477Y1175126D01*
X652398D01*
X649859Y1172587D01*
Y1170048D01*
X652398Y1167508D01*
X657477D01*
X660016Y1164969D01*
Y1162430D01*
X657477Y1159891D01*
X652398D01*
X649859Y1162430D01*
X675251Y1159891D02*
X665094D01*
X675251Y1170048D01*
Y1172587D01*
X672712Y1175126D01*
X667633D01*
X665094Y1172587D01*
X582546D02*
X580006Y1175126D01*
X574928D01*
X572389Y1172587D01*
Y1170048D01*
X574928Y1167508D01*
X580006D01*
X582546Y1164969D01*
Y1162430D01*
X580006Y1159891D01*
X574928D01*
X572389Y1162430D01*
X587624Y1159891D02*
X592702D01*
X590163D01*
Y1175126D01*
X587624Y1172587D01*
X374269Y1160145D02*
Y1175380D01*
X381886D01*
X384426Y1172841D01*
Y1167763D01*
X381886Y1165223D01*
X374269D01*
X379347D02*
X384426Y1160145D01*
X389504D02*
X394582D01*
X392043D01*
Y1175380D01*
X389504Y1172841D01*
X412357Y1160145D02*
X402200D01*
X412357Y1170302D01*
Y1172841D01*
X409818Y1175380D01*
X404739D01*
X402200Y1172841D01*
X803275Y1159891D02*
Y1175126D01*
X810892D01*
X813432Y1172587D01*
Y1167508D01*
X810892Y1164969D01*
X803275D01*
X808353D02*
X813432Y1159891D01*
X818510D02*
X823588D01*
X821049D01*
Y1175126D01*
X818510Y1172587D01*
X831206Y1159891D02*
X836284D01*
X833745D01*
Y1175126D01*
X831206Y1172587D01*
X450469Y1014095D02*
Y1029330D01*
X458087D01*
X460626Y1026791D01*
Y1021712D01*
X458087Y1019173D01*
X450469D01*
X455547D02*
X460626Y1014095D01*
X465704D02*
X470782D01*
X468243D01*
Y1029330D01*
X465704Y1026791D01*
X478400D02*
X480939Y1029330D01*
X486017D01*
X488557Y1026791D01*
Y1016634D01*
X486017Y1014095D01*
X480939D01*
X478400Y1016634D01*
Y1026791D01*
X619125Y1013841D02*
Y1029076D01*
X626743D01*
X629282Y1026537D01*
Y1021459D01*
X626743Y1018919D01*
X619125D01*
X624203D02*
X629282Y1013841D01*
X634360Y1016380D02*
X636899Y1013841D01*
X641978D01*
X644517Y1016380D01*
Y1026537D01*
X641978Y1029076D01*
X636899D01*
X634360Y1026537D01*
Y1023998D01*
X636899Y1021459D01*
X644517D01*
X662305Y1013841D02*
Y1029076D01*
X669922D01*
X672462Y1026537D01*
Y1021459D01*
X669922Y1018919D01*
X662305D01*
X667383D02*
X672462Y1013841D01*
X677540Y1026537D02*
X680079Y1029076D01*
X685158D01*
X687697Y1026537D01*
Y1023998D01*
X685158Y1021459D01*
X687697Y1018919D01*
Y1016380D01*
X685158Y1013841D01*
X680079D01*
X677540Y1016380D01*
Y1018919D01*
X680079Y1021459D01*
X677540Y1023998D01*
Y1026537D01*
X680079Y1021459D02*
X685158D01*
X419735Y943991D02*
Y959226D01*
X427352D01*
X429892Y956687D01*
Y951609D01*
X427352Y949069D01*
X419735D01*
X424813D02*
X429892Y943991D01*
X434970Y959226D02*
X445127D01*
Y956687D01*
X434970Y946530D01*
Y943991D01*
X577215D02*
Y959226D01*
X584832D01*
X587372Y956687D01*
Y951609D01*
X584832Y949069D01*
X577215D01*
X582293D02*
X587372Y943991D01*
X602607Y959226D02*
X597528Y956687D01*
X592450Y951609D01*
Y946530D01*
X594989Y943991D01*
X600068D01*
X602607Y946530D01*
Y949069D01*
X600068Y951609D01*
X592450D01*
X534035Y943991D02*
Y959226D01*
X541652D01*
X544192Y956687D01*
Y951609D01*
X541652Y949069D01*
X534035D01*
X539113D02*
X544192Y943991D01*
X559427Y959226D02*
X549270D01*
Y951609D01*
X554348Y954148D01*
X556888D01*
X559427Y951609D01*
Y946530D01*
X556888Y943991D01*
X551809D01*
X549270Y946530D01*
X1020445Y990981D02*
Y1006216D01*
X1028063D01*
X1030602Y1003677D01*
Y998598D01*
X1028063Y996059D01*
X1020445D01*
X1025523D02*
X1030602Y990981D01*
X1043298D02*
Y1006216D01*
X1035680Y998598D01*
X1045837D01*
X1106805Y990981D02*
Y1006216D01*
X1114423D01*
X1116962Y1003677D01*
Y998598D01*
X1114423Y996059D01*
X1106805D01*
X1111883D02*
X1116962Y990981D01*
X1122040Y1003677D02*
X1124579Y1006216D01*
X1129658D01*
X1132197Y1003677D01*
Y1001138D01*
X1129658Y998598D01*
X1127118D01*
X1129658D01*
X1132197Y996059D01*
Y993520D01*
X1129658Y990981D01*
X1124579D01*
X1122040Y993520D01*
X1063625Y990981D02*
Y1006216D01*
X1071243D01*
X1073782Y1003677D01*
Y998598D01*
X1071243Y996059D01*
X1063625D01*
X1068703D02*
X1073782Y990981D01*
X1089017D02*
X1078860D01*
X1089017Y1001138D01*
Y1003677D01*
X1086478Y1006216D01*
X1081399D01*
X1078860Y1003677D01*
X1149985Y990981D02*
Y1006216D01*
X1157602D01*
X1160142Y1003677D01*
Y998598D01*
X1157602Y996059D01*
X1149985D01*
X1155063D02*
X1160142Y990981D01*
X1165220D02*
X1170298D01*
X1167759D01*
Y1006216D01*
X1165220Y1003677D01*
X398650Y1016126D02*
Y1026283D01*
X396110Y1028822D01*
X391032D01*
X388493Y1026283D01*
Y1016126D01*
X391032Y1013587D01*
X396110D01*
X393571Y1018665D02*
X398650Y1013587D01*
X396110D02*
X398650Y1016126D01*
X413885Y1013587D02*
X403728D01*
X413885Y1023744D01*
Y1026283D01*
X411346Y1028822D01*
X406267D01*
X403728Y1026283D01*
X568830Y1016126D02*
Y1026283D01*
X566291Y1028822D01*
X561212D01*
X558673Y1026283D01*
Y1016126D01*
X561212Y1013587D01*
X566291D01*
X563751Y1018665D02*
X568830Y1013587D01*
X566291D02*
X568830Y1016126D01*
X573908Y1013587D02*
X578986D01*
X576447D01*
Y1028822D01*
X573908Y1026283D01*
X814451Y1073149D02*
Y1088384D01*
X822068D01*
X824608Y1085845D01*
Y1080767D01*
X822068Y1078227D01*
X814451D01*
X839843Y1088384D02*
X834764Y1085845D01*
X829686Y1080767D01*
Y1075688D01*
X832225Y1073149D01*
X837304D01*
X839843Y1075688D01*
Y1078227D01*
X837304Y1080767D01*
X829686D01*
X885444Y948436D02*
Y963671D01*
X893062D01*
X895601Y961132D01*
Y956053D01*
X893062Y953514D01*
X885444D01*
X900679Y961132D02*
X903218Y963671D01*
X908297D01*
X910836Y961132D01*
Y958593D01*
X908297Y956053D01*
X905757D01*
X908297D01*
X910836Y953514D01*
Y950975D01*
X908297Y948436D01*
X903218D01*
X900679Y950975D01*
X309621Y1153341D02*
X304542D01*
X307082D01*
Y1140645D01*
X304542Y1138106D01*
X302003D01*
X299464Y1140645D01*
X314699Y1138106D02*
X319777D01*
X317238D01*
Y1153341D01*
X314699Y1150802D01*
X925195Y1175888D02*
Y1160653D01*
X932812D01*
X935352Y1163192D01*
Y1173349D01*
X932812Y1175888D01*
X925195D01*
X940430Y1160653D02*
X945508D01*
X942969D01*
Y1175888D01*
X940430Y1173349D01*
X440306Y1172841D02*
X437766Y1175380D01*
X432688D01*
X430149Y1172841D01*
Y1162684D01*
X432688Y1160145D01*
X437766D01*
X440306Y1162684D01*
X445384Y1160145D02*
X450462D01*
X447923D01*
Y1175380D01*
X445384Y1172841D01*
X468237Y1175380D02*
X458080D01*
Y1167763D01*
X463158Y1170302D01*
X465698D01*
X468237Y1167763D01*
Y1162684D01*
X465698Y1160145D01*
X460619D01*
X458080Y1162684D01*
X473315Y1160145D02*
X478393D01*
X475854D01*
Y1175380D01*
X473315Y1172841D01*
X864486D02*
X861946Y1175380D01*
X856868D01*
X854329Y1172841D01*
Y1162684D01*
X856868Y1160145D01*
X861946D01*
X864486Y1162684D01*
X869564Y1160145D02*
X874642D01*
X872103D01*
Y1175380D01*
X869564Y1172841D01*
X892417Y1175380D02*
X882260D01*
Y1167763D01*
X887338Y1170302D01*
X889877D01*
X892417Y1167763D01*
Y1162684D01*
X889877Y1160145D01*
X884799D01*
X882260Y1162684D01*
X897495Y1172841D02*
X900034Y1175380D01*
X905113D01*
X907652Y1172841D01*
Y1162684D01*
X905113Y1160145D01*
X900034D01*
X897495Y1162684D01*
Y1172841D01*
X715388Y1026537D02*
X712849Y1029076D01*
X707770D01*
X705231Y1026537D01*
Y1016380D01*
X707770Y1013841D01*
X712849D01*
X715388Y1016380D01*
X720466Y1013841D02*
X725544D01*
X723005D01*
Y1029076D01*
X720466Y1026537D01*
X740779Y1013841D02*
Y1029076D01*
X733162Y1021459D01*
X743319D01*
X748397Y1016380D02*
X750936Y1013841D01*
X756015D01*
X758554Y1016380D01*
Y1026537D01*
X756015Y1029076D01*
X750936D01*
X748397Y1026537D01*
Y1023998D01*
X750936Y1021459D01*
X758554D01*
X473326Y956941D02*
X470787Y959480D01*
X465708D01*
X463169Y956941D01*
Y946784D01*
X465708Y944245D01*
X470787D01*
X473326Y946784D01*
X478404Y944245D02*
X483482D01*
X480943D01*
Y959480D01*
X478404Y956941D01*
X498717Y944245D02*
Y959480D01*
X491100Y951862D01*
X501257D01*
X506335Y956941D02*
X508874Y959480D01*
X513953D01*
X516492Y956941D01*
Y954402D01*
X513953Y951862D01*
X516492Y949323D01*
Y946784D01*
X513953Y944245D01*
X508874D01*
X506335Y946784D01*
Y949323D01*
X508874Y951862D01*
X506335Y954402D01*
Y956941D01*
X508874Y951862D02*
X513953D01*
X1438526Y945511D02*
X1435986Y948050D01*
X1430908D01*
X1428369Y945511D01*
Y935354D01*
X1430908Y932815D01*
X1435986D01*
X1438526Y935354D01*
X1443604Y932815D02*
X1448682D01*
X1446143D01*
Y948050D01*
X1443604Y945511D01*
X1463918Y932815D02*
Y948050D01*
X1456300Y940433D01*
X1466457D01*
X1471535Y948050D02*
X1481692D01*
Y945511D01*
X1471535Y935354D01*
Y932815D01*
X1367406Y945511D02*
X1364866Y948050D01*
X1359788D01*
X1357249Y945511D01*
Y935354D01*
X1359788Y932815D01*
X1364866D01*
X1367406Y935354D01*
X1372484Y932815D02*
X1377562D01*
X1375023D01*
Y948050D01*
X1372484Y945511D01*
X1392798Y932815D02*
Y948050D01*
X1385180Y940433D01*
X1395337D01*
X1410572Y948050D02*
X1405493Y945511D01*
X1400415Y940433D01*
Y935354D01*
X1402954Y932815D01*
X1408033D01*
X1410572Y935354D01*
Y937893D01*
X1408033Y940433D01*
X1400415D01*
X1296286Y945511D02*
X1293746Y948050D01*
X1288668D01*
X1286129Y945511D01*
Y935354D01*
X1288668Y932815D01*
X1293746D01*
X1296286Y935354D01*
X1301364Y932815D02*
X1306442D01*
X1303903D01*
Y948050D01*
X1301364Y945511D01*
X1321678Y932815D02*
Y948050D01*
X1314060Y940433D01*
X1324217D01*
X1339452Y948050D02*
X1329295D01*
Y940433D01*
X1334373Y942972D01*
X1336913D01*
X1339452Y940433D01*
Y935354D01*
X1336913Y932815D01*
X1331834D01*
X1329295Y935354D01*
X1155570Y1153287D02*
X1145413D01*
X1155570Y1163444D01*
Y1165983D01*
X1153030Y1168522D01*
X1147952D01*
X1145413Y1165983D01*
X894715Y1067689D02*
X899793D01*
X897254D01*
Y1082924D01*
X894715Y1080385D01*
X326500Y1245220D02*
G03*
X296500Y1215220I0J-30000D01*
G01*
X1556500D02*
G03*
X1526500Y1245220I-30000J0D01*
G01*
Y885220D02*
G03*
X1556500Y915220I0J30000D01*
G01*
X296500D02*
G03*
X326500Y885220I30000J0D01*
G01*
X296500Y915220D02*
Y1215220D01*
X326500Y1244970D02*
X1526500D01*
X326500Y885220D02*
X1526500D01*
X1556500Y915220D02*
Y1215220D01*
D17*
X950150Y1143000D02*
D03*
M02*
