M48
;Layer_Color=9474304
;FILE_FORMAT=4:4
METRIC,LZ
;TYPE=PLATED
T1F00S00C0.1000
T4F00S00C0.9000
T5F00S00C3.0000
%
T01
X0033031Y0103769
X0033955
Y0112219
X0033031
T04
X008255Y0095034
Y0097574
Y0100114
Y0102654
Y0105194
X0089662Y009271
X0092202
X0094742
X0097282
X0099822
X0102362
X0104902
X0107442
X0109982
X012061Y0122047
X012315
X012569
X012823
X013077
X013331
X013585
X013839
X014093
X011807
X011553
X011299
X011045
X010791
X010541Y0122047
X010287
X010033
X009779
X009525
X009271
X009017
X008763
X008509
X008255
X008001
X007747
X007493
X007239
X006985
X006731
X006477
X006223
X005969
X005715
X005461
X005207
X004953
X004699
X004445
T05
X003265Y0091522
X015265
Y0121522
X003265
M30
