G04*
G04 #@! TF.GenerationSoftware,Altium Limited,Altium Designer,18.1.9 (240)*
G04*
G04 Layer_Color=128*
%FSLAX44Y44*%
%MOMM*%
G71*
G01*
G75*
%ADD18R,0.9000X0.8000*%
%ADD23R,0.8000X0.9000*%
%ADD80R,2.5000X1.4250*%
%ADD81R,1.7500X0.4000*%
%ADD82R,1.3500X1.3500*%
%ADD83R,0.2200X0.8400*%
%ADD84R,0.8400X0.2200*%
%ADD85R,4.9500X4.9500*%
%ADD86R,1.6000X0.8000*%
%ADD87R,3.0000X2.1000*%
%ADD88R,0.8000X0.8000*%
%ADD89R,1.3000X1.5499*%
G36*
X1527000Y1166375D02*
X1548020D01*
X1548261Y1166362D01*
X1548501Y1166337D01*
X1548739Y1166300D01*
X1548974Y1166249D01*
X1549207Y1166187D01*
X1549436Y1166113D01*
X1549661Y1166026D01*
X1549881Y1165928D01*
X1550096Y1165819D01*
X1550304Y1165698D01*
X1550506Y1165567D01*
X1550701Y1165426D01*
X1550889Y1165274D01*
X1551068Y1165113D01*
X1551238Y1164942D01*
X1551399Y1164763D01*
X1551551Y1164576D01*
X1551692Y1164381D01*
X1551823Y1164179D01*
X1551944Y1163971D01*
X1552053Y1163756D01*
X1552151Y1163536D01*
X1552238Y1163311D01*
X1552312Y1163082D01*
X1552374Y1162849D01*
X1552424Y1162614D01*
X1552462Y1162376D01*
X1552487Y1162136D01*
X1552500Y1161895D01*
Y1161775D01*
Y1161725D01*
Y1157825D01*
Y1157775D01*
Y1157660D01*
X1552488Y1157430D01*
X1552464Y1157200D01*
X1552428Y1156973D01*
X1552380Y1156748D01*
X1552320Y1156525D01*
X1552249Y1156306D01*
X1552166Y1156091D01*
X1552073Y1155880D01*
X1551968Y1155675D01*
X1551853Y1155475D01*
X1551727Y1155282D01*
X1551592Y1155096D01*
X1551447Y1154916D01*
X1551293Y1154745D01*
X1551130Y1154582D01*
X1550959Y1154428D01*
X1550779Y1154283D01*
X1550593Y1154148D01*
X1550400Y1154022D01*
X1550200Y1153907D01*
X1549995Y1153802D01*
X1549784Y1153708D01*
X1549569Y1153626D01*
X1549350Y1153555D01*
X1549128Y1153495D01*
X1548902Y1153447D01*
X1548674Y1153411D01*
X1548445Y1153387D01*
X1548215Y1153375D01*
X1520000D01*
Y1171625D01*
X1527000D01*
Y1166375D01*
D02*
G37*
G36*
X1517500Y1151625D02*
X1502900D01*
Y1171625D01*
X1517500D01*
Y1151625D01*
D02*
G37*
G36*
X1115850Y1122500D02*
X1097450D01*
Y1140900D01*
X1115850D01*
Y1122500D01*
D02*
G37*
G36*
X1091050D02*
X1072650D01*
Y1140900D01*
X1091050D01*
Y1122500D01*
D02*
G37*
G36*
X1548677Y1111883D02*
X1548894Y1111860D01*
X1549110Y1111826D01*
X1549324Y1111780D01*
X1549534Y1111724D01*
X1549742Y1111656D01*
X1549946Y1111578D01*
X1550146Y1111489D01*
X1550340Y1111390D01*
X1550529Y1111281D01*
X1550712Y1111162D01*
X1550889Y1111034D01*
X1551059Y1110896D01*
X1551221Y1110750D01*
X1551375Y1110596D01*
X1551521Y1110434D01*
X1551659Y1110264D01*
X1551787Y1110087D01*
X1551906Y1109904D01*
X1552015Y1109715D01*
X1552114Y1109520D01*
X1552203Y1109321D01*
X1552281Y1109117D01*
X1552349Y1108910D01*
X1552405Y1108699D01*
X1552451Y1108485D01*
X1552485Y1108269D01*
X1552500Y1108125D01*
Y1103275D01*
X1552500Y1103135D01*
X1552488Y1102907D01*
X1552464Y1102679D01*
X1552428Y1102452D01*
X1552381Y1102228D01*
X1552321Y1102007D01*
X1552251Y1101789D01*
X1552168Y1101575D01*
X1552075Y1101366D01*
X1551971Y1101162D01*
X1551857Y1100963D01*
X1551732Y1100771D01*
X1551597Y1100586D01*
X1551453Y1100408D01*
X1551300Y1100237D01*
X1551138Y1100075D01*
X1550967Y1099922D01*
X1550789Y1099778D01*
X1550604Y1099643D01*
X1550412Y1099518D01*
X1550213Y1099404D01*
X1550009Y1099300D01*
X1549800Y1099207D01*
X1549586Y1099125D01*
X1549368Y1099054D01*
X1549147Y1098994D01*
X1548922Y1098947D01*
X1548696Y1098911D01*
X1548468Y1098887D01*
X1548239Y1098875D01*
X1548150Y1098875D01*
X1527000D01*
Y1093625D01*
X1520000D01*
Y1111875D01*
X1547950D01*
X1548023Y1111883D01*
X1548241Y1111894D01*
X1548459D01*
X1548677Y1111883D01*
D02*
G37*
G36*
X1115850Y1097700D02*
X1097450D01*
Y1116100D01*
X1115850D01*
Y1097700D01*
D02*
G37*
G36*
X1091050D02*
X1072650D01*
Y1116100D01*
X1091050D01*
Y1097700D01*
D02*
G37*
G36*
X1517500Y1093625D02*
X1502900D01*
Y1113625D01*
X1517500D01*
Y1093625D01*
D02*
G37*
%LPC*%
G36*
X1543092Y1163375D02*
X1537908D01*
X1537725Y1163365D01*
X1537543Y1163346D01*
X1537362Y1163318D01*
X1537183Y1163279D01*
X1537006Y1163232D01*
X1536831Y1163175D01*
X1536660Y1163110D01*
X1536493Y1163035D01*
X1536329Y1162952D01*
X1536171Y1162860D01*
X1536017Y1162760D01*
X1535869Y1162653D01*
X1535726Y1162537D01*
X1535590Y1162415D01*
X1535460Y1162285D01*
X1535338Y1162149D01*
X1535222Y1162006D01*
X1535115Y1161858D01*
X1535015Y1161704D01*
X1534923Y1161546D01*
X1534840Y1161382D01*
X1534765Y1161215D01*
X1534700Y1161044D01*
X1534643Y1160869D01*
X1534595Y1160692D01*
X1534557Y1160513D01*
X1534529Y1160332D01*
X1534510Y1160150D01*
X1534500Y1159967D01*
Y1159875D01*
Y1159783D01*
X1534510Y1159600D01*
X1534529Y1159418D01*
X1534557Y1159237D01*
X1534595Y1159058D01*
X1534643Y1158881D01*
X1534700Y1158706D01*
X1534765Y1158535D01*
X1534840Y1158368D01*
X1534923Y1158204D01*
X1535015Y1158046D01*
X1535115Y1157892D01*
X1535222Y1157744D01*
X1535338Y1157601D01*
X1535460Y1157465D01*
X1535590Y1157335D01*
X1535726Y1157213D01*
X1535869Y1157097D01*
X1536017Y1156990D01*
X1536171Y1156890D01*
X1536329Y1156798D01*
X1536493Y1156715D01*
X1536660Y1156640D01*
X1536831Y1156575D01*
X1537006Y1156518D01*
X1537183Y1156470D01*
X1537362Y1156432D01*
X1537543Y1156404D01*
X1537725Y1156385D01*
X1537908Y1156375D01*
X1543092D01*
X1543275Y1156385D01*
X1543457Y1156404D01*
X1543638Y1156432D01*
X1543817Y1156470D01*
X1543994Y1156518D01*
X1544169Y1156575D01*
X1544340Y1156640D01*
X1544507Y1156715D01*
X1544671Y1156798D01*
X1544829Y1156890D01*
X1544983Y1156990D01*
X1545131Y1157097D01*
X1545274Y1157213D01*
X1545410Y1157335D01*
X1545540Y1157465D01*
X1545662Y1157601D01*
X1545778Y1157744D01*
X1545885Y1157892D01*
X1545985Y1158046D01*
X1546077Y1158204D01*
X1546160Y1158368D01*
X1546235Y1158535D01*
X1546300Y1158706D01*
X1546357Y1158881D01*
X1546405Y1159058D01*
X1546443Y1159237D01*
X1546471Y1159418D01*
X1546490Y1159600D01*
X1546500Y1159783D01*
Y1159875D01*
Y1159967D01*
X1546490Y1160150D01*
X1546471Y1160332D01*
X1546443Y1160513D01*
X1546405Y1160692D01*
X1546357Y1160869D01*
X1546300Y1161044D01*
X1546235Y1161215D01*
X1546160Y1161382D01*
X1546077Y1161546D01*
X1545985Y1161704D01*
X1545885Y1161858D01*
X1545778Y1162006D01*
X1545662Y1162149D01*
X1545540Y1162285D01*
X1545410Y1162415D01*
X1545274Y1162537D01*
X1545131Y1162653D01*
X1544983Y1162760D01*
X1544829Y1162860D01*
X1544671Y1162952D01*
X1544507Y1163035D01*
X1544340Y1163110D01*
X1544169Y1163175D01*
X1543994Y1163232D01*
X1543817Y1163279D01*
X1543638Y1163318D01*
X1543457Y1163346D01*
X1543275Y1163365D01*
X1543092Y1163375D01*
D02*
G37*
G36*
X1512285Y1160125D02*
X1508115D01*
X1507945Y1160116D01*
X1507776Y1160098D01*
X1507608Y1160072D01*
X1507441Y1160036D01*
X1507277Y1159992D01*
X1507115Y1159940D01*
X1506956Y1159879D01*
X1506800Y1159809D01*
X1506649Y1159732D01*
X1506501Y1159647D01*
X1506358Y1159554D01*
X1506221Y1159454D01*
X1506089Y1159347D01*
X1505962Y1159233D01*
X1505842Y1159113D01*
X1505728Y1158986D01*
X1505621Y1158854D01*
X1505521Y1158716D01*
X1505428Y1158574D01*
X1505343Y1158426D01*
X1505266Y1158275D01*
X1505196Y1158119D01*
X1505135Y1157960D01*
X1505083Y1157798D01*
X1505039Y1157634D01*
X1505003Y1157467D01*
X1504977Y1157299D01*
X1504959Y1157130D01*
X1504950Y1156960D01*
Y1156875D01*
Y1156790D01*
X1504959Y1156620D01*
X1504977Y1156451D01*
X1505003Y1156283D01*
X1505039Y1156116D01*
X1505083Y1155952D01*
X1505135Y1155790D01*
X1505196Y1155631D01*
X1505266Y1155475D01*
X1505343Y1155324D01*
X1505428Y1155176D01*
X1505521Y1155033D01*
X1505621Y1154896D01*
X1505728Y1154764D01*
X1505842Y1154637D01*
X1505962Y1154517D01*
X1506089Y1154403D01*
X1506221Y1154296D01*
X1506359Y1154196D01*
X1506501Y1154103D01*
X1506649Y1154018D01*
X1506800Y1153941D01*
X1506956Y1153871D01*
X1507115Y1153810D01*
X1507277Y1153758D01*
X1507441Y1153714D01*
X1507608Y1153678D01*
X1507776Y1153652D01*
X1507945Y1153634D01*
X1508115Y1153625D01*
X1512285D01*
X1512455Y1153634D01*
X1512624Y1153652D01*
X1512792Y1153678D01*
X1512959Y1153714D01*
X1513123Y1153758D01*
X1513285Y1153810D01*
X1513444Y1153871D01*
X1513600Y1153941D01*
X1513751Y1154018D01*
X1513899Y1154103D01*
X1514041Y1154196D01*
X1514179Y1154296D01*
X1514311Y1154403D01*
X1514438Y1154517D01*
X1514558Y1154637D01*
X1514672Y1154764D01*
X1514779Y1154896D01*
X1514879Y1155033D01*
X1514972Y1155176D01*
X1515057Y1155324D01*
X1515134Y1155475D01*
X1515204Y1155631D01*
X1515265Y1155790D01*
X1515317Y1155952D01*
X1515361Y1156116D01*
X1515397Y1156283D01*
X1515423Y1156451D01*
X1515441Y1156620D01*
X1515450Y1156790D01*
Y1156875D01*
Y1156960D01*
X1515441Y1157130D01*
X1515423Y1157299D01*
X1515397Y1157467D01*
X1515361Y1157634D01*
X1515317Y1157798D01*
X1515265Y1157960D01*
X1515204Y1158119D01*
X1515134Y1158275D01*
X1515057Y1158426D01*
X1514972Y1158574D01*
X1514879Y1158716D01*
X1514779Y1158854D01*
X1514672Y1158986D01*
X1514558Y1159113D01*
X1514438Y1159233D01*
X1514311Y1159347D01*
X1514179Y1159454D01*
X1514041Y1159554D01*
X1513899Y1159647D01*
X1513751Y1159732D01*
X1513600Y1159809D01*
X1513444Y1159879D01*
X1513285Y1159940D01*
X1513123Y1159992D01*
X1512959Y1160036D01*
X1512793Y1160072D01*
X1512624Y1160098D01*
X1512455Y1160116D01*
X1512285Y1160125D01*
D02*
G37*
G36*
X1543142Y1108875D02*
X1537908D01*
X1537725Y1108865D01*
X1537543Y1108846D01*
X1537362Y1108818D01*
X1537183Y1108780D01*
X1537006Y1108732D01*
X1536831Y1108675D01*
X1536660Y1108610D01*
X1536493Y1108535D01*
X1536329Y1108452D01*
X1536171Y1108360D01*
X1536017Y1108260D01*
X1535869Y1108153D01*
X1535726Y1108037D01*
X1535590Y1107915D01*
X1535460Y1107785D01*
X1535338Y1107649D01*
X1535222Y1107506D01*
X1535115Y1107358D01*
X1535015Y1107204D01*
X1534923Y1107046D01*
X1534840Y1106882D01*
X1534765Y1106715D01*
X1534700Y1106544D01*
X1534643Y1106369D01*
X1534595Y1106192D01*
X1534557Y1106013D01*
X1534529Y1105832D01*
X1534510Y1105650D01*
X1534500Y1105467D01*
Y1105375D01*
Y1105283D01*
X1534510Y1105100D01*
X1534529Y1104918D01*
X1534557Y1104737D01*
X1534595Y1104558D01*
X1534643Y1104381D01*
X1534700Y1104206D01*
X1534765Y1104035D01*
X1534840Y1103868D01*
X1534923Y1103704D01*
X1535015Y1103546D01*
X1535115Y1103392D01*
X1535222Y1103244D01*
X1535338Y1103101D01*
X1535460Y1102965D01*
X1535590Y1102835D01*
X1535726Y1102713D01*
X1535869Y1102597D01*
X1536017Y1102490D01*
X1536171Y1102390D01*
X1536329Y1102298D01*
X1536493Y1102215D01*
X1536660Y1102140D01*
X1536831Y1102075D01*
X1537006Y1102018D01*
X1537183Y1101971D01*
X1537362Y1101932D01*
X1537543Y1101904D01*
X1537725Y1101885D01*
X1537908Y1101875D01*
X1543142D01*
X1543325Y1101885D01*
X1543507Y1101904D01*
X1543688Y1101932D01*
X1543867Y1101971D01*
X1544044Y1102018D01*
X1544219Y1102075D01*
X1544390Y1102140D01*
X1544557Y1102215D01*
X1544721Y1102298D01*
X1544879Y1102390D01*
X1545033Y1102490D01*
X1545181Y1102597D01*
X1545324Y1102713D01*
X1545460Y1102835D01*
X1545590Y1102965D01*
X1545712Y1103101D01*
X1545828Y1103244D01*
X1545935Y1103392D01*
X1546035Y1103546D01*
X1546127Y1103704D01*
X1546210Y1103868D01*
X1546285Y1104035D01*
X1546350Y1104206D01*
X1546407Y1104381D01*
X1546454Y1104558D01*
X1546493Y1104737D01*
X1546521Y1104918D01*
X1546540Y1105100D01*
X1546550Y1105283D01*
Y1105375D01*
Y1105467D01*
X1546540Y1105650D01*
X1546521Y1105832D01*
X1546493Y1106013D01*
X1546454Y1106192D01*
X1546407Y1106369D01*
X1546350Y1106544D01*
X1546285Y1106715D01*
X1546210Y1106882D01*
X1546127Y1107046D01*
X1546035Y1107204D01*
X1545935Y1107358D01*
X1545828Y1107506D01*
X1545712Y1107649D01*
X1545590Y1107785D01*
X1545460Y1107915D01*
X1545324Y1108037D01*
X1545181Y1108153D01*
X1545033Y1108260D01*
X1544879Y1108360D01*
X1544721Y1108452D01*
X1544557Y1108535D01*
X1544390Y1108610D01*
X1544219Y1108675D01*
X1544044Y1108732D01*
X1543867Y1108780D01*
X1543688Y1108818D01*
X1543507Y1108846D01*
X1543325Y1108865D01*
X1543142Y1108875D01*
D02*
G37*
G36*
X1512285Y1111625D02*
X1508115D01*
X1507945Y1111616D01*
X1507776Y1111598D01*
X1507608Y1111572D01*
X1507441Y1111536D01*
X1507277Y1111492D01*
X1507115Y1111440D01*
X1506956Y1111379D01*
X1506800Y1111309D01*
X1506649Y1111232D01*
X1506501Y1111147D01*
X1506359Y1111054D01*
X1506221Y1110954D01*
X1506089Y1110847D01*
X1505962Y1110733D01*
X1505842Y1110613D01*
X1505728Y1110486D01*
X1505621Y1110354D01*
X1505521Y1110217D01*
X1505428Y1110074D01*
X1505343Y1109926D01*
X1505266Y1109775D01*
X1505196Y1109619D01*
X1505135Y1109460D01*
X1505083Y1109298D01*
X1505039Y1109134D01*
X1505003Y1108968D01*
X1504977Y1108799D01*
X1504959Y1108630D01*
X1504950Y1108460D01*
Y1108375D01*
Y1108290D01*
X1504959Y1108120D01*
X1504977Y1107951D01*
X1505003Y1107783D01*
X1505039Y1107616D01*
X1505083Y1107452D01*
X1505135Y1107290D01*
X1505196Y1107131D01*
X1505266Y1106975D01*
X1505343Y1106824D01*
X1505428Y1106676D01*
X1505521Y1106534D01*
X1505621Y1106396D01*
X1505728Y1106264D01*
X1505842Y1106137D01*
X1505962Y1106017D01*
X1506089Y1105903D01*
X1506221Y1105796D01*
X1506358Y1105696D01*
X1506501Y1105603D01*
X1506649Y1105518D01*
X1506800Y1105441D01*
X1506956Y1105371D01*
X1507115Y1105310D01*
X1507277Y1105258D01*
X1507441Y1105214D01*
X1507608Y1105178D01*
X1507776Y1105152D01*
X1507945Y1105134D01*
X1508115Y1105125D01*
X1512285D01*
X1512455Y1105134D01*
X1512624Y1105152D01*
X1512793Y1105178D01*
X1512959Y1105214D01*
X1513123Y1105258D01*
X1513285Y1105310D01*
X1513444Y1105371D01*
X1513600Y1105441D01*
X1513751Y1105518D01*
X1513899Y1105603D01*
X1514041Y1105696D01*
X1514179Y1105796D01*
X1514311Y1105903D01*
X1514438Y1106017D01*
X1514558Y1106137D01*
X1514672Y1106264D01*
X1514779Y1106396D01*
X1514879Y1106534D01*
X1514972Y1106676D01*
X1515057Y1106824D01*
X1515134Y1106975D01*
X1515204Y1107131D01*
X1515265Y1107290D01*
X1515317Y1107452D01*
X1515361Y1107616D01*
X1515397Y1107783D01*
X1515423Y1107951D01*
X1515441Y1108120D01*
X1515450Y1108290D01*
Y1108375D01*
Y1108460D01*
X1515441Y1108630D01*
X1515423Y1108799D01*
X1515397Y1108968D01*
X1515361Y1109134D01*
X1515317Y1109298D01*
X1515265Y1109460D01*
X1515204Y1109619D01*
X1515134Y1109775D01*
X1515057Y1109926D01*
X1514972Y1110074D01*
X1514879Y1110217D01*
X1514779Y1110354D01*
X1514672Y1110486D01*
X1514558Y1110613D01*
X1514438Y1110733D01*
X1514311Y1110847D01*
X1514179Y1110954D01*
X1514041Y1111054D01*
X1513899Y1111147D01*
X1513751Y1111232D01*
X1513600Y1111309D01*
X1513444Y1111379D01*
X1513285Y1111440D01*
X1513123Y1111492D01*
X1512959Y1111536D01*
X1512792Y1111572D01*
X1512624Y1111598D01*
X1512455Y1111616D01*
X1512285Y1111625D01*
D02*
G37*
%LPD*%
D18*
X1137500Y1075750D02*
D03*
Y1061750D02*
D03*
X1155250Y1076000D02*
D03*
Y1062000D02*
D03*
D23*
X851250Y955750D02*
D03*
X837250D02*
D03*
X851250Y994000D02*
D03*
X837250D02*
D03*
X851250Y974500D02*
D03*
X837250D02*
D03*
X851250Y937500D02*
D03*
X837250D02*
D03*
X1495250Y1067500D02*
D03*
X1509250D02*
D03*
X1509250Y1052000D02*
D03*
X1495250D02*
D03*
D80*
X1543000Y1123000D02*
D03*
Y1142250D02*
D03*
D81*
X1512250Y1119625D02*
D03*
Y1126125D02*
D03*
Y1132625D02*
D03*
Y1139125D02*
D03*
Y1145625D02*
D03*
D82*
X1456250Y1210500D02*
D03*
Y1163500D02*
D03*
D83*
X1122250Y1084850D02*
D03*
X1118250D02*
D03*
X1114250D02*
D03*
X1110250D02*
D03*
X1106250D02*
D03*
X1102250D02*
D03*
X1098250D02*
D03*
X1094250D02*
D03*
X1090250D02*
D03*
X1086250D02*
D03*
X1082250D02*
D03*
X1078250D02*
D03*
X1074250D02*
D03*
X1070250D02*
D03*
X1066250D02*
D03*
Y1153750D02*
D03*
X1070250D02*
D03*
X1074250D02*
D03*
X1078250D02*
D03*
X1082250D02*
D03*
X1086250D02*
D03*
X1090250D02*
D03*
X1094250D02*
D03*
X1098250D02*
D03*
X1102250D02*
D03*
X1106250D02*
D03*
X1110250D02*
D03*
X1114250D02*
D03*
X1118250D02*
D03*
X1122250D02*
D03*
D84*
X1128700Y1147300D02*
D03*
Y1143300D02*
D03*
Y1139300D02*
D03*
Y1135300D02*
D03*
Y1131300D02*
D03*
Y1127300D02*
D03*
Y1123300D02*
D03*
Y1119300D02*
D03*
Y1115300D02*
D03*
Y1111300D02*
D03*
Y1107300D02*
D03*
Y1103300D02*
D03*
Y1099300D02*
D03*
Y1095300D02*
D03*
Y1091300D02*
D03*
X1059800D02*
D03*
Y1095300D02*
D03*
Y1099300D02*
D03*
Y1103300D02*
D03*
Y1107300D02*
D03*
Y1111300D02*
D03*
Y1115300D02*
D03*
Y1119300D02*
D03*
Y1123300D02*
D03*
Y1127300D02*
D03*
Y1131300D02*
D03*
Y1135300D02*
D03*
Y1139300D02*
D03*
Y1143300D02*
D03*
Y1147300D02*
D03*
D85*
X1094250Y1119300D02*
D03*
D86*
X1505500Y998250D02*
D03*
Y985750D02*
D03*
D87*
X1534500Y1023750D02*
D03*
Y960250D02*
D03*
D88*
X1542620Y1068000D02*
D03*
X1526620D02*
D03*
X1542620Y1052000D02*
D03*
X1526620D02*
D03*
X795230Y955500D02*
D03*
X811230D02*
D03*
X795230Y974500D02*
D03*
X811230D02*
D03*
X795230Y937250D02*
D03*
X811230D02*
D03*
X795130Y994000D02*
D03*
X811130D02*
D03*
D89*
X442499Y927799D02*
D03*
Y1007301D02*
D03*
X397501Y927799D02*
D03*
Y1007301D02*
D03*
X737499Y927799D02*
D03*
Y1007301D02*
D03*
X692501Y927799D02*
D03*
Y1007301D02*
D03*
X589999Y927799D02*
D03*
Y1007301D02*
D03*
X545001Y927799D02*
D03*
Y1007301D02*
D03*
M02*
