G04*
G04 #@! TF.GenerationSoftware,Altium Limited,Altium Designer,18.1.9 (240)*
G04*
G04 Layer_Physical_Order=1*
G04 Layer_Color=255*
%FSLAX44Y44*%
%MOMM*%
G71*
G01*
G75*
%ADD11C,0.2500*%
%ADD15C,0.1270*%
%ADD18R,0.9000X0.8000*%
%ADD19R,2.5000X1.5000*%
%ADD20R,3.2500X4.0000*%
%ADD21R,2.6000X1.5000*%
%ADD22R,0.4500X0.6000*%
%ADD23R,0.8000X0.9000*%
%ADD24R,0.6000X1.6000*%
%ADD25R,1.5240X0.6350*%
%ADD26R,1.2190X0.9140*%
%ADD27R,1.0500X0.6000*%
%ADD28R,1.3000X0.7000*%
%ADD29R,2.0000X0.9000*%
%ADD30R,0.9000X2.0000*%
%ADD31R,5.0000X5.0000*%
%ADD32R,2.0000X0.8001*%
%ADD33R,0.8001X1.0000*%
%ADD34R,0.8001X0.8999*%
G04:AMPARAMS|DCode=63|XSize=2mm|YSize=2mm|CornerRadius=1mm|HoleSize=0mm|Usage=FLASHONLY|Rotation=90.000|XOffset=0mm|YOffset=0mm|HoleType=Round|Shape=RoundedRectangle|*
%AMROUNDEDRECTD63*
21,1,2.0000,0.0000,0,0,90.0*
21,1,0.0000,2.0000,0,0,90.0*
1,1,2.0000,0.0000,0.0000*
1,1,2.0000,0.0000,0.0000*
1,1,2.0000,0.0000,0.0000*
1,1,2.0000,0.0000,0.0000*
%
%ADD63ROUNDEDRECTD63*%
G04:AMPARAMS|DCode=64|XSize=2mm|YSize=2mm|CornerRadius=1mm|HoleSize=0mm|Usage=FLASHONLY|Rotation=0.000|XOffset=0mm|YOffset=0mm|HoleType=Round|Shape=RoundedRectangle|*
%AMROUNDEDRECTD64*
21,1,2.0000,0.0000,0,0,0.0*
21,1,0.0000,2.0000,0,0,0.0*
1,1,2.0000,0.0000,0.0000*
1,1,2.0000,0.0000,0.0000*
1,1,2.0000,0.0000,0.0000*
1,1,2.0000,0.0000,0.0000*
%
%ADD64ROUNDEDRECTD64*%
%ADD65C,0.5000*%
%ADD66C,0.1250*%
%ADD67C,0.1000*%
%ADD68R,3.0000X4.0000*%
%ADD69R,5.0250X1.6628*%
%ADD70R,5.0071X2.3200*%
%ADD71R,1.3000X1.3000*%
%ADD72R,1.0500X1.0500*%
%ADD73C,1.5000*%
%ADD74R,1.5000X1.5000*%
%ADD75R,1.5000X1.5000*%
%ADD76C,0.8001*%
%ADD77C,0.5000*%
%ADD78C,0.4500*%
%ADD79C,3.0000*%
G36*
X326274Y1246494D02*
X1529000Y1246494D01*
X1529000Y1246494D01*
X1529000Y1246494D01*
X1531075Y1246292D01*
X1535138Y1245349D01*
X1539043Y1243883D01*
X1542723Y1241921D01*
X1546116Y1239495D01*
X1549163Y1236647D01*
X1551812Y1233426D01*
X1554018Y1229886D01*
X1555743Y1226089D01*
X1556958Y1222099D01*
X1557641Y1217985D01*
X1557782Y1213817D01*
X1557580Y1211741D01*
X1557774Y912500D01*
X1557774Y912500D01*
X1557554Y910424D01*
X1556577Y906364D01*
X1555078Y902467D01*
X1553083Y898798D01*
X1550626Y895422D01*
X1547750Y892394D01*
X1544503Y889769D01*
X1540941Y887589D01*
X1537125Y885893D01*
X1533121Y884710D01*
X1528996Y884059D01*
X1524822Y883953D01*
X1522746Y884172D01*
X326273D01*
X324257Y884172D01*
X320257Y884699D01*
X316360Y885743D01*
X312633Y887287D01*
X309140Y889304D01*
X305940Y891759D01*
X303087Y894612D01*
X300631Y897812D01*
X298614Y901306D01*
X297071Y905033D01*
X296026Y908930D01*
X295500Y912929D01*
X295500Y914946D01*
Y986025D01*
X295500Y987250D01*
X295500Y987250D01*
X295499Y987253D01*
X295490Y987347D01*
X295416Y987527D01*
X295416Y987528D01*
X295336Y987607D01*
X294996Y988346D01*
X294500Y1074750D01*
X294569Y1094270D01*
X294726Y1095475D01*
X295844Y1095475D01*
X305775D01*
Y1108523D01*
X295890D01*
X294625Y1109752D01*
X294841Y1170477D01*
X305775D01*
Y1183525D01*
X295787D01*
X294890Y1184424D01*
X295000Y1215220D01*
X295000Y1215220D01*
X295000Y1217270D01*
X295535Y1221334D01*
X296596Y1225294D01*
X298165Y1229082D01*
X300214Y1232632D01*
X302710Y1235885D01*
X305609Y1238784D01*
X308862Y1241279D01*
X312412Y1243329D01*
X316199Y1244898D01*
X320159Y1245959D01*
X324224Y1246494D01*
X326274Y1246494D01*
D02*
G37*
%LPC*%
G36*
X453524Y1229494D02*
X435476D01*
Y1211446D01*
X453524D01*
Y1229494D01*
D02*
G37*
G36*
X1088124Y1229494D02*
X1070076D01*
Y1211446D01*
X1088124D01*
Y1229494D01*
D02*
G37*
G36*
X1054100Y1229572D02*
X1051744Y1229262D01*
X1049549Y1228352D01*
X1047664Y1226906D01*
X1046218Y1225021D01*
X1045308Y1222826D01*
X1044998Y1220470D01*
X1045308Y1218114D01*
X1046218Y1215919D01*
X1047664Y1214034D01*
X1049549Y1212588D01*
X1051744Y1211678D01*
X1054100Y1211368D01*
X1056456Y1211678D01*
X1058651Y1212588D01*
X1060536Y1214034D01*
X1061982Y1215919D01*
X1062892Y1218114D01*
X1063202Y1220470D01*
X1062892Y1222826D01*
X1061982Y1225021D01*
X1060536Y1226906D01*
X1058651Y1228352D01*
X1056456Y1229262D01*
X1054100Y1229572D01*
D02*
G37*
G36*
X1028700D02*
X1026344Y1229262D01*
X1024149Y1228352D01*
X1022264Y1226906D01*
X1020818Y1225021D01*
X1019908Y1222826D01*
X1019598Y1220470D01*
X1019908Y1218114D01*
X1020818Y1215919D01*
X1022264Y1214034D01*
X1024149Y1212588D01*
X1026344Y1211678D01*
X1028700Y1211368D01*
X1031056Y1211678D01*
X1033251Y1212588D01*
X1035136Y1214034D01*
X1036582Y1215919D01*
X1037492Y1218114D01*
X1037802Y1220470D01*
X1037492Y1222826D01*
X1036582Y1225021D01*
X1035136Y1226906D01*
X1033251Y1228352D01*
X1031056Y1229262D01*
X1028700Y1229572D01*
D02*
G37*
G36*
X1003300D02*
X1000944Y1229262D01*
X998749Y1228352D01*
X996864Y1226906D01*
X995418Y1225021D01*
X994508Y1222826D01*
X994198Y1220470D01*
X994508Y1218114D01*
X995418Y1215919D01*
X996864Y1214034D01*
X998749Y1212588D01*
X1000944Y1211678D01*
X1003300Y1211368D01*
X1005656Y1211678D01*
X1007851Y1212588D01*
X1009736Y1214034D01*
X1011182Y1215919D01*
X1012092Y1218114D01*
X1012402Y1220470D01*
X1012092Y1222826D01*
X1011182Y1225021D01*
X1009736Y1226906D01*
X1007851Y1228352D01*
X1005656Y1229262D01*
X1003300Y1229572D01*
D02*
G37*
G36*
X977900D02*
X975544Y1229262D01*
X973349Y1228352D01*
X971464Y1226906D01*
X970018Y1225021D01*
X969108Y1222826D01*
X968798Y1220470D01*
X969108Y1218114D01*
X970018Y1215919D01*
X971464Y1214034D01*
X973349Y1212588D01*
X975544Y1211678D01*
X977900Y1211368D01*
X980256Y1211678D01*
X982451Y1212588D01*
X984336Y1214034D01*
X985782Y1215919D01*
X986692Y1218114D01*
X987002Y1220470D01*
X986692Y1222826D01*
X985782Y1225021D01*
X984336Y1226906D01*
X982451Y1228352D01*
X980256Y1229262D01*
X977900Y1229572D01*
D02*
G37*
G36*
X952500D02*
X950144Y1229262D01*
X947949Y1228352D01*
X946064Y1226906D01*
X944618Y1225021D01*
X943708Y1222826D01*
X943398Y1220470D01*
X943708Y1218114D01*
X944618Y1215919D01*
X946064Y1214034D01*
X947949Y1212588D01*
X950144Y1211678D01*
X952500Y1211368D01*
X954856Y1211678D01*
X957051Y1212588D01*
X958936Y1214034D01*
X960382Y1215919D01*
X961292Y1218114D01*
X961602Y1220470D01*
X961292Y1222826D01*
X960382Y1225021D01*
X958936Y1226906D01*
X957051Y1228352D01*
X954856Y1229262D01*
X952500Y1229572D01*
D02*
G37*
G36*
X927100D02*
X924744Y1229262D01*
X922549Y1228352D01*
X920664Y1226906D01*
X919218Y1225021D01*
X918308Y1222826D01*
X917998Y1220470D01*
X918308Y1218114D01*
X919218Y1215919D01*
X920664Y1214034D01*
X922549Y1212588D01*
X924744Y1211678D01*
X927100Y1211368D01*
X929456Y1211678D01*
X931651Y1212588D01*
X933536Y1214034D01*
X934982Y1215919D01*
X935892Y1218114D01*
X936202Y1220470D01*
X935892Y1222826D01*
X934982Y1225021D01*
X933536Y1226906D01*
X931651Y1228352D01*
X929456Y1229262D01*
X927100Y1229572D01*
D02*
G37*
G36*
X901700D02*
X899344Y1229262D01*
X897149Y1228352D01*
X895264Y1226906D01*
X893818Y1225021D01*
X892908Y1222826D01*
X892598Y1220470D01*
X892908Y1218114D01*
X893818Y1215919D01*
X895264Y1214034D01*
X897149Y1212588D01*
X899344Y1211678D01*
X901700Y1211368D01*
X904056Y1211678D01*
X906251Y1212588D01*
X908136Y1214034D01*
X909582Y1215919D01*
X910492Y1218114D01*
X910802Y1220470D01*
X910492Y1222826D01*
X909582Y1225021D01*
X908136Y1226906D01*
X906251Y1228352D01*
X904056Y1229262D01*
X901700Y1229572D01*
D02*
G37*
G36*
X876300D02*
X873944Y1229262D01*
X871749Y1228352D01*
X869864Y1226906D01*
X868418Y1225021D01*
X867508Y1222826D01*
X867198Y1220470D01*
X867508Y1218114D01*
X868418Y1215919D01*
X869864Y1214034D01*
X871749Y1212588D01*
X873944Y1211678D01*
X876300Y1211368D01*
X878656Y1211678D01*
X880851Y1212588D01*
X882736Y1214034D01*
X884182Y1215919D01*
X885092Y1218114D01*
X885402Y1220470D01*
X885092Y1222826D01*
X884182Y1225021D01*
X882736Y1226906D01*
X880851Y1228352D01*
X878656Y1229262D01*
X876300Y1229572D01*
D02*
G37*
G36*
X850900D02*
X848544Y1229262D01*
X846349Y1228352D01*
X844464Y1226906D01*
X843018Y1225021D01*
X842108Y1222826D01*
X841798Y1220470D01*
X842108Y1218114D01*
X843018Y1215919D01*
X844464Y1214034D01*
X846349Y1212588D01*
X848544Y1211678D01*
X850900Y1211368D01*
X853256Y1211678D01*
X855451Y1212588D01*
X857336Y1214034D01*
X858782Y1215919D01*
X859692Y1218114D01*
X860002Y1220470D01*
X859692Y1222826D01*
X858782Y1225021D01*
X857336Y1226906D01*
X855451Y1228352D01*
X853256Y1229262D01*
X850900Y1229572D01*
D02*
G37*
G36*
X825500D02*
X823144Y1229262D01*
X820949Y1228352D01*
X819064Y1226906D01*
X817618Y1225021D01*
X816708Y1222826D01*
X816398Y1220470D01*
X816708Y1218114D01*
X817618Y1215919D01*
X819064Y1214034D01*
X820949Y1212588D01*
X823144Y1211678D01*
X825500Y1211368D01*
X827856Y1211678D01*
X830051Y1212588D01*
X831936Y1214034D01*
X833382Y1215919D01*
X834292Y1218114D01*
X834602Y1220470D01*
X834292Y1222826D01*
X833382Y1225021D01*
X831936Y1226906D01*
X830051Y1228352D01*
X827856Y1229262D01*
X825500Y1229572D01*
D02*
G37*
G36*
X800100D02*
X797744Y1229262D01*
X795549Y1228352D01*
X793664Y1226906D01*
X792218Y1225021D01*
X791308Y1222826D01*
X790998Y1220470D01*
X791308Y1218114D01*
X792218Y1215919D01*
X793664Y1214034D01*
X795549Y1212588D01*
X797744Y1211678D01*
X800100Y1211368D01*
X802456Y1211678D01*
X804651Y1212588D01*
X806536Y1214034D01*
X807982Y1215919D01*
X808892Y1218114D01*
X809202Y1220470D01*
X808892Y1222826D01*
X807982Y1225021D01*
X806536Y1226906D01*
X804651Y1228352D01*
X802456Y1229262D01*
X800100Y1229572D01*
D02*
G37*
G36*
X774700D02*
X772344Y1229262D01*
X770149Y1228352D01*
X768264Y1226906D01*
X766818Y1225021D01*
X765908Y1222826D01*
X765598Y1220470D01*
X765908Y1218114D01*
X766818Y1215919D01*
X768264Y1214034D01*
X770149Y1212588D01*
X772344Y1211678D01*
X774700Y1211368D01*
X777056Y1211678D01*
X779251Y1212588D01*
X781136Y1214034D01*
X782582Y1215919D01*
X783492Y1218114D01*
X783802Y1220470D01*
X783492Y1222826D01*
X782582Y1225021D01*
X781136Y1226906D01*
X779251Y1228352D01*
X777056Y1229262D01*
X774700Y1229572D01*
D02*
G37*
G36*
X749300D02*
X746944Y1229262D01*
X744749Y1228352D01*
X742864Y1226906D01*
X741418Y1225021D01*
X740508Y1222826D01*
X740198Y1220470D01*
X740508Y1218114D01*
X741418Y1215919D01*
X742864Y1214034D01*
X744749Y1212588D01*
X746944Y1211678D01*
X749300Y1211368D01*
X751656Y1211678D01*
X753851Y1212588D01*
X755736Y1214034D01*
X757182Y1215919D01*
X758092Y1218114D01*
X758402Y1220470D01*
X758092Y1222826D01*
X757182Y1225021D01*
X755736Y1226906D01*
X753851Y1228352D01*
X751656Y1229262D01*
X749300Y1229572D01*
D02*
G37*
G36*
X723900D02*
X721544Y1229262D01*
X719349Y1228352D01*
X717464Y1226906D01*
X716018Y1225021D01*
X715108Y1222826D01*
X714798Y1220470D01*
X715108Y1218114D01*
X716018Y1215919D01*
X717464Y1214034D01*
X719349Y1212588D01*
X721544Y1211678D01*
X723900Y1211368D01*
X726256Y1211678D01*
X728451Y1212588D01*
X730336Y1214034D01*
X731782Y1215919D01*
X732692Y1218114D01*
X733002Y1220470D01*
X732692Y1222826D01*
X731782Y1225021D01*
X730336Y1226906D01*
X728451Y1228352D01*
X726256Y1229262D01*
X723900Y1229572D01*
D02*
G37*
G36*
X698500D02*
X696144Y1229262D01*
X693949Y1228352D01*
X692064Y1226906D01*
X690618Y1225021D01*
X689708Y1222826D01*
X689398Y1220470D01*
X689708Y1218114D01*
X690618Y1215919D01*
X692064Y1214034D01*
X693949Y1212588D01*
X696144Y1211678D01*
X698500Y1211368D01*
X700856Y1211678D01*
X703051Y1212588D01*
X704936Y1214034D01*
X706382Y1215919D01*
X707292Y1218114D01*
X707602Y1220470D01*
X707292Y1222826D01*
X706382Y1225021D01*
X704936Y1226906D01*
X703051Y1228352D01*
X700856Y1229262D01*
X698500Y1229572D01*
D02*
G37*
G36*
X673100D02*
X670744Y1229262D01*
X668549Y1228352D01*
X666664Y1226906D01*
X665218Y1225021D01*
X664308Y1222826D01*
X663998Y1220470D01*
X664308Y1218114D01*
X665218Y1215919D01*
X666664Y1214034D01*
X668549Y1212588D01*
X670744Y1211678D01*
X673100Y1211368D01*
X675456Y1211678D01*
X677651Y1212588D01*
X679536Y1214034D01*
X680982Y1215919D01*
X681892Y1218114D01*
X682202Y1220470D01*
X681892Y1222826D01*
X680982Y1225021D01*
X679536Y1226906D01*
X677651Y1228352D01*
X675456Y1229262D01*
X673100Y1229572D01*
D02*
G37*
G36*
X647700D02*
X645344Y1229262D01*
X643149Y1228352D01*
X641264Y1226906D01*
X639818Y1225021D01*
X638908Y1222826D01*
X638598Y1220470D01*
X638908Y1218114D01*
X639818Y1215919D01*
X641264Y1214034D01*
X643149Y1212588D01*
X645344Y1211678D01*
X647700Y1211368D01*
X650056Y1211678D01*
X652251Y1212588D01*
X654136Y1214034D01*
X655582Y1215919D01*
X656492Y1218114D01*
X656802Y1220470D01*
X656492Y1222826D01*
X655582Y1225021D01*
X654136Y1226906D01*
X652251Y1228352D01*
X650056Y1229262D01*
X647700Y1229572D01*
D02*
G37*
G36*
X622300D02*
X619944Y1229262D01*
X617749Y1228352D01*
X615864Y1226906D01*
X614418Y1225021D01*
X613508Y1222826D01*
X613198Y1220470D01*
X613508Y1218114D01*
X614418Y1215919D01*
X615864Y1214034D01*
X617749Y1212588D01*
X619944Y1211678D01*
X622300Y1211368D01*
X624656Y1211678D01*
X626851Y1212588D01*
X628736Y1214034D01*
X630182Y1215919D01*
X631092Y1218114D01*
X631402Y1220470D01*
X631092Y1222826D01*
X630182Y1225021D01*
X628736Y1226906D01*
X626851Y1228352D01*
X624656Y1229262D01*
X622300Y1229572D01*
D02*
G37*
G36*
X596900D02*
X594544Y1229262D01*
X592349Y1228352D01*
X590464Y1226906D01*
X589018Y1225021D01*
X588108Y1222826D01*
X587798Y1220470D01*
X588108Y1218114D01*
X589018Y1215919D01*
X590464Y1214034D01*
X592349Y1212588D01*
X594544Y1211678D01*
X596900Y1211368D01*
X599256Y1211678D01*
X601451Y1212588D01*
X603336Y1214034D01*
X604782Y1215919D01*
X605692Y1218114D01*
X606002Y1220470D01*
X605692Y1222826D01*
X604782Y1225021D01*
X603336Y1226906D01*
X601451Y1228352D01*
X599256Y1229262D01*
X596900Y1229572D01*
D02*
G37*
G36*
X571500D02*
X569144Y1229262D01*
X566949Y1228352D01*
X565064Y1226906D01*
X563618Y1225021D01*
X562708Y1222826D01*
X562398Y1220470D01*
X562708Y1218114D01*
X563618Y1215919D01*
X565064Y1214034D01*
X566949Y1212588D01*
X569144Y1211678D01*
X571500Y1211368D01*
X573856Y1211678D01*
X576051Y1212588D01*
X577936Y1214034D01*
X579382Y1215919D01*
X580292Y1218114D01*
X580602Y1220470D01*
X580292Y1222826D01*
X579382Y1225021D01*
X577936Y1226906D01*
X576051Y1228352D01*
X573856Y1229262D01*
X571500Y1229572D01*
D02*
G37*
G36*
X546100D02*
X543744Y1229262D01*
X541549Y1228352D01*
X539664Y1226906D01*
X538218Y1225021D01*
X537308Y1222826D01*
X536998Y1220470D01*
X537308Y1218114D01*
X538218Y1215919D01*
X539664Y1214034D01*
X541549Y1212588D01*
X543744Y1211678D01*
X546100Y1211368D01*
X548456Y1211678D01*
X550651Y1212588D01*
X552536Y1214034D01*
X553982Y1215919D01*
X554892Y1218114D01*
X555202Y1220470D01*
X554892Y1222826D01*
X553982Y1225021D01*
X552536Y1226906D01*
X550651Y1228352D01*
X548456Y1229262D01*
X546100Y1229572D01*
D02*
G37*
G36*
X520700D02*
X518344Y1229262D01*
X516149Y1228352D01*
X514264Y1226906D01*
X512818Y1225021D01*
X511908Y1222826D01*
X511598Y1220470D01*
X511908Y1218114D01*
X512818Y1215919D01*
X514264Y1214034D01*
X516149Y1212588D01*
X518344Y1211678D01*
X520700Y1211368D01*
X523056Y1211678D01*
X525251Y1212588D01*
X527136Y1214034D01*
X528582Y1215919D01*
X529492Y1218114D01*
X529802Y1220470D01*
X529492Y1222826D01*
X528582Y1225021D01*
X527136Y1226906D01*
X525251Y1228352D01*
X523056Y1229262D01*
X520700Y1229572D01*
D02*
G37*
G36*
X495300D02*
X492944Y1229262D01*
X490749Y1228352D01*
X488864Y1226906D01*
X487418Y1225021D01*
X486508Y1222826D01*
X486198Y1220470D01*
X486508Y1218114D01*
X487418Y1215919D01*
X488864Y1214034D01*
X490749Y1212588D01*
X492944Y1211678D01*
X495300Y1211368D01*
X497656Y1211678D01*
X499851Y1212588D01*
X501736Y1214034D01*
X503182Y1215919D01*
X504092Y1218114D01*
X504402Y1220470D01*
X504092Y1222826D01*
X503182Y1225021D01*
X501736Y1226906D01*
X499851Y1228352D01*
X497656Y1229262D01*
X495300Y1229572D01*
D02*
G37*
G36*
X469900D02*
X467544Y1229262D01*
X465349Y1228352D01*
X463464Y1226906D01*
X462018Y1225021D01*
X461108Y1222826D01*
X460798Y1220470D01*
X461108Y1218114D01*
X462018Y1215919D01*
X463464Y1214034D01*
X465349Y1212588D01*
X467544Y1211678D01*
X469900Y1211368D01*
X472256Y1211678D01*
X474451Y1212588D01*
X476336Y1214034D01*
X477782Y1215919D01*
X478692Y1218114D01*
X479002Y1220470D01*
X478692Y1222826D01*
X477782Y1225021D01*
X476336Y1226906D01*
X474451Y1228352D01*
X472256Y1229262D01*
X469900Y1229572D01*
D02*
G37*
G36*
X1409300Y1229572D02*
X1406944Y1229262D01*
X1404749Y1228352D01*
X1402864Y1226906D01*
X1401418Y1225021D01*
X1400508Y1222826D01*
X1400198Y1220470D01*
X1400508Y1218114D01*
X1401418Y1215919D01*
X1402864Y1214034D01*
X1404749Y1212588D01*
X1406944Y1211678D01*
X1409300Y1211368D01*
X1411656Y1211678D01*
X1413851Y1212588D01*
X1415736Y1214034D01*
X1417182Y1215919D01*
X1418092Y1218114D01*
X1418402Y1220470D01*
X1418092Y1222826D01*
X1417182Y1225021D01*
X1415736Y1226906D01*
X1413851Y1228352D01*
X1411656Y1229262D01*
X1409300Y1229572D01*
D02*
G37*
G36*
X1383900D02*
X1381544Y1229262D01*
X1379349Y1228352D01*
X1377464Y1226906D01*
X1376018Y1225021D01*
X1375108Y1222826D01*
X1374798Y1220470D01*
X1375108Y1218114D01*
X1376018Y1215919D01*
X1377464Y1214034D01*
X1379349Y1212588D01*
X1381544Y1211678D01*
X1383900Y1211368D01*
X1386256Y1211678D01*
X1388451Y1212588D01*
X1390336Y1214034D01*
X1391782Y1215919D01*
X1392692Y1218114D01*
X1393002Y1220470D01*
X1392692Y1222826D01*
X1391782Y1225021D01*
X1390336Y1226906D01*
X1388451Y1228352D01*
X1386256Y1229262D01*
X1383900Y1229572D01*
D02*
G37*
G36*
X1358500D02*
X1356144Y1229262D01*
X1353949Y1228352D01*
X1352064Y1226906D01*
X1350618Y1225021D01*
X1349708Y1222826D01*
X1349398Y1220470D01*
X1349708Y1218114D01*
X1350618Y1215919D01*
X1352064Y1214034D01*
X1353949Y1212588D01*
X1356144Y1211678D01*
X1358500Y1211368D01*
X1360856Y1211678D01*
X1363051Y1212588D01*
X1364936Y1214034D01*
X1366382Y1215919D01*
X1367292Y1218114D01*
X1367602Y1220470D01*
X1367292Y1222826D01*
X1366382Y1225021D01*
X1364936Y1226906D01*
X1363051Y1228352D01*
X1360856Y1229262D01*
X1358500Y1229572D01*
D02*
G37*
G36*
X1333100D02*
X1330744Y1229262D01*
X1328549Y1228352D01*
X1326664Y1226906D01*
X1325218Y1225021D01*
X1324308Y1222826D01*
X1323998Y1220470D01*
X1324308Y1218114D01*
X1325218Y1215919D01*
X1326664Y1214034D01*
X1328549Y1212588D01*
X1330744Y1211678D01*
X1333100Y1211368D01*
X1335456Y1211678D01*
X1337651Y1212588D01*
X1339536Y1214034D01*
X1340982Y1215919D01*
X1341892Y1218114D01*
X1342202Y1220470D01*
X1341892Y1222826D01*
X1340982Y1225021D01*
X1339536Y1226906D01*
X1337651Y1228352D01*
X1335456Y1229262D01*
X1333100Y1229572D01*
D02*
G37*
G36*
X1307700D02*
X1305344Y1229262D01*
X1303149Y1228352D01*
X1301264Y1226906D01*
X1299818Y1225021D01*
X1298908Y1222826D01*
X1298598Y1220470D01*
X1298908Y1218114D01*
X1299818Y1215919D01*
X1301264Y1214034D01*
X1303149Y1212588D01*
X1305344Y1211678D01*
X1307700Y1211368D01*
X1310056Y1211678D01*
X1312251Y1212588D01*
X1314136Y1214034D01*
X1315582Y1215919D01*
X1316492Y1218114D01*
X1316802Y1220470D01*
X1316492Y1222826D01*
X1315582Y1225021D01*
X1314136Y1226906D01*
X1312251Y1228352D01*
X1310056Y1229262D01*
X1307700Y1229572D01*
D02*
G37*
G36*
X1282300D02*
X1279944Y1229262D01*
X1277749Y1228352D01*
X1275864Y1226906D01*
X1274418Y1225021D01*
X1273508Y1222826D01*
X1273198Y1220470D01*
X1273508Y1218114D01*
X1274418Y1215919D01*
X1275864Y1214034D01*
X1277749Y1212588D01*
X1279944Y1211678D01*
X1282300Y1211368D01*
X1284656Y1211678D01*
X1286851Y1212588D01*
X1288736Y1214034D01*
X1290182Y1215919D01*
X1291092Y1218114D01*
X1291402Y1220470D01*
X1291092Y1222826D01*
X1290182Y1225021D01*
X1288736Y1226906D01*
X1286851Y1228352D01*
X1284656Y1229262D01*
X1282300Y1229572D01*
D02*
G37*
G36*
X1256900D02*
X1254544Y1229262D01*
X1252349Y1228352D01*
X1250464Y1226906D01*
X1249018Y1225021D01*
X1248108Y1222826D01*
X1247798Y1220470D01*
X1248108Y1218114D01*
X1249018Y1215919D01*
X1250464Y1214034D01*
X1252349Y1212588D01*
X1254544Y1211678D01*
X1256900Y1211368D01*
X1259256Y1211678D01*
X1261451Y1212588D01*
X1263336Y1214034D01*
X1264782Y1215919D01*
X1265692Y1218114D01*
X1266002Y1220470D01*
X1265692Y1222826D01*
X1264782Y1225021D01*
X1263336Y1226906D01*
X1261451Y1228352D01*
X1259256Y1229262D01*
X1256900Y1229572D01*
D02*
G37*
G36*
X1231500D02*
X1229144Y1229262D01*
X1226949Y1228352D01*
X1225064Y1226906D01*
X1223618Y1225021D01*
X1222708Y1222826D01*
X1222398Y1220470D01*
X1222708Y1218114D01*
X1223618Y1215919D01*
X1225064Y1214034D01*
X1226949Y1212588D01*
X1229144Y1211678D01*
X1231500Y1211368D01*
X1233856Y1211678D01*
X1236051Y1212588D01*
X1237936Y1214034D01*
X1239382Y1215919D01*
X1240292Y1218114D01*
X1240602Y1220470D01*
X1240292Y1222826D01*
X1239382Y1225021D01*
X1237936Y1226906D01*
X1236051Y1228352D01*
X1233856Y1229262D01*
X1231500Y1229572D01*
D02*
G37*
G36*
X1206100D02*
X1203744Y1229262D01*
X1201549Y1228352D01*
X1199664Y1226906D01*
X1198218Y1225021D01*
X1197308Y1222826D01*
X1196998Y1220470D01*
X1197308Y1218114D01*
X1198218Y1215919D01*
X1199664Y1214034D01*
X1201549Y1212588D01*
X1203744Y1211678D01*
X1206100Y1211368D01*
X1208456Y1211678D01*
X1210651Y1212588D01*
X1212536Y1214034D01*
X1213982Y1215919D01*
X1214892Y1218114D01*
X1215202Y1220470D01*
X1214892Y1222826D01*
X1213982Y1225021D01*
X1212536Y1226906D01*
X1210651Y1228352D01*
X1208456Y1229262D01*
X1206100Y1229572D01*
D02*
G37*
G36*
X1180700D02*
X1178344Y1229262D01*
X1176149Y1228352D01*
X1174264Y1226906D01*
X1172818Y1225021D01*
X1171908Y1222826D01*
X1171598Y1220470D01*
X1171908Y1218114D01*
X1172818Y1215919D01*
X1174264Y1214034D01*
X1176149Y1212588D01*
X1178344Y1211678D01*
X1180700Y1211368D01*
X1183056Y1211678D01*
X1185251Y1212588D01*
X1187136Y1214034D01*
X1188582Y1215919D01*
X1189492Y1218114D01*
X1189802Y1220470D01*
X1189492Y1222826D01*
X1188582Y1225021D01*
X1187136Y1226906D01*
X1185251Y1228352D01*
X1183056Y1229262D01*
X1180700Y1229572D01*
D02*
G37*
G36*
X1155300D02*
X1152944Y1229262D01*
X1150749Y1228352D01*
X1148864Y1226906D01*
X1147418Y1225021D01*
X1146508Y1222826D01*
X1146198Y1220470D01*
X1146508Y1218114D01*
X1147418Y1215919D01*
X1148864Y1214034D01*
X1150749Y1212588D01*
X1152944Y1211678D01*
X1155300Y1211368D01*
X1157656Y1211678D01*
X1159851Y1212588D01*
X1161736Y1214034D01*
X1163182Y1215919D01*
X1164092Y1218114D01*
X1164402Y1220470D01*
X1164092Y1222826D01*
X1163182Y1225021D01*
X1161736Y1226906D01*
X1159851Y1228352D01*
X1157656Y1229262D01*
X1155300Y1229572D01*
D02*
G37*
G36*
X1129900D02*
X1127544Y1229262D01*
X1125349Y1228352D01*
X1123464Y1226906D01*
X1122018Y1225021D01*
X1121108Y1222826D01*
X1120798Y1220470D01*
X1121108Y1218114D01*
X1122018Y1215919D01*
X1123464Y1214034D01*
X1125349Y1212588D01*
X1127544Y1211678D01*
X1129900Y1211368D01*
X1132256Y1211678D01*
X1134451Y1212588D01*
X1136336Y1214034D01*
X1137782Y1215919D01*
X1138692Y1218114D01*
X1139002Y1220470D01*
X1138692Y1222826D01*
X1137782Y1225021D01*
X1136336Y1226906D01*
X1134451Y1228352D01*
X1132256Y1229262D01*
X1129900Y1229572D01*
D02*
G37*
G36*
X1104500D02*
X1102144Y1229262D01*
X1099949Y1228352D01*
X1098064Y1226906D01*
X1096618Y1225021D01*
X1095708Y1222826D01*
X1095398Y1220470D01*
X1095708Y1218114D01*
X1096618Y1215919D01*
X1098064Y1214034D01*
X1099949Y1212588D01*
X1102144Y1211678D01*
X1104500Y1211368D01*
X1106856Y1211678D01*
X1109051Y1212588D01*
X1110936Y1214034D01*
X1112382Y1215919D01*
X1113292Y1218114D01*
X1113602Y1220470D01*
X1113292Y1222826D01*
X1112382Y1225021D01*
X1110936Y1226906D01*
X1109051Y1228352D01*
X1106856Y1229262D01*
X1104500Y1229572D01*
D02*
G37*
G36*
X1526500Y1231824D02*
X1523261Y1231505D01*
X1520146Y1230560D01*
X1517275Y1229026D01*
X1514759Y1226961D01*
X1512694Y1224445D01*
X1511160Y1221574D01*
X1510215Y1218459D01*
X1509896Y1215220D01*
X1510215Y1211981D01*
X1511160Y1208866D01*
X1512694Y1205995D01*
X1514759Y1203479D01*
X1517275Y1201414D01*
X1520146Y1199880D01*
X1523261Y1198935D01*
X1526500Y1198616D01*
X1529739Y1198935D01*
X1532854Y1199880D01*
X1535725Y1201414D01*
X1538241Y1203479D01*
X1540306Y1205995D01*
X1541840Y1208866D01*
X1542785Y1211981D01*
X1543104Y1215220D01*
X1542785Y1218459D01*
X1541840Y1221574D01*
X1540306Y1224445D01*
X1538241Y1226961D01*
X1535725Y1229026D01*
X1532854Y1230560D01*
X1529739Y1231505D01*
X1526500Y1231824D01*
D02*
G37*
G36*
X326500D02*
X323261Y1231505D01*
X320146Y1230560D01*
X317275Y1229026D01*
X314759Y1226961D01*
X312694Y1224445D01*
X311160Y1221574D01*
X310215Y1218459D01*
X309896Y1215220D01*
X310215Y1211981D01*
X311160Y1208866D01*
X312694Y1205995D01*
X314759Y1203479D01*
X317275Y1201414D01*
X320146Y1199880D01*
X323261Y1198935D01*
X326500Y1198616D01*
X329739Y1198935D01*
X332854Y1199880D01*
X335725Y1201414D01*
X338241Y1203479D01*
X340306Y1205995D01*
X341840Y1208866D01*
X342785Y1211981D01*
X343104Y1215220D01*
X342785Y1218459D01*
X341840Y1221574D01*
X340306Y1224445D01*
X338241Y1226961D01*
X335725Y1229026D01*
X332854Y1230560D01*
X329739Y1231505D01*
X326500Y1231824D01*
D02*
G37*
G36*
X328274Y1183525D02*
X317225D01*
Y1171477D01*
X328274D01*
Y1183525D01*
D02*
G37*
G36*
X398461Y1166830D02*
X389771D01*
Y1158141D01*
X391122Y1158319D01*
X393564Y1159330D01*
X395662Y1160939D01*
X397271Y1163037D01*
X398283Y1165479D01*
X398461Y1166830D01*
D02*
G37*
G36*
X387231D02*
X378542D01*
X378720Y1165479D01*
X379731Y1163037D01*
X381341Y1160939D01*
X383438Y1159330D01*
X385880Y1158319D01*
X387231Y1158141D01*
Y1166830D01*
D02*
G37*
G36*
X1349093Y1165649D02*
X1330805D01*
Y1156251D01*
X1349093D01*
Y1165649D01*
D02*
G37*
G36*
X1295195D02*
X1276907D01*
Y1156251D01*
X1295195D01*
Y1165649D01*
D02*
G37*
G36*
X1548524Y1167899D02*
X1532476D01*
Y1151851D01*
X1548524D01*
Y1167899D01*
D02*
G37*
G36*
X1516974Y1163649D02*
X1503426D01*
Y1150101D01*
X1516974D01*
Y1163649D01*
D02*
G37*
G36*
X311500Y1160134D02*
X309345Y1159705D01*
X307517Y1158484D01*
X306296Y1156657D01*
X305867Y1154501D01*
X306296Y1152346D01*
X307517Y1150518D01*
X309345Y1149297D01*
X311500Y1148868D01*
X313656Y1149297D01*
X315483Y1150518D01*
X316704Y1152346D01*
X317133Y1154501D01*
X316704Y1156657D01*
X315483Y1158484D01*
X313656Y1159705D01*
X311500Y1160134D01*
D02*
G37*
G36*
X1397500Y1198853D02*
X381000D01*
X379430Y1198540D01*
X378099Y1197651D01*
X345820Y1165372D01*
X344025D01*
Y1166795D01*
X320977D01*
Y1155746D01*
X344025D01*
Y1157166D01*
X347519D01*
X349089Y1157479D01*
X350420Y1158368D01*
X352801Y1160749D01*
X353971Y1160123D01*
X353897Y1159750D01*
Y1138699D01*
X350570Y1135372D01*
X344025D01*
Y1136795D01*
X320977D01*
Y1125746D01*
X344025D01*
Y1127166D01*
X352269D01*
X353839Y1127479D01*
X355170Y1128368D01*
X360901Y1134099D01*
X361791Y1135430D01*
X362103Y1137000D01*
Y1158051D01*
X382449Y1178397D01*
X383806D01*
X384059Y1177127D01*
X383438Y1176870D01*
X381341Y1175261D01*
X379731Y1173163D01*
X378720Y1170721D01*
X378542Y1169370D01*
X398461D01*
X398283Y1170721D01*
X397271Y1173163D01*
X395662Y1175261D01*
X393564Y1176870D01*
X392944Y1177127D01*
X393196Y1178397D01*
X1386551D01*
X1390349Y1174599D01*
X1391680Y1173709D01*
X1393250Y1173397D01*
X1409301D01*
X1410147Y1172551D01*
Y1165250D01*
X1410459Y1163680D01*
X1411349Y1162349D01*
X1412680Y1161460D01*
X1414250Y1161147D01*
X1415820Y1161460D01*
X1417151Y1162349D01*
X1418040Y1163680D01*
X1418353Y1165250D01*
Y1174250D01*
X1418040Y1175820D01*
X1417151Y1177151D01*
X1413901Y1180401D01*
X1412570Y1181291D01*
X1411000Y1181603D01*
X1394949D01*
X1391151Y1185401D01*
X1389820Y1186291D01*
X1388250Y1186603D01*
X380750D01*
X380377Y1186529D01*
X379751Y1187699D01*
X382700Y1190647D01*
X1395801D01*
X1401099Y1185349D01*
X1402430Y1184460D01*
X1404000Y1184147D01*
X1415801D01*
X1432444Y1167504D01*
X1432146Y1166006D01*
X1431688Y1165816D01*
X1429281Y1163969D01*
X1427434Y1161562D01*
X1426273Y1158758D01*
X1425877Y1155750D01*
X1426273Y1152742D01*
X1427434Y1149938D01*
X1429281Y1147531D01*
X1431688Y1145684D01*
X1434492Y1144523D01*
X1437500Y1144127D01*
X1440508Y1144523D01*
X1443312Y1145684D01*
X1445719Y1147531D01*
X1447566Y1149938D01*
X1448727Y1152742D01*
X1449123Y1155750D01*
X1448727Y1158758D01*
X1447566Y1161562D01*
X1445719Y1163969D01*
X1443312Y1165816D01*
X1441603Y1166524D01*
Y1168250D01*
X1441290Y1169820D01*
X1440401Y1171151D01*
X1420401Y1191151D01*
X1419070Y1192040D01*
X1417500Y1192353D01*
X1405699D01*
X1400401Y1197651D01*
X1399070Y1198540D01*
X1397500Y1198853D01*
D02*
G37*
G36*
X1349093Y1152949D02*
X1330805D01*
Y1143551D01*
X1349093D01*
Y1152949D01*
D02*
G37*
G36*
X1295195D02*
X1276907D01*
Y1143551D01*
X1295195D01*
Y1152949D01*
D02*
G37*
G36*
X1467500Y1196123D02*
X1464492Y1195727D01*
X1461688Y1194566D01*
X1459281Y1192719D01*
X1457434Y1190312D01*
X1456273Y1187508D01*
X1455877Y1184500D01*
X1456273Y1181492D01*
X1457434Y1178688D01*
X1459281Y1176281D01*
X1461688Y1174434D01*
X1464492Y1173273D01*
X1464672Y1173249D01*
Y1164500D01*
X1464887Y1163418D01*
X1465500Y1162500D01*
X1482164Y1145836D01*
X1482147Y1145750D01*
X1482459Y1144180D01*
X1482982Y1143398D01*
X1482315Y1142128D01*
X1362250D01*
X1362250Y1142128D01*
X1361168Y1141913D01*
X1360250Y1141300D01*
X1357328Y1138378D01*
X1349093D01*
Y1140249D01*
X1330805D01*
Y1130851D01*
X1349093D01*
Y1132722D01*
X1358500D01*
X1359582Y1132937D01*
X1360500Y1133550D01*
X1363422Y1136472D01*
X1492050D01*
X1492099Y1136399D01*
X1492277Y1136280D01*
X1492356Y1134905D01*
X1491520Y1134118D01*
X1374040D01*
X1374040Y1134118D01*
X1372958Y1133903D01*
X1372040Y1133290D01*
X1372040Y1133290D01*
X1364429Y1125678D01*
X1349093D01*
Y1127549D01*
X1330805D01*
Y1118151D01*
X1349093D01*
Y1120022D01*
X1365600D01*
X1366682Y1120237D01*
X1367600Y1120850D01*
X1375211Y1128462D01*
X1492036D01*
X1492099Y1128368D01*
X1493430Y1127479D01*
X1495000Y1127166D01*
X1496570Y1127479D01*
X1497901Y1128368D01*
X1498790Y1129699D01*
X1499103Y1131269D01*
X1498790Y1132839D01*
X1497901Y1134170D01*
X1497377Y1134521D01*
Y1136048D01*
X1497901Y1136399D01*
X1498790Y1137730D01*
X1499103Y1139300D01*
X1498790Y1140870D01*
X1497901Y1142201D01*
X1496570Y1143091D01*
X1495000Y1143403D01*
X1493430Y1143091D01*
X1492099Y1142201D01*
X1492050Y1142128D01*
X1490185D01*
X1489518Y1143398D01*
X1490040Y1144180D01*
X1490353Y1145750D01*
X1490040Y1147320D01*
X1489151Y1148651D01*
X1487820Y1149541D01*
X1486250Y1149853D01*
X1486164Y1149836D01*
X1470328Y1165671D01*
Y1173249D01*
X1470508Y1173273D01*
X1473312Y1174434D01*
X1475719Y1176281D01*
X1477566Y1178688D01*
X1478727Y1181492D01*
X1479123Y1184500D01*
X1478727Y1187508D01*
X1477566Y1190312D01*
X1475719Y1192719D01*
X1473312Y1194566D01*
X1470508Y1195727D01*
X1467500Y1196123D01*
D02*
G37*
G36*
X1113770Y1142131D02*
Y1138770D01*
X1117131D01*
X1117012Y1139369D01*
X1115953Y1140953D01*
X1114369Y1142012D01*
X1113770Y1142131D01*
D02*
G37*
G36*
X1073730D02*
X1073131Y1142012D01*
X1071547Y1140953D01*
X1070488Y1139369D01*
X1070369Y1138770D01*
X1073730D01*
Y1142131D01*
D02*
G37*
G36*
X1199750Y1168778D02*
X1198668Y1168563D01*
X1197750Y1167950D01*
X1197750Y1167950D01*
X1181500Y1151700D01*
X1180887Y1150782D01*
X1180672Y1149700D01*
Y1060087D01*
X1180887Y1059005D01*
X1181500Y1058087D01*
X1198672Y1040915D01*
Y1013200D01*
X1198599Y1013151D01*
X1197710Y1011820D01*
X1197397Y1010250D01*
X1197710Y1008680D01*
X1198599Y1007349D01*
X1199311Y1006873D01*
X1198926Y1005603D01*
X1090449D01*
X1078901Y1017151D01*
X1077570Y1018040D01*
X1076000Y1018353D01*
X1068024D01*
Y1020274D01*
X1064701D01*
Y1023976D01*
X1068024D01*
Y1025971D01*
X1069294Y1026551D01*
X1070180Y1025959D01*
X1071750Y1025647D01*
X1073320Y1025959D01*
X1074651Y1026849D01*
X1075540Y1028180D01*
X1075853Y1029750D01*
X1075540Y1031320D01*
X1074651Y1032651D01*
X1073320Y1033540D01*
X1071750Y1033853D01*
X1070180Y1033540D01*
X1069294Y1032949D01*
X1068024Y1033529D01*
Y1036024D01*
X1056976D01*
Y1023976D01*
X1060299D01*
Y1020274D01*
X1056976D01*
Y1008226D01*
X1068024D01*
Y1010147D01*
X1074301D01*
X1077672Y1006776D01*
X1077186Y1005603D01*
X978449D01*
X950651Y1033401D01*
X949320Y1034290D01*
X947750Y1034603D01*
X946180Y1034290D01*
X944849Y1033401D01*
X943960Y1032070D01*
X943647Y1030500D01*
X943960Y1028930D01*
X944849Y1027599D01*
X973575Y998873D01*
X973245Y997793D01*
X973103Y997603D01*
X971700D01*
X951429Y1017873D01*
X951291Y1018570D01*
X950401Y1019901D01*
X949070Y1020790D01*
X947500Y1021103D01*
X946500D01*
X944930Y1020790D01*
X943599Y1019901D01*
X942710Y1018570D01*
X942397Y1017000D01*
X942710Y1015430D01*
X943599Y1014099D01*
X967349Y990349D01*
X968680Y989460D01*
X970250Y989147D01*
X971507Y989397D01*
X1076474D01*
X1076482Y989378D01*
X1076685Y988127D01*
X1075599Y987401D01*
X1074709Y986070D01*
X1074397Y984500D01*
X1074709Y982930D01*
X1075599Y981599D01*
X1075600Y981598D01*
X1075214Y980328D01*
X997000D01*
X995918Y980113D01*
X995000Y979500D01*
X946579Y931078D01*
X937172D01*
X936274Y931976D01*
X936274Y934600D01*
X936274Y935544D01*
Y946356D01*
X936274Y947300D01*
X936274Y948244D01*
Y959056D01*
X936274Y960000D01*
X936274Y960944D01*
Y962247D01*
X943451D01*
X946897Y958801D01*
Y953650D01*
X947209Y952080D01*
X948099Y950749D01*
X949430Y949859D01*
X951000Y949547D01*
X952570Y949859D01*
X953901Y950749D01*
X954790Y952080D01*
X955103Y953650D01*
Y960500D01*
X954790Y962070D01*
X953901Y963401D01*
X948051Y969251D01*
X946720Y970141D01*
X945150Y970453D01*
X937172D01*
X936274Y971351D01*
X936274Y972700D01*
X936274Y973644D01*
Y984456D01*
X936274Y985400D01*
X936274Y986344D01*
Y997156D01*
X936274Y998100D01*
X936274Y999044D01*
Y1009856D01*
X936274Y1010800D01*
X936274Y1011744D01*
Y1022556D01*
X936274Y1023500D01*
X936274Y1024444D01*
Y1035256D01*
X936274Y1036200D01*
X936274Y1037144D01*
Y1038447D01*
X1107001D01*
X1113549Y1031899D01*
X1114880Y1031010D01*
X1116450Y1030697D01*
X1183500D01*
X1185070Y1031010D01*
X1186401Y1031899D01*
X1187290Y1033230D01*
X1187603Y1034800D01*
X1187290Y1036370D01*
X1186401Y1037701D01*
X1185070Y1038590D01*
X1184634Y1038677D01*
X1184576Y1039842D01*
X1184599Y1039979D01*
X1185901Y1040849D01*
X1186790Y1042180D01*
X1187103Y1043750D01*
X1186790Y1045320D01*
X1185901Y1046651D01*
X1184570Y1047541D01*
X1183000Y1047853D01*
X1122449D01*
X1112151Y1058151D01*
X1110820Y1059041D01*
X1109250Y1059353D01*
X937172D01*
X936274Y1060251D01*
X936274Y1061600D01*
X936274Y1062544D01*
Y1065749D01*
X957476D01*
Y1064476D01*
X969524D01*
Y1067936D01*
X983750D01*
X983750Y1067936D01*
X984540Y1068093D01*
X985209Y1068541D01*
X1025905Y1109236D01*
X1070606D01*
X1071221Y1107966D01*
X1070488Y1106869D01*
X1070369Y1106270D01*
X1075000D01*
Y1103730D01*
X1070369D01*
X1070488Y1103131D01*
X1071115Y1102193D01*
X1071443Y1101250D01*
X1071115Y1100307D01*
X1070488Y1099369D01*
X1070369Y1098770D01*
X1075000D01*
Y1097500D01*
X1076270D01*
Y1092869D01*
X1076869Y1092988D01*
X1078453Y1094047D01*
X1079047D01*
X1080631Y1092988D01*
X1081230Y1092869D01*
Y1097500D01*
X1083770D01*
Y1092869D01*
X1084369Y1092988D01*
X1085307Y1093615D01*
X1086250Y1093943D01*
X1087193Y1093615D01*
X1088131Y1092988D01*
X1088730Y1092869D01*
Y1097500D01*
X1091270D01*
Y1092869D01*
X1091869Y1092988D01*
X1093453Y1094047D01*
X1094047D01*
X1095631Y1092988D01*
X1096230Y1092869D01*
Y1097500D01*
X1098770D01*
Y1092869D01*
X1099369Y1092988D01*
X1100307Y1093615D01*
X1101250Y1093943D01*
X1102193Y1093615D01*
X1103131Y1092988D01*
X1103730Y1092869D01*
Y1097500D01*
X1106270D01*
Y1092869D01*
X1106869Y1092988D01*
X1107807Y1093615D01*
X1108750Y1093943D01*
X1109693Y1093615D01*
X1110631Y1092988D01*
X1111230Y1092869D01*
Y1097500D01*
X1112500D01*
Y1098770D01*
X1117131D01*
X1117012Y1099369D01*
X1116385Y1100307D01*
X1116057Y1101250D01*
X1116385Y1102193D01*
X1117012Y1103131D01*
X1117131Y1103730D01*
X1112500D01*
Y1106270D01*
X1117131D01*
X1117012Y1106869D01*
X1116279Y1107966D01*
X1116894Y1109236D01*
X1149290D01*
X1149729Y1108579D01*
X1150977Y1107745D01*
X1152450Y1107452D01*
X1153923Y1107745D01*
X1155171Y1108579D01*
X1156005Y1109827D01*
X1156298Y1111300D01*
X1156005Y1112773D01*
X1155171Y1114021D01*
X1153923Y1114855D01*
X1152450Y1115148D01*
X1150977Y1114855D01*
X1149729Y1114021D01*
X1149290Y1113364D01*
X1147513D01*
X1147161Y1114119D01*
X1147041Y1114634D01*
X1147805Y1115777D01*
X1148098Y1117250D01*
X1147805Y1118723D01*
X1146971Y1119971D01*
X1145723Y1120805D01*
X1144250Y1121098D01*
X1142777Y1120805D01*
X1141529Y1119971D01*
X1141182Y1119451D01*
X1117571D01*
X1117045Y1120436D01*
X1117030Y1120721D01*
X1117131Y1121230D01*
X1112500D01*
Y1123770D01*
X1117131D01*
X1117012Y1124369D01*
X1116385Y1125307D01*
X1116057Y1126250D01*
X1116385Y1127193D01*
X1117012Y1128131D01*
X1117131Y1128730D01*
X1112500D01*
Y1131270D01*
X1117131D01*
X1117012Y1131869D01*
X1116385Y1132807D01*
X1116057Y1133750D01*
X1116385Y1134693D01*
X1117012Y1135631D01*
X1117131Y1136230D01*
X1112500D01*
Y1137500D01*
X1111230D01*
Y1142131D01*
X1110631Y1142012D01*
X1109693Y1141385D01*
X1108750Y1141057D01*
X1107807Y1141385D01*
X1106869Y1142012D01*
X1106270Y1142131D01*
Y1137500D01*
X1103730D01*
Y1142131D01*
X1103131Y1142012D01*
X1102193Y1141385D01*
X1101250Y1141057D01*
X1100307Y1141385D01*
X1099369Y1142012D01*
X1098770Y1142131D01*
Y1137500D01*
X1096230D01*
Y1142131D01*
X1095631Y1142012D01*
X1094047Y1140953D01*
X1093453D01*
X1091869Y1142012D01*
X1091270Y1142131D01*
Y1137500D01*
X1088730D01*
Y1142131D01*
X1088131Y1142012D01*
X1087193Y1141385D01*
X1086250Y1141057D01*
X1085307Y1141385D01*
X1084369Y1142012D01*
X1083770Y1142131D01*
Y1137500D01*
X1081230D01*
Y1142131D01*
X1080631Y1142012D01*
X1079047Y1140953D01*
X1078453D01*
X1076869Y1142012D01*
X1076270Y1142131D01*
Y1137500D01*
X1075000D01*
Y1136230D01*
X1070369D01*
X1070488Y1135631D01*
X1071115Y1134693D01*
X1071443Y1133750D01*
X1071115Y1132807D01*
X1070488Y1131869D01*
X1070369Y1131270D01*
X1075000D01*
Y1128730D01*
X1070369D01*
X1070488Y1128131D01*
X1071115Y1127193D01*
X1071443Y1126250D01*
X1071115Y1125307D01*
X1070488Y1124369D01*
X1070369Y1123770D01*
X1075000D01*
Y1121230D01*
X1070369D01*
X1070470Y1120721D01*
X1070455Y1120436D01*
X1069929Y1119451D01*
X1014750D01*
X1013908Y1119284D01*
X1013194Y1118807D01*
X990275Y1095888D01*
X989274Y1095274D01*
Y1095274D01*
X989274Y1095274D01*
X977226D01*
Y1084226D01*
X977226D01*
X977632Y1083245D01*
X973838Y1079451D01*
X969524D01*
Y1089524D01*
X967603D01*
Y1091801D01*
X975450Y1099647D01*
X977226D01*
Y1098226D01*
X989274D01*
Y1109274D01*
X977226D01*
Y1107853D01*
X973750D01*
X972180Y1107541D01*
X970849Y1106651D01*
X960599Y1096401D01*
X959709Y1095070D01*
X959397Y1093500D01*
Y1089524D01*
X957476D01*
Y1088953D01*
X947250D01*
X945680Y1088641D01*
X944349Y1087751D01*
X943459Y1086420D01*
X943147Y1084850D01*
X943459Y1083280D01*
X944349Y1081949D01*
X945680Y1081059D01*
X947250Y1080747D01*
X957476D01*
Y1079451D01*
X936274D01*
Y1086310D01*
X937290D01*
Y1092080D01*
X924750D01*
X912210D01*
Y1086310D01*
X913226D01*
Y1084753D01*
X893650D01*
X892080Y1084441D01*
X890749Y1083551D01*
X890599Y1083401D01*
X889709Y1082070D01*
X889397Y1080500D01*
X889709Y1078930D01*
X890599Y1077599D01*
X891930Y1076710D01*
X893500Y1076397D01*
X894254Y1076547D01*
X913226D01*
Y1074626D01*
X913226D01*
Y1073974D01*
X913226D01*
Y1071353D01*
X856750D01*
X855180Y1071040D01*
X853849Y1070151D01*
X852960Y1068820D01*
X852647Y1067250D01*
X852960Y1065680D01*
X853849Y1064349D01*
X855180Y1063459D01*
X856750Y1063147D01*
X912328D01*
X913226Y1062249D01*
X913226Y1061600D01*
X913226Y1060656D01*
Y1049844D01*
X913226Y1048900D01*
X913226Y1047956D01*
Y1037144D01*
X913226Y1036200D01*
X913226Y1035256D01*
Y1024444D01*
X913226Y1023500D01*
X913226Y1022556D01*
Y1011744D01*
X913226Y1010800D01*
X913226Y1009856D01*
Y999044D01*
X913226Y998100D01*
X913226Y997156D01*
Y986344D01*
X913226Y985400D01*
X913226Y984456D01*
Y973644D01*
X913226Y972700D01*
X913226Y971756D01*
Y960944D01*
X913226Y960000D01*
X913226Y959056D01*
Y957753D01*
X905580D01*
X904010Y957440D01*
X902679Y956551D01*
X892779Y946651D01*
X891889Y945320D01*
X891577Y943750D01*
X891889Y942180D01*
X892779Y940849D01*
X894110Y939959D01*
X895680Y939647D01*
X897000D01*
X898570Y939959D01*
X899901Y940849D01*
X900790Y942180D01*
X901009Y943277D01*
X907279Y949547D01*
X912328D01*
X913226Y948649D01*
X913226Y947300D01*
X913226Y946356D01*
Y935544D01*
X913226Y934600D01*
X913226Y933656D01*
Y922226D01*
X936274D01*
Y925422D01*
X947750D01*
X948832Y925637D01*
X949750Y926250D01*
X998172Y974672D01*
X1167800D01*
X1167849Y974599D01*
X1169180Y973709D01*
X1170750Y973397D01*
X1172320Y973709D01*
X1173651Y974599D01*
X1174540Y975930D01*
X1174853Y977500D01*
X1174540Y979070D01*
X1173651Y980401D01*
X1172320Y981291D01*
X1170750Y981603D01*
X1169180Y981291D01*
X1167849Y980401D01*
X1167800Y980328D01*
X1154536D01*
X1154150Y981598D01*
X1154151Y981599D01*
X1155041Y982930D01*
X1155353Y984500D01*
X1155041Y986070D01*
X1154151Y987401D01*
X1153065Y988127D01*
X1153268Y989378D01*
X1153276Y989397D01*
X1278301D01*
X1329849Y937849D01*
X1331180Y936960D01*
X1332750Y936647D01*
X1414500D01*
X1416070Y936960D01*
X1417401Y937849D01*
X1435528Y955976D01*
X1441274D01*
Y968024D01*
X1439853D01*
Y970226D01*
X1441274D01*
Y982274D01*
X1430226D01*
Y970226D01*
X1431647D01*
Y968024D01*
X1430226D01*
Y962278D01*
X1412801Y944853D01*
X1410383D01*
X1409989Y945960D01*
X1409989Y946123D01*
Y954730D01*
X1394949D01*
X1379909D01*
Y946123D01*
X1379909Y945960D01*
X1379516Y944853D01*
X1334449D01*
X1282901Y996401D01*
X1281570Y997290D01*
X1280000Y997603D01*
X1239647D01*
X1239505Y997793D01*
X1239175Y998873D01*
X1253401Y1013099D01*
X1253401Y1013099D01*
X1280474Y1040172D01*
X1281647Y1039686D01*
Y1033774D01*
X1280226D01*
Y1021726D01*
X1291274D01*
Y1033774D01*
X1289853D01*
Y1048147D01*
X1321436D01*
X1321689Y1046877D01*
X1320938Y1046566D01*
X1318531Y1044719D01*
X1316684Y1042312D01*
X1315523Y1039508D01*
X1315127Y1036500D01*
X1315523Y1033492D01*
X1315883Y1032623D01*
X1314969Y1031510D01*
X1314500Y1031603D01*
X1305274D01*
Y1033774D01*
X1294226D01*
Y1021726D01*
X1295897D01*
Y1018774D01*
X1294476D01*
Y1006726D01*
X1305524D01*
Y1018774D01*
X1304103D01*
Y1021726D01*
X1305274D01*
Y1023397D01*
X1314500D01*
X1316070Y1023709D01*
X1317401Y1024599D01*
X1318291Y1025930D01*
X1318452Y1026741D01*
X1319844Y1027273D01*
X1320938Y1026434D01*
X1323742Y1025273D01*
X1326750Y1024877D01*
X1329758Y1025273D01*
X1332562Y1026434D01*
X1334969Y1028281D01*
X1336816Y1030688D01*
X1337977Y1033492D01*
X1338373Y1036500D01*
X1337977Y1039508D01*
X1336816Y1042312D01*
X1336381Y1042879D01*
X1341649Y1048147D01*
X1349476D01*
Y1046976D01*
X1361144D01*
X1361689Y1046278D01*
X1361136Y1045040D01*
X1356770D01*
Y1039770D01*
X1362540D01*
Y1044112D01*
X1363810Y1044638D01*
X1366647Y1041801D01*
Y984500D01*
X1366959Y982930D01*
X1367849Y981599D01*
X1373599Y975849D01*
X1374930Y974959D01*
X1376500Y974647D01*
X1380925D01*
Y969476D01*
X1408973D01*
Y987524D01*
X1380925D01*
Y982853D01*
X1378199D01*
X1374853Y986199D01*
Y1031936D01*
X1376026Y1032422D01*
X1380849Y1027599D01*
X1382180Y1026710D01*
X1382976Y1026551D01*
Y1025976D01*
X1390524D01*
Y1026397D01*
X1392476D01*
Y1025976D01*
X1400024D01*
Y1028905D01*
X1400040Y1028930D01*
X1400353Y1030500D01*
X1400040Y1032070D01*
X1400024Y1032095D01*
Y1034460D01*
X1401976D01*
Y1032095D01*
X1401960Y1032070D01*
X1401647Y1030500D01*
X1401960Y1028930D01*
X1401976Y1028905D01*
Y1025976D01*
X1409524D01*
Y1026452D01*
X1410820Y1026710D01*
X1412151Y1027599D01*
X1417224Y1032672D01*
X1418397Y1032186D01*
Y1018524D01*
X1416476D01*
Y1007476D01*
X1428524D01*
Y1017397D01*
X1428524Y1017920D01*
X1429720Y1018283D01*
X1430099Y1017849D01*
X1430610Y1017507D01*
X1431430Y1016960D01*
X1433000Y1016647D01*
X1434570Y1016960D01*
X1435627Y1017666D01*
X1436609Y1017344D01*
X1436923Y1017120D01*
X1437209Y1015680D01*
X1438099Y1014349D01*
X1440726Y1011722D01*
Y1005976D01*
X1451774D01*
Y1018024D01*
X1446028D01*
X1445103Y1018949D01*
Y1030976D01*
X1449024D01*
Y1041024D01*
X1432976D01*
X1432578Y1042129D01*
Y1048871D01*
X1432976Y1049976D01*
X1449024D01*
Y1051001D01*
X1450070Y1051209D01*
X1451401Y1052099D01*
X1454901Y1055599D01*
X1455033Y1055796D01*
X1456757Y1056090D01*
X1456976Y1055926D01*
Y1051540D01*
X1455960D01*
Y1046770D01*
X1465000D01*
Y1044230D01*
X1455960D01*
Y1039460D01*
X1456976D01*
Y1030976D01*
X1473024D01*
Y1031897D01*
X1481750D01*
X1483320Y1032209D01*
X1483361Y1032237D01*
X1484795Y1031668D01*
X1484850Y1031431D01*
X1484828Y1031380D01*
X1476349Y1022901D01*
X1475459Y1021570D01*
X1475147Y1020000D01*
Y981449D01*
X1473751Y980053D01*
X1470774D01*
Y981474D01*
X1458726D01*
Y980353D01*
X1455274D01*
Y982274D01*
X1444226D01*
Y970310D01*
X1444226Y970226D01*
X1444023Y969040D01*
X1443210D01*
Y963270D01*
X1449750D01*
Y962000D01*
D01*
Y963270D01*
X1456290D01*
Y969040D01*
X1455477D01*
X1455274Y970226D01*
X1455274Y970310D01*
Y972147D01*
X1458726D01*
Y970426D01*
X1470774D01*
Y971847D01*
X1478700D01*
X1480270Y972160D01*
X1481601Y973049D01*
X1482474Y973922D01*
X1483647Y973436D01*
Y948449D01*
X1471550Y936353D01*
X1460524D01*
X1459816Y938062D01*
X1457969Y940469D01*
X1455562Y942316D01*
X1452758Y943477D01*
X1449750Y943873D01*
X1446742Y943477D01*
X1443938Y942316D01*
X1441531Y940469D01*
X1439684Y938062D01*
X1438523Y935258D01*
X1438127Y932250D01*
X1438523Y929242D01*
X1439684Y926438D01*
X1441531Y924031D01*
X1443938Y922184D01*
X1446742Y921023D01*
X1449750Y920627D01*
X1452758Y921023D01*
X1455562Y922184D01*
X1457969Y924031D01*
X1459816Y926438D01*
X1460524Y928147D01*
X1473250D01*
X1474820Y928459D01*
X1476151Y929349D01*
X1490651Y943849D01*
X1491541Y945180D01*
X1491853Y946750D01*
Y985000D01*
X1491541Y986570D01*
X1490651Y987901D01*
X1489320Y988791D01*
X1487750Y989103D01*
X1486180Y988791D01*
X1484849Y987901D01*
X1484526Y987578D01*
X1483353Y988064D01*
Y1018301D01*
X1492651Y1027599D01*
X1493540Y1028930D01*
X1493853Y1030500D01*
Y1050750D01*
X1493540Y1052320D01*
X1492651Y1053651D01*
X1488401Y1057901D01*
X1487070Y1058791D01*
X1485500Y1059103D01*
X1473024D01*
Y1060024D01*
X1467853D01*
Y1097726D01*
X1470524D01*
Y1106774D01*
X1464324D01*
X1464160Y1106993D01*
X1464454Y1108717D01*
X1464651Y1108849D01*
X1472901Y1117099D01*
X1473790Y1118430D01*
X1474103Y1120000D01*
X1473790Y1121570D01*
X1472901Y1122901D01*
X1471570Y1123791D01*
X1470000Y1124103D01*
X1468430Y1123791D01*
X1467099Y1122901D01*
X1460051Y1115853D01*
X1447524D01*
Y1116274D01*
X1433976D01*
Y1115853D01*
X1429449D01*
X1425518Y1119784D01*
X1424187Y1120674D01*
X1423869Y1120737D01*
Y1122977D01*
X1408631D01*
Y1120986D01*
X1401883D01*
X1401214Y1120853D01*
X1387774D01*
Y1122274D01*
X1375726D01*
Y1111226D01*
X1387774D01*
Y1112647D01*
X1401750D01*
X1402419Y1112780D01*
X1408631D01*
Y1110789D01*
X1422909D01*
X1424849Y1108849D01*
X1426180Y1107960D01*
X1427750Y1107647D01*
X1433976D01*
Y1107226D01*
X1447524D01*
X1447897Y1106111D01*
Y1098389D01*
X1447524Y1097274D01*
X1446627Y1097274D01*
X1433976D01*
Y1093528D01*
X1428668Y1088220D01*
X1423869D01*
Y1090211D01*
X1408631D01*
Y1088220D01*
X1405832D01*
X1402603Y1091449D01*
Y1095000D01*
X1402290Y1096570D01*
X1401401Y1097901D01*
X1400070Y1098791D01*
X1398500Y1099103D01*
X1396930Y1098791D01*
X1395599Y1097901D01*
X1394709Y1096570D01*
X1394397Y1095000D01*
Y1089750D01*
X1394709Y1088180D01*
X1395599Y1086849D01*
X1401232Y1081216D01*
X1402563Y1080327D01*
X1404133Y1080014D01*
X1408631D01*
Y1078147D01*
X1408631Y1078023D01*
X1408332Y1076877D01*
X1363925D01*
X1362353Y1078449D01*
Y1105750D01*
X1362041Y1107320D01*
X1361151Y1108651D01*
X1356751Y1113051D01*
X1355420Y1113941D01*
X1353850Y1114253D01*
X1349093D01*
Y1114849D01*
X1330805D01*
Y1105451D01*
X1349093D01*
Y1106047D01*
X1352151D01*
X1354147Y1104051D01*
Y1076750D01*
X1354460Y1075180D01*
X1355349Y1073849D01*
X1359325Y1069873D01*
X1360656Y1068984D01*
X1362226Y1068671D01*
X1366027D01*
X1366647Y1068051D01*
Y1055064D01*
X1365474Y1054578D01*
X1364901Y1055151D01*
X1363570Y1056040D01*
X1362000Y1056353D01*
X1361524D01*
Y1058024D01*
X1349476D01*
Y1056353D01*
X1327449D01*
X1308851Y1074951D01*
X1307520Y1075841D01*
X1307407Y1075863D01*
X1307268Y1076354D01*
X1307273Y1077185D01*
X1308401Y1077938D01*
X1323810Y1093347D01*
X1330805D01*
Y1092751D01*
X1349093D01*
Y1102149D01*
X1330805D01*
Y1101553D01*
X1322110D01*
X1320540Y1101240D01*
X1319209Y1100351D01*
X1302599Y1083741D01*
X1301709Y1082410D01*
X1301397Y1080839D01*
X1301709Y1079269D01*
X1302599Y1077938D01*
X1303370Y1077423D01*
X1302985Y1076153D01*
X1295195D01*
Y1076749D01*
X1276907D01*
Y1067351D01*
X1295195D01*
Y1067947D01*
X1304251D01*
X1314671Y1057526D01*
X1314185Y1056353D01*
X1286750D01*
X1285180Y1056040D01*
X1283849Y1055151D01*
X1248801Y1020103D01*
X1220199D01*
X1213143Y1027159D01*
Y1045210D01*
X1212831Y1046780D01*
X1211941Y1048111D01*
X1205603Y1054449D01*
Y1054500D01*
X1205291Y1056070D01*
X1204401Y1057401D01*
X1203070Y1058290D01*
X1201500Y1058603D01*
X1199930Y1058290D01*
X1198599Y1057401D01*
X1197710Y1056070D01*
X1197397Y1054500D01*
Y1052750D01*
X1197587Y1051796D01*
X1196416Y1051170D01*
X1186328Y1061258D01*
Y1090828D01*
X1187226Y1091726D01*
X1187598Y1091726D01*
X1189301D01*
X1189459Y1090930D01*
X1190349Y1089599D01*
X1196849Y1083099D01*
X1198180Y1082209D01*
X1199750Y1081897D01*
X1211226D01*
Y1076476D01*
X1220274D01*
Y1095524D01*
X1220855Y1096553D01*
X1224949Y1100647D01*
X1226250D01*
X1227820Y1100959D01*
X1229151Y1101849D01*
X1230041Y1103180D01*
X1230353Y1104750D01*
X1230041Y1106320D01*
X1229151Y1107651D01*
X1227820Y1108540D01*
X1226250Y1108853D01*
X1223250D01*
X1221680Y1108540D01*
X1220349Y1107651D01*
X1212849Y1100151D01*
X1211960Y1098820D01*
X1211647Y1097250D01*
Y1095524D01*
X1211226D01*
Y1090103D01*
X1201449D01*
X1199274Y1092278D01*
Y1102774D01*
X1187598D01*
X1187226Y1102774D01*
X1186328Y1103672D01*
Y1104828D01*
X1187226Y1105726D01*
X1187598Y1105726D01*
X1199274D01*
Y1116774D01*
X1198622D01*
X1198096Y1118044D01*
X1200499Y1120447D01*
X1210976D01*
Y1115026D01*
X1220024D01*
Y1134074D01*
X1210976D01*
Y1128653D01*
X1198800D01*
X1197230Y1128341D01*
X1195899Y1127451D01*
X1190349Y1121901D01*
X1189459Y1120570D01*
X1189147Y1119000D01*
Y1117672D01*
X1188424Y1116948D01*
X1187051Y1116949D01*
X1186328Y1117672D01*
Y1148529D01*
X1200921Y1163122D01*
X1218828D01*
X1222172Y1159779D01*
Y1156074D01*
X1220476D01*
Y1137026D01*
X1229524D01*
Y1156074D01*
X1227828D01*
Y1160950D01*
X1227613Y1162032D01*
X1227000Y1162950D01*
X1222000Y1167950D01*
X1221082Y1168563D01*
X1220000Y1168778D01*
X1199750D01*
X1199750Y1168778D01*
D02*
G37*
G36*
X1295195Y1140249D02*
X1276907D01*
Y1130851D01*
X1295195D01*
Y1140249D01*
D02*
G37*
G36*
X311500Y1130132D02*
X309345Y1129703D01*
X307517Y1128482D01*
X306296Y1126654D01*
X305867Y1124499D01*
X306296Y1122343D01*
X307517Y1120516D01*
X309345Y1119295D01*
X311500Y1118866D01*
X313656Y1119295D01*
X315483Y1120516D01*
X316704Y1122343D01*
X317133Y1124499D01*
X316704Y1126654D01*
X315483Y1128482D01*
X313656Y1129703D01*
X311500Y1130132D01*
D02*
G37*
G36*
X1295195Y1127549D02*
X1276907D01*
Y1118151D01*
X1295195D01*
Y1127549D01*
D02*
G37*
G36*
X1156500Y1125598D02*
X1155027Y1125305D01*
X1153779Y1124471D01*
X1152945Y1123223D01*
X1152652Y1121750D01*
X1152945Y1120277D01*
X1153779Y1119029D01*
X1155027Y1118195D01*
X1156500Y1117902D01*
X1157113Y1118024D01*
X1158193Y1116944D01*
X1158908Y1116466D01*
X1159750Y1116299D01*
X1165976D01*
Y1112976D01*
X1178024D01*
Y1124024D01*
X1165976D01*
Y1120701D01*
X1161346D01*
X1160348Y1121750D01*
X1160055Y1123223D01*
X1159221Y1124471D01*
X1157972Y1125305D01*
X1156500Y1125598D01*
D02*
G37*
G36*
X344025Y1121794D02*
X320977D01*
Y1110745D01*
X344025D01*
Y1121794D01*
D02*
G37*
G36*
X1179040Y1111040D02*
X1173270D01*
Y1105770D01*
X1179040D01*
Y1111040D01*
D02*
G37*
G36*
X1170730D02*
X1164960D01*
Y1105770D01*
X1170730D01*
Y1111040D01*
D02*
G37*
G36*
X1239024Y1134074D02*
X1229976D01*
Y1115026D01*
X1239024D01*
Y1118479D01*
X1239951Y1119099D01*
X1240841Y1120430D01*
X1240844Y1120447D01*
X1251251D01*
X1253404Y1118294D01*
X1252878Y1117024D01*
X1252226D01*
Y1105976D01*
X1264274D01*
Y1106047D01*
X1276907D01*
Y1105451D01*
X1295195D01*
Y1114849D01*
X1276907D01*
Y1114253D01*
X1264274D01*
Y1117024D01*
X1262353D01*
Y1119250D01*
X1262041Y1120820D01*
X1261151Y1122151D01*
X1255851Y1127451D01*
X1254520Y1128341D01*
X1252950Y1128653D01*
X1239024D01*
Y1134074D01*
D02*
G37*
G36*
X1388790Y1109290D02*
X1383020D01*
Y1104020D01*
X1388790D01*
Y1109290D01*
D02*
G37*
G36*
X1380480D02*
X1374710D01*
Y1104020D01*
X1380480D01*
Y1109290D01*
D02*
G37*
G36*
X1516974Y1115149D02*
X1503426D01*
Y1101601D01*
X1516974D01*
Y1115149D01*
D02*
G37*
G36*
X1179040Y1103230D02*
X1173270D01*
Y1097960D01*
X1179040D01*
Y1103230D01*
D02*
G37*
G36*
X1170730D02*
X1164960D01*
Y1097960D01*
X1170730D01*
Y1103230D01*
D02*
G37*
G36*
X1548524Y1113399D02*
X1532476D01*
Y1097351D01*
X1548524D01*
Y1113399D01*
D02*
G37*
G36*
X1388790Y1101480D02*
X1383020D01*
Y1096210D01*
X1388790D01*
Y1101480D01*
D02*
G37*
G36*
X1380480D02*
X1374710D01*
Y1096210D01*
X1380480D01*
Y1101480D01*
D02*
G37*
G36*
X328274Y1107523D02*
X317225D01*
Y1095475D01*
X328274D01*
Y1107523D01*
D02*
G37*
G36*
X937290Y1100390D02*
X926020D01*
Y1094620D01*
X937290D01*
Y1100390D01*
D02*
G37*
G36*
X767290D02*
X756020D01*
Y1094620D01*
X767290D01*
Y1100390D01*
D02*
G37*
G36*
X753480D02*
X742210D01*
Y1094620D01*
X753480D01*
Y1100390D01*
D02*
G37*
G36*
X923480D02*
X912210D01*
Y1094620D01*
X923480D01*
Y1100390D01*
D02*
G37*
G36*
X1117131Y1096230D02*
X1113770D01*
Y1092869D01*
X1114369Y1092988D01*
X1115953Y1094047D01*
X1117012Y1095631D01*
X1117131Y1096230D01*
D02*
G37*
G36*
X1073730D02*
X1070369D01*
X1070488Y1095631D01*
X1071547Y1094047D01*
X1073131Y1092988D01*
X1073730Y1092869D01*
Y1096230D01*
D02*
G37*
G36*
X1264274Y1103024D02*
X1252226D01*
Y1092528D01*
X1249801Y1090103D01*
X1239274D01*
Y1095524D01*
X1230226D01*
Y1076476D01*
X1239274D01*
Y1081897D01*
X1251500D01*
X1253070Y1082209D01*
X1254401Y1083099D01*
X1261151Y1089849D01*
X1262041Y1091180D01*
X1262199Y1091976D01*
X1263628Y1091976D01*
X1263858Y1091420D01*
X1264154Y1090706D01*
X1263599Y1090151D01*
X1262710Y1088820D01*
X1262397Y1087250D01*
Y1087000D01*
X1262710Y1085430D01*
X1263599Y1084099D01*
X1264930Y1083210D01*
X1266500Y1082897D01*
X1268070Y1083210D01*
X1269401Y1084099D01*
X1269905Y1084852D01*
X1277803Y1092751D01*
X1295195D01*
Y1102149D01*
X1276907D01*
Y1101553D01*
X1276700D01*
X1275130Y1101240D01*
X1273799Y1100351D01*
X1265544Y1092096D01*
X1264274Y1092622D01*
X1264274Y1092989D01*
Y1103024D01*
D02*
G37*
G36*
X1141250Y1096848D02*
X1139778Y1096555D01*
X1138529Y1095721D01*
X1137695Y1094473D01*
X1137402Y1093000D01*
X1137524Y1092387D01*
X1135443Y1090306D01*
X1134966Y1089592D01*
X1134799Y1088750D01*
Y1081524D01*
X1130976D01*
Y1070476D01*
X1143024D01*
Y1081524D01*
X1139201D01*
Y1087838D01*
X1140637Y1089274D01*
X1141250Y1089152D01*
X1142722Y1089445D01*
X1143971Y1090279D01*
X1144805Y1091527D01*
X1145098Y1093000D01*
X1144805Y1094473D01*
X1143971Y1095721D01*
X1142722Y1096555D01*
X1141250Y1096848D01*
D02*
G37*
G36*
X1145500Y1105848D02*
X1144027Y1105555D01*
X1142779Y1104721D01*
X1141945Y1103473D01*
X1141652Y1102000D01*
X1141945Y1100527D01*
X1142779Y1099279D01*
X1144027Y1098445D01*
X1145500Y1098152D01*
X1146973Y1098445D01*
X1148221Y1099279D01*
X1148568Y1099799D01*
X1150288D01*
X1153543Y1096544D01*
X1153535Y1095274D01*
X1149726D01*
Y1084226D01*
X1161774D01*
Y1087172D01*
X1165976D01*
Y1084476D01*
X1178024D01*
Y1095524D01*
X1165976D01*
Y1092828D01*
X1161774D01*
Y1095274D01*
X1157951D01*
Y1097450D01*
X1157784Y1098292D01*
X1157307Y1099007D01*
X1152757Y1103557D01*
X1152042Y1104034D01*
X1151200Y1104201D01*
X1148568D01*
X1148221Y1104721D01*
X1146973Y1105555D01*
X1145500Y1105848D01*
D02*
G37*
G36*
X1349093Y1089449D02*
X1330805D01*
Y1088853D01*
X1325200D01*
X1323630Y1088540D01*
X1322299Y1087651D01*
X1321409Y1086320D01*
X1321097Y1084750D01*
X1321409Y1083180D01*
X1322299Y1081849D01*
X1323630Y1080959D01*
X1325200Y1080647D01*
X1330805D01*
Y1080051D01*
X1349093D01*
Y1089449D01*
D02*
G37*
G36*
X1295195D02*
X1276907D01*
Y1080051D01*
X1295195D01*
Y1089449D01*
D02*
G37*
G36*
X1179040Y1082540D02*
X1173270D01*
Y1077270D01*
X1179040D01*
Y1082540D01*
D02*
G37*
G36*
X1170730D02*
X1164960D01*
Y1077270D01*
X1170730D01*
Y1082540D01*
D02*
G37*
G36*
X1162790Y1082290D02*
X1157020D01*
Y1077020D01*
X1162790D01*
Y1082290D01*
D02*
G37*
G36*
X1154480D02*
X1148710D01*
Y1077020D01*
X1154480D01*
Y1082290D01*
D02*
G37*
G36*
X1350109Y1077765D02*
X1341219D01*
Y1073320D01*
X1350109D01*
Y1077765D01*
D02*
G37*
G36*
X1338679D02*
X1329789D01*
Y1073320D01*
X1338679D01*
Y1077765D01*
D02*
G37*
G36*
X1179040Y1074730D02*
X1173270D01*
Y1069460D01*
X1179040D01*
Y1074730D01*
D02*
G37*
G36*
X1170730D02*
X1164960D01*
Y1069460D01*
X1170730D01*
Y1074730D01*
D02*
G37*
G36*
X1162790Y1074480D02*
X1157020D01*
Y1069210D01*
X1162790D01*
Y1074480D01*
D02*
G37*
G36*
X1154480D02*
X1148710D01*
Y1069210D01*
X1154480D01*
Y1074480D01*
D02*
G37*
G36*
X1350109Y1070780D02*
X1341219D01*
Y1066335D01*
X1350109D01*
Y1070780D01*
D02*
G37*
G36*
X1338679D02*
X1329789D01*
Y1066335D01*
X1338679D01*
Y1070780D01*
D02*
G37*
G36*
X388501Y1126402D02*
X386146Y1126092D01*
X383950Y1125183D01*
X382065Y1123736D01*
X380619Y1121851D01*
X379710Y1119656D01*
X379399Y1117300D01*
X379710Y1114944D01*
X380619Y1112749D01*
X382065Y1110864D01*
X383950Y1109418D01*
X386146Y1108508D01*
X388501Y1108198D01*
X390857Y1108508D01*
X393052Y1109418D01*
X394937Y1110864D01*
X396384Y1112749D01*
X396569Y1113197D01*
X477250D01*
X525599Y1064849D01*
X526930Y1063960D01*
X528500Y1063647D01*
X705000D01*
X706570Y1063960D01*
X707901Y1064849D01*
X708791Y1066180D01*
X709103Y1067750D01*
X708791Y1069320D01*
X707901Y1070651D01*
X706570Y1071541D01*
X705000Y1071853D01*
X530199D01*
X481851Y1120201D01*
X480520Y1121091D01*
X478950Y1121403D01*
X396569D01*
X396384Y1121851D01*
X394937Y1123736D01*
X393052Y1125183D01*
X390857Y1126092D01*
X388501Y1126402D01*
D02*
G37*
G36*
X1144040Y1068540D02*
X1138270D01*
Y1063270D01*
X1144040D01*
Y1068540D01*
D02*
G37*
G36*
X1135730D02*
X1129960D01*
Y1063270D01*
X1135730D01*
Y1068540D01*
D02*
G37*
G36*
X1144040Y1060730D02*
X1138270D01*
Y1055460D01*
X1144040D01*
Y1060730D01*
D02*
G37*
G36*
X1135730D02*
X1129960D01*
Y1055460D01*
X1135730D01*
Y1060730D01*
D02*
G37*
G36*
X388501Y1151802D02*
X386146Y1151492D01*
X383950Y1150583D01*
X382065Y1149136D01*
X380619Y1147251D01*
X379710Y1145056D01*
X379399Y1142700D01*
X379710Y1140344D01*
X380619Y1138149D01*
X382065Y1136264D01*
X383950Y1134818D01*
X386146Y1133908D01*
X388501Y1133598D01*
X390857Y1133908D01*
X393052Y1134818D01*
X394937Y1136264D01*
X396384Y1138149D01*
X396569Y1138597D01*
X480350D01*
X541199Y1077749D01*
X542530Y1076860D01*
X544100Y1076547D01*
X742328D01*
X743226Y1075649D01*
X743226Y1074300D01*
X743226Y1073356D01*
Y1062290D01*
X742210D01*
Y1056520D01*
X767290D01*
Y1062290D01*
X766274D01*
Y1063847D01*
X772601D01*
X785897Y1050551D01*
Y995000D01*
X786209Y993430D01*
X787099Y992099D01*
X802099Y977099D01*
X803430Y976209D01*
X805000Y975897D01*
X896900D01*
X898470Y976209D01*
X899801Y977099D01*
X900691Y978430D01*
X901003Y980000D01*
X900691Y981570D01*
X899801Y982901D01*
X898470Y983791D01*
X896900Y984103D01*
X806700D01*
X794103Y996700D01*
Y1052250D01*
X793791Y1053820D01*
X792901Y1055151D01*
X777201Y1070851D01*
X775870Y1071740D01*
X774300Y1072053D01*
X767172D01*
X766274Y1072951D01*
X766274Y1074300D01*
X766274Y1075244D01*
Y1076547D01*
X813401D01*
X837599Y1052349D01*
X838930Y1051460D01*
X840500Y1051147D01*
X886500D01*
X888070Y1051460D01*
X889401Y1052349D01*
X890291Y1053680D01*
X890603Y1055250D01*
X890291Y1056820D01*
X889401Y1058151D01*
X888070Y1059041D01*
X886500Y1059353D01*
X842199D01*
X818001Y1083551D01*
X816670Y1084441D01*
X815100Y1084753D01*
X766274D01*
Y1086310D01*
X767290D01*
Y1092080D01*
X742210D01*
Y1086310D01*
X743226D01*
Y1084753D01*
X545799D01*
X484951Y1145601D01*
X483620Y1146491D01*
X482050Y1146803D01*
X396569D01*
X396384Y1147251D01*
X394937Y1149136D01*
X393052Y1150583D01*
X390857Y1151492D01*
X388501Y1151802D01*
D02*
G37*
G36*
Y1101002D02*
X386146Y1100692D01*
X383950Y1099783D01*
X382065Y1098336D01*
X380619Y1096451D01*
X379710Y1094256D01*
X379399Y1091900D01*
X379710Y1089544D01*
X380619Y1087349D01*
X382065Y1085464D01*
X383950Y1084018D01*
X386146Y1083108D01*
X388501Y1082798D01*
X390857Y1083108D01*
X393052Y1084018D01*
X394937Y1085464D01*
X396384Y1087349D01*
X396569Y1087797D01*
X470900D01*
X505599Y1053099D01*
X506930Y1052209D01*
X508500Y1051897D01*
X707551D01*
X712349Y1047099D01*
X713680Y1046209D01*
X715250Y1045897D01*
X716820Y1046209D01*
X718151Y1047099D01*
X719041Y1048430D01*
X719353Y1050000D01*
X719041Y1051570D01*
X718151Y1052901D01*
X712151Y1058901D01*
X710820Y1059790D01*
X709250Y1060103D01*
X510199D01*
X475501Y1094801D01*
X474170Y1095691D01*
X472600Y1096003D01*
X396569D01*
X396384Y1096451D01*
X394937Y1098336D01*
X393052Y1099783D01*
X390857Y1100692D01*
X388501Y1101002D01*
D02*
G37*
G36*
X767290Y1053980D02*
X742210D01*
Y1048210D01*
Y1043820D01*
X767290D01*
Y1048210D01*
Y1053980D01*
D02*
G37*
G36*
X426524Y1048274D02*
X414476D01*
Y1046653D01*
X347550D01*
X345980Y1046340D01*
X344649Y1045451D01*
X342101Y1042903D01*
X331024D01*
Y1047824D01*
X312976D01*
Y1029776D01*
X331024D01*
Y1034697D01*
X343800D01*
X345370Y1035010D01*
X346701Y1035899D01*
X349249Y1038447D01*
X414476D01*
Y1037226D01*
X426524D01*
Y1038447D01*
X436588D01*
X437040Y1038357D01*
X561976D01*
Y1036976D01*
X574024D01*
Y1038357D01*
X684591D01*
X689345Y1033602D01*
X689849Y1032849D01*
X691180Y1031960D01*
X692750Y1031647D01*
X709476D01*
Y1028226D01*
X721524D01*
Y1039274D01*
X715469D01*
X715070Y1039540D01*
X713500Y1039853D01*
X694699D01*
X689191Y1045361D01*
X687860Y1046251D01*
X686290Y1046563D01*
X574024D01*
Y1048024D01*
X561976D01*
Y1046563D01*
X437402D01*
X436950Y1046653D01*
X426524D01*
Y1048274D01*
D02*
G37*
G36*
X1354230Y1045040D02*
X1348460D01*
Y1039770D01*
X1354230D01*
Y1045040D01*
D02*
G37*
G36*
X1362540Y1037230D02*
X1356770D01*
Y1031960D01*
X1362540D01*
Y1037230D01*
D02*
G37*
G36*
X1354230D02*
X1348460D01*
Y1031960D01*
X1354230D01*
Y1037230D01*
D02*
G37*
G36*
X1055040Y1037040D02*
X1049770D01*
Y1031270D01*
X1055040D01*
Y1037040D01*
D02*
G37*
G36*
X1047230D02*
X1041960D01*
Y1031270D01*
X1047230D01*
Y1037040D01*
D02*
G37*
G36*
X1229774Y1073524D02*
X1220726D01*
Y1054476D01*
X1221147D01*
Y1034000D01*
X1221460Y1032430D01*
X1222349Y1031099D01*
X1228599Y1024849D01*
X1229930Y1023960D01*
X1231500Y1023647D01*
X1233070Y1023960D01*
X1234401Y1024849D01*
X1235291Y1026180D01*
X1235603Y1027750D01*
X1235291Y1029320D01*
X1234401Y1030651D01*
X1229353Y1035699D01*
Y1054476D01*
X1229774D01*
Y1073524D01*
D02*
G37*
G36*
X1055040Y1028730D02*
X1049770D01*
Y1022960D01*
X1055040D01*
Y1028730D01*
D02*
G37*
G36*
X1047230D02*
X1041960D01*
Y1022960D01*
X1047230D01*
Y1028730D01*
D02*
G37*
G36*
X857290Y1045890D02*
X831020D01*
Y1019620D01*
X857290D01*
Y1045890D01*
D02*
G37*
G36*
X828480D02*
X802210D01*
Y1019620D01*
X828480D01*
Y1045890D01*
D02*
G37*
G36*
X1055040Y1021290D02*
X1049770D01*
Y1015520D01*
X1055040D01*
Y1021290D01*
D02*
G37*
G36*
X1047230D02*
X1041960D01*
Y1015520D01*
X1047230D01*
Y1021290D01*
D02*
G37*
G36*
X1292540Y1019790D02*
X1287270D01*
Y1014020D01*
X1292540D01*
Y1019790D01*
D02*
G37*
G36*
X1284730D02*
X1279460D01*
Y1014020D01*
X1284730D01*
Y1019790D01*
D02*
G37*
G36*
X1466790Y1019040D02*
X1461520D01*
Y1013270D01*
X1466790D01*
Y1019040D01*
D02*
G37*
G36*
X1458980D02*
X1453710D01*
Y1013270D01*
X1458980D01*
Y1019040D01*
D02*
G37*
G36*
X426524Y1034274D02*
X414476D01*
Y1023226D01*
X416397D01*
Y1012000D01*
X416710Y1010430D01*
X417599Y1009099D01*
X418930Y1008210D01*
X420500Y1007897D01*
X422070Y1008210D01*
X423401Y1009099D01*
X424291Y1010430D01*
X424603Y1012000D01*
Y1023226D01*
X426524D01*
Y1034274D01*
D02*
G37*
G36*
X1055040Y1012980D02*
X1049770D01*
Y1007210D01*
X1055040D01*
Y1012980D01*
D02*
G37*
G36*
X1047230D02*
X1041960D01*
Y1007210D01*
X1047230D01*
Y1012980D01*
D02*
G37*
G36*
X574024Y1034024D02*
X561976D01*
Y1022976D01*
X563897D01*
Y1010750D01*
X564210Y1009180D01*
X565099Y1007849D01*
X566430Y1006960D01*
X568000Y1006647D01*
X569570Y1006960D01*
X570901Y1007849D01*
X571791Y1009180D01*
X572103Y1010750D01*
Y1022976D01*
X574024D01*
Y1034024D01*
D02*
G37*
G36*
X1292540Y1011480D02*
X1287270D01*
Y1005710D01*
X1292540D01*
Y1011480D01*
D02*
G37*
G36*
X1284730D02*
X1279460D01*
Y1005710D01*
X1284730D01*
Y1011480D01*
D02*
G37*
G36*
X1466790Y1010730D02*
X1461520D01*
Y1004960D01*
X1466790D01*
Y1010730D01*
D02*
G37*
G36*
X1458980D02*
X1453710D01*
Y1004960D01*
X1458980D01*
Y1010730D01*
D02*
G37*
G36*
X322000Y1022502D02*
X319644Y1022192D01*
X317449Y1021282D01*
X315564Y1019836D01*
X314118Y1017951D01*
X313208Y1015756D01*
X312898Y1013400D01*
X313208Y1011044D01*
X314118Y1008849D01*
X315564Y1006964D01*
X317449Y1005518D01*
X319644Y1004608D01*
X322000Y1004298D01*
X324356Y1004608D01*
X326551Y1005518D01*
X328436Y1006964D01*
X329882Y1008849D01*
X330792Y1011044D01*
X331102Y1013400D01*
X330792Y1015756D01*
X329882Y1017951D01*
X328436Y1019836D01*
X326551Y1021282D01*
X324356Y1022192D01*
X322000Y1022502D01*
D02*
G37*
G36*
X721524Y1025274D02*
X709476D01*
Y1014226D01*
X711397D01*
Y1010449D01*
X709349Y1008401D01*
X708459Y1007070D01*
X708147Y1005500D01*
X708459Y1003930D01*
X709349Y1002599D01*
X710680Y1001710D01*
X712250Y1001397D01*
X713820Y1001710D01*
X715151Y1002599D01*
X718401Y1005849D01*
X719290Y1007180D01*
X719603Y1008750D01*
Y1014226D01*
X721524D01*
Y1025274D01*
D02*
G37*
G36*
X1408973Y1010024D02*
X1380925D01*
Y991976D01*
X1408973D01*
Y994897D01*
X1416476D01*
Y993476D01*
X1428524D01*
Y1004524D01*
X1416476D01*
Y1003103D01*
X1408973D01*
Y1010024D01*
D02*
G37*
G36*
X857290Y1017080D02*
X831020D01*
Y990810D01*
X857290D01*
Y1017080D01*
D02*
G37*
G36*
X828480D02*
X802210D01*
Y990810D01*
X828480D01*
Y1017080D01*
D02*
G37*
G36*
X322000Y997102D02*
X319644Y996792D01*
X317449Y995882D01*
X315564Y994436D01*
X314118Y992551D01*
X313208Y990356D01*
X312898Y988000D01*
X313208Y985644D01*
X314118Y983449D01*
X315564Y981564D01*
X317449Y980118D01*
X319644Y979208D01*
X322000Y978898D01*
X324356Y979208D01*
X326551Y980118D01*
X328436Y981564D01*
X329882Y983449D01*
X330792Y985644D01*
X331102Y988000D01*
X330792Y990356D01*
X329882Y992551D01*
X328436Y994436D01*
X326551Y995882D01*
X324356Y996792D01*
X322000Y997102D01*
D02*
G37*
G36*
X767290Y1041280D02*
X742210D01*
Y1035510D01*
X743226D01*
Y1024444D01*
X743226Y1023500D01*
X743226Y1022556D01*
Y1011744D01*
X743226Y1010800D01*
X743226Y1009856D01*
Y999044D01*
X743226Y998100D01*
X743226Y997156D01*
Y986344D01*
X743226Y985400D01*
X743226Y984456D01*
Y973644D01*
X743226Y972700D01*
X743226Y971756D01*
Y960944D01*
X743226Y960000D01*
X743226Y959056D01*
Y948244D01*
X743226Y947300D01*
X743226Y946356D01*
Y935544D01*
X743226Y934600D01*
X743226Y933656D01*
Y922226D01*
X766274D01*
Y933656D01*
X766274Y934600D01*
X766274Y935544D01*
Y938122D01*
X772135D01*
X772819Y937099D01*
X774150Y936209D01*
X775720Y935897D01*
X777290Y936209D01*
X778621Y937099D01*
X779510Y938430D01*
X779823Y940000D01*
X779510Y941570D01*
X778621Y942901D01*
X777290Y943791D01*
X775720Y944103D01*
X774150Y943791D01*
X774132Y943778D01*
X767172D01*
X766274Y944676D01*
X766274Y947300D01*
X766274Y948244D01*
Y950822D01*
X774370D01*
X775235Y950994D01*
X775720Y950897D01*
X777290Y951209D01*
X778621Y952099D01*
X779510Y953430D01*
X779823Y955000D01*
X779510Y956570D01*
X778621Y957901D01*
X777290Y958791D01*
X775720Y959103D01*
X774150Y958791D01*
X772819Y957901D01*
X771929Y956570D01*
X771911Y956478D01*
X767172D01*
X766274Y957376D01*
X766274Y960000D01*
X766274Y960944D01*
Y963522D01*
X773798D01*
X773816Y963430D01*
X774706Y962099D01*
X776037Y961209D01*
X777607Y960897D01*
X779177Y961209D01*
X780508Y962099D01*
X781397Y963430D01*
X781710Y965000D01*
X781397Y966570D01*
X780508Y967901D01*
X779177Y968791D01*
X777607Y969103D01*
X777122Y969006D01*
X776257Y969178D01*
X767172D01*
X766274Y970076D01*
X766274Y972700D01*
X766274Y973644D01*
Y977172D01*
X774657D01*
X774706Y977099D01*
X776037Y976209D01*
X777607Y975897D01*
X779177Y976209D01*
X780508Y977099D01*
X781397Y978430D01*
X781710Y980000D01*
X781397Y981570D01*
X780508Y982901D01*
X779177Y983791D01*
X777607Y984103D01*
X776037Y983791D01*
X774706Y982901D01*
X774657Y982828D01*
X767172D01*
X766274Y983726D01*
X766274Y985400D01*
X766274Y986344D01*
Y997156D01*
X766274Y998100D01*
X766274Y999044D01*
Y1011499D01*
X767172Y1012397D01*
X776750D01*
X778320Y1012710D01*
X779651Y1013599D01*
X780540Y1014930D01*
X780853Y1016500D01*
X780540Y1018070D01*
X779651Y1019401D01*
X778320Y1020291D01*
X776750Y1020603D01*
X767172D01*
X766274Y1021501D01*
X766274Y1023500D01*
X766274Y1024444D01*
Y1035510D01*
X767290D01*
Y1041280D01*
D02*
G37*
G36*
X323270Y972559D02*
Y963870D01*
X331959D01*
X331782Y965221D01*
X330770Y967663D01*
X329161Y969761D01*
X327063Y971370D01*
X324621Y972382D01*
X323270Y972559D01*
D02*
G37*
G36*
X320730Y972559D02*
X319379Y972382D01*
X316937Y971370D01*
X314839Y969761D01*
X313230Y967663D01*
X312218Y965221D01*
X312041Y963870D01*
X320730D01*
Y972559D01*
D02*
G37*
G36*
X1471790Y968490D02*
X1466020D01*
Y963220D01*
X1471790D01*
Y968490D01*
D02*
G37*
G36*
X1463480D02*
X1457710D01*
Y963220D01*
X1463480D01*
Y968490D01*
D02*
G37*
G36*
X1409989Y966040D02*
X1396219D01*
Y957270D01*
X1409989D01*
Y966040D01*
D02*
G37*
G36*
X1393679D02*
X1379909D01*
Y957270D01*
X1393679D01*
Y966040D01*
D02*
G37*
G36*
X1357449Y1000150D02*
X1327449D01*
X1327146Y1000024D01*
X1324675D01*
Y956976D01*
X1327146D01*
X1327449Y956850D01*
X1357449D01*
X1357753Y956976D01*
X1360223D01*
Y1000024D01*
X1357753D01*
X1357449Y1000150D01*
D02*
G37*
G36*
X1471790Y960680D02*
X1466020D01*
Y955410D01*
X1471790D01*
Y960680D01*
D02*
G37*
G36*
X1463480D02*
X1457710D01*
Y955410D01*
X1463480D01*
Y960680D01*
D02*
G37*
G36*
X1456290Y960730D02*
X1451020D01*
Y954960D01*
X1456290D01*
Y960730D01*
D02*
G37*
G36*
X1448480D02*
X1443210D01*
Y954960D01*
X1448480D01*
Y960730D01*
D02*
G37*
G36*
X320730Y961330D02*
X312041D01*
X312218Y959979D01*
X313230Y957537D01*
X314839Y955439D01*
X316937Y953830D01*
X319379Y952818D01*
X320730Y952641D01*
Y961330D01*
D02*
G37*
G36*
X331959D02*
X323270D01*
Y952641D01*
X324621Y952818D01*
X327063Y953830D01*
X329161Y955439D01*
X330770Y957537D01*
X331782Y959979D01*
X331959Y961330D01*
D02*
G37*
G36*
X879250Y944103D02*
X875500D01*
X873930Y943791D01*
X872599Y942901D01*
X871710Y941570D01*
X871397Y940000D01*
X871422Y939875D01*
X871397Y939750D01*
X871710Y938180D01*
X872599Y936849D01*
X873930Y935959D01*
X875500Y935647D01*
X876757Y935897D01*
X877551D01*
X880097Y933351D01*
Y930672D01*
X879199Y929774D01*
X877850Y929774D01*
X876906Y929774D01*
X865476D01*
Y929774D01*
X864824D01*
Y929774D01*
X852776D01*
Y929774D01*
X852124D01*
Y929774D01*
X840076D01*
Y929774D01*
X839424D01*
Y929774D01*
X827994D01*
X827050Y929774D01*
X826106Y929774D01*
X815294D01*
X814350Y929774D01*
X813406Y929774D01*
X802594D01*
X801650Y929774D01*
X800706Y929774D01*
X789640D01*
Y930790D01*
X783870D01*
Y918250D01*
Y905710D01*
X789640D01*
Y906726D01*
X800706D01*
X801650Y906726D01*
X802594Y906726D01*
X813406D01*
X814350Y906726D01*
X815294Y906726D01*
X826106D01*
X827050Y906726D01*
X827994Y906726D01*
X831209D01*
Y898850D01*
X831376Y898011D01*
X831851Y897301D01*
X834701Y894451D01*
X835412Y893976D01*
X836250Y893809D01*
X1050750D01*
X1051589Y893976D01*
X1052299Y894451D01*
X1060299Y902451D01*
X1060774Y903161D01*
X1060941Y904000D01*
Y920915D01*
X1061758Y921023D01*
X1064562Y922184D01*
X1066969Y924031D01*
X1068816Y926438D01*
X1069977Y929242D01*
X1070373Y932250D01*
X1069977Y935258D01*
X1068816Y938062D01*
X1066969Y940469D01*
X1064562Y942316D01*
X1061758Y943477D01*
X1058750Y943873D01*
X1055742Y943477D01*
X1052938Y942316D01*
X1050531Y940469D01*
X1048684Y938062D01*
X1047523Y935258D01*
X1047127Y932250D01*
X1047523Y929242D01*
X1048684Y926438D01*
X1050531Y924031D01*
X1052938Y922184D01*
X1055742Y921023D01*
X1056559Y920915D01*
Y904908D01*
X1049842Y898191D01*
X1028949D01*
X1028463Y899364D01*
X1033299Y904201D01*
X1033774Y904911D01*
X1033941Y905750D01*
Y920915D01*
X1034758Y921023D01*
X1037562Y922184D01*
X1039969Y924031D01*
X1041816Y926438D01*
X1042977Y929242D01*
X1043373Y932250D01*
X1042977Y935258D01*
X1041816Y938062D01*
X1039969Y940469D01*
X1037562Y942316D01*
X1034758Y943477D01*
X1031750Y943873D01*
X1028742Y943477D01*
X1025938Y942316D01*
X1023531Y940469D01*
X1021684Y938062D01*
X1020523Y935258D01*
X1020127Y932250D01*
X1020523Y929242D01*
X1021684Y926438D01*
X1023531Y924031D01*
X1025938Y922184D01*
X1028742Y921023D01*
X1029559Y920915D01*
Y906658D01*
X1023592Y900691D01*
X1001199D01*
X1000713Y901864D01*
X1006299Y907451D01*
X1006774Y908161D01*
X1006941Y909000D01*
Y920915D01*
X1007758Y921023D01*
X1010562Y922184D01*
X1012969Y924031D01*
X1014816Y926438D01*
X1015977Y929242D01*
X1016373Y932250D01*
X1015977Y935258D01*
X1014816Y938062D01*
X1012969Y940469D01*
X1010562Y942316D01*
X1007758Y943477D01*
X1004750Y943873D01*
X1001742Y943477D01*
X998938Y942316D01*
X996531Y940469D01*
X994684Y938062D01*
X993523Y935258D01*
X993127Y932250D01*
X993523Y929242D01*
X994684Y926438D01*
X996531Y924031D01*
X998938Y922184D01*
X1001742Y921023D01*
X1002559Y920915D01*
Y909908D01*
X995592Y902941D01*
X974449D01*
X973963Y904114D01*
X979299Y909451D01*
X979774Y910162D01*
X979941Y911000D01*
Y920915D01*
X980758Y921023D01*
X983562Y922184D01*
X985969Y924031D01*
X987816Y926438D01*
X988977Y929242D01*
X989373Y932250D01*
X988977Y935258D01*
X987816Y938062D01*
X985969Y940469D01*
X983562Y942316D01*
X980758Y943477D01*
X977750Y943873D01*
X974742Y943477D01*
X971938Y942316D01*
X969531Y940469D01*
X967684Y938062D01*
X966523Y935258D01*
X966127Y932250D01*
X966523Y929242D01*
X967684Y926438D01*
X969531Y924031D01*
X971938Y922184D01*
X974742Y921023D01*
X975559Y920915D01*
Y911908D01*
X969092Y905441D01*
X875511D01*
X875501Y905456D01*
X876180Y906726D01*
X877850Y906726D01*
X878794Y906726D01*
X889606D01*
X890550Y906726D01*
X891494Y906726D01*
X902924D01*
Y929774D01*
X891494D01*
X890550Y929774D01*
X889606Y929774D01*
X888303D01*
Y935050D01*
X887990Y936620D01*
X887101Y937951D01*
X882151Y942901D01*
X880820Y943791D01*
X879250Y944103D01*
D02*
G37*
G36*
X781330Y930790D02*
X775560D01*
Y919520D01*
X781330D01*
Y930790D01*
D02*
G37*
G36*
Y916980D02*
X775560D01*
Y905710D01*
X781330D01*
Y916980D01*
D02*
G37*
G36*
X1088024Y919244D02*
X1069976D01*
Y901196D01*
X1088024D01*
Y919244D01*
D02*
G37*
G36*
X1282200Y919322D02*
X1279844Y919012D01*
X1277649Y918102D01*
X1275764Y916656D01*
X1274318Y914771D01*
X1273408Y912576D01*
X1273098Y910220D01*
X1273408Y907864D01*
X1274318Y905669D01*
X1275764Y903784D01*
X1277649Y902338D01*
X1279844Y901428D01*
X1282200Y901118D01*
X1284556Y901428D01*
X1286751Y902338D01*
X1288636Y903784D01*
X1290082Y905669D01*
X1290992Y907864D01*
X1291302Y910220D01*
X1290992Y912576D01*
X1290082Y914771D01*
X1288636Y916656D01*
X1286751Y918102D01*
X1284556Y919012D01*
X1282200Y919322D01*
D02*
G37*
G36*
X1256800D02*
X1254444Y919012D01*
X1252249Y918102D01*
X1250364Y916656D01*
X1248918Y914771D01*
X1248008Y912576D01*
X1247698Y910220D01*
X1248008Y907864D01*
X1248918Y905669D01*
X1250364Y903784D01*
X1252249Y902338D01*
X1254444Y901428D01*
X1256800Y901118D01*
X1259156Y901428D01*
X1261351Y902338D01*
X1263236Y903784D01*
X1264682Y905669D01*
X1265592Y907864D01*
X1265902Y910220D01*
X1265592Y912576D01*
X1264682Y914771D01*
X1263236Y916656D01*
X1261351Y918102D01*
X1259156Y919012D01*
X1256800Y919322D01*
D02*
G37*
G36*
X1231400D02*
X1229044Y919012D01*
X1226849Y918102D01*
X1224964Y916656D01*
X1223518Y914771D01*
X1222608Y912576D01*
X1222298Y910220D01*
X1222608Y907864D01*
X1223518Y905669D01*
X1224964Y903784D01*
X1226849Y902338D01*
X1229044Y901428D01*
X1231400Y901118D01*
X1233756Y901428D01*
X1235951Y902338D01*
X1237836Y903784D01*
X1239282Y905669D01*
X1240192Y907864D01*
X1240502Y910220D01*
X1240192Y912576D01*
X1239282Y914771D01*
X1237836Y916656D01*
X1235951Y918102D01*
X1233756Y919012D01*
X1231400Y919322D01*
D02*
G37*
G36*
X1206000D02*
X1203644Y919012D01*
X1201449Y918102D01*
X1199564Y916656D01*
X1198118Y914771D01*
X1197208Y912576D01*
X1196898Y910220D01*
X1197208Y907864D01*
X1198118Y905669D01*
X1199564Y903784D01*
X1201449Y902338D01*
X1203644Y901428D01*
X1206000Y901118D01*
X1208356Y901428D01*
X1210551Y902338D01*
X1212436Y903784D01*
X1213882Y905669D01*
X1214792Y907864D01*
X1215102Y910220D01*
X1214792Y912576D01*
X1213882Y914771D01*
X1212436Y916656D01*
X1210551Y918102D01*
X1208356Y919012D01*
X1206000Y919322D01*
D02*
G37*
G36*
X1180600D02*
X1178244Y919012D01*
X1176049Y918102D01*
X1174164Y916656D01*
X1172718Y914771D01*
X1171808Y912576D01*
X1171498Y910220D01*
X1171808Y907864D01*
X1172718Y905669D01*
X1174164Y903784D01*
X1176049Y902338D01*
X1178244Y901428D01*
X1180600Y901118D01*
X1182956Y901428D01*
X1185151Y902338D01*
X1187036Y903784D01*
X1188482Y905669D01*
X1189392Y907864D01*
X1189702Y910220D01*
X1189392Y912576D01*
X1188482Y914771D01*
X1187036Y916656D01*
X1185151Y918102D01*
X1182956Y919012D01*
X1180600Y919322D01*
D02*
G37*
G36*
X1155200D02*
X1152844Y919012D01*
X1150649Y918102D01*
X1148764Y916656D01*
X1147318Y914771D01*
X1146408Y912576D01*
X1146098Y910220D01*
X1146408Y907864D01*
X1147318Y905669D01*
X1148764Y903784D01*
X1150649Y902338D01*
X1152844Y901428D01*
X1155200Y901118D01*
X1157556Y901428D01*
X1159751Y902338D01*
X1161636Y903784D01*
X1163082Y905669D01*
X1163992Y907864D01*
X1164302Y910220D01*
X1163992Y912576D01*
X1163082Y914771D01*
X1161636Y916656D01*
X1159751Y918102D01*
X1157556Y919012D01*
X1155200Y919322D01*
D02*
G37*
G36*
X1129800D02*
X1127444Y919012D01*
X1125249Y918102D01*
X1123364Y916656D01*
X1121918Y914771D01*
X1121008Y912576D01*
X1120698Y910220D01*
X1121008Y907864D01*
X1121918Y905669D01*
X1123364Y903784D01*
X1125249Y902338D01*
X1127444Y901428D01*
X1129800Y901118D01*
X1132156Y901428D01*
X1134351Y902338D01*
X1136236Y903784D01*
X1137682Y905669D01*
X1138592Y907864D01*
X1138902Y910220D01*
X1138592Y912576D01*
X1137682Y914771D01*
X1136236Y916656D01*
X1134351Y918102D01*
X1132156Y919012D01*
X1129800Y919322D01*
D02*
G37*
G36*
X1104400D02*
X1102044Y919012D01*
X1099849Y918102D01*
X1097964Y916656D01*
X1096518Y914771D01*
X1095608Y912576D01*
X1095298Y910220D01*
X1095608Y907864D01*
X1096518Y905669D01*
X1097964Y903784D01*
X1099849Y902338D01*
X1102044Y901428D01*
X1104400Y901118D01*
X1106756Y901428D01*
X1108951Y902338D01*
X1110836Y903784D01*
X1112282Y905669D01*
X1113192Y907864D01*
X1113502Y910220D01*
X1113192Y912576D01*
X1112282Y914771D01*
X1110836Y916656D01*
X1108951Y918102D01*
X1106756Y919012D01*
X1104400Y919322D01*
D02*
G37*
G36*
X1526500Y931824D02*
X1523261Y931505D01*
X1520146Y930560D01*
X1517275Y929026D01*
X1514759Y926961D01*
X1512694Y924445D01*
X1511160Y921574D01*
X1510215Y918459D01*
X1509896Y915220D01*
X1510215Y911981D01*
X1511160Y908866D01*
X1512694Y905995D01*
X1514759Y903479D01*
X1517275Y901414D01*
X1520146Y899880D01*
X1523261Y898935D01*
X1526500Y898616D01*
X1529739Y898935D01*
X1532854Y899880D01*
X1535725Y901414D01*
X1538241Y903479D01*
X1540306Y905995D01*
X1541840Y908866D01*
X1542785Y911981D01*
X1543104Y915220D01*
X1542785Y918459D01*
X1541840Y921574D01*
X1540306Y924445D01*
X1538241Y926961D01*
X1535725Y929026D01*
X1532854Y930560D01*
X1529739Y931505D01*
X1526500Y931824D01*
D02*
G37*
G36*
X326500D02*
X323261Y931505D01*
X320146Y930560D01*
X317275Y929026D01*
X314759Y926961D01*
X312694Y924445D01*
X311160Y921574D01*
X310215Y918459D01*
X309896Y915220D01*
X310215Y911981D01*
X311160Y908866D01*
X312694Y905995D01*
X314759Y903479D01*
X317275Y901414D01*
X320146Y899880D01*
X323261Y898935D01*
X326500Y898616D01*
X329739Y898935D01*
X332854Y899880D01*
X335725Y901414D01*
X338241Y903479D01*
X340306Y905995D01*
X341840Y908866D01*
X342785Y911981D01*
X343104Y915220D01*
X342785Y918459D01*
X341840Y921574D01*
X340306Y924445D01*
X338241Y926961D01*
X335725Y929026D01*
X332854Y930560D01*
X329739Y931505D01*
X326500Y931824D01*
D02*
G37*
%LPD*%
G36*
X1140771Y1114634D02*
X1140770Y1114516D01*
X1139975Y1113364D01*
X1025050D01*
X1025050Y1113364D01*
X1024260Y1113207D01*
X1023591Y1112759D01*
X1023591Y1112759D01*
X982895Y1072064D01*
X969524D01*
Y1075049D01*
X974750D01*
X975592Y1075216D01*
X976307Y1075694D01*
X984839Y1084226D01*
X989274D01*
Y1088661D01*
X1015662Y1115049D01*
X1140313D01*
X1140771Y1114634D01*
D02*
G37*
G36*
X1401690Y1068075D02*
X1401926Y1067401D01*
X1401647Y1066000D01*
Y1065059D01*
X1401040Y1064040D01*
X1397520D01*
Y1058500D01*
X1394980D01*
Y1064040D01*
X1391460D01*
Y1063830D01*
X1390524Y1063024D01*
X1382976D01*
Y1054540D01*
X1380710D01*
Y1045770D01*
X1396250D01*
Y1043230D01*
X1380710D01*
Y1041002D01*
X1379537Y1040516D01*
X1374853Y1045199D01*
Y1068671D01*
X1401371D01*
X1401690Y1068075D01*
D02*
G37*
G36*
X1447524Y1088226D02*
X1447897Y1087111D01*
Y1061221D01*
X1446700Y1060024D01*
X1432976D01*
Y1057828D01*
X1431250D01*
X1430168Y1057613D01*
X1429250Y1057000D01*
X1427873Y1055623D01*
X1427361Y1055693D01*
X1426603Y1056069D01*
Y1062000D01*
X1426290Y1063570D01*
X1425401Y1064901D01*
X1422168Y1068134D01*
X1421401Y1069099D01*
X1422290Y1070430D01*
X1422603Y1072000D01*
X1422290Y1073570D01*
X1421401Y1074901D01*
X1420627Y1075675D01*
X1419296Y1076564D01*
X1418348Y1076753D01*
X1418474Y1078023D01*
X1423869D01*
Y1080014D01*
X1430367D01*
X1431937Y1080327D01*
X1433268Y1081216D01*
X1440278Y1088226D01*
X1447524Y1088226D01*
D02*
G37*
G36*
X1111957Y1046741D02*
X1111147Y1045754D01*
X1110270Y1046340D01*
X1108700Y1046653D01*
X937172D01*
X936274Y1047551D01*
X936274Y1048900D01*
X936274Y1049844D01*
Y1051147D01*
X1107551D01*
X1111957Y1046741D01*
D02*
G37*
G36*
X1206139Y1022559D02*
X1215599Y1013099D01*
X1216930Y1012209D01*
X1218500Y1011897D01*
X1238935D01*
X1239421Y1010724D01*
X1234301Y1005603D01*
X1204074D01*
X1203689Y1006873D01*
X1204401Y1007349D01*
X1205291Y1008680D01*
X1205603Y1010250D01*
X1205291Y1011820D01*
X1204401Y1013151D01*
X1204328Y1013200D01*
Y1022982D01*
X1205598Y1023368D01*
X1206139Y1022559D01*
D02*
G37*
D11*
X947750Y928250D02*
X997000Y977500D01*
X1170750D01*
X1429750Y1053500D02*
X1431250Y1055000D01*
X1429750Y1024000D02*
Y1053500D01*
Y1024000D02*
X1433000Y1020750D01*
X1431250Y1055000D02*
X1441000D01*
X1201500Y1010250D02*
Y1042087D01*
X924750Y928250D02*
X947750D01*
X1467500Y1164500D02*
Y1184500D01*
Y1164500D02*
X1486250Y1145750D01*
X1183500Y1149700D02*
X1199750Y1165950D01*
X1183500Y1060087D02*
Y1149700D01*
X1199750Y1165950D02*
X1220000D01*
X1365600Y1122850D02*
X1374040Y1131290D01*
X1494979D01*
X1495000Y1131269D01*
X1339949Y1135550D02*
X1358500D01*
X1362250Y1139300D01*
X1495000D01*
X754750Y979050D02*
X755700Y980000D01*
X777607D01*
X754750Y966350D02*
X776257D01*
X777607Y965000D01*
X754750Y953650D02*
X774370D01*
X775720Y955000D01*
X754750Y940950D02*
X774770D01*
X775720Y940000D01*
X1183500Y1060087D02*
X1201500Y1042087D01*
X1220000Y1165950D02*
X1225000Y1160950D01*
Y1146550D02*
Y1160950D01*
X753950Y941750D02*
X754750Y940950D01*
X752650Y955750D02*
X754750Y953650D01*
X753600Y967500D02*
X754750Y966350D01*
X1155750Y1089750D02*
X1156000Y1090000D01*
X1172000D01*
X1339949Y1122850D02*
X1365600D01*
D15*
X1159750Y1118500D02*
X1172000D01*
X1156500Y1121750D02*
X1159750Y1118500D01*
X1396250Y1044500D02*
Y1058500D01*
X974750Y1077250D02*
X1014750Y1117250D01*
X1062500Y1014250D02*
Y1030000D01*
X1062750Y1029750D01*
X1071750D01*
X959550Y1067950D02*
X961600Y1070000D01*
X924750Y1067950D02*
X959550D01*
X1014750Y1117250D02*
X1144250D01*
X1145500Y1102000D02*
X1151200D01*
X928150Y1077250D02*
X974750D01*
X924750Y1080650D02*
X928150Y1077250D01*
X1155750Y1089750D02*
Y1097450D01*
X1151200Y1102000D02*
X1155750Y1097450D01*
X1137000Y1076000D02*
Y1088750D01*
X1141250Y1093000D01*
D18*
X1422500Y999000D02*
D03*
Y1013000D02*
D03*
X420500Y1042750D02*
D03*
Y1028750D02*
D03*
X568000Y1042500D02*
D03*
Y1028500D02*
D03*
X715500Y1033750D02*
D03*
Y1019750D02*
D03*
X963500Y1070000D02*
D03*
Y1084000D02*
D03*
X983250Y1089750D02*
D03*
Y1103750D02*
D03*
X1172000Y1118500D02*
D03*
Y1104500D02*
D03*
Y1090000D02*
D03*
Y1076000D02*
D03*
X1155750Y1075750D02*
D03*
Y1089750D02*
D03*
X1137000Y1076000D02*
D03*
Y1062000D02*
D03*
X1193250Y1111250D02*
D03*
Y1097250D02*
D03*
X1258250Y1097500D02*
D03*
Y1111500D02*
D03*
X1381750Y1102750D02*
D03*
Y1116750D02*
D03*
X1355500Y1052500D02*
D03*
Y1038500D02*
D03*
X1464750Y975950D02*
D03*
Y961950D02*
D03*
D19*
X1394949Y956000D02*
D03*
Y978500D02*
D03*
Y1001000D02*
D03*
D20*
X1342449Y978500D02*
D03*
D21*
X1396250Y1044500D02*
D03*
D22*
X1386750Y1058500D02*
D03*
X1405750D02*
D03*
X1396250Y1030500D02*
D03*
X1386750D02*
D03*
X1396250Y1058500D02*
D03*
X1405750Y1030500D02*
D03*
D23*
X1062500Y1030000D02*
D03*
X1048500D02*
D03*
X1062500Y1014250D02*
D03*
X1048500D02*
D03*
X1299750Y1027750D02*
D03*
X1285750D02*
D03*
X1446250Y1012000D02*
D03*
X1460250D02*
D03*
X1435750Y962000D02*
D03*
X1449750D02*
D03*
X1449750Y976250D02*
D03*
X1435750D02*
D03*
X1300000Y1012750D02*
D03*
X1286000D02*
D03*
D24*
X1225250Y1064000D02*
D03*
X1215750Y1086000D02*
D03*
X1234750D02*
D03*
X1225000Y1146550D02*
D03*
X1234500Y1124550D02*
D03*
X1215500D02*
D03*
D25*
X1286051Y1072050D02*
D03*
Y1084750D02*
D03*
X1339949Y1160950D02*
D03*
X1286051Y1148250D02*
D03*
X1339949D02*
D03*
Y1122850D02*
D03*
X1286051Y1160950D02*
D03*
X1339949Y1135550D02*
D03*
X1286051D02*
D03*
Y1122850D02*
D03*
Y1097450D02*
D03*
X1339949Y1110150D02*
D03*
Y1097450D02*
D03*
Y1072050D02*
D03*
X1286051Y1110150D02*
D03*
X1339949Y1084750D02*
D03*
D26*
X1416250Y1084117D02*
D03*
Y1116883D02*
D03*
D27*
X1463750Y1102250D02*
D03*
X1440750Y1092750D02*
D03*
Y1111750D02*
D03*
D28*
X1441000Y1036000D02*
D03*
Y1055000D02*
D03*
X1465000D02*
D03*
Y1045500D02*
D03*
Y1036000D02*
D03*
D29*
X924750Y1093350D02*
D03*
Y1080650D02*
D03*
Y1067950D02*
D03*
Y1055250D02*
D03*
Y1042550D02*
D03*
Y1029850D02*
D03*
Y1017150D02*
D03*
Y1004450D02*
D03*
Y991750D02*
D03*
Y979050D02*
D03*
Y966350D02*
D03*
Y953650D02*
D03*
Y940950D02*
D03*
Y928250D02*
D03*
X754750D02*
D03*
Y940950D02*
D03*
Y953650D02*
D03*
Y966350D02*
D03*
Y979050D02*
D03*
Y991750D02*
D03*
Y1004450D02*
D03*
Y1017150D02*
D03*
Y1029850D02*
D03*
Y1042550D02*
D03*
Y1055250D02*
D03*
Y1067950D02*
D03*
Y1080650D02*
D03*
Y1093350D02*
D03*
D30*
X896900Y918250D02*
D03*
X884200D02*
D03*
X871500D02*
D03*
X858800D02*
D03*
X846100D02*
D03*
X833400D02*
D03*
X820700D02*
D03*
X808000D02*
D03*
X795300D02*
D03*
X782600D02*
D03*
D31*
X829750Y1018350D02*
D03*
D32*
X332501Y1116269D02*
D03*
Y1161270D02*
D03*
Y1131270D02*
D03*
D33*
X300250Y1101999D02*
D03*
Y1177001D02*
D03*
D34*
X322750Y1101499D02*
D03*
Y1177501D02*
D03*
D63*
X1004750Y932250D02*
D03*
D64*
X1058750D02*
D03*
X1031750D02*
D03*
X977750D02*
D03*
X1467500Y1184500D02*
D03*
X1449750Y932250D02*
D03*
X1437500Y1155750D02*
D03*
X1326750Y1036500D02*
D03*
D65*
X712250Y1005500D02*
X715500Y1008750D01*
Y1019750D01*
X420500Y1012000D02*
Y1028750D01*
X568000Y1010750D02*
Y1028500D01*
X692750Y1035750D02*
X713500D01*
X715500Y1033750D01*
X692750Y1035750D02*
Y1036000D01*
X1376500Y978750D02*
X1397750D01*
X1339949Y1052250D02*
X1362000D01*
X528500Y1067750D02*
X705000D01*
X478950Y1117300D02*
X528500Y1067750D01*
X388501Y1117300D02*
X478950D01*
X1088750Y1001500D02*
X1236000D01*
X1076000Y1014250D02*
X1088750Y1001500D01*
X1236000D02*
X1250500Y1016000D01*
X946500Y1017000D02*
X970250Y993250D01*
X970500Y993500D01*
X1280000D01*
X1332750Y940750D01*
X1078500Y984500D02*
X1151250D01*
X1109250Y1055250D02*
X1120750Y1043750D01*
X924750Y1055250D02*
X1109250D01*
X1120750Y1043750D02*
X1183000D01*
X1305500Y1080839D02*
X1322110Y1097450D01*
X1305950Y1072050D02*
X1325750Y1052250D01*
X1286051Y1072050D02*
X1305950D01*
X329751Y1131269D02*
X352269D01*
X380750Y1182500D02*
X1388250D01*
X358000Y1159750D02*
X380750Y1182500D01*
X358000Y1137000D02*
Y1159750D01*
X329751Y1161269D02*
X347519D01*
X381000Y1194750D02*
X1397500D01*
X347519Y1161269D02*
X381000Y1194750D01*
X352269Y1131269D02*
X358000Y1137000D01*
X1400000Y999000D02*
X1422500D01*
X1397750Y1001250D02*
X1400000Y999000D01*
X1397500Y1194750D02*
X1404000Y1188250D01*
X1325750Y1052250D02*
X1339949D01*
X1326750Y1039051D02*
X1339949Y1052250D01*
X1326750Y1036500D02*
Y1039051D01*
X1332750Y940750D02*
X1414500D01*
X1435750Y962000D01*
X1419024Y1065476D02*
X1422500Y1062000D01*
Y1013000D02*
Y1062000D01*
X1406774Y1065476D02*
X1419024D01*
X1406000Y1066250D02*
X1406774Y1065476D01*
X1415750Y1037000D02*
Y1053750D01*
X1409250Y1030500D02*
X1415750Y1037000D01*
X1405750Y1030500D02*
X1409250D01*
X1411000Y1058500D02*
X1415750Y1053750D01*
X1405750Y1058500D02*
X1411000D01*
X1367726Y1072774D02*
X1370750Y1069750D01*
X1367726Y1072774D02*
X1417726D01*
X1362226D02*
X1367726D01*
X1417726D02*
X1418500Y1072000D01*
X1370750Y1043500D02*
Y1069750D01*
X1358250Y1076750D02*
X1362226Y1072774D01*
X1370750Y1043500D02*
X1383750Y1030500D01*
X1370750Y984500D02*
Y1043500D01*
X1386750Y1030500D02*
X1396250D01*
X1383750D02*
X1386750D01*
X1370750Y984500D02*
X1376500Y978750D01*
X1441000Y1055000D02*
X1448500D01*
X1452000Y1058500D02*
Y1107750D01*
X1448500Y1055000D02*
X1452000Y1058500D01*
X1405750Y1066000D02*
X1406000Y1066250D01*
X1405750Y1058500D02*
Y1066000D01*
X1362000Y1052250D02*
X1370750Y1043500D01*
X1358250Y1076750D02*
Y1105750D01*
X1388250Y1182500D02*
X1393250Y1177500D01*
X1285750Y1027750D02*
Y1049750D01*
X1393250Y1177500D02*
X1411000D01*
X815100Y1080650D02*
X840500Y1055250D01*
X875500Y940000D02*
X879250D01*
X884200Y935050D01*
X895680Y943750D02*
X905580Y953650D01*
X895680Y943750D02*
X897000D01*
X1250500Y1016000D02*
X1286750Y1052250D01*
X1218500Y1016000D02*
X1250500D01*
X1209040Y1025460D02*
X1218500Y1016000D01*
X1209040Y1025460D02*
Y1045210D01*
X437040Y1042460D02*
X686290D01*
X692750Y1036000D01*
X709250Y1056000D02*
X715250Y1050000D01*
X508500Y1056000D02*
X709250D01*
X472600Y1091900D02*
X508500Y1056000D01*
X436950Y1042550D02*
X437040Y1042460D01*
X347550Y1042550D02*
X436950D01*
X343800Y1038800D02*
X347550Y1042550D01*
X1449750Y932250D02*
X1473250D01*
X1487750Y946750D01*
Y985000D01*
X1404000Y1188250D02*
X1417500D01*
X1437500Y1168250D01*
Y1155750D02*
Y1168250D01*
X1353850Y1110150D02*
X1358250Y1105750D01*
X1300000Y1012750D02*
Y1027500D01*
X1411000Y1177500D02*
X1414250Y1174250D01*
Y1165250D02*
Y1174250D01*
X322000Y1038800D02*
X343800D01*
X1062500Y1014250D02*
X1076000D01*
X884200Y918250D02*
Y935050D01*
X951000Y953650D02*
Y960500D01*
X945150Y966350D02*
X951000Y960500D01*
X924750Y966350D02*
X945150D01*
X905580Y953650D02*
X924750D01*
X1475450Y975950D02*
X1478700D01*
X1487750Y985000D01*
X1464750Y975950D02*
X1475450D01*
X1479250Y979750D01*
Y1020000D01*
X1461750Y1111750D02*
X1470000Y1120000D01*
X1456000Y1111750D02*
X1461750D01*
X805000Y980000D02*
X896900D01*
X790000Y995000D02*
X805000Y980000D01*
X790000Y995000D02*
Y1052250D01*
X774300Y1067950D02*
X790000Y1052250D01*
X754750Y1067950D02*
X774300D01*
X1300000Y1027500D02*
X1314500D01*
X1225250Y1034000D02*
X1231500Y1027750D01*
X1225250Y1034000D02*
Y1064000D01*
X1201500Y1052750D02*
X1209040Y1045210D01*
X1201500Y1052750D02*
Y1054500D01*
X963500Y1093500D02*
X973750Y1103750D01*
X963500Y1084000D02*
Y1093500D01*
X1286750Y1052250D02*
X1325750D01*
X754750Y1017150D02*
X755400Y1016500D01*
X776750D01*
X946500Y1017000D02*
X947500D01*
X1435750Y962000D02*
X1435750Y962000D01*
Y976250D01*
X1464450D02*
X1464750Y975950D01*
X1449750Y976250D02*
X1464450D01*
X976750Y1001500D02*
X1087750D01*
X973750Y1103750D02*
X983250D01*
X962650Y1084850D02*
X963500Y1084000D01*
X947250Y1084850D02*
X962650D01*
X840500Y1055250D02*
X886500D01*
X947750Y1030500D02*
X976750Y1001500D01*
X754750Y1080650D02*
X815100D01*
X893650D02*
X924750D01*
X893500Y1080500D02*
X893650Y1080650D01*
X924050Y1067250D02*
X924750Y1067950D01*
X856750Y1067250D02*
X924050D01*
X388501Y1091900D02*
X472600D01*
X482050Y1142700D02*
X544100Y1080650D01*
X388501Y1142700D02*
X482050D01*
X544100Y1080650D02*
X754750D01*
X1322110Y1097450D02*
X1339949D01*
X1325200Y1084750D02*
X1339949D01*
X924750Y1042550D02*
X1108700D01*
X1116450Y1034800D02*
X1183500D01*
X1108700Y1042550D02*
X1116450Y1034800D01*
X1215750Y1086000D02*
Y1097250D01*
X1223250Y1104750D01*
X1226250D01*
X1266500Y1087000D02*
Y1087250D01*
X1276700Y1097450D01*
X1286051D01*
X1234750Y1086000D02*
X1251500D01*
X1258250Y1092750D01*
Y1097500D01*
Y1111500D02*
Y1119250D01*
X1252950Y1124550D02*
X1258250Y1119250D01*
X1234500Y1124550D02*
X1252950D01*
X1258250Y1111500D02*
X1259600Y1110150D01*
X1198800Y1124550D02*
X1215500D01*
X1193250Y1119000D02*
X1198800Y1124550D01*
X1193250Y1111250D02*
Y1119000D01*
Y1092500D02*
Y1097250D01*
Y1092500D02*
X1199750Y1086000D01*
X1215750D01*
X1234500Y1124550D02*
X1237050Y1122000D01*
X1259600Y1110150D02*
X1286051D01*
X1339949D02*
X1353850D01*
X1404133Y1084117D02*
X1416250D01*
X1398500Y1089750D02*
X1404133Y1084117D01*
X1398500Y1089750D02*
Y1095000D01*
X1465000Y1055000D02*
X1485500D01*
X1489750Y1050750D01*
Y1030500D02*
Y1050750D01*
X1479250Y1020000D02*
X1489750Y1030500D01*
X1441000Y1017250D02*
X1446250Y1012000D01*
X1441000Y1017250D02*
Y1036000D01*
X1465000D02*
X1481750D01*
X1463750Y1056250D02*
X1465000Y1055000D01*
X1463750Y1056250D02*
Y1102250D01*
X1452000Y1107750D02*
X1456000Y1111750D01*
X1401883Y1116883D02*
X1416250D01*
X1401750Y1116750D02*
X1401883Y1116883D01*
X1381750Y1116750D02*
X1401750D01*
X1440750Y1111750D02*
X1456000D01*
X1416250Y1084117D02*
X1430367D01*
X1439000Y1092750D01*
X1427750Y1111750D02*
X1440750D01*
X1422617Y1116883D02*
X1427750Y1111750D01*
X1416250Y1116883D02*
X1422617D01*
D66*
X1050750Y896000D02*
X1058750Y904000D01*
X836250Y896000D02*
X1050750D01*
X833400Y898850D02*
X836250Y896000D01*
X1024500Y898500D02*
X1031750Y905750D01*
X850500Y898500D02*
X1024500D01*
X846100Y902900D02*
X850500Y898500D01*
X996500Y900750D02*
X1004750Y909000D01*
X861600Y900750D02*
X996500D01*
X858800Y903550D02*
X861600Y900750D01*
X1058750Y904000D02*
Y932250D01*
X1004750Y909000D02*
Y932250D01*
X1031750Y905750D02*
Y932250D01*
X873250Y903250D02*
X970000D01*
X977750Y911000D01*
Y932250D01*
X858800Y903550D02*
Y918250D01*
X871500Y905000D02*
X873250Y903250D01*
X846100Y902900D02*
Y918250D01*
X833400Y898850D02*
Y918250D01*
X871500Y905000D02*
Y918250D01*
D67*
X963500Y1070000D02*
X983750D01*
X961600D02*
X963500D01*
X983750D02*
X1025050Y1111300D01*
X1152450D01*
D68*
X1342449Y978500D02*
D03*
D69*
X1092625Y1100936D02*
D03*
D70*
X1092535Y1131100D02*
D03*
D71*
X1540500Y1105375D02*
D03*
Y1159875D02*
D03*
D72*
X1510200Y1108375D02*
D03*
Y1156875D02*
D03*
D73*
X1409300Y1220470D02*
D03*
X1383900D02*
D03*
X1358500D02*
D03*
X1333100D02*
D03*
X1307700D02*
D03*
X1282300D02*
D03*
X1256900D02*
D03*
X1231500D02*
D03*
X1206100D02*
D03*
X1180700D02*
D03*
X1155300D02*
D03*
X1129900D02*
D03*
X1104500D02*
D03*
X1104400Y910220D02*
D03*
X1282200D02*
D03*
X1256800D02*
D03*
X1231400D02*
D03*
X1206000D02*
D03*
X1180600D02*
D03*
X1155200D02*
D03*
X1129800D02*
D03*
X322000Y1013400D02*
D03*
Y988000D02*
D03*
Y962600D02*
D03*
X388501Y1091900D02*
D03*
Y1117300D02*
D03*
Y1142700D02*
D03*
Y1168100D02*
D03*
X876300Y1220470D02*
D03*
X850900D02*
D03*
X825500D02*
D03*
X723900D02*
D03*
X749300D02*
D03*
X774700D02*
D03*
X800100D02*
D03*
X901700D02*
D03*
X469900D02*
D03*
X495300D02*
D03*
X520700D02*
D03*
X546100D02*
D03*
X571500D02*
D03*
X596900D02*
D03*
X622300D02*
D03*
X647700D02*
D03*
X673100D02*
D03*
X698500D02*
D03*
X927100D02*
D03*
X952500D02*
D03*
X977900D02*
D03*
X1003300D02*
D03*
X1028700D02*
D03*
X1054100D02*
D03*
D74*
X1079100Y1220470D02*
D03*
X1079000Y910220D02*
D03*
X444500Y1220470D02*
D03*
D75*
X322000Y1038800D02*
D03*
D76*
X311500Y1124499D02*
D03*
Y1154501D02*
D03*
D77*
X712250Y1005500D02*
D03*
X420500Y1012000D02*
D03*
X568000Y1010750D02*
D03*
X1170750Y977500D02*
D03*
X1078500Y984500D02*
D03*
X1151250D02*
D03*
X1183000Y1043750D02*
D03*
X1305500Y1080839D02*
D03*
X1418500Y1072000D02*
D03*
X1406000Y1066250D02*
D03*
X897000Y943750D02*
D03*
X875500Y939750D02*
D03*
X1201500Y1010250D02*
D03*
X1486250Y1145750D02*
D03*
X1404000Y1188250D02*
D03*
X1071750Y1029750D02*
D03*
X951000Y953650D02*
D03*
X1487750Y985000D02*
D03*
X1470000Y1120000D02*
D03*
X1495000Y1131269D02*
D03*
Y1139300D02*
D03*
X777607Y980000D02*
D03*
Y965000D02*
D03*
X775720Y955000D02*
D03*
Y940000D02*
D03*
X896900Y980000D02*
D03*
X1314500Y1027500D02*
D03*
X1231500Y1027750D02*
D03*
X776750Y1016500D02*
D03*
X947500Y1017000D02*
D03*
X1201500Y1054500D02*
D03*
X947250Y1084850D02*
D03*
X886500Y1055250D02*
D03*
X947750Y1030500D02*
D03*
X893500Y1080500D02*
D03*
X856750Y1067250D02*
D03*
X715250Y1050000D02*
D03*
X705000Y1067750D02*
D03*
X1325200Y1084750D02*
D03*
X1183500Y1034800D02*
D03*
X1226250Y1104750D02*
D03*
X1266500Y1087000D02*
D03*
X1398500Y1095000D02*
D03*
X1433000Y1020750D02*
D03*
X1481750Y1036000D02*
D03*
X1414250Y1165250D02*
D03*
D78*
X1388500Y1040500D02*
D03*
X1396000D02*
D03*
X1403500D02*
D03*
Y1048000D02*
D03*
X1395750D02*
D03*
X1388250Y1048111D02*
D03*
X1156500Y1121750D02*
D03*
X1105000Y1105000D02*
D03*
X1112500D02*
D03*
Y1137500D02*
D03*
X1075000Y1105000D02*
D03*
Y1097500D02*
D03*
X1082500Y1105000D02*
D03*
X1090000D02*
D03*
X1097500D02*
D03*
X1112500Y1097500D02*
D03*
X1105000D02*
D03*
X1097500D02*
D03*
X1090000D02*
D03*
X1082500D02*
D03*
X1075000Y1122500D02*
D03*
X1082500D02*
D03*
X1090000D02*
D03*
X1097500D02*
D03*
X1105000D02*
D03*
X1112500D02*
D03*
Y1130000D02*
D03*
X1105000D02*
D03*
X1097500D02*
D03*
X1090000D02*
D03*
X1082500D02*
D03*
X1075000D02*
D03*
Y1137500D02*
D03*
X1082500D02*
D03*
X1090000D02*
D03*
X1097500D02*
D03*
X1105000D02*
D03*
X1152450Y1111300D02*
D03*
X1144250Y1117250D02*
D03*
X1145500Y1102000D02*
D03*
X1141250Y1093000D02*
D03*
D79*
X326500Y1215220D02*
D03*
X1526500D02*
D03*
Y915220D02*
D03*
X326500D02*
D03*
M02*
