G04*
G04 #@! TF.GenerationSoftware,Altium Limited,Altium Designer,19.0.14 (431)*
G04*
G04 Layer_Color=32896*
%FSLAX44Y44*%
%MOMM*%
G71*
G01*
G75*
%ADD15C,0.1270*%
%ADD105C,0.0500*%
D15*
X298000Y1141001D02*
Y1154001D01*
X325000Y1118271D02*
Y1129269D01*
Y1114270D02*
Y1118271D01*
Y1129269D02*
Y1133269D01*
Y1159269D02*
Y1163269D01*
X298000Y1154001D02*
Y1173000D01*
Y1106000D02*
Y1141001D01*
Y1106000D02*
X325000D01*
Y1114270D01*
Y1133269D02*
Y1159269D01*
Y1163269D02*
Y1173000D01*
X320499D02*
X325000D01*
X298000D02*
X320499D01*
D105*
X298000Y1173500D02*
Y1179500D01*
X302501Y1173500D02*
Y1179500D01*
X298000Y1099500D02*
Y1105500D01*
X302501Y1099500D02*
Y1105500D01*
X320499Y1099500D02*
Y1105500D01*
X325000Y1099500D02*
Y1105500D01*
X320499Y1099500D02*
X325000D01*
X298000D02*
X302501D01*
X298000Y1179500D02*
X302501D01*
X320499Y1173000D02*
Y1179500D01*
X325000D01*
Y1173000D02*
Y1179500D01*
X311500Y1124499D02*
Y1128499D01*
Y1150501D02*
Y1154501D01*
Y1158499D01*
Y1120501D02*
Y1124499D01*
X307500D02*
X311500D01*
X307500Y1154501D02*
X311500D01*
Y1124499D02*
X315501D01*
X311500Y1154501D02*
X315501D01*
X325000Y1114270D02*
X335000D01*
Y1118271D01*
X325000D02*
X335000D01*
X325000Y1129269D02*
X335000D01*
Y1133269D01*
X325000D02*
X335000D01*
X325000Y1159269D02*
X335000D01*
Y1163269D01*
X325000D02*
X335000D01*
M02*
