<?xml version="1.0" encoding="utf-8"?>
<!-- Generator: Adobe Illustrator 19.0.0, SVG Export Plug-In . SVG Version: 6.00 Build 0)  -->
<svg version="1.1" id="Layer_1" xmlns="http://www.w3.org/2000/svg" xmlns:xlink="http://www.w3.org/1999/xlink" x="0px" y="0px"
	 viewBox="-147 351.9 300 138" style="enable-background:new -147 351.9 300 138;" xml:space="preserve">
<path d="M26.6,411.5c0.5,0.1,1,0.1,1.5,0.1c0.5,0.1,1,0.1,1.6,0.2c0.6,0.1,1.1,0.2,1.5,0.4c0.3,0.1,0.6,0.3,1,0.4
	c0.3,0.2,0.7,0.3,1,0.4c0.3,0.2,0.6,0.4,0.8,0.6c0.5,0.7,0.7,1.5,0.7,2.4c-0.3,0.8-0.3,1.4,0,2c0,0.1,0.1,0.2,0,0.2
	c0,0.1,0,0.2,0,0.3c-0.1,0.1-0.1,0.4-0.1,0.7c0.1,0.3,0.1,0.7,0,1c-0.1,0.3-0.2,0.7-0.3,1c-0.2,0.4-0.3,0.9-0.3,1.4
	c0,0.4-0.1,0.9-0.2,1.4c-0.3,1-0.7,2-1.1,3c-0.5,1.1-1,2.3-1.6,3.3c-0.6,1.1-1.1,2.2-1.5,3.3c-0.4,1.3-0.8,2.5-1,3.7
	c-0.3,1.2-0.5,2.4-0.7,3.6c-0.5,2.3-1,4.7-1.5,7.1c-0.5,2.3-0.8,4.7-0.9,7c0,0.5,0,0.9,0,1.3c0.1,0.5,0,0.9-0.1,1.4
	c-0.4,1.2-0.4,2.4,0,3.7c0.3,1.3,1,2.3,2,3c0.2,0.1,0.5,0.1,0.8,0c0.4-0.3,0.6-0.5,0.7-0.6c0.9-0.8,1.6-1.7,2-2.4
	c0.2-0.3,0.3-0.5,0.5-0.7c0.1-0.2,0.2-0.4,0.4-0.6c1-1.5,1.9-3.1,2.6-4.8c0.7-1.6,1.6-3.2,2.6-4.7c1.3-1.9,2.4-3.8,3.3-5.8
	c0.8-2,1.8-4,2.9-6c0.5-0.7,1-1.5,1.4-2.2l0.2-0.3v-5.8c0-1.2-0.1-2.4-0.2-3.6l-0.6-4c-0.2-0.8-0.2-1.6,0-2.3
	c0.1-0.7,0.3-1.5,0.4-2.3c0.1-0.4,0.4-0.6,1-0.6l1.9,0.3c0.6,0.1,1.1,0.3,1.5,0.7c0.4,0.4,0.8,0.8,1.2,1.3c0.1,0.2,0.2,0.4,0.4,0.6
	c0.2,0.2,0.4,0.3,0.6,0.5c0.4,0.5,0.9,0.9,1.4,1.2c0.4,0.4,0.9,0.8,1.4,1.3s0.8,1.1,1.1,1.7c0.3,0.6,0.5,1.2,0.8,1.9
	c0,0.2,0.1,0.5,0.3,0.9c0,0,0.1,0.1,0.2,0.1c0.3-0.5,0.5-1,0.8-1.5c0.2-0.5,0.4-1,0.7-1.4c1.3-2.5,2.8-4.6,4.5-6.4
	c0.9-0.9,1.8-1.6,2.8-2.3c1.1-0.7,2.2-1.1,3.4-1.4c1.5-0.3,2.9-0.1,4.2,0.7c1.3,0.7,2.3,1.8,2.8,3.3c0.5,1.2,0.8,2.5,1.1,3.8
	c0.2,1.3,0.4,2.5,0.6,3.8c0.2,0.6,0.2,1.1,0.2,1.7c-0.1,0.6-0.1,1.1-0.1,1.7s0.1,1.2,0.1,1.7c0.1,0.6,0.1,1.1,0,1.7c0,1,0,2.1,0,3.3
	c-0.1,1.3-0.1,2.5-0.2,3.5c0.2-0.1,0.4-0.2,0.6-0.3s0.3-0.2,0.4-0.3c0.6-0.5,1.4-1.1,2.4-1.7c1-0.7,2-1.3,3.1-1.9
	c1.1-0.6,2.1-1.2,3.1-1.8c1-0.6,1.9-1,2.5-1.4c0.5-0.2,0.9-0.6,1.4-0.9c0.4-0.4,0.9-0.5,1.4-0.4c-0.1,0.2-0.1,0.3,0,0.5
	s0.1,0.3,0.1,0.3c-0.6,0.3-1,0.7-1.2,1.1c-0.2,0.4-0.8,0.8-1.7,1.3c-0.3,0.5-0.9,1.1-1.7,1.7c-0.9,0.6-1.7,1.3-2.6,1.9
	c-0.9,0.6-1.8,1.2-2.7,1.8c-0.8,0.5-1.5,1-2,1.5c-0.5,0.4-1,0.8-1.6,1.3c-0.5,0.4-1,0.9-1.5,1.4s-0.9,1.1-1,2c-0.4,1-0.6,2-0.7,3
	c-0.2,1-0.6,2-1.2,2.8c-0.3,0.5-0.5,1-0.6,1.5c-0.2,0.5-0.4,1-0.7,1.4c-0.2,0.4-0.4,0.8-0.6,1.1c-0.2,0.3-0.6,0.6-1.1,0.7
	c-0.4,0.5-0.9,0.9-1.6,1.2c-0.7,0.3-1.1,0.8-1.4,1.6c-0.3,0.2-0.6,0.6-0.9,0.9c-0.2,0.4-0.6,0.6-1.1,0.7c-0.1,0-0.2,0.1-0.2,0.1
	c0,0.1-0.1,0.2-0.2,0.2c-0.1,0.3-0.3,0.5-0.5,0.7c-0.2,0.1-0.3,0.4-0.4,0.6c-0.8-0.3-1.4-0.7-1.9-1.1c-0.6-0.4-1.1-0.9-1.6-1.4
	c-0.4-0.3-0.6-0.6-0.6-1.1c-0.1-0.4-0.1-0.8,0.1-1.2c0.3-2.7,1.3-4.9,3-6.6c1.4-1.3,2.1-2.8,2.1-4.6c0.2-1,0.4-2.2,0.6-3.3
	c0.2-1.1,0.4-2.2,0.5-3.3c0.2-1.3,0.2-2.7,0.3-4c0-1.3,0.1-2.6,0.2-3.9c0.1-2,0.2-3.9,0.3-5.7c0.1-1.9,0.2-3.8,0.3-5.7V420
	c0-0.4-0.1-0.8-0.2-1.1c-0.6,0.1-1.1,0.3-1.5,0.6c-0.3,0.2-0.7,0.6-1,0.9c-1,1.2-2,2.5-2.8,3.9s-1.5,2.8-2.1,4.2
	c-0.3,0.8-0.7,1.5-1.1,2.2c-0.4,0.8-0.8,1.5-1.3,2.2c-0.4,0.7-0.8,1.5-1.1,2.2c-0.3,0.7-0.5,1.5-0.6,2.3c-0.2,1.4-0.3,2.8-0.5,4.1
	c-0.2,1.4-0.4,2.8-0.7,4.1c-0.1,0.5-0.2,1.1-0.2,1.7S55,448.4,55,449l-0.9,4.3c0.3,1.3,0.3,2.4,0.1,3.5s-0.5,2.2-1,3.5
	c-0.2,1.2-0.2,2.4-0.1,3.7c0.2,1.2,0.3,2.4,0.2,3.6c0,0.5-0.1,0.9-0.1,1.2c0,0.4-0.1,0.8-0.2,1.2c-0.1,1-0.2,2.1-0.1,3.2v5.2
	c0,0.6-0.1,1.2-0.1,1.9c0,0.3-0.1,0.6-0.2,1c-0.1,0.3-0.1,0.7-0.2,1c-0.1-0.1-0.1-0.2-0.1-0.3c0,0,0-0.1-0.2-0.2
	c-0.1,0.4-0.2,0.8-0.3,1.2c-0.1,0.3-0.3,0.7-0.4,1c-0.2,0.3-0.2,0.4-0.2,0.4c-0.5,0.3-0.7,0.7-0.7,1.1c-0.1,0.4-0.2,0.8-0.3,1.3
	c0,0.3-0.1,0.6-0.2,0.8c-0.1,0.2-0.3,0.4-0.7,0.5c-0.1,0-0.2,0.1-0.2,0.2s-0.1,0.2-0.2,0.3c-0.8,0.9-1.7,0.9-2.6,0.1
	c-0.2-0.2-0.5-0.5-0.7-0.7c-0.2-0.2-0.4-0.5-0.6-0.8c-0.1-0.1-0.1-0.2-0.1-0.3c0-0.7,0.1-1.3,0.1-1.9c0-0.6,0-1.3,0-2
	c0.1-0.8,0.2-1.7,0.2-2.5c0.1-0.9,0.1-1.8,0.1-2.6c0.1-2.4,0.1-4.8,0-7.2L45,458.3v-7.1c0-1.5-0.1-3-0.1-4.5c-0.1-1.5-0.1-3-0.1-4.6
	c-1,2-0.5,1-1.7,3c-0.5,0.9-0.8,1.8-1,2.8c-0.2,0.9-0.6,1.9-1.2,2.7c-0.5,0.7-0.9,1.4-1,2.1c-0.2,0.7-0.5,1.5-0.8,2.2
	c-0.1,0.3-0.2,0.7-0.4,1.1c-0.1,0.3-0.3,0.7-0.6,1c-0.5,0.6-0.9,1.3-1.3,2c-0.4,0.7-0.7,1.4-1,2.2c-0.3,0.6-0.7,1.2-1.1,1.8
	c-0.4,0.5-0.9,1-1.6,1.5c-0.6,0.4-1.3,1-1.8,1.5c-0.6,0.6-1.3,1.1-2.2,1.4c-0.1,0-0.2,0-0.2,0s-0.1,0.1-0.2,0.1
	c-1.8,0.1-3.4-0.1-5-0.7c-1.1-0.3-2-0.9-2.8-1.8c-0.7-0.8-1.2-1.6-1.6-2.5c-0.4-0.9-0.8-1.8-1.1-2.8c0-0.2-0.1-0.5-0.1-0.7
	c0-0.3,0-0.5-0.1-0.8c-0.1-0.6-0.2-1.1-0.2-1.7c0-0.6-0.1-1.2-0.2-1.8v-0.4c0-0.9,0-1.8-0.1-2.7c0-1,0-1.9,0.1-2.8
	c0.2-4.2,0.9-8.3,2.1-12.2c1.2-4,2.5-7.9,4-11.8c0.3-0.9,0.7-1.8,1-2.7c0.4-0.9,0.7-1.7,1.1-2.6c0.2-0.6,0.4-1.3,0.5-2
	c0.1-0.7,0.3-1.3,0.5-2c-0.2-0.1-0.3-0.1-0.5-0.1c-0.3,0.1-0.5,0.2-0.5,0.3c-1.9,1.5-3.6,3.1-5.2,4.9c-1.6,1.7-3.3,3.4-5,4.9
	c-1.2,1.1-2.1,2.2-2.8,3.5c-0.8,1.4-1.5,2.7-2.1,4c-0.9,1.4-1.7,2.8-2.5,4.2c-0.8,1.5-1.6,2.9-2.5,4.3c-0.2,0.1-0.3,0.3-0.4,0.5
	c-0.3,0.7-0.6,1.3-0.9,1.9c-0.4,0.7-0.7,1.3-0.9,2c-0.1,0.1-0.1,0.2-0.2,0.3c-0.1,0.1-0.1,0.3-0.2,0.4c-0.2,0.3-0.3,0.6-0.5,0.9
	c-0.2,0.4-0.4,0.7-0.5,1.1c-0.1,0.5-0.2,0.9-0.2,1.3c0,0.2-0.1,0.4-0.1,0.6c-0.1,0.2-0.1,0.4-0.1,0.6v0.9c-0.3,0.1-0.5,0.1-0.8,0
	c-0.3-0.1-0.6,0-0.9,0.3c0.1,0.2,0.1,0.3,0.1,0.4s0.1,0.3,0.1,0.5c-0.2,0-0.4,0-0.5,0c-0.4,0-0.7-0.1-0.9-0.3
	c-0.2-0.1-0.4-0.3-0.6-0.4c-0.2-0.1-0.4-0.2-0.6-0.4c-0.6-0.2-1.1-0.7-1.5-1.6c-0.3-1.1-0.5-2.4-0.5-3.6c-0.1-1.3,0-2.4,0.1-3.5
	c0.2-1.2,0.4-2.3,0.7-3.6c0.1-0.3,0.1-0.6,0.2-0.9c0.1-0.3,0.2-0.7,0.3-1c0.6-1.8,1.1-3.6,1.7-5.4c0.5-1.8,1-3.6,1.5-5.4
	c0.1-0.1,0.1-0.2,0.1-0.3c0,0,0-0.1,0.1-0.3c0.3-0.8,0.6-1.7,0.8-2.6c0.2-0.9,0.4-1.8,0.5-2.6c0-0.4,0.1-0.6,0.2-0.9
	c0-0.2,0-0.5-0.1-0.8c-0.2,0.2-0.3,0.3-0.3,0.2c-0.2,0.2-0.4,0.4-0.6,0.8s-0.5,0.8-1,1c-0.7,0.5-1.4,1.3-2,2.3
	c-0.6,1.1-1.1,2-1.7,2.6c-0.6,0.9-1.3,1.9-1.9,2.8c-0.6,0.9-1.1,1.9-1.6,2.9s-0.9,2-1.3,3c-0.4,1-0.9,2-1.5,3
	c-0.4,0.7-0.7,1.5-1,2.2c-0.3,0.8-0.7,1.6-1,2.4c0,0.1-0.1,0.3-0.1,0.5c-0.1,0.2-0.1,0.3-0.1,0.5c0,0.6-0.1,1.1-0.4,1.6
	c-0.2,0.4-0.5,0.9-0.7,1.4c-0.1,0.3-0.3,0.6-0.5,0.8c-0.2,0.3-0.3,0.6-0.4,0.9c-0.3,0.6-0.7,1.1-1.1,1.6c-0.5,0.3-0.9,0.7-1.3,1.2
	c-0.2,0.3-0.5,0.6-0.8,0.8c-0.2,0.2-0.5,0.4-0.8,0.6c-0.4,0.3-0.8,0.3-1.1,0c-0.1-0.1-0.2-0.1-0.3-0.1c-0.1-0.1-0.2-0.1-0.4-0.2
	c-0.3,0-0.6-0.1-0.9-0.4c-0.2-0.3-0.5-0.4-0.9-0.4h-0.2c-0.6-0.1-1.1-0.3-1.4-0.7c-0.2-0.5-0.4-0.9-0.5-1.4v-2.2c0-1,0-2,0.1-2.9
	c0-1,0-2,0-3l0.1-0.8l-0.2,0.4c-0.6,1.4-1.2,2.9-2,4.5c-0.7,1.5-1.5,3-2.5,4.5c-0.9,1.4-2,2.7-3.2,3.9c-1.1,1.1-2.5,2-4,2.5
	c-0.7,0.3-1.6,0.3-2.7,0.2s-2-0.4-2.6-1c-0.3-0.2-0.6-0.6-0.8-1c-0.6-1-1-2-1.1-3c-0.1-1.1-0.1-2.2-0.1-3.3c0.1-0.8,0.1-1.7,0.2-2.5
	c0.1-0.9,0.2-1.7,0.3-2.6v-0.8c-0.1,0.1-0.3,0.2-0.4,0.3s-0.2,0.2-0.3,0.3c-0.6,0.5-1.2,1-1.8,1.4c-0.7,0.4-1.4,0.6-2.2,0.6
	c-0.6,0.1-1.1,0.2-1.6,0.4c-0.6,0.1-1.1,0.2-1.6,0.3c-1.1,0-2-0.1-2.9-0.4c-0.9-0.3-1.7-0.9-2.4-1.9c-0.7-1.2-0.4-0.6-0.9-1.9
	c-0.2,0.3,0,0.1-0.3,0.5c-0.2,0.3-0.3,0.5-0.5,0.9c-0.1,0.1-0.2,0.2-0.3,0.3c-0.4,0.3-0.7,0.6-0.9,0.9c-0.3,0.4-0.5,0.7-0.8,1
	l-0.1,0.1c-0.4,0.8-1,1.4-1.6,1.8c-0.6,0.5-1.2,1.1-1.8,1.7l-0.8,1.1c-0.5,0.6-1,1.3-1.5,1.8c-0.6,0.6-1.2,1.1-2,1.6
	c-0.8,0.5-1.7,1-2.6,1.5c-0.8,0.5-1.8,0.9-2.8,1.2c-0.8,0.2-1.6,0.5-2.4,0.7c-0.8,0.2-1.6,0.4-2.4,0.5c-0.6,0-1.1-0.1-1.4-0.2
	c-0.5-0.3-0.8-0.4-1.1-0.5c-0.9-0.4-1.7-1-2.4-1.7c-0.3-0.4-0.4-0.6-0.5-0.6c-0.6-0.6-1.1-1.2-1.4-1.9c-0.3-0.6-0.5-1.3-0.8-2.1
	l-0.2-0.3c-0.1-0.7,0-0.4-0.2-0.9c-0.2-0.6-0.3-1.3-0.3-2c-0.1-0.8-0.1-1.5-0.1-2.2v-2.1c-0.1-0.6-0.2-1.2-0.1-1.7s0.1-1,0.2-1.5
	c0.1-0.3,0.2-0.6,0.2-1c0-0.4,0-0.7,0.1-1c0-0.9,0.1-1.9,0.2-2.9c0.2-1.1,0.4-2.2,0.7-3.2c0.3-1.1,0.5-2.1,0.6-3.2
	c0.1-0.1,0.1-0.2,0.1-0.2c0-0.1,0-0.1,0.1-0.3c0.1-0.5,0.2-1,0.4-1.5c0.2-0.6,0.3-1.1,0.6-1.6c0.2-0.5,0.5-1.1,0.7-1.6
	c0.3-0.6,0.5-1.1,0.7-1.6c0.3-0.4,0.5-0.9,0.7-1.2c0.2-0.4,0.5-0.8,0.7-1.2c0.1-0.3,0.2-0.4,0.2-0.5c0.3-0.5,0.6-0.9,1-1.2
	c0.4-0.3,0.8-0.7,1.3-1c0.6-0.3,1.1-0.5,1.7-0.8c0.5-0.2,1.1-0.5,1.7-0.7c0.3-0.1,0.6-0.2,1-0.3c0.3,0,0.7-0.1,1-0.3
	c0.3,0,0.7-0.1,1-0.1c0.4,0,0.7-0.1,1-0.1c0.3-0.1,0.6-0.1,1.1-0.1c1-0.1,1.9-0.1,2.7,0.2c0.9,0.2,1.7,0.5,2.6,1
	c0.1,0,0.2,0.1,0.4,0.2c0.1,0.1,0.3,0.2,0.4,0.3c0.3,0.2,0.5,0.5,0.5,0.8c0,0.2,0.1,0.4,0.1,0.6c0.1,0.2,0.2,0.3,0.2,0.5
	c0.1,0.3,0.3,0.6,0.3,0.9c0.1,0.3,0.1,0.7,0.1,1c-0.1,0.2-0.1,0.3,0,0.5c0,0.5-0.1,0.9-0.2,1.3c-0.2,0.4-0.4,0.8-0.5,1.2
	c-0.3,0.3-0.7,0.6-1.2,0.7c-0.5,0.2-0.9,0.2-1.2,0.1c-0.2-0.1-0.3-0.3-0.3-0.5c0.1-0.3,0.1-0.6,0.1-0.9s0.1-0.6,0.2-0.9
	c0.1-0.4,0.1-0.7,0.1-1.1c-0.1-0.3-0.1-0.6-0.2-1c0-0.3-0.1-0.6-0.4-0.9c-0.2-0.1-0.4-0.3-0.6-0.4c-0.2-0.2-0.4-0.3-0.7-0.4
	l-0.5-0.2c-0.8-0.4-0.5-0.2-1.1-0.6c-0.3-0.1-0.6-0.1-0.9,0c-0.2,0.2-0.4,0.4-0.7,0.5c-0.2,0.2-0.4,0.4-0.6,0.5
	c-0.3,0.2-0.5,0.4-0.6,0.7c-0.4,1-0.9,2-1.6,2.8c-0.6,0.7-1.1,1.5-1.3,2.4c-0.1,0.5-0.3,0.9-0.5,1.3c-0.1,0.4-0.3,0.8-0.4,1.3
	c-0.1,0.3-0.2,0.5-0.2,0.7c-0.1,0.6-0.2,1.2-0.4,1.7c-0.1,0.6-0.3,1.2-0.5,1.8c-0.1,0.4-0.2,0.8-0.4,1.1c-0.1,0.4-0.2,0.9-0.2,1.3
	c0,0.1-0.1,0.3-0.1,0.4c-0.1,0.2-0.1,0.4-0.2,0.5c-0.3,0.8-0.5,1.7-0.6,2.6c-0.1,0.5-0.2,1-0.3,1.4c-0.1,0.5-0.2,1-0.3,1.5
	c-0.1,0-0.1,0.1-0.1,0.3c0,0.7-0.1,1.3-0.1,1.9c0,0.6-0.1,1.3-0.1,1.9c0,0.3,0,0.7,0.1,1.1v0.5c-0.1,0.4-0.1,0.7,0,1.1
	c0.1,0.4,0.1,0.7,0.1,1.1v1c-0.1,0.7,0,1.4,0.2,1.9c0.1,0.2,0.2,0.4,0.2,0.6c0.1,0.2,0.1,0.4,0.3,0.7c0,0.2,0.1,0.5,0.1,0.7
	c0.1,0.3,0.2,0.5,0.3,0.8c0.2,0.5,0.5,0.9,0.8,1.2c0.6,0.5,1.2,0.6,1.8,0.4c0.3-0.1,0.6-0.2,0.8-0.2c0.8-0.1,1.5-0.3,2.2-0.6
	c0.8-0.3,1.5-0.7,2.2-1.1c0.3-0.2,0.6-0.4,0.8-0.7c0.3-0.2,0.5-0.5,0.8-0.8c0.3-0.4,0.7-0.8,1.1-1.2l1.1-1.1c0.4-0.5,0.9-1,1.4-1.5
	s1-1,1.5-1.5c0.6-0.7,1.3-1.4,2-2.2c0.6-0.7,1.3-1.5,1.9-2.3c0-0.1,0.1-0.1,0.1-0.2c0,0,0,0,0.1-0.1c1-1.2,0.6-0.6,1.3-1.6
	c-0.1-2.5-0.1-1.3,0.2-3.5c0.1-0.5,0.2-1,0.2-1.4c0.1-0.4,0.1-0.9,0.3-1.3l0.8-2.8c0.2-0.5,0.4-1.1,0.6-1.6c0.2-0.6,0.4-1.1,0.5-1.7
	c0.6-2.2,1.6-4.1,3.2-5.9c0.4-0.5,0.9-1.1,1.4-1.7c0.4-0.5,0.8-0.9,1.3-1.2s1.1-0.6,1.6-0.7l2.2-0.9c0.7-0.2,1.3-0.3,2-0.4
	c0.6,0,1.2-0.1,1.9-0.2c0.4,0,0.6,0,0.8-0.1c0.6-0.2,1.1-0.2,1.6-0.2s1.1,0.1,1.6,0.2c0.4,0.1,0.8,0.2,1.1,0.5c0.4,0.3,0.7,0.6,1,1
	c0.2,0.3,0.4,0.6,0.6,0.8c0.2,0.3,0.4,0.6,0.5,0.9c0.5,1,0.4,1.9-0.4,2.7c-0.2,0.1-0.5,0.2-0.9,0.2c-0.2,0.1-0.4-0.1-0.5-0.4
	c-0.1-0.8-0.4-1.4-0.8-1.9c-0.5-0.5-0.9-1-1.4-1.6l-0.3-0.3c-1.1-0.3-2.1-0.4-3.1-0.2c-0.8,0.2-1.6,0.5-2.3,0.9
	c-0.8,0.3-1.4,0.9-1.9,1.7c-0.6,1.2-1.2,2.4-1.6,3.7c-0.4,1.3-0.9,2.6-1.4,3.8l-1.2,3.6c-0.5,1.5-0.9,2.9-1.2,4.3
	c-0.2,1.4-0.2,2.9,0.2,4.4c0.2,0.8,0.7,1.5,1.7,2.1c1,0.5,1.8,0.6,2.6,0.2c1.1-0.4,2-1.3,2.9-2.7c0.9-1.3,1.6-2.5,2.1-3.4
	c0.2-0.4,0.3-0.7,0.3-1.1c0.1-0.3,0.2-0.7,0.3-1c0.1-0.4,0.2-0.8,0.3-1.2c0-0.4,0.1-0.7,0.2-1c0.2-0.6,0.3-1.1,0.5-1.7
	c0.2-0.5,0.4-1.1,0.6-1.6c0.2-0.6,0.4-1.2,0.6-1.7c0.2-0.6,0.4-1.2,0.5-1.8c0.3-0.9,0.8-1.5,1.6-1.5c0.3-0.1,0.5-0.2,0.8-0.3
	c0.3,0,0.6,0,0.9-0.1c0.7-0.1,1.2,0.3,1.3,0.9l0.3,0.6c0.1,0.5,0.1,0.9-0.2,1.3c-0.2,0.4-0.2,0.8,0,1.3c0.1,0.3,0.1,0.5,0.1,0.7
	c0,0.2-0.1,0.4-0.1,0.7c0,1-0.1,2-0.4,3.2c-0.2,1.2-0.5,2.3-0.7,3.2c-0.1,1.1-0.3,2.1-0.3,3c-0.1,0.8-0.2,1.8-0.4,2.9
	c-0.1,0.3-0.2,0.7-0.3,1c0,0.4-0.1,0.7-0.1,1.1c-0.2,0.6-0.2,1.3-0.3,2c-0.1,0.7-0.2,1.4-0.3,2.2c0,0.3-0.1,0.6-0.1,0.8
	c0,0.3-0.1,0.6-0.1,0.9c0,0.2,0,0.5-0.1,1.1c0,0.5,0,1,0,1.5s0.2,0.9,0.5,1.2c0.2,0.3,0.7,0.2,1.4-0.1c0.3-0.1,0.9-0.6,1.6-1.3
	c0.8-0.7,1.3-1.2,1.6-1.5c0.4-0.7,1-1.5,1.7-2.5c0.6-1,1.2-1.9,1.5-2.7c0.8-1.5,1.6-3.3,2.5-5.4c1-2.1,1.8-3.9,2.5-5.4
	c0.1-0.3,0.2-0.5,0.2-0.8c0-0.2,0-0.2,0.1-0.2c0.2-1.5,0-0.5,0.5-3c0.1-1.1,0.3-2.2,0.3-3.4c0.1-1.1,0.3-2.2,0.6-3.3
	c0.3-1.2,0.5-2.4,0.8-3.7c0.2-1.2,0.5-2.5,0.7-3.7c0.1-0.3,0.1-0.7,0.1-1.1v-1.1c0-0.3,0.1-0.5,0.5-0.5c0.2-0.1,0.5-0.1,0.8,0
	c0.2,0,0.3,0,0.5,0c0.1,0.1,0.3,0.1,0.5,0.1c0.7,0.1,1.2,0.4,1.6,0.8c0.2,0.2,0.5,0.4,0.8,0.5c0.3,0.2,0.5,0.5,0.5,0.9v1.6
	c0,0.6,0.2,1.2,0.5,1.7c0.5,0.6,0.7,1.2,0.6,2c-0.1,0.7-0.3,1.4-0.4,2.1c-0.2,0.9-0.4,1.9-0.4,2.9c0,0.9-0.1,1.9-0.2,2.9
	c-0.1,1.1-0.2,2.2-0.3,3.3c0,1.1,0,2.3-0.1,3.4c0,0.2-0.1,0.5-0.2,1c-0.1,0.3-0.2,0.7-0.2,1.2v1.7c0.1-0.2,0.2-0.2,0.2-0.2l0.1-0.1
	c0.3-0.5,0.5-1,0.7-1.5s0.5-0.9,0.8-1.4c0.3-0.5,0.5-1,0.7-1.4c0.3-0.4,0.5-0.8,0.8-1.3c0.6-0.8,1.1-1.7,1.6-2.5
	c0.4-0.9,0.9-1.8,1.4-2.7c0.2-0.3,0.4-0.6,0.6-0.9c0.1-0.4,0.4-0.7,0.6-1l1.2-1.8c0.2-0.4,0.4-0.6,0.6-0.8l2.5-2.8
	c0.3-0.4,0.7-0.8,1.2-1.1c0.4-0.3,0.8-0.7,1.3-1c0.6-0.3,1.1-0.6,1.6-1.1c0.3-0.2,0.7-0.3,1.2-0.3h0.4c0.4,0,0.8,0,1.2-0.1
	s0.8,0,1.3,0.3l1.1,0.5c0.3,0.2,0.7,0.4,1,0.7c0.3,0,0.6,0.2,1,0.5c0,0.5,0,1,0,1.3c0,0.2,0.1,0.4,0.2,0.6c0.1,0.2,0.1,0.4,0.1,0.7
	c0.1,0.5,0.2,1,0.2,1.6c-0.1,0.5-0.2,1.1-0.3,1.6c0,0.7-0.1,1.3-0.2,1.9c0,0.6-0.1,1.2-0.2,1.8c-0.2,0.5-0.2,0.9-0.3,1.3
	c0,0.5-0.1,0.9-0.2,1.3c0,0.2,0,0.4-0.2,0.5c-0.1,0.2-0.3,0.6-0.4,1.3c0,0.1-0.1,0.4-0.2,0.9c0,0.2,0,0.4-0.1,0.5
	c0.2,0,0.3-0.1,0.5-0.3c0.5-0.8,1-1.7,1.6-2.6c0.5-0.9,1-1.8,1.5-2.6c0.1-0.2,0.2-0.3,0.2-0.4c0.1-0.1,0.2-0.3,0.3-0.4
	c0.7-0.8,1.3-1.6,1.8-2.4c0.6-0.8,1.2-1.6,1.8-2.5c0.2-0.1,0.2-0.3,0.3-0.4c0.1-0.2,0.2-0.3,0.3-0.4c0.8-1.5,1.9-2.9,3.3-4.2
	c0.5-0.5,1-1,1.5-1.6c0.6-0.5,1.1-1,1.6-1.5c1.1-1,2.1-1.8,3.1-2.3l0.7-0.3c0.1-0.1,0.3-0.2,0.5-0.3l0.6-0.3H26.6z M64.6,455
	c-0.1,0.1-0.2,0.2-0.3,0.2c0,0-0.1,0.1-0.2,0.2l-1.3,3c0,0.3,0,0.6,0.1,0.7c0,0.1,0,0.2,0.1,0.2v0.1c0.7-0.4,1.2-1.1,1.5-2
	C64.8,456.5,64.8,455.7,64.6,455z M143.3,390.6h-38.7v9.7h38.7V390.6z M94.9,390.6H56.2v9.7h38.7V390.6z M36.9,390.6H-1.8v9.7h38.7
	V390.6z M-59.9,390.6h-9.7v9.7h9.7V390.6z M-21.2,390.6h-9.7v9.7h9.7V390.6z M-79.3,371.3h-9.6v29h9.6V371.3z M-108.5,351.9H-147
	V400h9.6v-9.6h28.9v-9.6h-28.9v-19.3h28.9V351.9z M153,380.9h-9.7v9.7h9.7V380.9z M56.2,351.9h-9.7v38.7h9.7V351.9z M-1.8,361.6
	h-9.7v29h9.7v-9.7h29v-9.6h-29V361.6z M-50.2,380.9h-9.7v9.7h9.7V380.9z M-30.9,380.9h-9.6v9.7h9.6V380.9z M143.3,371.3h-29v9.6h29
	V371.3z M-40.5,371.3h-9.7v9.6h9.7V371.3z M-98.9,361.5h-9.6v19.3h9.6V361.5z M114.3,361.6h-9.7v9.7h9.7V361.6z M36.9,361.6h-9.7
	v9.7h9.7V361.6z M-50.2,361.6h-9.7v9.7h9.7V361.6z M-30.9,361.6h-9.6v9.7h9.6V361.6z M153,351.9h-38.7v9.7H153V351.9z M27.2,351.9
	h-29v9.7h29V351.9z M-59.9,351.9h-9.7v9.7h9.7V351.9z M-21.2,351.9h-9.7v9.7h9.7V351.9z M-79.3,351.9h-9.6v9.7h9.6V351.9z"/>
</svg>
