M48
;Layer_Color=9474304
;FILE_FORMAT=4:4
METRIC,LZ
;TYPE=PLATED
T1F00S00C0.1000
T4F00S00C0.9000
T5F00S00C3.0000
%
T01
X034185Y0086041
Y0086965
X03503
Y0086041
T04
X0416941Y0069088
Y0071628
Y0074168
Y0076708
Y0079248
X0321183
Y0081788
Y0084328
Y0086868
Y0089408
X0416941
Y0086868
Y0084328
Y0081788
X014093Y0122047
X013839
X013585
X013331
X013077
X012823
X012569
X012315
X012061
X011807
X011553
X011299
X011045
X010791
X010541Y0122047
X010287
X010033
X009779
X009525
X009271
X009017
X008763
X008509
X008255
X008001
X007747
X007493
X007239
X006985
X006731
X006477
X006223
X005969
X005715
X005461
X005207
X004953
X004699
X004445
T05
X003265Y0091522
X015265
Y0121522
X003265
M30
