G04*
G04 #@! TF.GenerationSoftware,Altium Limited,Altium Designer,19.0.14 (431)*
G04*
G04 Layer_Color=32896*
%FSLAX44Y44*%
%MOMM*%
G71*
G01*
G75*
%ADD14C,0.2000*%
%ADD16C,0.1270*%
%ADD109C,0.0000*%
%ADD110C,0.0500*%
G36*
X1548620Y1062000D02*
X1520620D01*
Y1074000D01*
X1548620D01*
Y1062000D01*
D02*
G37*
G36*
Y1046000D02*
X1520620D01*
Y1058000D01*
X1548620D01*
Y1046000D01*
D02*
G37*
G36*
X817130Y988000D02*
X789130D01*
Y1000000D01*
X817130D01*
Y988000D01*
D02*
G37*
G36*
X817230Y968500D02*
X789230D01*
Y980500D01*
X817230D01*
Y968500D01*
D02*
G37*
G36*
Y949500D02*
X789230D01*
Y961500D01*
X817230D01*
Y949500D01*
D02*
G37*
G36*
Y931250D02*
X789230D01*
Y943250D01*
X817230D01*
Y931250D01*
D02*
G37*
D14*
X698000Y1173000D02*
G03*
X698000Y1173000I-1000J0D01*
G01*
D02*
G03*
X698000Y1173000I-1000J0D01*
G01*
X802000Y1174250D02*
G03*
X802000Y1174250I-1000J0D01*
G01*
D02*
G03*
X802000Y1174250I-1000J0D01*
G01*
X1110000Y1174000D02*
G03*
X1110000Y1174000I-1000J0D01*
G01*
D02*
G03*
X1110000Y1174000I-1000J0D01*
G01*
X1208000Y1173000D02*
G03*
X1208000Y1173000I-1000J0D01*
G01*
D02*
G03*
X1208000Y1173000I-1000J0D01*
G01*
X498000D02*
G03*
X498000Y1173000I-1000J0D01*
G01*
D02*
G03*
X498000Y1173000I-1000J0D01*
G01*
X598000D02*
G03*
X598000Y1173000I-1000J0D01*
G01*
D02*
G03*
X598000Y1173000I-1000J0D01*
G01*
X903000D02*
G03*
X903000Y1173000I-1000J0D01*
G01*
D02*
G03*
X903000Y1173000I-1000J0D01*
G01*
X1003000D02*
G03*
X1003000Y1173000I-1000J0D01*
G01*
D02*
G03*
X1003000Y1173000I-1000J0D01*
G01*
X1310000D02*
G03*
X1310000Y1173000I-1000J0D01*
G01*
D02*
G03*
X1310000Y1173000I-1000J0D01*
G01*
X1403000D02*
G03*
X1403000Y1173000I-1000J0D01*
G01*
D02*
G03*
X1403000Y1173000I-1000J0D01*
G01*
D16*
X1129250Y1084300D02*
Y1154300D01*
X1059250Y1084300D02*
Y1154300D01*
X1129250D01*
X1059250Y1084300D02*
X1129250D01*
Y1154300D01*
X1059250Y1084300D02*
Y1154300D01*
X1129250D01*
X1059250Y1084300D02*
X1129250D01*
X669000Y1193000D02*
X701000D01*
X669000Y1177000D02*
Y1193000D01*
Y1177000D02*
X701000D01*
Y1193000D01*
X669000D02*
X701000D01*
X669000Y1177000D02*
Y1193000D01*
Y1177000D02*
X701000D01*
Y1193000D01*
X773000Y1194250D02*
X805000D01*
X773000Y1178250D02*
Y1194250D01*
Y1178250D02*
X805000D01*
Y1194250D01*
X773000D02*
X805000D01*
X773000Y1178250D02*
Y1194250D01*
Y1178250D02*
X805000D01*
Y1194250D01*
X1081000Y1194000D02*
X1113000D01*
X1081000Y1178000D02*
Y1194000D01*
Y1178000D02*
X1113000D01*
Y1194000D01*
X1081000D02*
X1113000D01*
X1081000Y1178000D02*
Y1194000D01*
Y1178000D02*
X1113000D01*
Y1194000D01*
X1179000Y1193000D02*
X1211000D01*
X1179000Y1177000D02*
Y1193000D01*
Y1177000D02*
X1211000D01*
Y1193000D01*
X1179000D02*
X1211000D01*
X1179000Y1177000D02*
Y1193000D01*
Y1177000D02*
X1211000D01*
Y1193000D01*
X469000D02*
X501000D01*
X469000Y1177000D02*
Y1193000D01*
Y1177000D02*
X501000D01*
Y1193000D01*
X469000D02*
X501000D01*
X469000Y1177000D02*
Y1193000D01*
Y1177000D02*
X501000D01*
Y1193000D01*
X569000D02*
X601000D01*
X569000Y1177000D02*
Y1193000D01*
Y1177000D02*
X601000D01*
Y1193000D01*
X569000D02*
X601000D01*
X569000Y1177000D02*
Y1193000D01*
Y1177000D02*
X601000D01*
Y1193000D01*
X874000D02*
X906000D01*
X874000Y1177000D02*
Y1193000D01*
Y1177000D02*
X906000D01*
Y1193000D01*
X874000D02*
X906000D01*
X874000Y1177000D02*
Y1193000D01*
Y1177000D02*
X906000D01*
Y1193000D01*
X974000D02*
X1006000D01*
X974000Y1177000D02*
Y1193000D01*
Y1177000D02*
X1006000D01*
Y1193000D01*
X974000D02*
X1006000D01*
X974000Y1177000D02*
Y1193000D01*
Y1177000D02*
X1006000D01*
Y1193000D01*
X1281000D02*
X1313000D01*
X1281000Y1177000D02*
Y1193000D01*
Y1177000D02*
X1313000D01*
Y1193000D01*
X1281000D02*
X1313000D01*
X1281000Y1177000D02*
Y1193000D01*
Y1177000D02*
X1313000D01*
Y1193000D01*
X1374000D02*
X1406000D01*
X1374000Y1177000D02*
Y1193000D01*
Y1177000D02*
X1406000D01*
Y1193000D01*
X1374000D02*
X1406000D01*
X1374000Y1177000D02*
Y1193000D01*
Y1177000D02*
X1406000D01*
Y1193000D01*
D109*
X1139100Y1149500D02*
G03*
X1139100Y1149500I-2000J0D01*
G01*
D02*
G03*
X1139100Y1149500I-2000J0D01*
G01*
D110*
X747250Y1100750D02*
Y1170750D01*
X742250Y1100750D02*
X747250D01*
X742250Y905750D02*
Y1100750D01*
Y905750D02*
X937250D01*
Y1100750D01*
X932250D02*
X937250D01*
X932250D02*
Y1170750D01*
X747250D02*
X932250D01*
M02*
