M48
;Layer_Color=9474304
;FILE_FORMAT=4:4
METRIC,LZ
;TYPE=PLATED
T1F00S00C0.3000
T2F00S00C0.5000
T4F00S00C0.6000
T5F00S00C0.8001
T6F00S00C0.9000
T7F00S00C3.0000
%
T01
X00426Y00923
X00462Y00922
X00564
X00606Y00921
X00618Y00916
X00667
X0067Y00935
X00705Y0091825
X00716Y0092825
X00728998Y00976998
X00727Y00984
X00708Y00993
X0077775Y00981
X00779Y00967
X007747Y00954
X00775Y0094
X00769Y01069
X00566Y01007
X0042
X00797Y01048
X00816998Y01054998
X00817Y01062
X00816998Y01068998
X00905172Y0104
X00907Y01031
X009074Y00978
X00948
X00958Y00998
X00948Y00926
X00938Y00911
X00892Y00901
X00869
X007953Y0091825
X01056Y01023
X01049Y01037
X01046Y01054
X0108Y0103
X01135Y0103775
X0112225Y01058
X01138Y01088
X01149Y01089
X01154Y01099
X01143Y01099
X01146998Y01115998
X0116Y01119
X0115725Y01107
X01174Y0105025
X01172998Y01042998
X011786Y010299
X01205Y0103
X01236Y0103475
X01259Y01044
X01262Y01054
X01274Y01084
X01243Y01083
X01226Y01111499
X01216
X01317Y0109
X01325Y0108975
X01341Y011008
X0135Y0111
X01362Y01117
X01379Y01103
X01397499Y01086
X01415Y01103
X01403Y01129
X01407Y01143
X01408Y01156
X014093Y01167
X014425Y01163
X0145Y01148
X01474Y01146
X01481Y01142
X01482076Y01132788
X01466Y01123
X01467997Y01171
X01475Y01036
X01469Y00998375
X01453127
X0146025Y0099
X01492Y00985625
X01538Y01052
X01377Y01057
X01378611Y0104
X013839Y01015
X01361
X01339Y010495
X01329Y01054
X01339Y01067
X0135Y01065
X01343Y01201
X01364
X01419Y01208
X01467997Y01207998
T02
X0107965Y011045
X0108965
X0109965
X0110965
Y011145
X0109965
X0108965
X0107965
Y011245
X0108965
X0109965
X0110965
Y011345
X0109965
X0108965
X0107965
T04
X0151842Y011128
Y011528
T05
X003115Y01124499
Y01154501
T06
X00322Y009626
Y00988
Y010134
Y010388
X01079Y0091022
X011044
X011298
X011552
X011806
X01206
X012314
X012568
X012822
X012823Y0122047
X013077
X013331
X013585
X013839
X014093
X012569
X012315
X012061
X011807
X011553
X011299
X011045
X010791
X010541Y0122047
X010287
X010033
X009779
X009525
X009271
X009017
X008763
X008509
X008255
X008001
X007747
X007493
X007239
X006985
X006731
X006477
X006223
X005969
X005715
X005461
X005207
X004953
X004699
X004445
T07
X003265Y0091522
X015265
Y0121522
X003265
M30
