G04*
G04 #@! TF.GenerationSoftware,Altium Limited,Altium Designer,19.0.14 (431)*
G04*
G04 Layer_Color=128*
%FSLAX44Y44*%
%MOMM*%
G71*
G01*
G75*
%ADD20R,2.0000X2.0000*%
%ADD21R,0.8000X0.9000*%
%ADD24R,0.9000X0.8000*%
%ADD82R,4.9500X4.9500*%
%ADD83R,1.1000X0.2200*%
%ADD84R,0.2200X1.1000*%
%ADD85R,2.5000X0.4000*%
%ADD86R,1.0000X1.0000*%
%ADD87R,0.5300X0.9700*%
%ADD88R,1.3500X1.3500*%
%ADD89R,1.6000X0.8000*%
%ADD90R,3.0000X2.1000*%
%ADD91R,0.8000X0.8000*%
%ADD92R,1.3000X1.5499*%
G36*
X1091050Y1116100D02*
X1072650D01*
Y1097700D01*
X1091050D01*
Y1116100D01*
D02*
G37*
G36*
Y1140900D02*
X1072650D01*
Y1122500D01*
X1091050D01*
Y1140900D01*
D02*
G37*
G36*
X1115850Y1116100D02*
X1097450D01*
Y1097700D01*
X1115850D01*
Y1116100D01*
D02*
G37*
G36*
Y1140900D02*
X1097450D01*
Y1122500D01*
X1115850D01*
Y1140900D01*
D02*
G37*
D20*
X598800Y900000D02*
D03*
X573400D02*
D03*
X548000D02*
D03*
X624200D02*
D03*
X649600D02*
D03*
X451400Y902000D02*
D03*
X426000D02*
D03*
X400600D02*
D03*
D21*
X1082000Y1028000D02*
D03*
X1068000D02*
D03*
X1082000Y1045000D02*
D03*
X1068000D02*
D03*
X1495250Y1067500D02*
D03*
X1509250D02*
D03*
X1509250Y1052000D02*
D03*
X1495250D02*
D03*
X851250Y994000D02*
D03*
X837250D02*
D03*
X851250Y974500D02*
D03*
X837250D02*
D03*
X851250Y955750D02*
D03*
X837250D02*
D03*
X851250Y937500D02*
D03*
X837250D02*
D03*
D24*
X1137500Y1075750D02*
D03*
Y1061750D02*
D03*
X1155250Y1076000D02*
D03*
Y1062000D02*
D03*
D82*
X1094250Y1119300D02*
D03*
D83*
X1058500Y1147300D02*
D03*
Y1143300D02*
D03*
Y1139300D02*
D03*
Y1135300D02*
D03*
Y1131300D02*
D03*
Y1127300D02*
D03*
Y1123300D02*
D03*
Y1119300D02*
D03*
Y1115300D02*
D03*
Y1111300D02*
D03*
Y1107300D02*
D03*
Y1103300D02*
D03*
Y1099300D02*
D03*
Y1095300D02*
D03*
Y1091300D02*
D03*
X1130000D02*
D03*
Y1095300D02*
D03*
Y1099300D02*
D03*
Y1103300D02*
D03*
Y1107300D02*
D03*
Y1111300D02*
D03*
Y1115300D02*
D03*
Y1119300D02*
D03*
Y1123300D02*
D03*
Y1127300D02*
D03*
Y1131300D02*
D03*
Y1135300D02*
D03*
Y1139300D02*
D03*
Y1143300D02*
D03*
Y1147300D02*
D03*
D84*
X1122250Y1155050D02*
D03*
X1118250D02*
D03*
X1114250D02*
D03*
X1110250D02*
D03*
X1106250D02*
D03*
X1102250D02*
D03*
X1098250D02*
D03*
X1094250D02*
D03*
X1090250D02*
D03*
X1086250D02*
D03*
X1082250D02*
D03*
X1078250D02*
D03*
X1074250D02*
D03*
X1070250D02*
D03*
X1066250D02*
D03*
Y1083550D02*
D03*
X1070250D02*
D03*
X1074250D02*
D03*
X1078250D02*
D03*
X1082250D02*
D03*
X1086250D02*
D03*
X1090250D02*
D03*
X1094250D02*
D03*
X1098250D02*
D03*
X1102250D02*
D03*
X1106250D02*
D03*
X1110250D02*
D03*
X1114250D02*
D03*
X1118250D02*
D03*
X1122250D02*
D03*
D85*
X1510020Y1126300D02*
D03*
Y1119800D02*
D03*
Y1132800D02*
D03*
Y1139300D02*
D03*
Y1145800D02*
D03*
D86*
X1517020Y1164700D02*
D03*
Y1100900D02*
D03*
D87*
X697000Y1193750D02*
D03*
X689000D02*
D03*
X681000D02*
D03*
X673000D02*
D03*
X697000Y1176250D02*
D03*
X689000D02*
D03*
X681000D02*
D03*
X673000D02*
D03*
X801000Y1195000D02*
D03*
X793000D02*
D03*
X785000D02*
D03*
X777000D02*
D03*
X801000Y1177500D02*
D03*
X793000D02*
D03*
X785000D02*
D03*
X777000D02*
D03*
X1109000Y1194750D02*
D03*
X1101000D02*
D03*
X1093000D02*
D03*
X1085000D02*
D03*
X1109000Y1177250D02*
D03*
X1101000D02*
D03*
X1093000D02*
D03*
X1085000D02*
D03*
X1207000Y1193750D02*
D03*
X1199000D02*
D03*
X1191000D02*
D03*
X1183000D02*
D03*
X1207000Y1176250D02*
D03*
X1199000D02*
D03*
X1191000D02*
D03*
X1183000D02*
D03*
X497000Y1193750D02*
D03*
X489000D02*
D03*
X481000D02*
D03*
X473000D02*
D03*
X497000Y1176250D02*
D03*
X489000D02*
D03*
X481000D02*
D03*
X473000D02*
D03*
X597000Y1193750D02*
D03*
X589000D02*
D03*
X581000D02*
D03*
X573000D02*
D03*
X597000Y1176250D02*
D03*
X589000D02*
D03*
X581000D02*
D03*
X573000D02*
D03*
X902000Y1193750D02*
D03*
X894000D02*
D03*
X886000D02*
D03*
X878000D02*
D03*
X902000Y1176250D02*
D03*
X894000D02*
D03*
X886000D02*
D03*
X878000D02*
D03*
X1002000Y1193750D02*
D03*
X994000D02*
D03*
X986000D02*
D03*
X978000D02*
D03*
X1002000Y1176250D02*
D03*
X994000D02*
D03*
X986000D02*
D03*
X978000D02*
D03*
X1309000Y1193750D02*
D03*
X1301000D02*
D03*
X1293000D02*
D03*
X1285000D02*
D03*
X1309000Y1176250D02*
D03*
X1301000D02*
D03*
X1293000D02*
D03*
X1285000D02*
D03*
X1402000Y1193750D02*
D03*
X1394000D02*
D03*
X1386000D02*
D03*
X1378000D02*
D03*
X1402000Y1176250D02*
D03*
X1394000D02*
D03*
X1386000D02*
D03*
X1378000D02*
D03*
D88*
X1456250Y1210500D02*
D03*
Y1163500D02*
D03*
D89*
X1505500Y998250D02*
D03*
Y985750D02*
D03*
D90*
X1534500Y1023750D02*
D03*
Y960250D02*
D03*
D91*
X1542620Y1068000D02*
D03*
X1526620D02*
D03*
X1542620Y1052000D02*
D03*
X1526620D02*
D03*
X795230Y955500D02*
D03*
X811230D02*
D03*
X795230Y974500D02*
D03*
X811230D02*
D03*
X795230Y937250D02*
D03*
X811230D02*
D03*
X795130Y994000D02*
D03*
X811130D02*
D03*
D92*
X442499Y927799D02*
D03*
Y1007301D02*
D03*
X397501Y927799D02*
D03*
Y1007301D02*
D03*
X737499Y927799D02*
D03*
Y1007301D02*
D03*
X692501Y927799D02*
D03*
Y1007301D02*
D03*
X589999Y927799D02*
D03*
Y1007301D02*
D03*
X545001Y927799D02*
D03*
Y1007301D02*
D03*
M02*
