%MOIN*%
%OFA0B0*%
%FSLAX44Y44*%
%IPPOS*%
%LPD*%
%ADD15C,0.01*%
%ADD17C,0.0039370078740157488*%
%ADD36R,0.039496062992125991X0.043433070866141732*%
%ADD37R,0.086740157480314953X0.043433070866141732*%
%ADD38R,0.043433070866141732X0.086740157480314953*%
%ADD39R,0.20485039370078742X0.20485039370078742*%
%ADD40R,0.055244094488188983X0.025716535433070866*%
%ADD41R,0.12611023622047243X0.090677165354330708*%
%ADD42R,0.070992125984251975X0.039496062992125991*%
%ADD43R,0.043433070866141732X0.039496062992125991*%
%ADD44R,0.068X0.033*%
%ADD45R,0.049338582677165357X0.031622047244094488*%
%ADD46R,0.025716535433070866X0.031622047244094488*%
%ADD47R,0.11036220472440945X0.078866141732283471*%
%ADD48R,0.055992125984251968X0.043984251968503939*%
%ADD49R,0.086740157480314953X0.039500000000000007*%
%ADD50R,0.039500000000000007X0.047370078740157487*%
%ADD51R,0.039500000000000007X0.043429133858267716*%
%ADD52R,0.031622047244094488X0.070992125984251975*%
%ADD53R,0.059181102362204731X0.035559055118110236*%
%ADD54C,0.055251968503937009*%
%ADD55R,0.051307086614173228X0.051307086614173228*%
%ADD56O,0.070992125984251975X0.055244094488188983*%
%ADD57O,0.078866141732283471X0.051307086614173228*%
%ADD58C,0.039500000000000007*%
%ADD59C,0.06705511811023622*%
%ADD60R,0.06705511811023622X0.06705511811023622*%
%ADD61R,0.06705511811023622X0.06705511811023622*%
%ADD62C,0.027685039370078744*%
%ADD63C,0.025716535433070866*%
%ADD64C,0.12611023622047243*%
%ADD77C,0.01*%
%ADD79P,0.055854330708661422X4X270*%
%ADD80R,0.06705511811023622X0.06705511811023622*%
%ADD81C,0.06705511811023622*%
%ADD82C,0.027685039370078744*%
%ADD83C,0.12611023622047243*%
G01*
G75*
D15*
X00003799Y00017331D02*
G03*
X00002618Y00016150J-00001181D01*
G01*
X00052224Y00016150D02*
G03*
X00051043Y00017331I-00001181D01*
G01*
X00051043Y00003158D02*
G03*
X00052224Y00004339J00001181D01*
G01*
X00002618Y00004339D02*
G03*
X00003799Y00003158I00001181D01*
G01*
X00002618Y00004339D02*
X00002618Y00016150D01*
X00003799Y00017321D02*
X00051043Y00017321D01*
X00003799Y00003158D02*
X00051043Y00003158D01*
X00052224Y00004339D02*
X00052224Y00016150D01*
D17*
X00047864Y00012238D02*
X00047903Y00012277D01*
X00047864Y00012198D02*
X00047942Y00012277D01*
X00047864Y00012159D02*
X00047982Y00012277D01*
X00047864Y00012120D02*
X00048021Y00012277D01*
X00047864Y00012080D02*
X00048061Y00012277D01*
X00047864Y00012041D02*
X00048100Y00012277D01*
X00047864Y00012001D02*
X00048139Y00012277D01*
X00047864Y00011962D02*
X00048179Y00012277D01*
X00047864Y00011923D02*
X00048218Y00012277D01*
X00047864Y00011883D02*
X00048257Y00012277D01*
X00047864Y00011127D02*
X00048375Y00011127D01*
X00048375Y00012277D01*
X00047864Y00012277D02*
X00048375Y00012277D01*
X00047864Y00011127D02*
X00047864Y00012277D01*
D36*
X00042125Y00008179D02*
D03*
X00041574Y00008179D02*
D03*
X00005738Y00005964D02*
D03*
X00005186Y00005964D02*
D03*
X00047470Y00006742D02*
D03*
X00048021Y00006742D02*
D03*
X00048021Y00006181D02*
D03*
X00047470Y00006181D02*
D03*
X00041564Y00008769D02*
D03*
X00042116Y00008769D02*
D03*
X00048435Y00008149D02*
D03*
X00047883Y00008149D02*
D03*
X00005738Y00006712D02*
D03*
X00005186Y00006712D02*
D03*
X00016250Y00005994D02*
D03*
X00015698Y00005994D02*
D03*
X00016250Y00006722D02*
D03*
X00015698Y00006722D02*
D03*
X00016250Y00007450D02*
D03*
X00015698Y00007450D02*
D03*
X00016250Y00008218D02*
D03*
X00015698Y00008218D02*
D03*
D37*
X00027352Y00011352D02*
D03*
X00027352Y00010852D02*
D03*
X00027352Y00010352D02*
D03*
X00027352Y00009852D02*
D03*
X00027352Y00009352D02*
D03*
X00027352Y00008852D02*
D03*
X00027352Y00008352D02*
D03*
X00027352Y00007852D02*
D03*
X00027352Y00007352D02*
D03*
X00027352Y00006852D02*
D03*
X00027352Y00006352D02*
D03*
X00027352Y00005852D02*
D03*
X00027352Y00005352D02*
D03*
X00027352Y00004852D02*
D03*
X00020659Y00004852D02*
D03*
X00020659Y00005352D02*
D03*
X00020659Y00005852D02*
D03*
X00020659Y00006352D02*
D03*
X00020659Y00006852D02*
D03*
X00020659Y00007352D02*
D03*
X00020659Y00007852D02*
D03*
X00020659Y00008352D02*
D03*
X00020659Y00008852D02*
D03*
X00020659Y00009352D02*
D03*
X00020659Y00009852D02*
D03*
X00020659Y00010352D02*
D03*
X00020659Y00010852D02*
D03*
X00020659Y00011352D02*
D03*
D38*
X00026255Y00004458D02*
D03*
X00025755Y00004458D02*
D03*
X00025255Y00004458D02*
D03*
X00024755Y00004458D02*
D03*
X00024255Y00004458D02*
D03*
X00023755Y00004458D02*
D03*
X00023255Y00004458D02*
D03*
X00022755Y00004458D02*
D03*
X00022255Y00004458D02*
D03*
X00021755Y00004458D02*
D03*
D39*
X00023612Y00008399D02*
D03*
D40*
X00049852Y00012391D02*
D03*
X00049852Y00012647D02*
D03*
X00049852Y00012903D02*
D03*
X00049852Y00013159D02*
D03*
X00049852Y00013415D02*
D03*
D41*
X00050984Y00008238D02*
D03*
X00050984Y00005738D02*
D03*
D42*
X00049842Y00007234D02*
D03*
X00049842Y00006742D02*
D03*
D43*
X00037086Y00011791D02*
D03*
X00037086Y00012342D02*
D03*
X00035708Y00010118D02*
D03*
X00035708Y00010669D02*
D03*
X00045009Y00009183D02*
D03*
X00045009Y00009734D02*
D03*
X00045344Y00012273D02*
D03*
X00045344Y00011722D02*
D03*
X00037086Y00010669D02*
D03*
X00037086Y00011220D02*
D03*
X00036446Y00011210D02*
D03*
X00036446Y00010659D02*
D03*
X00037923Y00011505D02*
D03*
X00037923Y00012057D02*
D03*
X00040482Y00012066D02*
D03*
X00040482Y00011515D02*
D03*
X00048612Y00006179D02*
D03*
X00048612Y00006730D02*
D03*
X00028877Y00010984D02*
D03*
X00028877Y00010433D02*
D03*
X00029655Y00011761D02*
D03*
X00029655Y00011210D02*
D03*
D44*
X00043698Y00011013D02*
D03*
X00041576Y00012013D02*
D03*
X00043698Y00010513D02*
D03*
X00043698Y00011513D02*
D03*
X00043698Y00012013D02*
D03*
X00041576Y00011513D02*
D03*
X00041576Y00012513D02*
D03*
X00041576Y00013013D02*
D03*
X00043698Y00013013D02*
D03*
X00041576Y00014013D02*
D03*
X00043698Y00012513D02*
D03*
X00043698Y00013513D02*
D03*
X00041576Y00013513D02*
D03*
X00043698Y00014013D02*
D03*
X00041576Y00011013D02*
D03*
X00041576Y00010513D02*
D03*
D45*
X00047667Y00012076D02*
D03*
X00047667Y00011328D02*
D03*
X00048572Y00011702D02*
D03*
D46*
X00046683Y00008740D02*
D03*
X00046309Y00009842D02*
D03*
X00045935Y00008740D02*
D03*
X00046309Y00008740D02*
D03*
X00046683Y00009842D02*
D03*
X00045935Y00009842D02*
D03*
D47*
X00046309Y00009291D02*
D03*
D48*
X00046702Y00012278D02*
D03*
X00046702Y00010988D02*
D03*
D49*
X00003927Y00012254D02*
D03*
X00003927Y00014026D02*
D03*
X00003927Y00012845D02*
D03*
D50*
X00002657Y00011692D02*
D03*
X00002657Y00014645D02*
D03*
D51*
X00003543Y00011673D02*
D03*
X00003543Y00014665D02*
D03*
D52*
X00038799Y00012580D02*
D03*
X00039547Y00012580D02*
D03*
X00039173Y00013446D02*
D03*
X00039557Y00011062D02*
D03*
X00038809Y00011062D02*
D03*
X00039183Y00010196D02*
D03*
D53*
X00048622Y00009094D02*
D03*
X00048622Y00009468D02*
D03*
X00048622Y00009842D02*
D03*
X00047677Y00009842D02*
D03*
X00047677Y00009094D02*
D03*
D54*
X00006240Y00011295D02*
D03*
X00006240Y00012295D02*
D03*
X00006240Y00013295D02*
D03*
X00006240Y00014295D02*
D03*
D55*
X00050802Y00014566D02*
D03*
X00051166Y00014566D02*
D03*
X00051166Y00011240D02*
D03*
X00050802Y00011240D02*
D03*
D56*
X00049970Y00011486D02*
D03*
X00049970Y00014320D02*
D03*
D57*
X00050639Y00011240D02*
D03*
X00051328Y00011240D02*
D03*
X00051328Y00014566D02*
D03*
X00050639Y00014566D02*
D03*
D58*
X00003100Y00012578D02*
D03*
X00003100Y00013759D02*
D03*
D59*
X00003622Y00006202D02*
D03*
X00003622Y00007202D02*
D03*
X00003622Y00008202D02*
D03*
X00003622Y00009202D02*
D03*
X00034425Y00004142D02*
D03*
X00041425Y00004142D02*
D03*
X00040425Y00004142D02*
D03*
X00039425Y00004142D02*
D03*
X00038425Y00004142D02*
D03*
X00037425Y00004142D02*
D03*
X00036425Y00004142D02*
D03*
X00035425Y00004142D02*
D03*
X00042429Y00016357D02*
D03*
X00043429Y00016357D02*
D03*
X00046429Y00016357D02*
D03*
X00045429Y00016357D02*
D03*
X00044429Y00016357D02*
D03*
X00041429Y00016357D02*
D03*
X00025444Y00016357D02*
D03*
X00024444Y00016357D02*
D03*
X00023444Y00016357D02*
D03*
X00019444Y00016357D02*
D03*
X00020444Y00016357D02*
D03*
X00021444Y00016357D02*
D03*
X00022444Y00016357D02*
D03*
X00026444Y00016357D02*
D03*
X00009444Y00016357D02*
D03*
X00010444Y00016357D02*
D03*
X00011444Y00016357D02*
D03*
X00012444Y00016357D02*
D03*
X00013444Y00016357D02*
D03*
X00014444Y00016357D02*
D03*
X00015444Y00016357D02*
D03*
X00016444Y00016357D02*
D03*
X00017444Y00016357D02*
D03*
X00018444Y00016357D02*
D03*
X00027444Y00016357D02*
D03*
X00028444Y00016357D02*
D03*
X00029444Y00016357D02*
D03*
X00030444Y00016357D02*
D03*
X00031444Y00016357D02*
D03*
X00032444Y00016357D02*
D03*
X00040429Y00016357D02*
D03*
X00039429Y00016357D02*
D03*
X00038429Y00016357D02*
D03*
X00037429Y00016357D02*
D03*
X00036429Y00016357D02*
D03*
X00035429Y00016357D02*
D03*
X00034429Y00016357D02*
D03*
D60*
X00003622Y00010202D02*
D03*
D61*
X00033425Y00004142D02*
D03*
X00008444Y00016357D02*
D03*
X00033429Y00016357D02*
D03*
D62*
X00036267Y00006889D02*
D03*
X00033464Y00006889D02*
D03*
X00026255Y00006889D02*
D03*
X00042696Y00008759D02*
D03*
X00039429Y00008769D02*
D03*
X00037098Y00006496D02*
D03*
X00038248Y00008346D02*
D03*
X00044124Y00008818D02*
D03*
X00021525Y00008326D02*
D03*
X00028248Y00008346D02*
D03*
X00033405Y00008139D02*
D03*
X00038248Y00009822D02*
D03*
X00028238Y00011017D02*
D03*
X00025846Y00009852D02*
D03*
X00028257Y00008877D02*
D03*
X00026122Y00010846D02*
D03*
X00024675Y00010324D02*
D03*
X00019104Y00009645D02*
D03*
X00018700Y00010344D02*
D03*
X00018425Y00006003D02*
D03*
X00018425Y00006722D02*
D03*
X00018395Y00008218D02*
D03*
X00018405Y00007470D02*
D03*
X00016712Y00005994D02*
D03*
X00016702Y00006712D02*
D03*
X00016702Y00007460D02*
D03*
X00016702Y00008218D02*
D03*
X00042500Y00011017D02*
D03*
X00043118Y00011013D02*
D03*
X00037539Y00009547D02*
D03*
X00037539Y00009047D02*
D03*
X00039222Y00011801D02*
D03*
X00040807Y00011102D02*
D03*
X00048336Y00012667D02*
D03*
X00047696Y00013336D02*
D03*
X00046003Y00011417D02*
D03*
X00045807Y00015019D02*
D03*
X00047362Y00008494D02*
D03*
X00049281Y00009094D02*
D03*
X00047175Y00010383D02*
D03*
X00046673Y00008224D02*
D03*
X00046624Y00014183D02*
D03*
D63*
X00036316Y00012059D02*
D03*
X00036476Y00012470D02*
D03*
X00035994Y00012293D02*
D03*
X00036043Y00011692D02*
D03*
X00035875Y00011338D02*
D03*
D64*
X00003799Y00016150D02*
D03*
X00051043Y00016150D02*
D03*
X00051043Y00004339D02*
D03*
X00003799Y00004339D02*
D03*
G04 next file*
G04*
G04 #@! TF.GenerationSoftware,Altium Limited,Altium Designer,18.1.9 (240)*
G04*
G04 Layer_Color=8388736*
G04 skipping 71
G01*
G75*
D77*
X00002755Y00019685D02*
G03*
X00003937Y00018503I00001181D01*
G01*
X00051181Y00018503D02*
G03*
X00052362Y00019685J00001181D01*
G01*
X00052362Y00031496D02*
G03*
X00051181Y00032677I-00001181D01*
G01*
X00003937Y00032677D02*
G03*
X00002755Y00031496J-00001181D01*
G01*
X00052362Y00019685D02*
X00052362Y00031496D01*
X00003937Y00018503D02*
X00051181Y00018503D01*
X00003937Y00032667D02*
X00051181Y00032667D01*
X00002755Y00019685D02*
X00002755Y00031496D01*
D79*
X00050251Y00021127D02*
D03*
X00049806Y00020682D02*
D03*
X00049070Y00021127D02*
D03*
X00048624Y00020682D02*
D03*
X00047889Y00021127D02*
D03*
X00047443Y00020682D02*
D03*
X00046708Y00021127D02*
D03*
X00046262Y00020682D02*
D03*
X00045527Y00021127D02*
D03*
X00045081Y00020682D02*
D03*
X00044345Y00021127D02*
D03*
X00043900Y00020682D02*
D03*
X00043164Y00021127D02*
D03*
X00042719Y00020682D02*
D03*
X00041983Y00021127D02*
D03*
X00041538Y00020682D02*
D03*
X00040802Y00021127D02*
D03*
X00040357Y00020682D02*
D03*
X00039621Y00021127D02*
D03*
X00039176Y00020682D02*
D03*
X00038440Y00021127D02*
D03*
X00037995Y00020682D02*
D03*
X00037259Y00021127D02*
D03*
X00036813Y00020682D02*
D03*
X00036078Y00021127D02*
D03*
X00035632Y00020682D02*
D03*
X00034897Y00021127D02*
D03*
X00034451Y00020682D02*
D03*
X00033716Y00021127D02*
D03*
X00033270Y00020682D02*
D03*
X00032534Y00021127D02*
D03*
X00032089Y00020682D02*
D03*
X00031353Y00021127D02*
D03*
X00030908Y00020682D02*
D03*
X00030172Y00021127D02*
D03*
X00029727Y00020682D02*
D03*
X00028991Y00021127D02*
D03*
X00028546Y00020682D02*
D03*
X00027810Y00021127D02*
D03*
X00027365Y00020682D02*
D03*
X00026629Y00021127D02*
D03*
X00026184Y00020682D02*
D03*
X00025448Y00021127D02*
D03*
X00025002Y00020682D02*
D03*
X00024267Y00021127D02*
D03*
X00023821Y00020682D02*
D03*
X00023086Y00021127D02*
D03*
X00022640Y00020682D02*
D03*
X00021905Y00021127D02*
D03*
X00021459Y00020682D02*
D03*
X00020723Y00021127D02*
D03*
X00020278Y00020682D02*
D03*
X00019542Y00021127D02*
D03*
X00019097Y00020682D02*
D03*
X00018361Y00021127D02*
D03*
X00017916Y00020682D02*
D03*
X00017180Y00021127D02*
D03*
X00016735Y00020682D02*
D03*
X00015999Y00021127D02*
D03*
X00015554Y00020682D02*
D03*
X00014818Y00021127D02*
D03*
X00014372Y00020682D02*
D03*
X00013637Y00021127D02*
D03*
X00013191Y00020682D02*
D03*
X00012456Y00021127D02*
D03*
X00012010Y00020682D02*
D03*
X00011275Y00021127D02*
D03*
X00010829Y00020682D02*
D03*
X00010094Y00021127D02*
D03*
X00009648Y00020682D02*
D03*
X00008912Y00021127D02*
D03*
X00008467Y00020682D02*
D03*
X00007731Y00021127D02*
D03*
X00007286Y00020682D02*
D03*
X00006550Y00021127D02*
D03*
X00006105Y00020682D02*
D03*
X00005369Y00021127D02*
D03*
X00004924Y00020682D02*
D03*
X00050251Y00022308D02*
D03*
X00049806Y00021863D02*
D03*
X00049070Y00022308D02*
D03*
X00048624Y00021863D02*
D03*
X00047889Y00022308D02*
D03*
X00047443Y00021863D02*
D03*
X00046708Y00022308D02*
D03*
X00046262Y00021863D02*
D03*
X00045527Y00022308D02*
D03*
X00045081Y00021863D02*
D03*
X00044345Y00022308D02*
D03*
X00043900Y00021863D02*
D03*
X00043164Y00022308D02*
D03*
X00042719Y00021863D02*
D03*
X00041983Y00022308D02*
D03*
X00041538Y00021863D02*
D03*
X00040802Y00022308D02*
D03*
X00040357Y00021863D02*
D03*
X00039621Y00022308D02*
D03*
X00039176Y00021863D02*
D03*
X00038440Y00022308D02*
D03*
X00037995Y00021863D02*
D03*
X00037259Y00022308D02*
D03*
X00036813Y00021863D02*
D03*
X00036078Y00022308D02*
D03*
X00035632Y00021863D02*
D03*
X00034897Y00022308D02*
D03*
X00034451Y00021863D02*
D03*
X00033716Y00022308D02*
D03*
X00033270Y00021863D02*
D03*
X00032534Y00022308D02*
D03*
X00032089Y00021863D02*
D03*
X00031353Y00022308D02*
D03*
X00030908Y00021863D02*
D03*
X00030172Y00022308D02*
D03*
X00029727Y00021863D02*
D03*
X00028991Y00022308D02*
D03*
X00028546Y00021863D02*
D03*
X00027810Y00022308D02*
D03*
X00027365Y00021863D02*
D03*
X00026629Y00022308D02*
D03*
X00026184Y00021863D02*
D03*
X00025448Y00022308D02*
D03*
X00025002Y00021863D02*
D03*
X00024267Y00022308D02*
D03*
X00023821Y00021863D02*
D03*
X00023086Y00022308D02*
D03*
X00022640Y00021863D02*
D03*
X00021905Y00022308D02*
D03*
X00021459Y00021863D02*
D03*
X00020723Y00022308D02*
D03*
X00020278Y00021863D02*
D03*
X00019542Y00022308D02*
D03*
X00019097Y00021863D02*
D03*
X00018361Y00022308D02*
D03*
X00017916Y00021863D02*
D03*
X00017180Y00022308D02*
D03*
X00016735Y00021863D02*
D03*
X00015999Y00022308D02*
D03*
X00015554Y00021863D02*
D03*
X00014818Y00022308D02*
D03*
X00014372Y00021863D02*
D03*
X00013637Y00022308D02*
D03*
X00013191Y00021863D02*
D03*
X00012456Y00022308D02*
D03*
X00012010Y00021863D02*
D03*
X00011275Y00022308D02*
D03*
X00010829Y00021863D02*
D03*
X00010094Y00022308D02*
D03*
X00009648Y00021863D02*
D03*
X00008912Y00022308D02*
D03*
X00008467Y00021863D02*
D03*
X00007731Y00022308D02*
D03*
X00007286Y00021863D02*
D03*
X00006550Y00022308D02*
D03*
X00006105Y00021863D02*
D03*
X00005369Y00022308D02*
D03*
X00004924Y00021863D02*
D03*
X00050251Y00023489D02*
D03*
X00049806Y00023044D02*
D03*
X00049070Y00023489D02*
D03*
X00048624Y00023044D02*
D03*
X00047889Y00023489D02*
D03*
X00047443Y00023044D02*
D03*
X00046708Y00023489D02*
D03*
X00046262Y00023044D02*
D03*
X00045527Y00023489D02*
D03*
X00045081Y00023044D02*
D03*
X00044345Y00023489D02*
D03*
X00043900Y00023044D02*
D03*
X00043164Y00023489D02*
D03*
X00042719Y00023044D02*
D03*
X00041983Y00023489D02*
D03*
X00041538Y00023044D02*
D03*
X00040802Y00023489D02*
D03*
X00040357Y00023044D02*
D03*
X00039621Y00023489D02*
D03*
X00039176Y00023044D02*
D03*
X00038440Y00023489D02*
D03*
X00037995Y00023044D02*
D03*
X00037259Y00023489D02*
D03*
X00036813Y00023044D02*
D03*
X00036078Y00023489D02*
D03*
X00035632Y00023044D02*
D03*
X00034897Y00023489D02*
D03*
X00034451Y00023044D02*
D03*
X00033716Y00023489D02*
D03*
X00033270Y00023044D02*
D03*
X00032534Y00023489D02*
D03*
X00032089Y00023044D02*
D03*
X00031353Y00023489D02*
D03*
X00030908Y00023044D02*
D03*
X00030172Y00023489D02*
D03*
X00029727Y00023044D02*
D03*
X00028991Y00023489D02*
D03*
X00028546Y00023044D02*
D03*
X00027810Y00023489D02*
D03*
X00027365Y00023044D02*
D03*
X00026629Y00023489D02*
D03*
X00026184Y00023044D02*
D03*
X00025448Y00023489D02*
D03*
X00025002Y00023044D02*
D03*
X00024267Y00023489D02*
D03*
X00023821Y00023044D02*
D03*
X00023086Y00023489D02*
D03*
X00022640Y00023044D02*
D03*
X00021905Y00023489D02*
D03*
X00021459Y00023044D02*
D03*
X00020723Y00023489D02*
D03*
X00020278Y00023044D02*
D03*
X00019542Y00023489D02*
D03*
X00019097Y00023044D02*
D03*
X00018361Y00023489D02*
D03*
X00017916Y00023044D02*
D03*
X00017180Y00023489D02*
D03*
X00016735Y00023044D02*
D03*
X00015999Y00023489D02*
D03*
X00015554Y00023044D02*
D03*
X00014818Y00023489D02*
D03*
X00014372Y00023044D02*
D03*
X00013637Y00023489D02*
D03*
X00013191Y00023044D02*
D03*
X00012456Y00023489D02*
D03*
X00012010Y00023044D02*
D03*
X00011275Y00023489D02*
D03*
X00010829Y00023044D02*
D03*
X00010094Y00023489D02*
D03*
X00009648Y00023044D02*
D03*
X00008912Y00023489D02*
D03*
X00008467Y00023044D02*
D03*
X00007731Y00023489D02*
D03*
X00007286Y00023044D02*
D03*
X00006550Y00023489D02*
D03*
X00006105Y00023044D02*
D03*
X00005369Y00023489D02*
D03*
X00004924Y00023044D02*
D03*
X00050251Y00024670D02*
D03*
X00049806Y00024225D02*
D03*
X00049070Y00024670D02*
D03*
X00048624Y00024225D02*
D03*
X00047889Y00024670D02*
D03*
X00047443Y00024225D02*
D03*
X00046708Y00024670D02*
D03*
X00046262Y00024225D02*
D03*
X00045527Y00024670D02*
D03*
X00045081Y00024225D02*
D03*
X00044345Y00024670D02*
D03*
X00043900Y00024225D02*
D03*
X00043164Y00024670D02*
D03*
X00042719Y00024225D02*
D03*
X00041983Y00024670D02*
D03*
X00041538Y00024225D02*
D03*
X00040802Y00024670D02*
D03*
X00040357Y00024225D02*
D03*
X00039621Y00024670D02*
D03*
X00039176Y00024225D02*
D03*
X00038440Y00024670D02*
D03*
X00037995Y00024225D02*
D03*
X00037259Y00024670D02*
D03*
X00036813Y00024225D02*
D03*
X00036078Y00024670D02*
D03*
X00035632Y00024225D02*
D03*
X00034897Y00024670D02*
D03*
X00034451Y00024225D02*
D03*
X00033716Y00024670D02*
D03*
X00033270Y00024225D02*
D03*
X00032534Y00024670D02*
D03*
X00032089Y00024225D02*
D03*
X00031353Y00024670D02*
D03*
X00030908Y00024225D02*
D03*
X00030172Y00024670D02*
D03*
X00029727Y00024225D02*
D03*
X00028991Y00024670D02*
D03*
X00028546Y00024225D02*
D03*
X00027810Y00024670D02*
D03*
X00027365Y00024225D02*
D03*
X00026629Y00024670D02*
D03*
X00026184Y00024225D02*
D03*
X00025448Y00024670D02*
D03*
X00025002Y00024225D02*
D03*
X00024267Y00024670D02*
D03*
X00023821Y00024225D02*
D03*
X00023086Y00024670D02*
D03*
X00022640Y00024225D02*
D03*
X00021905Y00024670D02*
D03*
X00021459Y00024225D02*
D03*
X00020723Y00024670D02*
D03*
X00020278Y00024225D02*
D03*
X00019542Y00024670D02*
D03*
X00019097Y00024225D02*
D03*
X00018361Y00024670D02*
D03*
X00017916Y00024225D02*
D03*
X00017180Y00024670D02*
D03*
X00016735Y00024225D02*
D03*
X00015999Y00024670D02*
D03*
X00015554Y00024225D02*
D03*
X00014818Y00024670D02*
D03*
X00014372Y00024225D02*
D03*
X00013637Y00024670D02*
D03*
X00013191Y00024225D02*
D03*
X00012456Y00024670D02*
D03*
X00012010Y00024225D02*
D03*
X00011275Y00024670D02*
D03*
X00010829Y00024225D02*
D03*
X00010094Y00024670D02*
D03*
X00009648Y00024225D02*
D03*
X00008912Y00024670D02*
D03*
X00008467Y00024225D02*
D03*
X00007731Y00024670D02*
D03*
X00007286Y00024225D02*
D03*
X00006550Y00024670D02*
D03*
X00006105Y00024225D02*
D03*
X00005369Y00024670D02*
D03*
X00004924Y00024225D02*
D03*
X00050251Y00025851D02*
D03*
X00049806Y00025406D02*
D03*
X00049070Y00025851D02*
D03*
X00048624Y00025406D02*
D03*
X00047889Y00025851D02*
D03*
X00047443Y00025406D02*
D03*
X00046708Y00025851D02*
D03*
X00046262Y00025406D02*
D03*
X00045527Y00025851D02*
D03*
X00045081Y00025406D02*
D03*
X00044345Y00025851D02*
D03*
X00043900Y00025406D02*
D03*
X00043164Y00025851D02*
D03*
X00042719Y00025406D02*
D03*
X00041983Y00025851D02*
D03*
X00041538Y00025406D02*
D03*
X00040802Y00025851D02*
D03*
X00040357Y00025406D02*
D03*
X00039621Y00025851D02*
D03*
X00039176Y00025406D02*
D03*
X00038440Y00025851D02*
D03*
X00037995Y00025406D02*
D03*
X00037259Y00025851D02*
D03*
X00036813Y00025406D02*
D03*
X00036078Y00025851D02*
D03*
X00035632Y00025406D02*
D03*
X00034897Y00025851D02*
D03*
X00034451Y00025406D02*
D03*
X00033716Y00025851D02*
D03*
X00033270Y00025406D02*
D03*
X00032534Y00025851D02*
D03*
X00032089Y00025406D02*
D03*
X00031353Y00025851D02*
D03*
X00030908Y00025406D02*
D03*
X00030172Y00025851D02*
D03*
X00029727Y00025406D02*
D03*
X00028991Y00025851D02*
D03*
X00028546Y00025406D02*
D03*
X00027810Y00025851D02*
D03*
X00027365Y00025406D02*
D03*
X00026629Y00025851D02*
D03*
X00026184Y00025406D02*
D03*
X00025448Y00025851D02*
D03*
X00025002Y00025406D02*
D03*
X00024267Y00025851D02*
D03*
X00023821Y00025406D02*
D03*
X00023086Y00025851D02*
D03*
X00022640Y00025406D02*
D03*
X00021905Y00025851D02*
D03*
X00021459Y00025406D02*
D03*
X00020723Y00025851D02*
D03*
X00020278Y00025406D02*
D03*
X00019542Y00025851D02*
D03*
X00019097Y00025406D02*
D03*
X00018361Y00025851D02*
D03*
X00017916Y00025406D02*
D03*
X00017180Y00025851D02*
D03*
X00016735Y00025406D02*
D03*
X00015999Y00025851D02*
D03*
X00015554Y00025406D02*
D03*
X00014818Y00025851D02*
D03*
X00014372Y00025406D02*
D03*
X00013637Y00025851D02*
D03*
X00013191Y00025406D02*
D03*
X00012456Y00025851D02*
D03*
X00012010Y00025406D02*
D03*
X00011275Y00025851D02*
D03*
X00010829Y00025406D02*
D03*
X00010094Y00025851D02*
D03*
X00009648Y00025406D02*
D03*
X00008912Y00025851D02*
D03*
X00008467Y00025406D02*
D03*
X00007731Y00025851D02*
D03*
X00007286Y00025406D02*
D03*
X00006550Y00025851D02*
D03*
X00006105Y00025406D02*
D03*
X00005369Y00025851D02*
D03*
X00004924Y00025406D02*
D03*
X00050251Y00027032D02*
D03*
X00049806Y00026587D02*
D03*
X00049070Y00027032D02*
D03*
X00048624Y00026587D02*
D03*
X00047889Y00027032D02*
D03*
X00047443Y00026587D02*
D03*
X00046708Y00027032D02*
D03*
X00046262Y00026587D02*
D03*
X00045527Y00027032D02*
D03*
X00045081Y00026587D02*
D03*
X00044345Y00027032D02*
D03*
X00043900Y00026587D02*
D03*
X00043164Y00027032D02*
D03*
X00042719Y00026587D02*
D03*
X00041983Y00027032D02*
D03*
X00041538Y00026587D02*
D03*
X00040802Y00027032D02*
D03*
X00040357Y00026587D02*
D03*
X00039621Y00027032D02*
D03*
X00039176Y00026587D02*
D03*
X00038440Y00027032D02*
D03*
X00037995Y00026587D02*
D03*
X00037259Y00027032D02*
D03*
X00036813Y00026587D02*
D03*
X00036078Y00027032D02*
D03*
X00035632Y00026587D02*
D03*
X00034897Y00027032D02*
D03*
X00034451Y00026587D02*
D03*
X00033716Y00027032D02*
D03*
X00033270Y00026587D02*
D03*
X00032534Y00027032D02*
D03*
X00032089Y00026587D02*
D03*
X00031353Y00027032D02*
D03*
X00030908Y00026587D02*
D03*
X00030172Y00027032D02*
D03*
X00029727Y00026587D02*
D03*
X00028991Y00027032D02*
D03*
X00028546Y00026587D02*
D03*
X00027810Y00027032D02*
D03*
X00027365Y00026587D02*
D03*
X00026629Y00027032D02*
D03*
X00026184Y00026587D02*
D03*
X00025448Y00027032D02*
D03*
X00025002Y00026587D02*
D03*
X00024267Y00027032D02*
D03*
X00023821Y00026587D02*
D03*
X00023086Y00027032D02*
D03*
X00022640Y00026587D02*
D03*
X00021905Y00027032D02*
D03*
X00021459Y00026587D02*
D03*
X00020723Y00027032D02*
D03*
X00020278Y00026587D02*
D03*
X00019542Y00027032D02*
D03*
X00019097Y00026587D02*
D03*
X00018361Y00027032D02*
D03*
X00017916Y00026587D02*
D03*
X00017180Y00027032D02*
D03*
X00016735Y00026587D02*
D03*
X00015999Y00027032D02*
D03*
X00015554Y00026587D02*
D03*
X00014818Y00027032D02*
D03*
X00014372Y00026587D02*
D03*
X00013637Y00027032D02*
D03*
X00013191Y00026587D02*
D03*
X00012456Y00027032D02*
D03*
X00012010Y00026587D02*
D03*
X00011275Y00027032D02*
D03*
X00010829Y00026587D02*
D03*
X00010094Y00027032D02*
D03*
X00009648Y00026587D02*
D03*
X00008912Y00027032D02*
D03*
X00008467Y00026587D02*
D03*
X00007731Y00027032D02*
D03*
X00007286Y00026587D02*
D03*
X00006550Y00027032D02*
D03*
X00006105Y00026587D02*
D03*
X00005369Y00027032D02*
D03*
X00004924Y00026587D02*
D03*
X00050251Y00028214D02*
D03*
X00049806Y00027768D02*
D03*
X00049070Y00028214D02*
D03*
X00048624Y00027768D02*
D03*
X00047889Y00028214D02*
D03*
X00047443Y00027768D02*
D03*
X00046708Y00028214D02*
D03*
X00046262Y00027768D02*
D03*
X00045527Y00028214D02*
D03*
X00045081Y00027768D02*
D03*
X00044345Y00028214D02*
D03*
X00043900Y00027768D02*
D03*
X00043164Y00028214D02*
D03*
X00042719Y00027768D02*
D03*
X00041983Y00028214D02*
D03*
X00041538Y00027768D02*
D03*
X00040802Y00028214D02*
D03*
X00040357Y00027768D02*
D03*
X00039621Y00028214D02*
D03*
X00039176Y00027768D02*
D03*
X00038440Y00028214D02*
D03*
X00037995Y00027768D02*
D03*
X00037259Y00028214D02*
D03*
X00036813Y00027768D02*
D03*
X00036078Y00028214D02*
D03*
X00035632Y00027768D02*
D03*
X00034897Y00028214D02*
D03*
X00034451Y00027768D02*
D03*
X00033716Y00028214D02*
D03*
X00033270Y00027768D02*
D03*
X00032534Y00028214D02*
D03*
X00032089Y00027768D02*
D03*
X00031353Y00028214D02*
D03*
X00030908Y00027768D02*
D03*
X00030172Y00028214D02*
D03*
X00029727Y00027768D02*
D03*
X00028991Y00028214D02*
D03*
X00028546Y00027768D02*
D03*
X00027810Y00028214D02*
D03*
X00027365Y00027768D02*
D03*
X00026629Y00028214D02*
D03*
X00026184Y00027768D02*
D03*
X00025448Y00028214D02*
D03*
X00025002Y00027768D02*
D03*
X00024267Y00028214D02*
D03*
X00023821Y00027768D02*
D03*
X00023086Y00028214D02*
D03*
X00022640Y00027768D02*
D03*
X00021905Y00028214D02*
D03*
X00021459Y00027768D02*
D03*
X00020723Y00028214D02*
D03*
X00020278Y00027768D02*
D03*
X00019542Y00028214D02*
D03*
X00019097Y00027768D02*
D03*
X00018361Y00028214D02*
D03*
X00017916Y00027768D02*
D03*
X00017180Y00028214D02*
D03*
X00016735Y00027768D02*
D03*
X00015999Y00028214D02*
D03*
X00015554Y00027768D02*
D03*
X00014818Y00028214D02*
D03*
X00014372Y00027768D02*
D03*
X00013637Y00028214D02*
D03*
X00013191Y00027768D02*
D03*
X00012456Y00028214D02*
D03*
X00012010Y00027768D02*
D03*
X00011275Y00028214D02*
D03*
X00010829Y00027768D02*
D03*
X00010094Y00028214D02*
D03*
X00009648Y00027768D02*
D03*
X00008912Y00028214D02*
D03*
X00008467Y00027768D02*
D03*
X00007731Y00028214D02*
D03*
X00007286Y00027768D02*
D03*
X00006550Y00028214D02*
D03*
X00006105Y00027768D02*
D03*
X00005369Y00028214D02*
D03*
X00004924Y00027768D02*
D03*
X00050251Y00029395D02*
D03*
X00049806Y00028949D02*
D03*
X00049070Y00029395D02*
D03*
X00048624Y00028949D02*
D03*
X00047889Y00029395D02*
D03*
X00047443Y00028949D02*
D03*
X00046708Y00029395D02*
D03*
X00046262Y00028949D02*
D03*
X00045527Y00029395D02*
D03*
X00045081Y00028949D02*
D03*
X00044345Y00029395D02*
D03*
X00043900Y00028949D02*
D03*
X00043164Y00029395D02*
D03*
X00042719Y00028949D02*
D03*
X00041983Y00029395D02*
D03*
X00041538Y00028949D02*
D03*
X00040802Y00029395D02*
D03*
X00040357Y00028949D02*
D03*
X00039621Y00029395D02*
D03*
X00039176Y00028949D02*
D03*
X00038440Y00029395D02*
D03*
X00037995Y00028949D02*
D03*
X00037259Y00029395D02*
D03*
X00036813Y00028949D02*
D03*
X00036078Y00029395D02*
D03*
X00035632Y00028949D02*
D03*
X00034897Y00029395D02*
D03*
X00034451Y00028949D02*
D03*
X00033716Y00029395D02*
D03*
X00033270Y00028949D02*
D03*
X00032534Y00029395D02*
D03*
X00032089Y00028949D02*
D03*
X00031353Y00029395D02*
D03*
X00030908Y00028949D02*
D03*
X00030172Y00029395D02*
D03*
X00029727Y00028949D02*
D03*
X00028991Y00029395D02*
D03*
X00028546Y00028949D02*
D03*
X00027810Y00029395D02*
D03*
X00027365Y00028949D02*
D03*
X00026629Y00029395D02*
D03*
X00026184Y00028949D02*
D03*
X00025448Y00029395D02*
D03*
X00025002Y00028949D02*
D03*
X00024267Y00029395D02*
D03*
X00023821Y00028949D02*
D03*
X00023086Y00029395D02*
D03*
X00022640Y00028949D02*
D03*
X00021905Y00029395D02*
D03*
X00021459Y00028949D02*
D03*
X00020723Y00029395D02*
D03*
X00020278Y00028949D02*
D03*
X00019542Y00029395D02*
D03*
X00019097Y00028949D02*
D03*
X00018361Y00029395D02*
D03*
X00017916Y00028949D02*
D03*
X00017180Y00029395D02*
D03*
X00016735Y00028949D02*
D03*
X00015999Y00029395D02*
D03*
X00015554Y00028949D02*
D03*
X00014818Y00029395D02*
D03*
X00014372Y00028949D02*
D03*
X00013637Y00029395D02*
D03*
X00013191Y00028949D02*
D03*
X00012456Y00029395D02*
D03*
X00012010Y00028949D02*
D03*
X00011275Y00029395D02*
D03*
X00010829Y00028949D02*
D03*
X00010094Y00029395D02*
D03*
X00009648Y00028949D02*
D03*
X00008912Y00029395D02*
D03*
X00008467Y00028949D02*
D03*
X00007731Y00029395D02*
D03*
X00007286Y00028949D02*
D03*
X00006550Y00029395D02*
D03*
X00006105Y00028949D02*
D03*
X00005369Y00029395D02*
D03*
X00004924Y00028949D02*
D03*
X00050251Y00030576D02*
D03*
X00049806Y00030130D02*
D03*
X00049070Y00030576D02*
D03*
X00048624Y00030130D02*
D03*
X00047889Y00030576D02*
D03*
X00047443Y00030130D02*
D03*
X00046708Y00030576D02*
D03*
X00046262Y00030130D02*
D03*
X00045527Y00030576D02*
D03*
X00045081Y00030130D02*
D03*
X00044345Y00030576D02*
D03*
X00043900Y00030130D02*
D03*
X00043164Y00030576D02*
D03*
X00042719Y00030130D02*
D03*
X00041983Y00030576D02*
D03*
X00041538Y00030130D02*
D03*
X00040802Y00030576D02*
D03*
X00040357Y00030130D02*
D03*
X00039621Y00030576D02*
D03*
X00039176Y00030130D02*
D03*
X00038440Y00030576D02*
D03*
X00037995Y00030130D02*
D03*
X00037259Y00030576D02*
D03*
X00036813Y00030130D02*
D03*
X00036078Y00030576D02*
D03*
X00035632Y00030130D02*
D03*
X00034897Y00030576D02*
D03*
X00034451Y00030130D02*
D03*
X00033716Y00030576D02*
D03*
X00033270Y00030130D02*
D03*
X00032534Y00030576D02*
D03*
X00032089Y00030130D02*
D03*
X00031353Y00030576D02*
D03*
X00030908Y00030130D02*
D03*
X00030172Y00030576D02*
D03*
X00029727Y00030130D02*
D03*
X00028991Y00030576D02*
D03*
X00028546Y00030130D02*
D03*
X00027810Y00030576D02*
D03*
X00027365Y00030130D02*
D03*
X00026629Y00030576D02*
D03*
X00026184Y00030130D02*
D03*
X00025448Y00030576D02*
D03*
X00025002Y00030130D02*
D03*
X00024267Y00030576D02*
D03*
X00023821Y00030130D02*
D03*
X00023086Y00030576D02*
D03*
X00022640Y00030130D02*
D03*
X00021905Y00030576D02*
D03*
X00021459Y00030130D02*
D03*
X00020723Y00030576D02*
D03*
X00020278Y00030130D02*
D03*
X00019542Y00030576D02*
D03*
X00019097Y00030130D02*
D03*
X00018361Y00030576D02*
D03*
X00017916Y00030130D02*
D03*
X00017180Y00030576D02*
D03*
X00016735Y00030130D02*
D03*
X00015999Y00030576D02*
D03*
X00015554Y00030130D02*
D03*
X00014818Y00030576D02*
D03*
X00014372Y00030130D02*
D03*
X00013637Y00030576D02*
D03*
X00013191Y00030130D02*
D03*
X00012456Y00030576D02*
D03*
X00012010Y00030130D02*
D03*
X00011275Y00030576D02*
D03*
X00010829Y00030130D02*
D03*
X00010094Y00030576D02*
D03*
X00009648Y00030130D02*
D03*
X00008912Y00030576D02*
D03*
X00008467Y00030130D02*
D03*
X00007731Y00030576D02*
D03*
X00007286Y00030130D02*
D03*
X00006550Y00030576D02*
D03*
X00006105Y00030130D02*
D03*
X00005369Y00030576D02*
D03*
X00004924Y00030130D02*
D03*
D80*
X00033562Y00019488D02*
D03*
X00033566Y00031702D02*
D03*
X00008582Y00031702D02*
D03*
D81*
X00035562Y00019488D02*
D03*
X00036562Y00019488D02*
D03*
X00037562Y00019488D02*
D03*
X00038562Y00019488D02*
D03*
X00039562Y00019488D02*
D03*
X00040562Y00019488D02*
D03*
X00041562Y00019488D02*
D03*
X00034562Y00019488D02*
D03*
X00046566Y00031702D02*
D03*
X00045566Y00031702D02*
D03*
X00044566Y00031702D02*
D03*
X00043566Y00031702D02*
D03*
X00042566Y00031702D02*
D03*
X00041566Y00031702D02*
D03*
X00040566Y00031702D02*
D03*
X00039566Y00031702D02*
D03*
X00038566Y00031702D02*
D03*
X00037566Y00031702D02*
D03*
X00036566Y00031702D02*
D03*
X00035566Y00031702D02*
D03*
X00034566Y00031702D02*
D03*
X00009582Y00031702D02*
D03*
X00010582Y00031702D02*
D03*
X00011582Y00031702D02*
D03*
X00012582Y00031702D02*
D03*
X00013582Y00031702D02*
D03*
X00014582Y00031702D02*
D03*
X00015582Y00031702D02*
D03*
X00016582Y00031702D02*
D03*
X00017582Y00031702D02*
D03*
X00018582Y00031702D02*
D03*
X00019582Y00031702D02*
D03*
X00020582Y00031702D02*
D03*
X00021582Y00031702D02*
D03*
X00022582Y00031702D02*
D03*
X00023582Y00031702D02*
D03*
X00024582Y00031702D02*
D03*
X00025582Y00031702D02*
D03*
X00026582Y00031702D02*
D03*
X00027582Y00031702D02*
D03*
X00028582Y00031702D02*
D03*
X00029582Y00031702D02*
D03*
X00030582Y00031702D02*
D03*
X00031582Y00031702D02*
D03*
X00032582Y00031702D02*
D03*
D82*
X00043001Y00029773D02*
D03*
X00043120Y00020413D02*
D03*
X00041919Y00028740D02*
D03*
X00041919Y00020408D02*
D03*
X00040767Y00027564D02*
D03*
X00040767Y00020408D02*
D03*
X00039517Y00026338D02*
D03*
X00039517Y00020393D02*
D03*
X00038336Y00025118D02*
D03*
X00038336Y00020393D02*
D03*
X00037116Y00023937D02*
D03*
X00037116Y00020393D02*
D03*
X00036023Y00022765D02*
D03*
X00036023Y00020408D02*
D03*
X00034832Y00021614D02*
D03*
X00034812Y00020393D02*
D03*
X00008090Y00029763D02*
D03*
X00012814Y00029763D02*
D03*
X00005738Y00022667D02*
D03*
X00005738Y00021476D02*
D03*
X00005738Y00020305D02*
D03*
X00005728Y00023848D02*
D03*
X00005738Y00025029D02*
D03*
X00005738Y00026210D02*
D03*
X00005738Y00027391D02*
D03*
X00005728Y00028582D02*
D03*
X00005738Y00029763D02*
D03*
X00048257Y00029783D02*
D03*
X00048248Y00028602D02*
D03*
X00048257Y00027411D02*
D03*
X00048257Y00026230D02*
D03*
X00048257Y00025049D02*
D03*
X00048248Y00023868D02*
D03*
X00048257Y00022687D02*
D03*
X00048257Y00021496D02*
D03*
X00048257Y00020324D02*
D03*
X00047066Y00029783D02*
D03*
X00047057Y00028602D02*
D03*
X00047066Y00027411D02*
D03*
X00047066Y00026230D02*
D03*
X00047066Y00025049D02*
D03*
X00047057Y00023868D02*
D03*
X00047066Y00022687D02*
D03*
X00047066Y00021496D02*
D03*
X00047066Y00020324D02*
D03*
X00045885Y00029783D02*
D03*
X00045875Y00028602D02*
D03*
X00045885Y00027411D02*
D03*
X00045885Y00026230D02*
D03*
X00045885Y00025049D02*
D03*
X00045875Y00023868D02*
D03*
X00045885Y00022687D02*
D03*
X00045885Y00021496D02*
D03*
X00045885Y00020324D02*
D03*
X00044704Y00029783D02*
D03*
X00044694Y00028602D02*
D03*
X00044704Y00027411D02*
D03*
X00044704Y00026230D02*
D03*
X00044704Y00025049D02*
D03*
X00044694Y00023868D02*
D03*
X00044704Y00022687D02*
D03*
X00044704Y00021496D02*
D03*
X00044704Y00020324D02*
D03*
X00043533Y00029783D02*
D03*
X00043523Y00028602D02*
D03*
X00043533Y00027411D02*
D03*
X00043533Y00026230D02*
D03*
X00043533Y00025049D02*
D03*
X00043523Y00023868D02*
D03*
X00043533Y00022687D02*
D03*
X00043533Y00021496D02*
D03*
X00043533Y00020324D02*
D03*
X00042342Y00029783D02*
D03*
X00042332Y00028602D02*
D03*
X00042342Y00027411D02*
D03*
X00042342Y00026230D02*
D03*
X00042342Y00025049D02*
D03*
X00042332Y00023868D02*
D03*
X00042342Y00022687D02*
D03*
X00042342Y00021496D02*
D03*
X00042342Y00020324D02*
D03*
X00041171Y00029783D02*
D03*
X00041161Y00028602D02*
D03*
X00041171Y00027411D02*
D03*
X00041171Y00026230D02*
D03*
X00041171Y00025049D02*
D03*
X00041161Y00023868D02*
D03*
X00041171Y00022687D02*
D03*
X00041171Y00021496D02*
D03*
X00041171Y00020324D02*
D03*
X00039980Y00029783D02*
D03*
X00039970Y00028602D02*
D03*
X00039980Y00027411D02*
D03*
X00039980Y00026230D02*
D03*
X00039980Y00025049D02*
D03*
X00039970Y00023868D02*
D03*
X00039980Y00022687D02*
D03*
X00039980Y00021496D02*
D03*
X00039980Y00020324D02*
D03*
X00038799Y00029783D02*
D03*
X00038789Y00028602D02*
D03*
X00038799Y00027411D02*
D03*
X00038799Y00026230D02*
D03*
X00038799Y00025049D02*
D03*
X00038789Y00023868D02*
D03*
X00038799Y00022687D02*
D03*
X00038799Y00021496D02*
D03*
X00038799Y00020324D02*
D03*
X00037618Y00029783D02*
D03*
X00037608Y00028602D02*
D03*
X00037618Y00027411D02*
D03*
X00037618Y00026230D02*
D03*
X00037618Y00025049D02*
D03*
X00037608Y00023868D02*
D03*
X00037618Y00022687D02*
D03*
X00037618Y00021496D02*
D03*
X00037618Y00020324D02*
D03*
X00036437Y00029783D02*
D03*
X00036427Y00028602D02*
D03*
X00036437Y00027411D02*
D03*
X00036437Y00026230D02*
D03*
X00036437Y00025049D02*
D03*
X00036427Y00023868D02*
D03*
X00036437Y00022687D02*
D03*
X00036437Y00021496D02*
D03*
X00036437Y00020324D02*
D03*
X00035255Y00029783D02*
D03*
X00035246Y00028602D02*
D03*
X00035255Y00027411D02*
D03*
X00035255Y00026230D02*
D03*
X00035255Y00025049D02*
D03*
X00035246Y00023868D02*
D03*
X00035255Y00022687D02*
D03*
X00035255Y00021496D02*
D03*
X00035255Y00020324D02*
D03*
X00034074Y00029783D02*
D03*
X00034064Y00028602D02*
D03*
X00034074Y00027411D02*
D03*
X00034074Y00026230D02*
D03*
X00034074Y00025049D02*
D03*
X00034064Y00023868D02*
D03*
X00034074Y00022687D02*
D03*
X00034074Y00021496D02*
D03*
X00034074Y00020324D02*
D03*
X00032903Y00029783D02*
D03*
X00032893Y00028602D02*
D03*
X00032903Y00027411D02*
D03*
X00032903Y00026230D02*
D03*
X00032903Y00025049D02*
D03*
X00032893Y00023868D02*
D03*
X00032903Y00022687D02*
D03*
X00032903Y00021496D02*
D03*
X00032903Y00020324D02*
D03*
X00031712Y00029783D02*
D03*
X00031702Y00028602D02*
D03*
X00031712Y00027411D02*
D03*
X00031712Y00026230D02*
D03*
X00031712Y00025049D02*
D03*
X00031702Y00023868D02*
D03*
X00031712Y00022687D02*
D03*
X00031712Y00021496D02*
D03*
X00031712Y00020324D02*
D03*
X00030531Y00029783D02*
D03*
X00030521Y00028602D02*
D03*
X00030531Y00027411D02*
D03*
X00030531Y00026230D02*
D03*
X00030531Y00025049D02*
D03*
X00030521Y00023868D02*
D03*
X00030531Y00022687D02*
D03*
X00030531Y00021496D02*
D03*
X00030531Y00020324D02*
D03*
X00029340Y00029783D02*
D03*
X00029330Y00028602D02*
D03*
X00029340Y00027411D02*
D03*
X00029340Y00026230D02*
D03*
X00029340Y00025049D02*
D03*
X00029330Y00023868D02*
D03*
X00029340Y00022687D02*
D03*
X00029340Y00021496D02*
D03*
X00029340Y00020324D02*
D03*
X00028169Y00029763D02*
D03*
X00028159Y00028582D02*
D03*
X00028169Y00027391D02*
D03*
X00028169Y00026210D02*
D03*
X00028169Y00025029D02*
D03*
X00028159Y00023848D02*
D03*
X00028169Y00022667D02*
D03*
X00028169Y00021476D02*
D03*
X00028169Y00020305D02*
D03*
X00049438Y00029744D02*
D03*
X00049429Y00028562D02*
D03*
X00049438Y00027372D02*
D03*
X00049438Y00026190D02*
D03*
X00049438Y00025009D02*
D03*
X00049429Y00023828D02*
D03*
X00049438Y00022647D02*
D03*
X00049438Y00021456D02*
D03*
X00049438Y00020285D02*
D03*
X00026998Y00029763D02*
D03*
X00026988Y00028582D02*
D03*
X00026998Y00027391D02*
D03*
X00026998Y00026210D02*
D03*
X00026998Y00025029D02*
D03*
X00026988Y00023848D02*
D03*
X00026998Y00022667D02*
D03*
X00026998Y00021476D02*
D03*
X00026998Y00020305D02*
D03*
X00025807Y00029763D02*
D03*
X00025797Y00028582D02*
D03*
X00025807Y00027391D02*
D03*
X00025807Y00026210D02*
D03*
X00025807Y00025029D02*
D03*
X00025797Y00023848D02*
D03*
X00025807Y00022667D02*
D03*
X00025807Y00021476D02*
D03*
X00025807Y00020305D02*
D03*
X00024625Y00029763D02*
D03*
X00024616Y00028582D02*
D03*
X00024625Y00027391D02*
D03*
X00024625Y00026210D02*
D03*
X00024625Y00025029D02*
D03*
X00024616Y00023848D02*
D03*
X00024625Y00022667D02*
D03*
X00024625Y00021476D02*
D03*
X00024625Y00020305D02*
D03*
X00023444Y00029763D02*
D03*
X00023435Y00028582D02*
D03*
X00023444Y00027391D02*
D03*
X00023444Y00026210D02*
D03*
X00023444Y00025029D02*
D03*
X00023435Y00023848D02*
D03*
X00023444Y00022667D02*
D03*
X00023444Y00021476D02*
D03*
X00023444Y00020305D02*
D03*
X00022273Y00029763D02*
D03*
X00022263Y00028582D02*
D03*
X00022273Y00027391D02*
D03*
X00022273Y00026210D02*
D03*
X00022273Y00025029D02*
D03*
X00022263Y00023848D02*
D03*
X00022273Y00022667D02*
D03*
X00022273Y00021476D02*
D03*
X00022273Y00020305D02*
D03*
X00021082Y00029763D02*
D03*
X00021072Y00028582D02*
D03*
X00021082Y00027391D02*
D03*
X00021082Y00026210D02*
D03*
X00021082Y00025029D02*
D03*
X00021072Y00023848D02*
D03*
X00021082Y00022667D02*
D03*
X00021082Y00021476D02*
D03*
X00021082Y00020305D02*
D03*
X00019901Y00029763D02*
D03*
X00019891Y00028582D02*
D03*
X00019901Y00027391D02*
D03*
X00019901Y00026210D02*
D03*
X00019901Y00025029D02*
D03*
X00019891Y00023848D02*
D03*
X00019901Y00022667D02*
D03*
X00019901Y00021476D02*
D03*
X00019901Y00020305D02*
D03*
X00018720Y00029763D02*
D03*
X00018710Y00028582D02*
D03*
X00018720Y00027391D02*
D03*
X00018720Y00026210D02*
D03*
X00018720Y00025029D02*
D03*
X00018710Y00023848D02*
D03*
X00018720Y00022667D02*
D03*
X00018720Y00021476D02*
D03*
X00018720Y00020305D02*
D03*
X00017549Y00029763D02*
D03*
X00017539Y00028582D02*
D03*
X00017549Y00027391D02*
D03*
X00017549Y00026210D02*
D03*
X00017549Y00025029D02*
D03*
X00017539Y00023848D02*
D03*
X00017549Y00022667D02*
D03*
X00017549Y00021476D02*
D03*
X00017549Y00020305D02*
D03*
X00016368Y00029763D02*
D03*
X00016358Y00028582D02*
D03*
X00016368Y00027391D02*
D03*
X00016368Y00026210D02*
D03*
X00016368Y00025029D02*
D03*
X00016358Y00023848D02*
D03*
X00016368Y00022667D02*
D03*
X00016368Y00021476D02*
D03*
X00016368Y00020305D02*
D03*
X00015177Y00029763D02*
D03*
X00015167Y00028582D02*
D03*
X00015177Y00027391D02*
D03*
X00015177Y00026210D02*
D03*
X00015177Y00025029D02*
D03*
X00015167Y00023848D02*
D03*
X00015177Y00022667D02*
D03*
X00015177Y00021476D02*
D03*
X00015177Y00020305D02*
D03*
X00013996Y00029763D02*
D03*
X00013986Y00028582D02*
D03*
X00013996Y00027391D02*
D03*
X00013996Y00026210D02*
D03*
X00013996Y00025029D02*
D03*
X00013986Y00023848D02*
D03*
X00013996Y00022667D02*
D03*
X00013996Y00021476D02*
D03*
X00013996Y00020305D02*
D03*
X00012805Y00028582D02*
D03*
X00012814Y00027391D02*
D03*
X00012814Y00026210D02*
D03*
X00012814Y00025029D02*
D03*
X00012805Y00023848D02*
D03*
X00012814Y00022667D02*
D03*
X00012814Y00021476D02*
D03*
X00012814Y00020305D02*
D03*
X00011643Y00029763D02*
D03*
X00011633Y00028582D02*
D03*
X00011643Y00027391D02*
D03*
X00011643Y00026210D02*
D03*
X00011643Y00025029D02*
D03*
X00011633Y00023848D02*
D03*
X00011643Y00022667D02*
D03*
X00011643Y00021476D02*
D03*
X00011643Y00020305D02*
D03*
X00010462Y00029763D02*
D03*
X00010452Y00028582D02*
D03*
X00010462Y00027391D02*
D03*
X00010462Y00026210D02*
D03*
X00010462Y00025029D02*
D03*
X00010452Y00023848D02*
D03*
X00010462Y00022667D02*
D03*
X00010462Y00021476D02*
D03*
X00010462Y00020305D02*
D03*
X00009271Y00029763D02*
D03*
X00009261Y00028582D02*
D03*
X00009271Y00027391D02*
D03*
X00009271Y00026210D02*
D03*
X00009271Y00025029D02*
D03*
X00009261Y00023848D02*
D03*
X00009271Y00022667D02*
D03*
X00009271Y00021476D02*
D03*
X00009271Y00020305D02*
D03*
X00008080Y00028582D02*
D03*
X00008090Y00027391D02*
D03*
X00008090Y00026210D02*
D03*
X00008090Y00025029D02*
D03*
X00008080Y00023848D02*
D03*
X00008090Y00022667D02*
D03*
X00008090Y00021476D02*
D03*
X00008090Y00020305D02*
D03*
X00006909Y00029753D02*
D03*
X00006899Y00028572D02*
D03*
X00006909Y00027381D02*
D03*
X00006909Y00026200D02*
D03*
X00006909Y00025019D02*
D03*
X00006899Y00023838D02*
D03*
X00006909Y00022657D02*
D03*
X00006909Y00021466D02*
D03*
X00006909Y00020295D02*
D03*
D83*
X00003937Y00019685D02*
D03*
X00051181Y00019685D02*
D03*
X00051181Y00031496D02*
D03*
X00003937Y00031496D02*
D03*
M02*