%MOIN*%
%OFA0B0*%
%FSLAX44Y44*%
%IPPOS*%
%LPD*%
%ADD16C,0.01*%
%ADD35R,0.043433070866141732X0.086740157480314953*%
%ADD36R,0.086740157480314953X0.043433070866141732*%
%ADD37R,0.20485039370078742X0.20485039370078742*%
%ADD38R,0.043433070866141732X0.039496062992125991*%
%ADD39R,0.041070866141732283X0.016661417322834646*%
%ADD40R,0.016661417322834646X0.041070866141732283*%
%ADD41R,0.20288188976377955X0.20288188976377955*%
%ADD42R,0.055244094488188983X0.025716535433070866*%
%ADD43R,0.039496062992125991X0.043433070866141732*%
%ADD44R,0.068X0.033*%
%ADD45R,0.059181102362204731X0.035559055118110236*%
%ADD46R,0.039496062992125991X0.039496062992125991*%
%ADD47R,0.070992125984251975X0.031622047244094488*%
%ADD48R,0.025716535433070866X0.031622047244094488*%
%ADD49R,0.11036220472440945X0.078866141732283471*%
%ADD50R,0.043984251968503939X0.055992125984251968*%
%ADD51R,0.059181102362204731X0.069019685039370088*%
%ADD52R,0.06705511811023622X0.06705511811023622*%
%ADD53C,0.06705511811023622*%
%ADD54R,0.051307086614173228X0.051307086614173228*%
%ADD55O,0.070992125984251975X0.055244094488188983*%
%ADD56O,0.078866141732283471X0.051307086614173228*%
%ADD57R,0.06705511811023622X0.06705511811023622*%
%ADD58C,0.12611023622047243*%
%ADD71C,0.01*%
%ADD73P,0.055854330708661422X4X270*%
%ADD74R,0.06705511811023622X0.06705511811023622*%
%ADD75C,0.06705511811023622*%
%ADD76C,0.027685039370078744*%
%ADD77C,0.12611023622047243*%
G01*
G75*
D16*
X00003799Y00017331D02*
G03*
X00002618Y00016150J-00001181D01*
G01*
X00052224Y00016150D02*
G03*
X00051043Y00017331I-00001181D01*
G01*
X00051043Y00003158D02*
G03*
X00052224Y00004339J00001181D01*
G01*
X00002618Y00004339D02*
G03*
X00003799Y00003158I00001181D01*
G01*
X00002618Y00004339D02*
X00002618Y00016150D01*
X00003799Y00017321D02*
X00051043Y00017321D01*
X00003799Y00003158D02*
X00051043Y00003158D01*
X00052224Y00004339D02*
X00052224Y00016150D01*
D35*
X00048165Y00006960D02*
D03*
X00047665Y00006960D02*
D03*
X00047165Y00006960D02*
D03*
X00046665Y00006960D02*
D03*
X00046165Y00006960D02*
D03*
X00045665Y00006960D02*
D03*
X00045165Y00006960D02*
D03*
X00044665Y00006960D02*
D03*
X00044165Y00006960D02*
D03*
X00043665Y00006960D02*
D03*
X00043165Y00006960D02*
D03*
X00042665Y00006960D02*
D03*
X00042165Y00006960D02*
D03*
X00041665Y00006960D02*
D03*
X00041665Y00013653D02*
D03*
X00042165Y00013653D02*
D03*
X00042665Y00013653D02*
D03*
X00043165Y00013653D02*
D03*
X00043665Y00013653D02*
D03*
X00044165Y00013653D02*
D03*
X00044665Y00013653D02*
D03*
X00045165Y00013653D02*
D03*
X00045665Y00013653D02*
D03*
X00046165Y00013653D02*
D03*
X00046665Y00013653D02*
D03*
X00047165Y00013653D02*
D03*
X00047665Y00013653D02*
D03*
X00048165Y00013653D02*
D03*
D36*
X00041272Y00008057D02*
D03*
X00041272Y00008557D02*
D03*
X00041272Y00009057D02*
D03*
X00041272Y00009557D02*
D03*
X00041272Y00010057D02*
D03*
X00041272Y00010557D02*
D03*
X00041272Y00011057D02*
D03*
X00041272Y00011557D02*
D03*
X00041272Y00012057D02*
D03*
X00041272Y00012557D02*
D03*
D37*
X00045212Y00010700D02*
D03*
D38*
X00047344Y00003931D02*
D03*
X00047344Y00004482D02*
D03*
X00044544Y00003931D02*
D03*
X00044544Y00004482D02*
D03*
X00041744Y00003931D02*
D03*
X00041744Y00004482D02*
D03*
X00009344Y00004381D02*
D03*
X00009344Y00004932D02*
D03*
X00008844Y00007131D02*
D03*
X00008844Y00007682D02*
D03*
X00024744Y00012881D02*
D03*
X00024744Y00013432D02*
D03*
X00008044Y00012881D02*
D03*
X00008044Y00013432D02*
D03*
X00005844Y00012881D02*
D03*
X00005844Y00013432D02*
D03*
D39*
X00029651Y00008304D02*
D03*
X00029651Y00008462D02*
D03*
X00029651Y00008619D02*
D03*
X00029651Y00008777D02*
D03*
X00029651Y00008934D02*
D03*
X00029651Y00009092D02*
D03*
X00029651Y00009249D02*
D03*
X00029651Y00009407D02*
D03*
X00029651Y00009564D02*
D03*
X00029651Y00009722D02*
D03*
X00029651Y00009879D02*
D03*
X00029651Y00010037D02*
D03*
X00029651Y00010194D02*
D03*
X00029651Y00010351D02*
D03*
X00029651Y00010509D02*
D03*
X00026938Y00010509D02*
D03*
X00026938Y00010351D02*
D03*
X00026938Y00010194D02*
D03*
X00026938Y00010037D02*
D03*
X00026938Y00009879D02*
D03*
X00026938Y00009722D02*
D03*
X00026938Y00009564D02*
D03*
X00026938Y00009407D02*
D03*
X00026938Y00009249D02*
D03*
X00026938Y00009092D02*
D03*
X00026938Y00008934D02*
D03*
X00026938Y00008777D02*
D03*
X00026938Y00008619D02*
D03*
X00026938Y00008462D02*
D03*
X00026938Y00008304D02*
D03*
D40*
X00027192Y00008050D02*
D03*
X00027349Y00008050D02*
D03*
X00027507Y00008050D02*
D03*
X00027664Y00008050D02*
D03*
X00027822Y00008050D02*
D03*
X00027979Y00008050D02*
D03*
X00028137Y00008050D02*
D03*
X00028294Y00008050D02*
D03*
X00028452Y00008050D02*
D03*
X00028609Y00008050D02*
D03*
X00028767Y00008050D02*
D03*
X00028924Y00008050D02*
D03*
X00029082Y00008050D02*
D03*
X00029239Y00008050D02*
D03*
X00029397Y00008050D02*
D03*
X00029397Y00010763D02*
D03*
X00029239Y00010763D02*
D03*
X00029082Y00010763D02*
D03*
X00028924Y00010763D02*
D03*
X00028767Y00010763D02*
D03*
X00028609Y00010763D02*
D03*
X00028452Y00010763D02*
D03*
X00028294Y00010763D02*
D03*
X00028137Y00010763D02*
D03*
X00027979Y00010763D02*
D03*
X00027822Y00010763D02*
D03*
X00027664Y00010763D02*
D03*
X00027507Y00010763D02*
D03*
X00027349Y00010763D02*
D03*
X00027192Y00010763D02*
D03*
D41*
X00028294Y00009407D02*
D03*
D42*
X00005262Y00011336D02*
D03*
X00005262Y00011080D02*
D03*
X00005262Y00010824D02*
D03*
X00005262Y00010568D02*
D03*
X00005262Y00010312D02*
D03*
D43*
X00036369Y00006757D02*
D03*
X00036920Y00006757D02*
D03*
X00034669Y00006757D02*
D03*
X00035220Y00006757D02*
D03*
X00032969Y00006757D02*
D03*
X00033520Y00006757D02*
D03*
X00031269Y00006757D02*
D03*
X00031820Y00006757D02*
D03*
X00013819Y00004907D02*
D03*
X00014370Y00004907D02*
D03*
X00012119Y00004907D02*
D03*
X00012670Y00004907D02*
D03*
X00007619Y00004907D02*
D03*
X00008170Y00004907D02*
D03*
X00017169Y00007657D02*
D03*
X00017720Y00007657D02*
D03*
X00015469Y00007657D02*
D03*
X00016020Y00007657D02*
D03*
X00022719Y00013407D02*
D03*
X00023270Y00013407D02*
D03*
D44*
X00039205Y00011007D02*
D03*
X00037083Y00012007D02*
D03*
X00039205Y00010507D02*
D03*
X00039205Y00011507D02*
D03*
X00039205Y00012007D02*
D03*
X00037083Y00011507D02*
D03*
X00037083Y00012507D02*
D03*
X00037083Y00013007D02*
D03*
X00039205Y00013007D02*
D03*
X00037083Y00014007D02*
D03*
X00039205Y00012507D02*
D03*
X00039205Y00013507D02*
D03*
X00037083Y00013507D02*
D03*
X00039205Y00014007D02*
D03*
X00037083Y00011007D02*
D03*
X00037083Y00010507D02*
D03*
D45*
X00015722Y00004731D02*
D03*
X00015722Y00004357D02*
D03*
X00015722Y00003983D02*
D03*
X00016667Y00003983D02*
D03*
X00016667Y00004731D02*
D03*
D46*
X00018844Y00007057D02*
D03*
X00018844Y00007687D02*
D03*
D47*
X00013361Y00007481D02*
D03*
X00013361Y00006733D02*
D03*
X00014227Y00007107D02*
D03*
X00006661Y00007481D02*
D03*
X00006661Y00006733D02*
D03*
X00007527Y00007107D02*
D03*
D48*
X00029770Y00013508D02*
D03*
X00030144Y00012405D02*
D03*
X00030518Y00013508D02*
D03*
X00030144Y00013508D02*
D03*
X00029770Y00012405D02*
D03*
X00030518Y00012405D02*
D03*
D49*
X00030144Y00012957D02*
D03*
D50*
X00027499Y00013307D02*
D03*
X00028789Y00013307D02*
D03*
D51*
X00019809Y00010192D02*
D03*
X00019809Y00013322D02*
D03*
X00021580Y00010192D02*
D03*
X00021580Y00013322D02*
D03*
X00016809Y00010192D02*
D03*
X00016809Y00013322D02*
D03*
X00018580Y00010192D02*
D03*
X00018580Y00013322D02*
D03*
X00013759Y00010192D02*
D03*
X00013759Y00013322D02*
D03*
X00015530Y00010192D02*
D03*
X00015530Y00013322D02*
D03*
X00010759Y00010192D02*
D03*
X00010759Y00013322D02*
D03*
X00012530Y00010192D02*
D03*
X00012530Y00013322D02*
D03*
D52*
X00008444Y00016357D02*
D03*
X00033429Y00016357D02*
D03*
X00034244Y00004807D02*
D03*
D53*
X00009444Y00016357D02*
D03*
X00010444Y00016357D02*
D03*
X00011444Y00016357D02*
D03*
X00012444Y00016357D02*
D03*
X00013444Y00016357D02*
D03*
X00014444Y00016357D02*
D03*
X00015444Y00016357D02*
D03*
X00016444Y00016357D02*
D03*
X00017444Y00016357D02*
D03*
X00018444Y00016357D02*
D03*
X00019444Y00016357D02*
D03*
X00020444Y00016357D02*
D03*
X00021444Y00016357D02*
D03*
X00022444Y00016357D02*
D03*
X00023444Y00016357D02*
D03*
X00024444Y00016357D02*
D03*
X00025444Y00016357D02*
D03*
X00026444Y00016357D02*
D03*
X00027444Y00016357D02*
D03*
X00028444Y00016357D02*
D03*
X00029444Y00016357D02*
D03*
X00030444Y00016357D02*
D03*
X00031444Y00016357D02*
D03*
X00032444Y00016357D02*
D03*
X00046429Y00016357D02*
D03*
X00045429Y00016357D02*
D03*
X00044429Y00016357D02*
D03*
X00043429Y00016357D02*
D03*
X00042429Y00016357D02*
D03*
X00041429Y00016357D02*
D03*
X00040429Y00016357D02*
D03*
X00039429Y00016357D02*
D03*
X00038429Y00016357D02*
D03*
X00037429Y00016357D02*
D03*
X00036429Y00016357D02*
D03*
X00035429Y00016357D02*
D03*
X00034429Y00016357D02*
D03*
X00032244Y00004807D02*
D03*
X00031244Y00004807D02*
D03*
X00030244Y00004807D02*
D03*
X00029244Y00004807D02*
D03*
X00028244Y00004807D02*
D03*
X00027244Y00004807D02*
D03*
X00026244Y00004807D02*
D03*
X00033244Y00004807D02*
D03*
X00023444Y00009722D02*
D03*
X00023444Y00008722D02*
D03*
X00023444Y00007722D02*
D03*
X00023444Y00006722D02*
D03*
D54*
X00004312Y00009161D02*
D03*
X00003949Y00009161D02*
D03*
X00003949Y00012487D02*
D03*
X00004312Y00012487D02*
D03*
D55*
X00005144Y00012241D02*
D03*
X00005144Y00009407D02*
D03*
D56*
X00004475Y00012487D02*
D03*
X00003786Y00012487D02*
D03*
X00003786Y00009161D02*
D03*
X00004475Y00009161D02*
D03*
D57*
X00023444Y00005722D02*
D03*
D58*
X00003799Y00016150D02*
D03*
X00051043Y00016150D02*
D03*
X00051043Y00004339D02*
D03*
X00003799Y00004339D02*
D03*
G04 next file*
G04*
G04 #@! TF.GenerationSoftware,Altium Limited,Altium Designer,18.1.9 (240)*
G04*
G04 Layer_Color=8388736*
G04 skipping 71
G01*
G75*
D71*
X00002755Y00019685D02*
G03*
X00003937Y00018503I00001181D01*
G01*
X00051181Y00018503D02*
G03*
X00052362Y00019685J00001181D01*
G01*
X00052362Y00031496D02*
G03*
X00051181Y00032677I-00001181D01*
G01*
X00003937Y00032677D02*
G03*
X00002755Y00031496J-00001181D01*
G01*
X00052362Y00019685D02*
X00052362Y00031496D01*
X00003937Y00018503D02*
X00051181Y00018503D01*
X00003937Y00032667D02*
X00051181Y00032667D01*
X00002755Y00019685D02*
X00002755Y00031496D01*
D73*
X00050251Y00021127D02*
D03*
X00049806Y00020682D02*
D03*
X00049070Y00021127D02*
D03*
X00048624Y00020682D02*
D03*
X00047889Y00021127D02*
D03*
X00047443Y00020682D02*
D03*
X00046708Y00021127D02*
D03*
X00046262Y00020682D02*
D03*
X00045527Y00021127D02*
D03*
X00045081Y00020682D02*
D03*
X00044345Y00021127D02*
D03*
X00043900Y00020682D02*
D03*
X00043164Y00021127D02*
D03*
X00042719Y00020682D02*
D03*
X00041983Y00021127D02*
D03*
X00041538Y00020682D02*
D03*
X00040802Y00021127D02*
D03*
X00040357Y00020682D02*
D03*
X00039621Y00021127D02*
D03*
X00039176Y00020682D02*
D03*
X00038440Y00021127D02*
D03*
X00037995Y00020682D02*
D03*
X00037259Y00021127D02*
D03*
X00036813Y00020682D02*
D03*
X00036078Y00021127D02*
D03*
X00035632Y00020682D02*
D03*
X00034897Y00021127D02*
D03*
X00034451Y00020682D02*
D03*
X00033716Y00021127D02*
D03*
X00033270Y00020682D02*
D03*
X00032534Y00021127D02*
D03*
X00032089Y00020682D02*
D03*
X00031353Y00021127D02*
D03*
X00030908Y00020682D02*
D03*
X00030172Y00021127D02*
D03*
X00029727Y00020682D02*
D03*
X00028991Y00021127D02*
D03*
X00028546Y00020682D02*
D03*
X00027810Y00021127D02*
D03*
X00027365Y00020682D02*
D03*
X00026629Y00021127D02*
D03*
X00026184Y00020682D02*
D03*
X00025448Y00021127D02*
D03*
X00025002Y00020682D02*
D03*
X00024267Y00021127D02*
D03*
X00023821Y00020682D02*
D03*
X00023086Y00021127D02*
D03*
X00022640Y00020682D02*
D03*
X00021905Y00021127D02*
D03*
X00021459Y00020682D02*
D03*
X00020723Y00021127D02*
D03*
X00020278Y00020682D02*
D03*
X00019542Y00021127D02*
D03*
X00019097Y00020682D02*
D03*
X00018361Y00021127D02*
D03*
X00017916Y00020682D02*
D03*
X00017180Y00021127D02*
D03*
X00016735Y00020682D02*
D03*
X00015999Y00021127D02*
D03*
X00015554Y00020682D02*
D03*
X00014818Y00021127D02*
D03*
X00014372Y00020682D02*
D03*
X00013637Y00021127D02*
D03*
X00013191Y00020682D02*
D03*
X00012456Y00021127D02*
D03*
X00012010Y00020682D02*
D03*
X00011275Y00021127D02*
D03*
X00010829Y00020682D02*
D03*
X00010094Y00021127D02*
D03*
X00009648Y00020682D02*
D03*
X00008912Y00021127D02*
D03*
X00008467Y00020682D02*
D03*
X00007731Y00021127D02*
D03*
X00007286Y00020682D02*
D03*
X00006550Y00021127D02*
D03*
X00006105Y00020682D02*
D03*
X00005369Y00021127D02*
D03*
X00004924Y00020682D02*
D03*
X00050251Y00022308D02*
D03*
X00049806Y00021863D02*
D03*
X00049070Y00022308D02*
D03*
X00048624Y00021863D02*
D03*
X00047889Y00022308D02*
D03*
X00047443Y00021863D02*
D03*
X00046708Y00022308D02*
D03*
X00046262Y00021863D02*
D03*
X00045527Y00022308D02*
D03*
X00045081Y00021863D02*
D03*
X00044345Y00022308D02*
D03*
X00043900Y00021863D02*
D03*
X00043164Y00022308D02*
D03*
X00042719Y00021863D02*
D03*
X00041983Y00022308D02*
D03*
X00041538Y00021863D02*
D03*
X00040802Y00022308D02*
D03*
X00040357Y00021863D02*
D03*
X00039621Y00022308D02*
D03*
X00039176Y00021863D02*
D03*
X00038440Y00022308D02*
D03*
X00037995Y00021863D02*
D03*
X00037259Y00022308D02*
D03*
X00036813Y00021863D02*
D03*
X00036078Y00022308D02*
D03*
X00035632Y00021863D02*
D03*
X00034897Y00022308D02*
D03*
X00034451Y00021863D02*
D03*
X00033716Y00022308D02*
D03*
X00033270Y00021863D02*
D03*
X00032534Y00022308D02*
D03*
X00032089Y00021863D02*
D03*
X00031353Y00022308D02*
D03*
X00030908Y00021863D02*
D03*
X00030172Y00022308D02*
D03*
X00029727Y00021863D02*
D03*
X00028991Y00022308D02*
D03*
X00028546Y00021863D02*
D03*
X00027810Y00022308D02*
D03*
X00027365Y00021863D02*
D03*
X00026629Y00022308D02*
D03*
X00026184Y00021863D02*
D03*
X00025448Y00022308D02*
D03*
X00025002Y00021863D02*
D03*
X00024267Y00022308D02*
D03*
X00023821Y00021863D02*
D03*
X00023086Y00022308D02*
D03*
X00022640Y00021863D02*
D03*
X00021905Y00022308D02*
D03*
X00021459Y00021863D02*
D03*
X00020723Y00022308D02*
D03*
X00020278Y00021863D02*
D03*
X00019542Y00022308D02*
D03*
X00019097Y00021863D02*
D03*
X00018361Y00022308D02*
D03*
X00017916Y00021863D02*
D03*
X00017180Y00022308D02*
D03*
X00016735Y00021863D02*
D03*
X00015999Y00022308D02*
D03*
X00015554Y00021863D02*
D03*
X00014818Y00022308D02*
D03*
X00014372Y00021863D02*
D03*
X00013637Y00022308D02*
D03*
X00013191Y00021863D02*
D03*
X00012456Y00022308D02*
D03*
X00012010Y00021863D02*
D03*
X00011275Y00022308D02*
D03*
X00010829Y00021863D02*
D03*
X00010094Y00022308D02*
D03*
X00009648Y00021863D02*
D03*
X00008912Y00022308D02*
D03*
X00008467Y00021863D02*
D03*
X00007731Y00022308D02*
D03*
X00007286Y00021863D02*
D03*
X00006550Y00022308D02*
D03*
X00006105Y00021863D02*
D03*
X00005369Y00022308D02*
D03*
X00004924Y00021863D02*
D03*
X00050251Y00023489D02*
D03*
X00049806Y00023044D02*
D03*
X00049070Y00023489D02*
D03*
X00048624Y00023044D02*
D03*
X00047889Y00023489D02*
D03*
X00047443Y00023044D02*
D03*
X00046708Y00023489D02*
D03*
X00046262Y00023044D02*
D03*
X00045527Y00023489D02*
D03*
X00045081Y00023044D02*
D03*
X00044345Y00023489D02*
D03*
X00043900Y00023044D02*
D03*
X00043164Y00023489D02*
D03*
X00042719Y00023044D02*
D03*
X00041983Y00023489D02*
D03*
X00041538Y00023044D02*
D03*
X00040802Y00023489D02*
D03*
X00040357Y00023044D02*
D03*
X00039621Y00023489D02*
D03*
X00039176Y00023044D02*
D03*
X00038440Y00023489D02*
D03*
X00037995Y00023044D02*
D03*
X00037259Y00023489D02*
D03*
X00036813Y00023044D02*
D03*
X00036078Y00023489D02*
D03*
X00035632Y00023044D02*
D03*
X00034897Y00023489D02*
D03*
X00034451Y00023044D02*
D03*
X00033716Y00023489D02*
D03*
X00033270Y00023044D02*
D03*
X00032534Y00023489D02*
D03*
X00032089Y00023044D02*
D03*
X00031353Y00023489D02*
D03*
X00030908Y00023044D02*
D03*
X00030172Y00023489D02*
D03*
X00029727Y00023044D02*
D03*
X00028991Y00023489D02*
D03*
X00028546Y00023044D02*
D03*
X00027810Y00023489D02*
D03*
X00027365Y00023044D02*
D03*
X00026629Y00023489D02*
D03*
X00026184Y00023044D02*
D03*
X00025448Y00023489D02*
D03*
X00025002Y00023044D02*
D03*
X00024267Y00023489D02*
D03*
X00023821Y00023044D02*
D03*
X00023086Y00023489D02*
D03*
X00022640Y00023044D02*
D03*
X00021905Y00023489D02*
D03*
X00021459Y00023044D02*
D03*
X00020723Y00023489D02*
D03*
X00020278Y00023044D02*
D03*
X00019542Y00023489D02*
D03*
X00019097Y00023044D02*
D03*
X00018361Y00023489D02*
D03*
X00017916Y00023044D02*
D03*
X00017180Y00023489D02*
D03*
X00016735Y00023044D02*
D03*
X00015999Y00023489D02*
D03*
X00015554Y00023044D02*
D03*
X00014818Y00023489D02*
D03*
X00014372Y00023044D02*
D03*
X00013637Y00023489D02*
D03*
X00013191Y00023044D02*
D03*
X00012456Y00023489D02*
D03*
X00012010Y00023044D02*
D03*
X00011275Y00023489D02*
D03*
X00010829Y00023044D02*
D03*
X00010094Y00023489D02*
D03*
X00009648Y00023044D02*
D03*
X00008912Y00023489D02*
D03*
X00008467Y00023044D02*
D03*
X00007731Y00023489D02*
D03*
X00007286Y00023044D02*
D03*
X00006550Y00023489D02*
D03*
X00006105Y00023044D02*
D03*
X00005369Y00023489D02*
D03*
X00004924Y00023044D02*
D03*
X00050251Y00024670D02*
D03*
X00049806Y00024225D02*
D03*
X00049070Y00024670D02*
D03*
X00048624Y00024225D02*
D03*
X00047889Y00024670D02*
D03*
X00047443Y00024225D02*
D03*
X00046708Y00024670D02*
D03*
X00046262Y00024225D02*
D03*
X00045527Y00024670D02*
D03*
X00045081Y00024225D02*
D03*
X00044345Y00024670D02*
D03*
X00043900Y00024225D02*
D03*
X00043164Y00024670D02*
D03*
X00042719Y00024225D02*
D03*
X00041983Y00024670D02*
D03*
X00041538Y00024225D02*
D03*
X00040802Y00024670D02*
D03*
X00040357Y00024225D02*
D03*
X00039621Y00024670D02*
D03*
X00039176Y00024225D02*
D03*
X00038440Y00024670D02*
D03*
X00037995Y00024225D02*
D03*
X00037259Y00024670D02*
D03*
X00036813Y00024225D02*
D03*
X00036078Y00024670D02*
D03*
X00035632Y00024225D02*
D03*
X00034897Y00024670D02*
D03*
X00034451Y00024225D02*
D03*
X00033716Y00024670D02*
D03*
X00033270Y00024225D02*
D03*
X00032534Y00024670D02*
D03*
X00032089Y00024225D02*
D03*
X00031353Y00024670D02*
D03*
X00030908Y00024225D02*
D03*
X00030172Y00024670D02*
D03*
X00029727Y00024225D02*
D03*
X00028991Y00024670D02*
D03*
X00028546Y00024225D02*
D03*
X00027810Y00024670D02*
D03*
X00027365Y00024225D02*
D03*
X00026629Y00024670D02*
D03*
X00026184Y00024225D02*
D03*
X00025448Y00024670D02*
D03*
X00025002Y00024225D02*
D03*
X00024267Y00024670D02*
D03*
X00023821Y00024225D02*
D03*
X00023086Y00024670D02*
D03*
X00022640Y00024225D02*
D03*
X00021905Y00024670D02*
D03*
X00021459Y00024225D02*
D03*
X00020723Y00024670D02*
D03*
X00020278Y00024225D02*
D03*
X00019542Y00024670D02*
D03*
X00019097Y00024225D02*
D03*
X00018361Y00024670D02*
D03*
X00017916Y00024225D02*
D03*
X00017180Y00024670D02*
D03*
X00016735Y00024225D02*
D03*
X00015999Y00024670D02*
D03*
X00015554Y00024225D02*
D03*
X00014818Y00024670D02*
D03*
X00014372Y00024225D02*
D03*
X00013637Y00024670D02*
D03*
X00013191Y00024225D02*
D03*
X00012456Y00024670D02*
D03*
X00012010Y00024225D02*
D03*
X00011275Y00024670D02*
D03*
X00010829Y00024225D02*
D03*
X00010094Y00024670D02*
D03*
X00009648Y00024225D02*
D03*
X00008912Y00024670D02*
D03*
X00008467Y00024225D02*
D03*
X00007731Y00024670D02*
D03*
X00007286Y00024225D02*
D03*
X00006550Y00024670D02*
D03*
X00006105Y00024225D02*
D03*
X00005369Y00024670D02*
D03*
X00004924Y00024225D02*
D03*
X00050251Y00025851D02*
D03*
X00049806Y00025406D02*
D03*
X00049070Y00025851D02*
D03*
X00048624Y00025406D02*
D03*
X00047889Y00025851D02*
D03*
X00047443Y00025406D02*
D03*
X00046708Y00025851D02*
D03*
X00046262Y00025406D02*
D03*
X00045527Y00025851D02*
D03*
X00045081Y00025406D02*
D03*
X00044345Y00025851D02*
D03*
X00043900Y00025406D02*
D03*
X00043164Y00025851D02*
D03*
X00042719Y00025406D02*
D03*
X00041983Y00025851D02*
D03*
X00041538Y00025406D02*
D03*
X00040802Y00025851D02*
D03*
X00040357Y00025406D02*
D03*
X00039621Y00025851D02*
D03*
X00039176Y00025406D02*
D03*
X00038440Y00025851D02*
D03*
X00037995Y00025406D02*
D03*
X00037259Y00025851D02*
D03*
X00036813Y00025406D02*
D03*
X00036078Y00025851D02*
D03*
X00035632Y00025406D02*
D03*
X00034897Y00025851D02*
D03*
X00034451Y00025406D02*
D03*
X00033716Y00025851D02*
D03*
X00033270Y00025406D02*
D03*
X00032534Y00025851D02*
D03*
X00032089Y00025406D02*
D03*
X00031353Y00025851D02*
D03*
X00030908Y00025406D02*
D03*
X00030172Y00025851D02*
D03*
X00029727Y00025406D02*
D03*
X00028991Y00025851D02*
D03*
X00028546Y00025406D02*
D03*
X00027810Y00025851D02*
D03*
X00027365Y00025406D02*
D03*
X00026629Y00025851D02*
D03*
X00026184Y00025406D02*
D03*
X00025448Y00025851D02*
D03*
X00025002Y00025406D02*
D03*
X00024267Y00025851D02*
D03*
X00023821Y00025406D02*
D03*
X00023086Y00025851D02*
D03*
X00022640Y00025406D02*
D03*
X00021905Y00025851D02*
D03*
X00021459Y00025406D02*
D03*
X00020723Y00025851D02*
D03*
X00020278Y00025406D02*
D03*
X00019542Y00025851D02*
D03*
X00019097Y00025406D02*
D03*
X00018361Y00025851D02*
D03*
X00017916Y00025406D02*
D03*
X00017180Y00025851D02*
D03*
X00016735Y00025406D02*
D03*
X00015999Y00025851D02*
D03*
X00015554Y00025406D02*
D03*
X00014818Y00025851D02*
D03*
X00014372Y00025406D02*
D03*
X00013637Y00025851D02*
D03*
X00013191Y00025406D02*
D03*
X00012456Y00025851D02*
D03*
X00012010Y00025406D02*
D03*
X00011275Y00025851D02*
D03*
X00010829Y00025406D02*
D03*
X00010094Y00025851D02*
D03*
X00009648Y00025406D02*
D03*
X00008912Y00025851D02*
D03*
X00008467Y00025406D02*
D03*
X00007731Y00025851D02*
D03*
X00007286Y00025406D02*
D03*
X00006550Y00025851D02*
D03*
X00006105Y00025406D02*
D03*
X00005369Y00025851D02*
D03*
X00004924Y00025406D02*
D03*
X00050251Y00027032D02*
D03*
X00049806Y00026587D02*
D03*
X00049070Y00027032D02*
D03*
X00048624Y00026587D02*
D03*
X00047889Y00027032D02*
D03*
X00047443Y00026587D02*
D03*
X00046708Y00027032D02*
D03*
X00046262Y00026587D02*
D03*
X00045527Y00027032D02*
D03*
X00045081Y00026587D02*
D03*
X00044345Y00027032D02*
D03*
X00043900Y00026587D02*
D03*
X00043164Y00027032D02*
D03*
X00042719Y00026587D02*
D03*
X00041983Y00027032D02*
D03*
X00041538Y00026587D02*
D03*
X00040802Y00027032D02*
D03*
X00040357Y00026587D02*
D03*
X00039621Y00027032D02*
D03*
X00039176Y00026587D02*
D03*
X00038440Y00027032D02*
D03*
X00037995Y00026587D02*
D03*
X00037259Y00027032D02*
D03*
X00036813Y00026587D02*
D03*
X00036078Y00027032D02*
D03*
X00035632Y00026587D02*
D03*
X00034897Y00027032D02*
D03*
X00034451Y00026587D02*
D03*
X00033716Y00027032D02*
D03*
X00033270Y00026587D02*
D03*
X00032534Y00027032D02*
D03*
X00032089Y00026587D02*
D03*
X00031353Y00027032D02*
D03*
X00030908Y00026587D02*
D03*
X00030172Y00027032D02*
D03*
X00029727Y00026587D02*
D03*
X00028991Y00027032D02*
D03*
X00028546Y00026587D02*
D03*
X00027810Y00027032D02*
D03*
X00027365Y00026587D02*
D03*
X00026629Y00027032D02*
D03*
X00026184Y00026587D02*
D03*
X00025448Y00027032D02*
D03*
X00025002Y00026587D02*
D03*
X00024267Y00027032D02*
D03*
X00023821Y00026587D02*
D03*
X00023086Y00027032D02*
D03*
X00022640Y00026587D02*
D03*
X00021905Y00027032D02*
D03*
X00021459Y00026587D02*
D03*
X00020723Y00027032D02*
D03*
X00020278Y00026587D02*
D03*
X00019542Y00027032D02*
D03*
X00019097Y00026587D02*
D03*
X00018361Y00027032D02*
D03*
X00017916Y00026587D02*
D03*
X00017180Y00027032D02*
D03*
X00016735Y00026587D02*
D03*
X00015999Y00027032D02*
D03*
X00015554Y00026587D02*
D03*
X00014818Y00027032D02*
D03*
X00014372Y00026587D02*
D03*
X00013637Y00027032D02*
D03*
X00013191Y00026587D02*
D03*
X00012456Y00027032D02*
D03*
X00012010Y00026587D02*
D03*
X00011275Y00027032D02*
D03*
X00010829Y00026587D02*
D03*
X00010094Y00027032D02*
D03*
X00009648Y00026587D02*
D03*
X00008912Y00027032D02*
D03*
X00008467Y00026587D02*
D03*
X00007731Y00027032D02*
D03*
X00007286Y00026587D02*
D03*
X00006550Y00027032D02*
D03*
X00006105Y00026587D02*
D03*
X00005369Y00027032D02*
D03*
X00004924Y00026587D02*
D03*
X00050251Y00028214D02*
D03*
X00049806Y00027768D02*
D03*
X00049070Y00028214D02*
D03*
X00048624Y00027768D02*
D03*
X00047889Y00028214D02*
D03*
X00047443Y00027768D02*
D03*
X00046708Y00028214D02*
D03*
X00046262Y00027768D02*
D03*
X00045527Y00028214D02*
D03*
X00045081Y00027768D02*
D03*
X00044345Y00028214D02*
D03*
X00043900Y00027768D02*
D03*
X00043164Y00028214D02*
D03*
X00042719Y00027768D02*
D03*
X00041983Y00028214D02*
D03*
X00041538Y00027768D02*
D03*
X00040802Y00028214D02*
D03*
X00040357Y00027768D02*
D03*
X00039621Y00028214D02*
D03*
X00039176Y00027768D02*
D03*
X00038440Y00028214D02*
D03*
X00037995Y00027768D02*
D03*
X00037259Y00028214D02*
D03*
X00036813Y00027768D02*
D03*
X00036078Y00028214D02*
D03*
X00035632Y00027768D02*
D03*
X00034897Y00028214D02*
D03*
X00034451Y00027768D02*
D03*
X00033716Y00028214D02*
D03*
X00033270Y00027768D02*
D03*
X00032534Y00028214D02*
D03*
X00032089Y00027768D02*
D03*
X00031353Y00028214D02*
D03*
X00030908Y00027768D02*
D03*
X00030172Y00028214D02*
D03*
X00029727Y00027768D02*
D03*
X00028991Y00028214D02*
D03*
X00028546Y00027768D02*
D03*
X00027810Y00028214D02*
D03*
X00027365Y00027768D02*
D03*
X00026629Y00028214D02*
D03*
X00026184Y00027768D02*
D03*
X00025448Y00028214D02*
D03*
X00025002Y00027768D02*
D03*
X00024267Y00028214D02*
D03*
X00023821Y00027768D02*
D03*
X00023086Y00028214D02*
D03*
X00022640Y00027768D02*
D03*
X00021905Y00028214D02*
D03*
X00021459Y00027768D02*
D03*
X00020723Y00028214D02*
D03*
X00020278Y00027768D02*
D03*
X00019542Y00028214D02*
D03*
X00019097Y00027768D02*
D03*
X00018361Y00028214D02*
D03*
X00017916Y00027768D02*
D03*
X00017180Y00028214D02*
D03*
X00016735Y00027768D02*
D03*
X00015999Y00028214D02*
D03*
X00015554Y00027768D02*
D03*
X00014818Y00028214D02*
D03*
X00014372Y00027768D02*
D03*
X00013637Y00028214D02*
D03*
X00013191Y00027768D02*
D03*
X00012456Y00028214D02*
D03*
X00012010Y00027768D02*
D03*
X00011275Y00028214D02*
D03*
X00010829Y00027768D02*
D03*
X00010094Y00028214D02*
D03*
X00009648Y00027768D02*
D03*
X00008912Y00028214D02*
D03*
X00008467Y00027768D02*
D03*
X00007731Y00028214D02*
D03*
X00007286Y00027768D02*
D03*
X00006550Y00028214D02*
D03*
X00006105Y00027768D02*
D03*
X00005369Y00028214D02*
D03*
X00004924Y00027768D02*
D03*
X00050251Y00029395D02*
D03*
X00049806Y00028949D02*
D03*
X00049070Y00029395D02*
D03*
X00048624Y00028949D02*
D03*
X00047889Y00029395D02*
D03*
X00047443Y00028949D02*
D03*
X00046708Y00029395D02*
D03*
X00046262Y00028949D02*
D03*
X00045527Y00029395D02*
D03*
X00045081Y00028949D02*
D03*
X00044345Y00029395D02*
D03*
X00043900Y00028949D02*
D03*
X00043164Y00029395D02*
D03*
X00042719Y00028949D02*
D03*
X00041983Y00029395D02*
D03*
X00041538Y00028949D02*
D03*
X00040802Y00029395D02*
D03*
X00040357Y00028949D02*
D03*
X00039621Y00029395D02*
D03*
X00039176Y00028949D02*
D03*
X00038440Y00029395D02*
D03*
X00037995Y00028949D02*
D03*
X00037259Y00029395D02*
D03*
X00036813Y00028949D02*
D03*
X00036078Y00029395D02*
D03*
X00035632Y00028949D02*
D03*
X00034897Y00029395D02*
D03*
X00034451Y00028949D02*
D03*
X00033716Y00029395D02*
D03*
X00033270Y00028949D02*
D03*
X00032534Y00029395D02*
D03*
X00032089Y00028949D02*
D03*
X00031353Y00029395D02*
D03*
X00030908Y00028949D02*
D03*
X00030172Y00029395D02*
D03*
X00029727Y00028949D02*
D03*
X00028991Y00029395D02*
D03*
X00028546Y00028949D02*
D03*
X00027810Y00029395D02*
D03*
X00027365Y00028949D02*
D03*
X00026629Y00029395D02*
D03*
X00026184Y00028949D02*
D03*
X00025448Y00029395D02*
D03*
X00025002Y00028949D02*
D03*
X00024267Y00029395D02*
D03*
X00023821Y00028949D02*
D03*
X00023086Y00029395D02*
D03*
X00022640Y00028949D02*
D03*
X00021905Y00029395D02*
D03*
X00021459Y00028949D02*
D03*
X00020723Y00029395D02*
D03*
X00020278Y00028949D02*
D03*
X00019542Y00029395D02*
D03*
X00019097Y00028949D02*
D03*
X00018361Y00029395D02*
D03*
X00017916Y00028949D02*
D03*
X00017180Y00029395D02*
D03*
X00016735Y00028949D02*
D03*
X00015999Y00029395D02*
D03*
X00015554Y00028949D02*
D03*
X00014818Y00029395D02*
D03*
X00014372Y00028949D02*
D03*
X00013637Y00029395D02*
D03*
X00013191Y00028949D02*
D03*
X00012456Y00029395D02*
D03*
X00012010Y00028949D02*
D03*
X00011275Y00029395D02*
D03*
X00010829Y00028949D02*
D03*
X00010094Y00029395D02*
D03*
X00009648Y00028949D02*
D03*
X00008912Y00029395D02*
D03*
X00008467Y00028949D02*
D03*
X00007731Y00029395D02*
D03*
X00007286Y00028949D02*
D03*
X00006550Y00029395D02*
D03*
X00006105Y00028949D02*
D03*
X00005369Y00029395D02*
D03*
X00004924Y00028949D02*
D03*
X00050251Y00030576D02*
D03*
X00049806Y00030130D02*
D03*
X00049070Y00030576D02*
D03*
X00048624Y00030130D02*
D03*
X00047889Y00030576D02*
D03*
X00047443Y00030130D02*
D03*
X00046708Y00030576D02*
D03*
X00046262Y00030130D02*
D03*
X00045527Y00030576D02*
D03*
X00045081Y00030130D02*
D03*
X00044345Y00030576D02*
D03*
X00043900Y00030130D02*
D03*
X00043164Y00030576D02*
D03*
X00042719Y00030130D02*
D03*
X00041983Y00030576D02*
D03*
X00041538Y00030130D02*
D03*
X00040802Y00030576D02*
D03*
X00040357Y00030130D02*
D03*
X00039621Y00030576D02*
D03*
X00039176Y00030130D02*
D03*
X00038440Y00030576D02*
D03*
X00037995Y00030130D02*
D03*
X00037259Y00030576D02*
D03*
X00036813Y00030130D02*
D03*
X00036078Y00030576D02*
D03*
X00035632Y00030130D02*
D03*
X00034897Y00030576D02*
D03*
X00034451Y00030130D02*
D03*
X00033716Y00030576D02*
D03*
X00033270Y00030130D02*
D03*
X00032534Y00030576D02*
D03*
X00032089Y00030130D02*
D03*
X00031353Y00030576D02*
D03*
X00030908Y00030130D02*
D03*
X00030172Y00030576D02*
D03*
X00029727Y00030130D02*
D03*
X00028991Y00030576D02*
D03*
X00028546Y00030130D02*
D03*
X00027810Y00030576D02*
D03*
X00027365Y00030130D02*
D03*
X00026629Y00030576D02*
D03*
X00026184Y00030130D02*
D03*
X00025448Y00030576D02*
D03*
X00025002Y00030130D02*
D03*
X00024267Y00030576D02*
D03*
X00023821Y00030130D02*
D03*
X00023086Y00030576D02*
D03*
X00022640Y00030130D02*
D03*
X00021905Y00030576D02*
D03*
X00021459Y00030130D02*
D03*
X00020723Y00030576D02*
D03*
X00020278Y00030130D02*
D03*
X00019542Y00030576D02*
D03*
X00019097Y00030130D02*
D03*
X00018361Y00030576D02*
D03*
X00017916Y00030130D02*
D03*
X00017180Y00030576D02*
D03*
X00016735Y00030130D02*
D03*
X00015999Y00030576D02*
D03*
X00015554Y00030130D02*
D03*
X00014818Y00030576D02*
D03*
X00014372Y00030130D02*
D03*
X00013637Y00030576D02*
D03*
X00013191Y00030130D02*
D03*
X00012456Y00030576D02*
D03*
X00012010Y00030130D02*
D03*
X00011275Y00030576D02*
D03*
X00010829Y00030130D02*
D03*
X00010094Y00030576D02*
D03*
X00009648Y00030130D02*
D03*
X00008912Y00030576D02*
D03*
X00008467Y00030130D02*
D03*
X00007731Y00030576D02*
D03*
X00007286Y00030130D02*
D03*
X00006550Y00030576D02*
D03*
X00006105Y00030130D02*
D03*
X00005369Y00030576D02*
D03*
X00004924Y00030130D02*
D03*
D74*
X00005775Y00019389D02*
D03*
X00033566Y00031702D02*
D03*
X00008582Y00031702D02*
D03*
D75*
X00007775Y00019389D02*
D03*
X00008775Y00019389D02*
D03*
X00009775Y00019389D02*
D03*
X00010775Y00019389D02*
D03*
X00011775Y00019389D02*
D03*
X00012775Y00019389D02*
D03*
X00013775Y00019389D02*
D03*
X00006775Y00019389D02*
D03*
X00046566Y00031702D02*
D03*
X00045566Y00031702D02*
D03*
X00044566Y00031702D02*
D03*
X00043566Y00031702D02*
D03*
X00042566Y00031702D02*
D03*
X00041566Y00031702D02*
D03*
X00040566Y00031702D02*
D03*
X00039566Y00031702D02*
D03*
X00038566Y00031702D02*
D03*
X00037566Y00031702D02*
D03*
X00036566Y00031702D02*
D03*
X00035566Y00031702D02*
D03*
X00034566Y00031702D02*
D03*
X00009582Y00031702D02*
D03*
X00010582Y00031702D02*
D03*
X00011582Y00031702D02*
D03*
X00012582Y00031702D02*
D03*
X00013582Y00031702D02*
D03*
X00014582Y00031702D02*
D03*
X00015582Y00031702D02*
D03*
X00016582Y00031702D02*
D03*
X00017582Y00031702D02*
D03*
X00018582Y00031702D02*
D03*
X00019582Y00031702D02*
D03*
X00020582Y00031702D02*
D03*
X00021582Y00031702D02*
D03*
X00022582Y00031702D02*
D03*
X00023582Y00031702D02*
D03*
X00024582Y00031702D02*
D03*
X00025582Y00031702D02*
D03*
X00026582Y00031702D02*
D03*
X00027582Y00031702D02*
D03*
X00028582Y00031702D02*
D03*
X00029582Y00031702D02*
D03*
X00030582Y00031702D02*
D03*
X00031582Y00031702D02*
D03*
X00032582Y00031702D02*
D03*
D76*
X00005738Y00020305D02*
D03*
X00005738Y00022667D02*
D03*
X00005728Y00023848D02*
D03*
X00005738Y00025029D02*
D03*
X00005738Y00026210D02*
D03*
X00005738Y00027391D02*
D03*
X00005728Y00028582D02*
D03*
X00005738Y00029763D02*
D03*
X00005738Y00021476D02*
D03*
X00048257Y00029783D02*
D03*
X00048248Y00028602D02*
D03*
X00048257Y00027411D02*
D03*
X00048257Y00026230D02*
D03*
X00048257Y00025049D02*
D03*
X00048248Y00023868D02*
D03*
X00048257Y00022687D02*
D03*
X00048257Y00021496D02*
D03*
X00048257Y00020324D02*
D03*
X00047066Y00029783D02*
D03*
X00047057Y00028602D02*
D03*
X00047066Y00027411D02*
D03*
X00047066Y00026230D02*
D03*
X00047066Y00025049D02*
D03*
X00047057Y00023868D02*
D03*
X00047066Y00022687D02*
D03*
X00047066Y00021496D02*
D03*
X00047066Y00020324D02*
D03*
X00045885Y00029783D02*
D03*
X00045875Y00028602D02*
D03*
X00045885Y00027411D02*
D03*
X00045885Y00026230D02*
D03*
X00045885Y00025049D02*
D03*
X00045875Y00023868D02*
D03*
X00045885Y00022687D02*
D03*
X00045885Y00021496D02*
D03*
X00045885Y00020324D02*
D03*
X00044704Y00029783D02*
D03*
X00044694Y00028602D02*
D03*
X00044704Y00027411D02*
D03*
X00044704Y00026230D02*
D03*
X00044704Y00025049D02*
D03*
X00044694Y00023868D02*
D03*
X00044704Y00022687D02*
D03*
X00044704Y00021496D02*
D03*
X00044704Y00020324D02*
D03*
X00043533Y00029783D02*
D03*
X00043523Y00028602D02*
D03*
X00043533Y00027411D02*
D03*
X00043533Y00026230D02*
D03*
X00043533Y00025049D02*
D03*
X00043523Y00023868D02*
D03*
X00043533Y00022687D02*
D03*
X00043533Y00021496D02*
D03*
X00043533Y00020324D02*
D03*
X00042342Y00029783D02*
D03*
X00042332Y00028602D02*
D03*
X00042342Y00027411D02*
D03*
X00042342Y00026230D02*
D03*
X00042342Y00025049D02*
D03*
X00042332Y00023868D02*
D03*
X00042342Y00022687D02*
D03*
X00042342Y00021496D02*
D03*
X00042342Y00020324D02*
D03*
X00041171Y00029783D02*
D03*
X00041161Y00028602D02*
D03*
X00041171Y00027411D02*
D03*
X00041171Y00026230D02*
D03*
X00041171Y00025049D02*
D03*
X00041161Y00023868D02*
D03*
X00041171Y00022687D02*
D03*
X00041171Y00021496D02*
D03*
X00041171Y00020324D02*
D03*
X00039980Y00029783D02*
D03*
X00039970Y00028602D02*
D03*
X00039980Y00027411D02*
D03*
X00039980Y00026230D02*
D03*
X00039980Y00025049D02*
D03*
X00039970Y00023868D02*
D03*
X00039980Y00022687D02*
D03*
X00039980Y00021496D02*
D03*
X00039980Y00020324D02*
D03*
X00038799Y00029783D02*
D03*
X00038789Y00028602D02*
D03*
X00038799Y00027411D02*
D03*
X00038799Y00026230D02*
D03*
X00038799Y00025049D02*
D03*
X00038789Y00023868D02*
D03*
X00038799Y00022687D02*
D03*
X00038799Y00021496D02*
D03*
X00038799Y00020324D02*
D03*
X00037618Y00029783D02*
D03*
X00037608Y00028602D02*
D03*
X00037618Y00027411D02*
D03*
X00037618Y00026230D02*
D03*
X00037618Y00025049D02*
D03*
X00037608Y00023868D02*
D03*
X00037618Y00022687D02*
D03*
X00037618Y00021496D02*
D03*
X00037618Y00020324D02*
D03*
X00036437Y00029783D02*
D03*
X00036427Y00028602D02*
D03*
X00036437Y00027411D02*
D03*
X00036437Y00026230D02*
D03*
X00036437Y00025049D02*
D03*
X00036427Y00023868D02*
D03*
X00036437Y00022687D02*
D03*
X00036437Y00021496D02*
D03*
X00036437Y00020324D02*
D03*
X00035255Y00029783D02*
D03*
X00035246Y00028602D02*
D03*
X00035255Y00027411D02*
D03*
X00035255Y00026230D02*
D03*
X00035255Y00025049D02*
D03*
X00035246Y00023868D02*
D03*
X00035255Y00022687D02*
D03*
X00035255Y00021496D02*
D03*
X00035255Y00020324D02*
D03*
X00034074Y00029783D02*
D03*
X00034064Y00028602D02*
D03*
X00034074Y00027411D02*
D03*
X00034074Y00026230D02*
D03*
X00034074Y00025049D02*
D03*
X00034064Y00023868D02*
D03*
X00034074Y00022687D02*
D03*
X00034074Y00021496D02*
D03*
X00034074Y00020324D02*
D03*
X00032903Y00029783D02*
D03*
X00032893Y00028602D02*
D03*
X00032903Y00027411D02*
D03*
X00032903Y00026230D02*
D03*
X00032903Y00025049D02*
D03*
X00032893Y00023868D02*
D03*
X00032903Y00022687D02*
D03*
X00032903Y00021496D02*
D03*
X00032903Y00020324D02*
D03*
X00031712Y00029783D02*
D03*
X00031702Y00028602D02*
D03*
X00031712Y00027411D02*
D03*
X00031712Y00026230D02*
D03*
X00031712Y00025049D02*
D03*
X00031702Y00023868D02*
D03*
X00031712Y00022687D02*
D03*
X00031712Y00021496D02*
D03*
X00031712Y00020324D02*
D03*
X00030531Y00029783D02*
D03*
X00030521Y00028602D02*
D03*
X00030531Y00027411D02*
D03*
X00030531Y00026230D02*
D03*
X00030531Y00025049D02*
D03*
X00030521Y00023868D02*
D03*
X00030531Y00022687D02*
D03*
X00030531Y00021496D02*
D03*
X00030531Y00020324D02*
D03*
X00029340Y00029783D02*
D03*
X00029330Y00028602D02*
D03*
X00029340Y00027411D02*
D03*
X00029340Y00026230D02*
D03*
X00029340Y00025049D02*
D03*
X00029330Y00023868D02*
D03*
X00029340Y00022687D02*
D03*
X00029340Y00021496D02*
D03*
X00029340Y00020324D02*
D03*
X00028169Y00029763D02*
D03*
X00028159Y00028582D02*
D03*
X00028169Y00027391D02*
D03*
X00028169Y00026210D02*
D03*
X00028169Y00025029D02*
D03*
X00028159Y00023848D02*
D03*
X00028169Y00022667D02*
D03*
X00028169Y00021476D02*
D03*
X00028169Y00020305D02*
D03*
X00049438Y00029744D02*
D03*
X00049429Y00028562D02*
D03*
X00049438Y00027372D02*
D03*
X00049438Y00026190D02*
D03*
X00049438Y00025009D02*
D03*
X00049429Y00023828D02*
D03*
X00049438Y00022647D02*
D03*
X00049438Y00021456D02*
D03*
X00049438Y00020285D02*
D03*
X00026998Y00029763D02*
D03*
X00026988Y00028582D02*
D03*
X00026998Y00027391D02*
D03*
X00026998Y00026210D02*
D03*
X00026998Y00025029D02*
D03*
X00026988Y00023848D02*
D03*
X00026998Y00022667D02*
D03*
X00026998Y00021476D02*
D03*
X00026998Y00020305D02*
D03*
X00025807Y00029763D02*
D03*
X00025797Y00028582D02*
D03*
X00025807Y00027391D02*
D03*
X00025807Y00026210D02*
D03*
X00025807Y00025029D02*
D03*
X00025797Y00023848D02*
D03*
X00025807Y00022667D02*
D03*
X00025807Y00021476D02*
D03*
X00025807Y00020305D02*
D03*
X00024625Y00029763D02*
D03*
X00024616Y00028582D02*
D03*
X00024625Y00027391D02*
D03*
X00024625Y00026210D02*
D03*
X00024625Y00025029D02*
D03*
X00024616Y00023848D02*
D03*
X00024625Y00022667D02*
D03*
X00024625Y00021476D02*
D03*
X00024625Y00020305D02*
D03*
X00023444Y00029763D02*
D03*
X00023435Y00028582D02*
D03*
X00023444Y00027391D02*
D03*
X00023444Y00026210D02*
D03*
X00023444Y00025029D02*
D03*
X00023435Y00023848D02*
D03*
X00023444Y00022667D02*
D03*
X00023444Y00021476D02*
D03*
X00023444Y00020305D02*
D03*
X00022273Y00029763D02*
D03*
X00022263Y00028582D02*
D03*
X00022273Y00027391D02*
D03*
X00022273Y00026210D02*
D03*
X00022273Y00025029D02*
D03*
X00022263Y00023848D02*
D03*
X00022273Y00022667D02*
D03*
X00022273Y00021476D02*
D03*
X00022273Y00020305D02*
D03*
X00021082Y00029763D02*
D03*
X00021072Y00028582D02*
D03*
X00021082Y00027391D02*
D03*
X00021082Y00026210D02*
D03*
X00021082Y00025029D02*
D03*
X00021072Y00023848D02*
D03*
X00021082Y00022667D02*
D03*
X00021082Y00021476D02*
D03*
X00021082Y00020305D02*
D03*
X00019901Y00029763D02*
D03*
X00019891Y00028582D02*
D03*
X00019901Y00027391D02*
D03*
X00019901Y00026210D02*
D03*
X00019901Y00025029D02*
D03*
X00019891Y00023848D02*
D03*
X00019901Y00022667D02*
D03*
X00019901Y00021476D02*
D03*
X00019901Y00020305D02*
D03*
X00018720Y00029763D02*
D03*
X00018710Y00028582D02*
D03*
X00018720Y00027391D02*
D03*
X00018720Y00026210D02*
D03*
X00018720Y00025029D02*
D03*
X00018710Y00023848D02*
D03*
X00018720Y00022667D02*
D03*
X00018720Y00021476D02*
D03*
X00018720Y00020305D02*
D03*
X00017549Y00029763D02*
D03*
X00017539Y00028582D02*
D03*
X00017549Y00027391D02*
D03*
X00017549Y00026210D02*
D03*
X00017549Y00025029D02*
D03*
X00017539Y00023848D02*
D03*
X00017549Y00022667D02*
D03*
X00017549Y00021476D02*
D03*
X00017549Y00020305D02*
D03*
X00016368Y00029763D02*
D03*
X00016358Y00028582D02*
D03*
X00016368Y00027391D02*
D03*
X00016368Y00026210D02*
D03*
X00016368Y00025029D02*
D03*
X00016358Y00023848D02*
D03*
X00016368Y00022667D02*
D03*
X00016368Y00021476D02*
D03*
X00016368Y00020305D02*
D03*
X00015177Y00029763D02*
D03*
X00015167Y00028582D02*
D03*
X00015177Y00027391D02*
D03*
X00015177Y00026210D02*
D03*
X00015177Y00025029D02*
D03*
X00015167Y00023848D02*
D03*
X00015177Y00022667D02*
D03*
X00015177Y00021476D02*
D03*
X00015177Y00020305D02*
D03*
X00013996Y00029763D02*
D03*
X00013986Y00028582D02*
D03*
X00013996Y00027391D02*
D03*
X00013996Y00026210D02*
D03*
X00013996Y00025029D02*
D03*
X00013986Y00023848D02*
D03*
X00013996Y00022667D02*
D03*
X00013996Y00021476D02*
D03*
X00013996Y00020305D02*
D03*
X00012814Y00029763D02*
D03*
X00012805Y00028582D02*
D03*
X00012814Y00027391D02*
D03*
X00012814Y00026210D02*
D03*
X00012814Y00025029D02*
D03*
X00012805Y00023848D02*
D03*
X00012814Y00022667D02*
D03*
X00012814Y00021476D02*
D03*
X00012814Y00020305D02*
D03*
X00011643Y00029763D02*
D03*
X00011633Y00028582D02*
D03*
X00011643Y00027391D02*
D03*
X00011643Y00026210D02*
D03*
X00011643Y00025029D02*
D03*
X00011633Y00023848D02*
D03*
X00011643Y00022667D02*
D03*
X00011643Y00021476D02*
D03*
X00011643Y00020305D02*
D03*
X00010462Y00029763D02*
D03*
X00010452Y00028582D02*
D03*
X00010462Y00027391D02*
D03*
X00010462Y00026210D02*
D03*
X00010462Y00025029D02*
D03*
X00010452Y00023848D02*
D03*
X00010462Y00022667D02*
D03*
X00010462Y00021476D02*
D03*
X00010462Y00020305D02*
D03*
X00009271Y00029763D02*
D03*
X00009261Y00028582D02*
D03*
X00009271Y00027391D02*
D03*
X00009271Y00026210D02*
D03*
X00009271Y00025029D02*
D03*
X00009261Y00023848D02*
D03*
X00009271Y00022667D02*
D03*
X00009271Y00021476D02*
D03*
X00009271Y00020305D02*
D03*
X00008090Y00029763D02*
D03*
X00008080Y00028582D02*
D03*
X00008090Y00027391D02*
D03*
X00008090Y00026210D02*
D03*
X00008090Y00025029D02*
D03*
X00008080Y00023848D02*
D03*
X00008090Y00022667D02*
D03*
X00008090Y00021476D02*
D03*
X00008090Y00020305D02*
D03*
X00006909Y00029753D02*
D03*
X00006899Y00028572D02*
D03*
X00006909Y00027381D02*
D03*
X00006909Y00026200D02*
D03*
X00006909Y00025019D02*
D03*
X00006899Y00023838D02*
D03*
X00006909Y00022657D02*
D03*
X00006909Y00021466D02*
D03*
X00006909Y00020295D02*
D03*
D77*
X00003937Y00019685D02*
D03*
X00051181Y00019685D02*
D03*
X00051181Y00031496D02*
D03*
X00003937Y00031496D02*
D03*
M02*