%MOIN*%
%OFA0B0*%
%FSLAX44Y44*%
%IPPOS*%
%LPD*%
%ADD15C,0.01*%
%ADD17C,0.0039370078740157488*%
%ADD88C,0.0019685039370078744*%
%ADD101C,0.01*%
G01*
G75*
D15*
X00003799Y00017331D02*
G03*
X00002618Y00016150J-00001181D01*
G01*
X00052224Y00016150D02*
G03*
X00051043Y00017331I-00001181D01*
G01*
X00051043Y00003158D02*
G03*
X00052224Y00004339J00001181D01*
G01*
X00002618Y00004339D02*
G03*
X00003799Y00003158I00001181D01*
G01*
X00002618Y00004339D02*
X00002618Y00016150D01*
X00003799Y00017321D02*
X00051043Y00017321D01*
X00003799Y00003158D02*
X00051043Y00003158D01*
X00052224Y00004339D02*
X00052224Y00016150D01*
D17*
X00042352Y00007933D02*
X00042352Y00008425D01*
X00041348Y00007933D02*
X00041348Y00008425D01*
X00041348Y00007933D02*
X00042352Y00007933D01*
X00041348Y00008425D02*
X00042352Y00008425D01*
X00041663Y00008179D02*
X00042037Y00008179D01*
X00041850Y00007992D02*
X00041850Y00008366D01*
X00032598Y00009074D02*
X00032598Y00009566D01*
X00033602Y00009074D02*
X00033602Y00009566D01*
X00032598Y00009074D02*
X00033602Y00009074D01*
X00032598Y00009566D02*
X00033602Y00009566D01*
X00032913Y00009320D02*
X00033287Y00009320D01*
X00033100Y00009133D02*
X00033100Y00009507D01*
X00035482Y00009881D02*
X00035974Y00009881D01*
X00035482Y00010885D02*
X00035974Y00010885D01*
X00035974Y00009881D02*
X00035974Y00010885D01*
X00035482Y00009881D02*
X00035482Y00010885D01*
X00035728Y00010196D02*
X00035728Y00010570D01*
X00035541Y00010383D02*
X00035915Y00010383D01*
X00032598Y00008454D02*
X00032598Y00008946D01*
X00033602Y00008454D02*
X00033602Y00008946D01*
X00032598Y00008454D02*
X00033602Y00008454D01*
X00032598Y00008946D02*
X00033602Y00008946D01*
X00032913Y00008700D02*
X00033287Y00008700D01*
X00033100Y00008513D02*
X00033100Y00008887D01*
X00036181Y00009891D02*
X00036673Y00009891D01*
X00036181Y00010895D02*
X00036673Y00010895D01*
X00036673Y00009891D02*
X00036673Y00010895D01*
X00036181Y00009891D02*
X00036181Y00010895D01*
X00036427Y00010206D02*
X00036427Y00010580D01*
X00036240Y00010393D02*
X00036614Y00010393D01*
X00005964Y00005718D02*
X00005964Y00006210D01*
X00004960Y00005718D02*
X00004960Y00006210D01*
X00004960Y00005718D02*
X00005964Y00005718D01*
X00004960Y00006210D02*
X00005964Y00006210D01*
X00005275Y00005964D02*
X00005649Y00005964D01*
X00005462Y00005777D02*
X00005462Y00006151D01*
X00049527Y00009320D02*
X00049527Y00009812D01*
X00050531Y00009320D02*
X00050531Y00009812D01*
X00049527Y00009320D02*
X00050531Y00009320D01*
X00049527Y00009812D02*
X00050531Y00009812D01*
X00049842Y00009566D02*
X00050216Y00009566D01*
X00050029Y00009379D02*
X00050029Y00009753D01*
X00050511Y00010088D02*
X00050511Y00010580D01*
X00049507Y00010088D02*
X00049507Y00010580D01*
X00050511Y00010580D01*
X00049507Y00010088D02*
X00050511Y00010088D01*
X00049822Y00010334D02*
X00050196Y00010334D01*
X00050009Y00010147D02*
X00050009Y00010521D01*
X00050393Y00012903D02*
X00050787Y00012903D01*
X00050590Y00012706D02*
X00050590Y00013100D01*
X00050393Y00012903D02*
X00050787Y00012903D01*
X00050590Y00012706D02*
X00050590Y00013100D01*
X00050413Y00006791D02*
X00050413Y00007185D01*
X00050216Y00006988D02*
X00050610Y00006988D01*
X00036840Y00011564D02*
X00037332Y00011564D01*
X00036840Y00012568D02*
X00037332Y00012568D01*
X00036840Y00011564D02*
X00036840Y00012568D01*
X00037332Y00011564D02*
X00037332Y00012568D01*
X00037086Y00011879D02*
X00037086Y00012253D01*
X00036899Y00012066D02*
X00037273Y00012066D01*
X00035462Y00009891D02*
X00035954Y00009891D01*
X00035462Y00010895D02*
X00035954Y00010895D01*
X00035462Y00009891D02*
X00035462Y00010895D01*
X00035954Y00009891D02*
X00035954Y00010895D01*
X00035708Y00010206D02*
X00035708Y00010580D01*
X00035521Y00010393D02*
X00035895Y00010393D01*
X00047244Y00006496D02*
X00047244Y00006988D01*
X00048248Y00006496D02*
X00048248Y00006988D01*
X00047244Y00006988D02*
X00048248Y00006988D01*
X00047244Y00006496D02*
X00048248Y00006496D01*
X00047559Y00006742D02*
X00047933Y00006742D01*
X00047746Y00006555D02*
X00047746Y00006929D01*
X00048248Y00005935D02*
X00048248Y00006427D01*
X00047244Y00005935D02*
X00047244Y00006427D01*
X00047244Y00005935D02*
X00048248Y00005935D01*
X00047244Y00006427D02*
X00048248Y00006427D01*
X00047559Y00006181D02*
X00047933Y00006181D01*
X00047746Y00005994D02*
X00047746Y00006368D01*
X00046604Y00011633D02*
X00046801Y00011633D01*
X00046702Y00011535D02*
X00046702Y00011732D01*
X00044763Y00008956D02*
X00045255Y00008956D01*
X00044763Y00009960D02*
X00045255Y00009960D01*
X00044763Y00008956D02*
X00044763Y00009960D01*
X00045255Y00008956D02*
X00045255Y00009960D01*
X00045009Y00009271D02*
X00045009Y00009645D01*
X00044822Y00009458D02*
X00045196Y00009458D01*
X00045098Y00012500D02*
X00045590Y00012500D01*
X00045098Y00011496D02*
X00045590Y00011496D01*
X00045590Y00012500D01*
X00045098Y00011496D02*
X00045098Y00012500D01*
X00045344Y00011811D02*
X00045344Y00012185D01*
X00045157Y00011997D02*
X00045531Y00011997D01*
X00036840Y00010442D02*
X00037332Y00010442D01*
X00036840Y00011446D02*
X00037332Y00011446D01*
X00036840Y00010442D02*
X00036840Y00011446D01*
X00037332Y00010442D02*
X00037332Y00011446D01*
X00037086Y00010757D02*
X00037086Y00011131D01*
X00036899Y00010944D02*
X00037273Y00010944D01*
X00036200Y00011437D02*
X00036692Y00011437D01*
X00036200Y00010433D02*
X00036692Y00010433D01*
X00036692Y00011437D01*
X00036200Y00010433D02*
X00036200Y00011437D01*
X00036446Y00010748D02*
X00036446Y00011122D01*
X00036259Y00010935D02*
X00036633Y00010935D01*
X00041338Y00008523D02*
X00041338Y00009015D01*
X00042342Y00008523D02*
X00042342Y00009015D01*
X00041338Y00009015D02*
X00042342Y00009015D01*
X00041338Y00008523D02*
X00042342Y00008523D01*
X00041653Y00008769D02*
X00042027Y00008769D01*
X00041840Y00008582D02*
X00041840Y00008956D01*
X00037677Y00011279D02*
X00038169Y00011279D01*
X00037677Y00012283D02*
X00038169Y00012283D01*
X00037677Y00011279D02*
X00037677Y00012283D01*
X00038169Y00011279D02*
X00038169Y00012283D01*
X00037923Y00011594D02*
X00037923Y00011968D01*
X00037736Y00011781D02*
X00038110Y00011781D01*
X00039173Y00012816D02*
X00039173Y00013210D01*
X00038976Y00013013D02*
X00039370Y00013013D01*
X00040236Y00012293D02*
X00040728Y00012293D01*
X00040236Y00011289D02*
X00040728Y00011289D01*
X00040728Y00012293D01*
X00040236Y00011289D02*
X00040236Y00012293D01*
X00040482Y00011604D02*
X00040482Y00011978D01*
X00040295Y00011791D02*
X00040669Y00011791D01*
X00039183Y00010433D02*
X00039183Y00010826D01*
X00038986Y00010629D02*
X00039379Y00010629D01*
X00047952Y00009468D02*
X00048346Y00009468D01*
X00048149Y00009271D02*
X00048149Y00009665D01*
X00048366Y00005952D02*
X00048858Y00005952D01*
X00048366Y00006956D02*
X00048858Y00006956D01*
X00048366Y00005952D02*
X00048366Y00006956D01*
X00048858Y00005952D02*
X00048858Y00006956D01*
X00048612Y00006267D02*
X00048612Y00006641D01*
X00048425Y00006454D02*
X00048799Y00006454D01*
X00048661Y00007903D02*
X00048661Y00008395D01*
X00047657Y00007903D02*
X00047657Y00008395D01*
X00047657Y00007903D02*
X00048661Y00007903D01*
X00047657Y00008395D02*
X00048661Y00008395D01*
X00047972Y00008149D02*
X00048346Y00008149D01*
X00048159Y00007962D02*
X00048159Y00008336D01*
X00005964Y00006466D02*
X00005964Y00006958D01*
X00004960Y00006466D02*
X00004960Y00006958D01*
X00004960Y00006466D02*
X00005964Y00006466D01*
X00004960Y00006958D02*
X00005964Y00006958D01*
X00005275Y00006712D02*
X00005649Y00006712D01*
X00005462Y00006525D02*
X00005462Y00006899D01*
X00028631Y00011210D02*
X00029124Y00011210D01*
X00028631Y00010206D02*
X00029124Y00010206D01*
X00029124Y00011210D01*
X00028631Y00010206D02*
X00028631Y00011210D01*
X00028877Y00010521D02*
X00028877Y00010895D01*
X00028690Y00010708D02*
X00029064Y00010708D01*
X00029409Y00011988D02*
X00029901Y00011988D01*
X00029409Y00010984D02*
X00029901Y00010984D01*
X00029901Y00011988D01*
X00029409Y00010984D02*
X00029409Y00011988D01*
X00029655Y00011299D02*
X00029655Y00011673D01*
X00029468Y00011486D02*
X00029842Y00011486D01*
X00016476Y00005747D02*
X00016476Y00006240D01*
X00015472Y00005747D02*
X00015472Y00006240D01*
X00015472Y00005747D02*
X00016476Y00005747D01*
X00015472Y00006240D02*
X00016476Y00006240D01*
X00015787Y00005994D02*
X00016161Y00005994D01*
X00015974Y00005807D02*
X00015974Y00006181D01*
X00016476Y00006476D02*
X00016476Y00006968D01*
X00015472Y00006476D02*
X00015472Y00006968D01*
X00015472Y00006476D02*
X00016476Y00006476D01*
X00015472Y00006968D02*
X00016476Y00006968D01*
X00015787Y00006722D02*
X00016161Y00006722D01*
X00015974Y00006535D02*
X00015974Y00006909D01*
X00016476Y00007204D02*
X00016476Y00007696D01*
X00015472Y00007204D02*
X00015472Y00007696D01*
X00015472Y00007204D02*
X00016476Y00007204D01*
X00015472Y00007696D02*
X00016476Y00007696D01*
X00015787Y00007450D02*
X00016161Y00007450D01*
X00015974Y00007263D02*
X00015974Y00007637D01*
X00016476Y00007972D02*
X00016476Y00008464D01*
X00015472Y00007972D02*
X00015472Y00008464D01*
X00015472Y00007972D02*
X00016476Y00007972D01*
X00015472Y00008464D02*
X00016476Y00008464D01*
X00015787Y00008218D02*
X00016161Y00008218D01*
X00015974Y00008031D02*
X00015974Y00008405D01*
X00047864Y00012238D02*
X00047903Y00012277D01*
X00047864Y00012198D02*
X00047942Y00012277D01*
X00047864Y00012159D02*
X00047982Y00012277D01*
X00047864Y00012120D02*
X00048021Y00012277D01*
X00047864Y00012080D02*
X00048061Y00012277D01*
X00047864Y00012041D02*
X00048100Y00012277D01*
X00047864Y00012001D02*
X00048139Y00012277D01*
X00047864Y00011962D02*
X00048179Y00012277D01*
X00047864Y00011923D02*
X00048218Y00012277D01*
X00047864Y00011883D02*
X00048257Y00012277D01*
X00047864Y00011127D02*
X00048375Y00011127D01*
X00048375Y00012277D01*
X00047864Y00012277D02*
X00048375Y00012277D01*
X00047864Y00011127D02*
X00047864Y00012277D01*
D88*
X00048257Y00011702D02*
G03*
X00048257Y00011702I-00000137D01*
G01*
X00049576Y00010984D02*
X00049576Y00014822D01*
X00052470Y00014822D01*
X00049576Y00010984D02*
X00052470Y00010984D01*
X00052470Y00014822D01*
X00049488Y00008690D02*
X00051850Y00008690D01*
X00051850Y00005285D02*
X00051850Y00008690D01*
X00049488Y00005285D02*
X00049488Y00008690D01*
X00049488Y00005285D02*
X00051850Y00005285D01*
X00047352Y00010994D02*
X00048887Y00010994D01*
X00048887Y00012411D01*
X00047352Y00012411D02*
X00048887Y00012411D01*
X00047352Y00010994D02*
X00047352Y00012411D01*
X00048120Y00011505D02*
X00048120Y00011899D01*
X00047923Y00011702D02*
X00048316Y00011702D01*
X00046348Y00010769D02*
X00047057Y00010769D01*
X00047057Y00012498D01*
X00046348Y00012498D02*
X00047057Y00012498D01*
X00046348Y00010769D02*
X00046348Y00012498D01*
X00038385Y00012068D02*
X00039960Y00012068D01*
X00038385Y00013958D02*
X00039960Y00013958D01*
X00038385Y00012068D02*
X00038385Y00013958D01*
X00039960Y00012068D02*
X00039960Y00013958D01*
X00038395Y00011574D02*
X00039970Y00011574D01*
X00038395Y00009685D02*
X00039970Y00009685D01*
X00039970Y00011574D01*
X00038395Y00009685D02*
X00038395Y00011574D01*
X00049074Y00008661D02*
X00049074Y00010275D01*
X00047224Y00008661D02*
X00047224Y00010275D01*
X00047224Y00008661D02*
X00049074Y00008661D01*
X00047224Y00010275D02*
X00049074Y00010275D01*
G04 next file*
G04*
G04 #@! TF.GenerationSoftware,Altium Limited,Altium Designer,18.1.9 (240)*
G04*
G04 Layer_Color=32768*
G04 skipping 71
G01*
G75*
D101*
X00002755Y00019685D02*
G03*
X00003937Y00018503I00001181D01*
G01*
X00051181Y00018503D02*
G03*
X00052362Y00019685J00001181D01*
G01*
X00052362Y00031496D02*
G03*
X00051181Y00032677I-00001181D01*
G01*
X00003937Y00032677D02*
G03*
X00002755Y00031496J-00001181D01*
G01*
X00052362Y00019685D02*
X00052362Y00031496D01*
X00003937Y00018503D02*
X00051181Y00018503D01*
X00003937Y00032667D02*
X00051181Y00032667D01*
X00002755Y00019685D02*
X00002755Y00031496D01*
M02*