%MOIN*%
%OFA0B0*%
%FSLAX44Y44*%
%IPPOS*%
%LPD*%
%ADD11C,0.00984251968503937*%
%ADD13C,0.005*%
%ADD15C,0.01*%
%ADD17C,0.0039370078740157488*%
%ADD18R,0.031496062992125991X0.035433070866141732*%
%ADD25R,0.035433070866141732X0.031496062992125991*%
%ADD65C,0.01968503937007874*%
%ADD66C,0.047251968503937009*%
%ADD67R,0.043307086614173235X0.043307086614173235*%
%ADD68O,0.062992125984251982X0.047244094488188976*%
%ADD69O,0.070866141732283464X0.043307086614173235*%
%ADD70C,0.0315*%
%ADD71C,0.059055118110236227*%
%ADD72R,0.059055118110236227X0.059055118110236227*%
%ADD73R,0.059055118110236227X0.059055118110236227*%
%ADD74C,0.01968503937007874*%
%ADD75C,0.017716535433070866*%
%ADD76C,0.11811023622047245*%
%ADD77R,0.051181102362204731X0.061019685039370088*%
%ADD78R,0.031496062992125991X0.031496062992125991*%
%ADD79R,0.19488188976377954X0.19488188976377954*%
%ADD80R,0.033070866141732283X0.0086614173228346455*%
%ADD81R,0.0086614173228346455X0.033070866141732283*%
%ADD94C,0.01*%
%ADD101R,0.059055118110236227X0.059055118110236227*%
%ADD102C,0.059055118110236227*%
%ADD103C,0.01968503937007874*%
%ADD104C,0.11811023622047245*%
G01*
G75*
D11*
X00017800Y00005994D02*
X00017809Y00006003D01*
X00018425Y00006003D01*
X00017800Y00006712D02*
X00018415Y00006712D01*
X00018425Y00006722D01*
X00017809Y00007470D02*
X00018405Y00007470D01*
X00017800Y00007460D02*
X00017809Y00007470D01*
X00017800Y00008218D02*
X00018395Y00008218D01*
X00016712Y00005994D02*
X00017170Y00005994D01*
X00016702Y00006712D02*
X00017170Y00006712D01*
X00016702Y00007460D02*
X00017170Y00007460D01*
X00016702Y00008218D02*
X00017170Y00008218D01*
X00048326Y00012657D02*
X00048336Y00012667D01*
X00048129Y00012657D02*
X00048326Y00012657D01*
X00047696Y00013090D02*
X00048129Y00012657D01*
X00047696Y00013090D02*
X00047696Y00013336D01*
D13*
X00035462Y00010669D02*
X00036427Y00010669D01*
X00035265Y00006190D02*
X00039376Y00006190D01*
X00035187Y00006003D02*
X00038563Y00006003D01*
X00035029Y00005836D02*
X00037731Y00005836D01*
X00035127Y00006328D02*
X00035265Y00006190D01*
X00034970Y00006220D02*
X00035187Y00006003D01*
X00034812Y00006053D02*
X00035029Y00005836D01*
X00036415Y00012531D02*
X00036476Y00012470D01*
X00035875Y00011338D02*
X00035875Y00011509D01*
X00035799Y00011586D02*
X00035875Y00011509D01*
X00035381Y00011586D02*
X00035799Y00011586D01*
X00035917Y00012216D02*
X00035994Y00012293D01*
X00035381Y00012531D02*
X00036415Y00012531D01*
X00035381Y00012688D02*
X00036596Y00012688D01*
X00035381Y00012846D02*
X00036527Y00012846D01*
X00035381Y00013003D02*
X00036458Y00013003D01*
X00035381Y00013161D02*
X00036390Y00013161D01*
X00036321Y00013318D02*
X00038196Y00015194D01*
X00035381Y00013318D02*
X00036321Y00013318D01*
X00035834Y00011901D02*
X00036043Y00011692D01*
X00033375Y00008700D02*
X00033375Y00009320D01*
X00033375Y00009616D01*
X00033713Y00009953D01*
X00033713Y00011015D01*
X00033710Y00011017D02*
X00033713Y00011015D01*
X00033395Y00010735D02*
X00033395Y00011017D01*
X00033395Y00010735D02*
X00033403Y00010728D01*
X00033403Y00010395D02*
X00033403Y00010728D01*
X00035381Y00010750D02*
X00035462Y00010669D01*
X00035381Y00010750D02*
X00035381Y00011271D01*
X00035381Y00011429D01*
X00034793Y00005669D02*
X00036898Y00005669D01*
X00034655Y00005807D02*
X00034793Y00005669D01*
X00036898Y00005669D02*
X00038425Y00004142D01*
X00012591Y00012210D02*
X00027598Y00012210D01*
X00008444Y00016357D02*
X00012591Y00012210D01*
X00035381Y00012216D02*
X00035917Y00012216D01*
X00035381Y00011901D02*
X00035834Y00011901D01*
X00036390Y00013161D02*
X00038262Y00015034D01*
X00036252Y00013476D02*
X00038130Y00015354D01*
X00035381Y00013476D02*
X00036252Y00013476D01*
X00038130Y00015354D02*
X00040426Y00015354D01*
X00035381Y00011901D02*
X00035389Y00011909D01*
X00034175Y00005460D02*
X00034498Y00005137D01*
X00035127Y00006328D02*
X00035127Y00011017D01*
X00037731Y00005836D02*
X00039425Y00004142D01*
X00034655Y00005807D02*
X00034655Y00011017D01*
X00034609Y00005484D02*
X00036083Y00005484D01*
X00034498Y00005595D02*
X00034498Y00011017D01*
X00034340Y00005541D02*
X00034547Y00005334D01*
X00034340Y00005541D02*
X00034340Y00011017D01*
X00043786Y00014714D02*
X00045429Y00016357D01*
X00038461Y00014554D02*
X00044626Y00014554D01*
X00039376Y00006190D02*
X00041425Y00004142D01*
X00034970Y00006220D02*
X00034970Y00011017D01*
X00034812Y00006053D02*
X00034812Y00011017D01*
X00038563Y00006003D02*
X00040425Y00004142D01*
X00034498Y00005595D02*
X00034609Y00005484D01*
X00036083Y00005484D02*
X00037425Y00004142D01*
X00034547Y00005334D02*
X00035233Y00005334D01*
X00034025Y00005374D02*
X00034025Y00011017D01*
X00034025Y00005374D02*
X00034425Y00004974D01*
X00033868Y00005265D02*
X00033868Y00011017D01*
X00033425Y00004822D02*
X00033868Y00005265D01*
X00034175Y00005460D02*
X00034183Y00005467D01*
X00033425Y00004142D02*
X00033425Y00004822D01*
X00035233Y00005334D02*
X00036425Y00004142D01*
X00034183Y00005467D02*
X00034183Y00011017D01*
X00034498Y00005137D02*
X00034950Y00005137D01*
X00035425Y00004663D01*
X00035425Y00004142D02*
X00035425Y00004663D01*
X00034425Y00004142D02*
X00034425Y00004974D01*
X00027962Y00013090D02*
X00030458Y00010594D01*
X00015711Y00013090D02*
X00027962Y00013090D01*
X00030458Y00010594D02*
X00032789Y00010594D01*
X00030076Y00011271D02*
X00032669Y00011271D01*
X00028041Y00013306D02*
X00030076Y00011271D01*
X00030230Y00011429D02*
X00032669Y00011429D01*
X00028196Y00013462D02*
X00030230Y00011429D01*
X00017339Y00013462D02*
X00028196Y00013462D01*
X00016495Y00013306D02*
X00028041Y00013306D01*
X00030691Y00011901D02*
X00032669Y00011901D01*
X00028662Y00013930D02*
X00030691Y00011901D01*
X00031100Y00012216D02*
X00032669Y00012216D01*
X00029230Y00014086D02*
X00031100Y00012216D01*
X00031254Y00012374D02*
X00032669Y00012374D01*
X00029385Y00014242D02*
X00031254Y00012374D01*
X00031407Y00012531D02*
X00032669Y00012531D01*
X00029540Y00014398D02*
X00031407Y00012531D01*
X00022403Y00014398D02*
X00029540Y00014398D01*
X00031561Y00012688D02*
X00032669Y00012688D01*
X00029695Y00014554D02*
X00031561Y00012688D01*
X00031714Y00012846D02*
X00032669Y00012846D01*
X00029850Y00014710D02*
X00031714Y00012846D01*
X00031868Y00013003D02*
X00032669Y00013003D01*
X00030005Y00014866D02*
X00031868Y00013003D01*
X00032022Y00013161D02*
X00032669Y00013161D01*
X00030161Y00015022D02*
X00032022Y00013161D01*
X00038196Y00015194D02*
X00041266Y00015194D01*
X00038262Y00015034D02*
X00042106Y00015034D01*
X00036458Y00013003D02*
X00038329Y00014874D01*
X00042946Y00014874D01*
X00036527Y00012846D02*
X00038395Y00014714D01*
X00043786Y00014714D01*
X00036596Y00012688D02*
X00038461Y00014554D01*
X00044626Y00014554D02*
X00046429Y00016357D01*
X00042946Y00014874D02*
X00044429Y00016357D01*
X00042106Y00015034D02*
X00043429Y00016357D01*
X00041266Y00015194D02*
X00042429Y00016357D01*
X00040426Y00015354D02*
X00041429Y00016357D01*
X00032789Y00010594D02*
X00032923Y00010728D01*
X00033553Y00010790D02*
X00033553Y00011017D01*
X00033553Y00010790D02*
X00033553Y00010790D01*
X00033553Y00010738D02*
X00033553Y00010790D01*
X00033553Y00010738D02*
X00033563Y00010728D01*
X00032923Y00010728D02*
X00032923Y00011017D01*
X00033080Y00010827D02*
X00033080Y00011017D01*
X00033080Y00010827D02*
X00033083Y00010824D01*
X00033083Y00010528D02*
X00033083Y00010824D01*
X00033238Y00010827D02*
X00033238Y00011017D01*
X00033238Y00010827D02*
X00033243Y00010822D01*
X00033243Y00010461D02*
X00033243Y00010822D01*
X00032948Y00009714D02*
X00033563Y00010329D01*
X00030094Y00009714D02*
X00032948Y00009714D01*
X00033563Y00010329D02*
X00033563Y00010728D01*
X00032942Y00009934D02*
X00033403Y00010395D01*
X00030185Y00009934D02*
X00032942Y00009934D01*
X00032935Y00010154D02*
X00033243Y00010461D01*
X00030276Y00010154D02*
X00032935Y00010154D01*
X00032929Y00010374D02*
X00033083Y00010528D01*
X00030367Y00010374D02*
X00032929Y00010374D01*
X00027871Y00012870D02*
X00030367Y00010374D01*
X00027780Y00012650D02*
X00030276Y00010154D01*
X00027689Y00012430D02*
X00030185Y00009934D01*
X00027598Y00012210D02*
X00030094Y00009714D01*
X00013371Y00012430D02*
X00027689Y00012430D01*
X00009444Y00016357D02*
X00013371Y00012430D01*
X00014151Y00012650D02*
X00027780Y00012650D01*
X00010444Y00016357D02*
X00014151Y00012650D01*
X00014931Y00012870D02*
X00027871Y00012870D01*
X00011444Y00016357D02*
X00014931Y00012870D01*
X00012444Y00016357D02*
X00015711Y00013090D01*
X00013444Y00016357D02*
X00016495Y00013306D01*
X00014444Y00016357D02*
X00017339Y00013462D01*
X00015444Y00016357D02*
X00018183Y00013618D01*
X00028352Y00013618D01*
X00016444Y00016357D02*
X00019027Y00013774D01*
X00028507Y00013774D01*
X00017444Y00016357D02*
X00019871Y00013930D01*
X00028662Y00013930D01*
X00030384Y00011586D02*
X00032669Y00011586D01*
X00030537Y00011744D02*
X00032669Y00011744D01*
X00028507Y00013774D02*
X00030537Y00011744D01*
X00028352Y00013618D02*
X00030384Y00011586D01*
X00026444Y00016357D02*
X00027467Y00015334D01*
X00030471Y00015334D01*
X00032659Y00013309D02*
X00032669Y00013318D01*
X00025444Y00016357D02*
X00026623Y00015178D01*
X00030316Y00015178D01*
X00024444Y00016357D02*
X00025779Y00015022D01*
X00030161Y00015022D01*
X00023444Y00016357D02*
X00024935Y00014866D01*
X00030005Y00014866D01*
X00018444Y00016357D02*
X00020715Y00014086D01*
X00029230Y00014086D01*
X00019444Y00016357D02*
X00021559Y00014242D01*
X00029385Y00014242D01*
X00020444Y00016357D02*
X00022403Y00014398D01*
X00021444Y00016357D02*
X00023247Y00014554D01*
X00029695Y00014554D01*
X00022444Y00016357D02*
X00024091Y00014710D01*
X00029850Y00014710D01*
X00032329Y00013476D02*
X00032669Y00013476D01*
X00032175Y00013318D02*
X00032669Y00013318D01*
X00030471Y00015334D02*
X00032329Y00013476D01*
X00030316Y00015178D02*
X00032175Y00013318D01*
X00028737Y00015526D02*
X00031578Y00015526D01*
X00027907Y00016357D02*
X00028737Y00015526D01*
X00036039Y00016357D02*
X00036429Y00016357D01*
X00035947Y00015976D02*
X00036586Y00015976D01*
X00036086Y00015826D02*
X00037436Y00015826D01*
X00036224Y00015676D02*
X00038286Y00015676D01*
X00036363Y00015526D02*
X00039136Y00015526D01*
X00036966Y00016357D02*
X00037429Y00016357D01*
X00036586Y00015976D02*
X00036966Y00016357D01*
X00037966Y00016357D02*
X00038429Y00016357D01*
X00037436Y00015826D02*
X00037966Y00016357D01*
X00038966Y00016357D02*
X00039429Y00016357D01*
X00038286Y00015676D02*
X00038966Y00016357D01*
X00039966Y00016357D02*
X00040429Y00016357D01*
X00039136Y00015526D02*
X00039966Y00016357D01*
X00034498Y00013730D02*
X00034498Y00014815D01*
X00034655Y00013730D02*
X00034655Y00013756D01*
X00034648Y00013763D02*
X00034655Y00013756D01*
X00034648Y00013763D02*
X00034648Y00014448D01*
X00034654Y00014453D01*
X00034654Y00014530D01*
X00034655Y00014531D01*
X00034655Y00014684D01*
X00034812Y00013730D02*
X00034812Y00013811D01*
X00034798Y00013825D02*
X00034812Y00013811D01*
X00034798Y00013825D02*
X00034798Y00014386D01*
X00034804Y00014391D01*
X00034804Y00014468D01*
X00034809Y00014473D01*
X00034809Y00014550D01*
X00034970Y00013730D02*
X00034970Y00013866D01*
X00034948Y00013888D02*
X00034970Y00013866D01*
X00034948Y00013888D02*
X00034948Y00014323D01*
X00034954Y00014329D01*
X00034954Y00014406D01*
X00035127Y00013730D02*
X00035127Y00013920D01*
X00035098Y00013950D02*
X00035127Y00013920D01*
X00035098Y00013950D02*
X00035098Y00014261D01*
X00034183Y00013730D02*
X00034183Y00015111D01*
X00034025Y00013730D02*
X00034025Y00015953D01*
X00033862Y00013736D02*
X00033862Y00015924D01*
X00033712Y00013731D02*
X00033712Y00015089D01*
X00031596Y00016357D02*
X00033562Y00014391D01*
X00033562Y00013793D02*
X00033562Y00014391D01*
X00031764Y00015976D02*
X00033395Y00014346D01*
X00033395Y00013730D02*
X00033395Y00014346D01*
X00034498Y00014815D02*
X00036039Y00016357D01*
X00034655Y00014684D02*
X00035947Y00015976D01*
X00034809Y00014550D02*
X00036086Y00015826D01*
X00034954Y00014406D02*
X00036224Y00015676D01*
X00035098Y00014261D02*
X00036363Y00015526D01*
X00034183Y00015111D02*
X00035429Y00016357D01*
X00034025Y00015953D02*
X00034429Y00016357D01*
X00033560Y00013792D02*
X00033562Y00013793D01*
X00033560Y00013737D02*
X00033560Y00013792D01*
X00033553Y00013730D02*
X00033560Y00013737D01*
X00033862Y00013736D02*
X00033868Y00013730D01*
X00033710Y00013730D02*
X00033712Y00013731D01*
X00031702Y00015826D02*
X00033238Y00014291D01*
X00033238Y00013730D02*
X00033238Y00014291D01*
X00031640Y00015676D02*
X00033080Y00014236D01*
X00033080Y00013730D02*
X00033080Y00014236D01*
X00031578Y00015526D02*
X00032923Y00014182D01*
X00032923Y00013730D02*
X00032923Y00014182D01*
X00033429Y00016357D02*
X00033862Y00015924D01*
X00032444Y00016357D02*
X00033712Y00015089D01*
X00027444Y00016357D02*
X00027907Y00016357D01*
X00028444Y00016357D02*
X00028907Y00016357D01*
X00029587Y00015676D02*
X00031640Y00015676D01*
X00028907Y00016357D02*
X00029587Y00015676D01*
X00029444Y00016357D02*
X00029907Y00016357D01*
X00030437Y00015826D02*
X00031702Y00015826D01*
X00029907Y00016357D02*
X00030437Y00015826D01*
X00030444Y00016357D02*
X00030907Y00016357D01*
X00031287Y00015976D02*
X00031764Y00015976D01*
X00030907Y00016357D02*
X00031287Y00015976D01*
X00031444Y00016357D02*
X00031596Y00016357D01*
D15*
X00003799Y00017331D02*
G03*
X00002618Y00016150J-00001181D01*
G01*
X00052224Y00016150D02*
G03*
X00051043Y00017331I-00001181D01*
G01*
X00051043Y00003158D02*
G03*
X00052224Y00004339J00001181D01*
G01*
X00002618Y00004339D02*
G03*
X00003799Y00003158I00001181D01*
G01*
X00002618Y00004339D02*
X00002618Y00016150D01*
X00003799Y00017321D02*
X00051043Y00017321D01*
X00003799Y00003158D02*
X00051043Y00003158D01*
X00052224Y00004339D02*
X00052224Y00016150D01*
D17*
X00035381Y00012059D02*
X00036316Y00012059D01*
X00047864Y00012238D02*
X00047903Y00012277D01*
X00047864Y00012198D02*
X00047942Y00012277D01*
X00047864Y00012159D02*
X00047982Y00012277D01*
X00047864Y00012120D02*
X00048021Y00012277D01*
X00047864Y00012080D02*
X00048061Y00012277D01*
X00047864Y00012041D02*
X00048100Y00012277D01*
X00047864Y00012001D02*
X00048139Y00012277D01*
X00047864Y00011962D02*
X00048179Y00012277D01*
X00047864Y00011923D02*
X00048218Y00012277D01*
X00047864Y00011883D02*
X00048257Y00012277D01*
X00047864Y00011127D02*
X00048375Y00011127D01*
X00048375Y00012277D01*
X00047864Y00012277D02*
X00048375Y00012277D01*
X00047864Y00011127D02*
X00047864Y00012277D01*
D18*
X00032824Y00009320D02*
D03*
X00033375Y00009320D02*
D03*
X00032824Y00008700D02*
D03*
X00033375Y00008700D02*
D03*
X00049753Y00009566D02*
D03*
X00050305Y00009566D02*
D03*
X00050285Y00010334D02*
D03*
X00049734Y00010334D02*
D03*
D25*
X00035728Y00010108D02*
D03*
X00035728Y00010659D02*
D03*
X00036427Y00010118D02*
D03*
X00036427Y00010669D02*
D03*
D65*
X00037639Y00008750D02*
X00042687Y00008750D01*
X00037204Y00008315D02*
X00037639Y00008750D01*
X00037204Y00007826D02*
X00037204Y00008315D01*
X00036267Y00006889D02*
X00037204Y00007826D01*
X00026255Y00006889D02*
X00033464Y00006889D01*
X00042687Y00008750D02*
X00042696Y00008759D01*
X00037098Y00006496D02*
X00037401Y00006496D01*
X00038248Y00007342D01*
X00038248Y00008346D01*
X00044212Y00008818D02*
X00045334Y00007696D01*
X00044124Y00008818D02*
X00044212Y00008818D01*
X00021525Y00008326D02*
X00021545Y00008346D01*
X00028248Y00008346D01*
X00033375Y00008700D02*
X00033405Y00008671D01*
X00033405Y00008139D02*
X00033405Y00008671D01*
X00040301Y00009525D02*
X00042293Y00011517D01*
X00037560Y00009525D02*
X00040301Y00009525D01*
X00037539Y00009547D02*
X00037560Y00009525D01*
X00037401Y00010669D02*
X00038248Y00009822D01*
X00036427Y00010669D02*
X00037401Y00010669D01*
X00006240Y00008860D02*
X00006240Y00011295D01*
X00004582Y00007202D02*
X00006240Y00008860D01*
X00003622Y00007202D02*
X00004582Y00007202D01*
X00003622Y00008202D02*
X00004295Y00008202D01*
X00005649Y00009557D01*
X00005649Y00011704D01*
X00006240Y00012295D01*
X00003622Y00009202D02*
X00004271Y00009202D01*
X00005177Y00010108D01*
X00005177Y00012232D01*
X00006240Y00013295D01*
X00027962Y00009173D02*
X00028257Y00008877D01*
X00027962Y00009173D02*
X00027962Y00010732D01*
X00026820Y00008877D02*
X00028257Y00008877D01*
X00028238Y00011007D02*
X00028238Y00011017D01*
X00027962Y00010732D02*
X00028238Y00011007D01*
X00025846Y00009852D02*
X00026820Y00008877D01*
X00025875Y00010846D02*
X00026122Y00010846D01*
X00024675Y00009645D02*
X00025875Y00010846D01*
X00018720Y00010324D02*
X00024675Y00010324D01*
X00018700Y00010344D02*
X00018720Y00010324D01*
X00019104Y00009645D02*
X00024675Y00009645D01*
X00042578Y00011517D02*
X00043082Y00011013D01*
X00042293Y00011517D02*
X00042578Y00011517D01*
X00043082Y00011013D02*
X00043118Y00011013D01*
X00037539Y00009047D02*
X00040529Y00009047D01*
X00042500Y00011017D01*
X00039222Y00011801D02*
X00040108Y00011801D01*
X00040807Y00011102D01*
X00045994Y00011427D02*
X00046003Y00011417D01*
X00045994Y00011427D02*
X00045994Y00014832D01*
X00045807Y00015019D02*
X00045994Y00014832D01*
X00047362Y00008494D02*
X00049517Y00008494D01*
X00050088Y00009064D01*
X00051097Y00009064D01*
X00051599Y00009566D01*
X00050285Y00009566D02*
X00050969Y00009566D01*
X00049753Y00009261D02*
X00049753Y00009566D01*
X00049586Y00009094D02*
X00049753Y00009261D01*
X00049281Y00009094D02*
X00049586Y00009094D01*
X00050285Y00010334D02*
X00050305Y00010354D01*
X00050998Y00010354D01*
X00047175Y00010383D02*
X00047627Y00010836D01*
X00051628Y00010354D02*
X00051628Y00010654D01*
X00051446Y00010836D02*
X00051628Y00010654D01*
X00047627Y00010836D02*
X00051446Y00010836D01*
X00046624Y00014183D02*
X00046673Y00014133D01*
X00046673Y00008224D02*
X00046673Y00014133D01*
D66*
X00006240Y00011295D02*
D03*
X00006240Y00012295D02*
D03*
X00006240Y00013295D02*
D03*
X00006240Y00014295D02*
D03*
D67*
X00050802Y00014566D02*
D03*
X00051166Y00014566D02*
D03*
X00051166Y00011240D02*
D03*
X00050802Y00011240D02*
D03*
D68*
X00049970Y00011486D02*
D03*
X00049970Y00014320D02*
D03*
D69*
X00050639Y00011240D02*
D03*
X00051328Y00011240D02*
D03*
X00051328Y00014566D02*
D03*
X00050639Y00014566D02*
D03*
D70*
X00003100Y00012578D02*
D03*
X00003100Y00013759D02*
D03*
D71*
X00003622Y00006202D02*
D03*
X00003622Y00007202D02*
D03*
X00003622Y00008202D02*
D03*
X00003622Y00009202D02*
D03*
X00034425Y00004142D02*
D03*
X00041425Y00004142D02*
D03*
X00040425Y00004142D02*
D03*
X00039425Y00004142D02*
D03*
X00038425Y00004142D02*
D03*
X00037425Y00004142D02*
D03*
X00036425Y00004142D02*
D03*
X00035425Y00004142D02*
D03*
X00042429Y00016357D02*
D03*
X00043429Y00016357D02*
D03*
X00046429Y00016357D02*
D03*
X00045429Y00016357D02*
D03*
X00044429Y00016357D02*
D03*
X00041429Y00016357D02*
D03*
X00025444Y00016357D02*
D03*
X00024444Y00016357D02*
D03*
X00023444Y00016357D02*
D03*
X00019444Y00016357D02*
D03*
X00020444Y00016357D02*
D03*
X00021444Y00016357D02*
D03*
X00022444Y00016357D02*
D03*
X00026444Y00016357D02*
D03*
X00009444Y00016357D02*
D03*
X00010444Y00016357D02*
D03*
X00011444Y00016357D02*
D03*
X00012444Y00016357D02*
D03*
X00013444Y00016357D02*
D03*
X00014444Y00016357D02*
D03*
X00015444Y00016357D02*
D03*
X00016444Y00016357D02*
D03*
X00017444Y00016357D02*
D03*
X00018444Y00016357D02*
D03*
X00027444Y00016357D02*
D03*
X00028444Y00016357D02*
D03*
X00029444Y00016357D02*
D03*
X00030444Y00016357D02*
D03*
X00031444Y00016357D02*
D03*
X00032444Y00016357D02*
D03*
X00040429Y00016357D02*
D03*
X00039429Y00016357D02*
D03*
X00038429Y00016357D02*
D03*
X00037429Y00016357D02*
D03*
X00036429Y00016357D02*
D03*
X00035429Y00016357D02*
D03*
X00034429Y00016357D02*
D03*
D72*
X00003622Y00010202D02*
D03*
D73*
X00033425Y00004142D02*
D03*
X00008444Y00016357D02*
D03*
X00033429Y00016357D02*
D03*
D74*
X00036267Y00006889D02*
D03*
X00033464Y00006889D02*
D03*
X00026255Y00006889D02*
D03*
X00042696Y00008759D02*
D03*
X00039429Y00008769D02*
D03*
X00037098Y00006496D02*
D03*
X00038248Y00008346D02*
D03*
X00044124Y00008818D02*
D03*
X00021525Y00008326D02*
D03*
X00028248Y00008346D02*
D03*
X00033405Y00008139D02*
D03*
X00038248Y00009822D02*
D03*
X00028238Y00011017D02*
D03*
X00025846Y00009852D02*
D03*
X00028257Y00008877D02*
D03*
X00026122Y00010846D02*
D03*
X00024675Y00010324D02*
D03*
X00019104Y00009645D02*
D03*
X00018700Y00010344D02*
D03*
X00018425Y00006003D02*
D03*
X00018425Y00006722D02*
D03*
X00018395Y00008218D02*
D03*
X00018405Y00007470D02*
D03*
X00016712Y00005994D02*
D03*
X00016702Y00006712D02*
D03*
X00016702Y00007460D02*
D03*
X00016702Y00008218D02*
D03*
X00042500Y00011017D02*
D03*
X00043118Y00011013D02*
D03*
X00037539Y00009547D02*
D03*
X00037539Y00009047D02*
D03*
X00039222Y00011801D02*
D03*
X00040807Y00011102D02*
D03*
X00048336Y00012667D02*
D03*
X00047696Y00013336D02*
D03*
X00046003Y00011417D02*
D03*
X00045807Y00015019D02*
D03*
X00047362Y00008494D02*
D03*
X00049281Y00009094D02*
D03*
X00047175Y00010383D02*
D03*
X00046673Y00008224D02*
D03*
X00046624Y00014183D02*
D03*
D75*
X00036316Y00012059D02*
D03*
X00036476Y00012470D02*
D03*
X00035994Y00012293D02*
D03*
X00036043Y00011692D02*
D03*
X00035875Y00011338D02*
D03*
D76*
X00003799Y00016150D02*
D03*
X00051043Y00016150D02*
D03*
X00051043Y00004339D02*
D03*
X00003799Y00004339D02*
D03*
D77*
X00043563Y00007696D02*
D03*
X00043563Y00004566D02*
D03*
X00045334Y00007696D02*
D03*
X00045334Y00004566D02*
D03*
X00008734Y00005573D02*
D03*
X00008734Y00008703D02*
D03*
X00006963Y00005573D02*
D03*
X00006963Y00008703D02*
D03*
X00014788Y00005573D02*
D03*
X00014788Y00008703D02*
D03*
X00013016Y00005573D02*
D03*
X00013016Y00008703D02*
D03*
X00011766Y00005573D02*
D03*
X00011766Y00008703D02*
D03*
X00009994Y00005573D02*
D03*
X00009994Y00008703D02*
D03*
D78*
X00051628Y00010354D02*
D03*
X00050998Y00010354D02*
D03*
X00051599Y00009566D02*
D03*
X00050969Y00009566D02*
D03*
X00017800Y00006712D02*
D03*
X00017170Y00006712D02*
D03*
X00017800Y00007460D02*
D03*
X00017170Y00007460D02*
D03*
X00017800Y00005994D02*
D03*
X00017170Y00005994D02*
D03*
X00017800Y00008218D02*
D03*
X00017170Y00008218D02*
D03*
D79*
X00034025Y00012374D02*
D03*
D80*
X00032669Y00013476D02*
D03*
X00032669Y00013318D02*
D03*
X00032669Y00013161D02*
D03*
X00032669Y00013003D02*
D03*
X00032669Y00012846D02*
D03*
X00032669Y00012688D02*
D03*
X00032669Y00012531D02*
D03*
X00032669Y00012374D02*
D03*
X00032669Y00012216D02*
D03*
X00032669Y00012059D02*
D03*
X00032669Y00011901D02*
D03*
X00032669Y00011744D02*
D03*
X00032669Y00011586D02*
D03*
X00032669Y00011429D02*
D03*
X00032669Y00011271D02*
D03*
X00035381Y00011271D02*
D03*
X00035381Y00011429D02*
D03*
X00035381Y00011586D02*
D03*
X00035381Y00011744D02*
D03*
X00035381Y00011901D02*
D03*
X00035381Y00012059D02*
D03*
X00035381Y00012216D02*
D03*
X00035381Y00012374D02*
D03*
X00035381Y00012531D02*
D03*
X00035381Y00012688D02*
D03*
X00035381Y00012846D02*
D03*
X00035381Y00013003D02*
D03*
X00035381Y00013161D02*
D03*
X00035381Y00013318D02*
D03*
X00035381Y00013476D02*
D03*
D81*
X00035127Y00013730D02*
D03*
X00034970Y00013730D02*
D03*
X00034812Y00013730D02*
D03*
X00034655Y00013730D02*
D03*
X00034498Y00013730D02*
D03*
X00034340Y00013730D02*
D03*
X00034183Y00013730D02*
D03*
X00034025Y00013730D02*
D03*
X00033868Y00013730D02*
D03*
X00033710Y00013730D02*
D03*
X00033553Y00013730D02*
D03*
X00033395Y00013730D02*
D03*
X00033238Y00013730D02*
D03*
X00033080Y00013730D02*
D03*
X00032923Y00013730D02*
D03*
X00032923Y00011017D02*
D03*
X00033080Y00011017D02*
D03*
X00033238Y00011017D02*
D03*
X00033395Y00011017D02*
D03*
X00033553Y00011017D02*
D03*
X00033710Y00011017D02*
D03*
X00033868Y00011017D02*
D03*
X00034025Y00011017D02*
D03*
X00034183Y00011017D02*
D03*
X00034340Y00011017D02*
D03*
X00034498Y00011017D02*
D03*
X00034655Y00011017D02*
D03*
X00034812Y00011017D02*
D03*
X00034970Y00011017D02*
D03*
X00035127Y00011017D02*
D03*
G04 next file*
G04*
G04 #@! TF.GenerationSoftware,Altium Limited,Altium Designer,18.1.9 (240)*
G04*
G04 Layer_Physical_Order=2*
G04 Layer_Color=16711680*
G04 skipping 71
G01*
G75*
D94*
X00043001Y00029773D02*
X00043120Y00029655D01*
X00043120Y00020413D02*
X00043120Y00029655D01*
X00041919Y00020408D02*
X00041919Y00028740D01*
X00040767Y00020408D02*
X00040767Y00027564D01*
X00039517Y00020393D02*
X00039517Y00026338D01*
X00038336Y00020393D02*
X00038336Y00025118D01*
X00037116Y00020393D02*
X00037116Y00023937D01*
X00036023Y00020408D02*
X00036023Y00022765D01*
X00034832Y00020413D02*
X00034832Y00021614D01*
X00034812Y00020393D02*
X00034832Y00020413D01*
X00005738Y00027391D02*
X00005738Y00029744D01*
X00005738Y00029763D02*
X00007244Y00031269D01*
X00009149Y00031269D01*
X00009582Y00031702D01*
X00006909Y00027381D02*
X00006909Y00029734D01*
X00006909Y00022657D02*
X00006909Y00025019D01*
X00009913Y00031033D02*
X00010582Y00031702D01*
X00008188Y00031033D02*
X00009913Y00031033D01*
X00006909Y00029753D02*
X00008188Y00031033D01*
X00008090Y00027391D02*
X00008090Y00029744D01*
X00008090Y00022667D02*
X00008090Y00025029D01*
X00010647Y00030767D02*
X00011582Y00031702D01*
X00009094Y00030767D02*
X00010647Y00030767D01*
X00008090Y00029763D02*
X00009094Y00030767D01*
X00009271Y00027391D02*
X00009271Y00029744D01*
X00009271Y00022667D02*
X00009271Y00025029D01*
X00011421Y00030541D02*
X00012582Y00031702D01*
X00010049Y00030541D02*
X00011421Y00030541D01*
X00009271Y00029763D02*
X00010049Y00030541D01*
X00010462Y00027391D02*
X00010462Y00029744D01*
X00010462Y00022667D02*
X00010462Y00025029D01*
X00012145Y00030265D02*
X00013582Y00031702D01*
X00010964Y00030265D02*
X00012145Y00030265D01*
X00010462Y00029763D02*
X00010964Y00030265D01*
X00011643Y00027391D02*
X00011643Y00029744D01*
X00011643Y00022667D02*
X00011643Y00025029D01*
X00012919Y00030039D02*
X00014582Y00031702D01*
X00011919Y00030039D02*
X00012919Y00030039D01*
X00011643Y00029763D02*
X00011919Y00030039D01*
X00010492Y00031702D02*
X00010582Y00031702D01*
X00012814Y00029763D02*
X00013643Y00029763D01*
X00012814Y00027391D02*
X00012814Y00029744D01*
X00013643Y00029763D02*
X00015582Y00031702D01*
X00013996Y00027391D02*
X00013996Y00029744D01*
X00013996Y00029763D02*
X00014643Y00029763D01*
X00016582Y00031702D01*
X00015177Y00027391D02*
X00015177Y00029744D01*
X00015177Y00029763D02*
X00015643Y00029763D01*
X00017582Y00031702D01*
X00016368Y00027391D02*
X00016368Y00029744D01*
X00016368Y00029763D02*
X00016643Y00029763D01*
X00018582Y00031702D01*
X00017549Y00027391D02*
X00017549Y00029744D01*
X00017549Y00029763D02*
X00017643Y00029763D01*
X00019582Y00031702D01*
X00049438Y00027372D02*
X00049438Y00029724D01*
X00048592Y00029744D02*
X00049438Y00029744D01*
X00046633Y00031702D02*
X00048592Y00029744D01*
X00046566Y00031702D02*
X00046633Y00031702D01*
X00048257Y00027411D02*
X00048257Y00029763D01*
X00047486Y00029783D02*
X00048257Y00029783D01*
X00045566Y00031702D02*
X00047486Y00029783D01*
X00047066Y00027411D02*
X00047066Y00029763D01*
X00046486Y00029783D02*
X00047066Y00029783D01*
X00044566Y00031702D02*
X00046486Y00029783D01*
X00045885Y00027411D02*
X00045885Y00029763D01*
X00045486Y00029783D02*
X00045885Y00029783D01*
X00043566Y00031702D02*
X00045486Y00029783D01*
X00044704Y00027411D02*
X00044704Y00029763D01*
X00044486Y00029783D02*
X00044704Y00029783D01*
X00042566Y00031702D02*
X00044486Y00029783D01*
X00043533Y00027411D02*
X00043533Y00029763D01*
X00043486Y00029783D02*
X00043533Y00029783D01*
X00041566Y00031702D02*
X00043486Y00029783D01*
X00042342Y00027411D02*
X00042342Y00029763D01*
X00040566Y00031559D02*
X00042342Y00029783D01*
X00040566Y00031559D02*
X00040566Y00031702D01*
X00041171Y00027411D02*
X00041171Y00029763D01*
X00039566Y00031387D02*
X00041171Y00029783D01*
X00039566Y00031387D02*
X00039566Y00031702D01*
X00039980Y00027411D02*
X00039980Y00029763D01*
X00038566Y00031196D02*
X00039980Y00029783D01*
X00038566Y00031196D02*
X00038566Y00031702D01*
X00038799Y00027411D02*
X00038799Y00029763D01*
X00037566Y00031015D02*
X00038799Y00029783D01*
X00037566Y00031015D02*
X00037566Y00031702D01*
X00037618Y00027411D02*
X00037618Y00029763D01*
X00036566Y00030834D02*
X00037618Y00029783D01*
X00036566Y00030834D02*
X00036566Y00031702D01*
X00036437Y00027411D02*
X00036437Y00029763D01*
X00035566Y00030653D02*
X00036437Y00029783D01*
X00035566Y00030653D02*
X00035566Y00031702D01*
X00035255Y00027411D02*
X00035255Y00029763D01*
X00034566Y00030472D02*
X00035255Y00029783D01*
X00034566Y00030472D02*
X00034566Y00031702D01*
X00034074Y00027411D02*
X00034074Y00029763D01*
X00033566Y00030291D02*
X00034074Y00029783D01*
X00033566Y00030291D02*
X00033566Y00031702D01*
X00032903Y00027411D02*
X00032903Y00029763D01*
X00032582Y00030104D02*
X00032903Y00029783D01*
X00032582Y00030104D02*
X00032582Y00031702D01*
X00031712Y00027411D02*
X00031712Y00029763D01*
X00031582Y00029913D02*
X00031712Y00029783D01*
X00031582Y00029913D02*
X00031582Y00031702D01*
X00030531Y00027411D02*
X00030531Y00029763D01*
X00030531Y00029783D02*
X00030582Y00029834D01*
X00030582Y00031702D01*
X00029340Y00027411D02*
X00029340Y00029763D01*
X00029340Y00029783D02*
X00029582Y00030025D01*
X00029582Y00031702D01*
X00028169Y00027391D02*
X00028169Y00029744D01*
X00028169Y00029763D02*
X00028582Y00030177D01*
X00028582Y00031702D01*
X00026998Y00027391D02*
X00026998Y00029744D01*
X00026998Y00029763D02*
X00027582Y00030348D01*
X00027582Y00031702D01*
X00025807Y00027391D02*
X00025807Y00029744D01*
X00025807Y00029763D02*
X00026582Y00030539D01*
X00026582Y00031702D01*
X00024625Y00027391D02*
X00024625Y00029744D01*
X00024625Y00029763D02*
X00025582Y00030720D01*
X00025582Y00031702D01*
X00023444Y00027391D02*
X00023444Y00029744D01*
X00023444Y00029763D02*
X00024582Y00030901D01*
X00024582Y00031702D01*
X00022273Y00027391D02*
X00022273Y00029744D01*
X00022273Y00029763D02*
X00023582Y00031072D01*
X00023582Y00031702D01*
X00021082Y00027391D02*
X00021082Y00029744D01*
X00022582Y00031263D02*
X00022582Y00031702D01*
X00021082Y00029763D02*
X00022582Y00031263D01*
X00019901Y00027391D02*
X00019901Y00029744D01*
X00021582Y00031444D02*
X00021582Y00031702D01*
X00019901Y00029763D02*
X00021582Y00031444D01*
X00018720Y00027391D02*
X00018720Y00029744D01*
X00018720Y00029840D02*
X00020582Y00031702D01*
X00018720Y00029763D02*
X00018720Y00029840D01*
X00017549Y00029763D02*
X00017549Y00029872D01*
X00016476Y00031702D02*
X00016582Y00031702D01*
X00005738Y00021476D02*
X00005738Y00022667D01*
X00005738Y00025029D01*
X00005738Y00020305D02*
X00005738Y00021476D01*
X00005738Y00026210D02*
X00005738Y00027391D01*
X00005738Y00025029D02*
X00005738Y00026210D01*
X00048257Y00020324D02*
X00048257Y00021496D01*
X00048257Y00022687D01*
X00048257Y00025049D01*
X00048257Y00026230D01*
X00048257Y00027411D01*
X00047066Y00020324D02*
X00047066Y00021496D01*
X00047066Y00022687D01*
X00047066Y00025049D01*
X00047066Y00026230D01*
X00047066Y00027411D01*
X00045885Y00020324D02*
X00045885Y00021496D01*
X00045885Y00022687D01*
X00045885Y00025049D01*
X00045885Y00026230D01*
X00045885Y00027411D01*
X00044704Y00020324D02*
X00044704Y00021496D01*
X00044704Y00022687D01*
X00044704Y00025049D01*
X00044704Y00026230D01*
X00044704Y00027411D01*
X00043533Y00020324D02*
X00043533Y00021496D01*
X00043533Y00022687D01*
X00043533Y00025049D01*
X00043533Y00026230D01*
X00043533Y00027411D01*
X00042342Y00020324D02*
X00042342Y00021496D01*
X00042342Y00022687D01*
X00042342Y00025049D01*
X00042342Y00026230D01*
X00042342Y00027411D01*
X00041171Y00020324D02*
X00041171Y00021496D01*
X00041171Y00022687D01*
X00041171Y00025049D01*
X00041171Y00026230D01*
X00041171Y00027411D01*
X00039980Y00020324D02*
X00039980Y00021496D01*
X00039980Y00022687D01*
X00039980Y00025049D01*
X00039980Y00026230D01*
X00039980Y00027411D01*
X00038799Y00020324D02*
X00038799Y00021496D01*
X00038799Y00022687D01*
X00038799Y00025049D01*
X00038799Y00026230D01*
X00038799Y00027411D01*
X00037618Y00020324D02*
X00037618Y00021496D01*
X00037618Y00022687D01*
X00037618Y00025049D01*
X00037618Y00026230D01*
X00037618Y00027411D01*
X00036437Y00020324D02*
X00036437Y00021496D01*
X00036437Y00022687D01*
X00036437Y00025049D01*
X00036437Y00026230D01*
X00036437Y00027411D01*
X00035255Y00020324D02*
X00035255Y00021496D01*
X00035255Y00022687D01*
X00035255Y00025049D01*
X00035255Y00026230D01*
X00035255Y00027411D01*
X00034074Y00020324D02*
X00034074Y00021496D01*
X00034074Y00022687D01*
X00034074Y00025049D01*
X00034074Y00026230D01*
X00034074Y00027411D01*
X00032903Y00020324D02*
X00032903Y00021496D01*
X00032903Y00022687D01*
X00032903Y00025049D01*
X00032903Y00026230D01*
X00032903Y00027411D01*
X00031712Y00020324D02*
X00031712Y00021496D01*
X00031712Y00022687D01*
X00031712Y00025049D01*
X00031712Y00026230D01*
X00031712Y00027411D01*
X00030531Y00020324D02*
X00030531Y00021496D01*
X00030531Y00022687D01*
X00030531Y00025049D01*
X00030531Y00026230D01*
X00030531Y00027411D01*
X00029340Y00020324D02*
X00029340Y00021496D01*
X00029340Y00022687D01*
X00029340Y00025049D01*
X00029340Y00026230D01*
X00029340Y00027411D01*
X00028169Y00020305D02*
X00028169Y00021476D01*
X00028169Y00022667D01*
X00028169Y00025029D01*
X00028169Y00026210D01*
X00028169Y00027391D01*
X00049438Y00020285D02*
X00049438Y00021456D01*
X00049438Y00022647D01*
X00049438Y00025009D01*
X00049438Y00026190D01*
X00049438Y00027372D01*
X00026998Y00020305D02*
X00026998Y00021476D01*
X00026998Y00022667D01*
X00026998Y00025029D01*
X00026998Y00026210D01*
X00026998Y00027391D01*
X00025807Y00020305D02*
X00025807Y00021476D01*
X00025807Y00022667D01*
X00025807Y00025029D01*
X00025807Y00026210D01*
X00025807Y00027391D01*
X00024625Y00020305D02*
X00024625Y00021476D01*
X00024625Y00022667D01*
X00024625Y00025029D01*
X00024625Y00026210D01*
X00024625Y00027391D01*
X00023444Y00020305D02*
X00023444Y00021476D01*
X00023444Y00022667D01*
X00023444Y00025029D01*
X00023444Y00026210D01*
X00023444Y00027391D01*
X00022273Y00020305D02*
X00022273Y00021476D01*
X00022273Y00022667D01*
X00022273Y00025029D01*
X00022273Y00026210D01*
X00022273Y00027391D01*
X00021082Y00020305D02*
X00021082Y00021476D01*
X00021082Y00022667D01*
X00021082Y00025029D01*
X00021082Y00026210D01*
X00021082Y00027391D01*
X00019901Y00020305D02*
X00019901Y00021476D01*
X00019901Y00022667D01*
X00019901Y00025029D01*
X00019901Y00026210D01*
X00019901Y00027391D01*
X00018720Y00020305D02*
X00018720Y00021476D01*
X00018720Y00022667D01*
X00018720Y00025029D01*
X00018720Y00026210D01*
X00018720Y00027391D01*
X00017549Y00020305D02*
X00017549Y00021476D01*
X00017549Y00022667D01*
X00017549Y00025029D01*
X00017549Y00026210D01*
X00017549Y00027391D01*
X00016368Y00020305D02*
X00016368Y00021476D01*
X00016368Y00022667D01*
X00016368Y00025029D01*
X00016368Y00026210D01*
X00016368Y00027391D01*
X00015177Y00020305D02*
X00015177Y00021476D01*
X00015177Y00022667D01*
X00015177Y00025029D01*
X00015177Y00026210D01*
X00015177Y00027391D01*
X00013996Y00020305D02*
X00013996Y00021476D01*
X00013996Y00022667D01*
X00013996Y00025029D01*
X00013996Y00026210D01*
X00013996Y00027391D01*
X00012814Y00020305D02*
X00012814Y00021476D01*
X00012814Y00022667D01*
X00012814Y00025029D01*
X00012814Y00026210D01*
X00012814Y00027391D01*
X00011643Y00020305D02*
X00011643Y00021476D01*
X00011643Y00022667D01*
X00011643Y00025029D02*
X00011643Y00026210D01*
X00011643Y00027391D01*
X00010462Y00020305D02*
X00010462Y00021476D01*
X00010462Y00022667D01*
X00010462Y00025029D02*
X00010462Y00026210D01*
X00010462Y00027391D01*
X00009271Y00020305D02*
X00009271Y00021476D01*
X00009271Y00022667D01*
X00009271Y00025029D02*
X00009271Y00026210D01*
X00009271Y00027391D01*
X00008090Y00020305D02*
X00008090Y00021476D01*
X00008090Y00022667D01*
X00008090Y00025029D02*
X00008090Y00026210D01*
X00008090Y00027391D01*
X00006909Y00020295D02*
X00006909Y00021466D01*
X00006909Y00022657D01*
X00006909Y00025019D02*
X00006909Y00026200D01*
X00006909Y00027381D01*
X00002755Y00019685D02*
G03*
X00003937Y00018503I00001181D01*
G01*
X00051181Y00018503D02*
G03*
X00052362Y00019685J00001181D01*
G01*
X00052362Y00031496D02*
G03*
X00051181Y00032677I-00001181D01*
G01*
X00003937Y00032677D02*
G03*
X00002755Y00031496J-00001181D01*
G01*
X00052362Y00019685D02*
X00052362Y00031496D01*
X00003937Y00018503D02*
X00051181Y00018503D01*
X00003937Y00032667D02*
X00051181Y00032667D01*
X00002755Y00019685D02*
X00002755Y00031496D01*
D101*
X00033562Y00019488D02*
D03*
X00033566Y00031702D02*
D03*
X00008582Y00031702D02*
D03*
D102*
X00035562Y00019488D02*
D03*
X00036562Y00019488D02*
D03*
X00037562Y00019488D02*
D03*
X00038562Y00019488D02*
D03*
X00039562Y00019488D02*
D03*
X00040562Y00019488D02*
D03*
X00041562Y00019488D02*
D03*
X00034562Y00019488D02*
D03*
X00046566Y00031702D02*
D03*
X00045566Y00031702D02*
D03*
X00044566Y00031702D02*
D03*
X00043566Y00031702D02*
D03*
X00042566Y00031702D02*
D03*
X00041566Y00031702D02*
D03*
X00040566Y00031702D02*
D03*
X00039566Y00031702D02*
D03*
X00038566Y00031702D02*
D03*
X00037566Y00031702D02*
D03*
X00036566Y00031702D02*
D03*
X00035566Y00031702D02*
D03*
X00034566Y00031702D02*
D03*
X00009582Y00031702D02*
D03*
X00010582Y00031702D02*
D03*
X00011582Y00031702D02*
D03*
X00012582Y00031702D02*
D03*
X00013582Y00031702D02*
D03*
X00014582Y00031702D02*
D03*
X00015582Y00031702D02*
D03*
X00016582Y00031702D02*
D03*
X00017582Y00031702D02*
D03*
X00018582Y00031702D02*
D03*
X00019582Y00031702D02*
D03*
X00020582Y00031702D02*
D03*
X00021582Y00031702D02*
D03*
X00022582Y00031702D02*
D03*
X00023582Y00031702D02*
D03*
X00024582Y00031702D02*
D03*
X00025582Y00031702D02*
D03*
X00026582Y00031702D02*
D03*
X00027582Y00031702D02*
D03*
X00028582Y00031702D02*
D03*
X00029582Y00031702D02*
D03*
X00030582Y00031702D02*
D03*
X00031582Y00031702D02*
D03*
X00032582Y00031702D02*
D03*
D103*
X00043001Y00029773D02*
D03*
X00043120Y00020413D02*
D03*
X00041919Y00028740D02*
D03*
X00041919Y00020408D02*
D03*
X00040767Y00027564D02*
D03*
X00040767Y00020408D02*
D03*
X00039517Y00026338D02*
D03*
X00039517Y00020393D02*
D03*
X00038336Y00025118D02*
D03*
X00038336Y00020393D02*
D03*
X00037116Y00023937D02*
D03*
X00037116Y00020393D02*
D03*
X00036023Y00022765D02*
D03*
X00036023Y00020408D02*
D03*
X00034832Y00021614D02*
D03*
X00034812Y00020393D02*
D03*
X00008090Y00029763D02*
D03*
X00012814Y00029763D02*
D03*
X00005738Y00022667D02*
D03*
X00005738Y00021476D02*
D03*
X00005738Y00020305D02*
D03*
X00005728Y00023848D02*
D03*
X00005738Y00025029D02*
D03*
X00005738Y00026210D02*
D03*
X00005738Y00027391D02*
D03*
X00005728Y00028582D02*
D03*
X00005738Y00029763D02*
D03*
X00048257Y00029783D02*
D03*
X00048248Y00028602D02*
D03*
X00048257Y00027411D02*
D03*
X00048257Y00026230D02*
D03*
X00048257Y00025049D02*
D03*
X00048248Y00023868D02*
D03*
X00048257Y00022687D02*
D03*
X00048257Y00021496D02*
D03*
X00048257Y00020324D02*
D03*
X00047066Y00029783D02*
D03*
X00047057Y00028602D02*
D03*
X00047066Y00027411D02*
D03*
X00047066Y00026230D02*
D03*
X00047066Y00025049D02*
D03*
X00047057Y00023868D02*
D03*
X00047066Y00022687D02*
D03*
X00047066Y00021496D02*
D03*
X00047066Y00020324D02*
D03*
X00045885Y00029783D02*
D03*
X00045875Y00028602D02*
D03*
X00045885Y00027411D02*
D03*
X00045885Y00026230D02*
D03*
X00045885Y00025049D02*
D03*
X00045875Y00023868D02*
D03*
X00045885Y00022687D02*
D03*
X00045885Y00021496D02*
D03*
X00045885Y00020324D02*
D03*
X00044704Y00029783D02*
D03*
X00044694Y00028602D02*
D03*
X00044704Y00027411D02*
D03*
X00044704Y00026230D02*
D03*
X00044704Y00025049D02*
D03*
X00044694Y00023868D02*
D03*
X00044704Y00022687D02*
D03*
X00044704Y00021496D02*
D03*
X00044704Y00020324D02*
D03*
X00043533Y00029783D02*
D03*
X00043523Y00028602D02*
D03*
X00043533Y00027411D02*
D03*
X00043533Y00026230D02*
D03*
X00043533Y00025049D02*
D03*
X00043523Y00023868D02*
D03*
X00043533Y00022687D02*
D03*
X00043533Y00021496D02*
D03*
X00043533Y00020324D02*
D03*
X00042342Y00029783D02*
D03*
X00042332Y00028602D02*
D03*
X00042342Y00027411D02*
D03*
X00042342Y00026230D02*
D03*
X00042342Y00025049D02*
D03*
X00042332Y00023868D02*
D03*
X00042342Y00022687D02*
D03*
X00042342Y00021496D02*
D03*
X00042342Y00020324D02*
D03*
X00041171Y00029783D02*
D03*
X00041161Y00028602D02*
D03*
X00041171Y00027411D02*
D03*
X00041171Y00026230D02*
D03*
X00041171Y00025049D02*
D03*
X00041161Y00023868D02*
D03*
X00041171Y00022687D02*
D03*
X00041171Y00021496D02*
D03*
X00041171Y00020324D02*
D03*
X00039980Y00029783D02*
D03*
X00039970Y00028602D02*
D03*
X00039980Y00027411D02*
D03*
X00039980Y00026230D02*
D03*
X00039980Y00025049D02*
D03*
X00039970Y00023868D02*
D03*
X00039980Y00022687D02*
D03*
X00039980Y00021496D02*
D03*
X00039980Y00020324D02*
D03*
X00038799Y00029783D02*
D03*
X00038789Y00028602D02*
D03*
X00038799Y00027411D02*
D03*
X00038799Y00026230D02*
D03*
X00038799Y00025049D02*
D03*
X00038789Y00023868D02*
D03*
X00038799Y00022687D02*
D03*
X00038799Y00021496D02*
D03*
X00038799Y00020324D02*
D03*
X00037618Y00029783D02*
D03*
X00037608Y00028602D02*
D03*
X00037618Y00027411D02*
D03*
X00037618Y00026230D02*
D03*
X00037618Y00025049D02*
D03*
X00037608Y00023868D02*
D03*
X00037618Y00022687D02*
D03*
X00037618Y00021496D02*
D03*
X00037618Y00020324D02*
D03*
X00036437Y00029783D02*
D03*
X00036427Y00028602D02*
D03*
X00036437Y00027411D02*
D03*
X00036437Y00026230D02*
D03*
X00036437Y00025049D02*
D03*
X00036427Y00023868D02*
D03*
X00036437Y00022687D02*
D03*
X00036437Y00021496D02*
D03*
X00036437Y00020324D02*
D03*
X00035255Y00029783D02*
D03*
X00035246Y00028602D02*
D03*
X00035255Y00027411D02*
D03*
X00035255Y00026230D02*
D03*
X00035255Y00025049D02*
D03*
X00035246Y00023868D02*
D03*
X00035255Y00022687D02*
D03*
X00035255Y00021496D02*
D03*
X00035255Y00020324D02*
D03*
X00034074Y00029783D02*
D03*
X00034064Y00028602D02*
D03*
X00034074Y00027411D02*
D03*
X00034074Y00026230D02*
D03*
X00034074Y00025049D02*
D03*
X00034064Y00023868D02*
D03*
X00034074Y00022687D02*
D03*
X00034074Y00021496D02*
D03*
X00034074Y00020324D02*
D03*
X00032903Y00029783D02*
D03*
X00032893Y00028602D02*
D03*
X00032903Y00027411D02*
D03*
X00032903Y00026230D02*
D03*
X00032903Y00025049D02*
D03*
X00032893Y00023868D02*
D03*
X00032903Y00022687D02*
D03*
X00032903Y00021496D02*
D03*
X00032903Y00020324D02*
D03*
X00031712Y00029783D02*
D03*
X00031702Y00028602D02*
D03*
X00031712Y00027411D02*
D03*
X00031712Y00026230D02*
D03*
X00031712Y00025049D02*
D03*
X00031702Y00023868D02*
D03*
X00031712Y00022687D02*
D03*
X00031712Y00021496D02*
D03*
X00031712Y00020324D02*
D03*
X00030531Y00029783D02*
D03*
X00030521Y00028602D02*
D03*
X00030531Y00027411D02*
D03*
X00030531Y00026230D02*
D03*
X00030531Y00025049D02*
D03*
X00030521Y00023868D02*
D03*
X00030531Y00022687D02*
D03*
X00030531Y00021496D02*
D03*
X00030531Y00020324D02*
D03*
X00029340Y00029783D02*
D03*
X00029330Y00028602D02*
D03*
X00029340Y00027411D02*
D03*
X00029340Y00026230D02*
D03*
X00029340Y00025049D02*
D03*
X00029330Y00023868D02*
D03*
X00029340Y00022687D02*
D03*
X00029340Y00021496D02*
D03*
X00029340Y00020324D02*
D03*
X00028169Y00029763D02*
D03*
X00028159Y00028582D02*
D03*
X00028169Y00027391D02*
D03*
X00028169Y00026210D02*
D03*
X00028169Y00025029D02*
D03*
X00028159Y00023848D02*
D03*
X00028169Y00022667D02*
D03*
X00028169Y00021476D02*
D03*
X00028169Y00020305D02*
D03*
X00049438Y00029744D02*
D03*
X00049429Y00028562D02*
D03*
X00049438Y00027372D02*
D03*
X00049438Y00026190D02*
D03*
X00049438Y00025009D02*
D03*
X00049429Y00023828D02*
D03*
X00049438Y00022647D02*
D03*
X00049438Y00021456D02*
D03*
X00049438Y00020285D02*
D03*
X00026998Y00029763D02*
D03*
X00026988Y00028582D02*
D03*
X00026998Y00027391D02*
D03*
X00026998Y00026210D02*
D03*
X00026998Y00025029D02*
D03*
X00026988Y00023848D02*
D03*
X00026998Y00022667D02*
D03*
X00026998Y00021476D02*
D03*
X00026998Y00020305D02*
D03*
X00025807Y00029763D02*
D03*
X00025797Y00028582D02*
D03*
X00025807Y00027391D02*
D03*
X00025807Y00026210D02*
D03*
X00025807Y00025029D02*
D03*
X00025797Y00023848D02*
D03*
X00025807Y00022667D02*
D03*
X00025807Y00021476D02*
D03*
X00025807Y00020305D02*
D03*
X00024625Y00029763D02*
D03*
X00024616Y00028582D02*
D03*
X00024625Y00027391D02*
D03*
X00024625Y00026210D02*
D03*
X00024625Y00025029D02*
D03*
X00024616Y00023848D02*
D03*
X00024625Y00022667D02*
D03*
X00024625Y00021476D02*
D03*
X00024625Y00020305D02*
D03*
X00023444Y00029763D02*
D03*
X00023435Y00028582D02*
D03*
X00023444Y00027391D02*
D03*
X00023444Y00026210D02*
D03*
X00023444Y00025029D02*
D03*
X00023435Y00023848D02*
D03*
X00023444Y00022667D02*
D03*
X00023444Y00021476D02*
D03*
X00023444Y00020305D02*
D03*
X00022273Y00029763D02*
D03*
X00022263Y00028582D02*
D03*
X00022273Y00027391D02*
D03*
X00022273Y00026210D02*
D03*
X00022273Y00025029D02*
D03*
X00022263Y00023848D02*
D03*
X00022273Y00022667D02*
D03*
X00022273Y00021476D02*
D03*
X00022273Y00020305D02*
D03*
X00021082Y00029763D02*
D03*
X00021072Y00028582D02*
D03*
X00021082Y00027391D02*
D03*
X00021082Y00026210D02*
D03*
X00021082Y00025029D02*
D03*
X00021072Y00023848D02*
D03*
X00021082Y00022667D02*
D03*
X00021082Y00021476D02*
D03*
X00021082Y00020305D02*
D03*
X00019901Y00029763D02*
D03*
X00019891Y00028582D02*
D03*
X00019901Y00027391D02*
D03*
X00019901Y00026210D02*
D03*
X00019901Y00025029D02*
D03*
X00019891Y00023848D02*
D03*
X00019901Y00022667D02*
D03*
X00019901Y00021476D02*
D03*
X00019901Y00020305D02*
D03*
X00018720Y00029763D02*
D03*
X00018710Y00028582D02*
D03*
X00018720Y00027391D02*
D03*
X00018720Y00026210D02*
D03*
X00018720Y00025029D02*
D03*
X00018710Y00023848D02*
D03*
X00018720Y00022667D02*
D03*
X00018720Y00021476D02*
D03*
X00018720Y00020305D02*
D03*
X00017549Y00029763D02*
D03*
X00017539Y00028582D02*
D03*
X00017549Y00027391D02*
D03*
X00017549Y00026210D02*
D03*
X00017549Y00025029D02*
D03*
X00017539Y00023848D02*
D03*
X00017549Y00022667D02*
D03*
X00017549Y00021476D02*
D03*
X00017549Y00020305D02*
D03*
X00016368Y00029763D02*
D03*
X00016358Y00028582D02*
D03*
X00016368Y00027391D02*
D03*
X00016368Y00026210D02*
D03*
X00016368Y00025029D02*
D03*
X00016358Y00023848D02*
D03*
X00016368Y00022667D02*
D03*
X00016368Y00021476D02*
D03*
X00016368Y00020305D02*
D03*
X00015177Y00029763D02*
D03*
X00015167Y00028582D02*
D03*
X00015177Y00027391D02*
D03*
X00015177Y00026210D02*
D03*
X00015177Y00025029D02*
D03*
X00015167Y00023848D02*
D03*
X00015177Y00022667D02*
D03*
X00015177Y00021476D02*
D03*
X00015177Y00020305D02*
D03*
X00013996Y00029763D02*
D03*
X00013986Y00028582D02*
D03*
X00013996Y00027391D02*
D03*
X00013996Y00026210D02*
D03*
X00013996Y00025029D02*
D03*
X00013986Y00023848D02*
D03*
X00013996Y00022667D02*
D03*
X00013996Y00021476D02*
D03*
X00013996Y00020305D02*
D03*
X00012805Y00028582D02*
D03*
X00012814Y00027391D02*
D03*
X00012814Y00026210D02*
D03*
X00012814Y00025029D02*
D03*
X00012805Y00023848D02*
D03*
X00012814Y00022667D02*
D03*
X00012814Y00021476D02*
D03*
X00012814Y00020305D02*
D03*
X00011643Y00029763D02*
D03*
X00011633Y00028582D02*
D03*
X00011643Y00027391D02*
D03*
X00011643Y00026210D02*
D03*
X00011643Y00025029D02*
D03*
X00011633Y00023848D02*
D03*
X00011643Y00022667D02*
D03*
X00011643Y00021476D02*
D03*
X00011643Y00020305D02*
D03*
X00010462Y00029763D02*
D03*
X00010452Y00028582D02*
D03*
X00010462Y00027391D02*
D03*
X00010462Y00026210D02*
D03*
X00010462Y00025029D02*
D03*
X00010452Y00023848D02*
D03*
X00010462Y00022667D02*
D03*
X00010462Y00021476D02*
D03*
X00010462Y00020305D02*
D03*
X00009271Y00029763D02*
D03*
X00009261Y00028582D02*
D03*
X00009271Y00027391D02*
D03*
X00009271Y00026210D02*
D03*
X00009271Y00025029D02*
D03*
X00009261Y00023848D02*
D03*
X00009271Y00022667D02*
D03*
X00009271Y00021476D02*
D03*
X00009271Y00020305D02*
D03*
X00008080Y00028582D02*
D03*
X00008090Y00027391D02*
D03*
X00008090Y00026210D02*
D03*
X00008090Y00025029D02*
D03*
X00008080Y00023848D02*
D03*
X00008090Y00022667D02*
D03*
X00008090Y00021476D02*
D03*
X00008090Y00020305D02*
D03*
X00006909Y00029753D02*
D03*
X00006899Y00028572D02*
D03*
X00006909Y00027381D02*
D03*
X00006909Y00026200D02*
D03*
X00006909Y00025019D02*
D03*
X00006899Y00023838D02*
D03*
X00006909Y00022657D02*
D03*
X00006909Y00021466D02*
D03*
X00006909Y00020295D02*
D03*
D104*
X00003937Y00019685D02*
D03*
X00051181Y00019685D02*
D03*
X00051181Y00031496D02*
D03*
X00003937Y00031496D02*
D03*
M02*