%MOIN*%
%OFA0B0*%
%FSLAX44Y44*%
%IPPOS*%
%LPD*%
%ADD11C,0.00984251968503937*%
%ADD13C,0.005*%
%ADD15C,0.01*%
%ADD17C,0.0039370078740157488*%
%ADD18R,0.031496062992125991X0.035433070866141732*%
%ADD19R,0.07874015748031496X0.035433070866141732*%
%ADD20R,0.035433070866141732X0.07874015748031496*%
%ADD21R,0.19685039370078741X0.19685039370078741*%
%ADD22R,0.047244094488188976X0.017716535433070866*%
%ADD23R,0.11811023622047245X0.082677165354330714*%
%ADD24R,0.062992125984251982X0.031496062992125991*%
%ADD25R,0.035433070866141732X0.031496062992125991*%
%ADD26R,0.060000000000000005X0.025*%
%ADD27R,0.041338582677165357X0.023622047244094488*%
%ADD28R,0.017716535433070866X0.023622047244094488*%
%ADD29R,0.10236220472440946X0.070866141732283464*%
%ADD30R,0.047992125984251975X0.035984251968503939*%
%ADD31R,0.07874015748031496X0.0315*%
%ADD32R,0.0315X0.03937007874015748*%
%ADD33R,0.0315X0.035429133858267722*%
%ADD34R,0.023622047244094488X0.062992125984251982*%
%ADD35R,0.051181102362204731X0.027559055118110236*%
%ADD65C,0.01968503937007874*%
%ADD66C,0.047251968503937009*%
%ADD67R,0.043307086614173235X0.043307086614173235*%
%ADD68O,0.062992125984251982X0.047244094488188976*%
%ADD69O,0.070866141732283464X0.043307086614173235*%
%ADD70C,0.0315*%
%ADD71C,0.059055118110236227*%
%ADD72R,0.059055118110236227X0.059055118110236227*%
%ADD73R,0.059055118110236227X0.059055118110236227*%
%ADD74C,0.01968503937007874*%
%ADD75C,0.017716535433070866*%
%ADD76C,0.11811023622047245*%
%ADD89C,0.01*%
%ADD90P,0.044543307086614171X4X270*%
%ADD96R,0.059055118110236227X0.059055118110236227*%
%ADD97C,0.059055118110236227*%
%ADD98C,0.01968503937007874*%
%ADD99C,0.11811023622047245*%
G01*
G75*
D11*
X00019523Y00006352D02*
X00020659Y00006352D01*
X00018405Y00007470D02*
X00019523Y00006352D01*
X00018425Y00006003D02*
X00019076Y00005352D01*
X00018425Y00006702D02*
X00018425Y00006722D01*
X00018425Y00006702D02*
X00019275Y00005852D01*
X00018395Y00008218D02*
X00019761Y00006852D01*
X00020659Y00006852D01*
X00020627Y00005383D02*
X00020659Y00005352D01*
X00020576Y00005935D02*
X00020659Y00005852D01*
X00020614Y00006397D02*
X00020659Y00006352D01*
X00016250Y00008218D02*
X00016702Y00008218D01*
X00019076Y00005352D02*
X00020659Y00005352D01*
X00019275Y00005852D02*
X00020659Y00005852D01*
X00016250Y00005994D02*
X00016712Y00005994D01*
X00016712Y00005994D01*
X00016250Y00006722D02*
X00016259Y00006712D01*
X00016702Y00006712D01*
X00016250Y00007450D02*
X00016692Y00007450D01*
X00016702Y00007460D01*
X00016702Y00008218D02*
X00016702Y00008218D01*
X00036446Y00011210D02*
X00036456Y00011220D01*
X00037086Y00011220D01*
X00049832Y00012667D02*
X00049852Y00012647D01*
X00048336Y00012667D02*
X00049832Y00012667D01*
X00047677Y00013316D02*
X00047696Y00013336D01*
X00044960Y00013316D02*
X00047677Y00013316D01*
X00044657Y00013013D02*
X00044960Y00013316D01*
X00043698Y00013013D02*
X00044657Y00013013D01*
X00043698Y00012513D02*
X00044708Y00012513D01*
X00045098Y00012903D01*
X00049852Y00012903D01*
D13*
X00036476Y00012470D02*
X00036958Y00012470D01*
X00030895Y00012293D02*
X00035994Y00012293D01*
X00036043Y00011692D02*
X00036267Y00011692D01*
X00029320Y00010718D02*
X00030895Y00012293D01*
X00027486Y00010718D02*
X00029320Y00010718D01*
X00027389Y00010314D02*
X00028759Y00010314D01*
X00027352Y00010352D02*
X00027389Y00010314D01*
X00027352Y00010852D02*
X00027486Y00010718D01*
X00036446Y00011210D02*
X00036446Y00011513D01*
X00036267Y00011692D02*
X00036446Y00011513D01*
X00036958Y00012470D02*
X00037086Y00012342D01*
X00035708Y00010669D02*
X00035708Y00011171D01*
X00035875Y00011338D01*
D15*
X00003799Y00017331D02*
G03*
X00002618Y00016150J-00001181D01*
G01*
X00052224Y00016150D02*
G03*
X00051043Y00017331I-00001181D01*
G01*
X00051043Y00003158D02*
G03*
X00052224Y00004339J00001181D01*
G01*
X00002618Y00004339D02*
G03*
X00003799Y00003158I00001181D01*
G01*
X00002618Y00004339D02*
X00002618Y00016150D01*
X00003799Y00017321D02*
X00051043Y00017321D01*
X00003799Y00003158D02*
X00051043Y00003158D01*
X00052224Y00004339D02*
X00052224Y00016150D01*
D17*
X00031301Y00012059D02*
X00036316Y00012059D01*
X00028759Y00010314D02*
X00029557Y00010314D01*
X00031301Y00012059D01*
X00047864Y00012238D02*
X00047903Y00012277D01*
X00047864Y00012198D02*
X00047942Y00012277D01*
X00047864Y00012159D02*
X00047982Y00012277D01*
X00047864Y00012120D02*
X00048021Y00012277D01*
X00047864Y00012080D02*
X00048061Y00012277D01*
X00047864Y00012041D02*
X00048100Y00012277D01*
X00047864Y00012001D02*
X00048139Y00012277D01*
X00047864Y00011962D02*
X00048179Y00012277D01*
X00047864Y00011923D02*
X00048218Y00012277D01*
X00047864Y00011883D02*
X00048257Y00012277D01*
X00047864Y00011127D02*
X00048375Y00011127D01*
X00048375Y00012277D01*
X00047864Y00012277D02*
X00048375Y00012277D01*
X00047864Y00011127D02*
X00047864Y00012277D01*
D18*
X00042125Y00008179D02*
D03*
X00041574Y00008179D02*
D03*
X00005738Y00005964D02*
D03*
X00005186Y00005964D02*
D03*
X00047470Y00006742D02*
D03*
X00048021Y00006742D02*
D03*
X00048021Y00006181D02*
D03*
X00047470Y00006181D02*
D03*
X00041564Y00008769D02*
D03*
X00042116Y00008769D02*
D03*
X00048435Y00008149D02*
D03*
X00047883Y00008149D02*
D03*
X00005738Y00006712D02*
D03*
X00005186Y00006712D02*
D03*
X00016250Y00005994D02*
D03*
X00015698Y00005994D02*
D03*
X00016250Y00006722D02*
D03*
X00015698Y00006722D02*
D03*
X00016250Y00007450D02*
D03*
X00015698Y00007450D02*
D03*
X00016250Y00008218D02*
D03*
X00015698Y00008218D02*
D03*
D19*
X00027352Y00011352D02*
D03*
X00027352Y00010852D02*
D03*
X00027352Y00010352D02*
D03*
X00027352Y00009852D02*
D03*
X00027352Y00009352D02*
D03*
X00027352Y00008852D02*
D03*
X00027352Y00008352D02*
D03*
X00027352Y00007852D02*
D03*
X00027352Y00007352D02*
D03*
X00027352Y00006852D02*
D03*
X00027352Y00006352D02*
D03*
X00027352Y00005852D02*
D03*
X00027352Y00005352D02*
D03*
X00027352Y00004852D02*
D03*
X00020659Y00004852D02*
D03*
X00020659Y00005352D02*
D03*
X00020659Y00005852D02*
D03*
X00020659Y00006352D02*
D03*
X00020659Y00006852D02*
D03*
X00020659Y00007352D02*
D03*
X00020659Y00007852D02*
D03*
X00020659Y00008352D02*
D03*
X00020659Y00008852D02*
D03*
X00020659Y00009352D02*
D03*
X00020659Y00009852D02*
D03*
X00020659Y00010352D02*
D03*
X00020659Y00010852D02*
D03*
X00020659Y00011352D02*
D03*
D20*
X00026255Y00004458D02*
D03*
X00025755Y00004458D02*
D03*
X00025255Y00004458D02*
D03*
X00024755Y00004458D02*
D03*
X00024255Y00004458D02*
D03*
X00023755Y00004458D02*
D03*
X00023255Y00004458D02*
D03*
X00022755Y00004458D02*
D03*
X00022255Y00004458D02*
D03*
X00021755Y00004458D02*
D03*
D21*
X00023612Y00008399D02*
D03*
D22*
X00049852Y00012391D02*
D03*
X00049852Y00012647D02*
D03*
X00049852Y00012903D02*
D03*
X00049852Y00013159D02*
D03*
X00049852Y00013415D02*
D03*
D23*
X00050984Y00008238D02*
D03*
X00050984Y00005738D02*
D03*
D24*
X00049842Y00007234D02*
D03*
X00049842Y00006742D02*
D03*
D25*
X00037086Y00011791D02*
D03*
X00037086Y00012342D02*
D03*
X00035708Y00010118D02*
D03*
X00035708Y00010669D02*
D03*
X00045009Y00009183D02*
D03*
X00045009Y00009734D02*
D03*
X00045344Y00012273D02*
D03*
X00045344Y00011722D02*
D03*
X00037086Y00010669D02*
D03*
X00037086Y00011220D02*
D03*
X00036446Y00011210D02*
D03*
X00036446Y00010659D02*
D03*
X00037923Y00011505D02*
D03*
X00037923Y00012057D02*
D03*
X00040482Y00012066D02*
D03*
X00040482Y00011515D02*
D03*
X00048612Y00006179D02*
D03*
X00048612Y00006730D02*
D03*
X00028877Y00010984D02*
D03*
X00028877Y00010433D02*
D03*
X00029655Y00011761D02*
D03*
X00029655Y00011210D02*
D03*
D26*
X00043698Y00011013D02*
D03*
X00041576Y00012013D02*
D03*
X00043698Y00010513D02*
D03*
X00043698Y00011513D02*
D03*
X00043698Y00012013D02*
D03*
X00041576Y00011513D02*
D03*
X00041576Y00012513D02*
D03*
X00041576Y00013013D02*
D03*
X00043698Y00013013D02*
D03*
X00041576Y00014013D02*
D03*
X00043698Y00012513D02*
D03*
X00043698Y00013513D02*
D03*
X00041576Y00013513D02*
D03*
X00043698Y00014013D02*
D03*
X00041576Y00011013D02*
D03*
X00041576Y00010513D02*
D03*
D27*
X00047667Y00012076D02*
D03*
X00047667Y00011328D02*
D03*
X00048572Y00011702D02*
D03*
D28*
X00046683Y00008740D02*
D03*
X00046309Y00009842D02*
D03*
X00045935Y00008740D02*
D03*
X00046309Y00008740D02*
D03*
X00046683Y00009842D02*
D03*
X00045935Y00009842D02*
D03*
D29*
X00046309Y00009291D02*
D03*
D30*
X00046702Y00012278D02*
D03*
X00046702Y00010988D02*
D03*
D31*
X00003927Y00012254D02*
D03*
X00003927Y00014026D02*
D03*
X00003927Y00012845D02*
D03*
D32*
X00002657Y00011692D02*
D03*
X00002657Y00014645D02*
D03*
D33*
X00003543Y00011673D02*
D03*
X00003543Y00014665D02*
D03*
D34*
X00038799Y00012580D02*
D03*
X00039547Y00012580D02*
D03*
X00039173Y00013446D02*
D03*
X00039557Y00011062D02*
D03*
X00038809Y00011062D02*
D03*
X00039183Y00010196D02*
D03*
D35*
X00048622Y00009094D02*
D03*
X00048622Y00009468D02*
D03*
X00048622Y00009842D02*
D03*
X00047677Y00009842D02*
D03*
X00047677Y00009094D02*
D03*
D65*
X00033464Y00006889D02*
X00036267Y00006889D01*
X00022637Y00006889D02*
X00026255Y00006889D01*
X00022047Y00007480D02*
X00022637Y00006889D01*
X00022047Y00007480D02*
X00022047Y00009734D01*
X00021429Y00010352D02*
X00022047Y00009734D01*
X00020659Y00010352D02*
X00021429Y00010352D01*
X00042125Y00008759D02*
X00042696Y00008759D01*
X00039183Y00009015D02*
X00039429Y00008769D01*
X00039183Y00009015D02*
X00039183Y00010196D01*
X00039777Y00008399D02*
X00041112Y00009734D01*
X00039120Y00008399D02*
X00039777Y00008399D01*
X00038544Y00008974D02*
X00039120Y00008399D01*
X00038544Y00008974D02*
X00038544Y00009457D01*
X00038248Y00009753D02*
X00038544Y00009457D01*
X00038248Y00009753D02*
X00038248Y00009822D01*
X00041112Y00009734D02*
X00041604Y00009734D01*
X00042017Y00009734D01*
X00039606Y00007736D02*
X00041604Y00009734D01*
X00033769Y00007736D02*
X00039606Y00007736D01*
X00032232Y00006496D02*
X00037098Y00006496D01*
X00030588Y00004852D02*
X00032232Y00006496D01*
X00028208Y00008346D02*
X00029352Y00007202D01*
X00047009Y00007202D02*
X00047470Y00006742D01*
X00029352Y00007202D02*
X00047009Y00007202D01*
X00038248Y00008346D02*
X00038248Y00009334D01*
X00037539Y00010042D02*
X00038248Y00009334D01*
X00037539Y00010042D02*
X00037539Y00013570D01*
X00038179Y00014210D01*
X00038976Y00014210D01*
X00027352Y00004852D02*
X00030588Y00004852D01*
X00028877Y00011358D02*
X00029281Y00011761D01*
X00028877Y00010984D02*
X00028877Y00011358D01*
X00038976Y00014210D02*
X00039173Y00014013D01*
X00039173Y00013446D02*
X00039173Y00014013D01*
X00005905Y00014960D02*
X00045446Y00014960D01*
X00004872Y00013927D02*
X00005905Y00014960D01*
X00046012Y00014804D02*
X00046624Y00014192D01*
X00046012Y00014804D02*
X00046012Y00014804D01*
X00045930Y00014722D02*
X00046012Y00014804D01*
X00045684Y00014722D02*
X00045930Y00014722D01*
X00045446Y00014960D02*
X00045684Y00014722D01*
X00004872Y00013169D02*
X00004872Y00013927D01*
X00042125Y00008179D02*
X00042125Y00008759D01*
X00043336Y00008818D02*
X00044124Y00008818D01*
X00042696Y00008179D02*
X00043336Y00008818D01*
X00042125Y00008179D02*
X00042696Y00008179D01*
X00042017Y00009734D02*
X00043139Y00009734D01*
X00041564Y00008769D02*
X00041564Y00009094D01*
X00042017Y00009547D01*
X00042017Y00009734D01*
X00020659Y00008352D02*
X00020685Y00008326D01*
X00021525Y00008326D01*
X00028208Y00008346D02*
X00028248Y00008346D01*
X00047470Y00006181D02*
X00047470Y00006181D01*
X00047470Y00006742D01*
X00048600Y00006742D02*
X00048612Y00006730D01*
X00048021Y00006742D02*
X00048600Y00006742D01*
X00029399Y00007736D02*
X00033769Y00007736D01*
X00033405Y00008100D02*
X00033405Y00008139D01*
X00033405Y00008100D02*
X00033769Y00007736D01*
X00004970Y00006712D02*
X00005186Y00006712D01*
X00003622Y00008060D02*
X00004970Y00006712D01*
X00003622Y00008060D02*
X00003622Y00008202D01*
X00004860Y00005964D02*
X00005186Y00005964D01*
X00003622Y00007202D02*
X00004860Y00005964D01*
X00029281Y00011761D02*
X00029655Y00011761D01*
X00028844Y00011017D02*
X00028877Y00010984D01*
X00028238Y00011017D02*
X00028844Y00011017D01*
X00025334Y00009832D02*
X00025354Y00009852D01*
X00025846Y00009852D01*
X00028257Y00008877D02*
X00029399Y00007736D01*
X00024055Y00009832D02*
X00025334Y00009832D01*
X00023035Y00010852D02*
X00024055Y00009832D01*
X00020659Y00010852D02*
X00023035Y00010852D01*
X00044645Y00009734D02*
X00045009Y00009734D01*
X00043139Y00009734D02*
X00044645Y00009734D01*
X00042360Y00010513D02*
X00043139Y00009734D01*
X00041576Y00010513D02*
X00042360Y00010513D01*
X00026127Y00010852D02*
X00027352Y00010852D01*
X00026122Y00010846D02*
X00026127Y00010852D01*
X00027324Y00010324D02*
X00027352Y00010352D01*
X00024675Y00010324D02*
X00027324Y00010324D01*
X00011200Y00009645D02*
X00019104Y00009645D01*
X00009551Y00011295D02*
X00011200Y00009645D01*
X00006240Y00011295D02*
X00009551Y00011295D01*
X00011633Y00010344D02*
X00018700Y00010344D01*
X00009683Y00012295D02*
X00011633Y00010344D01*
X00006240Y00012295D02*
X00009683Y00012295D01*
X00009923Y00013295D02*
X00012366Y00010852D01*
X00006240Y00013295D02*
X00009923Y00013295D01*
X00012366Y00010852D02*
X00020659Y00010852D01*
X00042996Y00011513D02*
X00043698Y00011513D01*
X00042500Y00011017D02*
X00042996Y00011513D01*
X00043118Y00011013D02*
X00043698Y00011013D01*
X00027352Y00009852D02*
X00034801Y00009852D01*
X00035106Y00009547D02*
X00037539Y00009547D01*
X00034801Y00009852D02*
X00035106Y00009547D01*
X00027352Y00009352D02*
X00034594Y00009352D01*
X00034899Y00009047D02*
X00037539Y00009047D01*
X00034594Y00009352D02*
X00034899Y00009047D01*
X00038809Y00011062D02*
X00038809Y00011505D01*
X00039104Y00011801D01*
X00039222Y00011801D01*
X00040807Y00011102D02*
X00040807Y00011112D01*
X00041208Y00011513D01*
X00041576Y00011513D01*
X00039557Y00011062D02*
X00040216Y00011062D01*
X00040482Y00011328D01*
X00040482Y00011515D01*
X00040482Y00012066D02*
X00040482Y00012372D01*
X00040273Y00012580D02*
X00040482Y00012372D01*
X00039547Y00012580D02*
X00040273Y00012580D01*
X00040482Y00012066D02*
X00040535Y00012013D01*
X00038141Y00012580D02*
X00038799Y00012580D01*
X00037923Y00012362D02*
X00038141Y00012580D01*
X00037923Y00012057D02*
X00037923Y00012362D01*
X00037923Y00011318D02*
X00037923Y00011505D01*
X00037923Y00011318D02*
X00038179Y00011062D01*
X00038809Y00011062D01*
X00039547Y00012580D02*
X00039647Y00012480D01*
X00040535Y00012013D02*
X00041576Y00012013D01*
X00044448Y00009931D02*
X00044645Y00009734D01*
X00044448Y00009931D02*
X00044448Y00011811D01*
X00044246Y00012013D02*
X00044448Y00011811D01*
X00043698Y00012013D02*
X00044246Y00012013D01*
X00005245Y00015344D02*
X00045482Y00015344D01*
X00046225Y00010988D02*
X00046702Y00010988D01*
X00046003Y00011210D02*
X00046225Y00010988D01*
X00046003Y00011210D02*
X00046003Y00011417D01*
X00045482Y00015344D02*
X00045807Y00015019D01*
X00047598Y00010387D02*
X00047598Y00011328D01*
X00047278Y00010067D02*
X00047598Y00010387D01*
X00046907Y00010067D02*
X00047278Y00010067D01*
X00046683Y00009842D02*
X00046907Y00010067D01*
X00047473Y00009842D02*
X00047677Y00009842D01*
X00047401Y00009770D02*
X00047473Y00009842D01*
X00047290Y00009770D02*
X00047401Y00009770D01*
X00047135Y00009616D02*
X00047290Y00009770D01*
X00049389Y00006742D02*
X00049842Y00006742D01*
X00048624Y00006742D02*
X00049389Y00006742D01*
X00048612Y00006730D02*
X00048624Y00006742D01*
X00048622Y00009842D02*
X00049429Y00009842D01*
X00049596Y00009675D01*
X00049596Y00008877D02*
X00049596Y00009675D01*
X00049183Y00008464D02*
X00049596Y00008877D01*
X00049183Y00006948D02*
X00049183Y00008464D01*
X00049183Y00006948D02*
X00049389Y00006742D01*
X00047135Y00008720D02*
X00047135Y00009616D01*
X00047135Y00008720D02*
X00047362Y00008494D01*
X00047155Y00010364D02*
X00047175Y00010383D01*
X00046240Y00010364D02*
X00047155Y00010364D01*
X00045935Y00010059D02*
X00046240Y00010364D01*
X00045935Y00009842D02*
X00045935Y00010059D01*
X00047677Y00008356D02*
X00047883Y00008149D01*
X00047677Y00008356D02*
X00047677Y00009094D01*
X00048622Y00009094D02*
X00049281Y00009094D01*
X00045009Y00009734D02*
X00045305Y00009734D01*
X00045413Y00009842D01*
X00045935Y00009842D01*
X00048572Y00009891D02*
X00048622Y00009842D01*
X00048572Y00009891D02*
X00048572Y00011702D01*
X00048267Y00012076D02*
X00048582Y00012391D01*
X00048110Y00011919D02*
X00048267Y00012076D01*
X00047677Y00009842D02*
X00047706Y00009842D01*
X00048110Y00010246D01*
X00048110Y00011919D01*
X00046137Y00012278D02*
X00046702Y00012278D01*
X00046131Y00012273D02*
X00046137Y00012278D01*
X00045344Y00012273D02*
X00046131Y00012273D01*
X00047667Y00012076D02*
X00048267Y00012076D01*
X00048582Y00012391D02*
X00049852Y00012391D01*
X00046702Y00010988D02*
X00047258Y00010988D01*
X00047598Y00011328D01*
X00047155Y00012076D02*
X00047667Y00012076D01*
X00046953Y00012278D02*
X00047155Y00012076D01*
X00046702Y00012278D02*
X00046953Y00012278D01*
X00046673Y00008224D02*
X00046683Y00008234D01*
X00046683Y00008740D01*
X00046624Y00014183D02*
X00046624Y00014192D01*
X00004547Y00012845D02*
X00004872Y00013169D01*
X00003927Y00012845D02*
X00004547Y00012845D01*
X00003927Y00014026D02*
X00005245Y00015344D01*
D66*
X00006240Y00011295D02*
D03*
X00006240Y00012295D02*
D03*
X00006240Y00013295D02*
D03*
X00006240Y00014295D02*
D03*
D67*
X00050802Y00014566D02*
D03*
X00051166Y00014566D02*
D03*
X00051166Y00011240D02*
D03*
X00050802Y00011240D02*
D03*
D68*
X00049970Y00011486D02*
D03*
X00049970Y00014320D02*
D03*
D69*
X00050639Y00011240D02*
D03*
X00051328Y00011240D02*
D03*
X00051328Y00014566D02*
D03*
X00050639Y00014566D02*
D03*
D70*
X00003100Y00012578D02*
D03*
X00003100Y00013759D02*
D03*
D71*
X00003622Y00006202D02*
D03*
X00003622Y00007202D02*
D03*
X00003622Y00008202D02*
D03*
X00003622Y00009202D02*
D03*
X00034425Y00004142D02*
D03*
X00041425Y00004142D02*
D03*
X00040425Y00004142D02*
D03*
X00039425Y00004142D02*
D03*
X00038425Y00004142D02*
D03*
X00037425Y00004142D02*
D03*
X00036425Y00004142D02*
D03*
X00035425Y00004142D02*
D03*
X00042429Y00016357D02*
D03*
X00043429Y00016357D02*
D03*
X00046429Y00016357D02*
D03*
X00045429Y00016357D02*
D03*
X00044429Y00016357D02*
D03*
X00041429Y00016357D02*
D03*
X00025444Y00016357D02*
D03*
X00024444Y00016357D02*
D03*
X00023444Y00016357D02*
D03*
X00019444Y00016357D02*
D03*
X00020444Y00016357D02*
D03*
X00021444Y00016357D02*
D03*
X00022444Y00016357D02*
D03*
X00026444Y00016357D02*
D03*
X00009444Y00016357D02*
D03*
X00010444Y00016357D02*
D03*
X00011444Y00016357D02*
D03*
X00012444Y00016357D02*
D03*
X00013444Y00016357D02*
D03*
X00014444Y00016357D02*
D03*
X00015444Y00016357D02*
D03*
X00016444Y00016357D02*
D03*
X00017444Y00016357D02*
D03*
X00018444Y00016357D02*
D03*
X00027444Y00016357D02*
D03*
X00028444Y00016357D02*
D03*
X00029444Y00016357D02*
D03*
X00030444Y00016357D02*
D03*
X00031444Y00016357D02*
D03*
X00032444Y00016357D02*
D03*
X00040429Y00016357D02*
D03*
X00039429Y00016357D02*
D03*
X00038429Y00016357D02*
D03*
X00037429Y00016357D02*
D03*
X00036429Y00016357D02*
D03*
X00035429Y00016357D02*
D03*
X00034429Y00016357D02*
D03*
D72*
X00003622Y00010202D02*
D03*
D73*
X00033425Y00004142D02*
D03*
X00008444Y00016357D02*
D03*
X00033429Y00016357D02*
D03*
D74*
X00036267Y00006889D02*
D03*
X00033464Y00006889D02*
D03*
X00026255Y00006889D02*
D03*
X00042696Y00008759D02*
D03*
X00039429Y00008769D02*
D03*
X00037098Y00006496D02*
D03*
X00038248Y00008346D02*
D03*
X00044124Y00008818D02*
D03*
X00021525Y00008326D02*
D03*
X00028248Y00008346D02*
D03*
X00033405Y00008139D02*
D03*
X00038248Y00009822D02*
D03*
X00028238Y00011017D02*
D03*
X00025846Y00009852D02*
D03*
X00028257Y00008877D02*
D03*
X00026122Y00010846D02*
D03*
X00024675Y00010324D02*
D03*
X00019104Y00009645D02*
D03*
X00018700Y00010344D02*
D03*
X00018425Y00006003D02*
D03*
X00018425Y00006722D02*
D03*
X00018395Y00008218D02*
D03*
X00018405Y00007470D02*
D03*
X00016712Y00005994D02*
D03*
X00016702Y00006712D02*
D03*
X00016702Y00007460D02*
D03*
X00016702Y00008218D02*
D03*
X00042500Y00011017D02*
D03*
X00043118Y00011013D02*
D03*
X00037539Y00009547D02*
D03*
X00037539Y00009047D02*
D03*
X00039222Y00011801D02*
D03*
X00040807Y00011102D02*
D03*
X00048336Y00012667D02*
D03*
X00047696Y00013336D02*
D03*
X00046003Y00011417D02*
D03*
X00045807Y00015019D02*
D03*
X00047362Y00008494D02*
D03*
X00049281Y00009094D02*
D03*
X00047175Y00010383D02*
D03*
X00046673Y00008224D02*
D03*
X00046624Y00014183D02*
D03*
D75*
X00036316Y00012059D02*
D03*
X00036476Y00012470D02*
D03*
X00035994Y00012293D02*
D03*
X00036043Y00011692D02*
D03*
X00035875Y00011338D02*
D03*
D76*
X00003799Y00016150D02*
D03*
X00051043Y00016150D02*
D03*
X00051043Y00004339D02*
D03*
X00003799Y00004339D02*
D03*
G04 next file*
G04*
G04 #@! TF.GenerationSoftware,Altium Limited,Altium Designer,18.1.9 (240)*
G04*
G04 Layer_Physical_Order=1*
G04 Layer_Color=255*
G04 skipping 71
G01*
G75*
D89*
X00043730Y00030576D02*
X00044345Y00030576D01*
X00043164Y00030576D02*
X00043730Y00030576D01*
X00043730Y00030501D02*
X00043730Y00030576D01*
X00043001Y00029773D02*
X00043730Y00030501D01*
X00042194Y00019488D02*
X00043120Y00020413D01*
X00041562Y00019488D02*
X00042194Y00019488D01*
X00042566Y00029395D02*
X00043164Y00029395D01*
X00041983Y00029395D02*
X00042566Y00029395D01*
X00042566Y00029387D02*
X00042566Y00029395D01*
X00041919Y00028740D02*
X00042566Y00029387D01*
X00041549Y00020039D02*
X00041919Y00020408D01*
X00041289Y00020039D02*
X00041549Y00020039D01*
X00040738Y00019488D02*
X00041289Y00020039D01*
X00040562Y00019488D02*
X00040738Y00019488D01*
X00041417Y00028214D02*
X00041983Y00028214D01*
X00040802Y00028214D02*
X00041417Y00028214D01*
X00040767Y00027564D02*
X00041417Y00028214D01*
X00039846Y00019488D02*
X00040767Y00020408D01*
X00039562Y00019488D02*
X00039846Y00019488D01*
X00039621Y00027032D02*
X00040212Y00027032D01*
X00040802Y00027032D01*
X00039517Y00026338D02*
X00040212Y00027032D01*
X00039468Y00020393D02*
X00039517Y00020393D01*
X00038562Y00019488D02*
X00039468Y00020393D01*
X00039035Y00025851D02*
X00039621Y00025851D01*
X00038440Y00025851D02*
X00039035Y00025851D01*
X00039035Y00025816D02*
X00039035Y00025851D01*
X00038336Y00025118D02*
X00039035Y00025816D01*
X00037562Y00019620D02*
X00038336Y00020393D01*
X00037562Y00019488D02*
X00037562Y00019620D01*
X00037795Y00024670D02*
X00038440Y00024670D01*
X00037259Y00024670D02*
X00037795Y00024670D01*
X00037795Y00024616D02*
X00037795Y00024670D01*
X00037116Y00023937D02*
X00037795Y00024616D01*
X00037106Y00020393D02*
X00037116Y00020393D01*
X00036562Y00019850D02*
X00037106Y00020393D01*
X00036562Y00019488D02*
X00036562Y00019850D01*
X00036624Y00023489D02*
X00037259Y00023489D01*
X00036078Y00023489D02*
X00036624Y00023489D01*
X00036023Y00022889D02*
X00036624Y00023489D01*
X00036023Y00022765D02*
X00036023Y00022889D01*
X00035562Y00019948D02*
X00036023Y00020408D01*
X00035562Y00019488D02*
X00035562Y00019948D01*
X00035527Y00022308D02*
X00036078Y00022308D01*
X00034897Y00022308D02*
X00035527Y00022308D01*
X00034832Y00021614D02*
X00035527Y00022308D01*
X00034803Y00020393D02*
X00034812Y00020393D01*
X00034562Y00020153D02*
X00034803Y00020393D01*
X00034562Y00019488D02*
X00034562Y00020153D01*
X00034897Y00021127D02*
X00036078Y00021127D01*
X00034281Y00021127D02*
X00034897Y00021127D01*
X00033716Y00021127D02*
X00034281Y00021127D01*
X00033562Y00020408D02*
X00034281Y00021127D01*
X00033562Y00019488D02*
X00033562Y00020408D01*
X00008090Y00029763D02*
X00008457Y00030130D01*
X00007731Y00029395D02*
X00008912Y00029395D01*
X00012814Y00029763D02*
X00013182Y00030130D01*
X00012456Y00029395D02*
X00013637Y00029395D01*
X00048257Y00029783D02*
X00048624Y00030150D01*
X00047066Y00029783D02*
X00047434Y00030150D01*
X00045885Y00029783D02*
X00046252Y00030150D01*
X00044704Y00029783D02*
X00045071Y00030150D01*
X00043533Y00029783D02*
X00043900Y00030150D01*
X00042342Y00029783D02*
X00042709Y00030150D01*
X00041171Y00029783D02*
X00041538Y00030150D01*
X00039980Y00029783D02*
X00040347Y00030150D01*
X00038799Y00029783D02*
X00039166Y00030150D01*
X00037618Y00029783D02*
X00037985Y00030150D01*
X00036437Y00029783D02*
X00036804Y00030150D01*
X00035255Y00029783D02*
X00035622Y00030150D01*
X00034074Y00029783D02*
X00034441Y00030150D01*
X00032903Y00029783D02*
X00033270Y00030150D01*
X00031712Y00029783D02*
X00032079Y00030150D01*
X00030531Y00029783D02*
X00030898Y00030150D01*
X00029340Y00029783D02*
X00029707Y00030150D01*
X00005816Y00031702D02*
X00008582Y00031702D01*
X00004924Y00030810D02*
X00005816Y00031702D01*
X00004924Y00030130D02*
X00004924Y00030810D01*
X00005738Y00022667D02*
X00006105Y00023034D01*
X00005738Y00021476D02*
X00006105Y00021843D01*
X00004924Y00028949D02*
X00004924Y00030130D01*
X00004924Y00027768D02*
X00004924Y00028949D01*
X00004924Y00026587D02*
X00004924Y00027768D01*
X00004924Y00025406D02*
X00004924Y00026587D01*
X00004924Y00024225D02*
X00004924Y00025406D01*
X00004924Y00023044D02*
X00004924Y00024225D01*
X00004924Y00021863D02*
X00004924Y00023044D01*
X00004924Y00020682D02*
X00004924Y00021863D01*
X00005738Y00020305D02*
X00006105Y00020672D01*
X00005728Y00023848D02*
X00006095Y00024215D01*
X00005738Y00025029D02*
X00006105Y00025396D01*
X00005738Y00026210D02*
X00006105Y00026577D01*
X00005738Y00027391D02*
X00006105Y00027758D01*
X00005728Y00028582D02*
X00006095Y00028949D01*
X00005738Y00029763D02*
X00006105Y00030130D01*
X00005369Y00029395D02*
X00006550Y00029395D01*
X00048248Y00028602D02*
X00048615Y00028969D01*
X00048257Y00027411D02*
X00048624Y00027778D01*
X00048257Y00026230D02*
X00048624Y00026597D01*
X00048257Y00025049D02*
X00048624Y00025416D01*
X00048248Y00023868D02*
X00048615Y00024235D01*
X00048257Y00022687D02*
X00048624Y00023054D01*
X00048257Y00021496D02*
X00048624Y00021863D01*
X00048257Y00020324D02*
X00048624Y00020691D01*
X00047057Y00028602D02*
X00047424Y00028969D01*
X00047066Y00027411D02*
X00047434Y00027778D01*
X00047066Y00026230D02*
X00047434Y00026597D01*
X00047066Y00025049D02*
X00047434Y00025416D01*
X00047057Y00023868D02*
X00047424Y00024235D01*
X00047066Y00022687D02*
X00047434Y00023054D01*
X00047066Y00021496D02*
X00047434Y00021863D01*
X00047066Y00020324D02*
X00047434Y00020691D01*
X00045875Y00028602D02*
X00046243Y00028969D01*
X00045885Y00027411D02*
X00046252Y00027778D01*
X00045885Y00026230D02*
X00046252Y00026597D01*
X00045885Y00025049D02*
X00046252Y00025416D01*
X00045875Y00023868D02*
X00046243Y00024235D01*
X00045885Y00022687D02*
X00046252Y00023054D01*
X00045885Y00021496D02*
X00046252Y00021863D01*
X00045885Y00020324D02*
X00046252Y00020691D01*
X00044694Y00028602D02*
X00045061Y00028969D01*
X00044704Y00027411D02*
X00045071Y00027778D01*
X00044704Y00026230D02*
X00045071Y00026597D01*
X00044704Y00025049D02*
X00045071Y00025416D01*
X00044694Y00023868D02*
X00045061Y00024235D01*
X00044704Y00022687D02*
X00045071Y00023054D01*
X00044704Y00021496D02*
X00045071Y00021863D01*
X00044704Y00020324D02*
X00045071Y00020691D01*
X00043523Y00028602D02*
X00043890Y00028969D01*
X00043533Y00027411D02*
X00043900Y00027778D01*
X00043533Y00026230D02*
X00043900Y00026597D01*
X00043533Y00025049D02*
X00043900Y00025416D01*
X00043523Y00023868D02*
X00043890Y00024235D01*
X00043533Y00022687D02*
X00043900Y00023054D01*
X00043533Y00021496D02*
X00043900Y00021863D01*
X00043533Y00020324D02*
X00043900Y00020691D01*
X00042332Y00028602D02*
X00042699Y00028969D01*
X00042342Y00027411D02*
X00042709Y00027778D01*
X00042342Y00026230D02*
X00042709Y00026597D01*
X00042342Y00025049D02*
X00042709Y00025416D01*
X00042332Y00023868D02*
X00042699Y00024235D01*
X00042342Y00022687D02*
X00042709Y00023054D01*
X00042342Y00021496D02*
X00042709Y00021863D01*
X00042342Y00020324D02*
X00042709Y00020691D01*
X00041161Y00028602D02*
X00041528Y00028969D01*
X00041171Y00027411D02*
X00041538Y00027778D01*
X00041171Y00026230D02*
X00041538Y00026597D01*
X00041171Y00025049D02*
X00041538Y00025416D01*
X00041161Y00023868D02*
X00041528Y00024235D01*
X00041171Y00022687D02*
X00041538Y00023054D01*
X00041171Y00021496D02*
X00041538Y00021863D01*
X00041171Y00020324D02*
X00041538Y00020691D01*
X00039970Y00028602D02*
X00040337Y00028969D01*
X00039980Y00027411D02*
X00040347Y00027778D01*
X00039980Y00026230D02*
X00040347Y00026597D01*
X00039980Y00025049D02*
X00040347Y00025416D01*
X00039970Y00023868D02*
X00040337Y00024235D01*
X00039980Y00022687D02*
X00040347Y00023054D01*
X00039980Y00021496D02*
X00040347Y00021863D01*
X00039980Y00020324D02*
X00040347Y00020691D01*
X00038789Y00028602D02*
X00039156Y00028969D01*
X00038799Y00027411D02*
X00039166Y00027778D01*
X00038799Y00026230D02*
X00039166Y00026597D01*
X00038799Y00025049D02*
X00039166Y00025416D01*
X00038789Y00023868D02*
X00039156Y00024235D01*
X00038799Y00022687D02*
X00039166Y00023054D01*
X00038799Y00021496D02*
X00039166Y00021863D01*
X00038799Y00020324D02*
X00039166Y00020691D01*
X00037608Y00028602D02*
X00037975Y00028969D01*
X00037618Y00027411D02*
X00037985Y00027778D01*
X00037618Y00026230D02*
X00037985Y00026597D01*
X00037618Y00025049D02*
X00037985Y00025416D01*
X00037608Y00023868D02*
X00037975Y00024235D01*
X00037618Y00022687D02*
X00037985Y00023054D01*
X00037618Y00021496D02*
X00037985Y00021863D01*
X00037618Y00020324D02*
X00037985Y00020691D01*
X00036427Y00028602D02*
X00036794Y00028969D01*
X00036437Y00027411D02*
X00036804Y00027778D01*
X00036437Y00026230D02*
X00036804Y00026597D01*
X00036437Y00025049D02*
X00036804Y00025416D01*
X00036427Y00023868D02*
X00036794Y00024235D01*
X00036437Y00022687D02*
X00036804Y00023054D01*
X00036437Y00021496D02*
X00036804Y00021863D01*
X00036437Y00020324D02*
X00036804Y00020691D01*
X00035246Y00028602D02*
X00035613Y00028969D01*
X00035255Y00027411D02*
X00035622Y00027778D01*
X00035255Y00026230D02*
X00035622Y00026597D01*
X00035255Y00025049D02*
X00035622Y00025416D01*
X00035246Y00023868D02*
X00035613Y00024235D01*
X00035255Y00022687D02*
X00035622Y00023054D01*
X00035255Y00021496D02*
X00035622Y00021863D01*
X00035255Y00020324D02*
X00035622Y00020691D01*
X00034064Y00028602D02*
X00034432Y00028969D01*
X00034074Y00027411D02*
X00034441Y00027778D01*
X00034074Y00026230D02*
X00034441Y00026597D01*
X00034074Y00025049D02*
X00034441Y00025416D01*
X00034064Y00023868D02*
X00034432Y00024235D01*
X00034074Y00022687D02*
X00034441Y00023054D01*
X00034074Y00021496D02*
X00034441Y00021863D01*
X00034074Y00020324D02*
X00034441Y00020691D01*
X00032893Y00028602D02*
X00033260Y00028969D01*
X00032903Y00027411D02*
X00033270Y00027778D01*
X00032903Y00026230D02*
X00033270Y00026597D01*
X00032903Y00025049D02*
X00033270Y00025416D01*
X00032893Y00023868D02*
X00033260Y00024235D01*
X00032903Y00022687D02*
X00033270Y00023054D01*
X00032903Y00021496D02*
X00033270Y00021863D01*
X00032903Y00020324D02*
X00033270Y00020691D01*
X00031702Y00028602D02*
X00032069Y00028969D01*
X00031712Y00027411D02*
X00032079Y00027778D01*
X00031712Y00026230D02*
X00032079Y00026597D01*
X00031712Y00025049D02*
X00032079Y00025416D01*
X00031702Y00023868D02*
X00032069Y00024235D01*
X00031712Y00022687D02*
X00032079Y00023054D01*
X00031712Y00021496D02*
X00032079Y00021863D01*
X00031712Y00020324D02*
X00032079Y00020691D01*
X00030521Y00028602D02*
X00030888Y00028969D01*
X00030531Y00027411D02*
X00030898Y00027778D01*
X00030531Y00026230D02*
X00030898Y00026597D01*
X00030531Y00025049D02*
X00030898Y00025416D01*
X00030521Y00023868D02*
X00030888Y00024235D01*
X00030531Y00022687D02*
X00030898Y00023054D01*
X00030531Y00021496D02*
X00030898Y00021863D01*
X00030531Y00020324D02*
X00030898Y00020691D01*
X00029330Y00028602D02*
X00029697Y00028969D01*
X00029340Y00027411D02*
X00029707Y00027778D01*
X00029340Y00026230D02*
X00029707Y00026597D01*
X00029340Y00025049D02*
X00029707Y00025416D01*
X00029330Y00023868D02*
X00029697Y00024235D01*
X00029340Y00022687D02*
X00029707Y00023054D01*
X00029340Y00021496D02*
X00029707Y00021863D01*
X00029340Y00020324D02*
X00029707Y00020691D01*
X00028169Y00029763D02*
X00028536Y00030130D01*
X00028159Y00028582D02*
X00028526Y00028949D01*
X00028169Y00027391D02*
X00028536Y00027758D01*
X00028169Y00026210D02*
X00028536Y00026577D01*
X00028169Y00025029D02*
X00028536Y00025396D01*
X00028159Y00023848D02*
X00028526Y00024215D01*
X00028169Y00022667D02*
X00028536Y00023034D01*
X00028169Y00021476D02*
X00028536Y00021843D01*
X00028169Y00020305D02*
X00028536Y00020672D01*
X00049438Y00029744D02*
X00049806Y00030111D01*
X00049429Y00028562D02*
X00049796Y00028930D01*
X00049438Y00027372D02*
X00049806Y00027739D01*
X00049438Y00026190D02*
X00049806Y00026558D01*
X00049438Y00025009D02*
X00049806Y00025376D01*
X00049429Y00023828D02*
X00049796Y00024195D01*
X00049438Y00022647D02*
X00049806Y00023014D01*
X00049438Y00021456D02*
X00049806Y00021823D01*
X00049438Y00020285D02*
X00049806Y00020652D01*
X00026998Y00029763D02*
X00027365Y00030130D01*
X00026988Y00028582D02*
X00027355Y00028949D01*
X00026998Y00027391D02*
X00027365Y00027758D01*
X00026998Y00026210D02*
X00027365Y00026577D01*
X00026998Y00025029D02*
X00027365Y00025396D01*
X00026988Y00023848D02*
X00027355Y00024215D01*
X00026998Y00022667D02*
X00027365Y00023034D01*
X00026998Y00021476D02*
X00027365Y00021843D01*
X00026998Y00020305D02*
X00027365Y00020672D01*
X00025807Y00029763D02*
X00026174Y00030130D01*
X00025797Y00028582D02*
X00026164Y00028949D01*
X00025807Y00027391D02*
X00026174Y00027758D01*
X00025807Y00026210D02*
X00026174Y00026577D01*
X00025807Y00025029D02*
X00026174Y00025396D01*
X00025797Y00023848D02*
X00026164Y00024215D01*
X00025807Y00022667D02*
X00026174Y00023034D01*
X00025807Y00021476D02*
X00026174Y00021843D01*
X00025807Y00020305D02*
X00026174Y00020672D01*
X00024625Y00029763D02*
X00024993Y00030130D01*
X00024616Y00028582D02*
X00024983Y00028949D01*
X00024625Y00027391D02*
X00024993Y00027758D01*
X00024625Y00026210D02*
X00024993Y00026577D01*
X00024625Y00025029D02*
X00024993Y00025396D01*
X00024616Y00023848D02*
X00024983Y00024215D01*
X00024625Y00022667D02*
X00024993Y00023034D01*
X00024625Y00021476D02*
X00024993Y00021843D01*
X00024625Y00020305D02*
X00024993Y00020672D01*
X00023444Y00029763D02*
X00023811Y00030130D01*
X00023435Y00028582D02*
X00023802Y00028949D01*
X00023444Y00027391D02*
X00023811Y00027758D01*
X00023444Y00026210D02*
X00023811Y00026577D01*
X00023444Y00025029D02*
X00023811Y00025396D01*
X00023435Y00023848D02*
X00023802Y00024215D01*
X00023444Y00022667D02*
X00023811Y00023034D01*
X00023444Y00021476D02*
X00023811Y00021843D01*
X00023444Y00020305D02*
X00023811Y00020672D01*
X00022273Y00029763D02*
X00022640Y00030130D01*
X00022263Y00028582D02*
X00022630Y00028949D01*
X00022273Y00027391D02*
X00022640Y00027758D01*
X00022273Y00026210D02*
X00022640Y00026577D01*
X00022273Y00025029D02*
X00022640Y00025396D01*
X00022263Y00023848D02*
X00022630Y00024215D01*
X00022273Y00022667D02*
X00022640Y00023034D01*
X00022273Y00021476D02*
X00022640Y00021843D01*
X00022273Y00020305D02*
X00022640Y00020672D01*
X00021082Y00029763D02*
X00021449Y00030130D01*
X00021072Y00028582D02*
X00021439Y00028949D01*
X00021082Y00027391D02*
X00021449Y00027758D01*
X00021082Y00026210D02*
X00021449Y00026577D01*
X00021082Y00025029D02*
X00021449Y00025396D01*
X00021072Y00023848D02*
X00021439Y00024215D01*
X00021082Y00022667D02*
X00021449Y00023034D01*
X00021082Y00021476D02*
X00021449Y00021843D01*
X00021082Y00020305D02*
X00021449Y00020672D01*
X00019901Y00029763D02*
X00020268Y00030130D01*
X00019891Y00028582D02*
X00020258Y00028949D01*
X00019901Y00027391D02*
X00020268Y00027758D01*
X00019901Y00026210D02*
X00020268Y00026577D01*
X00019901Y00025029D02*
X00020268Y00025396D01*
X00019891Y00023848D02*
X00020258Y00024215D01*
X00019901Y00022667D02*
X00020268Y00023034D01*
X00019901Y00021476D02*
X00020268Y00021843D01*
X00019901Y00020305D02*
X00020268Y00020672D01*
X00018720Y00029763D02*
X00019087Y00030130D01*
X00018710Y00028582D02*
X00019077Y00028949D01*
X00018720Y00027391D02*
X00019087Y00027758D01*
X00018720Y00026210D02*
X00019087Y00026577D01*
X00018720Y00025029D02*
X00019087Y00025396D01*
X00018710Y00023848D02*
X00019077Y00024215D01*
X00018720Y00022667D02*
X00019087Y00023034D01*
X00018720Y00021476D02*
X00019087Y00021843D01*
X00018720Y00020305D02*
X00019087Y00020672D01*
X00017549Y00029763D02*
X00017916Y00030130D01*
X00017539Y00028582D02*
X00017906Y00028949D01*
X00017549Y00027391D02*
X00017916Y00027758D01*
X00017549Y00026210D02*
X00017916Y00026577D01*
X00017549Y00025029D02*
X00017916Y00025396D01*
X00017539Y00023848D02*
X00017906Y00024215D01*
X00017549Y00022667D02*
X00017916Y00023034D01*
X00017549Y00021476D02*
X00017916Y00021843D01*
X00017549Y00020305D02*
X00017916Y00020672D01*
X00016368Y00029763D02*
X00016735Y00030130D01*
X00016358Y00028582D02*
X00016725Y00028949D01*
X00016368Y00027391D02*
X00016735Y00027758D01*
X00016368Y00026210D02*
X00016735Y00026577D01*
X00016368Y00025029D02*
X00016735Y00025396D01*
X00016358Y00023848D02*
X00016725Y00024215D01*
X00016368Y00022667D02*
X00016735Y00023034D01*
X00016368Y00021476D02*
X00016735Y00021843D01*
X00016368Y00020305D02*
X00016735Y00020672D01*
X00015177Y00029763D02*
X00015544Y00030130D01*
X00015167Y00028582D02*
X00015534Y00028949D01*
X00015177Y00027391D02*
X00015544Y00027758D01*
X00015177Y00026210D02*
X00015544Y00026577D01*
X00015177Y00025029D02*
X00015544Y00025396D01*
X00015167Y00023848D02*
X00015534Y00024215D01*
X00015177Y00022667D02*
X00015544Y00023034D01*
X00015177Y00021476D02*
X00015544Y00021843D01*
X00015177Y00020305D02*
X00015544Y00020672D01*
X00013996Y00029763D02*
X00014363Y00030130D01*
X00013986Y00028582D02*
X00014353Y00028949D01*
X00013996Y00027391D02*
X00014363Y00027758D01*
X00013996Y00026210D02*
X00014363Y00026577D01*
X00013996Y00025029D02*
X00014363Y00025396D01*
X00013986Y00023848D02*
X00014353Y00024215D01*
X00013996Y00022667D02*
X00014363Y00023034D01*
X00013996Y00021476D02*
X00014363Y00021843D01*
X00013996Y00020305D02*
X00014363Y00020672D01*
X00012805Y00028582D02*
X00013172Y00028949D01*
X00012814Y00027391D02*
X00013182Y00027758D01*
X00012814Y00026210D02*
X00013182Y00026577D01*
X00012814Y00025029D02*
X00013182Y00025396D01*
X00012805Y00023848D02*
X00013172Y00024215D01*
X00012814Y00022667D02*
X00013182Y00023034D01*
X00012814Y00021476D02*
X00013182Y00021843D01*
X00012814Y00020305D02*
X00013182Y00020672D01*
X00011643Y00029763D02*
X00012010Y00030130D01*
X00011633Y00028582D02*
X00012000Y00028949D01*
X00011643Y00027391D02*
X00012010Y00027758D01*
X00011643Y00026210D02*
X00012010Y00026577D01*
X00011643Y00025029D02*
X00012010Y00025396D01*
X00011633Y00023848D02*
X00012000Y00024215D01*
X00011643Y00022667D02*
X00012010Y00023034D01*
X00011643Y00021476D02*
X00012010Y00021843D01*
X00011643Y00020305D02*
X00012010Y00020672D01*
X00010462Y00029763D02*
X00010829Y00030130D01*
X00010452Y00028582D02*
X00010819Y00028949D01*
X00010462Y00027391D02*
X00010829Y00027758D01*
X00010462Y00026210D02*
X00010829Y00026577D01*
X00010462Y00025029D02*
X00010829Y00025396D01*
X00010452Y00023848D02*
X00010819Y00024215D01*
X00010462Y00022667D02*
X00010829Y00023034D01*
X00010462Y00021476D02*
X00010829Y00021843D01*
X00010462Y00020305D02*
X00010829Y00020672D01*
X00009271Y00029763D02*
X00009638Y00030130D01*
X00009261Y00028582D02*
X00009628Y00028949D01*
X00009271Y00027391D02*
X00009638Y00027758D01*
X00009271Y00026210D02*
X00009638Y00026577D01*
X00009271Y00025029D02*
X00009638Y00025396D01*
X00009261Y00023848D02*
X00009628Y00024215D01*
X00009271Y00022667D02*
X00009638Y00023034D01*
X00009271Y00021476D02*
X00009638Y00021843D01*
X00009271Y00020305D02*
X00009638Y00020672D01*
X00008080Y00028582D02*
X00008447Y00028949D01*
X00008090Y00027391D02*
X00008457Y00027758D01*
X00008090Y00026210D02*
X00008457Y00026577D01*
X00008090Y00025029D02*
X00008457Y00025396D01*
X00008080Y00023848D02*
X00008447Y00024215D01*
X00008090Y00022667D02*
X00008457Y00023034D01*
X00008090Y00021476D02*
X00008457Y00021843D01*
X00008090Y00020305D02*
X00008457Y00020672D01*
X00006909Y00029753D02*
X00007276Y00030121D01*
X00006899Y00028572D02*
X00007266Y00028939D01*
X00006909Y00027381D02*
X00007276Y00027749D01*
X00006909Y00026200D02*
X00007276Y00026567D01*
X00006909Y00025019D02*
X00007276Y00025386D01*
X00006899Y00023838D02*
X00007266Y00024205D01*
X00006909Y00022657D02*
X00007276Y00023024D01*
X00006909Y00021466D02*
X00007276Y00021833D01*
X00006909Y00020295D02*
X00007276Y00020662D01*
X00005369Y00021127D02*
X00006550Y00021127D01*
X00007731Y00021127D01*
X00008912Y00021127D01*
X00010094Y00021127D01*
X00011275Y00021127D01*
X00012456Y00021127D01*
X00013637Y00021127D01*
X00014818Y00021127D01*
X00015999Y00021127D01*
X00017180Y00021127D01*
X00018361Y00021127D01*
X00019542Y00021127D01*
X00020723Y00021127D01*
X00021905Y00021127D01*
X00023086Y00021127D01*
X00024267Y00021127D01*
X00025448Y00021127D01*
X00026629Y00021127D01*
X00027810Y00021127D01*
X00028991Y00021127D01*
X00030172Y00021127D01*
X00031353Y00021127D01*
X00032534Y00021127D01*
X00033716Y00021127D01*
X00036078Y00021127D02*
X00037259Y00021127D01*
X00038440Y00021127D01*
X00039621Y00021127D01*
X00040802Y00021127D01*
X00041983Y00021127D01*
X00043164Y00021127D01*
X00044345Y00021127D01*
X00045527Y00021127D01*
X00046708Y00021127D01*
X00047889Y00021127D01*
X00049070Y00021127D01*
X00050251Y00021127D01*
X00005369Y00022308D02*
X00006550Y00022308D01*
X00007731Y00022308D01*
X00008912Y00022308D01*
X00010094Y00022308D01*
X00011275Y00022308D01*
X00012456Y00022308D01*
X00013637Y00022308D01*
X00014818Y00022308D01*
X00015999Y00022308D01*
X00017180Y00022308D01*
X00018361Y00022308D01*
X00019542Y00022308D01*
X00020723Y00022308D01*
X00021905Y00022308D01*
X00023086Y00022308D01*
X00024267Y00022308D01*
X00025448Y00022308D01*
X00026629Y00022308D01*
X00027810Y00022308D01*
X00028991Y00022308D01*
X00030172Y00022308D01*
X00031353Y00022308D01*
X00032534Y00022308D01*
X00033716Y00022308D01*
X00034897Y00022308D01*
X00036078Y00022308D02*
X00037259Y00022308D01*
X00038440Y00022308D01*
X00039621Y00022308D01*
X00040802Y00022308D01*
X00041983Y00022308D01*
X00043164Y00022308D01*
X00044345Y00022308D01*
X00045527Y00022308D01*
X00046708Y00022308D01*
X00047889Y00022308D01*
X00049070Y00022308D01*
X00050251Y00022308D01*
X00005369Y00023489D02*
X00006550Y00023489D01*
X00007731Y00023489D01*
X00008912Y00023489D01*
X00010094Y00023489D01*
X00011275Y00023489D01*
X00012456Y00023489D01*
X00013637Y00023489D01*
X00014818Y00023489D01*
X00015999Y00023489D01*
X00017180Y00023489D01*
X00018361Y00023489D01*
X00019542Y00023489D01*
X00020723Y00023489D01*
X00021905Y00023489D01*
X00023086Y00023489D01*
X00024267Y00023489D01*
X00025448Y00023489D01*
X00026629Y00023489D01*
X00027810Y00023489D01*
X00028991Y00023489D01*
X00030172Y00023489D01*
X00031353Y00023489D01*
X00032534Y00023489D01*
X00033716Y00023489D01*
X00034897Y00023489D01*
X00036078Y00023489D01*
X00037259Y00023489D02*
X00038440Y00023489D01*
X00039621Y00023489D01*
X00040802Y00023489D01*
X00041983Y00023489D01*
X00043164Y00023489D01*
X00044345Y00023489D01*
X00045527Y00023489D01*
X00046708Y00023489D01*
X00047889Y00023489D01*
X00049070Y00023489D01*
X00050251Y00023489D01*
X00005369Y00024670D02*
X00006550Y00024670D01*
X00007731Y00024670D01*
X00008912Y00024670D01*
X00010094Y00024670D01*
X00011275Y00024670D01*
X00012456Y00024670D01*
X00013637Y00024670D01*
X00014818Y00024670D01*
X00015999Y00024670D01*
X00017180Y00024670D01*
X00018361Y00024670D01*
X00019542Y00024670D01*
X00020723Y00024670D01*
X00021905Y00024670D01*
X00023086Y00024670D01*
X00024267Y00024670D01*
X00025448Y00024670D01*
X00026629Y00024670D01*
X00027810Y00024670D01*
X00028991Y00024670D01*
X00030172Y00024670D01*
X00031353Y00024670D01*
X00032534Y00024670D01*
X00033716Y00024670D01*
X00034897Y00024670D01*
X00036078Y00024670D01*
X00037259Y00024670D01*
X00038440Y00024670D02*
X00039621Y00024670D01*
X00040802Y00024670D01*
X00041983Y00024670D01*
X00043164Y00024670D01*
X00044345Y00024670D01*
X00045527Y00024670D01*
X00046708Y00024670D01*
X00047889Y00024670D01*
X00049070Y00024670D01*
X00050251Y00024670D01*
X00005369Y00025851D02*
X00006550Y00025851D01*
X00007731Y00025851D01*
X00008912Y00025851D01*
X00010094Y00025851D01*
X00011275Y00025851D01*
X00012456Y00025851D01*
X00013637Y00025851D01*
X00014818Y00025851D01*
X00015999Y00025851D01*
X00017180Y00025851D01*
X00018361Y00025851D01*
X00019542Y00025851D01*
X00020723Y00025851D01*
X00021905Y00025851D01*
X00023086Y00025851D01*
X00024267Y00025851D01*
X00025448Y00025851D01*
X00026629Y00025851D01*
X00027810Y00025851D01*
X00028991Y00025851D01*
X00030172Y00025851D01*
X00031353Y00025851D01*
X00032534Y00025851D01*
X00033716Y00025851D01*
X00034897Y00025851D01*
X00036078Y00025851D01*
X00037259Y00025851D01*
X00038440Y00025851D01*
X00039621Y00025851D02*
X00040802Y00025851D01*
X00041983Y00025851D01*
X00043164Y00025851D01*
X00044345Y00025851D01*
X00045527Y00025851D01*
X00046708Y00025851D01*
X00047889Y00025851D01*
X00049070Y00025851D01*
X00050251Y00025851D01*
X00005369Y00027032D02*
X00006550Y00027032D01*
X00007731Y00027032D01*
X00008912Y00027032D01*
X00010094Y00027032D01*
X00011275Y00027032D01*
X00012456Y00027032D01*
X00013637Y00027032D01*
X00014818Y00027032D01*
X00015999Y00027032D01*
X00017180Y00027032D01*
X00018361Y00027032D01*
X00019542Y00027032D01*
X00020723Y00027032D01*
X00021905Y00027032D01*
X00023086Y00027032D01*
X00024267Y00027032D01*
X00025448Y00027032D01*
X00026629Y00027032D01*
X00027810Y00027032D01*
X00028991Y00027032D01*
X00030172Y00027032D01*
X00031353Y00027032D01*
X00032534Y00027032D01*
X00033716Y00027032D01*
X00034897Y00027032D01*
X00036078Y00027032D01*
X00037259Y00027032D01*
X00038440Y00027032D01*
X00039621Y00027032D01*
X00040802Y00027032D02*
X00041983Y00027032D01*
X00043164Y00027032D01*
X00044345Y00027032D01*
X00045527Y00027032D01*
X00046708Y00027032D01*
X00047889Y00027032D01*
X00049070Y00027032D01*
X00050251Y00027032D01*
X00005369Y00028214D02*
X00006550Y00028214D01*
X00007731Y00028214D01*
X00008912Y00028214D01*
X00010094Y00028214D01*
X00011275Y00028214D01*
X00012456Y00028214D01*
X00013637Y00028214D01*
X00014818Y00028214D01*
X00015999Y00028214D01*
X00017180Y00028214D01*
X00018361Y00028214D01*
X00019542Y00028214D01*
X00020723Y00028214D01*
X00021905Y00028214D01*
X00023086Y00028214D01*
X00024267Y00028214D01*
X00025448Y00028214D01*
X00026629Y00028214D01*
X00027810Y00028214D01*
X00028991Y00028214D01*
X00030172Y00028214D01*
X00031353Y00028214D01*
X00032534Y00028214D01*
X00033716Y00028214D01*
X00034897Y00028214D01*
X00036078Y00028214D01*
X00037259Y00028214D01*
X00038440Y00028214D01*
X00039621Y00028214D01*
X00040802Y00028214D01*
X00041983Y00028214D02*
X00043164Y00028214D01*
X00044345Y00028214D01*
X00045527Y00028214D01*
X00046708Y00028214D01*
X00047889Y00028214D01*
X00049070Y00028214D01*
X00050251Y00028214D01*
X00006550Y00029395D02*
X00007731Y00029395D01*
X00008912Y00029395D02*
X00010094Y00029395D01*
X00011275Y00029395D01*
X00012456Y00029395D01*
X00013637Y00029395D02*
X00014818Y00029395D01*
X00015999Y00029395D01*
X00017180Y00029395D01*
X00018361Y00029395D01*
X00019542Y00029395D01*
X00020723Y00029395D01*
X00021905Y00029395D01*
X00023086Y00029395D01*
X00024267Y00029395D01*
X00025448Y00029395D01*
X00026629Y00029395D01*
X00027810Y00029395D01*
X00028991Y00029395D01*
X00030172Y00029395D01*
X00031353Y00029395D01*
X00032534Y00029395D01*
X00033716Y00029395D01*
X00034897Y00029395D01*
X00036078Y00029395D01*
X00037259Y00029395D01*
X00038440Y00029395D01*
X00039621Y00029395D01*
X00040802Y00029395D01*
X00041983Y00029395D01*
X00043164Y00029395D02*
X00044345Y00029395D01*
X00045527Y00029395D01*
X00046708Y00029395D01*
X00047889Y00029395D01*
X00049070Y00029395D01*
X00050251Y00029395D01*
X00049070Y00030576D02*
X00050251Y00030576D01*
X00047889Y00030576D02*
X00049070Y00030576D01*
X00046708Y00030576D02*
X00047889Y00030576D01*
X00045527Y00030576D02*
X00046708Y00030576D01*
X00044345Y00030576D02*
X00045527Y00030576D01*
X00041983Y00030576D02*
X00043164Y00030576D01*
X00040802Y00030576D02*
X00041983Y00030576D01*
X00039621Y00030576D02*
X00040802Y00030576D01*
X00038440Y00030576D02*
X00039621Y00030576D01*
X00037259Y00030576D02*
X00038440Y00030576D01*
X00036078Y00030576D02*
X00037259Y00030576D01*
X00034897Y00030576D02*
X00036078Y00030576D01*
X00033716Y00030576D02*
X00034897Y00030576D01*
X00032534Y00030576D02*
X00033716Y00030576D01*
X00031353Y00030576D02*
X00032534Y00030576D01*
X00030172Y00030576D02*
X00031353Y00030576D01*
X00028991Y00030576D02*
X00030172Y00030576D01*
X00027810Y00030576D02*
X00028991Y00030576D01*
X00026629Y00030576D02*
X00027810Y00030576D01*
X00025448Y00030576D02*
X00026629Y00030576D01*
X00024267Y00030576D02*
X00025448Y00030576D01*
X00023086Y00030576D02*
X00024267Y00030576D01*
X00021905Y00030576D02*
X00023086Y00030576D01*
X00020723Y00030576D02*
X00021905Y00030576D01*
X00019542Y00030576D02*
X00020723Y00030576D01*
X00018361Y00030576D02*
X00019542Y00030576D01*
X00017180Y00030576D02*
X00018361Y00030576D01*
X00015999Y00030576D02*
X00017180Y00030576D01*
X00014818Y00030576D02*
X00015999Y00030576D01*
X00013637Y00030576D02*
X00014818Y00030576D01*
X00012456Y00030576D02*
X00013637Y00030576D01*
X00011275Y00030576D02*
X00012456Y00030576D01*
X00010094Y00030576D02*
X00011275Y00030576D01*
X00008912Y00030576D02*
X00010094Y00030576D01*
X00007731Y00030576D02*
X00008912Y00030576D01*
X00006550Y00030576D02*
X00007731Y00030576D01*
X00005369Y00030576D02*
X00006550Y00030576D01*
X00002755Y00019685D02*
G03*
X00003937Y00018503I00001181D01*
G01*
X00051181Y00018503D02*
G03*
X00052362Y00019685J00001181D01*
G01*
X00052362Y00031496D02*
G03*
X00051181Y00032677I-00001181D01*
G01*
X00003937Y00032677D02*
G03*
X00002755Y00031496J-00001181D01*
G01*
X00052362Y00019685D02*
X00052362Y00031496D01*
X00003937Y00018503D02*
X00051181Y00018503D01*
X00003937Y00032667D02*
X00051181Y00032667D01*
X00002755Y00019685D02*
X00002755Y00031496D01*
D90*
X00050251Y00021127D02*
D03*
X00049806Y00020682D02*
D03*
X00049070Y00021127D02*
D03*
X00048624Y00020682D02*
D03*
X00047889Y00021127D02*
D03*
X00047443Y00020682D02*
D03*
X00046708Y00021127D02*
D03*
X00046262Y00020682D02*
D03*
X00045527Y00021127D02*
D03*
X00045081Y00020682D02*
D03*
X00044345Y00021127D02*
D03*
X00043900Y00020682D02*
D03*
X00043164Y00021127D02*
D03*
X00042719Y00020682D02*
D03*
X00041983Y00021127D02*
D03*
X00041538Y00020682D02*
D03*
X00040802Y00021127D02*
D03*
X00040357Y00020682D02*
D03*
X00039621Y00021127D02*
D03*
X00039176Y00020682D02*
D03*
X00038440Y00021127D02*
D03*
X00037995Y00020682D02*
D03*
X00037259Y00021127D02*
D03*
X00036813Y00020682D02*
D03*
X00036078Y00021127D02*
D03*
X00035632Y00020682D02*
D03*
X00034897Y00021127D02*
D03*
X00034451Y00020682D02*
D03*
X00033716Y00021127D02*
D03*
X00033270Y00020682D02*
D03*
X00032534Y00021127D02*
D03*
X00032089Y00020682D02*
D03*
X00031353Y00021127D02*
D03*
X00030908Y00020682D02*
D03*
X00030172Y00021127D02*
D03*
X00029727Y00020682D02*
D03*
X00028991Y00021127D02*
D03*
X00028546Y00020682D02*
D03*
X00027810Y00021127D02*
D03*
X00027365Y00020682D02*
D03*
X00026629Y00021127D02*
D03*
X00026184Y00020682D02*
D03*
X00025448Y00021127D02*
D03*
X00025002Y00020682D02*
D03*
X00024267Y00021127D02*
D03*
X00023821Y00020682D02*
D03*
X00023086Y00021127D02*
D03*
X00022640Y00020682D02*
D03*
X00021905Y00021127D02*
D03*
X00021459Y00020682D02*
D03*
X00020723Y00021127D02*
D03*
X00020278Y00020682D02*
D03*
X00019542Y00021127D02*
D03*
X00019097Y00020682D02*
D03*
X00018361Y00021127D02*
D03*
X00017916Y00020682D02*
D03*
X00017180Y00021127D02*
D03*
X00016735Y00020682D02*
D03*
X00015999Y00021127D02*
D03*
X00015554Y00020682D02*
D03*
X00014818Y00021127D02*
D03*
X00014372Y00020682D02*
D03*
X00013637Y00021127D02*
D03*
X00013191Y00020682D02*
D03*
X00012456Y00021127D02*
D03*
X00012010Y00020682D02*
D03*
X00011275Y00021127D02*
D03*
X00010829Y00020682D02*
D03*
X00010094Y00021127D02*
D03*
X00009648Y00020682D02*
D03*
X00008912Y00021127D02*
D03*
X00008467Y00020682D02*
D03*
X00007731Y00021127D02*
D03*
X00007286Y00020682D02*
D03*
X00006550Y00021127D02*
D03*
X00006105Y00020682D02*
D03*
X00005369Y00021127D02*
D03*
X00004924Y00020682D02*
D03*
X00050251Y00022308D02*
D03*
X00049806Y00021863D02*
D03*
X00049070Y00022308D02*
D03*
X00048624Y00021863D02*
D03*
X00047889Y00022308D02*
D03*
X00047443Y00021863D02*
D03*
X00046708Y00022308D02*
D03*
X00046262Y00021863D02*
D03*
X00045527Y00022308D02*
D03*
X00045081Y00021863D02*
D03*
X00044345Y00022308D02*
D03*
X00043900Y00021863D02*
D03*
X00043164Y00022308D02*
D03*
X00042719Y00021863D02*
D03*
X00041983Y00022308D02*
D03*
X00041538Y00021863D02*
D03*
X00040802Y00022308D02*
D03*
X00040357Y00021863D02*
D03*
X00039621Y00022308D02*
D03*
X00039176Y00021863D02*
D03*
X00038440Y00022308D02*
D03*
X00037995Y00021863D02*
D03*
X00037259Y00022308D02*
D03*
X00036813Y00021863D02*
D03*
X00036078Y00022308D02*
D03*
X00035632Y00021863D02*
D03*
X00034897Y00022308D02*
D03*
X00034451Y00021863D02*
D03*
X00033716Y00022308D02*
D03*
X00033270Y00021863D02*
D03*
X00032534Y00022308D02*
D03*
X00032089Y00021863D02*
D03*
X00031353Y00022308D02*
D03*
X00030908Y00021863D02*
D03*
X00030172Y00022308D02*
D03*
X00029727Y00021863D02*
D03*
X00028991Y00022308D02*
D03*
X00028546Y00021863D02*
D03*
X00027810Y00022308D02*
D03*
X00027365Y00021863D02*
D03*
X00026629Y00022308D02*
D03*
X00026184Y00021863D02*
D03*
X00025448Y00022308D02*
D03*
X00025002Y00021863D02*
D03*
X00024267Y00022308D02*
D03*
X00023821Y00021863D02*
D03*
X00023086Y00022308D02*
D03*
X00022640Y00021863D02*
D03*
X00021905Y00022308D02*
D03*
X00021459Y00021863D02*
D03*
X00020723Y00022308D02*
D03*
X00020278Y00021863D02*
D03*
X00019542Y00022308D02*
D03*
X00019097Y00021863D02*
D03*
X00018361Y00022308D02*
D03*
X00017916Y00021863D02*
D03*
X00017180Y00022308D02*
D03*
X00016735Y00021863D02*
D03*
X00015999Y00022308D02*
D03*
X00015554Y00021863D02*
D03*
X00014818Y00022308D02*
D03*
X00014372Y00021863D02*
D03*
X00013637Y00022308D02*
D03*
X00013191Y00021863D02*
D03*
X00012456Y00022308D02*
D03*
X00012010Y00021863D02*
D03*
X00011275Y00022308D02*
D03*
X00010829Y00021863D02*
D03*
X00010094Y00022308D02*
D03*
X00009648Y00021863D02*
D03*
X00008912Y00022308D02*
D03*
X00008467Y00021863D02*
D03*
X00007731Y00022308D02*
D03*
X00007286Y00021863D02*
D03*
X00006550Y00022308D02*
D03*
X00006105Y00021863D02*
D03*
X00005369Y00022308D02*
D03*
X00004924Y00021863D02*
D03*
X00050251Y00023489D02*
D03*
X00049806Y00023044D02*
D03*
X00049070Y00023489D02*
D03*
X00048624Y00023044D02*
D03*
X00047889Y00023489D02*
D03*
X00047443Y00023044D02*
D03*
X00046708Y00023489D02*
D03*
X00046262Y00023044D02*
D03*
X00045527Y00023489D02*
D03*
X00045081Y00023044D02*
D03*
X00044345Y00023489D02*
D03*
X00043900Y00023044D02*
D03*
X00043164Y00023489D02*
D03*
X00042719Y00023044D02*
D03*
X00041983Y00023489D02*
D03*
X00041538Y00023044D02*
D03*
X00040802Y00023489D02*
D03*
X00040357Y00023044D02*
D03*
X00039621Y00023489D02*
D03*
X00039176Y00023044D02*
D03*
X00038440Y00023489D02*
D03*
X00037995Y00023044D02*
D03*
X00037259Y00023489D02*
D03*
X00036813Y00023044D02*
D03*
X00036078Y00023489D02*
D03*
X00035632Y00023044D02*
D03*
X00034897Y00023489D02*
D03*
X00034451Y00023044D02*
D03*
X00033716Y00023489D02*
D03*
X00033270Y00023044D02*
D03*
X00032534Y00023489D02*
D03*
X00032089Y00023044D02*
D03*
X00031353Y00023489D02*
D03*
X00030908Y00023044D02*
D03*
X00030172Y00023489D02*
D03*
X00029727Y00023044D02*
D03*
X00028991Y00023489D02*
D03*
X00028546Y00023044D02*
D03*
X00027810Y00023489D02*
D03*
X00027365Y00023044D02*
D03*
X00026629Y00023489D02*
D03*
X00026184Y00023044D02*
D03*
X00025448Y00023489D02*
D03*
X00025002Y00023044D02*
D03*
X00024267Y00023489D02*
D03*
X00023821Y00023044D02*
D03*
X00023086Y00023489D02*
D03*
X00022640Y00023044D02*
D03*
X00021905Y00023489D02*
D03*
X00021459Y00023044D02*
D03*
X00020723Y00023489D02*
D03*
X00020278Y00023044D02*
D03*
X00019542Y00023489D02*
D03*
X00019097Y00023044D02*
D03*
X00018361Y00023489D02*
D03*
X00017916Y00023044D02*
D03*
X00017180Y00023489D02*
D03*
X00016735Y00023044D02*
D03*
X00015999Y00023489D02*
D03*
X00015554Y00023044D02*
D03*
X00014818Y00023489D02*
D03*
X00014372Y00023044D02*
D03*
X00013637Y00023489D02*
D03*
X00013191Y00023044D02*
D03*
X00012456Y00023489D02*
D03*
X00012010Y00023044D02*
D03*
X00011275Y00023489D02*
D03*
X00010829Y00023044D02*
D03*
X00010094Y00023489D02*
D03*
X00009648Y00023044D02*
D03*
X00008912Y00023489D02*
D03*
X00008467Y00023044D02*
D03*
X00007731Y00023489D02*
D03*
X00007286Y00023044D02*
D03*
X00006550Y00023489D02*
D03*
X00006105Y00023044D02*
D03*
X00005369Y00023489D02*
D03*
X00004924Y00023044D02*
D03*
X00050251Y00024670D02*
D03*
X00049806Y00024225D02*
D03*
X00049070Y00024670D02*
D03*
X00048624Y00024225D02*
D03*
X00047889Y00024670D02*
D03*
X00047443Y00024225D02*
D03*
X00046708Y00024670D02*
D03*
X00046262Y00024225D02*
D03*
X00045527Y00024670D02*
D03*
X00045081Y00024225D02*
D03*
X00044345Y00024670D02*
D03*
X00043900Y00024225D02*
D03*
X00043164Y00024670D02*
D03*
X00042719Y00024225D02*
D03*
X00041983Y00024670D02*
D03*
X00041538Y00024225D02*
D03*
X00040802Y00024670D02*
D03*
X00040357Y00024225D02*
D03*
X00039621Y00024670D02*
D03*
X00039176Y00024225D02*
D03*
X00038440Y00024670D02*
D03*
X00037995Y00024225D02*
D03*
X00037259Y00024670D02*
D03*
X00036813Y00024225D02*
D03*
X00036078Y00024670D02*
D03*
X00035632Y00024225D02*
D03*
X00034897Y00024670D02*
D03*
X00034451Y00024225D02*
D03*
X00033716Y00024670D02*
D03*
X00033270Y00024225D02*
D03*
X00032534Y00024670D02*
D03*
X00032089Y00024225D02*
D03*
X00031353Y00024670D02*
D03*
X00030908Y00024225D02*
D03*
X00030172Y00024670D02*
D03*
X00029727Y00024225D02*
D03*
X00028991Y00024670D02*
D03*
X00028546Y00024225D02*
D03*
X00027810Y00024670D02*
D03*
X00027365Y00024225D02*
D03*
X00026629Y00024670D02*
D03*
X00026184Y00024225D02*
D03*
X00025448Y00024670D02*
D03*
X00025002Y00024225D02*
D03*
X00024267Y00024670D02*
D03*
X00023821Y00024225D02*
D03*
X00023086Y00024670D02*
D03*
X00022640Y00024225D02*
D03*
X00021905Y00024670D02*
D03*
X00021459Y00024225D02*
D03*
X00020723Y00024670D02*
D03*
X00020278Y00024225D02*
D03*
X00019542Y00024670D02*
D03*
X00019097Y00024225D02*
D03*
X00018361Y00024670D02*
D03*
X00017916Y00024225D02*
D03*
X00017180Y00024670D02*
D03*
X00016735Y00024225D02*
D03*
X00015999Y00024670D02*
D03*
X00015554Y00024225D02*
D03*
X00014818Y00024670D02*
D03*
X00014372Y00024225D02*
D03*
X00013637Y00024670D02*
D03*
X00013191Y00024225D02*
D03*
X00012456Y00024670D02*
D03*
X00012010Y00024225D02*
D03*
X00011275Y00024670D02*
D03*
X00010829Y00024225D02*
D03*
X00010094Y00024670D02*
D03*
X00009648Y00024225D02*
D03*
X00008912Y00024670D02*
D03*
X00008467Y00024225D02*
D03*
X00007731Y00024670D02*
D03*
X00007286Y00024225D02*
D03*
X00006550Y00024670D02*
D03*
X00006105Y00024225D02*
D03*
X00005369Y00024670D02*
D03*
X00004924Y00024225D02*
D03*
X00050251Y00025851D02*
D03*
X00049806Y00025406D02*
D03*
X00049070Y00025851D02*
D03*
X00048624Y00025406D02*
D03*
X00047889Y00025851D02*
D03*
X00047443Y00025406D02*
D03*
X00046708Y00025851D02*
D03*
X00046262Y00025406D02*
D03*
X00045527Y00025851D02*
D03*
X00045081Y00025406D02*
D03*
X00044345Y00025851D02*
D03*
X00043900Y00025406D02*
D03*
X00043164Y00025851D02*
D03*
X00042719Y00025406D02*
D03*
X00041983Y00025851D02*
D03*
X00041538Y00025406D02*
D03*
X00040802Y00025851D02*
D03*
X00040357Y00025406D02*
D03*
X00039621Y00025851D02*
D03*
X00039176Y00025406D02*
D03*
X00038440Y00025851D02*
D03*
X00037995Y00025406D02*
D03*
X00037259Y00025851D02*
D03*
X00036813Y00025406D02*
D03*
X00036078Y00025851D02*
D03*
X00035632Y00025406D02*
D03*
X00034897Y00025851D02*
D03*
X00034451Y00025406D02*
D03*
X00033716Y00025851D02*
D03*
X00033270Y00025406D02*
D03*
X00032534Y00025851D02*
D03*
X00032089Y00025406D02*
D03*
X00031353Y00025851D02*
D03*
X00030908Y00025406D02*
D03*
X00030172Y00025851D02*
D03*
X00029727Y00025406D02*
D03*
X00028991Y00025851D02*
D03*
X00028546Y00025406D02*
D03*
X00027810Y00025851D02*
D03*
X00027365Y00025406D02*
D03*
X00026629Y00025851D02*
D03*
X00026184Y00025406D02*
D03*
X00025448Y00025851D02*
D03*
X00025002Y00025406D02*
D03*
X00024267Y00025851D02*
D03*
X00023821Y00025406D02*
D03*
X00023086Y00025851D02*
D03*
X00022640Y00025406D02*
D03*
X00021905Y00025851D02*
D03*
X00021459Y00025406D02*
D03*
X00020723Y00025851D02*
D03*
X00020278Y00025406D02*
D03*
X00019542Y00025851D02*
D03*
X00019097Y00025406D02*
D03*
X00018361Y00025851D02*
D03*
X00017916Y00025406D02*
D03*
X00017180Y00025851D02*
D03*
X00016735Y00025406D02*
D03*
X00015999Y00025851D02*
D03*
X00015554Y00025406D02*
D03*
X00014818Y00025851D02*
D03*
X00014372Y00025406D02*
D03*
X00013637Y00025851D02*
D03*
X00013191Y00025406D02*
D03*
X00012456Y00025851D02*
D03*
X00012010Y00025406D02*
D03*
X00011275Y00025851D02*
D03*
X00010829Y00025406D02*
D03*
X00010094Y00025851D02*
D03*
X00009648Y00025406D02*
D03*
X00008912Y00025851D02*
D03*
X00008467Y00025406D02*
D03*
X00007731Y00025851D02*
D03*
X00007286Y00025406D02*
D03*
X00006550Y00025851D02*
D03*
X00006105Y00025406D02*
D03*
X00005369Y00025851D02*
D03*
X00004924Y00025406D02*
D03*
X00050251Y00027032D02*
D03*
X00049806Y00026587D02*
D03*
X00049070Y00027032D02*
D03*
X00048624Y00026587D02*
D03*
X00047889Y00027032D02*
D03*
X00047443Y00026587D02*
D03*
X00046708Y00027032D02*
D03*
X00046262Y00026587D02*
D03*
X00045527Y00027032D02*
D03*
X00045081Y00026587D02*
D03*
X00044345Y00027032D02*
D03*
X00043900Y00026587D02*
D03*
X00043164Y00027032D02*
D03*
X00042719Y00026587D02*
D03*
X00041983Y00027032D02*
D03*
X00041538Y00026587D02*
D03*
X00040802Y00027032D02*
D03*
X00040357Y00026587D02*
D03*
X00039621Y00027032D02*
D03*
X00039176Y00026587D02*
D03*
X00038440Y00027032D02*
D03*
X00037995Y00026587D02*
D03*
X00037259Y00027032D02*
D03*
X00036813Y00026587D02*
D03*
X00036078Y00027032D02*
D03*
X00035632Y00026587D02*
D03*
X00034897Y00027032D02*
D03*
X00034451Y00026587D02*
D03*
X00033716Y00027032D02*
D03*
X00033270Y00026587D02*
D03*
X00032534Y00027032D02*
D03*
X00032089Y00026587D02*
D03*
X00031353Y00027032D02*
D03*
X00030908Y00026587D02*
D03*
X00030172Y00027032D02*
D03*
X00029727Y00026587D02*
D03*
X00028991Y00027032D02*
D03*
X00028546Y00026587D02*
D03*
X00027810Y00027032D02*
D03*
X00027365Y00026587D02*
D03*
X00026629Y00027032D02*
D03*
X00026184Y00026587D02*
D03*
X00025448Y00027032D02*
D03*
X00025002Y00026587D02*
D03*
X00024267Y00027032D02*
D03*
X00023821Y00026587D02*
D03*
X00023086Y00027032D02*
D03*
X00022640Y00026587D02*
D03*
X00021905Y00027032D02*
D03*
X00021459Y00026587D02*
D03*
X00020723Y00027032D02*
D03*
X00020278Y00026587D02*
D03*
X00019542Y00027032D02*
D03*
X00019097Y00026587D02*
D03*
X00018361Y00027032D02*
D03*
X00017916Y00026587D02*
D03*
X00017180Y00027032D02*
D03*
X00016735Y00026587D02*
D03*
X00015999Y00027032D02*
D03*
X00015554Y00026587D02*
D03*
X00014818Y00027032D02*
D03*
X00014372Y00026587D02*
D03*
X00013637Y00027032D02*
D03*
X00013191Y00026587D02*
D03*
X00012456Y00027032D02*
D03*
X00012010Y00026587D02*
D03*
X00011275Y00027032D02*
D03*
X00010829Y00026587D02*
D03*
X00010094Y00027032D02*
D03*
X00009648Y00026587D02*
D03*
X00008912Y00027032D02*
D03*
X00008467Y00026587D02*
D03*
X00007731Y00027032D02*
D03*
X00007286Y00026587D02*
D03*
X00006550Y00027032D02*
D03*
X00006105Y00026587D02*
D03*
X00005369Y00027032D02*
D03*
X00004924Y00026587D02*
D03*
X00050251Y00028214D02*
D03*
X00049806Y00027768D02*
D03*
X00049070Y00028214D02*
D03*
X00048624Y00027768D02*
D03*
X00047889Y00028214D02*
D03*
X00047443Y00027768D02*
D03*
X00046708Y00028214D02*
D03*
X00046262Y00027768D02*
D03*
X00045527Y00028214D02*
D03*
X00045081Y00027768D02*
D03*
X00044345Y00028214D02*
D03*
X00043900Y00027768D02*
D03*
X00043164Y00028214D02*
D03*
X00042719Y00027768D02*
D03*
X00041983Y00028214D02*
D03*
X00041538Y00027768D02*
D03*
X00040802Y00028214D02*
D03*
X00040357Y00027768D02*
D03*
X00039621Y00028214D02*
D03*
X00039176Y00027768D02*
D03*
X00038440Y00028214D02*
D03*
X00037995Y00027768D02*
D03*
X00037259Y00028214D02*
D03*
X00036813Y00027768D02*
D03*
X00036078Y00028214D02*
D03*
X00035632Y00027768D02*
D03*
X00034897Y00028214D02*
D03*
X00034451Y00027768D02*
D03*
X00033716Y00028214D02*
D03*
X00033270Y00027768D02*
D03*
X00032534Y00028214D02*
D03*
X00032089Y00027768D02*
D03*
X00031353Y00028214D02*
D03*
X00030908Y00027768D02*
D03*
X00030172Y00028214D02*
D03*
X00029727Y00027768D02*
D03*
X00028991Y00028214D02*
D03*
X00028546Y00027768D02*
D03*
X00027810Y00028214D02*
D03*
X00027365Y00027768D02*
D03*
X00026629Y00028214D02*
D03*
X00026184Y00027768D02*
D03*
X00025448Y00028214D02*
D03*
X00025002Y00027768D02*
D03*
X00024267Y00028214D02*
D03*
X00023821Y00027768D02*
D03*
X00023086Y00028214D02*
D03*
X00022640Y00027768D02*
D03*
X00021905Y00028214D02*
D03*
X00021459Y00027768D02*
D03*
X00020723Y00028214D02*
D03*
X00020278Y00027768D02*
D03*
X00019542Y00028214D02*
D03*
X00019097Y00027768D02*
D03*
X00018361Y00028214D02*
D03*
X00017916Y00027768D02*
D03*
X00017180Y00028214D02*
D03*
X00016735Y00027768D02*
D03*
X00015999Y00028214D02*
D03*
X00015554Y00027768D02*
D03*
X00014818Y00028214D02*
D03*
X00014372Y00027768D02*
D03*
X00013637Y00028214D02*
D03*
X00013191Y00027768D02*
D03*
X00012456Y00028214D02*
D03*
X00012010Y00027768D02*
D03*
X00011275Y00028214D02*
D03*
X00010829Y00027768D02*
D03*
X00010094Y00028214D02*
D03*
X00009648Y00027768D02*
D03*
X00008912Y00028214D02*
D03*
X00008467Y00027768D02*
D03*
X00007731Y00028214D02*
D03*
X00007286Y00027768D02*
D03*
X00006550Y00028214D02*
D03*
X00006105Y00027768D02*
D03*
X00005369Y00028214D02*
D03*
X00004924Y00027768D02*
D03*
X00050251Y00029395D02*
D03*
X00049806Y00028949D02*
D03*
X00049070Y00029395D02*
D03*
X00048624Y00028949D02*
D03*
X00047889Y00029395D02*
D03*
X00047443Y00028949D02*
D03*
X00046708Y00029395D02*
D03*
X00046262Y00028949D02*
D03*
X00045527Y00029395D02*
D03*
X00045081Y00028949D02*
D03*
X00044345Y00029395D02*
D03*
X00043900Y00028949D02*
D03*
X00043164Y00029395D02*
D03*
X00042719Y00028949D02*
D03*
X00041983Y00029395D02*
D03*
X00041538Y00028949D02*
D03*
X00040802Y00029395D02*
D03*
X00040357Y00028949D02*
D03*
X00039621Y00029395D02*
D03*
X00039176Y00028949D02*
D03*
X00038440Y00029395D02*
D03*
X00037995Y00028949D02*
D03*
X00037259Y00029395D02*
D03*
X00036813Y00028949D02*
D03*
X00036078Y00029395D02*
D03*
X00035632Y00028949D02*
D03*
X00034897Y00029395D02*
D03*
X00034451Y00028949D02*
D03*
X00033716Y00029395D02*
D03*
X00033270Y00028949D02*
D03*
X00032534Y00029395D02*
D03*
X00032089Y00028949D02*
D03*
X00031353Y00029395D02*
D03*
X00030908Y00028949D02*
D03*
X00030172Y00029395D02*
D03*
X00029727Y00028949D02*
D03*
X00028991Y00029395D02*
D03*
X00028546Y00028949D02*
D03*
X00027810Y00029395D02*
D03*
X00027365Y00028949D02*
D03*
X00026629Y00029395D02*
D03*
X00026184Y00028949D02*
D03*
X00025448Y00029395D02*
D03*
X00025002Y00028949D02*
D03*
X00024267Y00029395D02*
D03*
X00023821Y00028949D02*
D03*
X00023086Y00029395D02*
D03*
X00022640Y00028949D02*
D03*
X00021905Y00029395D02*
D03*
X00021459Y00028949D02*
D03*
X00020723Y00029395D02*
D03*
X00020278Y00028949D02*
D03*
X00019542Y00029395D02*
D03*
X00019097Y00028949D02*
D03*
X00018361Y00029395D02*
D03*
X00017916Y00028949D02*
D03*
X00017180Y00029395D02*
D03*
X00016735Y00028949D02*
D03*
X00015999Y00029395D02*
D03*
X00015554Y00028949D02*
D03*
X00014818Y00029395D02*
D03*
X00014372Y00028949D02*
D03*
X00013637Y00029395D02*
D03*
X00013191Y00028949D02*
D03*
X00012456Y00029395D02*
D03*
X00012010Y00028949D02*
D03*
X00011275Y00029395D02*
D03*
X00010829Y00028949D02*
D03*
X00010094Y00029395D02*
D03*
X00009648Y00028949D02*
D03*
X00008912Y00029395D02*
D03*
X00008467Y00028949D02*
D03*
X00007731Y00029395D02*
D03*
X00007286Y00028949D02*
D03*
X00006550Y00029395D02*
D03*
X00006105Y00028949D02*
D03*
X00005369Y00029395D02*
D03*
X00004924Y00028949D02*
D03*
X00050251Y00030576D02*
D03*
X00049806Y00030130D02*
D03*
X00049070Y00030576D02*
D03*
X00048624Y00030130D02*
D03*
X00047889Y00030576D02*
D03*
X00047443Y00030130D02*
D03*
X00046708Y00030576D02*
D03*
X00046262Y00030130D02*
D03*
X00045527Y00030576D02*
D03*
X00045081Y00030130D02*
D03*
X00044345Y00030576D02*
D03*
X00043900Y00030130D02*
D03*
X00043164Y00030576D02*
D03*
X00042719Y00030130D02*
D03*
X00041983Y00030576D02*
D03*
X00041538Y00030130D02*
D03*
X00040802Y00030576D02*
D03*
X00040357Y00030130D02*
D03*
X00039621Y00030576D02*
D03*
X00039176Y00030130D02*
D03*
X00038440Y00030576D02*
D03*
X00037995Y00030130D02*
D03*
X00037259Y00030576D02*
D03*
X00036813Y00030130D02*
D03*
X00036078Y00030576D02*
D03*
X00035632Y00030130D02*
D03*
X00034897Y00030576D02*
D03*
X00034451Y00030130D02*
D03*
X00033716Y00030576D02*
D03*
X00033270Y00030130D02*
D03*
X00032534Y00030576D02*
D03*
X00032089Y00030130D02*
D03*
X00031353Y00030576D02*
D03*
X00030908Y00030130D02*
D03*
X00030172Y00030576D02*
D03*
X00029727Y00030130D02*
D03*
X00028991Y00030576D02*
D03*
X00028546Y00030130D02*
D03*
X00027810Y00030576D02*
D03*
X00027365Y00030130D02*
D03*
X00026629Y00030576D02*
D03*
X00026184Y00030130D02*
D03*
X00025448Y00030576D02*
D03*
X00025002Y00030130D02*
D03*
X00024267Y00030576D02*
D03*
X00023821Y00030130D02*
D03*
X00023086Y00030576D02*
D03*
X00022640Y00030130D02*
D03*
X00021905Y00030576D02*
D03*
X00021459Y00030130D02*
D03*
X00020723Y00030576D02*
D03*
X00020278Y00030130D02*
D03*
X00019542Y00030576D02*
D03*
X00019097Y00030130D02*
D03*
X00018361Y00030576D02*
D03*
X00017916Y00030130D02*
D03*
X00017180Y00030576D02*
D03*
X00016735Y00030130D02*
D03*
X00015999Y00030576D02*
D03*
X00015554Y00030130D02*
D03*
X00014818Y00030576D02*
D03*
X00014372Y00030130D02*
D03*
X00013637Y00030576D02*
D03*
X00013191Y00030130D02*
D03*
X00012456Y00030576D02*
D03*
X00012010Y00030130D02*
D03*
X00011275Y00030576D02*
D03*
X00010829Y00030130D02*
D03*
X00010094Y00030576D02*
D03*
X00009648Y00030130D02*
D03*
X00008912Y00030576D02*
D03*
X00008467Y00030130D02*
D03*
X00007731Y00030576D02*
D03*
X00007286Y00030130D02*
D03*
X00006550Y00030576D02*
D03*
X00006105Y00030130D02*
D03*
X00005369Y00030576D02*
D03*
X00004924Y00030130D02*
D03*
D96*
X00033562Y00019488D02*
D03*
X00033566Y00031702D02*
D03*
X00008582Y00031702D02*
D03*
D97*
X00035562Y00019488D02*
D03*
X00036562Y00019488D02*
D03*
X00037562Y00019488D02*
D03*
X00038562Y00019488D02*
D03*
X00039562Y00019488D02*
D03*
X00040562Y00019488D02*
D03*
X00041562Y00019488D02*
D03*
X00034562Y00019488D02*
D03*
X00046566Y00031702D02*
D03*
X00045566Y00031702D02*
D03*
X00044566Y00031702D02*
D03*
X00043566Y00031702D02*
D03*
X00042566Y00031702D02*
D03*
X00041566Y00031702D02*
D03*
X00040566Y00031702D02*
D03*
X00039566Y00031702D02*
D03*
X00038566Y00031702D02*
D03*
X00037566Y00031702D02*
D03*
X00036566Y00031702D02*
D03*
X00035566Y00031702D02*
D03*
X00034566Y00031702D02*
D03*
X00009582Y00031702D02*
D03*
X00010582Y00031702D02*
D03*
X00011582Y00031702D02*
D03*
X00012582Y00031702D02*
D03*
X00013582Y00031702D02*
D03*
X00014582Y00031702D02*
D03*
X00015582Y00031702D02*
D03*
X00016582Y00031702D02*
D03*
X00017582Y00031702D02*
D03*
X00018582Y00031702D02*
D03*
X00019582Y00031702D02*
D03*
X00020582Y00031702D02*
D03*
X00021582Y00031702D02*
D03*
X00022582Y00031702D02*
D03*
X00023582Y00031702D02*
D03*
X00024582Y00031702D02*
D03*
X00025582Y00031702D02*
D03*
X00026582Y00031702D02*
D03*
X00027582Y00031702D02*
D03*
X00028582Y00031702D02*
D03*
X00029582Y00031702D02*
D03*
X00030582Y00031702D02*
D03*
X00031582Y00031702D02*
D03*
X00032582Y00031702D02*
D03*
D98*
X00043001Y00029773D02*
D03*
X00043120Y00020413D02*
D03*
X00041919Y00028740D02*
D03*
X00041919Y00020408D02*
D03*
X00040767Y00027564D02*
D03*
X00040767Y00020408D02*
D03*
X00039517Y00026338D02*
D03*
X00039517Y00020393D02*
D03*
X00038336Y00025118D02*
D03*
X00038336Y00020393D02*
D03*
X00037116Y00023937D02*
D03*
X00037116Y00020393D02*
D03*
X00036023Y00022765D02*
D03*
X00036023Y00020408D02*
D03*
X00034832Y00021614D02*
D03*
X00034812Y00020393D02*
D03*
X00008090Y00029763D02*
D03*
X00012814Y00029763D02*
D03*
X00005738Y00022667D02*
D03*
X00005738Y00021476D02*
D03*
X00005738Y00020305D02*
D03*
X00005728Y00023848D02*
D03*
X00005738Y00025029D02*
D03*
X00005738Y00026210D02*
D03*
X00005738Y00027391D02*
D03*
X00005728Y00028582D02*
D03*
X00005738Y00029763D02*
D03*
X00048257Y00029783D02*
D03*
X00048248Y00028602D02*
D03*
X00048257Y00027411D02*
D03*
X00048257Y00026230D02*
D03*
X00048257Y00025049D02*
D03*
X00048248Y00023868D02*
D03*
X00048257Y00022687D02*
D03*
X00048257Y00021496D02*
D03*
X00048257Y00020324D02*
D03*
X00047066Y00029783D02*
D03*
X00047057Y00028602D02*
D03*
X00047066Y00027411D02*
D03*
X00047066Y00026230D02*
D03*
X00047066Y00025049D02*
D03*
X00047057Y00023868D02*
D03*
X00047066Y00022687D02*
D03*
X00047066Y00021496D02*
D03*
X00047066Y00020324D02*
D03*
X00045885Y00029783D02*
D03*
X00045875Y00028602D02*
D03*
X00045885Y00027411D02*
D03*
X00045885Y00026230D02*
D03*
X00045885Y00025049D02*
D03*
X00045875Y00023868D02*
D03*
X00045885Y00022687D02*
D03*
X00045885Y00021496D02*
D03*
X00045885Y00020324D02*
D03*
X00044704Y00029783D02*
D03*
X00044694Y00028602D02*
D03*
X00044704Y00027411D02*
D03*
X00044704Y00026230D02*
D03*
X00044704Y00025049D02*
D03*
X00044694Y00023868D02*
D03*
X00044704Y00022687D02*
D03*
X00044704Y00021496D02*
D03*
X00044704Y00020324D02*
D03*
X00043533Y00029783D02*
D03*
X00043523Y00028602D02*
D03*
X00043533Y00027411D02*
D03*
X00043533Y00026230D02*
D03*
X00043533Y00025049D02*
D03*
X00043523Y00023868D02*
D03*
X00043533Y00022687D02*
D03*
X00043533Y00021496D02*
D03*
X00043533Y00020324D02*
D03*
X00042342Y00029783D02*
D03*
X00042332Y00028602D02*
D03*
X00042342Y00027411D02*
D03*
X00042342Y00026230D02*
D03*
X00042342Y00025049D02*
D03*
X00042332Y00023868D02*
D03*
X00042342Y00022687D02*
D03*
X00042342Y00021496D02*
D03*
X00042342Y00020324D02*
D03*
X00041171Y00029783D02*
D03*
X00041161Y00028602D02*
D03*
X00041171Y00027411D02*
D03*
X00041171Y00026230D02*
D03*
X00041171Y00025049D02*
D03*
X00041161Y00023868D02*
D03*
X00041171Y00022687D02*
D03*
X00041171Y00021496D02*
D03*
X00041171Y00020324D02*
D03*
X00039980Y00029783D02*
D03*
X00039970Y00028602D02*
D03*
X00039980Y00027411D02*
D03*
X00039980Y00026230D02*
D03*
X00039980Y00025049D02*
D03*
X00039970Y00023868D02*
D03*
X00039980Y00022687D02*
D03*
X00039980Y00021496D02*
D03*
X00039980Y00020324D02*
D03*
X00038799Y00029783D02*
D03*
X00038789Y00028602D02*
D03*
X00038799Y00027411D02*
D03*
X00038799Y00026230D02*
D03*
X00038799Y00025049D02*
D03*
X00038789Y00023868D02*
D03*
X00038799Y00022687D02*
D03*
X00038799Y00021496D02*
D03*
X00038799Y00020324D02*
D03*
X00037618Y00029783D02*
D03*
X00037608Y00028602D02*
D03*
X00037618Y00027411D02*
D03*
X00037618Y00026230D02*
D03*
X00037618Y00025049D02*
D03*
X00037608Y00023868D02*
D03*
X00037618Y00022687D02*
D03*
X00037618Y00021496D02*
D03*
X00037618Y00020324D02*
D03*
X00036437Y00029783D02*
D03*
X00036427Y00028602D02*
D03*
X00036437Y00027411D02*
D03*
X00036437Y00026230D02*
D03*
X00036437Y00025049D02*
D03*
X00036427Y00023868D02*
D03*
X00036437Y00022687D02*
D03*
X00036437Y00021496D02*
D03*
X00036437Y00020324D02*
D03*
X00035255Y00029783D02*
D03*
X00035246Y00028602D02*
D03*
X00035255Y00027411D02*
D03*
X00035255Y00026230D02*
D03*
X00035255Y00025049D02*
D03*
X00035246Y00023868D02*
D03*
X00035255Y00022687D02*
D03*
X00035255Y00021496D02*
D03*
X00035255Y00020324D02*
D03*
X00034074Y00029783D02*
D03*
X00034064Y00028602D02*
D03*
X00034074Y00027411D02*
D03*
X00034074Y00026230D02*
D03*
X00034074Y00025049D02*
D03*
X00034064Y00023868D02*
D03*
X00034074Y00022687D02*
D03*
X00034074Y00021496D02*
D03*
X00034074Y00020324D02*
D03*
X00032903Y00029783D02*
D03*
X00032893Y00028602D02*
D03*
X00032903Y00027411D02*
D03*
X00032903Y00026230D02*
D03*
X00032903Y00025049D02*
D03*
X00032893Y00023868D02*
D03*
X00032903Y00022687D02*
D03*
X00032903Y00021496D02*
D03*
X00032903Y00020324D02*
D03*
X00031712Y00029783D02*
D03*
X00031702Y00028602D02*
D03*
X00031712Y00027411D02*
D03*
X00031712Y00026230D02*
D03*
X00031712Y00025049D02*
D03*
X00031702Y00023868D02*
D03*
X00031712Y00022687D02*
D03*
X00031712Y00021496D02*
D03*
X00031712Y00020324D02*
D03*
X00030531Y00029783D02*
D03*
X00030521Y00028602D02*
D03*
X00030531Y00027411D02*
D03*
X00030531Y00026230D02*
D03*
X00030531Y00025049D02*
D03*
X00030521Y00023868D02*
D03*
X00030531Y00022687D02*
D03*
X00030531Y00021496D02*
D03*
X00030531Y00020324D02*
D03*
X00029340Y00029783D02*
D03*
X00029330Y00028602D02*
D03*
X00029340Y00027411D02*
D03*
X00029340Y00026230D02*
D03*
X00029340Y00025049D02*
D03*
X00029330Y00023868D02*
D03*
X00029340Y00022687D02*
D03*
X00029340Y00021496D02*
D03*
X00029340Y00020324D02*
D03*
X00028169Y00029763D02*
D03*
X00028159Y00028582D02*
D03*
X00028169Y00027391D02*
D03*
X00028169Y00026210D02*
D03*
X00028169Y00025029D02*
D03*
X00028159Y00023848D02*
D03*
X00028169Y00022667D02*
D03*
X00028169Y00021476D02*
D03*
X00028169Y00020305D02*
D03*
X00049438Y00029744D02*
D03*
X00049429Y00028562D02*
D03*
X00049438Y00027372D02*
D03*
X00049438Y00026190D02*
D03*
X00049438Y00025009D02*
D03*
X00049429Y00023828D02*
D03*
X00049438Y00022647D02*
D03*
X00049438Y00021456D02*
D03*
X00049438Y00020285D02*
D03*
X00026998Y00029763D02*
D03*
X00026988Y00028582D02*
D03*
X00026998Y00027391D02*
D03*
X00026998Y00026210D02*
D03*
X00026998Y00025029D02*
D03*
X00026988Y00023848D02*
D03*
X00026998Y00022667D02*
D03*
X00026998Y00021476D02*
D03*
X00026998Y00020305D02*
D03*
X00025807Y00029763D02*
D03*
X00025797Y00028582D02*
D03*
X00025807Y00027391D02*
D03*
X00025807Y00026210D02*
D03*
X00025807Y00025029D02*
D03*
X00025797Y00023848D02*
D03*
X00025807Y00022667D02*
D03*
X00025807Y00021476D02*
D03*
X00025807Y00020305D02*
D03*
X00024625Y00029763D02*
D03*
X00024616Y00028582D02*
D03*
X00024625Y00027391D02*
D03*
X00024625Y00026210D02*
D03*
X00024625Y00025029D02*
D03*
X00024616Y00023848D02*
D03*
X00024625Y00022667D02*
D03*
X00024625Y00021476D02*
D03*
X00024625Y00020305D02*
D03*
X00023444Y00029763D02*
D03*
X00023435Y00028582D02*
D03*
X00023444Y00027391D02*
D03*
X00023444Y00026210D02*
D03*
X00023444Y00025029D02*
D03*
X00023435Y00023848D02*
D03*
X00023444Y00022667D02*
D03*
X00023444Y00021476D02*
D03*
X00023444Y00020305D02*
D03*
X00022273Y00029763D02*
D03*
X00022263Y00028582D02*
D03*
X00022273Y00027391D02*
D03*
X00022273Y00026210D02*
D03*
X00022273Y00025029D02*
D03*
X00022263Y00023848D02*
D03*
X00022273Y00022667D02*
D03*
X00022273Y00021476D02*
D03*
X00022273Y00020305D02*
D03*
X00021082Y00029763D02*
D03*
X00021072Y00028582D02*
D03*
X00021082Y00027391D02*
D03*
X00021082Y00026210D02*
D03*
X00021082Y00025029D02*
D03*
X00021072Y00023848D02*
D03*
X00021082Y00022667D02*
D03*
X00021082Y00021476D02*
D03*
X00021082Y00020305D02*
D03*
X00019901Y00029763D02*
D03*
X00019891Y00028582D02*
D03*
X00019901Y00027391D02*
D03*
X00019901Y00026210D02*
D03*
X00019901Y00025029D02*
D03*
X00019891Y00023848D02*
D03*
X00019901Y00022667D02*
D03*
X00019901Y00021476D02*
D03*
X00019901Y00020305D02*
D03*
X00018720Y00029763D02*
D03*
X00018710Y00028582D02*
D03*
X00018720Y00027391D02*
D03*
X00018720Y00026210D02*
D03*
X00018720Y00025029D02*
D03*
X00018710Y00023848D02*
D03*
X00018720Y00022667D02*
D03*
X00018720Y00021476D02*
D03*
X00018720Y00020305D02*
D03*
X00017549Y00029763D02*
D03*
X00017539Y00028582D02*
D03*
X00017549Y00027391D02*
D03*
X00017549Y00026210D02*
D03*
X00017549Y00025029D02*
D03*
X00017539Y00023848D02*
D03*
X00017549Y00022667D02*
D03*
X00017549Y00021476D02*
D03*
X00017549Y00020305D02*
D03*
X00016368Y00029763D02*
D03*
X00016358Y00028582D02*
D03*
X00016368Y00027391D02*
D03*
X00016368Y00026210D02*
D03*
X00016368Y00025029D02*
D03*
X00016358Y00023848D02*
D03*
X00016368Y00022667D02*
D03*
X00016368Y00021476D02*
D03*
X00016368Y00020305D02*
D03*
X00015177Y00029763D02*
D03*
X00015167Y00028582D02*
D03*
X00015177Y00027391D02*
D03*
X00015177Y00026210D02*
D03*
X00015177Y00025029D02*
D03*
X00015167Y00023848D02*
D03*
X00015177Y00022667D02*
D03*
X00015177Y00021476D02*
D03*
X00015177Y00020305D02*
D03*
X00013996Y00029763D02*
D03*
X00013986Y00028582D02*
D03*
X00013996Y00027391D02*
D03*
X00013996Y00026210D02*
D03*
X00013996Y00025029D02*
D03*
X00013986Y00023848D02*
D03*
X00013996Y00022667D02*
D03*
X00013996Y00021476D02*
D03*
X00013996Y00020305D02*
D03*
X00012805Y00028582D02*
D03*
X00012814Y00027391D02*
D03*
X00012814Y00026210D02*
D03*
X00012814Y00025029D02*
D03*
X00012805Y00023848D02*
D03*
X00012814Y00022667D02*
D03*
X00012814Y00021476D02*
D03*
X00012814Y00020305D02*
D03*
X00011643Y00029763D02*
D03*
X00011633Y00028582D02*
D03*
X00011643Y00027391D02*
D03*
X00011643Y00026210D02*
D03*
X00011643Y00025029D02*
D03*
X00011633Y00023848D02*
D03*
X00011643Y00022667D02*
D03*
X00011643Y00021476D02*
D03*
X00011643Y00020305D02*
D03*
X00010462Y00029763D02*
D03*
X00010452Y00028582D02*
D03*
X00010462Y00027391D02*
D03*
X00010462Y00026210D02*
D03*
X00010462Y00025029D02*
D03*
X00010452Y00023848D02*
D03*
X00010462Y00022667D02*
D03*
X00010462Y00021476D02*
D03*
X00010462Y00020305D02*
D03*
X00009271Y00029763D02*
D03*
X00009261Y00028582D02*
D03*
X00009271Y00027391D02*
D03*
X00009271Y00026210D02*
D03*
X00009271Y00025029D02*
D03*
X00009261Y00023848D02*
D03*
X00009271Y00022667D02*
D03*
X00009271Y00021476D02*
D03*
X00009271Y00020305D02*
D03*
X00008080Y00028582D02*
D03*
X00008090Y00027391D02*
D03*
X00008090Y00026210D02*
D03*
X00008090Y00025029D02*
D03*
X00008080Y00023848D02*
D03*
X00008090Y00022667D02*
D03*
X00008090Y00021476D02*
D03*
X00008090Y00020305D02*
D03*
X00006909Y00029753D02*
D03*
X00006899Y00028572D02*
D03*
X00006909Y00027381D02*
D03*
X00006909Y00026200D02*
D03*
X00006909Y00025019D02*
D03*
X00006899Y00023838D02*
D03*
X00006909Y00022657D02*
D03*
X00006909Y00021466D02*
D03*
X00006909Y00020295D02*
D03*
D99*
X00003937Y00019685D02*
D03*
X00051181Y00019685D02*
D03*
X00051181Y00031496D02*
D03*
X00003937Y00031496D02*
D03*
M02*