%MOIN*%
%OFA0B0*%
%FSLAX44Y44*%
%IPPOS*%
%LPD*%
%ADD10C,0.011811023622047244*%
%ADD11C,0*%
%ADD12C,0.00984251968503937*%
%ADD13C,0.008*%
%ADD14C,0.0078740157480314977*%
%ADD15C,0.005*%
%ADD16C,0.01*%
%ADD17R,0.02X0.070866141732283464*%
%ADD28C,0.0078740157480314977*%
%ADD29C,0.005*%
%ADD30C,0.01*%
G01*
G75*
D10*
X00048196Y00014549D02*
G03*
X00048196Y00014549I-00000039D01*
G01*
D11*
X00027184Y00007720D02*
G03*
X00027184Y00007720I-00000078D01*
G01*
D12*
X00005764Y00011374D02*
G03*
X00005764Y00011374I-00000049D01*
G01*
X00015771Y00005085D02*
G03*
X00015771Y00005085I-00000049D01*
G01*
X00013411Y00007815D02*
G03*
X00013411Y00007815I-00000049D01*
G01*
X00006711Y00007815D02*
G03*
X00006711Y00007815I-00000049D01*
G01*
D13*
X00038664Y00010662D02*
G03*
X00038664Y00010662I-00000128D01*
G01*
D14*
X00032944Y00015857D02*
X00032944Y00016857D01*
X00007944Y00015857D02*
X00032944Y00015857D01*
X00007944Y00015857D02*
X00007944Y00016857D01*
X00008694Y00016857D01*
X00032944Y00016857D01*
X00033679Y00016857D02*
X00046929Y00016857D01*
X00032929Y00016857D02*
X00033679Y00016857D01*
X00032929Y00015857D02*
X00032929Y00016857D01*
X00032929Y00015857D02*
X00046929Y00015857D01*
X00046929Y00016857D01*
X00025744Y00004307D02*
X00025744Y00005307D01*
X00034744Y00005307D01*
X00034744Y00004307D02*
X00034744Y00005307D01*
X00025744Y00004307D02*
X00034744Y00004307D01*
X00002684Y00008993D02*
X00003274Y00008993D01*
X00002684Y00012655D02*
X00003274Y00012655D01*
X00002684Y00008993D02*
X00002684Y00012655D01*
X00022944Y00005222D02*
X00023944Y00005222D01*
X00022944Y00005222D02*
X00022944Y00010222D01*
X00023944Y00005222D02*
X00023944Y00010222D01*
X00022944Y00010222D02*
X00023944Y00010222D01*
X00016135Y00004967D02*
X00016253Y00004967D01*
X00016135Y00003746D02*
X00016253Y00003746D01*
X00016135Y00003746D02*
X00016135Y00004967D01*
X00016253Y00003746D02*
X00016253Y00004967D01*
X00013834Y00007697D02*
X00014070Y00007697D01*
X00014070Y00007382D02*
X00014070Y00007697D01*
X00013834Y00006516D02*
X00014070Y00006516D01*
X00014070Y00006831D01*
X00007134Y00007697D02*
X00007370Y00007697D01*
X00007370Y00007382D02*
X00007370Y00007697D01*
X00007134Y00006516D02*
X00007370Y00006516D01*
X00007370Y00006831D01*
X00027788Y00013661D02*
X00028452Y00013661D01*
X00027788Y00012952D02*
X00028452Y00012952D01*
X00028452Y00013661D01*
D15*
X00048634Y00006779D02*
X00048634Y00013834D01*
X00041075Y00006763D02*
X00041370Y00006763D01*
X00041075Y00006763D02*
X00041075Y00007748D01*
X00041075Y00012866D02*
X00041075Y00013850D01*
X00041370Y00013850D01*
X00048457Y00006763D02*
X00051114Y00006763D01*
X00051114Y00013850D01*
X00048457Y00013850D02*
X00051114Y00013850D01*
X00029672Y00010647D02*
X00029672Y00010785D01*
X00026916Y00010647D02*
X00026916Y00010785D01*
X00029672Y00008029D02*
X00029672Y00008166D01*
X00026916Y00008029D02*
X00026916Y00008166D01*
X00029535Y00010785D02*
X00029672Y00010785D01*
X00026916Y00010785D02*
X00027054Y00010785D01*
X00029535Y00008029D02*
X00029672Y00008029D01*
X00026916Y00008029D02*
X00027054Y00008029D01*
X00018746Y00007293D02*
X00018844Y00007450D01*
X00018943Y00007293D01*
X00018746Y00007293D02*
X00018943Y00007293D01*
X00018687Y00007293D02*
X00018687Y00007450D01*
X00019002Y00007293D02*
X00019002Y00007450D01*
D16*
X00037394Y00010107D02*
X00037394Y00010257D01*
X00037394Y00010107D02*
X00038894Y00010107D01*
X00038894Y00010257D01*
X00037394Y00014207D02*
X00037394Y00014357D01*
X00038894Y00014357D01*
X00038894Y00014207D02*
X00038894Y00014357D01*
X00029554Y00013547D02*
X00030144Y00013547D01*
X00029554Y00012366D02*
X00029554Y00013547D01*
X00029554Y00012366D02*
X00030735Y00012366D01*
X00030735Y00013547D01*
X00030144Y00013547D02*
X00030735Y00013547D01*
X00008004Y00017197D02*
X00008004Y00017796D01*
X00008304Y00017796D01*
X00008404Y00017696D01*
X00008404Y00017497D01*
X00008304Y00017397D01*
X00008004Y00017397D01*
X00009004Y00017796D02*
X00008604Y00017796D01*
X00008604Y00017497D01*
X00008804Y00017596D01*
X00008904Y00017596D01*
X00009004Y00017497D01*
X00009004Y00017297D01*
X00008904Y00017197D01*
X00008704Y00017197D01*
X00008604Y00017297D01*
X00032984Y00017297D02*
X00032984Y00017896D01*
X00033284Y00017896D01*
X00033384Y00017796D01*
X00033384Y00017596D01*
X00033284Y00017497D01*
X00032984Y00017497D01*
X00033584Y00017796D02*
X00033684Y00017896D01*
X00033884Y00017896D01*
X00033984Y00017796D01*
X00033984Y00017696D01*
X00033884Y00017596D01*
X00033784Y00017596D01*
X00033884Y00017596D01*
X00033984Y00017497D01*
X00033984Y00017397D01*
X00033884Y00017297D01*
X00033684Y00017297D01*
X00033584Y00017397D01*
X00034184Y00017197D02*
X00034584Y00017197D01*
X00034784Y00017297D02*
X00034984Y00017297D01*
X00034884Y00017297D01*
X00034884Y00017896D01*
X00034784Y00017796D01*
X00029599Y00014561D02*
X00029599Y00014062D01*
X00029699Y00013962D01*
X00029899Y00013962D01*
X00029999Y00014062D01*
X00029999Y00014561D01*
X00030199Y00014461D02*
X00030299Y00014561D01*
X00030499Y00014561D01*
X00030599Y00014461D01*
X00030599Y00014361D01*
X00030499Y00014261D01*
X00030399Y00014261D01*
X00030499Y00014261D01*
X00030599Y00014162D01*
X00030599Y00014062D01*
X00030499Y00013962D01*
X00030299Y00013962D01*
X00030199Y00014062D01*
X00015359Y00006081D02*
X00015359Y00005582D01*
X00015459Y00005482D01*
X00015659Y00005482D01*
X00015759Y00005582D01*
X00015759Y00006081D01*
X00016359Y00005482D02*
X00015959Y00005482D01*
X00016359Y00005881D01*
X00016359Y00005981D01*
X00016259Y00006081D01*
X00016059Y00006081D01*
X00015959Y00005981D01*
X00040874Y00015546D02*
X00040874Y00015047D01*
X00040974Y00014947D01*
X00041174Y00014947D01*
X00041274Y00015047D01*
X00041274Y00015546D01*
X00041474Y00014947D02*
X00041674Y00014947D01*
X00041574Y00014947D01*
X00041574Y00015546D01*
X00041474Y00015446D01*
X00010879Y00014471D02*
X00010779Y00014571D01*
X00010579Y00014571D01*
X00010479Y00014471D01*
X00010479Y00014371D01*
X00010579Y00014271D01*
X00010779Y00014271D01*
X00010879Y00014171D01*
X00010879Y00014072D01*
X00010779Y00013972D01*
X00010579Y00013972D01*
X00010479Y00014072D01*
X00011379Y00013972D02*
X00011379Y00014571D01*
X00011079Y00014271D01*
X00011479Y00014271D01*
X00019929Y00014471D02*
X00019829Y00014571D01*
X00019629Y00014571D01*
X00019529Y00014471D01*
X00019529Y00014371D01*
X00019629Y00014271D01*
X00019829Y00014271D01*
X00019929Y00014171D01*
X00019929Y00014072D01*
X00019829Y00013972D01*
X00019629Y00013972D01*
X00019529Y00014072D01*
X00020129Y00014471D02*
X00020229Y00014571D01*
X00020429Y00014571D01*
X00020529Y00014471D01*
X00020529Y00014371D01*
X00020429Y00014271D01*
X00020329Y00014271D01*
X00020429Y00014271D01*
X00020529Y00014171D01*
X00020529Y00014072D01*
X00020429Y00013972D01*
X00020229Y00013972D01*
X00020129Y00014072D01*
X00016929Y00014471D02*
X00016829Y00014571D01*
X00016629Y00014571D01*
X00016529Y00014471D01*
X00016529Y00014371D01*
X00016629Y00014271D01*
X00016829Y00014271D01*
X00016929Y00014171D01*
X00016929Y00014072D01*
X00016829Y00013972D01*
X00016629Y00013972D01*
X00016529Y00014072D01*
X00017529Y00013972D02*
X00017129Y00013972D01*
X00017529Y00014371D01*
X00017529Y00014471D01*
X00017429Y00014571D01*
X00017229Y00014571D01*
X00017129Y00014471D01*
X00013879Y00014471D02*
X00013779Y00014571D01*
X00013579Y00014571D01*
X00013479Y00014471D01*
X00013479Y00014371D01*
X00013579Y00014271D01*
X00013779Y00014271D01*
X00013879Y00014171D01*
X00013879Y00014072D01*
X00013779Y00013972D01*
X00013579Y00013972D01*
X00013479Y00014072D01*
X00014079Y00013972D02*
X00014279Y00013972D01*
X00014179Y00013972D01*
X00014179Y00014571D01*
X00014079Y00014471D01*
X00005679Y00013982D02*
X00005679Y00014581D01*
X00005979Y00014581D01*
X00006079Y00014481D01*
X00006079Y00014282D01*
X00005979Y00014182D01*
X00005679Y00014182D01*
X00005879Y00014182D02*
X00006079Y00013982D01*
X00006279Y00013982D02*
X00006479Y00013982D01*
X00006379Y00013982D01*
X00006379Y00014581D01*
X00006279Y00014481D01*
X00007179Y00013982D02*
X00006779Y00013982D01*
X00007179Y00014381D01*
X00007179Y00014481D01*
X00007079Y00014581D01*
X00006879Y00014581D01*
X00006779Y00014481D01*
X00022569Y00013972D02*
X00022569Y00014571D01*
X00022869Y00014571D01*
X00022969Y00014471D01*
X00022969Y00014271D01*
X00022869Y00014171D01*
X00022569Y00014171D01*
X00022769Y00014171D02*
X00022969Y00013972D01*
X00023169Y00013972D02*
X00023369Y00013972D01*
X00023269Y00013972D01*
X00023269Y00014571D01*
X00023169Y00014471D01*
X00023669Y00013972D02*
X00023869Y00013972D01*
X00023769Y00013972D01*
X00023769Y00014571D01*
X00023669Y00014471D01*
X00008679Y00008232D02*
X00008679Y00008831D01*
X00008979Y00008831D01*
X00009079Y00008731D01*
X00009079Y00008531D01*
X00008979Y00008431D01*
X00008679Y00008431D01*
X00008879Y00008431D02*
X00009079Y00008232D01*
X00009279Y00008232D02*
X00009479Y00008232D01*
X00009379Y00008232D01*
X00009379Y00008831D01*
X00009279Y00008731D01*
X00009779Y00008731D02*
X00009879Y00008831D01*
X00010079Y00008831D01*
X00010179Y00008731D01*
X00010179Y00008332D01*
X00010079Y00008232D01*
X00009879Y00008232D01*
X00009779Y00008332D01*
X00009779Y00008731D01*
X00015319Y00008222D02*
X00015319Y00008821D01*
X00015619Y00008821D01*
X00015719Y00008721D01*
X00015719Y00008521D01*
X00015619Y00008422D01*
X00015319Y00008422D01*
X00015519Y00008422D02*
X00015719Y00008222D01*
X00015919Y00008322D02*
X00016019Y00008222D01*
X00016219Y00008222D01*
X00016319Y00008322D01*
X00016319Y00008721D01*
X00016219Y00008821D01*
X00016019Y00008821D01*
X00015919Y00008721D01*
X00015919Y00008621D01*
X00016019Y00008521D01*
X00016319Y00008521D01*
X00017019Y00008222D02*
X00017019Y00008821D01*
X00017319Y00008821D01*
X00017419Y00008721D01*
X00017419Y00008521D01*
X00017319Y00008422D01*
X00017019Y00008422D01*
X00017219Y00008422D02*
X00017419Y00008222D01*
X00017619Y00008721D02*
X00017719Y00008821D01*
X00017919Y00008821D01*
X00018019Y00008721D01*
X00018019Y00008621D01*
X00017919Y00008521D01*
X00018019Y00008422D01*
X00018019Y00008322D01*
X00017919Y00008222D01*
X00017719Y00008222D01*
X00017619Y00008322D01*
X00017619Y00008422D01*
X00017719Y00008521D01*
X00017619Y00008621D01*
X00017619Y00008721D01*
X00017719Y00008521D02*
X00017919Y00008521D01*
X00007469Y00005472D02*
X00007469Y00006071D01*
X00007769Y00006071D01*
X00007869Y00005971D01*
X00007869Y00005771D01*
X00007769Y00005671D01*
X00007469Y00005671D01*
X00007669Y00005671D02*
X00007869Y00005472D01*
X00008069Y00006071D02*
X00008469Y00006071D01*
X00008469Y00005971D01*
X00008069Y00005572D01*
X00008069Y00005472D01*
X00013669Y00005472D02*
X00013669Y00006071D01*
X00013969Y00006071D01*
X00014069Y00005971D01*
X00014069Y00005771D01*
X00013969Y00005671D01*
X00013669Y00005671D01*
X00013869Y00005671D02*
X00014069Y00005472D01*
X00014669Y00006071D02*
X00014469Y00005971D01*
X00014269Y00005771D01*
X00014269Y00005572D01*
X00014369Y00005472D01*
X00014569Y00005472D01*
X00014669Y00005572D01*
X00014669Y00005671D01*
X00014569Y00005771D01*
X00014269Y00005771D01*
X00011969Y00005472D02*
X00011969Y00006071D01*
X00012269Y00006071D01*
X00012369Y00005971D01*
X00012369Y00005771D01*
X00012269Y00005671D01*
X00011969Y00005671D01*
X00012169Y00005671D02*
X00012369Y00005472D01*
X00012969Y00006071D02*
X00012569Y00006071D01*
X00012569Y00005771D01*
X00012769Y00005871D01*
X00012869Y00005871D01*
X00012969Y00005771D01*
X00012969Y00005572D01*
X00012869Y00005472D01*
X00012669Y00005472D01*
X00012569Y00005572D01*
X00031119Y00007322D02*
X00031119Y00007921D01*
X00031419Y00007921D01*
X00031519Y00007821D01*
X00031519Y00007621D01*
X00031419Y00007522D01*
X00031119Y00007522D01*
X00031319Y00007522D02*
X00031519Y00007322D01*
X00032019Y00007322D02*
X00032019Y00007921D01*
X00031719Y00007621D01*
X00032119Y00007621D01*
X00034519Y00007322D02*
X00034519Y00007921D01*
X00034819Y00007921D01*
X00034919Y00007821D01*
X00034919Y00007621D01*
X00034819Y00007522D01*
X00034519Y00007522D01*
X00034719Y00007522D02*
X00034919Y00007322D01*
X00035119Y00007821D02*
X00035219Y00007921D01*
X00035419Y00007921D01*
X00035519Y00007821D01*
X00035519Y00007721D01*
X00035419Y00007621D01*
X00035319Y00007621D01*
X00035419Y00007621D01*
X00035519Y00007522D01*
X00035519Y00007422D01*
X00035419Y00007322D01*
X00035219Y00007322D01*
X00035119Y00007422D01*
X00032819Y00007322D02*
X00032819Y00007921D01*
X00033119Y00007921D01*
X00033219Y00007821D01*
X00033219Y00007621D01*
X00033119Y00007522D01*
X00032819Y00007522D01*
X00033019Y00007522D02*
X00033219Y00007322D01*
X00033819Y00007322D02*
X00033419Y00007322D01*
X00033819Y00007721D01*
X00033819Y00007821D01*
X00033719Y00007921D01*
X00033519Y00007921D01*
X00033419Y00007821D01*
X00036219Y00007322D02*
X00036219Y00007921D01*
X00036519Y00007921D01*
X00036619Y00007821D01*
X00036619Y00007621D01*
X00036519Y00007522D01*
X00036219Y00007522D01*
X00036419Y00007522D02*
X00036619Y00007322D01*
X00036819Y00007322D02*
X00037019Y00007322D01*
X00036919Y00007322D01*
X00036919Y00007921D01*
X00036819Y00007821D01*
X00006639Y00008312D02*
X00006639Y00008711D01*
X00006539Y00008811D01*
X00006339Y00008811D01*
X00006239Y00008711D01*
X00006239Y00008312D01*
X00006339Y00008212D01*
X00006539Y00008212D01*
X00006439Y00008412D02*
X00006639Y00008212D01*
X00006539Y00008212D02*
X00006639Y00008312D01*
X00007239Y00008212D02*
X00006839Y00008212D01*
X00007239Y00008611D01*
X00007239Y00008711D01*
X00007139Y00008811D01*
X00006939Y00008811D01*
X00006839Y00008711D01*
X00013339Y00008312D02*
X00013339Y00008711D01*
X00013239Y00008811D01*
X00013039Y00008811D01*
X00012939Y00008711D01*
X00012939Y00008312D01*
X00013039Y00008212D01*
X00013239Y00008212D01*
X00013139Y00008412D02*
X00013339Y00008212D01*
X00013239Y00008212D02*
X00013339Y00008312D01*
X00013539Y00008212D02*
X00013739Y00008212D01*
X00013639Y00008212D01*
X00013639Y00008811D01*
X00013539Y00008711D01*
X00023009Y00010557D02*
X00023009Y00011156D01*
X00023309Y00011156D01*
X00023409Y00011056D01*
X00023409Y00010856D01*
X00023309Y00010756D01*
X00023009Y00010756D01*
X00024009Y00011156D02*
X00023809Y00011056D01*
X00023609Y00010856D01*
X00023609Y00010656D01*
X00023709Y00010557D01*
X00023909Y00010557D01*
X00024009Y00010656D01*
X00024009Y00010756D01*
X00023909Y00010856D01*
X00023609Y00010856D01*
X00025804Y00005647D02*
X00025804Y00006246D01*
X00026104Y00006246D01*
X00026204Y00006146D01*
X00026204Y00005946D01*
X00026104Y00005846D01*
X00025804Y00005846D01*
X00026404Y00006146D02*
X00026504Y00006246D01*
X00026704Y00006246D01*
X00026804Y00006146D01*
X00026804Y00006046D01*
X00026704Y00005946D01*
X00026604Y00005946D01*
X00026704Y00005946D01*
X00026804Y00005846D01*
X00026804Y00005747D01*
X00026704Y00005647D01*
X00026504Y00005647D01*
X00026404Y00005747D01*
X00003134Y00013714D02*
X00002934Y00013714D01*
X00003034Y00013714D01*
X00003034Y00013214D01*
X00002934Y00013114D01*
X00002834Y00013114D01*
X00002734Y00013214D01*
X00003334Y00013114D02*
X00003534Y00013114D01*
X00003434Y00013114D01*
X00003434Y00013714D01*
X00003334Y00013614D01*
X00027369Y00014601D02*
X00027369Y00014002D01*
X00027669Y00014002D01*
X00027769Y00014102D01*
X00027769Y00014501D01*
X00027669Y00014601D01*
X00027369Y00014601D01*
X00027969Y00014002D02*
X00028169Y00014002D01*
X00028069Y00014002D01*
X00028069Y00014601D01*
X00027969Y00014501D01*
X00008279Y00014481D02*
X00008179Y00014581D01*
X00007979Y00014581D01*
X00007879Y00014481D01*
X00007879Y00014082D01*
X00007979Y00013982D01*
X00008179Y00013982D01*
X00008279Y00014082D01*
X00008479Y00013982D02*
X00008679Y00013982D01*
X00008579Y00013982D01*
X00008579Y00014581D01*
X00008479Y00014481D01*
X00009379Y00014581D02*
X00008979Y00014581D01*
X00008979Y00014282D01*
X00009179Y00014381D01*
X00009279Y00014381D01*
X00009379Y00014282D01*
X00009379Y00014082D01*
X00009279Y00013982D01*
X00009079Y00013982D01*
X00008979Y00014082D01*
X00009579Y00013982D02*
X00009779Y00013982D01*
X00009679Y00013982D01*
X00009679Y00014581D01*
X00009579Y00014481D01*
X00024979Y00014481D02*
X00024879Y00014581D01*
X00024679Y00014581D01*
X00024579Y00014481D01*
X00024579Y00014082D01*
X00024679Y00013982D01*
X00024879Y00013982D01*
X00024979Y00014082D01*
X00025179Y00013982D02*
X00025379Y00013982D01*
X00025279Y00013982D01*
X00025279Y00014581D01*
X00025179Y00014481D01*
X00026079Y00014581D02*
X00025679Y00014581D01*
X00025679Y00014282D01*
X00025879Y00014381D01*
X00025979Y00014381D01*
X00026079Y00014282D01*
X00026079Y00014082D01*
X00025979Y00013982D01*
X00025779Y00013982D01*
X00025679Y00014082D01*
X00026279Y00014481D02*
X00026379Y00014581D01*
X00026579Y00014581D01*
X00026679Y00014481D01*
X00026679Y00014082D01*
X00026579Y00013982D01*
X00026379Y00013982D01*
X00026279Y00014082D01*
X00026279Y00014481D01*
X00019109Y00008721D02*
X00019009Y00008821D01*
X00018809Y00008821D01*
X00018709Y00008721D01*
X00018709Y00008322D01*
X00018809Y00008222D01*
X00019009Y00008222D01*
X00019109Y00008322D01*
X00019309Y00008222D02*
X00019509Y00008222D01*
X00019409Y00008222D01*
X00019409Y00008821D01*
X00019309Y00008721D01*
X00020109Y00008222D02*
X00020109Y00008821D01*
X00019809Y00008521D01*
X00020209Y00008521D01*
X00020409Y00008322D02*
X00020509Y00008222D01*
X00020709Y00008222D01*
X00020809Y00008322D01*
X00020809Y00008721D01*
X00020709Y00008821D01*
X00020509Y00008821D01*
X00020409Y00008721D01*
X00020409Y00008621D01*
X00020509Y00008521D01*
X00020809Y00008521D01*
X00009579Y00005981D02*
X00009479Y00006081D01*
X00009279Y00006081D01*
X00009179Y00005981D01*
X00009179Y00005582D01*
X00009279Y00005482D01*
X00009479Y00005482D01*
X00009579Y00005582D01*
X00009779Y00005482D02*
X00009979Y00005482D01*
X00009879Y00005482D01*
X00009879Y00006081D01*
X00009779Y00005981D01*
X00010579Y00005482D02*
X00010579Y00006081D01*
X00010279Y00005781D01*
X00010679Y00005781D01*
X00010879Y00005981D02*
X00010979Y00006081D01*
X00011179Y00006081D01*
X00011279Y00005981D01*
X00011279Y00005881D01*
X00011179Y00005781D01*
X00011279Y00005681D01*
X00011279Y00005582D01*
X00011179Y00005482D01*
X00010979Y00005482D01*
X00010879Y00005582D01*
X00010879Y00005681D01*
X00010979Y00005781D01*
X00010879Y00005881D01*
X00010879Y00005981D01*
X00010979Y00005781D02*
X00011179Y00005781D01*
X00047579Y00005531D02*
X00047479Y00005631D01*
X00047279Y00005631D01*
X00047179Y00005531D01*
X00047179Y00005132D01*
X00047279Y00005032D01*
X00047479Y00005032D01*
X00047579Y00005132D01*
X00047779Y00005032D02*
X00047979Y00005032D01*
X00047879Y00005032D01*
X00047879Y00005631D01*
X00047779Y00005531D01*
X00048579Y00005032D02*
X00048579Y00005631D01*
X00048279Y00005332D01*
X00048679Y00005332D01*
X00048879Y00005631D02*
X00049279Y00005631D01*
X00049279Y00005531D01*
X00048879Y00005132D01*
X00048879Y00005032D01*
X00044779Y00005531D02*
X00044679Y00005631D01*
X00044479Y00005631D01*
X00044379Y00005531D01*
X00044379Y00005132D01*
X00044479Y00005032D01*
X00044679Y00005032D01*
X00044779Y00005132D01*
X00044979Y00005032D02*
X00045179Y00005032D01*
X00045079Y00005032D01*
X00045079Y00005631D01*
X00044979Y00005531D01*
X00045779Y00005032D02*
X00045779Y00005631D01*
X00045479Y00005332D01*
X00045879Y00005332D01*
X00046479Y00005631D02*
X00046279Y00005531D01*
X00046079Y00005332D01*
X00046079Y00005132D01*
X00046179Y00005032D01*
X00046379Y00005032D01*
X00046479Y00005132D01*
X00046479Y00005231D01*
X00046379Y00005332D01*
X00046079Y00005332D01*
X00041979Y00005531D02*
X00041879Y00005631D01*
X00041679Y00005631D01*
X00041579Y00005531D01*
X00041579Y00005132D01*
X00041679Y00005032D01*
X00041879Y00005032D01*
X00041979Y00005132D01*
X00042179Y00005032D02*
X00042379Y00005032D01*
X00042279Y00005032D01*
X00042279Y00005631D01*
X00042179Y00005531D01*
X00042979Y00005032D02*
X00042979Y00005631D01*
X00042679Y00005332D01*
X00043079Y00005332D01*
X00043679Y00005631D02*
X00043279Y00005631D01*
X00043279Y00005332D01*
X00043479Y00005431D01*
X00043579Y00005431D01*
X00043679Y00005332D01*
X00043679Y00005132D01*
X00043579Y00005032D01*
X00043379Y00005032D01*
X00043279Y00005132D01*
X00036439Y00013712D02*
X00036039Y00013712D01*
X00036439Y00014111D01*
X00036439Y00014211D01*
X00036339Y00014311D01*
X00036139Y00014311D01*
X00036039Y00014211D01*
X00026169Y00010342D02*
X00026369Y00010342D01*
X00026269Y00010342D01*
X00026269Y00010941D01*
X00026169Y00010841D01*
X00003799Y00017331D02*
G03*
X00002618Y00016150J-00001181D01*
G01*
X00052224Y00016150D02*
G03*
X00051043Y00017331I-00001181D01*
G01*
X00051043Y00003158D02*
G03*
X00052224Y00004339J00001181D01*
G01*
X00002618Y00004339D02*
G03*
X00003799Y00003158I00001181D01*
G01*
X00002618Y00004339D02*
X00002618Y00016150D01*
X00003799Y00017321D02*
X00051043Y00017321D01*
X00003799Y00003158D02*
X00051043Y00003158D01*
X00052224Y00004339D02*
X00052224Y00016150D01*
D17*
X00028352Y00013307D02*
D03*
G04 next file*
G04*
G04 #@! TF.GenerationSoftware,Altium Limited,Altium Designer,18.1.9 (240)*
G04*
G04 Layer_Color=65535*
G04 skipping 71
G01*
G75*
D28*
X00014275Y00018889D02*
X00014275Y00019889D01*
X00005275Y00018889D02*
X00014275Y00018889D01*
X00005275Y00018889D02*
X00005275Y00019889D01*
X00014275Y00019889D01*
X00033816Y00032202D02*
X00047066Y00032202D01*
X00033066Y00032202D02*
X00033816Y00032202D01*
X00033066Y00031202D02*
X00033066Y00032202D01*
X00033066Y00031202D02*
X00047066Y00031202D01*
X00047066Y00032202D01*
X00033082Y00031202D02*
X00033082Y00032202D01*
X00008082Y00031202D02*
X00033082Y00031202D01*
X00008082Y00031202D02*
X00008082Y00032202D01*
X00008832Y00032202D01*
X00033082Y00032202D01*
D29*
X00049973Y00020849D02*
X00050154Y00020890D01*
X00049973Y00020849D02*
X00050014Y00021030D01*
X00050154Y00020890D01*
X00050084Y00020737D02*
X00050195Y00020849D01*
X00049861Y00020960D02*
X00049973Y00021071D01*
X00048792Y00020849D02*
X00048972Y00020890D01*
X00048792Y00020849D02*
X00048833Y00021030D01*
X00048972Y00020890D01*
X00048903Y00020737D02*
X00049014Y00020849D01*
X00048680Y00020960D02*
X00048792Y00021071D01*
X00047610Y00020849D02*
X00047791Y00020890D01*
X00047610Y00020849D02*
X00047652Y00021030D01*
X00047791Y00020890D01*
X00047722Y00020737D02*
X00047833Y00020849D01*
X00047499Y00020960D02*
X00047610Y00021071D01*
X00046429Y00020849D02*
X00046610Y00020890D01*
X00046429Y00020849D02*
X00046471Y00021030D01*
X00046610Y00020890D01*
X00046541Y00020737D02*
X00046652Y00020849D01*
X00046318Y00020960D02*
X00046429Y00021071D01*
X00045248Y00020849D02*
X00045429Y00020890D01*
X00045248Y00020849D02*
X00045290Y00021030D01*
X00045429Y00020890D01*
X00045360Y00020737D02*
X00045471Y00020849D01*
X00045137Y00020960D02*
X00045248Y00021071D01*
X00044067Y00020849D02*
X00044248Y00020890D01*
X00044067Y00020849D02*
X00044109Y00021030D01*
X00044248Y00020890D01*
X00044178Y00020737D02*
X00044290Y00020849D01*
X00043956Y00020960D02*
X00044067Y00021071D01*
X00042886Y00020849D02*
X00043067Y00020890D01*
X00042886Y00020849D02*
X00042928Y00021030D01*
X00043067Y00020890D01*
X00042997Y00020737D02*
X00043109Y00020849D01*
X00042775Y00020960D02*
X00042886Y00021071D01*
X00041705Y00020849D02*
X00041886Y00020890D01*
X00041705Y00020849D02*
X00041747Y00021030D01*
X00041886Y00020890D01*
X00041816Y00020737D02*
X00041928Y00020849D01*
X00041594Y00020960D02*
X00041705Y00021071D01*
X00040524Y00020849D02*
X00040705Y00020890D01*
X00040524Y00020849D02*
X00040566Y00021030D01*
X00040705Y00020890D01*
X00040635Y00020737D02*
X00040747Y00020849D01*
X00040412Y00020960D02*
X00040524Y00021071D01*
X00039343Y00020849D02*
X00039524Y00020890D01*
X00039343Y00020849D02*
X00039384Y00021030D01*
X00039524Y00020890D01*
X00039454Y00020737D02*
X00039565Y00020849D01*
X00039231Y00020960D02*
X00039343Y00021071D01*
X00038162Y00020849D02*
X00038343Y00020890D01*
X00038162Y00020849D02*
X00038203Y00021030D01*
X00038343Y00020890D01*
X00038273Y00020737D02*
X00038384Y00020849D01*
X00038050Y00020960D02*
X00038162Y00021071D01*
X00036980Y00020849D02*
X00037161Y00020890D01*
X00036980Y00020849D02*
X00037022Y00021030D01*
X00037161Y00020890D01*
X00037092Y00020737D02*
X00037203Y00020849D01*
X00036869Y00020960D02*
X00036980Y00021071D01*
X00035799Y00020849D02*
X00035980Y00020890D01*
X00035799Y00020849D02*
X00035841Y00021030D01*
X00035980Y00020890D01*
X00035911Y00020737D02*
X00036022Y00020849D01*
X00035688Y00020960D02*
X00035799Y00021071D01*
X00034618Y00020849D02*
X00034799Y00020890D01*
X00034618Y00020849D02*
X00034660Y00021030D01*
X00034799Y00020890D01*
X00034730Y00020737D02*
X00034841Y00020849D01*
X00034507Y00020960D02*
X00034618Y00021071D01*
X00033437Y00020849D02*
X00033618Y00020890D01*
X00033437Y00020849D02*
X00033479Y00021030D01*
X00033618Y00020890D01*
X00033549Y00020737D02*
X00033660Y00020849D01*
X00033326Y00020960D02*
X00033437Y00021071D01*
X00032256Y00020849D02*
X00032437Y00020890D01*
X00032256Y00020849D02*
X00032298Y00021030D01*
X00032437Y00020890D01*
X00032367Y00020737D02*
X00032479Y00020849D01*
X00032145Y00020960D02*
X00032256Y00021071D01*
X00031075Y00020849D02*
X00031256Y00020890D01*
X00031075Y00020849D02*
X00031117Y00021030D01*
X00031256Y00020890D01*
X00031186Y00020737D02*
X00031298Y00020849D01*
X00030964Y00020960D02*
X00031075Y00021071D01*
X00029894Y00020849D02*
X00030075Y00020890D01*
X00029894Y00020849D02*
X00029936Y00021030D01*
X00030075Y00020890D01*
X00030005Y00020737D02*
X00030117Y00020849D01*
X00029783Y00020960D02*
X00029894Y00021071D01*
X00028713Y00020849D02*
X00028894Y00020890D01*
X00028713Y00020849D02*
X00028755Y00021030D01*
X00028894Y00020890D01*
X00028824Y00020737D02*
X00028935Y00020849D01*
X00028601Y00020960D02*
X00028713Y00021071D01*
X00027532Y00020849D02*
X00027713Y00020890D01*
X00027532Y00020849D02*
X00027573Y00021030D01*
X00027713Y00020890D01*
X00027643Y00020737D02*
X00027754Y00020849D01*
X00027420Y00020960D02*
X00027532Y00021071D01*
X00026351Y00020849D02*
X00026532Y00020890D01*
X00026351Y00020849D02*
X00026392Y00021030D01*
X00026532Y00020890D01*
X00026462Y00020737D02*
X00026573Y00020849D01*
X00026239Y00020960D02*
X00026351Y00021071D01*
X00025169Y00020849D02*
X00025350Y00020890D01*
X00025169Y00020849D02*
X00025211Y00021030D01*
X00025350Y00020890D01*
X00025281Y00020737D02*
X00025392Y00020849D01*
X00025058Y00020960D02*
X00025169Y00021071D01*
X00023988Y00020849D02*
X00024169Y00020890D01*
X00023988Y00020849D02*
X00024030Y00021030D01*
X00024169Y00020890D01*
X00024100Y00020737D02*
X00024211Y00020849D01*
X00023877Y00020960D02*
X00023988Y00021071D01*
X00022807Y00020849D02*
X00022988Y00020890D01*
X00022807Y00020849D02*
X00022849Y00021030D01*
X00022988Y00020890D01*
X00022919Y00020737D02*
X00023030Y00020849D01*
X00022696Y00020960D02*
X00022807Y00021071D01*
X00021626Y00020849D02*
X00021807Y00020890D01*
X00021626Y00020849D02*
X00021668Y00021030D01*
X00021807Y00020890D01*
X00021737Y00020737D02*
X00021849Y00020849D01*
X00021515Y00020960D02*
X00021626Y00021071D01*
X00020445Y00020849D02*
X00020626Y00020890D01*
X00020445Y00020849D02*
X00020487Y00021030D01*
X00020626Y00020890D01*
X00020556Y00020737D02*
X00020668Y00020849D01*
X00020334Y00020960D02*
X00020445Y00021071D01*
X00019264Y00020849D02*
X00019445Y00020890D01*
X00019264Y00020849D02*
X00019306Y00021030D01*
X00019445Y00020890D01*
X00019375Y00020737D02*
X00019487Y00020849D01*
X00019153Y00020960D02*
X00019264Y00021071D01*
X00018083Y00020849D02*
X00018264Y00020890D01*
X00018083Y00020849D02*
X00018125Y00021030D01*
X00018264Y00020890D01*
X00018194Y00020737D02*
X00018306Y00020849D01*
X00017972Y00020960D02*
X00018083Y00021071D01*
X00016902Y00020849D02*
X00017083Y00020890D01*
X00016902Y00020849D02*
X00016944Y00021030D01*
X00017083Y00020890D01*
X00017013Y00020737D02*
X00017124Y00020849D01*
X00016790Y00020960D02*
X00016902Y00021071D01*
X00015721Y00020849D02*
X00015902Y00020890D01*
X00015721Y00020849D02*
X00015762Y00021030D01*
X00015902Y00020890D01*
X00015832Y00020737D02*
X00015943Y00020849D01*
X00015609Y00020960D02*
X00015721Y00021071D01*
X00014540Y00020849D02*
X00014720Y00020890D01*
X00014540Y00020849D02*
X00014581Y00021030D01*
X00014720Y00020890D01*
X00014651Y00020737D02*
X00014762Y00020849D01*
X00014428Y00020960D02*
X00014540Y00021071D01*
X00013358Y00020849D02*
X00013539Y00020890D01*
X00013358Y00020849D02*
X00013400Y00021030D01*
X00013539Y00020890D01*
X00013470Y00020737D02*
X00013581Y00020849D01*
X00013247Y00020960D02*
X00013358Y00021071D01*
X00012177Y00020849D02*
X00012358Y00020890D01*
X00012177Y00020849D02*
X00012219Y00021030D01*
X00012358Y00020890D01*
X00012289Y00020737D02*
X00012400Y00020849D01*
X00012066Y00020960D02*
X00012177Y00021071D01*
X00010996Y00020849D02*
X00011177Y00020890D01*
X00010996Y00020849D02*
X00011038Y00021030D01*
X00011177Y00020890D01*
X00011108Y00020737D02*
X00011219Y00020849D01*
X00010885Y00020960D02*
X00010996Y00021071D01*
X00009815Y00020849D02*
X00009996Y00020890D01*
X00009815Y00020849D02*
X00009857Y00021030D01*
X00009996Y00020890D01*
X00009926Y00020737D02*
X00010038Y00020849D01*
X00009704Y00020960D02*
X00009815Y00021071D01*
X00008634Y00020849D02*
X00008815Y00020890D01*
X00008634Y00020849D02*
X00008676Y00021030D01*
X00008815Y00020890D01*
X00008745Y00020737D02*
X00008857Y00020849D01*
X00008523Y00020960D02*
X00008634Y00021071D01*
X00007453Y00020849D02*
X00007634Y00020890D01*
X00007453Y00020849D02*
X00007495Y00021030D01*
X00007634Y00020890D01*
X00007564Y00020737D02*
X00007676Y00020849D01*
X00007342Y00020960D02*
X00007453Y00021071D01*
X00006272Y00020849D02*
X00006453Y00020890D01*
X00006272Y00020849D02*
X00006314Y00021030D01*
X00006453Y00020890D01*
X00006383Y00020737D02*
X00006495Y00020849D01*
X00006160Y00020960D02*
X00006272Y00021071D01*
X00005091Y00020849D02*
X00005272Y00020890D01*
X00005091Y00020849D02*
X00005132Y00021030D01*
X00005272Y00020890D01*
X00005202Y00020737D02*
X00005313Y00020849D01*
X00004979Y00020960D02*
X00005091Y00021071D01*
X00049973Y00022030D02*
X00050154Y00022071D01*
X00049973Y00022030D02*
X00050014Y00022211D01*
X00050154Y00022071D01*
X00050084Y00021918D02*
X00050195Y00022030D01*
X00049861Y00022141D02*
X00049973Y00022252D01*
X00048792Y00022030D02*
X00048972Y00022071D01*
X00048792Y00022030D02*
X00048833Y00022211D01*
X00048972Y00022071D01*
X00048903Y00021918D02*
X00049014Y00022030D01*
X00048680Y00022141D02*
X00048792Y00022252D01*
X00047610Y00022030D02*
X00047791Y00022071D01*
X00047610Y00022030D02*
X00047652Y00022211D01*
X00047791Y00022071D01*
X00047722Y00021918D02*
X00047833Y00022030D01*
X00047499Y00022141D02*
X00047610Y00022252D01*
X00046429Y00022030D02*
X00046610Y00022071D01*
X00046429Y00022030D02*
X00046471Y00022211D01*
X00046610Y00022071D01*
X00046541Y00021918D02*
X00046652Y00022030D01*
X00046318Y00022141D02*
X00046429Y00022252D01*
X00045248Y00022030D02*
X00045429Y00022071D01*
X00045248Y00022030D02*
X00045290Y00022211D01*
X00045429Y00022071D01*
X00045360Y00021918D02*
X00045471Y00022030D01*
X00045137Y00022141D02*
X00045248Y00022252D01*
X00044067Y00022030D02*
X00044248Y00022071D01*
X00044067Y00022030D02*
X00044109Y00022211D01*
X00044248Y00022071D01*
X00044178Y00021918D02*
X00044290Y00022030D01*
X00043956Y00022141D02*
X00044067Y00022252D01*
X00042886Y00022030D02*
X00043067Y00022071D01*
X00042886Y00022030D02*
X00042928Y00022211D01*
X00043067Y00022071D01*
X00042997Y00021918D02*
X00043109Y00022030D01*
X00042775Y00022141D02*
X00042886Y00022252D01*
X00041705Y00022030D02*
X00041886Y00022071D01*
X00041705Y00022030D02*
X00041747Y00022211D01*
X00041886Y00022071D01*
X00041816Y00021918D02*
X00041928Y00022030D01*
X00041594Y00022141D02*
X00041705Y00022252D01*
X00040524Y00022030D02*
X00040705Y00022071D01*
X00040524Y00022030D02*
X00040566Y00022211D01*
X00040705Y00022071D01*
X00040635Y00021918D02*
X00040747Y00022030D01*
X00040412Y00022141D02*
X00040524Y00022252D01*
X00039343Y00022030D02*
X00039524Y00022071D01*
X00039343Y00022030D02*
X00039384Y00022211D01*
X00039524Y00022071D01*
X00039454Y00021918D02*
X00039565Y00022030D01*
X00039231Y00022141D02*
X00039343Y00022252D01*
X00038162Y00022030D02*
X00038343Y00022071D01*
X00038162Y00022030D02*
X00038203Y00022211D01*
X00038343Y00022071D01*
X00038273Y00021918D02*
X00038384Y00022030D01*
X00038050Y00022141D02*
X00038162Y00022252D01*
X00036980Y00022030D02*
X00037161Y00022071D01*
X00036980Y00022030D02*
X00037022Y00022211D01*
X00037161Y00022071D01*
X00037092Y00021918D02*
X00037203Y00022030D01*
X00036869Y00022141D02*
X00036980Y00022252D01*
X00035799Y00022030D02*
X00035980Y00022071D01*
X00035799Y00022030D02*
X00035841Y00022211D01*
X00035980Y00022071D01*
X00035911Y00021918D02*
X00036022Y00022030D01*
X00035688Y00022141D02*
X00035799Y00022252D01*
X00034618Y00022030D02*
X00034799Y00022071D01*
X00034618Y00022030D02*
X00034660Y00022211D01*
X00034799Y00022071D01*
X00034730Y00021918D02*
X00034841Y00022030D01*
X00034507Y00022141D02*
X00034618Y00022252D01*
X00033437Y00022030D02*
X00033618Y00022071D01*
X00033437Y00022030D02*
X00033479Y00022211D01*
X00033618Y00022071D01*
X00033549Y00021918D02*
X00033660Y00022030D01*
X00033326Y00022141D02*
X00033437Y00022252D01*
X00032256Y00022030D02*
X00032437Y00022071D01*
X00032256Y00022030D02*
X00032298Y00022211D01*
X00032437Y00022071D01*
X00032367Y00021918D02*
X00032479Y00022030D01*
X00032145Y00022141D02*
X00032256Y00022252D01*
X00031075Y00022030D02*
X00031256Y00022071D01*
X00031075Y00022030D02*
X00031117Y00022211D01*
X00031256Y00022071D01*
X00031186Y00021918D02*
X00031298Y00022030D01*
X00030964Y00022141D02*
X00031075Y00022252D01*
X00029894Y00022030D02*
X00030075Y00022071D01*
X00029894Y00022030D02*
X00029936Y00022211D01*
X00030075Y00022071D01*
X00030005Y00021918D02*
X00030117Y00022030D01*
X00029783Y00022141D02*
X00029894Y00022252D01*
X00028713Y00022030D02*
X00028894Y00022071D01*
X00028713Y00022030D02*
X00028755Y00022211D01*
X00028894Y00022071D01*
X00028824Y00021918D02*
X00028935Y00022030D01*
X00028601Y00022141D02*
X00028713Y00022252D01*
X00027532Y00022030D02*
X00027713Y00022071D01*
X00027532Y00022030D02*
X00027573Y00022211D01*
X00027713Y00022071D01*
X00027643Y00021918D02*
X00027754Y00022030D01*
X00027420Y00022141D02*
X00027532Y00022252D01*
X00026351Y00022030D02*
X00026532Y00022071D01*
X00026351Y00022030D02*
X00026392Y00022211D01*
X00026532Y00022071D01*
X00026462Y00021918D02*
X00026573Y00022030D01*
X00026239Y00022141D02*
X00026351Y00022252D01*
X00025169Y00022030D02*
X00025350Y00022071D01*
X00025169Y00022030D02*
X00025211Y00022211D01*
X00025350Y00022071D01*
X00025281Y00021918D02*
X00025392Y00022030D01*
X00025058Y00022141D02*
X00025169Y00022252D01*
X00023988Y00022030D02*
X00024169Y00022071D01*
X00023988Y00022030D02*
X00024030Y00022211D01*
X00024169Y00022071D01*
X00024100Y00021918D02*
X00024211Y00022030D01*
X00023877Y00022141D02*
X00023988Y00022252D01*
X00022807Y00022030D02*
X00022988Y00022071D01*
X00022807Y00022030D02*
X00022849Y00022211D01*
X00022988Y00022071D01*
X00022919Y00021918D02*
X00023030Y00022030D01*
X00022696Y00022141D02*
X00022807Y00022252D01*
X00021626Y00022030D02*
X00021807Y00022071D01*
X00021626Y00022030D02*
X00021668Y00022211D01*
X00021807Y00022071D01*
X00021737Y00021918D02*
X00021849Y00022030D01*
X00021515Y00022141D02*
X00021626Y00022252D01*
X00020445Y00022030D02*
X00020626Y00022071D01*
X00020445Y00022030D02*
X00020487Y00022211D01*
X00020626Y00022071D01*
X00020556Y00021918D02*
X00020668Y00022030D01*
X00020334Y00022141D02*
X00020445Y00022252D01*
X00019264Y00022030D02*
X00019445Y00022071D01*
X00019264Y00022030D02*
X00019306Y00022211D01*
X00019445Y00022071D01*
X00019375Y00021918D02*
X00019487Y00022030D01*
X00019153Y00022141D02*
X00019264Y00022252D01*
X00018083Y00022030D02*
X00018264Y00022071D01*
X00018083Y00022030D02*
X00018125Y00022211D01*
X00018264Y00022071D01*
X00018194Y00021918D02*
X00018306Y00022030D01*
X00017972Y00022141D02*
X00018083Y00022252D01*
X00016902Y00022030D02*
X00017083Y00022071D01*
X00016902Y00022030D02*
X00016944Y00022211D01*
X00017083Y00022071D01*
X00017013Y00021918D02*
X00017124Y00022030D01*
X00016790Y00022141D02*
X00016902Y00022252D01*
X00015721Y00022030D02*
X00015902Y00022071D01*
X00015721Y00022030D02*
X00015762Y00022211D01*
X00015902Y00022071D01*
X00015832Y00021918D02*
X00015943Y00022030D01*
X00015609Y00022141D02*
X00015721Y00022252D01*
X00014540Y00022030D02*
X00014720Y00022071D01*
X00014540Y00022030D02*
X00014581Y00022211D01*
X00014720Y00022071D01*
X00014651Y00021918D02*
X00014762Y00022030D01*
X00014428Y00022141D02*
X00014540Y00022252D01*
X00013358Y00022030D02*
X00013539Y00022071D01*
X00013358Y00022030D02*
X00013400Y00022211D01*
X00013539Y00022071D01*
X00013470Y00021918D02*
X00013581Y00022030D01*
X00013247Y00022141D02*
X00013358Y00022252D01*
X00012177Y00022030D02*
X00012358Y00022071D01*
X00012177Y00022030D02*
X00012219Y00022211D01*
X00012358Y00022071D01*
X00012289Y00021918D02*
X00012400Y00022030D01*
X00012066Y00022141D02*
X00012177Y00022252D01*
X00010996Y00022030D02*
X00011177Y00022071D01*
X00010996Y00022030D02*
X00011038Y00022211D01*
X00011177Y00022071D01*
X00011108Y00021918D02*
X00011219Y00022030D01*
X00010885Y00022141D02*
X00010996Y00022252D01*
X00009815Y00022030D02*
X00009996Y00022071D01*
X00009815Y00022030D02*
X00009857Y00022211D01*
X00009996Y00022071D01*
X00009926Y00021918D02*
X00010038Y00022030D01*
X00009704Y00022141D02*
X00009815Y00022252D01*
X00008634Y00022030D02*
X00008815Y00022071D01*
X00008634Y00022030D02*
X00008676Y00022211D01*
X00008815Y00022071D01*
X00008745Y00021918D02*
X00008857Y00022030D01*
X00008523Y00022141D02*
X00008634Y00022252D01*
X00007453Y00022030D02*
X00007634Y00022071D01*
X00007453Y00022030D02*
X00007495Y00022211D01*
X00007634Y00022071D01*
X00007564Y00021918D02*
X00007676Y00022030D01*
X00007342Y00022141D02*
X00007453Y00022252D01*
X00006272Y00022030D02*
X00006453Y00022071D01*
X00006272Y00022030D02*
X00006314Y00022211D01*
X00006453Y00022071D01*
X00006383Y00021918D02*
X00006495Y00022030D01*
X00006160Y00022141D02*
X00006272Y00022252D01*
X00005091Y00022030D02*
X00005272Y00022071D01*
X00005091Y00022030D02*
X00005132Y00022211D01*
X00005272Y00022071D01*
X00005202Y00021918D02*
X00005313Y00022030D01*
X00004979Y00022141D02*
X00005091Y00022252D01*
X00049973Y00023211D02*
X00050154Y00023253D01*
X00049973Y00023211D02*
X00050014Y00023392D01*
X00050154Y00023253D01*
X00050084Y00023099D02*
X00050195Y00023211D01*
X00049861Y00023322D02*
X00049973Y00023434D01*
X00048792Y00023211D02*
X00048972Y00023253D01*
X00048792Y00023211D02*
X00048833Y00023392D01*
X00048972Y00023253D01*
X00048903Y00023099D02*
X00049014Y00023211D01*
X00048680Y00023322D02*
X00048792Y00023434D01*
X00047610Y00023211D02*
X00047791Y00023253D01*
X00047610Y00023211D02*
X00047652Y00023392D01*
X00047791Y00023253D01*
X00047722Y00023099D02*
X00047833Y00023211D01*
X00047499Y00023322D02*
X00047610Y00023434D01*
X00046429Y00023211D02*
X00046610Y00023253D01*
X00046429Y00023211D02*
X00046471Y00023392D01*
X00046610Y00023253D01*
X00046541Y00023099D02*
X00046652Y00023211D01*
X00046318Y00023322D02*
X00046429Y00023434D01*
X00045248Y00023211D02*
X00045429Y00023253D01*
X00045248Y00023211D02*
X00045290Y00023392D01*
X00045429Y00023253D01*
X00045360Y00023099D02*
X00045471Y00023211D01*
X00045137Y00023322D02*
X00045248Y00023434D01*
X00044067Y00023211D02*
X00044248Y00023253D01*
X00044067Y00023211D02*
X00044109Y00023392D01*
X00044248Y00023253D01*
X00044178Y00023099D02*
X00044290Y00023211D01*
X00043956Y00023322D02*
X00044067Y00023434D01*
X00042886Y00023211D02*
X00043067Y00023253D01*
X00042886Y00023211D02*
X00042928Y00023392D01*
X00043067Y00023253D01*
X00042997Y00023099D02*
X00043109Y00023211D01*
X00042775Y00023322D02*
X00042886Y00023434D01*
X00041705Y00023211D02*
X00041886Y00023253D01*
X00041705Y00023211D02*
X00041747Y00023392D01*
X00041886Y00023253D01*
X00041816Y00023099D02*
X00041928Y00023211D01*
X00041594Y00023322D02*
X00041705Y00023434D01*
X00040524Y00023211D02*
X00040705Y00023253D01*
X00040524Y00023211D02*
X00040566Y00023392D01*
X00040705Y00023253D01*
X00040635Y00023099D02*
X00040747Y00023211D01*
X00040412Y00023322D02*
X00040524Y00023434D01*
X00039343Y00023211D02*
X00039524Y00023253D01*
X00039343Y00023211D02*
X00039384Y00023392D01*
X00039524Y00023253D01*
X00039454Y00023099D02*
X00039565Y00023211D01*
X00039231Y00023322D02*
X00039343Y00023434D01*
X00038162Y00023211D02*
X00038343Y00023253D01*
X00038162Y00023211D02*
X00038203Y00023392D01*
X00038343Y00023253D01*
X00038273Y00023099D02*
X00038384Y00023211D01*
X00038050Y00023322D02*
X00038162Y00023434D01*
X00036980Y00023211D02*
X00037161Y00023253D01*
X00036980Y00023211D02*
X00037022Y00023392D01*
X00037161Y00023253D01*
X00037092Y00023099D02*
X00037203Y00023211D01*
X00036869Y00023322D02*
X00036980Y00023434D01*
X00035799Y00023211D02*
X00035980Y00023253D01*
X00035799Y00023211D02*
X00035841Y00023392D01*
X00035980Y00023253D01*
X00035911Y00023099D02*
X00036022Y00023211D01*
X00035688Y00023322D02*
X00035799Y00023434D01*
X00034618Y00023211D02*
X00034799Y00023253D01*
X00034618Y00023211D02*
X00034660Y00023392D01*
X00034799Y00023253D01*
X00034730Y00023099D02*
X00034841Y00023211D01*
X00034507Y00023322D02*
X00034618Y00023434D01*
X00033437Y00023211D02*
X00033618Y00023253D01*
X00033437Y00023211D02*
X00033479Y00023392D01*
X00033618Y00023253D01*
X00033549Y00023099D02*
X00033660Y00023211D01*
X00033326Y00023322D02*
X00033437Y00023434D01*
X00032256Y00023211D02*
X00032437Y00023253D01*
X00032256Y00023211D02*
X00032298Y00023392D01*
X00032437Y00023253D01*
X00032367Y00023099D02*
X00032479Y00023211D01*
X00032145Y00023322D02*
X00032256Y00023434D01*
X00031075Y00023211D02*
X00031256Y00023253D01*
X00031075Y00023211D02*
X00031117Y00023392D01*
X00031256Y00023253D01*
X00031186Y00023099D02*
X00031298Y00023211D01*
X00030964Y00023322D02*
X00031075Y00023434D01*
X00029894Y00023211D02*
X00030075Y00023253D01*
X00029894Y00023211D02*
X00029936Y00023392D01*
X00030075Y00023253D01*
X00030005Y00023099D02*
X00030117Y00023211D01*
X00029783Y00023322D02*
X00029894Y00023434D01*
X00028713Y00023211D02*
X00028894Y00023253D01*
X00028713Y00023211D02*
X00028755Y00023392D01*
X00028894Y00023253D01*
X00028824Y00023099D02*
X00028935Y00023211D01*
X00028601Y00023322D02*
X00028713Y00023434D01*
X00027532Y00023211D02*
X00027713Y00023253D01*
X00027532Y00023211D02*
X00027573Y00023392D01*
X00027713Y00023253D01*
X00027643Y00023099D02*
X00027754Y00023211D01*
X00027420Y00023322D02*
X00027532Y00023434D01*
X00026351Y00023211D02*
X00026532Y00023253D01*
X00026351Y00023211D02*
X00026392Y00023392D01*
X00026532Y00023253D01*
X00026462Y00023099D02*
X00026573Y00023211D01*
X00026239Y00023322D02*
X00026351Y00023434D01*
X00025169Y00023211D02*
X00025350Y00023253D01*
X00025169Y00023211D02*
X00025211Y00023392D01*
X00025350Y00023253D01*
X00025281Y00023099D02*
X00025392Y00023211D01*
X00025058Y00023322D02*
X00025169Y00023434D01*
X00023988Y00023211D02*
X00024169Y00023253D01*
X00023988Y00023211D02*
X00024030Y00023392D01*
X00024169Y00023253D01*
X00024100Y00023099D02*
X00024211Y00023211D01*
X00023877Y00023322D02*
X00023988Y00023434D01*
X00022807Y00023211D02*
X00022988Y00023253D01*
X00022807Y00023211D02*
X00022849Y00023392D01*
X00022988Y00023253D01*
X00022919Y00023099D02*
X00023030Y00023211D01*
X00022696Y00023322D02*
X00022807Y00023434D01*
X00021626Y00023211D02*
X00021807Y00023253D01*
X00021626Y00023211D02*
X00021668Y00023392D01*
X00021807Y00023253D01*
X00021737Y00023099D02*
X00021849Y00023211D01*
X00021515Y00023322D02*
X00021626Y00023434D01*
X00020445Y00023211D02*
X00020626Y00023253D01*
X00020445Y00023211D02*
X00020487Y00023392D01*
X00020626Y00023253D01*
X00020556Y00023099D02*
X00020668Y00023211D01*
X00020334Y00023322D02*
X00020445Y00023434D01*
X00019264Y00023211D02*
X00019445Y00023253D01*
X00019264Y00023211D02*
X00019306Y00023392D01*
X00019445Y00023253D01*
X00019375Y00023099D02*
X00019487Y00023211D01*
X00019153Y00023322D02*
X00019264Y00023434D01*
X00018083Y00023211D02*
X00018264Y00023253D01*
X00018083Y00023211D02*
X00018125Y00023392D01*
X00018264Y00023253D01*
X00018194Y00023099D02*
X00018306Y00023211D01*
X00017972Y00023322D02*
X00018083Y00023434D01*
X00016902Y00023211D02*
X00017083Y00023253D01*
X00016902Y00023211D02*
X00016944Y00023392D01*
X00017083Y00023253D01*
X00017013Y00023099D02*
X00017124Y00023211D01*
X00016790Y00023322D02*
X00016902Y00023434D01*
X00015721Y00023211D02*
X00015902Y00023253D01*
X00015721Y00023211D02*
X00015762Y00023392D01*
X00015902Y00023253D01*
X00015832Y00023099D02*
X00015943Y00023211D01*
X00015609Y00023322D02*
X00015721Y00023434D01*
X00014540Y00023211D02*
X00014720Y00023253D01*
X00014540Y00023211D02*
X00014581Y00023392D01*
X00014720Y00023253D01*
X00014651Y00023099D02*
X00014762Y00023211D01*
X00014428Y00023322D02*
X00014540Y00023434D01*
X00013358Y00023211D02*
X00013539Y00023253D01*
X00013358Y00023211D02*
X00013400Y00023392D01*
X00013539Y00023253D01*
X00013470Y00023099D02*
X00013581Y00023211D01*
X00013247Y00023322D02*
X00013358Y00023434D01*
X00012177Y00023211D02*
X00012358Y00023253D01*
X00012177Y00023211D02*
X00012219Y00023392D01*
X00012358Y00023253D01*
X00012289Y00023099D02*
X00012400Y00023211D01*
X00012066Y00023322D02*
X00012177Y00023434D01*
X00010996Y00023211D02*
X00011177Y00023253D01*
X00010996Y00023211D02*
X00011038Y00023392D01*
X00011177Y00023253D01*
X00011108Y00023099D02*
X00011219Y00023211D01*
X00010885Y00023322D02*
X00010996Y00023434D01*
X00009815Y00023211D02*
X00009996Y00023253D01*
X00009815Y00023211D02*
X00009857Y00023392D01*
X00009996Y00023253D01*
X00009926Y00023099D02*
X00010038Y00023211D01*
X00009704Y00023322D02*
X00009815Y00023434D01*
X00008634Y00023211D02*
X00008815Y00023253D01*
X00008634Y00023211D02*
X00008676Y00023392D01*
X00008815Y00023253D01*
X00008745Y00023099D02*
X00008857Y00023211D01*
X00008523Y00023322D02*
X00008634Y00023434D01*
X00007453Y00023211D02*
X00007634Y00023253D01*
X00007453Y00023211D02*
X00007495Y00023392D01*
X00007634Y00023253D01*
X00007564Y00023099D02*
X00007676Y00023211D01*
X00007342Y00023322D02*
X00007453Y00023434D01*
X00006272Y00023211D02*
X00006453Y00023253D01*
X00006272Y00023211D02*
X00006314Y00023392D01*
X00006453Y00023253D01*
X00006383Y00023099D02*
X00006495Y00023211D01*
X00006160Y00023322D02*
X00006272Y00023434D01*
X00005091Y00023211D02*
X00005272Y00023253D01*
X00005091Y00023211D02*
X00005132Y00023392D01*
X00005272Y00023253D01*
X00005202Y00023099D02*
X00005313Y00023211D01*
X00004979Y00023322D02*
X00005091Y00023434D01*
X00049973Y00024392D02*
X00050154Y00024434D01*
X00049973Y00024392D02*
X00050014Y00024573D01*
X00050154Y00024434D01*
X00050084Y00024281D02*
X00050195Y00024392D01*
X00049861Y00024503D02*
X00049973Y00024615D01*
X00048792Y00024392D02*
X00048972Y00024434D01*
X00048792Y00024392D02*
X00048833Y00024573D01*
X00048972Y00024434D01*
X00048903Y00024281D02*
X00049014Y00024392D01*
X00048680Y00024503D02*
X00048792Y00024615D01*
X00047610Y00024392D02*
X00047791Y00024434D01*
X00047610Y00024392D02*
X00047652Y00024573D01*
X00047791Y00024434D01*
X00047722Y00024281D02*
X00047833Y00024392D01*
X00047499Y00024503D02*
X00047610Y00024615D01*
X00046429Y00024392D02*
X00046610Y00024434D01*
X00046429Y00024392D02*
X00046471Y00024573D01*
X00046610Y00024434D01*
X00046541Y00024281D02*
X00046652Y00024392D01*
X00046318Y00024503D02*
X00046429Y00024615D01*
X00045248Y00024392D02*
X00045429Y00024434D01*
X00045248Y00024392D02*
X00045290Y00024573D01*
X00045429Y00024434D01*
X00045360Y00024281D02*
X00045471Y00024392D01*
X00045137Y00024503D02*
X00045248Y00024615D01*
X00044067Y00024392D02*
X00044248Y00024434D01*
X00044067Y00024392D02*
X00044109Y00024573D01*
X00044248Y00024434D01*
X00044178Y00024281D02*
X00044290Y00024392D01*
X00043956Y00024503D02*
X00044067Y00024615D01*
X00042886Y00024392D02*
X00043067Y00024434D01*
X00042886Y00024392D02*
X00042928Y00024573D01*
X00043067Y00024434D01*
X00042997Y00024281D02*
X00043109Y00024392D01*
X00042775Y00024503D02*
X00042886Y00024615D01*
X00041705Y00024392D02*
X00041886Y00024434D01*
X00041705Y00024392D02*
X00041747Y00024573D01*
X00041886Y00024434D01*
X00041816Y00024281D02*
X00041928Y00024392D01*
X00041594Y00024503D02*
X00041705Y00024615D01*
X00040524Y00024392D02*
X00040705Y00024434D01*
X00040524Y00024392D02*
X00040566Y00024573D01*
X00040705Y00024434D01*
X00040635Y00024281D02*
X00040747Y00024392D01*
X00040412Y00024503D02*
X00040524Y00024615D01*
X00039343Y00024392D02*
X00039524Y00024434D01*
X00039343Y00024392D02*
X00039384Y00024573D01*
X00039524Y00024434D01*
X00039454Y00024281D02*
X00039565Y00024392D01*
X00039231Y00024503D02*
X00039343Y00024615D01*
X00038162Y00024392D02*
X00038343Y00024434D01*
X00038162Y00024392D02*
X00038203Y00024573D01*
X00038343Y00024434D01*
X00038273Y00024281D02*
X00038384Y00024392D01*
X00038050Y00024503D02*
X00038162Y00024615D01*
X00036980Y00024392D02*
X00037161Y00024434D01*
X00036980Y00024392D02*
X00037022Y00024573D01*
X00037161Y00024434D01*
X00037092Y00024281D02*
X00037203Y00024392D01*
X00036869Y00024503D02*
X00036980Y00024615D01*
X00035799Y00024392D02*
X00035980Y00024434D01*
X00035799Y00024392D02*
X00035841Y00024573D01*
X00035980Y00024434D01*
X00035911Y00024281D02*
X00036022Y00024392D01*
X00035688Y00024503D02*
X00035799Y00024615D01*
X00034618Y00024392D02*
X00034799Y00024434D01*
X00034618Y00024392D02*
X00034660Y00024573D01*
X00034799Y00024434D01*
X00034730Y00024281D02*
X00034841Y00024392D01*
X00034507Y00024503D02*
X00034618Y00024615D01*
X00033437Y00024392D02*
X00033618Y00024434D01*
X00033437Y00024392D02*
X00033479Y00024573D01*
X00033618Y00024434D01*
X00033549Y00024281D02*
X00033660Y00024392D01*
X00033326Y00024503D02*
X00033437Y00024615D01*
X00032256Y00024392D02*
X00032437Y00024434D01*
X00032256Y00024392D02*
X00032298Y00024573D01*
X00032437Y00024434D01*
X00032367Y00024281D02*
X00032479Y00024392D01*
X00032145Y00024503D02*
X00032256Y00024615D01*
X00031075Y00024392D02*
X00031256Y00024434D01*
X00031075Y00024392D02*
X00031117Y00024573D01*
X00031256Y00024434D01*
X00031186Y00024281D02*
X00031298Y00024392D01*
X00030964Y00024503D02*
X00031075Y00024615D01*
X00029894Y00024392D02*
X00030075Y00024434D01*
X00029894Y00024392D02*
X00029936Y00024573D01*
X00030075Y00024434D01*
X00030005Y00024281D02*
X00030117Y00024392D01*
X00029783Y00024503D02*
X00029894Y00024615D01*
X00028713Y00024392D02*
X00028894Y00024434D01*
X00028713Y00024392D02*
X00028755Y00024573D01*
X00028894Y00024434D01*
X00028824Y00024281D02*
X00028935Y00024392D01*
X00028601Y00024503D02*
X00028713Y00024615D01*
X00027532Y00024392D02*
X00027713Y00024434D01*
X00027532Y00024392D02*
X00027573Y00024573D01*
X00027713Y00024434D01*
X00027643Y00024281D02*
X00027754Y00024392D01*
X00027420Y00024503D02*
X00027532Y00024615D01*
X00026351Y00024392D02*
X00026532Y00024434D01*
X00026351Y00024392D02*
X00026392Y00024573D01*
X00026532Y00024434D01*
X00026462Y00024281D02*
X00026573Y00024392D01*
X00026239Y00024503D02*
X00026351Y00024615D01*
X00025169Y00024392D02*
X00025350Y00024434D01*
X00025169Y00024392D02*
X00025211Y00024573D01*
X00025350Y00024434D01*
X00025281Y00024281D02*
X00025392Y00024392D01*
X00025058Y00024503D02*
X00025169Y00024615D01*
X00023988Y00024392D02*
X00024169Y00024434D01*
X00023988Y00024392D02*
X00024030Y00024573D01*
X00024169Y00024434D01*
X00024100Y00024281D02*
X00024211Y00024392D01*
X00023877Y00024503D02*
X00023988Y00024615D01*
X00022807Y00024392D02*
X00022988Y00024434D01*
X00022807Y00024392D02*
X00022849Y00024573D01*
X00022988Y00024434D01*
X00022919Y00024281D02*
X00023030Y00024392D01*
X00022696Y00024503D02*
X00022807Y00024615D01*
X00021626Y00024392D02*
X00021807Y00024434D01*
X00021626Y00024392D02*
X00021668Y00024573D01*
X00021807Y00024434D01*
X00021737Y00024281D02*
X00021849Y00024392D01*
X00021515Y00024503D02*
X00021626Y00024615D01*
X00020445Y00024392D02*
X00020626Y00024434D01*
X00020445Y00024392D02*
X00020487Y00024573D01*
X00020626Y00024434D01*
X00020556Y00024281D02*
X00020668Y00024392D01*
X00020334Y00024503D02*
X00020445Y00024615D01*
X00019264Y00024392D02*
X00019445Y00024434D01*
X00019264Y00024392D02*
X00019306Y00024573D01*
X00019445Y00024434D01*
X00019375Y00024281D02*
X00019487Y00024392D01*
X00019153Y00024503D02*
X00019264Y00024615D01*
X00018083Y00024392D02*
X00018264Y00024434D01*
X00018083Y00024392D02*
X00018125Y00024573D01*
X00018264Y00024434D01*
X00018194Y00024281D02*
X00018306Y00024392D01*
X00017972Y00024503D02*
X00018083Y00024615D01*
X00016902Y00024392D02*
X00017083Y00024434D01*
X00016902Y00024392D02*
X00016944Y00024573D01*
X00017083Y00024434D01*
X00017013Y00024281D02*
X00017124Y00024392D01*
X00016790Y00024503D02*
X00016902Y00024615D01*
X00015721Y00024392D02*
X00015902Y00024434D01*
X00015721Y00024392D02*
X00015762Y00024573D01*
X00015902Y00024434D01*
X00015832Y00024281D02*
X00015943Y00024392D01*
X00015609Y00024503D02*
X00015721Y00024615D01*
X00014540Y00024392D02*
X00014720Y00024434D01*
X00014540Y00024392D02*
X00014581Y00024573D01*
X00014720Y00024434D01*
X00014651Y00024281D02*
X00014762Y00024392D01*
X00014428Y00024503D02*
X00014540Y00024615D01*
X00013358Y00024392D02*
X00013539Y00024434D01*
X00013358Y00024392D02*
X00013400Y00024573D01*
X00013539Y00024434D01*
X00013470Y00024281D02*
X00013581Y00024392D01*
X00013247Y00024503D02*
X00013358Y00024615D01*
X00012177Y00024392D02*
X00012358Y00024434D01*
X00012177Y00024392D02*
X00012219Y00024573D01*
X00012358Y00024434D01*
X00012289Y00024281D02*
X00012400Y00024392D01*
X00012066Y00024503D02*
X00012177Y00024615D01*
X00010996Y00024392D02*
X00011177Y00024434D01*
X00010996Y00024392D02*
X00011038Y00024573D01*
X00011177Y00024434D01*
X00011108Y00024281D02*
X00011219Y00024392D01*
X00010885Y00024503D02*
X00010996Y00024615D01*
X00009815Y00024392D02*
X00009996Y00024434D01*
X00009815Y00024392D02*
X00009857Y00024573D01*
X00009996Y00024434D01*
X00009926Y00024281D02*
X00010038Y00024392D01*
X00009704Y00024503D02*
X00009815Y00024615D01*
X00008634Y00024392D02*
X00008815Y00024434D01*
X00008634Y00024392D02*
X00008676Y00024573D01*
X00008815Y00024434D01*
X00008745Y00024281D02*
X00008857Y00024392D01*
X00008523Y00024503D02*
X00008634Y00024615D01*
X00007453Y00024392D02*
X00007634Y00024434D01*
X00007453Y00024392D02*
X00007495Y00024573D01*
X00007634Y00024434D01*
X00007564Y00024281D02*
X00007676Y00024392D01*
X00007342Y00024503D02*
X00007453Y00024615D01*
X00006272Y00024392D02*
X00006453Y00024434D01*
X00006272Y00024392D02*
X00006314Y00024573D01*
X00006453Y00024434D01*
X00006383Y00024281D02*
X00006495Y00024392D01*
X00006160Y00024503D02*
X00006272Y00024615D01*
X00005091Y00024392D02*
X00005272Y00024434D01*
X00005091Y00024392D02*
X00005132Y00024573D01*
X00005272Y00024434D01*
X00005202Y00024281D02*
X00005313Y00024392D01*
X00004979Y00024503D02*
X00005091Y00024615D01*
X00049973Y00025573D02*
X00050154Y00025615D01*
X00049973Y00025573D02*
X00050014Y00025754D01*
X00050154Y00025615D01*
X00050084Y00025462D02*
X00050195Y00025573D01*
X00049861Y00025684D02*
X00049973Y00025796D01*
X00048792Y00025573D02*
X00048972Y00025615D01*
X00048792Y00025573D02*
X00048833Y00025754D01*
X00048972Y00025615D01*
X00048903Y00025462D02*
X00049014Y00025573D01*
X00048680Y00025684D02*
X00048792Y00025796D01*
X00047610Y00025573D02*
X00047791Y00025615D01*
X00047610Y00025573D02*
X00047652Y00025754D01*
X00047791Y00025615D01*
X00047722Y00025462D02*
X00047833Y00025573D01*
X00047499Y00025684D02*
X00047610Y00025796D01*
X00046429Y00025573D02*
X00046610Y00025615D01*
X00046429Y00025573D02*
X00046471Y00025754D01*
X00046610Y00025615D01*
X00046541Y00025462D02*
X00046652Y00025573D01*
X00046318Y00025684D02*
X00046429Y00025796D01*
X00045248Y00025573D02*
X00045429Y00025615D01*
X00045248Y00025573D02*
X00045290Y00025754D01*
X00045429Y00025615D01*
X00045360Y00025462D02*
X00045471Y00025573D01*
X00045137Y00025684D02*
X00045248Y00025796D01*
X00044067Y00025573D02*
X00044248Y00025615D01*
X00044067Y00025573D02*
X00044109Y00025754D01*
X00044248Y00025615D01*
X00044178Y00025462D02*
X00044290Y00025573D01*
X00043956Y00025684D02*
X00044067Y00025796D01*
X00042886Y00025573D02*
X00043067Y00025615D01*
X00042886Y00025573D02*
X00042928Y00025754D01*
X00043067Y00025615D01*
X00042997Y00025462D02*
X00043109Y00025573D01*
X00042775Y00025684D02*
X00042886Y00025796D01*
X00041705Y00025573D02*
X00041886Y00025615D01*
X00041705Y00025573D02*
X00041747Y00025754D01*
X00041886Y00025615D01*
X00041816Y00025462D02*
X00041928Y00025573D01*
X00041594Y00025684D02*
X00041705Y00025796D01*
X00040524Y00025573D02*
X00040705Y00025615D01*
X00040524Y00025573D02*
X00040566Y00025754D01*
X00040705Y00025615D01*
X00040635Y00025462D02*
X00040747Y00025573D01*
X00040412Y00025684D02*
X00040524Y00025796D01*
X00039343Y00025573D02*
X00039524Y00025615D01*
X00039343Y00025573D02*
X00039384Y00025754D01*
X00039524Y00025615D01*
X00039454Y00025462D02*
X00039565Y00025573D01*
X00039231Y00025684D02*
X00039343Y00025796D01*
X00038162Y00025573D02*
X00038343Y00025615D01*
X00038162Y00025573D02*
X00038203Y00025754D01*
X00038343Y00025615D01*
X00038273Y00025462D02*
X00038384Y00025573D01*
X00038050Y00025684D02*
X00038162Y00025796D01*
X00036980Y00025573D02*
X00037161Y00025615D01*
X00036980Y00025573D02*
X00037022Y00025754D01*
X00037161Y00025615D01*
X00037092Y00025462D02*
X00037203Y00025573D01*
X00036869Y00025684D02*
X00036980Y00025796D01*
X00035799Y00025573D02*
X00035980Y00025615D01*
X00035799Y00025573D02*
X00035841Y00025754D01*
X00035980Y00025615D01*
X00035911Y00025462D02*
X00036022Y00025573D01*
X00035688Y00025684D02*
X00035799Y00025796D01*
X00034618Y00025573D02*
X00034799Y00025615D01*
X00034618Y00025573D02*
X00034660Y00025754D01*
X00034799Y00025615D01*
X00034730Y00025462D02*
X00034841Y00025573D01*
X00034507Y00025684D02*
X00034618Y00025796D01*
X00033437Y00025573D02*
X00033618Y00025615D01*
X00033437Y00025573D02*
X00033479Y00025754D01*
X00033618Y00025615D01*
X00033549Y00025462D02*
X00033660Y00025573D01*
X00033326Y00025684D02*
X00033437Y00025796D01*
X00032256Y00025573D02*
X00032437Y00025615D01*
X00032256Y00025573D02*
X00032298Y00025754D01*
X00032437Y00025615D01*
X00032367Y00025462D02*
X00032479Y00025573D01*
X00032145Y00025684D02*
X00032256Y00025796D01*
X00031075Y00025573D02*
X00031256Y00025615D01*
X00031075Y00025573D02*
X00031117Y00025754D01*
X00031256Y00025615D01*
X00031186Y00025462D02*
X00031298Y00025573D01*
X00030964Y00025684D02*
X00031075Y00025796D01*
X00029894Y00025573D02*
X00030075Y00025615D01*
X00029894Y00025573D02*
X00029936Y00025754D01*
X00030075Y00025615D01*
X00030005Y00025462D02*
X00030117Y00025573D01*
X00029783Y00025684D02*
X00029894Y00025796D01*
X00028713Y00025573D02*
X00028894Y00025615D01*
X00028713Y00025573D02*
X00028755Y00025754D01*
X00028894Y00025615D01*
X00028824Y00025462D02*
X00028935Y00025573D01*
X00028601Y00025684D02*
X00028713Y00025796D01*
X00027532Y00025573D02*
X00027713Y00025615D01*
X00027532Y00025573D02*
X00027573Y00025754D01*
X00027713Y00025615D01*
X00027643Y00025462D02*
X00027754Y00025573D01*
X00027420Y00025684D02*
X00027532Y00025796D01*
X00026351Y00025573D02*
X00026532Y00025615D01*
X00026351Y00025573D02*
X00026392Y00025754D01*
X00026532Y00025615D01*
X00026462Y00025462D02*
X00026573Y00025573D01*
X00026239Y00025684D02*
X00026351Y00025796D01*
X00025169Y00025573D02*
X00025350Y00025615D01*
X00025169Y00025573D02*
X00025211Y00025754D01*
X00025350Y00025615D01*
X00025281Y00025462D02*
X00025392Y00025573D01*
X00025058Y00025684D02*
X00025169Y00025796D01*
X00023988Y00025573D02*
X00024169Y00025615D01*
X00023988Y00025573D02*
X00024030Y00025754D01*
X00024169Y00025615D01*
X00024100Y00025462D02*
X00024211Y00025573D01*
X00023877Y00025684D02*
X00023988Y00025796D01*
X00022807Y00025573D02*
X00022988Y00025615D01*
X00022807Y00025573D02*
X00022849Y00025754D01*
X00022988Y00025615D01*
X00022919Y00025462D02*
X00023030Y00025573D01*
X00022696Y00025684D02*
X00022807Y00025796D01*
X00021626Y00025573D02*
X00021807Y00025615D01*
X00021626Y00025573D02*
X00021668Y00025754D01*
X00021807Y00025615D01*
X00021737Y00025462D02*
X00021849Y00025573D01*
X00021515Y00025684D02*
X00021626Y00025796D01*
X00020445Y00025573D02*
X00020626Y00025615D01*
X00020445Y00025573D02*
X00020487Y00025754D01*
X00020626Y00025615D01*
X00020556Y00025462D02*
X00020668Y00025573D01*
X00020334Y00025684D02*
X00020445Y00025796D01*
X00019264Y00025573D02*
X00019445Y00025615D01*
X00019264Y00025573D02*
X00019306Y00025754D01*
X00019445Y00025615D01*
X00019375Y00025462D02*
X00019487Y00025573D01*
X00019153Y00025684D02*
X00019264Y00025796D01*
X00018083Y00025573D02*
X00018264Y00025615D01*
X00018083Y00025573D02*
X00018125Y00025754D01*
X00018264Y00025615D01*
X00018194Y00025462D02*
X00018306Y00025573D01*
X00017972Y00025684D02*
X00018083Y00025796D01*
X00016902Y00025573D02*
X00017083Y00025615D01*
X00016902Y00025573D02*
X00016944Y00025754D01*
X00017083Y00025615D01*
X00017013Y00025462D02*
X00017124Y00025573D01*
X00016790Y00025684D02*
X00016902Y00025796D01*
X00015721Y00025573D02*
X00015902Y00025615D01*
X00015721Y00025573D02*
X00015762Y00025754D01*
X00015902Y00025615D01*
X00015832Y00025462D02*
X00015943Y00025573D01*
X00015609Y00025684D02*
X00015721Y00025796D01*
X00014540Y00025573D02*
X00014720Y00025615D01*
X00014540Y00025573D02*
X00014581Y00025754D01*
X00014720Y00025615D01*
X00014651Y00025462D02*
X00014762Y00025573D01*
X00014428Y00025684D02*
X00014540Y00025796D01*
X00013358Y00025573D02*
X00013539Y00025615D01*
X00013358Y00025573D02*
X00013400Y00025754D01*
X00013539Y00025615D01*
X00013470Y00025462D02*
X00013581Y00025573D01*
X00013247Y00025684D02*
X00013358Y00025796D01*
X00012177Y00025573D02*
X00012358Y00025615D01*
X00012177Y00025573D02*
X00012219Y00025754D01*
X00012358Y00025615D01*
X00012289Y00025462D02*
X00012400Y00025573D01*
X00012066Y00025684D02*
X00012177Y00025796D01*
X00010996Y00025573D02*
X00011177Y00025615D01*
X00010996Y00025573D02*
X00011038Y00025754D01*
X00011177Y00025615D01*
X00011108Y00025462D02*
X00011219Y00025573D01*
X00010885Y00025684D02*
X00010996Y00025796D01*
X00009815Y00025573D02*
X00009996Y00025615D01*
X00009815Y00025573D02*
X00009857Y00025754D01*
X00009996Y00025615D01*
X00009926Y00025462D02*
X00010038Y00025573D01*
X00009704Y00025684D02*
X00009815Y00025796D01*
X00008634Y00025573D02*
X00008815Y00025615D01*
X00008634Y00025573D02*
X00008676Y00025754D01*
X00008815Y00025615D01*
X00008745Y00025462D02*
X00008857Y00025573D01*
X00008523Y00025684D02*
X00008634Y00025796D01*
X00007453Y00025573D02*
X00007634Y00025615D01*
X00007453Y00025573D02*
X00007495Y00025754D01*
X00007634Y00025615D01*
X00007564Y00025462D02*
X00007676Y00025573D01*
X00007342Y00025684D02*
X00007453Y00025796D01*
X00006272Y00025573D02*
X00006453Y00025615D01*
X00006272Y00025573D02*
X00006314Y00025754D01*
X00006453Y00025615D01*
X00006383Y00025462D02*
X00006495Y00025573D01*
X00006160Y00025684D02*
X00006272Y00025796D01*
X00005091Y00025573D02*
X00005272Y00025615D01*
X00005091Y00025573D02*
X00005132Y00025754D01*
X00005272Y00025615D01*
X00005202Y00025462D02*
X00005313Y00025573D01*
X00004979Y00025684D02*
X00005091Y00025796D01*
X00049973Y00026754D02*
X00050154Y00026796D01*
X00049973Y00026754D02*
X00050014Y00026935D01*
X00050154Y00026796D01*
X00050084Y00026643D02*
X00050195Y00026754D01*
X00049861Y00026865D02*
X00049973Y00026977D01*
X00048792Y00026754D02*
X00048972Y00026796D01*
X00048792Y00026754D02*
X00048833Y00026935D01*
X00048972Y00026796D01*
X00048903Y00026643D02*
X00049014Y00026754D01*
X00048680Y00026865D02*
X00048792Y00026977D01*
X00047610Y00026754D02*
X00047791Y00026796D01*
X00047610Y00026754D02*
X00047652Y00026935D01*
X00047791Y00026796D01*
X00047722Y00026643D02*
X00047833Y00026754D01*
X00047499Y00026865D02*
X00047610Y00026977D01*
X00046429Y00026754D02*
X00046610Y00026796D01*
X00046429Y00026754D02*
X00046471Y00026935D01*
X00046610Y00026796D01*
X00046541Y00026643D02*
X00046652Y00026754D01*
X00046318Y00026865D02*
X00046429Y00026977D01*
X00045248Y00026754D02*
X00045429Y00026796D01*
X00045248Y00026754D02*
X00045290Y00026935D01*
X00045429Y00026796D01*
X00045360Y00026643D02*
X00045471Y00026754D01*
X00045137Y00026865D02*
X00045248Y00026977D01*
X00044067Y00026754D02*
X00044248Y00026796D01*
X00044067Y00026754D02*
X00044109Y00026935D01*
X00044248Y00026796D01*
X00044178Y00026643D02*
X00044290Y00026754D01*
X00043956Y00026865D02*
X00044067Y00026977D01*
X00042886Y00026754D02*
X00043067Y00026796D01*
X00042886Y00026754D02*
X00042928Y00026935D01*
X00043067Y00026796D01*
X00042997Y00026643D02*
X00043109Y00026754D01*
X00042775Y00026865D02*
X00042886Y00026977D01*
X00041705Y00026754D02*
X00041886Y00026796D01*
X00041705Y00026754D02*
X00041747Y00026935D01*
X00041886Y00026796D01*
X00041816Y00026643D02*
X00041928Y00026754D01*
X00041594Y00026865D02*
X00041705Y00026977D01*
X00040524Y00026754D02*
X00040705Y00026796D01*
X00040524Y00026754D02*
X00040566Y00026935D01*
X00040705Y00026796D01*
X00040635Y00026643D02*
X00040747Y00026754D01*
X00040412Y00026865D02*
X00040524Y00026977D01*
X00039343Y00026754D02*
X00039524Y00026796D01*
X00039343Y00026754D02*
X00039384Y00026935D01*
X00039524Y00026796D01*
X00039454Y00026643D02*
X00039565Y00026754D01*
X00039231Y00026865D02*
X00039343Y00026977D01*
X00038162Y00026754D02*
X00038343Y00026796D01*
X00038162Y00026754D02*
X00038203Y00026935D01*
X00038343Y00026796D01*
X00038273Y00026643D02*
X00038384Y00026754D01*
X00038050Y00026865D02*
X00038162Y00026977D01*
X00036980Y00026754D02*
X00037161Y00026796D01*
X00036980Y00026754D02*
X00037022Y00026935D01*
X00037161Y00026796D01*
X00037092Y00026643D02*
X00037203Y00026754D01*
X00036869Y00026865D02*
X00036980Y00026977D01*
X00035799Y00026754D02*
X00035980Y00026796D01*
X00035799Y00026754D02*
X00035841Y00026935D01*
X00035980Y00026796D01*
X00035911Y00026643D02*
X00036022Y00026754D01*
X00035688Y00026865D02*
X00035799Y00026977D01*
X00034618Y00026754D02*
X00034799Y00026796D01*
X00034618Y00026754D02*
X00034660Y00026935D01*
X00034799Y00026796D01*
X00034730Y00026643D02*
X00034841Y00026754D01*
X00034507Y00026865D02*
X00034618Y00026977D01*
X00033437Y00026754D02*
X00033618Y00026796D01*
X00033437Y00026754D02*
X00033479Y00026935D01*
X00033618Y00026796D01*
X00033549Y00026643D02*
X00033660Y00026754D01*
X00033326Y00026865D02*
X00033437Y00026977D01*
X00032256Y00026754D02*
X00032437Y00026796D01*
X00032256Y00026754D02*
X00032298Y00026935D01*
X00032437Y00026796D01*
X00032367Y00026643D02*
X00032479Y00026754D01*
X00032145Y00026865D02*
X00032256Y00026977D01*
X00031075Y00026754D02*
X00031256Y00026796D01*
X00031075Y00026754D02*
X00031117Y00026935D01*
X00031256Y00026796D01*
X00031186Y00026643D02*
X00031298Y00026754D01*
X00030964Y00026865D02*
X00031075Y00026977D01*
X00029894Y00026754D02*
X00030075Y00026796D01*
X00029894Y00026754D02*
X00029936Y00026935D01*
X00030075Y00026796D01*
X00030005Y00026643D02*
X00030117Y00026754D01*
X00029783Y00026865D02*
X00029894Y00026977D01*
X00028713Y00026754D02*
X00028894Y00026796D01*
X00028713Y00026754D02*
X00028755Y00026935D01*
X00028894Y00026796D01*
X00028824Y00026643D02*
X00028935Y00026754D01*
X00028601Y00026865D02*
X00028713Y00026977D01*
X00027532Y00026754D02*
X00027713Y00026796D01*
X00027532Y00026754D02*
X00027573Y00026935D01*
X00027713Y00026796D01*
X00027643Y00026643D02*
X00027754Y00026754D01*
X00027420Y00026865D02*
X00027532Y00026977D01*
X00026351Y00026754D02*
X00026532Y00026796D01*
X00026351Y00026754D02*
X00026392Y00026935D01*
X00026532Y00026796D01*
X00026462Y00026643D02*
X00026573Y00026754D01*
X00026239Y00026865D02*
X00026351Y00026977D01*
X00025169Y00026754D02*
X00025350Y00026796D01*
X00025169Y00026754D02*
X00025211Y00026935D01*
X00025350Y00026796D01*
X00025281Y00026643D02*
X00025392Y00026754D01*
X00025058Y00026865D02*
X00025169Y00026977D01*
X00023988Y00026754D02*
X00024169Y00026796D01*
X00023988Y00026754D02*
X00024030Y00026935D01*
X00024169Y00026796D01*
X00024100Y00026643D02*
X00024211Y00026754D01*
X00023877Y00026865D02*
X00023988Y00026977D01*
X00022807Y00026754D02*
X00022988Y00026796D01*
X00022807Y00026754D02*
X00022849Y00026935D01*
X00022988Y00026796D01*
X00022919Y00026643D02*
X00023030Y00026754D01*
X00022696Y00026865D02*
X00022807Y00026977D01*
X00021626Y00026754D02*
X00021807Y00026796D01*
X00021626Y00026754D02*
X00021668Y00026935D01*
X00021807Y00026796D01*
X00021737Y00026643D02*
X00021849Y00026754D01*
X00021515Y00026865D02*
X00021626Y00026977D01*
X00020445Y00026754D02*
X00020626Y00026796D01*
X00020445Y00026754D02*
X00020487Y00026935D01*
X00020626Y00026796D01*
X00020556Y00026643D02*
X00020668Y00026754D01*
X00020334Y00026865D02*
X00020445Y00026977D01*
X00019264Y00026754D02*
X00019445Y00026796D01*
X00019264Y00026754D02*
X00019306Y00026935D01*
X00019445Y00026796D01*
X00019375Y00026643D02*
X00019487Y00026754D01*
X00019153Y00026865D02*
X00019264Y00026977D01*
X00018083Y00026754D02*
X00018264Y00026796D01*
X00018083Y00026754D02*
X00018125Y00026935D01*
X00018264Y00026796D01*
X00018194Y00026643D02*
X00018306Y00026754D01*
X00017972Y00026865D02*
X00018083Y00026977D01*
X00016902Y00026754D02*
X00017083Y00026796D01*
X00016902Y00026754D02*
X00016944Y00026935D01*
X00017083Y00026796D01*
X00017013Y00026643D02*
X00017124Y00026754D01*
X00016790Y00026865D02*
X00016902Y00026977D01*
X00015721Y00026754D02*
X00015902Y00026796D01*
X00015721Y00026754D02*
X00015762Y00026935D01*
X00015902Y00026796D01*
X00015832Y00026643D02*
X00015943Y00026754D01*
X00015609Y00026865D02*
X00015721Y00026977D01*
X00014540Y00026754D02*
X00014720Y00026796D01*
X00014540Y00026754D02*
X00014581Y00026935D01*
X00014720Y00026796D01*
X00014651Y00026643D02*
X00014762Y00026754D01*
X00014428Y00026865D02*
X00014540Y00026977D01*
X00013358Y00026754D02*
X00013539Y00026796D01*
X00013358Y00026754D02*
X00013400Y00026935D01*
X00013539Y00026796D01*
X00013470Y00026643D02*
X00013581Y00026754D01*
X00013247Y00026865D02*
X00013358Y00026977D01*
X00012177Y00026754D02*
X00012358Y00026796D01*
X00012177Y00026754D02*
X00012219Y00026935D01*
X00012358Y00026796D01*
X00012289Y00026643D02*
X00012400Y00026754D01*
X00012066Y00026865D02*
X00012177Y00026977D01*
X00010996Y00026754D02*
X00011177Y00026796D01*
X00010996Y00026754D02*
X00011038Y00026935D01*
X00011177Y00026796D01*
X00011108Y00026643D02*
X00011219Y00026754D01*
X00010885Y00026865D02*
X00010996Y00026977D01*
X00009815Y00026754D02*
X00009996Y00026796D01*
X00009815Y00026754D02*
X00009857Y00026935D01*
X00009996Y00026796D01*
X00009926Y00026643D02*
X00010038Y00026754D01*
X00009704Y00026865D02*
X00009815Y00026977D01*
X00008634Y00026754D02*
X00008815Y00026796D01*
X00008634Y00026754D02*
X00008676Y00026935D01*
X00008815Y00026796D01*
X00008745Y00026643D02*
X00008857Y00026754D01*
X00008523Y00026865D02*
X00008634Y00026977D01*
X00007453Y00026754D02*
X00007634Y00026796D01*
X00007453Y00026754D02*
X00007495Y00026935D01*
X00007634Y00026796D01*
X00007564Y00026643D02*
X00007676Y00026754D01*
X00007342Y00026865D02*
X00007453Y00026977D01*
X00006272Y00026754D02*
X00006453Y00026796D01*
X00006272Y00026754D02*
X00006314Y00026935D01*
X00006453Y00026796D01*
X00006383Y00026643D02*
X00006495Y00026754D01*
X00006160Y00026865D02*
X00006272Y00026977D01*
X00005091Y00026754D02*
X00005272Y00026796D01*
X00005091Y00026754D02*
X00005132Y00026935D01*
X00005272Y00026796D01*
X00005202Y00026643D02*
X00005313Y00026754D01*
X00004979Y00026865D02*
X00005091Y00026977D01*
X00049973Y00027935D02*
X00050154Y00027977D01*
X00049973Y00027935D02*
X00050014Y00028116D01*
X00050154Y00027977D01*
X00050084Y00027824D02*
X00050195Y00027935D01*
X00049861Y00028047D02*
X00049973Y00028158D01*
X00048792Y00027935D02*
X00048972Y00027977D01*
X00048792Y00027935D02*
X00048833Y00028116D01*
X00048972Y00027977D01*
X00048903Y00027824D02*
X00049014Y00027935D01*
X00048680Y00028047D02*
X00048792Y00028158D01*
X00047610Y00027935D02*
X00047791Y00027977D01*
X00047610Y00027935D02*
X00047652Y00028116D01*
X00047791Y00027977D01*
X00047722Y00027824D02*
X00047833Y00027935D01*
X00047499Y00028047D02*
X00047610Y00028158D01*
X00046429Y00027935D02*
X00046610Y00027977D01*
X00046429Y00027935D02*
X00046471Y00028116D01*
X00046610Y00027977D01*
X00046541Y00027824D02*
X00046652Y00027935D01*
X00046318Y00028047D02*
X00046429Y00028158D01*
X00045248Y00027935D02*
X00045429Y00027977D01*
X00045248Y00027935D02*
X00045290Y00028116D01*
X00045429Y00027977D01*
X00045360Y00027824D02*
X00045471Y00027935D01*
X00045137Y00028047D02*
X00045248Y00028158D01*
X00044067Y00027935D02*
X00044248Y00027977D01*
X00044067Y00027935D02*
X00044109Y00028116D01*
X00044248Y00027977D01*
X00044178Y00027824D02*
X00044290Y00027935D01*
X00043956Y00028047D02*
X00044067Y00028158D01*
X00042886Y00027935D02*
X00043067Y00027977D01*
X00042886Y00027935D02*
X00042928Y00028116D01*
X00043067Y00027977D01*
X00042997Y00027824D02*
X00043109Y00027935D01*
X00042775Y00028047D02*
X00042886Y00028158D01*
X00041705Y00027935D02*
X00041886Y00027977D01*
X00041705Y00027935D02*
X00041747Y00028116D01*
X00041886Y00027977D01*
X00041816Y00027824D02*
X00041928Y00027935D01*
X00041594Y00028047D02*
X00041705Y00028158D01*
X00040524Y00027935D02*
X00040705Y00027977D01*
X00040524Y00027935D02*
X00040566Y00028116D01*
X00040705Y00027977D01*
X00040635Y00027824D02*
X00040747Y00027935D01*
X00040412Y00028047D02*
X00040524Y00028158D01*
X00039343Y00027935D02*
X00039524Y00027977D01*
X00039343Y00027935D02*
X00039384Y00028116D01*
X00039524Y00027977D01*
X00039454Y00027824D02*
X00039565Y00027935D01*
X00039231Y00028047D02*
X00039343Y00028158D01*
X00038162Y00027935D02*
X00038343Y00027977D01*
X00038162Y00027935D02*
X00038203Y00028116D01*
X00038343Y00027977D01*
X00038273Y00027824D02*
X00038384Y00027935D01*
X00038050Y00028047D02*
X00038162Y00028158D01*
X00036980Y00027935D02*
X00037161Y00027977D01*
X00036980Y00027935D02*
X00037022Y00028116D01*
X00037161Y00027977D01*
X00037092Y00027824D02*
X00037203Y00027935D01*
X00036869Y00028047D02*
X00036980Y00028158D01*
X00035799Y00027935D02*
X00035980Y00027977D01*
X00035799Y00027935D02*
X00035841Y00028116D01*
X00035980Y00027977D01*
X00035911Y00027824D02*
X00036022Y00027935D01*
X00035688Y00028047D02*
X00035799Y00028158D01*
X00034618Y00027935D02*
X00034799Y00027977D01*
X00034618Y00027935D02*
X00034660Y00028116D01*
X00034799Y00027977D01*
X00034730Y00027824D02*
X00034841Y00027935D01*
X00034507Y00028047D02*
X00034618Y00028158D01*
X00033437Y00027935D02*
X00033618Y00027977D01*
X00033437Y00027935D02*
X00033479Y00028116D01*
X00033618Y00027977D01*
X00033549Y00027824D02*
X00033660Y00027935D01*
X00033326Y00028047D02*
X00033437Y00028158D01*
X00032256Y00027935D02*
X00032437Y00027977D01*
X00032256Y00027935D02*
X00032298Y00028116D01*
X00032437Y00027977D01*
X00032367Y00027824D02*
X00032479Y00027935D01*
X00032145Y00028047D02*
X00032256Y00028158D01*
X00031075Y00027935D02*
X00031256Y00027977D01*
X00031075Y00027935D02*
X00031117Y00028116D01*
X00031256Y00027977D01*
X00031186Y00027824D02*
X00031298Y00027935D01*
X00030964Y00028047D02*
X00031075Y00028158D01*
X00029894Y00027935D02*
X00030075Y00027977D01*
X00029894Y00027935D02*
X00029936Y00028116D01*
X00030075Y00027977D01*
X00030005Y00027824D02*
X00030117Y00027935D01*
X00029783Y00028047D02*
X00029894Y00028158D01*
X00028713Y00027935D02*
X00028894Y00027977D01*
X00028713Y00027935D02*
X00028755Y00028116D01*
X00028894Y00027977D01*
X00028824Y00027824D02*
X00028935Y00027935D01*
X00028601Y00028047D02*
X00028713Y00028158D01*
X00027532Y00027935D02*
X00027713Y00027977D01*
X00027532Y00027935D02*
X00027573Y00028116D01*
X00027713Y00027977D01*
X00027643Y00027824D02*
X00027754Y00027935D01*
X00027420Y00028047D02*
X00027532Y00028158D01*
X00026351Y00027935D02*
X00026532Y00027977D01*
X00026351Y00027935D02*
X00026392Y00028116D01*
X00026532Y00027977D01*
X00026462Y00027824D02*
X00026573Y00027935D01*
X00026239Y00028047D02*
X00026351Y00028158D01*
X00025169Y00027935D02*
X00025350Y00027977D01*
X00025169Y00027935D02*
X00025211Y00028116D01*
X00025350Y00027977D01*
X00025281Y00027824D02*
X00025392Y00027935D01*
X00025058Y00028047D02*
X00025169Y00028158D01*
X00023988Y00027935D02*
X00024169Y00027977D01*
X00023988Y00027935D02*
X00024030Y00028116D01*
X00024169Y00027977D01*
X00024100Y00027824D02*
X00024211Y00027935D01*
X00023877Y00028047D02*
X00023988Y00028158D01*
X00022807Y00027935D02*
X00022988Y00027977D01*
X00022807Y00027935D02*
X00022849Y00028116D01*
X00022988Y00027977D01*
X00022919Y00027824D02*
X00023030Y00027935D01*
X00022696Y00028047D02*
X00022807Y00028158D01*
X00021626Y00027935D02*
X00021807Y00027977D01*
X00021626Y00027935D02*
X00021668Y00028116D01*
X00021807Y00027977D01*
X00021737Y00027824D02*
X00021849Y00027935D01*
X00021515Y00028047D02*
X00021626Y00028158D01*
X00020445Y00027935D02*
X00020626Y00027977D01*
X00020445Y00027935D02*
X00020487Y00028116D01*
X00020626Y00027977D01*
X00020556Y00027824D02*
X00020668Y00027935D01*
X00020334Y00028047D02*
X00020445Y00028158D01*
X00019264Y00027935D02*
X00019445Y00027977D01*
X00019264Y00027935D02*
X00019306Y00028116D01*
X00019445Y00027977D01*
X00019375Y00027824D02*
X00019487Y00027935D01*
X00019153Y00028047D02*
X00019264Y00028158D01*
X00018083Y00027935D02*
X00018264Y00027977D01*
X00018083Y00027935D02*
X00018125Y00028116D01*
X00018264Y00027977D01*
X00018194Y00027824D02*
X00018306Y00027935D01*
X00017972Y00028047D02*
X00018083Y00028158D01*
X00016902Y00027935D02*
X00017083Y00027977D01*
X00016902Y00027935D02*
X00016944Y00028116D01*
X00017083Y00027977D01*
X00017013Y00027824D02*
X00017124Y00027935D01*
X00016790Y00028047D02*
X00016902Y00028158D01*
X00015721Y00027935D02*
X00015902Y00027977D01*
X00015721Y00027935D02*
X00015762Y00028116D01*
X00015902Y00027977D01*
X00015832Y00027824D02*
X00015943Y00027935D01*
X00015609Y00028047D02*
X00015721Y00028158D01*
X00014540Y00027935D02*
X00014720Y00027977D01*
X00014540Y00027935D02*
X00014581Y00028116D01*
X00014720Y00027977D01*
X00014651Y00027824D02*
X00014762Y00027935D01*
X00014428Y00028047D02*
X00014540Y00028158D01*
X00013358Y00027935D02*
X00013539Y00027977D01*
X00013358Y00027935D02*
X00013400Y00028116D01*
X00013539Y00027977D01*
X00013470Y00027824D02*
X00013581Y00027935D01*
X00013247Y00028047D02*
X00013358Y00028158D01*
X00012177Y00027935D02*
X00012358Y00027977D01*
X00012177Y00027935D02*
X00012219Y00028116D01*
X00012358Y00027977D01*
X00012289Y00027824D02*
X00012400Y00027935D01*
X00012066Y00028047D02*
X00012177Y00028158D01*
X00010996Y00027935D02*
X00011177Y00027977D01*
X00010996Y00027935D02*
X00011038Y00028116D01*
X00011177Y00027977D01*
X00011108Y00027824D02*
X00011219Y00027935D01*
X00010885Y00028047D02*
X00010996Y00028158D01*
X00009815Y00027935D02*
X00009996Y00027977D01*
X00009815Y00027935D02*
X00009857Y00028116D01*
X00009996Y00027977D01*
X00009926Y00027824D02*
X00010038Y00027935D01*
X00009704Y00028047D02*
X00009815Y00028158D01*
X00008634Y00027935D02*
X00008815Y00027977D01*
X00008634Y00027935D02*
X00008676Y00028116D01*
X00008815Y00027977D01*
X00008745Y00027824D02*
X00008857Y00027935D01*
X00008523Y00028047D02*
X00008634Y00028158D01*
X00007453Y00027935D02*
X00007634Y00027977D01*
X00007453Y00027935D02*
X00007495Y00028116D01*
X00007634Y00027977D01*
X00007564Y00027824D02*
X00007676Y00027935D01*
X00007342Y00028047D02*
X00007453Y00028158D01*
X00006272Y00027935D02*
X00006453Y00027977D01*
X00006272Y00027935D02*
X00006314Y00028116D01*
X00006453Y00027977D01*
X00006383Y00027824D02*
X00006495Y00027935D01*
X00006160Y00028047D02*
X00006272Y00028158D01*
X00005091Y00027935D02*
X00005272Y00027977D01*
X00005091Y00027935D02*
X00005132Y00028116D01*
X00005272Y00027977D01*
X00005202Y00027824D02*
X00005313Y00027935D01*
X00004979Y00028047D02*
X00005091Y00028158D01*
X00049973Y00029116D02*
X00050154Y00029158D01*
X00049973Y00029116D02*
X00050014Y00029297D01*
X00050154Y00029158D01*
X00050084Y00029005D02*
X00050195Y00029116D01*
X00049861Y00029228D02*
X00049973Y00029339D01*
X00048792Y00029116D02*
X00048972Y00029158D01*
X00048792Y00029116D02*
X00048833Y00029297D01*
X00048972Y00029158D01*
X00048903Y00029005D02*
X00049014Y00029116D01*
X00048680Y00029228D02*
X00048792Y00029339D01*
X00047610Y00029116D02*
X00047791Y00029158D01*
X00047610Y00029116D02*
X00047652Y00029297D01*
X00047791Y00029158D01*
X00047722Y00029005D02*
X00047833Y00029116D01*
X00047499Y00029228D02*
X00047610Y00029339D01*
X00046429Y00029116D02*
X00046610Y00029158D01*
X00046429Y00029116D02*
X00046471Y00029297D01*
X00046610Y00029158D01*
X00046541Y00029005D02*
X00046652Y00029116D01*
X00046318Y00029228D02*
X00046429Y00029339D01*
X00045248Y00029116D02*
X00045429Y00029158D01*
X00045248Y00029116D02*
X00045290Y00029297D01*
X00045429Y00029158D01*
X00045360Y00029005D02*
X00045471Y00029116D01*
X00045137Y00029228D02*
X00045248Y00029339D01*
X00044067Y00029116D02*
X00044248Y00029158D01*
X00044067Y00029116D02*
X00044109Y00029297D01*
X00044248Y00029158D01*
X00044178Y00029005D02*
X00044290Y00029116D01*
X00043956Y00029228D02*
X00044067Y00029339D01*
X00042886Y00029116D02*
X00043067Y00029158D01*
X00042886Y00029116D02*
X00042928Y00029297D01*
X00043067Y00029158D01*
X00042997Y00029005D02*
X00043109Y00029116D01*
X00042775Y00029228D02*
X00042886Y00029339D01*
X00041705Y00029116D02*
X00041886Y00029158D01*
X00041705Y00029116D02*
X00041747Y00029297D01*
X00041886Y00029158D01*
X00041816Y00029005D02*
X00041928Y00029116D01*
X00041594Y00029228D02*
X00041705Y00029339D01*
X00040524Y00029116D02*
X00040705Y00029158D01*
X00040524Y00029116D02*
X00040566Y00029297D01*
X00040705Y00029158D01*
X00040635Y00029005D02*
X00040747Y00029116D01*
X00040412Y00029228D02*
X00040524Y00029339D01*
X00039343Y00029116D02*
X00039524Y00029158D01*
X00039343Y00029116D02*
X00039384Y00029297D01*
X00039524Y00029158D01*
X00039454Y00029005D02*
X00039565Y00029116D01*
X00039231Y00029228D02*
X00039343Y00029339D01*
X00038162Y00029116D02*
X00038343Y00029158D01*
X00038162Y00029116D02*
X00038203Y00029297D01*
X00038343Y00029158D01*
X00038273Y00029005D02*
X00038384Y00029116D01*
X00038050Y00029228D02*
X00038162Y00029339D01*
X00036980Y00029116D02*
X00037161Y00029158D01*
X00036980Y00029116D02*
X00037022Y00029297D01*
X00037161Y00029158D01*
X00037092Y00029005D02*
X00037203Y00029116D01*
X00036869Y00029228D02*
X00036980Y00029339D01*
X00035799Y00029116D02*
X00035980Y00029158D01*
X00035799Y00029116D02*
X00035841Y00029297D01*
X00035980Y00029158D01*
X00035911Y00029005D02*
X00036022Y00029116D01*
X00035688Y00029228D02*
X00035799Y00029339D01*
X00034618Y00029116D02*
X00034799Y00029158D01*
X00034618Y00029116D02*
X00034660Y00029297D01*
X00034799Y00029158D01*
X00034730Y00029005D02*
X00034841Y00029116D01*
X00034507Y00029228D02*
X00034618Y00029339D01*
X00033437Y00029116D02*
X00033618Y00029158D01*
X00033437Y00029116D02*
X00033479Y00029297D01*
X00033618Y00029158D01*
X00033549Y00029005D02*
X00033660Y00029116D01*
X00033326Y00029228D02*
X00033437Y00029339D01*
X00032256Y00029116D02*
X00032437Y00029158D01*
X00032256Y00029116D02*
X00032298Y00029297D01*
X00032437Y00029158D01*
X00032367Y00029005D02*
X00032479Y00029116D01*
X00032145Y00029228D02*
X00032256Y00029339D01*
X00031075Y00029116D02*
X00031256Y00029158D01*
X00031075Y00029116D02*
X00031117Y00029297D01*
X00031256Y00029158D01*
X00031186Y00029005D02*
X00031298Y00029116D01*
X00030964Y00029228D02*
X00031075Y00029339D01*
X00029894Y00029116D02*
X00030075Y00029158D01*
X00029894Y00029116D02*
X00029936Y00029297D01*
X00030075Y00029158D01*
X00030005Y00029005D02*
X00030117Y00029116D01*
X00029783Y00029228D02*
X00029894Y00029339D01*
X00028713Y00029116D02*
X00028894Y00029158D01*
X00028713Y00029116D02*
X00028755Y00029297D01*
X00028894Y00029158D01*
X00028824Y00029005D02*
X00028935Y00029116D01*
X00028601Y00029228D02*
X00028713Y00029339D01*
X00027532Y00029116D02*
X00027713Y00029158D01*
X00027532Y00029116D02*
X00027573Y00029297D01*
X00027713Y00029158D01*
X00027643Y00029005D02*
X00027754Y00029116D01*
X00027420Y00029228D02*
X00027532Y00029339D01*
X00026351Y00029116D02*
X00026532Y00029158D01*
X00026351Y00029116D02*
X00026392Y00029297D01*
X00026532Y00029158D01*
X00026462Y00029005D02*
X00026573Y00029116D01*
X00026239Y00029228D02*
X00026351Y00029339D01*
X00025169Y00029116D02*
X00025350Y00029158D01*
X00025169Y00029116D02*
X00025211Y00029297D01*
X00025350Y00029158D01*
X00025281Y00029005D02*
X00025392Y00029116D01*
X00025058Y00029228D02*
X00025169Y00029339D01*
X00023988Y00029116D02*
X00024169Y00029158D01*
X00023988Y00029116D02*
X00024030Y00029297D01*
X00024169Y00029158D01*
X00024100Y00029005D02*
X00024211Y00029116D01*
X00023877Y00029228D02*
X00023988Y00029339D01*
X00022807Y00029116D02*
X00022988Y00029158D01*
X00022807Y00029116D02*
X00022849Y00029297D01*
X00022988Y00029158D01*
X00022919Y00029005D02*
X00023030Y00029116D01*
X00022696Y00029228D02*
X00022807Y00029339D01*
X00021626Y00029116D02*
X00021807Y00029158D01*
X00021626Y00029116D02*
X00021668Y00029297D01*
X00021807Y00029158D01*
X00021737Y00029005D02*
X00021849Y00029116D01*
X00021515Y00029228D02*
X00021626Y00029339D01*
X00020445Y00029116D02*
X00020626Y00029158D01*
X00020445Y00029116D02*
X00020487Y00029297D01*
X00020626Y00029158D01*
X00020556Y00029005D02*
X00020668Y00029116D01*
X00020334Y00029228D02*
X00020445Y00029339D01*
X00019264Y00029116D02*
X00019445Y00029158D01*
X00019264Y00029116D02*
X00019306Y00029297D01*
X00019445Y00029158D01*
X00019375Y00029005D02*
X00019487Y00029116D01*
X00019153Y00029228D02*
X00019264Y00029339D01*
X00018083Y00029116D02*
X00018264Y00029158D01*
X00018083Y00029116D02*
X00018125Y00029297D01*
X00018264Y00029158D01*
X00018194Y00029005D02*
X00018306Y00029116D01*
X00017972Y00029228D02*
X00018083Y00029339D01*
X00016902Y00029116D02*
X00017083Y00029158D01*
X00016902Y00029116D02*
X00016944Y00029297D01*
X00017083Y00029158D01*
X00017013Y00029005D02*
X00017124Y00029116D01*
X00016790Y00029228D02*
X00016902Y00029339D01*
X00015721Y00029116D02*
X00015902Y00029158D01*
X00015721Y00029116D02*
X00015762Y00029297D01*
X00015902Y00029158D01*
X00015832Y00029005D02*
X00015943Y00029116D01*
X00015609Y00029228D02*
X00015721Y00029339D01*
X00014540Y00029116D02*
X00014720Y00029158D01*
X00014540Y00029116D02*
X00014581Y00029297D01*
X00014720Y00029158D01*
X00014651Y00029005D02*
X00014762Y00029116D01*
X00014428Y00029228D02*
X00014540Y00029339D01*
X00013358Y00029116D02*
X00013539Y00029158D01*
X00013358Y00029116D02*
X00013400Y00029297D01*
X00013539Y00029158D01*
X00013470Y00029005D02*
X00013581Y00029116D01*
X00013247Y00029228D02*
X00013358Y00029339D01*
X00012177Y00029116D02*
X00012358Y00029158D01*
X00012177Y00029116D02*
X00012219Y00029297D01*
X00012358Y00029158D01*
X00012289Y00029005D02*
X00012400Y00029116D01*
X00012066Y00029228D02*
X00012177Y00029339D01*
X00010996Y00029116D02*
X00011177Y00029158D01*
X00010996Y00029116D02*
X00011038Y00029297D01*
X00011177Y00029158D01*
X00011108Y00029005D02*
X00011219Y00029116D01*
X00010885Y00029228D02*
X00010996Y00029339D01*
X00009815Y00029116D02*
X00009996Y00029158D01*
X00009815Y00029116D02*
X00009857Y00029297D01*
X00009996Y00029158D01*
X00009926Y00029005D02*
X00010038Y00029116D01*
X00009704Y00029228D02*
X00009815Y00029339D01*
X00008634Y00029116D02*
X00008815Y00029158D01*
X00008634Y00029116D02*
X00008676Y00029297D01*
X00008815Y00029158D01*
X00008745Y00029005D02*
X00008857Y00029116D01*
X00008523Y00029228D02*
X00008634Y00029339D01*
X00007453Y00029116D02*
X00007634Y00029158D01*
X00007453Y00029116D02*
X00007495Y00029297D01*
X00007634Y00029158D01*
X00007564Y00029005D02*
X00007676Y00029116D01*
X00007342Y00029228D02*
X00007453Y00029339D01*
X00006272Y00029116D02*
X00006453Y00029158D01*
X00006272Y00029116D02*
X00006314Y00029297D01*
X00006453Y00029158D01*
X00006383Y00029005D02*
X00006495Y00029116D01*
X00006160Y00029228D02*
X00006272Y00029339D01*
X00005091Y00029116D02*
X00005272Y00029158D01*
X00005091Y00029116D02*
X00005132Y00029297D01*
X00005272Y00029158D01*
X00005202Y00029005D02*
X00005313Y00029116D01*
X00004979Y00029228D02*
X00005091Y00029339D01*
X00049973Y00030297D02*
X00050154Y00030339D01*
X00049973Y00030297D02*
X00050014Y00030478D01*
X00050154Y00030339D01*
X00050084Y00030186D02*
X00050195Y00030297D01*
X00049861Y00030409D02*
X00049973Y00030520D01*
X00048792Y00030297D02*
X00048972Y00030339D01*
X00048792Y00030297D02*
X00048833Y00030478D01*
X00048972Y00030339D01*
X00048903Y00030186D02*
X00049014Y00030297D01*
X00048680Y00030409D02*
X00048792Y00030520D01*
X00047610Y00030297D02*
X00047791Y00030339D01*
X00047610Y00030297D02*
X00047652Y00030478D01*
X00047791Y00030339D01*
X00047722Y00030186D02*
X00047833Y00030297D01*
X00047499Y00030409D02*
X00047610Y00030520D01*
X00046429Y00030297D02*
X00046610Y00030339D01*
X00046429Y00030297D02*
X00046471Y00030478D01*
X00046610Y00030339D01*
X00046541Y00030186D02*
X00046652Y00030297D01*
X00046318Y00030409D02*
X00046429Y00030520D01*
X00045248Y00030297D02*
X00045429Y00030339D01*
X00045248Y00030297D02*
X00045290Y00030478D01*
X00045429Y00030339D01*
X00045360Y00030186D02*
X00045471Y00030297D01*
X00045137Y00030409D02*
X00045248Y00030520D01*
X00044067Y00030297D02*
X00044248Y00030339D01*
X00044067Y00030297D02*
X00044109Y00030478D01*
X00044248Y00030339D01*
X00044178Y00030186D02*
X00044290Y00030297D01*
X00043956Y00030409D02*
X00044067Y00030520D01*
X00042886Y00030297D02*
X00043067Y00030339D01*
X00042886Y00030297D02*
X00042928Y00030478D01*
X00043067Y00030339D01*
X00042997Y00030186D02*
X00043109Y00030297D01*
X00042775Y00030409D02*
X00042886Y00030520D01*
X00041705Y00030297D02*
X00041886Y00030339D01*
X00041705Y00030297D02*
X00041747Y00030478D01*
X00041886Y00030339D01*
X00041816Y00030186D02*
X00041928Y00030297D01*
X00041594Y00030409D02*
X00041705Y00030520D01*
X00040524Y00030297D02*
X00040705Y00030339D01*
X00040524Y00030297D02*
X00040566Y00030478D01*
X00040705Y00030339D01*
X00040635Y00030186D02*
X00040747Y00030297D01*
X00040412Y00030409D02*
X00040524Y00030520D01*
X00039343Y00030297D02*
X00039524Y00030339D01*
X00039343Y00030297D02*
X00039384Y00030478D01*
X00039524Y00030339D01*
X00039454Y00030186D02*
X00039565Y00030297D01*
X00039231Y00030409D02*
X00039343Y00030520D01*
X00038162Y00030297D02*
X00038343Y00030339D01*
X00038162Y00030297D02*
X00038203Y00030478D01*
X00038343Y00030339D01*
X00038273Y00030186D02*
X00038384Y00030297D01*
X00038050Y00030409D02*
X00038162Y00030520D01*
X00036980Y00030297D02*
X00037161Y00030339D01*
X00036980Y00030297D02*
X00037022Y00030478D01*
X00037161Y00030339D01*
X00037092Y00030186D02*
X00037203Y00030297D01*
X00036869Y00030409D02*
X00036980Y00030520D01*
X00035799Y00030297D02*
X00035980Y00030339D01*
X00035799Y00030297D02*
X00035841Y00030478D01*
X00035980Y00030339D01*
X00035911Y00030186D02*
X00036022Y00030297D01*
X00035688Y00030409D02*
X00035799Y00030520D01*
X00034618Y00030297D02*
X00034799Y00030339D01*
X00034618Y00030297D02*
X00034660Y00030478D01*
X00034799Y00030339D01*
X00034730Y00030186D02*
X00034841Y00030297D01*
X00034507Y00030409D02*
X00034618Y00030520D01*
X00033437Y00030297D02*
X00033618Y00030339D01*
X00033437Y00030297D02*
X00033479Y00030478D01*
X00033618Y00030339D01*
X00033549Y00030186D02*
X00033660Y00030297D01*
X00033326Y00030409D02*
X00033437Y00030520D01*
X00032256Y00030297D02*
X00032437Y00030339D01*
X00032256Y00030297D02*
X00032298Y00030478D01*
X00032437Y00030339D01*
X00032367Y00030186D02*
X00032479Y00030297D01*
X00032145Y00030409D02*
X00032256Y00030520D01*
X00031075Y00030297D02*
X00031256Y00030339D01*
X00031075Y00030297D02*
X00031117Y00030478D01*
X00031256Y00030339D01*
X00031186Y00030186D02*
X00031298Y00030297D01*
X00030964Y00030409D02*
X00031075Y00030520D01*
X00029894Y00030297D02*
X00030075Y00030339D01*
X00029894Y00030297D02*
X00029936Y00030478D01*
X00030075Y00030339D01*
X00030005Y00030186D02*
X00030117Y00030297D01*
X00029783Y00030409D02*
X00029894Y00030520D01*
X00028713Y00030297D02*
X00028894Y00030339D01*
X00028713Y00030297D02*
X00028755Y00030478D01*
X00028894Y00030339D01*
X00028824Y00030186D02*
X00028935Y00030297D01*
X00028601Y00030409D02*
X00028713Y00030520D01*
X00027532Y00030297D02*
X00027713Y00030339D01*
X00027532Y00030297D02*
X00027573Y00030478D01*
X00027713Y00030339D01*
X00027643Y00030186D02*
X00027754Y00030297D01*
X00027420Y00030409D02*
X00027532Y00030520D01*
X00026351Y00030297D02*
X00026532Y00030339D01*
X00026351Y00030297D02*
X00026392Y00030478D01*
X00026532Y00030339D01*
X00026462Y00030186D02*
X00026573Y00030297D01*
X00026239Y00030409D02*
X00026351Y00030520D01*
X00025169Y00030297D02*
X00025350Y00030339D01*
X00025169Y00030297D02*
X00025211Y00030478D01*
X00025350Y00030339D01*
X00025281Y00030186D02*
X00025392Y00030297D01*
X00025058Y00030409D02*
X00025169Y00030520D01*
X00023988Y00030297D02*
X00024169Y00030339D01*
X00023988Y00030297D02*
X00024030Y00030478D01*
X00024169Y00030339D01*
X00024100Y00030186D02*
X00024211Y00030297D01*
X00023877Y00030409D02*
X00023988Y00030520D01*
X00022807Y00030297D02*
X00022988Y00030339D01*
X00022807Y00030297D02*
X00022849Y00030478D01*
X00022988Y00030339D01*
X00022919Y00030186D02*
X00023030Y00030297D01*
X00022696Y00030409D02*
X00022807Y00030520D01*
X00021626Y00030297D02*
X00021807Y00030339D01*
X00021626Y00030297D02*
X00021668Y00030478D01*
X00021807Y00030339D01*
X00021737Y00030186D02*
X00021849Y00030297D01*
X00021515Y00030409D02*
X00021626Y00030520D01*
X00020445Y00030297D02*
X00020626Y00030339D01*
X00020445Y00030297D02*
X00020487Y00030478D01*
X00020626Y00030339D01*
X00020556Y00030186D02*
X00020668Y00030297D01*
X00020334Y00030409D02*
X00020445Y00030520D01*
X00019264Y00030297D02*
X00019445Y00030339D01*
X00019264Y00030297D02*
X00019306Y00030478D01*
X00019445Y00030339D01*
X00019375Y00030186D02*
X00019487Y00030297D01*
X00019153Y00030409D02*
X00019264Y00030520D01*
X00018083Y00030297D02*
X00018264Y00030339D01*
X00018083Y00030297D02*
X00018125Y00030478D01*
X00018264Y00030339D01*
X00018194Y00030186D02*
X00018306Y00030297D01*
X00017972Y00030409D02*
X00018083Y00030520D01*
X00016902Y00030297D02*
X00017083Y00030339D01*
X00016902Y00030297D02*
X00016944Y00030478D01*
X00017083Y00030339D01*
X00017013Y00030186D02*
X00017124Y00030297D01*
X00016790Y00030409D02*
X00016902Y00030520D01*
X00015721Y00030297D02*
X00015902Y00030339D01*
X00015721Y00030297D02*
X00015762Y00030478D01*
X00015902Y00030339D01*
X00015832Y00030186D02*
X00015943Y00030297D01*
X00015609Y00030409D02*
X00015721Y00030520D01*
X00014540Y00030297D02*
X00014720Y00030339D01*
X00014540Y00030297D02*
X00014581Y00030478D01*
X00014720Y00030339D01*
X00014651Y00030186D02*
X00014762Y00030297D01*
X00014428Y00030409D02*
X00014540Y00030520D01*
X00013358Y00030297D02*
X00013539Y00030339D01*
X00013358Y00030297D02*
X00013400Y00030478D01*
X00013539Y00030339D01*
X00013470Y00030186D02*
X00013581Y00030297D01*
X00013247Y00030409D02*
X00013358Y00030520D01*
X00012177Y00030297D02*
X00012358Y00030339D01*
X00012177Y00030297D02*
X00012219Y00030478D01*
X00012358Y00030339D01*
X00012289Y00030186D02*
X00012400Y00030297D01*
X00012066Y00030409D02*
X00012177Y00030520D01*
X00010996Y00030297D02*
X00011177Y00030339D01*
X00010996Y00030297D02*
X00011038Y00030478D01*
X00011177Y00030339D01*
X00011108Y00030186D02*
X00011219Y00030297D01*
X00010885Y00030409D02*
X00010996Y00030520D01*
X00009815Y00030297D02*
X00009996Y00030339D01*
X00009815Y00030297D02*
X00009857Y00030478D01*
X00009996Y00030339D01*
X00009926Y00030186D02*
X00010038Y00030297D01*
X00009704Y00030409D02*
X00009815Y00030520D01*
X00008634Y00030297D02*
X00008815Y00030339D01*
X00008634Y00030297D02*
X00008676Y00030478D01*
X00008815Y00030339D01*
X00008745Y00030186D02*
X00008857Y00030297D01*
X00008523Y00030409D02*
X00008634Y00030520D01*
X00007453Y00030297D02*
X00007634Y00030339D01*
X00007453Y00030297D02*
X00007495Y00030478D01*
X00007634Y00030339D01*
X00007564Y00030186D02*
X00007676Y00030297D01*
X00007342Y00030409D02*
X00007453Y00030520D01*
X00006272Y00030297D02*
X00006453Y00030339D01*
X00006272Y00030297D02*
X00006314Y00030478D01*
X00006453Y00030339D01*
X00006383Y00030186D02*
X00006495Y00030297D01*
X00006160Y00030409D02*
X00006272Y00030520D01*
X00005091Y00030297D02*
X00005272Y00030339D01*
X00005091Y00030297D02*
X00005132Y00030478D01*
X00005272Y00030339D01*
X00005202Y00030186D02*
X00005313Y00030297D01*
X00004979Y00030409D02*
X00005091Y00030520D01*
D30*
X00033128Y00032537D02*
X00033128Y00033137D01*
X00033428Y00033137D01*
X00033528Y00033037D01*
X00033528Y00032837D01*
X00033428Y00032737D01*
X00033128Y00032737D01*
X00033728Y00033037D02*
X00033828Y00033137D01*
X00034028Y00033137D01*
X00034128Y00033037D01*
X00034128Y00032937D01*
X00034028Y00032837D01*
X00033928Y00032837D01*
X00034028Y00032837D01*
X00034128Y00032737D01*
X00034128Y00032637D01*
X00034028Y00032537D01*
X00033828Y00032537D01*
X00033728Y00032637D01*
X00008138Y00032537D02*
X00008138Y00033137D01*
X00008438Y00033137D01*
X00008538Y00033037D01*
X00008538Y00032837D01*
X00008438Y00032737D01*
X00008138Y00032737D01*
X00009138Y00032537D02*
X00008738Y00032537D01*
X00009138Y00032937D01*
X00009138Y00033037D01*
X00009038Y00033137D01*
X00008838Y00033137D01*
X00008738Y00033037D01*
X00005338Y00020227D02*
X00005338Y00020827D01*
X00005638Y00020827D01*
X00005738Y00020727D01*
X00005738Y00020527D01*
X00005638Y00020427D01*
X00005338Y00020427D01*
X00005938Y00020227D02*
X00006138Y00020227D01*
X00006038Y00020227D01*
X00006038Y00020827D01*
X00005938Y00020727D01*
X00002755Y00019685D02*
G03*
X00003937Y00018503I00001181D01*
G01*
X00051181Y00018503D02*
G03*
X00052362Y00019685J00001181D01*
G01*
X00052362Y00031496D02*
G03*
X00051181Y00032677I-00001181D01*
G01*
X00003937Y00032677D02*
G03*
X00002755Y00031496J-00001181D01*
G01*
X00052362Y00019685D02*
X00052362Y00031496D01*
X00003937Y00018503D02*
X00051181Y00018503D01*
X00003937Y00032667D02*
X00051181Y00032667D01*
X00002755Y00019685D02*
X00002755Y00031496D01*
M02*