%
M48
METRIC,000.000
T01C0.10
T02C0.20
T03C0.30
T06C0.80
T07C0.90
T08C3.00
T10C0.50
T11C0.60
%
T01
X129038Y028549
X129961Y028549
X129961Y037000
X129038Y037000
T02
X091125Y028799
X091550Y029700
X092245Y030629
X091425Y031224
X092650Y031674
T03
X042450Y015224
X042425Y017049
X042425Y018950
X042425Y020875
X046724Y020875
X046750Y018974
X046800Y017075
X046800Y015250
X048525Y024500
X047500Y026275
X054675Y021150
X062675Y026224
X065650Y025025
X066350Y027549
X071725Y027985
X071775Y022549
X071750Y021200
X066690Y017500
X085000Y017500
X084850Y020674
X092120Y017500
X094229Y016500
X095350Y022980
X095350Y024250
X097150Y024950
X097150Y021200
X100150Y022275
X099625Y029974
X103650Y028200
X107951Y027985
X109520Y027974
X108449Y022250
X112074Y022400
X118550Y020890
X120300Y021575
X119824Y026375
X116850Y029000
X118425Y036025
X116350Y038150
X121150Y033875
X122775Y032174
X125175Y023099
X089550Y051625
X091500Y051838
X092550Y051625
X094275Y051800
X095550Y051625
X097375Y051800
X098550Y051625
X100375Y051800
X101550Y051625
X103550Y051838
X104574Y051625
X106475Y051838
X107550Y051625
X109525Y051849
X110574Y051625
X113550Y051625
X116550Y051625
X119550Y051625
X122574Y051625
X125574Y051525
X088425Y051800
X086550Y051625
X083575Y051625
X080550Y051625
X077550Y051625
X074525Y051625
X071550Y051575
X068575Y051575
X065550Y051575
X062550Y051575
X059550Y051575
X056575Y051575
X053550Y051575
X050550Y051575
X047550Y051575
X044575Y051575
X041575Y051575
X038550Y051575
X035550Y051575
X032549Y051575
X029575Y051575
X026575Y051575
X023549Y051575
X020549Y051575
X017549Y051550
X014575Y051575
X014575Y054550
X017549Y054525
X020549Y054550
X023549Y054550
X026575Y054550
X029575Y054550
X032549Y054550
X035550Y054550
X038550Y054550
X041575Y054550
X044575Y054550
X047550Y054550
X047550Y057575
X044575Y057575
X041575Y057575
X041550Y060575
X044550Y060575
X047525Y060575
X047550Y063575
X044575Y063575
X044575Y066575
X047550Y066575
X047550Y069575
X044575Y069575
X041575Y069575
X041575Y066575
X041575Y063575
X038550Y063575
X038550Y066575
X038550Y069575
X035550Y069575
X035550Y066575
X035550Y063575
X032549Y063575
X029575Y063575
X029575Y066575
X032549Y066575
X032549Y069575
X029575Y069575
X026575Y069575
X026575Y066575
X026575Y063575
X026549Y060575
X029549Y060575
X032525Y060575
X035525Y060575
X038525Y060575
X038550Y057575
X035550Y057575
X032549Y057575
X029575Y057575
X026575Y057575
X023549Y057575
X020549Y057575
X020525Y060575
X023525Y060575
X023549Y063575
X023549Y066575
X023549Y069575
X020549Y069575
X020549Y066575
X020549Y063575
X017549Y063550
X014575Y063575
X014575Y066575
X014575Y069575
X017549Y069550
X017549Y066550
X017525Y060550
X014549Y060575
X014575Y057575
X017549Y057550
X017525Y072575
X014549Y072600
X014575Y075600
X017549Y075575
X020549Y075600
X023549Y075600
X023525Y072600
X020525Y072600
X026549Y072600
X029549Y072600
X032525Y072600
X035525Y072600
X038525Y072600
X038550Y075600
X035550Y075600
X032549Y075600
X029575Y075600
X026575Y075600
X041575Y075600
X044575Y075600
X047550Y075600
X047525Y072600
X044550Y072600
X041550Y072600
X050525Y072600
X053525Y072600
X053550Y075600
X050550Y075600
X056575Y075600
X059550Y075600
X062550Y075600
X065550Y075600
X065525Y072600
X062525Y072600
X059525Y072600
X056550Y072600
X056575Y069575
X059550Y069575
X059550Y066575
X056575Y066575
X056575Y063575
X059550Y063575
X062550Y063575
X065550Y063575
X065550Y066575
X065550Y069575
X062550Y069575
X062550Y066575
X068575Y066575
X071550Y066575
X071550Y069575
X068575Y069575
X068550Y072600
X071525Y072600
X074500Y072650
X074525Y075650
X071550Y075600
X068575Y075600
X077550Y075650
X080550Y075650
X080525Y072650
X077525Y072650
X077550Y069625
X077550Y066625
X077550Y063625
X080550Y063625
X080550Y066625
X080550Y069625
X083575Y069625
X086550Y069625
X086550Y066625
X083575Y066625
X083575Y063625
X086550Y063625
X086525Y060625
X083550Y060625
X083575Y057625
X086550Y057625
X086550Y054599
X088475Y054900
X083575Y054599
X080550Y054599
X077550Y054599
X077550Y057625
X080550Y057625
X080525Y060625
X077525Y060625
X074500Y060625
X074525Y057625
X071550Y057575
X068575Y057575
X068550Y060575
X071525Y060575
X071550Y063575
X068575Y063575
X074525Y063625
X074525Y066625
X074525Y069625
X083550Y072650
X086525Y072650
X086550Y075650
X083575Y075650
X074525Y054599
X071550Y054550
X068575Y054550
X065550Y054550
X062550Y054550
X059550Y054550
X056575Y054550
X056575Y057575
X059550Y057575
X062550Y057575
X065550Y057575
X065525Y060575
X062525Y060575
X059525Y060575
X056550Y060575
X053525Y060575
X050525Y060575
X050550Y057575
X053550Y057575
X053550Y054550
X050550Y054550
X050550Y063575
X053550Y063575
X053550Y066575
X053550Y069575
X050550Y069575
X050550Y066575
X089550Y066625
X092550Y066625
X092550Y069625
X089550Y069625
X089525Y072650
X092525Y072650
X095525Y072650
X098525Y072650
X101525Y072650
X101550Y075650
X098550Y075650
X095550Y075650
X092550Y075650
X089550Y075650
X089550Y063625
X092550Y063625
X095550Y063625
X097375Y063800
X098550Y063625
X101550Y063625
X101550Y066625
X100375Y066900
X098550Y066625
X098550Y069625
X101550Y069625
X103550Y070013
X104574Y069625
X107550Y069625
X107550Y066625
X104574Y066625
X104574Y063625
X107550Y063625
X110574Y063625
X113550Y063625
X116550Y063625
X119550Y063625
X119550Y066625
X119550Y069625
X116550Y069625
X116550Y066625
X113550Y066625
X110574Y066625
X110574Y069625
X113550Y069625
X113525Y072650
X110550Y072650
X110574Y075650
X109225Y075625
X107550Y075650
X104574Y075650
X104550Y072650
X106475Y073000
X107525Y072650
X116525Y072650
X119525Y072650
X119550Y075650
X116550Y075650
X113550Y075650
X122574Y075650
X122550Y072650
X122574Y069625
X122574Y066625
X122574Y063625
X122550Y060625
X122574Y057625
X122574Y054599
X119550Y054599
X116550Y054599
X113550Y054599
X110574Y054599
X110574Y057625
X113550Y057625
X116550Y057625
X119550Y057625
X119525Y060625
X116525Y060625
X113525Y060625
X110550Y060625
X107525Y060625
X104550Y060625
X104574Y057625
X107550Y057625
X107550Y054599
X104574Y054599
X101550Y054599
X098550Y054599
X095550Y054599
X092550Y054599
X089550Y054599
X089550Y057625
X091500Y057825
X092550Y057625
X095550Y057625
X098550Y057625
X101550Y057625
X101525Y060625
X098525Y060625
X095525Y060625
X094275Y060800
X092525Y060625
X089525Y060625
X095550Y066625
X095550Y069625
X125574Y069525
X125574Y066525
X125574Y063525
X125550Y060525
X125574Y057525
X125574Y054500
X125550Y072550
X125574Y075550
T06
X007875Y031949
X007875Y034950
X015850Y033769
X015850Y031230
X015850Y028689
X015850Y036310
T07
X009200Y015754
X009200Y018295
X009200Y020834
X009200Y023375
X009200Y025915
X084900Y010522
X087440Y010522
X089980Y010522
X092520Y010522
X095060Y010522
X097600Y010522
X100140Y010522
X102680Y010522
X105220Y010522
X105229Y041547
X107770Y041547
X110310Y041547
X112850Y041547
X115389Y041547
X117930Y041547
X102690Y041547
X100150Y041547
X097610Y041547
X095070Y041547
X092530Y041547
X089990Y041547
X087450Y041547
X084910Y041547
X082410Y041547
X079870Y041547
X077330Y041547
X074790Y041547
X072250Y041547
X069710Y041547
X067170Y041547
X064629Y041547
X062090Y041547
X059550Y041547
X057010Y041547
X054470Y041547
X051930Y041547
X049390Y041547
X046849Y041547
X044310Y041547
X041769Y041547
X039230Y041547
X036690Y041547
X034150Y041547
X031610Y041547
X029070Y041547
X026530Y041547
X023990Y041547
X021450Y041547
X090330Y049500
X092870Y049500
X095410Y049500
X097950Y049500
X100490Y049500
X103030Y049500
X105570Y049500
X087790Y049500
X085250Y049500
X047200Y080525
X044660Y080525
X042120Y080525
X039580Y080525
X037040Y080525
X034500Y080525
X031960Y080525
X029420Y080525
X026880Y080525
X024340Y080525
X021799Y080525
X049739Y080525
X052280Y080525
X054819Y080525
X057360Y080525
X059900Y080525
X062440Y080525
X064980Y080525
X067520Y080525
X070060Y080525
X072600Y080525
X075140Y080525
X077680Y080525
X080220Y080525
X082760Y080525
X085260Y080525
X087800Y080525
X090340Y080525
X092880Y080525
X095420Y080525
X097960Y080525
X100500Y080525
X103039Y080525
X105580Y080525
X108120Y080525
X110660Y080525
X113199Y080525
X115740Y080525
X118280Y080525
T08
X009649Y011022
X129650Y011022
X129650Y041022
X009649Y041022
X130000Y050000
X010000Y050000
X010000Y080000
X130000Y080000
T10
X128975Y028549
X128275Y028549
X130725Y028549
X130025Y028549
X130725Y037000
X130025Y037000
X128975Y037000
X128275Y037000
X021855Y044269
X020855Y044269
X019855Y044269
X018855Y044270
X017855Y044270
X017593Y046750
X018593Y046750
X019593Y046750
X020593Y046750
X021593Y046750
X022593Y046750
X041855Y044265
X040855Y044265
X039855Y044265
X038855Y044265
X037855Y044266
X036855Y044266
X037593Y046750
X038593Y046750
X039593Y046750
X040593Y046750
X041593Y046750
X061855Y044261
X060855Y044261
X059855Y044261
X058855Y044261
X057855Y044261
X057593Y046750
X058593Y046750
X059593Y046750
X060593Y046750
X061593Y046750
X062593Y046750
X081855Y044256
X080855Y044257
X079855Y044257
X078855Y044257
X077855Y044257
X076855Y044257
X077593Y046750
X078593Y046750
X079593Y046750
X080593Y046750
X081593Y046750
X101855Y044252
X100855Y044252
X099855Y044253
X098855Y044253
X097855Y044253
X097593Y046750
X098593Y046750
X099593Y046750
X100593Y046750
X101593Y046750
X102593Y046750
X121855Y044248
X120855Y044248
X119855Y044249
X118855Y044249
X117855Y044249
X117593Y046750
X118593Y046750
X119593Y046750
X120593Y046750
X121593Y046750
X122593Y046750
X006750Y057306
X006750Y056306
X006750Y055306
X006750Y054306
X006750Y053306
X006750Y052306
X004250Y056836
X004250Y055836
X004250Y054836
X004250Y053836
X004250Y052836
X006750Y076306
X006750Y075306
X006750Y074306
X006750Y073306
X006750Y072306
X004250Y076836
X004250Y075836
X004250Y074836
X004250Y073836
X004250Y072836
X004250Y071836
X022205Y083247
X021205Y083247
X020205Y083247
X019205Y083248
X018205Y083248
X021802Y085747
X020802Y085747
X019802Y085747
X018802Y085748
X017802Y085748
X042205Y083243
X041205Y083243
X040205Y083243
X039205Y083243
X038205Y083244
X037205Y083244
X041802Y085743
X040802Y085743
X039802Y085743
X038802Y085744
X037802Y085744
X036802Y085744
X062205Y083239
X061205Y083239
X060205Y083239
X059205Y083239
X058205Y083239
X061802Y085739
X060802Y085739
X059802Y085739
X058802Y085739
X057802Y085740
X083205Y083234
X082205Y083234
X081205Y083235
X080205Y083235
X079205Y083235
X078205Y083235
X082802Y085734
X081802Y085735
X080802Y085735
X079802Y085735
X078802Y085735
X077802Y085735
X102205Y083230
X101205Y083230
X100205Y083231
X099205Y083231
X098205Y083231
X101802Y085730
X100802Y085731
X099802Y085731
X098802Y085731
X097802Y085731
X122205Y083226
X121205Y083226
X120205Y083227
X119205Y083227
X118205Y083227
X121802Y085726
X120802Y085726
X119802Y085727
X118802Y085727
X117802Y085727
X133250Y072899
X133250Y073899
X133250Y074899
X133250Y075899
X133250Y076899
X135750Y072289
X135750Y073289
X135750Y074289
X135750Y075289
X135750Y076289
X135750Y077289
X133250Y052899
X133250Y053899
X133250Y054899
X133250Y055899
X133250Y056899
X133250Y057899
X135750Y053289
X135750Y054289
X135750Y055289
X135750Y056289
X135750Y057289
X132899Y032921
X132899Y033921
X132899Y034921
X132899Y035921
X132899Y036921
X132899Y037921
X135399Y033073
X135399Y034073
X135399Y035073
X135399Y036073
X135399Y037073
X135399Y038073
X132899Y012921
X132899Y013921
X132899Y014921
X132899Y015921
X132899Y016921
X132899Y017921
X135399Y013073
X135399Y014073
X135399Y015073
X135399Y016073
X135399Y017073
X135399Y018073
X118243Y007771
X119243Y007771
X120243Y007771
X121243Y007771
X122243Y007771
X118018Y005271
X119018Y005271
X120018Y005271
X121018Y005271
X122018Y005271
X098243Y007771
X099243Y007771
X100243Y007771
X101243Y007771
X102243Y007771
X098018Y005271
X099018Y005271
X100018Y005271
X101018Y005271
X102018Y005271
X078243Y007771
X079243Y007771
X080243Y007771
X081243Y007771
X082243Y007771
X078018Y005271
X079018Y005271
X080018Y005271
X081018Y005271
X082018Y005271
X058243Y007771
X059243Y007771
X060243Y007771
X061243Y007771
X062243Y007771
X058018Y005271
X059018Y005271
X060018Y005271
X061018Y005271
X062018Y005271
X038243Y007771
X039243Y007771
X040243Y007771
X041243Y007771
X042243Y007771
X038018Y005271
X039018Y005271
X040018Y005271
X041018Y005271
X042018Y005271
X018243Y007771
X019243Y007771
X020243Y007771
X021243Y007771
X022243Y007771
X018018Y005271
X019018Y005271
X020018Y005271
X021018Y005271
X022018Y005271
X006399Y036328
X006399Y035328
X006399Y034328
X006399Y033328
X006399Y032328
X003899Y036620
X003899Y035620
X003899Y034620
X003899Y033620
X003899Y032619
X006399Y017328
X006399Y016328
X006399Y015328
X006399Y014328
X006399Y013328
X003899Y017620
X003899Y016620
X003899Y015620
X003899Y014620
X003899Y013620
X003899Y012620
T11
X127125Y029174
X126725Y029174
X127125Y036375
X126725Y036375
M30