%MOIN*%
%OFA0B0*%
%FSLAX44Y44*%
%IPPOS*%
%LPD*%
%ADD13C,0.005*%
%ADD15C,0.01*%
%ADD17C,0.0039370078740157488*%
%ADD87C,0*%
%ADD88C,0.0019685039370078744*%
%ADD101C,0.01*%
G01*
G75*
G36*
X00016933Y00005757D02*
X00018036Y00005757D01*
X00018036Y00006230D01*
X00016933Y00006230D01*
X00016933Y00005757D01*
D02*
G37*
G36*
X00016933Y00006476D02*
X00018036Y00006476D01*
X00018036Y00006948D01*
X00016933Y00006948D01*
X00016933Y00006476D01*
D02*
G37*
G36*
X00016933Y00007224D02*
X00018036Y00007224D01*
X00018036Y00007696D01*
X00016933Y00007696D01*
X00016933Y00007224D01*
D02*
G37*
G36*
X00016933Y00007982D02*
X00018036Y00007982D01*
X00018036Y00008454D01*
X00016933Y00008454D01*
X00016933Y00007982D01*
D02*
G37*
G36*
X00050733Y00009330D02*
X00051835Y00009330D01*
X00051835Y00009803D01*
X00050733Y00009803D01*
X00050733Y00009330D01*
D02*
G37*
G36*
X00050762Y00010118D02*
X00051864Y00010118D01*
X00051864Y00010590D01*
X00050762Y00010590D01*
X00050762Y00010118D01*
D02*
G37*
D13*
X00035403Y00010996D02*
X00035403Y00013751D01*
X00032647Y00010996D02*
X00032647Y00013751D01*
X00035403Y00013751D01*
X00032647Y00010996D02*
X00035403Y00010996D01*
X00035403Y00013751D01*
X00032647Y00010996D02*
X00032647Y00013751D01*
X00035403Y00013751D01*
X00032647Y00010996D02*
X00035403Y00010996D01*
D15*
X00003799Y00017331D02*
G03*
X00002618Y00016150J-00001181D01*
G01*
X00052224Y00016150D02*
G03*
X00051043Y00017331I-00001181D01*
G01*
X00051043Y00003158D02*
G03*
X00052224Y00004339J00001181D01*
G01*
X00002618Y00004339D02*
G03*
X00003799Y00003158I00001181D01*
G01*
X00002618Y00004339D02*
X00002618Y00016150D01*
X00003799Y00017321D02*
X00051043Y00017321D01*
X00003799Y00003158D02*
X00051043Y00003158D01*
X00052224Y00004339D02*
X00052224Y00016150D01*
D17*
X00047864Y00012238D02*
X00047903Y00012277D01*
X00047864Y00012198D02*
X00047942Y00012277D01*
X00047864Y00012159D02*
X00047982Y00012277D01*
X00047864Y00012120D02*
X00048021Y00012277D01*
X00047864Y00012080D02*
X00048061Y00012277D01*
X00047864Y00012041D02*
X00048100Y00012277D01*
X00047864Y00012001D02*
X00048139Y00012277D01*
X00047864Y00011962D02*
X00048179Y00012277D01*
X00047864Y00011923D02*
X00048218Y00012277D01*
X00047864Y00011883D02*
X00048257Y00012277D01*
X00047864Y00011127D02*
X00048375Y00011127D01*
X00048375Y00012277D01*
X00047864Y00012277D02*
X00048375Y00012277D01*
X00047864Y00011127D02*
X00047864Y00012277D01*
D87*
X00035791Y00013562D02*
G03*
X00035791Y00013562I-00000078D01*
G01*
D02*
G03*
X00035791Y00013562I-00000078D01*
G01*
D88*
X00020364Y00011643D02*
X00020364Y00014399D01*
X00020167Y00011643D02*
X00020364Y00011643D01*
X00020167Y00003966D02*
X00020167Y00011643D01*
X00020167Y00003966D02*
X00027844Y00003966D01*
X00027844Y00011643D01*
X00027647Y00011643D02*
X00027844Y00011643D01*
X00027647Y00011643D02*
X00027647Y00014399D01*
X00020364Y00014399D02*
X00027647Y00014399D01*
G04 next file*
G04*
G04 #@! TF.GenerationSoftware,Altium Limited,Altium Designer,18.1.9 (240)*
G04*
G04 Layer_Color=32896*
G04 skipping 71
G01*
G75*
G36*
X00050585Y00030576D02*
X00049806Y00029796D01*
X00049472Y00030130D01*
X00050251Y00030910D01*
X00050585Y00030576D01*
D02*
G37*
G36*
X00049404Y00030576D02*
X00048624Y00029796D01*
X00048290Y00030130D01*
X00049070Y00030910D01*
X00049404Y00030576D01*
D02*
G37*
G36*
X00048223Y00030576D02*
X00047443Y00029796D01*
X00047109Y00030130D01*
X00047889Y00030910D01*
X00048223Y00030576D01*
D02*
G37*
G36*
X00047042Y00030576D02*
X00046262Y00029796D01*
X00045928Y00030130D01*
X00046708Y00030910D01*
X00047042Y00030576D01*
D02*
G37*
G36*
X00045861Y00030576D02*
X00045081Y00029796D01*
X00044747Y00030130D01*
X00045527Y00030910D01*
X00045861Y00030576D01*
D02*
G37*
G36*
X00044680Y00030576D02*
X00043900Y00029796D01*
X00043566Y00030130D01*
X00044345Y00030910D01*
X00044680Y00030576D01*
D02*
G37*
G36*
X00043498Y00030576D02*
X00042719Y00029796D01*
X00042385Y00030130D01*
X00043164Y00030910D01*
X00043498Y00030576D01*
D02*
G37*
G36*
X00042317Y00030576D02*
X00041538Y00029796D01*
X00041204Y00030130D01*
X00041983Y00030910D01*
X00042317Y00030576D01*
D02*
G37*
G36*
X00041136Y00030576D02*
X00040357Y00029796D01*
X00040023Y00030130D01*
X00040802Y00030910D01*
X00041136Y00030576D01*
D02*
G37*
G36*
X00039955Y00030576D02*
X00039176Y00029796D01*
X00038842Y00030130D01*
X00039621Y00030910D01*
X00039955Y00030576D01*
D02*
G37*
G36*
X00038774Y00030576D02*
X00037995Y00029796D01*
X00037660Y00030130D01*
X00038440Y00030910D01*
X00038774Y00030576D01*
D02*
G37*
G36*
X00037593Y00030576D02*
X00036813Y00029796D01*
X00036479Y00030130D01*
X00037259Y00030910D01*
X00037593Y00030576D01*
D02*
G37*
G36*
X00036412Y00030576D02*
X00035632Y00029796D01*
X00035298Y00030130D01*
X00036078Y00030910D01*
X00036412Y00030576D01*
D02*
G37*
G36*
X00035231Y00030576D02*
X00034451Y00029796D01*
X00034117Y00030130D01*
X00034897Y00030910D01*
X00035231Y00030576D01*
D02*
G37*
G36*
X00034050Y00030576D02*
X00033270Y00029796D01*
X00032936Y00030130D01*
X00033716Y00030910D01*
X00034050Y00030576D01*
D02*
G37*
G36*
X00032869Y00030576D02*
X00032089Y00029796D01*
X00031755Y00030130D01*
X00032534Y00030910D01*
X00032869Y00030576D01*
D02*
G37*
G36*
X00031687Y00030576D02*
X00030908Y00029796D01*
X00030574Y00030130D01*
X00031353Y00030910D01*
X00031687Y00030576D01*
D02*
G37*
G36*
X00030506Y00030576D02*
X00029727Y00029796D01*
X00029393Y00030130D01*
X00030172Y00030910D01*
X00030506Y00030576D01*
D02*
G37*
G36*
X00029325Y00030576D02*
X00028546Y00029796D01*
X00028212Y00030130D01*
X00028991Y00030910D01*
X00029325Y00030576D01*
D02*
G37*
G36*
X00028144Y00030576D02*
X00027365Y00029796D01*
X00027031Y00030130D01*
X00027810Y00030910D01*
X00028144Y00030576D01*
D02*
G37*
G36*
X00026963Y00030576D02*
X00026184Y00029796D01*
X00025849Y00030130D01*
X00026629Y00030910D01*
X00026963Y00030576D01*
D02*
G37*
G36*
X00025782Y00030576D02*
X00025002Y00029796D01*
X00024668Y00030130D01*
X00025448Y00030910D01*
X00025782Y00030576D01*
D02*
G37*
G36*
X00024601Y00030576D02*
X00023821Y00029796D01*
X00023487Y00030130D01*
X00024267Y00030910D01*
X00024601Y00030576D01*
D02*
G37*
G36*
X00023420Y00030576D02*
X00022640Y00029796D01*
X00022306Y00030130D01*
X00023086Y00030910D01*
X00023420Y00030576D01*
D02*
G37*
G36*
X00022239Y00030576D02*
X00021459Y00029796D01*
X00021125Y00030130D01*
X00021905Y00030910D01*
X00022239Y00030576D01*
D02*
G37*
G36*
X00021057Y00030576D02*
X00020278Y00029796D01*
X00019944Y00030130D01*
X00020723Y00030910D01*
X00021057Y00030576D01*
D02*
G37*
G36*
X00019876Y00030576D02*
X00019097Y00029796D01*
X00018763Y00030130D01*
X00019542Y00030910D01*
X00019876Y00030576D01*
D02*
G37*
G36*
X00018695Y00030576D02*
X00017916Y00029796D01*
X00017582Y00030130D01*
X00018361Y00030910D01*
X00018695Y00030576D01*
D02*
G37*
G36*
X00017514Y00030576D02*
X00016735Y00029796D01*
X00016401Y00030130D01*
X00017180Y00030910D01*
X00017514Y00030576D01*
D02*
G37*
G36*
X00016333Y00030576D02*
X00015554Y00029796D01*
X00015220Y00030130D01*
X00015999Y00030910D01*
X00016333Y00030576D01*
D02*
G37*
G36*
X00015152Y00030576D02*
X00014372Y00029796D01*
X00014038Y00030130D01*
X00014818Y00030910D01*
X00015152Y00030576D01*
D02*
G37*
G36*
X00013971Y00030576D02*
X00013191Y00029796D01*
X00012857Y00030130D01*
X00013637Y00030910D01*
X00013971Y00030576D01*
D02*
G37*
G36*
X00012790Y00030576D02*
X00012010Y00029796D01*
X00011676Y00030130D01*
X00012456Y00030910D01*
X00012790Y00030576D01*
D02*
G37*
G36*
X00011609Y00030576D02*
X00010829Y00029796D01*
X00010495Y00030130D01*
X00011275Y00030910D01*
X00011609Y00030576D01*
D02*
G37*
G36*
X00010428Y00030576D02*
X00009648Y00029796D01*
X00009314Y00030130D01*
X00010094Y00030910D01*
X00010428Y00030576D01*
D02*
G37*
G36*
X00009246Y00030576D02*
X00008467Y00029796D01*
X00008133Y00030130D01*
X00008912Y00030910D01*
X00009246Y00030576D01*
D02*
G37*
G36*
X00008065Y00030576D02*
X00007286Y00029796D01*
X00006952Y00030130D01*
X00007731Y00030910D01*
X00008065Y00030576D01*
D02*
G37*
G36*
X00006884Y00030576D02*
X00006105Y00029796D01*
X00005771Y00030130D01*
X00006550Y00030910D01*
X00006884Y00030576D01*
D02*
G37*
G36*
X00005703Y00030576D02*
X00004924Y00029796D01*
X00004590Y00030130D01*
X00005369Y00030910D01*
X00005703Y00030576D01*
D02*
G37*
G36*
X00050585Y00029395D02*
X00049806Y00028615D01*
X00049472Y00028949D01*
X00050251Y00029729D01*
X00050585Y00029395D01*
D02*
G37*
G36*
X00049404Y00029395D02*
X00048624Y00028615D01*
X00048290Y00028949D01*
X00049070Y00029729D01*
X00049404Y00029395D01*
D02*
G37*
G36*
X00048223Y00029395D02*
X00047443Y00028615D01*
X00047109Y00028949D01*
X00047889Y00029729D01*
X00048223Y00029395D01*
D02*
G37*
G36*
X00047042Y00029395D02*
X00046262Y00028615D01*
X00045928Y00028949D01*
X00046708Y00029729D01*
X00047042Y00029395D01*
D02*
G37*
G36*
X00045861Y00029395D02*
X00045081Y00028615D01*
X00044747Y00028949D01*
X00045527Y00029729D01*
X00045861Y00029395D01*
D02*
G37*
G36*
X00044680Y00029395D02*
X00043900Y00028615D01*
X00043566Y00028949D01*
X00044345Y00029729D01*
X00044680Y00029395D01*
D02*
G37*
G36*
X00043498Y00029395D02*
X00042719Y00028615D01*
X00042385Y00028949D01*
X00043164Y00029729D01*
X00043498Y00029395D01*
D02*
G37*
G36*
X00042317Y00029395D02*
X00041538Y00028615D01*
X00041204Y00028949D01*
X00041983Y00029729D01*
X00042317Y00029395D01*
D02*
G37*
G36*
X00041136Y00029395D02*
X00040357Y00028615D01*
X00040023Y00028949D01*
X00040802Y00029729D01*
X00041136Y00029395D01*
D02*
G37*
G36*
X00039955Y00029395D02*
X00039176Y00028615D01*
X00038842Y00028949D01*
X00039621Y00029729D01*
X00039955Y00029395D01*
D02*
G37*
G36*
X00038774Y00029395D02*
X00037995Y00028615D01*
X00037660Y00028949D01*
X00038440Y00029729D01*
X00038774Y00029395D01*
D02*
G37*
G36*
X00037593Y00029395D02*
X00036813Y00028615D01*
X00036479Y00028949D01*
X00037259Y00029729D01*
X00037593Y00029395D01*
D02*
G37*
G36*
X00036412Y00029395D02*
X00035632Y00028615D01*
X00035298Y00028949D01*
X00036078Y00029729D01*
X00036412Y00029395D01*
D02*
G37*
G36*
X00035231Y00029395D02*
X00034451Y00028615D01*
X00034117Y00028949D01*
X00034897Y00029729D01*
X00035231Y00029395D01*
D02*
G37*
G36*
X00034050Y00029395D02*
X00033270Y00028615D01*
X00032936Y00028949D01*
X00033716Y00029729D01*
X00034050Y00029395D01*
D02*
G37*
G36*
X00032869Y00029395D02*
X00032089Y00028615D01*
X00031755Y00028949D01*
X00032534Y00029729D01*
X00032869Y00029395D01*
D02*
G37*
G36*
X00031687Y00029395D02*
X00030908Y00028615D01*
X00030574Y00028949D01*
X00031353Y00029729D01*
X00031687Y00029395D01*
D02*
G37*
G36*
X00030506Y00029395D02*
X00029727Y00028615D01*
X00029393Y00028949D01*
X00030172Y00029729D01*
X00030506Y00029395D01*
D02*
G37*
G36*
X00029325Y00029395D02*
X00028546Y00028615D01*
X00028212Y00028949D01*
X00028991Y00029729D01*
X00029325Y00029395D01*
D02*
G37*
G36*
X00028144Y00029395D02*
X00027365Y00028615D01*
X00027031Y00028949D01*
X00027810Y00029729D01*
X00028144Y00029395D01*
D02*
G37*
G36*
X00026963Y00029395D02*
X00026184Y00028615D01*
X00025849Y00028949D01*
X00026629Y00029729D01*
X00026963Y00029395D01*
D02*
G37*
G36*
X00025782Y00029395D02*
X00025002Y00028615D01*
X00024668Y00028949D01*
X00025448Y00029729D01*
X00025782Y00029395D01*
D02*
G37*
G36*
X00024601Y00029395D02*
X00023821Y00028615D01*
X00023487Y00028949D01*
X00024267Y00029729D01*
X00024601Y00029395D01*
D02*
G37*
G36*
X00023420Y00029395D02*
X00022640Y00028615D01*
X00022306Y00028949D01*
X00023086Y00029729D01*
X00023420Y00029395D01*
D02*
G37*
G36*
X00022239Y00029395D02*
X00021459Y00028615D01*
X00021125Y00028949D01*
X00021905Y00029729D01*
X00022239Y00029395D01*
D02*
G37*
G36*
X00021057Y00029395D02*
X00020278Y00028615D01*
X00019944Y00028949D01*
X00020723Y00029729D01*
X00021057Y00029395D01*
D02*
G37*
G36*
X00019876Y00029395D02*
X00019097Y00028615D01*
X00018763Y00028949D01*
X00019542Y00029729D01*
X00019876Y00029395D01*
D02*
G37*
G36*
X00018695Y00029395D02*
X00017916Y00028615D01*
X00017582Y00028949D01*
X00018361Y00029729D01*
X00018695Y00029395D01*
D02*
G37*
G36*
X00017514Y00029395D02*
X00016735Y00028615D01*
X00016401Y00028949D01*
X00017180Y00029729D01*
X00017514Y00029395D01*
D02*
G37*
G36*
X00016333Y00029395D02*
X00015554Y00028615D01*
X00015220Y00028949D01*
X00015999Y00029729D01*
X00016333Y00029395D01*
D02*
G37*
G36*
X00015152Y00029395D02*
X00014372Y00028615D01*
X00014038Y00028949D01*
X00014818Y00029729D01*
X00015152Y00029395D01*
D02*
G37*
G36*
X00013971Y00029395D02*
X00013191Y00028615D01*
X00012857Y00028949D01*
X00013637Y00029729D01*
X00013971Y00029395D01*
D02*
G37*
G36*
X00012790Y00029395D02*
X00012010Y00028615D01*
X00011676Y00028949D01*
X00012456Y00029729D01*
X00012790Y00029395D01*
D02*
G37*
G36*
X00011609Y00029395D02*
X00010829Y00028615D01*
X00010495Y00028949D01*
X00011275Y00029729D01*
X00011609Y00029395D01*
D02*
G37*
G36*
X00010428Y00029395D02*
X00009648Y00028615D01*
X00009314Y00028949D01*
X00010094Y00029729D01*
X00010428Y00029395D01*
D02*
G37*
G36*
X00009246Y00029395D02*
X00008467Y00028615D01*
X00008133Y00028949D01*
X00008912Y00029729D01*
X00009246Y00029395D01*
D02*
G37*
G36*
X00008065Y00029395D02*
X00007286Y00028615D01*
X00006952Y00028949D01*
X00007731Y00029729D01*
X00008065Y00029395D01*
D02*
G37*
G36*
X00006884Y00029395D02*
X00006105Y00028615D01*
X00005771Y00028949D01*
X00006550Y00029729D01*
X00006884Y00029395D01*
D02*
G37*
G36*
X00005703Y00029395D02*
X00004924Y00028615D01*
X00004590Y00028949D01*
X00005369Y00029729D01*
X00005703Y00029395D01*
D02*
G37*
G36*
X00050585Y00028214D02*
X00049806Y00027434D01*
X00049472Y00027768D01*
X00050251Y00028548D01*
X00050585Y00028214D01*
D02*
G37*
G36*
X00049404Y00028214D02*
X00048624Y00027434D01*
X00048290Y00027768D01*
X00049070Y00028548D01*
X00049404Y00028214D01*
D02*
G37*
G36*
X00048223Y00028214D02*
X00047443Y00027434D01*
X00047109Y00027768D01*
X00047889Y00028548D01*
X00048223Y00028214D01*
D02*
G37*
G36*
X00047042Y00028214D02*
X00046262Y00027434D01*
X00045928Y00027768D01*
X00046708Y00028548D01*
X00047042Y00028214D01*
D02*
G37*
G36*
X00045861Y00028214D02*
X00045081Y00027434D01*
X00044747Y00027768D01*
X00045527Y00028548D01*
X00045861Y00028214D01*
D02*
G37*
G36*
X00044680Y00028214D02*
X00043900Y00027434D01*
X00043566Y00027768D01*
X00044345Y00028548D01*
X00044680Y00028214D01*
D02*
G37*
G36*
X00043498Y00028214D02*
X00042719Y00027434D01*
X00042385Y00027768D01*
X00043164Y00028548D01*
X00043498Y00028214D01*
D02*
G37*
G36*
X00042317Y00028214D02*
X00041538Y00027434D01*
X00041204Y00027768D01*
X00041983Y00028548D01*
X00042317Y00028214D01*
D02*
G37*
G36*
X00041136Y00028214D02*
X00040357Y00027434D01*
X00040023Y00027768D01*
X00040802Y00028548D01*
X00041136Y00028214D01*
D02*
G37*
G36*
X00039955Y00028214D02*
X00039176Y00027434D01*
X00038842Y00027768D01*
X00039621Y00028548D01*
X00039955Y00028214D01*
D02*
G37*
G36*
X00038774Y00028214D02*
X00037995Y00027434D01*
X00037660Y00027768D01*
X00038440Y00028548D01*
X00038774Y00028214D01*
D02*
G37*
G36*
X00037593Y00028214D02*
X00036813Y00027434D01*
X00036479Y00027768D01*
X00037259Y00028548D01*
X00037593Y00028214D01*
D02*
G37*
G36*
X00036412Y00028214D02*
X00035632Y00027434D01*
X00035298Y00027768D01*
X00036078Y00028548D01*
X00036412Y00028214D01*
D02*
G37*
G36*
X00035231Y00028214D02*
X00034451Y00027434D01*
X00034117Y00027768D01*
X00034897Y00028548D01*
X00035231Y00028214D01*
D02*
G37*
G36*
X00034050Y00028214D02*
X00033270Y00027434D01*
X00032936Y00027768D01*
X00033716Y00028548D01*
X00034050Y00028214D01*
D02*
G37*
G36*
X00032869Y00028214D02*
X00032089Y00027434D01*
X00031755Y00027768D01*
X00032534Y00028548D01*
X00032869Y00028214D01*
D02*
G37*
G36*
X00031687Y00028214D02*
X00030908Y00027434D01*
X00030574Y00027768D01*
X00031353Y00028548D01*
X00031687Y00028214D01*
D02*
G37*
G36*
X00030506Y00028214D02*
X00029727Y00027434D01*
X00029393Y00027768D01*
X00030172Y00028548D01*
X00030506Y00028214D01*
D02*
G37*
G36*
X00029325Y00028214D02*
X00028546Y00027434D01*
X00028212Y00027768D01*
X00028991Y00028548D01*
X00029325Y00028214D01*
D02*
G37*
G36*
X00028144Y00028214D02*
X00027365Y00027434D01*
X00027031Y00027768D01*
X00027810Y00028548D01*
X00028144Y00028214D01*
D02*
G37*
G36*
X00026963Y00028214D02*
X00026184Y00027434D01*
X00025849Y00027768D01*
X00026629Y00028548D01*
X00026963Y00028214D01*
D02*
G37*
G36*
X00025782Y00028214D02*
X00025002Y00027434D01*
X00024668Y00027768D01*
X00025448Y00028548D01*
X00025782Y00028214D01*
D02*
G37*
G36*
X00024601Y00028214D02*
X00023821Y00027434D01*
X00023487Y00027768D01*
X00024267Y00028548D01*
X00024601Y00028214D01*
D02*
G37*
G36*
X00023420Y00028214D02*
X00022640Y00027434D01*
X00022306Y00027768D01*
X00023086Y00028548D01*
X00023420Y00028214D01*
D02*
G37*
G36*
X00022239Y00028214D02*
X00021459Y00027434D01*
X00021125Y00027768D01*
X00021905Y00028548D01*
X00022239Y00028214D01*
D02*
G37*
G36*
X00021057Y00028214D02*
X00020278Y00027434D01*
X00019944Y00027768D01*
X00020723Y00028548D01*
X00021057Y00028214D01*
D02*
G37*
G36*
X00019876Y00028214D02*
X00019097Y00027434D01*
X00018763Y00027768D01*
X00019542Y00028548D01*
X00019876Y00028214D01*
D02*
G37*
G36*
X00018695Y00028214D02*
X00017916Y00027434D01*
X00017582Y00027768D01*
X00018361Y00028548D01*
X00018695Y00028214D01*
D02*
G37*
G36*
X00017514Y00028214D02*
X00016735Y00027434D01*
X00016401Y00027768D01*
X00017180Y00028548D01*
X00017514Y00028214D01*
D02*
G37*
G36*
X00016333Y00028214D02*
X00015554Y00027434D01*
X00015220Y00027768D01*
X00015999Y00028548D01*
X00016333Y00028214D01*
D02*
G37*
G36*
X00015152Y00028214D02*
X00014372Y00027434D01*
X00014038Y00027768D01*
X00014818Y00028548D01*
X00015152Y00028214D01*
D02*
G37*
G36*
X00013971Y00028214D02*
X00013191Y00027434D01*
X00012857Y00027768D01*
X00013637Y00028548D01*
X00013971Y00028214D01*
D02*
G37*
G36*
X00012790Y00028214D02*
X00012010Y00027434D01*
X00011676Y00027768D01*
X00012456Y00028548D01*
X00012790Y00028214D01*
D02*
G37*
G36*
X00011609Y00028214D02*
X00010829Y00027434D01*
X00010495Y00027768D01*
X00011275Y00028548D01*
X00011609Y00028214D01*
D02*
G37*
G36*
X00010428Y00028214D02*
X00009648Y00027434D01*
X00009314Y00027768D01*
X00010094Y00028548D01*
X00010428Y00028214D01*
D02*
G37*
G36*
X00009246Y00028214D02*
X00008467Y00027434D01*
X00008133Y00027768D01*
X00008912Y00028548D01*
X00009246Y00028214D01*
D02*
G37*
G36*
X00008065Y00028214D02*
X00007286Y00027434D01*
X00006952Y00027768D01*
X00007731Y00028548D01*
X00008065Y00028214D01*
D02*
G37*
G36*
X00006884Y00028214D02*
X00006105Y00027434D01*
X00005771Y00027768D01*
X00006550Y00028548D01*
X00006884Y00028214D01*
D02*
G37*
G36*
X00005703Y00028214D02*
X00004924Y00027434D01*
X00004590Y00027768D01*
X00005369Y00028548D01*
X00005703Y00028214D01*
D02*
G37*
G36*
X00050585Y00027032D02*
X00049806Y00026253D01*
X00049472Y00026587D01*
X00050251Y00027367D01*
X00050585Y00027032D01*
D02*
G37*
G36*
X00049404Y00027032D02*
X00048624Y00026253D01*
X00048290Y00026587D01*
X00049070Y00027367D01*
X00049404Y00027032D01*
D02*
G37*
G36*
X00048223Y00027032D02*
X00047443Y00026253D01*
X00047109Y00026587D01*
X00047889Y00027367D01*
X00048223Y00027032D01*
D02*
G37*
G36*
X00047042Y00027032D02*
X00046262Y00026253D01*
X00045928Y00026587D01*
X00046708Y00027367D01*
X00047042Y00027032D01*
D02*
G37*
G36*
X00045861Y00027032D02*
X00045081Y00026253D01*
X00044747Y00026587D01*
X00045527Y00027367D01*
X00045861Y00027032D01*
D02*
G37*
G36*
X00044680Y00027032D02*
X00043900Y00026253D01*
X00043566Y00026587D01*
X00044345Y00027367D01*
X00044680Y00027032D01*
D02*
G37*
G36*
X00043498Y00027032D02*
X00042719Y00026253D01*
X00042385Y00026587D01*
X00043164Y00027367D01*
X00043498Y00027032D01*
D02*
G37*
G36*
X00042317Y00027032D02*
X00041538Y00026253D01*
X00041204Y00026587D01*
X00041983Y00027367D01*
X00042317Y00027032D01*
D02*
G37*
G36*
X00041136Y00027032D02*
X00040357Y00026253D01*
X00040023Y00026587D01*
X00040802Y00027367D01*
X00041136Y00027032D01*
D02*
G37*
G36*
X00039955Y00027032D02*
X00039176Y00026253D01*
X00038842Y00026587D01*
X00039621Y00027367D01*
X00039955Y00027032D01*
D02*
G37*
G36*
X00038774Y00027032D02*
X00037995Y00026253D01*
X00037660Y00026587D01*
X00038440Y00027367D01*
X00038774Y00027032D01*
D02*
G37*
G36*
X00037593Y00027032D02*
X00036813Y00026253D01*
X00036479Y00026587D01*
X00037259Y00027367D01*
X00037593Y00027032D01*
D02*
G37*
G36*
X00036412Y00027032D02*
X00035632Y00026253D01*
X00035298Y00026587D01*
X00036078Y00027367D01*
X00036412Y00027032D01*
D02*
G37*
G36*
X00035231Y00027032D02*
X00034451Y00026253D01*
X00034117Y00026587D01*
X00034897Y00027367D01*
X00035231Y00027032D01*
D02*
G37*
G36*
X00034050Y00027032D02*
X00033270Y00026253D01*
X00032936Y00026587D01*
X00033716Y00027367D01*
X00034050Y00027032D01*
D02*
G37*
G36*
X00032869Y00027032D02*
X00032089Y00026253D01*
X00031755Y00026587D01*
X00032534Y00027367D01*
X00032869Y00027032D01*
D02*
G37*
G36*
X00031687Y00027032D02*
X00030908Y00026253D01*
X00030574Y00026587D01*
X00031353Y00027367D01*
X00031687Y00027032D01*
D02*
G37*
G36*
X00030506Y00027032D02*
X00029727Y00026253D01*
X00029393Y00026587D01*
X00030172Y00027367D01*
X00030506Y00027032D01*
D02*
G37*
G36*
X00029325Y00027032D02*
X00028546Y00026253D01*
X00028212Y00026587D01*
X00028991Y00027367D01*
X00029325Y00027032D01*
D02*
G37*
G36*
X00028144Y00027032D02*
X00027365Y00026253D01*
X00027031Y00026587D01*
X00027810Y00027367D01*
X00028144Y00027032D01*
D02*
G37*
G36*
X00026963Y00027032D02*
X00026184Y00026253D01*
X00025849Y00026587D01*
X00026629Y00027367D01*
X00026963Y00027032D01*
D02*
G37*
G36*
X00025782Y00027032D02*
X00025002Y00026253D01*
X00024668Y00026587D01*
X00025448Y00027367D01*
X00025782Y00027032D01*
D02*
G37*
G36*
X00024601Y00027032D02*
X00023821Y00026253D01*
X00023487Y00026587D01*
X00024267Y00027367D01*
X00024601Y00027032D01*
D02*
G37*
G36*
X00023420Y00027032D02*
X00022640Y00026253D01*
X00022306Y00026587D01*
X00023086Y00027367D01*
X00023420Y00027032D01*
D02*
G37*
G36*
X00022239Y00027032D02*
X00021459Y00026253D01*
X00021125Y00026587D01*
X00021905Y00027367D01*
X00022239Y00027032D01*
D02*
G37*
G36*
X00021057Y00027032D02*
X00020278Y00026253D01*
X00019944Y00026587D01*
X00020723Y00027367D01*
X00021057Y00027032D01*
D02*
G37*
G36*
X00019876Y00027032D02*
X00019097Y00026253D01*
X00018763Y00026587D01*
X00019542Y00027367D01*
X00019876Y00027032D01*
D02*
G37*
G36*
X00018695Y00027032D02*
X00017916Y00026253D01*
X00017582Y00026587D01*
X00018361Y00027367D01*
X00018695Y00027032D01*
D02*
G37*
G36*
X00017514Y00027032D02*
X00016735Y00026253D01*
X00016401Y00026587D01*
X00017180Y00027367D01*
X00017514Y00027032D01*
D02*
G37*
G36*
X00016333Y00027032D02*
X00015554Y00026253D01*
X00015220Y00026587D01*
X00015999Y00027367D01*
X00016333Y00027032D01*
D02*
G37*
G36*
X00015152Y00027032D02*
X00014372Y00026253D01*
X00014038Y00026587D01*
X00014818Y00027367D01*
X00015152Y00027032D01*
D02*
G37*
G36*
X00013971Y00027032D02*
X00013191Y00026253D01*
X00012857Y00026587D01*
X00013637Y00027367D01*
X00013971Y00027032D01*
D02*
G37*
G36*
X00012790Y00027032D02*
X00012010Y00026253D01*
X00011676Y00026587D01*
X00012456Y00027367D01*
X00012790Y00027032D01*
D02*
G37*
G36*
X00011609Y00027032D02*
X00010829Y00026253D01*
X00010495Y00026587D01*
X00011275Y00027367D01*
X00011609Y00027032D01*
D02*
G37*
G36*
X00010428Y00027032D02*
X00009648Y00026253D01*
X00009314Y00026587D01*
X00010094Y00027367D01*
X00010428Y00027032D01*
D02*
G37*
G36*
X00009246Y00027032D02*
X00008467Y00026253D01*
X00008133Y00026587D01*
X00008912Y00027367D01*
X00009246Y00027032D01*
D02*
G37*
G36*
X00008065Y00027032D02*
X00007286Y00026253D01*
X00006952Y00026587D01*
X00007731Y00027367D01*
X00008065Y00027032D01*
D02*
G37*
G36*
X00006884Y00027032D02*
X00006105Y00026253D01*
X00005771Y00026587D01*
X00006550Y00027367D01*
X00006884Y00027032D01*
D02*
G37*
G36*
X00005703Y00027032D02*
X00004924Y00026253D01*
X00004590Y00026587D01*
X00005369Y00027367D01*
X00005703Y00027032D01*
D02*
G37*
G36*
X00050585Y00025851D02*
X00049806Y00025072D01*
X00049472Y00025406D01*
X00050251Y00026185D01*
X00050585Y00025851D01*
D02*
G37*
G36*
X00049404Y00025851D02*
X00048624Y00025072D01*
X00048290Y00025406D01*
X00049070Y00026185D01*
X00049404Y00025851D01*
D02*
G37*
G36*
X00048223Y00025851D02*
X00047443Y00025072D01*
X00047109Y00025406D01*
X00047889Y00026185D01*
X00048223Y00025851D01*
D02*
G37*
G36*
X00047042Y00025851D02*
X00046262Y00025072D01*
X00045928Y00025406D01*
X00046708Y00026185D01*
X00047042Y00025851D01*
D02*
G37*
G36*
X00045861Y00025851D02*
X00045081Y00025072D01*
X00044747Y00025406D01*
X00045527Y00026185D01*
X00045861Y00025851D01*
D02*
G37*
G36*
X00044680Y00025851D02*
X00043900Y00025072D01*
X00043566Y00025406D01*
X00044345Y00026185D01*
X00044680Y00025851D01*
D02*
G37*
G36*
X00043498Y00025851D02*
X00042719Y00025072D01*
X00042385Y00025406D01*
X00043164Y00026185D01*
X00043498Y00025851D01*
D02*
G37*
G36*
X00042317Y00025851D02*
X00041538Y00025072D01*
X00041204Y00025406D01*
X00041983Y00026185D01*
X00042317Y00025851D01*
D02*
G37*
G36*
X00041136Y00025851D02*
X00040357Y00025072D01*
X00040023Y00025406D01*
X00040802Y00026185D01*
X00041136Y00025851D01*
D02*
G37*
G36*
X00039955Y00025851D02*
X00039176Y00025072D01*
X00038842Y00025406D01*
X00039621Y00026185D01*
X00039955Y00025851D01*
D02*
G37*
G36*
X00038774Y00025851D02*
X00037995Y00025072D01*
X00037660Y00025406D01*
X00038440Y00026185D01*
X00038774Y00025851D01*
D02*
G37*
G36*
X00037593Y00025851D02*
X00036813Y00025072D01*
X00036479Y00025406D01*
X00037259Y00026185D01*
X00037593Y00025851D01*
D02*
G37*
G36*
X00036412Y00025851D02*
X00035632Y00025072D01*
X00035298Y00025406D01*
X00036078Y00026185D01*
X00036412Y00025851D01*
D02*
G37*
G36*
X00035231Y00025851D02*
X00034451Y00025072D01*
X00034117Y00025406D01*
X00034897Y00026185D01*
X00035231Y00025851D01*
D02*
G37*
G36*
X00034050Y00025851D02*
X00033270Y00025072D01*
X00032936Y00025406D01*
X00033716Y00026185D01*
X00034050Y00025851D01*
D02*
G37*
G36*
X00032869Y00025851D02*
X00032089Y00025072D01*
X00031755Y00025406D01*
X00032534Y00026185D01*
X00032869Y00025851D01*
D02*
G37*
G36*
X00031687Y00025851D02*
X00030908Y00025072D01*
X00030574Y00025406D01*
X00031353Y00026185D01*
X00031687Y00025851D01*
D02*
G37*
G36*
X00030506Y00025851D02*
X00029727Y00025072D01*
X00029393Y00025406D01*
X00030172Y00026185D01*
X00030506Y00025851D01*
D02*
G37*
G36*
X00029325Y00025851D02*
X00028546Y00025072D01*
X00028212Y00025406D01*
X00028991Y00026185D01*
X00029325Y00025851D01*
D02*
G37*
G36*
X00028144Y00025851D02*
X00027365Y00025072D01*
X00027031Y00025406D01*
X00027810Y00026185D01*
X00028144Y00025851D01*
D02*
G37*
G36*
X00026963Y00025851D02*
X00026184Y00025072D01*
X00025849Y00025406D01*
X00026629Y00026185D01*
X00026963Y00025851D01*
D02*
G37*
G36*
X00025782Y00025851D02*
X00025002Y00025072D01*
X00024668Y00025406D01*
X00025448Y00026185D01*
X00025782Y00025851D01*
D02*
G37*
G36*
X00024601Y00025851D02*
X00023821Y00025072D01*
X00023487Y00025406D01*
X00024267Y00026185D01*
X00024601Y00025851D01*
D02*
G37*
G36*
X00023420Y00025851D02*
X00022640Y00025072D01*
X00022306Y00025406D01*
X00023086Y00026185D01*
X00023420Y00025851D01*
D02*
G37*
G36*
X00022239Y00025851D02*
X00021459Y00025072D01*
X00021125Y00025406D01*
X00021905Y00026185D01*
X00022239Y00025851D01*
D02*
G37*
G36*
X00021057Y00025851D02*
X00020278Y00025072D01*
X00019944Y00025406D01*
X00020723Y00026185D01*
X00021057Y00025851D01*
D02*
G37*
G36*
X00019876Y00025851D02*
X00019097Y00025072D01*
X00018763Y00025406D01*
X00019542Y00026185D01*
X00019876Y00025851D01*
D02*
G37*
G36*
X00018695Y00025851D02*
X00017916Y00025072D01*
X00017582Y00025406D01*
X00018361Y00026185D01*
X00018695Y00025851D01*
D02*
G37*
G36*
X00017514Y00025851D02*
X00016735Y00025072D01*
X00016401Y00025406D01*
X00017180Y00026185D01*
X00017514Y00025851D01*
D02*
G37*
G36*
X00016333Y00025851D02*
X00015554Y00025072D01*
X00015220Y00025406D01*
X00015999Y00026185D01*
X00016333Y00025851D01*
D02*
G37*
G36*
X00015152Y00025851D02*
X00014372Y00025072D01*
X00014038Y00025406D01*
X00014818Y00026185D01*
X00015152Y00025851D01*
D02*
G37*
G36*
X00013971Y00025851D02*
X00013191Y00025072D01*
X00012857Y00025406D01*
X00013637Y00026185D01*
X00013971Y00025851D01*
D02*
G37*
G36*
X00012790Y00025851D02*
X00012010Y00025072D01*
X00011676Y00025406D01*
X00012456Y00026185D01*
X00012790Y00025851D01*
D02*
G37*
G36*
X00011609Y00025851D02*
X00010829Y00025072D01*
X00010495Y00025406D01*
X00011275Y00026185D01*
X00011609Y00025851D01*
D02*
G37*
G36*
X00010428Y00025851D02*
X00009648Y00025072D01*
X00009314Y00025406D01*
X00010094Y00026185D01*
X00010428Y00025851D01*
D02*
G37*
G36*
X00009246Y00025851D02*
X00008467Y00025072D01*
X00008133Y00025406D01*
X00008912Y00026185D01*
X00009246Y00025851D01*
D02*
G37*
G36*
X00008065Y00025851D02*
X00007286Y00025072D01*
X00006952Y00025406D01*
X00007731Y00026185D01*
X00008065Y00025851D01*
D02*
G37*
G36*
X00006884Y00025851D02*
X00006105Y00025072D01*
X00005771Y00025406D01*
X00006550Y00026185D01*
X00006884Y00025851D01*
D02*
G37*
G36*
X00005703Y00025851D02*
X00004924Y00025072D01*
X00004590Y00025406D01*
X00005369Y00026185D01*
X00005703Y00025851D01*
D02*
G37*
G36*
X00050585Y00024670D02*
X00049806Y00023891D01*
X00049472Y00024225D01*
X00050251Y00025004D01*
X00050585Y00024670D01*
D02*
G37*
G36*
X00049404Y00024670D02*
X00048624Y00023891D01*
X00048290Y00024225D01*
X00049070Y00025004D01*
X00049404Y00024670D01*
D02*
G37*
G36*
X00048223Y00024670D02*
X00047443Y00023891D01*
X00047109Y00024225D01*
X00047889Y00025004D01*
X00048223Y00024670D01*
D02*
G37*
G36*
X00047042Y00024670D02*
X00046262Y00023891D01*
X00045928Y00024225D01*
X00046708Y00025004D01*
X00047042Y00024670D01*
D02*
G37*
G36*
X00045861Y00024670D02*
X00045081Y00023891D01*
X00044747Y00024225D01*
X00045527Y00025004D01*
X00045861Y00024670D01*
D02*
G37*
G36*
X00044680Y00024670D02*
X00043900Y00023891D01*
X00043566Y00024225D01*
X00044345Y00025004D01*
X00044680Y00024670D01*
D02*
G37*
G36*
X00043498Y00024670D02*
X00042719Y00023891D01*
X00042385Y00024225D01*
X00043164Y00025004D01*
X00043498Y00024670D01*
D02*
G37*
G36*
X00042317Y00024670D02*
X00041538Y00023891D01*
X00041204Y00024225D01*
X00041983Y00025004D01*
X00042317Y00024670D01*
D02*
G37*
G36*
X00041136Y00024670D02*
X00040357Y00023891D01*
X00040023Y00024225D01*
X00040802Y00025004D01*
X00041136Y00024670D01*
D02*
G37*
G36*
X00039955Y00024670D02*
X00039176Y00023891D01*
X00038842Y00024225D01*
X00039621Y00025004D01*
X00039955Y00024670D01*
D02*
G37*
G36*
X00038774Y00024670D02*
X00037995Y00023891D01*
X00037660Y00024225D01*
X00038440Y00025004D01*
X00038774Y00024670D01*
D02*
G37*
G36*
X00037593Y00024670D02*
X00036813Y00023891D01*
X00036479Y00024225D01*
X00037259Y00025004D01*
X00037593Y00024670D01*
D02*
G37*
G36*
X00036412Y00024670D02*
X00035632Y00023891D01*
X00035298Y00024225D01*
X00036078Y00025004D01*
X00036412Y00024670D01*
D02*
G37*
G36*
X00035231Y00024670D02*
X00034451Y00023891D01*
X00034117Y00024225D01*
X00034897Y00025004D01*
X00035231Y00024670D01*
D02*
G37*
G36*
X00034050Y00024670D02*
X00033270Y00023891D01*
X00032936Y00024225D01*
X00033716Y00025004D01*
X00034050Y00024670D01*
D02*
G37*
G36*
X00032869Y00024670D02*
X00032089Y00023891D01*
X00031755Y00024225D01*
X00032534Y00025004D01*
X00032869Y00024670D01*
D02*
G37*
G36*
X00031687Y00024670D02*
X00030908Y00023891D01*
X00030574Y00024225D01*
X00031353Y00025004D01*
X00031687Y00024670D01*
D02*
G37*
G36*
X00030506Y00024670D02*
X00029727Y00023891D01*
X00029393Y00024225D01*
X00030172Y00025004D01*
X00030506Y00024670D01*
D02*
G37*
G36*
X00029325Y00024670D02*
X00028546Y00023891D01*
X00028212Y00024225D01*
X00028991Y00025004D01*
X00029325Y00024670D01*
D02*
G37*
G36*
X00028144Y00024670D02*
X00027365Y00023891D01*
X00027031Y00024225D01*
X00027810Y00025004D01*
X00028144Y00024670D01*
D02*
G37*
G36*
X00026963Y00024670D02*
X00026184Y00023891D01*
X00025849Y00024225D01*
X00026629Y00025004D01*
X00026963Y00024670D01*
D02*
G37*
G36*
X00025782Y00024670D02*
X00025002Y00023891D01*
X00024668Y00024225D01*
X00025448Y00025004D01*
X00025782Y00024670D01*
D02*
G37*
G36*
X00024601Y00024670D02*
X00023821Y00023891D01*
X00023487Y00024225D01*
X00024267Y00025004D01*
X00024601Y00024670D01*
D02*
G37*
G36*
X00023420Y00024670D02*
X00022640Y00023891D01*
X00022306Y00024225D01*
X00023086Y00025004D01*
X00023420Y00024670D01*
D02*
G37*
G36*
X00022239Y00024670D02*
X00021459Y00023891D01*
X00021125Y00024225D01*
X00021905Y00025004D01*
X00022239Y00024670D01*
D02*
G37*
G36*
X00021057Y00024670D02*
X00020278Y00023891D01*
X00019944Y00024225D01*
X00020723Y00025004D01*
X00021057Y00024670D01*
D02*
G37*
G36*
X00019876Y00024670D02*
X00019097Y00023891D01*
X00018763Y00024225D01*
X00019542Y00025004D01*
X00019876Y00024670D01*
D02*
G37*
G36*
X00018695Y00024670D02*
X00017916Y00023891D01*
X00017582Y00024225D01*
X00018361Y00025004D01*
X00018695Y00024670D01*
D02*
G37*
G36*
X00017514Y00024670D02*
X00016735Y00023891D01*
X00016401Y00024225D01*
X00017180Y00025004D01*
X00017514Y00024670D01*
D02*
G37*
G36*
X00016333Y00024670D02*
X00015554Y00023891D01*
X00015220Y00024225D01*
X00015999Y00025004D01*
X00016333Y00024670D01*
D02*
G37*
G36*
X00015152Y00024670D02*
X00014372Y00023891D01*
X00014038Y00024225D01*
X00014818Y00025004D01*
X00015152Y00024670D01*
D02*
G37*
G36*
X00013971Y00024670D02*
X00013191Y00023891D01*
X00012857Y00024225D01*
X00013637Y00025004D01*
X00013971Y00024670D01*
D02*
G37*
G36*
X00012790Y00024670D02*
X00012010Y00023891D01*
X00011676Y00024225D01*
X00012456Y00025004D01*
X00012790Y00024670D01*
D02*
G37*
G36*
X00011609Y00024670D02*
X00010829Y00023891D01*
X00010495Y00024225D01*
X00011275Y00025004D01*
X00011609Y00024670D01*
D02*
G37*
G36*
X00010428Y00024670D02*
X00009648Y00023891D01*
X00009314Y00024225D01*
X00010094Y00025004D01*
X00010428Y00024670D01*
D02*
G37*
G36*
X00009246Y00024670D02*
X00008467Y00023891D01*
X00008133Y00024225D01*
X00008912Y00025004D01*
X00009246Y00024670D01*
D02*
G37*
G36*
X00008065Y00024670D02*
X00007286Y00023891D01*
X00006952Y00024225D01*
X00007731Y00025004D01*
X00008065Y00024670D01*
D02*
G37*
G36*
X00006884Y00024670D02*
X00006105Y00023891D01*
X00005771Y00024225D01*
X00006550Y00025004D01*
X00006884Y00024670D01*
D02*
G37*
G36*
X00005703Y00024670D02*
X00004924Y00023891D01*
X00004590Y00024225D01*
X00005369Y00025004D01*
X00005703Y00024670D01*
D02*
G37*
G36*
X00050585Y00023489D02*
X00049806Y00022710D01*
X00049472Y00023044D01*
X00050251Y00023823D01*
X00050585Y00023489D01*
D02*
G37*
G36*
X00049404Y00023489D02*
X00048624Y00022710D01*
X00048290Y00023044D01*
X00049070Y00023823D01*
X00049404Y00023489D01*
D02*
G37*
G36*
X00048223Y00023489D02*
X00047443Y00022710D01*
X00047109Y00023044D01*
X00047889Y00023823D01*
X00048223Y00023489D01*
D02*
G37*
G36*
X00047042Y00023489D02*
X00046262Y00022710D01*
X00045928Y00023044D01*
X00046708Y00023823D01*
X00047042Y00023489D01*
D02*
G37*
G36*
X00045861Y00023489D02*
X00045081Y00022710D01*
X00044747Y00023044D01*
X00045527Y00023823D01*
X00045861Y00023489D01*
D02*
G37*
G36*
X00044680Y00023489D02*
X00043900Y00022710D01*
X00043566Y00023044D01*
X00044345Y00023823D01*
X00044680Y00023489D01*
D02*
G37*
G36*
X00043498Y00023489D02*
X00042719Y00022710D01*
X00042385Y00023044D01*
X00043164Y00023823D01*
X00043498Y00023489D01*
D02*
G37*
G36*
X00042317Y00023489D02*
X00041538Y00022710D01*
X00041204Y00023044D01*
X00041983Y00023823D01*
X00042317Y00023489D01*
D02*
G37*
G36*
X00041136Y00023489D02*
X00040357Y00022710D01*
X00040023Y00023044D01*
X00040802Y00023823D01*
X00041136Y00023489D01*
D02*
G37*
G36*
X00039955Y00023489D02*
X00039176Y00022710D01*
X00038842Y00023044D01*
X00039621Y00023823D01*
X00039955Y00023489D01*
D02*
G37*
G36*
X00038774Y00023489D02*
X00037995Y00022710D01*
X00037660Y00023044D01*
X00038440Y00023823D01*
X00038774Y00023489D01*
D02*
G37*
G36*
X00037593Y00023489D02*
X00036813Y00022710D01*
X00036479Y00023044D01*
X00037259Y00023823D01*
X00037593Y00023489D01*
D02*
G37*
G36*
X00036412Y00023489D02*
X00035632Y00022710D01*
X00035298Y00023044D01*
X00036078Y00023823D01*
X00036412Y00023489D01*
D02*
G37*
G36*
X00035231Y00023489D02*
X00034451Y00022710D01*
X00034117Y00023044D01*
X00034897Y00023823D01*
X00035231Y00023489D01*
D02*
G37*
G36*
X00034050Y00023489D02*
X00033270Y00022710D01*
X00032936Y00023044D01*
X00033716Y00023823D01*
X00034050Y00023489D01*
D02*
G37*
G36*
X00032869Y00023489D02*
X00032089Y00022710D01*
X00031755Y00023044D01*
X00032534Y00023823D01*
X00032869Y00023489D01*
D02*
G37*
G36*
X00031687Y00023489D02*
X00030908Y00022710D01*
X00030574Y00023044D01*
X00031353Y00023823D01*
X00031687Y00023489D01*
D02*
G37*
G36*
X00030506Y00023489D02*
X00029727Y00022710D01*
X00029393Y00023044D01*
X00030172Y00023823D01*
X00030506Y00023489D01*
D02*
G37*
G36*
X00029325Y00023489D02*
X00028546Y00022710D01*
X00028212Y00023044D01*
X00028991Y00023823D01*
X00029325Y00023489D01*
D02*
G37*
G36*
X00028144Y00023489D02*
X00027365Y00022710D01*
X00027031Y00023044D01*
X00027810Y00023823D01*
X00028144Y00023489D01*
D02*
G37*
G36*
X00026963Y00023489D02*
X00026184Y00022710D01*
X00025849Y00023044D01*
X00026629Y00023823D01*
X00026963Y00023489D01*
D02*
G37*
G36*
X00025782Y00023489D02*
X00025002Y00022710D01*
X00024668Y00023044D01*
X00025448Y00023823D01*
X00025782Y00023489D01*
D02*
G37*
G36*
X00024601Y00023489D02*
X00023821Y00022710D01*
X00023487Y00023044D01*
X00024267Y00023823D01*
X00024601Y00023489D01*
D02*
G37*
G36*
X00023420Y00023489D02*
X00022640Y00022710D01*
X00022306Y00023044D01*
X00023086Y00023823D01*
X00023420Y00023489D01*
D02*
G37*
G36*
X00022239Y00023489D02*
X00021459Y00022710D01*
X00021125Y00023044D01*
X00021905Y00023823D01*
X00022239Y00023489D01*
D02*
G37*
G36*
X00021057Y00023489D02*
X00020278Y00022710D01*
X00019944Y00023044D01*
X00020723Y00023823D01*
X00021057Y00023489D01*
D02*
G37*
G36*
X00019876Y00023489D02*
X00019097Y00022710D01*
X00018763Y00023044D01*
X00019542Y00023823D01*
X00019876Y00023489D01*
D02*
G37*
G36*
X00018695Y00023489D02*
X00017916Y00022710D01*
X00017582Y00023044D01*
X00018361Y00023823D01*
X00018695Y00023489D01*
D02*
G37*
G36*
X00017514Y00023489D02*
X00016735Y00022710D01*
X00016401Y00023044D01*
X00017180Y00023823D01*
X00017514Y00023489D01*
D02*
G37*
G36*
X00016333Y00023489D02*
X00015554Y00022710D01*
X00015220Y00023044D01*
X00015999Y00023823D01*
X00016333Y00023489D01*
D02*
G37*
G36*
X00015152Y00023489D02*
X00014372Y00022710D01*
X00014038Y00023044D01*
X00014818Y00023823D01*
X00015152Y00023489D01*
D02*
G37*
G36*
X00013971Y00023489D02*
X00013191Y00022710D01*
X00012857Y00023044D01*
X00013637Y00023823D01*
X00013971Y00023489D01*
D02*
G37*
G36*
X00012790Y00023489D02*
X00012010Y00022710D01*
X00011676Y00023044D01*
X00012456Y00023823D01*
X00012790Y00023489D01*
D02*
G37*
G36*
X00011609Y00023489D02*
X00010829Y00022710D01*
X00010495Y00023044D01*
X00011275Y00023823D01*
X00011609Y00023489D01*
D02*
G37*
G36*
X00010428Y00023489D02*
X00009648Y00022710D01*
X00009314Y00023044D01*
X00010094Y00023823D01*
X00010428Y00023489D01*
D02*
G37*
G36*
X00009246Y00023489D02*
X00008467Y00022710D01*
X00008133Y00023044D01*
X00008912Y00023823D01*
X00009246Y00023489D01*
D02*
G37*
G36*
X00008065Y00023489D02*
X00007286Y00022710D01*
X00006952Y00023044D01*
X00007731Y00023823D01*
X00008065Y00023489D01*
D02*
G37*
G36*
X00006884Y00023489D02*
X00006105Y00022710D01*
X00005771Y00023044D01*
X00006550Y00023823D01*
X00006884Y00023489D01*
D02*
G37*
G36*
X00005703Y00023489D02*
X00004924Y00022710D01*
X00004590Y00023044D01*
X00005369Y00023823D01*
X00005703Y00023489D01*
D02*
G37*
G36*
X00050585Y00022308D02*
X00049806Y00021529D01*
X00049472Y00021863D01*
X00050251Y00022642D01*
X00050585Y00022308D01*
D02*
G37*
G36*
X00049404Y00022308D02*
X00048624Y00021529D01*
X00048290Y00021863D01*
X00049070Y00022642D01*
X00049404Y00022308D01*
D02*
G37*
G36*
X00048223Y00022308D02*
X00047443Y00021529D01*
X00047109Y00021863D01*
X00047889Y00022642D01*
X00048223Y00022308D01*
D02*
G37*
G36*
X00047042Y00022308D02*
X00046262Y00021529D01*
X00045928Y00021863D01*
X00046708Y00022642D01*
X00047042Y00022308D01*
D02*
G37*
G36*
X00045861Y00022308D02*
X00045081Y00021529D01*
X00044747Y00021863D01*
X00045527Y00022642D01*
X00045861Y00022308D01*
D02*
G37*
G36*
X00044680Y00022308D02*
X00043900Y00021529D01*
X00043566Y00021863D01*
X00044345Y00022642D01*
X00044680Y00022308D01*
D02*
G37*
G36*
X00043498Y00022308D02*
X00042719Y00021529D01*
X00042385Y00021863D01*
X00043164Y00022642D01*
X00043498Y00022308D01*
D02*
G37*
G36*
X00042317Y00022308D02*
X00041538Y00021529D01*
X00041204Y00021863D01*
X00041983Y00022642D01*
X00042317Y00022308D01*
D02*
G37*
G36*
X00041136Y00022308D02*
X00040357Y00021529D01*
X00040023Y00021863D01*
X00040802Y00022642D01*
X00041136Y00022308D01*
D02*
G37*
G36*
X00039955Y00022308D02*
X00039176Y00021529D01*
X00038842Y00021863D01*
X00039621Y00022642D01*
X00039955Y00022308D01*
D02*
G37*
G36*
X00038774Y00022308D02*
X00037995Y00021529D01*
X00037660Y00021863D01*
X00038440Y00022642D01*
X00038774Y00022308D01*
D02*
G37*
G36*
X00037593Y00022308D02*
X00036813Y00021529D01*
X00036479Y00021863D01*
X00037259Y00022642D01*
X00037593Y00022308D01*
D02*
G37*
G36*
X00036412Y00022308D02*
X00035632Y00021529D01*
X00035298Y00021863D01*
X00036078Y00022642D01*
X00036412Y00022308D01*
D02*
G37*
G36*
X00035231Y00022308D02*
X00034451Y00021529D01*
X00034117Y00021863D01*
X00034897Y00022642D01*
X00035231Y00022308D01*
D02*
G37*
G36*
X00034050Y00022308D02*
X00033270Y00021529D01*
X00032936Y00021863D01*
X00033716Y00022642D01*
X00034050Y00022308D01*
D02*
G37*
G36*
X00032869Y00022308D02*
X00032089Y00021529D01*
X00031755Y00021863D01*
X00032534Y00022642D01*
X00032869Y00022308D01*
D02*
G37*
G36*
X00031687Y00022308D02*
X00030908Y00021529D01*
X00030574Y00021863D01*
X00031353Y00022642D01*
X00031687Y00022308D01*
D02*
G37*
G36*
X00030506Y00022308D02*
X00029727Y00021529D01*
X00029393Y00021863D01*
X00030172Y00022642D01*
X00030506Y00022308D01*
D02*
G37*
G36*
X00029325Y00022308D02*
X00028546Y00021529D01*
X00028212Y00021863D01*
X00028991Y00022642D01*
X00029325Y00022308D01*
D02*
G37*
G36*
X00028144Y00022308D02*
X00027365Y00021529D01*
X00027031Y00021863D01*
X00027810Y00022642D01*
X00028144Y00022308D01*
D02*
G37*
G36*
X00026963Y00022308D02*
X00026184Y00021529D01*
X00025849Y00021863D01*
X00026629Y00022642D01*
X00026963Y00022308D01*
D02*
G37*
G36*
X00025782Y00022308D02*
X00025002Y00021529D01*
X00024668Y00021863D01*
X00025448Y00022642D01*
X00025782Y00022308D01*
D02*
G37*
G36*
X00024601Y00022308D02*
X00023821Y00021529D01*
X00023487Y00021863D01*
X00024267Y00022642D01*
X00024601Y00022308D01*
D02*
G37*
G36*
X00023420Y00022308D02*
X00022640Y00021529D01*
X00022306Y00021863D01*
X00023086Y00022642D01*
X00023420Y00022308D01*
D02*
G37*
G36*
X00022239Y00022308D02*
X00021459Y00021529D01*
X00021125Y00021863D01*
X00021905Y00022642D01*
X00022239Y00022308D01*
D02*
G37*
G36*
X00021057Y00022308D02*
X00020278Y00021529D01*
X00019944Y00021863D01*
X00020723Y00022642D01*
X00021057Y00022308D01*
D02*
G37*
G36*
X00019876Y00022308D02*
X00019097Y00021529D01*
X00018763Y00021863D01*
X00019542Y00022642D01*
X00019876Y00022308D01*
D02*
G37*
G36*
X00018695Y00022308D02*
X00017916Y00021529D01*
X00017582Y00021863D01*
X00018361Y00022642D01*
X00018695Y00022308D01*
D02*
G37*
G36*
X00017514Y00022308D02*
X00016735Y00021529D01*
X00016401Y00021863D01*
X00017180Y00022642D01*
X00017514Y00022308D01*
D02*
G37*
G36*
X00016333Y00022308D02*
X00015554Y00021529D01*
X00015220Y00021863D01*
X00015999Y00022642D01*
X00016333Y00022308D01*
D02*
G37*
G36*
X00015152Y00022308D02*
X00014372Y00021529D01*
X00014038Y00021863D01*
X00014818Y00022642D01*
X00015152Y00022308D01*
D02*
G37*
G36*
X00013971Y00022308D02*
X00013191Y00021529D01*
X00012857Y00021863D01*
X00013637Y00022642D01*
X00013971Y00022308D01*
D02*
G37*
G36*
X00012790Y00022308D02*
X00012010Y00021529D01*
X00011676Y00021863D01*
X00012456Y00022642D01*
X00012790Y00022308D01*
D02*
G37*
G36*
X00011609Y00022308D02*
X00010829Y00021529D01*
X00010495Y00021863D01*
X00011275Y00022642D01*
X00011609Y00022308D01*
D02*
G37*
G36*
X00010428Y00022308D02*
X00009648Y00021529D01*
X00009314Y00021863D01*
X00010094Y00022642D01*
X00010428Y00022308D01*
D02*
G37*
G36*
X00009246Y00022308D02*
X00008467Y00021529D01*
X00008133Y00021863D01*
X00008912Y00022642D01*
X00009246Y00022308D01*
D02*
G37*
G36*
X00008065Y00022308D02*
X00007286Y00021529D01*
X00006952Y00021863D01*
X00007731Y00022642D01*
X00008065Y00022308D01*
D02*
G37*
G36*
X00006884Y00022308D02*
X00006105Y00021529D01*
X00005771Y00021863D01*
X00006550Y00022642D01*
X00006884Y00022308D01*
D02*
G37*
G36*
X00005703Y00022308D02*
X00004924Y00021529D01*
X00004590Y00021863D01*
X00005369Y00022642D01*
X00005703Y00022308D01*
D02*
G37*
G36*
X00050585Y00021127D02*
X00049806Y00020347D01*
X00049472Y00020682D01*
X00050251Y00021461D01*
X00050585Y00021127D01*
D02*
G37*
G36*
X00049404Y00021127D02*
X00048624Y00020347D01*
X00048290Y00020682D01*
X00049070Y00021461D01*
X00049404Y00021127D01*
D02*
G37*
G36*
X00048223Y00021127D02*
X00047443Y00020347D01*
X00047109Y00020682D01*
X00047889Y00021461D01*
X00048223Y00021127D01*
D02*
G37*
G36*
X00047042Y00021127D02*
X00046262Y00020347D01*
X00045928Y00020682D01*
X00046708Y00021461D01*
X00047042Y00021127D01*
D02*
G37*
G36*
X00045861Y00021127D02*
X00045081Y00020347D01*
X00044747Y00020682D01*
X00045527Y00021461D01*
X00045861Y00021127D01*
D02*
G37*
G36*
X00044680Y00021127D02*
X00043900Y00020347D01*
X00043566Y00020682D01*
X00044345Y00021461D01*
X00044680Y00021127D01*
D02*
G37*
G36*
X00043498Y00021127D02*
X00042719Y00020347D01*
X00042385Y00020682D01*
X00043164Y00021461D01*
X00043498Y00021127D01*
D02*
G37*
G36*
X00042317Y00021127D02*
X00041538Y00020347D01*
X00041204Y00020682D01*
X00041983Y00021461D01*
X00042317Y00021127D01*
D02*
G37*
G36*
X00041136Y00021127D02*
X00040357Y00020347D01*
X00040023Y00020682D01*
X00040802Y00021461D01*
X00041136Y00021127D01*
D02*
G37*
G36*
X00039955Y00021127D02*
X00039176Y00020347D01*
X00038842Y00020682D01*
X00039621Y00021461D01*
X00039955Y00021127D01*
D02*
G37*
G36*
X00038774Y00021127D02*
X00037995Y00020347D01*
X00037660Y00020682D01*
X00038440Y00021461D01*
X00038774Y00021127D01*
D02*
G37*
G36*
X00037593Y00021127D02*
X00036813Y00020347D01*
X00036479Y00020682D01*
X00037259Y00021461D01*
X00037593Y00021127D01*
D02*
G37*
G36*
X00036412Y00021127D02*
X00035632Y00020347D01*
X00035298Y00020682D01*
X00036078Y00021461D01*
X00036412Y00021127D01*
D02*
G37*
G36*
X00035231Y00021127D02*
X00034451Y00020347D01*
X00034117Y00020682D01*
X00034897Y00021461D01*
X00035231Y00021127D01*
D02*
G37*
G36*
X00034050Y00021127D02*
X00033270Y00020347D01*
X00032936Y00020682D01*
X00033716Y00021461D01*
X00034050Y00021127D01*
D02*
G37*
G36*
X00032869Y00021127D02*
X00032089Y00020347D01*
X00031755Y00020682D01*
X00032534Y00021461D01*
X00032869Y00021127D01*
D02*
G37*
G36*
X00031687Y00021127D02*
X00030908Y00020347D01*
X00030574Y00020682D01*
X00031353Y00021461D01*
X00031687Y00021127D01*
D02*
G37*
G36*
X00030506Y00021127D02*
X00029727Y00020347D01*
X00029393Y00020682D01*
X00030172Y00021461D01*
X00030506Y00021127D01*
D02*
G37*
G36*
X00029325Y00021127D02*
X00028546Y00020347D01*
X00028212Y00020682D01*
X00028991Y00021461D01*
X00029325Y00021127D01*
D02*
G37*
G36*
X00028144Y00021127D02*
X00027365Y00020347D01*
X00027031Y00020682D01*
X00027810Y00021461D01*
X00028144Y00021127D01*
D02*
G37*
G36*
X00026963Y00021127D02*
X00026184Y00020347D01*
X00025849Y00020682D01*
X00026629Y00021461D01*
X00026963Y00021127D01*
D02*
G37*
G36*
X00025782Y00021127D02*
X00025002Y00020347D01*
X00024668Y00020682D01*
X00025448Y00021461D01*
X00025782Y00021127D01*
D02*
G37*
G36*
X00024601Y00021127D02*
X00023821Y00020347D01*
X00023487Y00020682D01*
X00024267Y00021461D01*
X00024601Y00021127D01*
D02*
G37*
G36*
X00023420Y00021127D02*
X00022640Y00020347D01*
X00022306Y00020682D01*
X00023086Y00021461D01*
X00023420Y00021127D01*
D02*
G37*
G36*
X00022239Y00021127D02*
X00021459Y00020347D01*
X00021125Y00020682D01*
X00021905Y00021461D01*
X00022239Y00021127D01*
D02*
G37*
G36*
X00021057Y00021127D02*
X00020278Y00020347D01*
X00019944Y00020682D01*
X00020723Y00021461D01*
X00021057Y00021127D01*
D02*
G37*
G36*
X00019876Y00021127D02*
X00019097Y00020347D01*
X00018763Y00020682D01*
X00019542Y00021461D01*
X00019876Y00021127D01*
D02*
G37*
G36*
X00018695Y00021127D02*
X00017916Y00020347D01*
X00017582Y00020682D01*
X00018361Y00021461D01*
X00018695Y00021127D01*
D02*
G37*
G36*
X00017514Y00021127D02*
X00016735Y00020347D01*
X00016401Y00020682D01*
X00017180Y00021461D01*
X00017514Y00021127D01*
D02*
G37*
G36*
X00016333Y00021127D02*
X00015554Y00020347D01*
X00015220Y00020682D01*
X00015999Y00021461D01*
X00016333Y00021127D01*
D02*
G37*
G36*
X00015152Y00021127D02*
X00014372Y00020347D01*
X00014038Y00020682D01*
X00014818Y00021461D01*
X00015152Y00021127D01*
D02*
G37*
G36*
X00013971Y00021127D02*
X00013191Y00020347D01*
X00012857Y00020682D01*
X00013637Y00021461D01*
X00013971Y00021127D01*
D02*
G37*
G36*
X00012790Y00021127D02*
X00012010Y00020347D01*
X00011676Y00020682D01*
X00012456Y00021461D01*
X00012790Y00021127D01*
D02*
G37*
G36*
X00011609Y00021127D02*
X00010829Y00020347D01*
X00010495Y00020682D01*
X00011275Y00021461D01*
X00011609Y00021127D01*
D02*
G37*
G36*
X00010428Y00021127D02*
X00009648Y00020347D01*
X00009314Y00020682D01*
X00010094Y00021461D01*
X00010428Y00021127D01*
D02*
G37*
G36*
X00009246Y00021127D02*
X00008467Y00020347D01*
X00008133Y00020682D01*
X00008912Y00021461D01*
X00009246Y00021127D01*
D02*
G37*
G36*
X00008065Y00021127D02*
X00007286Y00020347D01*
X00006952Y00020682D01*
X00007731Y00021461D01*
X00008065Y00021127D01*
D02*
G37*
G36*
X00006884Y00021127D02*
X00006105Y00020347D01*
X00005771Y00020682D01*
X00006550Y00021461D01*
X00006884Y00021127D01*
D02*
G37*
G36*
X00005703Y00021127D02*
X00004924Y00020347D01*
X00004590Y00020682D01*
X00005369Y00021461D01*
X00005703Y00021127D01*
D02*
G37*
D101*
X00002755Y00019685D02*
G03*
X00003937Y00018503I00001181D01*
G01*
X00051181Y00018503D02*
G03*
X00052362Y00019685J00001181D01*
G01*
X00052362Y00031496D02*
G03*
X00051181Y00032677I-00001181D01*
G01*
X00003937Y00032677D02*
G03*
X00002755Y00031496J-00001181D01*
G01*
X00052362Y00019685D02*
X00052362Y00031496D01*
X00003937Y00018503D02*
X00051181Y00018503D01*
X00003937Y00032667D02*
X00051181Y00032667D01*
X00002755Y00019685D02*
X00002755Y00031496D01*
M02*