%MOIN*%
%OFA0B0*%
%FSLAX44Y44*%
%IPPOS*%
%LPD*%
%ADD16C,0.01*%
%ADD66C,0.0019685039370078744*%
%ADD67C,0.0039370078740157488*%
%ADD80C,0.01*%
G01*
G75*
D16*
X00003799Y00017331D02*
G03*
X00002618Y00016150J-00001181D01*
G01*
X00052224Y00016150D02*
G03*
X00051043Y00017331I-00001181D01*
G01*
X00051043Y00003158D02*
G03*
X00052224Y00004339J00001181D01*
G01*
X00002618Y00004339D02*
G03*
X00003799Y00003158I00001181D01*
G01*
X00002618Y00004339D02*
X00002618Y00016150D01*
X00003799Y00017321D02*
X00051043Y00017321D01*
X00003799Y00003158D02*
X00051043Y00003158D01*
X00052224Y00004339D02*
X00052224Y00016150D01*
D66*
X00005538Y00008905D02*
X00005538Y00012743D01*
X00002644Y00008905D02*
X00005538Y00008905D01*
X00002644Y00012743D02*
X00005538Y00012743D01*
X00002644Y00008905D02*
X00002644Y00012743D01*
X00015269Y00003549D02*
X00015269Y00005164D01*
X00017120Y00003549D02*
X00017120Y00005164D01*
X00015269Y00005164D02*
X00017120Y00005164D01*
X00015269Y00003549D02*
X00017120Y00003549D01*
X00012850Y00006319D02*
X00012850Y00007894D01*
X00014739Y00006319D02*
X00014739Y00007894D01*
X00012850Y00007894D02*
X00014739Y00007894D01*
X00012850Y00006319D02*
X00014739Y00006319D01*
X00006150Y00006319D02*
X00006150Y00007894D01*
X00008039Y00006319D02*
X00008039Y00007894D01*
X00006150Y00007894D02*
X00008039Y00007894D01*
X00006150Y00006319D02*
X00008039Y00006319D01*
X00029009Y00012952D02*
X00029009Y00013661D01*
X00027280Y00013661D02*
X00029009Y00013661D01*
X00027280Y00012952D02*
X00027280Y00013661D01*
X00027280Y00012952D02*
X00029009Y00012952D01*
D67*
X00047098Y00003705D02*
X00047590Y00003705D01*
X00047098Y00004709D02*
X00047590Y00004709D01*
X00047098Y00003705D02*
X00047098Y00004709D01*
X00047590Y00003705D02*
X00047590Y00004709D01*
X00047344Y00004020D02*
X00047344Y00004394D01*
X00047157Y00004207D02*
X00047531Y00004207D01*
X00044298Y00003705D02*
X00044790Y00003705D01*
X00044298Y00004709D02*
X00044790Y00004709D01*
X00044298Y00003705D02*
X00044298Y00004709D01*
X00044790Y00003705D02*
X00044790Y00004709D01*
X00044544Y00004020D02*
X00044544Y00004394D01*
X00044357Y00004207D02*
X00044731Y00004207D01*
X00041498Y00003705D02*
X00041990Y00003705D01*
X00041498Y00004709D02*
X00041990Y00004709D01*
X00041498Y00003705D02*
X00041498Y00004709D01*
X00041990Y00003705D02*
X00041990Y00004709D01*
X00041744Y00004020D02*
X00041744Y00004394D01*
X00041557Y00004207D02*
X00041931Y00004207D01*
X00004327Y00010824D02*
X00004721Y00010824D01*
X00004524Y00010627D02*
X00004524Y00011021D01*
X00004327Y00010824D02*
X00004721Y00010824D01*
X00004524Y00010627D02*
X00004524Y00011021D01*
X00036142Y00006510D02*
X00036142Y00007003D01*
X00037146Y00006510D02*
X00037146Y00007003D01*
X00036142Y00007003D02*
X00037146Y00007003D01*
X00036142Y00006510D02*
X00037146Y00006510D01*
X00036457Y00006757D02*
X00036831Y00006757D01*
X00036644Y00006570D02*
X00036644Y00006944D01*
X00034442Y00006510D02*
X00034442Y00007003D01*
X00035446Y00006510D02*
X00035446Y00007003D01*
X00034442Y00007003D02*
X00035446Y00007003D01*
X00034442Y00006510D02*
X00035446Y00006510D01*
X00034757Y00006757D02*
X00035131Y00006757D01*
X00034944Y00006570D02*
X00034944Y00006944D01*
X00032742Y00006510D02*
X00032742Y00007003D01*
X00033746Y00006510D02*
X00033746Y00007003D01*
X00032742Y00007003D02*
X00033746Y00007003D01*
X00032742Y00006510D02*
X00033746Y00006510D01*
X00033057Y00006757D02*
X00033431Y00006757D01*
X00033244Y00006570D02*
X00033244Y00006944D01*
X00031042Y00006510D02*
X00031042Y00007003D01*
X00032046Y00006510D02*
X00032046Y00007003D01*
X00031042Y00007003D02*
X00032046Y00007003D01*
X00031042Y00006510D02*
X00032046Y00006510D01*
X00031357Y00006757D02*
X00031731Y00006757D01*
X00031544Y00006570D02*
X00031544Y00006944D01*
X00015998Y00004357D02*
X00016391Y00004357D01*
X00016194Y00004160D02*
X00016194Y00004553D01*
X00013592Y00004660D02*
X00013592Y00005153D01*
X00014596Y00004660D02*
X00014596Y00005153D01*
X00013592Y00005153D02*
X00014596Y00005153D01*
X00013592Y00004660D02*
X00014596Y00004660D01*
X00013907Y00004907D02*
X00014281Y00004907D01*
X00014094Y00004720D02*
X00014094Y00005094D01*
X00011892Y00004660D02*
X00011892Y00005153D01*
X00012896Y00004660D02*
X00012896Y00005153D01*
X00011892Y00005153D02*
X00012896Y00005153D01*
X00011892Y00004660D02*
X00012896Y00004660D01*
X00012207Y00004907D02*
X00012581Y00004907D01*
X00012394Y00004720D02*
X00012394Y00005094D01*
X00009098Y00004155D02*
X00009590Y00004155D01*
X00009098Y00005159D02*
X00009590Y00005159D01*
X00009098Y00004155D02*
X00009098Y00005159D01*
X00009590Y00004155D02*
X00009590Y00005159D01*
X00009344Y00004470D02*
X00009344Y00004844D01*
X00009157Y00004657D02*
X00009531Y00004657D01*
X00007392Y00004660D02*
X00007392Y00005153D01*
X00008396Y00004660D02*
X00008396Y00005153D01*
X00007392Y00005153D02*
X00008396Y00005153D01*
X00007392Y00004660D02*
X00008396Y00004660D01*
X00007707Y00004907D02*
X00008081Y00004907D01*
X00007894Y00004720D02*
X00007894Y00005094D01*
X00016942Y00007410D02*
X00016942Y00007903D01*
X00017946Y00007410D02*
X00017946Y00007903D01*
X00016942Y00007903D02*
X00017946Y00007903D01*
X00016942Y00007410D02*
X00017946Y00007410D01*
X00017257Y00007657D02*
X00017631Y00007657D01*
X00017444Y00007470D02*
X00017444Y00007844D01*
X00015242Y00007410D02*
X00015242Y00007903D01*
X00016246Y00007410D02*
X00016246Y00007903D01*
X00015242Y00007903D02*
X00016246Y00007903D01*
X00015242Y00007410D02*
X00016246Y00007410D01*
X00015557Y00007657D02*
X00015931Y00007657D01*
X00015744Y00007470D02*
X00015744Y00007844D01*
X00013598Y00007107D02*
X00013991Y00007107D01*
X00013794Y00006910D02*
X00013794Y00007303D01*
X00008598Y00006905D02*
X00009090Y00006905D01*
X00008598Y00007909D02*
X00009090Y00007909D01*
X00008598Y00006905D02*
X00008598Y00007909D01*
X00009090Y00006905D02*
X00009090Y00007909D01*
X00008844Y00007220D02*
X00008844Y00007594D01*
X00008657Y00007407D02*
X00009031Y00007407D01*
X00006898Y00007107D02*
X00007291Y00007107D01*
X00007094Y00006910D02*
X00007094Y00007303D01*
X00028144Y00013208D02*
X00028144Y00013405D01*
X00028046Y00013307D02*
X00028243Y00013307D01*
X00024498Y00012655D02*
X00024990Y00012655D01*
X00024498Y00013659D02*
X00024990Y00013659D01*
X00024498Y00012655D02*
X00024498Y00013659D01*
X00024990Y00012655D02*
X00024990Y00013659D01*
X00024744Y00012970D02*
X00024744Y00013344D01*
X00024557Y00013157D02*
X00024931Y00013157D01*
X00022492Y00013161D02*
X00022492Y00013653D01*
X00023496Y00013161D02*
X00023496Y00013653D01*
X00022492Y00013653D02*
X00023496Y00013653D01*
X00022492Y00013161D02*
X00023496Y00013161D01*
X00022807Y00013407D02*
X00023181Y00013407D01*
X00022994Y00013220D02*
X00022994Y00013594D01*
X00007798Y00012655D02*
X00008290Y00012655D01*
X00007798Y00013659D02*
X00008290Y00013659D01*
X00007798Y00012655D02*
X00007798Y00013659D01*
X00008290Y00012655D02*
X00008290Y00013659D01*
X00008044Y00012970D02*
X00008044Y00013344D01*
X00007857Y00013157D02*
X00008231Y00013157D01*
X00005598Y00012655D02*
X00006090Y00012655D01*
X00005598Y00013659D02*
X00006090Y00013659D01*
X00005598Y00012655D02*
X00005598Y00013659D01*
X00006090Y00012655D02*
X00006090Y00013659D01*
X00005844Y00012970D02*
X00005844Y00013344D01*
X00005657Y00013157D02*
X00006031Y00013157D01*
G04 next file*
G04*
G04 #@! TF.GenerationSoftware,Altium Limited,Altium Designer,18.1.9 (240)*
G04*
G04 Layer_Color=32768*
G04 skipping 71
G01*
G75*
D80*
X00002755Y00019685D02*
G03*
X00003937Y00018503I00001181D01*
G01*
X00051181Y00018503D02*
G03*
X00052362Y00019685J00001181D01*
G01*
X00052362Y00031496D02*
G03*
X00051181Y00032677I-00001181D01*
G01*
X00003937Y00032677D02*
G03*
X00002755Y00031496J-00001181D01*
G01*
X00052362Y00019685D02*
X00052362Y00031496D01*
X00003937Y00018503D02*
X00051181Y00018503D01*
X00003937Y00032667D02*
X00051181Y00032667D01*
X00002755Y00019685D02*
X00002755Y00031496D01*
M02*