%MOIN*%
%OFA0B0*%
%FSLAX44Y44*%
%IPPOS*%
%LPD*%
%ADD15C,0.01*%
%ADD17C,0.0039370078740157488*%
%ADD30C,0.01*%
G01*
G75*
D15*
X00003799Y00017331D02*
G03*
X00002618Y00016150J-00001181D01*
G01*
X00052224Y00016150D02*
G03*
X00051043Y00017331I-00001181D01*
G01*
X00051043Y00003158D02*
G03*
X00052224Y00004339J00001181D01*
G01*
X00002618Y00004339D02*
G03*
X00003799Y00003158I00001181D01*
G01*
X00002618Y00004339D02*
X00002618Y00016150D01*
X00003799Y00017321D02*
X00051043Y00017321D01*
X00003799Y00003158D02*
X00051043Y00003158D01*
X00052224Y00004339D02*
X00052224Y00016150D01*
X00003799Y00017331D02*
G03*
X00002618Y00016150J-00001181D01*
G01*
X00052224Y00016150D02*
G03*
X00051043Y00017331I-00001181D01*
G01*
X00051043Y00003158D02*
G03*
X00052224Y00004339J00001181D01*
G01*
X00002618Y00004339D02*
G03*
X00003799Y00003158I00001181D01*
G01*
X00002618Y00004339D02*
X00002618Y00016150D01*
X00003799Y00017321D02*
X00051043Y00017321D01*
X00003799Y00003158D02*
X00051043Y00003158D01*
X00052224Y00004339D02*
X00052224Y00016150D01*
D17*
X00047864Y00012238D02*
X00047903Y00012277D01*
X00047864Y00012198D02*
X00047942Y00012277D01*
X00047864Y00012159D02*
X00047982Y00012277D01*
X00047864Y00012120D02*
X00048021Y00012277D01*
X00047864Y00012080D02*
X00048061Y00012277D01*
X00047864Y00012041D02*
X00048100Y00012277D01*
X00047864Y00012001D02*
X00048139Y00012277D01*
X00047864Y00011962D02*
X00048179Y00012277D01*
X00047864Y00011923D02*
X00048218Y00012277D01*
X00047864Y00011883D02*
X00048257Y00012277D01*
X00047864Y00011127D02*
X00048375Y00011127D01*
X00048375Y00012277D01*
X00047864Y00012277D02*
X00048375Y00012277D01*
X00047864Y00011127D02*
X00047864Y00012277D01*
X00047864Y00012238D02*
X00047903Y00012277D01*
X00047864Y00012198D02*
X00047942Y00012277D01*
X00047864Y00012159D02*
X00047982Y00012277D01*
X00047864Y00012120D02*
X00048021Y00012277D01*
X00047864Y00012080D02*
X00048061Y00012277D01*
X00047864Y00012041D02*
X00048100Y00012277D01*
X00047864Y00012001D02*
X00048139Y00012277D01*
X00047864Y00011962D02*
X00048179Y00012277D01*
X00047864Y00011923D02*
X00048218Y00012277D01*
X00047864Y00011883D02*
X00048257Y00012277D01*
X00047864Y00011127D02*
X00048375Y00011127D01*
X00048375Y00012277D01*
X00047864Y00012277D02*
X00048375Y00012277D01*
X00047864Y00011127D02*
X00047864Y00012277D01*
G04 next file*
G04*
G04 #@! TF.GenerationSoftware,Altium Limited,Altium Designer,18.1.9 (240)*
G04*
G04 Layer_Color=8388736*
G04 skipping 71
G01*
G75*
D30*
X00002755Y00019685D02*
G03*
X00003937Y00018503I00001181D01*
G01*
X00051181Y00018503D02*
G03*
X00052362Y00019685J00001181D01*
G01*
X00052362Y00031496D02*
G03*
X00051181Y00032677I-00001181D01*
G01*
X00003937Y00032677D02*
G03*
X00002755Y00031496J-00001181D01*
G01*
X00052362Y00019685D02*
X00052362Y00031496D01*
X00003937Y00018503D02*
X00051181Y00018503D01*
X00003937Y00032667D02*
X00051181Y00032667D01*
X00002755Y00019685D02*
X00002755Y00031496D01*
X00002755Y00019685D02*
G03*
X00003937Y00018503I00001181D01*
G01*
X00051181Y00018503D02*
G03*
X00052362Y00019685J00001181D01*
G01*
X00052362Y00031496D02*
G03*
X00051181Y00032677I-00001181D01*
G01*
X00003937Y00032677D02*
G03*
X00002755Y00031496J-00001181D01*
G01*
X00052362Y00019685D02*
X00052362Y00031496D01*
X00003937Y00018503D02*
X00051181Y00018503D01*
X00003937Y00032667D02*
X00051181Y00032667D01*
X00002755Y00019685D02*
X00002755Y00031496D01*
M02*