G04*
G04 #@! TF.GenerationSoftware,Altium Limited,Altium Designer,18.1.9 (240)*
G04*
G04 Layer_Color=8388736*
%FSLAX44Y44*%
%MOMM*%
G71*
G01*
G75*
%ADD13C,0.2032*%
%ADD16C,0.254*%
D13*
X00543151Y00298630D02*
G03*
X00543151Y00298630I-00017501D01*
G01*
X00466950Y00298630D02*
G03*
X00466950Y00298630I-00017501D01*
G01*
X00389480Y00298630D02*
G03*
X00389480Y00298630I-00017501D01*
G01*
X00313281Y00298630D02*
G03*
X00313281Y00298630I-00017501D01*
G01*
X00494649Y00271128D02*
X00494649Y00326131D01*
X00515650Y00329631D02*
X00535650Y00329631D01*
X00556651Y00271128D02*
X00556651Y00326131D01*
X00515650Y00267629D02*
X00535650Y00267629D01*
X00418448Y00271128D02*
X00418448Y00326131D01*
X00439449Y00329631D02*
X00459449Y00329631D01*
X00480451Y00271128D02*
X00480451Y00326131D01*
X00439449Y00267629D02*
X00459449Y00267629D01*
X00340979Y00271128D02*
X00340979Y00326131D01*
X00361980Y00329631D02*
X00381980Y00329631D01*
X00402981Y00271128D02*
X00402981Y00326131D01*
X00361980Y00267629D02*
X00381980Y00267629D01*
X00264779Y00271128D02*
X00264779Y00326131D01*
X00285780Y00329631D02*
X00305780Y00329631D01*
X00326781Y00271128D02*
X00326781Y00326131D01*
X00285780Y00267629D02*
X00305780Y00267629D01*
D16*
X00096499Y00440220D02*
G03*
X00066499Y00410220J-00030000D01*
G01*
X01326500Y00410220D02*
G03*
X01296500Y00440220I-00030000D01*
G01*
X01296500Y00080220D02*
G03*
X01326500Y00110220J00030000D01*
G01*
X00066499Y00110220D02*
G03*
X00096499Y00080220I00030000D01*
G01*
X00066499Y00110220D02*
X00066499Y00410220D01*
X00096499Y00439970D02*
X01296500Y00439970D01*
X00096499Y00080220D02*
X01296500Y00080220D01*
X01326500Y00110220D02*
X01326500Y00410220D01*
M02*