G04*
G04 #@! TF.GenerationSoftware,Altium Limited,Altium Designer,18.1.9 (240)*
G04*
G04 Layer_Color=32896*
%FSLAX44Y44*%
%MOMM*%
G71*
G01*
G75*
%ADD28C,0.1270*%
%ADD93C,0.0000*%
%ADD95C,0.0500*%
G36*
X2463873Y1862638D02*
X2444074Y1842839D01*
X2435589Y1851324D01*
X2455388Y1871123D01*
X2463873Y1862638D01*
D02*
G37*
G36*
X2433873D02*
X2414074Y1842839D01*
X2405589Y1851324D01*
X2425388Y1871123D01*
X2433873Y1862638D01*
D02*
G37*
G36*
X2403873D02*
X2384074Y1842839D01*
X2375589Y1851324D01*
X2395388Y1871123D01*
X2403873Y1862638D01*
D02*
G37*
G36*
X2373873D02*
X2354074Y1842839D01*
X2345589Y1851324D01*
X2365388Y1871123D01*
X2373873Y1862638D01*
D02*
G37*
G36*
X2343873D02*
X2324074Y1842839D01*
X2315589Y1851324D01*
X2335388Y1871123D01*
X2343873Y1862638D01*
D02*
G37*
G36*
X2313873D02*
X2294074Y1842839D01*
X2285589Y1851324D01*
X2305388Y1871123D01*
X2313873Y1862638D01*
D02*
G37*
G36*
X2283873D02*
X2264074Y1842839D01*
X2255589Y1851324D01*
X2275388Y1871123D01*
X2283873Y1862638D01*
D02*
G37*
G36*
X2253873D02*
X2234074Y1842839D01*
X2225589Y1851324D01*
X2245388Y1871123D01*
X2253873Y1862638D01*
D02*
G37*
G36*
X2223873D02*
X2204074Y1842839D01*
X2195589Y1851324D01*
X2215388Y1871123D01*
X2223873Y1862638D01*
D02*
G37*
G36*
X2193873D02*
X2174074Y1842839D01*
X2165589Y1851324D01*
X2185388Y1871123D01*
X2193873Y1862638D01*
D02*
G37*
G36*
X2163873D02*
X2144074Y1842839D01*
X2135589Y1851324D01*
X2155388Y1871123D01*
X2163873Y1862638D01*
D02*
G37*
G36*
X2133873D02*
X2114074Y1842839D01*
X2105589Y1851324D01*
X2125388Y1871123D01*
X2133873Y1862638D01*
D02*
G37*
G36*
X2103873D02*
X2084074Y1842839D01*
X2075589Y1851324D01*
X2095388Y1871123D01*
X2103873Y1862638D01*
D02*
G37*
G36*
X2073873D02*
X2054074Y1842839D01*
X2045589Y1851324D01*
X2065388Y1871123D01*
X2073873Y1862638D01*
D02*
G37*
G36*
X2043873D02*
X2024074Y1842839D01*
X2015589Y1851324D01*
X2035388Y1871123D01*
X2043873Y1862638D01*
D02*
G37*
G36*
X2013873D02*
X1994074Y1842839D01*
X1985589Y1851324D01*
X2005388Y1871123D01*
X2013873Y1862638D01*
D02*
G37*
G36*
X1983873D02*
X1964074Y1842839D01*
X1955589Y1851324D01*
X1975388Y1871123D01*
X1983873Y1862638D01*
D02*
G37*
G36*
X1953873D02*
X1934074Y1842839D01*
X1925589Y1851324D01*
X1945388Y1871123D01*
X1953873Y1862638D01*
D02*
G37*
G36*
X1923873D02*
X1904074Y1842839D01*
X1895589Y1851324D01*
X1915388Y1871123D01*
X1923873Y1862638D01*
D02*
G37*
G36*
X1893873D02*
X1874074Y1842839D01*
X1865589Y1851324D01*
X1885388Y1871123D01*
X1893873Y1862638D01*
D02*
G37*
G36*
X1863873D02*
X1844074Y1842839D01*
X1835589Y1851324D01*
X1855388Y1871123D01*
X1863873Y1862638D01*
D02*
G37*
G36*
X1833873D02*
X1814074Y1842839D01*
X1805589Y1851324D01*
X1825388Y1871123D01*
X1833873Y1862638D01*
D02*
G37*
G36*
X1803873D02*
X1784074Y1842839D01*
X1775589Y1851324D01*
X1795388Y1871123D01*
X1803873Y1862638D01*
D02*
G37*
G36*
X1773873D02*
X1754074Y1842839D01*
X1745589Y1851324D01*
X1765388Y1871123D01*
X1773873Y1862638D01*
D02*
G37*
G36*
X1743873D02*
X1724074Y1842839D01*
X1715589Y1851324D01*
X1735388Y1871123D01*
X1743873Y1862638D01*
D02*
G37*
G36*
X1713873D02*
X1694074Y1842839D01*
X1685589Y1851324D01*
X1705388Y1871123D01*
X1713873Y1862638D01*
D02*
G37*
G36*
X1683873D02*
X1664074Y1842839D01*
X1655589Y1851324D01*
X1675388Y1871123D01*
X1683873Y1862638D01*
D02*
G37*
G36*
X1653873D02*
X1634074Y1842839D01*
X1625589Y1851324D01*
X1645388Y1871123D01*
X1653873Y1862638D01*
D02*
G37*
G36*
X1623873D02*
X1604074Y1842839D01*
X1595589Y1851324D01*
X1615388Y1871123D01*
X1623873Y1862638D01*
D02*
G37*
G36*
X1593873D02*
X1574074Y1842839D01*
X1565589Y1851324D01*
X1585388Y1871123D01*
X1593873Y1862638D01*
D02*
G37*
G36*
X1563873D02*
X1544074Y1842839D01*
X1535589Y1851324D01*
X1555388Y1871123D01*
X1563873Y1862638D01*
D02*
G37*
G36*
X1533873D02*
X1514074Y1842839D01*
X1505589Y1851324D01*
X1525388Y1871123D01*
X1533873Y1862638D01*
D02*
G37*
G36*
X1503873D02*
X1484074Y1842839D01*
X1475589Y1851324D01*
X1495388Y1871123D01*
X1503873Y1862638D01*
D02*
G37*
G36*
X1473873D02*
X1454074Y1842839D01*
X1445589Y1851324D01*
X1465388Y1871123D01*
X1473873Y1862638D01*
D02*
G37*
G36*
X1443873D02*
X1424074Y1842839D01*
X1415589Y1851324D01*
X1435388Y1871123D01*
X1443873Y1862638D01*
D02*
G37*
G36*
X1413873D02*
X1394074Y1842839D01*
X1385589Y1851324D01*
X1405388Y1871123D01*
X1413873Y1862638D01*
D02*
G37*
G36*
X1383873D02*
X1364074Y1842839D01*
X1355589Y1851324D01*
X1375388Y1871123D01*
X1383873Y1862638D01*
D02*
G37*
G36*
X1353873D02*
X1334074Y1842839D01*
X1325589Y1851324D01*
X1345388Y1871123D01*
X1353873Y1862638D01*
D02*
G37*
G36*
X1323873D02*
X1304074Y1842839D01*
X1295589Y1851324D01*
X1315388Y1871123D01*
X1323873Y1862638D01*
D02*
G37*
G36*
X2463873Y1832638D02*
X2444074Y1812839D01*
X2435589Y1821324D01*
X2455388Y1841123D01*
X2463873Y1832638D01*
D02*
G37*
G36*
X2433873D02*
X2414074Y1812839D01*
X2405589Y1821324D01*
X2425388Y1841123D01*
X2433873Y1832638D01*
D02*
G37*
G36*
X2403873D02*
X2384074Y1812839D01*
X2375589Y1821324D01*
X2395388Y1841123D01*
X2403873Y1832638D01*
D02*
G37*
G36*
X2373873D02*
X2354074Y1812839D01*
X2345589Y1821324D01*
X2365388Y1841123D01*
X2373873Y1832638D01*
D02*
G37*
G36*
X2343873D02*
X2324074Y1812839D01*
X2315589Y1821324D01*
X2335388Y1841123D01*
X2343873Y1832638D01*
D02*
G37*
G36*
X2313873D02*
X2294074Y1812839D01*
X2285589Y1821324D01*
X2305388Y1841123D01*
X2313873Y1832638D01*
D02*
G37*
G36*
X2283873D02*
X2264074Y1812839D01*
X2255589Y1821324D01*
X2275388Y1841123D01*
X2283873Y1832638D01*
D02*
G37*
G36*
X2253873D02*
X2234074Y1812839D01*
X2225589Y1821324D01*
X2245388Y1841123D01*
X2253873Y1832638D01*
D02*
G37*
G36*
X2223873D02*
X2204074Y1812839D01*
X2195589Y1821324D01*
X2215388Y1841123D01*
X2223873Y1832638D01*
D02*
G37*
G36*
X2193873D02*
X2174074Y1812839D01*
X2165589Y1821324D01*
X2185388Y1841123D01*
X2193873Y1832638D01*
D02*
G37*
G36*
X2163873D02*
X2144074Y1812839D01*
X2135589Y1821324D01*
X2155388Y1841123D01*
X2163873Y1832638D01*
D02*
G37*
G36*
X2133873D02*
X2114074Y1812839D01*
X2105589Y1821324D01*
X2125388Y1841123D01*
X2133873Y1832638D01*
D02*
G37*
G36*
X2103873D02*
X2084074Y1812839D01*
X2075589Y1821324D01*
X2095388Y1841123D01*
X2103873Y1832638D01*
D02*
G37*
G36*
X2073873D02*
X2054074Y1812839D01*
X2045589Y1821324D01*
X2065388Y1841123D01*
X2073873Y1832638D01*
D02*
G37*
G36*
X2043873D02*
X2024074Y1812839D01*
X2015589Y1821324D01*
X2035388Y1841123D01*
X2043873Y1832638D01*
D02*
G37*
G36*
X2013873D02*
X1994074Y1812839D01*
X1985589Y1821324D01*
X2005388Y1841123D01*
X2013873Y1832638D01*
D02*
G37*
G36*
X1983873D02*
X1964074Y1812839D01*
X1955589Y1821324D01*
X1975388Y1841123D01*
X1983873Y1832638D01*
D02*
G37*
G36*
X1953873D02*
X1934074Y1812839D01*
X1925589Y1821324D01*
X1945388Y1841123D01*
X1953873Y1832638D01*
D02*
G37*
G36*
X1923873D02*
X1904074Y1812839D01*
X1895589Y1821324D01*
X1915388Y1841123D01*
X1923873Y1832638D01*
D02*
G37*
G36*
X1893873D02*
X1874074Y1812839D01*
X1865589Y1821324D01*
X1885388Y1841123D01*
X1893873Y1832638D01*
D02*
G37*
G36*
X1863873D02*
X1844074Y1812839D01*
X1835589Y1821324D01*
X1855388Y1841123D01*
X1863873Y1832638D01*
D02*
G37*
G36*
X1833873D02*
X1814074Y1812839D01*
X1805589Y1821324D01*
X1825388Y1841123D01*
X1833873Y1832638D01*
D02*
G37*
G36*
X1803873D02*
X1784074Y1812839D01*
X1775589Y1821324D01*
X1795388Y1841123D01*
X1803873Y1832638D01*
D02*
G37*
G36*
X1773873D02*
X1754074Y1812839D01*
X1745589Y1821324D01*
X1765388Y1841123D01*
X1773873Y1832638D01*
D02*
G37*
G36*
X1743873D02*
X1724074Y1812839D01*
X1715589Y1821324D01*
X1735388Y1841123D01*
X1743873Y1832638D01*
D02*
G37*
G36*
X1713873D02*
X1694074Y1812839D01*
X1685589Y1821324D01*
X1705388Y1841123D01*
X1713873Y1832638D01*
D02*
G37*
G36*
X1683873D02*
X1664074Y1812839D01*
X1655589Y1821324D01*
X1675388Y1841123D01*
X1683873Y1832638D01*
D02*
G37*
G36*
X1653873D02*
X1634074Y1812839D01*
X1625589Y1821324D01*
X1645388Y1841123D01*
X1653873Y1832638D01*
D02*
G37*
G36*
X1623873D02*
X1604074Y1812839D01*
X1595589Y1821324D01*
X1615388Y1841123D01*
X1623873Y1832638D01*
D02*
G37*
G36*
X1593873D02*
X1574074Y1812839D01*
X1565589Y1821324D01*
X1585388Y1841123D01*
X1593873Y1832638D01*
D02*
G37*
G36*
X1563873D02*
X1544074Y1812839D01*
X1535589Y1821324D01*
X1555388Y1841123D01*
X1563873Y1832638D01*
D02*
G37*
G36*
X1533873D02*
X1514074Y1812839D01*
X1505589Y1821324D01*
X1525388Y1841123D01*
X1533873Y1832638D01*
D02*
G37*
G36*
X1503873D02*
X1484074Y1812839D01*
X1475589Y1821324D01*
X1495388Y1841123D01*
X1503873Y1832638D01*
D02*
G37*
G36*
X1473873D02*
X1454074Y1812839D01*
X1445589Y1821324D01*
X1465388Y1841123D01*
X1473873Y1832638D01*
D02*
G37*
G36*
X1443873D02*
X1424074Y1812839D01*
X1415589Y1821324D01*
X1435388Y1841123D01*
X1443873Y1832638D01*
D02*
G37*
G36*
X1413873D02*
X1394074Y1812839D01*
X1385589Y1821324D01*
X1405388Y1841123D01*
X1413873Y1832638D01*
D02*
G37*
G36*
X1383873D02*
X1364074Y1812839D01*
X1355589Y1821324D01*
X1375388Y1841123D01*
X1383873Y1832638D01*
D02*
G37*
G36*
X1353873D02*
X1334074Y1812839D01*
X1325589Y1821324D01*
X1345388Y1841123D01*
X1353873Y1832638D01*
D02*
G37*
G36*
X1323873D02*
X1304074Y1812839D01*
X1295589Y1821324D01*
X1315388Y1841123D01*
X1323873Y1832638D01*
D02*
G37*
G36*
X2463873Y1802638D02*
X2444074Y1782839D01*
X2435589Y1791324D01*
X2455388Y1811124D01*
X2463873Y1802638D01*
D02*
G37*
G36*
X2433873D02*
X2414074Y1782839D01*
X2405589Y1791324D01*
X2425388Y1811124D01*
X2433873Y1802638D01*
D02*
G37*
G36*
X2403873D02*
X2384074Y1782839D01*
X2375589Y1791324D01*
X2395388Y1811124D01*
X2403873Y1802638D01*
D02*
G37*
G36*
X2373873D02*
X2354074Y1782839D01*
X2345589Y1791324D01*
X2365388Y1811124D01*
X2373873Y1802638D01*
D02*
G37*
G36*
X2343873D02*
X2324074Y1782839D01*
X2315589Y1791324D01*
X2335388Y1811124D01*
X2343873Y1802638D01*
D02*
G37*
G36*
X2313873D02*
X2294074Y1782839D01*
X2285589Y1791324D01*
X2305388Y1811124D01*
X2313873Y1802638D01*
D02*
G37*
G36*
X2283873D02*
X2264074Y1782839D01*
X2255589Y1791324D01*
X2275388Y1811124D01*
X2283873Y1802638D01*
D02*
G37*
G36*
X2253873D02*
X2234074Y1782839D01*
X2225589Y1791324D01*
X2245388Y1811124D01*
X2253873Y1802638D01*
D02*
G37*
G36*
X2223873D02*
X2204074Y1782839D01*
X2195589Y1791324D01*
X2215388Y1811124D01*
X2223873Y1802638D01*
D02*
G37*
G36*
X2193873D02*
X2174074Y1782839D01*
X2165589Y1791324D01*
X2185388Y1811124D01*
X2193873Y1802638D01*
D02*
G37*
G36*
X2163873D02*
X2144074Y1782839D01*
X2135589Y1791324D01*
X2155388Y1811124D01*
X2163873Y1802638D01*
D02*
G37*
G36*
X2133873D02*
X2114074Y1782839D01*
X2105589Y1791324D01*
X2125388Y1811124D01*
X2133873Y1802638D01*
D02*
G37*
G36*
X2103873D02*
X2084074Y1782839D01*
X2075589Y1791324D01*
X2095388Y1811124D01*
X2103873Y1802638D01*
D02*
G37*
G36*
X2073873D02*
X2054074Y1782839D01*
X2045589Y1791324D01*
X2065388Y1811124D01*
X2073873Y1802638D01*
D02*
G37*
G36*
X2043873D02*
X2024074Y1782839D01*
X2015589Y1791324D01*
X2035388Y1811124D01*
X2043873Y1802638D01*
D02*
G37*
G36*
X2013873D02*
X1994074Y1782839D01*
X1985589Y1791324D01*
X2005388Y1811124D01*
X2013873Y1802638D01*
D02*
G37*
G36*
X1983873D02*
X1964074Y1782839D01*
X1955589Y1791324D01*
X1975388Y1811124D01*
X1983873Y1802638D01*
D02*
G37*
G36*
X1953873D02*
X1934074Y1782839D01*
X1925589Y1791324D01*
X1945388Y1811124D01*
X1953873Y1802638D01*
D02*
G37*
G36*
X1923873D02*
X1904074Y1782839D01*
X1895589Y1791324D01*
X1915388Y1811124D01*
X1923873Y1802638D01*
D02*
G37*
G36*
X1893873D02*
X1874074Y1782839D01*
X1865589Y1791324D01*
X1885388Y1811124D01*
X1893873Y1802638D01*
D02*
G37*
G36*
X1863873D02*
X1844074Y1782839D01*
X1835589Y1791324D01*
X1855388Y1811124D01*
X1863873Y1802638D01*
D02*
G37*
G36*
X1833873D02*
X1814074Y1782839D01*
X1805589Y1791324D01*
X1825388Y1811124D01*
X1833873Y1802638D01*
D02*
G37*
G36*
X1803873D02*
X1784074Y1782839D01*
X1775589Y1791324D01*
X1795388Y1811124D01*
X1803873Y1802638D01*
D02*
G37*
G36*
X1773873D02*
X1754074Y1782839D01*
X1745589Y1791324D01*
X1765388Y1811124D01*
X1773873Y1802638D01*
D02*
G37*
G36*
X1743873D02*
X1724074Y1782839D01*
X1715589Y1791324D01*
X1735388Y1811124D01*
X1743873Y1802638D01*
D02*
G37*
G36*
X1713873D02*
X1694074Y1782839D01*
X1685589Y1791324D01*
X1705388Y1811124D01*
X1713873Y1802638D01*
D02*
G37*
G36*
X1683873D02*
X1664074Y1782839D01*
X1655589Y1791324D01*
X1675388Y1811124D01*
X1683873Y1802638D01*
D02*
G37*
G36*
X1653873D02*
X1634074Y1782839D01*
X1625589Y1791324D01*
X1645388Y1811124D01*
X1653873Y1802638D01*
D02*
G37*
G36*
X1623873D02*
X1604074Y1782839D01*
X1595589Y1791324D01*
X1615388Y1811124D01*
X1623873Y1802638D01*
D02*
G37*
G36*
X1593873D02*
X1574074Y1782839D01*
X1565589Y1791324D01*
X1585388Y1811124D01*
X1593873Y1802638D01*
D02*
G37*
G36*
X1563873D02*
X1544074Y1782839D01*
X1535589Y1791324D01*
X1555388Y1811124D01*
X1563873Y1802638D01*
D02*
G37*
G36*
X1533873D02*
X1514074Y1782839D01*
X1505589Y1791324D01*
X1525388Y1811124D01*
X1533873Y1802638D01*
D02*
G37*
G36*
X1503873D02*
X1484074Y1782839D01*
X1475589Y1791324D01*
X1495388Y1811124D01*
X1503873Y1802638D01*
D02*
G37*
G36*
X1473873D02*
X1454074Y1782839D01*
X1445589Y1791324D01*
X1465388Y1811124D01*
X1473873Y1802638D01*
D02*
G37*
G36*
X1443873D02*
X1424074Y1782839D01*
X1415589Y1791324D01*
X1435388Y1811124D01*
X1443873Y1802638D01*
D02*
G37*
G36*
X1413873D02*
X1394074Y1782839D01*
X1385589Y1791324D01*
X1405388Y1811124D01*
X1413873Y1802638D01*
D02*
G37*
G36*
X1383873D02*
X1364074Y1782839D01*
X1355589Y1791324D01*
X1375388Y1811124D01*
X1383873Y1802638D01*
D02*
G37*
G36*
X1353873D02*
X1334074Y1782839D01*
X1325589Y1791324D01*
X1345388Y1811124D01*
X1353873Y1802638D01*
D02*
G37*
G36*
X1323873D02*
X1304074Y1782839D01*
X1295589Y1791324D01*
X1315388Y1811124D01*
X1323873Y1802638D01*
D02*
G37*
G36*
X2463873Y1772638D02*
X2444074Y1752839D01*
X2435589Y1761324D01*
X2455388Y1781123D01*
X2463873Y1772638D01*
D02*
G37*
G36*
X2433873D02*
X2414074Y1752839D01*
X2405589Y1761324D01*
X2425388Y1781123D01*
X2433873Y1772638D01*
D02*
G37*
G36*
X2403873D02*
X2384074Y1752839D01*
X2375589Y1761324D01*
X2395388Y1781123D01*
X2403873Y1772638D01*
D02*
G37*
G36*
X2373873D02*
X2354074Y1752839D01*
X2345589Y1761324D01*
X2365388Y1781123D01*
X2373873Y1772638D01*
D02*
G37*
G36*
X2343873D02*
X2324074Y1752839D01*
X2315589Y1761324D01*
X2335388Y1781123D01*
X2343873Y1772638D01*
D02*
G37*
G36*
X2313873D02*
X2294074Y1752839D01*
X2285589Y1761324D01*
X2305388Y1781123D01*
X2313873Y1772638D01*
D02*
G37*
G36*
X2283873D02*
X2264074Y1752839D01*
X2255589Y1761324D01*
X2275388Y1781123D01*
X2283873Y1772638D01*
D02*
G37*
G36*
X2253873D02*
X2234074Y1752839D01*
X2225589Y1761324D01*
X2245388Y1781123D01*
X2253873Y1772638D01*
D02*
G37*
G36*
X2223873D02*
X2204074Y1752839D01*
X2195589Y1761324D01*
X2215388Y1781123D01*
X2223873Y1772638D01*
D02*
G37*
G36*
X2193873D02*
X2174074Y1752839D01*
X2165589Y1761324D01*
X2185388Y1781123D01*
X2193873Y1772638D01*
D02*
G37*
G36*
X2163873D02*
X2144074Y1752839D01*
X2135589Y1761324D01*
X2155388Y1781123D01*
X2163873Y1772638D01*
D02*
G37*
G36*
X2133873D02*
X2114074Y1752839D01*
X2105589Y1761324D01*
X2125388Y1781123D01*
X2133873Y1772638D01*
D02*
G37*
G36*
X2103873D02*
X2084074Y1752839D01*
X2075589Y1761324D01*
X2095388Y1781123D01*
X2103873Y1772638D01*
D02*
G37*
G36*
X2073873D02*
X2054074Y1752839D01*
X2045589Y1761324D01*
X2065388Y1781123D01*
X2073873Y1772638D01*
D02*
G37*
G36*
X2043873D02*
X2024074Y1752839D01*
X2015589Y1761324D01*
X2035388Y1781123D01*
X2043873Y1772638D01*
D02*
G37*
G36*
X2013873D02*
X1994074Y1752839D01*
X1985589Y1761324D01*
X2005388Y1781123D01*
X2013873Y1772638D01*
D02*
G37*
G36*
X1983873D02*
X1964074Y1752839D01*
X1955589Y1761324D01*
X1975388Y1781123D01*
X1983873Y1772638D01*
D02*
G37*
G36*
X1953873D02*
X1934074Y1752839D01*
X1925589Y1761324D01*
X1945388Y1781123D01*
X1953873Y1772638D01*
D02*
G37*
G36*
X1923873D02*
X1904074Y1752839D01*
X1895589Y1761324D01*
X1915388Y1781123D01*
X1923873Y1772638D01*
D02*
G37*
G36*
X1893873D02*
X1874074Y1752839D01*
X1865589Y1761324D01*
X1885388Y1781123D01*
X1893873Y1772638D01*
D02*
G37*
G36*
X1863873D02*
X1844074Y1752839D01*
X1835589Y1761324D01*
X1855388Y1781123D01*
X1863873Y1772638D01*
D02*
G37*
G36*
X1833873D02*
X1814074Y1752839D01*
X1805589Y1761324D01*
X1825388Y1781123D01*
X1833873Y1772638D01*
D02*
G37*
G36*
X1803873D02*
X1784074Y1752839D01*
X1775589Y1761324D01*
X1795388Y1781123D01*
X1803873Y1772638D01*
D02*
G37*
G36*
X1773873D02*
X1754074Y1752839D01*
X1745589Y1761324D01*
X1765388Y1781123D01*
X1773873Y1772638D01*
D02*
G37*
G36*
X1743873D02*
X1724074Y1752839D01*
X1715589Y1761324D01*
X1735388Y1781123D01*
X1743873Y1772638D01*
D02*
G37*
G36*
X1713873D02*
X1694074Y1752839D01*
X1685589Y1761324D01*
X1705388Y1781123D01*
X1713873Y1772638D01*
D02*
G37*
G36*
X1683873D02*
X1664074Y1752839D01*
X1655589Y1761324D01*
X1675388Y1781123D01*
X1683873Y1772638D01*
D02*
G37*
G36*
X1653873D02*
X1634074Y1752839D01*
X1625589Y1761324D01*
X1645388Y1781123D01*
X1653873Y1772638D01*
D02*
G37*
G36*
X1623873D02*
X1604074Y1752839D01*
X1595589Y1761324D01*
X1615388Y1781123D01*
X1623873Y1772638D01*
D02*
G37*
G36*
X1593873D02*
X1574074Y1752839D01*
X1565589Y1761324D01*
X1585388Y1781123D01*
X1593873Y1772638D01*
D02*
G37*
G36*
X1563873D02*
X1544074Y1752839D01*
X1535589Y1761324D01*
X1555388Y1781123D01*
X1563873Y1772638D01*
D02*
G37*
G36*
X1533873D02*
X1514074Y1752839D01*
X1505589Y1761324D01*
X1525388Y1781123D01*
X1533873Y1772638D01*
D02*
G37*
G36*
X1503873D02*
X1484074Y1752839D01*
X1475589Y1761324D01*
X1495388Y1781123D01*
X1503873Y1772638D01*
D02*
G37*
G36*
X1473873D02*
X1454074Y1752839D01*
X1445589Y1761324D01*
X1465388Y1781123D01*
X1473873Y1772638D01*
D02*
G37*
G36*
X1443873D02*
X1424074Y1752839D01*
X1415589Y1761324D01*
X1435388Y1781123D01*
X1443873Y1772638D01*
D02*
G37*
G36*
X1413873D02*
X1394074Y1752839D01*
X1385589Y1761324D01*
X1405388Y1781123D01*
X1413873Y1772638D01*
D02*
G37*
G36*
X1383873D02*
X1364074Y1752839D01*
X1355589Y1761324D01*
X1375388Y1781123D01*
X1383873Y1772638D01*
D02*
G37*
G36*
X1353873D02*
X1334074Y1752839D01*
X1325589Y1761324D01*
X1345388Y1781123D01*
X1353873Y1772638D01*
D02*
G37*
G36*
X1323873D02*
X1304074Y1752839D01*
X1295589Y1761324D01*
X1315388Y1781123D01*
X1323873Y1772638D01*
D02*
G37*
G36*
X2463873Y1742638D02*
X2444074Y1722839D01*
X2435589Y1731324D01*
X2455388Y1751123D01*
X2463873Y1742638D01*
D02*
G37*
G36*
X2433873D02*
X2414074Y1722839D01*
X2405589Y1731324D01*
X2425388Y1751123D01*
X2433873Y1742638D01*
D02*
G37*
G36*
X2403873D02*
X2384074Y1722839D01*
X2375589Y1731324D01*
X2395388Y1751123D01*
X2403873Y1742638D01*
D02*
G37*
G36*
X2373873D02*
X2354074Y1722839D01*
X2345589Y1731324D01*
X2365388Y1751123D01*
X2373873Y1742638D01*
D02*
G37*
G36*
X2343873D02*
X2324074Y1722839D01*
X2315589Y1731324D01*
X2335388Y1751123D01*
X2343873Y1742638D01*
D02*
G37*
G36*
X2313873D02*
X2294074Y1722839D01*
X2285589Y1731324D01*
X2305388Y1751123D01*
X2313873Y1742638D01*
D02*
G37*
G36*
X2283873D02*
X2264074Y1722839D01*
X2255589Y1731324D01*
X2275388Y1751123D01*
X2283873Y1742638D01*
D02*
G37*
G36*
X2253873D02*
X2234074Y1722839D01*
X2225589Y1731324D01*
X2245388Y1751123D01*
X2253873Y1742638D01*
D02*
G37*
G36*
X2223873D02*
X2204074Y1722839D01*
X2195589Y1731324D01*
X2215388Y1751123D01*
X2223873Y1742638D01*
D02*
G37*
G36*
X2193873D02*
X2174074Y1722839D01*
X2165589Y1731324D01*
X2185388Y1751123D01*
X2193873Y1742638D01*
D02*
G37*
G36*
X2163873D02*
X2144074Y1722839D01*
X2135589Y1731324D01*
X2155388Y1751123D01*
X2163873Y1742638D01*
D02*
G37*
G36*
X2133873D02*
X2114074Y1722839D01*
X2105589Y1731324D01*
X2125388Y1751123D01*
X2133873Y1742638D01*
D02*
G37*
G36*
X2103873D02*
X2084074Y1722839D01*
X2075589Y1731324D01*
X2095388Y1751123D01*
X2103873Y1742638D01*
D02*
G37*
G36*
X2073873D02*
X2054074Y1722839D01*
X2045589Y1731324D01*
X2065388Y1751123D01*
X2073873Y1742638D01*
D02*
G37*
G36*
X2043873D02*
X2024074Y1722839D01*
X2015589Y1731324D01*
X2035388Y1751123D01*
X2043873Y1742638D01*
D02*
G37*
G36*
X2013873D02*
X1994074Y1722839D01*
X1985589Y1731324D01*
X2005388Y1751123D01*
X2013873Y1742638D01*
D02*
G37*
G36*
X1983873D02*
X1964074Y1722839D01*
X1955589Y1731324D01*
X1975388Y1751123D01*
X1983873Y1742638D01*
D02*
G37*
G36*
X1953873D02*
X1934074Y1722839D01*
X1925589Y1731324D01*
X1945388Y1751123D01*
X1953873Y1742638D01*
D02*
G37*
G36*
X1923873D02*
X1904074Y1722839D01*
X1895589Y1731324D01*
X1915388Y1751123D01*
X1923873Y1742638D01*
D02*
G37*
G36*
X1893873D02*
X1874074Y1722839D01*
X1865589Y1731324D01*
X1885388Y1751123D01*
X1893873Y1742638D01*
D02*
G37*
G36*
X1863873D02*
X1844074Y1722839D01*
X1835589Y1731324D01*
X1855388Y1751123D01*
X1863873Y1742638D01*
D02*
G37*
G36*
X1833873D02*
X1814074Y1722839D01*
X1805589Y1731324D01*
X1825388Y1751123D01*
X1833873Y1742638D01*
D02*
G37*
G36*
X1803873D02*
X1784074Y1722839D01*
X1775589Y1731324D01*
X1795388Y1751123D01*
X1803873Y1742638D01*
D02*
G37*
G36*
X1773873D02*
X1754074Y1722839D01*
X1745589Y1731324D01*
X1765388Y1751123D01*
X1773873Y1742638D01*
D02*
G37*
G36*
X1743873D02*
X1724074Y1722839D01*
X1715589Y1731324D01*
X1735388Y1751123D01*
X1743873Y1742638D01*
D02*
G37*
G36*
X1713873D02*
X1694074Y1722839D01*
X1685589Y1731324D01*
X1705388Y1751123D01*
X1713873Y1742638D01*
D02*
G37*
G36*
X1683873D02*
X1664074Y1722839D01*
X1655589Y1731324D01*
X1675388Y1751123D01*
X1683873Y1742638D01*
D02*
G37*
G36*
X1653873D02*
X1634074Y1722839D01*
X1625589Y1731324D01*
X1645388Y1751123D01*
X1653873Y1742638D01*
D02*
G37*
G36*
X1623873D02*
X1604074Y1722839D01*
X1595589Y1731324D01*
X1615388Y1751123D01*
X1623873Y1742638D01*
D02*
G37*
G36*
X1593873D02*
X1574074Y1722839D01*
X1565589Y1731324D01*
X1585388Y1751123D01*
X1593873Y1742638D01*
D02*
G37*
G36*
X1563873D02*
X1544074Y1722839D01*
X1535589Y1731324D01*
X1555388Y1751123D01*
X1563873Y1742638D01*
D02*
G37*
G36*
X1533873D02*
X1514074Y1722839D01*
X1505589Y1731324D01*
X1525388Y1751123D01*
X1533873Y1742638D01*
D02*
G37*
G36*
X1503873D02*
X1484074Y1722839D01*
X1475589Y1731324D01*
X1495388Y1751123D01*
X1503873Y1742638D01*
D02*
G37*
G36*
X1473873D02*
X1454074Y1722839D01*
X1445589Y1731324D01*
X1465388Y1751123D01*
X1473873Y1742638D01*
D02*
G37*
G36*
X1443873D02*
X1424074Y1722839D01*
X1415589Y1731324D01*
X1435388Y1751123D01*
X1443873Y1742638D01*
D02*
G37*
G36*
X1413873D02*
X1394074Y1722839D01*
X1385589Y1731324D01*
X1405388Y1751123D01*
X1413873Y1742638D01*
D02*
G37*
G36*
X1383873D02*
X1364074Y1722839D01*
X1355589Y1731324D01*
X1375388Y1751123D01*
X1383873Y1742638D01*
D02*
G37*
G36*
X1353873D02*
X1334074Y1722839D01*
X1325589Y1731324D01*
X1345388Y1751123D01*
X1353873Y1742638D01*
D02*
G37*
G36*
X1323873D02*
X1304074Y1722839D01*
X1295589Y1731324D01*
X1315388Y1751123D01*
X1323873Y1742638D01*
D02*
G37*
G36*
X2463873Y1712638D02*
X2444074Y1692839D01*
X2435589Y1701324D01*
X2455388Y1721124D01*
X2463873Y1712638D01*
D02*
G37*
G36*
X2433873D02*
X2414074Y1692839D01*
X2405589Y1701324D01*
X2425388Y1721124D01*
X2433873Y1712638D01*
D02*
G37*
G36*
X2403873D02*
X2384074Y1692839D01*
X2375589Y1701324D01*
X2395388Y1721124D01*
X2403873Y1712638D01*
D02*
G37*
G36*
X2373873D02*
X2354074Y1692839D01*
X2345589Y1701324D01*
X2365388Y1721124D01*
X2373873Y1712638D01*
D02*
G37*
G36*
X2343873D02*
X2324074Y1692839D01*
X2315589Y1701324D01*
X2335388Y1721124D01*
X2343873Y1712638D01*
D02*
G37*
G36*
X2313873D02*
X2294074Y1692839D01*
X2285589Y1701324D01*
X2305388Y1721124D01*
X2313873Y1712638D01*
D02*
G37*
G36*
X2283873D02*
X2264074Y1692839D01*
X2255589Y1701324D01*
X2275388Y1721124D01*
X2283873Y1712638D01*
D02*
G37*
G36*
X2253873D02*
X2234074Y1692839D01*
X2225589Y1701324D01*
X2245388Y1721124D01*
X2253873Y1712638D01*
D02*
G37*
G36*
X2223873D02*
X2204074Y1692839D01*
X2195589Y1701324D01*
X2215388Y1721124D01*
X2223873Y1712638D01*
D02*
G37*
G36*
X2193873D02*
X2174074Y1692839D01*
X2165589Y1701324D01*
X2185388Y1721124D01*
X2193873Y1712638D01*
D02*
G37*
G36*
X2163873D02*
X2144074Y1692839D01*
X2135589Y1701324D01*
X2155388Y1721124D01*
X2163873Y1712638D01*
D02*
G37*
G36*
X2133873D02*
X2114074Y1692839D01*
X2105589Y1701324D01*
X2125388Y1721124D01*
X2133873Y1712638D01*
D02*
G37*
G36*
X2103873D02*
X2084074Y1692839D01*
X2075589Y1701324D01*
X2095388Y1721124D01*
X2103873Y1712638D01*
D02*
G37*
G36*
X2073873D02*
X2054074Y1692839D01*
X2045589Y1701324D01*
X2065388Y1721124D01*
X2073873Y1712638D01*
D02*
G37*
G36*
X2043873D02*
X2024074Y1692839D01*
X2015589Y1701324D01*
X2035388Y1721124D01*
X2043873Y1712638D01*
D02*
G37*
G36*
X2013873D02*
X1994074Y1692839D01*
X1985589Y1701324D01*
X2005388Y1721124D01*
X2013873Y1712638D01*
D02*
G37*
G36*
X1983873D02*
X1964074Y1692839D01*
X1955589Y1701324D01*
X1975388Y1721124D01*
X1983873Y1712638D01*
D02*
G37*
G36*
X1953873D02*
X1934074Y1692839D01*
X1925589Y1701324D01*
X1945388Y1721124D01*
X1953873Y1712638D01*
D02*
G37*
G36*
X1923873D02*
X1904074Y1692839D01*
X1895589Y1701324D01*
X1915388Y1721124D01*
X1923873Y1712638D01*
D02*
G37*
G36*
X1893873D02*
X1874074Y1692839D01*
X1865589Y1701324D01*
X1885388Y1721124D01*
X1893873Y1712638D01*
D02*
G37*
G36*
X1863873D02*
X1844074Y1692839D01*
X1835589Y1701324D01*
X1855388Y1721124D01*
X1863873Y1712638D01*
D02*
G37*
G36*
X1833873D02*
X1814074Y1692839D01*
X1805589Y1701324D01*
X1825388Y1721124D01*
X1833873Y1712638D01*
D02*
G37*
G36*
X1803873D02*
X1784074Y1692839D01*
X1775589Y1701324D01*
X1795388Y1721124D01*
X1803873Y1712638D01*
D02*
G37*
G36*
X1773873D02*
X1754074Y1692839D01*
X1745589Y1701324D01*
X1765388Y1721124D01*
X1773873Y1712638D01*
D02*
G37*
G36*
X1743873D02*
X1724074Y1692839D01*
X1715589Y1701324D01*
X1735388Y1721124D01*
X1743873Y1712638D01*
D02*
G37*
G36*
X1713873D02*
X1694074Y1692839D01*
X1685589Y1701324D01*
X1705388Y1721124D01*
X1713873Y1712638D01*
D02*
G37*
G36*
X1683873D02*
X1664074Y1692839D01*
X1655589Y1701324D01*
X1675388Y1721124D01*
X1683873Y1712638D01*
D02*
G37*
G36*
X1653873D02*
X1634074Y1692839D01*
X1625589Y1701324D01*
X1645388Y1721124D01*
X1653873Y1712638D01*
D02*
G37*
G36*
X1623873D02*
X1604074Y1692839D01*
X1595589Y1701324D01*
X1615388Y1721124D01*
X1623873Y1712638D01*
D02*
G37*
G36*
X1593873D02*
X1574074Y1692839D01*
X1565589Y1701324D01*
X1585388Y1721124D01*
X1593873Y1712638D01*
D02*
G37*
G36*
X1563873D02*
X1544074Y1692839D01*
X1535589Y1701324D01*
X1555388Y1721124D01*
X1563873Y1712638D01*
D02*
G37*
G36*
X1533873D02*
X1514074Y1692839D01*
X1505589Y1701324D01*
X1525388Y1721124D01*
X1533873Y1712638D01*
D02*
G37*
G36*
X1503873D02*
X1484074Y1692839D01*
X1475589Y1701324D01*
X1495388Y1721124D01*
X1503873Y1712638D01*
D02*
G37*
G36*
X1473873D02*
X1454074Y1692839D01*
X1445589Y1701324D01*
X1465388Y1721124D01*
X1473873Y1712638D01*
D02*
G37*
G36*
X1443873D02*
X1424074Y1692839D01*
X1415589Y1701324D01*
X1435388Y1721124D01*
X1443873Y1712638D01*
D02*
G37*
G36*
X1413873D02*
X1394074Y1692839D01*
X1385589Y1701324D01*
X1405388Y1721124D01*
X1413873Y1712638D01*
D02*
G37*
G36*
X1383873D02*
X1364074Y1692839D01*
X1355589Y1701324D01*
X1375388Y1721124D01*
X1383873Y1712638D01*
D02*
G37*
G36*
X1353873D02*
X1334074Y1692839D01*
X1325589Y1701324D01*
X1345388Y1721124D01*
X1353873Y1712638D01*
D02*
G37*
G36*
X1323873D02*
X1304074Y1692839D01*
X1295589Y1701324D01*
X1315388Y1721124D01*
X1323873Y1712638D01*
D02*
G37*
G36*
X2463873Y1682638D02*
X2444074Y1662839D01*
X2435589Y1671324D01*
X2455388Y1691123D01*
X2463873Y1682638D01*
D02*
G37*
G36*
X2433873D02*
X2414074Y1662839D01*
X2405589Y1671324D01*
X2425388Y1691123D01*
X2433873Y1682638D01*
D02*
G37*
G36*
X2403873D02*
X2384074Y1662839D01*
X2375589Y1671324D01*
X2395388Y1691123D01*
X2403873Y1682638D01*
D02*
G37*
G36*
X2373873D02*
X2354074Y1662839D01*
X2345589Y1671324D01*
X2365388Y1691123D01*
X2373873Y1682638D01*
D02*
G37*
G36*
X2343873D02*
X2324074Y1662839D01*
X2315589Y1671324D01*
X2335388Y1691123D01*
X2343873Y1682638D01*
D02*
G37*
G36*
X2313873D02*
X2294074Y1662839D01*
X2285589Y1671324D01*
X2305388Y1691123D01*
X2313873Y1682638D01*
D02*
G37*
G36*
X2283873D02*
X2264074Y1662839D01*
X2255589Y1671324D01*
X2275388Y1691123D01*
X2283873Y1682638D01*
D02*
G37*
G36*
X2253873D02*
X2234074Y1662839D01*
X2225589Y1671324D01*
X2245388Y1691123D01*
X2253873Y1682638D01*
D02*
G37*
G36*
X2223873D02*
X2204074Y1662839D01*
X2195589Y1671324D01*
X2215388Y1691123D01*
X2223873Y1682638D01*
D02*
G37*
G36*
X2193873D02*
X2174074Y1662839D01*
X2165589Y1671324D01*
X2185388Y1691123D01*
X2193873Y1682638D01*
D02*
G37*
G36*
X2163873D02*
X2144074Y1662839D01*
X2135589Y1671324D01*
X2155388Y1691123D01*
X2163873Y1682638D01*
D02*
G37*
G36*
X2133873D02*
X2114074Y1662839D01*
X2105589Y1671324D01*
X2125388Y1691123D01*
X2133873Y1682638D01*
D02*
G37*
G36*
X2103873D02*
X2084074Y1662839D01*
X2075589Y1671324D01*
X2095388Y1691123D01*
X2103873Y1682638D01*
D02*
G37*
G36*
X2073873D02*
X2054074Y1662839D01*
X2045589Y1671324D01*
X2065388Y1691123D01*
X2073873Y1682638D01*
D02*
G37*
G36*
X2043873D02*
X2024074Y1662839D01*
X2015589Y1671324D01*
X2035388Y1691123D01*
X2043873Y1682638D01*
D02*
G37*
G36*
X2013873D02*
X1994074Y1662839D01*
X1985589Y1671324D01*
X2005388Y1691123D01*
X2013873Y1682638D01*
D02*
G37*
G36*
X1983873D02*
X1964074Y1662839D01*
X1955589Y1671324D01*
X1975388Y1691123D01*
X1983873Y1682638D01*
D02*
G37*
G36*
X1953873D02*
X1934074Y1662839D01*
X1925589Y1671324D01*
X1945388Y1691123D01*
X1953873Y1682638D01*
D02*
G37*
G36*
X1923873D02*
X1904074Y1662839D01*
X1895589Y1671324D01*
X1915388Y1691123D01*
X1923873Y1682638D01*
D02*
G37*
G36*
X1893873D02*
X1874074Y1662839D01*
X1865589Y1671324D01*
X1885388Y1691123D01*
X1893873Y1682638D01*
D02*
G37*
G36*
X1863873D02*
X1844074Y1662839D01*
X1835589Y1671324D01*
X1855388Y1691123D01*
X1863873Y1682638D01*
D02*
G37*
G36*
X1833873D02*
X1814074Y1662839D01*
X1805589Y1671324D01*
X1825388Y1691123D01*
X1833873Y1682638D01*
D02*
G37*
G36*
X1803873D02*
X1784074Y1662839D01*
X1775589Y1671324D01*
X1795388Y1691123D01*
X1803873Y1682638D01*
D02*
G37*
G36*
X1773873D02*
X1754074Y1662839D01*
X1745589Y1671324D01*
X1765388Y1691123D01*
X1773873Y1682638D01*
D02*
G37*
G36*
X1743873D02*
X1724074Y1662839D01*
X1715589Y1671324D01*
X1735388Y1691123D01*
X1743873Y1682638D01*
D02*
G37*
G36*
X1713873D02*
X1694074Y1662839D01*
X1685589Y1671324D01*
X1705388Y1691123D01*
X1713873Y1682638D01*
D02*
G37*
G36*
X1683873D02*
X1664074Y1662839D01*
X1655589Y1671324D01*
X1675388Y1691123D01*
X1683873Y1682638D01*
D02*
G37*
G36*
X1653873D02*
X1634074Y1662839D01*
X1625589Y1671324D01*
X1645388Y1691123D01*
X1653873Y1682638D01*
D02*
G37*
G36*
X1623873D02*
X1604074Y1662839D01*
X1595589Y1671324D01*
X1615388Y1691123D01*
X1623873Y1682638D01*
D02*
G37*
G36*
X1593873D02*
X1574074Y1662839D01*
X1565589Y1671324D01*
X1585388Y1691123D01*
X1593873Y1682638D01*
D02*
G37*
G36*
X1563873D02*
X1544074Y1662839D01*
X1535589Y1671324D01*
X1555388Y1691123D01*
X1563873Y1682638D01*
D02*
G37*
G36*
X1533873D02*
X1514074Y1662839D01*
X1505589Y1671324D01*
X1525388Y1691123D01*
X1533873Y1682638D01*
D02*
G37*
G36*
X1503873D02*
X1484074Y1662839D01*
X1475589Y1671324D01*
X1495388Y1691123D01*
X1503873Y1682638D01*
D02*
G37*
G36*
X1473873D02*
X1454074Y1662839D01*
X1445589Y1671324D01*
X1465388Y1691123D01*
X1473873Y1682638D01*
D02*
G37*
G36*
X1443873D02*
X1424074Y1662839D01*
X1415589Y1671324D01*
X1435388Y1691123D01*
X1443873Y1682638D01*
D02*
G37*
G36*
X1413873D02*
X1394074Y1662839D01*
X1385589Y1671324D01*
X1405388Y1691123D01*
X1413873Y1682638D01*
D02*
G37*
G36*
X1383873D02*
X1364074Y1662839D01*
X1355589Y1671324D01*
X1375388Y1691123D01*
X1383873Y1682638D01*
D02*
G37*
G36*
X1353873D02*
X1334074Y1662839D01*
X1325589Y1671324D01*
X1345388Y1691123D01*
X1353873Y1682638D01*
D02*
G37*
G36*
X1323873D02*
X1304074Y1662839D01*
X1295589Y1671324D01*
X1315388Y1691123D01*
X1323873Y1682638D01*
D02*
G37*
G36*
X2463873Y1652638D02*
X2444074Y1632839D01*
X2435589Y1641324D01*
X2455388Y1661123D01*
X2463873Y1652638D01*
D02*
G37*
G36*
X2433873D02*
X2414074Y1632839D01*
X2405589Y1641324D01*
X2425388Y1661123D01*
X2433873Y1652638D01*
D02*
G37*
G36*
X2403873D02*
X2384074Y1632839D01*
X2375589Y1641324D01*
X2395388Y1661123D01*
X2403873Y1652638D01*
D02*
G37*
G36*
X2373873D02*
X2354074Y1632839D01*
X2345589Y1641324D01*
X2365388Y1661123D01*
X2373873Y1652638D01*
D02*
G37*
G36*
X2343873D02*
X2324074Y1632839D01*
X2315589Y1641324D01*
X2335388Y1661123D01*
X2343873Y1652638D01*
D02*
G37*
G36*
X2313873D02*
X2294074Y1632839D01*
X2285589Y1641324D01*
X2305388Y1661123D01*
X2313873Y1652638D01*
D02*
G37*
G36*
X2283873D02*
X2264074Y1632839D01*
X2255589Y1641324D01*
X2275388Y1661123D01*
X2283873Y1652638D01*
D02*
G37*
G36*
X2253873D02*
X2234074Y1632839D01*
X2225589Y1641324D01*
X2245388Y1661123D01*
X2253873Y1652638D01*
D02*
G37*
G36*
X2223873D02*
X2204074Y1632839D01*
X2195589Y1641324D01*
X2215388Y1661123D01*
X2223873Y1652638D01*
D02*
G37*
G36*
X2193873D02*
X2174074Y1632839D01*
X2165589Y1641324D01*
X2185388Y1661123D01*
X2193873Y1652638D01*
D02*
G37*
G36*
X2163873D02*
X2144074Y1632839D01*
X2135589Y1641324D01*
X2155388Y1661123D01*
X2163873Y1652638D01*
D02*
G37*
G36*
X2133873D02*
X2114074Y1632839D01*
X2105589Y1641324D01*
X2125388Y1661123D01*
X2133873Y1652638D01*
D02*
G37*
G36*
X2103873D02*
X2084074Y1632839D01*
X2075589Y1641324D01*
X2095388Y1661123D01*
X2103873Y1652638D01*
D02*
G37*
G36*
X2073873D02*
X2054074Y1632839D01*
X2045589Y1641324D01*
X2065388Y1661123D01*
X2073873Y1652638D01*
D02*
G37*
G36*
X2043873D02*
X2024074Y1632839D01*
X2015589Y1641324D01*
X2035388Y1661123D01*
X2043873Y1652638D01*
D02*
G37*
G36*
X2013873D02*
X1994074Y1632839D01*
X1985589Y1641324D01*
X2005388Y1661123D01*
X2013873Y1652638D01*
D02*
G37*
G36*
X1983873D02*
X1964074Y1632839D01*
X1955589Y1641324D01*
X1975388Y1661123D01*
X1983873Y1652638D01*
D02*
G37*
G36*
X1953873D02*
X1934074Y1632839D01*
X1925589Y1641324D01*
X1945388Y1661123D01*
X1953873Y1652638D01*
D02*
G37*
G36*
X1923873D02*
X1904074Y1632839D01*
X1895589Y1641324D01*
X1915388Y1661123D01*
X1923873Y1652638D01*
D02*
G37*
G36*
X1893873D02*
X1874074Y1632839D01*
X1865589Y1641324D01*
X1885388Y1661123D01*
X1893873Y1652638D01*
D02*
G37*
G36*
X1863873D02*
X1844074Y1632839D01*
X1835589Y1641324D01*
X1855388Y1661123D01*
X1863873Y1652638D01*
D02*
G37*
G36*
X1833873D02*
X1814074Y1632839D01*
X1805589Y1641324D01*
X1825388Y1661123D01*
X1833873Y1652638D01*
D02*
G37*
G36*
X1803873D02*
X1784074Y1632839D01*
X1775589Y1641324D01*
X1795388Y1661123D01*
X1803873Y1652638D01*
D02*
G37*
G36*
X1773873D02*
X1754074Y1632839D01*
X1745589Y1641324D01*
X1765388Y1661123D01*
X1773873Y1652638D01*
D02*
G37*
G36*
X1743873D02*
X1724074Y1632839D01*
X1715589Y1641324D01*
X1735388Y1661123D01*
X1743873Y1652638D01*
D02*
G37*
G36*
X1713873D02*
X1694074Y1632839D01*
X1685589Y1641324D01*
X1705388Y1661123D01*
X1713873Y1652638D01*
D02*
G37*
G36*
X1683873D02*
X1664074Y1632839D01*
X1655589Y1641324D01*
X1675388Y1661123D01*
X1683873Y1652638D01*
D02*
G37*
G36*
X1653873D02*
X1634074Y1632839D01*
X1625589Y1641324D01*
X1645388Y1661123D01*
X1653873Y1652638D01*
D02*
G37*
G36*
X1623873D02*
X1604074Y1632839D01*
X1595589Y1641324D01*
X1615388Y1661123D01*
X1623873Y1652638D01*
D02*
G37*
G36*
X1593873D02*
X1574074Y1632839D01*
X1565589Y1641324D01*
X1585388Y1661123D01*
X1593873Y1652638D01*
D02*
G37*
G36*
X1563873D02*
X1544074Y1632839D01*
X1535589Y1641324D01*
X1555388Y1661123D01*
X1563873Y1652638D01*
D02*
G37*
G36*
X1533873D02*
X1514074Y1632839D01*
X1505589Y1641324D01*
X1525388Y1661123D01*
X1533873Y1652638D01*
D02*
G37*
G36*
X1503873D02*
X1484074Y1632839D01*
X1475589Y1641324D01*
X1495388Y1661123D01*
X1503873Y1652638D01*
D02*
G37*
G36*
X1473873D02*
X1454074Y1632839D01*
X1445589Y1641324D01*
X1465388Y1661123D01*
X1473873Y1652638D01*
D02*
G37*
G36*
X1443873D02*
X1424074Y1632839D01*
X1415589Y1641324D01*
X1435388Y1661123D01*
X1443873Y1652638D01*
D02*
G37*
G36*
X1413873D02*
X1394074Y1632839D01*
X1385589Y1641324D01*
X1405388Y1661123D01*
X1413873Y1652638D01*
D02*
G37*
G36*
X1383873D02*
X1364074Y1632839D01*
X1355589Y1641324D01*
X1375388Y1661123D01*
X1383873Y1652638D01*
D02*
G37*
G36*
X1353873D02*
X1334074Y1632839D01*
X1325589Y1641324D01*
X1345388Y1661123D01*
X1353873Y1652638D01*
D02*
G37*
G36*
X1323873D02*
X1304074Y1632839D01*
X1295589Y1641324D01*
X1315388Y1661123D01*
X1323873Y1652638D01*
D02*
G37*
G36*
X2463873Y1622638D02*
X2444074Y1602839D01*
X2435589Y1611324D01*
X2455388Y1631124D01*
X2463873Y1622638D01*
D02*
G37*
G36*
X2433873D02*
X2414074Y1602839D01*
X2405589Y1611324D01*
X2425388Y1631124D01*
X2433873Y1622638D01*
D02*
G37*
G36*
X2403873D02*
X2384074Y1602839D01*
X2375589Y1611324D01*
X2395388Y1631124D01*
X2403873Y1622638D01*
D02*
G37*
G36*
X2373873D02*
X2354074Y1602839D01*
X2345589Y1611324D01*
X2365388Y1631124D01*
X2373873Y1622638D01*
D02*
G37*
G36*
X2343873D02*
X2324074Y1602839D01*
X2315589Y1611324D01*
X2335388Y1631124D01*
X2343873Y1622638D01*
D02*
G37*
G36*
X2313873D02*
X2294074Y1602839D01*
X2285589Y1611324D01*
X2305388Y1631124D01*
X2313873Y1622638D01*
D02*
G37*
G36*
X2283873D02*
X2264074Y1602839D01*
X2255589Y1611324D01*
X2275388Y1631124D01*
X2283873Y1622638D01*
D02*
G37*
G36*
X2253873D02*
X2234074Y1602839D01*
X2225589Y1611324D01*
X2245388Y1631124D01*
X2253873Y1622638D01*
D02*
G37*
G36*
X2223873D02*
X2204074Y1602839D01*
X2195589Y1611324D01*
X2215388Y1631124D01*
X2223873Y1622638D01*
D02*
G37*
G36*
X2193873D02*
X2174074Y1602839D01*
X2165589Y1611324D01*
X2185388Y1631124D01*
X2193873Y1622638D01*
D02*
G37*
G36*
X2163873D02*
X2144074Y1602839D01*
X2135589Y1611324D01*
X2155388Y1631124D01*
X2163873Y1622638D01*
D02*
G37*
G36*
X2133873D02*
X2114074Y1602839D01*
X2105589Y1611324D01*
X2125388Y1631124D01*
X2133873Y1622638D01*
D02*
G37*
G36*
X2103873D02*
X2084074Y1602839D01*
X2075589Y1611324D01*
X2095388Y1631124D01*
X2103873Y1622638D01*
D02*
G37*
G36*
X2073873D02*
X2054074Y1602839D01*
X2045589Y1611324D01*
X2065388Y1631124D01*
X2073873Y1622638D01*
D02*
G37*
G36*
X2043873D02*
X2024074Y1602839D01*
X2015589Y1611324D01*
X2035388Y1631124D01*
X2043873Y1622638D01*
D02*
G37*
G36*
X2013873D02*
X1994074Y1602839D01*
X1985589Y1611324D01*
X2005388Y1631124D01*
X2013873Y1622638D01*
D02*
G37*
G36*
X1983873D02*
X1964074Y1602839D01*
X1955589Y1611324D01*
X1975388Y1631124D01*
X1983873Y1622638D01*
D02*
G37*
G36*
X1953873D02*
X1934074Y1602839D01*
X1925589Y1611324D01*
X1945388Y1631124D01*
X1953873Y1622638D01*
D02*
G37*
G36*
X1923873D02*
X1904074Y1602839D01*
X1895589Y1611324D01*
X1915388Y1631124D01*
X1923873Y1622638D01*
D02*
G37*
G36*
X1893873D02*
X1874074Y1602839D01*
X1865589Y1611324D01*
X1885388Y1631124D01*
X1893873Y1622638D01*
D02*
G37*
G36*
X1863873D02*
X1844074Y1602839D01*
X1835589Y1611324D01*
X1855388Y1631124D01*
X1863873Y1622638D01*
D02*
G37*
G36*
X1833873D02*
X1814074Y1602839D01*
X1805589Y1611324D01*
X1825388Y1631124D01*
X1833873Y1622638D01*
D02*
G37*
G36*
X1803873D02*
X1784074Y1602839D01*
X1775589Y1611324D01*
X1795388Y1631124D01*
X1803873Y1622638D01*
D02*
G37*
G36*
X1773873D02*
X1754074Y1602839D01*
X1745589Y1611324D01*
X1765388Y1631124D01*
X1773873Y1622638D01*
D02*
G37*
G36*
X1743873D02*
X1724074Y1602839D01*
X1715589Y1611324D01*
X1735388Y1631124D01*
X1743873Y1622638D01*
D02*
G37*
G36*
X1713873D02*
X1694074Y1602839D01*
X1685589Y1611324D01*
X1705388Y1631124D01*
X1713873Y1622638D01*
D02*
G37*
G36*
X1683873D02*
X1664074Y1602839D01*
X1655589Y1611324D01*
X1675388Y1631124D01*
X1683873Y1622638D01*
D02*
G37*
G36*
X1653873D02*
X1634074Y1602839D01*
X1625589Y1611324D01*
X1645388Y1631124D01*
X1653873Y1622638D01*
D02*
G37*
G36*
X1623873D02*
X1604074Y1602839D01*
X1595589Y1611324D01*
X1615388Y1631124D01*
X1623873Y1622638D01*
D02*
G37*
G36*
X1593873D02*
X1574074Y1602839D01*
X1565589Y1611324D01*
X1585388Y1631124D01*
X1593873Y1622638D01*
D02*
G37*
G36*
X1563873D02*
X1544074Y1602839D01*
X1535589Y1611324D01*
X1555388Y1631124D01*
X1563873Y1622638D01*
D02*
G37*
G36*
X1533873D02*
X1514074Y1602839D01*
X1505589Y1611324D01*
X1525388Y1631124D01*
X1533873Y1622638D01*
D02*
G37*
G36*
X1503873D02*
X1484074Y1602839D01*
X1475589Y1611324D01*
X1495388Y1631124D01*
X1503873Y1622638D01*
D02*
G37*
G36*
X1473873D02*
X1454074Y1602839D01*
X1445589Y1611324D01*
X1465388Y1631124D01*
X1473873Y1622638D01*
D02*
G37*
G36*
X1443873D02*
X1424074Y1602839D01*
X1415589Y1611324D01*
X1435388Y1631124D01*
X1443873Y1622638D01*
D02*
G37*
G36*
X1413873D02*
X1394074Y1602839D01*
X1385589Y1611324D01*
X1405388Y1631124D01*
X1413873Y1622638D01*
D02*
G37*
G36*
X1383873D02*
X1364074Y1602839D01*
X1355589Y1611324D01*
X1375388Y1631124D01*
X1383873Y1622638D01*
D02*
G37*
G36*
X1353873D02*
X1334074Y1602839D01*
X1325589Y1611324D01*
X1345388Y1631124D01*
X1353873Y1622638D01*
D02*
G37*
G36*
X1323873D02*
X1304074Y1602839D01*
X1295589Y1611324D01*
X1315388Y1631124D01*
X1323873Y1622638D01*
D02*
G37*
G36*
X2501394Y1353054D02*
X2473394D01*
Y1365054D01*
X2501394D01*
Y1353054D01*
D02*
G37*
G36*
Y1337054D02*
X2473394D01*
Y1349054D01*
X2501394D01*
Y1337054D01*
D02*
G37*
G36*
X1769904Y1279054D02*
X1741904D01*
Y1291054D01*
X1769904D01*
Y1279054D01*
D02*
G37*
G36*
X1770004Y1259554D02*
X1742004D01*
Y1271554D01*
X1770004D01*
Y1259554D01*
D02*
G37*
G36*
Y1240554D02*
X1742004D01*
Y1252554D01*
X1770004D01*
Y1240554D01*
D02*
G37*
G36*
Y1222304D02*
X1742004D01*
Y1234304D01*
X1770004D01*
Y1222304D01*
D02*
G37*
D28*
X2012024Y1375354D02*
X2082024D01*
X2012024Y1445354D02*
X2082024D01*
X2012024Y1375354D02*
Y1445354D01*
X2082024Y1375354D02*
Y1445354D01*
X2012024Y1375354D02*
X2082024D01*
X2012024Y1445354D02*
X2082024D01*
X2012024Y1375354D02*
Y1445354D01*
X2082024Y1375354D02*
Y1445354D01*
D93*
X2091874Y1440554D02*
G03*
X2091874Y1440554I-2000J0D01*
G01*
D02*
G03*
X2091874Y1440554I-2000J0D01*
G01*
D95*
X1700024Y1391804D02*
Y1461804D01*
X1695024Y1391804D02*
X1700024D01*
X1695024Y1196804D02*
Y1391804D01*
Y1196804D02*
X1890024D01*
Y1391804D01*
X1885024D02*
X1890024D01*
X1885024D02*
Y1461804D01*
X1700024D02*
X1885024D01*
M02*
