G04*
G04 #@! TF.GenerationSoftware,Altium Limited,Altium Designer,18.1.9 (240)*
G04*
G04 Layer_Color=8388736*
%FSLAX44Y44*%
%MOMM*%
G71*
G01*
G75*
%ADD11C,0.2540*%
%ADD29C,0.2500*%
%ADD30C,0.1000*%
G36*
X2086619Y1539500D02*
X2085215D01*
Y1540846D01*
X2085195Y1540827D01*
X2085156Y1540788D01*
X2085098Y1540709D01*
X2085020Y1540612D01*
X2084902Y1540475D01*
X2084766Y1540358D01*
X2084610Y1540202D01*
X2084434Y1540066D01*
X2084239Y1539929D01*
X2084025Y1539773D01*
X2083771Y1539656D01*
X2083517Y1539539D01*
X2083225Y1539422D01*
X2082932Y1539344D01*
X2082601Y1539305D01*
X2082269Y1539285D01*
X2082133D01*
X2081976Y1539305D01*
X2081762Y1539324D01*
X2081528Y1539363D01*
X2081274Y1539422D01*
X2081001Y1539500D01*
X2080728Y1539597D01*
X2080689Y1539617D01*
X2080611Y1539656D01*
X2080494Y1539715D01*
X2080338Y1539812D01*
X2080162Y1539929D01*
X2079987Y1540066D01*
X2079831Y1540202D01*
X2079675Y1540378D01*
X2079655Y1540397D01*
X2079616Y1540456D01*
X2079557Y1540573D01*
X2079499Y1540709D01*
X2079402Y1540885D01*
X2079323Y1541080D01*
X2079245Y1541295D01*
X2079187Y1541548D01*
Y1541568D01*
X2079167Y1541646D01*
Y1541743D01*
X2079148Y1541899D01*
X2079128Y1542114D01*
Y1542368D01*
X2079109Y1542660D01*
Y1543011D01*
Y1548785D01*
X2080689D01*
Y1543616D01*
Y1543596D01*
Y1543557D01*
Y1543499D01*
Y1543421D01*
Y1543206D01*
X2080708Y1542953D01*
Y1542680D01*
X2080728Y1542407D01*
X2080748Y1542153D01*
X2080767Y1541958D01*
Y1541938D01*
X2080806Y1541860D01*
X2080845Y1541743D01*
X2080903Y1541607D01*
X2080981Y1541451D01*
X2081099Y1541275D01*
X2081235Y1541119D01*
X2081391Y1540983D01*
X2081411Y1540963D01*
X2081489Y1540924D01*
X2081586Y1540865D01*
X2081723Y1540807D01*
X2081898Y1540748D01*
X2082093Y1540690D01*
X2082328Y1540651D01*
X2082581Y1540631D01*
X2082698D01*
X2082835Y1540651D01*
X2083010Y1540670D01*
X2083205Y1540709D01*
X2083420Y1540788D01*
X2083654Y1540865D01*
X2083888Y1540983D01*
X2083908Y1541002D01*
X2083986Y1541061D01*
X2084103Y1541139D01*
X2084239Y1541256D01*
X2084376Y1541392D01*
X2084532Y1541568D01*
X2084649Y1541763D01*
X2084766Y1541977D01*
X2084785Y1542016D01*
X2084805Y1542095D01*
X2084844Y1542231D01*
X2084902Y1542446D01*
X2084961Y1542699D01*
X2085000Y1543011D01*
X2085020Y1543382D01*
X2085039Y1543792D01*
Y1548785D01*
X2086619D01*
Y1539500D01*
D02*
G37*
G36*
X2062606Y1552297D02*
X2062762D01*
X2063152Y1552277D01*
X2063562Y1552238D01*
X2063991Y1552160D01*
X2064400Y1552082D01*
X2064595Y1552024D01*
X2064771Y1551965D01*
X2064791D01*
X2064810Y1551946D01*
X2064927Y1551907D01*
X2065083Y1551809D01*
X2065278Y1551673D01*
X2065512Y1551516D01*
X2065746Y1551302D01*
X2065981Y1551048D01*
X2066195Y1550736D01*
X2066215Y1550697D01*
X2066273Y1550580D01*
X2066371Y1550405D01*
X2066468Y1550170D01*
X2066566Y1549878D01*
X2066663Y1549546D01*
X2066722Y1549195D01*
X2066741Y1548805D01*
Y1548785D01*
Y1548746D01*
Y1548668D01*
X2066722Y1548571D01*
Y1548454D01*
X2066702Y1548317D01*
X2066624Y1548005D01*
X2066527Y1547634D01*
X2066371Y1547264D01*
X2066137Y1546874D01*
X2066000Y1546679D01*
X2065844Y1546503D01*
X2065805Y1546464D01*
X2065746Y1546425D01*
X2065688Y1546347D01*
X2065590Y1546288D01*
X2065473Y1546191D01*
X2065337Y1546113D01*
X2065181Y1546015D01*
X2065005Y1545918D01*
X2064791Y1545820D01*
X2064576Y1545723D01*
X2064322Y1545625D01*
X2064069Y1545528D01*
X2063776Y1545450D01*
X2063464Y1545391D01*
X2063132Y1545333D01*
X2063172Y1545313D01*
X2063250Y1545274D01*
X2063367Y1545216D01*
X2063503Y1545138D01*
X2063835Y1544923D01*
X2064010Y1544806D01*
X2064147Y1544689D01*
X2064186Y1544650D01*
X2064283Y1544572D01*
X2064420Y1544416D01*
X2064595Y1544221D01*
X2064810Y1543967D01*
X2065044Y1543674D01*
X2065298Y1543343D01*
X2065551Y1542972D01*
X2067775Y1539500D01*
X2065649D01*
X2063952Y1542153D01*
Y1542173D01*
X2063913Y1542211D01*
X2063874Y1542270D01*
X2063835Y1542348D01*
X2063698Y1542543D01*
X2063523Y1542797D01*
X2063327Y1543089D01*
X2063113Y1543382D01*
X2062918Y1543655D01*
X2062723Y1543909D01*
X2062703Y1543928D01*
X2062645Y1544006D01*
X2062547Y1544123D01*
X2062450Y1544260D01*
X2062157Y1544533D01*
X2062021Y1544669D01*
X2061864Y1544767D01*
X2061845Y1544786D01*
X2061806Y1544806D01*
X2061728Y1544845D01*
X2061630Y1544904D01*
X2061396Y1545020D01*
X2061104Y1545118D01*
X2061084D01*
X2061045Y1545138D01*
X2060967D01*
X2060870Y1545157D01*
X2060733Y1545177D01*
X2060577D01*
X2060382Y1545196D01*
X2058197D01*
Y1539500D01*
X2056500D01*
Y1552316D01*
X2062450D01*
X2062606Y1552297D01*
D02*
G37*
G36*
X2090930Y1548785D02*
X2092510D01*
Y1547556D01*
X2090930D01*
Y1542114D01*
Y1542095D01*
Y1542016D01*
Y1541899D01*
X2090950Y1541763D01*
X2090969Y1541470D01*
X2090989Y1541353D01*
X2091008Y1541256D01*
X2091028Y1541217D01*
X2091067Y1541139D01*
X2091145Y1541041D01*
X2091262Y1540943D01*
X2091301Y1540924D01*
X2091398Y1540905D01*
X2091574Y1540865D01*
X2091808Y1540846D01*
X2092003D01*
X2092101Y1540865D01*
X2092218D01*
X2092510Y1540905D01*
X2092725Y1539520D01*
X2092686D01*
X2092608Y1539500D01*
X2092491Y1539480D01*
X2092315Y1539461D01*
X2092140Y1539422D01*
X2091945Y1539402D01*
X2091535Y1539383D01*
X2091398D01*
X2091242Y1539402D01*
X2091047Y1539422D01*
X2090833Y1539442D01*
X2090599Y1539500D01*
X2090384Y1539559D01*
X2090189Y1539637D01*
X2090169Y1539656D01*
X2090111Y1539695D01*
X2090033Y1539754D01*
X2089935Y1539832D01*
X2089818Y1539929D01*
X2089721Y1540046D01*
X2089604Y1540183D01*
X2089526Y1540339D01*
Y1540358D01*
X2089506Y1540436D01*
X2089467Y1540553D01*
X2089448Y1540748D01*
X2089409Y1541002D01*
X2089389Y1541139D01*
X2089370Y1541314D01*
Y1541509D01*
X2089350Y1541724D01*
Y1541958D01*
Y1542211D01*
Y1547556D01*
X2088180D01*
Y1548785D01*
X2089350D01*
Y1551068D01*
X2090930Y1552024D01*
Y1548785D01*
D02*
G37*
G36*
X2098167Y1548981D02*
X2098323Y1548961D01*
X2098519Y1548941D01*
X2098714Y1548902D01*
X2098948Y1548844D01*
X2099416Y1548688D01*
X2099669Y1548590D01*
X2099923Y1548454D01*
X2100177Y1548317D01*
X2100430Y1548142D01*
X2100664Y1547947D01*
X2100898Y1547713D01*
X2100918Y1547693D01*
X2100957Y1547654D01*
X2101015Y1547576D01*
X2101093Y1547478D01*
X2101172Y1547342D01*
X2101269Y1547186D01*
X2101386Y1547010D01*
X2101503Y1546796D01*
X2101601Y1546542D01*
X2101718Y1546288D01*
X2101815Y1545996D01*
X2101913Y1545664D01*
X2101971Y1545333D01*
X2102030Y1544962D01*
X2102069Y1544572D01*
X2102088Y1544143D01*
Y1544123D01*
Y1544045D01*
Y1543909D01*
X2102069Y1543733D01*
X2095163D01*
Y1543714D01*
Y1543674D01*
X2095183Y1543577D01*
Y1543479D01*
X2095202Y1543343D01*
X2095222Y1543206D01*
X2095300Y1542855D01*
X2095417Y1542485D01*
X2095553Y1542095D01*
X2095768Y1541704D01*
X2096022Y1541373D01*
X2096061Y1541334D01*
X2096158Y1541256D01*
X2096334Y1541119D01*
X2096548Y1540983D01*
X2096841Y1540827D01*
X2097173Y1540690D01*
X2097543Y1540612D01*
X2097953Y1540573D01*
X2098109D01*
X2098265Y1540592D01*
X2098460Y1540631D01*
X2098694Y1540690D01*
X2098948Y1540768D01*
X2099201Y1540865D01*
X2099435Y1541022D01*
X2099455Y1541041D01*
X2099533Y1541119D01*
X2099650Y1541217D01*
X2099787Y1541392D01*
X2099942Y1541587D01*
X2100099Y1541841D01*
X2100255Y1542153D01*
X2100411Y1542504D01*
X2102030Y1542289D01*
Y1542270D01*
X2102010Y1542231D01*
X2101991Y1542153D01*
X2101952Y1542055D01*
X2101913Y1541938D01*
X2101854Y1541802D01*
X2101698Y1541470D01*
X2101503Y1541119D01*
X2101269Y1540748D01*
X2100957Y1540378D01*
X2100606Y1540066D01*
X2100586D01*
X2100567Y1540027D01*
X2100508Y1539988D01*
X2100411Y1539949D01*
X2100313Y1539890D01*
X2100196Y1539812D01*
X2100060Y1539754D01*
X2099884Y1539676D01*
X2099513Y1539539D01*
X2099045Y1539402D01*
X2098538Y1539324D01*
X2097953Y1539285D01*
X2097758D01*
X2097621Y1539305D01*
X2097446Y1539324D01*
X2097251Y1539344D01*
X2097036Y1539383D01*
X2096782Y1539442D01*
X2096275Y1539597D01*
X2096002Y1539695D01*
X2095748Y1539812D01*
X2095475Y1539949D01*
X2095222Y1540124D01*
X2094968Y1540319D01*
X2094734Y1540534D01*
X2094715Y1540553D01*
X2094676Y1540592D01*
X2094617Y1540670D01*
X2094559Y1540768D01*
X2094461Y1540885D01*
X2094364Y1541041D01*
X2094246Y1541236D01*
X2094149Y1541451D01*
X2094032Y1541685D01*
X2093915Y1541938D01*
X2093817Y1542231D01*
X2093739Y1542543D01*
X2093661Y1542875D01*
X2093603Y1543245D01*
X2093564Y1543636D01*
X2093544Y1544045D01*
Y1544065D01*
Y1544143D01*
Y1544279D01*
X2093564Y1544435D01*
X2093583Y1544630D01*
X2093603Y1544865D01*
X2093642Y1545118D01*
X2093700Y1545391D01*
X2093837Y1545976D01*
X2093934Y1546269D01*
X2094051Y1546581D01*
X2094188Y1546874D01*
X2094344Y1547166D01*
X2094520Y1547439D01*
X2094734Y1547693D01*
X2094754Y1547713D01*
X2094793Y1547751D01*
X2094851Y1547810D01*
X2094949Y1547908D01*
X2095066Y1548005D01*
X2095222Y1548103D01*
X2095378Y1548220D01*
X2095573Y1548356D01*
X2095788Y1548473D01*
X2096022Y1548590D01*
X2096275Y1548688D01*
X2096568Y1548805D01*
X2096860Y1548883D01*
X2097173Y1548941D01*
X2097504Y1548981D01*
X2097855Y1549000D01*
X2098031D01*
X2098167Y1548981D01*
D02*
G37*
G36*
X2073257D02*
X2073432Y1548961D01*
X2073608Y1548941D01*
X2073822Y1548902D01*
X2074057Y1548844D01*
X2074544Y1548688D01*
X2074798Y1548590D01*
X2075071Y1548473D01*
X2075324Y1548317D01*
X2075578Y1548142D01*
X2075832Y1547947D01*
X2076066Y1547732D01*
X2076085Y1547713D01*
X2076124Y1547673D01*
X2076183Y1547596D01*
X2076261Y1547498D01*
X2076358Y1547381D01*
X2076456Y1547225D01*
X2076573Y1547030D01*
X2076690Y1546835D01*
X2076788Y1546601D01*
X2076904Y1546328D01*
X2077002Y1546054D01*
X2077100Y1545742D01*
X2077178Y1545411D01*
X2077236Y1545040D01*
X2077275Y1544669D01*
X2077295Y1544260D01*
Y1544240D01*
Y1544182D01*
Y1544084D01*
Y1543967D01*
X2077275Y1543811D01*
Y1543636D01*
X2077256Y1543440D01*
X2077236Y1543226D01*
X2077158Y1542777D01*
X2077061Y1542309D01*
X2076924Y1541841D01*
X2076749Y1541431D01*
Y1541412D01*
X2076729Y1541392D01*
X2076651Y1541256D01*
X2076514Y1541080D01*
X2076339Y1540846D01*
X2076124Y1540592D01*
X2075851Y1540339D01*
X2075539Y1540085D01*
X2075168Y1539851D01*
X2075149D01*
X2075129Y1539832D01*
X2075071Y1539793D01*
X2074993Y1539773D01*
X2074778Y1539676D01*
X2074505Y1539578D01*
X2074173Y1539461D01*
X2073803Y1539383D01*
X2073393Y1539305D01*
X2072945Y1539285D01*
X2072749D01*
X2072613Y1539305D01*
X2072457Y1539324D01*
X2072262Y1539344D01*
X2072047Y1539383D01*
X2071813Y1539442D01*
X2071326Y1539597D01*
X2071052Y1539695D01*
X2070799Y1539812D01*
X2070526Y1539949D01*
X2070272Y1540124D01*
X2070018Y1540319D01*
X2069784Y1540534D01*
X2069765Y1540553D01*
X2069726Y1540592D01*
X2069667Y1540670D01*
X2069609Y1540768D01*
X2069511Y1540905D01*
X2069414Y1541061D01*
X2069297Y1541236D01*
X2069199Y1541451D01*
X2069082Y1541704D01*
X2068965Y1541958D01*
X2068868Y1542270D01*
X2068790Y1542582D01*
X2068712Y1542933D01*
X2068653Y1543304D01*
X2068614Y1543714D01*
X2068595Y1544143D01*
Y1544182D01*
Y1544260D01*
X2068614Y1544396D01*
Y1544572D01*
X2068634Y1544786D01*
X2068672Y1545020D01*
X2068712Y1545294D01*
X2068770Y1545586D01*
X2068848Y1545898D01*
X2068946Y1546210D01*
X2069063Y1546523D01*
X2069199Y1546835D01*
X2069355Y1547147D01*
X2069550Y1547439D01*
X2069765Y1547713D01*
X2070018Y1547966D01*
X2070038Y1547986D01*
X2070077Y1548005D01*
X2070135Y1548064D01*
X2070233Y1548122D01*
X2070350Y1548200D01*
X2070487Y1548298D01*
X2070643Y1548395D01*
X2070838Y1548493D01*
X2071033Y1548571D01*
X2071247Y1548668D01*
X2071755Y1548844D01*
X2072320Y1548961D01*
X2072632Y1548981D01*
X2072945Y1549000D01*
X2073120D01*
X2073257Y1548981D01*
D02*
G37*
G36*
X1666619Y1539500D02*
X1665215D01*
Y1540846D01*
X1665195Y1540827D01*
X1665156Y1540788D01*
X1665098Y1540709D01*
X1665020Y1540612D01*
X1664902Y1540475D01*
X1664766Y1540358D01*
X1664610Y1540202D01*
X1664434Y1540066D01*
X1664239Y1539929D01*
X1664025Y1539773D01*
X1663771Y1539656D01*
X1663517Y1539539D01*
X1663225Y1539422D01*
X1662932Y1539344D01*
X1662601Y1539305D01*
X1662269Y1539285D01*
X1662133D01*
X1661976Y1539305D01*
X1661762Y1539324D01*
X1661528Y1539363D01*
X1661274Y1539422D01*
X1661001Y1539500D01*
X1660728Y1539597D01*
X1660689Y1539617D01*
X1660611Y1539656D01*
X1660494Y1539715D01*
X1660338Y1539812D01*
X1660162Y1539929D01*
X1659987Y1540066D01*
X1659831Y1540202D01*
X1659675Y1540378D01*
X1659655Y1540397D01*
X1659616Y1540456D01*
X1659557Y1540573D01*
X1659499Y1540709D01*
X1659402Y1540885D01*
X1659323Y1541080D01*
X1659245Y1541295D01*
X1659187Y1541548D01*
Y1541568D01*
X1659167Y1541646D01*
Y1541743D01*
X1659148Y1541899D01*
X1659128Y1542114D01*
Y1542368D01*
X1659109Y1542660D01*
Y1543011D01*
Y1548785D01*
X1660689D01*
Y1543616D01*
Y1543596D01*
Y1543557D01*
Y1543499D01*
Y1543421D01*
Y1543206D01*
X1660708Y1542953D01*
Y1542680D01*
X1660728Y1542407D01*
X1660748Y1542153D01*
X1660767Y1541958D01*
Y1541938D01*
X1660806Y1541860D01*
X1660845Y1541743D01*
X1660903Y1541607D01*
X1660981Y1541451D01*
X1661099Y1541275D01*
X1661235Y1541119D01*
X1661391Y1540983D01*
X1661411Y1540963D01*
X1661489Y1540924D01*
X1661586Y1540865D01*
X1661723Y1540807D01*
X1661898Y1540748D01*
X1662093Y1540690D01*
X1662328Y1540651D01*
X1662581Y1540631D01*
X1662698D01*
X1662835Y1540651D01*
X1663010Y1540670D01*
X1663205Y1540709D01*
X1663420Y1540788D01*
X1663654Y1540865D01*
X1663888Y1540983D01*
X1663908Y1541002D01*
X1663986Y1541061D01*
X1664103Y1541139D01*
X1664239Y1541256D01*
X1664376Y1541392D01*
X1664532Y1541568D01*
X1664649Y1541763D01*
X1664766Y1541977D01*
X1664785Y1542016D01*
X1664805Y1542095D01*
X1664844Y1542231D01*
X1664902Y1542446D01*
X1664961Y1542699D01*
X1665000Y1543011D01*
X1665020Y1543382D01*
X1665039Y1543792D01*
Y1548785D01*
X1666619D01*
Y1539500D01*
D02*
G37*
G36*
X1642606Y1552297D02*
X1642762D01*
X1643152Y1552277D01*
X1643562Y1552238D01*
X1643991Y1552160D01*
X1644400Y1552082D01*
X1644595Y1552024D01*
X1644771Y1551965D01*
X1644791D01*
X1644810Y1551946D01*
X1644927Y1551907D01*
X1645083Y1551809D01*
X1645278Y1551673D01*
X1645512Y1551516D01*
X1645746Y1551302D01*
X1645981Y1551048D01*
X1646195Y1550736D01*
X1646215Y1550697D01*
X1646273Y1550580D01*
X1646371Y1550405D01*
X1646468Y1550170D01*
X1646566Y1549878D01*
X1646663Y1549546D01*
X1646722Y1549195D01*
X1646741Y1548805D01*
Y1548785D01*
Y1548746D01*
Y1548668D01*
X1646722Y1548571D01*
Y1548454D01*
X1646702Y1548317D01*
X1646624Y1548005D01*
X1646527Y1547634D01*
X1646371Y1547264D01*
X1646137Y1546874D01*
X1646000Y1546679D01*
X1645844Y1546503D01*
X1645805Y1546464D01*
X1645746Y1546425D01*
X1645688Y1546347D01*
X1645590Y1546288D01*
X1645473Y1546191D01*
X1645337Y1546113D01*
X1645181Y1546015D01*
X1645005Y1545918D01*
X1644791Y1545820D01*
X1644576Y1545723D01*
X1644322Y1545625D01*
X1644069Y1545528D01*
X1643776Y1545450D01*
X1643464Y1545391D01*
X1643132Y1545333D01*
X1643172Y1545313D01*
X1643250Y1545274D01*
X1643367Y1545216D01*
X1643503Y1545138D01*
X1643835Y1544923D01*
X1644010Y1544806D01*
X1644147Y1544689D01*
X1644186Y1544650D01*
X1644283Y1544572D01*
X1644420Y1544416D01*
X1644595Y1544221D01*
X1644810Y1543967D01*
X1645044Y1543674D01*
X1645298Y1543343D01*
X1645551Y1542972D01*
X1647775Y1539500D01*
X1645649D01*
X1643952Y1542153D01*
Y1542173D01*
X1643913Y1542211D01*
X1643874Y1542270D01*
X1643835Y1542348D01*
X1643698Y1542543D01*
X1643523Y1542797D01*
X1643327Y1543089D01*
X1643113Y1543382D01*
X1642918Y1543655D01*
X1642723Y1543909D01*
X1642703Y1543928D01*
X1642645Y1544006D01*
X1642547Y1544123D01*
X1642450Y1544260D01*
X1642157Y1544533D01*
X1642021Y1544669D01*
X1641864Y1544767D01*
X1641845Y1544786D01*
X1641806Y1544806D01*
X1641728Y1544845D01*
X1641630Y1544904D01*
X1641396Y1545020D01*
X1641104Y1545118D01*
X1641084D01*
X1641045Y1545138D01*
X1640967D01*
X1640870Y1545157D01*
X1640733Y1545177D01*
X1640577D01*
X1640382Y1545196D01*
X1638197D01*
Y1539500D01*
X1636500D01*
Y1552316D01*
X1642450D01*
X1642606Y1552297D01*
D02*
G37*
G36*
X1670930Y1548785D02*
X1672510D01*
Y1547556D01*
X1670930D01*
Y1542114D01*
Y1542095D01*
Y1542016D01*
Y1541899D01*
X1670950Y1541763D01*
X1670969Y1541470D01*
X1670989Y1541353D01*
X1671008Y1541256D01*
X1671028Y1541217D01*
X1671067Y1541139D01*
X1671145Y1541041D01*
X1671262Y1540943D01*
X1671301Y1540924D01*
X1671398Y1540905D01*
X1671574Y1540865D01*
X1671808Y1540846D01*
X1672003D01*
X1672101Y1540865D01*
X1672218D01*
X1672510Y1540905D01*
X1672725Y1539520D01*
X1672686D01*
X1672608Y1539500D01*
X1672491Y1539480D01*
X1672315Y1539461D01*
X1672140Y1539422D01*
X1671945Y1539402D01*
X1671535Y1539383D01*
X1671398D01*
X1671242Y1539402D01*
X1671047Y1539422D01*
X1670833Y1539442D01*
X1670599Y1539500D01*
X1670384Y1539559D01*
X1670189Y1539637D01*
X1670169Y1539656D01*
X1670111Y1539695D01*
X1670033Y1539754D01*
X1669935Y1539832D01*
X1669818Y1539929D01*
X1669721Y1540046D01*
X1669604Y1540183D01*
X1669526Y1540339D01*
Y1540358D01*
X1669506Y1540436D01*
X1669467Y1540553D01*
X1669448Y1540748D01*
X1669409Y1541002D01*
X1669389Y1541139D01*
X1669370Y1541314D01*
Y1541509D01*
X1669350Y1541724D01*
Y1541958D01*
Y1542211D01*
Y1547556D01*
X1668180D01*
Y1548785D01*
X1669350D01*
Y1551068D01*
X1670930Y1552024D01*
Y1548785D01*
D02*
G37*
G36*
X1678167Y1548981D02*
X1678323Y1548961D01*
X1678519Y1548941D01*
X1678714Y1548902D01*
X1678948Y1548844D01*
X1679416Y1548688D01*
X1679669Y1548590D01*
X1679923Y1548454D01*
X1680177Y1548317D01*
X1680430Y1548142D01*
X1680664Y1547947D01*
X1680898Y1547713D01*
X1680918Y1547693D01*
X1680957Y1547654D01*
X1681015Y1547576D01*
X1681093Y1547478D01*
X1681172Y1547342D01*
X1681269Y1547186D01*
X1681386Y1547010D01*
X1681503Y1546796D01*
X1681601Y1546542D01*
X1681718Y1546288D01*
X1681815Y1545996D01*
X1681913Y1545664D01*
X1681971Y1545333D01*
X1682030Y1544962D01*
X1682069Y1544572D01*
X1682088Y1544143D01*
Y1544123D01*
Y1544045D01*
Y1543909D01*
X1682069Y1543733D01*
X1675163D01*
Y1543714D01*
Y1543674D01*
X1675183Y1543577D01*
Y1543479D01*
X1675202Y1543343D01*
X1675222Y1543206D01*
X1675300Y1542855D01*
X1675417Y1542485D01*
X1675553Y1542095D01*
X1675768Y1541704D01*
X1676022Y1541373D01*
X1676061Y1541334D01*
X1676158Y1541256D01*
X1676334Y1541119D01*
X1676548Y1540983D01*
X1676841Y1540827D01*
X1677173Y1540690D01*
X1677543Y1540612D01*
X1677953Y1540573D01*
X1678109D01*
X1678265Y1540592D01*
X1678460Y1540631D01*
X1678694Y1540690D01*
X1678948Y1540768D01*
X1679201Y1540865D01*
X1679435Y1541022D01*
X1679455Y1541041D01*
X1679533Y1541119D01*
X1679650Y1541217D01*
X1679787Y1541392D01*
X1679942Y1541587D01*
X1680099Y1541841D01*
X1680255Y1542153D01*
X1680411Y1542504D01*
X1682030Y1542289D01*
Y1542270D01*
X1682010Y1542231D01*
X1681991Y1542153D01*
X1681952Y1542055D01*
X1681913Y1541938D01*
X1681854Y1541802D01*
X1681698Y1541470D01*
X1681503Y1541119D01*
X1681269Y1540748D01*
X1680957Y1540378D01*
X1680606Y1540066D01*
X1680586D01*
X1680567Y1540027D01*
X1680508Y1539988D01*
X1680411Y1539949D01*
X1680313Y1539890D01*
X1680196Y1539812D01*
X1680060Y1539754D01*
X1679884Y1539676D01*
X1679513Y1539539D01*
X1679045Y1539402D01*
X1678538Y1539324D01*
X1677953Y1539285D01*
X1677758D01*
X1677621Y1539305D01*
X1677446Y1539324D01*
X1677251Y1539344D01*
X1677036Y1539383D01*
X1676782Y1539442D01*
X1676275Y1539597D01*
X1676002Y1539695D01*
X1675748Y1539812D01*
X1675475Y1539949D01*
X1675222Y1540124D01*
X1674968Y1540319D01*
X1674734Y1540534D01*
X1674715Y1540553D01*
X1674676Y1540592D01*
X1674617Y1540670D01*
X1674559Y1540768D01*
X1674461Y1540885D01*
X1674364Y1541041D01*
X1674246Y1541236D01*
X1674149Y1541451D01*
X1674032Y1541685D01*
X1673915Y1541938D01*
X1673817Y1542231D01*
X1673739Y1542543D01*
X1673661Y1542875D01*
X1673603Y1543245D01*
X1673564Y1543636D01*
X1673544Y1544045D01*
Y1544065D01*
Y1544143D01*
Y1544279D01*
X1673564Y1544435D01*
X1673583Y1544630D01*
X1673603Y1544865D01*
X1673642Y1545118D01*
X1673700Y1545391D01*
X1673837Y1545976D01*
X1673934Y1546269D01*
X1674051Y1546581D01*
X1674188Y1546874D01*
X1674344Y1547166D01*
X1674520Y1547439D01*
X1674734Y1547693D01*
X1674754Y1547713D01*
X1674793Y1547751D01*
X1674851Y1547810D01*
X1674949Y1547908D01*
X1675066Y1548005D01*
X1675222Y1548103D01*
X1675378Y1548220D01*
X1675573Y1548356D01*
X1675788Y1548473D01*
X1676022Y1548590D01*
X1676275Y1548688D01*
X1676568Y1548805D01*
X1676860Y1548883D01*
X1677173Y1548941D01*
X1677504Y1548981D01*
X1677855Y1549000D01*
X1678031D01*
X1678167Y1548981D01*
D02*
G37*
G36*
X1653257D02*
X1653432Y1548961D01*
X1653608Y1548941D01*
X1653822Y1548902D01*
X1654057Y1548844D01*
X1654544Y1548688D01*
X1654798Y1548590D01*
X1655071Y1548473D01*
X1655325Y1548317D01*
X1655578Y1548142D01*
X1655832Y1547947D01*
X1656066Y1547732D01*
X1656085Y1547713D01*
X1656124Y1547673D01*
X1656183Y1547596D01*
X1656261Y1547498D01*
X1656358Y1547381D01*
X1656456Y1547225D01*
X1656573Y1547030D01*
X1656690Y1546835D01*
X1656788Y1546601D01*
X1656904Y1546328D01*
X1657002Y1546054D01*
X1657100Y1545742D01*
X1657178Y1545411D01*
X1657236Y1545040D01*
X1657275Y1544669D01*
X1657295Y1544260D01*
Y1544240D01*
Y1544182D01*
Y1544084D01*
Y1543967D01*
X1657275Y1543811D01*
Y1543636D01*
X1657256Y1543440D01*
X1657236Y1543226D01*
X1657158Y1542777D01*
X1657061Y1542309D01*
X1656924Y1541841D01*
X1656749Y1541431D01*
Y1541412D01*
X1656729Y1541392D01*
X1656651Y1541256D01*
X1656514Y1541080D01*
X1656339Y1540846D01*
X1656124Y1540592D01*
X1655851Y1540339D01*
X1655539Y1540085D01*
X1655168Y1539851D01*
X1655149D01*
X1655129Y1539832D01*
X1655071Y1539793D01*
X1654993Y1539773D01*
X1654778Y1539676D01*
X1654505Y1539578D01*
X1654173Y1539461D01*
X1653803Y1539383D01*
X1653393Y1539305D01*
X1652945Y1539285D01*
X1652749D01*
X1652613Y1539305D01*
X1652457Y1539324D01*
X1652262Y1539344D01*
X1652047Y1539383D01*
X1651813Y1539442D01*
X1651326Y1539597D01*
X1651052Y1539695D01*
X1650799Y1539812D01*
X1650526Y1539949D01*
X1650272Y1540124D01*
X1650018Y1540319D01*
X1649784Y1540534D01*
X1649765Y1540553D01*
X1649726Y1540592D01*
X1649667Y1540670D01*
X1649609Y1540768D01*
X1649511Y1540905D01*
X1649414Y1541061D01*
X1649297Y1541236D01*
X1649199Y1541451D01*
X1649082Y1541704D01*
X1648965Y1541958D01*
X1648868Y1542270D01*
X1648790Y1542582D01*
X1648712Y1542933D01*
X1648653Y1543304D01*
X1648614Y1543714D01*
X1648595Y1544143D01*
Y1544182D01*
Y1544260D01*
X1648614Y1544396D01*
Y1544572D01*
X1648634Y1544786D01*
X1648672Y1545020D01*
X1648712Y1545294D01*
X1648770Y1545586D01*
X1648848Y1545898D01*
X1648946Y1546210D01*
X1649063Y1546523D01*
X1649199Y1546835D01*
X1649355Y1547147D01*
X1649550Y1547439D01*
X1649765Y1547713D01*
X1650018Y1547966D01*
X1650038Y1547986D01*
X1650077Y1548005D01*
X1650135Y1548064D01*
X1650233Y1548122D01*
X1650350Y1548200D01*
X1650487Y1548298D01*
X1650643Y1548395D01*
X1650838Y1548493D01*
X1651033Y1548571D01*
X1651247Y1548668D01*
X1651755Y1548844D01*
X1652320Y1548961D01*
X1652632Y1548981D01*
X1652945Y1549000D01*
X1653120D01*
X1653257Y1548981D01*
D02*
G37*
G36*
X1668119Y1940000D02*
X1666715D01*
Y1941346D01*
X1666695Y1941326D01*
X1666656Y1941288D01*
X1666598Y1941210D01*
X1666519Y1941112D01*
X1666402Y1940975D01*
X1666266Y1940858D01*
X1666110Y1940702D01*
X1665934Y1940566D01*
X1665739Y1940429D01*
X1665525Y1940273D01*
X1665271Y1940156D01*
X1665018Y1940039D01*
X1664725Y1939922D01*
X1664432Y1939844D01*
X1664101Y1939805D01*
X1663769Y1939785D01*
X1663633D01*
X1663476Y1939805D01*
X1663262Y1939824D01*
X1663028Y1939863D01*
X1662774Y1939922D01*
X1662501Y1940000D01*
X1662228Y1940098D01*
X1662189Y1940117D01*
X1662111Y1940156D01*
X1661994Y1940215D01*
X1661838Y1940312D01*
X1661662Y1940429D01*
X1661487Y1940566D01*
X1661331Y1940702D01*
X1661175Y1940878D01*
X1661155Y1940897D01*
X1661116Y1940956D01*
X1661057Y1941073D01*
X1660999Y1941210D01*
X1660901Y1941385D01*
X1660823Y1941580D01*
X1660745Y1941795D01*
X1660687Y1942048D01*
Y1942068D01*
X1660667Y1942146D01*
Y1942243D01*
X1660648Y1942399D01*
X1660628Y1942614D01*
Y1942868D01*
X1660609Y1943160D01*
Y1943511D01*
Y1949285D01*
X1662189D01*
Y1944116D01*
Y1944097D01*
Y1944057D01*
Y1943999D01*
Y1943921D01*
Y1943706D01*
X1662208Y1943453D01*
Y1943180D01*
X1662228Y1942907D01*
X1662247Y1942653D01*
X1662267Y1942458D01*
Y1942438D01*
X1662306Y1942360D01*
X1662345Y1942243D01*
X1662404Y1942107D01*
X1662482Y1941951D01*
X1662599Y1941775D01*
X1662735Y1941619D01*
X1662891Y1941483D01*
X1662911Y1941463D01*
X1662989Y1941424D01*
X1663086Y1941366D01*
X1663223Y1941307D01*
X1663398Y1941248D01*
X1663593Y1941190D01*
X1663828Y1941151D01*
X1664081Y1941131D01*
X1664198D01*
X1664335Y1941151D01*
X1664510Y1941170D01*
X1664705Y1941210D01*
X1664920Y1941288D01*
X1665154Y1941366D01*
X1665388Y1941483D01*
X1665408Y1941502D01*
X1665486Y1941561D01*
X1665603Y1941639D01*
X1665739Y1941756D01*
X1665876Y1941892D01*
X1666032Y1942068D01*
X1666149Y1942263D01*
X1666266Y1942477D01*
X1666285Y1942516D01*
X1666305Y1942594D01*
X1666344Y1942731D01*
X1666402Y1942946D01*
X1666461Y1943199D01*
X1666500Y1943511D01*
X1666519Y1943882D01*
X1666539Y1944292D01*
Y1949285D01*
X1668119D01*
Y1940000D01*
D02*
G37*
G36*
X1644106Y1952797D02*
X1644262D01*
X1644652Y1952777D01*
X1645062Y1952738D01*
X1645491Y1952660D01*
X1645900Y1952582D01*
X1646095Y1952524D01*
X1646271Y1952465D01*
X1646291D01*
X1646310Y1952446D01*
X1646427Y1952407D01*
X1646583Y1952309D01*
X1646778Y1952173D01*
X1647012Y1952016D01*
X1647246Y1951802D01*
X1647480Y1951548D01*
X1647695Y1951236D01*
X1647715Y1951197D01*
X1647773Y1951080D01*
X1647871Y1950905D01*
X1647968Y1950670D01*
X1648066Y1950378D01*
X1648163Y1950046D01*
X1648222Y1949695D01*
X1648241Y1949305D01*
Y1949285D01*
Y1949246D01*
Y1949168D01*
X1648222Y1949071D01*
Y1948954D01*
X1648202Y1948817D01*
X1648124Y1948505D01*
X1648027Y1948134D01*
X1647871Y1947764D01*
X1647637Y1947374D01*
X1647500Y1947179D01*
X1647344Y1947003D01*
X1647305Y1946964D01*
X1647246Y1946925D01*
X1647188Y1946847D01*
X1647090Y1946788D01*
X1646973Y1946691D01*
X1646837Y1946613D01*
X1646681Y1946515D01*
X1646505Y1946418D01*
X1646291Y1946320D01*
X1646076Y1946223D01*
X1645822Y1946125D01*
X1645569Y1946028D01*
X1645276Y1945950D01*
X1644964Y1945891D01*
X1644632Y1945833D01*
X1644671Y1945813D01*
X1644749Y1945774D01*
X1644866Y1945716D01*
X1645003Y1945638D01*
X1645335Y1945423D01*
X1645510Y1945306D01*
X1645647Y1945189D01*
X1645686Y1945150D01*
X1645783Y1945072D01*
X1645920Y1944916D01*
X1646095Y1944721D01*
X1646310Y1944467D01*
X1646544Y1944174D01*
X1646798Y1943843D01*
X1647051Y1943472D01*
X1649275Y1940000D01*
X1647149D01*
X1645452Y1942653D01*
Y1942672D01*
X1645413Y1942711D01*
X1645374Y1942770D01*
X1645335Y1942848D01*
X1645198Y1943043D01*
X1645023Y1943297D01*
X1644828Y1943589D01*
X1644613Y1943882D01*
X1644418Y1944155D01*
X1644223Y1944409D01*
X1644203Y1944428D01*
X1644145Y1944506D01*
X1644047Y1944623D01*
X1643950Y1944760D01*
X1643657Y1945033D01*
X1643521Y1945169D01*
X1643365Y1945267D01*
X1643345Y1945287D01*
X1643306Y1945306D01*
X1643228Y1945345D01*
X1643130Y1945403D01*
X1642896Y1945520D01*
X1642604Y1945618D01*
X1642584D01*
X1642545Y1945638D01*
X1642467D01*
X1642370Y1945657D01*
X1642233Y1945677D01*
X1642077D01*
X1641882Y1945696D01*
X1639697D01*
Y1940000D01*
X1638000D01*
Y1952816D01*
X1643950D01*
X1644106Y1952797D01*
D02*
G37*
G36*
X1672430Y1949285D02*
X1674010D01*
Y1948056D01*
X1672430D01*
Y1942614D01*
Y1942594D01*
Y1942516D01*
Y1942399D01*
X1672450Y1942263D01*
X1672469Y1941970D01*
X1672489Y1941853D01*
X1672508Y1941756D01*
X1672528Y1941717D01*
X1672567Y1941639D01*
X1672645Y1941541D01*
X1672762Y1941443D01*
X1672801Y1941424D01*
X1672898Y1941405D01*
X1673074Y1941366D01*
X1673308Y1941346D01*
X1673503D01*
X1673601Y1941366D01*
X1673718D01*
X1674010Y1941405D01*
X1674225Y1940020D01*
X1674186D01*
X1674108Y1940000D01*
X1673991Y1939980D01*
X1673815Y1939961D01*
X1673640Y1939922D01*
X1673445Y1939902D01*
X1673035Y1939883D01*
X1672898D01*
X1672742Y1939902D01*
X1672547Y1939922D01*
X1672333Y1939942D01*
X1672099Y1940000D01*
X1671884Y1940058D01*
X1671689Y1940137D01*
X1671669Y1940156D01*
X1671611Y1940195D01*
X1671533Y1940254D01*
X1671435Y1940332D01*
X1671318Y1940429D01*
X1671221Y1940546D01*
X1671104Y1940683D01*
X1671026Y1940839D01*
Y1940858D01*
X1671006Y1940936D01*
X1670967Y1941053D01*
X1670948Y1941248D01*
X1670909Y1941502D01*
X1670889Y1941639D01*
X1670870Y1941814D01*
Y1942009D01*
X1670850Y1942224D01*
Y1942458D01*
Y1942711D01*
Y1948056D01*
X1669680D01*
Y1949285D01*
X1670850D01*
Y1951568D01*
X1672430Y1952524D01*
Y1949285D01*
D02*
G37*
G36*
X1679667Y1949480D02*
X1679823Y1949461D01*
X1680018Y1949442D01*
X1680214Y1949402D01*
X1680448Y1949344D01*
X1680916Y1949188D01*
X1681169Y1949090D01*
X1681423Y1948954D01*
X1681677Y1948817D01*
X1681930Y1948642D01*
X1682164Y1948447D01*
X1682398Y1948212D01*
X1682418Y1948193D01*
X1682457Y1948154D01*
X1682515Y1948076D01*
X1682594Y1947979D01*
X1682672Y1947842D01*
X1682769Y1947686D01*
X1682886Y1947510D01*
X1683003Y1947296D01*
X1683101Y1947042D01*
X1683218Y1946788D01*
X1683315Y1946496D01*
X1683413Y1946164D01*
X1683471Y1945833D01*
X1683530Y1945462D01*
X1683569Y1945072D01*
X1683588Y1944643D01*
Y1944623D01*
Y1944545D01*
Y1944409D01*
X1683569Y1944233D01*
X1676663D01*
Y1944214D01*
Y1944174D01*
X1676683Y1944077D01*
Y1943979D01*
X1676702Y1943843D01*
X1676722Y1943706D01*
X1676800Y1943355D01*
X1676917Y1942985D01*
X1677053Y1942594D01*
X1677268Y1942204D01*
X1677522Y1941873D01*
X1677561Y1941834D01*
X1677658Y1941756D01*
X1677834Y1941619D01*
X1678048Y1941483D01*
X1678341Y1941326D01*
X1678672Y1941190D01*
X1679043Y1941112D01*
X1679453Y1941073D01*
X1679609D01*
X1679765Y1941092D01*
X1679960Y1941131D01*
X1680194Y1941190D01*
X1680448Y1941268D01*
X1680701Y1941366D01*
X1680935Y1941522D01*
X1680955Y1941541D01*
X1681033Y1941619D01*
X1681150Y1941717D01*
X1681286Y1941892D01*
X1681443Y1942087D01*
X1681599Y1942341D01*
X1681755Y1942653D01*
X1681911Y1943004D01*
X1683530Y1942789D01*
Y1942770D01*
X1683510Y1942731D01*
X1683491Y1942653D01*
X1683452Y1942555D01*
X1683413Y1942438D01*
X1683354Y1942302D01*
X1683198Y1941970D01*
X1683003Y1941619D01*
X1682769Y1941248D01*
X1682457Y1940878D01*
X1682106Y1940566D01*
X1682086D01*
X1682067Y1940527D01*
X1682008Y1940488D01*
X1681911Y1940449D01*
X1681813Y1940390D01*
X1681696Y1940312D01*
X1681560Y1940254D01*
X1681384Y1940176D01*
X1681013Y1940039D01*
X1680545Y1939902D01*
X1680038Y1939824D01*
X1679453Y1939785D01*
X1679258D01*
X1679121Y1939805D01*
X1678946Y1939824D01*
X1678750Y1939844D01*
X1678536Y1939883D01*
X1678282Y1939942D01*
X1677775Y1940098D01*
X1677502Y1940195D01*
X1677249Y1940312D01*
X1676975Y1940449D01*
X1676722Y1940624D01*
X1676468Y1940819D01*
X1676234Y1941034D01*
X1676215Y1941053D01*
X1676176Y1941092D01*
X1676117Y1941170D01*
X1676059Y1941268D01*
X1675961Y1941385D01*
X1675863Y1941541D01*
X1675746Y1941736D01*
X1675649Y1941951D01*
X1675532Y1942185D01*
X1675415Y1942438D01*
X1675317Y1942731D01*
X1675239Y1943043D01*
X1675161Y1943375D01*
X1675103Y1943745D01*
X1675064Y1944135D01*
X1675044Y1944545D01*
Y1944565D01*
Y1944643D01*
Y1944779D01*
X1675064Y1944935D01*
X1675083Y1945130D01*
X1675103Y1945365D01*
X1675142Y1945618D01*
X1675200Y1945891D01*
X1675337Y1946476D01*
X1675434Y1946769D01*
X1675551Y1947081D01*
X1675688Y1947374D01*
X1675844Y1947666D01*
X1676019Y1947939D01*
X1676234Y1948193D01*
X1676254Y1948212D01*
X1676293Y1948252D01*
X1676351Y1948310D01*
X1676449Y1948408D01*
X1676566Y1948505D01*
X1676722Y1948603D01*
X1676878Y1948720D01*
X1677073Y1948856D01*
X1677287Y1948973D01*
X1677522Y1949090D01*
X1677775Y1949188D01*
X1678068Y1949305D01*
X1678360Y1949383D01*
X1678672Y1949442D01*
X1679004Y1949480D01*
X1679355Y1949500D01*
X1679531D01*
X1679667Y1949480D01*
D02*
G37*
G36*
X1654757D02*
X1654932Y1949461D01*
X1655108Y1949442D01*
X1655322Y1949402D01*
X1655556Y1949344D01*
X1656044Y1949188D01*
X1656298Y1949090D01*
X1656571Y1948973D01*
X1656824Y1948817D01*
X1657078Y1948642D01*
X1657332Y1948447D01*
X1657566Y1948232D01*
X1657585Y1948212D01*
X1657624Y1948174D01*
X1657683Y1948096D01*
X1657761Y1947998D01*
X1657858Y1947881D01*
X1657956Y1947725D01*
X1658073Y1947530D01*
X1658190Y1947335D01*
X1658288Y1947101D01*
X1658405Y1946828D01*
X1658502Y1946554D01*
X1658600Y1946242D01*
X1658678Y1945911D01*
X1658736Y1945540D01*
X1658775Y1945169D01*
X1658795Y1944760D01*
Y1944740D01*
Y1944682D01*
Y1944584D01*
Y1944467D01*
X1658775Y1944311D01*
Y1944135D01*
X1658756Y1943940D01*
X1658736Y1943726D01*
X1658658Y1943277D01*
X1658561Y1942809D01*
X1658424Y1942341D01*
X1658248Y1941931D01*
Y1941912D01*
X1658229Y1941892D01*
X1658151Y1941756D01*
X1658014Y1941580D01*
X1657839Y1941346D01*
X1657624Y1941092D01*
X1657351Y1940839D01*
X1657039Y1940585D01*
X1656668Y1940351D01*
X1656649D01*
X1656629Y1940332D01*
X1656571Y1940293D01*
X1656493Y1940273D01*
X1656278Y1940176D01*
X1656005Y1940078D01*
X1655674Y1939961D01*
X1655303Y1939883D01*
X1654893Y1939805D01*
X1654445Y1939785D01*
X1654250D01*
X1654113Y1939805D01*
X1653957Y1939824D01*
X1653762Y1939844D01*
X1653547Y1939883D01*
X1653313Y1939942D01*
X1652825Y1940098D01*
X1652552Y1940195D01*
X1652299Y1940312D01*
X1652026Y1940449D01*
X1651772Y1940624D01*
X1651519Y1940819D01*
X1651284Y1941034D01*
X1651265Y1941053D01*
X1651226Y1941092D01*
X1651167Y1941170D01*
X1651109Y1941268D01*
X1651011Y1941405D01*
X1650914Y1941561D01*
X1650797Y1941736D01*
X1650699Y1941951D01*
X1650582Y1942204D01*
X1650465Y1942458D01*
X1650368Y1942770D01*
X1650289Y1943082D01*
X1650211Y1943433D01*
X1650153Y1943804D01*
X1650114Y1944214D01*
X1650094Y1944643D01*
Y1944682D01*
Y1944760D01*
X1650114Y1944896D01*
Y1945072D01*
X1650134Y1945287D01*
X1650172Y1945520D01*
X1650211Y1945794D01*
X1650270Y1946086D01*
X1650348Y1946398D01*
X1650446Y1946711D01*
X1650563Y1947023D01*
X1650699Y1947335D01*
X1650855Y1947647D01*
X1651050Y1947939D01*
X1651265Y1948212D01*
X1651519Y1948466D01*
X1651538Y1948486D01*
X1651577Y1948505D01*
X1651635Y1948564D01*
X1651733Y1948622D01*
X1651850Y1948700D01*
X1651987Y1948798D01*
X1652143Y1948895D01*
X1652338Y1948993D01*
X1652533Y1949071D01*
X1652747Y1949168D01*
X1653255Y1949344D01*
X1653820Y1949461D01*
X1654133Y1949480D01*
X1654445Y1949500D01*
X1654620D01*
X1654757Y1949480D01*
D02*
G37*
G36*
X2078619Y1939000D02*
X2077215D01*
Y1940346D01*
X2077195Y1940327D01*
X2077156Y1940287D01*
X2077097Y1940210D01*
X2077020Y1940112D01*
X2076902Y1939975D01*
X2076766Y1939858D01*
X2076610Y1939702D01*
X2076434Y1939566D01*
X2076239Y1939429D01*
X2076025Y1939273D01*
X2075771Y1939156D01*
X2075517Y1939039D01*
X2075225Y1938922D01*
X2074932Y1938844D01*
X2074601Y1938805D01*
X2074269Y1938785D01*
X2074133D01*
X2073976Y1938805D01*
X2073762Y1938824D01*
X2073528Y1938864D01*
X2073274Y1938922D01*
X2073001Y1939000D01*
X2072728Y1939097D01*
X2072689Y1939117D01*
X2072611Y1939156D01*
X2072494Y1939215D01*
X2072338Y1939312D01*
X2072162Y1939429D01*
X2071987Y1939566D01*
X2071831Y1939702D01*
X2071674Y1939878D01*
X2071655Y1939897D01*
X2071616Y1939956D01*
X2071557Y1940073D01*
X2071499Y1940210D01*
X2071401Y1940385D01*
X2071323Y1940580D01*
X2071245Y1940795D01*
X2071187Y1941048D01*
Y1941068D01*
X2071167Y1941146D01*
Y1941243D01*
X2071148Y1941399D01*
X2071128Y1941614D01*
Y1941868D01*
X2071109Y1942160D01*
Y1942511D01*
Y1948285D01*
X2072689D01*
Y1943116D01*
Y1943096D01*
Y1943058D01*
Y1942999D01*
Y1942921D01*
Y1942706D01*
X2072708Y1942453D01*
Y1942180D01*
X2072728Y1941907D01*
X2072747Y1941653D01*
X2072767Y1941458D01*
Y1941438D01*
X2072806Y1941360D01*
X2072845Y1941243D01*
X2072903Y1941107D01*
X2072982Y1940951D01*
X2073099Y1940775D01*
X2073235Y1940619D01*
X2073391Y1940483D01*
X2073411Y1940463D01*
X2073489Y1940424D01*
X2073586Y1940365D01*
X2073723Y1940307D01*
X2073898Y1940249D01*
X2074093Y1940190D01*
X2074328Y1940151D01*
X2074581Y1940131D01*
X2074698D01*
X2074835Y1940151D01*
X2075010Y1940170D01*
X2075205Y1940210D01*
X2075420Y1940287D01*
X2075654Y1940365D01*
X2075888Y1940483D01*
X2075908Y1940502D01*
X2075986Y1940561D01*
X2076103Y1940639D01*
X2076239Y1940756D01*
X2076376Y1940892D01*
X2076532Y1941068D01*
X2076649Y1941263D01*
X2076766Y1941477D01*
X2076785Y1941516D01*
X2076805Y1941595D01*
X2076844Y1941731D01*
X2076902Y1941946D01*
X2076961Y1942199D01*
X2077000Y1942511D01*
X2077020Y1942882D01*
X2077039Y1943292D01*
Y1948285D01*
X2078619D01*
Y1939000D01*
D02*
G37*
G36*
X2054606Y1951797D02*
X2054762D01*
X2055152Y1951777D01*
X2055562Y1951738D01*
X2055991Y1951660D01*
X2056400Y1951582D01*
X2056595Y1951524D01*
X2056771Y1951465D01*
X2056791D01*
X2056810Y1951446D01*
X2056927Y1951407D01*
X2057083Y1951309D01*
X2057278Y1951172D01*
X2057512Y1951016D01*
X2057746Y1950802D01*
X2057980Y1950548D01*
X2058195Y1950236D01*
X2058215Y1950197D01*
X2058273Y1950080D01*
X2058371Y1949904D01*
X2058468Y1949670D01*
X2058566Y1949378D01*
X2058663Y1949046D01*
X2058722Y1948695D01*
X2058741Y1948305D01*
Y1948285D01*
Y1948246D01*
Y1948168D01*
X2058722Y1948071D01*
Y1947954D01*
X2058702Y1947817D01*
X2058624Y1947505D01*
X2058527Y1947135D01*
X2058371Y1946764D01*
X2058136Y1946374D01*
X2058000Y1946179D01*
X2057844Y1946003D01*
X2057805Y1945964D01*
X2057746Y1945925D01*
X2057688Y1945847D01*
X2057590Y1945789D01*
X2057473Y1945691D01*
X2057337Y1945613D01*
X2057181Y1945515D01*
X2057005Y1945418D01*
X2056791Y1945320D01*
X2056576Y1945223D01*
X2056322Y1945125D01*
X2056069Y1945028D01*
X2055776Y1944950D01*
X2055464Y1944891D01*
X2055132Y1944833D01*
X2055172Y1944813D01*
X2055249Y1944774D01*
X2055367Y1944716D01*
X2055503Y1944638D01*
X2055835Y1944423D01*
X2056010Y1944306D01*
X2056147Y1944189D01*
X2056186Y1944150D01*
X2056283Y1944072D01*
X2056420Y1943916D01*
X2056595Y1943721D01*
X2056810Y1943467D01*
X2057044Y1943174D01*
X2057298Y1942843D01*
X2057551Y1942472D01*
X2059775Y1939000D01*
X2057649D01*
X2055952Y1941653D01*
Y1941673D01*
X2055913Y1941711D01*
X2055874Y1941770D01*
X2055835Y1941848D01*
X2055698Y1942043D01*
X2055523Y1942297D01*
X2055327Y1942589D01*
X2055113Y1942882D01*
X2054918Y1943155D01*
X2054723Y1943409D01*
X2054703Y1943428D01*
X2054645Y1943506D01*
X2054547Y1943623D01*
X2054450Y1943760D01*
X2054157Y1944033D01*
X2054021Y1944169D01*
X2053864Y1944267D01*
X2053845Y1944286D01*
X2053806Y1944306D01*
X2053728Y1944345D01*
X2053630Y1944404D01*
X2053396Y1944521D01*
X2053104Y1944618D01*
X2053084D01*
X2053045Y1944638D01*
X2052967D01*
X2052870Y1944657D01*
X2052733Y1944677D01*
X2052577D01*
X2052382Y1944696D01*
X2050197D01*
Y1939000D01*
X2048500D01*
Y1951816D01*
X2054450D01*
X2054606Y1951797D01*
D02*
G37*
G36*
X2082930Y1948285D02*
X2084510D01*
Y1947056D01*
X2082930D01*
Y1941614D01*
Y1941595D01*
Y1941516D01*
Y1941399D01*
X2082950Y1941263D01*
X2082969Y1940970D01*
X2082989Y1940853D01*
X2083008Y1940756D01*
X2083028Y1940717D01*
X2083067Y1940639D01*
X2083145Y1940541D01*
X2083262Y1940444D01*
X2083301Y1940424D01*
X2083398Y1940405D01*
X2083574Y1940365D01*
X2083808Y1940346D01*
X2084003D01*
X2084101Y1940365D01*
X2084218D01*
X2084510Y1940405D01*
X2084725Y1939019D01*
X2084686D01*
X2084608Y1939000D01*
X2084491Y1938981D01*
X2084315Y1938961D01*
X2084140Y1938922D01*
X2083945Y1938902D01*
X2083535Y1938883D01*
X2083398D01*
X2083242Y1938902D01*
X2083047Y1938922D01*
X2082833Y1938941D01*
X2082599Y1939000D01*
X2082384Y1939059D01*
X2082189Y1939137D01*
X2082169Y1939156D01*
X2082111Y1939195D01*
X2082033Y1939254D01*
X2081935Y1939332D01*
X2081818Y1939429D01*
X2081721Y1939546D01*
X2081604Y1939683D01*
X2081526Y1939839D01*
Y1939858D01*
X2081506Y1939936D01*
X2081467Y1940053D01*
X2081448Y1940249D01*
X2081409Y1940502D01*
X2081389Y1940639D01*
X2081370Y1940814D01*
Y1941009D01*
X2081350Y1941224D01*
Y1941458D01*
Y1941711D01*
Y1947056D01*
X2080180D01*
Y1948285D01*
X2081350D01*
Y1950568D01*
X2082930Y1951524D01*
Y1948285D01*
D02*
G37*
G36*
X2090167Y1948481D02*
X2090323Y1948461D01*
X2090518Y1948441D01*
X2090714Y1948403D01*
X2090948Y1948344D01*
X2091416Y1948188D01*
X2091669Y1948090D01*
X2091923Y1947954D01*
X2092177Y1947817D01*
X2092430Y1947642D01*
X2092664Y1947447D01*
X2092898Y1947213D01*
X2092918Y1947193D01*
X2092957Y1947154D01*
X2093015Y1947076D01*
X2093094Y1946978D01*
X2093172Y1946842D01*
X2093269Y1946686D01*
X2093386Y1946510D01*
X2093503Y1946296D01*
X2093601Y1946042D01*
X2093718Y1945789D01*
X2093815Y1945496D01*
X2093913Y1945164D01*
X2093971Y1944833D01*
X2094030Y1944462D01*
X2094069Y1944072D01*
X2094088Y1943643D01*
Y1943623D01*
Y1943545D01*
Y1943409D01*
X2094069Y1943233D01*
X2087163D01*
Y1943214D01*
Y1943174D01*
X2087183Y1943077D01*
Y1942979D01*
X2087202Y1942843D01*
X2087222Y1942706D01*
X2087300Y1942355D01*
X2087417Y1941985D01*
X2087553Y1941595D01*
X2087768Y1941204D01*
X2088022Y1940873D01*
X2088061Y1940834D01*
X2088158Y1940756D01*
X2088334Y1940619D01*
X2088548Y1940483D01*
X2088841Y1940327D01*
X2089173Y1940190D01*
X2089543Y1940112D01*
X2089953Y1940073D01*
X2090109D01*
X2090265Y1940092D01*
X2090460Y1940131D01*
X2090694Y1940190D01*
X2090948Y1940268D01*
X2091201Y1940365D01*
X2091435Y1940522D01*
X2091455Y1940541D01*
X2091533Y1940619D01*
X2091650Y1940717D01*
X2091786Y1940892D01*
X2091942Y1941087D01*
X2092099Y1941341D01*
X2092255Y1941653D01*
X2092411Y1942004D01*
X2094030Y1941790D01*
Y1941770D01*
X2094010Y1941731D01*
X2093991Y1941653D01*
X2093952Y1941555D01*
X2093913Y1941438D01*
X2093854Y1941302D01*
X2093698Y1940970D01*
X2093503Y1940619D01*
X2093269Y1940249D01*
X2092957Y1939878D01*
X2092606Y1939566D01*
X2092586D01*
X2092567Y1939527D01*
X2092508Y1939488D01*
X2092411Y1939449D01*
X2092313Y1939390D01*
X2092196Y1939312D01*
X2092060Y1939254D01*
X2091884Y1939176D01*
X2091513Y1939039D01*
X2091045Y1938902D01*
X2090538Y1938824D01*
X2089953Y1938785D01*
X2089758D01*
X2089621Y1938805D01*
X2089446Y1938824D01*
X2089250Y1938844D01*
X2089036Y1938883D01*
X2088782Y1938941D01*
X2088275Y1939097D01*
X2088002Y1939195D01*
X2087749Y1939312D01*
X2087475Y1939449D01*
X2087222Y1939624D01*
X2086968Y1939819D01*
X2086734Y1940034D01*
X2086715Y1940053D01*
X2086676Y1940092D01*
X2086617Y1940170D01*
X2086559Y1940268D01*
X2086461Y1940385D01*
X2086364Y1940541D01*
X2086246Y1940736D01*
X2086149Y1940951D01*
X2086032Y1941185D01*
X2085915Y1941438D01*
X2085817Y1941731D01*
X2085739Y1942043D01*
X2085661Y1942375D01*
X2085603Y1942745D01*
X2085564Y1943136D01*
X2085544Y1943545D01*
Y1943565D01*
Y1943643D01*
Y1943779D01*
X2085564Y1943935D01*
X2085583Y1944130D01*
X2085603Y1944364D01*
X2085642Y1944618D01*
X2085700Y1944891D01*
X2085837Y1945476D01*
X2085934Y1945769D01*
X2086051Y1946081D01*
X2086188Y1946374D01*
X2086344Y1946666D01*
X2086519Y1946939D01*
X2086734Y1947193D01*
X2086754Y1947213D01*
X2086793Y1947252D01*
X2086851Y1947310D01*
X2086949Y1947408D01*
X2087066Y1947505D01*
X2087222Y1947603D01*
X2087378Y1947720D01*
X2087573Y1947856D01*
X2087787Y1947973D01*
X2088022Y1948090D01*
X2088275Y1948188D01*
X2088568Y1948305D01*
X2088860Y1948383D01*
X2089173Y1948441D01*
X2089504Y1948481D01*
X2089855Y1948500D01*
X2090031D01*
X2090167Y1948481D01*
D02*
G37*
G36*
X2065257D02*
X2065432Y1948461D01*
X2065608Y1948441D01*
X2065822Y1948403D01*
X2066057Y1948344D01*
X2066544Y1948188D01*
X2066798Y1948090D01*
X2067071Y1947973D01*
X2067324Y1947817D01*
X2067578Y1947642D01*
X2067832Y1947447D01*
X2068066Y1947232D01*
X2068085Y1947213D01*
X2068124Y1947173D01*
X2068183Y1947095D01*
X2068261Y1946998D01*
X2068358Y1946881D01*
X2068456Y1946725D01*
X2068573Y1946530D01*
X2068690Y1946335D01*
X2068788Y1946101D01*
X2068905Y1945827D01*
X2069002Y1945554D01*
X2069100Y1945242D01*
X2069178Y1944911D01*
X2069236Y1944540D01*
X2069275Y1944169D01*
X2069295Y1943760D01*
Y1943740D01*
Y1943682D01*
Y1943584D01*
Y1943467D01*
X2069275Y1943311D01*
Y1943136D01*
X2069256Y1942941D01*
X2069236Y1942726D01*
X2069158Y1942277D01*
X2069061Y1941809D01*
X2068924Y1941341D01*
X2068748Y1940931D01*
Y1940912D01*
X2068729Y1940892D01*
X2068651Y1940756D01*
X2068514Y1940580D01*
X2068339Y1940346D01*
X2068124Y1940092D01*
X2067851Y1939839D01*
X2067539Y1939585D01*
X2067168Y1939351D01*
X2067149D01*
X2067129Y1939332D01*
X2067071Y1939293D01*
X2066993Y1939273D01*
X2066778Y1939176D01*
X2066505Y1939078D01*
X2066174Y1938961D01*
X2065803Y1938883D01*
X2065393Y1938805D01*
X2064945Y1938785D01*
X2064749D01*
X2064613Y1938805D01*
X2064457Y1938824D01*
X2064262Y1938844D01*
X2064047Y1938883D01*
X2063813Y1938941D01*
X2063326Y1939097D01*
X2063052Y1939195D01*
X2062799Y1939312D01*
X2062526Y1939449D01*
X2062272Y1939624D01*
X2062018Y1939819D01*
X2061784Y1940034D01*
X2061765Y1940053D01*
X2061726Y1940092D01*
X2061667Y1940170D01*
X2061609Y1940268D01*
X2061511Y1940405D01*
X2061414Y1940561D01*
X2061297Y1940736D01*
X2061199Y1940951D01*
X2061082Y1941204D01*
X2060965Y1941458D01*
X2060868Y1941770D01*
X2060789Y1942082D01*
X2060712Y1942433D01*
X2060653Y1942804D01*
X2060614Y1943214D01*
X2060594Y1943643D01*
Y1943682D01*
Y1943760D01*
X2060614Y1943896D01*
Y1944072D01*
X2060634Y1944286D01*
X2060672Y1944521D01*
X2060712Y1944794D01*
X2060770Y1945086D01*
X2060848Y1945398D01*
X2060946Y1945710D01*
X2061063Y1946023D01*
X2061199Y1946335D01*
X2061355Y1946647D01*
X2061550Y1946939D01*
X2061765Y1947213D01*
X2062018Y1947466D01*
X2062038Y1947486D01*
X2062077Y1947505D01*
X2062135Y1947564D01*
X2062233Y1947622D01*
X2062350Y1947700D01*
X2062487Y1947798D01*
X2062643Y1947895D01*
X2062838Y1947993D01*
X2063033Y1948071D01*
X2063247Y1948168D01*
X2063755Y1948344D01*
X2064320Y1948461D01*
X2064632Y1948481D01*
X2064945Y1948500D01*
X2065120D01*
X2065257Y1948481D01*
D02*
G37*
G36*
X2545316Y1878050D02*
X2545297Y1877894D01*
Y1877738D01*
X2545277Y1877348D01*
X2545238Y1876938D01*
X2545160Y1876509D01*
X2545082Y1876100D01*
X2545024Y1875905D01*
X2544965Y1875729D01*
Y1875709D01*
X2544946Y1875690D01*
X2544907Y1875573D01*
X2544809Y1875417D01*
X2544673Y1875222D01*
X2544516Y1874988D01*
X2544302Y1874754D01*
X2544048Y1874520D01*
X2543736Y1874305D01*
X2543697Y1874285D01*
X2543580Y1874227D01*
X2543405Y1874129D01*
X2543170Y1874032D01*
X2542878Y1873934D01*
X2542546Y1873837D01*
X2542195Y1873778D01*
X2541805Y1873759D01*
X2541785D01*
X2541746D01*
X2541668D01*
X2541571Y1873778D01*
X2541454D01*
X2541317Y1873798D01*
X2541005Y1873876D01*
X2540634Y1873973D01*
X2540264Y1874129D01*
X2539874Y1874363D01*
X2539679Y1874500D01*
X2539503Y1874656D01*
X2539464Y1874695D01*
X2539425Y1874754D01*
X2539347Y1874812D01*
X2539288Y1874910D01*
X2539191Y1875027D01*
X2539113Y1875163D01*
X2539015Y1875319D01*
X2538918Y1875495D01*
X2538820Y1875709D01*
X2538723Y1875924D01*
X2538625Y1876178D01*
X2538528Y1876431D01*
X2538450Y1876724D01*
X2538391Y1877036D01*
X2538333Y1877368D01*
X2538313Y1877328D01*
X2538274Y1877251D01*
X2538216Y1877133D01*
X2538138Y1876997D01*
X2537923Y1876665D01*
X2537806Y1876490D01*
X2537689Y1876353D01*
X2537650Y1876314D01*
X2537572Y1876217D01*
X2537416Y1876080D01*
X2537221Y1875905D01*
X2536967Y1875690D01*
X2536674Y1875456D01*
X2536343Y1875202D01*
X2535972Y1874949D01*
X2532500Y1872725D01*
Y1874851D01*
X2535153Y1876548D01*
X2535172D01*
X2535211Y1876587D01*
X2535270Y1876626D01*
X2535348Y1876665D01*
X2535543Y1876802D01*
X2535797Y1876977D01*
X2536089Y1877173D01*
X2536382Y1877387D01*
X2536655Y1877582D01*
X2536909Y1877777D01*
X2536928Y1877797D01*
X2537006Y1877855D01*
X2537123Y1877953D01*
X2537260Y1878050D01*
X2537533Y1878343D01*
X2537669Y1878479D01*
X2537767Y1878636D01*
X2537786Y1878655D01*
X2537806Y1878694D01*
X2537845Y1878772D01*
X2537903Y1878870D01*
X2538020Y1879104D01*
X2538118Y1879396D01*
Y1879416D01*
X2538138Y1879455D01*
Y1879533D01*
X2538157Y1879630D01*
X2538177Y1879767D01*
Y1879923D01*
X2538196Y1880118D01*
Y1882303D01*
X2532500D01*
Y1884000D01*
X2545316D01*
Y1878050D01*
D02*
G37*
G36*
X2537396Y1871886D02*
X2537572D01*
X2537786Y1871866D01*
X2538020Y1871828D01*
X2538294Y1871788D01*
X2538586Y1871730D01*
X2538898Y1871652D01*
X2539211Y1871554D01*
X2539523Y1871437D01*
X2539835Y1871301D01*
X2540147Y1871145D01*
X2540439Y1870950D01*
X2540712Y1870735D01*
X2540966Y1870482D01*
X2540986Y1870462D01*
X2541005Y1870423D01*
X2541064Y1870365D01*
X2541122Y1870267D01*
X2541200Y1870150D01*
X2541298Y1870013D01*
X2541395Y1869857D01*
X2541493Y1869662D01*
X2541571Y1869467D01*
X2541668Y1869252D01*
X2541844Y1868745D01*
X2541961Y1868180D01*
X2541980Y1867867D01*
X2542000Y1867555D01*
Y1867380D01*
X2541980Y1867243D01*
X2541961Y1867068D01*
X2541942Y1866892D01*
X2541902Y1866678D01*
X2541844Y1866443D01*
X2541688Y1865956D01*
X2541590Y1865702D01*
X2541473Y1865429D01*
X2541317Y1865175D01*
X2541142Y1864922D01*
X2540947Y1864668D01*
X2540732Y1864434D01*
X2540712Y1864415D01*
X2540674Y1864376D01*
X2540596Y1864317D01*
X2540498Y1864239D01*
X2540381Y1864142D01*
X2540225Y1864044D01*
X2540030Y1863927D01*
X2539835Y1863810D01*
X2539601Y1863712D01*
X2539328Y1863595D01*
X2539054Y1863498D01*
X2538742Y1863400D01*
X2538411Y1863322D01*
X2538040Y1863264D01*
X2537669Y1863225D01*
X2537260Y1863205D01*
X2537240D01*
X2537182D01*
X2537084D01*
X2536967D01*
X2536811Y1863225D01*
X2536635D01*
X2536440Y1863244D01*
X2536226Y1863264D01*
X2535777Y1863342D01*
X2535309Y1863439D01*
X2534841Y1863576D01*
X2534431Y1863752D01*
X2534412D01*
X2534392Y1863771D01*
X2534256Y1863849D01*
X2534080Y1863986D01*
X2533846Y1864161D01*
X2533592Y1864376D01*
X2533339Y1864649D01*
X2533085Y1864961D01*
X2532851Y1865332D01*
Y1865351D01*
X2532832Y1865371D01*
X2532793Y1865429D01*
X2532773Y1865507D01*
X2532676Y1865722D01*
X2532578Y1865995D01*
X2532461Y1866326D01*
X2532383Y1866697D01*
X2532305Y1867107D01*
X2532285Y1867555D01*
Y1867751D01*
X2532305Y1867887D01*
X2532324Y1868043D01*
X2532344Y1868238D01*
X2532383Y1868453D01*
X2532442Y1868687D01*
X2532598Y1869174D01*
X2532695Y1869448D01*
X2532812Y1869701D01*
X2532949Y1869974D01*
X2533124Y1870228D01*
X2533319Y1870482D01*
X2533534Y1870716D01*
X2533553Y1870735D01*
X2533592Y1870774D01*
X2533670Y1870833D01*
X2533768Y1870891D01*
X2533905Y1870989D01*
X2534061Y1871086D01*
X2534236Y1871203D01*
X2534451Y1871301D01*
X2534704Y1871418D01*
X2534958Y1871535D01*
X2535270Y1871632D01*
X2535582Y1871711D01*
X2535933Y1871788D01*
X2536304Y1871847D01*
X2536714Y1871886D01*
X2537143Y1871906D01*
X2537182D01*
X2537260D01*
X2537396Y1871886D01*
D02*
G37*
G36*
X2541785Y1859811D02*
X2536616D01*
X2536597D01*
X2536557D01*
X2536499D01*
X2536421D01*
X2536206D01*
X2535953Y1859792D01*
X2535680D01*
X2535407Y1859772D01*
X2535153Y1859753D01*
X2534958Y1859733D01*
X2534938D01*
X2534860Y1859694D01*
X2534743Y1859655D01*
X2534607Y1859597D01*
X2534451Y1859518D01*
X2534275Y1859401D01*
X2534119Y1859265D01*
X2533983Y1859109D01*
X2533963Y1859089D01*
X2533924Y1859011D01*
X2533866Y1858914D01*
X2533807Y1858777D01*
X2533748Y1858602D01*
X2533690Y1858407D01*
X2533651Y1858172D01*
X2533631Y1857919D01*
Y1857802D01*
X2533651Y1857665D01*
X2533670Y1857490D01*
X2533709Y1857295D01*
X2533788Y1857080D01*
X2533866Y1856846D01*
X2533983Y1856612D01*
X2534002Y1856592D01*
X2534061Y1856514D01*
X2534139Y1856397D01*
X2534256Y1856261D01*
X2534392Y1856124D01*
X2534568Y1855968D01*
X2534763Y1855851D01*
X2534977Y1855734D01*
X2535016Y1855715D01*
X2535094Y1855695D01*
X2535231Y1855656D01*
X2535446Y1855598D01*
X2535699Y1855539D01*
X2536011Y1855500D01*
X2536382Y1855480D01*
X2536792Y1855461D01*
X2541785D01*
Y1853881D01*
X2532500D01*
Y1855285D01*
X2533846D01*
X2533826Y1855305D01*
X2533788Y1855344D01*
X2533709Y1855402D01*
X2533612Y1855480D01*
X2533475Y1855598D01*
X2533358Y1855734D01*
X2533202Y1855890D01*
X2533066Y1856066D01*
X2532929Y1856261D01*
X2532773Y1856475D01*
X2532656Y1856729D01*
X2532539Y1856983D01*
X2532422Y1857275D01*
X2532344Y1857568D01*
X2532305Y1857899D01*
X2532285Y1858231D01*
Y1858367D01*
X2532305Y1858524D01*
X2532324Y1858738D01*
X2532363Y1858972D01*
X2532422Y1859226D01*
X2532500Y1859499D01*
X2532598Y1859772D01*
X2532617Y1859811D01*
X2532656Y1859889D01*
X2532715Y1860006D01*
X2532812Y1860162D01*
X2532929Y1860338D01*
X2533066Y1860513D01*
X2533202Y1860669D01*
X2533378Y1860825D01*
X2533397Y1860845D01*
X2533456Y1860884D01*
X2533573Y1860943D01*
X2533709Y1861001D01*
X2533885Y1861098D01*
X2534080Y1861177D01*
X2534295Y1861255D01*
X2534548Y1861313D01*
X2534568D01*
X2534646Y1861333D01*
X2534743D01*
X2534899Y1861352D01*
X2535114Y1861372D01*
X2535367D01*
X2535660Y1861391D01*
X2536011D01*
X2541785D01*
Y1859811D01*
D02*
G37*
G36*
Y1851150D02*
X2544068D01*
X2545024Y1849570D01*
X2541785D01*
Y1847990D01*
X2540556D01*
Y1849570D01*
X2535114D01*
X2535094D01*
X2535016D01*
X2534899D01*
X2534763Y1849550D01*
X2534470Y1849531D01*
X2534353Y1849511D01*
X2534256Y1849492D01*
X2534217Y1849472D01*
X2534139Y1849433D01*
X2534041Y1849355D01*
X2533943Y1849238D01*
X2533924Y1849199D01*
X2533905Y1849102D01*
X2533866Y1848926D01*
X2533846Y1848692D01*
Y1848497D01*
X2533866Y1848399D01*
Y1848282D01*
X2533905Y1847990D01*
X2532520Y1847775D01*
Y1847814D01*
X2532500Y1847892D01*
X2532480Y1848009D01*
X2532461Y1848185D01*
X2532422Y1848360D01*
X2532402Y1848555D01*
X2532383Y1848965D01*
Y1849102D01*
X2532402Y1849258D01*
X2532422Y1849453D01*
X2532442Y1849667D01*
X2532500Y1849901D01*
X2532558Y1850116D01*
X2532637Y1850311D01*
X2532656Y1850331D01*
X2532695Y1850389D01*
X2532754Y1850467D01*
X2532832Y1850565D01*
X2532929Y1850682D01*
X2533046Y1850779D01*
X2533183Y1850896D01*
X2533339Y1850974D01*
X2533358D01*
X2533436Y1850994D01*
X2533553Y1851033D01*
X2533748Y1851052D01*
X2534002Y1851091D01*
X2534139Y1851111D01*
X2534314Y1851130D01*
X2534509D01*
X2534724Y1851150D01*
X2534958D01*
X2535211D01*
X2540556D01*
Y1852320D01*
X2541785D01*
Y1851150D01*
D02*
G37*
G36*
X2537435Y1846936D02*
X2537630Y1846917D01*
X2537865Y1846897D01*
X2538118Y1846858D01*
X2538391Y1846800D01*
X2538976Y1846663D01*
X2539269Y1846566D01*
X2539581Y1846449D01*
X2539874Y1846312D01*
X2540166Y1846156D01*
X2540439Y1845981D01*
X2540693Y1845766D01*
X2540712Y1845746D01*
X2540751Y1845707D01*
X2540810Y1845649D01*
X2540908Y1845551D01*
X2541005Y1845434D01*
X2541103Y1845278D01*
X2541220Y1845122D01*
X2541356Y1844927D01*
X2541473Y1844713D01*
X2541590Y1844478D01*
X2541688Y1844225D01*
X2541805Y1843932D01*
X2541883Y1843640D01*
X2541942Y1843327D01*
X2541980Y1842996D01*
X2542000Y1842645D01*
Y1842469D01*
X2541980Y1842333D01*
X2541961Y1842177D01*
X2541942Y1841982D01*
X2541902Y1841786D01*
X2541844Y1841552D01*
X2541688Y1841084D01*
X2541590Y1840831D01*
X2541454Y1840577D01*
X2541317Y1840323D01*
X2541142Y1840070D01*
X2540947Y1839836D01*
X2540712Y1839602D01*
X2540693Y1839582D01*
X2540654Y1839543D01*
X2540576Y1839485D01*
X2540478Y1839406D01*
X2540342Y1839328D01*
X2540186Y1839231D01*
X2540010Y1839114D01*
X2539796Y1838997D01*
X2539542Y1838899D01*
X2539288Y1838782D01*
X2538996Y1838685D01*
X2538664Y1838587D01*
X2538333Y1838529D01*
X2537962Y1838470D01*
X2537572Y1838431D01*
X2537143Y1838412D01*
X2537123D01*
X2537045D01*
X2536909D01*
X2536733Y1838431D01*
Y1845337D01*
X2536714D01*
X2536674D01*
X2536577Y1845317D01*
X2536479D01*
X2536343Y1845298D01*
X2536206Y1845278D01*
X2535855Y1845200D01*
X2535485Y1845083D01*
X2535094Y1844947D01*
X2534704Y1844732D01*
X2534373Y1844478D01*
X2534334Y1844439D01*
X2534256Y1844342D01*
X2534119Y1844166D01*
X2533983Y1843952D01*
X2533826Y1843659D01*
X2533690Y1843327D01*
X2533612Y1842957D01*
X2533573Y1842547D01*
Y1842391D01*
X2533592Y1842235D01*
X2533631Y1842040D01*
X2533690Y1841806D01*
X2533768Y1841552D01*
X2533866Y1841299D01*
X2534022Y1841065D01*
X2534041Y1841045D01*
X2534119Y1840967D01*
X2534217Y1840850D01*
X2534392Y1840714D01*
X2534587Y1840558D01*
X2534841Y1840401D01*
X2535153Y1840245D01*
X2535504Y1840089D01*
X2535289Y1838470D01*
X2535270D01*
X2535231Y1838490D01*
X2535153Y1838509D01*
X2535055Y1838548D01*
X2534938Y1838587D01*
X2534802Y1838646D01*
X2534470Y1838802D01*
X2534119Y1838997D01*
X2533748Y1839231D01*
X2533378Y1839543D01*
X2533066Y1839894D01*
Y1839914D01*
X2533027Y1839933D01*
X2532988Y1839992D01*
X2532949Y1840089D01*
X2532890Y1840187D01*
X2532812Y1840304D01*
X2532754Y1840440D01*
X2532676Y1840616D01*
X2532539Y1840987D01*
X2532402Y1841455D01*
X2532324Y1841962D01*
X2532285Y1842547D01*
Y1842742D01*
X2532305Y1842879D01*
X2532324Y1843054D01*
X2532344Y1843250D01*
X2532383Y1843464D01*
X2532442Y1843718D01*
X2532598Y1844225D01*
X2532695Y1844498D01*
X2532812Y1844751D01*
X2532949Y1845025D01*
X2533124Y1845278D01*
X2533319Y1845532D01*
X2533534Y1845766D01*
X2533553Y1845785D01*
X2533592Y1845824D01*
X2533670Y1845883D01*
X2533768Y1845941D01*
X2533885Y1846039D01*
X2534041Y1846136D01*
X2534236Y1846254D01*
X2534451Y1846351D01*
X2534685Y1846468D01*
X2534938Y1846585D01*
X2535231Y1846683D01*
X2535543Y1846761D01*
X2535875Y1846839D01*
X2536245Y1846897D01*
X2536635Y1846936D01*
X2537045Y1846956D01*
X2537065D01*
X2537143D01*
X2537279D01*
X2537435Y1846936D01*
D02*
G37*
G36*
X2546316Y1558550D02*
X2546297Y1558394D01*
Y1558238D01*
X2546277Y1557848D01*
X2546238Y1557438D01*
X2546160Y1557009D01*
X2546082Y1556600D01*
X2546024Y1556405D01*
X2545965Y1556229D01*
Y1556209D01*
X2545946Y1556190D01*
X2545907Y1556073D01*
X2545809Y1555917D01*
X2545672Y1555722D01*
X2545516Y1555488D01*
X2545302Y1555254D01*
X2545048Y1555020D01*
X2544736Y1554805D01*
X2544697Y1554785D01*
X2544580Y1554727D01*
X2544404Y1554629D01*
X2544170Y1554532D01*
X2543878Y1554434D01*
X2543546Y1554337D01*
X2543195Y1554278D01*
X2542805Y1554259D01*
X2542785D01*
X2542746D01*
X2542668D01*
X2542571Y1554278D01*
X2542454D01*
X2542317Y1554298D01*
X2542005Y1554376D01*
X2541635Y1554473D01*
X2541264Y1554629D01*
X2540874Y1554863D01*
X2540679Y1555000D01*
X2540503Y1555156D01*
X2540464Y1555195D01*
X2540425Y1555254D01*
X2540347Y1555312D01*
X2540289Y1555410D01*
X2540191Y1555527D01*
X2540113Y1555663D01*
X2540015Y1555819D01*
X2539918Y1555995D01*
X2539820Y1556209D01*
X2539723Y1556424D01*
X2539625Y1556678D01*
X2539528Y1556931D01*
X2539450Y1557224D01*
X2539391Y1557536D01*
X2539333Y1557867D01*
X2539313Y1557829D01*
X2539274Y1557751D01*
X2539216Y1557634D01*
X2539138Y1557497D01*
X2538923Y1557165D01*
X2538806Y1556990D01*
X2538689Y1556853D01*
X2538650Y1556814D01*
X2538572Y1556717D01*
X2538416Y1556580D01*
X2538221Y1556405D01*
X2537967Y1556190D01*
X2537675Y1555956D01*
X2537343Y1555702D01*
X2536972Y1555449D01*
X2533500Y1553225D01*
Y1555351D01*
X2536153Y1557048D01*
X2536172D01*
X2536212Y1557087D01*
X2536270Y1557126D01*
X2536348Y1557165D01*
X2536543Y1557302D01*
X2536797Y1557477D01*
X2537089Y1557672D01*
X2537382Y1557887D01*
X2537655Y1558082D01*
X2537909Y1558277D01*
X2537928Y1558297D01*
X2538006Y1558355D01*
X2538123Y1558453D01*
X2538260Y1558550D01*
X2538533Y1558843D01*
X2538669Y1558979D01*
X2538767Y1559135D01*
X2538786Y1559155D01*
X2538806Y1559194D01*
X2538845Y1559272D01*
X2538904Y1559370D01*
X2539021Y1559604D01*
X2539118Y1559896D01*
Y1559916D01*
X2539138Y1559955D01*
Y1560033D01*
X2539157Y1560130D01*
X2539177Y1560267D01*
Y1560423D01*
X2539196Y1560618D01*
Y1562803D01*
X2533500D01*
Y1564500D01*
X2546316D01*
Y1558550D01*
D02*
G37*
G36*
X2538396Y1552386D02*
X2538572D01*
X2538786Y1552366D01*
X2539021Y1552328D01*
X2539294Y1552289D01*
X2539586Y1552230D01*
X2539898Y1552152D01*
X2540211Y1552054D01*
X2540523Y1551937D01*
X2540835Y1551801D01*
X2541147Y1551645D01*
X2541439Y1551450D01*
X2541712Y1551235D01*
X2541966Y1550981D01*
X2541986Y1550962D01*
X2542005Y1550923D01*
X2542064Y1550865D01*
X2542122Y1550767D01*
X2542200Y1550650D01*
X2542298Y1550513D01*
X2542395Y1550357D01*
X2542493Y1550162D01*
X2542571Y1549967D01*
X2542668Y1549753D01*
X2542844Y1549245D01*
X2542961Y1548680D01*
X2542980Y1548367D01*
X2543000Y1548055D01*
Y1547880D01*
X2542980Y1547743D01*
X2542961Y1547568D01*
X2542941Y1547392D01*
X2542903Y1547178D01*
X2542844Y1546944D01*
X2542688Y1546456D01*
X2542590Y1546202D01*
X2542473Y1545929D01*
X2542317Y1545676D01*
X2542142Y1545422D01*
X2541947Y1545168D01*
X2541732Y1544934D01*
X2541712Y1544915D01*
X2541673Y1544876D01*
X2541595Y1544817D01*
X2541498Y1544739D01*
X2541381Y1544642D01*
X2541225Y1544544D01*
X2541030Y1544427D01*
X2540835Y1544310D01*
X2540601Y1544212D01*
X2540327Y1544095D01*
X2540054Y1543998D01*
X2539742Y1543900D01*
X2539411Y1543822D01*
X2539040Y1543764D01*
X2538669Y1543725D01*
X2538260Y1543705D01*
X2538240D01*
X2538182D01*
X2538084D01*
X2537967D01*
X2537811Y1543725D01*
X2537635D01*
X2537440Y1543744D01*
X2537226Y1543764D01*
X2536777Y1543842D01*
X2536309Y1543939D01*
X2535841Y1544076D01*
X2535431Y1544252D01*
X2535412D01*
X2535392Y1544271D01*
X2535256Y1544349D01*
X2535080Y1544486D01*
X2534846Y1544661D01*
X2534592Y1544876D01*
X2534339Y1545149D01*
X2534085Y1545461D01*
X2533851Y1545832D01*
Y1545851D01*
X2533832Y1545871D01*
X2533793Y1545929D01*
X2533773Y1546007D01*
X2533676Y1546222D01*
X2533578Y1546495D01*
X2533461Y1546826D01*
X2533383Y1547197D01*
X2533305Y1547607D01*
X2533285Y1548055D01*
Y1548250D01*
X2533305Y1548387D01*
X2533324Y1548543D01*
X2533344Y1548738D01*
X2533383Y1548953D01*
X2533441Y1549187D01*
X2533598Y1549675D01*
X2533695Y1549948D01*
X2533812Y1550201D01*
X2533949Y1550474D01*
X2534124Y1550728D01*
X2534319Y1550981D01*
X2534534Y1551216D01*
X2534553Y1551235D01*
X2534592Y1551274D01*
X2534670Y1551333D01*
X2534768Y1551391D01*
X2534904Y1551489D01*
X2535061Y1551586D01*
X2535236Y1551703D01*
X2535451Y1551801D01*
X2535704Y1551918D01*
X2535958Y1552035D01*
X2536270Y1552132D01*
X2536582Y1552211D01*
X2536933Y1552289D01*
X2537304Y1552347D01*
X2537713Y1552386D01*
X2538143Y1552406D01*
X2538182D01*
X2538260D01*
X2538396Y1552386D01*
D02*
G37*
G36*
X2542785Y1540311D02*
X2537616D01*
X2537596D01*
X2537558D01*
X2537499D01*
X2537421D01*
X2537206D01*
X2536953Y1540292D01*
X2536680D01*
X2536407Y1540272D01*
X2536153Y1540253D01*
X2535958Y1540233D01*
X2535938D01*
X2535860Y1540194D01*
X2535743Y1540155D01*
X2535607Y1540096D01*
X2535451Y1540018D01*
X2535275Y1539901D01*
X2535119Y1539765D01*
X2534982Y1539609D01*
X2534963Y1539589D01*
X2534924Y1539511D01*
X2534866Y1539414D01*
X2534807Y1539277D01*
X2534748Y1539102D01*
X2534690Y1538907D01*
X2534651Y1538672D01*
X2534631Y1538419D01*
Y1538302D01*
X2534651Y1538165D01*
X2534670Y1537990D01*
X2534709Y1537795D01*
X2534787Y1537580D01*
X2534866Y1537346D01*
X2534982Y1537112D01*
X2535002Y1537092D01*
X2535061Y1537014D01*
X2535139Y1536897D01*
X2535256Y1536761D01*
X2535392Y1536624D01*
X2535568Y1536468D01*
X2535763Y1536351D01*
X2535977Y1536234D01*
X2536016Y1536215D01*
X2536094Y1536195D01*
X2536231Y1536156D01*
X2536446Y1536098D01*
X2536699Y1536039D01*
X2537011Y1536000D01*
X2537382Y1535981D01*
X2537792Y1535961D01*
X2542785D01*
Y1534381D01*
X2533500D01*
Y1535785D01*
X2534846D01*
X2534827Y1535805D01*
X2534787Y1535844D01*
X2534709Y1535902D01*
X2534612Y1535981D01*
X2534475Y1536098D01*
X2534358Y1536234D01*
X2534202Y1536390D01*
X2534066Y1536566D01*
X2533929Y1536761D01*
X2533773Y1536975D01*
X2533656Y1537229D01*
X2533539Y1537482D01*
X2533422Y1537775D01*
X2533344Y1538068D01*
X2533305Y1538399D01*
X2533285Y1538731D01*
Y1538867D01*
X2533305Y1539024D01*
X2533324Y1539238D01*
X2533363Y1539472D01*
X2533422Y1539726D01*
X2533500Y1539999D01*
X2533598Y1540272D01*
X2533617Y1540311D01*
X2533656Y1540389D01*
X2533715Y1540506D01*
X2533812Y1540662D01*
X2533929Y1540838D01*
X2534066Y1541013D01*
X2534202Y1541169D01*
X2534378Y1541325D01*
X2534397Y1541345D01*
X2534456Y1541384D01*
X2534573Y1541443D01*
X2534709Y1541501D01*
X2534885Y1541599D01*
X2535080Y1541677D01*
X2535295Y1541755D01*
X2535548Y1541813D01*
X2535568D01*
X2535646Y1541833D01*
X2535743D01*
X2535899Y1541852D01*
X2536114Y1541872D01*
X2536367D01*
X2536660Y1541891D01*
X2537011D01*
X2542785D01*
Y1540311D01*
D02*
G37*
G36*
Y1531650D02*
X2545068D01*
X2546024Y1530070D01*
X2542785D01*
Y1528490D01*
X2541557D01*
Y1530070D01*
X2536114D01*
X2536094D01*
X2536016D01*
X2535899D01*
X2535763Y1530050D01*
X2535470Y1530031D01*
X2535353Y1530011D01*
X2535256Y1529992D01*
X2535217Y1529972D01*
X2535139Y1529933D01*
X2535041Y1529855D01*
X2534944Y1529738D01*
X2534924Y1529699D01*
X2534904Y1529602D01*
X2534866Y1529426D01*
X2534846Y1529192D01*
Y1528997D01*
X2534866Y1528899D01*
Y1528782D01*
X2534904Y1528490D01*
X2533519Y1528275D01*
Y1528314D01*
X2533500Y1528392D01*
X2533481Y1528509D01*
X2533461Y1528685D01*
X2533422Y1528860D01*
X2533403Y1529055D01*
X2533383Y1529465D01*
Y1529602D01*
X2533403Y1529758D01*
X2533422Y1529953D01*
X2533441Y1530167D01*
X2533500Y1530401D01*
X2533559Y1530616D01*
X2533636Y1530811D01*
X2533656Y1530831D01*
X2533695Y1530889D01*
X2533754Y1530967D01*
X2533832Y1531065D01*
X2533929Y1531182D01*
X2534046Y1531279D01*
X2534183Y1531396D01*
X2534339Y1531474D01*
X2534358D01*
X2534436Y1531494D01*
X2534553Y1531533D01*
X2534748Y1531552D01*
X2535002Y1531591D01*
X2535139Y1531611D01*
X2535314Y1531630D01*
X2535509D01*
X2535724Y1531650D01*
X2535958D01*
X2536212D01*
X2541557D01*
Y1532820D01*
X2542785D01*
Y1531650D01*
D02*
G37*
G36*
X2538435Y1527436D02*
X2538630Y1527417D01*
X2538864Y1527397D01*
X2539118Y1527358D01*
X2539391Y1527300D01*
X2539976Y1527163D01*
X2540269Y1527066D01*
X2540581Y1526949D01*
X2540874Y1526812D01*
X2541166Y1526656D01*
X2541439Y1526481D01*
X2541693Y1526266D01*
X2541712Y1526246D01*
X2541752Y1526207D01*
X2541810Y1526149D01*
X2541908Y1526051D01*
X2542005Y1525934D01*
X2542103Y1525778D01*
X2542220Y1525622D01*
X2542356Y1525427D01*
X2542473Y1525213D01*
X2542590Y1524978D01*
X2542688Y1524725D01*
X2542805Y1524432D01*
X2542883Y1524140D01*
X2542941Y1523828D01*
X2542980Y1523496D01*
X2543000Y1523145D01*
Y1522969D01*
X2542980Y1522833D01*
X2542961Y1522677D01*
X2542941Y1522482D01*
X2542903Y1522286D01*
X2542844Y1522052D01*
X2542688Y1521584D01*
X2542590Y1521331D01*
X2542454Y1521077D01*
X2542317Y1520823D01*
X2542142Y1520570D01*
X2541947Y1520336D01*
X2541712Y1520102D01*
X2541693Y1520082D01*
X2541654Y1520043D01*
X2541576Y1519985D01*
X2541478Y1519906D01*
X2541342Y1519828D01*
X2541186Y1519731D01*
X2541010Y1519614D01*
X2540796Y1519497D01*
X2540542Y1519399D01*
X2540289Y1519282D01*
X2539996Y1519185D01*
X2539664Y1519087D01*
X2539333Y1519029D01*
X2538962Y1518970D01*
X2538572Y1518931D01*
X2538143Y1518912D01*
X2538123D01*
X2538045D01*
X2537909D01*
X2537733Y1518931D01*
Y1525837D01*
X2537713D01*
X2537675D01*
X2537577Y1525817D01*
X2537480D01*
X2537343Y1525798D01*
X2537206Y1525778D01*
X2536855Y1525700D01*
X2536485Y1525583D01*
X2536094Y1525447D01*
X2535704Y1525232D01*
X2535373Y1524978D01*
X2535334Y1524939D01*
X2535256Y1524842D01*
X2535119Y1524666D01*
X2534982Y1524452D01*
X2534827Y1524159D01*
X2534690Y1523828D01*
X2534612Y1523457D01*
X2534573Y1523047D01*
Y1522891D01*
X2534592Y1522735D01*
X2534631Y1522540D01*
X2534690Y1522306D01*
X2534768Y1522052D01*
X2534866Y1521799D01*
X2535022Y1521565D01*
X2535041Y1521545D01*
X2535119Y1521467D01*
X2535217Y1521350D01*
X2535392Y1521214D01*
X2535587Y1521057D01*
X2535841Y1520901D01*
X2536153Y1520745D01*
X2536504Y1520589D01*
X2536290Y1518970D01*
X2536270D01*
X2536231Y1518990D01*
X2536153Y1519009D01*
X2536055Y1519048D01*
X2535938Y1519087D01*
X2535802Y1519146D01*
X2535470Y1519302D01*
X2535119Y1519497D01*
X2534748Y1519731D01*
X2534378Y1520043D01*
X2534066Y1520394D01*
Y1520414D01*
X2534027Y1520433D01*
X2533988Y1520492D01*
X2533949Y1520589D01*
X2533890Y1520687D01*
X2533812Y1520804D01*
X2533754Y1520940D01*
X2533676Y1521116D01*
X2533539Y1521487D01*
X2533403Y1521955D01*
X2533324Y1522462D01*
X2533285Y1523047D01*
Y1523242D01*
X2533305Y1523379D01*
X2533324Y1523554D01*
X2533344Y1523750D01*
X2533383Y1523964D01*
X2533441Y1524218D01*
X2533598Y1524725D01*
X2533695Y1524998D01*
X2533812Y1525251D01*
X2533949Y1525525D01*
X2534124Y1525778D01*
X2534319Y1526032D01*
X2534534Y1526266D01*
X2534553Y1526285D01*
X2534592Y1526324D01*
X2534670Y1526383D01*
X2534768Y1526441D01*
X2534885Y1526539D01*
X2535041Y1526637D01*
X2535236Y1526754D01*
X2535451Y1526851D01*
X2535685Y1526968D01*
X2535938Y1527085D01*
X2536231Y1527183D01*
X2536543Y1527261D01*
X2536875Y1527339D01*
X2537245Y1527397D01*
X2537635Y1527436D01*
X2538045Y1527456D01*
X2538065D01*
X2538143D01*
X2538279D01*
X2538435Y1527436D01*
D02*
G37*
G36*
X2429869Y1140000D02*
X2428465D01*
Y1141346D01*
X2428445Y1141327D01*
X2428406Y1141288D01*
X2428347Y1141209D01*
X2428270Y1141112D01*
X2428152Y1140975D01*
X2428016Y1140858D01*
X2427860Y1140702D01*
X2427684Y1140566D01*
X2427489Y1140429D01*
X2427275Y1140273D01*
X2427021Y1140156D01*
X2426767Y1140039D01*
X2426475Y1139922D01*
X2426182Y1139844D01*
X2425851Y1139805D01*
X2425519Y1139785D01*
X2425382D01*
X2425226Y1139805D01*
X2425012Y1139824D01*
X2424778Y1139864D01*
X2424524Y1139922D01*
X2424251Y1140000D01*
X2423978Y1140098D01*
X2423939Y1140117D01*
X2423861Y1140156D01*
X2423744Y1140215D01*
X2423588Y1140312D01*
X2423412Y1140429D01*
X2423237Y1140566D01*
X2423081Y1140702D01*
X2422924Y1140878D01*
X2422905Y1140897D01*
X2422866Y1140956D01*
X2422807Y1141073D01*
X2422749Y1141209D01*
X2422651Y1141385D01*
X2422573Y1141580D01*
X2422495Y1141795D01*
X2422437Y1142048D01*
Y1142068D01*
X2422417Y1142146D01*
Y1142243D01*
X2422398Y1142399D01*
X2422378Y1142614D01*
Y1142868D01*
X2422359Y1143160D01*
Y1143511D01*
Y1149285D01*
X2423939D01*
Y1144116D01*
Y1144097D01*
Y1144057D01*
Y1143999D01*
Y1143921D01*
Y1143706D01*
X2423958Y1143453D01*
Y1143180D01*
X2423978Y1142907D01*
X2423997Y1142653D01*
X2424017Y1142458D01*
Y1142438D01*
X2424056Y1142360D01*
X2424095Y1142243D01*
X2424153Y1142107D01*
X2424232Y1141951D01*
X2424349Y1141775D01*
X2424485Y1141619D01*
X2424641Y1141483D01*
X2424661Y1141463D01*
X2424739Y1141424D01*
X2424836Y1141366D01*
X2424973Y1141307D01*
X2425148Y1141248D01*
X2425343Y1141190D01*
X2425578Y1141151D01*
X2425831Y1141131D01*
X2425948D01*
X2426085Y1141151D01*
X2426260Y1141170D01*
X2426455Y1141209D01*
X2426670Y1141288D01*
X2426904Y1141366D01*
X2427138Y1141483D01*
X2427158Y1141502D01*
X2427236Y1141561D01*
X2427353Y1141639D01*
X2427489Y1141756D01*
X2427626Y1141892D01*
X2427782Y1142068D01*
X2427899Y1142263D01*
X2428016Y1142477D01*
X2428035Y1142516D01*
X2428055Y1142595D01*
X2428094Y1142731D01*
X2428152Y1142946D01*
X2428211Y1143199D01*
X2428250Y1143511D01*
X2428270Y1143882D01*
X2428289Y1144292D01*
Y1149285D01*
X2429869D01*
Y1140000D01*
D02*
G37*
G36*
X2405856Y1152797D02*
X2406012D01*
X2406402Y1152777D01*
X2406812Y1152738D01*
X2407241Y1152660D01*
X2407650Y1152582D01*
X2407845Y1152524D01*
X2408021Y1152465D01*
X2408040D01*
X2408060Y1152446D01*
X2408177Y1152407D01*
X2408333Y1152309D01*
X2408528Y1152172D01*
X2408762Y1152016D01*
X2408996Y1151802D01*
X2409230Y1151548D01*
X2409445Y1151236D01*
X2409465Y1151197D01*
X2409523Y1151080D01*
X2409621Y1150904D01*
X2409718Y1150670D01*
X2409816Y1150378D01*
X2409913Y1150046D01*
X2409972Y1149695D01*
X2409991Y1149305D01*
Y1149285D01*
Y1149246D01*
Y1149168D01*
X2409972Y1149071D01*
Y1148954D01*
X2409952Y1148817D01*
X2409874Y1148505D01*
X2409777Y1148135D01*
X2409621Y1147764D01*
X2409386Y1147374D01*
X2409250Y1147179D01*
X2409094Y1147003D01*
X2409055Y1146964D01*
X2408996Y1146925D01*
X2408938Y1146847D01*
X2408840Y1146788D01*
X2408723Y1146691D01*
X2408587Y1146613D01*
X2408431Y1146515D01*
X2408255Y1146418D01*
X2408040Y1146320D01*
X2407826Y1146223D01*
X2407572Y1146125D01*
X2407319Y1146028D01*
X2407026Y1145950D01*
X2406714Y1145891D01*
X2406382Y1145833D01*
X2406422Y1145813D01*
X2406499Y1145774D01*
X2406617Y1145716D01*
X2406753Y1145638D01*
X2407085Y1145423D01*
X2407260Y1145306D01*
X2407397Y1145189D01*
X2407436Y1145150D01*
X2407533Y1145072D01*
X2407670Y1144916D01*
X2407845Y1144721D01*
X2408060Y1144467D01*
X2408294Y1144174D01*
X2408548Y1143843D01*
X2408801Y1143472D01*
X2411025Y1140000D01*
X2408899D01*
X2407202Y1142653D01*
Y1142673D01*
X2407163Y1142711D01*
X2407124Y1142770D01*
X2407085Y1142848D01*
X2406948Y1143043D01*
X2406773Y1143297D01*
X2406577Y1143589D01*
X2406363Y1143882D01*
X2406168Y1144155D01*
X2405973Y1144409D01*
X2405953Y1144428D01*
X2405895Y1144506D01*
X2405797Y1144623D01*
X2405700Y1144760D01*
X2405407Y1145033D01*
X2405271Y1145169D01*
X2405114Y1145267D01*
X2405095Y1145286D01*
X2405056Y1145306D01*
X2404978Y1145345D01*
X2404880Y1145404D01*
X2404646Y1145520D01*
X2404354Y1145618D01*
X2404334D01*
X2404295Y1145638D01*
X2404217D01*
X2404120Y1145657D01*
X2403983Y1145677D01*
X2403827D01*
X2403632Y1145696D01*
X2401447D01*
Y1140000D01*
X2399750D01*
Y1152816D01*
X2405700D01*
X2405856Y1152797D01*
D02*
G37*
G36*
X2434180Y1149285D02*
X2435760D01*
Y1148056D01*
X2434180D01*
Y1142614D01*
Y1142595D01*
Y1142516D01*
Y1142399D01*
X2434200Y1142263D01*
X2434219Y1141970D01*
X2434239Y1141853D01*
X2434258Y1141756D01*
X2434278Y1141717D01*
X2434317Y1141639D01*
X2434395Y1141541D01*
X2434512Y1141443D01*
X2434551Y1141424D01*
X2434648Y1141404D01*
X2434824Y1141366D01*
X2435058Y1141346D01*
X2435253D01*
X2435351Y1141366D01*
X2435468D01*
X2435760Y1141404D01*
X2435975Y1140020D01*
X2435936D01*
X2435858Y1140000D01*
X2435741Y1139980D01*
X2435565Y1139961D01*
X2435390Y1139922D01*
X2435195Y1139902D01*
X2434785Y1139883D01*
X2434648D01*
X2434492Y1139902D01*
X2434297Y1139922D01*
X2434083Y1139941D01*
X2433849Y1140000D01*
X2433634Y1140059D01*
X2433439Y1140137D01*
X2433419Y1140156D01*
X2433361Y1140195D01*
X2433283Y1140254D01*
X2433185Y1140332D01*
X2433068Y1140429D01*
X2432971Y1140546D01*
X2432854Y1140683D01*
X2432776Y1140839D01*
Y1140858D01*
X2432756Y1140936D01*
X2432717Y1141053D01*
X2432698Y1141248D01*
X2432659Y1141502D01*
X2432639Y1141639D01*
X2432620Y1141814D01*
Y1142009D01*
X2432600Y1142224D01*
Y1142458D01*
Y1142711D01*
Y1148056D01*
X2431430D01*
Y1149285D01*
X2432600D01*
Y1151568D01*
X2434180Y1152524D01*
Y1149285D01*
D02*
G37*
G36*
X2441417Y1149481D02*
X2441573Y1149461D01*
X2441768Y1149442D01*
X2441964Y1149402D01*
X2442198Y1149344D01*
X2442666Y1149188D01*
X2442919Y1149090D01*
X2443173Y1148954D01*
X2443427Y1148817D01*
X2443680Y1148642D01*
X2443914Y1148447D01*
X2444148Y1148213D01*
X2444168Y1148193D01*
X2444207Y1148154D01*
X2444265Y1148076D01*
X2444343Y1147979D01*
X2444422Y1147842D01*
X2444519Y1147686D01*
X2444636Y1147510D01*
X2444753Y1147296D01*
X2444851Y1147042D01*
X2444968Y1146788D01*
X2445065Y1146496D01*
X2445163Y1146164D01*
X2445221Y1145833D01*
X2445280Y1145462D01*
X2445319Y1145072D01*
X2445338Y1144643D01*
Y1144623D01*
Y1144545D01*
Y1144409D01*
X2445319Y1144233D01*
X2438413D01*
Y1144214D01*
Y1144174D01*
X2438433Y1144077D01*
Y1143979D01*
X2438452Y1143843D01*
X2438472Y1143706D01*
X2438550Y1143355D01*
X2438667Y1142985D01*
X2438803Y1142595D01*
X2439018Y1142204D01*
X2439272Y1141873D01*
X2439311Y1141834D01*
X2439408Y1141756D01*
X2439584Y1141619D01*
X2439798Y1141483D01*
X2440091Y1141327D01*
X2440423Y1141190D01*
X2440793Y1141112D01*
X2441203Y1141073D01*
X2441359D01*
X2441515Y1141092D01*
X2441710Y1141131D01*
X2441944Y1141190D01*
X2442198Y1141268D01*
X2442451Y1141366D01*
X2442685Y1141522D01*
X2442705Y1141541D01*
X2442783Y1141619D01*
X2442900Y1141717D01*
X2443036Y1141892D01*
X2443192Y1142087D01*
X2443349Y1142341D01*
X2443505Y1142653D01*
X2443661Y1143004D01*
X2445280Y1142790D01*
Y1142770D01*
X2445260Y1142731D01*
X2445241Y1142653D01*
X2445202Y1142555D01*
X2445163Y1142438D01*
X2445104Y1142302D01*
X2444948Y1141970D01*
X2444753Y1141619D01*
X2444519Y1141248D01*
X2444207Y1140878D01*
X2443856Y1140566D01*
X2443836D01*
X2443817Y1140527D01*
X2443758Y1140488D01*
X2443661Y1140449D01*
X2443563Y1140390D01*
X2443446Y1140312D01*
X2443310Y1140254D01*
X2443134Y1140176D01*
X2442763Y1140039D01*
X2442295Y1139902D01*
X2441788Y1139824D01*
X2441203Y1139785D01*
X2441008D01*
X2440871Y1139805D01*
X2440696Y1139824D01*
X2440500Y1139844D01*
X2440286Y1139883D01*
X2440032Y1139941D01*
X2439525Y1140098D01*
X2439252Y1140195D01*
X2438999Y1140312D01*
X2438725Y1140449D01*
X2438472Y1140624D01*
X2438218Y1140819D01*
X2437984Y1141034D01*
X2437965Y1141053D01*
X2437926Y1141092D01*
X2437867Y1141170D01*
X2437809Y1141268D01*
X2437711Y1141385D01*
X2437614Y1141541D01*
X2437496Y1141736D01*
X2437399Y1141951D01*
X2437282Y1142185D01*
X2437165Y1142438D01*
X2437067Y1142731D01*
X2436989Y1143043D01*
X2436911Y1143375D01*
X2436853Y1143745D01*
X2436814Y1144136D01*
X2436794Y1144545D01*
Y1144565D01*
Y1144643D01*
Y1144779D01*
X2436814Y1144935D01*
X2436833Y1145130D01*
X2436853Y1145365D01*
X2436892Y1145618D01*
X2436950Y1145891D01*
X2437087Y1146476D01*
X2437184Y1146769D01*
X2437301Y1147081D01*
X2437438Y1147374D01*
X2437594Y1147666D01*
X2437769Y1147939D01*
X2437984Y1148193D01*
X2438004Y1148213D01*
X2438043Y1148252D01*
X2438101Y1148310D01*
X2438199Y1148408D01*
X2438316Y1148505D01*
X2438472Y1148603D01*
X2438628Y1148720D01*
X2438823Y1148856D01*
X2439037Y1148973D01*
X2439272Y1149090D01*
X2439525Y1149188D01*
X2439818Y1149305D01*
X2440110Y1149383D01*
X2440423Y1149442D01*
X2440754Y1149481D01*
X2441105Y1149500D01*
X2441281D01*
X2441417Y1149481D01*
D02*
G37*
G36*
X2416507D02*
X2416682Y1149461D01*
X2416858Y1149442D01*
X2417072Y1149402D01*
X2417307Y1149344D01*
X2417794Y1149188D01*
X2418048Y1149090D01*
X2418321Y1148973D01*
X2418574Y1148817D01*
X2418828Y1148642D01*
X2419082Y1148447D01*
X2419316Y1148232D01*
X2419335Y1148213D01*
X2419374Y1148174D01*
X2419433Y1148095D01*
X2419511Y1147998D01*
X2419608Y1147881D01*
X2419706Y1147725D01*
X2419823Y1147530D01*
X2419940Y1147335D01*
X2420038Y1147101D01*
X2420155Y1146827D01*
X2420252Y1146554D01*
X2420350Y1146242D01*
X2420428Y1145911D01*
X2420486Y1145540D01*
X2420525Y1145169D01*
X2420545Y1144760D01*
Y1144740D01*
Y1144682D01*
Y1144584D01*
Y1144467D01*
X2420525Y1144311D01*
Y1144136D01*
X2420506Y1143941D01*
X2420486Y1143726D01*
X2420408Y1143277D01*
X2420311Y1142809D01*
X2420174Y1142341D01*
X2419998Y1141931D01*
Y1141912D01*
X2419979Y1141892D01*
X2419901Y1141756D01*
X2419764Y1141580D01*
X2419589Y1141346D01*
X2419374Y1141092D01*
X2419101Y1140839D01*
X2418789Y1140585D01*
X2418418Y1140351D01*
X2418399D01*
X2418379Y1140332D01*
X2418321Y1140293D01*
X2418243Y1140273D01*
X2418028Y1140176D01*
X2417755Y1140078D01*
X2417424Y1139961D01*
X2417053Y1139883D01*
X2416643Y1139805D01*
X2416195Y1139785D01*
X2415999D01*
X2415863Y1139805D01*
X2415707Y1139824D01*
X2415512Y1139844D01*
X2415297Y1139883D01*
X2415063Y1139941D01*
X2414576Y1140098D01*
X2414302Y1140195D01*
X2414049Y1140312D01*
X2413776Y1140449D01*
X2413522Y1140624D01*
X2413268Y1140819D01*
X2413034Y1141034D01*
X2413015Y1141053D01*
X2412976Y1141092D01*
X2412917Y1141170D01*
X2412859Y1141268D01*
X2412761Y1141404D01*
X2412664Y1141561D01*
X2412547Y1141736D01*
X2412449Y1141951D01*
X2412332Y1142204D01*
X2412215Y1142458D01*
X2412118Y1142770D01*
X2412039Y1143082D01*
X2411962Y1143433D01*
X2411903Y1143804D01*
X2411864Y1144214D01*
X2411844Y1144643D01*
Y1144682D01*
Y1144760D01*
X2411864Y1144896D01*
Y1145072D01*
X2411884Y1145286D01*
X2411922Y1145520D01*
X2411962Y1145794D01*
X2412020Y1146086D01*
X2412098Y1146398D01*
X2412196Y1146711D01*
X2412313Y1147023D01*
X2412449Y1147335D01*
X2412605Y1147647D01*
X2412800Y1147939D01*
X2413015Y1148213D01*
X2413268Y1148466D01*
X2413288Y1148486D01*
X2413327Y1148505D01*
X2413385Y1148564D01*
X2413483Y1148622D01*
X2413600Y1148700D01*
X2413737Y1148798D01*
X2413893Y1148895D01*
X2414088Y1148993D01*
X2414283Y1149071D01*
X2414497Y1149168D01*
X2415005Y1149344D01*
X2415570Y1149461D01*
X2415882Y1149481D01*
X2416195Y1149500D01*
X2416370D01*
X2416507Y1149481D01*
D02*
G37*
G36*
X2080619Y1140000D02*
X2079215D01*
Y1141346D01*
X2079195Y1141327D01*
X2079156Y1141288D01*
X2079097Y1141209D01*
X2079019Y1141112D01*
X2078902Y1140975D01*
X2078766Y1140858D01*
X2078610Y1140702D01*
X2078434Y1140566D01*
X2078239Y1140429D01*
X2078025Y1140273D01*
X2077771Y1140156D01*
X2077518Y1140039D01*
X2077225Y1139922D01*
X2076932Y1139844D01*
X2076601Y1139805D01*
X2076269Y1139785D01*
X2076132D01*
X2075976Y1139805D01*
X2075762Y1139824D01*
X2075528Y1139864D01*
X2075274Y1139922D01*
X2075001Y1140000D01*
X2074728Y1140098D01*
X2074689Y1140117D01*
X2074611Y1140156D01*
X2074494Y1140215D01*
X2074338Y1140312D01*
X2074162Y1140429D01*
X2073987Y1140566D01*
X2073831Y1140702D01*
X2073674Y1140878D01*
X2073655Y1140897D01*
X2073616Y1140956D01*
X2073557Y1141073D01*
X2073499Y1141209D01*
X2073401Y1141385D01*
X2073323Y1141580D01*
X2073245Y1141795D01*
X2073187Y1142048D01*
Y1142068D01*
X2073167Y1142146D01*
Y1142243D01*
X2073148Y1142399D01*
X2073128Y1142614D01*
Y1142868D01*
X2073109Y1143160D01*
Y1143511D01*
Y1149285D01*
X2074689D01*
Y1144116D01*
Y1144097D01*
Y1144057D01*
Y1143999D01*
Y1143921D01*
Y1143706D01*
X2074708Y1143453D01*
Y1143180D01*
X2074728Y1142907D01*
X2074747Y1142653D01*
X2074767Y1142458D01*
Y1142438D01*
X2074806Y1142360D01*
X2074845Y1142243D01*
X2074904Y1142107D01*
X2074982Y1141951D01*
X2075099Y1141775D01*
X2075235Y1141619D01*
X2075391Y1141483D01*
X2075411Y1141463D01*
X2075489Y1141424D01*
X2075586Y1141366D01*
X2075723Y1141307D01*
X2075898Y1141248D01*
X2076093Y1141190D01*
X2076328Y1141151D01*
X2076581Y1141131D01*
X2076698D01*
X2076835Y1141151D01*
X2077010Y1141170D01*
X2077205Y1141209D01*
X2077420Y1141288D01*
X2077654Y1141366D01*
X2077888Y1141483D01*
X2077908Y1141502D01*
X2077986Y1141561D01*
X2078103Y1141639D01*
X2078239Y1141756D01*
X2078376Y1141892D01*
X2078532Y1142068D01*
X2078649Y1142263D01*
X2078766Y1142477D01*
X2078785Y1142516D01*
X2078805Y1142595D01*
X2078844Y1142731D01*
X2078902Y1142946D01*
X2078961Y1143199D01*
X2079000Y1143511D01*
X2079019Y1143882D01*
X2079039Y1144292D01*
Y1149285D01*
X2080619D01*
Y1140000D01*
D02*
G37*
G36*
X2056606Y1152797D02*
X2056762D01*
X2057152Y1152777D01*
X2057562Y1152738D01*
X2057991Y1152660D01*
X2058400Y1152582D01*
X2058595Y1152524D01*
X2058771Y1152465D01*
X2058790D01*
X2058810Y1152446D01*
X2058927Y1152407D01*
X2059083Y1152309D01*
X2059278Y1152172D01*
X2059512Y1152016D01*
X2059746Y1151802D01*
X2059980Y1151548D01*
X2060195Y1151236D01*
X2060215Y1151197D01*
X2060273Y1151080D01*
X2060371Y1150904D01*
X2060468Y1150670D01*
X2060566Y1150378D01*
X2060663Y1150046D01*
X2060722Y1149695D01*
X2060741Y1149305D01*
Y1149285D01*
Y1149246D01*
Y1149168D01*
X2060722Y1149071D01*
Y1148954D01*
X2060702Y1148817D01*
X2060624Y1148505D01*
X2060527Y1148135D01*
X2060371Y1147764D01*
X2060137Y1147374D01*
X2060000Y1147179D01*
X2059844Y1147003D01*
X2059805Y1146964D01*
X2059746Y1146925D01*
X2059688Y1146847D01*
X2059590Y1146788D01*
X2059473Y1146691D01*
X2059337Y1146613D01*
X2059181Y1146515D01*
X2059005Y1146418D01*
X2058790Y1146320D01*
X2058576Y1146223D01*
X2058322Y1146125D01*
X2058069Y1146028D01*
X2057776Y1145950D01*
X2057464Y1145891D01*
X2057132Y1145833D01*
X2057171Y1145813D01*
X2057249Y1145774D01*
X2057366Y1145716D01*
X2057503Y1145638D01*
X2057835Y1145423D01*
X2058010Y1145306D01*
X2058147Y1145189D01*
X2058186Y1145150D01*
X2058283Y1145072D01*
X2058420Y1144916D01*
X2058595Y1144721D01*
X2058810Y1144467D01*
X2059044Y1144174D01*
X2059298Y1143843D01*
X2059551Y1143472D01*
X2061775Y1140000D01*
X2059649D01*
X2057952Y1142653D01*
Y1142673D01*
X2057913Y1142711D01*
X2057874Y1142770D01*
X2057835Y1142848D01*
X2057698Y1143043D01*
X2057523Y1143297D01*
X2057328Y1143589D01*
X2057113Y1143882D01*
X2056918Y1144155D01*
X2056723Y1144409D01*
X2056703Y1144428D01*
X2056645Y1144506D01*
X2056547Y1144623D01*
X2056450Y1144760D01*
X2056157Y1145033D01*
X2056021Y1145169D01*
X2055865Y1145267D01*
X2055845Y1145286D01*
X2055806Y1145306D01*
X2055728Y1145345D01*
X2055630Y1145404D01*
X2055396Y1145520D01*
X2055104Y1145618D01*
X2055084D01*
X2055045Y1145638D01*
X2054967D01*
X2054870Y1145657D01*
X2054733Y1145677D01*
X2054577D01*
X2054382Y1145696D01*
X2052197D01*
Y1140000D01*
X2050500D01*
Y1152816D01*
X2056450D01*
X2056606Y1152797D01*
D02*
G37*
G36*
X2084930Y1149285D02*
X2086510D01*
Y1148056D01*
X2084930D01*
Y1142614D01*
Y1142595D01*
Y1142516D01*
Y1142399D01*
X2084950Y1142263D01*
X2084969Y1141970D01*
X2084989Y1141853D01*
X2085008Y1141756D01*
X2085028Y1141717D01*
X2085067Y1141639D01*
X2085145Y1141541D01*
X2085262Y1141443D01*
X2085301Y1141424D01*
X2085398Y1141404D01*
X2085574Y1141366D01*
X2085808Y1141346D01*
X2086003D01*
X2086101Y1141366D01*
X2086218D01*
X2086510Y1141404D01*
X2086725Y1140020D01*
X2086686D01*
X2086608Y1140000D01*
X2086491Y1139980D01*
X2086315Y1139961D01*
X2086140Y1139922D01*
X2085945Y1139902D01*
X2085535Y1139883D01*
X2085398D01*
X2085242Y1139902D01*
X2085047Y1139922D01*
X2084833Y1139941D01*
X2084599Y1140000D01*
X2084384Y1140059D01*
X2084189Y1140137D01*
X2084169Y1140156D01*
X2084111Y1140195D01*
X2084033Y1140254D01*
X2083935Y1140332D01*
X2083818Y1140429D01*
X2083721Y1140546D01*
X2083604Y1140683D01*
X2083526Y1140839D01*
Y1140858D01*
X2083506Y1140936D01*
X2083467Y1141053D01*
X2083448Y1141248D01*
X2083409Y1141502D01*
X2083389Y1141639D01*
X2083370Y1141814D01*
Y1142009D01*
X2083350Y1142224D01*
Y1142458D01*
Y1142711D01*
Y1148056D01*
X2082180D01*
Y1149285D01*
X2083350D01*
Y1151568D01*
X2084930Y1152524D01*
Y1149285D01*
D02*
G37*
G36*
X2092167Y1149481D02*
X2092323Y1149461D01*
X2092518Y1149442D01*
X2092714Y1149402D01*
X2092948Y1149344D01*
X2093416Y1149188D01*
X2093669Y1149090D01*
X2093923Y1148954D01*
X2094177Y1148817D01*
X2094430Y1148642D01*
X2094664Y1148447D01*
X2094898Y1148213D01*
X2094918Y1148193D01*
X2094957Y1148154D01*
X2095015Y1148076D01*
X2095093Y1147979D01*
X2095172Y1147842D01*
X2095269Y1147686D01*
X2095386Y1147510D01*
X2095503Y1147296D01*
X2095601Y1147042D01*
X2095718Y1146788D01*
X2095815Y1146496D01*
X2095913Y1146164D01*
X2095971Y1145833D01*
X2096030Y1145462D01*
X2096069Y1145072D01*
X2096088Y1144643D01*
Y1144623D01*
Y1144545D01*
Y1144409D01*
X2096069Y1144233D01*
X2089163D01*
Y1144214D01*
Y1144174D01*
X2089183Y1144077D01*
Y1143979D01*
X2089202Y1143843D01*
X2089222Y1143706D01*
X2089300Y1143355D01*
X2089417Y1142985D01*
X2089553Y1142595D01*
X2089768Y1142204D01*
X2090022Y1141873D01*
X2090061Y1141834D01*
X2090158Y1141756D01*
X2090334Y1141619D01*
X2090548Y1141483D01*
X2090841Y1141327D01*
X2091172Y1141190D01*
X2091543Y1141112D01*
X2091953Y1141073D01*
X2092109D01*
X2092265Y1141092D01*
X2092460Y1141131D01*
X2092694Y1141190D01*
X2092948Y1141268D01*
X2093201Y1141366D01*
X2093435Y1141522D01*
X2093455Y1141541D01*
X2093533Y1141619D01*
X2093650Y1141717D01*
X2093786Y1141892D01*
X2093943Y1142087D01*
X2094099Y1142341D01*
X2094255Y1142653D01*
X2094411Y1143004D01*
X2096030Y1142790D01*
Y1142770D01*
X2096010Y1142731D01*
X2095991Y1142653D01*
X2095952Y1142555D01*
X2095913Y1142438D01*
X2095854Y1142302D01*
X2095698Y1141970D01*
X2095503Y1141619D01*
X2095269Y1141248D01*
X2094957Y1140878D01*
X2094606Y1140566D01*
X2094586D01*
X2094567Y1140527D01*
X2094508Y1140488D01*
X2094411Y1140449D01*
X2094313Y1140390D01*
X2094196Y1140312D01*
X2094060Y1140254D01*
X2093884Y1140176D01*
X2093513Y1140039D01*
X2093045Y1139902D01*
X2092538Y1139824D01*
X2091953Y1139785D01*
X2091758D01*
X2091621Y1139805D01*
X2091446Y1139824D01*
X2091250Y1139844D01*
X2091036Y1139883D01*
X2090782Y1139941D01*
X2090275Y1140098D01*
X2090002Y1140195D01*
X2089749Y1140312D01*
X2089475Y1140449D01*
X2089222Y1140624D01*
X2088968Y1140819D01*
X2088734Y1141034D01*
X2088715Y1141053D01*
X2088676Y1141092D01*
X2088617Y1141170D01*
X2088559Y1141268D01*
X2088461Y1141385D01*
X2088363Y1141541D01*
X2088246Y1141736D01*
X2088149Y1141951D01*
X2088032Y1142185D01*
X2087915Y1142438D01*
X2087817Y1142731D01*
X2087739Y1143043D01*
X2087661Y1143375D01*
X2087603Y1143745D01*
X2087564Y1144136D01*
X2087544Y1144545D01*
Y1144565D01*
Y1144643D01*
Y1144779D01*
X2087564Y1144935D01*
X2087583Y1145130D01*
X2087603Y1145365D01*
X2087642Y1145618D01*
X2087700Y1145891D01*
X2087837Y1146476D01*
X2087934Y1146769D01*
X2088051Y1147081D01*
X2088188Y1147374D01*
X2088344Y1147666D01*
X2088519Y1147939D01*
X2088734Y1148193D01*
X2088754Y1148213D01*
X2088793Y1148252D01*
X2088851Y1148310D01*
X2088949Y1148408D01*
X2089066Y1148505D01*
X2089222Y1148603D01*
X2089378Y1148720D01*
X2089573Y1148856D01*
X2089787Y1148973D01*
X2090022Y1149090D01*
X2090275Y1149188D01*
X2090568Y1149305D01*
X2090860Y1149383D01*
X2091172Y1149442D01*
X2091504Y1149481D01*
X2091855Y1149500D01*
X2092031D01*
X2092167Y1149481D01*
D02*
G37*
G36*
X2067257D02*
X2067432Y1149461D01*
X2067608Y1149442D01*
X2067822Y1149402D01*
X2068056Y1149344D01*
X2068544Y1149188D01*
X2068798Y1149090D01*
X2069071Y1148973D01*
X2069324Y1148817D01*
X2069578Y1148642D01*
X2069832Y1148447D01*
X2070066Y1148232D01*
X2070085Y1148213D01*
X2070124Y1148174D01*
X2070183Y1148095D01*
X2070261Y1147998D01*
X2070358Y1147881D01*
X2070456Y1147725D01*
X2070573Y1147530D01*
X2070690Y1147335D01*
X2070788Y1147101D01*
X2070905Y1146827D01*
X2071002Y1146554D01*
X2071100Y1146242D01*
X2071178Y1145911D01*
X2071236Y1145540D01*
X2071275Y1145169D01*
X2071295Y1144760D01*
Y1144740D01*
Y1144682D01*
Y1144584D01*
Y1144467D01*
X2071275Y1144311D01*
Y1144136D01*
X2071256Y1143941D01*
X2071236Y1143726D01*
X2071158Y1143277D01*
X2071061Y1142809D01*
X2070924Y1142341D01*
X2070748Y1141931D01*
Y1141912D01*
X2070729Y1141892D01*
X2070651Y1141756D01*
X2070514Y1141580D01*
X2070339Y1141346D01*
X2070124Y1141092D01*
X2069851Y1140839D01*
X2069539Y1140585D01*
X2069168Y1140351D01*
X2069149D01*
X2069129Y1140332D01*
X2069071Y1140293D01*
X2068993Y1140273D01*
X2068778Y1140176D01*
X2068505Y1140078D01*
X2068174Y1139961D01*
X2067803Y1139883D01*
X2067393Y1139805D01*
X2066945Y1139785D01*
X2066750D01*
X2066613Y1139805D01*
X2066457Y1139824D01*
X2066262Y1139844D01*
X2066047Y1139883D01*
X2065813Y1139941D01*
X2065325Y1140098D01*
X2065052Y1140195D01*
X2064799Y1140312D01*
X2064526Y1140449D01*
X2064272Y1140624D01*
X2064019Y1140819D01*
X2063784Y1141034D01*
X2063765Y1141053D01*
X2063726Y1141092D01*
X2063667Y1141170D01*
X2063609Y1141268D01*
X2063511Y1141404D01*
X2063414Y1141561D01*
X2063297Y1141736D01*
X2063199Y1141951D01*
X2063082Y1142204D01*
X2062965Y1142458D01*
X2062868Y1142770D01*
X2062789Y1143082D01*
X2062711Y1143433D01*
X2062653Y1143804D01*
X2062614Y1144214D01*
X2062594Y1144643D01*
Y1144682D01*
Y1144760D01*
X2062614Y1144896D01*
Y1145072D01*
X2062634Y1145286D01*
X2062672Y1145520D01*
X2062711Y1145794D01*
X2062770Y1146086D01*
X2062848Y1146398D01*
X2062946Y1146711D01*
X2063063Y1147023D01*
X2063199Y1147335D01*
X2063355Y1147647D01*
X2063550Y1147939D01*
X2063765Y1148213D01*
X2064019Y1148466D01*
X2064038Y1148486D01*
X2064077Y1148505D01*
X2064135Y1148564D01*
X2064233Y1148622D01*
X2064350Y1148700D01*
X2064487Y1148798D01*
X2064643Y1148895D01*
X2064838Y1148993D01*
X2065033Y1149071D01*
X2065247Y1149168D01*
X2065755Y1149344D01*
X2066320Y1149461D01*
X2066632Y1149481D01*
X2066945Y1149500D01*
X2067120D01*
X2067257Y1149481D01*
D02*
G37*
G36*
X1683369Y1140500D02*
X1681965D01*
Y1141846D01*
X1681945Y1141826D01*
X1681906Y1141787D01*
X1681848Y1141710D01*
X1681770Y1141612D01*
X1681653Y1141475D01*
X1681516Y1141358D01*
X1681360Y1141202D01*
X1681184Y1141066D01*
X1680989Y1140929D01*
X1680775Y1140773D01*
X1680521Y1140656D01*
X1680267Y1140539D01*
X1679975Y1140422D01*
X1679682Y1140344D01*
X1679351Y1140305D01*
X1679019Y1140285D01*
X1678882D01*
X1678726Y1140305D01*
X1678512Y1140324D01*
X1678278Y1140363D01*
X1678024Y1140422D01*
X1677751Y1140500D01*
X1677478Y1140598D01*
X1677439Y1140617D01*
X1677361Y1140656D01*
X1677244Y1140715D01*
X1677088Y1140812D01*
X1676912Y1140929D01*
X1676737Y1141066D01*
X1676581Y1141202D01*
X1676425Y1141378D01*
X1676405Y1141397D01*
X1676366Y1141456D01*
X1676308Y1141573D01*
X1676249Y1141710D01*
X1676151Y1141885D01*
X1676073Y1142080D01*
X1675995Y1142295D01*
X1675937Y1142548D01*
Y1142568D01*
X1675917Y1142646D01*
Y1142743D01*
X1675898Y1142899D01*
X1675878Y1143114D01*
Y1143368D01*
X1675859Y1143660D01*
Y1144011D01*
Y1149785D01*
X1677439D01*
Y1144616D01*
Y1144596D01*
Y1144557D01*
Y1144499D01*
Y1144421D01*
Y1144206D01*
X1677458Y1143953D01*
Y1143680D01*
X1677478Y1143407D01*
X1677498Y1143153D01*
X1677517Y1142958D01*
Y1142938D01*
X1677556Y1142860D01*
X1677595Y1142743D01*
X1677654Y1142607D01*
X1677731Y1142451D01*
X1677849Y1142275D01*
X1677985Y1142119D01*
X1678141Y1141983D01*
X1678161Y1141963D01*
X1678239Y1141924D01*
X1678336Y1141865D01*
X1678473Y1141807D01*
X1678648Y1141749D01*
X1678844Y1141690D01*
X1679077Y1141651D01*
X1679331Y1141631D01*
X1679448D01*
X1679585Y1141651D01*
X1679760Y1141670D01*
X1679955Y1141710D01*
X1680170Y1141787D01*
X1680404Y1141865D01*
X1680638Y1141983D01*
X1680658Y1142002D01*
X1680736Y1142061D01*
X1680853Y1142139D01*
X1680989Y1142256D01*
X1681126Y1142392D01*
X1681282Y1142568D01*
X1681399Y1142763D01*
X1681516Y1142977D01*
X1681535Y1143016D01*
X1681555Y1143094D01*
X1681594Y1143231D01*
X1681653Y1143446D01*
X1681711Y1143699D01*
X1681750Y1144011D01*
X1681770Y1144382D01*
X1681789Y1144792D01*
Y1149785D01*
X1683369D01*
Y1140500D01*
D02*
G37*
G36*
X1659356Y1153297D02*
X1659512D01*
X1659902Y1153277D01*
X1660312Y1153238D01*
X1660741Y1153160D01*
X1661150Y1153082D01*
X1661346Y1153024D01*
X1661521Y1152965D01*
X1661541D01*
X1661560Y1152946D01*
X1661677Y1152907D01*
X1661833Y1152809D01*
X1662028Y1152673D01*
X1662262Y1152516D01*
X1662496Y1152302D01*
X1662731Y1152048D01*
X1662945Y1151736D01*
X1662965Y1151697D01*
X1663023Y1151580D01*
X1663121Y1151404D01*
X1663218Y1151170D01*
X1663316Y1150878D01*
X1663413Y1150546D01*
X1663472Y1150195D01*
X1663491Y1149805D01*
Y1149785D01*
Y1149746D01*
Y1149668D01*
X1663472Y1149571D01*
Y1149454D01*
X1663452Y1149317D01*
X1663374Y1149005D01*
X1663277Y1148634D01*
X1663121Y1148264D01*
X1662887Y1147874D01*
X1662750Y1147679D01*
X1662594Y1147503D01*
X1662555Y1147464D01*
X1662496Y1147425D01*
X1662438Y1147347D01*
X1662340Y1147289D01*
X1662223Y1147191D01*
X1662087Y1147113D01*
X1661931Y1147015D01*
X1661755Y1146918D01*
X1661541Y1146820D01*
X1661326Y1146723D01*
X1661072Y1146625D01*
X1660819Y1146528D01*
X1660526Y1146450D01*
X1660214Y1146391D01*
X1659883Y1146333D01*
X1659922Y1146313D01*
X1660000Y1146274D01*
X1660116Y1146216D01*
X1660253Y1146138D01*
X1660585Y1145923D01*
X1660760Y1145806D01*
X1660897Y1145689D01*
X1660936Y1145650D01*
X1661033Y1145572D01*
X1661170Y1145416D01*
X1661346Y1145221D01*
X1661560Y1144967D01*
X1661794Y1144675D01*
X1662048Y1144343D01*
X1662301Y1143972D01*
X1664525Y1140500D01*
X1662399D01*
X1660702Y1143153D01*
Y1143173D01*
X1660663Y1143212D01*
X1660624Y1143270D01*
X1660585Y1143348D01*
X1660448Y1143543D01*
X1660273Y1143797D01*
X1660078Y1144089D01*
X1659863Y1144382D01*
X1659668Y1144655D01*
X1659473Y1144909D01*
X1659453Y1144928D01*
X1659395Y1145006D01*
X1659297Y1145123D01*
X1659200Y1145260D01*
X1658907Y1145533D01*
X1658770Y1145669D01*
X1658615Y1145767D01*
X1658595Y1145787D01*
X1658556Y1145806D01*
X1658478Y1145845D01*
X1658380Y1145903D01*
X1658146Y1146021D01*
X1657854Y1146118D01*
X1657834D01*
X1657795Y1146138D01*
X1657717D01*
X1657620Y1146157D01*
X1657483Y1146177D01*
X1657327D01*
X1657132Y1146196D01*
X1654947D01*
Y1140500D01*
X1653250D01*
Y1153316D01*
X1659200D01*
X1659356Y1153297D01*
D02*
G37*
G36*
X1687680Y1149785D02*
X1689260D01*
Y1148557D01*
X1687680D01*
Y1143114D01*
Y1143094D01*
Y1143016D01*
Y1142899D01*
X1687700Y1142763D01*
X1687719Y1142470D01*
X1687739Y1142353D01*
X1687758Y1142256D01*
X1687778Y1142217D01*
X1687817Y1142139D01*
X1687895Y1142041D01*
X1688012Y1141944D01*
X1688051Y1141924D01*
X1688148Y1141905D01*
X1688324Y1141865D01*
X1688558Y1141846D01*
X1688753D01*
X1688851Y1141865D01*
X1688968D01*
X1689260Y1141905D01*
X1689475Y1140519D01*
X1689436D01*
X1689358Y1140500D01*
X1689241Y1140480D01*
X1689065Y1140461D01*
X1688890Y1140422D01*
X1688695Y1140403D01*
X1688285Y1140383D01*
X1688148D01*
X1687992Y1140403D01*
X1687797Y1140422D01*
X1687583Y1140442D01*
X1687349Y1140500D01*
X1687134Y1140558D01*
X1686939Y1140637D01*
X1686919Y1140656D01*
X1686861Y1140695D01*
X1686783Y1140754D01*
X1686685Y1140832D01*
X1686568Y1140929D01*
X1686471Y1141046D01*
X1686354Y1141183D01*
X1686276Y1141339D01*
Y1141358D01*
X1686256Y1141436D01*
X1686217Y1141553D01*
X1686198Y1141749D01*
X1686159Y1142002D01*
X1686139Y1142139D01*
X1686120Y1142314D01*
Y1142509D01*
X1686100Y1142724D01*
Y1142958D01*
Y1143212D01*
Y1148557D01*
X1684930D01*
Y1149785D01*
X1686100D01*
Y1152068D01*
X1687680Y1153024D01*
Y1149785D01*
D02*
G37*
G36*
X1694917Y1149980D02*
X1695073Y1149961D01*
X1695269Y1149941D01*
X1695464Y1149902D01*
X1695698Y1149844D01*
X1696166Y1149688D01*
X1696419Y1149590D01*
X1696673Y1149454D01*
X1696927Y1149317D01*
X1697180Y1149142D01*
X1697414Y1148947D01*
X1697648Y1148712D01*
X1697668Y1148693D01*
X1697707Y1148654D01*
X1697765Y1148576D01*
X1697843Y1148478D01*
X1697921Y1148342D01*
X1698019Y1148186D01*
X1698136Y1148010D01*
X1698253Y1147796D01*
X1698351Y1147542D01*
X1698468Y1147289D01*
X1698565Y1146996D01*
X1698663Y1146664D01*
X1698721Y1146333D01*
X1698780Y1145962D01*
X1698819Y1145572D01*
X1698838Y1145143D01*
Y1145123D01*
Y1145045D01*
Y1144909D01*
X1698819Y1144733D01*
X1691913D01*
Y1144714D01*
Y1144675D01*
X1691933Y1144577D01*
Y1144480D01*
X1691952Y1144343D01*
X1691972Y1144206D01*
X1692050Y1143855D01*
X1692167Y1143485D01*
X1692303Y1143094D01*
X1692518Y1142704D01*
X1692772Y1142373D01*
X1692811Y1142334D01*
X1692908Y1142256D01*
X1693084Y1142119D01*
X1693298Y1141983D01*
X1693591Y1141826D01*
X1693922Y1141690D01*
X1694293Y1141612D01*
X1694703Y1141573D01*
X1694859D01*
X1695015Y1141592D01*
X1695210Y1141631D01*
X1695444Y1141690D01*
X1695698Y1141768D01*
X1695951Y1141865D01*
X1696185Y1142022D01*
X1696205Y1142041D01*
X1696283Y1142119D01*
X1696400Y1142217D01*
X1696537Y1142392D01*
X1696693Y1142587D01*
X1696849Y1142841D01*
X1697005Y1143153D01*
X1697161Y1143504D01*
X1698780Y1143289D01*
Y1143270D01*
X1698760Y1143231D01*
X1698741Y1143153D01*
X1698702Y1143055D01*
X1698663Y1142938D01*
X1698604Y1142802D01*
X1698448Y1142470D01*
X1698253Y1142119D01*
X1698019Y1141749D01*
X1697707Y1141378D01*
X1697356Y1141066D01*
X1697336D01*
X1697317Y1141027D01*
X1697258Y1140988D01*
X1697161Y1140949D01*
X1697063Y1140890D01*
X1696946Y1140812D01*
X1696810Y1140754D01*
X1696634Y1140676D01*
X1696263Y1140539D01*
X1695795Y1140403D01*
X1695288Y1140324D01*
X1694703Y1140285D01*
X1694508D01*
X1694371Y1140305D01*
X1694196Y1140324D01*
X1694001Y1140344D01*
X1693786Y1140383D01*
X1693532Y1140442D01*
X1693025Y1140598D01*
X1692752Y1140695D01*
X1692498Y1140812D01*
X1692225Y1140949D01*
X1691972Y1141124D01*
X1691718Y1141319D01*
X1691484Y1141534D01*
X1691465Y1141553D01*
X1691426Y1141592D01*
X1691367Y1141670D01*
X1691309Y1141768D01*
X1691211Y1141885D01*
X1691113Y1142041D01*
X1690996Y1142236D01*
X1690899Y1142451D01*
X1690782Y1142685D01*
X1690665Y1142938D01*
X1690567Y1143231D01*
X1690489Y1143543D01*
X1690411Y1143875D01*
X1690353Y1144245D01*
X1690314Y1144635D01*
X1690294Y1145045D01*
Y1145065D01*
Y1145143D01*
Y1145279D01*
X1690314Y1145435D01*
X1690333Y1145630D01*
X1690353Y1145864D01*
X1690392Y1146118D01*
X1690450Y1146391D01*
X1690587Y1146976D01*
X1690684Y1147269D01*
X1690801Y1147581D01*
X1690938Y1147874D01*
X1691094Y1148166D01*
X1691270Y1148439D01*
X1691484Y1148693D01*
X1691504Y1148712D01*
X1691543Y1148752D01*
X1691601Y1148810D01*
X1691699Y1148908D01*
X1691816Y1149005D01*
X1691972Y1149103D01*
X1692128Y1149220D01*
X1692323Y1149356D01*
X1692538Y1149473D01*
X1692772Y1149590D01*
X1693025Y1149688D01*
X1693318Y1149805D01*
X1693610Y1149883D01*
X1693922Y1149941D01*
X1694254Y1149980D01*
X1694605Y1150000D01*
X1694781D01*
X1694917Y1149980D01*
D02*
G37*
G36*
X1670007D02*
X1670182Y1149961D01*
X1670358Y1149941D01*
X1670572Y1149902D01*
X1670806Y1149844D01*
X1671294Y1149688D01*
X1671548Y1149590D01*
X1671821Y1149473D01*
X1672074Y1149317D01*
X1672328Y1149142D01*
X1672582Y1148947D01*
X1672816Y1148732D01*
X1672835Y1148712D01*
X1672874Y1148673D01*
X1672933Y1148596D01*
X1673011Y1148498D01*
X1673108Y1148381D01*
X1673206Y1148225D01*
X1673323Y1148030D01*
X1673440Y1147835D01*
X1673537Y1147601D01*
X1673654Y1147327D01*
X1673752Y1147054D01*
X1673850Y1146742D01*
X1673928Y1146411D01*
X1673986Y1146040D01*
X1674025Y1145669D01*
X1674045Y1145260D01*
Y1145240D01*
Y1145182D01*
Y1145084D01*
Y1144967D01*
X1674025Y1144811D01*
Y1144635D01*
X1674006Y1144441D01*
X1673986Y1144226D01*
X1673908Y1143777D01*
X1673811Y1143309D01*
X1673674Y1142841D01*
X1673499Y1142431D01*
Y1142412D01*
X1673479Y1142392D01*
X1673401Y1142256D01*
X1673264Y1142080D01*
X1673089Y1141846D01*
X1672874Y1141592D01*
X1672601Y1141339D01*
X1672289Y1141085D01*
X1671918Y1140851D01*
X1671899D01*
X1671879Y1140832D01*
X1671821Y1140793D01*
X1671743Y1140773D01*
X1671528Y1140676D01*
X1671255Y1140578D01*
X1670923Y1140461D01*
X1670553Y1140383D01*
X1670143Y1140305D01*
X1669695Y1140285D01*
X1669500D01*
X1669363Y1140305D01*
X1669207Y1140324D01*
X1669012Y1140344D01*
X1668797Y1140383D01*
X1668563Y1140442D01*
X1668076Y1140598D01*
X1667802Y1140695D01*
X1667549Y1140812D01*
X1667276Y1140949D01*
X1667022Y1141124D01*
X1666768Y1141319D01*
X1666534Y1141534D01*
X1666515Y1141553D01*
X1666476Y1141592D01*
X1666417Y1141670D01*
X1666359Y1141768D01*
X1666261Y1141905D01*
X1666164Y1142061D01*
X1666047Y1142236D01*
X1665949Y1142451D01*
X1665832Y1142704D01*
X1665715Y1142958D01*
X1665618Y1143270D01*
X1665540Y1143582D01*
X1665461Y1143933D01*
X1665403Y1144304D01*
X1665364Y1144714D01*
X1665345Y1145143D01*
Y1145182D01*
Y1145260D01*
X1665364Y1145396D01*
Y1145572D01*
X1665383Y1145787D01*
X1665423Y1146021D01*
X1665461Y1146294D01*
X1665520Y1146586D01*
X1665598Y1146898D01*
X1665696Y1147210D01*
X1665813Y1147523D01*
X1665949Y1147835D01*
X1666105Y1148147D01*
X1666300Y1148439D01*
X1666515Y1148712D01*
X1666768Y1148966D01*
X1666788Y1148986D01*
X1666827Y1149005D01*
X1666886Y1149064D01*
X1666983Y1149122D01*
X1667100Y1149200D01*
X1667237Y1149298D01*
X1667393Y1149395D01*
X1667588Y1149493D01*
X1667783Y1149571D01*
X1667997Y1149668D01*
X1668505Y1149844D01*
X1669070Y1149961D01*
X1669382Y1149980D01*
X1669695Y1150000D01*
X1669870D01*
X1670007Y1149980D01*
D02*
G37*
G36*
X1221017Y1237069D02*
Y1230163D01*
X1221036D01*
X1221076D01*
X1221173Y1230183D01*
X1221271D01*
X1221407Y1230202D01*
X1221544Y1230222D01*
X1221895Y1230300D01*
X1222265Y1230417D01*
X1222655Y1230553D01*
X1223046Y1230768D01*
X1223377Y1231022D01*
X1223416Y1231061D01*
X1223494Y1231158D01*
X1223631Y1231334D01*
X1223767Y1231548D01*
X1223923Y1231841D01*
X1224060Y1232172D01*
X1224138Y1232543D01*
X1224177Y1232953D01*
Y1233109D01*
X1224158Y1233265D01*
X1224119Y1233460D01*
X1224060Y1233694D01*
X1223982Y1233948D01*
X1223885Y1234201D01*
X1223728Y1234435D01*
X1223709Y1234455D01*
X1223631Y1234533D01*
X1223533Y1234650D01*
X1223358Y1234787D01*
X1223163Y1234942D01*
X1222909Y1235099D01*
X1222597Y1235255D01*
X1222246Y1235411D01*
X1222460Y1237030D01*
X1222480D01*
X1222519Y1237010D01*
X1222597Y1236991D01*
X1222695Y1236952D01*
X1222812Y1236913D01*
X1222948Y1236854D01*
X1223280Y1236698D01*
X1223631Y1236503D01*
X1224001Y1236269D01*
X1224372Y1235957D01*
X1224684Y1235606D01*
Y1235586D01*
X1224723Y1235567D01*
X1224762Y1235508D01*
X1224801Y1235411D01*
X1224860Y1235313D01*
X1224938Y1235196D01*
X1224996Y1235060D01*
X1225074Y1234884D01*
X1225211Y1234513D01*
X1225348Y1234045D01*
X1225426Y1233538D01*
X1225465Y1232953D01*
Y1232758D01*
X1225445Y1232621D01*
X1225426Y1232446D01*
X1225406Y1232251D01*
X1225367Y1232036D01*
X1225309Y1231782D01*
X1225153Y1231275D01*
X1225055Y1231002D01*
X1224938Y1230749D01*
X1224801Y1230475D01*
X1224626Y1230222D01*
X1224431Y1229968D01*
X1224216Y1229734D01*
X1224197Y1229715D01*
X1224158Y1229676D01*
X1224080Y1229617D01*
X1223982Y1229559D01*
X1223865Y1229461D01*
X1223709Y1229363D01*
X1223514Y1229246D01*
X1223299Y1229149D01*
X1223065Y1229032D01*
X1222812Y1228915D01*
X1222519Y1228817D01*
X1222207Y1228739D01*
X1221875Y1228661D01*
X1221505Y1228603D01*
X1221115Y1228564D01*
X1220705Y1228544D01*
X1220685D01*
X1220607D01*
X1220471D01*
X1220315Y1228564D01*
X1220120Y1228583D01*
X1219885Y1228603D01*
X1219632Y1228642D01*
X1219359Y1228700D01*
X1218774Y1228837D01*
X1218481Y1228934D01*
X1218169Y1229051D01*
X1217876Y1229188D01*
X1217584Y1229344D01*
X1217311Y1229520D01*
X1217057Y1229734D01*
X1217038Y1229754D01*
X1216999Y1229793D01*
X1216940Y1229851D01*
X1216842Y1229949D01*
X1216745Y1230066D01*
X1216647Y1230222D01*
X1216530Y1230378D01*
X1216394Y1230573D01*
X1216277Y1230788D01*
X1216160Y1231022D01*
X1216062Y1231275D01*
X1215945Y1231568D01*
X1215867Y1231860D01*
X1215808Y1232172D01*
X1215770Y1232504D01*
X1215750Y1232855D01*
Y1233031D01*
X1215770Y1233167D01*
X1215789Y1233323D01*
X1215808Y1233519D01*
X1215847Y1233714D01*
X1215906Y1233948D01*
X1216062Y1234416D01*
X1216160Y1234669D01*
X1216296Y1234923D01*
X1216433Y1235177D01*
X1216608Y1235430D01*
X1216803Y1235664D01*
X1217038Y1235898D01*
X1217057Y1235918D01*
X1217096Y1235957D01*
X1217174Y1236015D01*
X1217272Y1236094D01*
X1217408Y1236171D01*
X1217564Y1236269D01*
X1217740Y1236386D01*
X1217954Y1236503D01*
X1218208Y1236601D01*
X1218462Y1236718D01*
X1218754Y1236815D01*
X1219086Y1236913D01*
X1219417Y1236971D01*
X1219788Y1237030D01*
X1220178Y1237069D01*
X1220607Y1237088D01*
X1220627D01*
X1220705D01*
X1220841D01*
X1221017Y1237069D01*
D02*
G37*
G36*
X1225230Y1227686D02*
X1225250Y1227608D01*
X1225269Y1227491D01*
X1225289Y1227315D01*
X1225328Y1227140D01*
X1225348Y1226945D01*
X1225367Y1226535D01*
Y1226398D01*
X1225348Y1226242D01*
X1225328Y1226047D01*
X1225309Y1225833D01*
X1225250Y1225599D01*
X1225191Y1225384D01*
X1225114Y1225189D01*
X1225094Y1225169D01*
X1225055Y1225111D01*
X1224996Y1225033D01*
X1224918Y1224935D01*
X1224821Y1224818D01*
X1224704Y1224721D01*
X1224567Y1224604D01*
X1224411Y1224526D01*
X1224392D01*
X1224314Y1224506D01*
X1224197Y1224467D01*
X1224001Y1224448D01*
X1223748Y1224409D01*
X1223611Y1224389D01*
X1223436Y1224370D01*
X1223241D01*
X1223026Y1224350D01*
X1222792D01*
X1222539D01*
X1217194D01*
Y1223180D01*
X1215965D01*
Y1224350D01*
X1213682D01*
X1212726Y1225930D01*
X1215965D01*
Y1227510D01*
X1217194D01*
Y1225930D01*
X1222636D01*
X1222655D01*
X1222734D01*
X1222851D01*
X1222987Y1225950D01*
X1223280Y1225969D01*
X1223397Y1225989D01*
X1223494Y1226008D01*
X1223533Y1226028D01*
X1223611Y1226067D01*
X1223709Y1226145D01*
X1223807Y1226262D01*
X1223826Y1226301D01*
X1223846Y1226398D01*
X1223885Y1226574D01*
X1223904Y1226808D01*
Y1227003D01*
X1223885Y1227101D01*
Y1227218D01*
X1223846Y1227510D01*
X1225230Y1227725D01*
Y1227686D01*
D02*
G37*
G36*
X1225250Y1220215D02*
X1223904D01*
X1223923Y1220195D01*
X1223962Y1220156D01*
X1224041Y1220098D01*
X1224138Y1220020D01*
X1224275Y1219902D01*
X1224392Y1219766D01*
X1224548Y1219610D01*
X1224684Y1219434D01*
X1224821Y1219239D01*
X1224977Y1219025D01*
X1225094Y1218771D01*
X1225211Y1218518D01*
X1225328Y1218225D01*
X1225406Y1217932D01*
X1225445Y1217601D01*
X1225465Y1217269D01*
Y1217132D01*
X1225445Y1216976D01*
X1225426Y1216762D01*
X1225387Y1216528D01*
X1225328Y1216274D01*
X1225250Y1216001D01*
X1225153Y1215728D01*
X1225133Y1215689D01*
X1225094Y1215611D01*
X1225035Y1215494D01*
X1224938Y1215338D01*
X1224821Y1215162D01*
X1224684Y1214987D01*
X1224548Y1214831D01*
X1224372Y1214675D01*
X1224353Y1214655D01*
X1224294Y1214616D01*
X1224177Y1214557D01*
X1224041Y1214499D01*
X1223865Y1214401D01*
X1223670Y1214323D01*
X1223455Y1214245D01*
X1223202Y1214187D01*
X1223182D01*
X1223104Y1214167D01*
X1223007D01*
X1222851Y1214148D01*
X1222636Y1214128D01*
X1222382D01*
X1222090Y1214109D01*
X1221739D01*
X1215965D01*
Y1215689D01*
X1221134D01*
X1221153D01*
X1221192D01*
X1221251D01*
X1221329D01*
X1221544D01*
X1221797Y1215708D01*
X1222070D01*
X1222343Y1215728D01*
X1222597Y1215748D01*
X1222792Y1215767D01*
X1222812D01*
X1222890Y1215806D01*
X1223007Y1215845D01*
X1223143Y1215903D01*
X1223299Y1215982D01*
X1223475Y1216099D01*
X1223631Y1216235D01*
X1223767Y1216391D01*
X1223787Y1216411D01*
X1223826Y1216489D01*
X1223885Y1216586D01*
X1223943Y1216723D01*
X1224001Y1216898D01*
X1224060Y1217094D01*
X1224099Y1217327D01*
X1224119Y1217581D01*
Y1217698D01*
X1224099Y1217835D01*
X1224080Y1218010D01*
X1224041Y1218205D01*
X1223962Y1218420D01*
X1223885Y1218654D01*
X1223767Y1218888D01*
X1223748Y1218908D01*
X1223689Y1218986D01*
X1223611Y1219103D01*
X1223494Y1219239D01*
X1223358Y1219376D01*
X1223182Y1219532D01*
X1222987Y1219649D01*
X1222773Y1219766D01*
X1222734Y1219785D01*
X1222655Y1219805D01*
X1222519Y1219844D01*
X1222304Y1219902D01*
X1222051Y1219961D01*
X1221739Y1220000D01*
X1221368Y1220020D01*
X1220958Y1220039D01*
X1215965D01*
Y1221619D01*
X1225250D01*
Y1220215D01*
D02*
G37*
G36*
X1220939Y1212275D02*
X1221115D01*
X1221310Y1212256D01*
X1221524Y1212236D01*
X1221973Y1212158D01*
X1222441Y1212061D01*
X1222909Y1211924D01*
X1223319Y1211749D01*
X1223338D01*
X1223358Y1211729D01*
X1223494Y1211651D01*
X1223670Y1211514D01*
X1223904Y1211339D01*
X1224158Y1211124D01*
X1224411Y1210851D01*
X1224665Y1210539D01*
X1224899Y1210168D01*
Y1210149D01*
X1224918Y1210129D01*
X1224957Y1210071D01*
X1224977Y1209993D01*
X1225074Y1209778D01*
X1225172Y1209505D01*
X1225289Y1209174D01*
X1225367Y1208803D01*
X1225445Y1208393D01*
X1225465Y1207945D01*
Y1207749D01*
X1225445Y1207613D01*
X1225426Y1207457D01*
X1225406Y1207262D01*
X1225367Y1207047D01*
X1225309Y1206813D01*
X1225153Y1206326D01*
X1225055Y1206052D01*
X1224938Y1205799D01*
X1224801Y1205526D01*
X1224626Y1205272D01*
X1224431Y1205018D01*
X1224216Y1204784D01*
X1224197Y1204765D01*
X1224158Y1204726D01*
X1224080Y1204667D01*
X1223982Y1204609D01*
X1223846Y1204511D01*
X1223689Y1204414D01*
X1223514Y1204297D01*
X1223299Y1204199D01*
X1223046Y1204082D01*
X1222792Y1203965D01*
X1222480Y1203868D01*
X1222168Y1203790D01*
X1221817Y1203711D01*
X1221446Y1203653D01*
X1221036Y1203614D01*
X1220607Y1203595D01*
X1220568D01*
X1220490D01*
X1220354Y1203614D01*
X1220178D01*
X1219964Y1203633D01*
X1219730Y1203672D01*
X1219456Y1203711D01*
X1219164Y1203770D01*
X1218852Y1203848D01*
X1218540Y1203946D01*
X1218227Y1204063D01*
X1217915Y1204199D01*
X1217603Y1204355D01*
X1217311Y1204550D01*
X1217038Y1204765D01*
X1216784Y1205018D01*
X1216764Y1205038D01*
X1216745Y1205077D01*
X1216686Y1205135D01*
X1216628Y1205233D01*
X1216550Y1205350D01*
X1216452Y1205487D01*
X1216355Y1205643D01*
X1216257Y1205838D01*
X1216179Y1206033D01*
X1216082Y1206247D01*
X1215906Y1206755D01*
X1215789Y1207320D01*
X1215770Y1207633D01*
X1215750Y1207945D01*
Y1208120D01*
X1215770Y1208257D01*
X1215789Y1208432D01*
X1215808Y1208608D01*
X1215847Y1208822D01*
X1215906Y1209056D01*
X1216062Y1209544D01*
X1216160Y1209798D01*
X1216277Y1210071D01*
X1216433Y1210324D01*
X1216608Y1210578D01*
X1216803Y1210832D01*
X1217018Y1211066D01*
X1217038Y1211085D01*
X1217076Y1211124D01*
X1217154Y1211183D01*
X1217252Y1211261D01*
X1217369Y1211358D01*
X1217525Y1211456D01*
X1217720Y1211573D01*
X1217915Y1211690D01*
X1218149Y1211787D01*
X1218422Y1211905D01*
X1218696Y1212002D01*
X1219008Y1212100D01*
X1219339Y1212178D01*
X1219710Y1212236D01*
X1220081Y1212275D01*
X1220490Y1212295D01*
X1220510D01*
X1220568D01*
X1220666D01*
X1220783D01*
X1220939Y1212275D01*
D02*
G37*
G36*
X1225250Y1200649D02*
X1222597Y1198952D01*
X1222578D01*
X1222539Y1198913D01*
X1222480Y1198874D01*
X1222402Y1198835D01*
X1222207Y1198698D01*
X1221953Y1198523D01*
X1221661Y1198327D01*
X1221368Y1198113D01*
X1221095Y1197918D01*
X1220841Y1197723D01*
X1220822Y1197703D01*
X1220744Y1197645D01*
X1220627Y1197547D01*
X1220490Y1197450D01*
X1220217Y1197157D01*
X1220081Y1197020D01*
X1219983Y1196864D01*
X1219964Y1196845D01*
X1219944Y1196806D01*
X1219905Y1196728D01*
X1219846Y1196630D01*
X1219730Y1196396D01*
X1219632Y1196104D01*
Y1196084D01*
X1219612Y1196045D01*
Y1195967D01*
X1219593Y1195870D01*
X1219573Y1195733D01*
Y1195577D01*
X1219554Y1195382D01*
Y1193197D01*
X1225250D01*
Y1191500D01*
X1212434D01*
Y1197450D01*
X1212453Y1197606D01*
Y1197762D01*
X1212473Y1198152D01*
X1212512Y1198562D01*
X1212590Y1198991D01*
X1212668Y1199400D01*
X1212726Y1199595D01*
X1212785Y1199771D01*
Y1199791D01*
X1212804Y1199810D01*
X1212843Y1199927D01*
X1212941Y1200083D01*
X1213077Y1200278D01*
X1213234Y1200512D01*
X1213448Y1200746D01*
X1213702Y1200981D01*
X1214014Y1201195D01*
X1214053Y1201215D01*
X1214170Y1201273D01*
X1214345Y1201371D01*
X1214580Y1201468D01*
X1214872Y1201566D01*
X1215204Y1201663D01*
X1215555Y1201722D01*
X1215945Y1201741D01*
X1215965D01*
X1216004D01*
X1216082D01*
X1216179Y1201722D01*
X1216296D01*
X1216433Y1201702D01*
X1216745Y1201624D01*
X1217115Y1201527D01*
X1217486Y1201371D01*
X1217876Y1201137D01*
X1218071Y1201000D01*
X1218247Y1200844D01*
X1218286Y1200805D01*
X1218325Y1200746D01*
X1218403Y1200688D01*
X1218462Y1200590D01*
X1218559Y1200473D01*
X1218637Y1200337D01*
X1218735Y1200181D01*
X1218832Y1200005D01*
X1218930Y1199791D01*
X1219027Y1199576D01*
X1219125Y1199322D01*
X1219222Y1199069D01*
X1219300Y1198776D01*
X1219359Y1198464D01*
X1219417Y1198132D01*
X1219437Y1198171D01*
X1219476Y1198250D01*
X1219534Y1198366D01*
X1219612Y1198503D01*
X1219827Y1198835D01*
X1219944Y1199010D01*
X1220061Y1199147D01*
X1220100Y1199186D01*
X1220178Y1199283D01*
X1220334Y1199420D01*
X1220529Y1199595D01*
X1220783Y1199810D01*
X1221076Y1200044D01*
X1221407Y1200298D01*
X1221778Y1200551D01*
X1225250Y1202775D01*
Y1200649D01*
D02*
G37*
G36*
X1217267Y1570069D02*
Y1563163D01*
X1217286D01*
X1217326D01*
X1217423Y1563183D01*
X1217521D01*
X1217657Y1563202D01*
X1217794Y1563222D01*
X1218145Y1563300D01*
X1218515Y1563417D01*
X1218905Y1563553D01*
X1219296Y1563768D01*
X1219627Y1564022D01*
X1219666Y1564061D01*
X1219744Y1564158D01*
X1219881Y1564334D01*
X1220017Y1564548D01*
X1220173Y1564841D01*
X1220310Y1565172D01*
X1220388Y1565543D01*
X1220427Y1565953D01*
Y1566109D01*
X1220408Y1566265D01*
X1220369Y1566460D01*
X1220310Y1566694D01*
X1220232Y1566948D01*
X1220135Y1567201D01*
X1219978Y1567435D01*
X1219959Y1567455D01*
X1219881Y1567533D01*
X1219783Y1567650D01*
X1219608Y1567787D01*
X1219413Y1567943D01*
X1219159Y1568099D01*
X1218847Y1568255D01*
X1218496Y1568411D01*
X1218710Y1570030D01*
X1218730D01*
X1218769Y1570010D01*
X1218847Y1569991D01*
X1218945Y1569952D01*
X1219062Y1569913D01*
X1219198Y1569854D01*
X1219530Y1569698D01*
X1219881Y1569503D01*
X1220251Y1569269D01*
X1220622Y1568957D01*
X1220934Y1568606D01*
Y1568586D01*
X1220973Y1568567D01*
X1221012Y1568508D01*
X1221051Y1568411D01*
X1221110Y1568313D01*
X1221188Y1568196D01*
X1221246Y1568060D01*
X1221324Y1567884D01*
X1221461Y1567513D01*
X1221598Y1567045D01*
X1221676Y1566538D01*
X1221715Y1565953D01*
Y1565758D01*
X1221695Y1565621D01*
X1221676Y1565446D01*
X1221656Y1565251D01*
X1221617Y1565036D01*
X1221559Y1564782D01*
X1221403Y1564275D01*
X1221305Y1564002D01*
X1221188Y1563748D01*
X1221051Y1563475D01*
X1220876Y1563222D01*
X1220681Y1562968D01*
X1220466Y1562734D01*
X1220447Y1562715D01*
X1220408Y1562676D01*
X1220330Y1562617D01*
X1220232Y1562558D01*
X1220115Y1562461D01*
X1219959Y1562363D01*
X1219764Y1562246D01*
X1219549Y1562149D01*
X1219315Y1562032D01*
X1219062Y1561915D01*
X1218769Y1561817D01*
X1218457Y1561739D01*
X1218125Y1561661D01*
X1217755Y1561603D01*
X1217365Y1561564D01*
X1216955Y1561544D01*
X1216935D01*
X1216857D01*
X1216721D01*
X1216565Y1561564D01*
X1216370Y1561583D01*
X1216135Y1561603D01*
X1215882Y1561642D01*
X1215609Y1561700D01*
X1215024Y1561837D01*
X1214731Y1561934D01*
X1214419Y1562051D01*
X1214126Y1562188D01*
X1213834Y1562344D01*
X1213561Y1562520D01*
X1213307Y1562734D01*
X1213288Y1562754D01*
X1213248Y1562793D01*
X1213190Y1562851D01*
X1213092Y1562949D01*
X1212995Y1563066D01*
X1212897Y1563222D01*
X1212780Y1563378D01*
X1212644Y1563573D01*
X1212527Y1563788D01*
X1212410Y1564022D01*
X1212312Y1564275D01*
X1212195Y1564568D01*
X1212117Y1564860D01*
X1212058Y1565172D01*
X1212020Y1565504D01*
X1212000Y1565855D01*
Y1566031D01*
X1212020Y1566167D01*
X1212039Y1566323D01*
X1212058Y1566519D01*
X1212097Y1566714D01*
X1212156Y1566948D01*
X1212312Y1567416D01*
X1212410Y1567669D01*
X1212546Y1567923D01*
X1212683Y1568177D01*
X1212858Y1568430D01*
X1213053Y1568664D01*
X1213288Y1568898D01*
X1213307Y1568918D01*
X1213346Y1568957D01*
X1213424Y1569015D01*
X1213522Y1569093D01*
X1213658Y1569171D01*
X1213814Y1569269D01*
X1213990Y1569386D01*
X1214204Y1569503D01*
X1214458Y1569601D01*
X1214712Y1569718D01*
X1215004Y1569815D01*
X1215336Y1569913D01*
X1215667Y1569971D01*
X1216038Y1570030D01*
X1216428Y1570069D01*
X1216857Y1570088D01*
X1216877D01*
X1216955D01*
X1217091D01*
X1217267Y1570069D01*
D02*
G37*
G36*
X1221480Y1560686D02*
X1221500Y1560608D01*
X1221519Y1560491D01*
X1221539Y1560315D01*
X1221578Y1560140D01*
X1221598Y1559945D01*
X1221617Y1559535D01*
Y1559398D01*
X1221598Y1559242D01*
X1221578Y1559047D01*
X1221559Y1558833D01*
X1221500Y1558599D01*
X1221441Y1558384D01*
X1221363Y1558189D01*
X1221344Y1558169D01*
X1221305Y1558111D01*
X1221246Y1558033D01*
X1221168Y1557935D01*
X1221071Y1557818D01*
X1220954Y1557721D01*
X1220817Y1557604D01*
X1220661Y1557526D01*
X1220642D01*
X1220564Y1557506D01*
X1220447Y1557467D01*
X1220251Y1557448D01*
X1219998Y1557409D01*
X1219861Y1557389D01*
X1219686Y1557370D01*
X1219491D01*
X1219276Y1557350D01*
X1219042D01*
X1218789D01*
X1213444D01*
Y1556180D01*
X1212215D01*
Y1557350D01*
X1209932D01*
X1208976Y1558930D01*
X1212215D01*
Y1560510D01*
X1213444D01*
Y1558930D01*
X1218886D01*
X1218905D01*
X1218984D01*
X1219101D01*
X1219237Y1558950D01*
X1219530Y1558969D01*
X1219647Y1558989D01*
X1219744Y1559008D01*
X1219783Y1559028D01*
X1219861Y1559067D01*
X1219959Y1559145D01*
X1220057Y1559262D01*
X1220076Y1559301D01*
X1220096Y1559398D01*
X1220135Y1559574D01*
X1220154Y1559808D01*
Y1560003D01*
X1220135Y1560101D01*
Y1560218D01*
X1220096Y1560510D01*
X1221480Y1560725D01*
Y1560686D01*
D02*
G37*
G36*
X1221500Y1553215D02*
X1220154D01*
X1220173Y1553195D01*
X1220212Y1553156D01*
X1220291Y1553098D01*
X1220388Y1553020D01*
X1220525Y1552903D01*
X1220642Y1552766D01*
X1220798Y1552610D01*
X1220934Y1552434D01*
X1221071Y1552239D01*
X1221227Y1552025D01*
X1221344Y1551771D01*
X1221461Y1551517D01*
X1221578Y1551225D01*
X1221656Y1550932D01*
X1221695Y1550601D01*
X1221715Y1550269D01*
Y1550132D01*
X1221695Y1549976D01*
X1221676Y1549762D01*
X1221637Y1549528D01*
X1221578Y1549274D01*
X1221500Y1549001D01*
X1221403Y1548728D01*
X1221383Y1548689D01*
X1221344Y1548611D01*
X1221285Y1548494D01*
X1221188Y1548338D01*
X1221071Y1548162D01*
X1220934Y1547987D01*
X1220798Y1547831D01*
X1220622Y1547675D01*
X1220603Y1547655D01*
X1220544Y1547616D01*
X1220427Y1547558D01*
X1220291Y1547499D01*
X1220115Y1547401D01*
X1219920Y1547323D01*
X1219705Y1547245D01*
X1219452Y1547187D01*
X1219432D01*
X1219354Y1547167D01*
X1219257D01*
X1219101Y1547148D01*
X1218886Y1547128D01*
X1218632D01*
X1218340Y1547109D01*
X1217989D01*
X1212215D01*
Y1548689D01*
X1217384D01*
X1217403D01*
X1217442D01*
X1217501D01*
X1217579D01*
X1217794D01*
X1218047Y1548708D01*
X1218320D01*
X1218593Y1548728D01*
X1218847Y1548747D01*
X1219042Y1548767D01*
X1219062D01*
X1219140Y1548806D01*
X1219257Y1548845D01*
X1219393Y1548904D01*
X1219549Y1548981D01*
X1219725Y1549099D01*
X1219881Y1549235D01*
X1220017Y1549391D01*
X1220037Y1549411D01*
X1220076Y1549489D01*
X1220135Y1549586D01*
X1220193Y1549723D01*
X1220251Y1549898D01*
X1220310Y1550093D01*
X1220349Y1550327D01*
X1220369Y1550581D01*
Y1550698D01*
X1220349Y1550835D01*
X1220330Y1551010D01*
X1220291Y1551205D01*
X1220212Y1551420D01*
X1220135Y1551654D01*
X1220017Y1551888D01*
X1219998Y1551908D01*
X1219939Y1551986D01*
X1219861Y1552103D01*
X1219744Y1552239D01*
X1219608Y1552376D01*
X1219432Y1552532D01*
X1219237Y1552649D01*
X1219023Y1552766D01*
X1218984Y1552785D01*
X1218905Y1552805D01*
X1218769Y1552844D01*
X1218554Y1552903D01*
X1218301Y1552961D01*
X1217989Y1553000D01*
X1217618Y1553020D01*
X1217208Y1553039D01*
X1212215D01*
Y1554619D01*
X1221500D01*
Y1553215D01*
D02*
G37*
G36*
X1217189Y1545275D02*
X1217365D01*
X1217560Y1545256D01*
X1217774Y1545236D01*
X1218223Y1545158D01*
X1218691Y1545061D01*
X1219159Y1544924D01*
X1219569Y1544749D01*
X1219588D01*
X1219608Y1544729D01*
X1219744Y1544651D01*
X1219920Y1544514D01*
X1220154Y1544339D01*
X1220408Y1544124D01*
X1220661Y1543851D01*
X1220915Y1543539D01*
X1221149Y1543168D01*
Y1543149D01*
X1221168Y1543129D01*
X1221207Y1543071D01*
X1221227Y1542993D01*
X1221324Y1542778D01*
X1221422Y1542505D01*
X1221539Y1542173D01*
X1221617Y1541803D01*
X1221695Y1541393D01*
X1221715Y1540945D01*
Y1540750D01*
X1221695Y1540613D01*
X1221676Y1540457D01*
X1221656Y1540262D01*
X1221617Y1540047D01*
X1221559Y1539813D01*
X1221403Y1539326D01*
X1221305Y1539052D01*
X1221188Y1538799D01*
X1221051Y1538526D01*
X1220876Y1538272D01*
X1220681Y1538018D01*
X1220466Y1537784D01*
X1220447Y1537765D01*
X1220408Y1537726D01*
X1220330Y1537667D01*
X1220232Y1537609D01*
X1220096Y1537511D01*
X1219939Y1537414D01*
X1219764Y1537297D01*
X1219549Y1537199D01*
X1219296Y1537082D01*
X1219042Y1536965D01*
X1218730Y1536868D01*
X1218418Y1536790D01*
X1218067Y1536711D01*
X1217696Y1536653D01*
X1217286Y1536614D01*
X1216857Y1536595D01*
X1216818D01*
X1216740D01*
X1216604Y1536614D01*
X1216428D01*
X1216214Y1536633D01*
X1215980Y1536673D01*
X1215706Y1536711D01*
X1215414Y1536770D01*
X1215102Y1536848D01*
X1214790Y1536946D01*
X1214477Y1537063D01*
X1214165Y1537199D01*
X1213853Y1537355D01*
X1213561Y1537550D01*
X1213288Y1537765D01*
X1213034Y1538018D01*
X1213014Y1538038D01*
X1212995Y1538077D01*
X1212936Y1538136D01*
X1212878Y1538233D01*
X1212800Y1538350D01*
X1212702Y1538487D01*
X1212605Y1538643D01*
X1212507Y1538838D01*
X1212429Y1539033D01*
X1212332Y1539247D01*
X1212156Y1539755D01*
X1212039Y1540320D01*
X1212020Y1540632D01*
X1212000Y1540945D01*
Y1541120D01*
X1212020Y1541257D01*
X1212039Y1541432D01*
X1212058Y1541608D01*
X1212097Y1541822D01*
X1212156Y1542056D01*
X1212312Y1542544D01*
X1212410Y1542798D01*
X1212527Y1543071D01*
X1212683Y1543324D01*
X1212858Y1543578D01*
X1213053Y1543832D01*
X1213268Y1544066D01*
X1213288Y1544085D01*
X1213326Y1544124D01*
X1213404Y1544183D01*
X1213502Y1544261D01*
X1213619Y1544358D01*
X1213775Y1544456D01*
X1213970Y1544573D01*
X1214165Y1544690D01*
X1214399Y1544787D01*
X1214672Y1544904D01*
X1214946Y1545002D01*
X1215258Y1545100D01*
X1215589Y1545178D01*
X1215960Y1545236D01*
X1216331Y1545275D01*
X1216740Y1545295D01*
X1216760D01*
X1216818D01*
X1216916D01*
X1217033D01*
X1217189Y1545275D01*
D02*
G37*
G36*
X1221500Y1533649D02*
X1218847Y1531952D01*
X1218828D01*
X1218789Y1531913D01*
X1218730Y1531874D01*
X1218652Y1531835D01*
X1218457Y1531698D01*
X1218203Y1531523D01*
X1217911Y1531328D01*
X1217618Y1531113D01*
X1217345Y1530918D01*
X1217091Y1530723D01*
X1217072Y1530703D01*
X1216994Y1530645D01*
X1216877Y1530547D01*
X1216740Y1530450D01*
X1216467Y1530157D01*
X1216331Y1530020D01*
X1216233Y1529865D01*
X1216214Y1529845D01*
X1216194Y1529806D01*
X1216155Y1529728D01*
X1216096Y1529630D01*
X1215980Y1529396D01*
X1215882Y1529104D01*
Y1529084D01*
X1215862Y1529045D01*
Y1528967D01*
X1215843Y1528870D01*
X1215823Y1528733D01*
Y1528577D01*
X1215804Y1528382D01*
Y1526197D01*
X1221500D01*
Y1524500D01*
X1208684D01*
Y1530450D01*
X1208703Y1530606D01*
Y1530762D01*
X1208723Y1531152D01*
X1208762Y1531562D01*
X1208840Y1531991D01*
X1208918Y1532400D01*
X1208976Y1532596D01*
X1209035Y1532771D01*
Y1532791D01*
X1209054Y1532810D01*
X1209093Y1532927D01*
X1209191Y1533083D01*
X1209327Y1533278D01*
X1209484Y1533512D01*
X1209698Y1533746D01*
X1209952Y1533981D01*
X1210264Y1534195D01*
X1210303Y1534215D01*
X1210420Y1534273D01*
X1210595Y1534371D01*
X1210830Y1534468D01*
X1211122Y1534566D01*
X1211454Y1534663D01*
X1211805Y1534722D01*
X1212195Y1534741D01*
X1212215D01*
X1212254D01*
X1212332D01*
X1212429Y1534722D01*
X1212546D01*
X1212683Y1534702D01*
X1212995Y1534624D01*
X1213365Y1534527D01*
X1213736Y1534371D01*
X1214126Y1534137D01*
X1214321Y1534000D01*
X1214497Y1533844D01*
X1214536Y1533805D01*
X1214575Y1533746D01*
X1214653Y1533688D01*
X1214712Y1533590D01*
X1214809Y1533473D01*
X1214887Y1533337D01*
X1214985Y1533181D01*
X1215082Y1533005D01*
X1215180Y1532791D01*
X1215277Y1532576D01*
X1215375Y1532322D01*
X1215472Y1532069D01*
X1215550Y1531776D01*
X1215609Y1531464D01*
X1215667Y1531132D01*
X1215687Y1531172D01*
X1215726Y1531250D01*
X1215784Y1531366D01*
X1215862Y1531503D01*
X1216077Y1531835D01*
X1216194Y1532010D01*
X1216311Y1532147D01*
X1216350Y1532186D01*
X1216428Y1532283D01*
X1216584Y1532420D01*
X1216779Y1532596D01*
X1217033Y1532810D01*
X1217326Y1533044D01*
X1217657Y1533298D01*
X1218028Y1533551D01*
X1221500Y1535775D01*
Y1533649D01*
D02*
G37*
G36*
X1220517Y1921319D02*
Y1914413D01*
X1220536D01*
X1220575D01*
X1220673Y1914433D01*
X1220770D01*
X1220907Y1914452D01*
X1221044Y1914472D01*
X1221395Y1914550D01*
X1221765Y1914667D01*
X1222156Y1914803D01*
X1222546Y1915018D01*
X1222877Y1915272D01*
X1222916Y1915311D01*
X1222994Y1915408D01*
X1223131Y1915584D01*
X1223268Y1915798D01*
X1223423Y1916091D01*
X1223560Y1916422D01*
X1223638Y1916793D01*
X1223677Y1917203D01*
Y1917359D01*
X1223658Y1917515D01*
X1223619Y1917710D01*
X1223560Y1917944D01*
X1223482Y1918198D01*
X1223384Y1918451D01*
X1223228Y1918685D01*
X1223209Y1918705D01*
X1223131Y1918783D01*
X1223033Y1918900D01*
X1222858Y1919037D01*
X1222663Y1919193D01*
X1222409Y1919349D01*
X1222097Y1919505D01*
X1221746Y1919661D01*
X1221961Y1921280D01*
X1221980D01*
X1222019Y1921260D01*
X1222097Y1921241D01*
X1222195Y1921202D01*
X1222312Y1921163D01*
X1222448Y1921104D01*
X1222780Y1920948D01*
X1223131Y1920753D01*
X1223502Y1920519D01*
X1223872Y1920207D01*
X1224184Y1919856D01*
Y1919836D01*
X1224223Y1919817D01*
X1224262Y1919758D01*
X1224301Y1919661D01*
X1224360Y1919563D01*
X1224438Y1919446D01*
X1224496Y1919310D01*
X1224574Y1919134D01*
X1224711Y1918763D01*
X1224847Y1918295D01*
X1224926Y1917788D01*
X1224965Y1917203D01*
Y1917008D01*
X1224945Y1916871D01*
X1224926Y1916696D01*
X1224906Y1916501D01*
X1224867Y1916286D01*
X1224809Y1916032D01*
X1224652Y1915525D01*
X1224555Y1915252D01*
X1224438Y1914998D01*
X1224301Y1914725D01*
X1224126Y1914472D01*
X1223931Y1914218D01*
X1223716Y1913984D01*
X1223697Y1913965D01*
X1223658Y1913926D01*
X1223580Y1913867D01*
X1223482Y1913808D01*
X1223365Y1913711D01*
X1223209Y1913613D01*
X1223014Y1913496D01*
X1222799Y1913399D01*
X1222565Y1913282D01*
X1222312Y1913165D01*
X1222019Y1913067D01*
X1221707Y1912989D01*
X1221375Y1912911D01*
X1221005Y1912853D01*
X1220614Y1912814D01*
X1220205Y1912794D01*
X1220185D01*
X1220107D01*
X1219971D01*
X1219815Y1912814D01*
X1219620Y1912833D01*
X1219386Y1912853D01*
X1219132Y1912892D01*
X1218859Y1912950D01*
X1218274Y1913087D01*
X1217981Y1913184D01*
X1217669Y1913301D01*
X1217376Y1913438D01*
X1217084Y1913594D01*
X1216811Y1913770D01*
X1216557Y1913984D01*
X1216537Y1914004D01*
X1216498Y1914043D01*
X1216440Y1914101D01*
X1216342Y1914199D01*
X1216245Y1914316D01*
X1216147Y1914472D01*
X1216030Y1914628D01*
X1215894Y1914823D01*
X1215777Y1915038D01*
X1215660Y1915272D01*
X1215562Y1915525D01*
X1215445Y1915818D01*
X1215367Y1916110D01*
X1215309Y1916422D01*
X1215269Y1916754D01*
X1215250Y1917105D01*
Y1917281D01*
X1215269Y1917417D01*
X1215289Y1917573D01*
X1215309Y1917769D01*
X1215348Y1917964D01*
X1215406Y1918198D01*
X1215562Y1918666D01*
X1215660Y1918919D01*
X1215796Y1919173D01*
X1215933Y1919427D01*
X1216108Y1919680D01*
X1216303Y1919914D01*
X1216537Y1920148D01*
X1216557Y1920168D01*
X1216596Y1920207D01*
X1216674Y1920265D01*
X1216772Y1920343D01*
X1216908Y1920421D01*
X1217064Y1920519D01*
X1217240Y1920636D01*
X1217454Y1920753D01*
X1217708Y1920851D01*
X1217962Y1920968D01*
X1218254Y1921065D01*
X1218586Y1921163D01*
X1218917Y1921221D01*
X1219288Y1921280D01*
X1219678Y1921319D01*
X1220107Y1921338D01*
X1220127D01*
X1220205D01*
X1220341D01*
X1220517Y1921319D01*
D02*
G37*
G36*
X1224731Y1911936D02*
X1224750Y1911858D01*
X1224770Y1911741D01*
X1224789Y1911565D01*
X1224828Y1911390D01*
X1224847Y1911195D01*
X1224867Y1910785D01*
Y1910648D01*
X1224847Y1910492D01*
X1224828Y1910297D01*
X1224809Y1910083D01*
X1224750Y1909849D01*
X1224691Y1909634D01*
X1224613Y1909439D01*
X1224594Y1909419D01*
X1224555Y1909361D01*
X1224496Y1909283D01*
X1224418Y1909185D01*
X1224321Y1909068D01*
X1224204Y1908971D01*
X1224067Y1908854D01*
X1223911Y1908776D01*
X1223892D01*
X1223814Y1908756D01*
X1223697Y1908717D01*
X1223502Y1908698D01*
X1223248Y1908659D01*
X1223111Y1908639D01*
X1222936Y1908620D01*
X1222741D01*
X1222526Y1908600D01*
X1222292D01*
X1222038D01*
X1216693D01*
Y1907430D01*
X1215465D01*
Y1908600D01*
X1213182D01*
X1212226Y1910180D01*
X1215465D01*
Y1911760D01*
X1216693D01*
Y1910180D01*
X1222136D01*
X1222156D01*
X1222234D01*
X1222351D01*
X1222487Y1910200D01*
X1222780Y1910219D01*
X1222897Y1910239D01*
X1222994Y1910258D01*
X1223033Y1910278D01*
X1223111Y1910317D01*
X1223209Y1910395D01*
X1223307Y1910512D01*
X1223326Y1910551D01*
X1223345Y1910648D01*
X1223384Y1910824D01*
X1223404Y1911058D01*
Y1911253D01*
X1223384Y1911351D01*
Y1911468D01*
X1223345Y1911760D01*
X1224731Y1911975D01*
Y1911936D01*
D02*
G37*
G36*
X1224750Y1904465D02*
X1223404D01*
X1223423Y1904445D01*
X1223463Y1904406D01*
X1223541Y1904348D01*
X1223638Y1904270D01*
X1223775Y1904153D01*
X1223892Y1904016D01*
X1224048Y1903860D01*
X1224184Y1903684D01*
X1224321Y1903489D01*
X1224477Y1903275D01*
X1224594Y1903021D01*
X1224711Y1902767D01*
X1224828Y1902475D01*
X1224906Y1902182D01*
X1224945Y1901851D01*
X1224965Y1901519D01*
Y1901382D01*
X1224945Y1901226D01*
X1224926Y1901012D01*
X1224887Y1900778D01*
X1224828Y1900524D01*
X1224750Y1900251D01*
X1224652Y1899978D01*
X1224633Y1899939D01*
X1224594Y1899861D01*
X1224535Y1899744D01*
X1224438Y1899588D01*
X1224321Y1899412D01*
X1224184Y1899237D01*
X1224048Y1899081D01*
X1223872Y1898925D01*
X1223853Y1898905D01*
X1223794Y1898866D01*
X1223677Y1898808D01*
X1223541Y1898749D01*
X1223365Y1898651D01*
X1223170Y1898573D01*
X1222955Y1898495D01*
X1222702Y1898437D01*
X1222682D01*
X1222604Y1898417D01*
X1222507D01*
X1222351Y1898398D01*
X1222136Y1898378D01*
X1221882D01*
X1221590Y1898359D01*
X1221239D01*
X1215465D01*
Y1899939D01*
X1220634D01*
X1220654D01*
X1220693D01*
X1220751D01*
X1220829D01*
X1221044D01*
X1221297Y1899958D01*
X1221570D01*
X1221843Y1899978D01*
X1222097Y1899997D01*
X1222292Y1900017D01*
X1222312D01*
X1222390Y1900056D01*
X1222507Y1900095D01*
X1222643Y1900154D01*
X1222799Y1900231D01*
X1222975Y1900349D01*
X1223131Y1900485D01*
X1223268Y1900641D01*
X1223287Y1900661D01*
X1223326Y1900739D01*
X1223384Y1900836D01*
X1223443Y1900973D01*
X1223502Y1901148D01*
X1223560Y1901343D01*
X1223599Y1901577D01*
X1223619Y1901831D01*
Y1901948D01*
X1223599Y1902085D01*
X1223580Y1902260D01*
X1223541Y1902455D01*
X1223463Y1902670D01*
X1223384Y1902904D01*
X1223268Y1903138D01*
X1223248Y1903158D01*
X1223189Y1903236D01*
X1223111Y1903353D01*
X1222994Y1903489D01*
X1222858Y1903626D01*
X1222682Y1903782D01*
X1222487Y1903899D01*
X1222273Y1904016D01*
X1222234Y1904035D01*
X1222156Y1904055D01*
X1222019Y1904094D01*
X1221804Y1904153D01*
X1221551Y1904211D01*
X1221239Y1904250D01*
X1220868Y1904270D01*
X1220458Y1904289D01*
X1215465D01*
Y1905869D01*
X1224750D01*
Y1904465D01*
D02*
G37*
G36*
X1220439Y1896525D02*
X1220614D01*
X1220809Y1896506D01*
X1221024Y1896486D01*
X1221473Y1896408D01*
X1221941Y1896311D01*
X1222409Y1896174D01*
X1222819Y1895999D01*
X1222838D01*
X1222858Y1895979D01*
X1222994Y1895901D01*
X1223170Y1895764D01*
X1223404Y1895589D01*
X1223658Y1895374D01*
X1223911Y1895101D01*
X1224165Y1894789D01*
X1224399Y1894418D01*
Y1894399D01*
X1224418Y1894379D01*
X1224457Y1894321D01*
X1224477Y1894243D01*
X1224574Y1894028D01*
X1224672Y1893755D01*
X1224789Y1893423D01*
X1224867Y1893053D01*
X1224945Y1892643D01*
X1224965Y1892195D01*
Y1892000D01*
X1224945Y1891863D01*
X1224926Y1891707D01*
X1224906Y1891512D01*
X1224867Y1891297D01*
X1224809Y1891063D01*
X1224652Y1890576D01*
X1224555Y1890302D01*
X1224438Y1890049D01*
X1224301Y1889776D01*
X1224126Y1889522D01*
X1223931Y1889268D01*
X1223716Y1889034D01*
X1223697Y1889015D01*
X1223658Y1888976D01*
X1223580Y1888917D01*
X1223482Y1888859D01*
X1223345Y1888761D01*
X1223189Y1888664D01*
X1223014Y1888547D01*
X1222799Y1888449D01*
X1222546Y1888332D01*
X1222292Y1888215D01*
X1221980Y1888118D01*
X1221668Y1888040D01*
X1221317Y1887961D01*
X1220946Y1887903D01*
X1220536Y1887864D01*
X1220107Y1887845D01*
X1220068D01*
X1219990D01*
X1219854Y1887864D01*
X1219678D01*
X1219464Y1887883D01*
X1219230Y1887923D01*
X1218956Y1887961D01*
X1218664Y1888020D01*
X1218352Y1888098D01*
X1218039Y1888196D01*
X1217727Y1888313D01*
X1217415Y1888449D01*
X1217103Y1888605D01*
X1216811Y1888800D01*
X1216537Y1889015D01*
X1216284Y1889268D01*
X1216264Y1889288D01*
X1216245Y1889327D01*
X1216186Y1889386D01*
X1216128Y1889483D01*
X1216050Y1889600D01*
X1215952Y1889737D01*
X1215855Y1889893D01*
X1215757Y1890088D01*
X1215679Y1890283D01*
X1215582Y1890497D01*
X1215406Y1891005D01*
X1215289Y1891570D01*
X1215269Y1891882D01*
X1215250Y1892195D01*
Y1892370D01*
X1215269Y1892507D01*
X1215289Y1892682D01*
X1215309Y1892858D01*
X1215348Y1893072D01*
X1215406Y1893306D01*
X1215562Y1893794D01*
X1215660Y1894048D01*
X1215777Y1894321D01*
X1215933Y1894574D01*
X1216108Y1894828D01*
X1216303Y1895082D01*
X1216518Y1895316D01*
X1216537Y1895335D01*
X1216577Y1895374D01*
X1216655Y1895433D01*
X1216752Y1895511D01*
X1216869Y1895608D01*
X1217025Y1895706D01*
X1217220Y1895823D01*
X1217415Y1895940D01*
X1217649Y1896037D01*
X1217923Y1896154D01*
X1218196Y1896252D01*
X1218508Y1896350D01*
X1218839Y1896428D01*
X1219210Y1896486D01*
X1219581Y1896525D01*
X1219990Y1896545D01*
X1220010D01*
X1220068D01*
X1220166D01*
X1220283D01*
X1220439Y1896525D01*
D02*
G37*
G36*
X1224750Y1884899D02*
X1222097Y1883202D01*
X1222077D01*
X1222038Y1883163D01*
X1221980Y1883124D01*
X1221902Y1883085D01*
X1221707Y1882948D01*
X1221453Y1882773D01*
X1221161Y1882578D01*
X1220868Y1882363D01*
X1220595Y1882168D01*
X1220341Y1881973D01*
X1220322Y1881953D01*
X1220244Y1881895D01*
X1220127Y1881797D01*
X1219990Y1881700D01*
X1219717Y1881407D01*
X1219581Y1881270D01*
X1219483Y1881115D01*
X1219464Y1881095D01*
X1219444Y1881056D01*
X1219405Y1880978D01*
X1219346Y1880880D01*
X1219230Y1880646D01*
X1219132Y1880354D01*
Y1880334D01*
X1219112Y1880295D01*
Y1880217D01*
X1219093Y1880120D01*
X1219073Y1879983D01*
Y1879827D01*
X1219054Y1879632D01*
Y1877447D01*
X1224750D01*
Y1875750D01*
X1211934D01*
Y1881700D01*
X1211953Y1881856D01*
Y1882012D01*
X1211973Y1882402D01*
X1212012Y1882812D01*
X1212090Y1883241D01*
X1212168Y1883650D01*
X1212226Y1883846D01*
X1212285Y1884021D01*
Y1884041D01*
X1212304Y1884060D01*
X1212343Y1884177D01*
X1212441Y1884333D01*
X1212578Y1884528D01*
X1212734Y1884762D01*
X1212948Y1884996D01*
X1213202Y1885231D01*
X1213514Y1885445D01*
X1213553Y1885465D01*
X1213670Y1885523D01*
X1213846Y1885621D01*
X1214080Y1885718D01*
X1214372Y1885816D01*
X1214704Y1885913D01*
X1215055Y1885972D01*
X1215445Y1885991D01*
X1215465D01*
X1215504D01*
X1215582D01*
X1215679Y1885972D01*
X1215796D01*
X1215933Y1885952D01*
X1216245Y1885874D01*
X1216616Y1885777D01*
X1216986Y1885621D01*
X1217376Y1885387D01*
X1217571Y1885250D01*
X1217747Y1885094D01*
X1217786Y1885055D01*
X1217825Y1884996D01*
X1217903Y1884938D01*
X1217962Y1884840D01*
X1218059Y1884723D01*
X1218137Y1884587D01*
X1218235Y1884431D01*
X1218332Y1884255D01*
X1218430Y1884041D01*
X1218527Y1883826D01*
X1218625Y1883572D01*
X1218722Y1883319D01*
X1218800Y1883026D01*
X1218859Y1882714D01*
X1218917Y1882382D01*
X1218937Y1882422D01*
X1218976Y1882500D01*
X1219034Y1882616D01*
X1219112Y1882753D01*
X1219327Y1883085D01*
X1219444Y1883260D01*
X1219561Y1883397D01*
X1219600Y1883436D01*
X1219678Y1883533D01*
X1219834Y1883670D01*
X1220029Y1883846D01*
X1220283Y1884060D01*
X1220575Y1884294D01*
X1220907Y1884548D01*
X1221278Y1884801D01*
X1224750Y1887025D01*
Y1884899D01*
D02*
G37*
%LPC*%
G36*
X2062235Y1550892D02*
X2058197D01*
Y1546659D01*
X2062021D01*
X2062235Y1546679D01*
X2062489Y1546698D01*
X2062781Y1546718D01*
X2063093Y1546757D01*
X2063386Y1546815D01*
X2063640Y1546893D01*
X2063679Y1546913D01*
X2063757Y1546932D01*
X2063874Y1546991D01*
X2064010Y1547069D01*
X2064166Y1547186D01*
X2064342Y1547322D01*
X2064498Y1547478D01*
X2064635Y1547654D01*
X2064654Y1547673D01*
X2064693Y1547751D01*
X2064751Y1547849D01*
X2064810Y1548005D01*
X2064869Y1548161D01*
X2064927Y1548356D01*
X2064966Y1548571D01*
X2064986Y1548805D01*
Y1548824D01*
Y1548844D01*
Y1548961D01*
X2064947Y1549117D01*
X2064908Y1549332D01*
X2064830Y1549566D01*
X2064713Y1549819D01*
X2064537Y1550073D01*
X2064322Y1550307D01*
X2064283Y1550327D01*
X2064205Y1550405D01*
X2064030Y1550502D01*
X2063815Y1550600D01*
X2063523Y1550717D01*
X2063172Y1550795D01*
X2062742Y1550873D01*
X2062235Y1550892D01*
D02*
G37*
G36*
X2097875Y1547713D02*
X2097777D01*
X2097699Y1547693D01*
X2097485Y1547673D01*
X2097231Y1547615D01*
X2096938Y1547537D01*
X2096646Y1547400D01*
X2096334Y1547225D01*
X2096041Y1546971D01*
X2096002Y1546932D01*
X2095924Y1546835D01*
X2095807Y1546679D01*
X2095670Y1546445D01*
X2095534Y1546172D01*
X2095397Y1545840D01*
X2095300Y1545450D01*
X2095241Y1545020D01*
X2100430D01*
Y1545040D01*
Y1545079D01*
X2100411Y1545138D01*
Y1545216D01*
X2100372Y1545430D01*
X2100313Y1545684D01*
X2100235Y1545957D01*
X2100118Y1546250D01*
X2100001Y1546542D01*
X2099825Y1546776D01*
Y1546796D01*
X2099787Y1546815D01*
X2099689Y1546932D01*
X2099513Y1547069D01*
X2099299Y1547244D01*
X2099006Y1547420D01*
X2098675Y1547576D01*
X2098304Y1547673D01*
X2098089Y1547693D01*
X2097875Y1547713D01*
D02*
G37*
G36*
X2073159Y1547693D02*
X2072827D01*
X2072749Y1547673D01*
X2072535Y1547654D01*
X2072262Y1547576D01*
X2071950Y1547478D01*
X2071618Y1547322D01*
X2071286Y1547088D01*
X2071130Y1546952D01*
X2070974Y1546796D01*
X2070935Y1546757D01*
X2070896Y1546698D01*
X2070857Y1546640D01*
X2070799Y1546542D01*
X2070740Y1546425D01*
X2070662Y1546288D01*
X2070604Y1546132D01*
X2070526Y1545957D01*
X2070448Y1545762D01*
X2070389Y1545547D01*
X2070331Y1545294D01*
X2070292Y1545040D01*
X2070253Y1544747D01*
X2070214Y1544455D01*
Y1544123D01*
Y1544104D01*
Y1544045D01*
Y1543948D01*
X2070233Y1543831D01*
Y1543694D01*
X2070253Y1543519D01*
X2070311Y1543128D01*
X2070409Y1542699D01*
X2070526Y1542251D01*
X2070721Y1541821D01*
X2070838Y1541626D01*
X2070974Y1541451D01*
X2071013Y1541412D01*
X2071111Y1541314D01*
X2071286Y1541178D01*
X2071521Y1541022D01*
X2071794Y1540846D01*
X2072145Y1540709D01*
X2072515Y1540612D01*
X2072730Y1540592D01*
X2072945Y1540573D01*
X2073062D01*
X2073140Y1540592D01*
X2073354Y1540612D01*
X2073627Y1540690D01*
X2073939Y1540788D01*
X2074271Y1540943D01*
X2074583Y1541158D01*
X2074739Y1541295D01*
X2074895Y1541451D01*
Y1541470D01*
X2074934Y1541490D01*
X2074973Y1541548D01*
X2075012Y1541626D01*
X2075071Y1541724D01*
X2075149Y1541841D01*
X2075207Y1541977D01*
X2075285Y1542133D01*
X2075363Y1542309D01*
X2075422Y1542504D01*
X2075500Y1542738D01*
X2075558Y1542992D01*
X2075598Y1543245D01*
X2075637Y1543538D01*
X2075676Y1543850D01*
Y1544182D01*
Y1544201D01*
Y1544260D01*
Y1544338D01*
X2075656Y1544474D01*
Y1544611D01*
X2075637Y1544767D01*
X2075578Y1545157D01*
X2075480Y1545567D01*
X2075344Y1546015D01*
X2075149Y1546425D01*
X2074876Y1546796D01*
Y1546815D01*
X2074837Y1546835D01*
X2074739Y1546932D01*
X2074564Y1547088D01*
X2074349Y1547244D01*
X2074057Y1547400D01*
X2073725Y1547556D01*
X2073354Y1547654D01*
X2073159Y1547693D01*
D02*
G37*
G36*
X1642235Y1550892D02*
X1638197D01*
Y1546659D01*
X1642021D01*
X1642235Y1546679D01*
X1642489Y1546698D01*
X1642781Y1546718D01*
X1643093Y1546757D01*
X1643386Y1546815D01*
X1643640Y1546893D01*
X1643679Y1546913D01*
X1643757Y1546932D01*
X1643874Y1546991D01*
X1644010Y1547069D01*
X1644166Y1547186D01*
X1644342Y1547322D01*
X1644498Y1547478D01*
X1644635Y1547654D01*
X1644654Y1547673D01*
X1644693Y1547751D01*
X1644751Y1547849D01*
X1644810Y1548005D01*
X1644869Y1548161D01*
X1644927Y1548356D01*
X1644966Y1548571D01*
X1644986Y1548805D01*
Y1548824D01*
Y1548844D01*
Y1548961D01*
X1644947Y1549117D01*
X1644908Y1549332D01*
X1644830Y1549566D01*
X1644713Y1549819D01*
X1644537Y1550073D01*
X1644322Y1550307D01*
X1644283Y1550327D01*
X1644205Y1550405D01*
X1644030Y1550502D01*
X1643815Y1550600D01*
X1643523Y1550717D01*
X1643172Y1550795D01*
X1642742Y1550873D01*
X1642235Y1550892D01*
D02*
G37*
G36*
X1677875Y1547713D02*
X1677777D01*
X1677699Y1547693D01*
X1677485Y1547673D01*
X1677231Y1547615D01*
X1676938Y1547537D01*
X1676646Y1547400D01*
X1676334Y1547225D01*
X1676041Y1546971D01*
X1676002Y1546932D01*
X1675924Y1546835D01*
X1675807Y1546679D01*
X1675670Y1546445D01*
X1675534Y1546172D01*
X1675397Y1545840D01*
X1675300Y1545450D01*
X1675241Y1545020D01*
X1680430D01*
Y1545040D01*
Y1545079D01*
X1680411Y1545138D01*
Y1545216D01*
X1680372Y1545430D01*
X1680313Y1545684D01*
X1680235Y1545957D01*
X1680118Y1546250D01*
X1680001Y1546542D01*
X1679825Y1546776D01*
Y1546796D01*
X1679787Y1546815D01*
X1679689Y1546932D01*
X1679513Y1547069D01*
X1679299Y1547244D01*
X1679006Y1547420D01*
X1678675Y1547576D01*
X1678304Y1547673D01*
X1678089Y1547693D01*
X1677875Y1547713D01*
D02*
G37*
G36*
X1653159Y1547693D02*
X1652827D01*
X1652749Y1547673D01*
X1652535Y1547654D01*
X1652262Y1547576D01*
X1651950Y1547478D01*
X1651618Y1547322D01*
X1651286Y1547088D01*
X1651130Y1546952D01*
X1650974Y1546796D01*
X1650935Y1546757D01*
X1650896Y1546698D01*
X1650857Y1546640D01*
X1650799Y1546542D01*
X1650740Y1546425D01*
X1650662Y1546288D01*
X1650604Y1546132D01*
X1650526Y1545957D01*
X1650448Y1545762D01*
X1650389Y1545547D01*
X1650331Y1545294D01*
X1650292Y1545040D01*
X1650253Y1544747D01*
X1650214Y1544455D01*
Y1544123D01*
Y1544104D01*
Y1544045D01*
Y1543948D01*
X1650233Y1543831D01*
Y1543694D01*
X1650253Y1543519D01*
X1650311Y1543128D01*
X1650409Y1542699D01*
X1650526Y1542251D01*
X1650721Y1541821D01*
X1650838Y1541626D01*
X1650974Y1541451D01*
X1651013Y1541412D01*
X1651111Y1541314D01*
X1651286Y1541178D01*
X1651521Y1541022D01*
X1651794Y1540846D01*
X1652145Y1540709D01*
X1652515Y1540612D01*
X1652730Y1540592D01*
X1652945Y1540573D01*
X1653062D01*
X1653140Y1540592D01*
X1653354Y1540612D01*
X1653627Y1540690D01*
X1653939Y1540788D01*
X1654271Y1540943D01*
X1654583Y1541158D01*
X1654739Y1541295D01*
X1654895Y1541451D01*
Y1541470D01*
X1654934Y1541490D01*
X1654973Y1541548D01*
X1655012Y1541626D01*
X1655071Y1541724D01*
X1655149Y1541841D01*
X1655207Y1541977D01*
X1655285Y1542133D01*
X1655363Y1542309D01*
X1655422Y1542504D01*
X1655500Y1542738D01*
X1655558Y1542992D01*
X1655598Y1543245D01*
X1655637Y1543538D01*
X1655676Y1543850D01*
Y1544182D01*
Y1544201D01*
Y1544260D01*
Y1544338D01*
X1655656Y1544474D01*
Y1544611D01*
X1655637Y1544767D01*
X1655578Y1545157D01*
X1655480Y1545567D01*
X1655344Y1546015D01*
X1655149Y1546425D01*
X1654876Y1546796D01*
Y1546815D01*
X1654837Y1546835D01*
X1654739Y1546932D01*
X1654564Y1547088D01*
X1654349Y1547244D01*
X1654057Y1547400D01*
X1653725Y1547556D01*
X1653354Y1547654D01*
X1653159Y1547693D01*
D02*
G37*
G36*
X1643735Y1951392D02*
X1639697D01*
Y1947159D01*
X1643521D01*
X1643735Y1947179D01*
X1643989Y1947198D01*
X1644281Y1947218D01*
X1644593Y1947257D01*
X1644886Y1947315D01*
X1645140Y1947393D01*
X1645179Y1947413D01*
X1645257Y1947432D01*
X1645374Y1947491D01*
X1645510Y1947569D01*
X1645666Y1947686D01*
X1645842Y1947822D01*
X1645998Y1947979D01*
X1646134Y1948154D01*
X1646154Y1948174D01*
X1646193Y1948252D01*
X1646252Y1948349D01*
X1646310Y1948505D01*
X1646369Y1948661D01*
X1646427Y1948856D01*
X1646466Y1949071D01*
X1646486Y1949305D01*
Y1949324D01*
Y1949344D01*
Y1949461D01*
X1646447Y1949617D01*
X1646408Y1949832D01*
X1646330Y1950066D01*
X1646212Y1950319D01*
X1646037Y1950573D01*
X1645822Y1950807D01*
X1645783Y1950827D01*
X1645705Y1950905D01*
X1645530Y1951002D01*
X1645315Y1951100D01*
X1645023Y1951217D01*
X1644671Y1951295D01*
X1644242Y1951373D01*
X1643735Y1951392D01*
D02*
G37*
G36*
X1679375Y1948212D02*
X1679277D01*
X1679199Y1948193D01*
X1678985Y1948174D01*
X1678731Y1948115D01*
X1678438Y1948037D01*
X1678146Y1947900D01*
X1677834Y1947725D01*
X1677541Y1947471D01*
X1677502Y1947432D01*
X1677424Y1947335D01*
X1677307Y1947179D01*
X1677171Y1946945D01*
X1677034Y1946671D01*
X1676897Y1946340D01*
X1676800Y1945950D01*
X1676741Y1945520D01*
X1681930D01*
Y1945540D01*
Y1945579D01*
X1681911Y1945638D01*
Y1945716D01*
X1681872Y1945930D01*
X1681813Y1946184D01*
X1681735Y1946457D01*
X1681618Y1946750D01*
X1681501Y1947042D01*
X1681326Y1947276D01*
Y1947296D01*
X1681286Y1947315D01*
X1681189Y1947432D01*
X1681013Y1947569D01*
X1680799Y1947744D01*
X1680506Y1947920D01*
X1680175Y1948076D01*
X1679804Y1948174D01*
X1679589Y1948193D01*
X1679375Y1948212D01*
D02*
G37*
G36*
X1654659Y1948193D02*
X1654328D01*
X1654250Y1948174D01*
X1654035Y1948154D01*
X1653762Y1948076D01*
X1653450Y1947979D01*
X1653118Y1947822D01*
X1652787Y1947588D01*
X1652630Y1947452D01*
X1652474Y1947296D01*
X1652435Y1947257D01*
X1652396Y1947198D01*
X1652357Y1947140D01*
X1652299Y1947042D01*
X1652240Y1946925D01*
X1652162Y1946788D01*
X1652104Y1946633D01*
X1652026Y1946457D01*
X1651948Y1946262D01*
X1651889Y1946047D01*
X1651831Y1945794D01*
X1651792Y1945540D01*
X1651753Y1945247D01*
X1651714Y1944955D01*
Y1944623D01*
Y1944604D01*
Y1944545D01*
Y1944448D01*
X1651733Y1944331D01*
Y1944194D01*
X1651753Y1944019D01*
X1651811Y1943628D01*
X1651909Y1943199D01*
X1652026Y1942751D01*
X1652221Y1942321D01*
X1652338Y1942126D01*
X1652474Y1941951D01*
X1652513Y1941912D01*
X1652611Y1941814D01*
X1652787Y1941678D01*
X1653020Y1941522D01*
X1653294Y1941346D01*
X1653645Y1941210D01*
X1654015Y1941112D01*
X1654230Y1941092D01*
X1654445Y1941073D01*
X1654562D01*
X1654640Y1941092D01*
X1654854Y1941112D01*
X1655127Y1941190D01*
X1655439Y1941288D01*
X1655771Y1941443D01*
X1656083Y1941658D01*
X1656239Y1941795D01*
X1656395Y1941951D01*
Y1941970D01*
X1656434Y1941990D01*
X1656473Y1942048D01*
X1656512Y1942126D01*
X1656571Y1942224D01*
X1656649Y1942341D01*
X1656707Y1942477D01*
X1656785Y1942634D01*
X1656864Y1942809D01*
X1656922Y1943004D01*
X1657000Y1943238D01*
X1657059Y1943492D01*
X1657097Y1943745D01*
X1657137Y1944038D01*
X1657176Y1944350D01*
Y1944682D01*
Y1944701D01*
Y1944760D01*
Y1944838D01*
X1657156Y1944974D01*
Y1945111D01*
X1657137Y1945267D01*
X1657078Y1945657D01*
X1656980Y1946067D01*
X1656844Y1946515D01*
X1656649Y1946925D01*
X1656376Y1947296D01*
Y1947315D01*
X1656337Y1947335D01*
X1656239Y1947432D01*
X1656064Y1947588D01*
X1655849Y1947744D01*
X1655556Y1947900D01*
X1655225Y1948056D01*
X1654854Y1948154D01*
X1654659Y1948193D01*
D02*
G37*
G36*
X2054235Y1950392D02*
X2050197D01*
Y1946159D01*
X2054021D01*
X2054235Y1946179D01*
X2054489Y1946198D01*
X2054781Y1946218D01*
X2055093Y1946257D01*
X2055386Y1946315D01*
X2055640Y1946393D01*
X2055679Y1946413D01*
X2055757Y1946432D01*
X2055874Y1946491D01*
X2056010Y1946569D01*
X2056166Y1946686D01*
X2056342Y1946822D01*
X2056498Y1946978D01*
X2056635Y1947154D01*
X2056654Y1947173D01*
X2056693Y1947252D01*
X2056752Y1947349D01*
X2056810Y1947505D01*
X2056869Y1947661D01*
X2056927Y1947856D01*
X2056966Y1948071D01*
X2056986Y1948305D01*
Y1948324D01*
Y1948344D01*
Y1948461D01*
X2056947Y1948617D01*
X2056908Y1948832D01*
X2056830Y1949066D01*
X2056712Y1949319D01*
X2056537Y1949573D01*
X2056322Y1949807D01*
X2056283Y1949827D01*
X2056205Y1949904D01*
X2056030Y1950002D01*
X2055815Y1950100D01*
X2055523Y1950217D01*
X2055172Y1950295D01*
X2054742Y1950373D01*
X2054235Y1950392D01*
D02*
G37*
G36*
X2089875Y1947213D02*
X2089777D01*
X2089699Y1947193D01*
X2089485Y1947173D01*
X2089231Y1947115D01*
X2088938Y1947037D01*
X2088646Y1946900D01*
X2088334Y1946725D01*
X2088041Y1946471D01*
X2088002Y1946432D01*
X2087924Y1946335D01*
X2087807Y1946179D01*
X2087670Y1945945D01*
X2087534Y1945672D01*
X2087397Y1945340D01*
X2087300Y1944950D01*
X2087241Y1944521D01*
X2092430D01*
Y1944540D01*
Y1944579D01*
X2092411Y1944638D01*
Y1944716D01*
X2092372Y1944930D01*
X2092313Y1945184D01*
X2092235Y1945457D01*
X2092118Y1945750D01*
X2092001Y1946042D01*
X2091826Y1946276D01*
Y1946296D01*
X2091786Y1946315D01*
X2091689Y1946432D01*
X2091513Y1946569D01*
X2091299Y1946744D01*
X2091006Y1946920D01*
X2090675Y1947076D01*
X2090304Y1947173D01*
X2090089Y1947193D01*
X2089875Y1947213D01*
D02*
G37*
G36*
X2065159Y1947193D02*
X2064828D01*
X2064749Y1947173D01*
X2064535Y1947154D01*
X2064262Y1947076D01*
X2063950Y1946978D01*
X2063618Y1946822D01*
X2063286Y1946588D01*
X2063130Y1946452D01*
X2062974Y1946296D01*
X2062935Y1946257D01*
X2062896Y1946198D01*
X2062857Y1946140D01*
X2062799Y1946042D01*
X2062740Y1945925D01*
X2062662Y1945789D01*
X2062604Y1945632D01*
X2062526Y1945457D01*
X2062448Y1945262D01*
X2062389Y1945047D01*
X2062331Y1944794D01*
X2062292Y1944540D01*
X2062253Y1944247D01*
X2062214Y1943955D01*
Y1943623D01*
Y1943604D01*
Y1943545D01*
Y1943448D01*
X2062233Y1943331D01*
Y1943194D01*
X2062253Y1943018D01*
X2062311Y1942628D01*
X2062409Y1942199D01*
X2062526Y1941750D01*
X2062721Y1941321D01*
X2062838Y1941126D01*
X2062974Y1940951D01*
X2063013Y1940912D01*
X2063111Y1940814D01*
X2063286Y1940678D01*
X2063521Y1940522D01*
X2063794Y1940346D01*
X2064145Y1940210D01*
X2064515Y1940112D01*
X2064730Y1940092D01*
X2064945Y1940073D01*
X2065062D01*
X2065140Y1940092D01*
X2065354Y1940112D01*
X2065627Y1940190D01*
X2065939Y1940287D01*
X2066271Y1940444D01*
X2066583Y1940658D01*
X2066739Y1940795D01*
X2066895Y1940951D01*
Y1940970D01*
X2066934Y1940990D01*
X2066973Y1941048D01*
X2067012Y1941126D01*
X2067071Y1941224D01*
X2067149Y1941341D01*
X2067207Y1941477D01*
X2067285Y1941633D01*
X2067363Y1941809D01*
X2067422Y1942004D01*
X2067500Y1942238D01*
X2067558Y1942492D01*
X2067598Y1942745D01*
X2067637Y1943038D01*
X2067676Y1943350D01*
Y1943682D01*
Y1943701D01*
Y1943760D01*
Y1943838D01*
X2067656Y1943974D01*
Y1944111D01*
X2067637Y1944267D01*
X2067578Y1944657D01*
X2067480Y1945067D01*
X2067344Y1945515D01*
X2067149Y1945925D01*
X2066876Y1946296D01*
Y1946315D01*
X2066837Y1946335D01*
X2066739Y1946432D01*
X2066564Y1946588D01*
X2066349Y1946744D01*
X2066057Y1946900D01*
X2065725Y1947056D01*
X2065354Y1947154D01*
X2065159Y1947193D01*
D02*
G37*
G36*
X2543892Y1882303D02*
X2539659D01*
Y1878479D01*
X2539679Y1878265D01*
X2539698Y1878011D01*
X2539718Y1877719D01*
X2539757Y1877407D01*
X2539815Y1877114D01*
X2539893Y1876860D01*
X2539913Y1876821D01*
X2539932Y1876743D01*
X2539991Y1876626D01*
X2540069Y1876490D01*
X2540186Y1876334D01*
X2540322Y1876158D01*
X2540478Y1876002D01*
X2540654Y1875865D01*
X2540674Y1875846D01*
X2540751Y1875807D01*
X2540849Y1875748D01*
X2541005Y1875690D01*
X2541161Y1875631D01*
X2541356Y1875573D01*
X2541571Y1875534D01*
X2541805Y1875514D01*
X2541824D01*
X2541844D01*
X2541961D01*
X2542117Y1875553D01*
X2542332Y1875592D01*
X2542566Y1875670D01*
X2542819Y1875788D01*
X2543073Y1875963D01*
X2543307Y1876178D01*
X2543327Y1876217D01*
X2543405Y1876295D01*
X2543502Y1876470D01*
X2543600Y1876685D01*
X2543717Y1876977D01*
X2543795Y1877328D01*
X2543873Y1877758D01*
X2543892Y1878265D01*
Y1882303D01*
D02*
G37*
G36*
X2537455Y1870286D02*
X2537123D01*
X2537104D01*
X2537045D01*
X2536948D01*
X2536831Y1870267D01*
X2536694D01*
X2536519Y1870247D01*
X2536128Y1870189D01*
X2535699Y1870091D01*
X2535251Y1869974D01*
X2534821Y1869779D01*
X2534626Y1869662D01*
X2534451Y1869526D01*
X2534412Y1869487D01*
X2534314Y1869389D01*
X2534178Y1869214D01*
X2534022Y1868979D01*
X2533846Y1868706D01*
X2533709Y1868355D01*
X2533612Y1867985D01*
X2533592Y1867770D01*
X2533573Y1867555D01*
Y1867438D01*
X2533592Y1867360D01*
X2533612Y1867146D01*
X2533690Y1866873D01*
X2533788Y1866561D01*
X2533943Y1866229D01*
X2534158Y1865917D01*
X2534295Y1865761D01*
X2534451Y1865605D01*
X2534470D01*
X2534490Y1865566D01*
X2534548Y1865527D01*
X2534626Y1865488D01*
X2534724Y1865429D01*
X2534841Y1865351D01*
X2534977Y1865293D01*
X2535134Y1865215D01*
X2535309Y1865137D01*
X2535504Y1865078D01*
X2535738Y1865000D01*
X2535992Y1864942D01*
X2536245Y1864902D01*
X2536538Y1864863D01*
X2536850Y1864824D01*
X2537182D01*
X2537201D01*
X2537260D01*
X2537338D01*
X2537474Y1864844D01*
X2537611D01*
X2537767Y1864863D01*
X2538157Y1864922D01*
X2538567Y1865020D01*
X2539015Y1865156D01*
X2539425Y1865351D01*
X2539796Y1865624D01*
X2539815D01*
X2539835Y1865663D01*
X2539932Y1865761D01*
X2540088Y1865936D01*
X2540244Y1866151D01*
X2540400Y1866443D01*
X2540556Y1866775D01*
X2540654Y1867146D01*
X2540693Y1867341D01*
Y1867672D01*
X2540674Y1867751D01*
X2540654Y1867965D01*
X2540576Y1868238D01*
X2540478Y1868550D01*
X2540322Y1868882D01*
X2540088Y1869214D01*
X2539952Y1869370D01*
X2539796Y1869526D01*
X2539757Y1869565D01*
X2539698Y1869604D01*
X2539640Y1869643D01*
X2539542Y1869701D01*
X2539425Y1869760D01*
X2539288Y1869838D01*
X2539132Y1869896D01*
X2538957Y1869974D01*
X2538762Y1870052D01*
X2538547Y1870111D01*
X2538294Y1870169D01*
X2538040Y1870208D01*
X2537747Y1870247D01*
X2537455Y1870286D01*
D02*
G37*
G36*
X2538020Y1845259D02*
Y1840070D01*
X2538040D01*
X2538079D01*
X2538138Y1840089D01*
X2538216D01*
X2538430Y1840128D01*
X2538684Y1840187D01*
X2538957Y1840265D01*
X2539250Y1840382D01*
X2539542Y1840499D01*
X2539776Y1840674D01*
X2539796D01*
X2539815Y1840714D01*
X2539932Y1840811D01*
X2540069Y1840987D01*
X2540244Y1841201D01*
X2540420Y1841494D01*
X2540576Y1841825D01*
X2540674Y1842196D01*
X2540693Y1842411D01*
X2540712Y1842625D01*
Y1842723D01*
X2540693Y1842801D01*
X2540674Y1843015D01*
X2540615Y1843269D01*
X2540537Y1843562D01*
X2540400Y1843854D01*
X2540225Y1844166D01*
X2539971Y1844459D01*
X2539932Y1844498D01*
X2539835Y1844576D01*
X2539679Y1844693D01*
X2539445Y1844830D01*
X2539171Y1844966D01*
X2538840Y1845103D01*
X2538450Y1845200D01*
X2538020Y1845259D01*
D02*
G37*
G36*
X2544892Y1562803D02*
X2540659D01*
Y1558979D01*
X2540679Y1558765D01*
X2540698Y1558511D01*
X2540718Y1558219D01*
X2540757Y1557907D01*
X2540815Y1557614D01*
X2540893Y1557360D01*
X2540913Y1557321D01*
X2540932Y1557243D01*
X2540991Y1557126D01*
X2541069Y1556990D01*
X2541186Y1556834D01*
X2541322Y1556658D01*
X2541478Y1556502D01*
X2541654Y1556366D01*
X2541673Y1556346D01*
X2541752Y1556307D01*
X2541849Y1556248D01*
X2542005Y1556190D01*
X2542161Y1556131D01*
X2542356Y1556073D01*
X2542571Y1556034D01*
X2542805Y1556014D01*
X2542824D01*
X2542844D01*
X2542961D01*
X2543117Y1556053D01*
X2543332Y1556092D01*
X2543566Y1556170D01*
X2543819Y1556288D01*
X2544073Y1556463D01*
X2544307Y1556678D01*
X2544326Y1556717D01*
X2544404Y1556795D01*
X2544502Y1556970D01*
X2544600Y1557185D01*
X2544717Y1557477D01*
X2544795Y1557829D01*
X2544873Y1558258D01*
X2544892Y1558765D01*
Y1562803D01*
D02*
G37*
G36*
X2538455Y1550786D02*
X2538123D01*
X2538104D01*
X2538045D01*
X2537948D01*
X2537831Y1550767D01*
X2537694D01*
X2537518Y1550747D01*
X2537128Y1550689D01*
X2536699Y1550591D01*
X2536250Y1550474D01*
X2535821Y1550279D01*
X2535626Y1550162D01*
X2535451Y1550026D01*
X2535412Y1549987D01*
X2535314Y1549889D01*
X2535178Y1549713D01*
X2535022Y1549480D01*
X2534846Y1549206D01*
X2534709Y1548855D01*
X2534612Y1548485D01*
X2534592Y1548270D01*
X2534573Y1548055D01*
Y1547938D01*
X2534592Y1547860D01*
X2534612Y1547646D01*
X2534690Y1547373D01*
X2534787Y1547061D01*
X2534944Y1546729D01*
X2535158Y1546417D01*
X2535295Y1546261D01*
X2535451Y1546105D01*
X2535470D01*
X2535490Y1546066D01*
X2535548Y1546027D01*
X2535626Y1545988D01*
X2535724Y1545929D01*
X2535841Y1545851D01*
X2535977Y1545793D01*
X2536134Y1545715D01*
X2536309Y1545636D01*
X2536504Y1545578D01*
X2536738Y1545500D01*
X2536992Y1545441D01*
X2537245Y1545402D01*
X2537538Y1545363D01*
X2537850Y1545324D01*
X2538182D01*
X2538201D01*
X2538260D01*
X2538338D01*
X2538474Y1545344D01*
X2538611D01*
X2538767Y1545363D01*
X2539157Y1545422D01*
X2539567Y1545520D01*
X2540015Y1545656D01*
X2540425Y1545851D01*
X2540796Y1546124D01*
X2540815D01*
X2540835Y1546163D01*
X2540932Y1546261D01*
X2541088Y1546436D01*
X2541244Y1546651D01*
X2541400Y1546944D01*
X2541557Y1547275D01*
X2541654Y1547646D01*
X2541693Y1547841D01*
Y1548172D01*
X2541673Y1548250D01*
X2541654Y1548465D01*
X2541576Y1548738D01*
X2541478Y1549050D01*
X2541322Y1549382D01*
X2541088Y1549713D01*
X2540952Y1549870D01*
X2540796Y1550026D01*
X2540757Y1550065D01*
X2540698Y1550104D01*
X2540640Y1550143D01*
X2540542Y1550201D01*
X2540425Y1550260D01*
X2540289Y1550338D01*
X2540132Y1550396D01*
X2539957Y1550474D01*
X2539762Y1550552D01*
X2539547Y1550611D01*
X2539294Y1550669D01*
X2539040Y1550708D01*
X2538747Y1550747D01*
X2538455Y1550786D01*
D02*
G37*
G36*
X2539021Y1525759D02*
Y1520570D01*
X2539040D01*
X2539079D01*
X2539138Y1520589D01*
X2539216D01*
X2539430Y1520628D01*
X2539684Y1520687D01*
X2539957Y1520765D01*
X2540249Y1520882D01*
X2540542Y1520999D01*
X2540776Y1521174D01*
X2540796D01*
X2540815Y1521214D01*
X2540932Y1521311D01*
X2541069Y1521487D01*
X2541244Y1521701D01*
X2541420Y1521994D01*
X2541576Y1522325D01*
X2541673Y1522696D01*
X2541693Y1522911D01*
X2541712Y1523125D01*
Y1523223D01*
X2541693Y1523301D01*
X2541673Y1523515D01*
X2541615Y1523769D01*
X2541537Y1524062D01*
X2541400Y1524354D01*
X2541225Y1524666D01*
X2540971Y1524959D01*
X2540932Y1524998D01*
X2540835Y1525076D01*
X2540679Y1525193D01*
X2540445Y1525329D01*
X2540171Y1525466D01*
X2539840Y1525603D01*
X2539450Y1525700D01*
X2539021Y1525759D01*
D02*
G37*
G36*
X2405485Y1151392D02*
X2401447D01*
Y1147159D01*
X2405271D01*
X2405485Y1147179D01*
X2405739Y1147198D01*
X2406031Y1147218D01*
X2406343Y1147257D01*
X2406636Y1147315D01*
X2406890Y1147393D01*
X2406929Y1147413D01*
X2407007Y1147432D01*
X2407124Y1147491D01*
X2407260Y1147569D01*
X2407416Y1147686D01*
X2407592Y1147822D01*
X2407748Y1147979D01*
X2407885Y1148154D01*
X2407904Y1148174D01*
X2407943Y1148252D01*
X2408002Y1148349D01*
X2408060Y1148505D01*
X2408119Y1148661D01*
X2408177Y1148856D01*
X2408216Y1149071D01*
X2408236Y1149305D01*
Y1149324D01*
Y1149344D01*
Y1149461D01*
X2408197Y1149617D01*
X2408158Y1149832D01*
X2408080Y1150066D01*
X2407962Y1150319D01*
X2407787Y1150573D01*
X2407572Y1150807D01*
X2407533Y1150826D01*
X2407455Y1150904D01*
X2407280Y1151002D01*
X2407065Y1151100D01*
X2406773Y1151217D01*
X2406422Y1151295D01*
X2405992Y1151373D01*
X2405485Y1151392D01*
D02*
G37*
G36*
X2441125Y1148213D02*
X2441027D01*
X2440949Y1148193D01*
X2440735Y1148174D01*
X2440481Y1148115D01*
X2440188Y1148037D01*
X2439896Y1147900D01*
X2439584Y1147725D01*
X2439291Y1147471D01*
X2439252Y1147432D01*
X2439174Y1147335D01*
X2439057Y1147179D01*
X2438920Y1146945D01*
X2438784Y1146672D01*
X2438647Y1146340D01*
X2438550Y1145950D01*
X2438491Y1145520D01*
X2443680D01*
Y1145540D01*
Y1145579D01*
X2443661Y1145638D01*
Y1145716D01*
X2443622Y1145930D01*
X2443563Y1146184D01*
X2443485Y1146457D01*
X2443368Y1146749D01*
X2443251Y1147042D01*
X2443076Y1147276D01*
Y1147296D01*
X2443036Y1147315D01*
X2442939Y1147432D01*
X2442763Y1147569D01*
X2442549Y1147744D01*
X2442256Y1147920D01*
X2441925Y1148076D01*
X2441554Y1148174D01*
X2441339Y1148193D01*
X2441125Y1148213D01*
D02*
G37*
G36*
X2416409Y1148193D02*
X2416078D01*
X2415999Y1148174D01*
X2415785Y1148154D01*
X2415512Y1148076D01*
X2415200Y1147979D01*
X2414868Y1147822D01*
X2414536Y1147588D01*
X2414380Y1147452D01*
X2414224Y1147296D01*
X2414185Y1147257D01*
X2414146Y1147198D01*
X2414107Y1147140D01*
X2414049Y1147042D01*
X2413990Y1146925D01*
X2413912Y1146788D01*
X2413854Y1146633D01*
X2413776Y1146457D01*
X2413698Y1146262D01*
X2413639Y1146047D01*
X2413581Y1145794D01*
X2413542Y1145540D01*
X2413503Y1145247D01*
X2413463Y1144955D01*
Y1144623D01*
Y1144604D01*
Y1144545D01*
Y1144448D01*
X2413483Y1144331D01*
Y1144194D01*
X2413503Y1144018D01*
X2413561Y1143628D01*
X2413659Y1143199D01*
X2413776Y1142750D01*
X2413971Y1142321D01*
X2414088Y1142126D01*
X2414224Y1141951D01*
X2414263Y1141912D01*
X2414361Y1141814D01*
X2414536Y1141678D01*
X2414771Y1141522D01*
X2415044Y1141346D01*
X2415395Y1141209D01*
X2415765Y1141112D01*
X2415980Y1141092D01*
X2416195Y1141073D01*
X2416312D01*
X2416390Y1141092D01*
X2416604Y1141112D01*
X2416877Y1141190D01*
X2417189Y1141288D01*
X2417521Y1141443D01*
X2417833Y1141658D01*
X2417989Y1141795D01*
X2418145Y1141951D01*
Y1141970D01*
X2418184Y1141990D01*
X2418223Y1142048D01*
X2418262Y1142126D01*
X2418321Y1142224D01*
X2418399Y1142341D01*
X2418457Y1142477D01*
X2418535Y1142634D01*
X2418613Y1142809D01*
X2418672Y1143004D01*
X2418750Y1143238D01*
X2418808Y1143492D01*
X2418848Y1143745D01*
X2418887Y1144038D01*
X2418926Y1144350D01*
Y1144682D01*
Y1144701D01*
Y1144760D01*
Y1144838D01*
X2418906Y1144974D01*
Y1145111D01*
X2418887Y1145267D01*
X2418828Y1145657D01*
X2418730Y1146067D01*
X2418594Y1146515D01*
X2418399Y1146925D01*
X2418126Y1147296D01*
Y1147315D01*
X2418087Y1147335D01*
X2417989Y1147432D01*
X2417814Y1147588D01*
X2417599Y1147744D01*
X2417307Y1147900D01*
X2416975Y1148056D01*
X2416604Y1148154D01*
X2416409Y1148193D01*
D02*
G37*
G36*
X2056235Y1151392D02*
X2052197D01*
Y1147159D01*
X2056021D01*
X2056235Y1147179D01*
X2056489Y1147198D01*
X2056781Y1147218D01*
X2057093Y1147257D01*
X2057386Y1147315D01*
X2057640Y1147393D01*
X2057679Y1147413D01*
X2057757Y1147432D01*
X2057874Y1147491D01*
X2058010Y1147569D01*
X2058166Y1147686D01*
X2058342Y1147822D01*
X2058498Y1147979D01*
X2058634Y1148154D01*
X2058654Y1148174D01*
X2058693Y1148252D01*
X2058752Y1148349D01*
X2058810Y1148505D01*
X2058869Y1148661D01*
X2058927Y1148856D01*
X2058966Y1149071D01*
X2058986Y1149305D01*
Y1149324D01*
Y1149344D01*
Y1149461D01*
X2058947Y1149617D01*
X2058908Y1149832D01*
X2058830Y1150066D01*
X2058712Y1150319D01*
X2058537Y1150573D01*
X2058322Y1150807D01*
X2058283Y1150826D01*
X2058205Y1150904D01*
X2058030Y1151002D01*
X2057815Y1151100D01*
X2057523Y1151217D01*
X2057171Y1151295D01*
X2056742Y1151373D01*
X2056235Y1151392D01*
D02*
G37*
G36*
X2091875Y1148213D02*
X2091777D01*
X2091699Y1148193D01*
X2091485Y1148174D01*
X2091231Y1148115D01*
X2090938Y1148037D01*
X2090646Y1147900D01*
X2090334Y1147725D01*
X2090041Y1147471D01*
X2090002Y1147432D01*
X2089924Y1147335D01*
X2089807Y1147179D01*
X2089670Y1146945D01*
X2089534Y1146672D01*
X2089397Y1146340D01*
X2089300Y1145950D01*
X2089241Y1145520D01*
X2094430D01*
Y1145540D01*
Y1145579D01*
X2094411Y1145638D01*
Y1145716D01*
X2094372Y1145930D01*
X2094313Y1146184D01*
X2094235Y1146457D01*
X2094118Y1146749D01*
X2094001Y1147042D01*
X2093826Y1147276D01*
Y1147296D01*
X2093786Y1147315D01*
X2093689Y1147432D01*
X2093513Y1147569D01*
X2093299Y1147744D01*
X2093006Y1147920D01*
X2092675Y1148076D01*
X2092304Y1148174D01*
X2092089Y1148193D01*
X2091875Y1148213D01*
D02*
G37*
G36*
X2067159Y1148193D02*
X2066828D01*
X2066750Y1148174D01*
X2066535Y1148154D01*
X2066262Y1148076D01*
X2065950Y1147979D01*
X2065618Y1147822D01*
X2065286Y1147588D01*
X2065130Y1147452D01*
X2064974Y1147296D01*
X2064935Y1147257D01*
X2064896Y1147198D01*
X2064857Y1147140D01*
X2064799Y1147042D01*
X2064740Y1146925D01*
X2064662Y1146788D01*
X2064604Y1146633D01*
X2064526Y1146457D01*
X2064448Y1146262D01*
X2064389Y1146047D01*
X2064331Y1145794D01*
X2064292Y1145540D01*
X2064253Y1145247D01*
X2064214Y1144955D01*
Y1144623D01*
Y1144604D01*
Y1144545D01*
Y1144448D01*
X2064233Y1144331D01*
Y1144194D01*
X2064253Y1144018D01*
X2064311Y1143628D01*
X2064409Y1143199D01*
X2064526Y1142750D01*
X2064721Y1142321D01*
X2064838Y1142126D01*
X2064974Y1141951D01*
X2065013Y1141912D01*
X2065111Y1141814D01*
X2065286Y1141678D01*
X2065520Y1141522D01*
X2065794Y1141346D01*
X2066145Y1141209D01*
X2066515Y1141112D01*
X2066730Y1141092D01*
X2066945Y1141073D01*
X2067062D01*
X2067140Y1141092D01*
X2067354Y1141112D01*
X2067627Y1141190D01*
X2067939Y1141288D01*
X2068271Y1141443D01*
X2068583Y1141658D01*
X2068739Y1141795D01*
X2068895Y1141951D01*
Y1141970D01*
X2068934Y1141990D01*
X2068973Y1142048D01*
X2069012Y1142126D01*
X2069071Y1142224D01*
X2069149Y1142341D01*
X2069207Y1142477D01*
X2069285Y1142634D01*
X2069364Y1142809D01*
X2069422Y1143004D01*
X2069500Y1143238D01*
X2069559Y1143492D01*
X2069597Y1143745D01*
X2069637Y1144038D01*
X2069676Y1144350D01*
Y1144682D01*
Y1144701D01*
Y1144760D01*
Y1144838D01*
X2069656Y1144974D01*
Y1145111D01*
X2069637Y1145267D01*
X2069578Y1145657D01*
X2069480Y1146067D01*
X2069344Y1146515D01*
X2069149Y1146925D01*
X2068876Y1147296D01*
Y1147315D01*
X2068837Y1147335D01*
X2068739Y1147432D01*
X2068564Y1147588D01*
X2068349Y1147744D01*
X2068056Y1147900D01*
X2067725Y1148056D01*
X2067354Y1148154D01*
X2067159Y1148193D01*
D02*
G37*
G36*
X1658985Y1151892D02*
X1654947D01*
Y1147659D01*
X1658770D01*
X1658985Y1147679D01*
X1659239Y1147698D01*
X1659531Y1147718D01*
X1659843Y1147757D01*
X1660136Y1147815D01*
X1660390Y1147893D01*
X1660429Y1147913D01*
X1660507Y1147932D01*
X1660624Y1147991D01*
X1660760Y1148069D01*
X1660916Y1148186D01*
X1661092Y1148322D01*
X1661248Y1148478D01*
X1661384Y1148654D01*
X1661404Y1148673D01*
X1661443Y1148752D01*
X1661502Y1148849D01*
X1661560Y1149005D01*
X1661619Y1149161D01*
X1661677Y1149356D01*
X1661716Y1149571D01*
X1661736Y1149805D01*
Y1149824D01*
Y1149844D01*
Y1149961D01*
X1661697Y1150117D01*
X1661658Y1150332D01*
X1661580Y1150566D01*
X1661463Y1150819D01*
X1661287Y1151073D01*
X1661072Y1151307D01*
X1661033Y1151327D01*
X1660955Y1151404D01*
X1660780Y1151502D01*
X1660565Y1151600D01*
X1660273Y1151717D01*
X1659922Y1151795D01*
X1659492Y1151873D01*
X1658985Y1151892D01*
D02*
G37*
G36*
X1694625Y1148712D02*
X1694527D01*
X1694449Y1148693D01*
X1694235Y1148673D01*
X1693981Y1148615D01*
X1693688Y1148537D01*
X1693396Y1148400D01*
X1693084Y1148225D01*
X1692791Y1147971D01*
X1692752Y1147932D01*
X1692674Y1147835D01*
X1692557Y1147679D01*
X1692421Y1147445D01*
X1692284Y1147171D01*
X1692147Y1146840D01*
X1692050Y1146450D01*
X1691991Y1146021D01*
X1697180D01*
Y1146040D01*
Y1146079D01*
X1697161Y1146138D01*
Y1146216D01*
X1697122Y1146430D01*
X1697063Y1146684D01*
X1696985Y1146957D01*
X1696868Y1147250D01*
X1696751Y1147542D01*
X1696575Y1147776D01*
Y1147796D01*
X1696537Y1147815D01*
X1696439Y1147932D01*
X1696263Y1148069D01*
X1696049Y1148244D01*
X1695756Y1148420D01*
X1695425Y1148576D01*
X1695054Y1148673D01*
X1694839Y1148693D01*
X1694625Y1148712D01*
D02*
G37*
G36*
X1669909Y1148693D02*
X1669577D01*
X1669500Y1148673D01*
X1669285Y1148654D01*
X1669012Y1148576D01*
X1668700Y1148478D01*
X1668368Y1148322D01*
X1668036Y1148088D01*
X1667880Y1147952D01*
X1667724Y1147796D01*
X1667685Y1147757D01*
X1667646Y1147698D01*
X1667607Y1147640D01*
X1667549Y1147542D01*
X1667490Y1147425D01*
X1667412Y1147289D01*
X1667354Y1147132D01*
X1667276Y1146957D01*
X1667198Y1146762D01*
X1667139Y1146547D01*
X1667081Y1146294D01*
X1667042Y1146040D01*
X1667003Y1145747D01*
X1666964Y1145455D01*
Y1145123D01*
Y1145104D01*
Y1145045D01*
Y1144948D01*
X1666983Y1144831D01*
Y1144694D01*
X1667003Y1144519D01*
X1667061Y1144128D01*
X1667159Y1143699D01*
X1667276Y1143251D01*
X1667471Y1142821D01*
X1667588Y1142626D01*
X1667724Y1142451D01*
X1667763Y1142412D01*
X1667861Y1142314D01*
X1668036Y1142178D01*
X1668271Y1142022D01*
X1668544Y1141846D01*
X1668895Y1141710D01*
X1669265Y1141612D01*
X1669480Y1141592D01*
X1669695Y1141573D01*
X1669812D01*
X1669890Y1141592D01*
X1670104Y1141612D01*
X1670377Y1141690D01*
X1670689Y1141787D01*
X1671021Y1141944D01*
X1671333Y1142158D01*
X1671489Y1142295D01*
X1671645Y1142451D01*
Y1142470D01*
X1671684Y1142490D01*
X1671723Y1142548D01*
X1671762Y1142626D01*
X1671821Y1142724D01*
X1671899Y1142841D01*
X1671957Y1142977D01*
X1672035Y1143133D01*
X1672113Y1143309D01*
X1672172Y1143504D01*
X1672250Y1143738D01*
X1672309Y1143992D01*
X1672348Y1144245D01*
X1672387Y1144538D01*
X1672426Y1144850D01*
Y1145182D01*
Y1145201D01*
Y1145260D01*
Y1145338D01*
X1672406Y1145474D01*
Y1145611D01*
X1672387Y1145767D01*
X1672328Y1146157D01*
X1672231Y1146567D01*
X1672094Y1147015D01*
X1671899Y1147425D01*
X1671626Y1147796D01*
Y1147815D01*
X1671587Y1147835D01*
X1671489Y1147932D01*
X1671314Y1148088D01*
X1671099Y1148244D01*
X1670806Y1148400D01*
X1670475Y1148557D01*
X1670104Y1148654D01*
X1669909Y1148693D01*
D02*
G37*
G36*
X1219730Y1235430D02*
X1219710D01*
X1219671D01*
X1219612Y1235411D01*
X1219534D01*
X1219320Y1235372D01*
X1219066Y1235313D01*
X1218793Y1235235D01*
X1218501Y1235118D01*
X1218208Y1235001D01*
X1217974Y1234826D01*
X1217954D01*
X1217935Y1234787D01*
X1217818Y1234689D01*
X1217681Y1234513D01*
X1217506Y1234299D01*
X1217330Y1234006D01*
X1217174Y1233675D01*
X1217076Y1233304D01*
X1217057Y1233089D01*
X1217038Y1232875D01*
Y1232777D01*
X1217057Y1232699D01*
X1217076Y1232485D01*
X1217135Y1232231D01*
X1217213Y1231938D01*
X1217350Y1231646D01*
X1217525Y1231334D01*
X1217779Y1231041D01*
X1217818Y1231002D01*
X1217915Y1230924D01*
X1218071Y1230807D01*
X1218305Y1230670D01*
X1218578Y1230534D01*
X1218910Y1230397D01*
X1219300Y1230300D01*
X1219730Y1230241D01*
Y1235430D01*
D02*
G37*
G36*
X1220900Y1210676D02*
X1220568D01*
X1220549D01*
X1220490D01*
X1220412D01*
X1220276Y1210656D01*
X1220139D01*
X1219983Y1210637D01*
X1219593Y1210578D01*
X1219183Y1210480D01*
X1218735Y1210344D01*
X1218325Y1210149D01*
X1217954Y1209876D01*
X1217935D01*
X1217915Y1209837D01*
X1217818Y1209739D01*
X1217662Y1209564D01*
X1217506Y1209349D01*
X1217350Y1209056D01*
X1217194Y1208725D01*
X1217096Y1208354D01*
X1217057Y1208159D01*
Y1207828D01*
X1217076Y1207749D01*
X1217096Y1207535D01*
X1217174Y1207262D01*
X1217272Y1206950D01*
X1217428Y1206618D01*
X1217662Y1206286D01*
X1217798Y1206130D01*
X1217954Y1205974D01*
X1217993Y1205935D01*
X1218052Y1205896D01*
X1218110Y1205857D01*
X1218208Y1205799D01*
X1218325Y1205740D01*
X1218462Y1205662D01*
X1218618Y1205604D01*
X1218793Y1205526D01*
X1218988Y1205448D01*
X1219203Y1205389D01*
X1219456Y1205331D01*
X1219710Y1205292D01*
X1220003Y1205253D01*
X1220295Y1205214D01*
X1220627D01*
X1220646D01*
X1220705D01*
X1220802D01*
X1220919Y1205233D01*
X1221056D01*
X1221232Y1205253D01*
X1221622Y1205311D01*
X1222051Y1205409D01*
X1222499Y1205526D01*
X1222929Y1205721D01*
X1223124Y1205838D01*
X1223299Y1205974D01*
X1223338Y1206013D01*
X1223436Y1206111D01*
X1223572Y1206286D01*
X1223728Y1206520D01*
X1223904Y1206794D01*
X1224041Y1207145D01*
X1224138Y1207515D01*
X1224158Y1207730D01*
X1224177Y1207945D01*
Y1208062D01*
X1224158Y1208140D01*
X1224138Y1208354D01*
X1224060Y1208627D01*
X1223962Y1208939D01*
X1223807Y1209271D01*
X1223592Y1209583D01*
X1223455Y1209739D01*
X1223299Y1209895D01*
X1223280D01*
X1223260Y1209934D01*
X1223202Y1209973D01*
X1223124Y1210012D01*
X1223026Y1210071D01*
X1222909Y1210149D01*
X1222773Y1210207D01*
X1222617Y1210285D01*
X1222441Y1210363D01*
X1222246Y1210422D01*
X1222012Y1210500D01*
X1221758Y1210558D01*
X1221505Y1210598D01*
X1221212Y1210637D01*
X1220900Y1210676D01*
D02*
G37*
G36*
X1215945Y1199986D02*
X1215926D01*
X1215906D01*
X1215789D01*
X1215633Y1199947D01*
X1215418Y1199908D01*
X1215184Y1199830D01*
X1214931Y1199713D01*
X1214677Y1199537D01*
X1214443Y1199322D01*
X1214424Y1199283D01*
X1214345Y1199205D01*
X1214248Y1199030D01*
X1214150Y1198815D01*
X1214033Y1198523D01*
X1213955Y1198171D01*
X1213877Y1197742D01*
X1213858Y1197235D01*
Y1193197D01*
X1218091D01*
Y1197020D01*
X1218071Y1197235D01*
X1218052Y1197489D01*
X1218032Y1197781D01*
X1217993Y1198093D01*
X1217935Y1198386D01*
X1217857Y1198640D01*
X1217837Y1198679D01*
X1217818Y1198757D01*
X1217759Y1198874D01*
X1217681Y1199010D01*
X1217564Y1199166D01*
X1217428Y1199342D01*
X1217272Y1199498D01*
X1217096Y1199634D01*
X1217076Y1199654D01*
X1216999Y1199693D01*
X1216901Y1199752D01*
X1216745Y1199810D01*
X1216589Y1199869D01*
X1216394Y1199927D01*
X1216179Y1199966D01*
X1215945Y1199986D01*
D02*
G37*
G36*
X1215980Y1568430D02*
X1215960D01*
X1215921D01*
X1215862Y1568411D01*
X1215784D01*
X1215570Y1568372D01*
X1215316Y1568313D01*
X1215043Y1568235D01*
X1214751Y1568118D01*
X1214458Y1568001D01*
X1214224Y1567825D01*
X1214204D01*
X1214185Y1567787D01*
X1214068Y1567689D01*
X1213931Y1567513D01*
X1213756Y1567299D01*
X1213580Y1567006D01*
X1213424Y1566675D01*
X1213326Y1566304D01*
X1213307Y1566089D01*
X1213288Y1565875D01*
Y1565777D01*
X1213307Y1565699D01*
X1213326Y1565485D01*
X1213385Y1565231D01*
X1213463Y1564938D01*
X1213600Y1564646D01*
X1213775Y1564334D01*
X1214029Y1564041D01*
X1214068Y1564002D01*
X1214165Y1563924D01*
X1214321Y1563807D01*
X1214555Y1563671D01*
X1214828Y1563534D01*
X1215160Y1563397D01*
X1215550Y1563300D01*
X1215980Y1563241D01*
Y1568430D01*
D02*
G37*
G36*
X1217150Y1543676D02*
X1216818D01*
X1216799D01*
X1216740D01*
X1216662D01*
X1216526Y1543656D01*
X1216389D01*
X1216233Y1543637D01*
X1215843Y1543578D01*
X1215433Y1543481D01*
X1214985Y1543344D01*
X1214575Y1543149D01*
X1214204Y1542876D01*
X1214185D01*
X1214165Y1542837D01*
X1214068Y1542739D01*
X1213912Y1542564D01*
X1213756Y1542349D01*
X1213600Y1542056D01*
X1213444Y1541725D01*
X1213346Y1541354D01*
X1213307Y1541159D01*
Y1540827D01*
X1213326Y1540750D01*
X1213346Y1540535D01*
X1213424Y1540262D01*
X1213522Y1539950D01*
X1213678Y1539618D01*
X1213912Y1539286D01*
X1214048Y1539130D01*
X1214204Y1538974D01*
X1214243Y1538935D01*
X1214302Y1538896D01*
X1214360Y1538857D01*
X1214458Y1538799D01*
X1214575Y1538740D01*
X1214712Y1538662D01*
X1214867Y1538604D01*
X1215043Y1538526D01*
X1215238Y1538448D01*
X1215453Y1538389D01*
X1215706Y1538331D01*
X1215960Y1538292D01*
X1216253Y1538253D01*
X1216545Y1538214D01*
X1216877D01*
X1216896D01*
X1216955D01*
X1217052D01*
X1217169Y1538233D01*
X1217306D01*
X1217482Y1538253D01*
X1217872Y1538311D01*
X1218301Y1538409D01*
X1218749Y1538526D01*
X1219179Y1538721D01*
X1219374Y1538838D01*
X1219549Y1538974D01*
X1219588Y1539013D01*
X1219686Y1539111D01*
X1219822Y1539286D01*
X1219978Y1539521D01*
X1220154Y1539794D01*
X1220291Y1540145D01*
X1220388Y1540515D01*
X1220408Y1540730D01*
X1220427Y1540945D01*
Y1541062D01*
X1220408Y1541140D01*
X1220388Y1541354D01*
X1220310Y1541627D01*
X1220212Y1541939D01*
X1220057Y1542271D01*
X1219842Y1542583D01*
X1219705Y1542739D01*
X1219549Y1542895D01*
X1219530D01*
X1219510Y1542934D01*
X1219452Y1542973D01*
X1219374Y1543012D01*
X1219276Y1543071D01*
X1219159Y1543149D01*
X1219023Y1543207D01*
X1218867Y1543285D01*
X1218691Y1543363D01*
X1218496Y1543422D01*
X1218262Y1543500D01*
X1218008Y1543559D01*
X1217755Y1543598D01*
X1217462Y1543637D01*
X1217150Y1543676D01*
D02*
G37*
G36*
X1212195Y1532986D02*
X1212176D01*
X1212156D01*
X1212039D01*
X1211883Y1532947D01*
X1211668Y1532908D01*
X1211434Y1532830D01*
X1211181Y1532713D01*
X1210927Y1532537D01*
X1210693Y1532322D01*
X1210674Y1532283D01*
X1210595Y1532205D01*
X1210498Y1532030D01*
X1210400Y1531815D01*
X1210283Y1531523D01*
X1210205Y1531172D01*
X1210127Y1530742D01*
X1210108Y1530235D01*
Y1526197D01*
X1214341D01*
Y1530020D01*
X1214321Y1530235D01*
X1214302Y1530489D01*
X1214282Y1530781D01*
X1214243Y1531093D01*
X1214185Y1531386D01*
X1214107Y1531640D01*
X1214087Y1531679D01*
X1214068Y1531757D01*
X1214009Y1531874D01*
X1213931Y1532010D01*
X1213814Y1532166D01*
X1213678Y1532342D01*
X1213522Y1532498D01*
X1213346Y1532634D01*
X1213326Y1532654D01*
X1213248Y1532693D01*
X1213151Y1532751D01*
X1212995Y1532810D01*
X1212839Y1532869D01*
X1212644Y1532927D01*
X1212429Y1532966D01*
X1212195Y1532986D01*
D02*
G37*
G36*
X1219230Y1919680D02*
X1219210D01*
X1219171D01*
X1219112Y1919661D01*
X1219034D01*
X1218820Y1919622D01*
X1218566Y1919563D01*
X1218293Y1919485D01*
X1218000Y1919368D01*
X1217708Y1919251D01*
X1217474Y1919075D01*
X1217454D01*
X1217435Y1919037D01*
X1217318Y1918939D01*
X1217181Y1918763D01*
X1217006Y1918549D01*
X1216830Y1918256D01*
X1216674Y1917925D01*
X1216577Y1917554D01*
X1216557Y1917339D01*
X1216537Y1917125D01*
Y1917027D01*
X1216557Y1916949D01*
X1216577Y1916735D01*
X1216635Y1916481D01*
X1216713Y1916188D01*
X1216850Y1915896D01*
X1217025Y1915584D01*
X1217279Y1915291D01*
X1217318Y1915252D01*
X1217415Y1915174D01*
X1217571Y1915057D01*
X1217805Y1914921D01*
X1218079Y1914784D01*
X1218410Y1914647D01*
X1218800Y1914550D01*
X1219230Y1914491D01*
Y1919680D01*
D02*
G37*
G36*
X1220400Y1894926D02*
X1220068D01*
X1220049D01*
X1219990D01*
X1219912D01*
X1219776Y1894906D01*
X1219639D01*
X1219483Y1894887D01*
X1219093Y1894828D01*
X1218683Y1894731D01*
X1218235Y1894594D01*
X1217825Y1894399D01*
X1217454Y1894126D01*
X1217435D01*
X1217415Y1894087D01*
X1217318Y1893989D01*
X1217162Y1893814D01*
X1217006Y1893599D01*
X1216850Y1893306D01*
X1216693Y1892975D01*
X1216596Y1892604D01*
X1216557Y1892409D01*
Y1892077D01*
X1216577Y1892000D01*
X1216596Y1891785D01*
X1216674Y1891512D01*
X1216772Y1891200D01*
X1216928Y1890868D01*
X1217162Y1890536D01*
X1217298Y1890380D01*
X1217454Y1890224D01*
X1217493Y1890185D01*
X1217552Y1890146D01*
X1217610Y1890107D01*
X1217708Y1890049D01*
X1217825Y1889990D01*
X1217962Y1889912D01*
X1218118Y1889854D01*
X1218293Y1889776D01*
X1218488Y1889698D01*
X1218703Y1889639D01*
X1218956Y1889581D01*
X1219210Y1889542D01*
X1219503Y1889503D01*
X1219795Y1889464D01*
X1220127D01*
X1220146D01*
X1220205D01*
X1220302D01*
X1220419Y1889483D01*
X1220556D01*
X1220732Y1889503D01*
X1221122Y1889561D01*
X1221551Y1889659D01*
X1222000Y1889776D01*
X1222429Y1889971D01*
X1222624Y1890088D01*
X1222799Y1890224D01*
X1222838Y1890263D01*
X1222936Y1890361D01*
X1223072Y1890536D01*
X1223228Y1890771D01*
X1223404Y1891044D01*
X1223541Y1891395D01*
X1223638Y1891765D01*
X1223658Y1891980D01*
X1223677Y1892195D01*
Y1892312D01*
X1223658Y1892390D01*
X1223638Y1892604D01*
X1223560Y1892877D01*
X1223463Y1893189D01*
X1223307Y1893521D01*
X1223092Y1893833D01*
X1222955Y1893989D01*
X1222799Y1894145D01*
X1222780D01*
X1222760Y1894184D01*
X1222702Y1894223D01*
X1222624Y1894262D01*
X1222526Y1894321D01*
X1222409Y1894399D01*
X1222273Y1894457D01*
X1222116Y1894535D01*
X1221941Y1894613D01*
X1221746Y1894672D01*
X1221512Y1894750D01*
X1221258Y1894809D01*
X1221005Y1894848D01*
X1220712Y1894887D01*
X1220400Y1894926D01*
D02*
G37*
G36*
X1215445Y1884236D02*
X1215426D01*
X1215406D01*
X1215289D01*
X1215133Y1884197D01*
X1214918Y1884158D01*
X1214684Y1884080D01*
X1214431Y1883963D01*
X1214177Y1883787D01*
X1213943Y1883572D01*
X1213923Y1883533D01*
X1213846Y1883455D01*
X1213748Y1883280D01*
X1213650Y1883065D01*
X1213533Y1882773D01*
X1213455Y1882422D01*
X1213377Y1881992D01*
X1213358Y1881485D01*
Y1877447D01*
X1217591D01*
Y1881270D01*
X1217571Y1881485D01*
X1217552Y1881739D01*
X1217532Y1882031D01*
X1217493Y1882343D01*
X1217435Y1882636D01*
X1217357Y1882890D01*
X1217337Y1882929D01*
X1217318Y1883007D01*
X1217259Y1883124D01*
X1217181Y1883260D01*
X1217064Y1883416D01*
X1216928Y1883592D01*
X1216772Y1883748D01*
X1216596Y1883884D01*
X1216577Y1883904D01*
X1216498Y1883943D01*
X1216401Y1884001D01*
X1216245Y1884060D01*
X1216089Y1884119D01*
X1215894Y1884177D01*
X1215679Y1884216D01*
X1215445Y1884236D01*
D02*
G37*
%LPD*%
D11*
X1507000Y1935950D02*
G03*
X1507000Y1915850I0J-10050D01*
G01*
X1838000Y1915800D02*
G03*
X1838000Y1935900I0J10050D01*
G01*
X1229000Y1385000D02*
G03*
X1249100Y1385000I10050J0D01*
G01*
X1249050Y1316000D02*
G03*
X1228950Y1316000I-10050J0D01*
G01*
X2529200D02*
G03*
X2509100Y1316000I-10050J0D01*
G01*
X2509150Y1385000D02*
G03*
X2529250Y1385000I10050J0D01*
G01*
X2529050Y1702000D02*
G03*
X2508950Y1702000I-10050J0D01*
G01*
X2509000Y1771000D02*
G03*
X2529100Y1771000I10050J0D01*
G01*
X1228900D02*
G03*
X1249000Y1771000I10050J0D01*
G01*
X1248950Y1702000D02*
G03*
X1228850Y1702000I-10050J0D01*
G01*
X1437000Y1155900D02*
G03*
X1437000Y1176000I0J10050D01*
G01*
X1506000Y1175950D02*
G03*
X1506000Y1155850I0J-10050D01*
G01*
X1906000Y1175850D02*
G03*
X1906000Y1155751I0J-10050D01*
G01*
X1837000Y1155800D02*
G03*
X1837000Y1175900I0J10050D01*
G01*
X2306000Y1175850D02*
G03*
X2306000Y1155751I0J-10050D01*
G01*
X2237000Y1155800D02*
G03*
X2237000Y1175900I0J10050D01*
G01*
X2238000Y1915800D02*
G03*
X2238000Y1935900I0J10050D01*
G01*
X2307000Y1935850D02*
G03*
X2307000Y1915750I0J-10050D01*
G01*
X1907000Y1935850D02*
G03*
X1907000Y1915750I0J-10050D01*
G01*
X1438000Y1915900D02*
G03*
X1438000Y1936000I0J10050D01*
G01*
X2238000Y1535800D02*
G03*
X2238000Y1555900I0J10050D01*
G01*
X2307000Y1555850D02*
G03*
X2307000Y1535751I0J-10050D01*
G01*
X1838000Y1535800D02*
G03*
X1838000Y1555900I0J10050D01*
G01*
X1907000Y1555850D02*
G03*
X1907000Y1535751I0J-10050D01*
G01*
X1507000Y1555950D02*
G03*
X1507000Y1535850I0J-10050D01*
G01*
X1438000Y1535900D02*
G03*
X1438000Y1556000I0J10050D01*
G01*
X1249000Y1586000D02*
G03*
X1279000Y1556000I30000J0D01*
G01*
X2479000D02*
G03*
X2509000Y1586000I0J30000D01*
G01*
Y1886000D02*
G03*
X2479000Y1916000I-30000J0D01*
G01*
X1279000D02*
G03*
X1249000Y1886000I0J-30000D01*
G01*
X2509000Y1586000D02*
Y1886000D01*
X1279000Y1556000D02*
X2479000D01*
X1279000Y1915750D02*
X2479000D01*
X1249000Y1586000D02*
Y1886000D01*
X1279274Y1536274D02*
G03*
X1249274Y1506274I0J-30000D01*
G01*
X2509274D02*
G03*
X2479274Y1536274I-30000J0D01*
G01*
Y1176274D02*
G03*
X2509274Y1206274I0J30000D01*
G01*
X1249274D02*
G03*
X1279274Y1176274I30000J0D01*
G01*
X1249274Y1206274D02*
Y1506274D01*
X1279274Y1536024D02*
X2479274D01*
X1279274Y1176274D02*
X2479274D01*
X2509274Y1206274D02*
Y1506274D01*
D29*
X1507000Y1935950D02*
X1837950D01*
X1907000Y1935850D02*
X2237950D01*
X1506050Y1155800D02*
X1837000D01*
X1906050D02*
X2237000D01*
X2306000Y1155751D02*
X2529249D01*
X2529200D02*
Y1316000D01*
X2307000Y1935850D02*
X2529400D01*
X2529250Y1771500D02*
Y1936500D01*
X1228600Y1155900D02*
X1437000D01*
X1228950D02*
Y1315500D01*
X1229250Y1936000D02*
X1438000D01*
X1228900Y1771000D02*
Y1936000D01*
X2529050Y1385950D02*
Y1702000D01*
X1229000Y1385000D02*
Y1702000D01*
D30*
X2398524Y1378704D02*
Y1407904D01*
X2411524D01*
Y1378704D02*
Y1407904D01*
X2398524Y1378704D02*
X2411524D01*
X2398524Y1397904D02*
X2408524Y1407904D01*
X2398524Y1398904D02*
X2407524Y1407904D01*
X2398524Y1399904D02*
X2406524Y1407904D01*
X2398524Y1400904D02*
X2405524Y1407904D01*
X2398524Y1401904D02*
X2404524Y1407904D01*
X2398524Y1402904D02*
X2403524Y1407904D01*
X2398524Y1403904D02*
X2402524Y1407904D01*
X2398524Y1404904D02*
X2401524Y1407904D01*
X2398524Y1405904D02*
X2400524Y1407904D01*
X2398524Y1406904D02*
X2399524Y1407904D01*
M02*
