G04*
G04 #@! TF.GenerationSoftware,Altium Limited,Altium Designer,18.1.9 (240)*
G04*
G04 Layer_Physical_Order=1*
G04 Layer_Color=255*
%FSLAX44Y44*%
%MOMM*%
G71*
G01*
G75*
%ADD10P,1.1314X4X270.0*%
%ADD11C,0.2540*%
%ADD12R,0.9000X0.8000*%
%ADD13R,0.6000X1.6000*%
%ADD14R,0.8000X0.9000*%
%ADD15R,1.5240X0.6350*%
%ADD16R,1.2190X0.9140*%
%ADD17R,1.0500X0.6000*%
%ADD18R,1.3000X0.7000*%
%ADD19R,2.6000X1.8000*%
%ADD20R,0.4500X0.6000*%
%ADD21R,2.0000X0.9000*%
%ADD22R,0.9000X2.0000*%
%ADD23R,5.0000X5.0000*%
%ADD24R,2.0000X0.8001*%
%ADD25R,0.8001X1.0000*%
%ADD26R,0.8001X0.8999*%
%ADD27C,0.5000*%
%ADD28C,0.1270*%
%ADD29C,0.2500*%
%ADD30C,0.1000*%
%ADD31R,5.0250X1.6628*%
%ADD32R,5.0071X2.3200*%
%ADD33C,0.5000*%
%ADD34R,1.5000X1.5000*%
%ADD35C,1.5000*%
%ADD36C,3.0000*%
%ADD37R,1.5000X1.5000*%
%ADD38R,1.1000X1.1000*%
%ADD39O,1.8000X1.1000*%
%ADD40O,1.6000X1.2000*%
%ADD41C,1.2002*%
%ADD42C,0.8001*%
%ADD43C,0.4500*%
D10*
X2455388Y1622638D02*
D03*
X2444074Y1611324D02*
D03*
X2425388Y1622638D02*
D03*
X2414074Y1611324D02*
D03*
X2395388Y1622638D02*
D03*
X2384074Y1611324D02*
D03*
X2365388Y1622638D02*
D03*
X2354074Y1611324D02*
D03*
X2335388Y1622638D02*
D03*
X2324074Y1611324D02*
D03*
X2305388Y1622638D02*
D03*
X2294074Y1611324D02*
D03*
X2275388Y1622638D02*
D03*
X2264074Y1611324D02*
D03*
X2245388Y1622638D02*
D03*
X2234074Y1611324D02*
D03*
X2215388Y1622638D02*
D03*
X2204074Y1611324D02*
D03*
X2185388Y1622638D02*
D03*
X2174074Y1611324D02*
D03*
X2155388Y1622638D02*
D03*
X2144074Y1611324D02*
D03*
X2125388Y1622638D02*
D03*
X2114074Y1611324D02*
D03*
X2095388Y1622638D02*
D03*
X2084074Y1611324D02*
D03*
X2065388Y1622638D02*
D03*
X2054074Y1611324D02*
D03*
X2035388Y1622638D02*
D03*
X2024074Y1611324D02*
D03*
X2005388Y1622638D02*
D03*
X1994074Y1611324D02*
D03*
X1975388Y1622638D02*
D03*
X1964074Y1611324D02*
D03*
X1945388Y1622638D02*
D03*
X1934074Y1611324D02*
D03*
X1915388Y1622638D02*
D03*
X1904074Y1611324D02*
D03*
X1885388Y1622638D02*
D03*
X1874074Y1611324D02*
D03*
X1855388Y1622638D02*
D03*
X1844074Y1611324D02*
D03*
X1825388Y1622638D02*
D03*
X1814074Y1611324D02*
D03*
X1795388Y1622638D02*
D03*
X1784074Y1611324D02*
D03*
X1765388Y1622638D02*
D03*
X1754074Y1611324D02*
D03*
X1735388Y1622638D02*
D03*
X1724074Y1611324D02*
D03*
X1705388Y1622638D02*
D03*
X1694074Y1611324D02*
D03*
X1675388Y1622638D02*
D03*
X1664074Y1611324D02*
D03*
X1645388Y1622638D02*
D03*
X1634074Y1611324D02*
D03*
X1615388Y1622638D02*
D03*
X1604074Y1611324D02*
D03*
X1585388Y1622638D02*
D03*
X1574074Y1611324D02*
D03*
X1555388Y1622638D02*
D03*
X1544074Y1611324D02*
D03*
X1525388Y1622638D02*
D03*
X1514074Y1611324D02*
D03*
X1495388Y1622638D02*
D03*
X1484074Y1611324D02*
D03*
X1465388Y1622638D02*
D03*
X1454074Y1611324D02*
D03*
X1435388Y1622638D02*
D03*
X1424074Y1611324D02*
D03*
X1405388Y1622638D02*
D03*
X1394074Y1611324D02*
D03*
X1375388Y1622638D02*
D03*
X1364074Y1611324D02*
D03*
X1345388Y1622638D02*
D03*
X1334074Y1611324D02*
D03*
X1315388Y1622638D02*
D03*
X1304074Y1611324D02*
D03*
X2455388Y1652638D02*
D03*
X2444074Y1641324D02*
D03*
X2425388Y1652638D02*
D03*
X2414074Y1641324D02*
D03*
X2395388Y1652638D02*
D03*
X2384074Y1641324D02*
D03*
X2365388Y1652638D02*
D03*
X2354074Y1641324D02*
D03*
X2335388Y1652638D02*
D03*
X2324074Y1641324D02*
D03*
X2305388Y1652638D02*
D03*
X2294074Y1641324D02*
D03*
X2275388Y1652638D02*
D03*
X2264074Y1641324D02*
D03*
X2245388Y1652638D02*
D03*
X2234074Y1641324D02*
D03*
X2215388Y1652638D02*
D03*
X2204074Y1641324D02*
D03*
X2185388Y1652638D02*
D03*
X2174074Y1641324D02*
D03*
X2155388Y1652638D02*
D03*
X2144074Y1641324D02*
D03*
X2125388Y1652638D02*
D03*
X2114074Y1641324D02*
D03*
X2095388Y1652638D02*
D03*
X2084074Y1641324D02*
D03*
X2065388Y1652638D02*
D03*
X2054074Y1641324D02*
D03*
X2035388Y1652638D02*
D03*
X2024074Y1641324D02*
D03*
X2005388Y1652638D02*
D03*
X1994074Y1641324D02*
D03*
X1975388Y1652638D02*
D03*
X1964074Y1641324D02*
D03*
X1945388Y1652638D02*
D03*
X1934074Y1641324D02*
D03*
X1915388Y1652638D02*
D03*
X1904074Y1641324D02*
D03*
X1885388Y1652638D02*
D03*
X1874074Y1641324D02*
D03*
X1855388Y1652638D02*
D03*
X1844074Y1641324D02*
D03*
X1825388Y1652638D02*
D03*
X1814074Y1641324D02*
D03*
X1795388Y1652638D02*
D03*
X1784074Y1641324D02*
D03*
X1765388Y1652638D02*
D03*
X1754074Y1641324D02*
D03*
X1735388Y1652638D02*
D03*
X1724074Y1641324D02*
D03*
X1705388Y1652638D02*
D03*
X1694074Y1641324D02*
D03*
X1675388Y1652638D02*
D03*
X1664074Y1641324D02*
D03*
X1645388Y1652638D02*
D03*
X1634074Y1641324D02*
D03*
X1615388Y1652638D02*
D03*
X1604074Y1641324D02*
D03*
X1585388Y1652638D02*
D03*
X1574074Y1641324D02*
D03*
X1555388Y1652638D02*
D03*
X1544074Y1641324D02*
D03*
X1525388Y1652638D02*
D03*
X1514074Y1641324D02*
D03*
X1495388Y1652638D02*
D03*
X1484074Y1641324D02*
D03*
X1465388Y1652638D02*
D03*
X1454074Y1641324D02*
D03*
X1435388Y1652638D02*
D03*
X1424074Y1641324D02*
D03*
X1405388Y1652638D02*
D03*
X1394074Y1641324D02*
D03*
X1375388Y1652638D02*
D03*
X1364074Y1641324D02*
D03*
X1345388Y1652638D02*
D03*
X1334074Y1641324D02*
D03*
X1315388Y1652638D02*
D03*
X1304074Y1641324D02*
D03*
X2455388Y1682638D02*
D03*
X2444074Y1671324D02*
D03*
X2425388Y1682638D02*
D03*
X2414074Y1671324D02*
D03*
X2395388Y1682638D02*
D03*
X2384074Y1671324D02*
D03*
X2365388Y1682638D02*
D03*
X2354074Y1671324D02*
D03*
X2335388Y1682638D02*
D03*
X2324074Y1671324D02*
D03*
X2305388Y1682638D02*
D03*
X2294074Y1671324D02*
D03*
X2275388Y1682638D02*
D03*
X2264074Y1671324D02*
D03*
X2245388Y1682638D02*
D03*
X2234074Y1671324D02*
D03*
X2215388Y1682638D02*
D03*
X2204074Y1671324D02*
D03*
X2185388Y1682638D02*
D03*
X2174074Y1671324D02*
D03*
X2155388Y1682638D02*
D03*
X2144074Y1671324D02*
D03*
X2125388Y1682638D02*
D03*
X2114074Y1671324D02*
D03*
X2095388Y1682638D02*
D03*
X2084074Y1671324D02*
D03*
X2065388Y1682638D02*
D03*
X2054074Y1671324D02*
D03*
X2035388Y1682638D02*
D03*
X2024074Y1671324D02*
D03*
X2005388Y1682638D02*
D03*
X1994074Y1671324D02*
D03*
X1975388Y1682638D02*
D03*
X1964074Y1671324D02*
D03*
X1945388Y1682638D02*
D03*
X1934074Y1671324D02*
D03*
X1915388Y1682638D02*
D03*
X1904074Y1671324D02*
D03*
X1885388Y1682638D02*
D03*
X1874074Y1671324D02*
D03*
X1855388Y1682638D02*
D03*
X1844074Y1671324D02*
D03*
X1825388Y1682638D02*
D03*
X1814074Y1671324D02*
D03*
X1795388Y1682638D02*
D03*
X1784074Y1671324D02*
D03*
X1765388Y1682638D02*
D03*
X1754074Y1671324D02*
D03*
X1735388Y1682638D02*
D03*
X1724074Y1671324D02*
D03*
X1705388Y1682638D02*
D03*
X1694074Y1671324D02*
D03*
X1675388Y1682638D02*
D03*
X1664074Y1671324D02*
D03*
X1645388Y1682638D02*
D03*
X1634074Y1671324D02*
D03*
X1615388Y1682638D02*
D03*
X1604074Y1671324D02*
D03*
X1585388Y1682638D02*
D03*
X1574074Y1671324D02*
D03*
X1555388Y1682638D02*
D03*
X1544074Y1671324D02*
D03*
X1525388Y1682638D02*
D03*
X1514074Y1671324D02*
D03*
X1495388Y1682638D02*
D03*
X1484074Y1671324D02*
D03*
X1465388Y1682638D02*
D03*
X1454074Y1671324D02*
D03*
X1435388Y1682638D02*
D03*
X1424074Y1671324D02*
D03*
X1405388Y1682638D02*
D03*
X1394074Y1671324D02*
D03*
X1375388Y1682638D02*
D03*
X1364074Y1671324D02*
D03*
X1345388Y1682638D02*
D03*
X1334074Y1671324D02*
D03*
X1315388Y1682638D02*
D03*
X1304074Y1671324D02*
D03*
X2455388Y1712638D02*
D03*
X2444074Y1701324D02*
D03*
X2425388Y1712638D02*
D03*
X2414074Y1701324D02*
D03*
X2395388Y1712638D02*
D03*
X2384074Y1701324D02*
D03*
X2365388Y1712638D02*
D03*
X2354074Y1701324D02*
D03*
X2335388Y1712638D02*
D03*
X2324074Y1701324D02*
D03*
X2305388Y1712638D02*
D03*
X2294074Y1701324D02*
D03*
X2275388Y1712638D02*
D03*
X2264074Y1701324D02*
D03*
X2245388Y1712638D02*
D03*
X2234074Y1701324D02*
D03*
X2215388Y1712638D02*
D03*
X2204074Y1701324D02*
D03*
X2185388Y1712638D02*
D03*
X2174074Y1701324D02*
D03*
X2155388Y1712638D02*
D03*
X2144074Y1701324D02*
D03*
X2125388Y1712638D02*
D03*
X2114074Y1701324D02*
D03*
X2095388Y1712638D02*
D03*
X2084074Y1701324D02*
D03*
X2065388Y1712638D02*
D03*
X2054074Y1701324D02*
D03*
X2035388Y1712638D02*
D03*
X2024074Y1701324D02*
D03*
X2005388Y1712638D02*
D03*
X1994074Y1701324D02*
D03*
X1975388Y1712638D02*
D03*
X1964074Y1701324D02*
D03*
X1945388Y1712638D02*
D03*
X1934074Y1701324D02*
D03*
X1915388Y1712638D02*
D03*
X1904074Y1701324D02*
D03*
X1885388Y1712638D02*
D03*
X1874074Y1701324D02*
D03*
X1855388Y1712638D02*
D03*
X1844074Y1701324D02*
D03*
X1825388Y1712638D02*
D03*
X1814074Y1701324D02*
D03*
X1795388Y1712638D02*
D03*
X1784074Y1701324D02*
D03*
X1765388Y1712638D02*
D03*
X1754074Y1701324D02*
D03*
X1735388Y1712638D02*
D03*
X1724074Y1701324D02*
D03*
X1705388Y1712638D02*
D03*
X1694074Y1701324D02*
D03*
X1675388Y1712638D02*
D03*
X1664074Y1701324D02*
D03*
X1645388Y1712638D02*
D03*
X1634074Y1701324D02*
D03*
X1615388Y1712638D02*
D03*
X1604074Y1701324D02*
D03*
X1585388Y1712638D02*
D03*
X1574074Y1701324D02*
D03*
X1555388Y1712638D02*
D03*
X1544074Y1701324D02*
D03*
X1525388Y1712638D02*
D03*
X1514074Y1701324D02*
D03*
X1495388Y1712638D02*
D03*
X1484074Y1701324D02*
D03*
X1465388Y1712638D02*
D03*
X1454074Y1701324D02*
D03*
X1435388Y1712638D02*
D03*
X1424074Y1701324D02*
D03*
X1405388Y1712638D02*
D03*
X1394074Y1701324D02*
D03*
X1375388Y1712638D02*
D03*
X1364074Y1701324D02*
D03*
X1345388Y1712638D02*
D03*
X1334074Y1701324D02*
D03*
X1315388Y1712638D02*
D03*
X1304074Y1701324D02*
D03*
X2455388Y1742638D02*
D03*
X2444074Y1731324D02*
D03*
X2425388Y1742638D02*
D03*
X2414074Y1731324D02*
D03*
X2395388Y1742638D02*
D03*
X2384074Y1731324D02*
D03*
X2365388Y1742638D02*
D03*
X2354074Y1731324D02*
D03*
X2335388Y1742638D02*
D03*
X2324074Y1731324D02*
D03*
X2305388Y1742638D02*
D03*
X2294074Y1731324D02*
D03*
X2275388Y1742638D02*
D03*
X2264074Y1731324D02*
D03*
X2245388Y1742638D02*
D03*
X2234074Y1731324D02*
D03*
X2215388Y1742638D02*
D03*
X2204074Y1731324D02*
D03*
X2185388Y1742638D02*
D03*
X2174074Y1731324D02*
D03*
X2155388Y1742638D02*
D03*
X2144074Y1731324D02*
D03*
X2125388Y1742638D02*
D03*
X2114074Y1731324D02*
D03*
X2095388Y1742638D02*
D03*
X2084074Y1731324D02*
D03*
X2065388Y1742638D02*
D03*
X2054074Y1731324D02*
D03*
X2035388Y1742638D02*
D03*
X2024074Y1731324D02*
D03*
X2005388Y1742638D02*
D03*
X1994074Y1731324D02*
D03*
X1975388Y1742638D02*
D03*
X1964074Y1731324D02*
D03*
X1945388Y1742638D02*
D03*
X1934074Y1731324D02*
D03*
X1915388Y1742638D02*
D03*
X1904074Y1731324D02*
D03*
X1885388Y1742638D02*
D03*
X1874074Y1731324D02*
D03*
X1855388Y1742638D02*
D03*
X1844074Y1731324D02*
D03*
X1825388Y1742638D02*
D03*
X1814074Y1731324D02*
D03*
X1795388Y1742638D02*
D03*
X1784074Y1731324D02*
D03*
X1765388Y1742638D02*
D03*
X1754074Y1731324D02*
D03*
X1735388Y1742638D02*
D03*
X1724074Y1731324D02*
D03*
X1705388Y1742638D02*
D03*
X1694074Y1731324D02*
D03*
X1675388Y1742638D02*
D03*
X1664074Y1731324D02*
D03*
X1645388Y1742638D02*
D03*
X1634074Y1731324D02*
D03*
X1615388Y1742638D02*
D03*
X1604074Y1731324D02*
D03*
X1585388Y1742638D02*
D03*
X1574074Y1731324D02*
D03*
X1555388Y1742638D02*
D03*
X1544074Y1731324D02*
D03*
X1525388Y1742638D02*
D03*
X1514074Y1731324D02*
D03*
X1495388Y1742638D02*
D03*
X1484074Y1731324D02*
D03*
X1465388Y1742638D02*
D03*
X1454074Y1731324D02*
D03*
X1435388Y1742638D02*
D03*
X1424074Y1731324D02*
D03*
X1405388Y1742638D02*
D03*
X1394074Y1731324D02*
D03*
X1375388Y1742638D02*
D03*
X1364074Y1731324D02*
D03*
X1345388Y1742638D02*
D03*
X1334074Y1731324D02*
D03*
X1315388Y1742638D02*
D03*
X1304074Y1731324D02*
D03*
X2455388Y1772638D02*
D03*
X2444074Y1761324D02*
D03*
X2425388Y1772638D02*
D03*
X2414074Y1761324D02*
D03*
X2395388Y1772638D02*
D03*
X2384074Y1761324D02*
D03*
X2365388Y1772638D02*
D03*
X2354074Y1761324D02*
D03*
X2335388Y1772638D02*
D03*
X2324074Y1761324D02*
D03*
X2305388Y1772638D02*
D03*
X2294074Y1761324D02*
D03*
X2275388Y1772638D02*
D03*
X2264074Y1761324D02*
D03*
X2245388Y1772638D02*
D03*
X2234074Y1761324D02*
D03*
X2215388Y1772638D02*
D03*
X2204074Y1761324D02*
D03*
X2185388Y1772638D02*
D03*
X2174074Y1761324D02*
D03*
X2155388Y1772638D02*
D03*
X2144074Y1761324D02*
D03*
X2125388Y1772638D02*
D03*
X2114074Y1761324D02*
D03*
X2095388Y1772638D02*
D03*
X2084074Y1761324D02*
D03*
X2065388Y1772638D02*
D03*
X2054074Y1761324D02*
D03*
X2035388Y1772638D02*
D03*
X2024074Y1761324D02*
D03*
X2005388Y1772638D02*
D03*
X1994074Y1761324D02*
D03*
X1975388Y1772638D02*
D03*
X1964074Y1761324D02*
D03*
X1945388Y1772638D02*
D03*
X1934074Y1761324D02*
D03*
X1915388Y1772638D02*
D03*
X1904074Y1761324D02*
D03*
X1885388Y1772638D02*
D03*
X1874074Y1761324D02*
D03*
X1855388Y1772638D02*
D03*
X1844074Y1761324D02*
D03*
X1825388Y1772638D02*
D03*
X1814074Y1761324D02*
D03*
X1795388Y1772638D02*
D03*
X1784074Y1761324D02*
D03*
X1765388Y1772638D02*
D03*
X1754074Y1761324D02*
D03*
X1735388Y1772638D02*
D03*
X1724074Y1761324D02*
D03*
X1705388Y1772638D02*
D03*
X1694074Y1761324D02*
D03*
X1675388Y1772638D02*
D03*
X1664074Y1761324D02*
D03*
X1645388Y1772638D02*
D03*
X1634074Y1761324D02*
D03*
X1615388Y1772638D02*
D03*
X1604074Y1761324D02*
D03*
X1585388Y1772638D02*
D03*
X1574074Y1761324D02*
D03*
X1555388Y1772638D02*
D03*
X1544074Y1761324D02*
D03*
X1525388Y1772638D02*
D03*
X1514074Y1761324D02*
D03*
X1495388Y1772638D02*
D03*
X1484074Y1761324D02*
D03*
X1465388Y1772638D02*
D03*
X1454074Y1761324D02*
D03*
X1435388Y1772638D02*
D03*
X1424074Y1761324D02*
D03*
X1405388Y1772638D02*
D03*
X1394074Y1761324D02*
D03*
X1375388Y1772638D02*
D03*
X1364074Y1761324D02*
D03*
X1345388Y1772638D02*
D03*
X1334074Y1761324D02*
D03*
X1315388Y1772638D02*
D03*
X1304074Y1761324D02*
D03*
X2455388Y1802638D02*
D03*
X2444074Y1791324D02*
D03*
X2425388Y1802638D02*
D03*
X2414074Y1791324D02*
D03*
X2395388Y1802638D02*
D03*
X2384074Y1791324D02*
D03*
X2365388Y1802638D02*
D03*
X2354074Y1791324D02*
D03*
X2335388Y1802638D02*
D03*
X2324074Y1791324D02*
D03*
X2305388Y1802638D02*
D03*
X2294074Y1791324D02*
D03*
X2275388Y1802638D02*
D03*
X2264074Y1791324D02*
D03*
X2245388Y1802638D02*
D03*
X2234074Y1791324D02*
D03*
X2215388Y1802638D02*
D03*
X2204074Y1791324D02*
D03*
X2185388Y1802638D02*
D03*
X2174074Y1791324D02*
D03*
X2155388Y1802638D02*
D03*
X2144074Y1791324D02*
D03*
X2125388Y1802638D02*
D03*
X2114074Y1791324D02*
D03*
X2095388Y1802638D02*
D03*
X2084074Y1791324D02*
D03*
X2065388Y1802638D02*
D03*
X2054074Y1791324D02*
D03*
X2035388Y1802638D02*
D03*
X2024074Y1791324D02*
D03*
X2005388Y1802638D02*
D03*
X1994074Y1791324D02*
D03*
X1975388Y1802638D02*
D03*
X1964074Y1791324D02*
D03*
X1945388Y1802638D02*
D03*
X1934074Y1791324D02*
D03*
X1915388Y1802638D02*
D03*
X1904074Y1791324D02*
D03*
X1885388Y1802638D02*
D03*
X1874074Y1791324D02*
D03*
X1855388Y1802638D02*
D03*
X1844074Y1791324D02*
D03*
X1825388Y1802638D02*
D03*
X1814074Y1791324D02*
D03*
X1795388Y1802638D02*
D03*
X1784074Y1791324D02*
D03*
X1765388Y1802638D02*
D03*
X1754074Y1791324D02*
D03*
X1735388Y1802638D02*
D03*
X1724074Y1791324D02*
D03*
X1705388Y1802638D02*
D03*
X1694074Y1791324D02*
D03*
X1675388Y1802638D02*
D03*
X1664074Y1791324D02*
D03*
X1645388Y1802638D02*
D03*
X1634074Y1791324D02*
D03*
X1615388Y1802638D02*
D03*
X1604074Y1791324D02*
D03*
X1585388Y1802638D02*
D03*
X1574074Y1791324D02*
D03*
X1555388Y1802638D02*
D03*
X1544074Y1791324D02*
D03*
X1525388Y1802638D02*
D03*
X1514074Y1791324D02*
D03*
X1495388Y1802638D02*
D03*
X1484074Y1791324D02*
D03*
X1465388Y1802638D02*
D03*
X1454074Y1791324D02*
D03*
X1435388Y1802638D02*
D03*
X1424074Y1791324D02*
D03*
X1405388Y1802638D02*
D03*
X1394074Y1791324D02*
D03*
X1375388Y1802638D02*
D03*
X1364074Y1791324D02*
D03*
X1345388Y1802638D02*
D03*
X1334074Y1791324D02*
D03*
X1315388Y1802638D02*
D03*
X1304074Y1791324D02*
D03*
X2455388Y1832638D02*
D03*
X2444074Y1821324D02*
D03*
X2425388Y1832638D02*
D03*
X2414074Y1821324D02*
D03*
X2395388Y1832638D02*
D03*
X2384074Y1821324D02*
D03*
X2365388Y1832638D02*
D03*
X2354074Y1821324D02*
D03*
X2335388Y1832638D02*
D03*
X2324074Y1821324D02*
D03*
X2305388Y1832638D02*
D03*
X2294074Y1821324D02*
D03*
X2275388Y1832638D02*
D03*
X2264074Y1821324D02*
D03*
X2245388Y1832638D02*
D03*
X2234074Y1821324D02*
D03*
X2215388Y1832638D02*
D03*
X2204074Y1821324D02*
D03*
X2185388Y1832638D02*
D03*
X2174074Y1821324D02*
D03*
X2155388Y1832638D02*
D03*
X2144074Y1821324D02*
D03*
X2125388Y1832638D02*
D03*
X2114074Y1821324D02*
D03*
X2095388Y1832638D02*
D03*
X2084074Y1821324D02*
D03*
X2065388Y1832638D02*
D03*
X2054074Y1821324D02*
D03*
X2035388Y1832638D02*
D03*
X2024074Y1821324D02*
D03*
X2005388Y1832638D02*
D03*
X1994074Y1821324D02*
D03*
X1975388Y1832638D02*
D03*
X1964074Y1821324D02*
D03*
X1945388Y1832638D02*
D03*
X1934074Y1821324D02*
D03*
X1915388Y1832638D02*
D03*
X1904074Y1821324D02*
D03*
X1885388Y1832638D02*
D03*
X1874074Y1821324D02*
D03*
X1855388Y1832638D02*
D03*
X1844074Y1821324D02*
D03*
X1825388Y1832638D02*
D03*
X1814074Y1821324D02*
D03*
X1795388Y1832638D02*
D03*
X1784074Y1821324D02*
D03*
X1765388Y1832638D02*
D03*
X1754074Y1821324D02*
D03*
X1735388Y1832638D02*
D03*
X1724074Y1821324D02*
D03*
X1705388Y1832638D02*
D03*
X1694074Y1821324D02*
D03*
X1675388Y1832638D02*
D03*
X1664074Y1821324D02*
D03*
X1645388Y1832638D02*
D03*
X1634074Y1821324D02*
D03*
X1615388Y1832638D02*
D03*
X1604074Y1821324D02*
D03*
X1585388Y1832638D02*
D03*
X1574074Y1821324D02*
D03*
X1555388Y1832638D02*
D03*
X1544074Y1821324D02*
D03*
X1525388Y1832638D02*
D03*
X1514074Y1821324D02*
D03*
X1495388Y1832638D02*
D03*
X1484074Y1821324D02*
D03*
X1465388Y1832638D02*
D03*
X1454074Y1821324D02*
D03*
X1435388Y1832638D02*
D03*
X1424074Y1821324D02*
D03*
X1405388Y1832638D02*
D03*
X1394074Y1821324D02*
D03*
X1375388Y1832638D02*
D03*
X1364074Y1821324D02*
D03*
X1345388Y1832638D02*
D03*
X1334074Y1821324D02*
D03*
X1315388Y1832638D02*
D03*
X1304074Y1821324D02*
D03*
X2455388Y1862638D02*
D03*
X2444074Y1851324D02*
D03*
X2425388Y1862638D02*
D03*
X2414074Y1851324D02*
D03*
X2395388Y1862638D02*
D03*
X2384074Y1851324D02*
D03*
X2365388Y1862638D02*
D03*
X2354074Y1851324D02*
D03*
X2335388Y1862638D02*
D03*
X2324074Y1851324D02*
D03*
X2305388Y1862638D02*
D03*
X2294074Y1851324D02*
D03*
X2275388Y1862638D02*
D03*
X2264074Y1851324D02*
D03*
X2245388Y1862638D02*
D03*
X2234074Y1851324D02*
D03*
X2215388Y1862638D02*
D03*
X2204074Y1851324D02*
D03*
X2185388Y1862638D02*
D03*
X2174074Y1851324D02*
D03*
X2155388Y1862638D02*
D03*
X2144074Y1851324D02*
D03*
X2125388Y1862638D02*
D03*
X2114074Y1851324D02*
D03*
X2095388Y1862638D02*
D03*
X2084074Y1851324D02*
D03*
X2065388Y1862638D02*
D03*
X2054074Y1851324D02*
D03*
X2035388Y1862638D02*
D03*
X2024074Y1851324D02*
D03*
X2005388Y1862638D02*
D03*
X1994074Y1851324D02*
D03*
X1975388Y1862638D02*
D03*
X1964074Y1851324D02*
D03*
X1945388Y1862638D02*
D03*
X1934074Y1851324D02*
D03*
X1915388Y1862638D02*
D03*
X1904074Y1851324D02*
D03*
X1885388Y1862638D02*
D03*
X1874074Y1851324D02*
D03*
X1855388Y1862638D02*
D03*
X1844074Y1851324D02*
D03*
X1825388Y1862638D02*
D03*
X1814074Y1851324D02*
D03*
X1795388Y1862638D02*
D03*
X1784074Y1851324D02*
D03*
X1765388Y1862638D02*
D03*
X1754074Y1851324D02*
D03*
X1735388Y1862638D02*
D03*
X1724074Y1851324D02*
D03*
X1705388Y1862638D02*
D03*
X1694074Y1851324D02*
D03*
X1675388Y1862638D02*
D03*
X1664074Y1851324D02*
D03*
X1645388Y1862638D02*
D03*
X1634074Y1851324D02*
D03*
X1615388Y1862638D02*
D03*
X1604074Y1851324D02*
D03*
X1585388Y1862638D02*
D03*
X1574074Y1851324D02*
D03*
X1555388Y1862638D02*
D03*
X1544074Y1851324D02*
D03*
X1525388Y1862638D02*
D03*
X1514074Y1851324D02*
D03*
X1495388Y1862638D02*
D03*
X1484074Y1851324D02*
D03*
X1465388Y1862638D02*
D03*
X1454074Y1851324D02*
D03*
X1435388Y1862638D02*
D03*
X1424074Y1851324D02*
D03*
X1405388Y1862638D02*
D03*
X1394074Y1851324D02*
D03*
X1375388Y1862638D02*
D03*
X1364074Y1851324D02*
D03*
X1345388Y1862638D02*
D03*
X1334074Y1851324D02*
D03*
X1315388Y1862638D02*
D03*
X1304074Y1851324D02*
D03*
D11*
X2289750Y1862638D02*
X2305388D01*
X2275388D02*
X2289750D01*
Y1860750D02*
Y1862638D01*
X2271250Y1842250D02*
X2289750Y1860750D01*
X2250750Y1581000D02*
X2274250Y1604500D01*
X2234700Y1581000D02*
X2250750D01*
X2260200Y1832638D02*
X2275388D01*
X2245388D02*
X2260200D01*
Y1832450D02*
Y1832638D01*
X2243750Y1816000D02*
X2260200Y1832450D01*
X2234362Y1595000D02*
X2243750Y1604388D01*
X2227750Y1595000D02*
X2234362D01*
X2213750Y1581000D02*
X2227750Y1595000D01*
X2209300Y1581000D02*
X2213750D01*
X2231000Y1802638D02*
X2245388D01*
X2215388D02*
X2231000D01*
X2214500Y1786138D02*
X2231000Y1802638D01*
X2191112Y1581000D02*
X2214500Y1604388D01*
X2183900Y1581000D02*
X2191112D01*
X2185388Y1772638D02*
X2200388D01*
X2215388D01*
X2182750Y1755000D02*
X2200388Y1772638D01*
X2181500Y1604000D02*
X2182750D01*
X2158500Y1581000D02*
X2181500Y1604000D01*
X2170500Y1742638D02*
X2185388D01*
X2155388D02*
X2170500D01*
Y1741750D02*
Y1742638D01*
X2152750Y1724000D02*
X2170500Y1741750D01*
X2133100Y1584350D02*
X2152750Y1604000D01*
X2133100Y1581000D02*
Y1584350D01*
X2139000Y1712638D02*
X2155388D01*
X2125388D02*
X2139000D01*
Y1711250D02*
Y1712638D01*
X2121750Y1694000D02*
X2139000Y1711250D01*
X2121500Y1604000D02*
X2121750D01*
X2107700Y1590200D02*
X2121500Y1604000D01*
X2107700Y1581000D02*
Y1590200D01*
X2109250Y1682638D02*
X2125388D01*
X2095388D02*
X2109250D01*
X2094000Y1667388D02*
X2109250Y1682638D01*
X2094000Y1664250D02*
Y1667388D01*
X2082300Y1592688D02*
X2094000Y1604388D01*
X2082300Y1581000D02*
Y1592688D01*
X2081388Y1652638D02*
X2095388D01*
X2065388D02*
X2081388D01*
X2063750Y1635000D02*
X2081388Y1652638D01*
X2063000Y1604000D02*
X2063250D01*
X2056900Y1597900D02*
X2063000Y1604000D01*
X2056900Y1581000D02*
Y1597900D01*
X2065388Y1622638D02*
X2095388D01*
X2049750D02*
X2065388D01*
X2035388D02*
X2049750D01*
X2031500Y1604388D02*
X2049750Y1622638D01*
X2031500Y1581000D02*
Y1604388D01*
X1384500Y1842000D02*
X1393824Y1851324D01*
X1375388Y1832638D02*
X1405388D01*
X1504500Y1842000D02*
X1513824Y1851324D01*
X1495388Y1832638D02*
X1525388D01*
X2404750Y1842500D02*
X2414074Y1851824D01*
X2374500Y1842500D02*
X2383824Y1851824D01*
X2344500Y1842500D02*
X2353824Y1851824D01*
X2314500Y1842500D02*
X2323824Y1851824D01*
X2284750Y1842500D02*
X2294074Y1851824D01*
X2254500Y1842500D02*
X2263824Y1851824D01*
X2224750Y1842500D02*
X2234074Y1851824D01*
X2194500Y1842500D02*
X2203824Y1851824D01*
X2164500Y1842500D02*
X2173824Y1851824D01*
X2134500Y1842500D02*
X2143824Y1851824D01*
X2104500Y1842500D02*
X2113824Y1851824D01*
X2074500Y1842500D02*
X2083824Y1851824D01*
X2044500Y1842500D02*
X2053824Y1851824D01*
X2014750Y1842500D02*
X2024074Y1851824D01*
X1984500Y1842500D02*
X1993824Y1851824D01*
X1954500Y1842500D02*
X1963824Y1851824D01*
X1924250Y1842500D02*
X1933574Y1851824D01*
X1326750Y1891250D02*
X1397000D01*
X1304074Y1868574D02*
X1326750Y1891250D01*
X1304074Y1851324D02*
Y1868574D01*
X1324750Y1661750D02*
X1334074Y1671075D01*
X1324750Y1631500D02*
X1334074Y1640824D01*
X1304074Y1821324D02*
Y1851324D01*
Y1791324D02*
Y1821324D01*
Y1761324D02*
Y1791324D01*
Y1731324D02*
Y1761324D01*
Y1701324D02*
Y1731324D01*
Y1671324D02*
Y1701324D01*
Y1641324D02*
Y1671324D01*
Y1611324D02*
Y1641324D01*
X1324750Y1601750D02*
X1334074Y1611075D01*
X1324500Y1691750D02*
X1333824Y1701074D01*
X1324750Y1721750D02*
X1334074Y1731075D01*
X1324750Y1751750D02*
X1334074Y1761075D01*
X1324750Y1781750D02*
X1334074Y1791074D01*
X1324500Y1812000D02*
X1333824Y1821324D01*
X1324750Y1842000D02*
X1334074Y1851324D01*
X1315388Y1832638D02*
X1345388D01*
X2404500Y1812500D02*
X2413824Y1821824D01*
X2404750Y1782250D02*
X2414074Y1791574D01*
X2404750Y1752250D02*
X2414074Y1761575D01*
X2404750Y1722250D02*
X2414074Y1731575D01*
X2404500Y1692250D02*
X2413824Y1701574D01*
X2404750Y1662250D02*
X2414074Y1671575D01*
X2404750Y1632000D02*
X2414074Y1641324D01*
X2404750Y1602250D02*
X2414074Y1611575D01*
X2374250Y1812500D02*
X2383574Y1821824D01*
X2374500Y1782250D02*
X2383824Y1791574D01*
X2374500Y1752250D02*
X2383824Y1761575D01*
X2374500Y1722250D02*
X2383824Y1731575D01*
X2374250Y1692250D02*
X2383574Y1701574D01*
X2374500Y1662250D02*
X2383824Y1671575D01*
X2374500Y1632000D02*
X2383824Y1641324D01*
X2374500Y1602250D02*
X2383824Y1611575D01*
X2344250Y1812500D02*
X2353574Y1821824D01*
X2344500Y1782250D02*
X2353824Y1791574D01*
X2344500Y1752250D02*
X2353824Y1761575D01*
X2344500Y1722250D02*
X2353824Y1731575D01*
X2344250Y1692250D02*
X2353574Y1701574D01*
X2344500Y1662250D02*
X2353824Y1671575D01*
X2344500Y1632000D02*
X2353824Y1641324D01*
X2344500Y1602250D02*
X2353824Y1611575D01*
X2314250Y1812500D02*
X2323574Y1821824D01*
X2314500Y1782250D02*
X2323824Y1791574D01*
X2314500Y1752250D02*
X2323824Y1761575D01*
X2314500Y1722250D02*
X2323824Y1731575D01*
X2314250Y1692250D02*
X2323574Y1701574D01*
X2314500Y1662250D02*
X2323824Y1671575D01*
X2314500Y1632000D02*
X2323824Y1641324D01*
X2314500Y1602250D02*
X2323824Y1611575D01*
X2284500Y1812500D02*
X2293824Y1821824D01*
X2284750Y1782250D02*
X2294074Y1791574D01*
X2284750Y1752250D02*
X2294074Y1761575D01*
X2284750Y1722250D02*
X2294074Y1731575D01*
X2284500Y1692250D02*
X2293824Y1701574D01*
X2284750Y1662250D02*
X2294074Y1671575D01*
X2284750Y1632000D02*
X2294074Y1641324D01*
X2284750Y1602250D02*
X2294074Y1611575D01*
X2254250Y1812500D02*
X2263574Y1821824D01*
X2254500Y1782250D02*
X2263824Y1791574D01*
X2254500Y1752250D02*
X2263824Y1761575D01*
X2254500Y1722250D02*
X2263824Y1731575D01*
X2254250Y1692250D02*
X2263574Y1701574D01*
X2254500Y1662250D02*
X2263824Y1671575D01*
X2254500Y1632000D02*
X2263824Y1641324D01*
X2254500Y1602250D02*
X2263824Y1611575D01*
X2224500Y1812500D02*
X2233824Y1821824D01*
X2224750Y1782250D02*
X2234074Y1791574D01*
X2224750Y1752250D02*
X2234074Y1761575D01*
X2224750Y1722250D02*
X2234074Y1731575D01*
X2224500Y1692250D02*
X2233824Y1701574D01*
X2224750Y1662250D02*
X2234074Y1671575D01*
X2224750Y1632000D02*
X2234074Y1641324D01*
X2224750Y1602250D02*
X2234074Y1611575D01*
X2194250Y1812500D02*
X2203574Y1821824D01*
X2194500Y1782250D02*
X2203824Y1791574D01*
X2194500Y1752250D02*
X2203824Y1761575D01*
X2194500Y1722250D02*
X2203824Y1731575D01*
X2194250Y1692250D02*
X2203574Y1701574D01*
X2194500Y1662250D02*
X2203824Y1671575D01*
X2194500Y1632000D02*
X2203824Y1641324D01*
X2194500Y1602250D02*
X2203824Y1611575D01*
X2164250Y1812500D02*
X2173574Y1821824D01*
X2164500Y1782250D02*
X2173824Y1791574D01*
X2164500Y1752250D02*
X2173824Y1761575D01*
X2164500Y1722250D02*
X2173824Y1731575D01*
X2164250Y1692250D02*
X2173574Y1701574D01*
X2164500Y1662250D02*
X2173824Y1671575D01*
X2164500Y1632000D02*
X2173824Y1641324D01*
X2164500Y1602250D02*
X2173824Y1611575D01*
X2134250Y1812500D02*
X2143574Y1821824D01*
X2134500Y1782250D02*
X2143824Y1791574D01*
X2134500Y1752250D02*
X2143824Y1761575D01*
X2134500Y1722250D02*
X2143824Y1731575D01*
X2134250Y1692250D02*
X2143574Y1701574D01*
X2134500Y1662250D02*
X2143824Y1671575D01*
X2134500Y1632000D02*
X2143824Y1641324D01*
X2134500Y1602250D02*
X2143824Y1611575D01*
X2104250Y1812500D02*
X2113574Y1821824D01*
X2104500Y1782250D02*
X2113824Y1791574D01*
X2104500Y1752250D02*
X2113824Y1761575D01*
X2104500Y1722250D02*
X2113824Y1731575D01*
X2104250Y1692250D02*
X2113574Y1701574D01*
X2104500Y1662250D02*
X2113824Y1671575D01*
X2104500Y1632000D02*
X2113824Y1641324D01*
X2104500Y1602250D02*
X2113824Y1611575D01*
X2074250Y1812500D02*
X2083574Y1821824D01*
X2074500Y1782250D02*
X2083824Y1791574D01*
X2074500Y1752250D02*
X2083824Y1761575D01*
X2074500Y1722250D02*
X2083824Y1731575D01*
X2074250Y1692250D02*
X2083574Y1701574D01*
X2074500Y1662250D02*
X2083824Y1671575D01*
X2074500Y1632000D02*
X2083824Y1641324D01*
X2074500Y1602250D02*
X2083824Y1611575D01*
X2044250Y1812500D02*
X2053574Y1821824D01*
X2044500Y1782250D02*
X2053824Y1791574D01*
X2044500Y1752250D02*
X2053824Y1761575D01*
X2044500Y1722250D02*
X2053824Y1731575D01*
X2044250Y1692250D02*
X2053574Y1701574D01*
X2044500Y1662250D02*
X2053824Y1671575D01*
X2044500Y1632000D02*
X2053824Y1641324D01*
X2044500Y1602250D02*
X2053824Y1611575D01*
X2014500Y1812500D02*
X2023824Y1821824D01*
X2014750Y1782250D02*
X2024074Y1791574D01*
X2014750Y1752250D02*
X2024074Y1761575D01*
X2014750Y1722250D02*
X2024074Y1731575D01*
X2014500Y1692250D02*
X2023824Y1701574D01*
X2014750Y1662250D02*
X2024074Y1671575D01*
X2014750Y1632000D02*
X2024074Y1641324D01*
X2014750Y1602250D02*
X2024074Y1611575D01*
X1984250Y1812500D02*
X1993574Y1821824D01*
X1984500Y1782250D02*
X1993824Y1791574D01*
X1984500Y1752250D02*
X1993824Y1761575D01*
X1984500Y1722250D02*
X1993824Y1731575D01*
X1984250Y1692250D02*
X1993574Y1701574D01*
X1984500Y1662250D02*
X1993824Y1671575D01*
X1984500Y1632000D02*
X1993824Y1641324D01*
X1984500Y1602250D02*
X1993824Y1611575D01*
X1954250Y1812500D02*
X1963574Y1821824D01*
X1954500Y1782250D02*
X1963824Y1791574D01*
X1954500Y1752250D02*
X1963824Y1761575D01*
X1954500Y1722250D02*
X1963824Y1731575D01*
X1954250Y1692250D02*
X1963574Y1701574D01*
X1954500Y1662250D02*
X1963824Y1671575D01*
X1954500Y1632000D02*
X1963824Y1641324D01*
X1954500Y1602250D02*
X1963824Y1611575D01*
X1924000Y1812500D02*
X1933324Y1821824D01*
X1924250Y1782250D02*
X1933574Y1791574D01*
X1924250Y1752250D02*
X1933574Y1761575D01*
X1924250Y1722250D02*
X1933574Y1731575D01*
X1924000Y1692250D02*
X1933324Y1701574D01*
X1924250Y1662250D02*
X1933574Y1671575D01*
X1924250Y1632000D02*
X1933574Y1641324D01*
X1924250Y1602250D02*
X1933574Y1611575D01*
X1894500Y1842000D02*
X1903824Y1851324D01*
X1894250Y1812000D02*
X1903574Y1821324D01*
X1894500Y1781750D02*
X1903824Y1791074D01*
X1894500Y1751750D02*
X1903824Y1761075D01*
X1894500Y1721750D02*
X1903824Y1731075D01*
X1894250Y1691750D02*
X1903574Y1701074D01*
X1894500Y1661750D02*
X1903824Y1671075D01*
X1894500Y1631500D02*
X1903824Y1640824D01*
X1894500Y1601750D02*
X1903824Y1611075D01*
X2434750Y1841500D02*
X2444074Y1850824D01*
X2434500Y1811500D02*
X2443824Y1820824D01*
X2434750Y1781250D02*
X2444074Y1790574D01*
X2434750Y1751250D02*
X2444074Y1760574D01*
X2434750Y1721250D02*
X2444074Y1730574D01*
X2434500Y1691250D02*
X2443824Y1700574D01*
X2434750Y1661250D02*
X2444074Y1670574D01*
X2434750Y1631000D02*
X2444074Y1640325D01*
X2434750Y1601250D02*
X2444074Y1610574D01*
X1864750Y1842000D02*
X1874074Y1851324D01*
X1864500Y1812000D02*
X1873824Y1821324D01*
X1864750Y1781750D02*
X1874074Y1791074D01*
X1864750Y1751750D02*
X1874074Y1761075D01*
X1864750Y1721750D02*
X1874074Y1731075D01*
X1864500Y1691750D02*
X1873824Y1701074D01*
X1864750Y1661750D02*
X1874074Y1671075D01*
X1864750Y1631500D02*
X1874074Y1640824D01*
X1864750Y1601750D02*
X1874074Y1611075D01*
X1834500Y1842000D02*
X1843824Y1851324D01*
X1834250Y1812000D02*
X1843574Y1821324D01*
X1834500Y1781750D02*
X1843824Y1791074D01*
X1834500Y1751750D02*
X1843824Y1761075D01*
X1834500Y1721750D02*
X1843824Y1731075D01*
X1834250Y1691750D02*
X1843574Y1701074D01*
X1834500Y1661750D02*
X1843824Y1671075D01*
X1834500Y1631500D02*
X1843824Y1640824D01*
X1834500Y1601750D02*
X1843824Y1611075D01*
X1804500Y1842000D02*
X1813824Y1851324D01*
X1804250Y1812000D02*
X1813574Y1821324D01*
X1804500Y1781750D02*
X1813824Y1791074D01*
X1804500Y1751750D02*
X1813824Y1761075D01*
X1804500Y1721750D02*
X1813824Y1731075D01*
X1804250Y1691750D02*
X1813574Y1701074D01*
X1804500Y1661750D02*
X1813824Y1671075D01*
X1804500Y1631500D02*
X1813824Y1640824D01*
X1804500Y1601750D02*
X1813824Y1611075D01*
X1774500Y1842000D02*
X1783824Y1851324D01*
X1774250Y1812000D02*
X1783574Y1821324D01*
X1774500Y1781750D02*
X1783824Y1791074D01*
X1774500Y1751750D02*
X1783824Y1761075D01*
X1774500Y1721750D02*
X1783824Y1731075D01*
X1774250Y1691750D02*
X1783574Y1701074D01*
X1774500Y1661750D02*
X1783824Y1671075D01*
X1774500Y1631500D02*
X1783824Y1640824D01*
X1774500Y1601750D02*
X1783824Y1611075D01*
X1744750Y1842000D02*
X1754074Y1851324D01*
X1744500Y1812000D02*
X1753824Y1821324D01*
X1744750Y1781750D02*
X1754074Y1791074D01*
X1744750Y1751750D02*
X1754074Y1761075D01*
X1744750Y1721750D02*
X1754074Y1731075D01*
X1744500Y1691750D02*
X1753824Y1701074D01*
X1744750Y1661750D02*
X1754074Y1671075D01*
X1744750Y1631500D02*
X1754074Y1640824D01*
X1744750Y1601750D02*
X1754074Y1611075D01*
X1714500Y1842000D02*
X1723824Y1851324D01*
X1714250Y1812000D02*
X1723574Y1821324D01*
X1714500Y1781750D02*
X1723824Y1791074D01*
X1714500Y1751750D02*
X1723824Y1761075D01*
X1714500Y1721750D02*
X1723824Y1731075D01*
X1714250Y1691750D02*
X1723574Y1701074D01*
X1714500Y1661750D02*
X1723824Y1671075D01*
X1714500Y1631500D02*
X1723824Y1640824D01*
X1714500Y1601750D02*
X1723824Y1611075D01*
X1684500Y1842000D02*
X1693824Y1851324D01*
X1684250Y1812000D02*
X1693574Y1821324D01*
X1684500Y1781750D02*
X1693824Y1791074D01*
X1684500Y1751750D02*
X1693824Y1761075D01*
X1684500Y1721750D02*
X1693824Y1731075D01*
X1684250Y1691750D02*
X1693574Y1701074D01*
X1684500Y1661750D02*
X1693824Y1671075D01*
X1684500Y1631500D02*
X1693824Y1640824D01*
X1684500Y1601750D02*
X1693824Y1611075D01*
X1654500Y1842000D02*
X1663824Y1851324D01*
X1654250Y1812000D02*
X1663574Y1821324D01*
X1654500Y1781750D02*
X1663824Y1791074D01*
X1654500Y1751750D02*
X1663824Y1761075D01*
X1654500Y1721750D02*
X1663824Y1731075D01*
X1654250Y1691750D02*
X1663574Y1701074D01*
X1654500Y1661750D02*
X1663824Y1671075D01*
X1654500Y1631500D02*
X1663824Y1640824D01*
X1654500Y1601750D02*
X1663824Y1611075D01*
X1624750Y1842000D02*
X1634074Y1851324D01*
X1624500Y1812000D02*
X1633824Y1821324D01*
X1624750Y1781750D02*
X1634074Y1791074D01*
X1624750Y1751750D02*
X1634074Y1761075D01*
X1624750Y1721750D02*
X1634074Y1731075D01*
X1624500Y1691750D02*
X1633824Y1701074D01*
X1624750Y1661750D02*
X1634074Y1671075D01*
X1624750Y1631500D02*
X1634074Y1640824D01*
X1624750Y1601750D02*
X1634074Y1611075D01*
X1594750Y1842000D02*
X1604074Y1851324D01*
X1594500Y1812000D02*
X1603824Y1821324D01*
X1594750Y1781750D02*
X1604074Y1791074D01*
X1594750Y1751750D02*
X1604074Y1761075D01*
X1594750Y1721750D02*
X1604074Y1731075D01*
X1594500Y1691750D02*
X1603824Y1701074D01*
X1594750Y1661750D02*
X1604074Y1671075D01*
X1594750Y1631500D02*
X1604074Y1640824D01*
X1594750Y1601750D02*
X1604074Y1611075D01*
X1564500Y1842000D02*
X1573824Y1851324D01*
X1564250Y1812000D02*
X1573574Y1821324D01*
X1564500Y1781750D02*
X1573824Y1791074D01*
X1564500Y1751750D02*
X1573824Y1761075D01*
X1564500Y1721750D02*
X1573824Y1731075D01*
X1564250Y1691750D02*
X1573574Y1701074D01*
X1564500Y1661750D02*
X1573824Y1671075D01*
X1564500Y1631500D02*
X1573824Y1640824D01*
X1564500Y1601750D02*
X1573824Y1611075D01*
X1534500Y1842000D02*
X1543824Y1851324D01*
X1534250Y1812000D02*
X1543574Y1821324D01*
X1534500Y1781750D02*
X1543824Y1791074D01*
X1534500Y1751750D02*
X1543824Y1761075D01*
X1534500Y1721750D02*
X1543824Y1731075D01*
X1534250Y1691750D02*
X1543574Y1701074D01*
X1534500Y1661750D02*
X1543824Y1671075D01*
X1534500Y1631500D02*
X1543824Y1640824D01*
X1534500Y1601750D02*
X1543824Y1611075D01*
X1504250Y1812000D02*
X1513574Y1821324D01*
X1504500Y1781750D02*
X1513824Y1791074D01*
X1504500Y1751750D02*
X1513824Y1761075D01*
X1504500Y1721750D02*
X1513824Y1731075D01*
X1504250Y1691750D02*
X1513574Y1701074D01*
X1504500Y1661750D02*
X1513824Y1671075D01*
X1504500Y1631500D02*
X1513824Y1640824D01*
X1504500Y1601750D02*
X1513824Y1611075D01*
X1474750Y1842000D02*
X1484074Y1851324D01*
X1474500Y1812000D02*
X1483824Y1821324D01*
X1474750Y1781750D02*
X1484074Y1791074D01*
X1474750Y1751750D02*
X1484074Y1761075D01*
X1474750Y1721750D02*
X1484074Y1731075D01*
X1474500Y1691750D02*
X1483824Y1701074D01*
X1474750Y1661750D02*
X1484074Y1671075D01*
X1474750Y1631500D02*
X1484074Y1640824D01*
X1474750Y1601750D02*
X1484074Y1611075D01*
X1444750Y1842000D02*
X1454074Y1851324D01*
X1444500Y1812000D02*
X1453824Y1821324D01*
X1444750Y1781750D02*
X1454074Y1791074D01*
X1444750Y1751750D02*
X1454074Y1761075D01*
X1444750Y1721750D02*
X1454074Y1731075D01*
X1444500Y1691750D02*
X1453824Y1701074D01*
X1444750Y1661750D02*
X1454074Y1671075D01*
X1444750Y1631500D02*
X1454074Y1640824D01*
X1444750Y1601750D02*
X1454074Y1611075D01*
X1414500Y1842000D02*
X1423824Y1851324D01*
X1414250Y1812000D02*
X1423574Y1821324D01*
X1414500Y1781750D02*
X1423824Y1791074D01*
X1414500Y1751750D02*
X1423824Y1761075D01*
X1414500Y1721750D02*
X1423824Y1731075D01*
X1414250Y1691750D02*
X1423574Y1701074D01*
X1414500Y1661750D02*
X1423824Y1671075D01*
X1414500Y1631500D02*
X1423824Y1640824D01*
X1414500Y1601750D02*
X1423824Y1611075D01*
X1384250Y1812000D02*
X1393574Y1821324D01*
X1384500Y1781750D02*
X1393824Y1791074D01*
X1384500Y1751750D02*
X1393824Y1761075D01*
X1384500Y1721750D02*
X1393824Y1731075D01*
X1384250Y1691750D02*
X1393574Y1701074D01*
X1384500Y1661750D02*
X1393824Y1671075D01*
X1384500Y1631500D02*
X1393824Y1640824D01*
X1384500Y1601750D02*
X1393824Y1611075D01*
X1354500Y1841750D02*
X1363824Y1851075D01*
X1354250Y1811750D02*
X1363574Y1821075D01*
X1354500Y1781500D02*
X1363824Y1790824D01*
X1354500Y1751500D02*
X1363824Y1760824D01*
X1354500Y1721500D02*
X1363824Y1730824D01*
X1354250Y1691500D02*
X1363574Y1700824D01*
X1354500Y1661500D02*
X1363824Y1670824D01*
X1354500Y1631250D02*
X1363824Y1640574D01*
X1354500Y1601500D02*
X1363824Y1610824D01*
X1315388Y1622638D02*
X1345388D01*
X1375388D01*
X1405388D01*
X1435388D01*
X1465388D01*
X1495388D01*
X1525388D01*
X1555388D01*
X1585388D01*
X1615388D01*
X1645388D01*
X1675388D01*
X1705388D01*
X1735388D01*
X1765388D01*
X1795388D01*
X1825388D01*
X1855388D01*
X1885388D01*
X1915388D01*
X1945388D01*
X1975388D01*
X2005388D01*
X2035388D01*
X2095388D02*
X2125388D01*
X2155388D01*
X2185388D01*
X2215388D01*
X2245388D01*
X2275388D01*
X2305388D01*
X2335388D01*
X2365388D01*
X2395388D01*
X2425388D01*
X2455388D01*
X1315388Y1652638D02*
X1345388D01*
X1375388D01*
X1405388D01*
X1435388D01*
X1465388D01*
X1495388D01*
X1525388D01*
X1555388D01*
X1585388D01*
X1615388D01*
X1645388D01*
X1675388D01*
X1705388D01*
X1735388D01*
X1765388D01*
X1795388D01*
X1825388D01*
X1855388D01*
X1885388D01*
X1915388D01*
X1945388D01*
X1975388D01*
X2005388D01*
X2035388D01*
X2065388D01*
X2095388D02*
X2125388D01*
X2155388D01*
X2185388D01*
X2215388D01*
X2245388D01*
X2275388D01*
X2305388D01*
X2335388D01*
X2365388D01*
X2395388D01*
X2425388D01*
X2455388D01*
X1315388Y1682638D02*
X1345388D01*
X1375388D01*
X1405388D01*
X1435388D01*
X1465388D01*
X1495388D01*
X1525388D01*
X1555388D01*
X1585388D01*
X1615388D01*
X1645388D01*
X1675388D01*
X1705388D01*
X1735388D01*
X1765388D01*
X1795388D01*
X1825388D01*
X1855388D01*
X1885388D01*
X1915388D01*
X1945388D01*
X1975388D01*
X2005388D01*
X2035388D01*
X2065388D01*
X2095388D01*
X2125388D02*
X2155388D01*
X2185388D01*
X2215388D01*
X2245388D01*
X2275388D01*
X2305388D01*
X2335388D01*
X2365388D01*
X2395388D01*
X2425388D01*
X2455388D01*
X1315388Y1712638D02*
X1345388D01*
X1375388D01*
X1405388D01*
X1435388D01*
X1465388D01*
X1495388D01*
X1525388D01*
X1555388D01*
X1585388D01*
X1615388D01*
X1645388D01*
X1675388D01*
X1705388D01*
X1735388D01*
X1765388D01*
X1795388D01*
X1825388D01*
X1855388D01*
X1885388D01*
X1915388D01*
X1945388D01*
X1975388D01*
X2005388D01*
X2035388D01*
X2065388D01*
X2095388D01*
X2125388D01*
X2155388D02*
X2185388D01*
X2215388D01*
X2245388D01*
X2275388D01*
X2305388D01*
X2335388D01*
X2365388D01*
X2395388D01*
X2425388D01*
X2455388D01*
X1315388Y1742638D02*
X1345388D01*
X1375388D01*
X1405388D01*
X1435388D01*
X1465388D01*
X1495388D01*
X1525388D01*
X1555388D01*
X1585388D01*
X1615388D01*
X1645388D01*
X1675388D01*
X1705388D01*
X1735388D01*
X1765388D01*
X1795388D01*
X1825388D01*
X1855388D01*
X1885388D01*
X1915388D01*
X1945388D01*
X1975388D01*
X2005388D01*
X2035388D01*
X2065388D01*
X2095388D01*
X2125388D01*
X2155388D01*
X2185388D02*
X2215388D01*
X2245388D01*
X2275388D01*
X2305388D01*
X2335388D01*
X2365388D01*
X2395388D01*
X2425388D01*
X2455388D01*
X1315388Y1772638D02*
X1345388D01*
X1375388D01*
X1405388D01*
X1435388D01*
X1465388D01*
X1495388D01*
X1525388D01*
X1555388D01*
X1585388D01*
X1615388D01*
X1645388D01*
X1675388D01*
X1705388D01*
X1735388D01*
X1765388D01*
X1795388D01*
X1825388D01*
X1855388D01*
X1885388D01*
X1915388D01*
X1945388D01*
X1975388D01*
X2005388D01*
X2035388D01*
X2065388D01*
X2095388D01*
X2125388D01*
X2155388D01*
X2185388D01*
X2215388D02*
X2245388D01*
X2275388D01*
X2305388D01*
X2335388D01*
X2365388D01*
X2395388D01*
X2425388D01*
X2455388D01*
X1315388Y1802638D02*
X1345388D01*
X1375388D01*
X1405388D01*
X1435388D01*
X1465388D01*
X1495388D01*
X1525388D01*
X1555388D01*
X1585388D01*
X1615388D01*
X1645388D01*
X1675388D01*
X1705388D01*
X1735388D01*
X1765388D01*
X1795388D01*
X1825388D01*
X1855388D01*
X1885388D01*
X1915388D01*
X1945388D01*
X1975388D01*
X2005388D01*
X2035388D01*
X2065388D01*
X2095388D01*
X2125388D01*
X2155388D01*
X2185388D01*
X2215388D01*
X2245388D02*
X2275388D01*
X2305388D01*
X2335388D01*
X2365388D01*
X2395388D01*
X2425388D01*
X2455388D01*
X1345388Y1832638D02*
X1375388D01*
X1405388D02*
X1435388D01*
X1465388D01*
X1495388D01*
X1525388D02*
X1555388D01*
X1585388D01*
X1615388D01*
X1645388D01*
X1675388D01*
X1705388D01*
X1735388D01*
X1765388D01*
X1795388D01*
X1825388D01*
X1855388D01*
X1885388D01*
X1915388D01*
X1945388D01*
X1975388D01*
X2005388D01*
X2035388D01*
X2065388D01*
X2095388D01*
X2125388D01*
X2155388D01*
X2185388D01*
X2215388D01*
X2245388D01*
X2275388D02*
X2305388D01*
X2335388D01*
X2365388D01*
X2395388D01*
X2425388D01*
X2455388D01*
X2425388Y1862638D02*
X2455388D01*
X2395388D02*
X2425388D01*
X2365388D02*
X2395388D01*
X2335388D02*
X2365388D01*
X2305388D02*
X2335388D01*
X2245388D02*
X2275388D01*
X2215388D02*
X2245388D01*
X2185388D02*
X2215388D01*
X2155388D02*
X2185388D01*
X2125388D02*
X2155388D01*
X2095388D02*
X2125388D01*
X2065388D02*
X2095388D01*
X2035388D02*
X2065388D01*
X2005388D02*
X2035388D01*
X1975388D02*
X2005388D01*
X1945388D02*
X1975388D01*
X1915388D02*
X1945388D01*
X1885388D02*
X1915388D01*
X1855388D02*
X1885388D01*
X1825388D02*
X1855388D01*
X1795388D02*
X1825388D01*
X1765388D02*
X1795388D01*
X1735388D02*
X1765388D01*
X1705388D02*
X1735388D01*
X1675388D02*
X1705388D01*
X1645388D02*
X1675388D01*
X1615388D02*
X1645388D01*
X1585388D02*
X1615388D01*
X1555388D02*
X1585388D01*
X1525388D02*
X1555388D01*
X1495388D02*
X1525388D01*
X1465388D02*
X1495388D01*
X1435388D02*
X1465388D01*
X1405388D02*
X1435388D01*
X1375388D02*
X1405388D01*
X1345388D02*
X1375388D01*
X1315388D02*
X1345388D01*
D12*
X1916274Y1361054D02*
D03*
Y1375054D02*
D03*
X1936024Y1380804D02*
D03*
Y1394804D02*
D03*
X2124774Y1409554D02*
D03*
Y1395554D02*
D03*
Y1381054D02*
D03*
Y1367054D02*
D03*
X2108524Y1366804D02*
D03*
Y1380804D02*
D03*
X2089774Y1367054D02*
D03*
Y1353054D02*
D03*
X2146024Y1402304D02*
D03*
Y1388304D02*
D03*
X2211024Y1388554D02*
D03*
Y1402554D02*
D03*
X2334524Y1393804D02*
D03*
Y1407804D02*
D03*
X2326024Y1343304D02*
D03*
Y1329304D02*
D03*
X2417524Y1267004D02*
D03*
Y1253004D02*
D03*
D13*
X2178024Y1355054D02*
D03*
X2168524Y1377054D02*
D03*
X2187524D02*
D03*
X2177774Y1437604D02*
D03*
X2187274Y1415604D02*
D03*
X2168274D02*
D03*
D14*
X2252524Y1318804D02*
D03*
X2238524D02*
D03*
X2399024Y1303054D02*
D03*
X2413024D02*
D03*
X2388524Y1253054D02*
D03*
X2402524D02*
D03*
X2402524Y1267304D02*
D03*
X2388524D02*
D03*
X2252774Y1303804D02*
D03*
X2238774D02*
D03*
D15*
X2238824Y1363104D02*
D03*
Y1375804D02*
D03*
X2292723Y1452004D02*
D03*
X2238824Y1439304D02*
D03*
X2292723D02*
D03*
Y1413904D02*
D03*
X2238824Y1452004D02*
D03*
X2292723Y1426604D02*
D03*
X2238824D02*
D03*
Y1413904D02*
D03*
Y1388504D02*
D03*
X2292723Y1401204D02*
D03*
Y1388504D02*
D03*
Y1363104D02*
D03*
X2238824Y1401204D02*
D03*
X2292723Y1375804D02*
D03*
D16*
X2369024Y1375171D02*
D03*
Y1407937D02*
D03*
D17*
X2416524Y1393304D02*
D03*
X2393524Y1383804D02*
D03*
Y1402804D02*
D03*
D18*
X2393774Y1327054D02*
D03*
Y1346054D02*
D03*
X2417774D02*
D03*
Y1336554D02*
D03*
Y1327054D02*
D03*
D19*
X2359024Y1332054D02*
D03*
D20*
X2349524Y1346054D02*
D03*
X2368524D02*
D03*
X2359024Y1318054D02*
D03*
X2349524D02*
D03*
X2359024Y1346054D02*
D03*
X2368524Y1318054D02*
D03*
D21*
X1877524Y1384404D02*
D03*
Y1371704D02*
D03*
Y1359004D02*
D03*
Y1346304D02*
D03*
Y1333604D02*
D03*
Y1320904D02*
D03*
Y1308204D02*
D03*
Y1295504D02*
D03*
Y1282804D02*
D03*
Y1270104D02*
D03*
Y1257404D02*
D03*
Y1244704D02*
D03*
Y1232004D02*
D03*
Y1219304D02*
D03*
X1707524D02*
D03*
Y1232004D02*
D03*
Y1244704D02*
D03*
Y1257404D02*
D03*
Y1270104D02*
D03*
Y1282804D02*
D03*
Y1295504D02*
D03*
Y1308204D02*
D03*
Y1320904D02*
D03*
Y1333604D02*
D03*
Y1346304D02*
D03*
Y1359004D02*
D03*
Y1371704D02*
D03*
Y1384404D02*
D03*
D22*
X1849674Y1209304D02*
D03*
X1836974D02*
D03*
X1824274D02*
D03*
X1811574D02*
D03*
X1798874D02*
D03*
X1786174D02*
D03*
X1773474D02*
D03*
X1760774D02*
D03*
X1748074D02*
D03*
X1735374D02*
D03*
D23*
X1782524Y1309404D02*
D03*
D24*
X1285275Y1407323D02*
D03*
Y1452324D02*
D03*
Y1422324D02*
D03*
D25*
X1253024Y1393053D02*
D03*
Y1468054D02*
D03*
D26*
X1275523Y1392553D02*
D03*
Y1468555D02*
D03*
D27*
X1282525Y1422323D02*
X1302392D01*
X1334935Y1476054D02*
X2337111D01*
X1306524Y1447642D02*
X1334935Y1476054D01*
X1306524Y1426455D02*
Y1447642D01*
X1302392Y1422323D02*
X1306524Y1426455D01*
X1820774Y1232054D02*
X1831024D01*
X1836974Y1226104D01*
Y1209304D02*
Y1226104D01*
X1903774Y1244704D02*
Y1251554D01*
X1897924Y1257404D02*
X1903774Y1251554D01*
X1877524Y1257404D02*
X1897924D01*
X1845024Y1230304D02*
Y1231374D01*
X1858354Y1244704D01*
X1877524D01*
X2349524Y1346054D02*
X2359024D01*
X2252774Y1303804D02*
X2327524D01*
X2428224Y1267004D02*
X2431474D01*
X2440524Y1276054D01*
X2417524Y1267004D02*
X2428224D01*
X2432024Y1270804D01*
Y1311054D01*
X2414524Y1402804D02*
X2422774Y1411054D01*
X2408774Y1402804D02*
X2414524D01*
X2032774Y1271054D02*
X2103974D01*
X1757774D02*
X1849674D01*
X1742774Y1286054D02*
X1757774Y1271054D01*
X1742774Y1286054D02*
Y1343304D01*
X1727074Y1359004D02*
X1742774Y1343304D01*
X1707524Y1359004D02*
X1727074D01*
X2252774Y1318554D02*
X2267274D01*
X2178024Y1325054D02*
X2184274Y1318804D01*
X2178024Y1325054D02*
Y1355054D01*
X2193124Y1309404D02*
X2227024Y1343304D01*
X2176424Y1309404D02*
X2193124D01*
X2161814Y1324014D02*
X2176424Y1309404D01*
X2161814Y1324014D02*
Y1336264D01*
X2154274Y1343804D02*
X2161814Y1336264D01*
X2154274Y1343804D02*
Y1345554D01*
X2227024Y1343304D02*
X2239524D01*
X2250024D01*
X2188774Y1292554D02*
X2239524Y1343304D01*
X2040524Y1292554D02*
X2188774D01*
X2001474Y1261054D02*
X2125072D01*
X1959724Y1219304D02*
X2001474Y1261054D01*
X1899274Y1308054D02*
X1928324Y1279004D01*
X2376824D02*
X2388524Y1267304D01*
X1928324Y1279004D02*
X2376824D01*
X2154274Y1308054D02*
Y1333141D01*
X2136274Y1351141D02*
X2154274Y1333141D01*
X2136274Y1351141D02*
Y1440754D01*
X2152524Y1457004D01*
X2172774D01*
X1877524Y1219304D02*
X1959724D01*
X1916274Y1384554D02*
X1926524Y1394804D01*
X1916274Y1375054D02*
Y1384554D01*
X2172774Y1457004D02*
X2177774Y1452004D01*
Y1437604D02*
Y1452004D01*
X2351480Y1472097D02*
X2367024Y1456554D01*
X2351480Y1472097D02*
X2351480D01*
X2349397Y1470014D02*
X2351480Y1472097D01*
X2343151Y1470014D02*
X2349397D01*
X2337111Y1476054D02*
X2343151Y1470014D01*
X2252774Y1303804D02*
Y1318554D01*
X2250024Y1343304D02*
X2278524D01*
X2238524Y1318804D02*
Y1327054D01*
X2250024Y1338554D01*
Y1343304D01*
X1707524Y1308204D02*
X1708174Y1307554D01*
X1729524D01*
X1899274Y1308054D02*
X1900274D01*
X2388524Y1253054D02*
X2388524Y1253054D01*
Y1267304D01*
X2417224D02*
X2417524Y1267004D01*
X2402524Y1267304D02*
X2417224D01*
X1929524Y1292554D02*
X2040524D01*
X2031274Y1301804D02*
Y1302804D01*
Y1301804D02*
X2040524Y1292554D01*
X1926524Y1394804D02*
X1936024D01*
X1915424Y1375904D02*
X1916274Y1375054D01*
X1900024Y1375904D02*
X1915424D01*
X1826274Y1345804D02*
X1826774Y1346304D01*
X1839274D01*
X1900524Y1321554D02*
X1929524Y1292554D01*
X1793774Y1345804D02*
X1826274D01*
X1767874Y1371704D02*
X1793774Y1345804D01*
X1707524Y1371704D02*
X1767874D01*
X2316774Y1343304D02*
X2326024D01*
X2278524D02*
X2316774D01*
X2258724Y1363104D02*
X2278524Y1343304D01*
X2238824Y1363104D02*
X2258724D01*
X1846424Y1371704D02*
X1877524D01*
X1846274Y1371554D02*
X1846424Y1371704D01*
X1876824Y1358304D02*
X1877524Y1359004D01*
X1809524Y1358304D02*
X1876824D01*
X1467274Y1341054D02*
X1668024D01*
X1425374Y1382954D02*
X1467274Y1341054D01*
X1341275Y1382954D02*
X1425374D01*
X1478274Y1358804D02*
X1657774D01*
X1428724Y1408354D02*
X1478274Y1358804D01*
X1341275Y1408354D02*
X1428724D01*
X1434824Y1433754D02*
X1496874Y1371704D01*
X1341275Y1433754D02*
X1434824D01*
X1496874Y1371704D02*
X1707524D01*
X2274884Y1388504D02*
X2292723D01*
X2262284Y1375904D02*
X2274884Y1388504D01*
X2277974Y1375804D02*
X2292723D01*
X1877524Y1346304D02*
X2066734D01*
X2074484Y1338554D02*
X2136274D01*
X2066734Y1346304D02*
X2074484Y1338554D01*
X1877524Y1333604D02*
X2061474D01*
X2069224Y1325854D02*
X2136274D01*
X2061474Y1333604D02*
X2069224Y1325854D01*
X2168524Y1377054D02*
Y1388304D01*
X2176024Y1395804D01*
X2179024D01*
X2219274Y1378054D02*
Y1378304D01*
X2229474Y1388504D01*
X2238824D01*
X2187524Y1377054D02*
X2204274D01*
X2211024Y1383804D01*
Y1388554D01*
Y1402554D02*
Y1410304D01*
X2205724Y1415604D02*
X2211024Y1410304D01*
X2187274Y1415604D02*
X2205724D01*
X2211024Y1402554D02*
X2212374Y1401204D01*
X2151574Y1415604D02*
X2168274D01*
X2146024Y1410054D02*
X2151574Y1415604D01*
X2146024Y1402304D02*
Y1410054D01*
Y1383554D02*
Y1388304D01*
Y1383554D02*
X2152524Y1377054D01*
X2168524D01*
X2187274Y1415604D02*
X2189824Y1413054D01*
X2212374Y1401204D02*
X2238824D01*
X2311774Y1348304D02*
X2316774Y1343304D01*
X2311774Y1348304D02*
Y1396054D01*
X2306624Y1401204D02*
X2311774Y1396054D01*
X2292723Y1401204D02*
X2306624D01*
X1316005Y1485804D02*
X2338024D01*
X2356907Y1375171D02*
X2369024D01*
X2351274Y1380804D02*
X2356907Y1375171D01*
X2351274Y1380804D02*
Y1386054D01*
X2338024Y1485804D02*
X2346274Y1477554D01*
X2391774Y1359891D02*
Y1383804D01*
X2383647Y1351764D02*
X2391774Y1359891D01*
X2374234Y1351764D02*
X2383647D01*
X2368524Y1346054D02*
X2374234Y1351764D01*
X2388600Y1346054D02*
X2393774D01*
X2386770Y1344224D02*
X2388600Y1346054D01*
X2383944Y1344224D02*
X2386770D01*
X2380024Y1340304D02*
X2383944Y1344224D01*
X2417774Y1346054D02*
X2438274D01*
X2442524Y1341804D01*
Y1321554D02*
Y1341804D01*
X2432024Y1311054D02*
X2442524Y1321554D01*
X2380024Y1317554D02*
Y1340304D01*
Y1317554D02*
X2385774Y1311804D01*
X2380524Y1359304D02*
X2381024Y1359804D01*
X2357274Y1359304D02*
X2380524D01*
X2349524Y1351554D02*
X2357274Y1359304D01*
X2349524Y1346054D02*
Y1351554D01*
X2393774Y1308304D02*
X2399024Y1303054D01*
X2393774Y1308304D02*
Y1327054D01*
X2417774D02*
X2434524D01*
X2326024Y1343304D02*
X2333524D01*
X2336274Y1346054D01*
X2349524D01*
X2416524Y1347304D02*
X2417774Y1346054D01*
X2416524Y1347304D02*
Y1393304D01*
X2404774Y1398804D02*
X2408774Y1402804D01*
X2393774Y1346054D02*
X2394524D01*
X2404774Y1356304D01*
Y1398804D01*
X2354657Y1407937D02*
X2369024D01*
X2354524Y1407804D02*
X2354657Y1407937D01*
X2334524Y1407804D02*
X2354524D01*
X2393524Y1402804D02*
X2408774D01*
X2369024Y1375171D02*
X2383141D01*
X2391774Y1383804D01*
X2380524Y1402804D02*
X2393524D01*
X2375391Y1407937D02*
X2380524Y1402804D01*
X2369024Y1407937D02*
X2375391D01*
X2368274Y1304954D02*
X2368524Y1305204D01*
Y1318054D01*
X2367024Y1456304D02*
Y1456554D01*
X1282525Y1452323D02*
X1316005Y1485804D01*
D28*
X1927524Y1368304D02*
X1967524Y1408304D01*
X1912324Y1359004D02*
X1914374Y1361054D01*
X1877524Y1359004D02*
X1912324D01*
X2109274Y1412804D02*
X2121524D01*
X1967524Y1408304D02*
X2097024D01*
X2098274Y1393054D02*
X2103974D01*
X1880924Y1368304D02*
X1927524D01*
X1877524Y1371704D02*
X1880924Y1368304D01*
X2108524Y1380804D02*
Y1388504D01*
X2103974Y1393054D02*
X2108524Y1388504D01*
X2121524Y1412804D02*
X2124774Y1409554D01*
X2089774Y1367054D02*
Y1379804D01*
X2094024Y1384054D01*
D29*
X2318374Y1413904D02*
X2326814Y1422344D01*
X2447753D01*
X2447774Y1422323D01*
X2292723Y1426604D02*
X2311274D01*
X2315024Y1430354D01*
X2447774D01*
X1707524Y1270104D02*
X1708474Y1271054D01*
X1730381D01*
X1707524Y1257404D02*
X1729030D01*
X1730381Y1256054D01*
X1707524Y1244704D02*
X1727144D01*
X1728494Y1246054D01*
X1707524Y1232004D02*
X1727544D01*
X1728494Y1231054D01*
X1706724Y1232804D02*
X1707524Y1232004D01*
X1705424Y1246804D02*
X1707524Y1244704D01*
X1706374Y1258554D02*
X1707524Y1257404D01*
X2108524Y1380804D02*
X2108774Y1381054D01*
X2124774D01*
X2292723Y1413904D02*
X2318374D01*
D30*
X1916274Y1361054D02*
X1936524D01*
X1914374D02*
X1916274D01*
X1936524D02*
X1977824Y1402354D01*
X2105224D01*
D31*
X2045399Y1391990D02*
D03*
D32*
X2045309Y1422154D02*
D03*
D33*
X1247000Y1371000D02*
D03*
Y1361000D02*
D03*
Y1351000D02*
D03*
Y1341000D02*
D03*
Y1331000D02*
D03*
X1232000D02*
D03*
Y1341000D02*
D03*
Y1351000D02*
D03*
Y1361000D02*
D03*
Y1371000D02*
D03*
X2512150D02*
D03*
Y1361000D02*
D03*
Y1351000D02*
D03*
Y1341000D02*
D03*
Y1331000D02*
D03*
X2527150D02*
D03*
Y1341000D02*
D03*
Y1351000D02*
D03*
Y1361000D02*
D03*
Y1371000D02*
D03*
X2512000Y1757000D02*
D03*
Y1747000D02*
D03*
Y1737000D02*
D03*
Y1727000D02*
D03*
Y1717000D02*
D03*
X2527000D02*
D03*
Y1727000D02*
D03*
Y1737000D02*
D03*
Y1747000D02*
D03*
Y1757000D02*
D03*
X1246900D02*
D03*
Y1747000D02*
D03*
Y1737000D02*
D03*
Y1727000D02*
D03*
Y1717000D02*
D03*
X1231900D02*
D03*
Y1727000D02*
D03*
Y1737000D02*
D03*
Y1747000D02*
D03*
Y1757000D02*
D03*
X1492000Y1172950D02*
D03*
X1482000D02*
D03*
X1472000D02*
D03*
X1462000D02*
D03*
X1452000D02*
D03*
Y1157950D02*
D03*
X1462000D02*
D03*
X1472000D02*
D03*
X1482000D02*
D03*
X1492000D02*
D03*
X1892000Y1157850D02*
D03*
X1882000D02*
D03*
X1872000D02*
D03*
X1862000D02*
D03*
X1852000D02*
D03*
Y1172850D02*
D03*
X1862000D02*
D03*
X1872000D02*
D03*
X1882000D02*
D03*
X1892000D02*
D03*
X2292000Y1157850D02*
D03*
X2282000D02*
D03*
X2272000D02*
D03*
X2262000D02*
D03*
X2252000D02*
D03*
Y1172850D02*
D03*
X2262000D02*
D03*
X2272000D02*
D03*
X2282000D02*
D03*
X2292000D02*
D03*
X2293000Y1932850D02*
D03*
X2283000D02*
D03*
X2273000D02*
D03*
X2263000D02*
D03*
X2253000D02*
D03*
Y1917850D02*
D03*
X2263000D02*
D03*
X2273000D02*
D03*
X2283000D02*
D03*
X2293000D02*
D03*
X1893000Y1932850D02*
D03*
X1883000D02*
D03*
X1873000D02*
D03*
X1863000D02*
D03*
X1853000D02*
D03*
Y1917850D02*
D03*
X1863000D02*
D03*
X1873000D02*
D03*
X1883000D02*
D03*
X1893000D02*
D03*
X1493000Y1917950D02*
D03*
X1483000D02*
D03*
X1473000D02*
D03*
X1463000D02*
D03*
X1453000D02*
D03*
Y1932950D02*
D03*
X1463000D02*
D03*
X1473000D02*
D03*
X1483000D02*
D03*
X1493000D02*
D03*
X2293000Y1552850D02*
D03*
X2283000D02*
D03*
X2273000D02*
D03*
X2263000D02*
D03*
X2253000D02*
D03*
Y1537850D02*
D03*
X2263000D02*
D03*
X2273000D02*
D03*
X2283000D02*
D03*
X2293000D02*
D03*
X1893000Y1552850D02*
D03*
X1883000D02*
D03*
X1873000D02*
D03*
X1863000D02*
D03*
X1853000D02*
D03*
Y1537850D02*
D03*
X1863000D02*
D03*
X1873000D02*
D03*
X1883000D02*
D03*
X1893000D02*
D03*
X1493000Y1537950D02*
D03*
X1483000D02*
D03*
X1473000D02*
D03*
X1463000D02*
D03*
X1453000D02*
D03*
Y1552950D02*
D03*
X1463000D02*
D03*
X1473000D02*
D03*
X1483000D02*
D03*
X1493000D02*
D03*
X2271250Y1842250D02*
D03*
X2274250Y1604500D02*
D03*
X2243750Y1816000D02*
D03*
Y1604388D02*
D03*
X2214500Y1786138D02*
D03*
Y1604388D02*
D03*
X2182750Y1755000D02*
D03*
Y1604000D02*
D03*
X2152750Y1724000D02*
D03*
Y1604000D02*
D03*
X2121750Y1694000D02*
D03*
Y1604000D02*
D03*
X2094000Y1664250D02*
D03*
Y1604388D02*
D03*
X2063750Y1635000D02*
D03*
X2063250Y1604000D02*
D03*
X1384500Y1842000D02*
D03*
X1504500D02*
D03*
X1324750Y1661750D02*
D03*
Y1631500D02*
D03*
Y1601750D02*
D03*
X1324500Y1691750D02*
D03*
X1324750Y1721750D02*
D03*
Y1751750D02*
D03*
Y1781750D02*
D03*
X1324500Y1812000D02*
D03*
X1324750Y1842000D02*
D03*
X2404750Y1842500D02*
D03*
X2404500Y1812500D02*
D03*
X2404750Y1782250D02*
D03*
Y1752250D02*
D03*
Y1722250D02*
D03*
X2404500Y1692250D02*
D03*
X2404750Y1662250D02*
D03*
Y1632000D02*
D03*
Y1602250D02*
D03*
X2374500Y1842500D02*
D03*
X2374250Y1812500D02*
D03*
X2374500Y1782250D02*
D03*
Y1752250D02*
D03*
Y1722250D02*
D03*
X2374250Y1692250D02*
D03*
X2374500Y1662250D02*
D03*
Y1632000D02*
D03*
Y1602250D02*
D03*
X2344500Y1842500D02*
D03*
X2344250Y1812500D02*
D03*
X2344500Y1782250D02*
D03*
Y1752250D02*
D03*
Y1722250D02*
D03*
X2344250Y1692250D02*
D03*
X2344500Y1662250D02*
D03*
Y1632000D02*
D03*
Y1602250D02*
D03*
X2314500Y1842500D02*
D03*
X2314250Y1812500D02*
D03*
X2314500Y1782250D02*
D03*
Y1752250D02*
D03*
Y1722250D02*
D03*
X2314250Y1692250D02*
D03*
X2314500Y1662250D02*
D03*
Y1632000D02*
D03*
Y1602250D02*
D03*
X2284750Y1842500D02*
D03*
X2284500Y1812500D02*
D03*
X2284750Y1782250D02*
D03*
Y1752250D02*
D03*
Y1722250D02*
D03*
X2284500Y1692250D02*
D03*
X2284750Y1662250D02*
D03*
Y1632000D02*
D03*
Y1602250D02*
D03*
X2254500Y1842500D02*
D03*
X2254250Y1812500D02*
D03*
X2254500Y1782250D02*
D03*
Y1752250D02*
D03*
Y1722250D02*
D03*
X2254250Y1692250D02*
D03*
X2254500Y1662250D02*
D03*
Y1632000D02*
D03*
Y1602250D02*
D03*
X2224750Y1842500D02*
D03*
X2224500Y1812500D02*
D03*
X2224750Y1782250D02*
D03*
Y1752250D02*
D03*
Y1722250D02*
D03*
X2224500Y1692250D02*
D03*
X2224750Y1662250D02*
D03*
Y1632000D02*
D03*
Y1602250D02*
D03*
X2194500Y1842500D02*
D03*
X2194250Y1812500D02*
D03*
X2194500Y1782250D02*
D03*
Y1752250D02*
D03*
Y1722250D02*
D03*
X2194250Y1692250D02*
D03*
X2194500Y1662250D02*
D03*
Y1632000D02*
D03*
Y1602250D02*
D03*
X2164500Y1842500D02*
D03*
X2164250Y1812500D02*
D03*
X2164500Y1782250D02*
D03*
Y1752250D02*
D03*
Y1722250D02*
D03*
X2164250Y1692250D02*
D03*
X2164500Y1662250D02*
D03*
Y1632000D02*
D03*
Y1602250D02*
D03*
X2134500Y1842500D02*
D03*
X2134250Y1812500D02*
D03*
X2134500Y1782250D02*
D03*
Y1752250D02*
D03*
Y1722250D02*
D03*
X2134250Y1692250D02*
D03*
X2134500Y1662250D02*
D03*
Y1632000D02*
D03*
Y1602250D02*
D03*
X2104500Y1842500D02*
D03*
X2104250Y1812500D02*
D03*
X2104500Y1782250D02*
D03*
Y1752250D02*
D03*
Y1722250D02*
D03*
X2104250Y1692250D02*
D03*
X2104500Y1662250D02*
D03*
Y1632000D02*
D03*
Y1602250D02*
D03*
X2074500Y1842500D02*
D03*
X2074250Y1812500D02*
D03*
X2074500Y1782250D02*
D03*
Y1752250D02*
D03*
Y1722250D02*
D03*
X2074250Y1692250D02*
D03*
X2074500Y1662250D02*
D03*
Y1632000D02*
D03*
Y1602250D02*
D03*
X2044500Y1842500D02*
D03*
X2044250Y1812500D02*
D03*
X2044500Y1782250D02*
D03*
Y1752250D02*
D03*
Y1722250D02*
D03*
X2044250Y1692250D02*
D03*
X2044500Y1662250D02*
D03*
Y1632000D02*
D03*
Y1602250D02*
D03*
X2014750Y1842500D02*
D03*
X2014500Y1812500D02*
D03*
X2014750Y1782250D02*
D03*
Y1752250D02*
D03*
Y1722250D02*
D03*
X2014500Y1692250D02*
D03*
X2014750Y1662250D02*
D03*
Y1632000D02*
D03*
Y1602250D02*
D03*
X1984500Y1842500D02*
D03*
X1984250Y1812500D02*
D03*
X1984500Y1782250D02*
D03*
Y1752250D02*
D03*
Y1722250D02*
D03*
X1984250Y1692250D02*
D03*
X1984500Y1662250D02*
D03*
Y1632000D02*
D03*
Y1602250D02*
D03*
X1954500Y1842500D02*
D03*
X1954250Y1812500D02*
D03*
X1954500Y1782250D02*
D03*
Y1752250D02*
D03*
Y1722250D02*
D03*
X1954250Y1692250D02*
D03*
X1954500Y1662250D02*
D03*
Y1632000D02*
D03*
Y1602250D02*
D03*
X1924250Y1842500D02*
D03*
X1924000Y1812500D02*
D03*
X1924250Y1782250D02*
D03*
Y1752250D02*
D03*
Y1722250D02*
D03*
X1924000Y1692250D02*
D03*
X1924250Y1662250D02*
D03*
Y1632000D02*
D03*
Y1602250D02*
D03*
X1894500Y1842000D02*
D03*
X1894250Y1812000D02*
D03*
X1894500Y1781750D02*
D03*
Y1751750D02*
D03*
Y1721750D02*
D03*
X1894250Y1691750D02*
D03*
X1894500Y1661750D02*
D03*
Y1631500D02*
D03*
Y1601750D02*
D03*
X2434750Y1841500D02*
D03*
X2434500Y1811500D02*
D03*
X2434750Y1781250D02*
D03*
Y1751250D02*
D03*
Y1721250D02*
D03*
X2434500Y1691250D02*
D03*
X2434750Y1661250D02*
D03*
Y1631000D02*
D03*
Y1601250D02*
D03*
X1864750Y1842000D02*
D03*
X1864500Y1812000D02*
D03*
X1864750Y1781750D02*
D03*
Y1751750D02*
D03*
Y1721750D02*
D03*
X1864500Y1691750D02*
D03*
X1864750Y1661750D02*
D03*
Y1631500D02*
D03*
Y1601750D02*
D03*
X1834500Y1842000D02*
D03*
X1834250Y1812000D02*
D03*
X1834500Y1781750D02*
D03*
Y1751750D02*
D03*
Y1721750D02*
D03*
X1834250Y1691750D02*
D03*
X1834500Y1661750D02*
D03*
Y1631500D02*
D03*
Y1601750D02*
D03*
X1804500Y1842000D02*
D03*
X1804250Y1812000D02*
D03*
X1804500Y1781750D02*
D03*
Y1751750D02*
D03*
Y1721750D02*
D03*
X1804250Y1691750D02*
D03*
X1804500Y1661750D02*
D03*
Y1631500D02*
D03*
Y1601750D02*
D03*
X1774500Y1842000D02*
D03*
X1774250Y1812000D02*
D03*
X1774500Y1781750D02*
D03*
Y1751750D02*
D03*
Y1721750D02*
D03*
X1774250Y1691750D02*
D03*
X1774500Y1661750D02*
D03*
Y1631500D02*
D03*
Y1601750D02*
D03*
X1744750Y1842000D02*
D03*
X1744500Y1812000D02*
D03*
X1744750Y1781750D02*
D03*
Y1751750D02*
D03*
Y1721750D02*
D03*
X1744500Y1691750D02*
D03*
X1744750Y1661750D02*
D03*
Y1631500D02*
D03*
Y1601750D02*
D03*
X1714500Y1842000D02*
D03*
X1714250Y1812000D02*
D03*
X1714500Y1781750D02*
D03*
Y1751750D02*
D03*
Y1721750D02*
D03*
X1714250Y1691750D02*
D03*
X1714500Y1661750D02*
D03*
Y1631500D02*
D03*
Y1601750D02*
D03*
X1684500Y1842000D02*
D03*
X1684250Y1812000D02*
D03*
X1684500Y1781750D02*
D03*
Y1751750D02*
D03*
Y1721750D02*
D03*
X1684250Y1691750D02*
D03*
X1684500Y1661750D02*
D03*
Y1631500D02*
D03*
Y1601750D02*
D03*
X1654500Y1842000D02*
D03*
X1654250Y1812000D02*
D03*
X1654500Y1781750D02*
D03*
Y1751750D02*
D03*
Y1721750D02*
D03*
X1654250Y1691750D02*
D03*
X1654500Y1661750D02*
D03*
Y1631500D02*
D03*
Y1601750D02*
D03*
X1624750Y1842000D02*
D03*
X1624500Y1812000D02*
D03*
X1624750Y1781750D02*
D03*
Y1751750D02*
D03*
Y1721750D02*
D03*
X1624500Y1691750D02*
D03*
X1624750Y1661750D02*
D03*
Y1631500D02*
D03*
Y1601750D02*
D03*
X1594750Y1842000D02*
D03*
X1594500Y1812000D02*
D03*
X1594750Y1781750D02*
D03*
Y1751750D02*
D03*
Y1721750D02*
D03*
X1594500Y1691750D02*
D03*
X1594750Y1661750D02*
D03*
Y1631500D02*
D03*
Y1601750D02*
D03*
X1564500Y1842000D02*
D03*
X1564250Y1812000D02*
D03*
X1564500Y1781750D02*
D03*
Y1751750D02*
D03*
Y1721750D02*
D03*
X1564250Y1691750D02*
D03*
X1564500Y1661750D02*
D03*
Y1631500D02*
D03*
Y1601750D02*
D03*
X1534500Y1842000D02*
D03*
X1534250Y1812000D02*
D03*
X1534500Y1781750D02*
D03*
Y1751750D02*
D03*
Y1721750D02*
D03*
X1534250Y1691750D02*
D03*
X1534500Y1661750D02*
D03*
Y1631500D02*
D03*
Y1601750D02*
D03*
X1504250Y1812000D02*
D03*
X1504500Y1781750D02*
D03*
Y1751750D02*
D03*
Y1721750D02*
D03*
X1504250Y1691750D02*
D03*
X1504500Y1661750D02*
D03*
Y1631500D02*
D03*
Y1601750D02*
D03*
X1474750Y1842000D02*
D03*
X1474500Y1812000D02*
D03*
X1474750Y1781750D02*
D03*
Y1751750D02*
D03*
Y1721750D02*
D03*
X1474500Y1691750D02*
D03*
X1474750Y1661750D02*
D03*
Y1631500D02*
D03*
Y1601750D02*
D03*
X1444750Y1842000D02*
D03*
X1444500Y1812000D02*
D03*
X1444750Y1781750D02*
D03*
Y1751750D02*
D03*
Y1721750D02*
D03*
X1444500Y1691750D02*
D03*
X1444750Y1661750D02*
D03*
Y1631500D02*
D03*
Y1601750D02*
D03*
X1414500Y1842000D02*
D03*
X1414250Y1812000D02*
D03*
X1414500Y1781750D02*
D03*
Y1751750D02*
D03*
Y1721750D02*
D03*
X1414250Y1691750D02*
D03*
X1414500Y1661750D02*
D03*
Y1631500D02*
D03*
Y1601750D02*
D03*
X1384250Y1812000D02*
D03*
X1384500Y1781750D02*
D03*
Y1751750D02*
D03*
Y1721750D02*
D03*
X1384250Y1691750D02*
D03*
X1384500Y1661750D02*
D03*
Y1631500D02*
D03*
Y1601750D02*
D03*
X1354500Y1841750D02*
D03*
X1354250Y1811750D02*
D03*
X1354500Y1781500D02*
D03*
Y1751500D02*
D03*
Y1721500D02*
D03*
X1354250Y1691500D02*
D03*
X1354500Y1661500D02*
D03*
Y1631250D02*
D03*
Y1601500D02*
D03*
X1820774Y1232054D02*
D03*
X1903774Y1244704D02*
D03*
X1845024Y1230304D02*
D03*
X2327524Y1303804D02*
D03*
X2440524Y1276054D02*
D03*
X2422774Y1411054D02*
D03*
X2447774Y1422323D02*
D03*
Y1430354D02*
D03*
X1730381Y1271054D02*
D03*
Y1256054D02*
D03*
X1728494Y1246054D02*
D03*
Y1231054D02*
D03*
X2103974Y1271054D02*
D03*
X2032774D02*
D03*
X1849674D02*
D03*
X2267274Y1318554D02*
D03*
X2184274Y1318804D02*
D03*
X2125072Y1261054D02*
D03*
X2154274Y1308054D02*
D03*
X1729524Y1307554D02*
D03*
X1900274Y1308054D02*
D03*
X2031274Y1302804D02*
D03*
X2154274Y1345554D02*
D03*
X1900024Y1375904D02*
D03*
X1839274Y1346304D02*
D03*
X1900524Y1321554D02*
D03*
X1846274Y1371554D02*
D03*
X1809524Y1358304D02*
D03*
X1668024Y1341054D02*
D03*
X1657774Y1358804D02*
D03*
X2262284Y1375904D02*
D03*
X2277974Y1375804D02*
D03*
X2136274Y1338554D02*
D03*
Y1325854D02*
D03*
X2179024Y1395804D02*
D03*
X2219274Y1378054D02*
D03*
X2351274Y1386054D02*
D03*
X2346274Y1477554D02*
D03*
X2385774Y1311804D02*
D03*
X2434524Y1327054D02*
D03*
X2381024Y1359804D02*
D03*
X2368274Y1304954D02*
D03*
X2367024Y1456304D02*
D03*
D34*
X2031500Y1581000D02*
D03*
X2031600Y1891250D02*
D03*
X1397000Y1891250D02*
D03*
X2031774Y1201274D02*
D03*
X1397274Y1511524D02*
D03*
X2031874Y1511524D02*
D03*
D35*
X2082300Y1581000D02*
D03*
X2107700D02*
D03*
X2133100D02*
D03*
X2158500D02*
D03*
X2183900D02*
D03*
X2209300D02*
D03*
X2234700D02*
D03*
X2056900D02*
D03*
X2361800Y1891250D02*
D03*
X2336400D02*
D03*
X2311000D02*
D03*
X2285600D02*
D03*
X2260200D02*
D03*
X2234800D02*
D03*
X2209400D02*
D03*
X2184000D02*
D03*
X2158600D02*
D03*
X2133200D02*
D03*
X2107800D02*
D03*
X2082400D02*
D03*
X2057000D02*
D03*
X1422400Y1891250D02*
D03*
X1447800D02*
D03*
X1473200D02*
D03*
X1498600D02*
D03*
X1524000D02*
D03*
X1549400D02*
D03*
X1574800D02*
D03*
X1600200D02*
D03*
X1625600D02*
D03*
X1651000D02*
D03*
X1676400D02*
D03*
X1701800D02*
D03*
X1727200D02*
D03*
X1752600D02*
D03*
X1778000D02*
D03*
X1803400D02*
D03*
X1828800D02*
D03*
X1854200D02*
D03*
X1879600D02*
D03*
X1905000D02*
D03*
X1930400D02*
D03*
X1955800D02*
D03*
X1981200D02*
D03*
X2006600D02*
D03*
X1274774Y1253654D02*
D03*
Y1279054D02*
D03*
Y1304454D02*
D03*
X2057174Y1201274D02*
D03*
X2234974D02*
D03*
X2209574D02*
D03*
X2184174D02*
D03*
X2158774D02*
D03*
X2133374D02*
D03*
X2107974D02*
D03*
X2082574D02*
D03*
X2260474Y1511524D02*
D03*
X2285874D02*
D03*
X2362074D02*
D03*
X2336674D02*
D03*
X2311274D02*
D03*
X2235074D02*
D03*
X1829074Y1511524D02*
D03*
X1803674D02*
D03*
X1778274D02*
D03*
X1676674D02*
D03*
X1702074D02*
D03*
X1727474D02*
D03*
X1752874D02*
D03*
X1854474D02*
D03*
X1422674D02*
D03*
X1448074D02*
D03*
X1473474D02*
D03*
X1498874D02*
D03*
X1524274D02*
D03*
X1549674D02*
D03*
X1575074D02*
D03*
X1600474D02*
D03*
X1625874D02*
D03*
X1651274D02*
D03*
X1879874D02*
D03*
X1905274D02*
D03*
X1930674D02*
D03*
X1956074D02*
D03*
X1981474D02*
D03*
X2006874D02*
D03*
X2209674Y1511524D02*
D03*
X2184274D02*
D03*
X2158874D02*
D03*
X2133474D02*
D03*
X2108074D02*
D03*
X2082674D02*
D03*
X2057274D02*
D03*
D36*
X1279000Y1586000D02*
D03*
X2479000D02*
D03*
Y1886000D02*
D03*
X1279000D02*
D03*
X1279274Y1506274D02*
D03*
X2479274D02*
D03*
Y1206274D02*
D03*
X1279274D02*
D03*
D37*
X1274774Y1329854D02*
D03*
D38*
X2485154Y1466054D02*
D03*
X2494394D02*
D03*
Y1381554D02*
D03*
X2485154D02*
D03*
D39*
X2481024D02*
D03*
X2498524D02*
D03*
Y1466054D02*
D03*
X2481024D02*
D03*
D40*
X2464024Y1387804D02*
D03*
Y1459804D02*
D03*
D41*
X1341275Y1382954D02*
D03*
Y1408354D02*
D03*
Y1433754D02*
D03*
Y1459154D02*
D03*
D42*
X1264274Y1415553D02*
D03*
Y1445555D02*
D03*
D43*
X2065274Y1396054D02*
D03*
Y1428554D02*
D03*
X2027774Y1396054D02*
D03*
Y1388554D02*
D03*
X2035274Y1396054D02*
D03*
X2042774D02*
D03*
X2050274D02*
D03*
X2065274Y1388554D02*
D03*
X2057774D02*
D03*
X2050274D02*
D03*
X2042774D02*
D03*
X2035274D02*
D03*
X2027774Y1413554D02*
D03*
X2035274D02*
D03*
X2042774D02*
D03*
X2050274D02*
D03*
X2057774D02*
D03*
X2065274D02*
D03*
Y1421054D02*
D03*
X2057774D02*
D03*
X2050274D02*
D03*
X2042774D02*
D03*
X2035274D02*
D03*
X2027774D02*
D03*
Y1428554D02*
D03*
X2035274D02*
D03*
X2042774D02*
D03*
X2050274D02*
D03*
X2057774D02*
D03*
X2105224Y1402354D02*
D03*
X2109274Y1412804D02*
D03*
X2097024Y1408304D02*
D03*
X2098274Y1393054D02*
D03*
X2094024Y1384054D02*
D03*
M02*
