G04*
G04 #@! TF.GenerationSoftware,Altium Limited,Altium Designer,18.1.9 (240)*
G04*
G04 Layer_Color=32896*
%FSLAX44Y44*%
%MOMM*%
G71*
G01*
G75*
%ADD11C,0.2540*%
%ADD30C,0.1270*%
%ADD31C,0.2500*%
%ADD56C,0.0847*%
%ADD57C,0.2000*%
%ADD99C,0.0000*%
D11*
X2418024Y1494054D02*
G03*
X2418024Y1494054I-9000J0D01*
G01*
X1383946Y1348346D02*
Y1363581D01*
X1376328D01*
X1373789Y1361042D01*
Y1355963D01*
X1376328Y1353424D01*
X1383946D01*
X1378867D02*
X1373789Y1348346D01*
X1368711D02*
X1363632D01*
X1366172D01*
Y1363581D01*
X1368711Y1361042D01*
X1356015D02*
X1353476Y1363581D01*
X1348397D01*
X1345858Y1361042D01*
Y1358503D01*
X1348397Y1355963D01*
X1350936D01*
X1348397D01*
X1345858Y1353424D01*
Y1350885D01*
X1348397Y1348346D01*
X1353476D01*
X1356015Y1350885D01*
X1530858Y1348422D02*
Y1363657D01*
X1523240D01*
X1520701Y1361118D01*
Y1356039D01*
X1523240Y1353500D01*
X1530858D01*
X1525779D02*
X1520701Y1348422D01*
X1515623D02*
X1510544D01*
X1513083D01*
Y1363657D01*
X1515623Y1361118D01*
X1492770Y1363657D02*
X1502927D01*
Y1356039D01*
X1497849Y1358578D01*
X1495309D01*
X1492770Y1356039D01*
Y1350961D01*
X1495309Y1348422D01*
X1500388D01*
X1502927Y1350961D01*
X1678960Y1348200D02*
Y1363435D01*
X1671342D01*
X1668803Y1360896D01*
Y1355817D01*
X1671342Y1353278D01*
X1678960D01*
X1673881D02*
X1668803Y1348200D01*
X1653568D02*
X1663725D01*
X1653568Y1358356D01*
Y1360896D01*
X1656107Y1363435D01*
X1661185D01*
X1663725Y1360896D01*
X1648490Y1348200D02*
X1643411D01*
X1645950D01*
Y1363435D01*
X1648490Y1360896D01*
X2515131Y1513041D02*
X2520209D01*
X2517670D01*
Y1500345D01*
X2520209Y1497806D01*
X2522749D01*
X2525288Y1500345D01*
X2510053Y1497806D02*
X2504974D01*
X2507513D01*
Y1513041D01*
X2510053Y1510502D01*
D30*
X2012024Y1391354D02*
X2015524D01*
X2012024Y1461354D02*
X2015524D01*
X2078524Y1391354D02*
X2082024D01*
X2078524Y1461354D02*
X2082024D01*
X2012024Y1391354D02*
Y1394854D01*
Y1457854D02*
Y1461354D01*
X2082024Y1391354D02*
Y1394854D01*
Y1457854D02*
Y1461354D01*
X2485394Y1375054D02*
X2489394Y1377554D01*
X2485394Y1375054D02*
X2489394Y1372554D01*
Y1377554D01*
X2485394Y1379054D02*
X2489394D01*
X2485394Y1371054D02*
X2489394D01*
X2485394Y1359054D02*
X2489394Y1361554D01*
X2485394Y1359054D02*
X2489394Y1356554D01*
Y1361554D01*
X2485394Y1363054D02*
X2489394D01*
X2485394Y1355054D02*
X2489394D01*
X1754004Y1260054D02*
X1758004Y1262554D01*
X1754004Y1265054D02*
X1758004Y1262554D01*
X1754004Y1260054D02*
Y1265054D01*
Y1258554D02*
X1758004D01*
X1754004Y1266554D02*
X1758004D01*
X1754004Y1279054D02*
X1758004Y1281554D01*
X1754004Y1284054D02*
X1758004Y1281554D01*
X1754004Y1279054D02*
Y1284054D01*
Y1277554D02*
X1758004D01*
X1754004Y1285554D02*
X1758004D01*
X1754004Y1241804D02*
X1758004Y1244304D01*
X1754004Y1246804D02*
X1758004Y1244304D01*
X1754004Y1241804D02*
Y1246804D01*
Y1240304D02*
X1758004D01*
X1754004Y1248304D02*
X1758004D01*
X1753904Y1298554D02*
X1757904Y1301054D01*
X1753904Y1303554D02*
X1757904Y1301054D01*
X1753904Y1298554D02*
Y1303554D01*
Y1297054D02*
X1757904D01*
X1753904Y1305054D02*
X1757904D01*
D31*
X2446024Y1305304D02*
G03*
X2446024Y1305304I-1250J0D01*
G01*
X2450774Y1453774D02*
G03*
X2450774Y1453774I-1250J0D01*
G01*
X2394024Y1519054D02*
X2424024D01*
X2394024Y1469054D02*
Y1519054D01*
Y1469054D02*
X2424024D01*
Y1519054D01*
D56*
X1274768Y1552808D02*
X2479667D01*
X1271378Y1551961D02*
X2484751D01*
X1266294Y1551114D02*
X2488987D01*
X1263753Y1550266D02*
X2491529D01*
X1262905Y1549419D02*
X2492377D01*
X1262058Y1548572D02*
X2494071D01*
X1260363Y1547724D02*
X2495766D01*
X1258669Y1546877D02*
X2496613D01*
X1257821Y1546030D02*
X2497460D01*
X1256126Y1545182D02*
X2499155D01*
X1255279Y1544335D02*
X2500002D01*
X1255279Y1543488D02*
X2500002D01*
X1253585Y1542640D02*
X2500850D01*
X1253585Y1541793D02*
X2501697D01*
X1252737Y1540946D02*
X2503392D01*
X1251890Y1540098D02*
X2503392D01*
X1251890Y1539251D02*
X2504239D01*
X1251043Y1538404D02*
X2504239D01*
X1250195Y1537556D02*
X2505086D01*
X1249348Y1536709D02*
X2505934D01*
X1249348Y1535862D02*
X2505934D01*
X1249348Y1535014D02*
X2506781D01*
X1248501Y1534167D02*
X2506781D01*
X1248501Y1533320D02*
X2507628D01*
X1248501Y1532473D02*
X2507628D01*
X1247653Y1531625D02*
X2508476D01*
X1247653Y1530778D02*
X2508476D01*
X1246806Y1529931D02*
X2508476D01*
X1246806Y1529083D02*
X2509323D01*
X1246806Y1528236D02*
X2509323D01*
X1246806Y1527388D02*
X2509323D01*
X1246806Y1526541D02*
X2509323D01*
X1246806Y1525694D02*
X2510170D01*
X1246806Y1524846D02*
X2510170D01*
X1245959Y1523999D02*
X2510170D01*
X1245959Y1523152D02*
X2510170D01*
X1245959Y1522305D02*
X2510170D01*
X1245959Y1521457D02*
X2510170D01*
X1245959Y1520610D02*
X2510170D01*
X1245959Y1519763D02*
X2510170D01*
X1245959Y1518915D02*
X2510170D01*
X1245959Y1518068D02*
X2510170D01*
X1245959Y1517221D02*
X2510170D01*
X1245959Y1516373D02*
X2510170D01*
X1245959Y1515526D02*
X2510170D01*
X1245959Y1514679D02*
X2510170D01*
X1245959Y1513831D02*
X2510170D01*
X1245959Y1512984D02*
X2510170D01*
X1245959Y1512137D02*
X2510170D01*
X1245959Y1511289D02*
X2510170D01*
X1245959Y1510442D02*
X2510170D01*
X1245959Y1509595D02*
X2510170D01*
X1245959Y1508747D02*
X2510170D01*
X1245959Y1507900D02*
X2510170D01*
X1245959Y1507053D02*
X2510170D01*
X1245959Y1506205D02*
X2510170D01*
X1245959Y1505358D02*
X2510170D01*
X1245959Y1504511D02*
X2510170D01*
X1245959Y1503663D02*
X2510170D01*
X2347484Y1502816D02*
X2510170D01*
X1245959D02*
X2218690D01*
X2350873Y1501969D02*
X2510170D01*
X1245959D02*
X2215301D01*
X2353415Y1501121D02*
X2510170D01*
X1245959D02*
X2212759D01*
X2355110Y1500274D02*
X2510170D01*
X1245959D02*
X2211064D01*
X2356804Y1499427D02*
X2510170D01*
X1245959D02*
X2209369D01*
X2358499Y1498579D02*
X2510170D01*
X1245959D02*
X2207675D01*
X2359346Y1497732D02*
X2510170D01*
X1245959D02*
X2206827D01*
X2360193Y1496885D02*
X2510170D01*
X1245959D02*
X2205980D01*
X2361888Y1496037D02*
X2510170D01*
X1245959D02*
X2204285D01*
X2362735Y1495190D02*
X2510170D01*
X2312743D02*
X2315285D01*
X2247499D02*
X2250041D01*
X1245959D02*
X2203438D01*
X2363583Y1494343D02*
X2510170D01*
X2306812D02*
X2321216D01*
X2241568D02*
X2255125D01*
X1245959D02*
X2202591D01*
X2364430Y1493495D02*
X2510170D01*
X2304270D02*
X2323758D01*
X2239026D02*
X2258514D01*
X1245959D02*
X2201743D01*
X2365278Y1492648D02*
X2510170D01*
X2302575D02*
X2325453D01*
X2237331D02*
X2260209D01*
X1245959D02*
X2200896D01*
X2365278Y1491801D02*
X2510170D01*
X2317827D02*
X2327148D01*
X2300881D02*
X2310201D01*
X2252583D02*
X2261904D01*
X2235636D02*
X2244957D01*
X1245959D02*
X2200896D01*
X2366125Y1490954D02*
X2510170D01*
X2321216D02*
X2327995D01*
X2299186D02*
X2306812D01*
X2255972D02*
X2262751D01*
X2233942D02*
X2241568D01*
X1245959D02*
X2200049D01*
X2366972Y1490106D02*
X2510170D01*
X2322911D02*
X2329690D01*
X2298339D02*
X2305117D01*
X2257667D02*
X2264446D01*
X2233094D02*
X2239873D01*
X1245959D02*
X2199201D01*
X2367819Y1489259D02*
X2510170D01*
X2324606D02*
X2330537D01*
X2297491D02*
X2303423D01*
X2259362D02*
X2265293D01*
X2232247D02*
X2238178D01*
X1817904D02*
X2198354D01*
X1245959D02*
X1804347D01*
X2367819Y1488412D02*
X2510170D01*
X2326300D02*
X2331384D01*
X2296644D02*
X2301728D01*
X2260209D02*
X2266140D01*
X2231400D02*
X2236484D01*
X1821294D02*
X2198354D01*
X1245959D02*
X1800958D01*
X2368667Y1487564D02*
X2510170D01*
X2327148D02*
X2332232D01*
X2295797D02*
X2300881D01*
X2261904D02*
X2266987D01*
X2230553D02*
X2235636D01*
X1824683D02*
X2197507D01*
X1245959D02*
X1798416D01*
X2368667Y1486717D02*
X2510170D01*
X2327995D02*
X2333079D01*
X2294949D02*
X2300033D01*
X2262751D02*
X2267835D01*
X2229705D02*
X2234789D01*
X1826378D02*
X2197507D01*
X1245959D02*
X1795874D01*
X2369514Y1485869D02*
X2510170D01*
X2328842D02*
X2333926D01*
X2294102D02*
X2299186D01*
X2263598D02*
X2268682D01*
X2228858D02*
X2233094D01*
X1828072D02*
X2196659D01*
X1245959D02*
X1794179D01*
X2369514Y1485022D02*
X2510170D01*
X2329690D02*
X2334774D01*
X2293255D02*
X2298339D01*
X2264446D02*
X2268682D01*
X2228011D02*
X2232247D01*
X1829767D02*
X2196659D01*
X1245959D02*
X1792484D01*
X2370361Y1484175D02*
X2510170D01*
X2330537D02*
X2334774D01*
X2293255D02*
X2297491D01*
X2265293D02*
X2269530D01*
X2245804D02*
X2251736D01*
X2227163D02*
X2232247D01*
X1831461D02*
X2195812D01*
X1245959D02*
X1790790D01*
X2370361Y1483327D02*
X2510170D01*
X2331384D02*
X2335621D01*
X2292407D02*
X2296644D01*
X2266140D02*
X2270377D01*
X2245804D02*
X2251736D01*
X2227163D02*
X2231400D01*
X1833156D02*
X2195812D01*
X1245959D02*
X1789942D01*
X2370361Y1482480D02*
X2510170D01*
X2332232D02*
X2336468D01*
X2291560D02*
X2295797D01*
X2266987D02*
X2270377D01*
X2245804D02*
X2251736D01*
X2226316D02*
X2230553D01*
X1834851D02*
X2195812D01*
X1245959D02*
X1788248D01*
X2371209Y1481633D02*
X2510170D01*
X2332232D02*
X2336468D01*
X2309354D02*
X2315285D01*
X2291560D02*
X2295797D01*
X2266987D02*
X2271224D01*
X2242415D02*
X2255125D01*
X2226316D02*
X2229705D01*
X1836546D02*
X2194965D01*
X1245959D02*
X1787401D01*
X2371209Y1480786D02*
X2510170D01*
X2333079D02*
X2337316D01*
X2310201D02*
X2315285D01*
X2290713D02*
X2294949D01*
X2267835D02*
X2271224D01*
X2241568D02*
X2255972D01*
X2225468D02*
X2229705D01*
X1837393D02*
X2194965D01*
X1245959D02*
X1786553D01*
X2371209Y1479938D02*
X2510170D01*
X2333926D02*
X2337316D01*
X2310201D02*
X2315285D01*
X2290713D02*
X2294102D01*
X2267835D02*
X2272072D01*
X2241568D02*
X2255972D01*
X2225468D02*
X2228858D01*
X1839088D02*
X2194965D01*
X1245959D02*
X1785706D01*
X2372056Y1479091D02*
X2510170D01*
X2333926D02*
X2337316D01*
X2311048D02*
X2315285D01*
X2290713D02*
X2294102D01*
X2268682D02*
X2272072D01*
X2241568D02*
X2255972D01*
X2224621D02*
X2228858D01*
X1840782D02*
X2194117D01*
X1245959D02*
X1784859D01*
X2372056Y1478244D02*
X2510170D01*
X2334774D02*
X2338163D01*
X2311048D02*
X2316133D01*
X2289865D02*
X2293255D01*
X2268682D02*
X2272072D01*
X2241568D02*
X2255972D01*
X2224621D02*
X2228011D01*
X1842477D02*
X2194117D01*
X1245959D02*
X1784011D01*
X2372056Y1477396D02*
X2510170D01*
X2334774D02*
X2338163D01*
X2311048D02*
X2316133D01*
X2289865D02*
X2293255D01*
X2269530D02*
X2272919D01*
X2241568D02*
X2255972D01*
X2224621D02*
X2228011D01*
X1844171D02*
X2194117D01*
X1245959D02*
X1783164D01*
X2372056Y1476549D02*
X2510170D01*
X2334774D02*
X2338163D01*
X2311896D02*
X2316133D01*
X2289865D02*
X2293255D01*
X2269530D02*
X2272919D01*
X2241568D02*
X2255972D01*
X2224621D02*
X2227163D01*
X1845866D02*
X2194117D01*
X1245959D02*
X1782317D01*
X2372056Y1475702D02*
X2510170D01*
X2335621D02*
X2338163D01*
X2311896D02*
X2316133D01*
X2289865D02*
X2292407D01*
X2269530D02*
X2272919D01*
X2248346D02*
X2255972D01*
X2241568D02*
X2247499D01*
X2223774D02*
X2227163D01*
X1847561D02*
X2194117D01*
X1245959D02*
X1781469D01*
X2372056Y1474854D02*
X2510170D01*
X2335621D02*
X2339010D01*
X2311896D02*
X2316133D01*
X2289018D02*
X2292407D01*
X2270377D02*
X2272919D01*
X2248346D02*
X2255972D01*
X2241568D02*
X2247499D01*
X2223774D02*
X2227163D01*
X1849255D02*
X2194117D01*
X1245959D02*
X1780622D01*
X2372056Y1474007D02*
X2510170D01*
X2335621D02*
X2339010D01*
X2312743D02*
X2316980D01*
X2289018D02*
X2292407D01*
X2270377D02*
X2273766D01*
X2249194D02*
X2255972D01*
X2241568D02*
X2247499D01*
X2223774D02*
X2227163D01*
X1850103D02*
X2194117D01*
X1245959D02*
X1779775D01*
X2372056Y1473160D02*
X2510170D01*
X2335621D02*
X2339010D01*
X2312743D02*
X2316980D01*
X2289018D02*
X2292407D01*
X2270377D02*
X2273766D01*
X2250041D02*
X2255972D01*
X2241568D02*
X2247499D01*
X2223774D02*
X2227163D01*
X1851797D02*
X2194117D01*
X1245959D02*
X1779775D01*
X2372056Y1472312D02*
X2510170D01*
X2335621D02*
X2339010D01*
X2313591D02*
X2316980D01*
X2289018D02*
X2292407D01*
X2270377D02*
X2273766D01*
X2250041D02*
X2255972D01*
X2241568D02*
X2247499D01*
X2223774D02*
X2226316D01*
X1853492D02*
X2194117D01*
X1245959D02*
X1778927D01*
X2372056Y1471465D02*
X2510170D01*
X2335621D02*
X2339010D01*
X2313591D02*
X2316980D01*
X2289018D02*
X2291560D01*
X2270377D02*
X2273766D01*
X2250888D02*
X2255972D01*
X2241568D02*
X2247499D01*
X2223774D02*
X2226316D01*
X1855187D02*
X2194117D01*
X1245959D02*
X1778080D01*
X2372056Y1470618D02*
X2510170D01*
X2336468D02*
X2339010D01*
X2309354D02*
X2317827D01*
X2289018D02*
X2291560D01*
X2270377D02*
X2273766D01*
X2250888D02*
X2255972D01*
X2241568D02*
X2247499D01*
X2223774D02*
X2226316D01*
X1856881D02*
X2194117D01*
X1245959D02*
X1778080D01*
X2372056Y1469770D02*
X2510170D01*
X2336468D02*
X2339010D01*
X2310201D02*
X2317827D01*
X2289018D02*
X2291560D01*
X2270377D02*
X2273766D01*
X2251736D02*
X2255972D01*
X2241568D02*
X2247499D01*
X2223774D02*
X2226316D01*
X1858576D02*
X2194117D01*
X1245959D02*
X1777233D01*
X2372056Y1468923D02*
X2510170D01*
X2336468D02*
X2339010D01*
X2310201D02*
X2317827D01*
X2289018D02*
X2291560D01*
X2270377D02*
X2273766D01*
X2251736D02*
X2255972D01*
X2241568D02*
X2244110D01*
X2223774D02*
X2226316D01*
X1860271D02*
X2194117D01*
X1245959D02*
X1776385D01*
X2372056Y1468076D02*
X2510170D01*
X2335621D02*
X2339010D01*
X2311048D02*
X2317827D01*
X2289018D02*
X2292407D01*
X2270377D02*
X2273766D01*
X2252583D02*
X2255972D01*
X2241568D02*
X2244957D01*
X2223774D02*
X2226316D01*
X2072102D02*
X2194117D01*
X1861965D02*
X2018721D01*
X1245959D02*
X1776385D01*
X2372056Y1467228D02*
X2510170D01*
X2335621D02*
X2339010D01*
X2311048D02*
X2313591D01*
X2289018D02*
X2292407D01*
X2270377D02*
X2273766D01*
X2252583D02*
X2255972D01*
X2241568D02*
X2245804D01*
X2223774D02*
X2226316D01*
X2075492D02*
X2194117D01*
X1862813D02*
X2016179D01*
X1245959D02*
X1775538D01*
X2372056Y1466381D02*
X2510170D01*
X2335621D02*
X2339010D01*
X2311896D02*
X2314438D01*
X2289018D02*
X2292407D01*
X2270377D02*
X2273766D01*
X2250041D02*
X2255972D01*
X2241568D02*
X2245804D01*
X2223774D02*
X2227163D01*
X2077186D02*
X2194117D01*
X1864507D02*
X2014484D01*
X1245959D02*
X1775538D01*
X2372056Y1465534D02*
X2510170D01*
X2335621D02*
X2339010D01*
X2312743D02*
X2314438D01*
X2289018D02*
X2292407D01*
X2270377D02*
X2272919D01*
X2250041D02*
X2255972D01*
X2241568D02*
X2246652D01*
X2223774D02*
X2227163D01*
X2078881D02*
X2194117D01*
X1866202D02*
X2012789D01*
X1823836D02*
X1826378D01*
X1245959D02*
X1774691D01*
X2372056Y1464686D02*
X2510170D01*
X2335621D02*
X2338163D01*
X2312743D02*
X2314438D01*
X2289018D02*
X2292407D01*
X2269530D02*
X2272919D01*
X2250041D02*
X2255972D01*
X2241568D02*
X2246652D01*
X2223774D02*
X2227163D01*
X2079728D02*
X2194117D01*
X1867897D02*
X2011942D01*
X1822988D02*
X1828072D01*
X1245959D02*
X1774691D01*
X2372056Y1463839D02*
X2510170D01*
X2334774D02*
X2338163D01*
X2313591D02*
X2315285D01*
X2289865D02*
X2293255D01*
X2269530D02*
X2272919D01*
X2250041D02*
X2255972D01*
X2241568D02*
X2247499D01*
X2224621D02*
X2227163D01*
X2080576D02*
X2194117D01*
X1869591D02*
X2010247D01*
X1822988D02*
X1828920D01*
X1245959D02*
X1773843D01*
X2372056Y1462992D02*
X2510170D01*
X2334774D02*
X2338163D01*
X2314438D02*
X2315285D01*
X2289865D02*
X2293255D01*
X2269530D02*
X2272919D01*
X2250041D02*
X2255972D01*
X2241568D02*
X2247499D01*
X2224621D02*
X2228011D01*
X2081423D02*
X2194117D01*
X1871286D02*
X2009400D01*
X1822141D02*
X1830614D01*
X1245959D02*
X1773843D01*
X2372056Y1462144D02*
X2510170D01*
X2334774D02*
X2338163D01*
X2314438D02*
X2316133D01*
X2289865D02*
X2293255D01*
X2268682D02*
X2272919D01*
X2250041D02*
X2255972D01*
X2241568D02*
X2248346D01*
X2224621D02*
X2228011D01*
X2082270D02*
X2194117D01*
X1872980D02*
X2008553D01*
X1822141D02*
X1832309D01*
X1245959D02*
X1772996D01*
X2372056Y1461297D02*
X2510170D01*
X2333926D02*
X2337316D01*
X2315285D02*
X2316133D01*
X2290713D02*
X2294102D01*
X2268682D02*
X2272072D01*
X2250041D02*
X2255972D01*
X2241568D02*
X2248346D01*
X2224621D02*
X2228858D01*
X2083118D02*
X2194965D01*
X1874675D02*
X2008553D01*
X1821294D02*
X1834003D01*
X1245959D02*
X1772996D01*
X2371209Y1460450D02*
X2510170D01*
X2333926D02*
X2337316D01*
X2315285D02*
X2316133D01*
X2290713D02*
X2294102D01*
X2267835D02*
X2272072D01*
X2250041D02*
X2255972D01*
X2241568D02*
X2249194D01*
X2225468D02*
X2228858D01*
X2083965D02*
X2194965D01*
X1875522D02*
X2007706D01*
X1820446D02*
X1835698D01*
X1245959D02*
X1772149D01*
X2371209Y1459602D02*
X2510170D01*
X2333079D02*
X2337316D01*
X2290713D02*
X2294949D01*
X2267835D02*
X2271224D01*
X2250041D02*
X2255972D01*
X2241568D02*
X2249194D01*
X2225468D02*
X2229705D01*
X2083965D02*
X2194965D01*
X1877217D02*
X2006858D01*
X1820446D02*
X1837393D01*
X1245959D02*
X1772149D01*
X2371209Y1458755D02*
X2510170D01*
X2333079D02*
X2336468D01*
X2291560D02*
X2294949D01*
X2266987D02*
X2271224D01*
X2241568D02*
X2255972D01*
X2226316D02*
X2229705D01*
X2084812D02*
X2194965D01*
X1878912D02*
X2006858D01*
X1819599D02*
X1839088D01*
X1245959D02*
X1771301D01*
X2370361Y1457908D02*
X2510170D01*
X2332232D02*
X2336468D01*
X2291560D02*
X2295797D01*
X2266987D02*
X2270377D01*
X2241568D02*
X2255972D01*
X2226316D02*
X2230553D01*
X2084812D02*
X2195812D01*
X1880607D02*
X2006011D01*
X1819599D02*
X1840782D01*
X1245959D02*
X1771301D01*
X2370361Y1457060D02*
X2510170D01*
X2331384D02*
X2335621D01*
X2292407D02*
X2296644D01*
X2266140D02*
X2270377D01*
X2241568D02*
X2255972D01*
X2227163D02*
X2231400D01*
X2085660D02*
X2195812D01*
X1882301D02*
X2006011D01*
X1821294D02*
X1841629D01*
X1245959D02*
X1770454D01*
X2370361Y1456213D02*
X2510170D01*
X2330537D02*
X2334774D01*
X2293255D02*
X2297491D01*
X2265293D02*
X2269530D01*
X2241568D02*
X2255972D01*
X2227163D02*
X2231400D01*
X2085660D02*
X2195812D01*
X1883996D02*
X2005164D01*
X1822141D02*
X1843324D01*
X1245959D02*
X1769607D01*
X2369514Y1455366D02*
X2510170D01*
X2329690D02*
X2334774D01*
X2293255D02*
X2298339D01*
X2264446D02*
X2269530D01*
X2228011D02*
X2232247D01*
X2085660D02*
X2196659D01*
X1885690D02*
X2005164D01*
X1823836D02*
X1845019D01*
X1245959D02*
X1769607D01*
X2369514Y1454518D02*
X2510170D01*
X2328842D02*
X2333926D01*
X2294102D02*
X2299186D01*
X2263598D02*
X2268682D01*
X2228858D02*
X2233094D01*
X2086507D02*
X2196659D01*
X1887385D02*
X2005164D01*
X1825530D02*
X1846713D01*
X1245959D02*
X1768759D01*
X2368667Y1453671D02*
X2510170D01*
X2327995D02*
X2333079D01*
X2294949D02*
X2300033D01*
X2262751D02*
X2267835D01*
X2229705D02*
X2233942D01*
X2086507D02*
X2197507D01*
X1888232D02*
X2005164D01*
X1827225D02*
X1848408D01*
X1245959D02*
X1768759D01*
X2368667Y1452824D02*
X2510170D01*
X2327148D02*
X2332232D01*
X2295797D02*
X2300881D01*
X2261904D02*
X2266987D01*
X2229705D02*
X2235636D01*
X2086507D02*
X2197507D01*
X1889927D02*
X2004316D01*
X1828920D02*
X1850103D01*
X1245959D02*
X1767912D01*
X2367819Y1451976D02*
X2510170D01*
X2326300D02*
X2331384D01*
X2296644D02*
X2301728D01*
X2261056D02*
X2266140D01*
X2230553D02*
X2236484D01*
X2086507D02*
X2198354D01*
X1891622D02*
X2004316D01*
X1830614D02*
X1851797D01*
X1245959D02*
X1767912D01*
X2366972Y1451129D02*
X2510170D01*
X2324606D02*
X2330537D01*
X2297491D02*
X2303423D01*
X2259362D02*
X2265293D01*
X2231400D02*
X2237331D01*
X2086507D02*
X2199201D01*
X1893316D02*
X2004316D01*
X1832309D02*
X1853492D01*
X1245959D02*
X1767065D01*
X2366972Y1450282D02*
X2510170D01*
X2322911D02*
X2329690D01*
X2298339D02*
X2304270D01*
X2257667D02*
X2264446D01*
X2233094D02*
X2239026D01*
X2086507D02*
X2199201D01*
X1895011D02*
X2004316D01*
X1834003D02*
X1855187D01*
X1245959D02*
X1767065D01*
X2366125Y1449434D02*
X2510170D01*
X2321216D02*
X2328842D01*
X2299186D02*
X2306812D01*
X2255972D02*
X2263598D01*
X2233942D02*
X2241568D01*
X2086507D02*
X2200049D01*
X1896706D02*
X2004316D01*
X1835698D02*
X1856034D01*
X1245959D02*
X1766217D01*
X2365278Y1448587D02*
X2510170D01*
X2318674D02*
X2327148D01*
X2300881D02*
X2309354D01*
X2253430D02*
X2261904D01*
X2235636D02*
X2244110D01*
X2086507D02*
X2200896D01*
X1898400D02*
X2004316D01*
X1836546D02*
X1857729D01*
X1245959D02*
X1766217D01*
X2364430Y1447740D02*
X2510170D01*
X2302575D02*
X2325453D01*
X2236484D02*
X2260209D01*
X2086507D02*
X2201743D01*
X1900095D02*
X2004316D01*
X1838240D02*
X1857729D01*
X1245959D02*
X1765370D01*
X2364430Y1446892D02*
X2510170D01*
X2304270D02*
X2323758D01*
X2239026D02*
X2258514D01*
X2086507D02*
X2202591D01*
X1900942D02*
X2004316D01*
X1839935D02*
X1856881D01*
X1245959D02*
X1765370D01*
X2363583Y1446045D02*
X2510170D01*
X2306812D02*
X2321216D01*
X2241568D02*
X2255972D01*
X2086507D02*
X2202591D01*
X1902637D02*
X2004316D01*
X1841629D02*
X1856881D01*
X1245959D02*
X1764523D01*
X2362735Y1445198D02*
X2510170D01*
X2311048D02*
X2318674D01*
X2245804D02*
X2252583D01*
X2086507D02*
X2204285D01*
X1904332D02*
X2004316D01*
X1843324D02*
X1856034D01*
X1245959D02*
X1764523D01*
X2361041Y1444350D02*
X2510170D01*
X2313591D02*
X2318674D01*
X2248346D02*
X2253430D01*
X2086507D02*
X2205133D01*
X1906026D02*
X2004316D01*
X1845019D02*
X1856034D01*
X1822988D02*
X1825530D01*
X1245959D02*
X1763675D01*
X2360193Y1443503D02*
X2510170D01*
X2314438D02*
X2319522D01*
X2249194D02*
X2254278D01*
X2086507D02*
X2205980D01*
X1907721D02*
X2004316D01*
X1846713D02*
X1855187D01*
X1822988D02*
X1827225D01*
X1245959D02*
X1763675D01*
X2359346Y1442656D02*
X2510170D01*
X2315285D02*
X2320369D01*
X2250041D02*
X2255125D01*
X2086507D02*
X2206827D01*
X1909416D02*
X2004316D01*
X1848408D02*
X1854339D01*
X1822141D02*
X1828920D01*
X1245959D02*
X1762828D01*
X2357652Y1441808D02*
X2510170D01*
X2316133D02*
X2321216D01*
X2250888D02*
X2255972D01*
X2086507D02*
X2208522D01*
X1911110D02*
X2004316D01*
X1849255D02*
X1854339D01*
X1821294D02*
X1830614D01*
X1245959D02*
X1762828D01*
X2356804Y1440961D02*
X2510170D01*
X2316980D02*
X2322064D01*
X2251736D02*
X2256820D01*
X2086507D02*
X2209369D01*
X1912805D02*
X2004316D01*
X1850950D02*
X1853492D01*
X1821294D02*
X1831461D01*
X1810278D02*
X1811973D01*
X1245959D02*
X1761981D01*
X2355110Y1440114D02*
X2510170D01*
X2317827D02*
X2322911D01*
X2252583D02*
X2257667D01*
X2086507D02*
X2211064D01*
X1913652D02*
X2004316D01*
X1852645D02*
X1853492D01*
X1820446D02*
X1833156D01*
X1810278D02*
X1813668D01*
X1245959D02*
X1761981D01*
X2353415Y1439267D02*
X2510170D01*
X2318674D02*
X2323758D01*
X2253430D02*
X2258514D01*
X2086507D02*
X2212759D01*
X1915347D02*
X2004316D01*
X1852645D02*
X1855187D01*
X1820446D02*
X1834851D01*
X1809431D02*
X1815362D01*
X1245959D02*
X1761981D01*
X2350873Y1438419D02*
X2510170D01*
X2319522D02*
X2324606D01*
X2254278D02*
X2259362D01*
X2086507D02*
X2215301D01*
X1917042D02*
X2004316D01*
X1851797D02*
X1856881D01*
X1819599D02*
X1836546D01*
X1809431D02*
X1817057D01*
X1245959D02*
X1761133D01*
X2347484Y1437572D02*
X2510170D01*
X2320369D02*
X2325453D01*
X2255125D02*
X2260209D01*
X2086507D02*
X2218690D01*
X1918736D02*
X2004316D01*
X1851797D02*
X1858576D01*
X1819599D02*
X1838240D01*
X1808584D02*
X1817904D01*
X1245959D02*
X1761133D01*
X2336468Y1436725D02*
X2510170D01*
X2321216D02*
X2326300D01*
X2255972D02*
X2261056D01*
X2086507D02*
X2245804D01*
X1920431D02*
X2004316D01*
X1850950D02*
X1860271D01*
X1808584D02*
X1839935D01*
X1245959D02*
X1761133D01*
X2337316Y1435877D02*
X2510170D01*
X2322064D02*
X2327148D01*
X2256820D02*
X2261904D01*
X2086507D02*
X2246652D01*
X1922126D02*
X2004316D01*
X1850950D02*
X1861965D01*
X1820446D02*
X1841629D01*
X1807736D02*
X1818752D01*
X1245959D02*
X1760286D01*
X2338163Y1435030D02*
X2510170D01*
X2322911D02*
X2327995D01*
X2257667D02*
X2262751D01*
X2086507D02*
X2247499D01*
X1923820D02*
X2004316D01*
X1850103D02*
X1861118D01*
X1822141D02*
X1843324D01*
X1807736D02*
X1818752D01*
X1245959D02*
X1760286D01*
X2339010Y1434183D02*
X2510170D01*
X2323758D02*
X2328842D01*
X2258514D02*
X2263598D01*
X2086507D02*
X2248346D01*
X1925515D02*
X2004316D01*
X1850103D02*
X1861118D01*
X1823836D02*
X1845019D01*
X1806889D02*
X1817904D01*
X1245959D02*
X1760286D01*
X2339858Y1433335D02*
X2510170D01*
X2324606D02*
X2329690D01*
X2259362D02*
X2264446D01*
X2086507D02*
X2249194D01*
X1926362D02*
X2004316D01*
X1849255D02*
X1860271D01*
X1825530D02*
X1845866D01*
X1806042D02*
X1817904D01*
X1245959D02*
X1760286D01*
X2340705Y1432488D02*
X2510170D01*
X2325453D02*
X2330537D01*
X2260209D02*
X2265293D01*
X2086507D02*
X2250041D01*
X1928057D02*
X2004316D01*
X1849255D02*
X1860271D01*
X1827225D02*
X1847561D01*
X1806889D02*
X1817057D01*
X1245959D02*
X1760286D01*
X2341552Y1431640D02*
X2510170D01*
X2326300D02*
X2331384D01*
X2261056D02*
X2266140D01*
X2086507D02*
X2250888D01*
X1929751D02*
X2004316D01*
X1828920D02*
X1859423D01*
X1808584D02*
X1817057D01*
X1245959D02*
X1760286D01*
X2342400Y1430793D02*
X2510170D01*
X2327148D02*
X2332232D01*
X2261904D02*
X2266987D01*
X2086507D02*
X2251736D01*
X1931446D02*
X2004316D01*
X1850103D02*
X1859423D01*
X1829767D02*
X1848408D01*
X1810278D02*
X1816210D01*
X1245959D02*
X1759439D01*
X2343247Y1429946D02*
X2510170D01*
X2327995D02*
X2333079D01*
X2262751D02*
X2267835D01*
X2086507D02*
X2252583D01*
X1933141D02*
X2004316D01*
X1851797D02*
X1858576D01*
X1831461D02*
X1847561D01*
X1811126D02*
X1816210D01*
X1245959D02*
X1759439D01*
X2344094Y1429099D02*
X2510170D01*
X2328842D02*
X2333926D01*
X2263598D02*
X2268682D01*
X2086507D02*
X2253430D01*
X1934835D02*
X2004316D01*
X1853492D02*
X1858576D01*
X1833156D02*
X1847561D01*
X1812820D02*
X1815362D01*
X1245959D02*
X1759439D01*
X2344942Y1428251D02*
X2510170D01*
X2329690D02*
X2334774D01*
X2264446D02*
X2269530D01*
X2086507D02*
X2254278D01*
X1936530D02*
X2004316D01*
X1855187D02*
X1857729D01*
X1834851D02*
X1846713D01*
X1814515D02*
X1815362D01*
X1245959D02*
X1759439D01*
X2345789Y1427404D02*
X2510170D01*
X2330537D02*
X2335621D01*
X2265293D02*
X2270377D01*
X2086507D02*
X2255125D01*
X1938225D02*
X2004316D01*
X1856881D02*
X1857729D01*
X1836546D02*
X1846713D01*
X1813668D02*
X1817057D01*
X1245959D02*
X1759439D01*
X2346636Y1426557D02*
X2510170D01*
X2331384D02*
X2336468D01*
X2266140D02*
X2271224D01*
X2086507D02*
X2255972D01*
X1939072D02*
X2004316D01*
X1838240D02*
X1845866D01*
X1813668D02*
X1818752D01*
X1245959D02*
X1759439D01*
X2347484Y1425709D02*
X2510170D01*
X2332232D02*
X2337316D01*
X2266987D02*
X2272072D01*
X2086507D02*
X2256820D01*
X1940767D02*
X2004316D01*
X1839935D02*
X1845866D01*
X1812820D02*
X1820446D01*
X1245959D02*
X1759439D01*
X2348331Y1424862D02*
X2510170D01*
X2333079D02*
X2338163D01*
X2267835D02*
X2272919D01*
X2086507D02*
X2257667D01*
X1942461D02*
X2004316D01*
X1841629D02*
X1845019D01*
X1812820D02*
X1822141D01*
X1245959D02*
X1759439D01*
X2349178Y1424015D02*
X2510170D01*
X2333926D02*
X2339010D01*
X2268682D02*
X2273766D01*
X2086507D02*
X2258514D01*
X1944156D02*
X2004316D01*
X1842477D02*
X1845019D01*
X1811973D02*
X1823836D01*
X1245959D02*
X1759439D01*
X2350026Y1423167D02*
X2510170D01*
X2334774D02*
X2339858D01*
X2269530D02*
X2274613D01*
X2086507D02*
X2259362D01*
X1945851D02*
X2004316D01*
X1811973D02*
X1824683D01*
X1245959D02*
X1759439D01*
X2350873Y1422320D02*
X2510170D01*
X2335621D02*
X2340705D01*
X2270377D02*
X2275461D01*
X2086507D02*
X2260209D01*
X1947545D02*
X2004316D01*
X1811126D02*
X1826378D01*
X1245959D02*
X1760286D01*
X2351720Y1421473D02*
X2510170D01*
X2336468D02*
X2341552D01*
X2271224D02*
X2276308D01*
X2086507D02*
X2261056D01*
X1949240D02*
X2004316D01*
X1907721D02*
X1908568D01*
X1811126D02*
X1828072D01*
X1245959D02*
X1760286D01*
X2352568Y1420625D02*
X2510170D01*
X2337316D02*
X2342400D01*
X2272072D02*
X2277155D01*
X2086507D02*
X2261904D01*
X1950935D02*
X2004316D01*
X1906874D02*
X1910263D01*
X1810278D02*
X1829767D01*
X1245959D02*
X1760286D01*
X2353415Y1419778D02*
X2510170D01*
X2338163D02*
X2343247D01*
X2272919D02*
X2278003D01*
X2086507D02*
X2262751D01*
X1951782D02*
X2004316D01*
X1906874D02*
X1911958D01*
X1810278D02*
X1831461D01*
X1245959D02*
X1760286D01*
X2354262Y1418931D02*
X2510170D01*
X2339010D02*
X2344094D01*
X2273766D02*
X2278850D01*
X2086507D02*
X2263598D01*
X1953477D02*
X2004316D01*
X1906026D02*
X1913652D01*
X1811973D02*
X1833156D01*
X1245959D02*
X1760286D01*
X2355110Y1418083D02*
X2510170D01*
X2339858D02*
X2344942D01*
X2274613D02*
X2279697D01*
X2086507D02*
X2264446D01*
X1955171D02*
X2004316D01*
X1905179D02*
X1915347D01*
X1813668D02*
X1834851D01*
X1245959D02*
X1761133D01*
X2355957Y1417236D02*
X2510170D01*
X2340705D02*
X2345789D01*
X2275461D02*
X2280545D01*
X2086507D02*
X2265293D01*
X1956866D02*
X2004316D01*
X1905179D02*
X1916194D01*
X1815362D02*
X1836546D01*
X1245959D02*
X1761133D01*
X2356804Y1416389D02*
X2510170D01*
X2341552D02*
X2346636D01*
X2276308D02*
X2281392D01*
X2086507D02*
X2266140D01*
X1958560D02*
X2004316D01*
X1904332D02*
X1916194D01*
X1817057D02*
X1838240D01*
X1245959D02*
X1761133D01*
X2357652Y1415541D02*
X2510170D01*
X2342400D02*
X2347484D01*
X2277155D02*
X2282239D01*
X2086507D02*
X2266987D01*
X1960255D02*
X2004316D01*
X1904332D02*
X1915347D01*
X1818752D02*
X1839088D01*
X1245959D02*
X1761133D01*
X2358499Y1414694D02*
X2510170D01*
X2343247D02*
X2348331D01*
X2278003D02*
X2283087D01*
X2086507D02*
X2267835D01*
X1961950D02*
X2004316D01*
X1903484D02*
X1915347D01*
X1819599D02*
X1840782D01*
X1245959D02*
X1761981D01*
X2359346Y1413847D02*
X2510170D01*
X2344094D02*
X2349178D01*
X2278850D02*
X2283934D01*
X2086507D02*
X2268682D01*
X1963645D02*
X2004316D01*
X1903484D02*
X1914500D01*
X1821294D02*
X1842477D01*
X1245959D02*
X1761981D01*
X2360193Y1412999D02*
X2510170D01*
X2344942D02*
X2350026D01*
X2279697D02*
X2284781D01*
X2086507D02*
X2269530D01*
X1964492D02*
X2004316D01*
X1902637D02*
X1914500D01*
X1822988D02*
X1844171D01*
X1245959D02*
X1761981D01*
X2361041Y1412152D02*
X2510170D01*
X2345789D02*
X2350873D01*
X2280545D02*
X2285629D01*
X2086507D02*
X2270377D01*
X1966187D02*
X2004316D01*
X1902637D02*
X1913652D01*
X1824683D02*
X1845866D01*
X1245959D02*
X1762828D01*
X2361888Y1411305D02*
X2510170D01*
X2346636D02*
X2351720D01*
X2281392D02*
X2286476D01*
X2086507D02*
X2271224D01*
X1967881D02*
X2004316D01*
X1901790D02*
X1912805D01*
X1826378D02*
X1847561D01*
X1245959D02*
X1762828D01*
X2362735Y1410457D02*
X2510170D01*
X2347484D02*
X2352568D01*
X2282239D02*
X2287323D01*
X2086507D02*
X2272072D01*
X1969576D02*
X2004316D01*
X1901790D02*
X1912805D01*
X1828072D02*
X1848408D01*
X1245959D02*
X1763675D01*
X2363583Y1409610D02*
X2510170D01*
X2348331D02*
X2353415D01*
X2283087D02*
X2288171D01*
X2086507D02*
X2272919D01*
X1971270D02*
X2004316D01*
X1900942D02*
X1911958D01*
X1829767D02*
X1847561D01*
X1245959D02*
X1763675D01*
X2364430Y1408763D02*
X2510170D01*
X2349178D02*
X2354262D01*
X2283934D02*
X2289018D01*
X2086507D02*
X2273766D01*
X1972965D02*
X2004316D01*
X1900942D02*
X1911958D01*
X1831461D02*
X1847561D01*
X1245959D02*
X1764523D01*
X2365278Y1407915D02*
X2510170D01*
X2350026D02*
X2355110D01*
X2284781D02*
X2289865D01*
X2086507D02*
X2274613D01*
X1974660D02*
X2004316D01*
X1932293D02*
X1934835D01*
X1900095D02*
X1911110D01*
X1832309D02*
X1846713D01*
X1245959D02*
X1764523D01*
X2366125Y1407068D02*
X2510170D01*
X2350873D02*
X2355957D01*
X2285629D02*
X2290713D01*
X2086507D02*
X2275461D01*
X1976354D02*
X2004316D01*
X1932293D02*
X1935683D01*
X1900095D02*
X1911110D01*
X1834003D02*
X1846713D01*
X1245959D02*
X1765370D01*
X2366972Y1406221D02*
X2510170D01*
X2351720D02*
X2356804D01*
X2286476D02*
X2291560D01*
X2086507D02*
X2276308D01*
X1977202D02*
X2004316D01*
X1931446D02*
X1937377D01*
X1899248D02*
X1910263D01*
X1835698D02*
X1845866D01*
X1245959D02*
X1766217D01*
X2367819Y1405373D02*
X2510170D01*
X2352568D02*
X2357652D01*
X2287323D02*
X2292407D01*
X2086507D02*
X2277155D01*
X1978896D02*
X2004316D01*
X1930599D02*
X1939072D01*
X1899248D02*
X1910263D01*
X1856034D02*
X1858576D01*
X1837393D02*
X1845866D01*
X1245959D02*
X1766217D01*
X2368667Y1404526D02*
X2510170D01*
X2353415D02*
X2358499D01*
X2288171D02*
X2293255D01*
X2086507D02*
X2278003D01*
X1980591D02*
X2004316D01*
X1930599D02*
X1940767D01*
X1919583D02*
X1920431D01*
X1898400D02*
X1909416D01*
X1855187D02*
X1860271D01*
X1839088D02*
X1845019D01*
X1245959D02*
X1767065D01*
X2369514Y1403679D02*
X2510170D01*
X2354262D02*
X2359346D01*
X2289018D02*
X2294102D01*
X2086507D02*
X2278850D01*
X1982286D02*
X2004316D01*
X1929751D02*
X1942461D01*
X1919583D02*
X1922126D01*
X1897553D02*
X1909416D01*
X1855187D02*
X1861965D01*
X1840782D02*
X1845019D01*
X1245959D02*
X1767912D01*
X2370361Y1402831D02*
X2510170D01*
X2355110D02*
X2360193D01*
X2289865D02*
X2294949D01*
X2086507D02*
X2279697D01*
X1983980D02*
X2005164D01*
X1929751D02*
X1944156D01*
X1918736D02*
X1923820D01*
X1897553D02*
X1908568D01*
X1854339D02*
X1863660D01*
X1842477D02*
X1844171D01*
X1245959D02*
X1768759D01*
X2371209Y1401984D02*
X2510170D01*
X2355957D02*
X2361041D01*
X2290713D02*
X2295797D01*
X2086507D02*
X2280545D01*
X1985675D02*
X2005164D01*
X1928904D02*
X1945851D01*
X1918736D02*
X1925515D01*
X1896706D02*
X1908568D01*
X1854339D02*
X1865355D01*
X1245959D02*
X1768759D01*
X2372056Y1401137D02*
X2510170D01*
X2356804D02*
X2361888D01*
X2291560D02*
X2296644D01*
X2085660D02*
X2281392D01*
X1987370D02*
X2005164D01*
X1928904D02*
X1947545D01*
X1917889D02*
X1927209D01*
X1896706D02*
X1907721D01*
X1853492D02*
X1866202D01*
X1245959D02*
X1769607D01*
X2372903Y1400289D02*
X2510170D01*
X2357652D02*
X2362735D01*
X2292407D02*
X2297491D01*
X2085660D02*
X2282239D01*
X1989064D02*
X2005164D01*
X1917889D02*
X1948393D01*
X1895858D02*
X1907721D01*
X1853492D02*
X1867897D01*
X1245959D02*
X1770454D01*
X2373751Y1399442D02*
X2510170D01*
X2358499D02*
X2363583D01*
X2293255D02*
X2298339D01*
X2085660D02*
X2283087D01*
X1989912D02*
X2006011D01*
X1928904D02*
X1950087D01*
X1917042D02*
X1928057D01*
X1895858D02*
X1906874D01*
X1852645D02*
X1869591D01*
X1245959D02*
X1771301D01*
X2374598Y1398595D02*
X2510170D01*
X2359346D02*
X2364430D01*
X2294102D02*
X2299186D01*
X2084812D02*
X2283934D01*
X1991606D02*
X2006011D01*
X1930599D02*
X1951782D01*
X1917042D02*
X1928057D01*
X1895011D02*
X1906026D01*
X1852645D02*
X1871286D01*
X1245959D02*
X1772149D01*
X2375445Y1397747D02*
X2510170D01*
X2360193D02*
X2365278D01*
X2294949D02*
X2300033D01*
X2084812D02*
X2284781D01*
X1993301D02*
X2006858D01*
X1932293D02*
X1953477D01*
X1916194D02*
X1927209D01*
X1895011D02*
X1906026D01*
X1851797D02*
X1872980D01*
X1245959D02*
X1772996D01*
X2376293Y1396900D02*
X2510170D01*
X2361041D02*
X2366125D01*
X2295797D02*
X2300881D01*
X2110232D02*
X2285629D01*
X2083965D02*
X2087354D01*
X1994996D02*
X2006858D01*
X1933988D02*
X1955171D01*
X1915347D02*
X1927209D01*
X1894164D02*
X1905179D01*
X1853492D02*
X1874675D01*
X1245959D02*
X1774691D01*
X2377140Y1396053D02*
X2510170D01*
X2361888D02*
X2366972D01*
X2296644D02*
X2301728D01*
X2112774D02*
X2286476D01*
X2083118D02*
X2084812D01*
X1996690D02*
X2007706D01*
X1935683D02*
X1956866D01*
X1915347D02*
X1926362D01*
X1894164D02*
X1905179D01*
X1855187D02*
X1876370D01*
X1245959D02*
X1775538D01*
X2377987Y1395206D02*
X2510170D01*
X2362735D02*
X2367819D01*
X2297491D02*
X2302575D01*
X2113621D02*
X2287323D01*
X2083118D02*
X2083965D01*
X1998385D02*
X2008553D01*
X1937377D02*
X1957713D01*
X1917042D02*
X1926362D01*
X1893316D02*
X1904332D01*
X1856881D02*
X1878065D01*
X1245959D02*
X1776385D01*
X2378835Y1394358D02*
X2510170D01*
X2363583D02*
X2368667D01*
X2298339D02*
X2303423D01*
X2115316D02*
X2288171D01*
X2000080D02*
X2009400D01*
X1939072D02*
X1957713D01*
X1918736D02*
X1925515D01*
X1893316D02*
X1904332D01*
X1858576D02*
X1878912D01*
X1245959D02*
X1778080D01*
X2379682Y1393511D02*
X2510170D01*
X2364430D02*
X2369514D01*
X2299186D02*
X2304270D01*
X2116163D02*
X2289018D01*
X2001774D02*
X2010247D01*
X1940767D02*
X1956866D01*
X1920431D02*
X1925515D01*
X1892469D02*
X1903484D01*
X1859423D02*
X1880607D01*
X1245959D02*
X1779775D01*
X2365278Y1392664D02*
X2370361D01*
X2300033D02*
X2305117D01*
X2117011D02*
X2289865D01*
X2002621D02*
X2011095D01*
X1942461D02*
X1956866D01*
X1922126D02*
X1924668D01*
X1892469D02*
X1903484D01*
X1861118D02*
X1882301D01*
X1245959D02*
X1780622D01*
X2366125Y1391816D02*
X2371209D01*
X2300881D02*
X2305965D01*
X2117858D02*
X2290713D01*
X2004316D02*
X2011942D01*
X1943309D02*
X1956019D01*
X1922973D02*
X1924668D01*
X1891622D02*
X1902637D01*
X1862813D02*
X1883996D01*
X1245959D02*
X1782317D01*
X2366972Y1390969D02*
X2372056D01*
X2301728D02*
X2306812D01*
X2117858D02*
X2291560D01*
X2078034D02*
X2079728D01*
X2006011D02*
X2012789D01*
X1945003D02*
X1956019D01*
X1922973D02*
X1925515D01*
X1890774D02*
X1902637D01*
X1864507D02*
X1885690D01*
X1245959D02*
X1784011D01*
X2367819Y1390122D02*
X2372903D01*
X2302575D02*
X2307659D01*
X2118705D02*
X2292407D01*
X2076339D02*
X2078881D01*
X2007706D02*
X2014484D01*
X1946698D02*
X1955171D01*
X1922973D02*
X1927209D01*
X1890774D02*
X1901790D01*
X1866202D02*
X1887385D01*
X1245959D02*
X1785706D01*
X2368667Y1389274D02*
X2373751D01*
X2303423D02*
X2308507D01*
X2119553D02*
X2293255D01*
X2074644D02*
X2078034D01*
X2009400D02*
X2017026D01*
X1948393D02*
X1955171D01*
X1922126D02*
X1928904D01*
X1889927D02*
X1901790D01*
X1867897D02*
X1889080D01*
X1245959D02*
X1787401D01*
X2369514Y1388427D02*
X2374598D01*
X2304270D02*
X2309354D01*
X2119553D02*
X2294102D01*
X2071255D02*
X2078034D01*
X2011095D02*
X2020415D01*
X1950087D02*
X1954324D01*
X1922126D02*
X1930599D01*
X1869591D02*
X1900942D01*
X1245959D02*
X1789095D01*
X2370361Y1387579D02*
X2375445D01*
X2305117D02*
X2310201D01*
X2119553D02*
X2294949D01*
X2012789D02*
X2078034D01*
X1951782D02*
X1954324D01*
X1921278D02*
X1932293D01*
X1890774D02*
X1900942D01*
X1871286D02*
X1889927D01*
X1245959D02*
X1790790D01*
X2371209Y1386732D02*
X2376293D01*
X2305965D02*
X2311048D01*
X2120400D02*
X2295797D01*
X2014484D02*
X2077186D01*
X1952629D02*
X1954324D01*
X1921278D02*
X1933988D01*
X1892469D02*
X1900095D01*
X1872133D02*
X1889080D01*
X1245959D02*
X1792484D01*
X2372056Y1385885D02*
X2377140D01*
X2306812D02*
X2311896D01*
X2120400D02*
X2296644D01*
X2015332D02*
X2077186D01*
X1974660D02*
X1975507D01*
X1952629D02*
X1956019D01*
X1920431D02*
X1935683D01*
X1894164D02*
X1900095D01*
X1873828D02*
X1889080D01*
X1245959D02*
X1793332D01*
X2372903Y1385038D02*
X2377987D01*
X2307659D02*
X2312743D01*
X2120400D02*
X2297491D01*
X2017026D02*
X2077186D01*
X1973812D02*
X1977202D01*
X1952629D02*
X1956866D01*
X1920431D02*
X1937377D01*
X1895858D02*
X1899248D01*
X1875522D02*
X1888232D01*
X1245959D02*
X1795027D01*
X2373751Y1384190D02*
X2378835D01*
X2308507D02*
X2313591D01*
X2120400D02*
X2298339D01*
X2018721D02*
X2077186D01*
X1972965D02*
X1978896D01*
X1951782D02*
X1958560D01*
X1919583D02*
X1938225D01*
X1897553D02*
X1898400D01*
X1877217D02*
X1888232D01*
X1245959D02*
X1796721D01*
X2374598Y1383343D02*
X2379682D01*
X2309354D02*
X2314438D01*
X2120400D02*
X2299186D01*
X2020415D02*
X2077186D01*
X1972965D02*
X1980591D01*
X1951782D02*
X1960255D01*
X1919583D02*
X1939919D01*
X1878912D02*
X1887385D01*
X1245959D02*
X1796721D01*
X2375445Y1382496D02*
X2380529D01*
X2310201D02*
X2315285D01*
X2120400D02*
X2300033D01*
X2022110D02*
X2077186D01*
X1972118D02*
X1982286D01*
X1950935D02*
X1961950D01*
X1921278D02*
X1941614D01*
X1880607D02*
X1887385D01*
X1245959D02*
X1796721D01*
X2376293Y1381648D02*
X2381377D01*
X2311048D02*
X2316133D01*
X2120400D02*
X2300881D01*
X2023805D02*
X2077186D01*
X1972118D02*
X1983133D01*
X1950087D02*
X1961950D01*
X1922126D02*
X1943309D01*
X1882301D02*
X1886538D01*
X1245959D02*
X1795874D01*
X2377140Y1380801D02*
X2382224D01*
X2311896D02*
X2316980D01*
X2120400D02*
X2301728D01*
X2025499D02*
X2077186D01*
X1971270D02*
X1983133D01*
X1950087D02*
X1961103D01*
X1923820D02*
X1945003D01*
X1883996D02*
X1886538D01*
X1245959D02*
X1795027D01*
X2377987Y1379954D02*
X2383071D01*
X2312743D02*
X2317827D01*
X2120400D02*
X2302575D01*
X2027194D02*
X2077186D01*
X1971270D02*
X1982286D01*
X1949240D02*
X1961103D01*
X1925515D02*
X1946698D01*
X1245959D02*
X1795027D01*
X2378835Y1379106D02*
X2383919D01*
X2313591D02*
X2318674D01*
X2120400D02*
X2303423D01*
X2028041D02*
X2077186D01*
X1970423D02*
X1981438D01*
X1949240D02*
X1960255D01*
X1927209D02*
X1948393D01*
X1906026D02*
X1907721D01*
X1245959D02*
X1794179D01*
X2379682Y1378259D02*
X2384766D01*
X2314438D02*
X2319522D01*
X2120400D02*
X2304270D01*
X2029736D02*
X2077186D01*
X1970423D02*
X1981438D01*
X1928904D02*
X1960255D01*
X1906026D02*
X1909416D01*
X1245959D02*
X1794179D01*
X2380529Y1377412D02*
X2431369D01*
X2315285D02*
X2320369D01*
X2120400D02*
X2305117D01*
X2031431D02*
X2077186D01*
X1970423D02*
X1980591D01*
X1930599D02*
X1959408D01*
X1905179D02*
X1911110D01*
X1245959D02*
X1793332D01*
X2381377Y1376564D02*
X2431369D01*
X2316133D02*
X2321216D01*
X2120400D02*
X2305965D01*
X2033125D02*
X2077186D01*
X1972118D02*
X1980591D01*
X1932293D02*
X1959408D01*
X1905179D02*
X1912805D01*
X1245959D02*
X1793332D01*
X2382224Y1375717D02*
X2431369D01*
X2316980D02*
X2322064D01*
X2120400D02*
X2306812D01*
X2034820D02*
X2077186D01*
X1973812D02*
X1979744D01*
X1933988D02*
X1958560D01*
X1904332D02*
X1914500D01*
X1245959D02*
X1792484D01*
X2317827Y1374870D02*
X2322911D01*
X2120400D02*
X2307659D01*
X2036515D02*
X2077186D01*
X1975507D02*
X1979744D01*
X1935683D02*
X1957713D01*
X1904332D02*
X1916194D01*
X1245959D02*
X1792484D01*
X2318674Y1374022D02*
X2323758D01*
X2120400D02*
X2308507D01*
X2038209D02*
X2077186D01*
X1977202D02*
X1978896D01*
X1936530D02*
X1957713D01*
X1903484D02*
X1917889D01*
X1862813D02*
X1866202D01*
X1245959D02*
X1791637D01*
X2319522Y1373175D02*
X2324606D01*
X2120400D02*
X2309354D01*
X2039904D02*
X2077186D01*
X1978049D02*
X1979744D01*
X1938225D02*
X1956866D01*
X1903484D02*
X1918736D01*
X1861118D02*
X1867897D01*
X1245959D02*
X1791637D01*
X2320369Y1372328D02*
X2325453D01*
X2120400D02*
X2310201D01*
X2040751D02*
X2077186D01*
X1978049D02*
X1981438D01*
X1939919D02*
X1956866D01*
X1902637D02*
X1920431D01*
X1859423D02*
X1868744D01*
X1245959D02*
X1790790D01*
X2321216Y1371480D02*
X2326300D01*
X2120400D02*
X2311048D01*
X2042446D02*
X2077186D01*
X1977202D02*
X1983133D01*
X1941614D02*
X1956019D01*
X1902637D02*
X1922126D01*
X1858576D02*
X1869591D01*
X1245959D02*
X1790790D01*
X2322064Y1370633D02*
X2327148D01*
X2120400D02*
X2311896D01*
X2044141D02*
X2077186D01*
X1977202D02*
X1983980D01*
X1943309D02*
X1956019D01*
X1902637D02*
X1923820D01*
X1857729D02*
X1870439D01*
X1245959D02*
X1789942D01*
X2322911Y1369786D02*
X2327995D01*
X2120400D02*
X2312743D01*
X2045835D02*
X2077186D01*
X1976354D02*
X1985675D01*
X1944156D02*
X1955171D01*
X1904332D02*
X1925515D01*
X1857729D02*
X1870439D01*
X1245959D02*
X1789942D01*
X2323758Y1368938D02*
X2328842D01*
X2120400D02*
X2313591D01*
X2047530D02*
X2077186D01*
X1976354D02*
X1986522D01*
X1944156D02*
X1955171D01*
X1906026D02*
X1927209D01*
X1856881D02*
X1871286D01*
X1839935D02*
X1840782D01*
X1245959D02*
X1789095D01*
X2324606Y1368091D02*
X2329690D01*
X2120400D02*
X2314438D01*
X2049225D02*
X2077186D01*
X2007706D02*
X2009400D01*
X1975507D02*
X1986522D01*
X1943309D02*
X1954324D01*
X1907721D02*
X1928904D01*
X1867897D02*
X1871286D01*
X1856034D02*
X1866202D01*
X1839935D02*
X1841629D01*
X1245959D02*
X1788248D01*
X2325453Y1367244D02*
X2330537D01*
X2120400D02*
X2315285D01*
X2050919D02*
X2077186D01*
X2006858D02*
X2011095D01*
X1975507D02*
X1986522D01*
X1942461D02*
X1954324D01*
X1909416D02*
X1930599D01*
X1867897D02*
X1872133D01*
X1855187D02*
X1865355D01*
X1839935D02*
X1842477D01*
X1245959D02*
X1788248D01*
X2326300Y1366396D02*
X2331384D01*
X2120400D02*
X2316133D01*
X2052614D02*
X2077186D01*
X2006858D02*
X2012789D01*
X1974660D02*
X1985675D01*
X1942461D02*
X1953477D01*
X1911110D02*
X1931446D01*
X1868744D02*
X1872133D01*
X1854339D02*
X1865355D01*
X1840782D02*
X1842477D01*
X1245959D02*
X1787401D01*
X2327148Y1365549D02*
X2332232D01*
X2120400D02*
X2316980D01*
X2053461D02*
X2077186D01*
X2006011D02*
X2014484D01*
X1973812D02*
X1985675D01*
X1941614D02*
X1953477D01*
X1911958D02*
X1933141D01*
X1868744D02*
X1872133D01*
X1854339D02*
X1864507D01*
X1840782D02*
X1843324D01*
X1245959D02*
X1787401D01*
X2327995Y1364702D02*
X2333079D01*
X2119553D02*
X2317827D01*
X2055156D02*
X2078034D01*
X2006011D02*
X2015332D01*
X1974660D02*
X1984828D01*
X1941614D02*
X1952629D01*
X1913652D02*
X1934835D01*
X1868744D02*
X1872133D01*
X1854339D02*
X1864507D01*
X1840782D02*
X1843324D01*
X1245959D02*
X1786553D01*
X2328842Y1363854D02*
X2333926D01*
X2119553D02*
X2318674D01*
X2056850D02*
X2078034D01*
X2005164D02*
X2016179D01*
X1994996D02*
X1996690D01*
X1976354D02*
X1983980D01*
X1940767D02*
X1952629D01*
X1915347D02*
X1936530D01*
X1868744D02*
X1872133D01*
X1853492D02*
X1864507D01*
X1841629D02*
X1844171D01*
X1245959D02*
X1786553D01*
X2329690Y1363007D02*
X2334774D01*
X2119553D02*
X2319522D01*
X2058545D02*
X2078034D01*
X2005164D02*
X2016179D01*
X1994148D02*
X1998385D01*
X1977202D02*
X1983980D01*
X1940767D02*
X1951782D01*
X1917042D02*
X1938225D01*
X1868744D02*
X1872980D01*
X1852645D02*
X1863660D01*
X1841629D02*
X1845019D01*
X1245959D02*
X1785706D01*
X2330537Y1362160D02*
X2335621D01*
X2118705D02*
X2320369D01*
X2060240D02*
X2078881D01*
X2004316D02*
X2015332D01*
X1994148D02*
X2000080D01*
X1978896D02*
X1983133D01*
X1918736D02*
X1950935D01*
X1868744D02*
X1872980D01*
X1852645D02*
X1863660D01*
X1842477D02*
X1845019D01*
X1245959D02*
X1785706D01*
X2331384Y1361312D02*
X2336468D01*
X2118705D02*
X2321216D01*
X2061934D02*
X2079728D01*
X2004316D02*
X2015332D01*
X1993301D02*
X2001774D01*
X1980591D02*
X1983133D01*
X1940767D02*
X1950935D01*
X1920431D02*
X1939919D01*
X1868744D02*
X1872980D01*
X1851797D02*
X1862813D01*
X1842477D02*
X1845866D01*
X1245959D02*
X1784859D01*
X2332232Y1360465D02*
X2337316D01*
X2117858D02*
X2322064D01*
X2063629D02*
X2079728D01*
X1992454D02*
X2014484D01*
X1982286D02*
X1983133D01*
X1942461D02*
X1950087D01*
X1922126D02*
X1939919D01*
X1882301D02*
X1885690D01*
X1868744D02*
X1872980D01*
X1851797D02*
X1862813D01*
X1842477D02*
X1846713D01*
X1245959D02*
X1784859D01*
X2333079Y1359618D02*
X2338163D01*
X2117011D02*
X2322911D01*
X2065324D02*
X2080576D01*
X2004316D02*
X2014484D01*
X1992454D02*
X2003469D01*
X1981438D02*
X1984828D01*
X1944156D02*
X1950087D01*
X1923820D02*
X1939072D01*
X1879759D02*
X1887385D01*
X1868744D02*
X1872980D01*
X1850950D02*
X1861965D01*
X1843324D02*
X1846713D01*
X1245959D02*
X1784011D01*
X2333926Y1358770D02*
X2431369D01*
X2116163D02*
X2323758D01*
X2066171D02*
X2081423D01*
X2023805D02*
X2027194D01*
X2006011D02*
X2013637D01*
X1991606D02*
X2003469D01*
X1981438D02*
X1986522D01*
X1945003D02*
X1949240D01*
X1925515D02*
X1939072D01*
X1876370D02*
X1887385D01*
X1868744D02*
X1872980D01*
X1850950D02*
X1861965D01*
X1844171D02*
X1847561D01*
X1245959D02*
X1784011D01*
X2334774Y1357923D02*
X2431369D01*
X2115316D02*
X2324606D01*
X2067866D02*
X2082270D01*
X2023805D02*
X2028041D01*
X2007706D02*
X2013637D01*
X1991606D02*
X2002621D01*
X1980591D02*
X1988217D01*
X1946698D02*
X1949240D01*
X1926362D02*
X1938225D01*
X1897553D02*
X1903484D01*
X1874675D02*
X1887385D01*
X1868744D02*
X1872980D01*
X1850103D02*
X1861118D01*
X1844171D02*
X1847561D01*
X1245959D02*
X1784011D01*
X2335621Y1357076D02*
X2431369D01*
X2114469D02*
X2324606D01*
X2069560D02*
X2083965D01*
X2022957D02*
X2029736D01*
X2008553D02*
X2012789D01*
X1990759D02*
X2002621D01*
X1980591D02*
X1989912D01*
X1928057D02*
X1938225D01*
X1896706D02*
X1906026D01*
X1873828D02*
X1887385D01*
X1868744D02*
X1872980D01*
X1850103D02*
X1861118D01*
X1845019D02*
X1848408D01*
X1245959D02*
X1783164D01*
X2338163Y1356228D02*
X2431369D01*
X2112774D02*
X2325453D01*
X2071255D02*
X2084812D01*
X2022957D02*
X2031431D01*
X2010247D02*
X2012789D01*
X1979744D02*
X2001774D01*
X1969576D02*
X1971270D01*
X1929751D02*
X1937377D01*
X1896706D02*
X1906874D01*
X1868744D02*
X1886538D01*
X1849255D02*
X1860271D01*
X1845019D02*
X1848408D01*
X1245959D02*
X1783164D01*
X2110232Y1355381D02*
X2326300D01*
X2072950D02*
X2087354D01*
X2022110D02*
X2033125D01*
X1991606D02*
X2001774D01*
X1979744D02*
X1990759D01*
X1968728D02*
X1972965D01*
X1931446D02*
X1937377D01*
X1895858D02*
X1907721D01*
X1868744D02*
X1886538D01*
X1845866D02*
X1860271D01*
X1245959D02*
X1783164D01*
X2074644Y1354534D02*
X2327148D01*
X2022110D02*
X2033125D01*
X1993301D02*
X2000927D01*
X1978896D02*
X1989912D01*
X1968728D02*
X1974660D01*
X1933141D02*
X1936530D01*
X1895858D02*
X1908568D01*
X1868744D02*
X1885690D01*
X1845866D02*
X1859423D01*
X1245959D02*
X1783164D01*
X2076339Y1353687D02*
X2327995D01*
X2021263D02*
X2032278D01*
X1994996D02*
X2000080D01*
X1978896D02*
X1989912D01*
X1967881D02*
X1976354D01*
X1934835D02*
X1935683D01*
X1895011D02*
X1908568D01*
X1868744D02*
X1884843D01*
X1845866D02*
X1859423D01*
X1245959D02*
X1783164D01*
X2078034Y1352839D02*
X2328842D01*
X2021263D02*
X2032278D01*
X1996690D02*
X2000080D01*
X1978049D02*
X1989064D01*
X1967034D02*
X1977202D01*
X1956866D02*
X1957713D01*
X1895011D02*
X1909416D01*
X1868744D02*
X1884843D01*
X1846713D02*
X1858576D01*
X1245959D02*
X1782317D01*
X2078881Y1351992D02*
X2329690D01*
X2020415D02*
X2031431D01*
X1998385D02*
X1999232D01*
X1967034D02*
X1989064D01*
X1956019D02*
X1958560D01*
X1905179D02*
X1909416D01*
X1895011D02*
X1903484D01*
X1868744D02*
X1883996D01*
X1846713D02*
X1858576D01*
X1245959D02*
X1782317D01*
X2080576Y1351145D02*
X2330537D01*
X2020415D02*
X2031431D01*
X1979744D02*
X1988217D01*
X1966187D02*
X1977202D01*
X1956019D02*
X1960255D01*
X1905179D02*
X1909416D01*
X1895011D02*
X1903484D01*
X1868744D02*
X1883148D01*
X1847561D02*
X1858576D01*
X1245959D02*
X1782317D01*
X2082270Y1350297D02*
X2331384D01*
X2022110D02*
X2030583D01*
X1981438D02*
X1988217D01*
X1966187D02*
X1977202D01*
X1955171D02*
X1961950D01*
X1905179D02*
X1910263D01*
X1894164D02*
X1903484D01*
X1868744D02*
X1883148D01*
X1847561D02*
X1857729D01*
X1245959D02*
X1782317D01*
X2083965Y1349450D02*
X2332232D01*
X2022957D02*
X2030583D01*
X1983133D02*
X1987370D01*
X1965339D02*
X1976354D01*
X1955171D02*
X1963645D01*
X1906026D02*
X1910263D01*
X1894164D02*
X1903484D01*
X1868744D02*
X1882301D01*
X1846713D02*
X1857729D01*
X1245959D02*
X1782317D01*
X2085660Y1348602D02*
X2333079D01*
X2024652D02*
X2029736D01*
X1984828D02*
X1987370D01*
X1954324D02*
X1976354D01*
X1906026D02*
X1910263D01*
X1894164D02*
X1902637D01*
X1867897D02*
X1881454D01*
X1846713D02*
X1856881D01*
X1245959D02*
X1782317D01*
X2087354Y1347755D02*
X2333926D01*
X2026347D02*
X2029736D01*
X1985675D02*
X1987370D01*
X1966187D02*
X1975507D01*
X1954324D02*
X1965339D01*
X1906874D02*
X1910263D01*
X1894164D02*
X1902637D01*
X1867897D02*
X1881454D01*
X1846713D02*
X1856881D01*
X1245959D02*
X1782317D01*
X2089049Y1346908D02*
X2334774D01*
X2028041D02*
X2028889D01*
X1985675D02*
X1989064D01*
X1967881D02*
X1975507D01*
X1953477D02*
X1964492D01*
X1906874D02*
X1911110D01*
X1893316D02*
X1902637D01*
X1867897D02*
X1880607D01*
X1846713D02*
X1856881D01*
X1245959D02*
X1782317D01*
X2090744Y1346060D02*
X2336468D01*
X2050072D02*
X2050919D01*
X1984828D02*
X1989912D01*
X1969576D02*
X1974660D01*
X1953477D02*
X1964492D01*
X1906874D02*
X1911110D01*
X1893316D02*
X1902637D01*
X1867049D02*
X1880607D01*
X1845866D02*
X1856034D01*
X1245959D02*
X1782317D01*
X2091591Y1345213D02*
X2338163D01*
X2049225D02*
X2052614D01*
X1984828D02*
X1991606D01*
X1970423D02*
X1974660D01*
X1952629D02*
X1963645D01*
X1906874D02*
X1911110D01*
X1893316D02*
X1902637D01*
X1867049D02*
X1879759D01*
X1845866D02*
X1856034D01*
X1245959D02*
X1783164D01*
X2093286Y1344366D02*
X2339858D01*
X2049225D02*
X2054308D01*
X1983980D02*
X1993301D01*
X1972118D02*
X1973812D01*
X1952629D02*
X1963645D01*
X1907721D02*
X1911110D01*
X1893316D02*
X1902637D01*
X1867049D02*
X1879759D01*
X1845866D02*
X1856034D01*
X1245959D02*
X1783164D01*
X2094980Y1343519D02*
X2342400D01*
X2048377D02*
X2055156D01*
X1983980D02*
X1994996D01*
X1953477D02*
X1962797D01*
X1907721D02*
X1911110D01*
X1893316D02*
X1902637D01*
X1866202D02*
X1878912D01*
X1845866D02*
X1855187D01*
X1245959D02*
X1783164D01*
X2096675Y1342671D02*
X2346636D01*
X2048377D02*
X2056850D01*
X2015332D02*
X2017026D01*
X1983133D02*
X1994996D01*
X1955171D02*
X1962797D01*
X1907721D02*
X1911958D01*
X1893316D02*
X1902637D01*
X1866202D02*
X1878912D01*
X1845866D02*
X1855187D01*
X1245959D02*
X1783164D01*
X2098369Y1341824D02*
X2510170D01*
X2047530D02*
X2058545D01*
X2036515D02*
X2039057D01*
X2015332D02*
X2017873D01*
X1983133D02*
X1994148D01*
X1956866D02*
X1961950D01*
X1918736D02*
X1923820D01*
X1908568D02*
X1911958D01*
X1893316D02*
X1901790D01*
X1866202D02*
X1878912D01*
X1845866D02*
X1855187D01*
X1245959D02*
X1783164D01*
X2100064Y1340977D02*
X2510170D01*
X2047530D02*
X2060240D01*
X2036515D02*
X2039904D01*
X2014484D02*
X2019568D01*
X1982286D02*
X1993301D01*
X1958560D02*
X1961950D01*
X1917889D02*
X1924668D01*
X1908568D02*
X1911958D01*
X1893316D02*
X1901790D01*
X1865355D02*
X1878912D01*
X1845866D02*
X1855187D01*
X1245959D02*
X1784011D01*
X2100912Y1340129D02*
X2510170D01*
X2046682D02*
X2061934D01*
X2035667D02*
X2041599D01*
X2014484D02*
X2021263D01*
X1982286D02*
X1993301D01*
X1960255D02*
X1961103D01*
X1917042D02*
X1925515D01*
X1908568D02*
X1911958D01*
X1893316D02*
X1901790D01*
X1865355D02*
X1878912D01*
X1845866D02*
X1855187D01*
X1245959D02*
X1784011D01*
X2102606Y1339282D02*
X2510170D01*
X2045835D02*
X2063629D01*
X2035667D02*
X2043293D01*
X2013637D02*
X2022957D01*
X1982286D02*
X1992454D01*
X1917042D02*
X1926362D01*
X1909416D02*
X1911958D01*
X1893316D02*
X1901790D01*
X1864507D02*
X1878912D01*
X1845866D02*
X1855187D01*
X1245959D02*
X1784011D01*
X2103454Y1338435D02*
X2510170D01*
X2045835D02*
X2065324D01*
X2034820D02*
X2044988D01*
X2013637D02*
X2024652D01*
X1983980D02*
X1992454D01*
X1916194D02*
X1927209D01*
X1909416D02*
X1911958D01*
X1893316D02*
X1901790D01*
X1864507D02*
X1878912D01*
X1845866D02*
X1856034D01*
X1245959D02*
X1784859D01*
X2104301Y1337587D02*
X2510170D01*
X2034820D02*
X2067018D01*
X2012789D02*
X2023805D01*
X1984828D02*
X1991606D01*
X1916194D02*
X1927209D01*
X1909416D02*
X1911958D01*
X1893316D02*
X1901790D01*
X1864507D02*
X1878912D01*
X1846713D02*
X1856034D01*
X1245959D02*
X1784859D01*
X2105995Y1336740D02*
X2510170D01*
X2047530D02*
X2067866D01*
X2033973D02*
X2044988D01*
X2012789D02*
X2023805D01*
X1986522D02*
X1991606D01*
X1923820D02*
X1927209D01*
X1915347D02*
X1922973D01*
X1909416D02*
X1911958D01*
X1892469D02*
X1901790D01*
X1876370D02*
X1878912D01*
X1863660D02*
X1875522D01*
X1846713D02*
X1856034D01*
X1245959D02*
X1785706D01*
X2106843Y1335893D02*
X2510170D01*
X2049225D02*
X2069560D01*
X2033973D02*
X2044988D01*
X2011942D02*
X2022957D01*
X1988217D02*
X1990759D01*
X1923820D02*
X1928057D01*
X1915347D02*
X1922973D01*
X1909416D02*
X1912805D01*
X1892469D02*
X1900942D01*
X1876370D02*
X1878912D01*
X1863660D02*
X1874675D01*
X1847561D02*
X1856034D01*
X1245959D02*
X1785706D01*
X2107690Y1335045D02*
X2510170D01*
X2050919D02*
X2071255D01*
X2033125D02*
X2044141D01*
X2011942D02*
X2022957D01*
X1989912D02*
X1990759D01*
X1939919D02*
X1945003D01*
X1924668D02*
X1928057D01*
X1915347D02*
X1922973D01*
X1910263D02*
X1912805D01*
X1892469D02*
X1900942D01*
X1876370D02*
X1878912D01*
X1863660D02*
X1874675D01*
X1853492D02*
X1856034D01*
X1847561D02*
X1852645D01*
X1245959D02*
X1786553D01*
X2108537Y1334198D02*
X2510170D01*
X2051767D02*
X2072950D01*
X2033125D02*
X2044141D01*
X2011095D02*
X2022110D01*
X1989912D02*
X1992454D01*
X1939072D02*
X1945003D01*
X1924668D02*
X1928057D01*
X1914500D02*
X1922126D01*
X1910263D02*
X1912805D01*
X1891622D02*
X1900942D01*
X1876370D02*
X1878912D01*
X1862813D02*
X1873828D01*
X1853492D02*
X1856034D01*
X1847561D02*
X1851797D01*
X1245959D02*
X1786553D01*
X2109385Y1333351D02*
X2510170D01*
X2053461D02*
X2074644D01*
X2032278D02*
X2043293D01*
X2011095D02*
X2022110D01*
X1989064D02*
X1994148D01*
X1939072D02*
X1945003D01*
X1925515D02*
X1928057D01*
X1914500D02*
X1922126D01*
X1910263D02*
X1912805D01*
X1891622D02*
X1900942D01*
X1876370D02*
X1878912D01*
X1862813D02*
X1873828D01*
X1853492D02*
X1855187D01*
X1848408D02*
X1851797D01*
X1245959D02*
X1787401D01*
X2109385Y1332503D02*
X2510170D01*
X2055156D02*
X2076339D01*
X2032278D02*
X2043293D01*
X2010247D02*
X2021263D01*
X1989064D02*
X1995843D01*
X1938225D02*
X1945003D01*
X1925515D02*
X1928904D01*
X1914500D02*
X1922126D01*
X1910263D02*
X1912805D01*
X1891622D02*
X1900942D01*
X1875522D02*
X1878912D01*
X1861965D02*
X1872980D01*
X1848408D02*
X1855187D01*
X1245959D02*
X1788248D01*
X2110232Y1331656D02*
X2510170D01*
X2056850D02*
X2078034D01*
X2031431D02*
X2042446D01*
X2009400D02*
X2021263D01*
X1988217D02*
X1997538D01*
X1936530D02*
X1944156D01*
X1925515D02*
X1928904D01*
X1913652D02*
X1922126D01*
X1910263D02*
X1912805D01*
X1890774D02*
X1900095D01*
X1875522D02*
X1878912D01*
X1861965D02*
X1872133D01*
X1848408D02*
X1855187D01*
X1245959D02*
X1788248D01*
X2111079Y1330809D02*
X2510170D01*
X2058545D02*
X2079728D01*
X2031431D02*
X2042446D01*
X2009400D02*
X2020415D01*
X1988217D02*
X1998385D01*
X1936530D02*
X1944156D01*
X1925515D02*
X1928904D01*
X1913652D02*
X1922126D01*
X1910263D02*
X1912805D01*
X1890774D02*
X1900095D01*
X1875522D02*
X1878912D01*
X1861118D02*
X1872133D01*
X1849255D02*
X1854339D01*
X1245959D02*
X1789095D01*
X2111927Y1329961D02*
X2510170D01*
X2060240D02*
X2080576D01*
X2030583D02*
X2041599D01*
X2008553D02*
X2020415D01*
X1987370D02*
X1998385D01*
X1936530D02*
X1944156D01*
X1925515D02*
X1928904D01*
X1913652D02*
X1921278D01*
X1910263D02*
X1912805D01*
X1890774D02*
X1900095D01*
X1875522D02*
X1878912D01*
X1861118D02*
X1871286D01*
X1849255D02*
X1851797D01*
X1245959D02*
X1789942D01*
X2111927Y1329114D02*
X2510170D01*
X2061934D02*
X2082270D01*
X2030583D02*
X2041599D01*
X2008553D02*
X2019568D01*
X1987370D02*
X1998385D01*
X1935683D02*
X1943309D01*
X1925515D02*
X1928904D01*
X1910263D02*
X1921278D01*
X1890774D02*
X1900095D01*
X1875522D02*
X1878912D01*
X1861118D02*
X1871286D01*
X1245959D02*
X1790790D01*
X2112774Y1328267D02*
X2510170D01*
X2063629D02*
X2083118D01*
X2029736D02*
X2040751D01*
X2007706D02*
X2018721D01*
X1986522D02*
X1997538D01*
X1935683D02*
X1943309D01*
X1925515D02*
X1928904D01*
X1910263D02*
X1921278D01*
X1889927D02*
X1900095D01*
X1875522D02*
X1878912D01*
X1861118D02*
X1870439D01*
X1245959D02*
X1791637D01*
X2113621Y1327419D02*
X2510170D01*
X2065324D02*
X2083118D01*
X2028889D02*
X2040751D01*
X2007706D02*
X2018721D01*
X1985675D02*
X1997538D01*
X1935683D02*
X1943309D01*
X1925515D02*
X1928904D01*
X1910263D02*
X1921278D01*
X1889927D02*
X1899248D01*
X1875522D02*
X1878912D01*
X1860271D02*
X1870439D01*
X1245959D02*
X1792484D01*
X2113621Y1326572D02*
X2510170D01*
X2066171D02*
X2082270D01*
X2028889D02*
X2039904D01*
X2006858D02*
X2017873D01*
X1985675D02*
X1996690D01*
X1934835D02*
X1942461D01*
X1925515D02*
X1928904D01*
X1910263D02*
X1920431D01*
X1889927D02*
X1899248D01*
X1875522D02*
X1878912D01*
X1860271D02*
X1869591D01*
X1245959D02*
X1793332D01*
X2114469Y1325725D02*
X2510170D01*
X2067866D02*
X2082270D01*
X2028889D02*
X2039057D01*
X2006858D02*
X2017873D01*
X1987370D02*
X1996690D01*
X1934835D02*
X1942461D01*
X1925515D02*
X1928904D01*
X1910263D02*
X1920431D01*
X1889080D02*
X1899248D01*
X1875522D02*
X1878912D01*
X1860271D02*
X1869591D01*
X1245959D02*
X1795027D01*
X2114469Y1324877D02*
X2510170D01*
X2069560D02*
X2081423D01*
X2029736D02*
X2039057D01*
X2006011D02*
X2017026D01*
X1989064D02*
X1995843D01*
X1933988D02*
X1942461D01*
X1925515D02*
X1928904D01*
X1910263D02*
X1920431D01*
X1889080D02*
X1898400D01*
X1875522D02*
X1878912D01*
X1859423D02*
X1868744D01*
X1245959D02*
X1795874D01*
X2115316Y1324030D02*
X2510170D01*
X2070408D02*
X2081423D01*
X2031431D02*
X2038209D01*
X2006011D02*
X2017026D01*
X1990759D02*
X1995843D01*
X1956866D02*
X1960255D01*
X1933988D02*
X1942461D01*
X1925515D02*
X1928904D01*
X1910263D02*
X1920431D01*
X1889080D02*
X1898400D01*
X1875522D02*
X1878912D01*
X1859423D02*
X1868744D01*
X1245959D02*
X1797568D01*
X2115316Y1323183D02*
X2510170D01*
X2069560D02*
X2080576D01*
X2032278D02*
X2038209D01*
X2005164D02*
X2016179D01*
X1992454D02*
X1994996D01*
X1955171D02*
X1961950D01*
X1933141D02*
X1941614D01*
X1925515D02*
X1928904D01*
X1910263D02*
X1920431D01*
X1889080D02*
X1898400D01*
X1875522D02*
X1878912D01*
X1858576D02*
X1867897D01*
X1245959D02*
X1799263D01*
X2116163Y1322335D02*
X2510170D01*
X2069560D02*
X2080576D01*
X2033973D02*
X2037362D01*
X2005164D02*
X2016179D01*
X1993301D02*
X1994148D01*
X1954324D02*
X1962797D01*
X1933141D02*
X1941614D01*
X1925515D02*
X1929751D01*
X1910263D02*
X1919583D01*
X1888232D02*
X1897553D01*
X1875522D02*
X1878912D01*
X1857729D02*
X1867897D01*
X1245959D02*
X1800958D01*
X2116163Y1321488D02*
X2510170D01*
X2068713D02*
X2079728D01*
X2035667D02*
X2037362D01*
X2004316D02*
X2015332D01*
X1960255D02*
X1963645D01*
X1953477D02*
X1957713D01*
X1933141D02*
X1941614D01*
X1925515D02*
X1929751D01*
X1910263D02*
X1919583D01*
X1888232D02*
X1897553D01*
X1875522D02*
X1878912D01*
X1857729D02*
X1867049D01*
X1245959D02*
X1801805D01*
X2116163Y1320641D02*
X2510170D01*
X2068713D02*
X2079728D01*
X2036515D02*
X2038209D01*
X2004316D02*
X2015332D01*
X1961950D02*
X1965339D01*
X1953477D02*
X1956019D01*
X1932293D02*
X1940767D01*
X1925515D02*
X1929751D01*
X1910263D02*
X1919583D01*
X1887385D02*
X1896706D01*
X1875522D02*
X1878912D01*
X1856881D02*
X1866202D01*
X1245959D02*
X1803500D01*
X2117011Y1319793D02*
X2510170D01*
X2067866D02*
X2078881D01*
X2035667D02*
X2039904D01*
X2003469D02*
X2014484D01*
X1962797D02*
X1966187D01*
X1932293D02*
X1940767D01*
X1925515D02*
X1929751D01*
X1910263D02*
X1919583D01*
X1887385D02*
X1896706D01*
X1875522D02*
X1878912D01*
X1856881D02*
X1866202D01*
X1245959D02*
X1805194D01*
X2117011Y1318946D02*
X2510170D01*
X2067018D02*
X2078881D01*
X2035667D02*
X2041599D01*
X2003469D02*
X2014484D01*
X1963645D02*
X1967034D01*
X1951782D02*
X1954324D01*
X1931446D02*
X1939919D01*
X1925515D02*
X1929751D01*
X1910263D02*
X1919583D01*
X1886538D02*
X1895858D01*
X1875522D02*
X1878912D01*
X1856034D02*
X1865355D01*
X1245959D02*
X1806889D01*
X2117011Y1318099D02*
X2510170D01*
X2067018D02*
X2078034D01*
X2034820D02*
X2043293D01*
X2002621D02*
X2013637D01*
X1963645D02*
X1967881D01*
X1950935D02*
X1955171D01*
X1931446D02*
X1939919D01*
X1925515D02*
X1929751D01*
X1910263D02*
X1918736D01*
X1886538D02*
X1895858D01*
X1875522D02*
X1878912D01*
X1856034D02*
X1865355D01*
X1245959D02*
X1808584D01*
X2117858Y1317251D02*
X2510170D01*
X2066171D02*
X2078034D01*
X2034820D02*
X2044988D01*
X2003469D02*
X2013637D01*
X1964492D02*
X1967881D01*
X1950935D02*
X1956019D01*
X1930599D02*
X1939919D01*
X1925515D02*
X1929751D01*
X1910263D02*
X1918736D01*
X1885690D02*
X1895011D01*
X1875522D02*
X1878912D01*
X1856034D02*
X1864507D01*
X1245959D02*
X1810278D01*
X2117858Y1316404D02*
X2510170D01*
X2066171D02*
X2077186D01*
X2033973D02*
X2046682D01*
X2005164D02*
X2012789D01*
X1964492D02*
X1968728D01*
X1950935D02*
X1956019D01*
X1930599D02*
X1939072D01*
X1925515D02*
X1929751D01*
X1910263D02*
X1918736D01*
X1885690D02*
X1895011D01*
X1875522D02*
X1878912D01*
X1855187D02*
X1864507D01*
X1804347D02*
X1811973D01*
X1245959D02*
X1747576D01*
X2117858Y1315557D02*
X2510170D01*
X2065324D02*
X2076339D01*
X2033973D02*
X2047530D01*
X2006011D02*
X2011942D01*
X1964492D02*
X1968728D01*
X1950087D02*
X1956019D01*
X1930599D02*
X1939072D01*
X1925515D02*
X1929751D01*
X1910263D02*
X1918736D01*
X1885690D02*
X1894164D01*
X1875522D02*
X1879759D01*
X1854339D02*
X1863660D01*
X1806889D02*
X1813668D01*
X1245959D02*
X1744187D01*
X2117858Y1314709D02*
X2510170D01*
X2065324D02*
X2076339D01*
X2033125D02*
X2049225D01*
X2007706D02*
X2011942D01*
X1964492D02*
X1968728D01*
X1950087D02*
X1955171D01*
X1925515D02*
X1939072D01*
X1910263D02*
X1917889D01*
X1884843D02*
X1894164D01*
X1875522D02*
X1879759D01*
X1854339D02*
X1862813D01*
X1808584D02*
X1814515D01*
X1245959D02*
X1742492D01*
X2117858Y1313862D02*
X2510170D01*
X2064476D02*
X2075492D01*
X2033125D02*
X2050919D01*
X2009400D02*
X2011095D01*
X1964492D02*
X1968728D01*
X1949240D02*
X1955171D01*
X1925515D02*
X1939072D01*
X1910263D02*
X1917889D01*
X1884843D02*
X1893316D01*
X1875522D02*
X1879759D01*
X1853492D02*
X1862813D01*
X1810278D02*
X1816210D01*
X1245959D02*
X1740797D01*
X2118705Y1313015D02*
X2510170D01*
X2064476D02*
X2075492D01*
X2032278D02*
X2052614D01*
X1963645D02*
X1969576D01*
X1949240D02*
X1955171D01*
X1925515D02*
X1939072D01*
X1910263D02*
X1917042D01*
X1883996D02*
X1892469D01*
X1876370D02*
X1879759D01*
X1853492D02*
X1861965D01*
X1811126D02*
X1817904D01*
X1245959D02*
X1739950D01*
X2118705Y1312168D02*
X2510170D01*
X2063629D02*
X2074644D01*
X2033125D02*
X2054308D01*
X1981438D02*
X1983980D01*
X1963645D02*
X1969576D01*
X1949240D02*
X1955171D01*
X1925515D02*
X1939072D01*
X1909416D02*
X1917042D01*
X1882301D02*
X1892469D01*
X1876370D02*
X1880607D01*
X1852645D02*
X1861965D01*
X1811973D02*
X1819599D01*
X1245959D02*
X1739103D01*
X2118705Y1311320D02*
X2510170D01*
X2063629D02*
X2074644D01*
X2034820D02*
X2056003D01*
X1979744D02*
X1987370D01*
X1963645D02*
X1969576D01*
X1948393D02*
X1955171D01*
X1924668D02*
X1938225D01*
X1909416D02*
X1916194D01*
X1877217D02*
X1891622D01*
X1852645D02*
X1861118D01*
X1812820D02*
X1821294D01*
X1245959D02*
X1738256D01*
X2118705Y1310473D02*
X2510170D01*
X2062782D02*
X2073797D01*
X2036515D02*
X2057698D01*
X1978896D02*
X1988217D01*
X1963645D02*
X1969576D01*
X1948393D02*
X1955171D01*
X1924668D02*
X1938225D01*
X1908568D02*
X1916194D01*
X1877217D02*
X1890774D01*
X1851797D02*
X1861118D01*
X1813668D02*
X1822988D01*
X1245959D02*
X1737408D01*
X2118705Y1309626D02*
X2510170D01*
X2062782D02*
X2073797D01*
X2038209D02*
X2059393D01*
X1978896D02*
X1989912D01*
X1963645D02*
X1969576D01*
X1948393D02*
X1954324D01*
X1924668D02*
X1938225D01*
X1909416D02*
X1915347D01*
X1878065D02*
X1889927D01*
X1851797D02*
X1860271D01*
X1814515D02*
X1824683D01*
X1245959D02*
X1737408D01*
X2118705Y1308778D02*
X2510170D01*
X2061934D02*
X2072950D01*
X2039904D02*
X2060240D01*
X1985675D02*
X1990759D01*
X1978049D02*
X1982286D01*
X1963645D02*
X1969576D01*
X1947545D02*
X1954324D01*
X1924668D02*
X1938225D01*
X1909416D02*
X1914500D01*
X1878912D02*
X1888232D01*
X1851797D02*
X1860271D01*
X1814515D02*
X1826378D01*
X1245959D02*
X1736561D01*
X2383919Y1307931D02*
X2510170D01*
X2118705D02*
X2314438D01*
X2041599D02*
X2072950D01*
X1986522D02*
X1991606D01*
X1978049D02*
X1981438D01*
X1963645D02*
X1969576D01*
X1947545D02*
X1954324D01*
X1924668D02*
X1938225D01*
X1881454D02*
X1886538D01*
X1850950D02*
X1859423D01*
X1815362D02*
X1827225D01*
X1245959D02*
X1736561D01*
X2386461Y1307083D02*
X2510170D01*
X2118705D02*
X2311048D01*
X2043293D02*
X2072102D01*
X1987370D02*
X1992454D01*
X1978049D02*
X1981438D01*
X1962797D02*
X1969576D01*
X1947545D02*
X1954324D01*
X1924668D02*
X1938225D01*
X1850950D02*
X1859423D01*
X1815362D02*
X1828920D01*
X1245959D02*
X1735714D01*
X2389003Y1306236D02*
X2510170D01*
X2118705D02*
X2309354D01*
X2044141D02*
X2072102D01*
X1987370D02*
X1993301D01*
X1978049D02*
X1980591D01*
X1962797D02*
X1969576D01*
X1946698D02*
X1953477D01*
X1924668D02*
X1938225D01*
X1850950D02*
X1858576D01*
X1816210D02*
X1830614D01*
X1245959D02*
X1735714D01*
X2390697Y1305389D02*
X2510170D01*
X2118705D02*
X2307659D01*
X2045835D02*
X2071255D01*
X1987370D02*
X1993301D01*
X1978049D02*
X1980591D01*
X1962797D02*
X1968728D01*
X1946698D02*
X1953477D01*
X1935683D02*
X1938225D01*
X1924668D02*
X1934835D01*
X1850950D02*
X1858576D01*
X1816210D02*
X1832309D01*
X1245959D02*
X1734866D01*
X2391545Y1304541D02*
X2510170D01*
X2118705D02*
X2305965D01*
X2047530D02*
X2071255D01*
X1987370D02*
X1994148D01*
X1962797D02*
X1968728D01*
X1945851D02*
X1953477D01*
X1935683D02*
X1938225D01*
X1924668D02*
X1934835D01*
X1850950D02*
X1857729D01*
X1816210D02*
X1834003D01*
X1245959D02*
X1734866D01*
X2393239Y1303694D02*
X2510170D01*
X2118705D02*
X2305117D01*
X2049225D02*
X2070408D01*
X1987370D02*
X1994148D01*
X1962797D02*
X1968728D01*
X1945851D02*
X1953477D01*
X1935683D02*
X1938225D01*
X1924668D02*
X1933988D01*
X1850950D02*
X1857729D01*
X1816210D02*
X1835698D01*
X1245959D02*
X1734866D01*
X2394087Y1302847D02*
X2510170D01*
X2118705D02*
X2303423D01*
X2050919D02*
X2069560D01*
X1987370D02*
X1994996D01*
X1961950D02*
X1968728D01*
X1945851D02*
X1953477D01*
X1935683D02*
X1938225D01*
X1924668D02*
X1933988D01*
X1850950D02*
X1856881D01*
X1817057D02*
X1837393D01*
X1245959D02*
X1734866D01*
X2394934Y1302000D02*
X2510170D01*
X2118705D02*
X2302575D01*
X2052614D02*
X2069560D01*
X1987370D02*
X1994996D01*
X1961950D02*
X1968728D01*
X1945003D02*
X1953477D01*
X1935683D02*
X1938225D01*
X1925515D02*
X1933141D01*
X1850950D02*
X1856881D01*
X1817057D02*
X1839088D01*
X1245959D02*
X1734866D01*
X2395781Y1301152D02*
X2510170D01*
X2117858D02*
X2301728D01*
X2054308D02*
X2068713D01*
X1987370D02*
X1994996D01*
X1961950D02*
X1967881D01*
X1945003D02*
X1953477D01*
X1935683D02*
X1938225D01*
X1925515D02*
X1933141D01*
X1850950D02*
X1856034D01*
X1817057D02*
X1839935D01*
X1245959D02*
X1734866D01*
X2396629Y1300305D02*
X2510170D01*
X2117858D02*
X2300881D01*
X2056003D02*
X2068713D01*
X1987370D02*
X1994996D01*
X1961950D02*
X1967881D01*
X1945003D02*
X1953477D01*
X1935683D02*
X1938225D01*
X1925515D02*
X1932293D01*
X1850950D02*
X1856034D01*
X1817057D02*
X1841629D01*
X1245959D02*
X1734866D01*
X2397476Y1299458D02*
X2510170D01*
X2117858D02*
X2300033D01*
X2056850D02*
X2067866D01*
X1987370D02*
X1994996D01*
X1961103D02*
X1967881D01*
X1944156D02*
X1954324D01*
X1935683D02*
X1938225D01*
X1851797D02*
X1855187D01*
X1817057D02*
X1843324D01*
X1245959D02*
X1734866D01*
X2398323Y1298610D02*
X2510170D01*
X2117858D02*
X2299186D01*
X2056850D02*
X2067866D01*
X1987370D02*
X1994996D01*
X1960255D02*
X1967881D01*
X1944156D02*
X1954324D01*
X1935683D02*
X1938225D01*
X1817057D02*
X1845019D01*
X1245959D02*
X1734866D01*
X2399171Y1297763D02*
X2510170D01*
X2117011D02*
X2298339D01*
X2056003D02*
X2067018D01*
X1987370D02*
X1994996D01*
X1960255D02*
X1967034D01*
X1944156D02*
X1955171D01*
X1935683D02*
X1938225D01*
X1817057D02*
X1846713D01*
X1245959D02*
X1734866D01*
X2400018Y1296916D02*
X2510170D01*
X2117011D02*
X2298339D01*
X2056003D02*
X2067018D01*
X1986522D02*
X1994996D01*
X1959408D02*
X1967034D01*
X1951782D02*
X1955171D01*
X1943309D02*
X1950935D01*
X1935683D02*
X1939072D01*
X1817057D02*
X1848408D01*
X1245959D02*
X1734866D01*
X2400018Y1296068D02*
X2510170D01*
X2117011D02*
X2297491D01*
X2055156D02*
X2066171D01*
X1986522D02*
X1994996D01*
X1952629D02*
X1967034D01*
X1943309D02*
X1950935D01*
X1936530D02*
X1939072D01*
X1817057D02*
X1850103D01*
X1245959D02*
X1734866D01*
X2400865Y1295221D02*
X2510170D01*
X2117011D02*
X2296644D01*
X2055156D02*
X2066171D01*
X1986522D02*
X1994996D01*
X1952629D02*
X1966187D01*
X1942461D02*
X1950087D01*
X1936530D02*
X1939072D01*
X1817057D02*
X1851797D01*
X1245959D02*
X1734866D01*
X2400865Y1294374D02*
X2510170D01*
X2116163D02*
X2296644D01*
X2054308D02*
X2065324D01*
X1986522D02*
X1994148D01*
X1953477D02*
X1966187D01*
X1942461D02*
X1950087D01*
X1936530D02*
X1939919D01*
X1817057D02*
X1852645D01*
X1245959D02*
X1734866D01*
X2401712Y1293526D02*
X2510170D01*
X2116163D02*
X2295797D01*
X2054308D02*
X2065324D01*
X1985675D02*
X1994148D01*
X1954324D02*
X1966187D01*
X1941614D02*
X1950087D01*
X1936530D02*
X1940767D01*
X1817057D02*
X1854339D01*
X1245959D02*
X1734866D01*
X2401712Y1292679D02*
X2510170D01*
X2115316D02*
X2295797D01*
X2053461D02*
X2064476D01*
X1985675D02*
X1994148D01*
X1955171D02*
X1966187D01*
X1937377D02*
X1949240D01*
X1817057D02*
X1856034D01*
X1245959D02*
X1734866D01*
X2402560Y1291832D02*
X2510170D01*
X2115316D02*
X2294949D01*
X2052614D02*
X2064476D01*
X1985675D02*
X1994148D01*
X1956019D02*
X1966187D01*
X1937377D02*
X1949240D01*
X1817057D02*
X1857729D01*
X1245959D02*
X1734866D01*
X2402560Y1290984D02*
X2510170D01*
X2114469D02*
X2294949D01*
X2053461D02*
X2063629D01*
X1985675D02*
X1994148D01*
X1964492D02*
X1966187D01*
X1958560D02*
X1961950D01*
X1937377D02*
X1948393D01*
X1817057D02*
X1859423D01*
X1245959D02*
X1734866D01*
X2402560Y1290137D02*
X2510170D01*
X2114469D02*
X2294949D01*
X2055156D02*
X2063629D01*
X1984828D02*
X1993301D01*
X1964492D02*
X1967034D01*
X1938225D02*
X1948393D01*
X1817057D02*
X1861118D01*
X1245959D02*
X1734866D01*
X2403407Y1289290D02*
X2510170D01*
X2113621D02*
X2294102D01*
X2056003D02*
X2062782D01*
X1984828D02*
X1993301D01*
X1964492D02*
X1967034D01*
X1939072D02*
X1947545D01*
X1817057D02*
X1862813D01*
X1245959D02*
X1734866D01*
X2403407Y1288442D02*
X2510170D01*
X2113621D02*
X2294102D01*
X2057698D02*
X2061934D01*
X1984828D02*
X1993301D01*
X1964492D02*
X1967034D01*
X1939919D02*
X1946698D01*
X1817057D02*
X1864507D01*
X1245959D02*
X1734866D01*
X2403407Y1287595D02*
X2510170D01*
X2112774D02*
X2294102D01*
X2059393D02*
X2061934D01*
X1984828D02*
X1992454D01*
X1965339D02*
X1967034D01*
X1941614D02*
X1945003D01*
X1817057D02*
X1865355D01*
X1245959D02*
X1734866D01*
X2403407Y1286748D02*
X2510170D01*
X2112774D02*
X2294102D01*
X1983980D02*
X1992454D01*
X1965339D02*
X1967881D01*
X1817057D02*
X1867049D01*
X1245959D02*
X1734866D01*
X2404254Y1285900D02*
X2510170D01*
X2111927D02*
X2294102D01*
X1983980D02*
X1992454D01*
X1965339D02*
X1967881D01*
X1817057D02*
X1868744D01*
X1245959D02*
X1734866D01*
X2404254Y1285053D02*
X2510170D01*
X2111927D02*
X2293255D01*
X1983980D02*
X1992454D01*
X1965339D02*
X1967881D01*
X1817057D02*
X1870439D01*
X1245959D02*
X1734866D01*
X2404254Y1284206D02*
X2510170D01*
X2111079D02*
X2293255D01*
X1983133D02*
X1991606D01*
X1966187D02*
X1968728D01*
X1817057D02*
X1872133D01*
X1245959D02*
X1734866D01*
X2404254Y1283358D02*
X2510170D01*
X2111079D02*
X2293255D01*
X1983133D02*
X1991606D01*
X1966187D02*
X1968728D01*
X1817057D02*
X1873828D01*
X1245959D02*
X1734866D01*
X2404254Y1282511D02*
X2510170D01*
X2110232D02*
X2293255D01*
X1982286D02*
X1990759D01*
X1966187D02*
X1968728D01*
X1817057D02*
X1875522D01*
X1245959D02*
X1734866D01*
X2404254Y1281664D02*
X2510170D01*
X2110232D02*
X2293255D01*
X1982286D02*
X1990759D01*
X1966187D02*
X1968728D01*
X1817057D02*
X1877217D01*
X1245959D02*
X1734866D01*
X2404254Y1280816D02*
X2510170D01*
X2109385D02*
X2293255D01*
X1981438D02*
X1990759D01*
X1967034D02*
X1969576D01*
X1817057D02*
X1878065D01*
X1245959D02*
X1734866D01*
X2404254Y1279969D02*
X2510170D01*
X2109385D02*
X2293255D01*
X1981438D02*
X1989912D01*
X1967034D02*
X1969576D01*
X1817057D02*
X1879759D01*
X1245959D02*
X1734866D01*
X2404254Y1279122D02*
X2510170D01*
X2108537D02*
X2293255D01*
X1980591D02*
X1989912D01*
X1967034D02*
X1969576D01*
X1817057D02*
X1881454D01*
X1245959D02*
X1734866D01*
X2404254Y1278274D02*
X2510170D01*
X2107690D02*
X2293255D01*
X1979744D02*
X1989064D01*
X1967034D02*
X1970423D01*
X1817057D02*
X1883148D01*
X1245959D02*
X1734866D01*
X2404254Y1277427D02*
X2510170D01*
X2107690D02*
X2293255D01*
X1979744D02*
X1989064D01*
X1967881D02*
X1970423D01*
X1817057D02*
X1884843D01*
X1245959D02*
X1734866D01*
X2404254Y1276580D02*
X2510170D01*
X2106843D02*
X2293255D01*
X1978896D02*
X1988217D01*
X1968728D02*
X1971270D01*
X1817057D02*
X1886538D01*
X1245959D02*
X1734866D01*
X2404254Y1275732D02*
X2510170D01*
X2106843D02*
X2293255D01*
X1978049D02*
X1988217D01*
X1968728D02*
X1972118D01*
X1817057D02*
X1888232D01*
X1245959D02*
X1734866D01*
X2404254Y1274885D02*
X2510170D01*
X2105995D02*
X2293255D01*
X1977202D02*
X1987370D01*
X1969576D02*
X1972965D01*
X1817057D02*
X1889927D01*
X1245959D02*
X1734866D01*
X2404254Y1274038D02*
X2510170D01*
X2105995D02*
X2293255D01*
X1976354D02*
X1986522D01*
X1969576D02*
X1973812D01*
X1817057D02*
X1890774D01*
X1245959D02*
X1734866D01*
X2404254Y1273190D02*
X2510170D01*
X2105148D02*
X2293255D01*
X1970423D02*
X1986522D01*
X1817057D02*
X1892469D01*
X1245959D02*
X1734866D01*
X2404254Y1272343D02*
X2510170D01*
X2105148D02*
X2293255D01*
X1971270D02*
X1985675D01*
X1817057D02*
X1894164D01*
X1245959D02*
X1734866D01*
X2404254Y1271496D02*
X2510170D01*
X2104301D02*
X2293255D01*
X1972118D02*
X1984828D01*
X1817057D02*
X1895858D01*
X1245959D02*
X1734866D01*
X2404254Y1270648D02*
X2510170D01*
X2104301D02*
X2293255D01*
X1972965D02*
X1983980D01*
X1817057D02*
X1897553D01*
X1245959D02*
X1734866D01*
X2404254Y1269801D02*
X2510170D01*
X2103454D02*
X2293255D01*
X1973812D02*
X1982286D01*
X1817057D02*
X1899248D01*
X1245959D02*
X1734866D01*
X2404254Y1268954D02*
X2510170D01*
X2103454D02*
X2293255D01*
X1817057D02*
X1900942D01*
X1245959D02*
X1734866D01*
X2404254Y1268107D02*
X2510170D01*
X2102606D02*
X2293255D01*
X1817057D02*
X1902637D01*
X1245959D02*
X1734866D01*
X2404254Y1267259D02*
X2510170D01*
X2102606D02*
X2293255D01*
X1817057D02*
X1903484D01*
X1245959D02*
X1734866D01*
X2404254Y1266412D02*
X2510170D01*
X2101759D02*
X2293255D01*
X1817057D02*
X1905179D01*
X1245959D02*
X1734866D01*
X2404254Y1265564D02*
X2510170D01*
X2100912D02*
X2293255D01*
X1817057D02*
X1906874D01*
X1245959D02*
X1734866D01*
X2404254Y1264717D02*
X2510170D01*
X2100912D02*
X2293255D01*
X1817057D02*
X1908568D01*
X1245959D02*
X1734866D01*
X2404254Y1263870D02*
X2510170D01*
X2100064D02*
X2293255D01*
X1817057D02*
X1910263D01*
X1245959D02*
X1734866D01*
X2404254Y1263023D02*
X2510170D01*
X2100064D02*
X2293255D01*
X1817057D02*
X1911958D01*
X1245959D02*
X1734866D01*
X2404254Y1262175D02*
X2510170D01*
X2099217D02*
X2293255D01*
X1817057D02*
X1913652D01*
X1245959D02*
X1734866D01*
X2404254Y1261328D02*
X2510170D01*
X2098369D02*
X2293255D01*
X1817057D02*
X1915347D01*
X1245959D02*
X1734866D01*
X2404254Y1260480D02*
X2510170D01*
X2098369D02*
X2293255D01*
X1817057D02*
X1916194D01*
X1245959D02*
X1734866D01*
X2404254Y1259633D02*
X2510170D01*
X2097522D02*
X2293255D01*
X1817057D02*
X1917889D01*
X1245959D02*
X1734866D01*
X2404254Y1258786D02*
X2510170D01*
X2096675D02*
X2293255D01*
X1817057D02*
X1919583D01*
X1245959D02*
X1734866D01*
X2404254Y1257939D02*
X2510170D01*
X2095827D02*
X2293255D01*
X1817057D02*
X1921278D01*
X1245959D02*
X1734866D01*
X2404254Y1257091D02*
X2510170D01*
X2094980D02*
X2293255D01*
X1817057D02*
X1922973D01*
X1245959D02*
X1734866D01*
X2404254Y1256244D02*
X2510170D01*
X2094133D02*
X2293255D01*
X1817057D02*
X1924668D01*
X1245959D02*
X1734866D01*
X2404254Y1255396D02*
X2510170D01*
X2093286D02*
X2293255D01*
X1817057D02*
X1926362D01*
X1245959D02*
X1734866D01*
X2404254Y1254549D02*
X2510170D01*
X2092438D02*
X2293255D01*
X2039057D02*
X2039904D01*
X1817057D02*
X1928057D01*
X1245959D02*
X1734866D01*
X2404254Y1253702D02*
X2510170D01*
X2091591D02*
X2293255D01*
X2039057D02*
X2041599D01*
X1817057D02*
X1928904D01*
X1245959D02*
X1734866D01*
X2404254Y1252855D02*
X2510170D01*
X2090744D02*
X2293255D01*
X2038209D02*
X2043293D01*
X1817057D02*
X1930599D01*
X1245959D02*
X1734866D01*
X2404254Y1252007D02*
X2510170D01*
X2089049D02*
X2293255D01*
X2038209D02*
X2044988D01*
X1817057D02*
X1932293D01*
X1245959D02*
X1734866D01*
X2404254Y1251160D02*
X2510170D01*
X2088202D02*
X2293255D01*
X2037362D02*
X2046682D01*
X1817057D02*
X1933988D01*
X1245959D02*
X1734866D01*
X2404254Y1250313D02*
X2510170D01*
X2086507D02*
X2293255D01*
X2037362D02*
X2047530D01*
X1817057D02*
X1935683D01*
X1245959D02*
X1734866D01*
X2404254Y1249465D02*
X2510170D01*
X2084812D02*
X2293255D01*
X2036515D02*
X2049225D01*
X1817057D02*
X1937377D01*
X1245959D02*
X1734866D01*
X2404254Y1248618D02*
X2510170D01*
X2083118D02*
X2293255D01*
X2036515D02*
X2050919D01*
X1817057D02*
X1939072D01*
X1245959D02*
X1734866D01*
X2404254Y1247771D02*
X2510170D01*
X2081423D02*
X2293255D01*
X2035667D02*
X2053461D01*
X1817057D02*
X1940767D01*
X1245959D02*
X1734866D01*
X2404254Y1246923D02*
X2510170D01*
X2078881D02*
X2293255D01*
X2035667D02*
X2055156D01*
X1817057D02*
X1941614D01*
X1245959D02*
X1734866D01*
X2404254Y1246076D02*
X2510170D01*
X2075492D02*
X2293255D01*
X2034820D02*
X2058545D01*
X1817057D02*
X1943309D01*
X1245959D02*
X1734866D01*
X2404254Y1245229D02*
X2510170D01*
X2070408D02*
X2293255D01*
X2034820D02*
X2063629D01*
X1817057D02*
X1945003D01*
X1245959D02*
X1734866D01*
X2404254Y1244381D02*
X2510170D01*
X2033973D02*
X2293255D01*
X1817057D02*
X1946698D01*
X1245959D02*
X1734866D01*
X2404254Y1243534D02*
X2510170D01*
X2033973D02*
X2293255D01*
X1816210D02*
X1948393D01*
X1245959D02*
X1734866D01*
X2404254Y1242687D02*
X2510170D01*
X2033125D02*
X2293255D01*
X1816210D02*
X1950087D01*
X1245959D02*
X1734866D01*
X2404254Y1241839D02*
X2510170D01*
X2032278D02*
X2293255D01*
X1816210D02*
X1951782D01*
X1245959D02*
X1734866D01*
X2404254Y1240992D02*
X2510170D01*
X2032278D02*
X2293255D01*
X1816210D02*
X1953477D01*
X1245959D02*
X1735714D01*
X2404254Y1240145D02*
X2510170D01*
X2031431D02*
X2293255D01*
X1815362D02*
X1954324D01*
X1245959D02*
X1735714D01*
X2404254Y1239297D02*
X2510170D01*
X2031431D02*
X2293255D01*
X1815362D02*
X1956019D01*
X1245959D02*
X1736561D01*
X2404254Y1238450D02*
X2510170D01*
X2030583D02*
X2293255D01*
X1814515D02*
X1957713D01*
X1245959D02*
X1736561D01*
X2404254Y1237603D02*
X2510170D01*
X2030583D02*
X2293255D01*
X1814515D02*
X1959408D01*
X1245959D02*
X1737408D01*
X2404254Y1236755D02*
X2510170D01*
X2029736D02*
X2293255D01*
X1813668D02*
X1961103D01*
X1245959D02*
X1737408D01*
X2404254Y1235908D02*
X2510170D01*
X2029736D02*
X2293255D01*
X1812820D02*
X1962797D01*
X1245959D02*
X1738256D01*
X2404254Y1235061D02*
X2510170D01*
X2028889D02*
X2293255D01*
X1811973D02*
X1964492D01*
X1245959D02*
X1739103D01*
X2450858Y1234213D02*
X2510170D01*
X2028889D02*
X2246652D01*
X1811126D02*
X1966187D01*
X1245959D02*
X1739950D01*
X2452552Y1233366D02*
X2510170D01*
X2028041D02*
X2244957D01*
X1810278D02*
X1967034D01*
X1245959D02*
X1740797D01*
X2453400Y1232519D02*
X2510170D01*
X2028041D02*
X2244110D01*
X1808584D02*
X1968728D01*
X1245959D02*
X1742492D01*
X2454247Y1231671D02*
X2510170D01*
X2027194D02*
X2243262D01*
X1806889D02*
X1970423D01*
X1245959D02*
X1744187D01*
X2455094Y1230824D02*
X2510170D01*
X2026347D02*
X2243262D01*
X1804347D02*
X1972118D01*
X1245959D02*
X1747576D01*
X2455094Y1229977D02*
X2510170D01*
X2025499D02*
X2242415D01*
X1245959D02*
X1973812D01*
X2455941Y1229129D02*
X2510170D01*
X2025499D02*
X2242415D01*
X1245959D02*
X1975507D01*
X2455941Y1228282D02*
X2510170D01*
X2024652D02*
X2242415D01*
X1245959D02*
X1977202D01*
X2455941Y1227435D02*
X2510170D01*
X2023805D02*
X2242415D01*
X1245959D02*
X1978896D01*
X2455941Y1226587D02*
X2510170D01*
X2022957D02*
X2242415D01*
X1245959D02*
X1979744D01*
X2455941Y1225740D02*
X2510170D01*
X2022110D02*
X2242415D01*
X1245959D02*
X1981438D01*
X2455941Y1224893D02*
X2510170D01*
X2021263D02*
X2242415D01*
X1245959D02*
X1983133D01*
X2455941Y1224045D02*
X2510170D01*
X2019568D02*
X2242415D01*
X1245959D02*
X1984828D01*
X2455941Y1223198D02*
X2510170D01*
X2018721D02*
X2242415D01*
X1245959D02*
X1986522D01*
X2455941Y1222351D02*
X2510170D01*
X2017026D02*
X2242415D01*
X1245959D02*
X1988217D01*
X2455941Y1221504D02*
X2510170D01*
X2016179D02*
X2242415D01*
X1245959D02*
X1989912D01*
X2455941Y1220656D02*
X2510170D01*
X2013637D02*
X2242415D01*
X1245959D02*
X1991606D01*
X2455941Y1219809D02*
X2510170D01*
X2011942D02*
X2242415D01*
X1245959D02*
X1993301D01*
X2455941Y1218961D02*
X2510170D01*
X2008553D02*
X2242415D01*
X1245959D02*
X1996690D01*
X2455941Y1218114D02*
X2510170D01*
X1245959D02*
X2242415D01*
X2455941Y1217267D02*
X2510170D01*
X1245959D02*
X2242415D01*
X2455941Y1216420D02*
X2510170D01*
X1245959D02*
X2242415D01*
X2455941Y1215572D02*
X2510170D01*
X1245959D02*
X2242415D01*
X2455941Y1214725D02*
X2510170D01*
X1245959D02*
X2242415D01*
X2455941Y1213877D02*
X2510170D01*
X1246806D02*
X2242415D01*
X2455941Y1213030D02*
X2510170D01*
X1246806D02*
X2242415D01*
X2455941Y1212183D02*
X2510170D01*
X1246806D02*
X2242415D01*
X2455941Y1211336D02*
X2509323D01*
X1246806D02*
X2242415D01*
X2455941Y1210488D02*
X2509323D01*
X1246806D02*
X2242415D01*
X2455941Y1209641D02*
X2509323D01*
X1246806D02*
X2242415D01*
X2455094Y1208794D02*
X2509323D01*
X1247653D02*
X2242415D01*
X2455094Y1207946D02*
X2508476D01*
X1247653D02*
X2243262D01*
X2454247Y1207099D02*
X2508476D01*
X1247653D02*
X2243262D01*
X2453400Y1206252D02*
X2508476D01*
X1248501D02*
X2244110D01*
X2452552Y1205404D02*
X2507628D01*
X1248501D02*
X2244957D01*
X2450858Y1204557D02*
X2507628D01*
X1248501D02*
X2247499D01*
X1249348Y1203710D02*
X2506781D01*
X1249348Y1202862D02*
X2506781D01*
X1250195Y1202015D02*
X2505934D01*
X1251043Y1201168D02*
X2505934D01*
X1251043Y1200320D02*
X2505086D01*
X1251890Y1199473D02*
X2504239D01*
X1252737Y1198626D02*
X2504239D01*
X1252737Y1197778D02*
X2503392D01*
X1253585Y1196931D02*
X2502544D01*
X1254432Y1196084D02*
X2501697D01*
X1255279Y1195236D02*
X2500850D01*
X1256126Y1194389D02*
X2500002D01*
X1256974Y1193542D02*
X2499155D01*
X1257821Y1192694D02*
X2498308D01*
X1258669Y1191847D02*
X2497460D01*
X1260363Y1191000D02*
X2496613D01*
X1261210Y1190152D02*
X2494919D01*
X1262905Y1189305D02*
X2494071D01*
X1264600Y1188458D02*
X2491529D01*
X1267142Y1187610D02*
X2489834D01*
X1267989Y1186763D02*
X2488140D01*
X1270531Y1185916D02*
X2485598D01*
X1274768Y1185068D02*
X2481361D01*
D57*
X2470274Y1281804D02*
Y1316304D01*
X2508274D01*
Y1281804D02*
Y1316304D01*
X2470274Y1281804D02*
X2508274D01*
D99*
X2091874Y1456554D02*
G03*
X2091874Y1456554I-2000J0D01*
G01*
M02*
