G04*
G04 #@! TF.GenerationSoftware,Altium Limited,Altium Designer,18.1.9 (240)*
G04*
G04 Layer_Color=16711935*
%FSLAX44Y44*%
%MOMM*%
G71*
G01*
G75*
%ADD11C,0.2540*%
%ADD28C,0.1270*%
%ADD30C,0.1000*%
%ADD55C,0.3000*%
%ADD94C,0.1984*%
D11*
X2509000Y1886000D02*
G03*
X2479000Y1916000I-30000J0D01*
G01*
X1279000D02*
G03*
X1249000Y1886000I0J-30000D01*
G01*
Y1586000D02*
G03*
X1279000Y1556000I30000J0D01*
G01*
X2479000D02*
G03*
X2509000Y1586000I0J30000D01*
G01*
Y1886000D01*
X1279000Y1916000D02*
X2479000D01*
X1249000Y1586000D02*
Y1886000D01*
X1279000Y1556000D02*
X2479000D01*
X2479274Y1176274D02*
G03*
X2509274Y1206274I0J30000D01*
G01*
X1249274D02*
G03*
X1279274Y1176274I30000J0D01*
G01*
Y1536274D02*
G03*
X1249274Y1506274I0J-30000D01*
G01*
X2509274D02*
G03*
X2479274Y1536274I-30000J0D01*
G01*
X1249274Y1206274D02*
Y1506274D01*
X1279274Y1176274D02*
X2479274D01*
X1279274Y1536274D02*
X2479274D01*
X2509274Y1206274D02*
Y1506274D01*
D28*
X2446903Y1608496D02*
X2458217Y1619810D01*
X2441246Y1614153D02*
X2452560Y1625467D01*
X2441246Y1614153D02*
X2446903Y1608496D01*
X2452560Y1625467D02*
X2458217Y1619810D01*
X2416903Y1608496D02*
X2428217Y1619810D01*
X2411246Y1614153D02*
X2422560Y1625467D01*
X2411246Y1614153D02*
X2416903Y1608496D01*
X2422560Y1625467D02*
X2428217Y1619810D01*
X2386903Y1608496D02*
X2398217Y1619810D01*
X2381246Y1614153D02*
X2392560Y1625467D01*
X2381246Y1614153D02*
X2386903Y1608496D01*
X2392560Y1625467D02*
X2398217Y1619810D01*
X2356903Y1608496D02*
X2368217Y1619810D01*
X2351246Y1614153D02*
X2362560Y1625467D01*
X2351246Y1614153D02*
X2356903Y1608496D01*
X2362560Y1625467D02*
X2368217Y1619810D01*
X2326903Y1608496D02*
X2338217Y1619810D01*
X2321246Y1614153D02*
X2332560Y1625467D01*
X2321246Y1614153D02*
X2326903Y1608496D01*
X2332560Y1625467D02*
X2338217Y1619810D01*
X2296903Y1608496D02*
X2308217Y1619810D01*
X2291246Y1614153D02*
X2302560Y1625467D01*
X2291246Y1614153D02*
X2296903Y1608496D01*
X2302560Y1625467D02*
X2308217Y1619810D01*
X2266903Y1608496D02*
X2278217Y1619810D01*
X2261246Y1614153D02*
X2272560Y1625467D01*
X2261246Y1614153D02*
X2266903Y1608496D01*
X2272560Y1625467D02*
X2278217Y1619810D01*
X2236903Y1608496D02*
X2248217Y1619810D01*
X2231246Y1614153D02*
X2242560Y1625467D01*
X2231246Y1614153D02*
X2236903Y1608496D01*
X2242560Y1625467D02*
X2248217Y1619810D01*
X2206903Y1608496D02*
X2218217Y1619810D01*
X2201246Y1614153D02*
X2212560Y1625467D01*
X2201246Y1614153D02*
X2206903Y1608496D01*
X2212560Y1625467D02*
X2218217Y1619810D01*
X2176903Y1608496D02*
X2188217Y1619810D01*
X2171246Y1614153D02*
X2182560Y1625467D01*
X2171246Y1614153D02*
X2176903Y1608496D01*
X2182560Y1625467D02*
X2188217Y1619810D01*
X2146903Y1608496D02*
X2158217Y1619810D01*
X2141246Y1614153D02*
X2152560Y1625467D01*
X2141246Y1614153D02*
X2146903Y1608496D01*
X2152560Y1625467D02*
X2158217Y1619810D01*
X2116903Y1608496D02*
X2128217Y1619810D01*
X2111246Y1614153D02*
X2122560Y1625467D01*
X2111246Y1614153D02*
X2116903Y1608496D01*
X2122560Y1625467D02*
X2128217Y1619810D01*
X2086903Y1608496D02*
X2098217Y1619810D01*
X2081246Y1614153D02*
X2092560Y1625467D01*
X2081246Y1614153D02*
X2086903Y1608496D01*
X2092560Y1625467D02*
X2098217Y1619810D01*
X2056903Y1608496D02*
X2068217Y1619810D01*
X2051246Y1614153D02*
X2062560Y1625467D01*
X2051246Y1614153D02*
X2056903Y1608496D01*
X2062560Y1625467D02*
X2068217Y1619810D01*
X2026903Y1608496D02*
X2038217Y1619810D01*
X2021246Y1614153D02*
X2032560Y1625467D01*
X2021246Y1614153D02*
X2026903Y1608496D01*
X2032560Y1625467D02*
X2038217Y1619810D01*
X1996903Y1608496D02*
X2008217Y1619810D01*
X1991246Y1614153D02*
X2002560Y1625467D01*
X1991246Y1614153D02*
X1996903Y1608496D01*
X2002560Y1625467D02*
X2008217Y1619810D01*
X1966903Y1608496D02*
X1978217Y1619810D01*
X1961246Y1614153D02*
X1972560Y1625467D01*
X1961246Y1614153D02*
X1966903Y1608496D01*
X1972560Y1625467D02*
X1978217Y1619810D01*
X1936903Y1608496D02*
X1948217Y1619810D01*
X1931246Y1614153D02*
X1942560Y1625467D01*
X1931246Y1614153D02*
X1936903Y1608496D01*
X1942560Y1625467D02*
X1948217Y1619810D01*
X1906903Y1608496D02*
X1918217Y1619810D01*
X1901246Y1614153D02*
X1912560Y1625467D01*
X1901246Y1614153D02*
X1906903Y1608496D01*
X1912560Y1625467D02*
X1918217Y1619810D01*
X1876903Y1608496D02*
X1888217Y1619810D01*
X1871246Y1614153D02*
X1882560Y1625467D01*
X1871246Y1614153D02*
X1876903Y1608496D01*
X1882560Y1625467D02*
X1888217Y1619810D01*
X1846903Y1608496D02*
X1858217Y1619810D01*
X1841246Y1614153D02*
X1852560Y1625467D01*
X1841246Y1614153D02*
X1846903Y1608496D01*
X1852560Y1625467D02*
X1858217Y1619810D01*
X1816903Y1608496D02*
X1828217Y1619810D01*
X1811246Y1614153D02*
X1822560Y1625467D01*
X1811246Y1614153D02*
X1816903Y1608496D01*
X1822560Y1625467D02*
X1828217Y1619810D01*
X1786903Y1608496D02*
X1798217Y1619810D01*
X1781246Y1614153D02*
X1792560Y1625467D01*
X1781246Y1614153D02*
X1786903Y1608496D01*
X1792560Y1625467D02*
X1798217Y1619810D01*
X1756903Y1608496D02*
X1768217Y1619810D01*
X1751246Y1614153D02*
X1762560Y1625467D01*
X1751246Y1614153D02*
X1756903Y1608496D01*
X1762560Y1625467D02*
X1768217Y1619810D01*
X1726903Y1608496D02*
X1738217Y1619810D01*
X1721246Y1614153D02*
X1732560Y1625467D01*
X1721246Y1614153D02*
X1726903Y1608496D01*
X1732560Y1625467D02*
X1738217Y1619810D01*
X1696903Y1608496D02*
X1708217Y1619810D01*
X1691246Y1614153D02*
X1702560Y1625467D01*
X1691246Y1614153D02*
X1696903Y1608496D01*
X1702560Y1625467D02*
X1708217Y1619810D01*
X1666903Y1608496D02*
X1678217Y1619810D01*
X1661246Y1614153D02*
X1672560Y1625467D01*
X1661246Y1614153D02*
X1666903Y1608496D01*
X1672560Y1625467D02*
X1678217Y1619810D01*
X1636903Y1608496D02*
X1648217Y1619810D01*
X1631246Y1614153D02*
X1642560Y1625467D01*
X1631246Y1614153D02*
X1636903Y1608496D01*
X1642560Y1625467D02*
X1648217Y1619810D01*
X1606903Y1608496D02*
X1618217Y1619810D01*
X1601246Y1614153D02*
X1612560Y1625467D01*
X1601246Y1614153D02*
X1606903Y1608496D01*
X1612560Y1625467D02*
X1618217Y1619810D01*
X1576903Y1608496D02*
X1588217Y1619810D01*
X1571246Y1614153D02*
X1582560Y1625467D01*
X1571246Y1614153D02*
X1576903Y1608496D01*
X1582560Y1625467D02*
X1588217Y1619810D01*
X1546903Y1608496D02*
X1558217Y1619810D01*
X1541246Y1614153D02*
X1552560Y1625467D01*
X1541246Y1614153D02*
X1546903Y1608496D01*
X1552560Y1625467D02*
X1558217Y1619810D01*
X1516903Y1608496D02*
X1528217Y1619810D01*
X1511246Y1614153D02*
X1522560Y1625467D01*
X1511246Y1614153D02*
X1516903Y1608496D01*
X1522560Y1625467D02*
X1528217Y1619810D01*
X1486903Y1608496D02*
X1498217Y1619810D01*
X1481246Y1614153D02*
X1492560Y1625467D01*
X1481246Y1614153D02*
X1486903Y1608496D01*
X1492560Y1625467D02*
X1498217Y1619810D01*
X1456903Y1608496D02*
X1468217Y1619810D01*
X1451246Y1614153D02*
X1462560Y1625467D01*
X1451246Y1614153D02*
X1456903Y1608496D01*
X1462560Y1625467D02*
X1468217Y1619810D01*
X1426903Y1608496D02*
X1438217Y1619810D01*
X1421246Y1614153D02*
X1432560Y1625467D01*
X1421246Y1614153D02*
X1426903Y1608496D01*
X1432560Y1625467D02*
X1438217Y1619810D01*
X1396903Y1608496D02*
X1408217Y1619810D01*
X1391246Y1614153D02*
X1402560Y1625467D01*
X1391246Y1614153D02*
X1396903Y1608496D01*
X1402560Y1625467D02*
X1408217Y1619810D01*
X1366903Y1608496D02*
X1378217Y1619810D01*
X1361246Y1614153D02*
X1372560Y1625467D01*
X1361246Y1614153D02*
X1366903Y1608496D01*
X1372560Y1625467D02*
X1378217Y1619810D01*
X1336903Y1608496D02*
X1348217Y1619810D01*
X1331246Y1614153D02*
X1342560Y1625467D01*
X1331246Y1614153D02*
X1336903Y1608496D01*
X1342560Y1625467D02*
X1348217Y1619810D01*
X1306903Y1608496D02*
X1318217Y1619810D01*
X1301246Y1614153D02*
X1312560Y1625467D01*
X1301246Y1614153D02*
X1306903Y1608496D01*
X1312560Y1625467D02*
X1318217Y1619810D01*
X2446903Y1638496D02*
X2458217Y1649810D01*
X2441246Y1644153D02*
X2452560Y1655467D01*
X2441246Y1644153D02*
X2446903Y1638496D01*
X2452560Y1655467D02*
X2458217Y1649810D01*
X2416903Y1638496D02*
X2428217Y1649810D01*
X2411246Y1644153D02*
X2422560Y1655467D01*
X2411246Y1644153D02*
X2416903Y1638496D01*
X2422560Y1655467D02*
X2428217Y1649810D01*
X2386903Y1638496D02*
X2398217Y1649810D01*
X2381246Y1644153D02*
X2392560Y1655467D01*
X2381246Y1644153D02*
X2386903Y1638496D01*
X2392560Y1655467D02*
X2398217Y1649810D01*
X2356903Y1638496D02*
X2368217Y1649810D01*
X2351246Y1644153D02*
X2362560Y1655467D01*
X2351246Y1644153D02*
X2356903Y1638496D01*
X2362560Y1655467D02*
X2368217Y1649810D01*
X2326903Y1638496D02*
X2338217Y1649810D01*
X2321246Y1644153D02*
X2332560Y1655467D01*
X2321246Y1644153D02*
X2326903Y1638496D01*
X2332560Y1655467D02*
X2338217Y1649810D01*
X2296903Y1638496D02*
X2308217Y1649810D01*
X2291246Y1644153D02*
X2302560Y1655467D01*
X2291246Y1644153D02*
X2296903Y1638496D01*
X2302560Y1655467D02*
X2308217Y1649810D01*
X2266903Y1638496D02*
X2278217Y1649810D01*
X2261246Y1644153D02*
X2272560Y1655467D01*
X2261246Y1644153D02*
X2266903Y1638496D01*
X2272560Y1655467D02*
X2278217Y1649810D01*
X2236903Y1638496D02*
X2248217Y1649810D01*
X2231246Y1644153D02*
X2242560Y1655467D01*
X2231246Y1644153D02*
X2236903Y1638496D01*
X2242560Y1655467D02*
X2248217Y1649810D01*
X2206903Y1638496D02*
X2218217Y1649810D01*
X2201246Y1644153D02*
X2212560Y1655467D01*
X2201246Y1644153D02*
X2206903Y1638496D01*
X2212560Y1655467D02*
X2218217Y1649810D01*
X2176903Y1638496D02*
X2188217Y1649810D01*
X2171246Y1644153D02*
X2182560Y1655467D01*
X2171246Y1644153D02*
X2176903Y1638496D01*
X2182560Y1655467D02*
X2188217Y1649810D01*
X2146903Y1638496D02*
X2158217Y1649810D01*
X2141246Y1644153D02*
X2152560Y1655467D01*
X2141246Y1644153D02*
X2146903Y1638496D01*
X2152560Y1655467D02*
X2158217Y1649810D01*
X2116903Y1638496D02*
X2128217Y1649810D01*
X2111246Y1644153D02*
X2122560Y1655467D01*
X2111246Y1644153D02*
X2116903Y1638496D01*
X2122560Y1655467D02*
X2128217Y1649810D01*
X2086903Y1638496D02*
X2098217Y1649810D01*
X2081246Y1644153D02*
X2092560Y1655467D01*
X2081246Y1644153D02*
X2086903Y1638496D01*
X2092560Y1655467D02*
X2098217Y1649810D01*
X2056903Y1638496D02*
X2068217Y1649810D01*
X2051246Y1644153D02*
X2062560Y1655467D01*
X2051246Y1644153D02*
X2056903Y1638496D01*
X2062560Y1655467D02*
X2068217Y1649810D01*
X2026903Y1638496D02*
X2038217Y1649810D01*
X2021246Y1644153D02*
X2032560Y1655467D01*
X2021246Y1644153D02*
X2026903Y1638496D01*
X2032560Y1655467D02*
X2038217Y1649810D01*
X1996903Y1638496D02*
X2008217Y1649810D01*
X1991246Y1644153D02*
X2002560Y1655467D01*
X1991246Y1644153D02*
X1996903Y1638496D01*
X2002560Y1655467D02*
X2008217Y1649810D01*
X1966903Y1638496D02*
X1978217Y1649810D01*
X1961246Y1644153D02*
X1972560Y1655467D01*
X1961246Y1644153D02*
X1966903Y1638496D01*
X1972560Y1655467D02*
X1978217Y1649810D01*
X1936903Y1638496D02*
X1948217Y1649810D01*
X1931246Y1644153D02*
X1942560Y1655467D01*
X1931246Y1644153D02*
X1936903Y1638496D01*
X1942560Y1655467D02*
X1948217Y1649810D01*
X1906903Y1638496D02*
X1918217Y1649810D01*
X1901246Y1644153D02*
X1912560Y1655467D01*
X1901246Y1644153D02*
X1906903Y1638496D01*
X1912560Y1655467D02*
X1918217Y1649810D01*
X1876903Y1638496D02*
X1888217Y1649810D01*
X1871246Y1644153D02*
X1882560Y1655467D01*
X1871246Y1644153D02*
X1876903Y1638496D01*
X1882560Y1655467D02*
X1888217Y1649810D01*
X1846903Y1638496D02*
X1858217Y1649810D01*
X1841246Y1644153D02*
X1852560Y1655467D01*
X1841246Y1644153D02*
X1846903Y1638496D01*
X1852560Y1655467D02*
X1858217Y1649810D01*
X1816903Y1638496D02*
X1828217Y1649810D01*
X1811246Y1644153D02*
X1822560Y1655467D01*
X1811246Y1644153D02*
X1816903Y1638496D01*
X1822560Y1655467D02*
X1828217Y1649810D01*
X1786903Y1638496D02*
X1798217Y1649810D01*
X1781246Y1644153D02*
X1792560Y1655467D01*
X1781246Y1644153D02*
X1786903Y1638496D01*
X1792560Y1655467D02*
X1798217Y1649810D01*
X1756903Y1638496D02*
X1768217Y1649810D01*
X1751246Y1644153D02*
X1762560Y1655467D01*
X1751246Y1644153D02*
X1756903Y1638496D01*
X1762560Y1655467D02*
X1768217Y1649810D01*
X1726903Y1638496D02*
X1738217Y1649810D01*
X1721246Y1644153D02*
X1732560Y1655467D01*
X1721246Y1644153D02*
X1726903Y1638496D01*
X1732560Y1655467D02*
X1738217Y1649810D01*
X1696903Y1638496D02*
X1708217Y1649810D01*
X1691246Y1644153D02*
X1702560Y1655467D01*
X1691246Y1644153D02*
X1696903Y1638496D01*
X1702560Y1655467D02*
X1708217Y1649810D01*
X1666903Y1638496D02*
X1678217Y1649810D01*
X1661246Y1644153D02*
X1672560Y1655467D01*
X1661246Y1644153D02*
X1666903Y1638496D01*
X1672560Y1655467D02*
X1678217Y1649810D01*
X1636903Y1638496D02*
X1648217Y1649810D01*
X1631246Y1644153D02*
X1642560Y1655467D01*
X1631246Y1644153D02*
X1636903Y1638496D01*
X1642560Y1655467D02*
X1648217Y1649810D01*
X1606903Y1638496D02*
X1618217Y1649810D01*
X1601246Y1644153D02*
X1612560Y1655467D01*
X1601246Y1644153D02*
X1606903Y1638496D01*
X1612560Y1655467D02*
X1618217Y1649810D01*
X1576903Y1638496D02*
X1588217Y1649810D01*
X1571246Y1644153D02*
X1582560Y1655467D01*
X1571246Y1644153D02*
X1576903Y1638496D01*
X1582560Y1655467D02*
X1588217Y1649810D01*
X1546903Y1638496D02*
X1558217Y1649810D01*
X1541246Y1644153D02*
X1552560Y1655467D01*
X1541246Y1644153D02*
X1546903Y1638496D01*
X1552560Y1655467D02*
X1558217Y1649810D01*
X1516903Y1638496D02*
X1528217Y1649810D01*
X1511246Y1644153D02*
X1522560Y1655467D01*
X1511246Y1644153D02*
X1516903Y1638496D01*
X1522560Y1655467D02*
X1528217Y1649810D01*
X1486903Y1638496D02*
X1498217Y1649810D01*
X1481246Y1644153D02*
X1492560Y1655467D01*
X1481246Y1644153D02*
X1486903Y1638496D01*
X1492560Y1655467D02*
X1498217Y1649810D01*
X1456903Y1638496D02*
X1468217Y1649810D01*
X1451246Y1644153D02*
X1462560Y1655467D01*
X1451246Y1644153D02*
X1456903Y1638496D01*
X1462560Y1655467D02*
X1468217Y1649810D01*
X1426903Y1638496D02*
X1438217Y1649810D01*
X1421246Y1644153D02*
X1432560Y1655467D01*
X1421246Y1644153D02*
X1426903Y1638496D01*
X1432560Y1655467D02*
X1438217Y1649810D01*
X1396903Y1638496D02*
X1408217Y1649810D01*
X1391246Y1644153D02*
X1402560Y1655467D01*
X1391246Y1644153D02*
X1396903Y1638496D01*
X1402560Y1655467D02*
X1408217Y1649810D01*
X1366903Y1638496D02*
X1378217Y1649810D01*
X1361246Y1644153D02*
X1372560Y1655467D01*
X1361246Y1644153D02*
X1366903Y1638496D01*
X1372560Y1655467D02*
X1378217Y1649810D01*
X1336903Y1638496D02*
X1348217Y1649810D01*
X1331246Y1644153D02*
X1342560Y1655467D01*
X1331246Y1644153D02*
X1336903Y1638496D01*
X1342560Y1655467D02*
X1348217Y1649810D01*
X1306903Y1638496D02*
X1318217Y1649810D01*
X1301246Y1644153D02*
X1312560Y1655467D01*
X1301246Y1644153D02*
X1306903Y1638496D01*
X1312560Y1655467D02*
X1318217Y1649810D01*
X2446903Y1668496D02*
X2458217Y1679810D01*
X2441246Y1674153D02*
X2452560Y1685467D01*
X2441246Y1674153D02*
X2446903Y1668496D01*
X2452560Y1685467D02*
X2458217Y1679810D01*
X2416903Y1668496D02*
X2428217Y1679810D01*
X2411246Y1674153D02*
X2422560Y1685467D01*
X2411246Y1674153D02*
X2416903Y1668496D01*
X2422560Y1685467D02*
X2428217Y1679810D01*
X2386903Y1668496D02*
X2398217Y1679810D01*
X2381246Y1674153D02*
X2392560Y1685467D01*
X2381246Y1674153D02*
X2386903Y1668496D01*
X2392560Y1685467D02*
X2398217Y1679810D01*
X2356903Y1668496D02*
X2368217Y1679810D01*
X2351246Y1674153D02*
X2362560Y1685467D01*
X2351246Y1674153D02*
X2356903Y1668496D01*
X2362560Y1685467D02*
X2368217Y1679810D01*
X2326903Y1668496D02*
X2338217Y1679810D01*
X2321246Y1674153D02*
X2332560Y1685467D01*
X2321246Y1674153D02*
X2326903Y1668496D01*
X2332560Y1685467D02*
X2338217Y1679810D01*
X2296903Y1668496D02*
X2308217Y1679810D01*
X2291246Y1674153D02*
X2302560Y1685467D01*
X2291246Y1674153D02*
X2296903Y1668496D01*
X2302560Y1685467D02*
X2308217Y1679810D01*
X2266903Y1668496D02*
X2278217Y1679810D01*
X2261246Y1674153D02*
X2272560Y1685467D01*
X2261246Y1674153D02*
X2266903Y1668496D01*
X2272560Y1685467D02*
X2278217Y1679810D01*
X2236903Y1668496D02*
X2248217Y1679810D01*
X2231246Y1674153D02*
X2242560Y1685467D01*
X2231246Y1674153D02*
X2236903Y1668496D01*
X2242560Y1685467D02*
X2248217Y1679810D01*
X2206903Y1668496D02*
X2218217Y1679810D01*
X2201246Y1674153D02*
X2212560Y1685467D01*
X2201246Y1674153D02*
X2206903Y1668496D01*
X2212560Y1685467D02*
X2218217Y1679810D01*
X2176903Y1668496D02*
X2188217Y1679810D01*
X2171246Y1674153D02*
X2182560Y1685467D01*
X2171246Y1674153D02*
X2176903Y1668496D01*
X2182560Y1685467D02*
X2188217Y1679810D01*
X2146903Y1668496D02*
X2158217Y1679810D01*
X2141246Y1674153D02*
X2152560Y1685467D01*
X2141246Y1674153D02*
X2146903Y1668496D01*
X2152560Y1685467D02*
X2158217Y1679810D01*
X2116903Y1668496D02*
X2128217Y1679810D01*
X2111246Y1674153D02*
X2122560Y1685467D01*
X2111246Y1674153D02*
X2116903Y1668496D01*
X2122560Y1685467D02*
X2128217Y1679810D01*
X2086903Y1668496D02*
X2098217Y1679810D01*
X2081246Y1674153D02*
X2092560Y1685467D01*
X2081246Y1674153D02*
X2086903Y1668496D01*
X2092560Y1685467D02*
X2098217Y1679810D01*
X2056903Y1668496D02*
X2068217Y1679810D01*
X2051246Y1674153D02*
X2062560Y1685467D01*
X2051246Y1674153D02*
X2056903Y1668496D01*
X2062560Y1685467D02*
X2068217Y1679810D01*
X2026903Y1668496D02*
X2038217Y1679810D01*
X2021246Y1674153D02*
X2032560Y1685467D01*
X2021246Y1674153D02*
X2026903Y1668496D01*
X2032560Y1685467D02*
X2038217Y1679810D01*
X1996903Y1668496D02*
X2008217Y1679810D01*
X1991246Y1674153D02*
X2002560Y1685467D01*
X1991246Y1674153D02*
X1996903Y1668496D01*
X2002560Y1685467D02*
X2008217Y1679810D01*
X1966903Y1668496D02*
X1978217Y1679810D01*
X1961246Y1674153D02*
X1972560Y1685467D01*
X1961246Y1674153D02*
X1966903Y1668496D01*
X1972560Y1685467D02*
X1978217Y1679810D01*
X1936903Y1668496D02*
X1948217Y1679810D01*
X1931246Y1674153D02*
X1942560Y1685467D01*
X1931246Y1674153D02*
X1936903Y1668496D01*
X1942560Y1685467D02*
X1948217Y1679810D01*
X1906903Y1668496D02*
X1918217Y1679810D01*
X1901246Y1674153D02*
X1912560Y1685467D01*
X1901246Y1674153D02*
X1906903Y1668496D01*
X1912560Y1685467D02*
X1918217Y1679810D01*
X1876903Y1668496D02*
X1888217Y1679810D01*
X1871246Y1674153D02*
X1882560Y1685467D01*
X1871246Y1674153D02*
X1876903Y1668496D01*
X1882560Y1685467D02*
X1888217Y1679810D01*
X1846903Y1668496D02*
X1858217Y1679810D01*
X1841246Y1674153D02*
X1852560Y1685467D01*
X1841246Y1674153D02*
X1846903Y1668496D01*
X1852560Y1685467D02*
X1858217Y1679810D01*
X1816903Y1668496D02*
X1828217Y1679810D01*
X1811246Y1674153D02*
X1822560Y1685467D01*
X1811246Y1674153D02*
X1816903Y1668496D01*
X1822560Y1685467D02*
X1828217Y1679810D01*
X1786903Y1668496D02*
X1798217Y1679810D01*
X1781246Y1674153D02*
X1792560Y1685467D01*
X1781246Y1674153D02*
X1786903Y1668496D01*
X1792560Y1685467D02*
X1798217Y1679810D01*
X1756903Y1668496D02*
X1768217Y1679810D01*
X1751246Y1674153D02*
X1762560Y1685467D01*
X1751246Y1674153D02*
X1756903Y1668496D01*
X1762560Y1685467D02*
X1768217Y1679810D01*
X1726903Y1668496D02*
X1738217Y1679810D01*
X1721246Y1674153D02*
X1732560Y1685467D01*
X1721246Y1674153D02*
X1726903Y1668496D01*
X1732560Y1685467D02*
X1738217Y1679810D01*
X1696903Y1668496D02*
X1708217Y1679810D01*
X1691246Y1674153D02*
X1702560Y1685467D01*
X1691246Y1674153D02*
X1696903Y1668496D01*
X1702560Y1685467D02*
X1708217Y1679810D01*
X1666903Y1668496D02*
X1678217Y1679810D01*
X1661246Y1674153D02*
X1672560Y1685467D01*
X1661246Y1674153D02*
X1666903Y1668496D01*
X1672560Y1685467D02*
X1678217Y1679810D01*
X1636903Y1668496D02*
X1648217Y1679810D01*
X1631246Y1674153D02*
X1642560Y1685467D01*
X1631246Y1674153D02*
X1636903Y1668496D01*
X1642560Y1685467D02*
X1648217Y1679810D01*
X1606903Y1668496D02*
X1618217Y1679810D01*
X1601246Y1674153D02*
X1612560Y1685467D01*
X1601246Y1674153D02*
X1606903Y1668496D01*
X1612560Y1685467D02*
X1618217Y1679810D01*
X1576903Y1668496D02*
X1588217Y1679810D01*
X1571246Y1674153D02*
X1582560Y1685467D01*
X1571246Y1674153D02*
X1576903Y1668496D01*
X1582560Y1685467D02*
X1588217Y1679810D01*
X1546903Y1668496D02*
X1558217Y1679810D01*
X1541246Y1674153D02*
X1552560Y1685467D01*
X1541246Y1674153D02*
X1546903Y1668496D01*
X1552560Y1685467D02*
X1558217Y1679810D01*
X1516903Y1668496D02*
X1528217Y1679810D01*
X1511246Y1674153D02*
X1522560Y1685467D01*
X1511246Y1674153D02*
X1516903Y1668496D01*
X1522560Y1685467D02*
X1528217Y1679810D01*
X1486903Y1668496D02*
X1498217Y1679810D01*
X1481246Y1674153D02*
X1492560Y1685467D01*
X1481246Y1674153D02*
X1486903Y1668496D01*
X1492560Y1685467D02*
X1498217Y1679810D01*
X1456903Y1668496D02*
X1468217Y1679810D01*
X1451246Y1674153D02*
X1462560Y1685467D01*
X1451246Y1674153D02*
X1456903Y1668496D01*
X1462560Y1685467D02*
X1468217Y1679810D01*
X1426903Y1668496D02*
X1438217Y1679810D01*
X1421246Y1674153D02*
X1432560Y1685467D01*
X1421246Y1674153D02*
X1426903Y1668496D01*
X1432560Y1685467D02*
X1438217Y1679810D01*
X1396903Y1668496D02*
X1408217Y1679810D01*
X1391246Y1674153D02*
X1402560Y1685467D01*
X1391246Y1674153D02*
X1396903Y1668496D01*
X1402560Y1685467D02*
X1408217Y1679810D01*
X1366903Y1668496D02*
X1378217Y1679810D01*
X1361246Y1674153D02*
X1372560Y1685467D01*
X1361246Y1674153D02*
X1366903Y1668496D01*
X1372560Y1685467D02*
X1378217Y1679810D01*
X1336903Y1668496D02*
X1348217Y1679810D01*
X1331246Y1674153D02*
X1342560Y1685467D01*
X1331246Y1674153D02*
X1336903Y1668496D01*
X1342560Y1685467D02*
X1348217Y1679810D01*
X1306903Y1668496D02*
X1318217Y1679810D01*
X1301246Y1674153D02*
X1312560Y1685467D01*
X1301246Y1674153D02*
X1306903Y1668496D01*
X1312560Y1685467D02*
X1318217Y1679810D01*
X2446903Y1698496D02*
X2458217Y1709810D01*
X2441246Y1704153D02*
X2452560Y1715467D01*
X2441246Y1704153D02*
X2446903Y1698496D01*
X2452560Y1715467D02*
X2458217Y1709810D01*
X2416903Y1698496D02*
X2428217Y1709810D01*
X2411246Y1704153D02*
X2422560Y1715467D01*
X2411246Y1704153D02*
X2416903Y1698496D01*
X2422560Y1715467D02*
X2428217Y1709810D01*
X2386903Y1698496D02*
X2398217Y1709810D01*
X2381246Y1704153D02*
X2392560Y1715467D01*
X2381246Y1704153D02*
X2386903Y1698496D01*
X2392560Y1715467D02*
X2398217Y1709810D01*
X2356903Y1698496D02*
X2368217Y1709810D01*
X2351246Y1704153D02*
X2362560Y1715467D01*
X2351246Y1704153D02*
X2356903Y1698496D01*
X2362560Y1715467D02*
X2368217Y1709810D01*
X2326903Y1698496D02*
X2338217Y1709810D01*
X2321246Y1704153D02*
X2332560Y1715467D01*
X2321246Y1704153D02*
X2326903Y1698496D01*
X2332560Y1715467D02*
X2338217Y1709810D01*
X2296903Y1698496D02*
X2308217Y1709810D01*
X2291246Y1704153D02*
X2302560Y1715467D01*
X2291246Y1704153D02*
X2296903Y1698496D01*
X2302560Y1715467D02*
X2308217Y1709810D01*
X2266903Y1698496D02*
X2278217Y1709810D01*
X2261246Y1704153D02*
X2272560Y1715467D01*
X2261246Y1704153D02*
X2266903Y1698496D01*
X2272560Y1715467D02*
X2278217Y1709810D01*
X2236903Y1698496D02*
X2248217Y1709810D01*
X2231246Y1704153D02*
X2242560Y1715467D01*
X2231246Y1704153D02*
X2236903Y1698496D01*
X2242560Y1715467D02*
X2248217Y1709810D01*
X2206903Y1698496D02*
X2218217Y1709810D01*
X2201246Y1704153D02*
X2212560Y1715467D01*
X2201246Y1704153D02*
X2206903Y1698496D01*
X2212560Y1715467D02*
X2218217Y1709810D01*
X2176903Y1698496D02*
X2188217Y1709810D01*
X2171246Y1704153D02*
X2182560Y1715467D01*
X2171246Y1704153D02*
X2176903Y1698496D01*
X2182560Y1715467D02*
X2188217Y1709810D01*
X2146903Y1698496D02*
X2158217Y1709810D01*
X2141246Y1704153D02*
X2152560Y1715467D01*
X2141246Y1704153D02*
X2146903Y1698496D01*
X2152560Y1715467D02*
X2158217Y1709810D01*
X2116903Y1698496D02*
X2128217Y1709810D01*
X2111246Y1704153D02*
X2122560Y1715467D01*
X2111246Y1704153D02*
X2116903Y1698496D01*
X2122560Y1715467D02*
X2128217Y1709810D01*
X2086903Y1698496D02*
X2098217Y1709810D01*
X2081246Y1704153D02*
X2092560Y1715467D01*
X2081246Y1704153D02*
X2086903Y1698496D01*
X2092560Y1715467D02*
X2098217Y1709810D01*
X2056903Y1698496D02*
X2068217Y1709810D01*
X2051246Y1704153D02*
X2062560Y1715467D01*
X2051246Y1704153D02*
X2056903Y1698496D01*
X2062560Y1715467D02*
X2068217Y1709810D01*
X2026903Y1698496D02*
X2038217Y1709810D01*
X2021246Y1704153D02*
X2032560Y1715467D01*
X2021246Y1704153D02*
X2026903Y1698496D01*
X2032560Y1715467D02*
X2038217Y1709810D01*
X1996903Y1698496D02*
X2008217Y1709810D01*
X1991246Y1704153D02*
X2002560Y1715467D01*
X1991246Y1704153D02*
X1996903Y1698496D01*
X2002560Y1715467D02*
X2008217Y1709810D01*
X1966903Y1698496D02*
X1978217Y1709810D01*
X1961246Y1704153D02*
X1972560Y1715467D01*
X1961246Y1704153D02*
X1966903Y1698496D01*
X1972560Y1715467D02*
X1978217Y1709810D01*
X1936903Y1698496D02*
X1948217Y1709810D01*
X1931246Y1704153D02*
X1942560Y1715467D01*
X1931246Y1704153D02*
X1936903Y1698496D01*
X1942560Y1715467D02*
X1948217Y1709810D01*
X1906903Y1698496D02*
X1918217Y1709810D01*
X1901246Y1704153D02*
X1912560Y1715467D01*
X1901246Y1704153D02*
X1906903Y1698496D01*
X1912560Y1715467D02*
X1918217Y1709810D01*
X1876903Y1698496D02*
X1888217Y1709810D01*
X1871246Y1704153D02*
X1882560Y1715467D01*
X1871246Y1704153D02*
X1876903Y1698496D01*
X1882560Y1715467D02*
X1888217Y1709810D01*
X1846903Y1698496D02*
X1858217Y1709810D01*
X1841246Y1704153D02*
X1852560Y1715467D01*
X1841246Y1704153D02*
X1846903Y1698496D01*
X1852560Y1715467D02*
X1858217Y1709810D01*
X1816903Y1698496D02*
X1828217Y1709810D01*
X1811246Y1704153D02*
X1822560Y1715467D01*
X1811246Y1704153D02*
X1816903Y1698496D01*
X1822560Y1715467D02*
X1828217Y1709810D01*
X1786903Y1698496D02*
X1798217Y1709810D01*
X1781246Y1704153D02*
X1792560Y1715467D01*
X1781246Y1704153D02*
X1786903Y1698496D01*
X1792560Y1715467D02*
X1798217Y1709810D01*
X1756903Y1698496D02*
X1768217Y1709810D01*
X1751246Y1704153D02*
X1762560Y1715467D01*
X1751246Y1704153D02*
X1756903Y1698496D01*
X1762560Y1715467D02*
X1768217Y1709810D01*
X1726903Y1698496D02*
X1738217Y1709810D01*
X1721246Y1704153D02*
X1732560Y1715467D01*
X1721246Y1704153D02*
X1726903Y1698496D01*
X1732560Y1715467D02*
X1738217Y1709810D01*
X1696903Y1698496D02*
X1708217Y1709810D01*
X1691246Y1704153D02*
X1702560Y1715467D01*
X1691246Y1704153D02*
X1696903Y1698496D01*
X1702560Y1715467D02*
X1708217Y1709810D01*
X1666903Y1698496D02*
X1678217Y1709810D01*
X1661246Y1704153D02*
X1672560Y1715467D01*
X1661246Y1704153D02*
X1666903Y1698496D01*
X1672560Y1715467D02*
X1678217Y1709810D01*
X1636903Y1698496D02*
X1648217Y1709810D01*
X1631246Y1704153D02*
X1642560Y1715467D01*
X1631246Y1704153D02*
X1636903Y1698496D01*
X1642560Y1715467D02*
X1648217Y1709810D01*
X1606903Y1698496D02*
X1618217Y1709810D01*
X1601246Y1704153D02*
X1612560Y1715467D01*
X1601246Y1704153D02*
X1606903Y1698496D01*
X1612560Y1715467D02*
X1618217Y1709810D01*
X1576903Y1698496D02*
X1588217Y1709810D01*
X1571246Y1704153D02*
X1582560Y1715467D01*
X1571246Y1704153D02*
X1576903Y1698496D01*
X1582560Y1715467D02*
X1588217Y1709810D01*
X1546903Y1698496D02*
X1558217Y1709810D01*
X1541246Y1704153D02*
X1552560Y1715467D01*
X1541246Y1704153D02*
X1546903Y1698496D01*
X1552560Y1715467D02*
X1558217Y1709810D01*
X1516903Y1698496D02*
X1528217Y1709810D01*
X1511246Y1704153D02*
X1522560Y1715467D01*
X1511246Y1704153D02*
X1516903Y1698496D01*
X1522560Y1715467D02*
X1528217Y1709810D01*
X1486903Y1698496D02*
X1498217Y1709810D01*
X1481246Y1704153D02*
X1492560Y1715467D01*
X1481246Y1704153D02*
X1486903Y1698496D01*
X1492560Y1715467D02*
X1498217Y1709810D01*
X1456903Y1698496D02*
X1468217Y1709810D01*
X1451246Y1704153D02*
X1462560Y1715467D01*
X1451246Y1704153D02*
X1456903Y1698496D01*
X1462560Y1715467D02*
X1468217Y1709810D01*
X1426903Y1698496D02*
X1438217Y1709810D01*
X1421246Y1704153D02*
X1432560Y1715467D01*
X1421246Y1704153D02*
X1426903Y1698496D01*
X1432560Y1715467D02*
X1438217Y1709810D01*
X1396903Y1698496D02*
X1408217Y1709810D01*
X1391246Y1704153D02*
X1402560Y1715467D01*
X1391246Y1704153D02*
X1396903Y1698496D01*
X1402560Y1715467D02*
X1408217Y1709810D01*
X1366903Y1698496D02*
X1378217Y1709810D01*
X1361246Y1704153D02*
X1372560Y1715467D01*
X1361246Y1704153D02*
X1366903Y1698496D01*
X1372560Y1715467D02*
X1378217Y1709810D01*
X1336903Y1698496D02*
X1348217Y1709810D01*
X1331246Y1704153D02*
X1342560Y1715467D01*
X1331246Y1704153D02*
X1336903Y1698496D01*
X1342560Y1715467D02*
X1348217Y1709810D01*
X1306903Y1698496D02*
X1318217Y1709810D01*
X1301246Y1704153D02*
X1312560Y1715467D01*
X1301246Y1704153D02*
X1306903Y1698496D01*
X1312560Y1715467D02*
X1318217Y1709810D01*
X2446903Y1728496D02*
X2458217Y1739810D01*
X2441246Y1734153D02*
X2452560Y1745467D01*
X2441246Y1734153D02*
X2446903Y1728496D01*
X2452560Y1745467D02*
X2458217Y1739810D01*
X2416903Y1728496D02*
X2428217Y1739810D01*
X2411246Y1734153D02*
X2422560Y1745467D01*
X2411246Y1734153D02*
X2416903Y1728496D01*
X2422560Y1745467D02*
X2428217Y1739810D01*
X2386903Y1728496D02*
X2398217Y1739810D01*
X2381246Y1734153D02*
X2392560Y1745467D01*
X2381246Y1734153D02*
X2386903Y1728496D01*
X2392560Y1745467D02*
X2398217Y1739810D01*
X2356903Y1728496D02*
X2368217Y1739810D01*
X2351246Y1734153D02*
X2362560Y1745467D01*
X2351246Y1734153D02*
X2356903Y1728496D01*
X2362560Y1745467D02*
X2368217Y1739810D01*
X2326903Y1728496D02*
X2338217Y1739810D01*
X2321246Y1734153D02*
X2332560Y1745467D01*
X2321246Y1734153D02*
X2326903Y1728496D01*
X2332560Y1745467D02*
X2338217Y1739810D01*
X2296903Y1728496D02*
X2308217Y1739810D01*
X2291246Y1734153D02*
X2302560Y1745467D01*
X2291246Y1734153D02*
X2296903Y1728496D01*
X2302560Y1745467D02*
X2308217Y1739810D01*
X2266903Y1728496D02*
X2278217Y1739810D01*
X2261246Y1734153D02*
X2272560Y1745467D01*
X2261246Y1734153D02*
X2266903Y1728496D01*
X2272560Y1745467D02*
X2278217Y1739810D01*
X2236903Y1728496D02*
X2248217Y1739810D01*
X2231246Y1734153D02*
X2242560Y1745467D01*
X2231246Y1734153D02*
X2236903Y1728496D01*
X2242560Y1745467D02*
X2248217Y1739810D01*
X2206903Y1728496D02*
X2218217Y1739810D01*
X2201246Y1734153D02*
X2212560Y1745467D01*
X2201246Y1734153D02*
X2206903Y1728496D01*
X2212560Y1745467D02*
X2218217Y1739810D01*
X2176903Y1728496D02*
X2188217Y1739810D01*
X2171246Y1734153D02*
X2182560Y1745467D01*
X2171246Y1734153D02*
X2176903Y1728496D01*
X2182560Y1745467D02*
X2188217Y1739810D01*
X2146903Y1728496D02*
X2158217Y1739810D01*
X2141246Y1734153D02*
X2152560Y1745467D01*
X2141246Y1734153D02*
X2146903Y1728496D01*
X2152560Y1745467D02*
X2158217Y1739810D01*
X2116903Y1728496D02*
X2128217Y1739810D01*
X2111246Y1734153D02*
X2122560Y1745467D01*
X2111246Y1734153D02*
X2116903Y1728496D01*
X2122560Y1745467D02*
X2128217Y1739810D01*
X2086903Y1728496D02*
X2098217Y1739810D01*
X2081246Y1734153D02*
X2092560Y1745467D01*
X2081246Y1734153D02*
X2086903Y1728496D01*
X2092560Y1745467D02*
X2098217Y1739810D01*
X2056903Y1728496D02*
X2068217Y1739810D01*
X2051246Y1734153D02*
X2062560Y1745467D01*
X2051246Y1734153D02*
X2056903Y1728496D01*
X2062560Y1745467D02*
X2068217Y1739810D01*
X2026903Y1728496D02*
X2038217Y1739810D01*
X2021246Y1734153D02*
X2032560Y1745467D01*
X2021246Y1734153D02*
X2026903Y1728496D01*
X2032560Y1745467D02*
X2038217Y1739810D01*
X1996903Y1728496D02*
X2008217Y1739810D01*
X1991246Y1734153D02*
X2002560Y1745467D01*
X1991246Y1734153D02*
X1996903Y1728496D01*
X2002560Y1745467D02*
X2008217Y1739810D01*
X1966903Y1728496D02*
X1978217Y1739810D01*
X1961246Y1734153D02*
X1972560Y1745467D01*
X1961246Y1734153D02*
X1966903Y1728496D01*
X1972560Y1745467D02*
X1978217Y1739810D01*
X1936903Y1728496D02*
X1948217Y1739810D01*
X1931246Y1734153D02*
X1942560Y1745467D01*
X1931246Y1734153D02*
X1936903Y1728496D01*
X1942560Y1745467D02*
X1948217Y1739810D01*
X1906903Y1728496D02*
X1918217Y1739810D01*
X1901246Y1734153D02*
X1912560Y1745467D01*
X1901246Y1734153D02*
X1906903Y1728496D01*
X1912560Y1745467D02*
X1918217Y1739810D01*
X1876903Y1728496D02*
X1888217Y1739810D01*
X1871246Y1734153D02*
X1882560Y1745467D01*
X1871246Y1734153D02*
X1876903Y1728496D01*
X1882560Y1745467D02*
X1888217Y1739810D01*
X1846903Y1728496D02*
X1858217Y1739810D01*
X1841246Y1734153D02*
X1852560Y1745467D01*
X1841246Y1734153D02*
X1846903Y1728496D01*
X1852560Y1745467D02*
X1858217Y1739810D01*
X1816903Y1728496D02*
X1828217Y1739810D01*
X1811246Y1734153D02*
X1822560Y1745467D01*
X1811246Y1734153D02*
X1816903Y1728496D01*
X1822560Y1745467D02*
X1828217Y1739810D01*
X1786903Y1728496D02*
X1798217Y1739810D01*
X1781246Y1734153D02*
X1792560Y1745467D01*
X1781246Y1734153D02*
X1786903Y1728496D01*
X1792560Y1745467D02*
X1798217Y1739810D01*
X1756903Y1728496D02*
X1768217Y1739810D01*
X1751246Y1734153D02*
X1762560Y1745467D01*
X1751246Y1734153D02*
X1756903Y1728496D01*
X1762560Y1745467D02*
X1768217Y1739810D01*
X1726903Y1728496D02*
X1738217Y1739810D01*
X1721246Y1734153D02*
X1732560Y1745467D01*
X1721246Y1734153D02*
X1726903Y1728496D01*
X1732560Y1745467D02*
X1738217Y1739810D01*
X1696903Y1728496D02*
X1708217Y1739810D01*
X1691246Y1734153D02*
X1702560Y1745467D01*
X1691246Y1734153D02*
X1696903Y1728496D01*
X1702560Y1745467D02*
X1708217Y1739810D01*
X1666903Y1728496D02*
X1678217Y1739810D01*
X1661246Y1734153D02*
X1672560Y1745467D01*
X1661246Y1734153D02*
X1666903Y1728496D01*
X1672560Y1745467D02*
X1678217Y1739810D01*
X1636903Y1728496D02*
X1648217Y1739810D01*
X1631246Y1734153D02*
X1642560Y1745467D01*
X1631246Y1734153D02*
X1636903Y1728496D01*
X1642560Y1745467D02*
X1648217Y1739810D01*
X1606903Y1728496D02*
X1618217Y1739810D01*
X1601246Y1734153D02*
X1612560Y1745467D01*
X1601246Y1734153D02*
X1606903Y1728496D01*
X1612560Y1745467D02*
X1618217Y1739810D01*
X1576903Y1728496D02*
X1588217Y1739810D01*
X1571246Y1734153D02*
X1582560Y1745467D01*
X1571246Y1734153D02*
X1576903Y1728496D01*
X1582560Y1745467D02*
X1588217Y1739810D01*
X1546903Y1728496D02*
X1558217Y1739810D01*
X1541246Y1734153D02*
X1552560Y1745467D01*
X1541246Y1734153D02*
X1546903Y1728496D01*
X1552560Y1745467D02*
X1558217Y1739810D01*
X1516903Y1728496D02*
X1528217Y1739810D01*
X1511246Y1734153D02*
X1522560Y1745467D01*
X1511246Y1734153D02*
X1516903Y1728496D01*
X1522560Y1745467D02*
X1528217Y1739810D01*
X1486903Y1728496D02*
X1498217Y1739810D01*
X1481246Y1734153D02*
X1492560Y1745467D01*
X1481246Y1734153D02*
X1486903Y1728496D01*
X1492560Y1745467D02*
X1498217Y1739810D01*
X1456903Y1728496D02*
X1468217Y1739810D01*
X1451246Y1734153D02*
X1462560Y1745467D01*
X1451246Y1734153D02*
X1456903Y1728496D01*
X1462560Y1745467D02*
X1468217Y1739810D01*
X1426903Y1728496D02*
X1438217Y1739810D01*
X1421246Y1734153D02*
X1432560Y1745467D01*
X1421246Y1734153D02*
X1426903Y1728496D01*
X1432560Y1745467D02*
X1438217Y1739810D01*
X1396903Y1728496D02*
X1408217Y1739810D01*
X1391246Y1734153D02*
X1402560Y1745467D01*
X1391246Y1734153D02*
X1396903Y1728496D01*
X1402560Y1745467D02*
X1408217Y1739810D01*
X1366903Y1728496D02*
X1378217Y1739810D01*
X1361246Y1734153D02*
X1372560Y1745467D01*
X1361246Y1734153D02*
X1366903Y1728496D01*
X1372560Y1745467D02*
X1378217Y1739810D01*
X1336903Y1728496D02*
X1348217Y1739810D01*
X1331246Y1734153D02*
X1342560Y1745467D01*
X1331246Y1734153D02*
X1336903Y1728496D01*
X1342560Y1745467D02*
X1348217Y1739810D01*
X1306903Y1728496D02*
X1318217Y1739810D01*
X1301246Y1734153D02*
X1312560Y1745467D01*
X1301246Y1734153D02*
X1306903Y1728496D01*
X1312560Y1745467D02*
X1318217Y1739810D01*
X2446903Y1758496D02*
X2458217Y1769810D01*
X2441246Y1764153D02*
X2452560Y1775467D01*
X2441246Y1764153D02*
X2446903Y1758496D01*
X2452560Y1775467D02*
X2458217Y1769810D01*
X2416903Y1758496D02*
X2428217Y1769810D01*
X2411246Y1764153D02*
X2422560Y1775467D01*
X2411246Y1764153D02*
X2416903Y1758496D01*
X2422560Y1775467D02*
X2428217Y1769810D01*
X2386903Y1758496D02*
X2398217Y1769810D01*
X2381246Y1764153D02*
X2392560Y1775467D01*
X2381246Y1764153D02*
X2386903Y1758496D01*
X2392560Y1775467D02*
X2398217Y1769810D01*
X2356903Y1758496D02*
X2368217Y1769810D01*
X2351246Y1764153D02*
X2362560Y1775467D01*
X2351246Y1764153D02*
X2356903Y1758496D01*
X2362560Y1775467D02*
X2368217Y1769810D01*
X2326903Y1758496D02*
X2338217Y1769810D01*
X2321246Y1764153D02*
X2332560Y1775467D01*
X2321246Y1764153D02*
X2326903Y1758496D01*
X2332560Y1775467D02*
X2338217Y1769810D01*
X2296903Y1758496D02*
X2308217Y1769810D01*
X2291246Y1764153D02*
X2302560Y1775467D01*
X2291246Y1764153D02*
X2296903Y1758496D01*
X2302560Y1775467D02*
X2308217Y1769810D01*
X2266903Y1758496D02*
X2278217Y1769810D01*
X2261246Y1764153D02*
X2272560Y1775467D01*
X2261246Y1764153D02*
X2266903Y1758496D01*
X2272560Y1775467D02*
X2278217Y1769810D01*
X2236903Y1758496D02*
X2248217Y1769810D01*
X2231246Y1764153D02*
X2242560Y1775467D01*
X2231246Y1764153D02*
X2236903Y1758496D01*
X2242560Y1775467D02*
X2248217Y1769810D01*
X2206903Y1758496D02*
X2218217Y1769810D01*
X2201246Y1764153D02*
X2212560Y1775467D01*
X2201246Y1764153D02*
X2206903Y1758496D01*
X2212560Y1775467D02*
X2218217Y1769810D01*
X2176903Y1758496D02*
X2188217Y1769810D01*
X2171246Y1764153D02*
X2182560Y1775467D01*
X2171246Y1764153D02*
X2176903Y1758496D01*
X2182560Y1775467D02*
X2188217Y1769810D01*
X2146903Y1758496D02*
X2158217Y1769810D01*
X2141246Y1764153D02*
X2152560Y1775467D01*
X2141246Y1764153D02*
X2146903Y1758496D01*
X2152560Y1775467D02*
X2158217Y1769810D01*
X2116903Y1758496D02*
X2128217Y1769810D01*
X2111246Y1764153D02*
X2122560Y1775467D01*
X2111246Y1764153D02*
X2116903Y1758496D01*
X2122560Y1775467D02*
X2128217Y1769810D01*
X2086903Y1758496D02*
X2098217Y1769810D01*
X2081246Y1764153D02*
X2092560Y1775467D01*
X2081246Y1764153D02*
X2086903Y1758496D01*
X2092560Y1775467D02*
X2098217Y1769810D01*
X2056903Y1758496D02*
X2068217Y1769810D01*
X2051246Y1764153D02*
X2062560Y1775467D01*
X2051246Y1764153D02*
X2056903Y1758496D01*
X2062560Y1775467D02*
X2068217Y1769810D01*
X2026903Y1758496D02*
X2038217Y1769810D01*
X2021246Y1764153D02*
X2032560Y1775467D01*
X2021246Y1764153D02*
X2026903Y1758496D01*
X2032560Y1775467D02*
X2038217Y1769810D01*
X1996903Y1758496D02*
X2008217Y1769810D01*
X1991246Y1764153D02*
X2002560Y1775467D01*
X1991246Y1764153D02*
X1996903Y1758496D01*
X2002560Y1775467D02*
X2008217Y1769810D01*
X1966903Y1758496D02*
X1978217Y1769810D01*
X1961246Y1764153D02*
X1972560Y1775467D01*
X1961246Y1764153D02*
X1966903Y1758496D01*
X1972560Y1775467D02*
X1978217Y1769810D01*
X1936903Y1758496D02*
X1948217Y1769810D01*
X1931246Y1764153D02*
X1942560Y1775467D01*
X1931246Y1764153D02*
X1936903Y1758496D01*
X1942560Y1775467D02*
X1948217Y1769810D01*
X1906903Y1758496D02*
X1918217Y1769810D01*
X1901246Y1764153D02*
X1912560Y1775467D01*
X1901246Y1764153D02*
X1906903Y1758496D01*
X1912560Y1775467D02*
X1918217Y1769810D01*
X1876903Y1758496D02*
X1888217Y1769810D01*
X1871246Y1764153D02*
X1882560Y1775467D01*
X1871246Y1764153D02*
X1876903Y1758496D01*
X1882560Y1775467D02*
X1888217Y1769810D01*
X1846903Y1758496D02*
X1858217Y1769810D01*
X1841246Y1764153D02*
X1852560Y1775467D01*
X1841246Y1764153D02*
X1846903Y1758496D01*
X1852560Y1775467D02*
X1858217Y1769810D01*
X1816903Y1758496D02*
X1828217Y1769810D01*
X1811246Y1764153D02*
X1822560Y1775467D01*
X1811246Y1764153D02*
X1816903Y1758496D01*
X1822560Y1775467D02*
X1828217Y1769810D01*
X1786903Y1758496D02*
X1798217Y1769810D01*
X1781246Y1764153D02*
X1792560Y1775467D01*
X1781246Y1764153D02*
X1786903Y1758496D01*
X1792560Y1775467D02*
X1798217Y1769810D01*
X1756903Y1758496D02*
X1768217Y1769810D01*
X1751246Y1764153D02*
X1762560Y1775467D01*
X1751246Y1764153D02*
X1756903Y1758496D01*
X1762560Y1775467D02*
X1768217Y1769810D01*
X1726903Y1758496D02*
X1738217Y1769810D01*
X1721246Y1764153D02*
X1732560Y1775467D01*
X1721246Y1764153D02*
X1726903Y1758496D01*
X1732560Y1775467D02*
X1738217Y1769810D01*
X1696903Y1758496D02*
X1708217Y1769810D01*
X1691246Y1764153D02*
X1702560Y1775467D01*
X1691246Y1764153D02*
X1696903Y1758496D01*
X1702560Y1775467D02*
X1708217Y1769810D01*
X1666903Y1758496D02*
X1678217Y1769810D01*
X1661246Y1764153D02*
X1672560Y1775467D01*
X1661246Y1764153D02*
X1666903Y1758496D01*
X1672560Y1775467D02*
X1678217Y1769810D01*
X1636903Y1758496D02*
X1648217Y1769810D01*
X1631246Y1764153D02*
X1642560Y1775467D01*
X1631246Y1764153D02*
X1636903Y1758496D01*
X1642560Y1775467D02*
X1648217Y1769810D01*
X1606903Y1758496D02*
X1618217Y1769810D01*
X1601246Y1764153D02*
X1612560Y1775467D01*
X1601246Y1764153D02*
X1606903Y1758496D01*
X1612560Y1775467D02*
X1618217Y1769810D01*
X1576903Y1758496D02*
X1588217Y1769810D01*
X1571246Y1764153D02*
X1582560Y1775467D01*
X1571246Y1764153D02*
X1576903Y1758496D01*
X1582560Y1775467D02*
X1588217Y1769810D01*
X1546903Y1758496D02*
X1558217Y1769810D01*
X1541246Y1764153D02*
X1552560Y1775467D01*
X1541246Y1764153D02*
X1546903Y1758496D01*
X1552560Y1775467D02*
X1558217Y1769810D01*
X1516903Y1758496D02*
X1528217Y1769810D01*
X1511246Y1764153D02*
X1522560Y1775467D01*
X1511246Y1764153D02*
X1516903Y1758496D01*
X1522560Y1775467D02*
X1528217Y1769810D01*
X1486903Y1758496D02*
X1498217Y1769810D01*
X1481246Y1764153D02*
X1492560Y1775467D01*
X1481246Y1764153D02*
X1486903Y1758496D01*
X1492560Y1775467D02*
X1498217Y1769810D01*
X1456903Y1758496D02*
X1468217Y1769810D01*
X1451246Y1764153D02*
X1462560Y1775467D01*
X1451246Y1764153D02*
X1456903Y1758496D01*
X1462560Y1775467D02*
X1468217Y1769810D01*
X1426903Y1758496D02*
X1438217Y1769810D01*
X1421246Y1764153D02*
X1432560Y1775467D01*
X1421246Y1764153D02*
X1426903Y1758496D01*
X1432560Y1775467D02*
X1438217Y1769810D01*
X1396903Y1758496D02*
X1408217Y1769810D01*
X1391246Y1764153D02*
X1402560Y1775467D01*
X1391246Y1764153D02*
X1396903Y1758496D01*
X1402560Y1775467D02*
X1408217Y1769810D01*
X1366903Y1758496D02*
X1378217Y1769810D01*
X1361246Y1764153D02*
X1372560Y1775467D01*
X1361246Y1764153D02*
X1366903Y1758496D01*
X1372560Y1775467D02*
X1378217Y1769810D01*
X1336903Y1758496D02*
X1348217Y1769810D01*
X1331246Y1764153D02*
X1342560Y1775467D01*
X1331246Y1764153D02*
X1336903Y1758496D01*
X1342560Y1775467D02*
X1348217Y1769810D01*
X1306903Y1758496D02*
X1318217Y1769810D01*
X1301246Y1764153D02*
X1312560Y1775467D01*
X1301246Y1764153D02*
X1306903Y1758496D01*
X1312560Y1775467D02*
X1318217Y1769810D01*
X2446903Y1788496D02*
X2458217Y1799810D01*
X2441246Y1794153D02*
X2452560Y1805467D01*
X2441246Y1794153D02*
X2446903Y1788496D01*
X2452560Y1805467D02*
X2458217Y1799810D01*
X2416903Y1788496D02*
X2428217Y1799810D01*
X2411246Y1794153D02*
X2422560Y1805467D01*
X2411246Y1794153D02*
X2416903Y1788496D01*
X2422560Y1805467D02*
X2428217Y1799810D01*
X2386903Y1788496D02*
X2398217Y1799810D01*
X2381246Y1794153D02*
X2392560Y1805467D01*
X2381246Y1794153D02*
X2386903Y1788496D01*
X2392560Y1805467D02*
X2398217Y1799810D01*
X2356903Y1788496D02*
X2368217Y1799810D01*
X2351246Y1794153D02*
X2362560Y1805467D01*
X2351246Y1794153D02*
X2356903Y1788496D01*
X2362560Y1805467D02*
X2368217Y1799810D01*
X2326903Y1788496D02*
X2338217Y1799810D01*
X2321246Y1794153D02*
X2332560Y1805467D01*
X2321246Y1794153D02*
X2326903Y1788496D01*
X2332560Y1805467D02*
X2338217Y1799810D01*
X2296903Y1788496D02*
X2308217Y1799810D01*
X2291246Y1794153D02*
X2302560Y1805467D01*
X2291246Y1794153D02*
X2296903Y1788496D01*
X2302560Y1805467D02*
X2308217Y1799810D01*
X2266903Y1788496D02*
X2278217Y1799810D01*
X2261246Y1794153D02*
X2272560Y1805467D01*
X2261246Y1794153D02*
X2266903Y1788496D01*
X2272560Y1805467D02*
X2278217Y1799810D01*
X2236903Y1788496D02*
X2248217Y1799810D01*
X2231246Y1794153D02*
X2242560Y1805467D01*
X2231246Y1794153D02*
X2236903Y1788496D01*
X2242560Y1805467D02*
X2248217Y1799810D01*
X2206903Y1788496D02*
X2218217Y1799810D01*
X2201246Y1794153D02*
X2212560Y1805467D01*
X2201246Y1794153D02*
X2206903Y1788496D01*
X2212560Y1805467D02*
X2218217Y1799810D01*
X2176903Y1788496D02*
X2188217Y1799810D01*
X2171246Y1794153D02*
X2182560Y1805467D01*
X2171246Y1794153D02*
X2176903Y1788496D01*
X2182560Y1805467D02*
X2188217Y1799810D01*
X2146903Y1788496D02*
X2158217Y1799810D01*
X2141246Y1794153D02*
X2152560Y1805467D01*
X2141246Y1794153D02*
X2146903Y1788496D01*
X2152560Y1805467D02*
X2158217Y1799810D01*
X2116903Y1788496D02*
X2128217Y1799810D01*
X2111246Y1794153D02*
X2122560Y1805467D01*
X2111246Y1794153D02*
X2116903Y1788496D01*
X2122560Y1805467D02*
X2128217Y1799810D01*
X2086903Y1788496D02*
X2098217Y1799810D01*
X2081246Y1794153D02*
X2092560Y1805467D01*
X2081246Y1794153D02*
X2086903Y1788496D01*
X2092560Y1805467D02*
X2098217Y1799810D01*
X2056903Y1788496D02*
X2068217Y1799810D01*
X2051246Y1794153D02*
X2062560Y1805467D01*
X2051246Y1794153D02*
X2056903Y1788496D01*
X2062560Y1805467D02*
X2068217Y1799810D01*
X2026903Y1788496D02*
X2038217Y1799810D01*
X2021246Y1794153D02*
X2032560Y1805467D01*
X2021246Y1794153D02*
X2026903Y1788496D01*
X2032560Y1805467D02*
X2038217Y1799810D01*
X1996903Y1788496D02*
X2008217Y1799810D01*
X1991246Y1794153D02*
X2002560Y1805467D01*
X1991246Y1794153D02*
X1996903Y1788496D01*
X2002560Y1805467D02*
X2008217Y1799810D01*
X1966903Y1788496D02*
X1978217Y1799810D01*
X1961246Y1794153D02*
X1972560Y1805467D01*
X1961246Y1794153D02*
X1966903Y1788496D01*
X1972560Y1805467D02*
X1978217Y1799810D01*
X1936903Y1788496D02*
X1948217Y1799810D01*
X1931246Y1794153D02*
X1942560Y1805467D01*
X1931246Y1794153D02*
X1936903Y1788496D01*
X1942560Y1805467D02*
X1948217Y1799810D01*
X1906903Y1788496D02*
X1918217Y1799810D01*
X1901246Y1794153D02*
X1912560Y1805467D01*
X1901246Y1794153D02*
X1906903Y1788496D01*
X1912560Y1805467D02*
X1918217Y1799810D01*
X1876903Y1788496D02*
X1888217Y1799810D01*
X1871246Y1794153D02*
X1882560Y1805467D01*
X1871246Y1794153D02*
X1876903Y1788496D01*
X1882560Y1805467D02*
X1888217Y1799810D01*
X1846903Y1788496D02*
X1858217Y1799810D01*
X1841246Y1794153D02*
X1852560Y1805467D01*
X1841246Y1794153D02*
X1846903Y1788496D01*
X1852560Y1805467D02*
X1858217Y1799810D01*
X1816903Y1788496D02*
X1828217Y1799810D01*
X1811246Y1794153D02*
X1822560Y1805467D01*
X1811246Y1794153D02*
X1816903Y1788496D01*
X1822560Y1805467D02*
X1828217Y1799810D01*
X1786903Y1788496D02*
X1798217Y1799810D01*
X1781246Y1794153D02*
X1792560Y1805467D01*
X1781246Y1794153D02*
X1786903Y1788496D01*
X1792560Y1805467D02*
X1798217Y1799810D01*
X1756903Y1788496D02*
X1768217Y1799810D01*
X1751246Y1794153D02*
X1762560Y1805467D01*
X1751246Y1794153D02*
X1756903Y1788496D01*
X1762560Y1805467D02*
X1768217Y1799810D01*
X1726903Y1788496D02*
X1738217Y1799810D01*
X1721246Y1794153D02*
X1732560Y1805467D01*
X1721246Y1794153D02*
X1726903Y1788496D01*
X1732560Y1805467D02*
X1738217Y1799810D01*
X1696903Y1788496D02*
X1708217Y1799810D01*
X1691246Y1794153D02*
X1702560Y1805467D01*
X1691246Y1794153D02*
X1696903Y1788496D01*
X1702560Y1805467D02*
X1708217Y1799810D01*
X1666903Y1788496D02*
X1678217Y1799810D01*
X1661246Y1794153D02*
X1672560Y1805467D01*
X1661246Y1794153D02*
X1666903Y1788496D01*
X1672560Y1805467D02*
X1678217Y1799810D01*
X1636903Y1788496D02*
X1648217Y1799810D01*
X1631246Y1794153D02*
X1642560Y1805467D01*
X1631246Y1794153D02*
X1636903Y1788496D01*
X1642560Y1805467D02*
X1648217Y1799810D01*
X1606903Y1788496D02*
X1618217Y1799810D01*
X1601246Y1794153D02*
X1612560Y1805467D01*
X1601246Y1794153D02*
X1606903Y1788496D01*
X1612560Y1805467D02*
X1618217Y1799810D01*
X1576903Y1788496D02*
X1588217Y1799810D01*
X1571246Y1794153D02*
X1582560Y1805467D01*
X1571246Y1794153D02*
X1576903Y1788496D01*
X1582560Y1805467D02*
X1588217Y1799810D01*
X1546903Y1788496D02*
X1558217Y1799810D01*
X1541246Y1794153D02*
X1552560Y1805467D01*
X1541246Y1794153D02*
X1546903Y1788496D01*
X1552560Y1805467D02*
X1558217Y1799810D01*
X1516903Y1788496D02*
X1528217Y1799810D01*
X1511246Y1794153D02*
X1522560Y1805467D01*
X1511246Y1794153D02*
X1516903Y1788496D01*
X1522560Y1805467D02*
X1528217Y1799810D01*
X1486903Y1788496D02*
X1498217Y1799810D01*
X1481246Y1794153D02*
X1492560Y1805467D01*
X1481246Y1794153D02*
X1486903Y1788496D01*
X1492560Y1805467D02*
X1498217Y1799810D01*
X1456903Y1788496D02*
X1468217Y1799810D01*
X1451246Y1794153D02*
X1462560Y1805467D01*
X1451246Y1794153D02*
X1456903Y1788496D01*
X1462560Y1805467D02*
X1468217Y1799810D01*
X1426903Y1788496D02*
X1438217Y1799810D01*
X1421246Y1794153D02*
X1432560Y1805467D01*
X1421246Y1794153D02*
X1426903Y1788496D01*
X1432560Y1805467D02*
X1438217Y1799810D01*
X1396903Y1788496D02*
X1408217Y1799810D01*
X1391246Y1794153D02*
X1402560Y1805467D01*
X1391246Y1794153D02*
X1396903Y1788496D01*
X1402560Y1805467D02*
X1408217Y1799810D01*
X1366903Y1788496D02*
X1378217Y1799810D01*
X1361246Y1794153D02*
X1372560Y1805467D01*
X1361246Y1794153D02*
X1366903Y1788496D01*
X1372560Y1805467D02*
X1378217Y1799810D01*
X1336903Y1788496D02*
X1348217Y1799810D01*
X1331246Y1794153D02*
X1342560Y1805467D01*
X1331246Y1794153D02*
X1336903Y1788496D01*
X1342560Y1805467D02*
X1348217Y1799810D01*
X1306903Y1788496D02*
X1318217Y1799810D01*
X1301246Y1794153D02*
X1312560Y1805467D01*
X1301246Y1794153D02*
X1306903Y1788496D01*
X1312560Y1805467D02*
X1318217Y1799810D01*
X2446903Y1818496D02*
X2458217Y1829810D01*
X2441246Y1824153D02*
X2452560Y1835467D01*
X2441246Y1824153D02*
X2446903Y1818496D01*
X2452560Y1835467D02*
X2458217Y1829810D01*
X2416903Y1818496D02*
X2428217Y1829810D01*
X2411246Y1824153D02*
X2422560Y1835467D01*
X2411246Y1824153D02*
X2416903Y1818496D01*
X2422560Y1835467D02*
X2428217Y1829810D01*
X2386903Y1818496D02*
X2398217Y1829810D01*
X2381246Y1824153D02*
X2392560Y1835467D01*
X2381246Y1824153D02*
X2386903Y1818496D01*
X2392560Y1835467D02*
X2398217Y1829810D01*
X2356903Y1818496D02*
X2368217Y1829810D01*
X2351246Y1824153D02*
X2362560Y1835467D01*
X2351246Y1824153D02*
X2356903Y1818496D01*
X2362560Y1835467D02*
X2368217Y1829810D01*
X2326903Y1818496D02*
X2338217Y1829810D01*
X2321246Y1824153D02*
X2332560Y1835467D01*
X2321246Y1824153D02*
X2326903Y1818496D01*
X2332560Y1835467D02*
X2338217Y1829810D01*
X2296903Y1818496D02*
X2308217Y1829810D01*
X2291246Y1824153D02*
X2302560Y1835467D01*
X2291246Y1824153D02*
X2296903Y1818496D01*
X2302560Y1835467D02*
X2308217Y1829810D01*
X2266903Y1818496D02*
X2278217Y1829810D01*
X2261246Y1824153D02*
X2272560Y1835467D01*
X2261246Y1824153D02*
X2266903Y1818496D01*
X2272560Y1835467D02*
X2278217Y1829810D01*
X2236903Y1818496D02*
X2248217Y1829810D01*
X2231246Y1824153D02*
X2242560Y1835467D01*
X2231246Y1824153D02*
X2236903Y1818496D01*
X2242560Y1835467D02*
X2248217Y1829810D01*
X2206903Y1818496D02*
X2218217Y1829810D01*
X2201246Y1824153D02*
X2212560Y1835467D01*
X2201246Y1824153D02*
X2206903Y1818496D01*
X2212560Y1835467D02*
X2218217Y1829810D01*
X2176903Y1818496D02*
X2188217Y1829810D01*
X2171246Y1824153D02*
X2182560Y1835467D01*
X2171246Y1824153D02*
X2176903Y1818496D01*
X2182560Y1835467D02*
X2188217Y1829810D01*
X2146903Y1818496D02*
X2158217Y1829810D01*
X2141246Y1824153D02*
X2152560Y1835467D01*
X2141246Y1824153D02*
X2146903Y1818496D01*
X2152560Y1835467D02*
X2158217Y1829810D01*
X2116903Y1818496D02*
X2128217Y1829810D01*
X2111246Y1824153D02*
X2122560Y1835467D01*
X2111246Y1824153D02*
X2116903Y1818496D01*
X2122560Y1835467D02*
X2128217Y1829810D01*
X2086903Y1818496D02*
X2098217Y1829810D01*
X2081246Y1824153D02*
X2092560Y1835467D01*
X2081246Y1824153D02*
X2086903Y1818496D01*
X2092560Y1835467D02*
X2098217Y1829810D01*
X2056903Y1818496D02*
X2068217Y1829810D01*
X2051246Y1824153D02*
X2062560Y1835467D01*
X2051246Y1824153D02*
X2056903Y1818496D01*
X2062560Y1835467D02*
X2068217Y1829810D01*
X2026903Y1818496D02*
X2038217Y1829810D01*
X2021246Y1824153D02*
X2032560Y1835467D01*
X2021246Y1824153D02*
X2026903Y1818496D01*
X2032560Y1835467D02*
X2038217Y1829810D01*
X1996903Y1818496D02*
X2008217Y1829810D01*
X1991246Y1824153D02*
X2002560Y1835467D01*
X1991246Y1824153D02*
X1996903Y1818496D01*
X2002560Y1835467D02*
X2008217Y1829810D01*
X1966903Y1818496D02*
X1978217Y1829810D01*
X1961246Y1824153D02*
X1972560Y1835467D01*
X1961246Y1824153D02*
X1966903Y1818496D01*
X1972560Y1835467D02*
X1978217Y1829810D01*
X1936903Y1818496D02*
X1948217Y1829810D01*
X1931246Y1824153D02*
X1942560Y1835467D01*
X1931246Y1824153D02*
X1936903Y1818496D01*
X1942560Y1835467D02*
X1948217Y1829810D01*
X1906903Y1818496D02*
X1918217Y1829810D01*
X1901246Y1824153D02*
X1912560Y1835467D01*
X1901246Y1824153D02*
X1906903Y1818496D01*
X1912560Y1835467D02*
X1918217Y1829810D01*
X1876903Y1818496D02*
X1888217Y1829810D01*
X1871246Y1824153D02*
X1882560Y1835467D01*
X1871246Y1824153D02*
X1876903Y1818496D01*
X1882560Y1835467D02*
X1888217Y1829810D01*
X1846903Y1818496D02*
X1858217Y1829810D01*
X1841246Y1824153D02*
X1852560Y1835467D01*
X1841246Y1824153D02*
X1846903Y1818496D01*
X1852560Y1835467D02*
X1858217Y1829810D01*
X1816903Y1818496D02*
X1828217Y1829810D01*
X1811246Y1824153D02*
X1822560Y1835467D01*
X1811246Y1824153D02*
X1816903Y1818496D01*
X1822560Y1835467D02*
X1828217Y1829810D01*
X1786903Y1818496D02*
X1798217Y1829810D01*
X1781246Y1824153D02*
X1792560Y1835467D01*
X1781246Y1824153D02*
X1786903Y1818496D01*
X1792560Y1835467D02*
X1798217Y1829810D01*
X1756903Y1818496D02*
X1768217Y1829810D01*
X1751246Y1824153D02*
X1762560Y1835467D01*
X1751246Y1824153D02*
X1756903Y1818496D01*
X1762560Y1835467D02*
X1768217Y1829810D01*
X1726903Y1818496D02*
X1738217Y1829810D01*
X1721246Y1824153D02*
X1732560Y1835467D01*
X1721246Y1824153D02*
X1726903Y1818496D01*
X1732560Y1835467D02*
X1738217Y1829810D01*
X1696903Y1818496D02*
X1708217Y1829810D01*
X1691246Y1824153D02*
X1702560Y1835467D01*
X1691246Y1824153D02*
X1696903Y1818496D01*
X1702560Y1835467D02*
X1708217Y1829810D01*
X1666903Y1818496D02*
X1678217Y1829810D01*
X1661246Y1824153D02*
X1672560Y1835467D01*
X1661246Y1824153D02*
X1666903Y1818496D01*
X1672560Y1835467D02*
X1678217Y1829810D01*
X1636903Y1818496D02*
X1648217Y1829810D01*
X1631246Y1824153D02*
X1642560Y1835467D01*
X1631246Y1824153D02*
X1636903Y1818496D01*
X1642560Y1835467D02*
X1648217Y1829810D01*
X1606903Y1818496D02*
X1618217Y1829810D01*
X1601246Y1824153D02*
X1612560Y1835467D01*
X1601246Y1824153D02*
X1606903Y1818496D01*
X1612560Y1835467D02*
X1618217Y1829810D01*
X1576903Y1818496D02*
X1588217Y1829810D01*
X1571246Y1824153D02*
X1582560Y1835467D01*
X1571246Y1824153D02*
X1576903Y1818496D01*
X1582560Y1835467D02*
X1588217Y1829810D01*
X1546903Y1818496D02*
X1558217Y1829810D01*
X1541246Y1824153D02*
X1552560Y1835467D01*
X1541246Y1824153D02*
X1546903Y1818496D01*
X1552560Y1835467D02*
X1558217Y1829810D01*
X1516903Y1818496D02*
X1528217Y1829810D01*
X1511246Y1824153D02*
X1522560Y1835467D01*
X1511246Y1824153D02*
X1516903Y1818496D01*
X1522560Y1835467D02*
X1528217Y1829810D01*
X1486903Y1818496D02*
X1498217Y1829810D01*
X1481246Y1824153D02*
X1492560Y1835467D01*
X1481246Y1824153D02*
X1486903Y1818496D01*
X1492560Y1835467D02*
X1498217Y1829810D01*
X1456903Y1818496D02*
X1468217Y1829810D01*
X1451246Y1824153D02*
X1462560Y1835467D01*
X1451246Y1824153D02*
X1456903Y1818496D01*
X1462560Y1835467D02*
X1468217Y1829810D01*
X1426903Y1818496D02*
X1438217Y1829810D01*
X1421246Y1824153D02*
X1432560Y1835467D01*
X1421246Y1824153D02*
X1426903Y1818496D01*
X1432560Y1835467D02*
X1438217Y1829810D01*
X1396903Y1818496D02*
X1408217Y1829810D01*
X1391246Y1824153D02*
X1402560Y1835467D01*
X1391246Y1824153D02*
X1396903Y1818496D01*
X1402560Y1835467D02*
X1408217Y1829810D01*
X1366903Y1818496D02*
X1378217Y1829810D01*
X1361246Y1824153D02*
X1372560Y1835467D01*
X1361246Y1824153D02*
X1366903Y1818496D01*
X1372560Y1835467D02*
X1378217Y1829810D01*
X1336903Y1818496D02*
X1348217Y1829810D01*
X1331246Y1824153D02*
X1342560Y1835467D01*
X1331246Y1824153D02*
X1336903Y1818496D01*
X1342560Y1835467D02*
X1348217Y1829810D01*
X1306903Y1818496D02*
X1318217Y1829810D01*
X1301246Y1824153D02*
X1312560Y1835467D01*
X1301246Y1824153D02*
X1306903Y1818496D01*
X1312560Y1835467D02*
X1318217Y1829810D01*
X2446903Y1848496D02*
X2458217Y1859810D01*
X2441246Y1854153D02*
X2452560Y1865467D01*
X2441246Y1854153D02*
X2446903Y1848496D01*
X2452560Y1865467D02*
X2458217Y1859810D01*
X2416903Y1848496D02*
X2428217Y1859810D01*
X2411246Y1854153D02*
X2422560Y1865467D01*
X2411246Y1854153D02*
X2416903Y1848496D01*
X2422560Y1865467D02*
X2428217Y1859810D01*
X2386903Y1848496D02*
X2398217Y1859810D01*
X2381246Y1854153D02*
X2392560Y1865467D01*
X2381246Y1854153D02*
X2386903Y1848496D01*
X2392560Y1865467D02*
X2398217Y1859810D01*
X2356903Y1848496D02*
X2368217Y1859810D01*
X2351246Y1854153D02*
X2362560Y1865467D01*
X2351246Y1854153D02*
X2356903Y1848496D01*
X2362560Y1865467D02*
X2368217Y1859810D01*
X2326903Y1848496D02*
X2338217Y1859810D01*
X2321246Y1854153D02*
X2332560Y1865467D01*
X2321246Y1854153D02*
X2326903Y1848496D01*
X2332560Y1865467D02*
X2338217Y1859810D01*
X2296903Y1848496D02*
X2308217Y1859810D01*
X2291246Y1854153D02*
X2302560Y1865467D01*
X2291246Y1854153D02*
X2296903Y1848496D01*
X2302560Y1865467D02*
X2308217Y1859810D01*
X2266903Y1848496D02*
X2278217Y1859810D01*
X2261246Y1854153D02*
X2272560Y1865467D01*
X2261246Y1854153D02*
X2266903Y1848496D01*
X2272560Y1865467D02*
X2278217Y1859810D01*
X2236903Y1848496D02*
X2248217Y1859810D01*
X2231246Y1854153D02*
X2242560Y1865467D01*
X2231246Y1854153D02*
X2236903Y1848496D01*
X2242560Y1865467D02*
X2248217Y1859810D01*
X2206903Y1848496D02*
X2218217Y1859810D01*
X2201246Y1854153D02*
X2212560Y1865467D01*
X2201246Y1854153D02*
X2206903Y1848496D01*
X2212560Y1865467D02*
X2218217Y1859810D01*
X2176903Y1848496D02*
X2188217Y1859810D01*
X2171246Y1854153D02*
X2182560Y1865467D01*
X2171246Y1854153D02*
X2176903Y1848496D01*
X2182560Y1865467D02*
X2188217Y1859810D01*
X2146903Y1848496D02*
X2158217Y1859810D01*
X2141246Y1854153D02*
X2152560Y1865467D01*
X2141246Y1854153D02*
X2146903Y1848496D01*
X2152560Y1865467D02*
X2158217Y1859810D01*
X2116903Y1848496D02*
X2128217Y1859810D01*
X2111246Y1854153D02*
X2122560Y1865467D01*
X2111246Y1854153D02*
X2116903Y1848496D01*
X2122560Y1865467D02*
X2128217Y1859810D01*
X2086903Y1848496D02*
X2098217Y1859810D01*
X2081246Y1854153D02*
X2092560Y1865467D01*
X2081246Y1854153D02*
X2086903Y1848496D01*
X2092560Y1865467D02*
X2098217Y1859810D01*
X2056903Y1848496D02*
X2068217Y1859810D01*
X2051246Y1854153D02*
X2062560Y1865467D01*
X2051246Y1854153D02*
X2056903Y1848496D01*
X2062560Y1865467D02*
X2068217Y1859810D01*
X2026903Y1848496D02*
X2038217Y1859810D01*
X2021246Y1854153D02*
X2032560Y1865467D01*
X2021246Y1854153D02*
X2026903Y1848496D01*
X2032560Y1865467D02*
X2038217Y1859810D01*
X1996903Y1848496D02*
X2008217Y1859810D01*
X1991246Y1854153D02*
X2002560Y1865467D01*
X1991246Y1854153D02*
X1996903Y1848496D01*
X2002560Y1865467D02*
X2008217Y1859810D01*
X1966903Y1848496D02*
X1978217Y1859810D01*
X1961246Y1854153D02*
X1972560Y1865467D01*
X1961246Y1854153D02*
X1966903Y1848496D01*
X1972560Y1865467D02*
X1978217Y1859810D01*
X1936903Y1848496D02*
X1948217Y1859810D01*
X1931246Y1854153D02*
X1942560Y1865467D01*
X1931246Y1854153D02*
X1936903Y1848496D01*
X1942560Y1865467D02*
X1948217Y1859810D01*
X1906903Y1848496D02*
X1918217Y1859810D01*
X1901246Y1854153D02*
X1912560Y1865467D01*
X1901246Y1854153D02*
X1906903Y1848496D01*
X1912560Y1865467D02*
X1918217Y1859810D01*
X1876903Y1848496D02*
X1888217Y1859810D01*
X1871246Y1854153D02*
X1882560Y1865467D01*
X1871246Y1854153D02*
X1876903Y1848496D01*
X1882560Y1865467D02*
X1888217Y1859810D01*
X1846903Y1848496D02*
X1858217Y1859810D01*
X1841246Y1854153D02*
X1852560Y1865467D01*
X1841246Y1854153D02*
X1846903Y1848496D01*
X1852560Y1865467D02*
X1858217Y1859810D01*
X1816903Y1848496D02*
X1828217Y1859810D01*
X1811246Y1854153D02*
X1822560Y1865467D01*
X1811246Y1854153D02*
X1816903Y1848496D01*
X1822560Y1865467D02*
X1828217Y1859810D01*
X1786903Y1848496D02*
X1798217Y1859810D01*
X1781246Y1854153D02*
X1792560Y1865467D01*
X1781246Y1854153D02*
X1786903Y1848496D01*
X1792560Y1865467D02*
X1798217Y1859810D01*
X1756903Y1848496D02*
X1768217Y1859810D01*
X1751246Y1854153D02*
X1762560Y1865467D01*
X1751246Y1854153D02*
X1756903Y1848496D01*
X1762560Y1865467D02*
X1768217Y1859810D01*
X1726903Y1848496D02*
X1738217Y1859810D01*
X1721246Y1854153D02*
X1732560Y1865467D01*
X1721246Y1854153D02*
X1726903Y1848496D01*
X1732560Y1865467D02*
X1738217Y1859810D01*
X1696903Y1848496D02*
X1708217Y1859810D01*
X1691246Y1854153D02*
X1702560Y1865467D01*
X1691246Y1854153D02*
X1696903Y1848496D01*
X1702560Y1865467D02*
X1708217Y1859810D01*
X1666903Y1848496D02*
X1678217Y1859810D01*
X1661246Y1854153D02*
X1672560Y1865467D01*
X1661246Y1854153D02*
X1666903Y1848496D01*
X1672560Y1865467D02*
X1678217Y1859810D01*
X1636903Y1848496D02*
X1648217Y1859810D01*
X1631246Y1854153D02*
X1642560Y1865467D01*
X1631246Y1854153D02*
X1636903Y1848496D01*
X1642560Y1865467D02*
X1648217Y1859810D01*
X1606903Y1848496D02*
X1618217Y1859810D01*
X1601246Y1854153D02*
X1612560Y1865467D01*
X1601246Y1854153D02*
X1606903Y1848496D01*
X1612560Y1865467D02*
X1618217Y1859810D01*
X1576903Y1848496D02*
X1588217Y1859810D01*
X1571246Y1854153D02*
X1582560Y1865467D01*
X1571246Y1854153D02*
X1576903Y1848496D01*
X1582560Y1865467D02*
X1588217Y1859810D01*
X1546903Y1848496D02*
X1558217Y1859810D01*
X1541246Y1854153D02*
X1552560Y1865467D01*
X1541246Y1854153D02*
X1546903Y1848496D01*
X1552560Y1865467D02*
X1558217Y1859810D01*
X1516903Y1848496D02*
X1528217Y1859810D01*
X1511246Y1854153D02*
X1522560Y1865467D01*
X1511246Y1854153D02*
X1516903Y1848496D01*
X1522560Y1865467D02*
X1528217Y1859810D01*
X1486903Y1848496D02*
X1498217Y1859810D01*
X1481246Y1854153D02*
X1492560Y1865467D01*
X1481246Y1854153D02*
X1486903Y1848496D01*
X1492560Y1865467D02*
X1498217Y1859810D01*
X1456903Y1848496D02*
X1468217Y1859810D01*
X1451246Y1854153D02*
X1462560Y1865467D01*
X1451246Y1854153D02*
X1456903Y1848496D01*
X1462560Y1865467D02*
X1468217Y1859810D01*
X1426903Y1848496D02*
X1438217Y1859810D01*
X1421246Y1854153D02*
X1432560Y1865467D01*
X1421246Y1854153D02*
X1426903Y1848496D01*
X1432560Y1865467D02*
X1438217Y1859810D01*
X1396903Y1848496D02*
X1408217Y1859810D01*
X1391246Y1854153D02*
X1402560Y1865467D01*
X1391246Y1854153D02*
X1396903Y1848496D01*
X1402560Y1865467D02*
X1408217Y1859810D01*
X1366903Y1848496D02*
X1378217Y1859810D01*
X1361246Y1854153D02*
X1372560Y1865467D01*
X1361246Y1854153D02*
X1366903Y1848496D01*
X1372560Y1865467D02*
X1378217Y1859810D01*
X1336903Y1848496D02*
X1348217Y1859810D01*
X1331246Y1854153D02*
X1342560Y1865467D01*
X1331246Y1854153D02*
X1336903Y1848496D01*
X1342560Y1865467D02*
X1348217Y1859810D01*
X1306903Y1848496D02*
X1318217Y1859810D01*
X1301246Y1854153D02*
X1312560Y1865467D01*
X1301246Y1854153D02*
X1306903Y1848496D01*
X1312560Y1865467D02*
X1318217Y1859810D01*
X2479394Y1363054D02*
X2495394D01*
X2479394Y1355054D02*
X2495394D01*
X2479394D02*
Y1363054D01*
X2495394Y1355054D02*
Y1363054D01*
X2479394Y1347054D02*
X2495394D01*
X2479394Y1339054D02*
X2495394D01*
X2479394D02*
Y1347054D01*
X2495394Y1339054D02*
Y1347054D01*
X1748004Y1242554D02*
X1764004D01*
X1748004Y1250554D02*
X1764004D01*
Y1242554D02*
Y1250554D01*
X1748004Y1242554D02*
Y1250554D01*
Y1261554D02*
X1764004D01*
X1748004Y1269554D02*
X1764004D01*
Y1261554D02*
Y1269554D01*
X1748004Y1261554D02*
Y1269554D01*
Y1224304D02*
X1764004D01*
X1748004Y1232304D02*
X1764004D01*
Y1224304D02*
Y1232304D01*
X1748004Y1224304D02*
Y1232304D01*
X1747904Y1281054D02*
X1763904D01*
X1747904Y1289054D02*
X1763904D01*
Y1281054D02*
Y1289054D01*
X1747904Y1281054D02*
Y1289054D01*
X1702924Y1396304D02*
X1882124D01*
X1702524Y1204304D02*
Y1459304D01*
Y1204304D02*
X1882524D01*
Y1459304D01*
X1702524D02*
X1882524D01*
D30*
X1180000Y1080000D02*
Y1990000D01*
X2580000D01*
Y1080000D02*
Y1990000D01*
X1180000Y1080000D02*
X2580000D01*
X2509524Y1373804D02*
Y1473804D01*
D55*
X1710754Y1384184D02*
G03*
X1710754Y1384184I-1000J0D01*
G01*
D94*
X1749557Y1415813D02*
X1742416Y1434559D01*
X1735275Y1415813D01*
X1737953Y1422062D02*
X1746879D01*
X1753931Y1434559D02*
Y1415813D01*
Y1434559D02*
X1766429Y1415813D01*
Y1434559D02*
Y1415813D01*
X1777855Y1434559D02*
Y1415813D01*
X1771606Y1434559D02*
X1784104D01*
X1797940D02*
X1786335D01*
Y1415813D01*
X1797940D01*
X1786335Y1425633D02*
X1793477D01*
X1801064Y1434559D02*
Y1415813D01*
Y1434559D02*
X1813562Y1415813D01*
Y1434559D02*
Y1415813D01*
X1818739Y1434559D02*
Y1415813D01*
Y1434559D02*
X1831236Y1415813D01*
Y1434559D02*
Y1415813D01*
X1850696D02*
X1843555Y1434559D01*
X1836414Y1415813D01*
X1839092Y1422062D02*
X1848018D01*
M02*
