G04*
G04 #@! TF.GenerationSoftware,Altium Limited,Altium Designer,18.1.9 (240)*
G04*
G04 Layer_Color=8388736*
%FSLAX44Y44*%
%MOMM*%
G71*
G01*
G75*
%ADD62P,1.4187X4X270.0*%
%ADD63R,0.6532X0.8032*%
%ADD64R,2.8032X1.7032*%
G04:AMPARAMS|DCode=65|XSize=2.2032mm|YSize=2.2032mm|CornerRadius=1.1016mm|HoleSize=0mm|Usage=FLASHONLY|Rotation=90.000|XOffset=0mm|YOffset=0mm|HoleType=Round|Shape=RoundedRectangle|*
%AMROUNDEDRECTD65*
21,1,2.2032,0.0000,0,0,90.0*
21,1,0.0000,2.2032,0,0,90.0*
1,1,2.2032,0.0000,0.0000*
1,1,2.2032,0.0000,0.0000*
1,1,2.2032,0.0000,0.0000*
1,1,2.2032,0.0000,0.0000*
%
%ADD65ROUNDEDRECTD65*%
G04:AMPARAMS|DCode=66|XSize=2.2032mm|YSize=2.2032mm|CornerRadius=1.1016mm|HoleSize=0mm|Usage=FLASHONLY|Rotation=0.000|XOffset=0mm|YOffset=0mm|HoleType=Round|Shape=RoundedRectangle|*
%AMROUNDEDRECTD66*
21,1,2.2032,0.0000,0,0,0.0*
21,1,0.0000,2.2032,0,0,0.0*
1,1,2.2032,0.0000,0.0000*
1,1,2.2032,0.0000,0.0000*
1,1,2.2032,0.0000,0.0000*
1,1,2.2032,0.0000,0.0000*
%
%ADD66ROUNDEDRECTD66*%
%ADD67R,1.0032X1.1032*%
%ADD68R,1.1032X1.0032*%
%ADD69R,0.8032X1.8032*%
%ADD70R,1.7272X0.8382*%
%ADD71R,1.4222X1.1172*%
%ADD72R,1.2532X0.8032*%
%ADD73R,1.5032X0.9032*%
%ADD74R,2.2032X1.1032*%
%ADD75R,1.1032X2.2032*%
%ADD76R,5.2032X5.2032*%
%ADD77R,2.2032X1.0033*%
%ADD78R,1.0033X1.2032*%
%ADD79R,1.0033X1.1031*%
%ADD80C,0.7032*%
%ADD81R,1.7032X1.7032*%
%ADD82C,1.7032*%
%ADD83C,3.2032*%
%ADD84R,1.7032X1.7032*%
%ADD85R,1.3032X1.3032*%
%ADD86O,2.0032X1.3032*%
%ADD87O,1.8032X1.4032*%
%ADD88C,1.0033*%
%ADD89C,0.6532*%
D62*
X2455388Y1638638D02*
D03*
X2444074Y1627325D02*
D03*
X2425388Y1638638D02*
D03*
X2414074Y1627325D02*
D03*
X2395388Y1638638D02*
D03*
X2384074Y1627325D02*
D03*
X2365388Y1638638D02*
D03*
X2354074Y1627325D02*
D03*
X2335388Y1638638D02*
D03*
X2324074Y1627325D02*
D03*
X2305388Y1638638D02*
D03*
X2294074Y1627325D02*
D03*
X2275388Y1638638D02*
D03*
X2264074Y1627325D02*
D03*
X2245388Y1638638D02*
D03*
X2234074Y1627325D02*
D03*
X2215388Y1638638D02*
D03*
X2204074Y1627325D02*
D03*
X2185388Y1638638D02*
D03*
X2174074Y1627325D02*
D03*
X2155388Y1638638D02*
D03*
X2144074Y1627325D02*
D03*
X2125388Y1638638D02*
D03*
X2114074Y1627325D02*
D03*
X2095388Y1638638D02*
D03*
X2084074Y1627325D02*
D03*
X2065388Y1638638D02*
D03*
X2054074Y1627325D02*
D03*
X2035388Y1638638D02*
D03*
X2024074Y1627325D02*
D03*
X2005388Y1638638D02*
D03*
X1994074Y1627325D02*
D03*
X1975388Y1638638D02*
D03*
X1964074Y1627325D02*
D03*
X1945388Y1638638D02*
D03*
X1934074Y1627325D02*
D03*
X1915388Y1638638D02*
D03*
X1904074Y1627325D02*
D03*
X1885388Y1638638D02*
D03*
X1874074Y1627325D02*
D03*
X1855388Y1638638D02*
D03*
X1844074Y1627325D02*
D03*
X1825388Y1638638D02*
D03*
X1814074Y1627325D02*
D03*
X1795388Y1638638D02*
D03*
X1784074Y1627325D02*
D03*
X1765388Y1638638D02*
D03*
X1754074Y1627325D02*
D03*
X1735388Y1638638D02*
D03*
X1724074Y1627325D02*
D03*
X1705388Y1638638D02*
D03*
X1694074Y1627325D02*
D03*
X1675388Y1638638D02*
D03*
X1664074Y1627325D02*
D03*
X1645388Y1638638D02*
D03*
X1634074Y1627325D02*
D03*
X1615388Y1638638D02*
D03*
X1604074Y1627325D02*
D03*
X1585388Y1638638D02*
D03*
X1574074Y1627325D02*
D03*
X1555388Y1638638D02*
D03*
X1544074Y1627325D02*
D03*
X1525388Y1638638D02*
D03*
X1514074Y1627325D02*
D03*
X1495388Y1638638D02*
D03*
X1484074Y1627325D02*
D03*
X1465388Y1638638D02*
D03*
X1454074Y1627325D02*
D03*
X1435388Y1638638D02*
D03*
X1424074Y1627325D02*
D03*
X1405388Y1638638D02*
D03*
X1394074Y1627325D02*
D03*
X1375388Y1638638D02*
D03*
X1364074Y1627325D02*
D03*
X1345388Y1638638D02*
D03*
X1334074Y1627325D02*
D03*
X1315388Y1638638D02*
D03*
X1304074Y1627325D02*
D03*
X2455388Y1668638D02*
D03*
X2444074Y1657324D02*
D03*
X2425388Y1668638D02*
D03*
X2414074Y1657324D02*
D03*
X2395388Y1668638D02*
D03*
X2384074Y1657324D02*
D03*
X2365388Y1668638D02*
D03*
X2354074Y1657324D02*
D03*
X2335388Y1668638D02*
D03*
X2324074Y1657324D02*
D03*
X2305388Y1668638D02*
D03*
X2294074Y1657324D02*
D03*
X2275388Y1668638D02*
D03*
X2264074Y1657324D02*
D03*
X2245388Y1668638D02*
D03*
X2234074Y1657324D02*
D03*
X2215388Y1668638D02*
D03*
X2204074Y1657324D02*
D03*
X2185388Y1668638D02*
D03*
X2174074Y1657324D02*
D03*
X2155388Y1668638D02*
D03*
X2144074Y1657324D02*
D03*
X2125388Y1668638D02*
D03*
X2114074Y1657324D02*
D03*
X2095388Y1668638D02*
D03*
X2084074Y1657324D02*
D03*
X2065388Y1668638D02*
D03*
X2054074Y1657324D02*
D03*
X2035388Y1668638D02*
D03*
X2024074Y1657324D02*
D03*
X2005388Y1668638D02*
D03*
X1994074Y1657324D02*
D03*
X1975388Y1668638D02*
D03*
X1964074Y1657324D02*
D03*
X1945388Y1668638D02*
D03*
X1934074Y1657324D02*
D03*
X1915388Y1668638D02*
D03*
X1904074Y1657324D02*
D03*
X1885388Y1668638D02*
D03*
X1874074Y1657324D02*
D03*
X1855388Y1668638D02*
D03*
X1844074Y1657324D02*
D03*
X1825388Y1668638D02*
D03*
X1814074Y1657324D02*
D03*
X1795388Y1668638D02*
D03*
X1784074Y1657324D02*
D03*
X1765388Y1668638D02*
D03*
X1754074Y1657324D02*
D03*
X1735388Y1668638D02*
D03*
X1724074Y1657324D02*
D03*
X1705388Y1668638D02*
D03*
X1694074Y1657324D02*
D03*
X1675388Y1668638D02*
D03*
X1664074Y1657324D02*
D03*
X1645388Y1668638D02*
D03*
X1634074Y1657324D02*
D03*
X1615388Y1668638D02*
D03*
X1604074Y1657324D02*
D03*
X1585388Y1668638D02*
D03*
X1574074Y1657324D02*
D03*
X1555388Y1668638D02*
D03*
X1544074Y1657324D02*
D03*
X1525388Y1668638D02*
D03*
X1514074Y1657324D02*
D03*
X1495388Y1668638D02*
D03*
X1484074Y1657324D02*
D03*
X1465388Y1668638D02*
D03*
X1454074Y1657324D02*
D03*
X1435388Y1668638D02*
D03*
X1424074Y1657324D02*
D03*
X1405388Y1668638D02*
D03*
X1394074Y1657324D02*
D03*
X1375388Y1668638D02*
D03*
X1364074Y1657324D02*
D03*
X1345388Y1668638D02*
D03*
X1334074Y1657324D02*
D03*
X1315388Y1668638D02*
D03*
X1304074Y1657324D02*
D03*
X2455388Y1698638D02*
D03*
X2444074Y1687324D02*
D03*
X2425388Y1698638D02*
D03*
X2414074Y1687324D02*
D03*
X2395388Y1698638D02*
D03*
X2384074Y1687324D02*
D03*
X2365388Y1698638D02*
D03*
X2354074Y1687324D02*
D03*
X2335388Y1698638D02*
D03*
X2324074Y1687324D02*
D03*
X2305388Y1698638D02*
D03*
X2294074Y1687324D02*
D03*
X2275388Y1698638D02*
D03*
X2264074Y1687324D02*
D03*
X2245388Y1698638D02*
D03*
X2234074Y1687324D02*
D03*
X2215388Y1698638D02*
D03*
X2204074Y1687324D02*
D03*
X2185388Y1698638D02*
D03*
X2174074Y1687324D02*
D03*
X2155388Y1698638D02*
D03*
X2144074Y1687324D02*
D03*
X2125388Y1698638D02*
D03*
X2114074Y1687324D02*
D03*
X2095388Y1698638D02*
D03*
X2084074Y1687324D02*
D03*
X2065388Y1698638D02*
D03*
X2054074Y1687324D02*
D03*
X2035388Y1698638D02*
D03*
X2024074Y1687324D02*
D03*
X2005388Y1698638D02*
D03*
X1994074Y1687324D02*
D03*
X1975388Y1698638D02*
D03*
X1964074Y1687324D02*
D03*
X1945388Y1698638D02*
D03*
X1934074Y1687324D02*
D03*
X1915388Y1698638D02*
D03*
X1904074Y1687324D02*
D03*
X1885388Y1698638D02*
D03*
X1874074Y1687324D02*
D03*
X1855388Y1698638D02*
D03*
X1844074Y1687324D02*
D03*
X1825388Y1698638D02*
D03*
X1814074Y1687324D02*
D03*
X1795388Y1698638D02*
D03*
X1784074Y1687324D02*
D03*
X1765388Y1698638D02*
D03*
X1754074Y1687324D02*
D03*
X1735388Y1698638D02*
D03*
X1724074Y1687324D02*
D03*
X1705388Y1698638D02*
D03*
X1694074Y1687324D02*
D03*
X1675388Y1698638D02*
D03*
X1664074Y1687324D02*
D03*
X1645388Y1698638D02*
D03*
X1634074Y1687324D02*
D03*
X1615388Y1698638D02*
D03*
X1604074Y1687324D02*
D03*
X1585388Y1698638D02*
D03*
X1574074Y1687324D02*
D03*
X1555388Y1698638D02*
D03*
X1544074Y1687324D02*
D03*
X1525388Y1698638D02*
D03*
X1514074Y1687324D02*
D03*
X1495388Y1698638D02*
D03*
X1484074Y1687324D02*
D03*
X1465388Y1698638D02*
D03*
X1454074Y1687324D02*
D03*
X1435388Y1698638D02*
D03*
X1424074Y1687324D02*
D03*
X1405388Y1698638D02*
D03*
X1394074Y1687324D02*
D03*
X1375388Y1698638D02*
D03*
X1364074Y1687324D02*
D03*
X1345388Y1698638D02*
D03*
X1334074Y1687324D02*
D03*
X1315388Y1698638D02*
D03*
X1304074Y1687324D02*
D03*
X2455388Y1728638D02*
D03*
X2444074Y1717325D02*
D03*
X2425388Y1728638D02*
D03*
X2414074Y1717325D02*
D03*
X2395388Y1728638D02*
D03*
X2384074Y1717325D02*
D03*
X2365388Y1728638D02*
D03*
X2354074Y1717325D02*
D03*
X2335388Y1728638D02*
D03*
X2324074Y1717325D02*
D03*
X2305388Y1728638D02*
D03*
X2294074Y1717325D02*
D03*
X2275388Y1728638D02*
D03*
X2264074Y1717325D02*
D03*
X2245388Y1728638D02*
D03*
X2234074Y1717325D02*
D03*
X2215388Y1728638D02*
D03*
X2204074Y1717325D02*
D03*
X2185388Y1728638D02*
D03*
X2174074Y1717325D02*
D03*
X2155388Y1728638D02*
D03*
X2144074Y1717325D02*
D03*
X2125388Y1728638D02*
D03*
X2114074Y1717325D02*
D03*
X2095388Y1728638D02*
D03*
X2084074Y1717325D02*
D03*
X2065388Y1728638D02*
D03*
X2054074Y1717325D02*
D03*
X2035388Y1728638D02*
D03*
X2024074Y1717325D02*
D03*
X2005388Y1728638D02*
D03*
X1994074Y1717325D02*
D03*
X1975388Y1728638D02*
D03*
X1964074Y1717325D02*
D03*
X1945388Y1728638D02*
D03*
X1934074Y1717325D02*
D03*
X1915388Y1728638D02*
D03*
X1904074Y1717325D02*
D03*
X1885388Y1728638D02*
D03*
X1874074Y1717325D02*
D03*
X1855388Y1728638D02*
D03*
X1844074Y1717325D02*
D03*
X1825388Y1728638D02*
D03*
X1814074Y1717325D02*
D03*
X1795388Y1728638D02*
D03*
X1784074Y1717325D02*
D03*
X1765388Y1728638D02*
D03*
X1754074Y1717325D02*
D03*
X1735388Y1728638D02*
D03*
X1724074Y1717325D02*
D03*
X1705388Y1728638D02*
D03*
X1694074Y1717325D02*
D03*
X1675388Y1728638D02*
D03*
X1664074Y1717325D02*
D03*
X1645388Y1728638D02*
D03*
X1634074Y1717325D02*
D03*
X1615388Y1728638D02*
D03*
X1604074Y1717325D02*
D03*
X1585388Y1728638D02*
D03*
X1574074Y1717325D02*
D03*
X1555388Y1728638D02*
D03*
X1544074Y1717325D02*
D03*
X1525388Y1728638D02*
D03*
X1514074Y1717325D02*
D03*
X1495388Y1728638D02*
D03*
X1484074Y1717325D02*
D03*
X1465388Y1728638D02*
D03*
X1454074Y1717325D02*
D03*
X1435388Y1728638D02*
D03*
X1424074Y1717325D02*
D03*
X1405388Y1728638D02*
D03*
X1394074Y1717325D02*
D03*
X1375388Y1728638D02*
D03*
X1364074Y1717325D02*
D03*
X1345388Y1728638D02*
D03*
X1334074Y1717325D02*
D03*
X1315388Y1728638D02*
D03*
X1304074Y1717325D02*
D03*
X2455388Y1758638D02*
D03*
X2444074Y1747324D02*
D03*
X2425388Y1758638D02*
D03*
X2414074Y1747324D02*
D03*
X2395388Y1758638D02*
D03*
X2384074Y1747324D02*
D03*
X2365388Y1758638D02*
D03*
X2354074Y1747324D02*
D03*
X2335388Y1758638D02*
D03*
X2324074Y1747324D02*
D03*
X2305388Y1758638D02*
D03*
X2294074Y1747324D02*
D03*
X2275388Y1758638D02*
D03*
X2264074Y1747324D02*
D03*
X2245388Y1758638D02*
D03*
X2234074Y1747324D02*
D03*
X2215388Y1758638D02*
D03*
X2204074Y1747324D02*
D03*
X2185388Y1758638D02*
D03*
X2174074Y1747324D02*
D03*
X2155388Y1758638D02*
D03*
X2144074Y1747324D02*
D03*
X2125388Y1758638D02*
D03*
X2114074Y1747324D02*
D03*
X2095388Y1758638D02*
D03*
X2084074Y1747324D02*
D03*
X2065388Y1758638D02*
D03*
X2054074Y1747324D02*
D03*
X2035388Y1758638D02*
D03*
X2024074Y1747324D02*
D03*
X2005388Y1758638D02*
D03*
X1994074Y1747324D02*
D03*
X1975388Y1758638D02*
D03*
X1964074Y1747324D02*
D03*
X1945388Y1758638D02*
D03*
X1934074Y1747324D02*
D03*
X1915388Y1758638D02*
D03*
X1904074Y1747324D02*
D03*
X1885388Y1758638D02*
D03*
X1874074Y1747324D02*
D03*
X1855388Y1758638D02*
D03*
X1844074Y1747324D02*
D03*
X1825388Y1758638D02*
D03*
X1814074Y1747324D02*
D03*
X1795388Y1758638D02*
D03*
X1784074Y1747324D02*
D03*
X1765388Y1758638D02*
D03*
X1754074Y1747324D02*
D03*
X1735388Y1758638D02*
D03*
X1724074Y1747324D02*
D03*
X1705388Y1758638D02*
D03*
X1694074Y1747324D02*
D03*
X1675388Y1758638D02*
D03*
X1664074Y1747324D02*
D03*
X1645388Y1758638D02*
D03*
X1634074Y1747324D02*
D03*
X1615388Y1758638D02*
D03*
X1604074Y1747324D02*
D03*
X1585388Y1758638D02*
D03*
X1574074Y1747324D02*
D03*
X1555388Y1758638D02*
D03*
X1544074Y1747324D02*
D03*
X1525388Y1758638D02*
D03*
X1514074Y1747324D02*
D03*
X1495388Y1758638D02*
D03*
X1484074Y1747324D02*
D03*
X1465388Y1758638D02*
D03*
X1454074Y1747324D02*
D03*
X1435388Y1758638D02*
D03*
X1424074Y1747324D02*
D03*
X1405388Y1758638D02*
D03*
X1394074Y1747324D02*
D03*
X1375388Y1758638D02*
D03*
X1364074Y1747324D02*
D03*
X1345388Y1758638D02*
D03*
X1334074Y1747324D02*
D03*
X1315388Y1758638D02*
D03*
X1304074Y1747324D02*
D03*
X2455388Y1788638D02*
D03*
X2444074Y1777324D02*
D03*
X2425388Y1788638D02*
D03*
X2414074Y1777324D02*
D03*
X2395388Y1788638D02*
D03*
X2384074Y1777324D02*
D03*
X2365388Y1788638D02*
D03*
X2354074Y1777324D02*
D03*
X2335388Y1788638D02*
D03*
X2324074Y1777324D02*
D03*
X2305388Y1788638D02*
D03*
X2294074Y1777324D02*
D03*
X2275388Y1788638D02*
D03*
X2264074Y1777324D02*
D03*
X2245388Y1788638D02*
D03*
X2234074Y1777324D02*
D03*
X2215388Y1788638D02*
D03*
X2204074Y1777324D02*
D03*
X2185388Y1788638D02*
D03*
X2174074Y1777324D02*
D03*
X2155388Y1788638D02*
D03*
X2144074Y1777324D02*
D03*
X2125388Y1788638D02*
D03*
X2114074Y1777324D02*
D03*
X2095388Y1788638D02*
D03*
X2084074Y1777324D02*
D03*
X2065388Y1788638D02*
D03*
X2054074Y1777324D02*
D03*
X2035388Y1788638D02*
D03*
X2024074Y1777324D02*
D03*
X2005388Y1788638D02*
D03*
X1994074Y1777324D02*
D03*
X1975388Y1788638D02*
D03*
X1964074Y1777324D02*
D03*
X1945388Y1788638D02*
D03*
X1934074Y1777324D02*
D03*
X1915388Y1788638D02*
D03*
X1904074Y1777324D02*
D03*
X1885388Y1788638D02*
D03*
X1874074Y1777324D02*
D03*
X1855388Y1788638D02*
D03*
X1844074Y1777324D02*
D03*
X1825388Y1788638D02*
D03*
X1814074Y1777324D02*
D03*
X1795388Y1788638D02*
D03*
X1784074Y1777324D02*
D03*
X1765388Y1788638D02*
D03*
X1754074Y1777324D02*
D03*
X1735388Y1788638D02*
D03*
X1724074Y1777324D02*
D03*
X1705388Y1788638D02*
D03*
X1694074Y1777324D02*
D03*
X1675388Y1788638D02*
D03*
X1664074Y1777324D02*
D03*
X1645388Y1788638D02*
D03*
X1634074Y1777324D02*
D03*
X1615388Y1788638D02*
D03*
X1604074Y1777324D02*
D03*
X1585388Y1788638D02*
D03*
X1574074Y1777324D02*
D03*
X1555388Y1788638D02*
D03*
X1544074Y1777324D02*
D03*
X1525388Y1788638D02*
D03*
X1514074Y1777324D02*
D03*
X1495388Y1788638D02*
D03*
X1484074Y1777324D02*
D03*
X1465388Y1788638D02*
D03*
X1454074Y1777324D02*
D03*
X1435388Y1788638D02*
D03*
X1424074Y1777324D02*
D03*
X1405388Y1788638D02*
D03*
X1394074Y1777324D02*
D03*
X1375388Y1788638D02*
D03*
X1364074Y1777324D02*
D03*
X1345388Y1788638D02*
D03*
X1334074Y1777324D02*
D03*
X1315388Y1788638D02*
D03*
X1304074Y1777324D02*
D03*
X2455388Y1818638D02*
D03*
X2444074Y1807325D02*
D03*
X2425388Y1818638D02*
D03*
X2414074Y1807325D02*
D03*
X2395388Y1818638D02*
D03*
X2384074Y1807325D02*
D03*
X2365388Y1818638D02*
D03*
X2354074Y1807325D02*
D03*
X2335388Y1818638D02*
D03*
X2324074Y1807325D02*
D03*
X2305388Y1818638D02*
D03*
X2294074Y1807325D02*
D03*
X2275388Y1818638D02*
D03*
X2264074Y1807325D02*
D03*
X2245388Y1818638D02*
D03*
X2234074Y1807325D02*
D03*
X2215388Y1818638D02*
D03*
X2204074Y1807325D02*
D03*
X2185388Y1818638D02*
D03*
X2174074Y1807325D02*
D03*
X2155388Y1818638D02*
D03*
X2144074Y1807325D02*
D03*
X2125388Y1818638D02*
D03*
X2114074Y1807325D02*
D03*
X2095388Y1818638D02*
D03*
X2084074Y1807325D02*
D03*
X2065388Y1818638D02*
D03*
X2054074Y1807325D02*
D03*
X2035388Y1818638D02*
D03*
X2024074Y1807325D02*
D03*
X2005388Y1818638D02*
D03*
X1994074Y1807325D02*
D03*
X1975388Y1818638D02*
D03*
X1964074Y1807325D02*
D03*
X1945388Y1818638D02*
D03*
X1934074Y1807325D02*
D03*
X1915388Y1818638D02*
D03*
X1904074Y1807325D02*
D03*
X1885388Y1818638D02*
D03*
X1874074Y1807325D02*
D03*
X1855388Y1818638D02*
D03*
X1844074Y1807325D02*
D03*
X1825388Y1818638D02*
D03*
X1814074Y1807325D02*
D03*
X1795388Y1818638D02*
D03*
X1784074Y1807325D02*
D03*
X1765388Y1818638D02*
D03*
X1754074Y1807325D02*
D03*
X1735388Y1818638D02*
D03*
X1724074Y1807325D02*
D03*
X1705388Y1818638D02*
D03*
X1694074Y1807325D02*
D03*
X1675388Y1818638D02*
D03*
X1664074Y1807325D02*
D03*
X1645388Y1818638D02*
D03*
X1634074Y1807325D02*
D03*
X1615388Y1818638D02*
D03*
X1604074Y1807325D02*
D03*
X1585388Y1818638D02*
D03*
X1574074Y1807325D02*
D03*
X1555388Y1818638D02*
D03*
X1544074Y1807325D02*
D03*
X1525388Y1818638D02*
D03*
X1514074Y1807325D02*
D03*
X1495388Y1818638D02*
D03*
X1484074Y1807325D02*
D03*
X1465388Y1818638D02*
D03*
X1454074Y1807325D02*
D03*
X1435388Y1818638D02*
D03*
X1424074Y1807325D02*
D03*
X1405388Y1818638D02*
D03*
X1394074Y1807325D02*
D03*
X1375388Y1818638D02*
D03*
X1364074Y1807325D02*
D03*
X1345388Y1818638D02*
D03*
X1334074Y1807325D02*
D03*
X1315388Y1818638D02*
D03*
X1304074Y1807325D02*
D03*
X2455388Y1848638D02*
D03*
X2444074Y1837324D02*
D03*
X2425388Y1848638D02*
D03*
X2414074Y1837324D02*
D03*
X2395388Y1848638D02*
D03*
X2384074Y1837324D02*
D03*
X2365388Y1848638D02*
D03*
X2354074Y1837324D02*
D03*
X2335388Y1848638D02*
D03*
X2324074Y1837324D02*
D03*
X2305388Y1848638D02*
D03*
X2294074Y1837324D02*
D03*
X2275388Y1848638D02*
D03*
X2264074Y1837324D02*
D03*
X2245388Y1848638D02*
D03*
X2234074Y1837324D02*
D03*
X2215388Y1848638D02*
D03*
X2204074Y1837324D02*
D03*
X2185388Y1848638D02*
D03*
X2174074Y1837324D02*
D03*
X2155388Y1848638D02*
D03*
X2144074Y1837324D02*
D03*
X2125388Y1848638D02*
D03*
X2114074Y1837324D02*
D03*
X2095388Y1848638D02*
D03*
X2084074Y1837324D02*
D03*
X2065388Y1848638D02*
D03*
X2054074Y1837324D02*
D03*
X2035388Y1848638D02*
D03*
X2024074Y1837324D02*
D03*
X2005388Y1848638D02*
D03*
X1994074Y1837324D02*
D03*
X1975388Y1848638D02*
D03*
X1964074Y1837324D02*
D03*
X1945388Y1848638D02*
D03*
X1934074Y1837324D02*
D03*
X1915388Y1848638D02*
D03*
X1904074Y1837324D02*
D03*
X1885388Y1848638D02*
D03*
X1874074Y1837324D02*
D03*
X1855388Y1848638D02*
D03*
X1844074Y1837324D02*
D03*
X1825388Y1848638D02*
D03*
X1814074Y1837324D02*
D03*
X1795388Y1848638D02*
D03*
X1784074Y1837324D02*
D03*
X1765388Y1848638D02*
D03*
X1754074Y1837324D02*
D03*
X1735388Y1848638D02*
D03*
X1724074Y1837324D02*
D03*
X1705388Y1848638D02*
D03*
X1694074Y1837324D02*
D03*
X1675388Y1848638D02*
D03*
X1664074Y1837324D02*
D03*
X1645388Y1848638D02*
D03*
X1634074Y1837324D02*
D03*
X1615388Y1848638D02*
D03*
X1604074Y1837324D02*
D03*
X1585388Y1848638D02*
D03*
X1574074Y1837324D02*
D03*
X1555388Y1848638D02*
D03*
X1544074Y1837324D02*
D03*
X1525388Y1848638D02*
D03*
X1514074Y1837324D02*
D03*
X1495388Y1848638D02*
D03*
X1484074Y1837324D02*
D03*
X1465388Y1848638D02*
D03*
X1454074Y1837324D02*
D03*
X1435388Y1848638D02*
D03*
X1424074Y1837324D02*
D03*
X1405388Y1848638D02*
D03*
X1394074Y1837324D02*
D03*
X1375388Y1848638D02*
D03*
X1364074Y1837324D02*
D03*
X1345388Y1848638D02*
D03*
X1334074Y1837324D02*
D03*
X1315388Y1848638D02*
D03*
X1304074Y1837324D02*
D03*
X2455388Y1878638D02*
D03*
X2444074Y1867324D02*
D03*
X2425388Y1878638D02*
D03*
X2414074Y1867324D02*
D03*
X2395388Y1878638D02*
D03*
X2384074Y1867324D02*
D03*
X2365388Y1878638D02*
D03*
X2354074Y1867324D02*
D03*
X2335388Y1878638D02*
D03*
X2324074Y1867324D02*
D03*
X2305388Y1878638D02*
D03*
X2294074Y1867324D02*
D03*
X2275388Y1878638D02*
D03*
X2264074Y1867324D02*
D03*
X2245388Y1878638D02*
D03*
X2234074Y1867324D02*
D03*
X2215388Y1878638D02*
D03*
X2204074Y1867324D02*
D03*
X2185388Y1878638D02*
D03*
X2174074Y1867324D02*
D03*
X2155388Y1878638D02*
D03*
X2144074Y1867324D02*
D03*
X2125388Y1878638D02*
D03*
X2114074Y1867324D02*
D03*
X2095388Y1878638D02*
D03*
X2084074Y1867324D02*
D03*
X2065388Y1878638D02*
D03*
X2054074Y1867324D02*
D03*
X2035388Y1878638D02*
D03*
X2024074Y1867324D02*
D03*
X2005388Y1878638D02*
D03*
X1994074Y1867324D02*
D03*
X1975388Y1878638D02*
D03*
X1964074Y1867324D02*
D03*
X1945388Y1878638D02*
D03*
X1934074Y1867324D02*
D03*
X1915388Y1878638D02*
D03*
X1904074Y1867324D02*
D03*
X1885388Y1878638D02*
D03*
X1874074Y1867324D02*
D03*
X1855388Y1878638D02*
D03*
X1844074Y1867324D02*
D03*
X1825388Y1878638D02*
D03*
X1814074Y1867324D02*
D03*
X1795388Y1878638D02*
D03*
X1784074Y1867324D02*
D03*
X1765388Y1878638D02*
D03*
X1754074Y1867324D02*
D03*
X1735388Y1878638D02*
D03*
X1724074Y1867324D02*
D03*
X1705388Y1878638D02*
D03*
X1694074Y1867324D02*
D03*
X1675388Y1878638D02*
D03*
X1664074Y1867324D02*
D03*
X1645388Y1878638D02*
D03*
X1634074Y1867324D02*
D03*
X1615388Y1878638D02*
D03*
X1604074Y1867324D02*
D03*
X1585388Y1878638D02*
D03*
X1574074Y1867324D02*
D03*
X1555388Y1878638D02*
D03*
X1544074Y1867324D02*
D03*
X1525388Y1878638D02*
D03*
X1514074Y1867324D02*
D03*
X1495388Y1878638D02*
D03*
X1484074Y1867324D02*
D03*
X1465388Y1878638D02*
D03*
X1454074Y1867324D02*
D03*
X1435388Y1878638D02*
D03*
X1424074Y1867324D02*
D03*
X1405388Y1878638D02*
D03*
X1394074Y1867324D02*
D03*
X1375388Y1878638D02*
D03*
X1364074Y1867324D02*
D03*
X1345388Y1878638D02*
D03*
X1334074Y1867324D02*
D03*
X1315388Y1878638D02*
D03*
X1304074Y1867324D02*
D03*
D63*
X2368524Y1334054D02*
D03*
X2359024Y1362054D02*
D03*
X2349524Y1334054D02*
D03*
X2359024D02*
D03*
X2368524Y1362054D02*
D03*
X2349524D02*
D03*
D64*
X2359024Y1348054D02*
D03*
D65*
X1957524Y1239304D02*
D03*
D66*
X2011524D02*
D03*
X1984524D02*
D03*
X1930524D02*
D03*
X2420274Y1491554D02*
D03*
X2402524Y1239304D02*
D03*
X2390274Y1462804D02*
D03*
X2292274Y1341854D02*
D03*
D67*
X2015274Y1337054D02*
D03*
X2001274D02*
D03*
X2015274Y1321304D02*
D03*
X2001274D02*
D03*
X2252524Y1334804D02*
D03*
X2238524D02*
D03*
X2399024Y1319054D02*
D03*
X2413024D02*
D03*
X2388524Y1269054D02*
D03*
X2402524D02*
D03*
X2402524Y1283304D02*
D03*
X2388524D02*
D03*
X2252774Y1319804D02*
D03*
X2238774D02*
D03*
D68*
X1916274Y1377054D02*
D03*
Y1391054D02*
D03*
X1936024Y1396804D02*
D03*
Y1410804D02*
D03*
X2124774Y1425554D02*
D03*
Y1411554D02*
D03*
Y1397054D02*
D03*
Y1383054D02*
D03*
X2108524Y1382804D02*
D03*
Y1396804D02*
D03*
X2089774Y1383054D02*
D03*
Y1369054D02*
D03*
X2146024Y1418304D02*
D03*
Y1404304D02*
D03*
X2211024Y1404554D02*
D03*
Y1418554D02*
D03*
X2334524Y1409804D02*
D03*
Y1423804D02*
D03*
X2326024Y1359304D02*
D03*
Y1345304D02*
D03*
X2417524Y1283004D02*
D03*
Y1269004D02*
D03*
D69*
X2178024Y1371054D02*
D03*
X2168524Y1393054D02*
D03*
X2187524D02*
D03*
X2177774Y1453604D02*
D03*
X2187274Y1431604D02*
D03*
X2168274D02*
D03*
D70*
X2238824Y1379104D02*
D03*
Y1391804D02*
D03*
X2292723Y1468004D02*
D03*
X2238824Y1455304D02*
D03*
X2292723D02*
D03*
Y1429904D02*
D03*
X2238824Y1468004D02*
D03*
X2292723Y1442604D02*
D03*
X2238824D02*
D03*
Y1429904D02*
D03*
Y1404504D02*
D03*
X2292723Y1417204D02*
D03*
Y1404504D02*
D03*
Y1379104D02*
D03*
X2238824Y1417204D02*
D03*
X2292723Y1391804D02*
D03*
D71*
X2369024Y1391171D02*
D03*
Y1423937D02*
D03*
D72*
X2416524Y1409304D02*
D03*
X2393524Y1399804D02*
D03*
Y1418804D02*
D03*
D73*
X2393774Y1343054D02*
D03*
Y1362054D02*
D03*
X2417774D02*
D03*
Y1352554D02*
D03*
Y1343054D02*
D03*
D74*
X1877524Y1400404D02*
D03*
Y1387704D02*
D03*
Y1375004D02*
D03*
Y1362304D02*
D03*
Y1349604D02*
D03*
Y1336904D02*
D03*
Y1324204D02*
D03*
Y1311504D02*
D03*
Y1298804D02*
D03*
Y1286104D02*
D03*
Y1273404D02*
D03*
Y1260704D02*
D03*
Y1248004D02*
D03*
Y1235304D02*
D03*
X1707524D02*
D03*
Y1248004D02*
D03*
Y1260704D02*
D03*
Y1273404D02*
D03*
Y1286104D02*
D03*
Y1298804D02*
D03*
Y1311504D02*
D03*
Y1324204D02*
D03*
Y1336904D02*
D03*
Y1349604D02*
D03*
Y1362304D02*
D03*
Y1375004D02*
D03*
Y1387704D02*
D03*
Y1400404D02*
D03*
D75*
X1849674Y1225304D02*
D03*
X1836974D02*
D03*
X1824274D02*
D03*
X1811574D02*
D03*
X1798874D02*
D03*
X1786174D02*
D03*
X1773474D02*
D03*
X1760774D02*
D03*
X1748074D02*
D03*
X1735374D02*
D03*
D76*
X1782524Y1325404D02*
D03*
D77*
X1285275Y1423323D02*
D03*
Y1468324D02*
D03*
Y1438324D02*
D03*
D78*
X1253024Y1409053D02*
D03*
Y1484054D02*
D03*
D79*
X1275523Y1408553D02*
D03*
Y1484555D02*
D03*
D80*
X1247000Y1387000D02*
D03*
Y1377000D02*
D03*
Y1367000D02*
D03*
Y1357000D02*
D03*
Y1347000D02*
D03*
X1232000D02*
D03*
Y1357000D02*
D03*
Y1367000D02*
D03*
Y1377000D02*
D03*
Y1387000D02*
D03*
X2512150D02*
D03*
Y1377000D02*
D03*
Y1367000D02*
D03*
Y1357000D02*
D03*
Y1347000D02*
D03*
X2527150D02*
D03*
Y1357000D02*
D03*
Y1367000D02*
D03*
Y1377000D02*
D03*
Y1387000D02*
D03*
X2512000Y1773000D02*
D03*
Y1763000D02*
D03*
Y1753000D02*
D03*
Y1743000D02*
D03*
Y1733000D02*
D03*
X2527000D02*
D03*
Y1743000D02*
D03*
Y1753000D02*
D03*
Y1763000D02*
D03*
Y1773000D02*
D03*
X1246900D02*
D03*
Y1763000D02*
D03*
Y1753000D02*
D03*
Y1743000D02*
D03*
Y1733000D02*
D03*
X1231900D02*
D03*
Y1743000D02*
D03*
Y1753000D02*
D03*
Y1763000D02*
D03*
Y1773000D02*
D03*
X1492000Y1188950D02*
D03*
X1482000D02*
D03*
X1472000D02*
D03*
X1462000D02*
D03*
X1452000D02*
D03*
Y1173950D02*
D03*
X1462000D02*
D03*
X1472000D02*
D03*
X1482000D02*
D03*
X1492000D02*
D03*
X1892000Y1173850D02*
D03*
X1882000D02*
D03*
X1872000D02*
D03*
X1862000D02*
D03*
X1852000D02*
D03*
Y1188850D02*
D03*
X1862000D02*
D03*
X1872000D02*
D03*
X1882000D02*
D03*
X1892000D02*
D03*
X2292000Y1173850D02*
D03*
X2282000D02*
D03*
X2272000D02*
D03*
X2262000D02*
D03*
X2252000D02*
D03*
Y1188850D02*
D03*
X2262000D02*
D03*
X2272000D02*
D03*
X2282000D02*
D03*
X2292000D02*
D03*
X2293000Y1948850D02*
D03*
X2283000D02*
D03*
X2273000D02*
D03*
X2263000D02*
D03*
X2253000D02*
D03*
Y1933850D02*
D03*
X2263000D02*
D03*
X2273000D02*
D03*
X2283000D02*
D03*
X2293000D02*
D03*
X1893000Y1948850D02*
D03*
X1883000D02*
D03*
X1873000D02*
D03*
X1863000D02*
D03*
X1853000D02*
D03*
Y1933850D02*
D03*
X1863000D02*
D03*
X1873000D02*
D03*
X1883000D02*
D03*
X1893000D02*
D03*
X1493000Y1933950D02*
D03*
X1483000D02*
D03*
X1473000D02*
D03*
X1463000D02*
D03*
X1453000D02*
D03*
Y1948950D02*
D03*
X1463000D02*
D03*
X1473000D02*
D03*
X1483000D02*
D03*
X1493000D02*
D03*
X2293000Y1568850D02*
D03*
X2283000D02*
D03*
X2273000D02*
D03*
X2263000D02*
D03*
X2253000D02*
D03*
Y1553850D02*
D03*
X2263000D02*
D03*
X2273000D02*
D03*
X2283000D02*
D03*
X2293000D02*
D03*
X1893000Y1568850D02*
D03*
X1883000D02*
D03*
X1873000D02*
D03*
X1863000D02*
D03*
X1853000D02*
D03*
Y1553850D02*
D03*
X1863000D02*
D03*
X1873000D02*
D03*
X1883000D02*
D03*
X1893000D02*
D03*
X1493000Y1553950D02*
D03*
X1483000D02*
D03*
X1473000D02*
D03*
X1463000D02*
D03*
X1453000D02*
D03*
Y1568950D02*
D03*
X1463000D02*
D03*
X1473000D02*
D03*
X1483000D02*
D03*
X1493000D02*
D03*
X2271250Y1858250D02*
D03*
X2274250Y1620500D02*
D03*
X2243750Y1832000D02*
D03*
Y1620388D02*
D03*
X2214500Y1802138D02*
D03*
Y1620388D02*
D03*
X2182750Y1771000D02*
D03*
Y1620000D02*
D03*
X2152750Y1740000D02*
D03*
Y1620000D02*
D03*
X2121750Y1710000D02*
D03*
Y1620000D02*
D03*
X2094000Y1680250D02*
D03*
Y1620388D02*
D03*
X2063750Y1651000D02*
D03*
X2063250Y1620000D02*
D03*
X1384500Y1858000D02*
D03*
X1504500D02*
D03*
X1324750Y1677750D02*
D03*
Y1647500D02*
D03*
Y1617750D02*
D03*
X1324500Y1707750D02*
D03*
X1324750Y1737750D02*
D03*
Y1767750D02*
D03*
Y1797750D02*
D03*
X1324500Y1828000D02*
D03*
X1324750Y1858000D02*
D03*
X2404750Y1858500D02*
D03*
X2404500Y1828500D02*
D03*
X2404750Y1798250D02*
D03*
Y1768250D02*
D03*
Y1738250D02*
D03*
X2404500Y1708250D02*
D03*
X2404750Y1678250D02*
D03*
Y1648000D02*
D03*
Y1618250D02*
D03*
X2374500Y1858500D02*
D03*
X2374250Y1828500D02*
D03*
X2374500Y1798250D02*
D03*
Y1768250D02*
D03*
Y1738250D02*
D03*
X2374250Y1708250D02*
D03*
X2374500Y1678250D02*
D03*
Y1648000D02*
D03*
Y1618250D02*
D03*
X2344500Y1858500D02*
D03*
X2344250Y1828500D02*
D03*
X2344500Y1798250D02*
D03*
Y1768250D02*
D03*
Y1738250D02*
D03*
X2344250Y1708250D02*
D03*
X2344500Y1678250D02*
D03*
Y1648000D02*
D03*
Y1618250D02*
D03*
X2314500Y1858500D02*
D03*
X2314250Y1828500D02*
D03*
X2314500Y1798250D02*
D03*
Y1768250D02*
D03*
Y1738250D02*
D03*
X2314250Y1708250D02*
D03*
X2314500Y1678250D02*
D03*
Y1648000D02*
D03*
Y1618250D02*
D03*
X2284750Y1858500D02*
D03*
X2284500Y1828500D02*
D03*
X2284750Y1798250D02*
D03*
Y1768250D02*
D03*
Y1738250D02*
D03*
X2284500Y1708250D02*
D03*
X2284750Y1678250D02*
D03*
Y1648000D02*
D03*
Y1618250D02*
D03*
X2254500Y1858500D02*
D03*
X2254250Y1828500D02*
D03*
X2254500Y1798250D02*
D03*
Y1768250D02*
D03*
Y1738250D02*
D03*
X2254250Y1708250D02*
D03*
X2254500Y1678250D02*
D03*
Y1648000D02*
D03*
Y1618250D02*
D03*
X2224750Y1858500D02*
D03*
X2224500Y1828500D02*
D03*
X2224750Y1798250D02*
D03*
Y1768250D02*
D03*
Y1738250D02*
D03*
X2224500Y1708250D02*
D03*
X2224750Y1678250D02*
D03*
Y1648000D02*
D03*
Y1618250D02*
D03*
X2194500Y1858500D02*
D03*
X2194250Y1828500D02*
D03*
X2194500Y1798250D02*
D03*
Y1768250D02*
D03*
Y1738250D02*
D03*
X2194250Y1708250D02*
D03*
X2194500Y1678250D02*
D03*
Y1648000D02*
D03*
Y1618250D02*
D03*
X2164500Y1858500D02*
D03*
X2164250Y1828500D02*
D03*
X2164500Y1798250D02*
D03*
Y1768250D02*
D03*
Y1738250D02*
D03*
X2164250Y1708250D02*
D03*
X2164500Y1678250D02*
D03*
Y1648000D02*
D03*
Y1618250D02*
D03*
X2134500Y1858500D02*
D03*
X2134250Y1828500D02*
D03*
X2134500Y1798250D02*
D03*
Y1768250D02*
D03*
Y1738250D02*
D03*
X2134250Y1708250D02*
D03*
X2134500Y1678250D02*
D03*
Y1648000D02*
D03*
Y1618250D02*
D03*
X2104500Y1858500D02*
D03*
X2104250Y1828500D02*
D03*
X2104500Y1798250D02*
D03*
Y1768250D02*
D03*
Y1738250D02*
D03*
X2104250Y1708250D02*
D03*
X2104500Y1678250D02*
D03*
Y1648000D02*
D03*
Y1618250D02*
D03*
X2074500Y1858500D02*
D03*
X2074250Y1828500D02*
D03*
X2074500Y1798250D02*
D03*
Y1768250D02*
D03*
Y1738250D02*
D03*
X2074250Y1708250D02*
D03*
X2074500Y1678250D02*
D03*
Y1648000D02*
D03*
Y1618250D02*
D03*
X2044500Y1858500D02*
D03*
X2044250Y1828500D02*
D03*
X2044500Y1798250D02*
D03*
Y1768250D02*
D03*
Y1738250D02*
D03*
X2044250Y1708250D02*
D03*
X2044500Y1678250D02*
D03*
Y1648000D02*
D03*
Y1618250D02*
D03*
X2014750Y1858500D02*
D03*
X2014500Y1828500D02*
D03*
X2014750Y1798250D02*
D03*
Y1768250D02*
D03*
Y1738250D02*
D03*
X2014500Y1708250D02*
D03*
X2014750Y1678250D02*
D03*
Y1648000D02*
D03*
Y1618250D02*
D03*
X1984500Y1858500D02*
D03*
X1984250Y1828500D02*
D03*
X1984500Y1798250D02*
D03*
Y1768250D02*
D03*
Y1738250D02*
D03*
X1984250Y1708250D02*
D03*
X1984500Y1678250D02*
D03*
Y1648000D02*
D03*
Y1618250D02*
D03*
X1954500Y1858500D02*
D03*
X1954250Y1828500D02*
D03*
X1954500Y1798250D02*
D03*
Y1768250D02*
D03*
Y1738250D02*
D03*
X1954250Y1708250D02*
D03*
X1954500Y1678250D02*
D03*
Y1648000D02*
D03*
Y1618250D02*
D03*
X1924250Y1858500D02*
D03*
X1924000Y1828500D02*
D03*
X1924250Y1798250D02*
D03*
Y1768250D02*
D03*
Y1738250D02*
D03*
X1924000Y1708250D02*
D03*
X1924250Y1678250D02*
D03*
Y1648000D02*
D03*
Y1618250D02*
D03*
X1894500Y1858000D02*
D03*
X1894250Y1828000D02*
D03*
X1894500Y1797750D02*
D03*
Y1767750D02*
D03*
Y1737750D02*
D03*
X1894250Y1707750D02*
D03*
X1894500Y1677750D02*
D03*
Y1647500D02*
D03*
Y1617750D02*
D03*
X2434750Y1857500D02*
D03*
X2434500Y1827500D02*
D03*
X2434750Y1797250D02*
D03*
Y1767250D02*
D03*
Y1737250D02*
D03*
X2434500Y1707250D02*
D03*
X2434750Y1677250D02*
D03*
Y1647000D02*
D03*
Y1617250D02*
D03*
X1864750Y1858000D02*
D03*
X1864500Y1828000D02*
D03*
X1864750Y1797750D02*
D03*
Y1767750D02*
D03*
Y1737750D02*
D03*
X1864500Y1707750D02*
D03*
X1864750Y1677750D02*
D03*
Y1647500D02*
D03*
Y1617750D02*
D03*
X1834500Y1858000D02*
D03*
X1834250Y1828000D02*
D03*
X1834500Y1797750D02*
D03*
Y1767750D02*
D03*
Y1737750D02*
D03*
X1834250Y1707750D02*
D03*
X1834500Y1677750D02*
D03*
Y1647500D02*
D03*
Y1617750D02*
D03*
X1804500Y1858000D02*
D03*
X1804250Y1828000D02*
D03*
X1804500Y1797750D02*
D03*
Y1767750D02*
D03*
Y1737750D02*
D03*
X1804250Y1707750D02*
D03*
X1804500Y1677750D02*
D03*
Y1647500D02*
D03*
Y1617750D02*
D03*
X1774500Y1858000D02*
D03*
X1774250Y1828000D02*
D03*
X1774500Y1797750D02*
D03*
Y1767750D02*
D03*
Y1737750D02*
D03*
X1774250Y1707750D02*
D03*
X1774500Y1677750D02*
D03*
Y1647500D02*
D03*
Y1617750D02*
D03*
X1744750Y1858000D02*
D03*
X1744500Y1828000D02*
D03*
X1744750Y1797750D02*
D03*
Y1767750D02*
D03*
Y1737750D02*
D03*
X1744500Y1707750D02*
D03*
X1744750Y1677750D02*
D03*
Y1647500D02*
D03*
Y1617750D02*
D03*
X1714500Y1858000D02*
D03*
X1714250Y1828000D02*
D03*
X1714500Y1797750D02*
D03*
Y1767750D02*
D03*
Y1737750D02*
D03*
X1714250Y1707750D02*
D03*
X1714500Y1677750D02*
D03*
Y1647500D02*
D03*
Y1617750D02*
D03*
X1684500Y1858000D02*
D03*
X1684250Y1828000D02*
D03*
X1684500Y1797750D02*
D03*
Y1767750D02*
D03*
Y1737750D02*
D03*
X1684250Y1707750D02*
D03*
X1684500Y1677750D02*
D03*
Y1647500D02*
D03*
Y1617750D02*
D03*
X1654500Y1858000D02*
D03*
X1654250Y1828000D02*
D03*
X1654500Y1797750D02*
D03*
Y1767750D02*
D03*
Y1737750D02*
D03*
X1654250Y1707750D02*
D03*
X1654500Y1677750D02*
D03*
Y1647500D02*
D03*
Y1617750D02*
D03*
X1624750Y1858000D02*
D03*
X1624500Y1828000D02*
D03*
X1624750Y1797750D02*
D03*
Y1767750D02*
D03*
Y1737750D02*
D03*
X1624500Y1707750D02*
D03*
X1624750Y1677750D02*
D03*
Y1647500D02*
D03*
Y1617750D02*
D03*
X1594750Y1858000D02*
D03*
X1594500Y1828000D02*
D03*
X1594750Y1797750D02*
D03*
Y1767750D02*
D03*
Y1737750D02*
D03*
X1594500Y1707750D02*
D03*
X1594750Y1677750D02*
D03*
Y1647500D02*
D03*
Y1617750D02*
D03*
X1564500Y1858000D02*
D03*
X1564250Y1828000D02*
D03*
X1564500Y1797750D02*
D03*
Y1767750D02*
D03*
Y1737750D02*
D03*
X1564250Y1707750D02*
D03*
X1564500Y1677750D02*
D03*
Y1647500D02*
D03*
Y1617750D02*
D03*
X1534500Y1858000D02*
D03*
X1534250Y1828000D02*
D03*
X1534500Y1797750D02*
D03*
Y1767750D02*
D03*
Y1737750D02*
D03*
X1534250Y1707750D02*
D03*
X1534500Y1677750D02*
D03*
Y1647500D02*
D03*
Y1617750D02*
D03*
X1504250Y1828000D02*
D03*
X1504500Y1797750D02*
D03*
Y1767750D02*
D03*
Y1737750D02*
D03*
X1504250Y1707750D02*
D03*
X1504500Y1677750D02*
D03*
Y1647500D02*
D03*
Y1617750D02*
D03*
X1474750Y1858000D02*
D03*
X1474500Y1828000D02*
D03*
X1474750Y1797750D02*
D03*
Y1767750D02*
D03*
Y1737750D02*
D03*
X1474500Y1707750D02*
D03*
X1474750Y1677750D02*
D03*
Y1647500D02*
D03*
Y1617750D02*
D03*
X1444750Y1858000D02*
D03*
X1444500Y1828000D02*
D03*
X1444750Y1797750D02*
D03*
Y1767750D02*
D03*
Y1737750D02*
D03*
X1444500Y1707750D02*
D03*
X1444750Y1677750D02*
D03*
Y1647500D02*
D03*
Y1617750D02*
D03*
X1414500Y1858000D02*
D03*
X1414250Y1828000D02*
D03*
X1414500Y1797750D02*
D03*
Y1767750D02*
D03*
Y1737750D02*
D03*
X1414250Y1707750D02*
D03*
X1414500Y1677750D02*
D03*
Y1647500D02*
D03*
Y1617750D02*
D03*
X1384250Y1828000D02*
D03*
X1384500Y1797750D02*
D03*
Y1767750D02*
D03*
Y1737750D02*
D03*
X1384250Y1707750D02*
D03*
X1384500Y1677750D02*
D03*
Y1647500D02*
D03*
Y1617750D02*
D03*
X1354500Y1857750D02*
D03*
X1354250Y1827750D02*
D03*
X1354500Y1797500D02*
D03*
Y1767500D02*
D03*
Y1737500D02*
D03*
X1354250Y1707500D02*
D03*
X1354500Y1677500D02*
D03*
Y1647250D02*
D03*
Y1617500D02*
D03*
X1849774Y1250804D02*
D03*
X1828274Y1246804D02*
D03*
X2154274Y1317304D02*
D03*
X1645524Y1334054D02*
D03*
X2439024Y1452804D02*
D03*
X2356774Y1495304D02*
D03*
X1541024Y1333804D02*
D03*
X1393774Y1334054D02*
D03*
X2024524Y1336804D02*
D03*
X1903774Y1260704D02*
D03*
X2440524Y1292054D02*
D03*
X2422774Y1427054D02*
D03*
X2447774Y1438323D02*
D03*
Y1446354D02*
D03*
X1730381Y1287054D02*
D03*
Y1272054D02*
D03*
X1728494Y1262054D02*
D03*
Y1247054D02*
D03*
X2103974Y1287054D02*
D03*
X2032774D02*
D03*
X1849674D02*
D03*
X2267274Y1334554D02*
D03*
X2184274Y1334804D02*
D03*
X2125072Y1277054D02*
D03*
X1729524Y1323554D02*
D03*
X1900274Y1324054D02*
D03*
X2154274Y1361554D02*
D03*
X1900024Y1391904D02*
D03*
X1839274Y1362304D02*
D03*
X1900524Y1337554D02*
D03*
X1846274Y1387554D02*
D03*
X1809524Y1374304D02*
D03*
X1668024Y1357054D02*
D03*
X1657774Y1374804D02*
D03*
X2262284Y1391904D02*
D03*
X2277974Y1391804D02*
D03*
X2136274Y1354554D02*
D03*
Y1341854D02*
D03*
X2179024Y1411804D02*
D03*
X2219274Y1394054D02*
D03*
X2351274Y1402054D02*
D03*
X2385774Y1327804D02*
D03*
X2434524Y1343054D02*
D03*
X2381024Y1375804D02*
D03*
X2368274Y1320954D02*
D03*
X2367024Y1472304D02*
D03*
D81*
X2031500Y1597000D02*
D03*
X2031600Y1907250D02*
D03*
X1397000Y1907250D02*
D03*
X2031774Y1217274D02*
D03*
X1397274Y1527524D02*
D03*
X2031874Y1527524D02*
D03*
D82*
X2082300Y1597000D02*
D03*
X2107700D02*
D03*
X2133100D02*
D03*
X2158500D02*
D03*
X2183900D02*
D03*
X2209300D02*
D03*
X2234700D02*
D03*
X2056900D02*
D03*
X2361800Y1907250D02*
D03*
X2336400D02*
D03*
X2311000D02*
D03*
X2285600D02*
D03*
X2260200D02*
D03*
X2234800D02*
D03*
X2209400D02*
D03*
X2184000D02*
D03*
X2158600D02*
D03*
X2133200D02*
D03*
X2107800D02*
D03*
X2082400D02*
D03*
X2057000D02*
D03*
X1422400Y1907250D02*
D03*
X1447800D02*
D03*
X1473200D02*
D03*
X1498600D02*
D03*
X1524000D02*
D03*
X1549400D02*
D03*
X1574800D02*
D03*
X1600200D02*
D03*
X1625600D02*
D03*
X1651000D02*
D03*
X1676400D02*
D03*
X1701800D02*
D03*
X1727200D02*
D03*
X1752600D02*
D03*
X1778000D02*
D03*
X1803400D02*
D03*
X1828800D02*
D03*
X1854200D02*
D03*
X1879600D02*
D03*
X1905000D02*
D03*
X1930400D02*
D03*
X1955800D02*
D03*
X1981200D02*
D03*
X2006600D02*
D03*
X1274774Y1269654D02*
D03*
Y1295054D02*
D03*
Y1320454D02*
D03*
X1341275Y1398954D02*
D03*
Y1424354D02*
D03*
Y1449754D02*
D03*
Y1475154D02*
D03*
X2057174Y1217274D02*
D03*
X2234974D02*
D03*
X2209574D02*
D03*
X2184174D02*
D03*
X2158774D02*
D03*
X2133374D02*
D03*
X2107974D02*
D03*
X2082574D02*
D03*
X2260474Y1527524D02*
D03*
X2285874D02*
D03*
X2362074D02*
D03*
X2336674D02*
D03*
X2311274D02*
D03*
X2235074D02*
D03*
X1829074Y1527524D02*
D03*
X1803674D02*
D03*
X1778274D02*
D03*
X1676674D02*
D03*
X1702074D02*
D03*
X1727474D02*
D03*
X1752874D02*
D03*
X1854474D02*
D03*
X1422674D02*
D03*
X1448074D02*
D03*
X1473474D02*
D03*
X1498874D02*
D03*
X1524274D02*
D03*
X1549674D02*
D03*
X1575074D02*
D03*
X1600474D02*
D03*
X1625874D02*
D03*
X1651274D02*
D03*
X1879874D02*
D03*
X1905274D02*
D03*
X1930674D02*
D03*
X1956074D02*
D03*
X1981474D02*
D03*
X2006874D02*
D03*
X2209674Y1527524D02*
D03*
X2184274D02*
D03*
X2158874D02*
D03*
X2133474D02*
D03*
X2108074D02*
D03*
X2082674D02*
D03*
X2057274D02*
D03*
D83*
X1279000Y1602000D02*
D03*
X2479000D02*
D03*
Y1902000D02*
D03*
X1279000D02*
D03*
X1279274Y1522274D02*
D03*
X2479274D02*
D03*
Y1222274D02*
D03*
X1279274D02*
D03*
D84*
X1274774Y1345854D02*
D03*
D85*
X2485154Y1482054D02*
D03*
X2494394D02*
D03*
Y1397554D02*
D03*
X2485154D02*
D03*
D86*
X2481024D02*
D03*
X2498524D02*
D03*
Y1482054D02*
D03*
X2481024D02*
D03*
D87*
X2464024Y1403804D02*
D03*
Y1475804D02*
D03*
D88*
X1264274Y1431553D02*
D03*
Y1461555D02*
D03*
D89*
X2057774Y1412054D02*
D03*
X2065274D02*
D03*
Y1444554D02*
D03*
X2027774Y1412054D02*
D03*
Y1404554D02*
D03*
X2035274Y1412054D02*
D03*
X2042774D02*
D03*
X2050274D02*
D03*
X2065274Y1404554D02*
D03*
X2057774D02*
D03*
X2050274D02*
D03*
X2042774D02*
D03*
X2035274D02*
D03*
X2027774Y1429554D02*
D03*
X2035274D02*
D03*
X2042774D02*
D03*
X2050274D02*
D03*
X2057774D02*
D03*
X2065274D02*
D03*
Y1437054D02*
D03*
X2057774D02*
D03*
X2050274D02*
D03*
X2042774D02*
D03*
X2035274D02*
D03*
X2027774D02*
D03*
Y1444554D02*
D03*
X2035274D02*
D03*
X2042774D02*
D03*
X2050274D02*
D03*
X2057774D02*
D03*
X2105224Y1418354D02*
D03*
X2109274Y1428804D02*
D03*
X2097024Y1424304D02*
D03*
X2098274Y1409054D02*
D03*
X2094024Y1400054D02*
D03*
M02*
