M48
;Layer_Color=9474304
;FILE_FORMAT=4:4
METRIC,LZ
;TYPE=PLATED
T1F00S00C0.1000
T2F00S00C0.2000
T3F00S00C0.3000
T4F00S00C0.5000
T7F00S00C0.8001
T8F00S00C0.9000
T9F00S00C3.0000
%
T01
X02485154Y01381554
X02494394
Y01466054
X02485154
T02
X02027774Y01388554
X02035274
Y01396054
X02027774
X02042774
X02050274
Y01388554
X02042774
X02057774
X02065274
Y01396054
Y01413554
X02057774
X02050274
X02042774
X02035274
X02027774
Y01421054
X02035274
X02042774
X02050274
X02057774
X02065274
Y01428554
X02057774
X02050274
X02042774
X02035274
X02027774
X02097024Y01408304
X02105224Y01402354
X02109274Y01412804
X02098274Y01393054
X02094024Y01384054
T03
X02385774Y01311804
X02434524Y01327054
X02440524Y01276054
X02422774Y01411054
X02447774Y01422323
Y01430354
X02367024Y01456304
X02346274Y01477554
X02351274Y01386054
X02381024Y01359804
X02368274Y01304954
X02327524Y01303804
X02267274Y01318554
X02262284Y01375904
X02277974Y01375804
X02219274Y01378054
X02179024Y01395804
X02154274Y01345554
X02136274Y01338554
Y01325854
X02154274Y01308054
X02184274Y01318804
X02125072Y01261054
X02103974Y01271054
X02032774
X02031274Y01302804
X01900274Y01308054
X01900524Y01321554
X01900024Y01375904
X01846274Y01371554
X01839274Y01346304
X01809524Y01358304
X01849674Y01271054
X01845024Y01230304
X01820774Y01232054
X01728494Y01231054
Y01246054
X01730381Y01256054
Y01271054
X01729524Y01307554
X01668024Y01341054
X01657774Y01358804
X01903774Y01244704
X015645Y0160175
Y016315
X015345
Y0160175
X015045
Y016315
X0147475
Y0160175
X0144475
Y016315
Y0166175
X0147475
X015045
X015345
X015645
X0156425Y0169175
X0153425
X0150425
X014745
X014445
X0144475Y0172175
X0147475
X015045
X015345
Y0175175
Y0178175
X015045
X0147475
Y0175175
X015045
X0144475
Y0178175
X014145
Y0175175
Y0172175
X013845
Y0175175
Y0178175
X013545Y017815
X0132475Y0178175
Y0175175
Y0172175
X013545Y017215
Y017515
X0135425Y016915
X013245Y0169175
X0132475Y0166175
X013545Y016615
X013845Y0166175
X014145
X0141425Y0169175
X0138425
X013845Y016315
Y0160175
X014145
Y016315
X013545Y0163125
Y016015
X0132475Y0160175
Y016315
X013245Y01812
X0135425Y0181175
X0138425Y01812
X0141425
X014145Y01842
X013845
X013545Y0184175
X0132475Y01842
X0144475
X0147475
X015045
X015345
X015645
X0156425Y01812
X0153425
X0150425
X014745
X014445
X015645Y0178175
Y0175175
Y0172175
X0159475
X0162475
X016545
X016845
X017145
Y0175175
Y0178175
X016845
Y0175175
X016545
X0162475
Y0178175
X016545
X0165425Y01812
X016245
X015945
X0159475Y01842
X0162475
X016545
X016845
X017145
X0171425Y01812
X0168425
X017445
X0177425
X0180425
X0183425
X018345Y01842
X018045
X017745
X0174475
Y0178175
X017745
Y0175175
X0174475
Y0172175
X017745
X018045
X018345
Y0175175
Y0178175
X018045
Y0175175
X0186475
X018945
Y0178175
X0186475
X018645Y01812
X0189425
X01924Y018125
X0192425Y018425
X018945Y01842
X0186475
X019545Y018425
X0195425Y018125
X0198425
X019545Y0178225
Y0175225
Y0172225
X0195425Y0169225
X0198425
X019545Y0166225
Y01632
Y0160225
X0192425
Y01632
X018945Y016315
Y0160175
X0186475
Y016315
Y0166175
X018945
X0192425Y0166225
X01924Y0169225
X0189425Y0169175
X018645
X0186475Y0172175
X018945
X0192425Y0172225
Y0175225
Y0178225
X0183425Y0169175
X0180425
X0177425
X017445
X0174475Y0166175
X017745
X018045
X018345
Y016315
Y0160175
X018045
Y016315
X017745
Y0160175
X0174475
Y016315
X017145
Y0160175
X016845
Y016315
X016545
Y0160175
X0162475
Y016315
X0159475
Y0160175
Y0166175
X0162475
X016545
X016845
X017145
X0171425Y0169175
X0168425
X0165425
X016245
X015945
X0159475Y0175175
Y0178175
X019845Y0178225
Y0175225
Y0172225
X0201475
X020445
Y0175225
X0201475
Y0178225
X020445
X020745
X021045
Y0175225
Y0172225
X020745
Y0175225
X021345
X021645
X0218275Y01755
X021945Y0175225
Y0178225
X022145Y01786138
X0222475Y0178225
X022545
Y0175225
X0222475
Y0172225
X022545
X0228475
X023145
X023445
X023745
Y0175225
Y0178225
X023445
Y0175225
X023145
X0228475
Y0178225
X023145
X0231425Y018125
X022845
X0228475Y018425
X0227125Y0184225
X022545Y018425
X0222475
X022245Y018125
X0224375Y01816
X0225425Y018125
X0219425
X0216425
X0213425
X0210425
X0207425
X0204425
X020145
X0201475Y018425
X020445
X020745
X021045
X021345
X021645
X021945
X021645Y0178225
X021345
Y0172225
X0215275Y01724
X021645Y0172225
X021945
X0219425Y0169225
X0216425
X0213425
X0212175Y01694
X0210425Y0169225
X0207425
X0204425
X020145
X0201475Y0166225
X020445
X020745
X02094Y0166425
X021045Y0166225
X021345
X021645
X021945
X0222475
X022545
X0225425Y0169225
X022245
X022845
X0231425
X0234425
X0237425
X023745Y0166225
X023445
X023145
X0228475
Y01632
X023145
Y0160225
X0228475
X0227425Y016045
X022545Y0160225
X0224375Y01604388
X0222475Y0160225
X022145Y01604388
X021945Y0160225
X0218275Y01604
X021645Y0160225
X0215275Y01604
X021345Y0160225
X0212175Y01604
X021045Y0160225
X02094Y01604388
X020745Y0160225
X0206325Y01604
X020445Y0160225
X0201475
Y01632
X020445
X0206375Y01635
X020745Y01632
X021045
X021345
X021645
X021945
X0222475
X022545
X023445
Y0160225
X023745
Y01632
X0237425Y018125
X0234425
X023445Y018425
X023745
X023145
X019845
Y0166225
Y01632
Y0160225
X0240475
Y01632
Y0166225
X024045Y0169225
X0240475Y0172225
Y0175225
Y0178225
X024045Y018125
X0240475Y018425
X0243475Y018415
X024345Y018115
X0243475Y0178125
Y0175125
Y0172125
X024345Y0169125
X0243475Y0166125
Y01631
Y0160125
T04
X01452Y0115795
X01462
X01472
X01482
X01492
Y0117295
X01482
X01472
X01462
X01452
X01852Y0117285
X01862
X01872
X01882
X01892
Y0115785
X01882
X01872
X01862
X01852
X02252
X02262
X02272
X02282
X02292
Y0117285
X02282
X02272
X02262
X02252
X0251215Y01331
Y01341
Y01351
Y01361
Y01371
X0252715
Y01361
Y01351
Y01341
Y01331
X02293Y0153785
X02283
X02273
X02263
X02253
Y0155285
X02263
X02273
X02283
X02293
X01893
X01883
X01873
X01863
X01853
Y0153785
X01863
X01873
X01883
X01893
X01493Y0153795
X01483
X01473
X01463
X01453
Y0155295
X01463
X01473
X01483
X01493
X01247Y01371
Y01361
Y01351
Y01341
Y01331
X01232
Y01341
Y01351
Y01361
Y01371
X012319Y01717
Y01727
Y01737
Y01747
Y01757
X012469
Y01747
Y01737
Y01727
Y01717
X01453Y0191795
X01463
X01473
X01483
X01493
Y0193295
X01483
X01473
X01463
X01453
X01853Y0193285
X01863
X01873
X01883
X01893
Y0191785
X01883
X01873
X01863
X01853
X02253
X02263
X02273
X02283
X02293
Y0193285
X02283
X02273
X02263
X02253
X02512Y01757
Y01747
Y01737
Y01727
Y01717
X02527
Y01727
Y01737
Y01747
Y01757
T07
X01264274Y01415553
Y01445555
X01341275Y01433754
Y01408354
Y01382954
Y01459154
T08
X02031774Y01201274
X02057174
X02082574
X02107974
X02133374
X02158774
X02184174
X02209574
X02234974
X02235074Y01511524
X02260474
X02285874
X02311274
X02336674
X02362074
X02209674
X02184274
X02158874
X02133474
X02108074
X02082674
X02057274
X02031874
X02006874Y01511524
X020315Y01581
X020569
X020823
X021077
X021331
X021585
X021839
X022093
X022347
X01981474Y01511524
X01956074
X01930674
X01905274
X01879874
X01854474
X01829074
X01803674
X01778274
X01752874
X01727474
X01702074
X01676674
X01651274
X01625874
X01600474
X01575074
X01549674
X01524274
X01498874
X01473474
X01448074
X01422674
X01397274
X01274774Y01329854
Y01304454
Y01279054
Y01253654
X01397Y0189125
X014224
X014478
X014732
X014986
X01524
X015494
X015748
X016002
X016256
X01651
X016764
X017018
X017272
X017526
X01778
X018034
X018288
X018542
X018796
X01905
X019304
X019558
X019812
X020066
X020316Y0189125
X02057
X020824
X021078
X021332
X021586
X02184
X022094
X022348
X022602
X022856
X02311
X023364
X023618
T09
X02479274Y01206274
Y01506274
X02479Y01586
X01279
X01279274Y01506274
Y01206274
X01279Y01886
X02479
M30
