G04*
G04 #@! TF.GenerationSoftware,Altium Limited,Altium Designer,18.1.9 (240)*
G04*
G04 Layer_Physical_Order=2*
G04 Layer_Color=16711680*
%FSLAX44Y44*%
%MOMM*%
G71*
G01*
G75*
%ADD11C,0.2540*%
%ADD12R,0.9000X0.8000*%
%ADD14R,0.8000X0.9000*%
%ADD27C,0.5000*%
%ADD28C,0.1270*%
%ADD29C,0.2500*%
%ADD30C,0.1000*%
%ADD33C,0.5000*%
%ADD34R,1.5000X1.5000*%
%ADD35C,1.5000*%
%ADD36C,3.0000*%
%ADD37R,1.5000X1.5000*%
%ADD38R,1.1000X1.1000*%
%ADD39O,1.8000X1.1000*%
%ADD40O,1.6000X1.2000*%
%ADD41C,1.2002*%
%ADD42C,0.8001*%
%ADD43C,0.4500*%
%ADD44R,0.2200X0.8400*%
%ADD45R,0.8400X0.2200*%
%ADD46R,4.9500X4.9500*%
%ADD47R,1.6000X0.8000*%
%ADD48R,3.0000X2.1000*%
%ADD49R,1.2000X0.4500*%
%ADD50R,1.5499X1.3000*%
%ADD51R,0.8000X0.8000*%
%ADD52R,1.3000X1.5499*%
D11*
X2271250Y1842250D02*
X2274250Y1839250D01*
Y1604500D02*
Y1839250D01*
X2243750Y1604388D02*
Y1816000D01*
X2214500Y1604388D02*
Y1786138D01*
X2182750Y1604000D02*
Y1755000D01*
X2152750Y1604000D02*
Y1724000D01*
X2121750Y1604000D02*
Y1694000D01*
X2094000Y1604388D02*
Y1664250D01*
X2063750Y1604500D02*
Y1635000D01*
X2063250Y1604000D02*
X2063750Y1604500D01*
X1324750Y1781750D02*
Y1841500D01*
Y1842000D02*
X1363000Y1880250D01*
X1411400D01*
X1422400Y1891250D01*
X1354500Y1781500D02*
Y1841250D01*
Y1661500D02*
Y1721500D01*
X1430800Y1874250D02*
X1447800Y1891250D01*
X1387000Y1874250D02*
X1430800D01*
X1354500Y1841750D02*
X1387000Y1874250D01*
X1384500Y1781750D02*
Y1841500D01*
Y1661750D02*
Y1721750D01*
X1449450Y1867500D02*
X1473200Y1891250D01*
X1410000Y1867500D02*
X1449450D01*
X1384500Y1842000D02*
X1410000Y1867500D01*
X1414500Y1781750D02*
Y1841500D01*
Y1661750D02*
Y1721750D01*
X1469100Y1861750D02*
X1498600Y1891250D01*
X1434250Y1861750D02*
X1469100D01*
X1414500Y1842000D02*
X1434250Y1861750D01*
X1444750Y1781750D02*
Y1841500D01*
Y1661750D02*
Y1721750D01*
X1487500Y1854750D02*
X1524000Y1891250D01*
X1457500Y1854750D02*
X1487500D01*
X1444750Y1842000D02*
X1457500Y1854750D01*
X1474750Y1781750D02*
Y1841500D01*
Y1661750D02*
Y1721750D01*
X1507150Y1849000D02*
X1549400Y1891250D01*
X1481750Y1849000D02*
X1507150D01*
X1474750Y1842000D02*
X1481750Y1849000D01*
X1445500Y1891250D02*
X1447800D01*
X1504500Y1842000D02*
X1525550D01*
X1504500Y1781750D02*
Y1841500D01*
X1525550Y1842000D02*
X1574800Y1891250D01*
X1534500Y1781750D02*
Y1841500D01*
Y1842000D02*
X1550950D01*
X1600200Y1891250D01*
X1564500Y1781750D02*
Y1841500D01*
Y1842000D02*
X1576350D01*
X1625600Y1891250D01*
X1594750Y1781750D02*
Y1841500D01*
Y1842000D02*
X1601750D01*
X1651000Y1891250D01*
X1624750Y1781750D02*
Y1841500D01*
Y1842000D02*
X1627150D01*
X1676400Y1891250D01*
X2434750Y1781250D02*
Y1841000D01*
X2413237Y1841500D02*
X2434750D01*
X2363487Y1891250D02*
X2413237Y1841500D01*
X2361800Y1891250D02*
X2363487D01*
X2404750Y1782250D02*
Y1842000D01*
X2385150Y1842500D02*
X2404750D01*
X2336400Y1891250D02*
X2385150Y1842500D01*
X2374500Y1782250D02*
Y1842000D01*
X2359750Y1842500D02*
X2374500D01*
X2311000Y1891250D02*
X2359750Y1842500D01*
X2344500Y1782250D02*
Y1842000D01*
X2334350Y1842500D02*
X2344500D01*
X2285600Y1891250D02*
X2334350Y1842500D01*
X2314500Y1782250D02*
Y1842000D01*
X2308950Y1842500D02*
X2314500D01*
X2260200Y1891250D02*
X2308950Y1842500D01*
X2284750Y1782250D02*
Y1842000D01*
X2283550Y1842500D02*
X2284750D01*
X2234800Y1891250D02*
X2283550Y1842500D01*
X2254500Y1782250D02*
Y1842000D01*
X2209400Y1887600D02*
X2254500Y1842500D01*
X2209400Y1887600D02*
Y1891250D01*
X2224750Y1782250D02*
Y1842000D01*
X2184000Y1883250D02*
X2224750Y1842500D01*
X2184000Y1883250D02*
Y1891250D01*
X2194500Y1782250D02*
Y1842000D01*
X2158600Y1878400D02*
X2194500Y1842500D01*
X2158600Y1878400D02*
Y1891250D01*
X2164500Y1782250D02*
Y1842000D01*
X2133200Y1873800D02*
X2164500Y1842500D01*
X2133200Y1873800D02*
Y1891250D01*
X2134500Y1782250D02*
Y1842000D01*
X2107800Y1869200D02*
X2134500Y1842500D01*
X2107800Y1869200D02*
Y1891250D01*
X2104500Y1782250D02*
Y1842000D01*
X2082400Y1864600D02*
X2104500Y1842500D01*
X2082400Y1864600D02*
Y1891250D01*
X2074500Y1782250D02*
Y1842000D01*
X2057000Y1860000D02*
X2074500Y1842500D01*
X2057000Y1860000D02*
Y1891250D01*
X2044500Y1782250D02*
Y1842000D01*
X2031600Y1855400D02*
X2044500Y1842500D01*
X2031600Y1855400D02*
Y1891250D01*
X2014750Y1782250D02*
Y1842000D01*
X2006600Y1850650D02*
X2014750Y1842500D01*
X2006600Y1850650D02*
Y1891250D01*
X1984500Y1782250D02*
Y1842000D01*
X1981200Y1845800D02*
X1984500Y1842500D01*
X1981200Y1845800D02*
Y1891250D01*
X1954500Y1782250D02*
Y1842000D01*
Y1842500D02*
X1955800Y1843800D01*
Y1891250D01*
X1924250Y1782250D02*
Y1842000D01*
Y1842500D02*
X1930400Y1848650D01*
Y1891250D01*
X1894500Y1781750D02*
Y1841500D01*
Y1842000D02*
X1905000Y1852500D01*
Y1891250D01*
X1864750Y1781750D02*
Y1841500D01*
Y1842000D02*
X1879600Y1856850D01*
Y1891250D01*
X1834500Y1781750D02*
Y1841500D01*
Y1842000D02*
X1854200Y1861700D01*
Y1891250D01*
X1804500Y1781750D02*
Y1841500D01*
Y1842000D02*
X1828800Y1866300D01*
Y1891250D01*
X1774500Y1781750D02*
Y1841500D01*
Y1842000D02*
X1803400Y1870900D01*
Y1891250D01*
X1744750Y1781750D02*
Y1841500D01*
Y1842000D02*
X1778000Y1875250D01*
Y1891250D01*
X1714500Y1781750D02*
Y1841500D01*
X1752600Y1880100D02*
Y1891250D01*
X1714500Y1842000D02*
X1752600Y1880100D01*
X1684500Y1781750D02*
Y1841500D01*
X1727200Y1884700D02*
Y1891250D01*
X1684500Y1842000D02*
X1727200Y1884700D01*
X1654500Y1781750D02*
Y1841500D01*
Y1843950D02*
X1701800Y1891250D01*
X1654500Y1842000D02*
Y1843950D01*
X1624750Y1842000D02*
Y1844750D01*
X1597500Y1891250D02*
X1600200D01*
X1324750Y1631500D02*
Y1661750D01*
Y1721750D01*
Y1601750D02*
Y1631500D01*
Y1751750D02*
Y1781750D01*
Y1721750D02*
Y1751750D01*
X2404750Y1602250D02*
Y1632000D01*
Y1662250D01*
Y1722250D01*
Y1752250D01*
Y1782250D01*
X2374500Y1602250D02*
Y1632000D01*
Y1662250D01*
Y1722250D01*
Y1752250D01*
Y1782250D01*
X2344500Y1602250D02*
Y1632000D01*
Y1662250D01*
Y1722250D01*
Y1752250D01*
Y1782250D01*
X2314500Y1602250D02*
Y1632000D01*
Y1662250D01*
Y1722250D01*
Y1752250D01*
Y1782250D01*
X2284750Y1602250D02*
Y1632000D01*
Y1662250D01*
Y1722250D01*
Y1752250D01*
Y1782250D01*
X2254500Y1602250D02*
Y1632000D01*
Y1662250D01*
Y1722250D01*
Y1752250D01*
Y1782250D01*
X2224750Y1602250D02*
Y1632000D01*
Y1662250D01*
Y1722250D01*
Y1752250D01*
Y1782250D01*
X2194500Y1602250D02*
Y1632000D01*
Y1662250D01*
Y1722250D01*
Y1752250D01*
Y1782250D01*
X2164500Y1602250D02*
Y1632000D01*
Y1662250D01*
Y1722250D01*
Y1752250D01*
Y1782250D01*
X2134500Y1602250D02*
Y1632000D01*
Y1662250D01*
Y1722250D01*
Y1752250D01*
Y1782250D01*
X2104500Y1602250D02*
Y1632000D01*
Y1662250D01*
Y1722250D01*
Y1752250D01*
Y1782250D01*
X2074500Y1602250D02*
Y1632000D01*
Y1662250D01*
Y1722250D01*
Y1752250D01*
Y1782250D01*
X2044500Y1602250D02*
Y1632000D01*
Y1662250D01*
Y1722250D01*
Y1752250D01*
Y1782250D01*
X2014750Y1602250D02*
Y1632000D01*
Y1662250D01*
Y1722250D01*
Y1752250D01*
Y1782250D01*
X1984500Y1602250D02*
Y1632000D01*
Y1662250D01*
Y1722250D01*
Y1752250D01*
Y1782250D01*
X1954500Y1602250D02*
Y1632000D01*
Y1662250D01*
Y1722250D01*
Y1752250D01*
Y1782250D01*
X1924250Y1602250D02*
Y1632000D01*
Y1662250D01*
Y1722250D01*
Y1752250D01*
Y1782250D01*
X1894500Y1601750D02*
Y1631500D01*
Y1661750D01*
Y1721750D01*
Y1751750D01*
Y1781750D01*
X2434750Y1601250D02*
Y1631000D01*
Y1661250D01*
Y1721250D01*
Y1751250D01*
Y1781250D01*
X1864750Y1601750D02*
Y1631500D01*
Y1661750D01*
Y1721750D01*
Y1751750D01*
Y1781750D01*
X1834500Y1601750D02*
Y1631500D01*
Y1661750D01*
Y1721750D01*
Y1751750D01*
Y1781750D01*
X1804500Y1601750D02*
Y1631500D01*
Y1661750D01*
Y1721750D01*
Y1751750D01*
Y1781750D01*
X1774500Y1601750D02*
Y1631500D01*
Y1661750D01*
Y1721750D01*
Y1751750D01*
Y1781750D01*
X1744750Y1601750D02*
Y1631500D01*
Y1661750D01*
Y1721750D01*
Y1751750D01*
Y1781750D01*
X1714500Y1601750D02*
Y1631500D01*
Y1661750D01*
Y1721750D01*
Y1751750D01*
Y1781750D01*
X1684500Y1601750D02*
Y1631500D01*
Y1661750D01*
Y1721750D01*
Y1751750D01*
Y1781750D01*
X1654500Y1601750D02*
Y1631500D01*
Y1661750D01*
Y1721750D01*
Y1751750D01*
Y1781750D01*
X1624750Y1601750D02*
Y1631500D01*
Y1661750D01*
Y1721750D01*
Y1751750D01*
Y1781750D01*
X1594750Y1601750D02*
Y1631500D01*
Y1661750D01*
Y1721750D01*
Y1751750D01*
Y1781750D01*
X1564500Y1601750D02*
Y1631500D01*
Y1661750D01*
Y1721750D01*
Y1751750D01*
Y1781750D01*
X1534500Y1601750D02*
Y1631500D01*
Y1661750D01*
Y1721750D01*
Y1751750D01*
Y1781750D01*
X1504500Y1601750D02*
Y1631500D01*
Y1661750D01*
Y1721750D01*
Y1751750D01*
Y1781750D01*
X1474750Y1601750D02*
Y1631500D01*
Y1661750D01*
Y1721750D02*
Y1751750D01*
Y1781750D01*
X1444750Y1601750D02*
Y1631500D01*
Y1661750D01*
Y1721750D02*
Y1751750D01*
Y1781750D01*
X1414500Y1601750D02*
Y1631500D01*
Y1661750D01*
Y1721750D02*
Y1751750D01*
Y1781750D01*
X1384500Y1601750D02*
Y1631500D01*
Y1661750D01*
Y1721750D02*
Y1751750D01*
Y1781750D01*
X1354500Y1601500D02*
Y1631250D01*
Y1661500D01*
Y1721500D02*
Y1751500D01*
Y1781500D01*
D12*
X2090274Y1366804D02*
D03*
Y1352804D02*
D03*
X2108024Y1367054D02*
D03*
Y1353054D02*
D03*
D14*
X1804024Y1246804D02*
D03*
X1790024D02*
D03*
X1804024Y1285054D02*
D03*
X1790024D02*
D03*
X1804024Y1265554D02*
D03*
X1790024D02*
D03*
X1804024Y1228554D02*
D03*
X1790024D02*
D03*
X2030524Y1332804D02*
D03*
X2016524D02*
D03*
X2030524Y1317054D02*
D03*
X2016524D02*
D03*
X2448024Y1358554D02*
D03*
X2462024D02*
D03*
X2462024Y1343054D02*
D03*
X2448024D02*
D03*
D27*
X1505444Y1198383D02*
X1520274D01*
X1499024Y1204804D02*
X1505444Y1198383D01*
X1499024Y1204804D02*
Y1217604D01*
X1497774Y1218853D02*
X1499024Y1217604D01*
X1520274Y1198383D02*
X1520603Y1198054D01*
X1812774D01*
X1645274Y1218853D02*
X1655073D01*
X1677024Y1240804D01*
X1700564D01*
X1728564Y1212804D01*
X1810274D01*
X1820774Y1223304D01*
Y1232054D01*
X1845624Y1186554D02*
X1903774Y1244704D01*
X1354024Y1186554D02*
X1845624D01*
X1350274Y1190303D02*
X1354024Y1186554D01*
X1812774Y1198054D02*
X1845024Y1230304D01*
X1350274Y1190303D02*
Y1218853D01*
Y1298355D01*
X1497774Y1218853D02*
Y1298355D01*
X1645274Y1218853D02*
Y1298355D01*
X1764004Y1228304D02*
X1764254Y1228554D01*
X1790024D01*
X1764004Y1246554D02*
X1764254Y1246804D01*
X1790024D01*
X1764004Y1265554D02*
X1790024D01*
X1763904Y1285054D02*
X1763904Y1285054D01*
X1790024D01*
X2256523Y1284303D02*
X2336025D01*
Y1295303D01*
X2327524Y1303804D02*
X2336025Y1295303D01*
X1297024Y1341804D02*
Y1399304D01*
X1285024Y1329804D02*
X1297024Y1341804D01*
X1274774Y1329804D02*
X1285024D01*
X1297024Y1399304D02*
X1331474Y1433754D01*
X1311774Y1378853D02*
X1341275Y1408354D01*
X1311774Y1324304D02*
Y1378853D01*
X1291874Y1304404D02*
X1311774Y1324304D01*
X1331524Y1373203D02*
X1341275Y1382954D01*
X1331524Y1311365D02*
Y1373203D01*
X1299162Y1279004D02*
X1331524Y1311365D01*
X1331474Y1433754D02*
X1341275D01*
X2434524Y1327054D02*
X2442274D01*
X2448024Y1332804D01*
Y1343054D01*
X2381024Y1359804D02*
X2391024Y1369804D01*
X2490274D01*
X2495394Y1364684D01*
Y1359054D02*
Y1364684D01*
X2385774Y1311804D02*
X2440774D01*
X2461024Y1332054D01*
X2490274D01*
X2495394Y1337174D01*
Y1343054D01*
X2479394Y1343054D02*
X2479394Y1343054D01*
X2462024Y1343054D02*
X2479394D01*
X2460524Y1359054D02*
X2479394D01*
X2460024Y1358554D02*
X2460524Y1359054D01*
X2440524Y1276054D02*
Y1285554D01*
X2444274Y1289304D01*
X2458274D01*
X2440524Y1276054D02*
X2441774Y1277304D01*
X2138824Y1318314D02*
X2267034D01*
X2127774Y1307264D02*
X2138824Y1318314D01*
X2127774Y1294854D02*
Y1307264D01*
X2103974Y1271054D02*
X2127774Y1294854D01*
X1849674Y1271054D02*
X2032774D01*
X2267034Y1318314D02*
X2267274Y1318554D01*
X2125072Y1261054D02*
X2132774D01*
X2154274Y1282554D01*
Y1308054D01*
X1729524Y1307554D02*
X1730024Y1308054D01*
X1900274D01*
X2030524Y1317054D02*
X2031274Y1316304D01*
Y1302804D02*
Y1316304D01*
X2206434Y1338014D02*
X2257024Y1388604D01*
X2136814Y1338014D02*
X2206434D01*
X2136274Y1338554D02*
X2136814Y1338014D01*
X2132774Y1367054D02*
X2154274Y1345554D01*
X2108024Y1367054D02*
X2132774D01*
X1274774Y1279004D02*
X1299162D01*
X1274774Y1304404D02*
X1291874D01*
X1893024Y1329054D02*
X1900524Y1321554D01*
X1893024Y1329054D02*
Y1368654D01*
X1864024Y1321554D02*
X1900524D01*
X1900024Y1375654D02*
Y1375904D01*
X1893024Y1368654D02*
X1900024Y1375654D01*
X1839274Y1346304D02*
X1864024Y1321554D01*
X1840024Y1371554D02*
X1846274D01*
X1809524Y1341054D02*
X1840024Y1371554D01*
X1658274Y1358304D02*
X1809524D01*
X1657774Y1358804D02*
X1658274Y1358304D01*
X1668024Y1341054D02*
X1809524D01*
X2264274Y1388604D02*
X2277074Y1375804D01*
X2257024Y1388604D02*
X2264274D01*
X2277074Y1375804D02*
X2277974D01*
X2136274Y1325854D02*
X2212234D01*
X2262284Y1375904D01*
X2179024Y1395804D02*
X2201524D01*
X2219274Y1378054D01*
X2351024Y1386304D02*
X2351274Y1386054D01*
X2351024Y1386304D02*
Y1472804D01*
X2346274Y1477554D02*
X2351024Y1472804D01*
X2367024Y1456304D02*
X2368274Y1455054D01*
Y1304954D02*
Y1455054D01*
D28*
X2047024Y1410354D02*
X2063024Y1394354D01*
X2055024Y1418354D02*
Y1444804D01*
X2047024Y1410354D02*
X2055024Y1418354D01*
X2039024Y1402354D02*
X2047024Y1410354D01*
X2012574Y1402354D02*
X2039024D01*
X2063024Y1394354D02*
X2081474D01*
X2047024Y1410354D02*
X2081474D01*
X2082574Y1201274D02*
Y1214254D01*
X2070274Y1226554D02*
X2082574Y1214254D01*
X2059024Y1226554D02*
X2070274D01*
X2083524Y1367054D02*
X2108024D01*
X1898643Y1490435D02*
X1984867D01*
X1879874Y1509204D02*
X1898643Y1490435D01*
X1879874Y1509204D02*
Y1511524D01*
X1922553Y1494245D02*
X1986445D01*
X1905274Y1511524D02*
X1922553Y1494245D01*
X1965733Y1501865D02*
X1989602D01*
X1956074Y1511524D02*
X1965733Y1501865D01*
X1946273Y1498055D02*
X1988024D01*
X1932804Y1511524D02*
X1946273Y1498055D01*
X1930674Y1511524D02*
X1932804D01*
X2145405Y1498055D02*
X2158874Y1511524D01*
X2099369Y1498055D02*
X2145405D01*
X2209674Y1508954D02*
Y1511524D01*
X2191155Y1490435D02*
X2209674Y1508954D01*
X2106405Y1490435D02*
X2191155D01*
X2166995Y1494245D02*
X2184274Y1511524D01*
X2102887Y1494245D02*
X2166995D01*
X2130744Y1511524D02*
X2133474D01*
X2121085Y1501865D02*
X2130744Y1511524D01*
X2095851Y1501865D02*
X2121085D01*
X2039059Y1444839D02*
Y1465269D01*
X2006874Y1497454D02*
X2039059Y1465269D01*
X2006874Y1497454D02*
Y1511524D01*
X2042869Y1444959D02*
Y1487959D01*
X2031874Y1498954D02*
X2042869Y1487959D01*
X2031874Y1498954D02*
Y1511524D01*
X2057274Y1497804D02*
Y1511524D01*
X2047024Y1487554D02*
X2057274Y1497804D01*
X2047024Y1444804D02*
Y1487554D01*
X2078524Y1253304D02*
X2182944D01*
X2076524Y1248554D02*
X2162294D01*
X2072524Y1244304D02*
X2141144D01*
X2075024Y1256804D02*
X2078524Y1253304D01*
X2071024Y1254054D02*
X2076524Y1248554D01*
X2067024Y1249804D02*
X2072524Y1244304D01*
X2107724Y1414354D02*
X2109274Y1412804D01*
X2094024Y1384054D02*
Y1388404D01*
X2092074Y1390354D02*
X2094024Y1388404D01*
X2081474Y1390354D02*
X2092074D01*
X2095074Y1406354D02*
X2097024Y1408304D01*
X2081474Y1414354D02*
X2107724D01*
X2081474Y1418354D02*
X2112324D01*
X2081474Y1422354D02*
X2110576D01*
X2081474Y1426354D02*
X2108829D01*
X2081474Y1430354D02*
X2107082D01*
X2105334Y1434354D02*
X2152970Y1481990D01*
X2081474Y1434354D02*
X2105334D01*
X2092974Y1398354D02*
X2098274Y1393054D01*
X2030524Y1317054D02*
Y1332804D01*
Y1340304D01*
X2039090Y1348870D01*
Y1375838D01*
X2039024Y1375904D02*
X2039090Y1375838D01*
X2031024Y1368746D02*
Y1375904D01*
Y1368746D02*
X2031216Y1368554D01*
Y1360106D02*
Y1368554D01*
X2081474Y1369104D02*
X2083524Y1367054D01*
X2081474Y1369104D02*
Y1382354D01*
Y1386354D01*
X2066524Y1240054D02*
X2119994D01*
X2063024Y1243554D02*
X2066524Y1240054D01*
X2119994D02*
X2158774Y1201274D01*
X1502596Y1406202D02*
X1883774D01*
X1397274Y1511524D02*
X1502596Y1406202D01*
X2081474Y1406354D02*
X2095074D01*
X2081474Y1398354D02*
X2092974D01*
X2107082Y1430354D02*
X2154654Y1477926D01*
X2103587Y1438354D02*
X2151287Y1486054D01*
X2081474Y1438354D02*
X2103587D01*
X2151287Y1486054D02*
X2209604D01*
X2081474Y1398354D02*
X2081674Y1398554D01*
X2050834Y1234744D02*
X2059024Y1226554D01*
X2075024Y1256804D02*
Y1375904D01*
X2141144Y1244304D02*
X2184174Y1201274D01*
X2063024Y1243554D02*
Y1375904D01*
X2061852Y1235364D02*
X2099284D01*
X2059024Y1238192D02*
Y1375904D01*
X2055024Y1236804D02*
X2060274Y1231554D01*
X2055024Y1236804D02*
Y1375904D01*
X2294948Y1469798D02*
X2336674Y1511524D01*
X2159704Y1465734D02*
X2316284D01*
X2182944Y1253304D02*
X2234974Y1201274D01*
X2071024Y1254054D02*
Y1375904D01*
X2067024Y1249804D02*
Y1375904D01*
X2162294Y1248554D02*
X2209574Y1201274D01*
X2059024Y1238192D02*
X2061852Y1235364D01*
X2099284D02*
X2133374Y1201274D01*
X2060274Y1231554D02*
X2077694D01*
X2047024Y1232554D02*
Y1375904D01*
Y1232554D02*
X2057174Y1222404D01*
X2043024Y1229804D02*
Y1375904D01*
X2031774Y1218554D02*
X2043024Y1229804D01*
X2050834Y1234744D02*
X2051024Y1234934D01*
X2031774Y1201274D02*
Y1218554D01*
X2077694Y1231554D02*
X2107974Y1201274D01*
X2051024Y1234934D02*
Y1375904D01*
X2057174Y1201274D02*
Y1222404D01*
X1893032Y1428554D02*
X1956430Y1365156D01*
X1581844Y1428554D02*
X1893032D01*
X1956430Y1365156D02*
X2015626D01*
X1946724Y1382354D02*
X2012574D01*
X1895035Y1434043D02*
X1946724Y1382354D01*
X1950626Y1386354D02*
X2012574D01*
X1898975Y1438005D02*
X1950626Y1386354D01*
X1623192Y1438005D02*
X1898975D01*
X1601755Y1434043D02*
X1895035D01*
X1962334Y1398354D02*
X2012574D01*
X1910796Y1449892D02*
X1962334Y1398354D01*
X1972724Y1406354D02*
X2012574D01*
X1925223Y1453855D02*
X1972724Y1406354D01*
X1976626Y1410354D02*
X2012574D01*
X1929163Y1457817D02*
X1976626Y1410354D01*
X1980529Y1414354D02*
X2012574D01*
X1933103Y1461779D02*
X1980529Y1414354D01*
X1751818Y1461779D02*
X1933103D01*
X1984432Y1418354D02*
X2012574D01*
X1937044Y1465742D02*
X1984432Y1418354D01*
X1988334Y1422354D02*
X2012574D01*
X1940984Y1469704D02*
X1988334Y1422354D01*
X1992237Y1426354D02*
X2012574D01*
X1944924Y1473667D02*
X1992237Y1426354D01*
X1996139Y1430354D02*
X2012574D01*
X1948864Y1477629D02*
X1996139Y1430354D01*
X2152970Y1481990D02*
X2230940D01*
X2154654Y1477926D02*
X2252276D01*
X2108829Y1426354D02*
X2156337Y1473862D01*
X2273612D01*
X2110576Y1422354D02*
X2158020Y1469798D01*
X2294948D01*
X2112324Y1418354D02*
X2159704Y1465734D01*
X2316284D02*
X2362074Y1511524D01*
X2273612Y1473862D02*
X2311274Y1511524D01*
X2252276Y1477926D02*
X2285874Y1511524D01*
X2230940Y1481990D02*
X2260474Y1511524D01*
X2209604Y1486054D02*
X2235074Y1511524D01*
X2015626Y1365156D02*
X2019024Y1368554D01*
X2035024Y1370134D02*
Y1375904D01*
Y1370134D02*
X2035026Y1370132D01*
Y1368808D02*
Y1370132D01*
Y1368808D02*
X2035280Y1368554D01*
X2019024Y1368554D02*
Y1375904D01*
X2023024Y1371069D02*
Y1375904D01*
Y1371069D02*
X2023088Y1371005D01*
Y1363472D02*
Y1371005D01*
X2027024Y1371069D02*
Y1375904D01*
Y1371069D02*
X2027152Y1370941D01*
Y1361789D02*
Y1370941D01*
X2019661Y1342804D02*
X2035280Y1358422D01*
X1947172Y1342804D02*
X2019661D01*
X2035280Y1358422D02*
Y1368554D01*
X2019502Y1348392D02*
X2031216Y1360106D01*
X1949486Y1348392D02*
X2019502D01*
X2019342Y1353980D02*
X2027152Y1361789D01*
X1951801Y1353980D02*
X2019342D01*
X2019183Y1359568D02*
X2023088Y1363472D01*
X1954116Y1359568D02*
X2019183D01*
X1890718Y1422966D02*
X1954116Y1359568D01*
X1888403Y1417378D02*
X1951801Y1353980D01*
X1886088Y1411790D02*
X1949486Y1348392D01*
X1883774Y1406202D02*
X1947172Y1342804D01*
X1522408Y1411790D02*
X1886088D01*
X1422674Y1511524D02*
X1522408Y1411790D01*
X1542220Y1417378D02*
X1888403D01*
X1448074Y1511524D02*
X1542220Y1417378D01*
X1562032Y1422966D02*
X1890718D01*
X1473474Y1511524D02*
X1562032Y1422966D01*
X1498874Y1511524D02*
X1581844Y1428554D01*
X1524274Y1511524D02*
X1601755Y1434043D01*
X1549674Y1511524D02*
X1623192Y1438005D01*
X1575074Y1511524D02*
X1644630Y1441967D01*
X1902915D01*
X1600474Y1511524D02*
X1666068Y1445930D01*
X1906856D01*
X1625874Y1511524D02*
X1687505Y1449892D01*
X1910796D01*
X1954529Y1390354D02*
X2012574D01*
X1958432Y1394354D02*
X2012574D01*
X1906856Y1445930D02*
X1958432Y1394354D01*
X1902915Y1441967D02*
X1954529Y1390354D01*
X1854474Y1511524D02*
X1880444Y1485554D01*
X1956745D01*
X2012324Y1434104D02*
X2012574Y1434354D01*
X1829074Y1511524D02*
X1859006Y1481591D01*
X1952804D01*
X1803674Y1511524D02*
X1837569Y1477629D01*
X1948864D01*
X1778274Y1511524D02*
X1816131Y1473667D01*
X1944924D01*
X1651274Y1511524D02*
X1708943Y1453855D01*
X1925223D01*
X1676674Y1511524D02*
X1730381Y1457817D01*
X1929163D01*
X1702074Y1511524D02*
X1751818Y1461779D01*
X1727474Y1511524D02*
X1773256Y1465742D01*
X1937044D01*
X1752874Y1511524D02*
X1794693Y1469704D01*
X1940984D01*
X2003945Y1438354D02*
X2012574D01*
X2000042Y1434354D02*
X2012574D01*
X1956745Y1485554D02*
X2003945Y1438354D01*
X1952804Y1481591D02*
X2000042Y1434354D01*
X2098182Y1511524D02*
X2108074D01*
X2059024Y1444804D02*
Y1472365D01*
X2063024Y1444804D02*
Y1445474D01*
X2062844Y1445654D02*
X2063024Y1445474D01*
X2062844Y1445654D02*
Y1463038D01*
X2062990Y1463184D01*
Y1465124D01*
X2063024Y1465158D01*
Y1469037D01*
X2067024Y1444804D02*
Y1446862D01*
X2066654Y1447233D02*
X2067024Y1446862D01*
X2066654Y1447233D02*
Y1461460D01*
X2066800Y1461606D01*
Y1463546D01*
X2066946Y1463692D01*
Y1465632D01*
X2071024Y1444804D02*
Y1448251D01*
X2070464Y1448811D02*
X2071024Y1448251D01*
X2070464Y1448811D02*
Y1459882D01*
X2070610Y1460028D01*
Y1461968D01*
X2075024Y1444804D02*
Y1449639D01*
X2074274Y1450389D02*
X2075024Y1449639D01*
X2074274Y1450389D02*
Y1458304D01*
X2051024Y1444804D02*
Y1479874D01*
X1985331Y1511524D02*
X2035249Y1461606D01*
Y1446417D02*
Y1461606D01*
X1989602Y1501865D02*
X2031024Y1460443D01*
Y1444804D02*
Y1460443D01*
X2059024Y1472365D02*
X2098182Y1511524D01*
X2063024Y1469037D02*
X2095851Y1501865D01*
X2066946Y1465632D02*
X2099369Y1498055D01*
X2070610Y1461968D02*
X2102887Y1494245D01*
X2074274Y1458304D02*
X2106405Y1490435D01*
X2051024Y1479874D02*
X2082674Y1511524D01*
X2035214Y1446382D02*
X2035249Y1446417D01*
X2035214Y1444994D02*
Y1446382D01*
X2035024Y1444804D02*
X2035214Y1444994D01*
X2042869Y1444959D02*
X2043024Y1444804D01*
X2039024D02*
X2039059Y1444839D01*
X1988024Y1498055D02*
X2027024Y1459055D01*
Y1444804D02*
Y1459055D01*
X1986445Y1494245D02*
X2023024Y1457666D01*
Y1444804D02*
Y1457666D01*
X1984867Y1490435D02*
X2019024Y1456278D01*
Y1444804D02*
Y1456278D01*
X1981474Y1511524D02*
X1985331D01*
D29*
X2422774Y1411054D02*
Y1431054D01*
X2428524Y1436804D01*
X2464274D01*
X2449255Y1423804D02*
X2464274D01*
X2447774Y1422323D02*
X2449255Y1423804D01*
X2447774Y1430354D02*
X2447824Y1430304D01*
X2464274D01*
X1730381Y1271054D02*
X1744131Y1284804D01*
X1748004D01*
X1730381Y1256054D02*
X1739881Y1265554D01*
X1748004D01*
X1728494Y1246054D02*
X1728994Y1246554D01*
X1748004D01*
X1728494Y1231054D02*
X1731244Y1228304D01*
X1748004D01*
D30*
X2081474Y1402354D02*
X2105224D01*
D33*
X1247000Y1371000D02*
D03*
Y1361000D02*
D03*
Y1351000D02*
D03*
Y1341000D02*
D03*
Y1331000D02*
D03*
X1232000D02*
D03*
Y1341000D02*
D03*
Y1351000D02*
D03*
Y1361000D02*
D03*
Y1371000D02*
D03*
X2512150D02*
D03*
Y1361000D02*
D03*
Y1351000D02*
D03*
Y1341000D02*
D03*
Y1331000D02*
D03*
X2527150D02*
D03*
Y1341000D02*
D03*
Y1351000D02*
D03*
Y1361000D02*
D03*
Y1371000D02*
D03*
X2512000Y1757000D02*
D03*
Y1747000D02*
D03*
Y1737000D02*
D03*
Y1727000D02*
D03*
Y1717000D02*
D03*
X2527000D02*
D03*
Y1727000D02*
D03*
Y1737000D02*
D03*
Y1747000D02*
D03*
Y1757000D02*
D03*
X1246900D02*
D03*
Y1747000D02*
D03*
Y1737000D02*
D03*
Y1727000D02*
D03*
Y1717000D02*
D03*
X1231900D02*
D03*
Y1727000D02*
D03*
Y1737000D02*
D03*
Y1747000D02*
D03*
Y1757000D02*
D03*
X1492000Y1172950D02*
D03*
X1482000D02*
D03*
X1472000D02*
D03*
X1462000D02*
D03*
X1452000D02*
D03*
Y1157950D02*
D03*
X1462000D02*
D03*
X1472000D02*
D03*
X1482000D02*
D03*
X1492000D02*
D03*
X1892000Y1157850D02*
D03*
X1882000D02*
D03*
X1872000D02*
D03*
X1862000D02*
D03*
X1852000D02*
D03*
Y1172850D02*
D03*
X1862000D02*
D03*
X1872000D02*
D03*
X1882000D02*
D03*
X1892000D02*
D03*
X2292000Y1157850D02*
D03*
X2282000D02*
D03*
X2272000D02*
D03*
X2262000D02*
D03*
X2252000D02*
D03*
Y1172850D02*
D03*
X2262000D02*
D03*
X2272000D02*
D03*
X2282000D02*
D03*
X2292000D02*
D03*
X2293000Y1932850D02*
D03*
X2283000D02*
D03*
X2273000D02*
D03*
X2263000D02*
D03*
X2253000D02*
D03*
Y1917850D02*
D03*
X2263000D02*
D03*
X2273000D02*
D03*
X2283000D02*
D03*
X2293000D02*
D03*
X1893000Y1932850D02*
D03*
X1883000D02*
D03*
X1873000D02*
D03*
X1863000D02*
D03*
X1853000D02*
D03*
Y1917850D02*
D03*
X1863000D02*
D03*
X1873000D02*
D03*
X1883000D02*
D03*
X1893000D02*
D03*
X1493000Y1917950D02*
D03*
X1483000D02*
D03*
X1473000D02*
D03*
X1463000D02*
D03*
X1453000D02*
D03*
Y1932950D02*
D03*
X1463000D02*
D03*
X1473000D02*
D03*
X1483000D02*
D03*
X1493000D02*
D03*
X2293000Y1552850D02*
D03*
X2283000D02*
D03*
X2273000D02*
D03*
X2263000D02*
D03*
X2253000D02*
D03*
Y1537850D02*
D03*
X2263000D02*
D03*
X2273000D02*
D03*
X2283000D02*
D03*
X2293000D02*
D03*
X1893000Y1552850D02*
D03*
X1883000D02*
D03*
X1873000D02*
D03*
X1863000D02*
D03*
X1853000D02*
D03*
Y1537850D02*
D03*
X1863000D02*
D03*
X1873000D02*
D03*
X1883000D02*
D03*
X1893000D02*
D03*
X1493000Y1537950D02*
D03*
X1483000D02*
D03*
X1473000D02*
D03*
X1463000D02*
D03*
X1453000D02*
D03*
Y1552950D02*
D03*
X1463000D02*
D03*
X1473000D02*
D03*
X1483000D02*
D03*
X1493000D02*
D03*
X2271250Y1842250D02*
D03*
X2274250Y1604500D02*
D03*
X2243750Y1816000D02*
D03*
Y1604388D02*
D03*
X2214500Y1786138D02*
D03*
Y1604388D02*
D03*
X2182750Y1755000D02*
D03*
Y1604000D02*
D03*
X2152750Y1724000D02*
D03*
Y1604000D02*
D03*
X2121750Y1694000D02*
D03*
Y1604000D02*
D03*
X2094000Y1664250D02*
D03*
Y1604388D02*
D03*
X2063750Y1635000D02*
D03*
X2063250Y1604000D02*
D03*
X1384500Y1842000D02*
D03*
X1504500D02*
D03*
X1324750Y1661750D02*
D03*
Y1631500D02*
D03*
Y1601750D02*
D03*
X1324500Y1691750D02*
D03*
X1324750Y1721750D02*
D03*
Y1751750D02*
D03*
Y1781750D02*
D03*
X1324500Y1812000D02*
D03*
X1324750Y1842000D02*
D03*
X2404750Y1842500D02*
D03*
X2404500Y1812500D02*
D03*
X2404750Y1782250D02*
D03*
Y1752250D02*
D03*
Y1722250D02*
D03*
X2404500Y1692250D02*
D03*
X2404750Y1662250D02*
D03*
Y1632000D02*
D03*
Y1602250D02*
D03*
X2374500Y1842500D02*
D03*
X2374250Y1812500D02*
D03*
X2374500Y1782250D02*
D03*
Y1752250D02*
D03*
Y1722250D02*
D03*
X2374250Y1692250D02*
D03*
X2374500Y1662250D02*
D03*
Y1632000D02*
D03*
Y1602250D02*
D03*
X2344500Y1842500D02*
D03*
X2344250Y1812500D02*
D03*
X2344500Y1782250D02*
D03*
Y1752250D02*
D03*
Y1722250D02*
D03*
X2344250Y1692250D02*
D03*
X2344500Y1662250D02*
D03*
Y1632000D02*
D03*
Y1602250D02*
D03*
X2314500Y1842500D02*
D03*
X2314250Y1812500D02*
D03*
X2314500Y1782250D02*
D03*
Y1752250D02*
D03*
Y1722250D02*
D03*
X2314250Y1692250D02*
D03*
X2314500Y1662250D02*
D03*
Y1632000D02*
D03*
Y1602250D02*
D03*
X2284750Y1842500D02*
D03*
X2284500Y1812500D02*
D03*
X2284750Y1782250D02*
D03*
Y1752250D02*
D03*
Y1722250D02*
D03*
X2284500Y1692250D02*
D03*
X2284750Y1662250D02*
D03*
Y1632000D02*
D03*
Y1602250D02*
D03*
X2254500Y1842500D02*
D03*
X2254250Y1812500D02*
D03*
X2254500Y1782250D02*
D03*
Y1752250D02*
D03*
Y1722250D02*
D03*
X2254250Y1692250D02*
D03*
X2254500Y1662250D02*
D03*
Y1632000D02*
D03*
Y1602250D02*
D03*
X2224750Y1842500D02*
D03*
X2224500Y1812500D02*
D03*
X2224750Y1782250D02*
D03*
Y1752250D02*
D03*
Y1722250D02*
D03*
X2224500Y1692250D02*
D03*
X2224750Y1662250D02*
D03*
Y1632000D02*
D03*
Y1602250D02*
D03*
X2194500Y1842500D02*
D03*
X2194250Y1812500D02*
D03*
X2194500Y1782250D02*
D03*
Y1752250D02*
D03*
Y1722250D02*
D03*
X2194250Y1692250D02*
D03*
X2194500Y1662250D02*
D03*
Y1632000D02*
D03*
Y1602250D02*
D03*
X2164500Y1842500D02*
D03*
X2164250Y1812500D02*
D03*
X2164500Y1782250D02*
D03*
Y1752250D02*
D03*
Y1722250D02*
D03*
X2164250Y1692250D02*
D03*
X2164500Y1662250D02*
D03*
Y1632000D02*
D03*
Y1602250D02*
D03*
X2134500Y1842500D02*
D03*
X2134250Y1812500D02*
D03*
X2134500Y1782250D02*
D03*
Y1752250D02*
D03*
Y1722250D02*
D03*
X2134250Y1692250D02*
D03*
X2134500Y1662250D02*
D03*
Y1632000D02*
D03*
Y1602250D02*
D03*
X2104500Y1842500D02*
D03*
X2104250Y1812500D02*
D03*
X2104500Y1782250D02*
D03*
Y1752250D02*
D03*
Y1722250D02*
D03*
X2104250Y1692250D02*
D03*
X2104500Y1662250D02*
D03*
Y1632000D02*
D03*
Y1602250D02*
D03*
X2074500Y1842500D02*
D03*
X2074250Y1812500D02*
D03*
X2074500Y1782250D02*
D03*
Y1752250D02*
D03*
Y1722250D02*
D03*
X2074250Y1692250D02*
D03*
X2074500Y1662250D02*
D03*
Y1632000D02*
D03*
Y1602250D02*
D03*
X2044500Y1842500D02*
D03*
X2044250Y1812500D02*
D03*
X2044500Y1782250D02*
D03*
Y1752250D02*
D03*
Y1722250D02*
D03*
X2044250Y1692250D02*
D03*
X2044500Y1662250D02*
D03*
Y1632000D02*
D03*
Y1602250D02*
D03*
X2014750Y1842500D02*
D03*
X2014500Y1812500D02*
D03*
X2014750Y1782250D02*
D03*
Y1752250D02*
D03*
Y1722250D02*
D03*
X2014500Y1692250D02*
D03*
X2014750Y1662250D02*
D03*
Y1632000D02*
D03*
Y1602250D02*
D03*
X1984500Y1842500D02*
D03*
X1984250Y1812500D02*
D03*
X1984500Y1782250D02*
D03*
Y1752250D02*
D03*
Y1722250D02*
D03*
X1984250Y1692250D02*
D03*
X1984500Y1662250D02*
D03*
Y1632000D02*
D03*
Y1602250D02*
D03*
X1954500Y1842500D02*
D03*
X1954250Y1812500D02*
D03*
X1954500Y1782250D02*
D03*
Y1752250D02*
D03*
Y1722250D02*
D03*
X1954250Y1692250D02*
D03*
X1954500Y1662250D02*
D03*
Y1632000D02*
D03*
Y1602250D02*
D03*
X1924250Y1842500D02*
D03*
X1924000Y1812500D02*
D03*
X1924250Y1782250D02*
D03*
Y1752250D02*
D03*
Y1722250D02*
D03*
X1924000Y1692250D02*
D03*
X1924250Y1662250D02*
D03*
Y1632000D02*
D03*
Y1602250D02*
D03*
X1894500Y1842000D02*
D03*
X1894250Y1812000D02*
D03*
X1894500Y1781750D02*
D03*
Y1751750D02*
D03*
Y1721750D02*
D03*
X1894250Y1691750D02*
D03*
X1894500Y1661750D02*
D03*
Y1631500D02*
D03*
Y1601750D02*
D03*
X2434750Y1841500D02*
D03*
X2434500Y1811500D02*
D03*
X2434750Y1781250D02*
D03*
Y1751250D02*
D03*
Y1721250D02*
D03*
X2434500Y1691250D02*
D03*
X2434750Y1661250D02*
D03*
Y1631000D02*
D03*
Y1601250D02*
D03*
X1864750Y1842000D02*
D03*
X1864500Y1812000D02*
D03*
X1864750Y1781750D02*
D03*
Y1751750D02*
D03*
Y1721750D02*
D03*
X1864500Y1691750D02*
D03*
X1864750Y1661750D02*
D03*
Y1631500D02*
D03*
Y1601750D02*
D03*
X1834500Y1842000D02*
D03*
X1834250Y1812000D02*
D03*
X1834500Y1781750D02*
D03*
Y1751750D02*
D03*
Y1721750D02*
D03*
X1834250Y1691750D02*
D03*
X1834500Y1661750D02*
D03*
Y1631500D02*
D03*
Y1601750D02*
D03*
X1804500Y1842000D02*
D03*
X1804250Y1812000D02*
D03*
X1804500Y1781750D02*
D03*
Y1751750D02*
D03*
Y1721750D02*
D03*
X1804250Y1691750D02*
D03*
X1804500Y1661750D02*
D03*
Y1631500D02*
D03*
Y1601750D02*
D03*
X1774500Y1842000D02*
D03*
X1774250Y1812000D02*
D03*
X1774500Y1781750D02*
D03*
Y1751750D02*
D03*
Y1721750D02*
D03*
X1774250Y1691750D02*
D03*
X1774500Y1661750D02*
D03*
Y1631500D02*
D03*
Y1601750D02*
D03*
X1744750Y1842000D02*
D03*
X1744500Y1812000D02*
D03*
X1744750Y1781750D02*
D03*
Y1751750D02*
D03*
Y1721750D02*
D03*
X1744500Y1691750D02*
D03*
X1744750Y1661750D02*
D03*
Y1631500D02*
D03*
Y1601750D02*
D03*
X1714500Y1842000D02*
D03*
X1714250Y1812000D02*
D03*
X1714500Y1781750D02*
D03*
Y1751750D02*
D03*
Y1721750D02*
D03*
X1714250Y1691750D02*
D03*
X1714500Y1661750D02*
D03*
Y1631500D02*
D03*
Y1601750D02*
D03*
X1684500Y1842000D02*
D03*
X1684250Y1812000D02*
D03*
X1684500Y1781750D02*
D03*
Y1751750D02*
D03*
Y1721750D02*
D03*
X1684250Y1691750D02*
D03*
X1684500Y1661750D02*
D03*
Y1631500D02*
D03*
Y1601750D02*
D03*
X1654500Y1842000D02*
D03*
X1654250Y1812000D02*
D03*
X1654500Y1781750D02*
D03*
Y1751750D02*
D03*
Y1721750D02*
D03*
X1654250Y1691750D02*
D03*
X1654500Y1661750D02*
D03*
Y1631500D02*
D03*
Y1601750D02*
D03*
X1624750Y1842000D02*
D03*
X1624500Y1812000D02*
D03*
X1624750Y1781750D02*
D03*
Y1751750D02*
D03*
Y1721750D02*
D03*
X1624500Y1691750D02*
D03*
X1624750Y1661750D02*
D03*
Y1631500D02*
D03*
Y1601750D02*
D03*
X1594750Y1842000D02*
D03*
X1594500Y1812000D02*
D03*
X1594750Y1781750D02*
D03*
Y1751750D02*
D03*
Y1721750D02*
D03*
X1594500Y1691750D02*
D03*
X1594750Y1661750D02*
D03*
Y1631500D02*
D03*
Y1601750D02*
D03*
X1564500Y1842000D02*
D03*
X1564250Y1812000D02*
D03*
X1564500Y1781750D02*
D03*
Y1751750D02*
D03*
Y1721750D02*
D03*
X1564250Y1691750D02*
D03*
X1564500Y1661750D02*
D03*
Y1631500D02*
D03*
Y1601750D02*
D03*
X1534500Y1842000D02*
D03*
X1534250Y1812000D02*
D03*
X1534500Y1781750D02*
D03*
Y1751750D02*
D03*
Y1721750D02*
D03*
X1534250Y1691750D02*
D03*
X1534500Y1661750D02*
D03*
Y1631500D02*
D03*
Y1601750D02*
D03*
X1504250Y1812000D02*
D03*
X1504500Y1781750D02*
D03*
Y1751750D02*
D03*
Y1721750D02*
D03*
X1504250Y1691750D02*
D03*
X1504500Y1661750D02*
D03*
Y1631500D02*
D03*
Y1601750D02*
D03*
X1474750Y1842000D02*
D03*
X1474500Y1812000D02*
D03*
X1474750Y1781750D02*
D03*
Y1751750D02*
D03*
Y1721750D02*
D03*
X1474500Y1691750D02*
D03*
X1474750Y1661750D02*
D03*
Y1631500D02*
D03*
Y1601750D02*
D03*
X1444750Y1842000D02*
D03*
X1444500Y1812000D02*
D03*
X1444750Y1781750D02*
D03*
Y1751750D02*
D03*
Y1721750D02*
D03*
X1444500Y1691750D02*
D03*
X1444750Y1661750D02*
D03*
Y1631500D02*
D03*
Y1601750D02*
D03*
X1414500Y1842000D02*
D03*
X1414250Y1812000D02*
D03*
X1414500Y1781750D02*
D03*
Y1751750D02*
D03*
Y1721750D02*
D03*
X1414250Y1691750D02*
D03*
X1414500Y1661750D02*
D03*
Y1631500D02*
D03*
Y1601750D02*
D03*
X1384250Y1812000D02*
D03*
X1384500Y1781750D02*
D03*
Y1751750D02*
D03*
Y1721750D02*
D03*
X1384250Y1691750D02*
D03*
X1384500Y1661750D02*
D03*
Y1631500D02*
D03*
Y1601750D02*
D03*
X1354500Y1841750D02*
D03*
X1354250Y1811750D02*
D03*
X1354500Y1781500D02*
D03*
Y1751500D02*
D03*
Y1721500D02*
D03*
X1354250Y1691500D02*
D03*
X1354500Y1661500D02*
D03*
Y1631250D02*
D03*
Y1601500D02*
D03*
X1820774Y1232054D02*
D03*
X1903774Y1244704D02*
D03*
X1845024Y1230304D02*
D03*
X2327524Y1303804D02*
D03*
X2440524Y1276054D02*
D03*
X2422774Y1411054D02*
D03*
X2447774Y1422323D02*
D03*
Y1430354D02*
D03*
X1730381Y1271054D02*
D03*
Y1256054D02*
D03*
X1728494Y1246054D02*
D03*
Y1231054D02*
D03*
X2103974Y1271054D02*
D03*
X2032774D02*
D03*
X1849674D02*
D03*
X2267274Y1318554D02*
D03*
X2184274Y1318804D02*
D03*
X2125072Y1261054D02*
D03*
X2154274Y1308054D02*
D03*
X1729524Y1307554D02*
D03*
X1900274Y1308054D02*
D03*
X2031274Y1302804D02*
D03*
X2154274Y1345554D02*
D03*
X1900024Y1375904D02*
D03*
X1839274Y1346304D02*
D03*
X1900524Y1321554D02*
D03*
X1846274Y1371554D02*
D03*
X1809524Y1358304D02*
D03*
X1668024Y1341054D02*
D03*
X1657774Y1358804D02*
D03*
X2262284Y1375904D02*
D03*
X2277974Y1375804D02*
D03*
X2136274Y1338554D02*
D03*
Y1325854D02*
D03*
X2179024Y1395804D02*
D03*
X2219274Y1378054D02*
D03*
X2351274Y1386054D02*
D03*
X2346274Y1477554D02*
D03*
X2385774Y1311804D02*
D03*
X2434524Y1327054D02*
D03*
X2381024Y1359804D02*
D03*
X2368274Y1304954D02*
D03*
X2367024Y1456304D02*
D03*
D34*
X2031500Y1581000D02*
D03*
X2031600Y1891250D02*
D03*
X1397000Y1891250D02*
D03*
X2031774Y1201274D02*
D03*
X1397274Y1511524D02*
D03*
X2031874Y1511524D02*
D03*
D35*
X2082300Y1581000D02*
D03*
X2107700D02*
D03*
X2133100D02*
D03*
X2158500D02*
D03*
X2183900D02*
D03*
X2209300D02*
D03*
X2234700D02*
D03*
X2056900D02*
D03*
X2361800Y1891250D02*
D03*
X2336400D02*
D03*
X2311000D02*
D03*
X2285600D02*
D03*
X2260200D02*
D03*
X2234800D02*
D03*
X2209400D02*
D03*
X2184000D02*
D03*
X2158600D02*
D03*
X2133200D02*
D03*
X2107800D02*
D03*
X2082400D02*
D03*
X2057000D02*
D03*
X1422400Y1891250D02*
D03*
X1447800D02*
D03*
X1473200D02*
D03*
X1498600D02*
D03*
X1524000D02*
D03*
X1549400D02*
D03*
X1574800D02*
D03*
X1600200D02*
D03*
X1625600D02*
D03*
X1651000D02*
D03*
X1676400D02*
D03*
X1701800D02*
D03*
X1727200D02*
D03*
X1752600D02*
D03*
X1778000D02*
D03*
X1803400D02*
D03*
X1828800D02*
D03*
X1854200D02*
D03*
X1879600D02*
D03*
X1905000D02*
D03*
X1930400D02*
D03*
X1955800D02*
D03*
X1981200D02*
D03*
X2006600D02*
D03*
X1274774Y1253654D02*
D03*
Y1279054D02*
D03*
Y1304454D02*
D03*
X2057174Y1201274D02*
D03*
X2234974D02*
D03*
X2209574D02*
D03*
X2184174D02*
D03*
X2158774D02*
D03*
X2133374D02*
D03*
X2107974D02*
D03*
X2082574D02*
D03*
X2260474Y1511524D02*
D03*
X2285874D02*
D03*
X2362074D02*
D03*
X2336674D02*
D03*
X2311274D02*
D03*
X2235074D02*
D03*
X1829074Y1511524D02*
D03*
X1803674D02*
D03*
X1778274D02*
D03*
X1676674D02*
D03*
X1702074D02*
D03*
X1727474D02*
D03*
X1752874D02*
D03*
X1854474D02*
D03*
X1422674D02*
D03*
X1448074D02*
D03*
X1473474D02*
D03*
X1498874D02*
D03*
X1524274D02*
D03*
X1549674D02*
D03*
X1575074D02*
D03*
X1600474D02*
D03*
X1625874D02*
D03*
X1651274D02*
D03*
X1879874D02*
D03*
X1905274D02*
D03*
X1930674D02*
D03*
X1956074D02*
D03*
X1981474D02*
D03*
X2006874D02*
D03*
X2209674Y1511524D02*
D03*
X2184274D02*
D03*
X2158874D02*
D03*
X2133474D02*
D03*
X2108074D02*
D03*
X2082674D02*
D03*
X2057274D02*
D03*
D36*
X1279000Y1586000D02*
D03*
X2479000D02*
D03*
Y1886000D02*
D03*
X1279000D02*
D03*
X1279274Y1506274D02*
D03*
X2479274D02*
D03*
Y1206274D02*
D03*
X1279274D02*
D03*
D37*
X1274774Y1329854D02*
D03*
D38*
X2485154Y1466054D02*
D03*
X2494394D02*
D03*
Y1381554D02*
D03*
X2485154D02*
D03*
D39*
X2481024D02*
D03*
X2498524D02*
D03*
Y1466054D02*
D03*
X2481024D02*
D03*
D40*
X2464024Y1387804D02*
D03*
Y1459804D02*
D03*
D41*
X1341275Y1382954D02*
D03*
Y1408354D02*
D03*
Y1433754D02*
D03*
Y1459154D02*
D03*
D42*
X1264274Y1415553D02*
D03*
Y1445555D02*
D03*
D43*
X2065274Y1396054D02*
D03*
Y1428554D02*
D03*
X2027774Y1396054D02*
D03*
Y1388554D02*
D03*
X2035274Y1396054D02*
D03*
X2042774D02*
D03*
X2050274D02*
D03*
X2065274Y1388554D02*
D03*
X2057774D02*
D03*
X2050274D02*
D03*
X2042774D02*
D03*
X2035274D02*
D03*
X2027774Y1413554D02*
D03*
X2035274D02*
D03*
X2042774D02*
D03*
X2050274D02*
D03*
X2057774D02*
D03*
X2065274D02*
D03*
Y1421054D02*
D03*
X2057774D02*
D03*
X2050274D02*
D03*
X2042774D02*
D03*
X2035274D02*
D03*
X2027774D02*
D03*
Y1428554D02*
D03*
X2035274D02*
D03*
X2042774D02*
D03*
X2050274D02*
D03*
X2057774D02*
D03*
X2105224Y1402354D02*
D03*
X2109274Y1412804D02*
D03*
X2097024Y1408304D02*
D03*
X2098274Y1393054D02*
D03*
X2094024Y1384054D02*
D03*
D44*
X2075024Y1375904D02*
D03*
X2071024D02*
D03*
X2067024D02*
D03*
X2063024D02*
D03*
X2059024D02*
D03*
X2055024D02*
D03*
X2051024D02*
D03*
X2047024D02*
D03*
X2043024D02*
D03*
X2039024D02*
D03*
X2035024D02*
D03*
X2031024D02*
D03*
X2027024D02*
D03*
X2023024D02*
D03*
X2019024D02*
D03*
Y1444804D02*
D03*
X2023024D02*
D03*
X2027024D02*
D03*
X2031024D02*
D03*
X2035024D02*
D03*
X2039024D02*
D03*
X2043024D02*
D03*
X2047024D02*
D03*
X2051024D02*
D03*
X2055024D02*
D03*
X2059024D02*
D03*
X2063024D02*
D03*
X2067024D02*
D03*
X2071024D02*
D03*
X2075024D02*
D03*
D45*
X2081474Y1438354D02*
D03*
Y1434354D02*
D03*
Y1430354D02*
D03*
Y1426354D02*
D03*
Y1422354D02*
D03*
Y1418354D02*
D03*
Y1414354D02*
D03*
Y1410354D02*
D03*
Y1406354D02*
D03*
Y1402354D02*
D03*
Y1398354D02*
D03*
Y1394354D02*
D03*
Y1390354D02*
D03*
Y1386354D02*
D03*
Y1382354D02*
D03*
X2012574D02*
D03*
Y1386354D02*
D03*
Y1390354D02*
D03*
Y1394354D02*
D03*
Y1398354D02*
D03*
Y1402354D02*
D03*
Y1406354D02*
D03*
Y1410354D02*
D03*
Y1414354D02*
D03*
Y1418354D02*
D03*
Y1422354D02*
D03*
Y1426354D02*
D03*
Y1430354D02*
D03*
Y1434354D02*
D03*
Y1438354D02*
D03*
D46*
X2047024Y1410354D02*
D03*
D47*
X2458274Y1289304D02*
D03*
Y1276804D02*
D03*
D48*
X2487274Y1314804D02*
D03*
Y1251304D02*
D03*
D49*
X2461024Y1410804D02*
D03*
Y1417304D02*
D03*
Y1423804D02*
D03*
Y1430304D02*
D03*
Y1436804D02*
D03*
D50*
X2256523Y1239305D02*
D03*
X2336025D02*
D03*
X2256523Y1284303D02*
D03*
X2336025D02*
D03*
D51*
X2495394Y1359054D02*
D03*
X2479394D02*
D03*
X2495394Y1343054D02*
D03*
X2479394D02*
D03*
X1748004Y1246554D02*
D03*
X1764004D02*
D03*
X1748004Y1265554D02*
D03*
X1764004D02*
D03*
X1748004Y1228304D02*
D03*
X1764004D02*
D03*
X1747904Y1285054D02*
D03*
X1763904D02*
D03*
D52*
X1395273Y1218853D02*
D03*
Y1298355D02*
D03*
X1350274Y1218853D02*
D03*
Y1298355D02*
D03*
X1690273Y1218853D02*
D03*
Y1298355D02*
D03*
X1645274Y1218853D02*
D03*
Y1298355D02*
D03*
X1542773Y1218853D02*
D03*
Y1298355D02*
D03*
X1497774Y1218853D02*
D03*
Y1298355D02*
D03*
M02*
