G04*
G04 #@! TF.GenerationSoftware,Altium Limited,Altium Designer,18.1.9 (240)*
G04*
G04 Layer_Color=16711935*
%FSLAX44Y44*%
%MOMM*%
G71*
G01*
G75*
%ADD30C,0.1000*%
D30*
X1788274Y1251554D02*
X1805774D01*
X1788274Y1242054D02*
X1805774D01*
Y1251554D01*
X1788274Y1242054D02*
Y1251554D01*
Y1289804D02*
X1805774D01*
X1788274Y1280304D02*
X1805774D01*
Y1289804D01*
X1788274Y1280304D02*
Y1289804D01*
Y1270304D02*
X1805774D01*
X1788274Y1260804D02*
X1805774D01*
Y1270304D01*
X1788274Y1260804D02*
Y1270304D01*
Y1233304D02*
X1805774D01*
X1788274Y1223804D02*
X1805774D01*
Y1233304D01*
X1788274Y1223804D02*
Y1233304D01*
X2014774Y1337554D02*
X2032274D01*
X2014774Y1328054D02*
X2032274D01*
Y1337554D01*
X2014774Y1328054D02*
Y1337554D01*
Y1321804D02*
X2032274D01*
X2014774Y1312304D02*
X2032274D01*
Y1321804D01*
X2014774Y1312304D02*
Y1321804D01*
X2085524Y1351054D02*
Y1368554D01*
X2095024Y1351054D02*
Y1368554D01*
X2085524D02*
X2095024D01*
X2085524Y1351054D02*
X2095024D01*
X2103274Y1351304D02*
Y1368804D01*
X2112774Y1351304D02*
Y1368804D01*
X2103274D02*
X2112774D01*
X2103274Y1351304D02*
X2112774D01*
X2446274Y1353804D02*
X2463774D01*
X2446274Y1363304D02*
X2463774D01*
X2446274Y1353804D02*
Y1363304D01*
X2463774Y1353804D02*
Y1363304D01*
X2446274Y1347804D02*
X2463774D01*
X2446274Y1338304D02*
X2463774D01*
Y1347804D01*
X2446274Y1338304D02*
Y1347804D01*
X2466273Y1261804D02*
Y1304303D01*
X2508274D01*
Y1261804D02*
Y1304303D01*
X2466273Y1261804D02*
X2508274D01*
X1911524Y1359304D02*
Y1376804D01*
X1921024Y1359304D02*
Y1376804D01*
X1911524Y1359304D02*
X1921024D01*
X1911524Y1376804D02*
X1921024D01*
X1931274Y1379054D02*
Y1396554D01*
X1940774Y1379054D02*
Y1396554D01*
X1931274Y1379054D02*
X1940774D01*
X1931274Y1396554D02*
X1940774D01*
X2129524Y1393804D02*
Y1411304D01*
X2120024Y1393804D02*
Y1411304D01*
X2129524D01*
X2120024Y1393804D02*
X2129524D01*
Y1365304D02*
Y1382804D01*
X2120024Y1365304D02*
Y1382804D01*
X2129524D01*
X2120024Y1365304D02*
X2129524D01*
X2103774Y1365054D02*
Y1382554D01*
X2113274Y1365054D02*
Y1382554D01*
X2103774Y1365054D02*
X2113274D01*
X2103774Y1382554D02*
X2113274D01*
X2094524Y1351304D02*
Y1368804D01*
X2085024Y1351304D02*
Y1368804D01*
X2094524D01*
X2085024Y1351304D02*
X2094524D01*
X2150774Y1386554D02*
Y1404054D01*
X2141274Y1386554D02*
Y1404054D01*
X2150774D01*
X2141274Y1386554D02*
X2150774D01*
X2162824Y1359054D02*
Y1373054D01*
X2193224Y1359054D02*
Y1373054D01*
X2162824Y1359054D02*
X2193224D01*
X2162824Y1373054D02*
X2193224D01*
X2192974Y1419604D02*
Y1433604D01*
X2162574Y1419604D02*
Y1433604D01*
X2192974D01*
X2162574Y1419604D02*
X2192974D01*
X2236774Y1314054D02*
X2254274D01*
X2236774Y1323554D02*
X2254274D01*
Y1314054D02*
Y1323554D01*
X2236774Y1314054D02*
Y1323554D01*
X2206274Y1386804D02*
Y1404304D01*
X2215774Y1386804D02*
Y1404304D01*
X2206274Y1386804D02*
X2215774D01*
X2206274Y1404304D02*
X2215774D01*
X2329774Y1392054D02*
Y1409554D01*
X2339274Y1392054D02*
Y1409554D01*
X2329774Y1392054D02*
X2339274D01*
X2329774Y1409554D02*
X2339274D01*
X2361024Y1378054D02*
Y1405054D01*
Y1378054D02*
X2377024D01*
X2361024Y1405054D02*
X2377024D01*
Y1378054D02*
Y1405054D01*
X2396774Y1352054D02*
X2414774D01*
X2396774Y1321054D02*
X2414774D01*
X2396774D02*
Y1352054D01*
X2414774Y1321054D02*
Y1352054D01*
X2330774Y1327554D02*
Y1345054D01*
X2321274Y1327554D02*
Y1345054D01*
X2330774D01*
X2321274Y1327554D02*
X2330774D01*
X2397274Y1307804D02*
X2414774D01*
X2397274Y1298304D02*
X2414774D01*
X2397274D02*
Y1307804D01*
X2414774Y1298304D02*
Y1307804D01*
X2422274Y1251254D02*
Y1268754D01*
X2412774Y1251254D02*
Y1268754D01*
X2422274D01*
X2412774Y1251254D02*
X2422274D01*
X2386774Y1257804D02*
X2404274D01*
X2386774Y1248304D02*
X2404274D01*
X2386774D02*
Y1257804D01*
X2404274Y1248304D02*
Y1257804D01*
X2386774Y1262554D02*
X2404274D01*
X2386774Y1272054D02*
X2404274D01*
Y1262554D02*
Y1272054D01*
X2386774Y1262554D02*
Y1272054D01*
X2456524Y1377304D02*
Y1470304D01*
X2254524Y1299054D02*
Y1308554D01*
X2237024Y1299054D02*
Y1308554D01*
Y1299054D02*
X2254524D01*
X2237024Y1308554D02*
X2254524D01*
M02*
