G04*
G04 #@! TF.GenerationSoftware,Altium Limited,Altium Designer,18.1.9 (240)*
G04*
G04 Layer_Color=8388736*
%FSLAX44Y44*%
%MOMM*%
G71*
G01*
G75*
%ADD57P,1.4187X4X270.0*%
%ADD58R,1.1032X1.0032*%
%ADD59R,0.8032X1.8032*%
%ADD60R,1.0032X1.1032*%
%ADD61R,1.7272X0.8382*%
%ADD62R,1.4222X1.1172*%
%ADD63R,1.2532X0.8032*%
%ADD64R,1.5032X0.9032*%
%ADD65R,2.8032X2.0032*%
%ADD66R,0.6532X0.8032*%
%ADD67R,2.2032X1.1032*%
%ADD68R,1.1032X2.2032*%
%ADD69R,5.2032X5.2032*%
%ADD70R,2.2032X1.0033*%
%ADD71R,1.0033X1.2032*%
%ADD72R,1.0033X1.1031*%
%ADD73C,0.7032*%
%ADD74R,1.7032X1.7032*%
%ADD75C,1.7032*%
%ADD76C,3.2032*%
%ADD77R,1.7032X1.7032*%
%ADD78R,1.3032X1.3032*%
%ADD79O,2.0032X1.3032*%
%ADD80O,1.8032X1.4032*%
%ADD81C,1.4034*%
%ADD82C,1.0033*%
%ADD83C,0.6532*%
D57*
X2455388Y1622638D02*
D03*
X2444074Y1611324D02*
D03*
X2425388Y1622638D02*
D03*
X2414074Y1611324D02*
D03*
X2395388Y1622638D02*
D03*
X2384074Y1611324D02*
D03*
X2365388Y1622638D02*
D03*
X2354074Y1611324D02*
D03*
X2335388Y1622638D02*
D03*
X2324074Y1611324D02*
D03*
X2305388Y1622638D02*
D03*
X2294074Y1611324D02*
D03*
X2275388Y1622638D02*
D03*
X2264074Y1611324D02*
D03*
X2245388Y1622638D02*
D03*
X2234074Y1611324D02*
D03*
X2215388Y1622638D02*
D03*
X2204074Y1611324D02*
D03*
X2185388Y1622638D02*
D03*
X2174074Y1611324D02*
D03*
X2155388Y1622638D02*
D03*
X2144074Y1611324D02*
D03*
X2125388Y1622638D02*
D03*
X2114074Y1611324D02*
D03*
X2095388Y1622638D02*
D03*
X2084074Y1611324D02*
D03*
X2065388Y1622638D02*
D03*
X2054074Y1611324D02*
D03*
X2035388Y1622638D02*
D03*
X2024074Y1611324D02*
D03*
X2005388Y1622638D02*
D03*
X1994074Y1611324D02*
D03*
X1975388Y1622638D02*
D03*
X1964074Y1611324D02*
D03*
X1945388Y1622638D02*
D03*
X1934074Y1611324D02*
D03*
X1915388Y1622638D02*
D03*
X1904074Y1611324D02*
D03*
X1885388Y1622638D02*
D03*
X1874074Y1611324D02*
D03*
X1855388Y1622638D02*
D03*
X1844074Y1611324D02*
D03*
X1825388Y1622638D02*
D03*
X1814074Y1611324D02*
D03*
X1795388Y1622638D02*
D03*
X1784074Y1611324D02*
D03*
X1765388Y1622638D02*
D03*
X1754074Y1611324D02*
D03*
X1735388Y1622638D02*
D03*
X1724074Y1611324D02*
D03*
X1705388Y1622638D02*
D03*
X1694074Y1611324D02*
D03*
X1675388Y1622638D02*
D03*
X1664074Y1611324D02*
D03*
X1645388Y1622638D02*
D03*
X1634074Y1611324D02*
D03*
X1615388Y1622638D02*
D03*
X1604074Y1611324D02*
D03*
X1585388Y1622638D02*
D03*
X1574074Y1611324D02*
D03*
X1555388Y1622638D02*
D03*
X1544074Y1611324D02*
D03*
X1525388Y1622638D02*
D03*
X1514074Y1611324D02*
D03*
X1495388Y1622638D02*
D03*
X1484074Y1611324D02*
D03*
X1465388Y1622638D02*
D03*
X1454074Y1611324D02*
D03*
X1435388Y1622638D02*
D03*
X1424074Y1611324D02*
D03*
X1405388Y1622638D02*
D03*
X1394074Y1611324D02*
D03*
X1375388Y1622638D02*
D03*
X1364074Y1611324D02*
D03*
X1345388Y1622638D02*
D03*
X1334074Y1611324D02*
D03*
X1315388Y1622638D02*
D03*
X1304074Y1611324D02*
D03*
X2455388Y1652638D02*
D03*
X2444074Y1641324D02*
D03*
X2425388Y1652638D02*
D03*
X2414074Y1641324D02*
D03*
X2395388Y1652638D02*
D03*
X2384074Y1641324D02*
D03*
X2365388Y1652638D02*
D03*
X2354074Y1641324D02*
D03*
X2335388Y1652638D02*
D03*
X2324074Y1641324D02*
D03*
X2305388Y1652638D02*
D03*
X2294074Y1641324D02*
D03*
X2275388Y1652638D02*
D03*
X2264074Y1641324D02*
D03*
X2245388Y1652638D02*
D03*
X2234074Y1641324D02*
D03*
X2215388Y1652638D02*
D03*
X2204074Y1641324D02*
D03*
X2185388Y1652638D02*
D03*
X2174074Y1641324D02*
D03*
X2155388Y1652638D02*
D03*
X2144074Y1641324D02*
D03*
X2125388Y1652638D02*
D03*
X2114074Y1641324D02*
D03*
X2095388Y1652638D02*
D03*
X2084074Y1641324D02*
D03*
X2065388Y1652638D02*
D03*
X2054074Y1641324D02*
D03*
X2035388Y1652638D02*
D03*
X2024074Y1641324D02*
D03*
X2005388Y1652638D02*
D03*
X1994074Y1641324D02*
D03*
X1975388Y1652638D02*
D03*
X1964074Y1641324D02*
D03*
X1945388Y1652638D02*
D03*
X1934074Y1641324D02*
D03*
X1915388Y1652638D02*
D03*
X1904074Y1641324D02*
D03*
X1885388Y1652638D02*
D03*
X1874074Y1641324D02*
D03*
X1855388Y1652638D02*
D03*
X1844074Y1641324D02*
D03*
X1825388Y1652638D02*
D03*
X1814074Y1641324D02*
D03*
X1795388Y1652638D02*
D03*
X1784074Y1641324D02*
D03*
X1765388Y1652638D02*
D03*
X1754074Y1641324D02*
D03*
X1735388Y1652638D02*
D03*
X1724074Y1641324D02*
D03*
X1705388Y1652638D02*
D03*
X1694074Y1641324D02*
D03*
X1675388Y1652638D02*
D03*
X1664074Y1641324D02*
D03*
X1645388Y1652638D02*
D03*
X1634074Y1641324D02*
D03*
X1615388Y1652638D02*
D03*
X1604074Y1641324D02*
D03*
X1585388Y1652638D02*
D03*
X1574074Y1641324D02*
D03*
X1555388Y1652638D02*
D03*
X1544074Y1641324D02*
D03*
X1525388Y1652638D02*
D03*
X1514074Y1641324D02*
D03*
X1495388Y1652638D02*
D03*
X1484074Y1641324D02*
D03*
X1465388Y1652638D02*
D03*
X1454074Y1641324D02*
D03*
X1435388Y1652638D02*
D03*
X1424074Y1641324D02*
D03*
X1405388Y1652638D02*
D03*
X1394074Y1641324D02*
D03*
X1375388Y1652638D02*
D03*
X1364074Y1641324D02*
D03*
X1345388Y1652638D02*
D03*
X1334074Y1641324D02*
D03*
X1315388Y1652638D02*
D03*
X1304074Y1641324D02*
D03*
X2455388Y1682638D02*
D03*
X2444074Y1671324D02*
D03*
X2425388Y1682638D02*
D03*
X2414074Y1671324D02*
D03*
X2395388Y1682638D02*
D03*
X2384074Y1671324D02*
D03*
X2365388Y1682638D02*
D03*
X2354074Y1671324D02*
D03*
X2335388Y1682638D02*
D03*
X2324074Y1671324D02*
D03*
X2305388Y1682638D02*
D03*
X2294074Y1671324D02*
D03*
X2275388Y1682638D02*
D03*
X2264074Y1671324D02*
D03*
X2245388Y1682638D02*
D03*
X2234074Y1671324D02*
D03*
X2215388Y1682638D02*
D03*
X2204074Y1671324D02*
D03*
X2185388Y1682638D02*
D03*
X2174074Y1671324D02*
D03*
X2155388Y1682638D02*
D03*
X2144074Y1671324D02*
D03*
X2125388Y1682638D02*
D03*
X2114074Y1671324D02*
D03*
X2095388Y1682638D02*
D03*
X2084074Y1671324D02*
D03*
X2065388Y1682638D02*
D03*
X2054074Y1671324D02*
D03*
X2035388Y1682638D02*
D03*
X2024074Y1671324D02*
D03*
X2005388Y1682638D02*
D03*
X1994074Y1671324D02*
D03*
X1975388Y1682638D02*
D03*
X1964074Y1671324D02*
D03*
X1945388Y1682638D02*
D03*
X1934074Y1671324D02*
D03*
X1915388Y1682638D02*
D03*
X1904074Y1671324D02*
D03*
X1885388Y1682638D02*
D03*
X1874074Y1671324D02*
D03*
X1855388Y1682638D02*
D03*
X1844074Y1671324D02*
D03*
X1825388Y1682638D02*
D03*
X1814074Y1671324D02*
D03*
X1795388Y1682638D02*
D03*
X1784074Y1671324D02*
D03*
X1765388Y1682638D02*
D03*
X1754074Y1671324D02*
D03*
X1735388Y1682638D02*
D03*
X1724074Y1671324D02*
D03*
X1705388Y1682638D02*
D03*
X1694074Y1671324D02*
D03*
X1675388Y1682638D02*
D03*
X1664074Y1671324D02*
D03*
X1645388Y1682638D02*
D03*
X1634074Y1671324D02*
D03*
X1615388Y1682638D02*
D03*
X1604074Y1671324D02*
D03*
X1585388Y1682638D02*
D03*
X1574074Y1671324D02*
D03*
X1555388Y1682638D02*
D03*
X1544074Y1671324D02*
D03*
X1525388Y1682638D02*
D03*
X1514074Y1671324D02*
D03*
X1495388Y1682638D02*
D03*
X1484074Y1671324D02*
D03*
X1465388Y1682638D02*
D03*
X1454074Y1671324D02*
D03*
X1435388Y1682638D02*
D03*
X1424074Y1671324D02*
D03*
X1405388Y1682638D02*
D03*
X1394074Y1671324D02*
D03*
X1375388Y1682638D02*
D03*
X1364074Y1671324D02*
D03*
X1345388Y1682638D02*
D03*
X1334074Y1671324D02*
D03*
X1315388Y1682638D02*
D03*
X1304074Y1671324D02*
D03*
X2455388Y1712638D02*
D03*
X2444074Y1701324D02*
D03*
X2425388Y1712638D02*
D03*
X2414074Y1701324D02*
D03*
X2395388Y1712638D02*
D03*
X2384074Y1701324D02*
D03*
X2365388Y1712638D02*
D03*
X2354074Y1701324D02*
D03*
X2335388Y1712638D02*
D03*
X2324074Y1701324D02*
D03*
X2305388Y1712638D02*
D03*
X2294074Y1701324D02*
D03*
X2275388Y1712638D02*
D03*
X2264074Y1701324D02*
D03*
X2245388Y1712638D02*
D03*
X2234074Y1701324D02*
D03*
X2215388Y1712638D02*
D03*
X2204074Y1701324D02*
D03*
X2185388Y1712638D02*
D03*
X2174074Y1701324D02*
D03*
X2155388Y1712638D02*
D03*
X2144074Y1701324D02*
D03*
X2125388Y1712638D02*
D03*
X2114074Y1701324D02*
D03*
X2095388Y1712638D02*
D03*
X2084074Y1701324D02*
D03*
X2065388Y1712638D02*
D03*
X2054074Y1701324D02*
D03*
X2035388Y1712638D02*
D03*
X2024074Y1701324D02*
D03*
X2005388Y1712638D02*
D03*
X1994074Y1701324D02*
D03*
X1975388Y1712638D02*
D03*
X1964074Y1701324D02*
D03*
X1945388Y1712638D02*
D03*
X1934074Y1701324D02*
D03*
X1915388Y1712638D02*
D03*
X1904074Y1701324D02*
D03*
X1885388Y1712638D02*
D03*
X1874074Y1701324D02*
D03*
X1855388Y1712638D02*
D03*
X1844074Y1701324D02*
D03*
X1825388Y1712638D02*
D03*
X1814074Y1701324D02*
D03*
X1795388Y1712638D02*
D03*
X1784074Y1701324D02*
D03*
X1765388Y1712638D02*
D03*
X1754074Y1701324D02*
D03*
X1735388Y1712638D02*
D03*
X1724074Y1701324D02*
D03*
X1705388Y1712638D02*
D03*
X1694074Y1701324D02*
D03*
X1675388Y1712638D02*
D03*
X1664074Y1701324D02*
D03*
X1645388Y1712638D02*
D03*
X1634074Y1701324D02*
D03*
X1615388Y1712638D02*
D03*
X1604074Y1701324D02*
D03*
X1585388Y1712638D02*
D03*
X1574074Y1701324D02*
D03*
X1555388Y1712638D02*
D03*
X1544074Y1701324D02*
D03*
X1525388Y1712638D02*
D03*
X1514074Y1701324D02*
D03*
X1495388Y1712638D02*
D03*
X1484074Y1701324D02*
D03*
X1465388Y1712638D02*
D03*
X1454074Y1701324D02*
D03*
X1435388Y1712638D02*
D03*
X1424074Y1701324D02*
D03*
X1405388Y1712638D02*
D03*
X1394074Y1701324D02*
D03*
X1375388Y1712638D02*
D03*
X1364074Y1701324D02*
D03*
X1345388Y1712638D02*
D03*
X1334074Y1701324D02*
D03*
X1315388Y1712638D02*
D03*
X1304074Y1701324D02*
D03*
X2455388Y1742638D02*
D03*
X2444074Y1731324D02*
D03*
X2425388Y1742638D02*
D03*
X2414074Y1731324D02*
D03*
X2395388Y1742638D02*
D03*
X2384074Y1731324D02*
D03*
X2365388Y1742638D02*
D03*
X2354074Y1731324D02*
D03*
X2335388Y1742638D02*
D03*
X2324074Y1731324D02*
D03*
X2305388Y1742638D02*
D03*
X2294074Y1731324D02*
D03*
X2275388Y1742638D02*
D03*
X2264074Y1731324D02*
D03*
X2245388Y1742638D02*
D03*
X2234074Y1731324D02*
D03*
X2215388Y1742638D02*
D03*
X2204074Y1731324D02*
D03*
X2185388Y1742638D02*
D03*
X2174074Y1731324D02*
D03*
X2155388Y1742638D02*
D03*
X2144074Y1731324D02*
D03*
X2125388Y1742638D02*
D03*
X2114074Y1731324D02*
D03*
X2095388Y1742638D02*
D03*
X2084074Y1731324D02*
D03*
X2065388Y1742638D02*
D03*
X2054074Y1731324D02*
D03*
X2035388Y1742638D02*
D03*
X2024074Y1731324D02*
D03*
X2005388Y1742638D02*
D03*
X1994074Y1731324D02*
D03*
X1975388Y1742638D02*
D03*
X1964074Y1731324D02*
D03*
X1945388Y1742638D02*
D03*
X1934074Y1731324D02*
D03*
X1915388Y1742638D02*
D03*
X1904074Y1731324D02*
D03*
X1885388Y1742638D02*
D03*
X1874074Y1731324D02*
D03*
X1855388Y1742638D02*
D03*
X1844074Y1731324D02*
D03*
X1825388Y1742638D02*
D03*
X1814074Y1731324D02*
D03*
X1795388Y1742638D02*
D03*
X1784074Y1731324D02*
D03*
X1765388Y1742638D02*
D03*
X1754074Y1731324D02*
D03*
X1735388Y1742638D02*
D03*
X1724074Y1731324D02*
D03*
X1705388Y1742638D02*
D03*
X1694074Y1731324D02*
D03*
X1675388Y1742638D02*
D03*
X1664074Y1731324D02*
D03*
X1645388Y1742638D02*
D03*
X1634074Y1731324D02*
D03*
X1615388Y1742638D02*
D03*
X1604074Y1731324D02*
D03*
X1585388Y1742638D02*
D03*
X1574074Y1731324D02*
D03*
X1555388Y1742638D02*
D03*
X1544074Y1731324D02*
D03*
X1525388Y1742638D02*
D03*
X1514074Y1731324D02*
D03*
X1495388Y1742638D02*
D03*
X1484074Y1731324D02*
D03*
X1465388Y1742638D02*
D03*
X1454074Y1731324D02*
D03*
X1435388Y1742638D02*
D03*
X1424074Y1731324D02*
D03*
X1405388Y1742638D02*
D03*
X1394074Y1731324D02*
D03*
X1375388Y1742638D02*
D03*
X1364074Y1731324D02*
D03*
X1345388Y1742638D02*
D03*
X1334074Y1731324D02*
D03*
X1315388Y1742638D02*
D03*
X1304074Y1731324D02*
D03*
X2455388Y1772638D02*
D03*
X2444074Y1761324D02*
D03*
X2425388Y1772638D02*
D03*
X2414074Y1761324D02*
D03*
X2395388Y1772638D02*
D03*
X2384074Y1761324D02*
D03*
X2365388Y1772638D02*
D03*
X2354074Y1761324D02*
D03*
X2335388Y1772638D02*
D03*
X2324074Y1761324D02*
D03*
X2305388Y1772638D02*
D03*
X2294074Y1761324D02*
D03*
X2275388Y1772638D02*
D03*
X2264074Y1761324D02*
D03*
X2245388Y1772638D02*
D03*
X2234074Y1761324D02*
D03*
X2215388Y1772638D02*
D03*
X2204074Y1761324D02*
D03*
X2185388Y1772638D02*
D03*
X2174074Y1761324D02*
D03*
X2155388Y1772638D02*
D03*
X2144074Y1761324D02*
D03*
X2125388Y1772638D02*
D03*
X2114074Y1761324D02*
D03*
X2095388Y1772638D02*
D03*
X2084074Y1761324D02*
D03*
X2065388Y1772638D02*
D03*
X2054074Y1761324D02*
D03*
X2035388Y1772638D02*
D03*
X2024074Y1761324D02*
D03*
X2005388Y1772638D02*
D03*
X1994074Y1761324D02*
D03*
X1975388Y1772638D02*
D03*
X1964074Y1761324D02*
D03*
X1945388Y1772638D02*
D03*
X1934074Y1761324D02*
D03*
X1915388Y1772638D02*
D03*
X1904074Y1761324D02*
D03*
X1885388Y1772638D02*
D03*
X1874074Y1761324D02*
D03*
X1855388Y1772638D02*
D03*
X1844074Y1761324D02*
D03*
X1825388Y1772638D02*
D03*
X1814074Y1761324D02*
D03*
X1795388Y1772638D02*
D03*
X1784074Y1761324D02*
D03*
X1765388Y1772638D02*
D03*
X1754074Y1761324D02*
D03*
X1735388Y1772638D02*
D03*
X1724074Y1761324D02*
D03*
X1705388Y1772638D02*
D03*
X1694074Y1761324D02*
D03*
X1675388Y1772638D02*
D03*
X1664074Y1761324D02*
D03*
X1645388Y1772638D02*
D03*
X1634074Y1761324D02*
D03*
X1615388Y1772638D02*
D03*
X1604074Y1761324D02*
D03*
X1585388Y1772638D02*
D03*
X1574074Y1761324D02*
D03*
X1555388Y1772638D02*
D03*
X1544074Y1761324D02*
D03*
X1525388Y1772638D02*
D03*
X1514074Y1761324D02*
D03*
X1495388Y1772638D02*
D03*
X1484074Y1761324D02*
D03*
X1465388Y1772638D02*
D03*
X1454074Y1761324D02*
D03*
X1435388Y1772638D02*
D03*
X1424074Y1761324D02*
D03*
X1405388Y1772638D02*
D03*
X1394074Y1761324D02*
D03*
X1375388Y1772638D02*
D03*
X1364074Y1761324D02*
D03*
X1345388Y1772638D02*
D03*
X1334074Y1761324D02*
D03*
X1315388Y1772638D02*
D03*
X1304074Y1761324D02*
D03*
X2455388Y1802638D02*
D03*
X2444074Y1791324D02*
D03*
X2425388Y1802638D02*
D03*
X2414074Y1791324D02*
D03*
X2395388Y1802638D02*
D03*
X2384074Y1791324D02*
D03*
X2365388Y1802638D02*
D03*
X2354074Y1791324D02*
D03*
X2335388Y1802638D02*
D03*
X2324074Y1791324D02*
D03*
X2305388Y1802638D02*
D03*
X2294074Y1791324D02*
D03*
X2275388Y1802638D02*
D03*
X2264074Y1791324D02*
D03*
X2245388Y1802638D02*
D03*
X2234074Y1791324D02*
D03*
X2215388Y1802638D02*
D03*
X2204074Y1791324D02*
D03*
X2185388Y1802638D02*
D03*
X2174074Y1791324D02*
D03*
X2155388Y1802638D02*
D03*
X2144074Y1791324D02*
D03*
X2125388Y1802638D02*
D03*
X2114074Y1791324D02*
D03*
X2095388Y1802638D02*
D03*
X2084074Y1791324D02*
D03*
X2065388Y1802638D02*
D03*
X2054074Y1791324D02*
D03*
X2035388Y1802638D02*
D03*
X2024074Y1791324D02*
D03*
X2005388Y1802638D02*
D03*
X1994074Y1791324D02*
D03*
X1975388Y1802638D02*
D03*
X1964074Y1791324D02*
D03*
X1945388Y1802638D02*
D03*
X1934074Y1791324D02*
D03*
X1915388Y1802638D02*
D03*
X1904074Y1791324D02*
D03*
X1885388Y1802638D02*
D03*
X1874074Y1791324D02*
D03*
X1855388Y1802638D02*
D03*
X1844074Y1791324D02*
D03*
X1825388Y1802638D02*
D03*
X1814074Y1791324D02*
D03*
X1795388Y1802638D02*
D03*
X1784074Y1791324D02*
D03*
X1765388Y1802638D02*
D03*
X1754074Y1791324D02*
D03*
X1735388Y1802638D02*
D03*
X1724074Y1791324D02*
D03*
X1705388Y1802638D02*
D03*
X1694074Y1791324D02*
D03*
X1675388Y1802638D02*
D03*
X1664074Y1791324D02*
D03*
X1645388Y1802638D02*
D03*
X1634074Y1791324D02*
D03*
X1615388Y1802638D02*
D03*
X1604074Y1791324D02*
D03*
X1585388Y1802638D02*
D03*
X1574074Y1791324D02*
D03*
X1555388Y1802638D02*
D03*
X1544074Y1791324D02*
D03*
X1525388Y1802638D02*
D03*
X1514074Y1791324D02*
D03*
X1495388Y1802638D02*
D03*
X1484074Y1791324D02*
D03*
X1465388Y1802638D02*
D03*
X1454074Y1791324D02*
D03*
X1435388Y1802638D02*
D03*
X1424074Y1791324D02*
D03*
X1405388Y1802638D02*
D03*
X1394074Y1791324D02*
D03*
X1375388Y1802638D02*
D03*
X1364074Y1791324D02*
D03*
X1345388Y1802638D02*
D03*
X1334074Y1791324D02*
D03*
X1315388Y1802638D02*
D03*
X1304074Y1791324D02*
D03*
X2455388Y1832638D02*
D03*
X2444074Y1821324D02*
D03*
X2425388Y1832638D02*
D03*
X2414074Y1821324D02*
D03*
X2395388Y1832638D02*
D03*
X2384074Y1821324D02*
D03*
X2365388Y1832638D02*
D03*
X2354074Y1821324D02*
D03*
X2335388Y1832638D02*
D03*
X2324074Y1821324D02*
D03*
X2305388Y1832638D02*
D03*
X2294074Y1821324D02*
D03*
X2275388Y1832638D02*
D03*
X2264074Y1821324D02*
D03*
X2245388Y1832638D02*
D03*
X2234074Y1821324D02*
D03*
X2215388Y1832638D02*
D03*
X2204074Y1821324D02*
D03*
X2185388Y1832638D02*
D03*
X2174074Y1821324D02*
D03*
X2155388Y1832638D02*
D03*
X2144074Y1821324D02*
D03*
X2125388Y1832638D02*
D03*
X2114074Y1821324D02*
D03*
X2095388Y1832638D02*
D03*
X2084074Y1821324D02*
D03*
X2065388Y1832638D02*
D03*
X2054074Y1821324D02*
D03*
X2035388Y1832638D02*
D03*
X2024074Y1821324D02*
D03*
X2005388Y1832638D02*
D03*
X1994074Y1821324D02*
D03*
X1975388Y1832638D02*
D03*
X1964074Y1821324D02*
D03*
X1945388Y1832638D02*
D03*
X1934074Y1821324D02*
D03*
X1915388Y1832638D02*
D03*
X1904074Y1821324D02*
D03*
X1885388Y1832638D02*
D03*
X1874074Y1821324D02*
D03*
X1855388Y1832638D02*
D03*
X1844074Y1821324D02*
D03*
X1825388Y1832638D02*
D03*
X1814074Y1821324D02*
D03*
X1795388Y1832638D02*
D03*
X1784074Y1821324D02*
D03*
X1765388Y1832638D02*
D03*
X1754074Y1821324D02*
D03*
X1735388Y1832638D02*
D03*
X1724074Y1821324D02*
D03*
X1705388Y1832638D02*
D03*
X1694074Y1821324D02*
D03*
X1675388Y1832638D02*
D03*
X1664074Y1821324D02*
D03*
X1645388Y1832638D02*
D03*
X1634074Y1821324D02*
D03*
X1615388Y1832638D02*
D03*
X1604074Y1821324D02*
D03*
X1585388Y1832638D02*
D03*
X1574074Y1821324D02*
D03*
X1555388Y1832638D02*
D03*
X1544074Y1821324D02*
D03*
X1525388Y1832638D02*
D03*
X1514074Y1821324D02*
D03*
X1495388Y1832638D02*
D03*
X1484074Y1821324D02*
D03*
X1465388Y1832638D02*
D03*
X1454074Y1821324D02*
D03*
X1435388Y1832638D02*
D03*
X1424074Y1821324D02*
D03*
X1405388Y1832638D02*
D03*
X1394074Y1821324D02*
D03*
X1375388Y1832638D02*
D03*
X1364074Y1821324D02*
D03*
X1345388Y1832638D02*
D03*
X1334074Y1821324D02*
D03*
X1315388Y1832638D02*
D03*
X1304074Y1821324D02*
D03*
X2455388Y1862638D02*
D03*
X2444074Y1851324D02*
D03*
X2425388Y1862638D02*
D03*
X2414074Y1851324D02*
D03*
X2395388Y1862638D02*
D03*
X2384074Y1851324D02*
D03*
X2365388Y1862638D02*
D03*
X2354074Y1851324D02*
D03*
X2335388Y1862638D02*
D03*
X2324074Y1851324D02*
D03*
X2305388Y1862638D02*
D03*
X2294074Y1851324D02*
D03*
X2275388Y1862638D02*
D03*
X2264074Y1851324D02*
D03*
X2245388Y1862638D02*
D03*
X2234074Y1851324D02*
D03*
X2215388Y1862638D02*
D03*
X2204074Y1851324D02*
D03*
X2185388Y1862638D02*
D03*
X2174074Y1851324D02*
D03*
X2155388Y1862638D02*
D03*
X2144074Y1851324D02*
D03*
X2125388Y1862638D02*
D03*
X2114074Y1851324D02*
D03*
X2095388Y1862638D02*
D03*
X2084074Y1851324D02*
D03*
X2065388Y1862638D02*
D03*
X2054074Y1851324D02*
D03*
X2035388Y1862638D02*
D03*
X2024074Y1851324D02*
D03*
X2005388Y1862638D02*
D03*
X1994074Y1851324D02*
D03*
X1975388Y1862638D02*
D03*
X1964074Y1851324D02*
D03*
X1945388Y1862638D02*
D03*
X1934074Y1851324D02*
D03*
X1915388Y1862638D02*
D03*
X1904074Y1851324D02*
D03*
X1885388Y1862638D02*
D03*
X1874074Y1851324D02*
D03*
X1855388Y1862638D02*
D03*
X1844074Y1851324D02*
D03*
X1825388Y1862638D02*
D03*
X1814074Y1851324D02*
D03*
X1795388Y1862638D02*
D03*
X1784074Y1851324D02*
D03*
X1765388Y1862638D02*
D03*
X1754074Y1851324D02*
D03*
X1735388Y1862638D02*
D03*
X1724074Y1851324D02*
D03*
X1705388Y1862638D02*
D03*
X1694074Y1851324D02*
D03*
X1675388Y1862638D02*
D03*
X1664074Y1851324D02*
D03*
X1645388Y1862638D02*
D03*
X1634074Y1851324D02*
D03*
X1615388Y1862638D02*
D03*
X1604074Y1851324D02*
D03*
X1585388Y1862638D02*
D03*
X1574074Y1851324D02*
D03*
X1555388Y1862638D02*
D03*
X1544074Y1851324D02*
D03*
X1525388Y1862638D02*
D03*
X1514074Y1851324D02*
D03*
X1495388Y1862638D02*
D03*
X1484074Y1851324D02*
D03*
X1465388Y1862638D02*
D03*
X1454074Y1851324D02*
D03*
X1435388Y1862638D02*
D03*
X1424074Y1851324D02*
D03*
X1405388Y1862638D02*
D03*
X1394074Y1851324D02*
D03*
X1375388Y1862638D02*
D03*
X1364074Y1851324D02*
D03*
X1345388Y1862638D02*
D03*
X1334074Y1851324D02*
D03*
X1315388Y1862638D02*
D03*
X1304074Y1851324D02*
D03*
D58*
X1916274Y1361054D02*
D03*
Y1375054D02*
D03*
X1936024Y1380804D02*
D03*
Y1394804D02*
D03*
X2124774Y1409554D02*
D03*
Y1395554D02*
D03*
Y1381054D02*
D03*
Y1367054D02*
D03*
X2108524Y1366804D02*
D03*
Y1380804D02*
D03*
X2089774Y1367054D02*
D03*
Y1353054D02*
D03*
X2146024Y1402304D02*
D03*
Y1388304D02*
D03*
X2211024Y1388554D02*
D03*
Y1402554D02*
D03*
X2334524Y1393804D02*
D03*
Y1407804D02*
D03*
X2326024Y1343304D02*
D03*
Y1329304D02*
D03*
X2417524Y1267004D02*
D03*
Y1253004D02*
D03*
D59*
X2178024Y1355054D02*
D03*
X2168524Y1377054D02*
D03*
X2187524D02*
D03*
X2177774Y1437604D02*
D03*
X2187274Y1415604D02*
D03*
X2168274D02*
D03*
D60*
X2252524Y1318804D02*
D03*
X2238524D02*
D03*
X2399024Y1303054D02*
D03*
X2413024D02*
D03*
X2388524Y1253054D02*
D03*
X2402524D02*
D03*
X2402524Y1267304D02*
D03*
X2388524D02*
D03*
X2252774Y1303804D02*
D03*
X2238774D02*
D03*
D61*
X2238824Y1363104D02*
D03*
Y1375804D02*
D03*
X2292723Y1452004D02*
D03*
X2238824Y1439304D02*
D03*
X2292723D02*
D03*
Y1413904D02*
D03*
X2238824Y1452004D02*
D03*
X2292723Y1426604D02*
D03*
X2238824D02*
D03*
Y1413904D02*
D03*
Y1388504D02*
D03*
X2292723Y1401204D02*
D03*
Y1388504D02*
D03*
Y1363104D02*
D03*
X2238824Y1401204D02*
D03*
X2292723Y1375804D02*
D03*
D62*
X2369024Y1375171D02*
D03*
Y1407937D02*
D03*
D63*
X2416524Y1393304D02*
D03*
X2393524Y1383804D02*
D03*
Y1402804D02*
D03*
D64*
X2393774Y1327054D02*
D03*
Y1346054D02*
D03*
X2417774D02*
D03*
Y1336554D02*
D03*
Y1327054D02*
D03*
D65*
X2359024Y1332054D02*
D03*
D66*
X2349524Y1346054D02*
D03*
X2368524D02*
D03*
X2359024Y1318054D02*
D03*
X2349524D02*
D03*
X2359024Y1346054D02*
D03*
X2368524Y1318054D02*
D03*
D67*
X1877524Y1384404D02*
D03*
Y1371704D02*
D03*
Y1359004D02*
D03*
Y1346304D02*
D03*
Y1333604D02*
D03*
Y1320904D02*
D03*
Y1308204D02*
D03*
Y1295504D02*
D03*
Y1282804D02*
D03*
Y1270104D02*
D03*
Y1257404D02*
D03*
Y1244704D02*
D03*
Y1232004D02*
D03*
Y1219304D02*
D03*
X1707524D02*
D03*
Y1232004D02*
D03*
Y1244704D02*
D03*
Y1257404D02*
D03*
Y1270104D02*
D03*
Y1282804D02*
D03*
Y1295504D02*
D03*
Y1308204D02*
D03*
Y1320904D02*
D03*
Y1333604D02*
D03*
Y1346304D02*
D03*
Y1359004D02*
D03*
Y1371704D02*
D03*
Y1384404D02*
D03*
D68*
X1849674Y1209304D02*
D03*
X1836974D02*
D03*
X1824274D02*
D03*
X1811574D02*
D03*
X1798874D02*
D03*
X1786174D02*
D03*
X1773474D02*
D03*
X1760774D02*
D03*
X1748074D02*
D03*
X1735374D02*
D03*
D69*
X1782524Y1309404D02*
D03*
D70*
X1285275Y1407323D02*
D03*
Y1452324D02*
D03*
Y1422324D02*
D03*
D71*
X1253024Y1393053D02*
D03*
Y1468054D02*
D03*
D72*
X1275523Y1392553D02*
D03*
Y1468555D02*
D03*
D73*
X1247000Y1371000D02*
D03*
Y1361000D02*
D03*
Y1351000D02*
D03*
Y1341000D02*
D03*
Y1331000D02*
D03*
X1232000D02*
D03*
Y1341000D02*
D03*
Y1351000D02*
D03*
Y1361000D02*
D03*
Y1371000D02*
D03*
X2512150D02*
D03*
Y1361000D02*
D03*
Y1351000D02*
D03*
Y1341000D02*
D03*
Y1331000D02*
D03*
X2527150D02*
D03*
Y1341000D02*
D03*
Y1351000D02*
D03*
Y1361000D02*
D03*
Y1371000D02*
D03*
X2512000Y1757000D02*
D03*
Y1747000D02*
D03*
Y1737000D02*
D03*
Y1727000D02*
D03*
Y1717000D02*
D03*
X2527000D02*
D03*
Y1727000D02*
D03*
Y1737000D02*
D03*
Y1747000D02*
D03*
Y1757000D02*
D03*
X1246900D02*
D03*
Y1747000D02*
D03*
Y1737000D02*
D03*
Y1727000D02*
D03*
Y1717000D02*
D03*
X1231900D02*
D03*
Y1727000D02*
D03*
Y1737000D02*
D03*
Y1747000D02*
D03*
Y1757000D02*
D03*
X1492000Y1172950D02*
D03*
X1482000D02*
D03*
X1472000D02*
D03*
X1462000D02*
D03*
X1452000D02*
D03*
Y1157950D02*
D03*
X1462000D02*
D03*
X1472000D02*
D03*
X1482000D02*
D03*
X1492000D02*
D03*
X1892000Y1157850D02*
D03*
X1882000D02*
D03*
X1872000D02*
D03*
X1862000D02*
D03*
X1852000D02*
D03*
Y1172850D02*
D03*
X1862000D02*
D03*
X1872000D02*
D03*
X1882000D02*
D03*
X1892000D02*
D03*
X2292000Y1157850D02*
D03*
X2282000D02*
D03*
X2272000D02*
D03*
X2262000D02*
D03*
X2252000D02*
D03*
Y1172850D02*
D03*
X2262000D02*
D03*
X2272000D02*
D03*
X2282000D02*
D03*
X2292000D02*
D03*
X2293000Y1932850D02*
D03*
X2283000D02*
D03*
X2273000D02*
D03*
X2263000D02*
D03*
X2253000D02*
D03*
Y1917850D02*
D03*
X2263000D02*
D03*
X2273000D02*
D03*
X2283000D02*
D03*
X2293000D02*
D03*
X1893000Y1932850D02*
D03*
X1883000D02*
D03*
X1873000D02*
D03*
X1863000D02*
D03*
X1853000D02*
D03*
Y1917850D02*
D03*
X1863000D02*
D03*
X1873000D02*
D03*
X1883000D02*
D03*
X1893000D02*
D03*
X1493000Y1917950D02*
D03*
X1483000D02*
D03*
X1473000D02*
D03*
X1463000D02*
D03*
X1453000D02*
D03*
Y1932950D02*
D03*
X1463000D02*
D03*
X1473000D02*
D03*
X1483000D02*
D03*
X1493000D02*
D03*
X2293000Y1552850D02*
D03*
X2283000D02*
D03*
X2273000D02*
D03*
X2263000D02*
D03*
X2253000D02*
D03*
Y1537850D02*
D03*
X2263000D02*
D03*
X2273000D02*
D03*
X2283000D02*
D03*
X2293000D02*
D03*
X1893000Y1552850D02*
D03*
X1883000D02*
D03*
X1873000D02*
D03*
X1863000D02*
D03*
X1853000D02*
D03*
Y1537850D02*
D03*
X1863000D02*
D03*
X1873000D02*
D03*
X1883000D02*
D03*
X1893000D02*
D03*
X1493000Y1537950D02*
D03*
X1483000D02*
D03*
X1473000D02*
D03*
X1463000D02*
D03*
X1453000D02*
D03*
Y1552950D02*
D03*
X1463000D02*
D03*
X1473000D02*
D03*
X1483000D02*
D03*
X1493000D02*
D03*
X2271250Y1842250D02*
D03*
X2274250Y1604500D02*
D03*
X2243750Y1816000D02*
D03*
Y1604388D02*
D03*
X2214500Y1786138D02*
D03*
Y1604388D02*
D03*
X2182750Y1755000D02*
D03*
Y1604000D02*
D03*
X2152750Y1724000D02*
D03*
Y1604000D02*
D03*
X2121750Y1694000D02*
D03*
Y1604000D02*
D03*
X2094000Y1664250D02*
D03*
Y1604388D02*
D03*
X2063750Y1635000D02*
D03*
X2063250Y1604000D02*
D03*
X1384500Y1842000D02*
D03*
X1504500D02*
D03*
X1324750Y1661750D02*
D03*
Y1631500D02*
D03*
Y1601750D02*
D03*
X1324500Y1691750D02*
D03*
X1324750Y1721750D02*
D03*
Y1751750D02*
D03*
Y1781750D02*
D03*
X1324500Y1812000D02*
D03*
X1324750Y1842000D02*
D03*
X2404750Y1842500D02*
D03*
X2404500Y1812500D02*
D03*
X2404750Y1782250D02*
D03*
Y1752250D02*
D03*
Y1722250D02*
D03*
X2404500Y1692250D02*
D03*
X2404750Y1662250D02*
D03*
Y1632000D02*
D03*
Y1602250D02*
D03*
X2374500Y1842500D02*
D03*
X2374250Y1812500D02*
D03*
X2374500Y1782250D02*
D03*
Y1752250D02*
D03*
Y1722250D02*
D03*
X2374250Y1692250D02*
D03*
X2374500Y1662250D02*
D03*
Y1632000D02*
D03*
Y1602250D02*
D03*
X2344500Y1842500D02*
D03*
X2344250Y1812500D02*
D03*
X2344500Y1782250D02*
D03*
Y1752250D02*
D03*
Y1722250D02*
D03*
X2344250Y1692250D02*
D03*
X2344500Y1662250D02*
D03*
Y1632000D02*
D03*
Y1602250D02*
D03*
X2314500Y1842500D02*
D03*
X2314250Y1812500D02*
D03*
X2314500Y1782250D02*
D03*
Y1752250D02*
D03*
Y1722250D02*
D03*
X2314250Y1692250D02*
D03*
X2314500Y1662250D02*
D03*
Y1632000D02*
D03*
Y1602250D02*
D03*
X2284750Y1842500D02*
D03*
X2284500Y1812500D02*
D03*
X2284750Y1782250D02*
D03*
Y1752250D02*
D03*
Y1722250D02*
D03*
X2284500Y1692250D02*
D03*
X2284750Y1662250D02*
D03*
Y1632000D02*
D03*
Y1602250D02*
D03*
X2254500Y1842500D02*
D03*
X2254250Y1812500D02*
D03*
X2254500Y1782250D02*
D03*
Y1752250D02*
D03*
Y1722250D02*
D03*
X2254250Y1692250D02*
D03*
X2254500Y1662250D02*
D03*
Y1632000D02*
D03*
Y1602250D02*
D03*
X2224750Y1842500D02*
D03*
X2224500Y1812500D02*
D03*
X2224750Y1782250D02*
D03*
Y1752250D02*
D03*
Y1722250D02*
D03*
X2224500Y1692250D02*
D03*
X2224750Y1662250D02*
D03*
Y1632000D02*
D03*
Y1602250D02*
D03*
X2194500Y1842500D02*
D03*
X2194250Y1812500D02*
D03*
X2194500Y1782250D02*
D03*
Y1752250D02*
D03*
Y1722250D02*
D03*
X2194250Y1692250D02*
D03*
X2194500Y1662250D02*
D03*
Y1632000D02*
D03*
Y1602250D02*
D03*
X2164500Y1842500D02*
D03*
X2164250Y1812500D02*
D03*
X2164500Y1782250D02*
D03*
Y1752250D02*
D03*
Y1722250D02*
D03*
X2164250Y1692250D02*
D03*
X2164500Y1662250D02*
D03*
Y1632000D02*
D03*
Y1602250D02*
D03*
X2134500Y1842500D02*
D03*
X2134250Y1812500D02*
D03*
X2134500Y1782250D02*
D03*
Y1752250D02*
D03*
Y1722250D02*
D03*
X2134250Y1692250D02*
D03*
X2134500Y1662250D02*
D03*
Y1632000D02*
D03*
Y1602250D02*
D03*
X2104500Y1842500D02*
D03*
X2104250Y1812500D02*
D03*
X2104500Y1782250D02*
D03*
Y1752250D02*
D03*
Y1722250D02*
D03*
X2104250Y1692250D02*
D03*
X2104500Y1662250D02*
D03*
Y1632000D02*
D03*
Y1602250D02*
D03*
X2074500Y1842500D02*
D03*
X2074250Y1812500D02*
D03*
X2074500Y1782250D02*
D03*
Y1752250D02*
D03*
Y1722250D02*
D03*
X2074250Y1692250D02*
D03*
X2074500Y1662250D02*
D03*
Y1632000D02*
D03*
Y1602250D02*
D03*
X2044500Y1842500D02*
D03*
X2044250Y1812500D02*
D03*
X2044500Y1782250D02*
D03*
Y1752250D02*
D03*
Y1722250D02*
D03*
X2044250Y1692250D02*
D03*
X2044500Y1662250D02*
D03*
Y1632000D02*
D03*
Y1602250D02*
D03*
X2014750Y1842500D02*
D03*
X2014500Y1812500D02*
D03*
X2014750Y1782250D02*
D03*
Y1752250D02*
D03*
Y1722250D02*
D03*
X2014500Y1692250D02*
D03*
X2014750Y1662250D02*
D03*
Y1632000D02*
D03*
Y1602250D02*
D03*
X1984500Y1842500D02*
D03*
X1984250Y1812500D02*
D03*
X1984500Y1782250D02*
D03*
Y1752250D02*
D03*
Y1722250D02*
D03*
X1984250Y1692250D02*
D03*
X1984500Y1662250D02*
D03*
Y1632000D02*
D03*
Y1602250D02*
D03*
X1954500Y1842500D02*
D03*
X1954250Y1812500D02*
D03*
X1954500Y1782250D02*
D03*
Y1752250D02*
D03*
Y1722250D02*
D03*
X1954250Y1692250D02*
D03*
X1954500Y1662250D02*
D03*
Y1632000D02*
D03*
Y1602250D02*
D03*
X1924250Y1842500D02*
D03*
X1924000Y1812500D02*
D03*
X1924250Y1782250D02*
D03*
Y1752250D02*
D03*
Y1722250D02*
D03*
X1924000Y1692250D02*
D03*
X1924250Y1662250D02*
D03*
Y1632000D02*
D03*
Y1602250D02*
D03*
X1894500Y1842000D02*
D03*
X1894250Y1812000D02*
D03*
X1894500Y1781750D02*
D03*
Y1751750D02*
D03*
Y1721750D02*
D03*
X1894250Y1691750D02*
D03*
X1894500Y1661750D02*
D03*
Y1631500D02*
D03*
Y1601750D02*
D03*
X2434750Y1841500D02*
D03*
X2434500Y1811500D02*
D03*
X2434750Y1781250D02*
D03*
Y1751250D02*
D03*
Y1721250D02*
D03*
X2434500Y1691250D02*
D03*
X2434750Y1661250D02*
D03*
Y1631000D02*
D03*
Y1601250D02*
D03*
X1864750Y1842000D02*
D03*
X1864500Y1812000D02*
D03*
X1864750Y1781750D02*
D03*
Y1751750D02*
D03*
Y1721750D02*
D03*
X1864500Y1691750D02*
D03*
X1864750Y1661750D02*
D03*
Y1631500D02*
D03*
Y1601750D02*
D03*
X1834500Y1842000D02*
D03*
X1834250Y1812000D02*
D03*
X1834500Y1781750D02*
D03*
Y1751750D02*
D03*
Y1721750D02*
D03*
X1834250Y1691750D02*
D03*
X1834500Y1661750D02*
D03*
Y1631500D02*
D03*
Y1601750D02*
D03*
X1804500Y1842000D02*
D03*
X1804250Y1812000D02*
D03*
X1804500Y1781750D02*
D03*
Y1751750D02*
D03*
Y1721750D02*
D03*
X1804250Y1691750D02*
D03*
X1804500Y1661750D02*
D03*
Y1631500D02*
D03*
Y1601750D02*
D03*
X1774500Y1842000D02*
D03*
X1774250Y1812000D02*
D03*
X1774500Y1781750D02*
D03*
Y1751750D02*
D03*
Y1721750D02*
D03*
X1774250Y1691750D02*
D03*
X1774500Y1661750D02*
D03*
Y1631500D02*
D03*
Y1601750D02*
D03*
X1744750Y1842000D02*
D03*
X1744500Y1812000D02*
D03*
X1744750Y1781750D02*
D03*
Y1751750D02*
D03*
Y1721750D02*
D03*
X1744500Y1691750D02*
D03*
X1744750Y1661750D02*
D03*
Y1631500D02*
D03*
Y1601750D02*
D03*
X1714500Y1842000D02*
D03*
X1714250Y1812000D02*
D03*
X1714500Y1781750D02*
D03*
Y1751750D02*
D03*
Y1721750D02*
D03*
X1714250Y1691750D02*
D03*
X1714500Y1661750D02*
D03*
Y1631500D02*
D03*
Y1601750D02*
D03*
X1684500Y1842000D02*
D03*
X1684250Y1812000D02*
D03*
X1684500Y1781750D02*
D03*
Y1751750D02*
D03*
Y1721750D02*
D03*
X1684250Y1691750D02*
D03*
X1684500Y1661750D02*
D03*
Y1631500D02*
D03*
Y1601750D02*
D03*
X1654500Y1842000D02*
D03*
X1654250Y1812000D02*
D03*
X1654500Y1781750D02*
D03*
Y1751750D02*
D03*
Y1721750D02*
D03*
X1654250Y1691750D02*
D03*
X1654500Y1661750D02*
D03*
Y1631500D02*
D03*
Y1601750D02*
D03*
X1624750Y1842000D02*
D03*
X1624500Y1812000D02*
D03*
X1624750Y1781750D02*
D03*
Y1751750D02*
D03*
Y1721750D02*
D03*
X1624500Y1691750D02*
D03*
X1624750Y1661750D02*
D03*
Y1631500D02*
D03*
Y1601750D02*
D03*
X1594750Y1842000D02*
D03*
X1594500Y1812000D02*
D03*
X1594750Y1781750D02*
D03*
Y1751750D02*
D03*
Y1721750D02*
D03*
X1594500Y1691750D02*
D03*
X1594750Y1661750D02*
D03*
Y1631500D02*
D03*
Y1601750D02*
D03*
X1564500Y1842000D02*
D03*
X1564250Y1812000D02*
D03*
X1564500Y1781750D02*
D03*
Y1751750D02*
D03*
Y1721750D02*
D03*
X1564250Y1691750D02*
D03*
X1564500Y1661750D02*
D03*
Y1631500D02*
D03*
Y1601750D02*
D03*
X1534500Y1842000D02*
D03*
X1534250Y1812000D02*
D03*
X1534500Y1781750D02*
D03*
Y1751750D02*
D03*
Y1721750D02*
D03*
X1534250Y1691750D02*
D03*
X1534500Y1661750D02*
D03*
Y1631500D02*
D03*
Y1601750D02*
D03*
X1504250Y1812000D02*
D03*
X1504500Y1781750D02*
D03*
Y1751750D02*
D03*
Y1721750D02*
D03*
X1504250Y1691750D02*
D03*
X1504500Y1661750D02*
D03*
Y1631500D02*
D03*
Y1601750D02*
D03*
X1474750Y1842000D02*
D03*
X1474500Y1812000D02*
D03*
X1474750Y1781750D02*
D03*
Y1751750D02*
D03*
Y1721750D02*
D03*
X1474500Y1691750D02*
D03*
X1474750Y1661750D02*
D03*
Y1631500D02*
D03*
Y1601750D02*
D03*
X1444750Y1842000D02*
D03*
X1444500Y1812000D02*
D03*
X1444750Y1781750D02*
D03*
Y1751750D02*
D03*
Y1721750D02*
D03*
X1444500Y1691750D02*
D03*
X1444750Y1661750D02*
D03*
Y1631500D02*
D03*
Y1601750D02*
D03*
X1414500Y1842000D02*
D03*
X1414250Y1812000D02*
D03*
X1414500Y1781750D02*
D03*
Y1751750D02*
D03*
Y1721750D02*
D03*
X1414250Y1691750D02*
D03*
X1414500Y1661750D02*
D03*
Y1631500D02*
D03*
Y1601750D02*
D03*
X1384250Y1812000D02*
D03*
X1384500Y1781750D02*
D03*
Y1751750D02*
D03*
Y1721750D02*
D03*
X1384250Y1691750D02*
D03*
X1384500Y1661750D02*
D03*
Y1631500D02*
D03*
Y1601750D02*
D03*
X1354500Y1841750D02*
D03*
X1354250Y1811750D02*
D03*
X1354500Y1781500D02*
D03*
Y1751500D02*
D03*
Y1721500D02*
D03*
X1354250Y1691500D02*
D03*
X1354500Y1661500D02*
D03*
Y1631250D02*
D03*
Y1601500D02*
D03*
X1820774Y1232054D02*
D03*
X1903774Y1244704D02*
D03*
X1845024Y1230304D02*
D03*
X2327524Y1303804D02*
D03*
X2440524Y1276054D02*
D03*
X2422774Y1411054D02*
D03*
X2447774Y1422323D02*
D03*
Y1430354D02*
D03*
X1730381Y1271054D02*
D03*
Y1256054D02*
D03*
X1728494Y1246054D02*
D03*
Y1231054D02*
D03*
X2103974Y1271054D02*
D03*
X2032774D02*
D03*
X1849674D02*
D03*
X2267274Y1318554D02*
D03*
X2184274Y1318804D02*
D03*
X2125072Y1261054D02*
D03*
X2154274Y1308054D02*
D03*
X1729524Y1307554D02*
D03*
X1900274Y1308054D02*
D03*
X2031274Y1302804D02*
D03*
X2154274Y1345554D02*
D03*
X1900024Y1375904D02*
D03*
X1839274Y1346304D02*
D03*
X1900524Y1321554D02*
D03*
X1846274Y1371554D02*
D03*
X1809524Y1358304D02*
D03*
X1668024Y1341054D02*
D03*
X1657774Y1358804D02*
D03*
X2262284Y1375904D02*
D03*
X2277974Y1375804D02*
D03*
X2136274Y1338554D02*
D03*
Y1325854D02*
D03*
X2179024Y1395804D02*
D03*
X2219274Y1378054D02*
D03*
X2351274Y1386054D02*
D03*
X2346274Y1477554D02*
D03*
X2385774Y1311804D02*
D03*
X2434524Y1327054D02*
D03*
X2381024Y1359804D02*
D03*
X2368274Y1304954D02*
D03*
X2367024Y1456304D02*
D03*
D74*
X2031500Y1581000D02*
D03*
X2031600Y1891250D02*
D03*
X1397000Y1891250D02*
D03*
X2031774Y1201274D02*
D03*
X1397274Y1511524D02*
D03*
X2031874Y1511524D02*
D03*
D75*
X2082300Y1581000D02*
D03*
X2107700D02*
D03*
X2133100D02*
D03*
X2158500D02*
D03*
X2183900D02*
D03*
X2209300D02*
D03*
X2234700D02*
D03*
X2056900D02*
D03*
X2361800Y1891250D02*
D03*
X2336400D02*
D03*
X2311000D02*
D03*
X2285600D02*
D03*
X2260200D02*
D03*
X2234800D02*
D03*
X2209400D02*
D03*
X2184000D02*
D03*
X2158600D02*
D03*
X2133200D02*
D03*
X2107800D02*
D03*
X2082400D02*
D03*
X2057000D02*
D03*
X1422400Y1891250D02*
D03*
X1447800D02*
D03*
X1473200D02*
D03*
X1498600D02*
D03*
X1524000D02*
D03*
X1549400D02*
D03*
X1574800D02*
D03*
X1600200D02*
D03*
X1625600D02*
D03*
X1651000D02*
D03*
X1676400D02*
D03*
X1701800D02*
D03*
X1727200D02*
D03*
X1752600D02*
D03*
X1778000D02*
D03*
X1803400D02*
D03*
X1828800D02*
D03*
X1854200D02*
D03*
X1879600D02*
D03*
X1905000D02*
D03*
X1930400D02*
D03*
X1955800D02*
D03*
X1981200D02*
D03*
X2006600D02*
D03*
X1274774Y1253654D02*
D03*
Y1279054D02*
D03*
Y1304454D02*
D03*
X2057174Y1201274D02*
D03*
X2234974D02*
D03*
X2209574D02*
D03*
X2184174D02*
D03*
X2158774D02*
D03*
X2133374D02*
D03*
X2107974D02*
D03*
X2082574D02*
D03*
X2260474Y1511524D02*
D03*
X2285874D02*
D03*
X2362074D02*
D03*
X2336674D02*
D03*
X2311274D02*
D03*
X2235074D02*
D03*
X1829074Y1511524D02*
D03*
X1803674D02*
D03*
X1778274D02*
D03*
X1676674D02*
D03*
X1702074D02*
D03*
X1727474D02*
D03*
X1752874D02*
D03*
X1854474D02*
D03*
X1422674D02*
D03*
X1448074D02*
D03*
X1473474D02*
D03*
X1498874D02*
D03*
X1524274D02*
D03*
X1549674D02*
D03*
X1575074D02*
D03*
X1600474D02*
D03*
X1625874D02*
D03*
X1651274D02*
D03*
X1879874D02*
D03*
X1905274D02*
D03*
X1930674D02*
D03*
X1956074D02*
D03*
X1981474D02*
D03*
X2006874D02*
D03*
X2209674Y1511524D02*
D03*
X2184274D02*
D03*
X2158874D02*
D03*
X2133474D02*
D03*
X2108074D02*
D03*
X2082674D02*
D03*
X2057274D02*
D03*
D76*
X1279000Y1586000D02*
D03*
X2479000D02*
D03*
Y1886000D02*
D03*
X1279000D02*
D03*
X1279274Y1506274D02*
D03*
X2479274D02*
D03*
Y1206274D02*
D03*
X1279274D02*
D03*
D77*
X1274774Y1329854D02*
D03*
D78*
X2485154Y1466054D02*
D03*
X2494394D02*
D03*
Y1381554D02*
D03*
X2485154D02*
D03*
D79*
X2481024D02*
D03*
X2498524D02*
D03*
Y1466054D02*
D03*
X2481024D02*
D03*
D80*
X2464024Y1387804D02*
D03*
Y1459804D02*
D03*
D81*
X1341275Y1382954D02*
D03*
Y1408354D02*
D03*
Y1433754D02*
D03*
Y1459154D02*
D03*
D82*
X1264274Y1415553D02*
D03*
Y1445555D02*
D03*
D83*
X2065274Y1396054D02*
D03*
Y1428554D02*
D03*
X2027774Y1396054D02*
D03*
Y1388554D02*
D03*
X2035274Y1396054D02*
D03*
X2042774D02*
D03*
X2050274D02*
D03*
X2065274Y1388554D02*
D03*
X2057774D02*
D03*
X2050274D02*
D03*
X2042774D02*
D03*
X2035274D02*
D03*
X2027774Y1413554D02*
D03*
X2035274D02*
D03*
X2042774D02*
D03*
X2050274D02*
D03*
X2057774D02*
D03*
X2065274D02*
D03*
Y1421054D02*
D03*
X2057774D02*
D03*
X2050274D02*
D03*
X2042774D02*
D03*
X2035274D02*
D03*
X2027774D02*
D03*
Y1428554D02*
D03*
X2035274D02*
D03*
X2042774D02*
D03*
X2050274D02*
D03*
X2057774D02*
D03*
X2105224Y1402354D02*
D03*
X2109274Y1412804D02*
D03*
X2097024Y1408304D02*
D03*
X2098274Y1393054D02*
D03*
X2094024Y1384054D02*
D03*
M02*
