G04*
G04 #@! TF.GenerationSoftware,Altium Limited,Altium Designer,18.1.9 (240)*
G04*
G04 Layer_Color=8421504*
%FSLAX44Y44*%
%MOMM*%
G71*
G01*
G75*
%ADD10P,1.1314X4X270.0*%
%ADD12R,0.9000X0.8000*%
%ADD13R,0.6000X1.6000*%
%ADD14R,0.8000X0.9000*%
%ADD15R,1.5240X0.6350*%
%ADD16R,1.2190X0.9140*%
%ADD17R,1.0500X0.6000*%
%ADD18R,1.3000X0.7000*%
%ADD19R,2.6000X1.8000*%
%ADD20R,0.4500X0.6000*%
%ADD21R,2.0000X0.9000*%
%ADD22R,0.9000X2.0000*%
%ADD23R,5.0000X5.0000*%
%ADD24R,2.0000X0.8001*%
%ADD25R,0.8001X1.0000*%
%ADD26R,0.8001X0.8999*%
G36*
X1766667Y1325215D02*
X1798335D01*
Y1293524D01*
X1766667D01*
Y1325215D01*
D02*
G37*
D10*
X2455388Y1622638D02*
D03*
X2444074Y1611324D02*
D03*
X2425388Y1622638D02*
D03*
X2414074Y1611324D02*
D03*
X2395388Y1622638D02*
D03*
X2384074Y1611324D02*
D03*
X2365388Y1622638D02*
D03*
X2354074Y1611324D02*
D03*
X2335388Y1622638D02*
D03*
X2324074Y1611324D02*
D03*
X2305388Y1622638D02*
D03*
X2294074Y1611324D02*
D03*
X2275388Y1622638D02*
D03*
X2264074Y1611324D02*
D03*
X2245388Y1622638D02*
D03*
X2234074Y1611324D02*
D03*
X2215388Y1622638D02*
D03*
X2204074Y1611324D02*
D03*
X2185388Y1622638D02*
D03*
X2174074Y1611324D02*
D03*
X2155388Y1622638D02*
D03*
X2144074Y1611324D02*
D03*
X2125388Y1622638D02*
D03*
X2114074Y1611324D02*
D03*
X2095388Y1622638D02*
D03*
X2084074Y1611324D02*
D03*
X2065388Y1622638D02*
D03*
X2054074Y1611324D02*
D03*
X2035388Y1622638D02*
D03*
X2024074Y1611324D02*
D03*
X2005388Y1622638D02*
D03*
X1994074Y1611324D02*
D03*
X1975388Y1622638D02*
D03*
X1964074Y1611324D02*
D03*
X1945388Y1622638D02*
D03*
X1934074Y1611324D02*
D03*
X1915388Y1622638D02*
D03*
X1904074Y1611324D02*
D03*
X1885388Y1622638D02*
D03*
X1874074Y1611324D02*
D03*
X1855388Y1622638D02*
D03*
X1844074Y1611324D02*
D03*
X1825388Y1622638D02*
D03*
X1814074Y1611324D02*
D03*
X1795388Y1622638D02*
D03*
X1784074Y1611324D02*
D03*
X1765388Y1622638D02*
D03*
X1754074Y1611324D02*
D03*
X1735388Y1622638D02*
D03*
X1724074Y1611324D02*
D03*
X1705388Y1622638D02*
D03*
X1694074Y1611324D02*
D03*
X1675388Y1622638D02*
D03*
X1664074Y1611324D02*
D03*
X1645388Y1622638D02*
D03*
X1634074Y1611324D02*
D03*
X1615388Y1622638D02*
D03*
X1604074Y1611324D02*
D03*
X1585388Y1622638D02*
D03*
X1574074Y1611324D02*
D03*
X1555388Y1622638D02*
D03*
X1544074Y1611324D02*
D03*
X1525388Y1622638D02*
D03*
X1514074Y1611324D02*
D03*
X1495388Y1622638D02*
D03*
X1484074Y1611324D02*
D03*
X1465388Y1622638D02*
D03*
X1454074Y1611324D02*
D03*
X1435388Y1622638D02*
D03*
X1424074Y1611324D02*
D03*
X1405388Y1622638D02*
D03*
X1394074Y1611324D02*
D03*
X1375388Y1622638D02*
D03*
X1364074Y1611324D02*
D03*
X1345388Y1622638D02*
D03*
X1334074Y1611324D02*
D03*
X1315388Y1622638D02*
D03*
X1304074Y1611324D02*
D03*
X2455388Y1652638D02*
D03*
X2444074Y1641324D02*
D03*
X2425388Y1652638D02*
D03*
X2414074Y1641324D02*
D03*
X2395388Y1652638D02*
D03*
X2384074Y1641324D02*
D03*
X2365388Y1652638D02*
D03*
X2354074Y1641324D02*
D03*
X2335388Y1652638D02*
D03*
X2324074Y1641324D02*
D03*
X2305388Y1652638D02*
D03*
X2294074Y1641324D02*
D03*
X2275388Y1652638D02*
D03*
X2264074Y1641324D02*
D03*
X2245388Y1652638D02*
D03*
X2234074Y1641324D02*
D03*
X2215388Y1652638D02*
D03*
X2204074Y1641324D02*
D03*
X2185388Y1652638D02*
D03*
X2174074Y1641324D02*
D03*
X2155388Y1652638D02*
D03*
X2144074Y1641324D02*
D03*
X2125388Y1652638D02*
D03*
X2114074Y1641324D02*
D03*
X2095388Y1652638D02*
D03*
X2084074Y1641324D02*
D03*
X2065388Y1652638D02*
D03*
X2054074Y1641324D02*
D03*
X2035388Y1652638D02*
D03*
X2024074Y1641324D02*
D03*
X2005388Y1652638D02*
D03*
X1994074Y1641324D02*
D03*
X1975388Y1652638D02*
D03*
X1964074Y1641324D02*
D03*
X1945388Y1652638D02*
D03*
X1934074Y1641324D02*
D03*
X1915388Y1652638D02*
D03*
X1904074Y1641324D02*
D03*
X1885388Y1652638D02*
D03*
X1874074Y1641324D02*
D03*
X1855388Y1652638D02*
D03*
X1844074Y1641324D02*
D03*
X1825388Y1652638D02*
D03*
X1814074Y1641324D02*
D03*
X1795388Y1652638D02*
D03*
X1784074Y1641324D02*
D03*
X1765388Y1652638D02*
D03*
X1754074Y1641324D02*
D03*
X1735388Y1652638D02*
D03*
X1724074Y1641324D02*
D03*
X1705388Y1652638D02*
D03*
X1694074Y1641324D02*
D03*
X1675388Y1652638D02*
D03*
X1664074Y1641324D02*
D03*
X1645388Y1652638D02*
D03*
X1634074Y1641324D02*
D03*
X1615388Y1652638D02*
D03*
X1604074Y1641324D02*
D03*
X1585388Y1652638D02*
D03*
X1574074Y1641324D02*
D03*
X1555388Y1652638D02*
D03*
X1544074Y1641324D02*
D03*
X1525388Y1652638D02*
D03*
X1514074Y1641324D02*
D03*
X1495388Y1652638D02*
D03*
X1484074Y1641324D02*
D03*
X1465388Y1652638D02*
D03*
X1454074Y1641324D02*
D03*
X1435388Y1652638D02*
D03*
X1424074Y1641324D02*
D03*
X1405388Y1652638D02*
D03*
X1394074Y1641324D02*
D03*
X1375388Y1652638D02*
D03*
X1364074Y1641324D02*
D03*
X1345388Y1652638D02*
D03*
X1334074Y1641324D02*
D03*
X1315388Y1652638D02*
D03*
X1304074Y1641324D02*
D03*
X2455388Y1682638D02*
D03*
X2444074Y1671324D02*
D03*
X2425388Y1682638D02*
D03*
X2414074Y1671324D02*
D03*
X2395388Y1682638D02*
D03*
X2384074Y1671324D02*
D03*
X2365388Y1682638D02*
D03*
X2354074Y1671324D02*
D03*
X2335388Y1682638D02*
D03*
X2324074Y1671324D02*
D03*
X2305388Y1682638D02*
D03*
X2294074Y1671324D02*
D03*
X2275388Y1682638D02*
D03*
X2264074Y1671324D02*
D03*
X2245388Y1682638D02*
D03*
X2234074Y1671324D02*
D03*
X2215388Y1682638D02*
D03*
X2204074Y1671324D02*
D03*
X2185388Y1682638D02*
D03*
X2174074Y1671324D02*
D03*
X2155388Y1682638D02*
D03*
X2144074Y1671324D02*
D03*
X2125388Y1682638D02*
D03*
X2114074Y1671324D02*
D03*
X2095388Y1682638D02*
D03*
X2084074Y1671324D02*
D03*
X2065388Y1682638D02*
D03*
X2054074Y1671324D02*
D03*
X2035388Y1682638D02*
D03*
X2024074Y1671324D02*
D03*
X2005388Y1682638D02*
D03*
X1994074Y1671324D02*
D03*
X1975388Y1682638D02*
D03*
X1964074Y1671324D02*
D03*
X1945388Y1682638D02*
D03*
X1934074Y1671324D02*
D03*
X1915388Y1682638D02*
D03*
X1904074Y1671324D02*
D03*
X1885388Y1682638D02*
D03*
X1874074Y1671324D02*
D03*
X1855388Y1682638D02*
D03*
X1844074Y1671324D02*
D03*
X1825388Y1682638D02*
D03*
X1814074Y1671324D02*
D03*
X1795388Y1682638D02*
D03*
X1784074Y1671324D02*
D03*
X1765388Y1682638D02*
D03*
X1754074Y1671324D02*
D03*
X1735388Y1682638D02*
D03*
X1724074Y1671324D02*
D03*
X1705388Y1682638D02*
D03*
X1694074Y1671324D02*
D03*
X1675388Y1682638D02*
D03*
X1664074Y1671324D02*
D03*
X1645388Y1682638D02*
D03*
X1634074Y1671324D02*
D03*
X1615388Y1682638D02*
D03*
X1604074Y1671324D02*
D03*
X1585388Y1682638D02*
D03*
X1574074Y1671324D02*
D03*
X1555388Y1682638D02*
D03*
X1544074Y1671324D02*
D03*
X1525388Y1682638D02*
D03*
X1514074Y1671324D02*
D03*
X1495388Y1682638D02*
D03*
X1484074Y1671324D02*
D03*
X1465388Y1682638D02*
D03*
X1454074Y1671324D02*
D03*
X1435388Y1682638D02*
D03*
X1424074Y1671324D02*
D03*
X1405388Y1682638D02*
D03*
X1394074Y1671324D02*
D03*
X1375388Y1682638D02*
D03*
X1364074Y1671324D02*
D03*
X1345388Y1682638D02*
D03*
X1334074Y1671324D02*
D03*
X1315388Y1682638D02*
D03*
X1304074Y1671324D02*
D03*
X2455388Y1712638D02*
D03*
X2444074Y1701324D02*
D03*
X2425388Y1712638D02*
D03*
X2414074Y1701324D02*
D03*
X2395388Y1712638D02*
D03*
X2384074Y1701324D02*
D03*
X2365388Y1712638D02*
D03*
X2354074Y1701324D02*
D03*
X2335388Y1712638D02*
D03*
X2324074Y1701324D02*
D03*
X2305388Y1712638D02*
D03*
X2294074Y1701324D02*
D03*
X2275388Y1712638D02*
D03*
X2264074Y1701324D02*
D03*
X2245388Y1712638D02*
D03*
X2234074Y1701324D02*
D03*
X2215388Y1712638D02*
D03*
X2204074Y1701324D02*
D03*
X2185388Y1712638D02*
D03*
X2174074Y1701324D02*
D03*
X2155388Y1712638D02*
D03*
X2144074Y1701324D02*
D03*
X2125388Y1712638D02*
D03*
X2114074Y1701324D02*
D03*
X2095388Y1712638D02*
D03*
X2084074Y1701324D02*
D03*
X2065388Y1712638D02*
D03*
X2054074Y1701324D02*
D03*
X2035388Y1712638D02*
D03*
X2024074Y1701324D02*
D03*
X2005388Y1712638D02*
D03*
X1994074Y1701324D02*
D03*
X1975388Y1712638D02*
D03*
X1964074Y1701324D02*
D03*
X1945388Y1712638D02*
D03*
X1934074Y1701324D02*
D03*
X1915388Y1712638D02*
D03*
X1904074Y1701324D02*
D03*
X1885388Y1712638D02*
D03*
X1874074Y1701324D02*
D03*
X1855388Y1712638D02*
D03*
X1844074Y1701324D02*
D03*
X1825388Y1712638D02*
D03*
X1814074Y1701324D02*
D03*
X1795388Y1712638D02*
D03*
X1784074Y1701324D02*
D03*
X1765388Y1712638D02*
D03*
X1754074Y1701324D02*
D03*
X1735388Y1712638D02*
D03*
X1724074Y1701324D02*
D03*
X1705388Y1712638D02*
D03*
X1694074Y1701324D02*
D03*
X1675388Y1712638D02*
D03*
X1664074Y1701324D02*
D03*
X1645388Y1712638D02*
D03*
X1634074Y1701324D02*
D03*
X1615388Y1712638D02*
D03*
X1604074Y1701324D02*
D03*
X1585388Y1712638D02*
D03*
X1574074Y1701324D02*
D03*
X1555388Y1712638D02*
D03*
X1544074Y1701324D02*
D03*
X1525388Y1712638D02*
D03*
X1514074Y1701324D02*
D03*
X1495388Y1712638D02*
D03*
X1484074Y1701324D02*
D03*
X1465388Y1712638D02*
D03*
X1454074Y1701324D02*
D03*
X1435388Y1712638D02*
D03*
X1424074Y1701324D02*
D03*
X1405388Y1712638D02*
D03*
X1394074Y1701324D02*
D03*
X1375388Y1712638D02*
D03*
X1364074Y1701324D02*
D03*
X1345388Y1712638D02*
D03*
X1334074Y1701324D02*
D03*
X1315388Y1712638D02*
D03*
X1304074Y1701324D02*
D03*
X2455388Y1742638D02*
D03*
X2444074Y1731324D02*
D03*
X2425388Y1742638D02*
D03*
X2414074Y1731324D02*
D03*
X2395388Y1742638D02*
D03*
X2384074Y1731324D02*
D03*
X2365388Y1742638D02*
D03*
X2354074Y1731324D02*
D03*
X2335388Y1742638D02*
D03*
X2324074Y1731324D02*
D03*
X2305388Y1742638D02*
D03*
X2294074Y1731324D02*
D03*
X2275388Y1742638D02*
D03*
X2264074Y1731324D02*
D03*
X2245388Y1742638D02*
D03*
X2234074Y1731324D02*
D03*
X2215388Y1742638D02*
D03*
X2204074Y1731324D02*
D03*
X2185388Y1742638D02*
D03*
X2174074Y1731324D02*
D03*
X2155388Y1742638D02*
D03*
X2144074Y1731324D02*
D03*
X2125388Y1742638D02*
D03*
X2114074Y1731324D02*
D03*
X2095388Y1742638D02*
D03*
X2084074Y1731324D02*
D03*
X2065388Y1742638D02*
D03*
X2054074Y1731324D02*
D03*
X2035388Y1742638D02*
D03*
X2024074Y1731324D02*
D03*
X2005388Y1742638D02*
D03*
X1994074Y1731324D02*
D03*
X1975388Y1742638D02*
D03*
X1964074Y1731324D02*
D03*
X1945388Y1742638D02*
D03*
X1934074Y1731324D02*
D03*
X1915388Y1742638D02*
D03*
X1904074Y1731324D02*
D03*
X1885388Y1742638D02*
D03*
X1874074Y1731324D02*
D03*
X1855388Y1742638D02*
D03*
X1844074Y1731324D02*
D03*
X1825388Y1742638D02*
D03*
X1814074Y1731324D02*
D03*
X1795388Y1742638D02*
D03*
X1784074Y1731324D02*
D03*
X1765388Y1742638D02*
D03*
X1754074Y1731324D02*
D03*
X1735388Y1742638D02*
D03*
X1724074Y1731324D02*
D03*
X1705388Y1742638D02*
D03*
X1694074Y1731324D02*
D03*
X1675388Y1742638D02*
D03*
X1664074Y1731324D02*
D03*
X1645388Y1742638D02*
D03*
X1634074Y1731324D02*
D03*
X1615388Y1742638D02*
D03*
X1604074Y1731324D02*
D03*
X1585388Y1742638D02*
D03*
X1574074Y1731324D02*
D03*
X1555388Y1742638D02*
D03*
X1544074Y1731324D02*
D03*
X1525388Y1742638D02*
D03*
X1514074Y1731324D02*
D03*
X1495388Y1742638D02*
D03*
X1484074Y1731324D02*
D03*
X1465388Y1742638D02*
D03*
X1454074Y1731324D02*
D03*
X1435388Y1742638D02*
D03*
X1424074Y1731324D02*
D03*
X1405388Y1742638D02*
D03*
X1394074Y1731324D02*
D03*
X1375388Y1742638D02*
D03*
X1364074Y1731324D02*
D03*
X1345388Y1742638D02*
D03*
X1334074Y1731324D02*
D03*
X1315388Y1742638D02*
D03*
X1304074Y1731324D02*
D03*
X2455388Y1772638D02*
D03*
X2444074Y1761324D02*
D03*
X2425388Y1772638D02*
D03*
X2414074Y1761324D02*
D03*
X2395388Y1772638D02*
D03*
X2384074Y1761324D02*
D03*
X2365388Y1772638D02*
D03*
X2354074Y1761324D02*
D03*
X2335388Y1772638D02*
D03*
X2324074Y1761324D02*
D03*
X2305388Y1772638D02*
D03*
X2294074Y1761324D02*
D03*
X2275388Y1772638D02*
D03*
X2264074Y1761324D02*
D03*
X2245388Y1772638D02*
D03*
X2234074Y1761324D02*
D03*
X2215388Y1772638D02*
D03*
X2204074Y1761324D02*
D03*
X2185388Y1772638D02*
D03*
X2174074Y1761324D02*
D03*
X2155388Y1772638D02*
D03*
X2144074Y1761324D02*
D03*
X2125388Y1772638D02*
D03*
X2114074Y1761324D02*
D03*
X2095388Y1772638D02*
D03*
X2084074Y1761324D02*
D03*
X2065388Y1772638D02*
D03*
X2054074Y1761324D02*
D03*
X2035388Y1772638D02*
D03*
X2024074Y1761324D02*
D03*
X2005388Y1772638D02*
D03*
X1994074Y1761324D02*
D03*
X1975388Y1772638D02*
D03*
X1964074Y1761324D02*
D03*
X1945388Y1772638D02*
D03*
X1934074Y1761324D02*
D03*
X1915388Y1772638D02*
D03*
X1904074Y1761324D02*
D03*
X1885388Y1772638D02*
D03*
X1874074Y1761324D02*
D03*
X1855388Y1772638D02*
D03*
X1844074Y1761324D02*
D03*
X1825388Y1772638D02*
D03*
X1814074Y1761324D02*
D03*
X1795388Y1772638D02*
D03*
X1784074Y1761324D02*
D03*
X1765388Y1772638D02*
D03*
X1754074Y1761324D02*
D03*
X1735388Y1772638D02*
D03*
X1724074Y1761324D02*
D03*
X1705388Y1772638D02*
D03*
X1694074Y1761324D02*
D03*
X1675388Y1772638D02*
D03*
X1664074Y1761324D02*
D03*
X1645388Y1772638D02*
D03*
X1634074Y1761324D02*
D03*
X1615388Y1772638D02*
D03*
X1604074Y1761324D02*
D03*
X1585388Y1772638D02*
D03*
X1574074Y1761324D02*
D03*
X1555388Y1772638D02*
D03*
X1544074Y1761324D02*
D03*
X1525388Y1772638D02*
D03*
X1514074Y1761324D02*
D03*
X1495388Y1772638D02*
D03*
X1484074Y1761324D02*
D03*
X1465388Y1772638D02*
D03*
X1454074Y1761324D02*
D03*
X1435388Y1772638D02*
D03*
X1424074Y1761324D02*
D03*
X1405388Y1772638D02*
D03*
X1394074Y1761324D02*
D03*
X1375388Y1772638D02*
D03*
X1364074Y1761324D02*
D03*
X1345388Y1772638D02*
D03*
X1334074Y1761324D02*
D03*
X1315388Y1772638D02*
D03*
X1304074Y1761324D02*
D03*
X2455388Y1802638D02*
D03*
X2444074Y1791324D02*
D03*
X2425388Y1802638D02*
D03*
X2414074Y1791324D02*
D03*
X2395388Y1802638D02*
D03*
X2384074Y1791324D02*
D03*
X2365388Y1802638D02*
D03*
X2354074Y1791324D02*
D03*
X2335388Y1802638D02*
D03*
X2324074Y1791324D02*
D03*
X2305388Y1802638D02*
D03*
X2294074Y1791324D02*
D03*
X2275388Y1802638D02*
D03*
X2264074Y1791324D02*
D03*
X2245388Y1802638D02*
D03*
X2234074Y1791324D02*
D03*
X2215388Y1802638D02*
D03*
X2204074Y1791324D02*
D03*
X2185388Y1802638D02*
D03*
X2174074Y1791324D02*
D03*
X2155388Y1802638D02*
D03*
X2144074Y1791324D02*
D03*
X2125388Y1802638D02*
D03*
X2114074Y1791324D02*
D03*
X2095388Y1802638D02*
D03*
X2084074Y1791324D02*
D03*
X2065388Y1802638D02*
D03*
X2054074Y1791324D02*
D03*
X2035388Y1802638D02*
D03*
X2024074Y1791324D02*
D03*
X2005388Y1802638D02*
D03*
X1994074Y1791324D02*
D03*
X1975388Y1802638D02*
D03*
X1964074Y1791324D02*
D03*
X1945388Y1802638D02*
D03*
X1934074Y1791324D02*
D03*
X1915388Y1802638D02*
D03*
X1904074Y1791324D02*
D03*
X1885388Y1802638D02*
D03*
X1874074Y1791324D02*
D03*
X1855388Y1802638D02*
D03*
X1844074Y1791324D02*
D03*
X1825388Y1802638D02*
D03*
X1814074Y1791324D02*
D03*
X1795388Y1802638D02*
D03*
X1784074Y1791324D02*
D03*
X1765388Y1802638D02*
D03*
X1754074Y1791324D02*
D03*
X1735388Y1802638D02*
D03*
X1724074Y1791324D02*
D03*
X1705388Y1802638D02*
D03*
X1694074Y1791324D02*
D03*
X1675388Y1802638D02*
D03*
X1664074Y1791324D02*
D03*
X1645388Y1802638D02*
D03*
X1634074Y1791324D02*
D03*
X1615388Y1802638D02*
D03*
X1604074Y1791324D02*
D03*
X1585388Y1802638D02*
D03*
X1574074Y1791324D02*
D03*
X1555388Y1802638D02*
D03*
X1544074Y1791324D02*
D03*
X1525388Y1802638D02*
D03*
X1514074Y1791324D02*
D03*
X1495388Y1802638D02*
D03*
X1484074Y1791324D02*
D03*
X1465388Y1802638D02*
D03*
X1454074Y1791324D02*
D03*
X1435388Y1802638D02*
D03*
X1424074Y1791324D02*
D03*
X1405388Y1802638D02*
D03*
X1394074Y1791324D02*
D03*
X1375388Y1802638D02*
D03*
X1364074Y1791324D02*
D03*
X1345388Y1802638D02*
D03*
X1334074Y1791324D02*
D03*
X1315388Y1802638D02*
D03*
X1304074Y1791324D02*
D03*
X2455388Y1832638D02*
D03*
X2444074Y1821324D02*
D03*
X2425388Y1832638D02*
D03*
X2414074Y1821324D02*
D03*
X2395388Y1832638D02*
D03*
X2384074Y1821324D02*
D03*
X2365388Y1832638D02*
D03*
X2354074Y1821324D02*
D03*
X2335388Y1832638D02*
D03*
X2324074Y1821324D02*
D03*
X2305388Y1832638D02*
D03*
X2294074Y1821324D02*
D03*
X2275388Y1832638D02*
D03*
X2264074Y1821324D02*
D03*
X2245388Y1832638D02*
D03*
X2234074Y1821324D02*
D03*
X2215388Y1832638D02*
D03*
X2204074Y1821324D02*
D03*
X2185388Y1832638D02*
D03*
X2174074Y1821324D02*
D03*
X2155388Y1832638D02*
D03*
X2144074Y1821324D02*
D03*
X2125388Y1832638D02*
D03*
X2114074Y1821324D02*
D03*
X2095388Y1832638D02*
D03*
X2084074Y1821324D02*
D03*
X2065388Y1832638D02*
D03*
X2054074Y1821324D02*
D03*
X2035388Y1832638D02*
D03*
X2024074Y1821324D02*
D03*
X2005388Y1832638D02*
D03*
X1994074Y1821324D02*
D03*
X1975388Y1832638D02*
D03*
X1964074Y1821324D02*
D03*
X1945388Y1832638D02*
D03*
X1934074Y1821324D02*
D03*
X1915388Y1832638D02*
D03*
X1904074Y1821324D02*
D03*
X1885388Y1832638D02*
D03*
X1874074Y1821324D02*
D03*
X1855388Y1832638D02*
D03*
X1844074Y1821324D02*
D03*
X1825388Y1832638D02*
D03*
X1814074Y1821324D02*
D03*
X1795388Y1832638D02*
D03*
X1784074Y1821324D02*
D03*
X1765388Y1832638D02*
D03*
X1754074Y1821324D02*
D03*
X1735388Y1832638D02*
D03*
X1724074Y1821324D02*
D03*
X1705388Y1832638D02*
D03*
X1694074Y1821324D02*
D03*
X1675388Y1832638D02*
D03*
X1664074Y1821324D02*
D03*
X1645388Y1832638D02*
D03*
X1634074Y1821324D02*
D03*
X1615388Y1832638D02*
D03*
X1604074Y1821324D02*
D03*
X1585388Y1832638D02*
D03*
X1574074Y1821324D02*
D03*
X1555388Y1832638D02*
D03*
X1544074Y1821324D02*
D03*
X1525388Y1832638D02*
D03*
X1514074Y1821324D02*
D03*
X1495388Y1832638D02*
D03*
X1484074Y1821324D02*
D03*
X1465388Y1832638D02*
D03*
X1454074Y1821324D02*
D03*
X1435388Y1832638D02*
D03*
X1424074Y1821324D02*
D03*
X1405388Y1832638D02*
D03*
X1394074Y1821324D02*
D03*
X1375388Y1832638D02*
D03*
X1364074Y1821324D02*
D03*
X1345388Y1832638D02*
D03*
X1334074Y1821324D02*
D03*
X1315388Y1832638D02*
D03*
X1304074Y1821324D02*
D03*
X2455388Y1862638D02*
D03*
X2444074Y1851324D02*
D03*
X2425388Y1862638D02*
D03*
X2414074Y1851324D02*
D03*
X2395388Y1862638D02*
D03*
X2384074Y1851324D02*
D03*
X2365388Y1862638D02*
D03*
X2354074Y1851324D02*
D03*
X2335388Y1862638D02*
D03*
X2324074Y1851324D02*
D03*
X2305388Y1862638D02*
D03*
X2294074Y1851324D02*
D03*
X2275388Y1862638D02*
D03*
X2264074Y1851324D02*
D03*
X2245388Y1862638D02*
D03*
X2234074Y1851324D02*
D03*
X2215388Y1862638D02*
D03*
X2204074Y1851324D02*
D03*
X2185388Y1862638D02*
D03*
X2174074Y1851324D02*
D03*
X2155388Y1862638D02*
D03*
X2144074Y1851324D02*
D03*
X2125388Y1862638D02*
D03*
X2114074Y1851324D02*
D03*
X2095388Y1862638D02*
D03*
X2084074Y1851324D02*
D03*
X2065388Y1862638D02*
D03*
X2054074Y1851324D02*
D03*
X2035388Y1862638D02*
D03*
X2024074Y1851324D02*
D03*
X2005388Y1862638D02*
D03*
X1994074Y1851324D02*
D03*
X1975388Y1862638D02*
D03*
X1964074Y1851324D02*
D03*
X1945388Y1862638D02*
D03*
X1934074Y1851324D02*
D03*
X1915388Y1862638D02*
D03*
X1904074Y1851324D02*
D03*
X1885388Y1862638D02*
D03*
X1874074Y1851324D02*
D03*
X1855388Y1862638D02*
D03*
X1844074Y1851324D02*
D03*
X1825388Y1862638D02*
D03*
X1814074Y1851324D02*
D03*
X1795388Y1862638D02*
D03*
X1784074Y1851324D02*
D03*
X1765388Y1862638D02*
D03*
X1754074Y1851324D02*
D03*
X1735388Y1862638D02*
D03*
X1724074Y1851324D02*
D03*
X1705388Y1862638D02*
D03*
X1694074Y1851324D02*
D03*
X1675388Y1862638D02*
D03*
X1664074Y1851324D02*
D03*
X1645388Y1862638D02*
D03*
X1634074Y1851324D02*
D03*
X1615388Y1862638D02*
D03*
X1604074Y1851324D02*
D03*
X1585388Y1862638D02*
D03*
X1574074Y1851324D02*
D03*
X1555388Y1862638D02*
D03*
X1544074Y1851324D02*
D03*
X1525388Y1862638D02*
D03*
X1514074Y1851324D02*
D03*
X1495388Y1862638D02*
D03*
X1484074Y1851324D02*
D03*
X1465388Y1862638D02*
D03*
X1454074Y1851324D02*
D03*
X1435388Y1862638D02*
D03*
X1424074Y1851324D02*
D03*
X1405388Y1862638D02*
D03*
X1394074Y1851324D02*
D03*
X1375388Y1862638D02*
D03*
X1364074Y1851324D02*
D03*
X1345388Y1862638D02*
D03*
X1334074Y1851324D02*
D03*
X1315388Y1862638D02*
D03*
X1304074Y1851324D02*
D03*
D12*
X1916274Y1361054D02*
D03*
Y1375054D02*
D03*
X1936024Y1380804D02*
D03*
Y1394804D02*
D03*
X2124774Y1409554D02*
D03*
Y1395554D02*
D03*
Y1381054D02*
D03*
Y1367054D02*
D03*
X2108524Y1366804D02*
D03*
Y1380804D02*
D03*
X2089774Y1367054D02*
D03*
Y1353054D02*
D03*
X2146024Y1402304D02*
D03*
Y1388304D02*
D03*
X2211024Y1388554D02*
D03*
Y1402554D02*
D03*
X2334524Y1393804D02*
D03*
Y1407804D02*
D03*
X2326024Y1343304D02*
D03*
Y1329304D02*
D03*
X2417524Y1267004D02*
D03*
Y1253004D02*
D03*
D13*
X2178024Y1355054D02*
D03*
X2168524Y1377054D02*
D03*
X2187524D02*
D03*
X2177774Y1437604D02*
D03*
X2187274Y1415604D02*
D03*
X2168274D02*
D03*
D14*
X2252524Y1318804D02*
D03*
X2238524D02*
D03*
X2399024Y1303054D02*
D03*
X2413024D02*
D03*
X2388524Y1253054D02*
D03*
X2402524D02*
D03*
X2402524Y1267304D02*
D03*
X2388524D02*
D03*
X2252774Y1303804D02*
D03*
X2238774D02*
D03*
D15*
X2238824Y1363104D02*
D03*
Y1375804D02*
D03*
X2292723Y1452004D02*
D03*
X2238824Y1439304D02*
D03*
X2292723D02*
D03*
Y1413904D02*
D03*
X2238824Y1452004D02*
D03*
X2292723Y1426604D02*
D03*
X2238824D02*
D03*
Y1413904D02*
D03*
Y1388504D02*
D03*
X2292723Y1401204D02*
D03*
Y1388504D02*
D03*
Y1363104D02*
D03*
X2238824Y1401204D02*
D03*
X2292723Y1375804D02*
D03*
D16*
X2369024Y1375171D02*
D03*
Y1407937D02*
D03*
D17*
X2416524Y1393304D02*
D03*
X2393524Y1383804D02*
D03*
Y1402804D02*
D03*
D18*
X2393774Y1327054D02*
D03*
Y1346054D02*
D03*
X2417774D02*
D03*
Y1336554D02*
D03*
Y1327054D02*
D03*
D19*
X2359024Y1332054D02*
D03*
D20*
X2349524Y1346054D02*
D03*
X2368524D02*
D03*
X2359024Y1318054D02*
D03*
X2349524D02*
D03*
X2359024Y1346054D02*
D03*
X2368524Y1318054D02*
D03*
D21*
X1877524Y1384404D02*
D03*
Y1371704D02*
D03*
Y1359004D02*
D03*
Y1346304D02*
D03*
Y1333604D02*
D03*
Y1320904D02*
D03*
Y1308204D02*
D03*
Y1295504D02*
D03*
Y1282804D02*
D03*
Y1270104D02*
D03*
Y1257404D02*
D03*
Y1244704D02*
D03*
Y1232004D02*
D03*
Y1219304D02*
D03*
X1707524D02*
D03*
Y1232004D02*
D03*
Y1244704D02*
D03*
Y1257404D02*
D03*
Y1270104D02*
D03*
Y1282804D02*
D03*
Y1295504D02*
D03*
Y1308204D02*
D03*
Y1320904D02*
D03*
Y1333604D02*
D03*
Y1346304D02*
D03*
Y1359004D02*
D03*
Y1371704D02*
D03*
Y1384404D02*
D03*
D22*
X1849674Y1209304D02*
D03*
X1836974D02*
D03*
X1824274D02*
D03*
X1811574D02*
D03*
X1798874D02*
D03*
X1786174D02*
D03*
X1773474D02*
D03*
X1760774D02*
D03*
X1748074D02*
D03*
X1735374D02*
D03*
D23*
X1782524Y1309404D02*
D03*
D24*
X1285275Y1407323D02*
D03*
Y1452324D02*
D03*
Y1422324D02*
D03*
D25*
X1253024Y1393053D02*
D03*
Y1468054D02*
D03*
D26*
X1275523Y1392553D02*
D03*
Y1468555D02*
D03*
M02*
