G04*
G04 #@! TF.GenerationSoftware,Altium Limited,Altium Designer,18.1.9 (240)*
G04*
G04 Layer_Color=32768*
%FSLAX44Y44*%
%MOMM*%
G71*
G01*
G75*
%ADD34C,0.1000*%
%ADD101C,0.0500*%
D34*
X1360524Y1327804D02*
Y1340304D01*
X1386024Y1327804D02*
Y1340304D01*
X1360524Y1327804D02*
X1386024D01*
X1360524Y1340304D02*
X1386024D01*
X1368524Y1334054D02*
X1378024D01*
X1373274Y1329304D02*
Y1338804D01*
X1507524Y1327804D02*
Y1340304D01*
X1533024Y1327804D02*
Y1340304D01*
X1507524Y1327804D02*
X1533024D01*
X1507524Y1340304D02*
X1533024D01*
X1515524Y1334054D02*
X1525024D01*
X1520274Y1329304D02*
Y1338804D01*
X1681024Y1327554D02*
Y1340054D01*
X1655524Y1327554D02*
Y1340054D01*
X1681024D01*
X1655524Y1327554D02*
X1681024D01*
X1663524Y1333804D02*
X1673024D01*
X1668274Y1329054D02*
Y1338554D01*
X2008274Y1332304D02*
Y1341804D01*
X2003524Y1337054D02*
X2013024D01*
X1995524Y1330804D02*
X2021024D01*
X1995524Y1343304D02*
X2021024D01*
Y1330804D02*
Y1343304D01*
X1995524Y1330804D02*
Y1343304D01*
X2008274Y1316554D02*
Y1326054D01*
X2003524Y1321304D02*
X2013024D01*
X1995524Y1315054D02*
X2021024D01*
X1995524Y1327554D02*
X2021024D01*
Y1315054D02*
Y1327554D01*
X1995524Y1315054D02*
Y1327554D01*
X1797024Y1258054D02*
Y1267554D01*
X1792274Y1262804D02*
X1801774D01*
X1784274Y1269054D02*
X1809774D01*
X1784274Y1256554D02*
X1809774D01*
Y1269054D01*
X1784274Y1256554D02*
Y1269054D01*
X1797024Y1296304D02*
Y1305804D01*
X1792274Y1301054D02*
X1801774D01*
X1784274Y1307304D02*
X1809774D01*
X1784274Y1294804D02*
X1809774D01*
Y1307304D01*
X1784274Y1294804D02*
Y1307304D01*
X1797024Y1276804D02*
Y1286304D01*
X1792274Y1281554D02*
X1801774D01*
X1784274Y1287804D02*
X1809774D01*
X1784274Y1275304D02*
X1809774D01*
Y1287804D01*
X1784274Y1275304D02*
Y1287804D01*
X1797024Y1239804D02*
Y1249304D01*
X1792274Y1244554D02*
X1801774D01*
X1784274Y1250804D02*
X1809774D01*
X1784274Y1238304D02*
X1809774D01*
Y1250804D01*
X1784274Y1238304D02*
Y1250804D01*
X2085524Y1375804D02*
X2095024D01*
X2090274Y1371054D02*
Y1380554D01*
X2084024Y1363054D02*
Y1388554D01*
X2096524Y1363054D02*
Y1388554D01*
X2084024D02*
X2096524D01*
X2084024Y1363054D02*
X2096524D01*
X2103274Y1376054D02*
X2112774D01*
X2108024Y1371304D02*
Y1380804D01*
X2101774Y1363304D02*
Y1388804D01*
X2114274Y1363304D02*
Y1388804D01*
X2101774D02*
X2114274D01*
X2101774Y1363304D02*
X2114274D01*
X2455024Y1369804D02*
Y1379304D01*
X2450274Y1374554D02*
X2459774D01*
X2442274Y1368304D02*
X2467774D01*
X2442274Y1380804D02*
X2467774D01*
X2442274Y1368304D02*
Y1380804D01*
X2467774Y1368304D02*
Y1380804D01*
X2455024Y1354304D02*
Y1363804D01*
X2450274Y1359054D02*
X2459774D01*
X2442274Y1365304D02*
X2467774D01*
X2442274Y1352804D02*
X2467774D01*
Y1365304D01*
X2442274Y1352804D02*
Y1365304D01*
X2467774Y1299054D02*
X2477774D01*
X2472774Y1294054D02*
Y1304054D01*
X1911524Y1384054D02*
X1921024D01*
X1916274Y1379304D02*
Y1388804D01*
X1910024Y1371304D02*
Y1396804D01*
X1922524Y1371304D02*
Y1396804D01*
X1910024Y1371304D02*
X1922524D01*
X1910024Y1396804D02*
X1922524D01*
X1931274Y1403804D02*
X1940774D01*
X1936024Y1399054D02*
Y1408554D01*
X1929774Y1391054D02*
Y1416554D01*
X1942274Y1391054D02*
Y1416554D01*
X1929774Y1391054D02*
X1942274D01*
X1929774Y1416554D02*
X1942274D01*
X2120024Y1418554D02*
X2129524D01*
X2124774Y1413804D02*
Y1423304D01*
X2131024Y1405804D02*
Y1431304D01*
X2118524Y1405804D02*
Y1431304D01*
X2131024D01*
X2118524Y1405804D02*
X2131024D01*
X2120024Y1390054D02*
X2129524D01*
X2124774Y1385304D02*
Y1394804D01*
X2131024Y1377304D02*
Y1402804D01*
X2118524Y1377304D02*
Y1402804D01*
X2131024D01*
X2118524Y1377304D02*
X2131024D01*
X2103774Y1389804D02*
X2113274D01*
X2108524Y1385054D02*
Y1394554D01*
X2102274Y1377054D02*
Y1402554D01*
X2114774Y1377054D02*
Y1402554D01*
X2102274Y1377054D02*
X2114774D01*
X2102274Y1402554D02*
X2114774D01*
X2085024Y1376054D02*
X2094524D01*
X2089774Y1371304D02*
Y1380804D01*
X2096024Y1363304D02*
Y1388804D01*
X2083524Y1363304D02*
Y1388804D01*
X2096024D01*
X2083524Y1363304D02*
X2096024D01*
X2141274Y1411304D02*
X2150774D01*
X2146024Y1406554D02*
Y1416054D01*
X2152274Y1398554D02*
Y1424054D01*
X2139774Y1398554D02*
Y1424054D01*
X2152274D01*
X2139774Y1398554D02*
X2152274D01*
X2173024Y1382054D02*
X2183024D01*
X2178024Y1377054D02*
Y1387054D01*
X2172774Y1442604D02*
X2182774D01*
X2177774Y1437604D02*
Y1447604D01*
X2245524Y1330054D02*
Y1339554D01*
X2240774Y1334804D02*
X2250274D01*
X2232774Y1328554D02*
X2258274D01*
X2232774Y1341054D02*
X2258274D01*
Y1328554D02*
Y1341054D01*
X2232774Y1328554D02*
Y1341054D01*
X2206274Y1411554D02*
X2215774D01*
X2211024Y1406804D02*
Y1416304D01*
X2204774Y1398804D02*
Y1424304D01*
X2217274Y1398804D02*
Y1424304D01*
X2204774Y1398804D02*
X2217274D01*
X2204774Y1424304D02*
X2217274D01*
X2329774Y1416804D02*
X2339274D01*
X2334524Y1412054D02*
Y1421554D01*
X2328274Y1404054D02*
Y1429554D01*
X2340774Y1404054D02*
Y1429554D01*
X2328274Y1404054D02*
X2340774D01*
X2328274Y1429554D02*
X2340774D01*
X2369024Y1405054D02*
Y1410054D01*
X2366524Y1407554D02*
X2371524D01*
X2405774Y1347554D02*
Y1357554D01*
X2400774Y1352554D02*
X2410774D01*
X2321274Y1352304D02*
X2330774D01*
X2326024Y1347554D02*
Y1357054D01*
X2332274Y1339554D02*
Y1365054D01*
X2319774Y1339554D02*
Y1365054D01*
X2332274D01*
X2319774Y1339554D02*
X2332274D01*
X2406024Y1314304D02*
Y1323804D01*
X2401274Y1319054D02*
X2410774D01*
X2393274Y1325304D02*
X2418774D01*
X2393274Y1312804D02*
X2418774D01*
X2393274D02*
Y1325304D01*
X2418774Y1312804D02*
Y1325304D01*
X2412774Y1276004D02*
X2422274D01*
X2417524Y1271254D02*
Y1280754D01*
X2423774Y1263254D02*
Y1288754D01*
X2411274Y1263254D02*
Y1288754D01*
X2423774D01*
X2411274Y1263254D02*
X2423774D01*
X2395524Y1264304D02*
Y1273804D01*
X2390774Y1269054D02*
X2400274D01*
X2382774Y1275304D02*
X2408274D01*
X2382774Y1262804D02*
X2408274D01*
X2382774D02*
Y1275304D01*
X2408274Y1262804D02*
Y1275304D01*
X2395524Y1278554D02*
Y1288054D01*
X2390774Y1283304D02*
X2400274D01*
X2382774Y1277054D02*
X2408274D01*
X2382774Y1289554D02*
X2408274D01*
Y1277054D02*
Y1289554D01*
X2382774Y1277054D02*
Y1289554D01*
X2479774Y1434804D02*
Y1444804D01*
X2474774Y1439804D02*
X2484774D01*
X2479774Y1434804D02*
Y1444804D01*
X2474774Y1439804D02*
X2484774D01*
X2258524Y1313554D02*
Y1326054D01*
X2233024Y1313554D02*
Y1326054D01*
Y1313554D02*
X2258524D01*
X2233024Y1326054D02*
X2258524D01*
X2241024Y1319804D02*
X2250524D01*
X2245774Y1315054D02*
Y1324554D01*
D101*
X2408524Y1409304D02*
G03*
X2408524Y1409304I-3500J0D01*
G01*
X2449274Y1342304D02*
X2509274D01*
X2449274Y1255804D02*
Y1342304D01*
X2509274Y1255804D02*
Y1342304D01*
X2449274Y1255804D02*
X2509274D01*
X2158024Y1358054D02*
Y1406054D01*
X2198024Y1358054D02*
Y1406054D01*
X2158024Y1358054D02*
X2198024D01*
X2158024Y1406054D02*
X2198024D01*
X2197774Y1418604D02*
Y1466604D01*
X2157774Y1418604D02*
Y1466604D01*
X2197774D01*
X2157774Y1418604D02*
X2197774D01*
X2360024Y1385604D02*
Y1429504D01*
X2378024D01*
Y1385604D02*
Y1429504D01*
X2360024Y1385604D02*
X2378024D01*
X2400024Y1409304D02*
X2410024D01*
X2405024Y1404304D02*
Y1414304D01*
X2385524Y1391304D02*
Y1427304D01*
X2424524D01*
Y1391304D02*
Y1427304D01*
X2385524Y1391304D02*
X2424524D01*
X2382274Y1373054D02*
X2429274D01*
X2382274Y1332054D02*
X2429274D01*
X2382274D02*
Y1373054D01*
X2429274Y1332054D02*
Y1373054D01*
X2454024Y1391054D02*
Y1488554D01*
M02*
