G04*
G04 #@! TF.GenerationSoftware,Altium Limited,Altium Designer,18.1.9 (240)*
G04*
G04 Layer_Color=32768*
%FSLAX44Y44*%
%MOMM*%
G71*
G01*
G75*
%ADD30C,0.1000*%
%ADD95C,0.0500*%
D30*
X1797024Y1242054D02*
Y1251554D01*
X1792274Y1246804D02*
X1801774D01*
X1784274Y1253054D02*
X1809774D01*
X1784274Y1240554D02*
X1809774D01*
Y1253054D01*
X1784274Y1240554D02*
Y1253054D01*
X1797024Y1280304D02*
Y1289804D01*
X1792274Y1285054D02*
X1801774D01*
X1784274Y1291304D02*
X1809774D01*
X1784274Y1278804D02*
X1809774D01*
Y1291304D01*
X1784274Y1278804D02*
Y1291304D01*
X1797024Y1260804D02*
Y1270304D01*
X1792274Y1265554D02*
X1801774D01*
X1784274Y1271804D02*
X1809774D01*
X1784274Y1259304D02*
X1809774D01*
Y1271804D01*
X1784274Y1259304D02*
Y1271804D01*
X1797024Y1223804D02*
Y1233304D01*
X1792274Y1228554D02*
X1801774D01*
X1784274Y1234804D02*
X1809774D01*
X1784274Y1222304D02*
X1809774D01*
Y1234804D01*
X1784274Y1222304D02*
Y1234804D01*
X2023524Y1328054D02*
Y1337554D01*
X2018774Y1332804D02*
X2028274D01*
X2010774Y1339054D02*
X2036274D01*
X2010774Y1326554D02*
X2036274D01*
Y1339054D01*
X2010774Y1326554D02*
Y1339054D01*
X2023524Y1312304D02*
Y1321804D01*
X2018774Y1317054D02*
X2028274D01*
X2010774Y1323304D02*
X2036274D01*
X2010774Y1310804D02*
X2036274D01*
Y1323304D01*
X2010774Y1310804D02*
Y1323304D01*
X2085524Y1359804D02*
X2095024D01*
X2090274Y1355054D02*
Y1364554D01*
X2084024Y1347054D02*
Y1372554D01*
X2096524Y1347054D02*
Y1372554D01*
X2084024D02*
X2096524D01*
X2084024Y1347054D02*
X2096524D01*
X2103274Y1360054D02*
X2112774D01*
X2108024Y1355304D02*
Y1364804D01*
X2101774Y1347304D02*
Y1372804D01*
X2114274Y1347304D02*
Y1372804D01*
X2101774D02*
X2114274D01*
X2101774Y1347304D02*
X2114274D01*
X2455024Y1353804D02*
Y1363304D01*
X2450274Y1358554D02*
X2459774D01*
X2442274Y1352304D02*
X2467774D01*
X2442274Y1364804D02*
X2467774D01*
X2442274Y1352304D02*
Y1364804D01*
X2467774Y1352304D02*
Y1364804D01*
X2455024Y1338304D02*
Y1347804D01*
X2450274Y1343054D02*
X2459774D01*
X2442274Y1349304D02*
X2467774D01*
X2442274Y1336804D02*
X2467774D01*
Y1349304D01*
X2442274Y1336804D02*
Y1349304D01*
X2467774Y1283054D02*
X2477774D01*
X2472774Y1278054D02*
Y1288054D01*
X1911524Y1368054D02*
X1921024D01*
X1916274Y1363304D02*
Y1372804D01*
X1910024Y1355304D02*
Y1380804D01*
X1922524Y1355304D02*
Y1380804D01*
X1910024Y1355304D02*
X1922524D01*
X1910024Y1380804D02*
X1922524D01*
X1931274Y1387804D02*
X1940774D01*
X1936024Y1383054D02*
Y1392554D01*
X1929774Y1375054D02*
Y1400554D01*
X1942274Y1375054D02*
Y1400554D01*
X1929774Y1375054D02*
X1942274D01*
X1929774Y1400554D02*
X1942274D01*
X2120024Y1402554D02*
X2129524D01*
X2124774Y1397804D02*
Y1407304D01*
X2131024Y1389804D02*
Y1415304D01*
X2118524Y1389804D02*
Y1415304D01*
X2131024D01*
X2118524Y1389804D02*
X2131024D01*
X2120024Y1374054D02*
X2129524D01*
X2124774Y1369304D02*
Y1378804D01*
X2131024Y1361304D02*
Y1386804D01*
X2118524Y1361304D02*
Y1386804D01*
X2131024D01*
X2118524Y1361304D02*
X2131024D01*
X2103774Y1373804D02*
X2113274D01*
X2108524Y1369054D02*
Y1378554D01*
X2102274Y1361054D02*
Y1386554D01*
X2114774Y1361054D02*
Y1386554D01*
X2102274Y1361054D02*
X2114774D01*
X2102274Y1386554D02*
X2114774D01*
X2085024Y1360054D02*
X2094524D01*
X2089774Y1355304D02*
Y1364804D01*
X2096024Y1347304D02*
Y1372804D01*
X2083524Y1347304D02*
Y1372804D01*
X2096024D01*
X2083524Y1347304D02*
X2096024D01*
X2141274Y1395304D02*
X2150774D01*
X2146024Y1390554D02*
Y1400054D01*
X2152274Y1382554D02*
Y1408054D01*
X2139774Y1382554D02*
Y1408054D01*
X2152274D01*
X2139774Y1382554D02*
X2152274D01*
X2173024Y1366054D02*
X2183024D01*
X2178024Y1361054D02*
Y1371054D01*
X2172774Y1426604D02*
X2182774D01*
X2177774Y1421604D02*
Y1431604D01*
X2245524Y1314054D02*
Y1323554D01*
X2240774Y1318804D02*
X2250274D01*
X2232774Y1312554D02*
X2258274D01*
X2232774Y1325054D02*
X2258274D01*
Y1312554D02*
Y1325054D01*
X2232774Y1312554D02*
Y1325054D01*
X2206274Y1395554D02*
X2215774D01*
X2211024Y1390804D02*
Y1400304D01*
X2204774Y1382804D02*
Y1408304D01*
X2217274Y1382804D02*
Y1408304D01*
X2204774Y1382804D02*
X2217274D01*
X2204774Y1408304D02*
X2217274D01*
X2329774Y1400804D02*
X2339274D01*
X2334524Y1396054D02*
Y1405554D01*
X2328274Y1388054D02*
Y1413554D01*
X2340774Y1388054D02*
Y1413554D01*
X2328274Y1388054D02*
X2340774D01*
X2328274Y1413554D02*
X2340774D01*
X2369024Y1389054D02*
Y1394054D01*
X2366524Y1391554D02*
X2371524D01*
X2405774Y1331554D02*
Y1341554D01*
X2400774Y1336554D02*
X2410774D01*
X2321274Y1336304D02*
X2330774D01*
X2326024Y1331554D02*
Y1341054D01*
X2332274Y1323554D02*
Y1349054D01*
X2319774Y1323554D02*
Y1349054D01*
X2332274D01*
X2319774Y1323554D02*
X2332274D01*
X2406024Y1298304D02*
Y1307804D01*
X2401274Y1303054D02*
X2410774D01*
X2393274Y1309304D02*
X2418774D01*
X2393274Y1296804D02*
X2418774D01*
X2393274D02*
Y1309304D01*
X2418774Y1296804D02*
Y1309304D01*
X2412774Y1260004D02*
X2422274D01*
X2417524Y1255254D02*
Y1264754D01*
X2423774Y1247254D02*
Y1272754D01*
X2411274Y1247254D02*
Y1272754D01*
X2423774D01*
X2411274Y1247254D02*
X2423774D01*
X2395524Y1248304D02*
Y1257804D01*
X2390774Y1253054D02*
X2400274D01*
X2382774Y1259304D02*
X2408274D01*
X2382774Y1246804D02*
X2408274D01*
X2382774D02*
Y1259304D01*
X2408274Y1246804D02*
Y1259304D01*
X2395524Y1262554D02*
Y1272054D01*
X2390774Y1267304D02*
X2400274D01*
X2382774Y1261054D02*
X2408274D01*
X2382774Y1273554D02*
X2408274D01*
Y1261054D02*
Y1273554D01*
X2382774Y1261054D02*
Y1273554D01*
X2479774Y1418804D02*
Y1428804D01*
X2474774Y1423804D02*
X2484774D01*
X2479774Y1418804D02*
Y1428804D01*
X2474774Y1423804D02*
X2484774D01*
X2258524Y1297554D02*
Y1310054D01*
X2233024Y1297554D02*
Y1310054D01*
Y1297554D02*
X2258524D01*
X2233024Y1310054D02*
X2258524D01*
X2241024Y1303804D02*
X2250524D01*
X2245774Y1299054D02*
Y1308554D01*
D95*
X2408524Y1393304D02*
G03*
X2408524Y1393304I-3500J0D01*
G01*
X2449274Y1326304D02*
X2509274D01*
X2449274Y1239804D02*
Y1326304D01*
X2509274Y1239804D02*
Y1326304D01*
X2449274Y1239804D02*
X2509274D01*
X2158024Y1342054D02*
Y1390054D01*
X2198024Y1342054D02*
Y1390054D01*
X2158024Y1342054D02*
X2198024D01*
X2158024Y1390054D02*
X2198024D01*
X2197774Y1402604D02*
Y1450604D01*
X2157774Y1402604D02*
Y1450604D01*
X2197774D01*
X2157774Y1402604D02*
X2197774D01*
X2360024Y1369604D02*
Y1413504D01*
X2378024D01*
Y1369604D02*
Y1413504D01*
X2360024Y1369604D02*
X2378024D01*
X2400024Y1393304D02*
X2410024D01*
X2405024Y1388304D02*
Y1398304D01*
X2385524Y1375304D02*
Y1411304D01*
X2424524D01*
Y1375304D02*
Y1411304D01*
X2385524Y1375304D02*
X2424524D01*
X2382274Y1357054D02*
X2429274D01*
X2382274Y1316054D02*
X2429274D01*
X2382274D02*
Y1357054D01*
X2429274Y1316054D02*
Y1357054D01*
X2454024Y1375054D02*
Y1472554D01*
M02*
