G04*
G04 #@! TF.GenerationSoftware,Altium Limited,Altium Designer,18.1.9 (240)*
G04*
G04 Layer_Color=16711935*
%FSLAX44Y44*%
%MOMM*%
G71*
G01*
G75*
%ADD30C,0.1000*%
D30*
X1999524Y1332304D02*
X2017024D01*
X1999524Y1341804D02*
X2017024D01*
Y1332304D02*
Y1341804D01*
X1999524Y1332304D02*
Y1341804D01*
Y1316554D02*
X2017024D01*
X1999524Y1326054D02*
X2017024D01*
Y1316554D02*
Y1326054D01*
X1999524Y1316554D02*
Y1326054D01*
X1788274Y1267554D02*
X1805774D01*
X1788274Y1258054D02*
X1805774D01*
Y1267554D01*
X1788274Y1258054D02*
Y1267554D01*
Y1305804D02*
X1805774D01*
X1788274Y1296304D02*
X1805774D01*
Y1305804D01*
X1788274Y1296304D02*
Y1305804D01*
Y1286304D02*
X1805774D01*
X1788274Y1276804D02*
X1805774D01*
Y1286304D01*
X1788274Y1276804D02*
Y1286304D01*
Y1249304D02*
X1805774D01*
X1788274Y1239804D02*
X1805774D01*
Y1249304D01*
X1788274Y1239804D02*
Y1249304D01*
X2085524Y1367054D02*
Y1384554D01*
X2095024Y1367054D02*
Y1384554D01*
X2085524D02*
X2095024D01*
X2085524Y1367054D02*
X2095024D01*
X2103274Y1367304D02*
Y1384804D01*
X2112774Y1367304D02*
Y1384804D01*
X2103274D02*
X2112774D01*
X2103274Y1367304D02*
X2112774D01*
X2446274Y1369804D02*
X2463774D01*
X2446274Y1379304D02*
X2463774D01*
X2446274Y1369804D02*
Y1379304D01*
X2463774Y1369804D02*
Y1379304D01*
X2446274Y1363804D02*
X2463774D01*
X2446274Y1354304D02*
X2463774D01*
Y1363804D01*
X2446274Y1354304D02*
Y1363804D01*
X2466273Y1277804D02*
Y1320303D01*
X2508274D01*
Y1277804D02*
Y1320303D01*
X2466273Y1277804D02*
X2508274D01*
X1911524Y1375304D02*
Y1392804D01*
X1921024Y1375304D02*
Y1392804D01*
X1911524Y1375304D02*
X1921024D01*
X1911524Y1392804D02*
X1921024D01*
X1931274Y1395054D02*
Y1412554D01*
X1940774Y1395054D02*
Y1412554D01*
X1931274Y1395054D02*
X1940774D01*
X1931274Y1412554D02*
X1940774D01*
X2129524Y1409804D02*
Y1427304D01*
X2120024Y1409804D02*
Y1427304D01*
X2129524D01*
X2120024Y1409804D02*
X2129524D01*
Y1381304D02*
Y1398804D01*
X2120024Y1381304D02*
Y1398804D01*
X2129524D01*
X2120024Y1381304D02*
X2129524D01*
X2103774Y1381054D02*
Y1398554D01*
X2113274Y1381054D02*
Y1398554D01*
X2103774Y1381054D02*
X2113274D01*
X2103774Y1398554D02*
X2113274D01*
X2094524Y1367304D02*
Y1384804D01*
X2085024Y1367304D02*
Y1384804D01*
X2094524D01*
X2085024Y1367304D02*
X2094524D01*
X2150774Y1402554D02*
Y1420054D01*
X2141274Y1402554D02*
Y1420054D01*
X2150774D01*
X2141274Y1402554D02*
X2150774D01*
X2162824Y1375054D02*
Y1389054D01*
X2193224Y1375054D02*
Y1389054D01*
X2162824Y1375054D02*
X2193224D01*
X2162824Y1389054D02*
X2193224D01*
X2192974Y1435604D02*
Y1449604D01*
X2162574Y1435604D02*
Y1449604D01*
X2192974D01*
X2162574Y1435604D02*
X2192974D01*
X2236774Y1330054D02*
X2254274D01*
X2236774Y1339554D02*
X2254274D01*
Y1330054D02*
Y1339554D01*
X2236774Y1330054D02*
Y1339554D01*
X2206274Y1402804D02*
Y1420304D01*
X2215774Y1402804D02*
Y1420304D01*
X2206274Y1402804D02*
X2215774D01*
X2206274Y1420304D02*
X2215774D01*
X2329774Y1408054D02*
Y1425554D01*
X2339274Y1408054D02*
Y1425554D01*
X2329774Y1408054D02*
X2339274D01*
X2329774Y1425554D02*
X2339274D01*
X2361024Y1394054D02*
Y1421054D01*
Y1394054D02*
X2377024D01*
X2361024Y1421054D02*
X2377024D01*
Y1394054D02*
Y1421054D01*
X2396774Y1368054D02*
X2414774D01*
X2396774Y1337054D02*
X2414774D01*
X2396774D02*
Y1368054D01*
X2414774Y1337054D02*
Y1368054D01*
X2330774Y1343554D02*
Y1361054D01*
X2321274Y1343554D02*
Y1361054D01*
X2330774D01*
X2321274Y1343554D02*
X2330774D01*
X2397274Y1323804D02*
X2414774D01*
X2397274Y1314304D02*
X2414774D01*
X2397274D02*
Y1323804D01*
X2414774Y1314304D02*
Y1323804D01*
X2422274Y1267254D02*
Y1284754D01*
X2412774Y1267254D02*
Y1284754D01*
X2422274D01*
X2412774Y1267254D02*
X2422274D01*
X2386774Y1273804D02*
X2404274D01*
X2386774Y1264304D02*
X2404274D01*
X2386774D02*
Y1273804D01*
X2404274Y1264304D02*
Y1273804D01*
X2386774Y1278554D02*
X2404274D01*
X2386774Y1288054D02*
X2404274D01*
Y1278554D02*
Y1288054D01*
X2386774Y1278554D02*
Y1288054D01*
X2456524Y1393304D02*
Y1486304D01*
X2254524Y1315054D02*
Y1324554D01*
X2237024Y1315054D02*
Y1324554D01*
Y1315054D02*
X2254524D01*
X2237024Y1324554D02*
X2254524D01*
M02*
