G04*
G04 #@! TF.GenerationSoftware,Altium Limited,Altium Designer,18.1.9 (240)*
G04*
G04 Layer_Color=16711935*
%FSLAX44Y44*%
%MOMM*%
G71*
G01*
G75*
%ADD58R,1.0032X1.1032*%
%ADD59R,1.1032X1.0032*%
%ADD73C,0.7032*%
%ADD74R,1.7032X1.7032*%
%ADD75C,1.7032*%
%ADD76C,3.2032*%
%ADD77R,1.7032X1.7032*%
%ADD78R,1.3032X1.3032*%
%ADD79O,2.0032X1.3032*%
%ADD80O,1.8032X1.4032*%
%ADD81C,1.4034*%
%ADD82C,1.0033*%
%ADD83C,0.6532*%
%ADD84R,0.4232X1.0432*%
%ADD85R,1.0432X0.4232*%
%ADD86R,5.1532X5.1532*%
%ADD87R,1.8032X1.0032*%
%ADD88R,3.2032X2.3032*%
%ADD89R,1.4032X0.6532*%
%ADD90R,1.7531X1.5032*%
%ADD91R,1.0032X1.0032*%
%ADD92R,1.5032X1.7531*%
D58*
X1804024Y1262804D02*
D03*
X1790024D02*
D03*
X1804024Y1301054D02*
D03*
X1790024D02*
D03*
X1804024Y1281554D02*
D03*
X1790024D02*
D03*
X1804024Y1244554D02*
D03*
X1790024D02*
D03*
X2448024Y1374554D02*
D03*
X2462024D02*
D03*
X2462024Y1359054D02*
D03*
X2448024D02*
D03*
D59*
X2090274Y1382804D02*
D03*
Y1368804D02*
D03*
X2108024Y1383054D02*
D03*
Y1369054D02*
D03*
D73*
X1247000Y1387000D02*
D03*
Y1377000D02*
D03*
Y1367000D02*
D03*
Y1357000D02*
D03*
Y1347000D02*
D03*
X1232000D02*
D03*
Y1357000D02*
D03*
Y1367000D02*
D03*
Y1377000D02*
D03*
Y1387000D02*
D03*
X2512150D02*
D03*
Y1377000D02*
D03*
Y1367000D02*
D03*
Y1357000D02*
D03*
Y1347000D02*
D03*
X2527150D02*
D03*
Y1357000D02*
D03*
Y1367000D02*
D03*
Y1377000D02*
D03*
Y1387000D02*
D03*
X2512000Y1773000D02*
D03*
Y1763000D02*
D03*
Y1753000D02*
D03*
Y1743000D02*
D03*
Y1733000D02*
D03*
X2527000D02*
D03*
Y1743000D02*
D03*
Y1753000D02*
D03*
Y1763000D02*
D03*
Y1773000D02*
D03*
X1246900D02*
D03*
Y1763000D02*
D03*
Y1753000D02*
D03*
Y1743000D02*
D03*
Y1733000D02*
D03*
X1231900D02*
D03*
Y1743000D02*
D03*
Y1753000D02*
D03*
Y1763000D02*
D03*
Y1773000D02*
D03*
X1492000Y1188950D02*
D03*
X1482000D02*
D03*
X1472000D02*
D03*
X1462000D02*
D03*
X1452000D02*
D03*
Y1173950D02*
D03*
X1462000D02*
D03*
X1472000D02*
D03*
X1482000D02*
D03*
X1492000D02*
D03*
X1892000Y1173850D02*
D03*
X1882000D02*
D03*
X1872000D02*
D03*
X1862000D02*
D03*
X1852000D02*
D03*
Y1188850D02*
D03*
X1862000D02*
D03*
X1872000D02*
D03*
X1882000D02*
D03*
X1892000D02*
D03*
X2292000Y1173850D02*
D03*
X2282000D02*
D03*
X2272000D02*
D03*
X2262000D02*
D03*
X2252000D02*
D03*
Y1188850D02*
D03*
X2262000D02*
D03*
X2272000D02*
D03*
X2282000D02*
D03*
X2292000D02*
D03*
X2293000Y1948850D02*
D03*
X2283000D02*
D03*
X2273000D02*
D03*
X2263000D02*
D03*
X2253000D02*
D03*
Y1933850D02*
D03*
X2263000D02*
D03*
X2273000D02*
D03*
X2283000D02*
D03*
X2293000D02*
D03*
X1893000Y1948850D02*
D03*
X1883000D02*
D03*
X1873000D02*
D03*
X1863000D02*
D03*
X1853000D02*
D03*
Y1933850D02*
D03*
X1863000D02*
D03*
X1873000D02*
D03*
X1883000D02*
D03*
X1893000D02*
D03*
X1493000Y1933950D02*
D03*
X1483000D02*
D03*
X1473000D02*
D03*
X1463000D02*
D03*
X1453000D02*
D03*
Y1948950D02*
D03*
X1463000D02*
D03*
X1473000D02*
D03*
X1483000D02*
D03*
X1493000D02*
D03*
X2293000Y1568850D02*
D03*
X2283000D02*
D03*
X2273000D02*
D03*
X2263000D02*
D03*
X2253000D02*
D03*
Y1553850D02*
D03*
X2263000D02*
D03*
X2273000D02*
D03*
X2283000D02*
D03*
X2293000D02*
D03*
X1893000Y1568850D02*
D03*
X1883000D02*
D03*
X1873000D02*
D03*
X1863000D02*
D03*
X1853000D02*
D03*
Y1553850D02*
D03*
X1863000D02*
D03*
X1873000D02*
D03*
X1883000D02*
D03*
X1893000D02*
D03*
X1493000Y1553950D02*
D03*
X1483000D02*
D03*
X1473000D02*
D03*
X1463000D02*
D03*
X1453000D02*
D03*
Y1568950D02*
D03*
X1463000D02*
D03*
X1473000D02*
D03*
X1483000D02*
D03*
X1493000D02*
D03*
X2271250Y1858250D02*
D03*
X2274250Y1620500D02*
D03*
X2243750Y1832000D02*
D03*
Y1620388D02*
D03*
X2214500Y1802138D02*
D03*
Y1620388D02*
D03*
X2182750Y1771000D02*
D03*
Y1620000D02*
D03*
X2152750Y1740000D02*
D03*
Y1620000D02*
D03*
X2121750Y1710000D02*
D03*
Y1620000D02*
D03*
X2094000Y1680250D02*
D03*
Y1620388D02*
D03*
X2063750Y1651000D02*
D03*
X2063250Y1620000D02*
D03*
X1384500Y1858000D02*
D03*
X1504500D02*
D03*
X1324750Y1677750D02*
D03*
Y1647500D02*
D03*
Y1617750D02*
D03*
X1324500Y1707750D02*
D03*
X1324750Y1737750D02*
D03*
Y1767750D02*
D03*
Y1797750D02*
D03*
X1324500Y1828000D02*
D03*
X1324750Y1858000D02*
D03*
X2404750Y1858500D02*
D03*
X2404500Y1828500D02*
D03*
X2404750Y1798250D02*
D03*
Y1768250D02*
D03*
Y1738250D02*
D03*
X2404500Y1708250D02*
D03*
X2404750Y1678250D02*
D03*
Y1648000D02*
D03*
Y1618250D02*
D03*
X2374500Y1858500D02*
D03*
X2374250Y1828500D02*
D03*
X2374500Y1798250D02*
D03*
Y1768250D02*
D03*
Y1738250D02*
D03*
X2374250Y1708250D02*
D03*
X2374500Y1678250D02*
D03*
Y1648000D02*
D03*
Y1618250D02*
D03*
X2344500Y1858500D02*
D03*
X2344250Y1828500D02*
D03*
X2344500Y1798250D02*
D03*
Y1768250D02*
D03*
Y1738250D02*
D03*
X2344250Y1708250D02*
D03*
X2344500Y1678250D02*
D03*
Y1648000D02*
D03*
Y1618250D02*
D03*
X2314500Y1858500D02*
D03*
X2314250Y1828500D02*
D03*
X2314500Y1798250D02*
D03*
Y1768250D02*
D03*
Y1738250D02*
D03*
X2314250Y1708250D02*
D03*
X2314500Y1678250D02*
D03*
Y1648000D02*
D03*
Y1618250D02*
D03*
X2284750Y1858500D02*
D03*
X2284500Y1828500D02*
D03*
X2284750Y1798250D02*
D03*
Y1768250D02*
D03*
Y1738250D02*
D03*
X2284500Y1708250D02*
D03*
X2284750Y1678250D02*
D03*
Y1648000D02*
D03*
Y1618250D02*
D03*
X2254500Y1858500D02*
D03*
X2254250Y1828500D02*
D03*
X2254500Y1798250D02*
D03*
Y1768250D02*
D03*
Y1738250D02*
D03*
X2254250Y1708250D02*
D03*
X2254500Y1678250D02*
D03*
Y1648000D02*
D03*
Y1618250D02*
D03*
X2224750Y1858500D02*
D03*
X2224500Y1828500D02*
D03*
X2224750Y1798250D02*
D03*
Y1768250D02*
D03*
Y1738250D02*
D03*
X2224500Y1708250D02*
D03*
X2224750Y1678250D02*
D03*
Y1648000D02*
D03*
Y1618250D02*
D03*
X2194500Y1858500D02*
D03*
X2194250Y1828500D02*
D03*
X2194500Y1798250D02*
D03*
Y1768250D02*
D03*
Y1738250D02*
D03*
X2194250Y1708250D02*
D03*
X2194500Y1678250D02*
D03*
Y1648000D02*
D03*
Y1618250D02*
D03*
X2164500Y1858500D02*
D03*
X2164250Y1828500D02*
D03*
X2164500Y1798250D02*
D03*
Y1768250D02*
D03*
Y1738250D02*
D03*
X2164250Y1708250D02*
D03*
X2164500Y1678250D02*
D03*
Y1648000D02*
D03*
Y1618250D02*
D03*
X2134500Y1858500D02*
D03*
X2134250Y1828500D02*
D03*
X2134500Y1798250D02*
D03*
Y1768250D02*
D03*
Y1738250D02*
D03*
X2134250Y1708250D02*
D03*
X2134500Y1678250D02*
D03*
Y1648000D02*
D03*
Y1618250D02*
D03*
X2104500Y1858500D02*
D03*
X2104250Y1828500D02*
D03*
X2104500Y1798250D02*
D03*
Y1768250D02*
D03*
Y1738250D02*
D03*
X2104250Y1708250D02*
D03*
X2104500Y1678250D02*
D03*
Y1648000D02*
D03*
Y1618250D02*
D03*
X2074500Y1858500D02*
D03*
X2074250Y1828500D02*
D03*
X2074500Y1798250D02*
D03*
Y1768250D02*
D03*
Y1738250D02*
D03*
X2074250Y1708250D02*
D03*
X2074500Y1678250D02*
D03*
Y1648000D02*
D03*
Y1618250D02*
D03*
X2044500Y1858500D02*
D03*
X2044250Y1828500D02*
D03*
X2044500Y1798250D02*
D03*
Y1768250D02*
D03*
Y1738250D02*
D03*
X2044250Y1708250D02*
D03*
X2044500Y1678250D02*
D03*
Y1648000D02*
D03*
Y1618250D02*
D03*
X2014750Y1858500D02*
D03*
X2014500Y1828500D02*
D03*
X2014750Y1798250D02*
D03*
Y1768250D02*
D03*
Y1738250D02*
D03*
X2014500Y1708250D02*
D03*
X2014750Y1678250D02*
D03*
Y1648000D02*
D03*
Y1618250D02*
D03*
X1984500Y1858500D02*
D03*
X1984250Y1828500D02*
D03*
X1984500Y1798250D02*
D03*
Y1768250D02*
D03*
Y1738250D02*
D03*
X1984250Y1708250D02*
D03*
X1984500Y1678250D02*
D03*
Y1648000D02*
D03*
Y1618250D02*
D03*
X1954500Y1858500D02*
D03*
X1954250Y1828500D02*
D03*
X1954500Y1798250D02*
D03*
Y1768250D02*
D03*
Y1738250D02*
D03*
X1954250Y1708250D02*
D03*
X1954500Y1678250D02*
D03*
Y1648000D02*
D03*
Y1618250D02*
D03*
X1924250Y1858500D02*
D03*
X1924000Y1828500D02*
D03*
X1924250Y1798250D02*
D03*
Y1768250D02*
D03*
Y1738250D02*
D03*
X1924000Y1708250D02*
D03*
X1924250Y1678250D02*
D03*
Y1648000D02*
D03*
Y1618250D02*
D03*
X1894500Y1858000D02*
D03*
X1894250Y1828000D02*
D03*
X1894500Y1797750D02*
D03*
Y1767750D02*
D03*
Y1737750D02*
D03*
X1894250Y1707750D02*
D03*
X1894500Y1677750D02*
D03*
Y1647500D02*
D03*
Y1617750D02*
D03*
X2434750Y1857500D02*
D03*
X2434500Y1827500D02*
D03*
X2434750Y1797250D02*
D03*
Y1767250D02*
D03*
Y1737250D02*
D03*
X2434500Y1707250D02*
D03*
X2434750Y1677250D02*
D03*
Y1647000D02*
D03*
Y1617250D02*
D03*
X1864750Y1858000D02*
D03*
X1864500Y1828000D02*
D03*
X1864750Y1797750D02*
D03*
Y1767750D02*
D03*
Y1737750D02*
D03*
X1864500Y1707750D02*
D03*
X1864750Y1677750D02*
D03*
Y1647500D02*
D03*
Y1617750D02*
D03*
X1834500Y1858000D02*
D03*
X1834250Y1828000D02*
D03*
X1834500Y1797750D02*
D03*
Y1767750D02*
D03*
Y1737750D02*
D03*
X1834250Y1707750D02*
D03*
X1834500Y1677750D02*
D03*
Y1647500D02*
D03*
Y1617750D02*
D03*
X1804500Y1858000D02*
D03*
X1804250Y1828000D02*
D03*
X1804500Y1797750D02*
D03*
Y1767750D02*
D03*
Y1737750D02*
D03*
X1804250Y1707750D02*
D03*
X1804500Y1677750D02*
D03*
Y1647500D02*
D03*
Y1617750D02*
D03*
X1774500Y1858000D02*
D03*
X1774250Y1828000D02*
D03*
X1774500Y1797750D02*
D03*
Y1767750D02*
D03*
Y1737750D02*
D03*
X1774250Y1707750D02*
D03*
X1774500Y1677750D02*
D03*
Y1647500D02*
D03*
Y1617750D02*
D03*
X1744750Y1858000D02*
D03*
X1744500Y1828000D02*
D03*
X1744750Y1797750D02*
D03*
Y1767750D02*
D03*
Y1737750D02*
D03*
X1744500Y1707750D02*
D03*
X1744750Y1677750D02*
D03*
Y1647500D02*
D03*
Y1617750D02*
D03*
X1714500Y1858000D02*
D03*
X1714250Y1828000D02*
D03*
X1714500Y1797750D02*
D03*
Y1767750D02*
D03*
Y1737750D02*
D03*
X1714250Y1707750D02*
D03*
X1714500Y1677750D02*
D03*
Y1647500D02*
D03*
Y1617750D02*
D03*
X1684500Y1858000D02*
D03*
X1684250Y1828000D02*
D03*
X1684500Y1797750D02*
D03*
Y1767750D02*
D03*
Y1737750D02*
D03*
X1684250Y1707750D02*
D03*
X1684500Y1677750D02*
D03*
Y1647500D02*
D03*
Y1617750D02*
D03*
X1654500Y1858000D02*
D03*
X1654250Y1828000D02*
D03*
X1654500Y1797750D02*
D03*
Y1767750D02*
D03*
Y1737750D02*
D03*
X1654250Y1707750D02*
D03*
X1654500Y1677750D02*
D03*
Y1647500D02*
D03*
Y1617750D02*
D03*
X1624750Y1858000D02*
D03*
X1624500Y1828000D02*
D03*
X1624750Y1797750D02*
D03*
Y1767750D02*
D03*
Y1737750D02*
D03*
X1624500Y1707750D02*
D03*
X1624750Y1677750D02*
D03*
Y1647500D02*
D03*
Y1617750D02*
D03*
X1594750Y1858000D02*
D03*
X1594500Y1828000D02*
D03*
X1594750Y1797750D02*
D03*
Y1767750D02*
D03*
Y1737750D02*
D03*
X1594500Y1707750D02*
D03*
X1594750Y1677750D02*
D03*
Y1647500D02*
D03*
Y1617750D02*
D03*
X1564500Y1858000D02*
D03*
X1564250Y1828000D02*
D03*
X1564500Y1797750D02*
D03*
Y1767750D02*
D03*
Y1737750D02*
D03*
X1564250Y1707750D02*
D03*
X1564500Y1677750D02*
D03*
Y1647500D02*
D03*
Y1617750D02*
D03*
X1534500Y1858000D02*
D03*
X1534250Y1828000D02*
D03*
X1534500Y1797750D02*
D03*
Y1767750D02*
D03*
Y1737750D02*
D03*
X1534250Y1707750D02*
D03*
X1534500Y1677750D02*
D03*
Y1647500D02*
D03*
Y1617750D02*
D03*
X1504250Y1828000D02*
D03*
X1504500Y1797750D02*
D03*
Y1767750D02*
D03*
Y1737750D02*
D03*
X1504250Y1707750D02*
D03*
X1504500Y1677750D02*
D03*
Y1647500D02*
D03*
Y1617750D02*
D03*
X1474750Y1858000D02*
D03*
X1474500Y1828000D02*
D03*
X1474750Y1797750D02*
D03*
Y1767750D02*
D03*
Y1737750D02*
D03*
X1474500Y1707750D02*
D03*
X1474750Y1677750D02*
D03*
Y1647500D02*
D03*
Y1617750D02*
D03*
X1444750Y1858000D02*
D03*
X1444500Y1828000D02*
D03*
X1444750Y1797750D02*
D03*
Y1767750D02*
D03*
Y1737750D02*
D03*
X1444500Y1707750D02*
D03*
X1444750Y1677750D02*
D03*
Y1647500D02*
D03*
Y1617750D02*
D03*
X1414500Y1858000D02*
D03*
X1414250Y1828000D02*
D03*
X1414500Y1797750D02*
D03*
Y1767750D02*
D03*
Y1737750D02*
D03*
X1414250Y1707750D02*
D03*
X1414500Y1677750D02*
D03*
Y1647500D02*
D03*
Y1617750D02*
D03*
X1384250Y1828000D02*
D03*
X1384500Y1797750D02*
D03*
Y1767750D02*
D03*
Y1737750D02*
D03*
X1384250Y1707750D02*
D03*
X1384500Y1677750D02*
D03*
Y1647500D02*
D03*
Y1617750D02*
D03*
X1354500Y1857750D02*
D03*
X1354250Y1827750D02*
D03*
X1354500Y1797500D02*
D03*
Y1767500D02*
D03*
Y1737500D02*
D03*
X1354250Y1707500D02*
D03*
X1354500Y1677500D02*
D03*
Y1647250D02*
D03*
Y1617500D02*
D03*
X2024524Y1336804D02*
D03*
X1820774Y1248054D02*
D03*
X1903774Y1260704D02*
D03*
X1845024Y1246304D02*
D03*
X2327524Y1319804D02*
D03*
X2440524Y1292054D02*
D03*
X2422774Y1427054D02*
D03*
X2447774Y1438323D02*
D03*
Y1446354D02*
D03*
X1730381Y1287054D02*
D03*
Y1272054D02*
D03*
X1728494Y1262054D02*
D03*
Y1247054D02*
D03*
X2103974Y1287054D02*
D03*
X2032774D02*
D03*
X1849674D02*
D03*
X2267274Y1334554D02*
D03*
X2184274Y1334804D02*
D03*
X2125072Y1277054D02*
D03*
X2154274Y1324054D02*
D03*
X1729524Y1323554D02*
D03*
X1900274Y1324054D02*
D03*
X2031274Y1318804D02*
D03*
X2154274Y1361554D02*
D03*
X1900024Y1391904D02*
D03*
X1839274Y1362304D02*
D03*
X1900524Y1337554D02*
D03*
X1846274Y1387554D02*
D03*
X1809524Y1374304D02*
D03*
X1668024Y1357054D02*
D03*
X1657774Y1374804D02*
D03*
X2262284Y1391904D02*
D03*
X2277974Y1391804D02*
D03*
X2136274Y1354554D02*
D03*
Y1341854D02*
D03*
X2179024Y1411804D02*
D03*
X2219274Y1394054D02*
D03*
X2351274Y1402054D02*
D03*
X2346274Y1493554D02*
D03*
X2385774Y1327804D02*
D03*
X2434524Y1343054D02*
D03*
X2381024Y1375804D02*
D03*
X2368274Y1320954D02*
D03*
X2367024Y1472304D02*
D03*
D74*
X2031500Y1597000D02*
D03*
X2031600Y1907250D02*
D03*
X1397000Y1907250D02*
D03*
X2031774Y1217274D02*
D03*
X1397274Y1527524D02*
D03*
X2031874Y1527524D02*
D03*
D75*
X2082300Y1597000D02*
D03*
X2107700D02*
D03*
X2133100D02*
D03*
X2158500D02*
D03*
X2183900D02*
D03*
X2209300D02*
D03*
X2234700D02*
D03*
X2056900D02*
D03*
X2361800Y1907250D02*
D03*
X2336400D02*
D03*
X2311000D02*
D03*
X2285600D02*
D03*
X2260200D02*
D03*
X2234800D02*
D03*
X2209400D02*
D03*
X2184000D02*
D03*
X2158600D02*
D03*
X2133200D02*
D03*
X2107800D02*
D03*
X2082400D02*
D03*
X2057000D02*
D03*
X1422400Y1907250D02*
D03*
X1447800D02*
D03*
X1473200D02*
D03*
X1498600D02*
D03*
X1524000D02*
D03*
X1549400D02*
D03*
X1574800D02*
D03*
X1600200D02*
D03*
X1625600D02*
D03*
X1651000D02*
D03*
X1676400D02*
D03*
X1701800D02*
D03*
X1727200D02*
D03*
X1752600D02*
D03*
X1778000D02*
D03*
X1803400D02*
D03*
X1828800D02*
D03*
X1854200D02*
D03*
X1879600D02*
D03*
X1905000D02*
D03*
X1930400D02*
D03*
X1955800D02*
D03*
X1981200D02*
D03*
X2006600D02*
D03*
X1274774Y1269654D02*
D03*
Y1295054D02*
D03*
Y1320454D02*
D03*
X2057174Y1217274D02*
D03*
X2234974D02*
D03*
X2209574D02*
D03*
X2184174D02*
D03*
X2158774D02*
D03*
X2133374D02*
D03*
X2107974D02*
D03*
X2082574D02*
D03*
X2260474Y1527524D02*
D03*
X2285874D02*
D03*
X2362074D02*
D03*
X2336674D02*
D03*
X2311274D02*
D03*
X2235074D02*
D03*
X1829074Y1527524D02*
D03*
X1803674D02*
D03*
X1778274D02*
D03*
X1676674D02*
D03*
X1702074D02*
D03*
X1727474D02*
D03*
X1752874D02*
D03*
X1854474D02*
D03*
X1422674D02*
D03*
X1448074D02*
D03*
X1473474D02*
D03*
X1498874D02*
D03*
X1524274D02*
D03*
X1549674D02*
D03*
X1575074D02*
D03*
X1600474D02*
D03*
X1625874D02*
D03*
X1651274D02*
D03*
X1879874D02*
D03*
X1905274D02*
D03*
X1930674D02*
D03*
X1956074D02*
D03*
X1981474D02*
D03*
X2006874D02*
D03*
X2209674Y1527524D02*
D03*
X2184274D02*
D03*
X2158874D02*
D03*
X2133474D02*
D03*
X2108074D02*
D03*
X2082674D02*
D03*
X2057274D02*
D03*
D76*
X1279000Y1602000D02*
D03*
X2479000D02*
D03*
Y1902000D02*
D03*
X1279000D02*
D03*
X1279274Y1522274D02*
D03*
X2479274D02*
D03*
Y1222274D02*
D03*
X1279274D02*
D03*
D77*
X1274774Y1345854D02*
D03*
D78*
X2485154Y1482054D02*
D03*
X2494394D02*
D03*
Y1397554D02*
D03*
X2485154D02*
D03*
D79*
X2481024D02*
D03*
X2498524D02*
D03*
Y1482054D02*
D03*
X2481024D02*
D03*
D80*
X2464024Y1403804D02*
D03*
Y1475804D02*
D03*
D81*
X1341275Y1398954D02*
D03*
Y1424354D02*
D03*
Y1449754D02*
D03*
Y1475154D02*
D03*
D82*
X1264274Y1431553D02*
D03*
Y1461555D02*
D03*
D83*
X2057774Y1412054D02*
D03*
X2065274D02*
D03*
Y1444554D02*
D03*
X2027774Y1412054D02*
D03*
Y1404554D02*
D03*
X2035274Y1412054D02*
D03*
X2042774D02*
D03*
X2050274D02*
D03*
X2065274Y1404554D02*
D03*
X2057774D02*
D03*
X2050274D02*
D03*
X2042774D02*
D03*
X2035274D02*
D03*
X2027774Y1429554D02*
D03*
X2035274D02*
D03*
X2042774D02*
D03*
X2050274D02*
D03*
X2057774D02*
D03*
X2065274D02*
D03*
Y1437054D02*
D03*
X2057774D02*
D03*
X2050274D02*
D03*
X2042774D02*
D03*
X2035274D02*
D03*
X2027774D02*
D03*
Y1444554D02*
D03*
X2035274D02*
D03*
X2042774D02*
D03*
X2050274D02*
D03*
X2057774D02*
D03*
X2105224Y1418354D02*
D03*
X2109274Y1428804D02*
D03*
X2097024Y1424304D02*
D03*
X2098274Y1409054D02*
D03*
X2094024Y1400054D02*
D03*
D84*
X2075024Y1391904D02*
D03*
X2071024D02*
D03*
X2067024D02*
D03*
X2063024D02*
D03*
X2059024D02*
D03*
X2055024D02*
D03*
X2051024D02*
D03*
X2047024D02*
D03*
X2043024D02*
D03*
X2039024D02*
D03*
X2035024D02*
D03*
X2031024D02*
D03*
X2027024D02*
D03*
X2023024D02*
D03*
X2019024D02*
D03*
Y1460804D02*
D03*
X2023024D02*
D03*
X2027024D02*
D03*
X2031024D02*
D03*
X2035024D02*
D03*
X2039024D02*
D03*
X2043024D02*
D03*
X2047024D02*
D03*
X2051024D02*
D03*
X2055024D02*
D03*
X2059024D02*
D03*
X2063024D02*
D03*
X2067024D02*
D03*
X2071024D02*
D03*
X2075024D02*
D03*
D85*
X2081474Y1454354D02*
D03*
Y1450354D02*
D03*
Y1446354D02*
D03*
Y1442354D02*
D03*
Y1438354D02*
D03*
Y1434354D02*
D03*
Y1430354D02*
D03*
Y1426354D02*
D03*
Y1422354D02*
D03*
Y1418354D02*
D03*
Y1414354D02*
D03*
Y1410354D02*
D03*
Y1406354D02*
D03*
Y1402354D02*
D03*
Y1398354D02*
D03*
X2012574D02*
D03*
Y1402354D02*
D03*
Y1406354D02*
D03*
Y1410354D02*
D03*
Y1414354D02*
D03*
Y1418354D02*
D03*
Y1422354D02*
D03*
Y1426354D02*
D03*
Y1430354D02*
D03*
Y1434354D02*
D03*
Y1438354D02*
D03*
Y1442354D02*
D03*
Y1446354D02*
D03*
Y1450354D02*
D03*
Y1454354D02*
D03*
D86*
X2047024Y1426354D02*
D03*
D87*
X2458274Y1305304D02*
D03*
Y1292804D02*
D03*
D88*
X2487274Y1330804D02*
D03*
Y1267304D02*
D03*
D89*
X2461024Y1426804D02*
D03*
Y1433304D02*
D03*
Y1439804D02*
D03*
Y1446304D02*
D03*
Y1452804D02*
D03*
D90*
X2314023Y1255304D02*
D03*
X2393525D02*
D03*
X2314023Y1300303D02*
D03*
X2393525D02*
D03*
D91*
X2495394Y1375054D02*
D03*
X2479394D02*
D03*
X2495394Y1359054D02*
D03*
X2479394D02*
D03*
X1748004Y1262554D02*
D03*
X1764004D02*
D03*
X1748004Y1281554D02*
D03*
X1764004D02*
D03*
X1748004Y1244304D02*
D03*
X1764004D02*
D03*
X1747904Y1301054D02*
D03*
X1763904D02*
D03*
D92*
X1395273Y1234853D02*
D03*
Y1314355D02*
D03*
X1350274Y1234853D02*
D03*
Y1314355D02*
D03*
X1690273Y1234853D02*
D03*
Y1314355D02*
D03*
X1645274Y1234853D02*
D03*
Y1314355D02*
D03*
X1542773Y1234853D02*
D03*
Y1314355D02*
D03*
X1497774Y1234853D02*
D03*
Y1314355D02*
D03*
M02*
