G04*
G04 #@! TF.GenerationSoftware,Altium Limited,Altium Designer,18.1.9 (240)*
G04*
G04 Layer_Color=65535*
%FSLAX44Y44*%
%MOMM*%
G71*
G01*
G75*
%ADD11C,0.2540*%
%ADD27C,0.1270*%
%ADD29C,0.2500*%
%ADD53C,0.2000*%
%ADD54C,0.2032*%
%ADD55C,0.3000*%
%ADD56R,1.8000X0.5080*%
G36*
X1704107Y1142312D02*
X1704644Y1142263D01*
X1705279Y1142166D01*
X1705963Y1142068D01*
X1706695Y1141922D01*
X1706109Y1138504D01*
X1706060D01*
X1705914Y1138553D01*
X1705670Y1138602D01*
X1705377Y1138651D01*
X1704986D01*
X1704595Y1138700D01*
X1703766Y1138748D01*
X1703473D01*
X1703180Y1138700D01*
X1702789Y1138651D01*
X1702399Y1138553D01*
X1701959Y1138407D01*
X1701569Y1138211D01*
X1701227Y1137967D01*
X1701178Y1137918D01*
X1701129Y1137821D01*
X1700983Y1137626D01*
X1700885Y1137333D01*
X1700739Y1136942D01*
X1700592Y1136405D01*
X1700544Y1135819D01*
X1700495Y1135087D01*
Y1132988D01*
X1705035D01*
Y1129912D01*
X1700544D01*
Y1109750D01*
X1696589D01*
Y1129912D01*
X1693123D01*
Y1132988D01*
X1696589D01*
Y1135429D01*
Y1135478D01*
Y1135526D01*
Y1135819D01*
X1696638Y1136210D01*
Y1136747D01*
X1696687Y1137284D01*
X1696785Y1137870D01*
X1696882Y1138407D01*
X1697029Y1138895D01*
X1697077Y1138944D01*
X1697126Y1139139D01*
X1697273Y1139432D01*
X1697468Y1139774D01*
X1697761Y1140213D01*
X1698103Y1140604D01*
X1698493Y1140994D01*
X1698981Y1141385D01*
X1699030Y1141433D01*
X1699274Y1141531D01*
X1699567Y1141678D01*
X1700055Y1141873D01*
X1700592Y1142068D01*
X1701325Y1142215D01*
X1702106Y1142312D01*
X1703033Y1142361D01*
X1703668D01*
X1704107Y1142312D01*
D02*
G37*
G36*
X1266593Y1137333D02*
X1262639D01*
Y1141824D01*
X1266593D01*
Y1137333D01*
D02*
G37*
G36*
X1379902Y1142312D02*
X1380292Y1142263D01*
X1380780Y1142215D01*
X1381317Y1142166D01*
X1381903Y1142068D01*
X1383172Y1141775D01*
X1384539Y1141336D01*
X1385223Y1141043D01*
X1385906Y1140701D01*
X1386541Y1140311D01*
X1387176Y1139871D01*
X1387224Y1139822D01*
X1387322Y1139774D01*
X1387469Y1139627D01*
X1387713Y1139432D01*
X1387957Y1139188D01*
X1388298Y1138846D01*
X1388640Y1138504D01*
X1388982Y1138114D01*
X1389373Y1137626D01*
X1389714Y1137137D01*
X1390105Y1136552D01*
X1390495Y1135917D01*
X1390837Y1135282D01*
X1391179Y1134550D01*
X1391765Y1132988D01*
X1387566Y1132011D01*
Y1132060D01*
X1387517Y1132158D01*
X1387469Y1132353D01*
X1387371Y1132597D01*
X1387224Y1132890D01*
X1387078Y1133232D01*
X1386736Y1133964D01*
X1386297Y1134794D01*
X1385711Y1135673D01*
X1385076Y1136454D01*
X1384295Y1137137D01*
X1384198Y1137186D01*
X1383905Y1137382D01*
X1383466Y1137626D01*
X1382831Y1137967D01*
X1382099Y1138260D01*
X1381171Y1138504D01*
X1380146Y1138700D01*
X1378974Y1138748D01*
X1378632D01*
X1378388Y1138700D01*
X1378047D01*
X1377705Y1138651D01*
X1376826Y1138504D01*
X1375850Y1138309D01*
X1374825Y1137967D01*
X1373799Y1137528D01*
X1372823Y1136942D01*
X1372774D01*
X1372725Y1136844D01*
X1372432Y1136600D01*
X1371993Y1136210D01*
X1371456Y1135673D01*
X1370919Y1134989D01*
X1370333Y1134208D01*
X1369796Y1133232D01*
X1369357Y1132158D01*
Y1132109D01*
X1369308Y1132011D01*
X1369259Y1131865D01*
X1369210Y1131621D01*
X1369113Y1131377D01*
X1369064Y1131035D01*
X1368869Y1130254D01*
X1368673Y1129326D01*
X1368527Y1128301D01*
X1368429Y1127178D01*
X1368380Y1126007D01*
Y1125958D01*
Y1125811D01*
Y1125616D01*
Y1125323D01*
X1368429Y1124982D01*
Y1124542D01*
X1368478Y1124103D01*
X1368527Y1123615D01*
X1368673Y1122492D01*
X1368869Y1121271D01*
X1369162Y1120051D01*
X1369552Y1118879D01*
Y1118830D01*
X1369601Y1118733D01*
X1369699Y1118586D01*
X1369796Y1118391D01*
X1370040Y1117805D01*
X1370431Y1117170D01*
X1370968Y1116389D01*
X1371602Y1115657D01*
X1372335Y1114925D01*
X1373214Y1114290D01*
X1373262D01*
X1373311Y1114241D01*
X1373458Y1114144D01*
X1373653Y1114046D01*
X1374190Y1113851D01*
X1374873Y1113558D01*
X1375654Y1113314D01*
X1376582Y1113070D01*
X1377607Y1112874D01*
X1378681Y1112826D01*
X1379023D01*
X1379267Y1112874D01*
X1379560D01*
X1379951Y1112923D01*
X1380780Y1113070D01*
X1381708Y1113314D01*
X1382733Y1113704D01*
X1383710Y1114193D01*
X1384686Y1114876D01*
X1384735Y1114925D01*
X1384784Y1114974D01*
X1385076Y1115267D01*
X1385516Y1115755D01*
X1386053Y1116389D01*
X1386590Y1117268D01*
X1387176Y1118293D01*
X1387664Y1119563D01*
X1388054Y1120978D01*
X1392302Y1119904D01*
Y1119855D01*
X1392253Y1119660D01*
X1392155Y1119416D01*
X1392058Y1119026D01*
X1391862Y1118635D01*
X1391667Y1118098D01*
X1391472Y1117561D01*
X1391179Y1116975D01*
X1390544Y1115657D01*
X1389665Y1114339D01*
X1388689Y1113070D01*
X1388103Y1112484D01*
X1387469Y1111947D01*
X1387420Y1111898D01*
X1387322Y1111849D01*
X1387127Y1111703D01*
X1386834Y1111507D01*
X1386492Y1111312D01*
X1386102Y1111068D01*
X1385662Y1110824D01*
X1385125Y1110580D01*
X1384539Y1110336D01*
X1383905Y1110092D01*
X1383172Y1109848D01*
X1382440Y1109652D01*
X1380829Y1109311D01*
X1379951Y1109262D01*
X1379023Y1109213D01*
X1378535D01*
X1378144Y1109262D01*
X1377705D01*
X1377217Y1109311D01*
X1376631Y1109408D01*
X1376045Y1109457D01*
X1374678Y1109750D01*
X1373262Y1110092D01*
X1371895Y1110629D01*
X1371212Y1110922D01*
X1370577Y1111312D01*
X1370529Y1111361D01*
X1370431Y1111410D01*
X1370284Y1111556D01*
X1370040Y1111703D01*
X1369454Y1112191D01*
X1368771Y1112874D01*
X1367941Y1113704D01*
X1367160Y1114778D01*
X1366330Y1115999D01*
X1365647Y1117415D01*
Y1117463D01*
X1365598Y1117610D01*
X1365500Y1117805D01*
X1365403Y1118098D01*
X1365256Y1118489D01*
X1365110Y1118928D01*
X1364963Y1119416D01*
X1364817Y1120002D01*
X1364670Y1120588D01*
X1364524Y1121271D01*
X1364231Y1122736D01*
X1364036Y1124298D01*
X1363987Y1126007D01*
Y1126056D01*
Y1126251D01*
Y1126495D01*
X1364036Y1126837D01*
Y1127276D01*
X1364084Y1127813D01*
X1364133Y1128350D01*
X1364231Y1128985D01*
X1364475Y1130352D01*
X1364768Y1131816D01*
X1365256Y1133329D01*
X1365891Y1134745D01*
Y1134794D01*
X1365988Y1134892D01*
X1366086Y1135087D01*
X1366232Y1135380D01*
X1366428Y1135673D01*
X1366672Y1136014D01*
X1367306Y1136844D01*
X1368039Y1137772D01*
X1368966Y1138700D01*
X1370089Y1139627D01*
X1371310Y1140408D01*
X1371358D01*
X1371456Y1140506D01*
X1371651Y1140603D01*
X1371944Y1140701D01*
X1372237Y1140848D01*
X1372628Y1141043D01*
X1373116Y1141189D01*
X1373604Y1141385D01*
X1374141Y1141580D01*
X1374727Y1141726D01*
X1376045Y1142068D01*
X1377510Y1142263D01*
X1379072Y1142361D01*
X1379560D01*
X1379902Y1142312D01*
D02*
G37*
G36*
X1570002Y1109750D02*
X1566341D01*
Y1112630D01*
X1566292Y1112581D01*
X1566243Y1112484D01*
X1566097Y1112337D01*
X1565901Y1112093D01*
X1565706Y1111849D01*
X1565413Y1111556D01*
X1565071Y1111263D01*
X1564681Y1110922D01*
X1564241Y1110629D01*
X1563753Y1110287D01*
X1563216Y1109994D01*
X1562679Y1109750D01*
X1562045Y1109506D01*
X1561361Y1109360D01*
X1560629Y1109262D01*
X1559848Y1109213D01*
X1559555D01*
X1559360Y1109262D01*
X1558823Y1109311D01*
X1558188Y1109408D01*
X1557358Y1109604D01*
X1556528Y1109848D01*
X1555600Y1110238D01*
X1554722Y1110726D01*
X1554673D01*
X1554624Y1110775D01*
X1554331Y1111019D01*
X1553941Y1111361D01*
X1553404Y1111849D01*
X1552867Y1112435D01*
X1552232Y1113167D01*
X1551695Y1113997D01*
X1551158Y1114974D01*
Y1115023D01*
X1551109Y1115120D01*
X1551060Y1115267D01*
X1550963Y1115462D01*
X1550865Y1115706D01*
X1550768Y1116048D01*
X1550523Y1116829D01*
X1550279Y1117756D01*
X1550084Y1118830D01*
X1549938Y1120002D01*
X1549889Y1121320D01*
Y1121369D01*
Y1121467D01*
Y1121662D01*
Y1121906D01*
X1549938Y1122199D01*
Y1122589D01*
X1550035Y1123419D01*
X1550182Y1124396D01*
X1550377Y1125421D01*
X1550621Y1126544D01*
X1551012Y1127618D01*
Y1127667D01*
X1551060Y1127764D01*
X1551158Y1127911D01*
X1551256Y1128106D01*
X1551500Y1128594D01*
X1551890Y1129229D01*
X1552379Y1129961D01*
X1552964Y1130693D01*
X1553648Y1131377D01*
X1554478Y1132011D01*
X1554527D01*
X1554575Y1132060D01*
X1554868Y1132255D01*
X1555356Y1132500D01*
X1555991Y1132793D01*
X1556772Y1133037D01*
X1557651Y1133281D01*
X1558627Y1133476D01*
X1559653Y1133525D01*
X1559994D01*
X1560385Y1133476D01*
X1560922Y1133427D01*
X1561459Y1133281D01*
X1562093Y1133134D01*
X1562728Y1132890D01*
X1563363Y1132597D01*
X1563460Y1132548D01*
X1563656Y1132451D01*
X1563949Y1132255D01*
X1564339Y1131963D01*
X1564730Y1131670D01*
X1565218Y1131279D01*
X1565657Y1130791D01*
X1566048Y1130303D01*
Y1141824D01*
X1570002D01*
Y1109750D01*
D02*
G37*
G36*
X1470558Y1133427D02*
X1471242Y1133329D01*
X1472072Y1133134D01*
X1472950Y1132890D01*
X1473829Y1132500D01*
X1474708Y1131963D01*
X1474757D01*
X1474805Y1131914D01*
X1475098Y1131670D01*
X1475489Y1131328D01*
X1476026Y1130840D01*
X1476563Y1130254D01*
X1477149Y1129473D01*
X1477686Y1128643D01*
X1478174Y1127618D01*
Y1127569D01*
X1478223Y1127471D01*
X1478272Y1127325D01*
X1478369Y1127130D01*
X1478467Y1126886D01*
X1478564Y1126544D01*
X1478760Y1125811D01*
X1478955Y1124884D01*
X1479150Y1123859D01*
X1479297Y1122736D01*
X1479346Y1121515D01*
Y1121467D01*
Y1121369D01*
Y1121174D01*
Y1120930D01*
X1479297Y1120588D01*
Y1120246D01*
X1479199Y1119367D01*
X1479004Y1118391D01*
X1478809Y1117317D01*
X1478467Y1116194D01*
X1478027Y1115071D01*
Y1115023D01*
X1477979Y1114925D01*
X1477881Y1114778D01*
X1477783Y1114583D01*
X1477491Y1114095D01*
X1477100Y1113460D01*
X1476563Y1112777D01*
X1475928Y1112045D01*
X1475196Y1111361D01*
X1474317Y1110726D01*
X1474268D01*
X1474220Y1110678D01*
X1474073Y1110580D01*
X1473878Y1110482D01*
X1473390Y1110238D01*
X1472755Y1109994D01*
X1471974Y1109701D01*
X1471144Y1109457D01*
X1470168Y1109262D01*
X1469191Y1109213D01*
X1468849D01*
X1468508Y1109262D01*
X1468020Y1109311D01*
X1467483Y1109408D01*
X1466897Y1109555D01*
X1466262Y1109750D01*
X1465676Y1109994D01*
X1465627Y1110043D01*
X1465432Y1110141D01*
X1465139Y1110336D01*
X1464798Y1110580D01*
X1464358Y1110873D01*
X1463968Y1111215D01*
X1463528Y1111654D01*
X1463138Y1112093D01*
Y1100865D01*
X1459183D01*
Y1132988D01*
X1462796D01*
Y1129961D01*
X1462845Y1130059D01*
X1462991Y1130254D01*
X1463284Y1130547D01*
X1463626Y1130937D01*
X1464017Y1131377D01*
X1464505Y1131816D01*
X1465042Y1132255D01*
X1465627Y1132597D01*
X1465725Y1132646D01*
X1465920Y1132744D01*
X1466262Y1132890D01*
X1466702Y1133085D01*
X1467287Y1133232D01*
X1467922Y1133378D01*
X1468654Y1133476D01*
X1469484Y1133525D01*
X1469972D01*
X1470558Y1133427D01*
D02*
G37*
G36*
X1744725Y1133476D02*
X1745213Y1133427D01*
X1745799Y1133330D01*
X1746482Y1133183D01*
X1747117Y1132988D01*
X1747800Y1132744D01*
X1747898Y1132695D01*
X1748093Y1132597D01*
X1748386Y1132451D01*
X1748777Y1132207D01*
X1749216Y1131914D01*
X1749655Y1131572D01*
X1750095Y1131182D01*
X1750436Y1130742D01*
X1750485Y1130693D01*
X1750583Y1130547D01*
X1750729Y1130254D01*
X1750925Y1129912D01*
X1751120Y1129522D01*
X1751315Y1129034D01*
X1751510Y1128448D01*
X1751657Y1127862D01*
Y1127813D01*
X1751706Y1127667D01*
X1751754Y1127374D01*
X1751803Y1126983D01*
Y1126446D01*
X1751852Y1125763D01*
X1751901Y1124982D01*
Y1124005D01*
Y1109750D01*
X1747947D01*
Y1123859D01*
Y1123908D01*
Y1123956D01*
Y1124249D01*
Y1124689D01*
X1747898Y1125226D01*
X1747849Y1125763D01*
X1747751Y1126397D01*
X1747605Y1126934D01*
X1747458Y1127422D01*
Y1127471D01*
X1747361Y1127618D01*
X1747263Y1127862D01*
X1747117Y1128106D01*
X1746873Y1128448D01*
X1746580Y1128741D01*
X1746238Y1129082D01*
X1745847Y1129375D01*
X1745799Y1129424D01*
X1745652Y1129473D01*
X1745408Y1129619D01*
X1745066Y1129766D01*
X1744676Y1129864D01*
X1744188Y1130010D01*
X1743699Y1130059D01*
X1743114Y1130107D01*
X1742674D01*
X1742235Y1130010D01*
X1741600Y1129912D01*
X1740917Y1129717D01*
X1740233Y1129424D01*
X1739452Y1129034D01*
X1738769Y1128496D01*
X1738671Y1128399D01*
X1738476Y1128155D01*
X1738183Y1127764D01*
X1738036Y1127471D01*
X1737890Y1127130D01*
X1737695Y1126739D01*
X1737548Y1126300D01*
X1737402Y1125811D01*
X1737255Y1125275D01*
X1737109Y1124640D01*
X1737060Y1123956D01*
X1736962Y1123224D01*
Y1122443D01*
Y1109750D01*
X1733008D01*
Y1132988D01*
X1736572D01*
Y1129668D01*
X1736621Y1129717D01*
X1736669Y1129815D01*
X1736816Y1130010D01*
X1737060Y1130254D01*
X1737304Y1130547D01*
X1737646Y1130889D01*
X1737988Y1131230D01*
X1738427Y1131621D01*
X1738964Y1131963D01*
X1739501Y1132304D01*
X1740087Y1132646D01*
X1740770Y1132939D01*
X1741454Y1133183D01*
X1742235Y1133378D01*
X1743065Y1133476D01*
X1743943Y1133525D01*
X1744285D01*
X1744725Y1133476D01*
D02*
G37*
G36*
X1889131Y1133476D02*
X1889668Y1133378D01*
X1890253Y1133183D01*
X1890937Y1132988D01*
X1891669Y1132646D01*
X1892450Y1132207D01*
X1891035Y1128594D01*
X1890986Y1128643D01*
X1890790Y1128741D01*
X1890497Y1128887D01*
X1890156Y1129034D01*
X1889716Y1129180D01*
X1889228Y1129326D01*
X1888691Y1129424D01*
X1888154Y1129473D01*
X1887959D01*
X1887715Y1129424D01*
X1887373Y1129375D01*
X1887031Y1129278D01*
X1886641Y1129131D01*
X1886250Y1128936D01*
X1885860Y1128692D01*
X1885811Y1128643D01*
X1885713Y1128545D01*
X1885518Y1128350D01*
X1885323Y1128106D01*
X1885079Y1127813D01*
X1884834Y1127422D01*
X1884639Y1126983D01*
X1884444Y1126495D01*
X1884395Y1126397D01*
X1884346Y1126153D01*
X1884249Y1125714D01*
X1884151Y1125128D01*
X1884005Y1124445D01*
X1883907Y1123663D01*
X1883858Y1122833D01*
X1883809Y1121906D01*
Y1109750D01*
X1879855D01*
Y1132988D01*
X1883419D01*
Y1129522D01*
X1883468Y1129570D01*
X1883663Y1129864D01*
X1883907Y1130303D01*
X1884200Y1130791D01*
X1884590Y1131328D01*
X1885030Y1131865D01*
X1885420Y1132353D01*
X1885860Y1132695D01*
X1885909Y1132744D01*
X1886055Y1132841D01*
X1886299Y1132939D01*
X1886641Y1133134D01*
X1886983Y1133281D01*
X1887422Y1133378D01*
X1887910Y1133476D01*
X1888398Y1133525D01*
X1888740D01*
X1889131Y1133476D01*
D02*
G37*
G36*
X1446832Y1133476D02*
X1447125D01*
X1447467Y1133427D01*
X1448199Y1133281D01*
X1449078Y1133037D01*
X1449957Y1132695D01*
X1450787Y1132207D01*
X1451568Y1131572D01*
X1451665Y1131474D01*
X1451861Y1131230D01*
X1452153Y1130742D01*
X1452544Y1130107D01*
X1452886Y1129278D01*
X1453179Y1128301D01*
X1453374Y1127081D01*
X1453472Y1126397D01*
Y1125665D01*
Y1109750D01*
X1449517Y1109750D01*
Y1124347D01*
Y1124396D01*
Y1124445D01*
Y1124737D01*
Y1125177D01*
X1449469Y1125665D01*
X1449371Y1126788D01*
X1449273Y1127325D01*
X1449127Y1127764D01*
Y1127813D01*
X1449029Y1127959D01*
X1448931Y1128155D01*
X1448785Y1128399D01*
X1448590Y1128643D01*
X1448346Y1128936D01*
X1448053Y1129229D01*
X1447711Y1129473D01*
X1447662Y1129522D01*
X1447516Y1129570D01*
X1447320Y1129668D01*
X1447076Y1129815D01*
X1446735Y1129912D01*
X1446295Y1130010D01*
X1445856Y1130059D01*
X1445368Y1130107D01*
X1444977D01*
X1444489Y1130010D01*
X1443952Y1129912D01*
X1443317Y1129717D01*
X1442634Y1129424D01*
X1441902Y1128985D01*
X1441267Y1128448D01*
X1441218Y1128350D01*
X1441023Y1128155D01*
X1440779Y1127764D01*
X1440486Y1127178D01*
X1440144Y1126446D01*
X1439900Y1125567D01*
X1439705Y1124493D01*
X1439656Y1123224D01*
Y1109750D01*
X1435702D01*
Y1124835D01*
Y1124884D01*
Y1124933D01*
Y1125079D01*
Y1125274D01*
X1435653Y1125763D01*
X1435604Y1126300D01*
X1435457Y1126983D01*
X1435311Y1127618D01*
X1435067Y1128252D01*
X1434725Y1128789D01*
X1434676Y1128838D01*
X1434530Y1128985D01*
X1434335Y1129229D01*
X1433993Y1129473D01*
X1433553Y1129668D01*
X1433017Y1129912D01*
X1432382Y1130059D01*
X1431601Y1130107D01*
X1431308D01*
X1431015Y1130059D01*
X1430576Y1130010D01*
X1430136Y1129912D01*
X1429599Y1129717D01*
X1429062Y1129522D01*
X1428525Y1129229D01*
X1428476Y1129180D01*
X1428281Y1129082D01*
X1428037Y1128838D01*
X1427744Y1128594D01*
X1427402Y1128204D01*
X1427061Y1127764D01*
X1426768Y1127227D01*
X1426475Y1126641D01*
X1426426Y1126544D01*
X1426377Y1126348D01*
X1426279Y1125958D01*
X1426182Y1125421D01*
X1426035Y1124737D01*
X1425938Y1123907D01*
X1425889Y1122931D01*
X1425840Y1121808D01*
Y1109750D01*
X1421886D01*
Y1132988D01*
X1425401D01*
Y1129717D01*
X1425450Y1129815D01*
X1425596Y1130010D01*
X1425840Y1130303D01*
X1426182Y1130693D01*
X1426573Y1131133D01*
X1427061Y1131572D01*
X1427646Y1132060D01*
X1428281Y1132451D01*
X1428379Y1132500D01*
X1428623Y1132597D01*
X1429013Y1132793D01*
X1429502Y1132988D01*
X1430136Y1133183D01*
X1430820Y1133378D01*
X1431650Y1133476D01*
X1432480Y1133525D01*
X1432919D01*
X1433407Y1133476D01*
X1433993Y1133378D01*
X1434628Y1133281D01*
X1435360Y1133085D01*
X1436043Y1132793D01*
X1436678Y1132451D01*
X1436776Y1132402D01*
X1436971Y1132255D01*
X1437264Y1132011D01*
X1437605Y1131670D01*
X1437996Y1131230D01*
X1438387Y1130742D01*
X1438728Y1130107D01*
X1439021Y1129424D01*
X1439070Y1129473D01*
X1439168Y1129619D01*
X1439314Y1129815D01*
X1439509Y1130059D01*
X1439802Y1130400D01*
X1440144Y1130742D01*
X1440535Y1131084D01*
X1440974Y1131474D01*
X1441462Y1131865D01*
X1441999Y1132207D01*
X1443268Y1132890D01*
X1443952Y1133134D01*
X1444684Y1133329D01*
X1445417Y1133476D01*
X1446246Y1133525D01*
X1446588D01*
X1446832Y1133476D01*
D02*
G37*
G36*
X1766498Y1133476D02*
X1767132Y1133427D01*
X1767914Y1133330D01*
X1768695Y1133183D01*
X1769525Y1132988D01*
X1770306Y1132695D01*
X1770354D01*
X1770403Y1132646D01*
X1770647Y1132549D01*
X1771038Y1132353D01*
X1771477Y1132158D01*
X1771965Y1131816D01*
X1772502Y1131475D01*
X1772991Y1131035D01*
X1773381Y1130547D01*
X1773430Y1130498D01*
X1773528Y1130303D01*
X1773723Y1130010D01*
X1773967Y1129619D01*
X1774162Y1129131D01*
X1774406Y1128496D01*
X1774602Y1127813D01*
X1774797Y1127032D01*
X1770940Y1126495D01*
Y1126593D01*
X1770892Y1126788D01*
X1770794Y1127130D01*
X1770647Y1127520D01*
X1770452Y1127960D01*
X1770159Y1128399D01*
X1769817Y1128887D01*
X1769378Y1129278D01*
X1769329Y1129326D01*
X1769134Y1129424D01*
X1768841Y1129619D01*
X1768450Y1129815D01*
X1767962Y1129961D01*
X1767328Y1130156D01*
X1766644Y1130254D01*
X1765814Y1130303D01*
X1765375D01*
X1764887Y1130254D01*
X1764301Y1130205D01*
X1763666Y1130059D01*
X1763032Y1129912D01*
X1762397Y1129668D01*
X1761909Y1129375D01*
X1761860Y1129326D01*
X1761714Y1129229D01*
X1761567Y1129034D01*
X1761372Y1128789D01*
X1761128Y1128496D01*
X1760981Y1128106D01*
X1760835Y1127715D01*
X1760786Y1127276D01*
Y1127227D01*
Y1127130D01*
X1760835Y1126983D01*
Y1126788D01*
X1760981Y1126348D01*
X1761225Y1125860D01*
X1761274Y1125811D01*
X1761323Y1125763D01*
X1761616Y1125519D01*
X1761811Y1125323D01*
X1762055Y1125177D01*
X1762397Y1124982D01*
X1762739Y1124835D01*
X1762787D01*
X1762885Y1124786D01*
X1763080Y1124737D01*
X1763422Y1124640D01*
X1763862Y1124493D01*
X1764496Y1124298D01*
X1765277Y1124103D01*
X1765717Y1123956D01*
X1766254Y1123810D01*
X1766302D01*
X1766449Y1123761D01*
X1766644Y1123712D01*
X1766937Y1123615D01*
X1767279Y1123517D01*
X1767669Y1123419D01*
X1768548Y1123175D01*
X1769525Y1122882D01*
X1770501Y1122541D01*
X1771380Y1122248D01*
X1771770Y1122101D01*
X1772112Y1121955D01*
X1772210Y1121906D01*
X1772405Y1121808D01*
X1772698Y1121662D01*
X1773040Y1121467D01*
X1773479Y1121174D01*
X1773918Y1120783D01*
X1774309Y1120393D01*
X1774699Y1119904D01*
X1774748Y1119856D01*
X1774846Y1119660D01*
X1774992Y1119367D01*
X1775188Y1118977D01*
X1775383Y1118489D01*
X1775529Y1117903D01*
X1775627Y1117268D01*
X1775676Y1116536D01*
Y1116438D01*
Y1116194D01*
X1775627Y1115804D01*
X1775529Y1115364D01*
X1775383Y1114778D01*
X1775188Y1114144D01*
X1774895Y1113509D01*
X1774504Y1112826D01*
X1774455Y1112728D01*
X1774309Y1112533D01*
X1774016Y1112240D01*
X1773625Y1111849D01*
X1773186Y1111410D01*
X1772600Y1110971D01*
X1771917Y1110531D01*
X1771136Y1110141D01*
X1771038Y1110092D01*
X1770745Y1109994D01*
X1770306Y1109848D01*
X1769720Y1109701D01*
X1768987Y1109506D01*
X1768158Y1109360D01*
X1767230Y1109262D01*
X1766254Y1109213D01*
X1765814D01*
X1765521Y1109262D01*
X1765131D01*
X1764691Y1109311D01*
X1763666Y1109457D01*
X1762543Y1109652D01*
X1761421Y1109994D01*
X1760298Y1110434D01*
X1759810Y1110726D01*
X1759321Y1111068D01*
X1759273D01*
X1759224Y1111166D01*
X1758931Y1111410D01*
X1758540Y1111849D01*
X1758052Y1112484D01*
X1757564Y1113265D01*
X1757076Y1114241D01*
X1756636Y1115364D01*
X1756344Y1116682D01*
X1760249Y1117317D01*
Y1117268D01*
Y1117219D01*
X1760298Y1116926D01*
X1760444Y1116487D01*
X1760591Y1115950D01*
X1760835Y1115364D01*
X1761128Y1114778D01*
X1761567Y1114193D01*
X1762055Y1113656D01*
X1762104Y1113607D01*
X1762348Y1113460D01*
X1762690Y1113265D01*
X1763129Y1113070D01*
X1763764Y1112826D01*
X1764447Y1112630D01*
X1765326Y1112484D01*
X1766254Y1112435D01*
X1766693D01*
X1767181Y1112484D01*
X1767767Y1112582D01*
X1768450Y1112679D01*
X1769134Y1112875D01*
X1769769Y1113167D01*
X1770306Y1113509D01*
X1770354Y1113558D01*
X1770501Y1113704D01*
X1770745Y1113949D01*
X1770989Y1114241D01*
X1771184Y1114632D01*
X1771429Y1115120D01*
X1771575Y1115608D01*
X1771624Y1116145D01*
Y1116194D01*
Y1116389D01*
X1771575Y1116585D01*
X1771477Y1116926D01*
X1771331Y1117219D01*
X1771136Y1117610D01*
X1770843Y1117952D01*
X1770452Y1118245D01*
X1770403Y1118293D01*
X1770257Y1118342D01*
X1770013Y1118440D01*
X1769622Y1118635D01*
X1769085Y1118782D01*
X1768402Y1119026D01*
X1767962Y1119172D01*
X1767523Y1119270D01*
X1766986Y1119416D01*
X1766400Y1119563D01*
X1766351D01*
X1766205Y1119612D01*
X1766010Y1119660D01*
X1765717Y1119758D01*
X1765326Y1119856D01*
X1764936Y1119953D01*
X1764008Y1120246D01*
X1763032Y1120539D01*
X1762006Y1120832D01*
X1761079Y1121174D01*
X1760688Y1121320D01*
X1760347Y1121467D01*
X1760298Y1121515D01*
X1760054Y1121613D01*
X1759761Y1121808D01*
X1759419Y1122052D01*
X1758980Y1122345D01*
X1758589Y1122736D01*
X1758150Y1123175D01*
X1757808Y1123663D01*
X1757759Y1123712D01*
X1757662Y1123908D01*
X1757564Y1124201D01*
X1757417Y1124591D01*
X1757222Y1125030D01*
X1757125Y1125567D01*
X1757027Y1126153D01*
X1756978Y1126788D01*
Y1126837D01*
Y1127032D01*
X1757027Y1127374D01*
X1757076Y1127715D01*
X1757125Y1128155D01*
X1757271Y1128643D01*
X1757417Y1129180D01*
X1757662Y1129668D01*
X1757710Y1129717D01*
X1757808Y1129912D01*
X1757955Y1130156D01*
X1758199Y1130449D01*
X1758443Y1130791D01*
X1758784Y1131133D01*
X1759175Y1131523D01*
X1759614Y1131865D01*
X1759663Y1131914D01*
X1759810Y1131963D01*
X1760005Y1132109D01*
X1760298Y1132256D01*
X1760639Y1132451D01*
X1761079Y1132646D01*
X1761567Y1132841D01*
X1762104Y1133037D01*
X1762202D01*
X1762397Y1133134D01*
X1762690Y1133183D01*
X1763129Y1133281D01*
X1763666Y1133378D01*
X1764203Y1133427D01*
X1764838Y1133525D01*
X1765961D01*
X1766498Y1133476D01*
D02*
G37*
G36*
X1338406Y1133476D02*
X1339040Y1133427D01*
X1339821Y1133329D01*
X1340603Y1133183D01*
X1341432Y1132988D01*
X1342214Y1132695D01*
X1342262D01*
X1342311Y1132646D01*
X1342555Y1132548D01*
X1342946Y1132353D01*
X1343385Y1132158D01*
X1343873Y1131816D01*
X1344410Y1131474D01*
X1344899Y1131035D01*
X1345289Y1130547D01*
X1345338Y1130498D01*
X1345436Y1130303D01*
X1345631Y1130010D01*
X1345875Y1129619D01*
X1346070Y1129131D01*
X1346314Y1128496D01*
X1346510Y1127813D01*
X1346705Y1127032D01*
X1342848Y1126495D01*
Y1126592D01*
X1342799Y1126788D01*
X1342702Y1127130D01*
X1342555Y1127520D01*
X1342360Y1127959D01*
X1342067Y1128399D01*
X1341725Y1128887D01*
X1341286Y1129277D01*
X1341237Y1129326D01*
X1341042Y1129424D01*
X1340749Y1129619D01*
X1340358Y1129815D01*
X1339870Y1129961D01*
X1339236Y1130156D01*
X1338552Y1130254D01*
X1337722Y1130303D01*
X1337283D01*
X1336795Y1130254D01*
X1336209Y1130205D01*
X1335574Y1130059D01*
X1334940Y1129912D01*
X1334305Y1129668D01*
X1333817Y1129375D01*
X1333768Y1129326D01*
X1333622Y1129229D01*
X1333475Y1129034D01*
X1333280Y1128789D01*
X1333036Y1128496D01*
X1332889Y1128106D01*
X1332743Y1127715D01*
X1332694Y1127276D01*
Y1127227D01*
Y1127130D01*
X1332743Y1126983D01*
Y1126788D01*
X1332889Y1126348D01*
X1333133Y1125860D01*
X1333182Y1125811D01*
X1333231Y1125763D01*
X1333524Y1125518D01*
X1333719Y1125323D01*
X1333963Y1125177D01*
X1334305Y1124982D01*
X1334647Y1124835D01*
X1334695D01*
X1334793Y1124786D01*
X1334988Y1124737D01*
X1335330Y1124640D01*
X1335770Y1124493D01*
X1336404Y1124298D01*
X1337185Y1124103D01*
X1337625Y1123956D01*
X1338162Y1123810D01*
X1338210D01*
X1338357Y1123761D01*
X1338552Y1123712D01*
X1338845Y1123615D01*
X1339187Y1123517D01*
X1339577Y1123419D01*
X1340456Y1123175D01*
X1341432Y1122882D01*
X1342409Y1122541D01*
X1343288Y1122248D01*
X1343678Y1122101D01*
X1344020Y1121955D01*
X1344117Y1121906D01*
X1344313Y1121808D01*
X1344606Y1121662D01*
X1344947Y1121467D01*
X1345387Y1121174D01*
X1345826Y1120783D01*
X1346217Y1120393D01*
X1346607Y1119904D01*
X1346656Y1119855D01*
X1346754Y1119660D01*
X1346900Y1119367D01*
X1347095Y1118977D01*
X1347291Y1118489D01*
X1347437Y1117903D01*
X1347535Y1117268D01*
X1347584Y1116536D01*
Y1116438D01*
Y1116194D01*
X1347535Y1115804D01*
X1347437Y1115364D01*
X1347291Y1114778D01*
X1347095Y1114144D01*
X1346803Y1113509D01*
X1346412Y1112826D01*
X1346363Y1112728D01*
X1346217Y1112533D01*
X1345924Y1112240D01*
X1345533Y1111849D01*
X1345094Y1111410D01*
X1344508Y1110971D01*
X1343825Y1110531D01*
X1343044Y1110141D01*
X1342946Y1110092D01*
X1342653Y1109994D01*
X1342214Y1109848D01*
X1341628Y1109701D01*
X1340896Y1109506D01*
X1340065Y1109360D01*
X1339138Y1109262D01*
X1338162Y1109213D01*
X1337722D01*
X1337429Y1109262D01*
X1337039D01*
X1336599Y1109311D01*
X1335574Y1109457D01*
X1334451Y1109652D01*
X1333329Y1109994D01*
X1332206Y1110434D01*
X1331718Y1110726D01*
X1331229Y1111068D01*
X1331181D01*
X1331132Y1111166D01*
X1330839Y1111410D01*
X1330448Y1111849D01*
X1329960Y1112484D01*
X1329472Y1113265D01*
X1328984Y1114241D01*
X1328544Y1115364D01*
X1328251Y1116682D01*
X1332157Y1117317D01*
Y1117268D01*
Y1117219D01*
X1332206Y1116926D01*
X1332352Y1116487D01*
X1332499Y1115950D01*
X1332743Y1115364D01*
X1333036Y1114778D01*
X1333475Y1114193D01*
X1333963Y1113655D01*
X1334012Y1113607D01*
X1334256Y1113460D01*
X1334598Y1113265D01*
X1335037Y1113070D01*
X1335672Y1112826D01*
X1336355Y1112630D01*
X1337234Y1112484D01*
X1338162Y1112435D01*
X1338601D01*
X1339089Y1112484D01*
X1339675Y1112581D01*
X1340358Y1112679D01*
X1341042Y1112874D01*
X1341677Y1113167D01*
X1342214Y1113509D01*
X1342262Y1113558D01*
X1342409Y1113704D01*
X1342653Y1113948D01*
X1342897Y1114241D01*
X1343092Y1114632D01*
X1343336Y1115120D01*
X1343483Y1115608D01*
X1343532Y1116145D01*
Y1116194D01*
Y1116389D01*
X1343483Y1116585D01*
X1343385Y1116926D01*
X1343239Y1117219D01*
X1343044Y1117610D01*
X1342751Y1117952D01*
X1342360Y1118244D01*
X1342311Y1118293D01*
X1342165Y1118342D01*
X1341921Y1118440D01*
X1341530Y1118635D01*
X1340993Y1118782D01*
X1340310Y1119026D01*
X1339870Y1119172D01*
X1339431Y1119270D01*
X1338894Y1119416D01*
X1338308Y1119563D01*
X1338259D01*
X1338113Y1119611D01*
X1337917Y1119660D01*
X1337625Y1119758D01*
X1337234Y1119855D01*
X1336844Y1119953D01*
X1335916Y1120246D01*
X1334940Y1120539D01*
X1333914Y1120832D01*
X1332987Y1121174D01*
X1332596Y1121320D01*
X1332254Y1121467D01*
X1332206Y1121515D01*
X1331962Y1121613D01*
X1331669Y1121808D01*
X1331327Y1122052D01*
X1330888Y1122345D01*
X1330497Y1122736D01*
X1330058Y1123175D01*
X1329716Y1123663D01*
X1329667Y1123712D01*
X1329570Y1123907D01*
X1329472Y1124200D01*
X1329325Y1124591D01*
X1329130Y1125030D01*
X1329032Y1125567D01*
X1328935Y1126153D01*
X1328886Y1126788D01*
Y1126837D01*
Y1127032D01*
X1328935Y1127374D01*
X1328984Y1127715D01*
X1329032Y1128155D01*
X1329179Y1128643D01*
X1329325Y1129180D01*
X1329570Y1129668D01*
X1329618Y1129717D01*
X1329716Y1129912D01*
X1329862Y1130156D01*
X1330107Y1130449D01*
X1330351Y1130791D01*
X1330692Y1131133D01*
X1331083Y1131523D01*
X1331522Y1131865D01*
X1331571Y1131914D01*
X1331718Y1131963D01*
X1331913Y1132109D01*
X1332206Y1132255D01*
X1332547Y1132451D01*
X1332987Y1132646D01*
X1333475Y1132841D01*
X1334012Y1133037D01*
X1334110D01*
X1334305Y1133134D01*
X1334598Y1133183D01*
X1335037Y1133281D01*
X1335574Y1133378D01*
X1336111Y1133427D01*
X1336746Y1133525D01*
X1337869D01*
X1338406Y1133476D01*
D02*
G37*
G36*
X1283192Y1121759D02*
X1291637Y1109750D01*
X1286804D01*
X1282020Y1116926D01*
X1280946Y1118635D01*
X1274697Y1109750D01*
X1269913D01*
X1278359Y1121759D01*
X1270548Y1132988D01*
X1275381D01*
X1279042Y1127471D01*
X1279091Y1127422D01*
X1279237Y1127227D01*
X1279384Y1126934D01*
X1279628Y1126592D01*
X1280165Y1125763D01*
X1280653Y1124933D01*
X1280702Y1124982D01*
X1280800Y1125177D01*
X1280995Y1125421D01*
X1281239Y1125763D01*
X1281532Y1126153D01*
X1281825Y1126592D01*
X1282410Y1127471D01*
X1286316Y1132988D01*
X1291100D01*
X1283192Y1121759D01*
D02*
G37*
G36*
X1648991Y1119367D02*
X1636933D01*
Y1123322D01*
X1648991D01*
Y1119367D01*
D02*
G37*
G36*
X1848660Y1109750D02*
X1844559D01*
Y1136600D01*
X1835186Y1109750D01*
X1831378D01*
X1822151Y1137040D01*
Y1109750D01*
X1818050D01*
Y1141824D01*
X1824397D01*
X1832013Y1119123D01*
Y1119074D01*
X1832061Y1118977D01*
X1832110Y1118830D01*
X1832159Y1118586D01*
X1832354Y1118049D01*
X1832598Y1117366D01*
X1832843Y1116585D01*
X1833087Y1115804D01*
X1833331Y1115023D01*
X1833526Y1114388D01*
X1833575Y1114485D01*
X1833624Y1114730D01*
X1833770Y1115120D01*
X1833965Y1115657D01*
X1834161Y1116389D01*
X1834453Y1117268D01*
X1834844Y1118293D01*
X1835235Y1119514D01*
X1842899Y1141824D01*
X1848660D01*
Y1109750D01*
D02*
G37*
G36*
X1873704D02*
X1870189D01*
Y1113119D01*
X1870140Y1113070D01*
X1870042Y1112972D01*
X1869896Y1112777D01*
X1869701Y1112533D01*
X1869408Y1112191D01*
X1869066Y1111898D01*
X1868676Y1111508D01*
X1868236Y1111166D01*
X1867748Y1110824D01*
X1867211Y1110434D01*
X1866576Y1110141D01*
X1865942Y1109848D01*
X1865209Y1109555D01*
X1864477Y1109360D01*
X1863647Y1109262D01*
X1862817Y1109213D01*
X1862475D01*
X1862085Y1109262D01*
X1861548Y1109311D01*
X1860962Y1109408D01*
X1860327Y1109555D01*
X1859644Y1109750D01*
X1858961Y1109994D01*
X1858863Y1110043D01*
X1858668Y1110141D01*
X1858375Y1110287D01*
X1857984Y1110531D01*
X1857545Y1110824D01*
X1857106Y1111166D01*
X1856715Y1111508D01*
X1856324Y1111947D01*
X1856275Y1111996D01*
X1856178Y1112142D01*
X1856031Y1112435D01*
X1855885Y1112777D01*
X1855641Y1113216D01*
X1855446Y1113704D01*
X1855250Y1114241D01*
X1855104Y1114876D01*
Y1114925D01*
X1855055Y1115120D01*
Y1115364D01*
X1855006Y1115755D01*
X1854957Y1116292D01*
Y1116926D01*
X1854909Y1117659D01*
Y1118538D01*
Y1132988D01*
X1858863D01*
Y1120051D01*
Y1120002D01*
Y1119904D01*
Y1119758D01*
Y1119563D01*
Y1119026D01*
X1858912Y1118391D01*
Y1117708D01*
X1858961Y1117024D01*
X1859009Y1116389D01*
X1859058Y1115901D01*
Y1115853D01*
X1859156Y1115657D01*
X1859254Y1115364D01*
X1859400Y1115023D01*
X1859595Y1114632D01*
X1859888Y1114193D01*
X1860230Y1113802D01*
X1860620Y1113460D01*
X1860669Y1113411D01*
X1860865Y1113314D01*
X1861109Y1113167D01*
X1861450Y1113021D01*
X1861890Y1112875D01*
X1862378Y1112728D01*
X1862964Y1112630D01*
X1863598Y1112582D01*
X1863891D01*
X1864233Y1112630D01*
X1864672Y1112679D01*
X1865161Y1112777D01*
X1865698Y1112972D01*
X1866283Y1113167D01*
X1866869Y1113460D01*
X1866918Y1113509D01*
X1867113Y1113656D01*
X1867406Y1113851D01*
X1867748Y1114144D01*
X1868090Y1114485D01*
X1868480Y1114925D01*
X1868773Y1115413D01*
X1869066Y1115950D01*
X1869115Y1116048D01*
X1869164Y1116243D01*
X1869261Y1116585D01*
X1869408Y1117122D01*
X1869554Y1117756D01*
X1869652Y1118538D01*
X1869701Y1119465D01*
X1869749Y1120490D01*
Y1132988D01*
X1873704D01*
Y1109750D01*
D02*
G37*
G36*
X2073568Y1141922D02*
X2073812D01*
X2074154Y1141873D01*
X2074935Y1141775D01*
X2075814Y1141531D01*
X2076741Y1141238D01*
X2077766Y1140848D01*
X2078743Y1140262D01*
X2078792D01*
X2078840Y1140164D01*
X2078987Y1140067D01*
X2079182Y1139969D01*
X2079621Y1139578D01*
X2080207Y1139041D01*
X2080842Y1138309D01*
X2081526Y1137528D01*
X2082160Y1136552D01*
X2082697Y1135429D01*
Y1135380D01*
X2082746Y1135282D01*
X2082844Y1135087D01*
X2082892Y1134843D01*
X2083039Y1134550D01*
X2083136Y1134160D01*
X2083234Y1133671D01*
X2083381Y1133134D01*
X2083527Y1132549D01*
X2083625Y1131865D01*
X2083771Y1131133D01*
X2083869Y1130352D01*
X2083918Y1129473D01*
X2084015Y1128545D01*
X2084064Y1127520D01*
Y1126446D01*
Y1126397D01*
Y1126153D01*
Y1125860D01*
Y1125421D01*
X2084015Y1124933D01*
Y1124298D01*
X2083966Y1123663D01*
X2083918Y1122931D01*
X2083722Y1121369D01*
X2083478Y1119709D01*
X2083136Y1118098D01*
X2082941Y1117366D01*
X2082697Y1116634D01*
Y1116585D01*
X2082648Y1116487D01*
X2082551Y1116292D01*
X2082453Y1116048D01*
X2082307Y1115706D01*
X2082160Y1115364D01*
X2081721Y1114583D01*
X2081135Y1113656D01*
X2080452Y1112728D01*
X2079670Y1111849D01*
X2078743Y1111068D01*
X2078694D01*
X2078645Y1110971D01*
X2078499Y1110922D01*
X2078255Y1110775D01*
X2078011Y1110629D01*
X2077718Y1110482D01*
X2076985Y1110141D01*
X2076058Y1109799D01*
X2075033Y1109506D01*
X2073812Y1109311D01*
X2072543Y1109213D01*
X2072201D01*
X2071908Y1109262D01*
X2071615D01*
X2071225Y1109311D01*
X2070346Y1109457D01*
X2069370Y1109701D01*
X2068344Y1110092D01*
X2067368Y1110580D01*
X2066392Y1111264D01*
X2066343Y1111312D01*
X2066294Y1111361D01*
X2066001Y1111654D01*
X2065611Y1112142D01*
X2065122Y1112777D01*
X2064634Y1113607D01*
X2064195Y1114632D01*
X2063804Y1115804D01*
X2063560Y1117171D01*
X2067319Y1117464D01*
Y1117415D01*
Y1117366D01*
X2067368Y1117219D01*
X2067417Y1117024D01*
X2067514Y1116536D01*
X2067710Y1115999D01*
X2067954Y1115364D01*
X2068247Y1114730D01*
X2068637Y1114095D01*
X2069126Y1113607D01*
X2069174Y1113558D01*
X2069370Y1113412D01*
X2069662Y1113216D01*
X2070102Y1113021D01*
X2070590Y1112826D01*
X2071176Y1112630D01*
X2071859Y1112484D01*
X2072641Y1112435D01*
X2072933D01*
X2073275Y1112484D01*
X2073714Y1112533D01*
X2074203Y1112630D01*
X2074740Y1112777D01*
X2075277Y1112972D01*
X2075814Y1113265D01*
X2075862Y1113314D01*
X2076058Y1113412D01*
X2076302Y1113607D01*
X2076595Y1113851D01*
X2076985Y1114144D01*
X2077327Y1114534D01*
X2077718Y1114974D01*
X2078059Y1115462D01*
X2078108Y1115511D01*
X2078206Y1115706D01*
X2078352Y1116048D01*
X2078596Y1116487D01*
X2078792Y1117024D01*
X2079036Y1117659D01*
X2079280Y1118391D01*
X2079524Y1119221D01*
Y1119270D01*
X2079573Y1119319D01*
Y1119465D01*
X2079621Y1119612D01*
X2079719Y1120100D01*
X2079817Y1120734D01*
X2079915Y1121467D01*
X2080012Y1122248D01*
X2080110Y1123127D01*
Y1124054D01*
Y1124103D01*
Y1124249D01*
Y1124493D01*
Y1124835D01*
X2080061Y1124737D01*
X2079866Y1124542D01*
X2079621Y1124152D01*
X2079231Y1123761D01*
X2078792Y1123273D01*
X2078206Y1122736D01*
X2077571Y1122248D01*
X2076839Y1121760D01*
X2076741Y1121711D01*
X2076497Y1121564D01*
X2076058Y1121418D01*
X2075521Y1121223D01*
X2074886Y1120978D01*
X2074154Y1120832D01*
X2073324Y1120686D01*
X2072445Y1120637D01*
X2072055D01*
X2071762Y1120686D01*
X2071420Y1120734D01*
X2071029Y1120783D01*
X2070102Y1120978D01*
X2069028Y1121320D01*
X2068491Y1121564D01*
X2067905Y1121857D01*
X2067368Y1122199D01*
X2066782Y1122589D01*
X2066245Y1123029D01*
X2065708Y1123517D01*
X2065659Y1123566D01*
X2065611Y1123663D01*
X2065464Y1123810D01*
X2065269Y1124054D01*
X2065074Y1124347D01*
X2064829Y1124689D01*
X2064585Y1125079D01*
X2064341Y1125567D01*
X2064097Y1126056D01*
X2063853Y1126641D01*
X2063609Y1127276D01*
X2063414Y1127960D01*
X2063218Y1128692D01*
X2063072Y1129424D01*
X2063023Y1130254D01*
X2062974Y1131133D01*
Y1131182D01*
Y1131328D01*
Y1131621D01*
X2063023Y1131963D01*
X2063072Y1132353D01*
X2063121Y1132841D01*
X2063218Y1133379D01*
X2063316Y1133964D01*
X2063658Y1135185D01*
X2063902Y1135868D01*
X2064195Y1136503D01*
X2064488Y1137186D01*
X2064878Y1137821D01*
X2065318Y1138407D01*
X2065806Y1138993D01*
X2065855Y1139041D01*
X2065952Y1139139D01*
X2066099Y1139286D01*
X2066343Y1139481D01*
X2066587Y1139676D01*
X2066929Y1139920D01*
X2067319Y1140213D01*
X2067807Y1140506D01*
X2068296Y1140750D01*
X2068833Y1141043D01*
X2070053Y1141531D01*
X2070737Y1141678D01*
X2071469Y1141824D01*
X2072250Y1141922D01*
X2073031Y1141971D01*
X2073324D01*
X2073568Y1141922D01*
D02*
G37*
G36*
X2052918Y1109750D02*
X2048963D01*
Y1134843D01*
X2048914Y1134794D01*
X2048719Y1134599D01*
X2048378Y1134355D01*
X2047938Y1134013D01*
X2047401Y1133574D01*
X2046767Y1133134D01*
X2046034Y1132597D01*
X2045204Y1132109D01*
X2045155D01*
X2045107Y1132060D01*
X2044814Y1131865D01*
X2044374Y1131621D01*
X2043837Y1131328D01*
X2043203Y1130986D01*
X2042519Y1130693D01*
X2041787Y1130352D01*
X2041104Y1130059D01*
Y1133915D01*
X2041152D01*
X2041250Y1133964D01*
X2041445Y1134062D01*
X2041640Y1134208D01*
X2041933Y1134355D01*
X2042275Y1134501D01*
X2043056Y1134941D01*
X2043935Y1135478D01*
X2044911Y1136112D01*
X2045888Y1136845D01*
X2046815Y1137626D01*
X2046864Y1137674D01*
X2046913Y1137723D01*
X2047206Y1138016D01*
X2047645Y1138456D01*
X2048182Y1138993D01*
X2048768Y1139676D01*
X2049354Y1140408D01*
X2049891Y1141189D01*
X2050330Y1141971D01*
X2052918D01*
Y1109750D01*
D02*
G37*
G36*
X2020697Y1123566D02*
X2030022Y1132988D01*
X2035148Y1132988D01*
X2026263Y1124347D01*
X2036026Y1109750D01*
X2031145Y1109750D01*
X2023431Y1121613D01*
X2020697Y1118977D01*
Y1109750D01*
X2016743D01*
Y1141824D01*
X2020697D01*
Y1123566D01*
D02*
G37*
G36*
X2002146Y1141922D02*
X2002537Y1141873D01*
X2002976Y1141824D01*
X2003464Y1141775D01*
X2004001Y1141629D01*
X2005173Y1141336D01*
X2006393Y1140897D01*
X2007028Y1140604D01*
X2007614Y1140262D01*
X2008151Y1139822D01*
X2008688Y1139383D01*
X2008737Y1139334D01*
X2008786Y1139286D01*
X2008932Y1139139D01*
X2009127Y1138944D01*
X2009323Y1138651D01*
X2009567Y1138358D01*
X2010055Y1137626D01*
X2010543Y1136698D01*
X2010982Y1135624D01*
X2011324Y1134404D01*
X2011373Y1133720D01*
X2011422Y1133037D01*
Y1132939D01*
Y1132695D01*
X2011373Y1132304D01*
X2011324Y1131816D01*
X2011226Y1131230D01*
X2011080Y1130596D01*
X2010885Y1129912D01*
X2010592Y1129229D01*
X2010543Y1129131D01*
X2010445Y1128887D01*
X2010250Y1128545D01*
X2009957Y1128057D01*
X2009615Y1127471D01*
X2009176Y1126788D01*
X2008590Y1126104D01*
X2007955Y1125323D01*
X2007858Y1125226D01*
X2007614Y1124933D01*
X2007174Y1124493D01*
X2006882Y1124201D01*
X2006540Y1123859D01*
X2006149Y1123468D01*
X2005661Y1123029D01*
X2005173Y1122589D01*
X2004636Y1122053D01*
X2004050Y1121516D01*
X2003367Y1120930D01*
X2002683Y1120344D01*
X2001902Y1119660D01*
X2001853Y1119612D01*
X2001756Y1119514D01*
X2001560Y1119367D01*
X2001316Y1119172D01*
X2000730Y1118684D01*
X1999998Y1118049D01*
X1999266Y1117366D01*
X1998485Y1116682D01*
X1997850Y1116097D01*
X1997606Y1115853D01*
X1997362Y1115608D01*
X1997313Y1115560D01*
X1997215Y1115413D01*
X1997020Y1115218D01*
X1996776Y1114925D01*
X1996239Y1114290D01*
X1995702Y1113509D01*
X2011470D01*
Y1109750D01*
X1990234D01*
Y1109799D01*
Y1109994D01*
Y1110287D01*
X1990283Y1110629D01*
X1990332Y1111019D01*
X1990381Y1111459D01*
X1990527Y1111947D01*
X1990674Y1112435D01*
Y1112484D01*
X1990723Y1112533D01*
X1990820Y1112826D01*
X1991015Y1113216D01*
X1991308Y1113802D01*
X1991650Y1114437D01*
X1992138Y1115169D01*
X1992626Y1115901D01*
X1993261Y1116682D01*
Y1116731D01*
X1993359Y1116780D01*
X1993603Y1117073D01*
X1993993Y1117512D01*
X1994579Y1118098D01*
X1995311Y1118782D01*
X1996190Y1119612D01*
X1997264Y1120539D01*
X1998436Y1121564D01*
X1998485Y1121613D01*
X1998680Y1121760D01*
X1998924Y1121955D01*
X1999266Y1122297D01*
X1999705Y1122638D01*
X2000193Y1123078D01*
X2001267Y1124005D01*
X2002439Y1125128D01*
X2003611Y1126251D01*
X2004196Y1126788D01*
X2004685Y1127325D01*
X2005124Y1127862D01*
X2005515Y1128350D01*
Y1128399D01*
X2005612Y1128448D01*
X2005710Y1128594D01*
X2005807Y1128790D01*
X2006100Y1129278D01*
X2006442Y1129912D01*
X2006784Y1130645D01*
X2007077Y1131426D01*
X2007272Y1132304D01*
X2007370Y1133134D01*
Y1133183D01*
Y1133232D01*
X2007321Y1133525D01*
X2007272Y1133964D01*
X2007174Y1134501D01*
X2006930Y1135136D01*
X2006637Y1135771D01*
X2006247Y1136454D01*
X2005661Y1137089D01*
X2005563Y1137138D01*
X2005368Y1137333D01*
X2004978Y1137577D01*
X2004489Y1137919D01*
X2003855Y1138212D01*
X2003123Y1138456D01*
X2002244Y1138651D01*
X2001267Y1138700D01*
X2000974D01*
X2000779Y1138651D01*
X2000291Y1138602D01*
X1999656Y1138504D01*
X1998924Y1138260D01*
X1998143Y1137967D01*
X1997411Y1137528D01*
X1996727Y1136942D01*
X1996678Y1136845D01*
X1996483Y1136649D01*
X1996190Y1136259D01*
X1995897Y1135722D01*
X1995556Y1135038D01*
X1995311Y1134257D01*
X1995116Y1133330D01*
X1995019Y1132256D01*
X1990967Y1132695D01*
Y1132744D01*
Y1132890D01*
X1991015Y1133134D01*
X1991064Y1133427D01*
X1991162Y1133818D01*
X1991211Y1134257D01*
X1991504Y1135234D01*
X1991894Y1136356D01*
X1992431Y1137479D01*
X1993163Y1138602D01*
X1993554Y1139090D01*
X1994042Y1139578D01*
X1994091Y1139627D01*
X1994189Y1139676D01*
X1994335Y1139822D01*
X1994530Y1139969D01*
X1994823Y1140115D01*
X1995165Y1140359D01*
X1995556Y1140555D01*
X1995995Y1140799D01*
X1996483Y1140994D01*
X1997020Y1141238D01*
X1997655Y1141433D01*
X1998289Y1141580D01*
X1999754Y1141873D01*
X2000535Y1141922D01*
X2001365Y1141971D01*
X2001804D01*
X2002146Y1141922D01*
D02*
G37*
G36*
X1965337Y1133476D02*
X1966020Y1133427D01*
X1966801Y1133330D01*
X1967631Y1133232D01*
X1968412Y1133037D01*
X1969145Y1132793D01*
X1969242Y1132744D01*
X1969438Y1132695D01*
X1969779Y1132500D01*
X1970170Y1132304D01*
X1970609Y1132060D01*
X1971097Y1131767D01*
X1971488Y1131426D01*
X1971879Y1131035D01*
X1971927Y1130986D01*
X1972025Y1130840D01*
X1972171Y1130645D01*
X1972367Y1130303D01*
X1972562Y1129912D01*
X1972757Y1129473D01*
X1972953Y1128936D01*
X1973099Y1128350D01*
Y1128301D01*
X1973148Y1128155D01*
X1973197Y1127911D01*
X1973245Y1127520D01*
Y1127032D01*
X1973294Y1126397D01*
X1973343Y1125665D01*
Y1124737D01*
Y1119465D01*
Y1119416D01*
Y1119221D01*
Y1118928D01*
Y1118586D01*
Y1118147D01*
Y1117659D01*
X1973392Y1116536D01*
Y1115315D01*
X1973441Y1114193D01*
X1973490Y1113656D01*
Y1113216D01*
X1973538Y1112826D01*
X1973587Y1112484D01*
Y1112435D01*
X1973636Y1112240D01*
X1973685Y1111947D01*
X1973782Y1111605D01*
X1973929Y1111215D01*
X1974124Y1110726D01*
X1974563Y1109750D01*
X1970463D01*
X1970414Y1109799D01*
X1970365Y1109945D01*
X1970267Y1110238D01*
X1970121Y1110580D01*
X1969975Y1111019D01*
X1969877Y1111508D01*
X1969779Y1112045D01*
X1969682Y1112679D01*
X1969584Y1112582D01*
X1969291Y1112386D01*
X1968900Y1112045D01*
X1968315Y1111654D01*
X1967680Y1111166D01*
X1966948Y1110726D01*
X1966216Y1110336D01*
X1965434Y1109994D01*
X1965337Y1109945D01*
X1965093Y1109897D01*
X1964702Y1109750D01*
X1964165Y1109604D01*
X1963482Y1109457D01*
X1962749Y1109360D01*
X1961968Y1109262D01*
X1961089Y1109213D01*
X1960748D01*
X1960455Y1109262D01*
X1960162D01*
X1959771Y1109311D01*
X1958941Y1109457D01*
X1957965Y1109652D01*
X1957038Y1109994D01*
X1956061Y1110434D01*
X1955231Y1111068D01*
X1955134Y1111166D01*
X1954890Y1111410D01*
X1954597Y1111801D01*
X1954206Y1112386D01*
X1953815Y1113070D01*
X1953523Y1113851D01*
X1953279Y1114827D01*
X1953181Y1115853D01*
Y1115950D01*
Y1116145D01*
X1953230Y1116487D01*
X1953279Y1116878D01*
X1953376Y1117366D01*
X1953474Y1117903D01*
X1953669Y1118440D01*
X1953913Y1118977D01*
X1953962Y1119026D01*
X1954060Y1119221D01*
X1954206Y1119465D01*
X1954450Y1119807D01*
X1954743Y1120148D01*
X1955134Y1120539D01*
X1955524Y1120881D01*
X1955963Y1121223D01*
X1956012Y1121271D01*
X1956208Y1121369D01*
X1956452Y1121516D01*
X1956793Y1121711D01*
X1957233Y1121955D01*
X1957672Y1122150D01*
X1958209Y1122345D01*
X1958795Y1122541D01*
X1958844D01*
X1959039Y1122589D01*
X1959283Y1122638D01*
X1959674Y1122736D01*
X1960162Y1122834D01*
X1960797Y1122931D01*
X1961480Y1123029D01*
X1962310Y1123127D01*
X1962359D01*
X1962505Y1123175D01*
X1962749D01*
X1963091Y1123224D01*
X1963482Y1123273D01*
X1963921Y1123322D01*
X1964995Y1123517D01*
X1966118Y1123712D01*
X1967289Y1123908D01*
X1968412Y1124201D01*
X1968900Y1124347D01*
X1969340Y1124493D01*
Y1124542D01*
Y1124640D01*
X1969389Y1124933D01*
Y1125275D01*
Y1125421D01*
Y1125519D01*
Y1125567D01*
Y1125616D01*
Y1125909D01*
X1969340Y1126348D01*
X1969242Y1126837D01*
X1969096Y1127374D01*
X1968900Y1127960D01*
X1968656Y1128448D01*
X1968266Y1128887D01*
X1968217Y1128936D01*
X1967973Y1129082D01*
X1967631Y1129326D01*
X1967143Y1129571D01*
X1966508Y1129815D01*
X1965727Y1130059D01*
X1964800Y1130205D01*
X1963775Y1130254D01*
X1963335D01*
X1962847Y1130205D01*
X1962212Y1130156D01*
X1961529Y1130010D01*
X1960894Y1129864D01*
X1960211Y1129619D01*
X1959674Y1129278D01*
X1959625Y1129229D01*
X1959478Y1129082D01*
X1959234Y1128838D01*
X1958941Y1128496D01*
X1958600Y1128008D01*
X1958307Y1127422D01*
X1957965Y1126690D01*
X1957721Y1125860D01*
X1953864Y1126397D01*
Y1126446D01*
X1953913Y1126495D01*
X1953962Y1126788D01*
X1954108Y1127227D01*
X1954255Y1127813D01*
X1954499Y1128448D01*
X1954792Y1129082D01*
X1955134Y1129766D01*
X1955573Y1130352D01*
X1955622Y1130400D01*
X1955817Y1130596D01*
X1956061Y1130889D01*
X1956452Y1131230D01*
X1956940Y1131572D01*
X1957574Y1131963D01*
X1958258Y1132353D01*
X1959039Y1132695D01*
X1959088D01*
X1959137Y1132744D01*
X1959283Y1132793D01*
X1959430Y1132841D01*
X1959918Y1132939D01*
X1960553Y1133134D01*
X1961334Y1133281D01*
X1962212Y1133378D01*
X1963237Y1133476D01*
X1964312Y1133525D01*
X1964800D01*
X1965337Y1133476D01*
D02*
G37*
G36*
X1933556Y1130352D02*
X1933604Y1130400D01*
X1933702Y1130498D01*
X1933849Y1130645D01*
X1934044Y1130840D01*
X1934337Y1131084D01*
X1934630Y1131377D01*
X1935020Y1131621D01*
X1935460Y1131963D01*
X1935948Y1132256D01*
X1936436Y1132500D01*
X1937657Y1133037D01*
X1938291Y1133232D01*
X1938975Y1133378D01*
X1939707Y1133476D01*
X1940488Y1133525D01*
X1940927D01*
X1941416Y1133476D01*
X1942001Y1133378D01*
X1942685Y1133281D01*
X1943417Y1133085D01*
X1944198Y1132841D01*
X1944931Y1132500D01*
X1945028Y1132451D01*
X1945223Y1132304D01*
X1945565Y1132060D01*
X1946004Y1131767D01*
X1946444Y1131377D01*
X1946883Y1130889D01*
X1947323Y1130303D01*
X1947664Y1129668D01*
X1947713Y1129571D01*
X1947811Y1129326D01*
X1947908Y1128936D01*
X1948104Y1128350D01*
X1948250Y1127618D01*
X1948348Y1126690D01*
X1948445Y1125665D01*
X1948494Y1124445D01*
Y1109750D01*
X1944540D01*
Y1124493D01*
Y1124542D01*
Y1124640D01*
Y1124786D01*
Y1124982D01*
X1944491Y1125470D01*
X1944393Y1126153D01*
X1944198Y1126837D01*
X1944003Y1127520D01*
X1943661Y1128204D01*
X1943222Y1128790D01*
X1943173Y1128838D01*
X1942978Y1128985D01*
X1942685Y1129229D01*
X1942294Y1129473D01*
X1941806Y1129717D01*
X1941171Y1129961D01*
X1940488Y1130108D01*
X1939658Y1130156D01*
X1939365D01*
X1939023Y1130108D01*
X1938584Y1130059D01*
X1938096Y1129912D01*
X1937510Y1129766D01*
X1936924Y1129522D01*
X1936338Y1129229D01*
X1936290Y1129180D01*
X1936094Y1129082D01*
X1935850Y1128838D01*
X1935508Y1128594D01*
X1935167Y1128204D01*
X1934776Y1127813D01*
X1934483Y1127276D01*
X1934190Y1126739D01*
X1934142Y1126690D01*
X1934093Y1126446D01*
X1933995Y1126104D01*
X1933897Y1125616D01*
X1933751Y1124982D01*
X1933653Y1124249D01*
X1933604Y1123419D01*
X1933556Y1122443D01*
Y1109750D01*
X1929601D01*
Y1141824D01*
X1933556D01*
Y1130352D01*
D02*
G37*
G36*
X1923548Y1109750D02*
X1919594D01*
Y1141824D01*
X1923548D01*
Y1109750D01*
D02*
G37*
G36*
X1905582Y1133476D02*
X1906266Y1133427D01*
X1907047Y1133330D01*
X1907877Y1133232D01*
X1908658Y1133037D01*
X1909390Y1132793D01*
X1909488Y1132744D01*
X1909683Y1132695D01*
X1910025Y1132500D01*
X1910416Y1132304D01*
X1910855Y1132060D01*
X1911343Y1131767D01*
X1911734Y1131426D01*
X1912124Y1131035D01*
X1912173Y1130986D01*
X1912271Y1130840D01*
X1912417Y1130645D01*
X1912612Y1130303D01*
X1912808Y1129912D01*
X1913003Y1129473D01*
X1913198Y1128936D01*
X1913345Y1128350D01*
Y1128301D01*
X1913394Y1128155D01*
X1913442Y1127911D01*
X1913491Y1127520D01*
Y1127032D01*
X1913540Y1126397D01*
X1913589Y1125665D01*
Y1124737D01*
Y1119465D01*
Y1119416D01*
Y1119221D01*
Y1118928D01*
Y1118586D01*
Y1118147D01*
Y1117659D01*
X1913638Y1116536D01*
Y1115315D01*
X1913686Y1114193D01*
X1913735Y1113656D01*
Y1113216D01*
X1913784Y1112826D01*
X1913833Y1112484D01*
Y1112435D01*
X1913882Y1112240D01*
X1913931Y1111947D01*
X1914028Y1111605D01*
X1914175Y1111215D01*
X1914370Y1110726D01*
X1914809Y1109750D01*
X1910708D01*
X1910660Y1109799D01*
X1910611Y1109945D01*
X1910513Y1110238D01*
X1910367Y1110580D01*
X1910220Y1111019D01*
X1910123Y1111508D01*
X1910025Y1112045D01*
X1909927Y1112679D01*
X1909830Y1112582D01*
X1909537Y1112386D01*
X1909146Y1112045D01*
X1908560Y1111654D01*
X1907926Y1111166D01*
X1907193Y1110726D01*
X1906461Y1110336D01*
X1905680Y1109994D01*
X1905582Y1109945D01*
X1905338Y1109897D01*
X1904948Y1109750D01*
X1904411Y1109604D01*
X1903727Y1109457D01*
X1902995Y1109360D01*
X1902214Y1109262D01*
X1901335Y1109213D01*
X1900994D01*
X1900701Y1109262D01*
X1900408D01*
X1900017Y1109311D01*
X1899187Y1109457D01*
X1898211Y1109652D01*
X1897283Y1109994D01*
X1896307Y1110434D01*
X1895477Y1111068D01*
X1895379Y1111166D01*
X1895135Y1111410D01*
X1894842Y1111801D01*
X1894452Y1112386D01*
X1894061Y1113070D01*
X1893768Y1113851D01*
X1893524Y1114827D01*
X1893427Y1115853D01*
Y1115950D01*
Y1116145D01*
X1893475Y1116487D01*
X1893524Y1116878D01*
X1893622Y1117366D01*
X1893720Y1117903D01*
X1893915Y1118440D01*
X1894159Y1118977D01*
X1894208Y1119026D01*
X1894305Y1119221D01*
X1894452Y1119465D01*
X1894696Y1119807D01*
X1894989Y1120148D01*
X1895379Y1120539D01*
X1895770Y1120881D01*
X1896209Y1121223D01*
X1896258Y1121271D01*
X1896453Y1121369D01*
X1896698Y1121516D01*
X1897039Y1121711D01*
X1897479Y1121955D01*
X1897918Y1122150D01*
X1898455Y1122345D01*
X1899041Y1122541D01*
X1899090D01*
X1899285Y1122589D01*
X1899529Y1122638D01*
X1899919Y1122736D01*
X1900408Y1122834D01*
X1901042Y1122931D01*
X1901726Y1123029D01*
X1902556Y1123127D01*
X1902605D01*
X1902751Y1123175D01*
X1902995D01*
X1903337Y1123224D01*
X1903727Y1123273D01*
X1904167Y1123322D01*
X1905241Y1123517D01*
X1906364Y1123712D01*
X1907535Y1123908D01*
X1908658Y1124201D01*
X1909146Y1124347D01*
X1909586Y1124493D01*
Y1124542D01*
Y1124640D01*
X1909635Y1124933D01*
Y1125275D01*
Y1125421D01*
Y1125519D01*
Y1125567D01*
Y1125616D01*
Y1125909D01*
X1909586Y1126348D01*
X1909488Y1126837D01*
X1909342Y1127374D01*
X1909146Y1127960D01*
X1908902Y1128448D01*
X1908512Y1128887D01*
X1908463Y1128936D01*
X1908219Y1129082D01*
X1907877Y1129326D01*
X1907389Y1129571D01*
X1906754Y1129815D01*
X1905973Y1130059D01*
X1905045Y1130205D01*
X1904020Y1130254D01*
X1903581D01*
X1903093Y1130205D01*
X1902458Y1130156D01*
X1901775Y1130010D01*
X1901140Y1129864D01*
X1900457Y1129619D01*
X1899919Y1129278D01*
X1899871Y1129229D01*
X1899724Y1129082D01*
X1899480Y1128838D01*
X1899187Y1128496D01*
X1898846Y1128008D01*
X1898553Y1127422D01*
X1898211Y1126690D01*
X1897967Y1125860D01*
X1894110Y1126397D01*
Y1126446D01*
X1894159Y1126495D01*
X1894208Y1126788D01*
X1894354Y1127227D01*
X1894501Y1127813D01*
X1894745Y1128448D01*
X1895038Y1129082D01*
X1895379Y1129766D01*
X1895819Y1130352D01*
X1895868Y1130400D01*
X1896063Y1130596D01*
X1896307Y1130889D01*
X1896698Y1131230D01*
X1897186Y1131572D01*
X1897820Y1131963D01*
X1898504Y1132353D01*
X1899285Y1132695D01*
X1899334D01*
X1899382Y1132744D01*
X1899529Y1132793D01*
X1899675Y1132841D01*
X1900164Y1132939D01*
X1900798Y1133134D01*
X1901579Y1133281D01*
X1902458Y1133378D01*
X1903483Y1133476D01*
X1904557Y1133525D01*
X1905045D01*
X1905582Y1133476D01*
D02*
G37*
G36*
X1692733Y1109750D02*
X1687948D01*
X1684238Y1119465D01*
X1670764D01*
X1667298Y1109750D01*
X1662807D01*
X1675060Y1141824D01*
X1679698D01*
X1692733Y1109750D01*
D02*
G37*
G36*
X1537245Y1133476D02*
X1537928Y1133427D01*
X1538709Y1133329D01*
X1539539Y1133232D01*
X1540320Y1133037D01*
X1541053Y1132793D01*
X1541150Y1132744D01*
X1541346Y1132695D01*
X1541687Y1132500D01*
X1542078Y1132304D01*
X1542517Y1132060D01*
X1543005Y1131767D01*
X1543396Y1131426D01*
X1543786Y1131035D01*
X1543835Y1130986D01*
X1543933Y1130840D01*
X1544079Y1130645D01*
X1544275Y1130303D01*
X1544470Y1129912D01*
X1544665Y1129473D01*
X1544860Y1128936D01*
X1545007Y1128350D01*
Y1128301D01*
X1545056Y1128155D01*
X1545105Y1127911D01*
X1545153Y1127520D01*
Y1127032D01*
X1545202Y1126397D01*
X1545251Y1125665D01*
Y1124737D01*
Y1119465D01*
Y1119416D01*
Y1119221D01*
Y1118928D01*
Y1118586D01*
Y1118147D01*
Y1117659D01*
X1545300Y1116536D01*
Y1115315D01*
X1545349Y1114193D01*
X1545397Y1113656D01*
Y1113216D01*
X1545446Y1112826D01*
X1545495Y1112484D01*
Y1112435D01*
X1545544Y1112240D01*
X1545593Y1111947D01*
X1545690Y1111605D01*
X1545837Y1111215D01*
X1546032Y1110726D01*
X1546471Y1109750D01*
X1542371D01*
X1542322Y1109799D01*
X1542273Y1109945D01*
X1542175Y1110238D01*
X1542029Y1110580D01*
X1541882Y1111019D01*
X1541785Y1111507D01*
X1541687Y1112045D01*
X1541590Y1112679D01*
X1541492Y1112581D01*
X1541199Y1112386D01*
X1540808Y1112045D01*
X1540223Y1111654D01*
X1539588Y1111166D01*
X1538856Y1110726D01*
X1538123Y1110336D01*
X1537342Y1109994D01*
X1537245Y1109945D01*
X1537001Y1109896D01*
X1536610Y1109750D01*
X1536073Y1109604D01*
X1535390Y1109457D01*
X1534657Y1109360D01*
X1533876Y1109262D01*
X1532997Y1109213D01*
X1532656D01*
X1532363Y1109262D01*
X1532070D01*
X1531679Y1109311D01*
X1530849Y1109457D01*
X1529873Y1109652D01*
X1528945Y1109994D01*
X1527969Y1110434D01*
X1527139Y1111068D01*
X1527041Y1111166D01*
X1526797Y1111410D01*
X1526505Y1111800D01*
X1526114Y1112386D01*
X1525723Y1113070D01*
X1525430Y1113851D01*
X1525186Y1114827D01*
X1525089Y1115852D01*
Y1115950D01*
Y1116145D01*
X1525138Y1116487D01*
X1525186Y1116878D01*
X1525284Y1117366D01*
X1525382Y1117903D01*
X1525577Y1118440D01*
X1525821Y1118977D01*
X1525870Y1119026D01*
X1525968Y1119221D01*
X1526114Y1119465D01*
X1526358Y1119807D01*
X1526651Y1120148D01*
X1527041Y1120539D01*
X1527432Y1120881D01*
X1527872Y1121223D01*
X1527920Y1121271D01*
X1528116Y1121369D01*
X1528360Y1121515D01*
X1528701Y1121711D01*
X1529141Y1121955D01*
X1529580Y1122150D01*
X1530117Y1122345D01*
X1530703Y1122541D01*
X1530752D01*
X1530947Y1122589D01*
X1531191Y1122638D01*
X1531582Y1122736D01*
X1532070Y1122833D01*
X1532704Y1122931D01*
X1533388Y1123029D01*
X1534218Y1123126D01*
X1534267D01*
X1534413Y1123175D01*
X1534657D01*
X1534999Y1123224D01*
X1535390Y1123273D01*
X1535829Y1123322D01*
X1536903Y1123517D01*
X1538026Y1123712D01*
X1539197Y1123907D01*
X1540320Y1124200D01*
X1540808Y1124347D01*
X1541248Y1124493D01*
Y1124542D01*
Y1124640D01*
X1541297Y1124933D01*
Y1125274D01*
Y1125421D01*
Y1125518D01*
Y1125567D01*
Y1125616D01*
Y1125909D01*
X1541248Y1126348D01*
X1541150Y1126837D01*
X1541004Y1127374D01*
X1540808Y1127960D01*
X1540564Y1128448D01*
X1540174Y1128887D01*
X1540125Y1128936D01*
X1539881Y1129082D01*
X1539539Y1129326D01*
X1539051Y1129570D01*
X1538416Y1129815D01*
X1537635Y1130059D01*
X1536708Y1130205D01*
X1535683Y1130254D01*
X1535243D01*
X1534755Y1130205D01*
X1534120Y1130156D01*
X1533437Y1130010D01*
X1532802Y1129863D01*
X1532119Y1129619D01*
X1531582Y1129278D01*
X1531533Y1129229D01*
X1531386Y1129082D01*
X1531142Y1128838D01*
X1530849Y1128496D01*
X1530508Y1128008D01*
X1530215Y1127422D01*
X1529873Y1126690D01*
X1529629Y1125860D01*
X1525772Y1126397D01*
Y1126446D01*
X1525821Y1126495D01*
X1525870Y1126788D01*
X1526016Y1127227D01*
X1526163Y1127813D01*
X1526407Y1128448D01*
X1526700Y1129082D01*
X1527041Y1129766D01*
X1527481Y1130352D01*
X1527530Y1130400D01*
X1527725Y1130596D01*
X1527969Y1130889D01*
X1528360Y1131230D01*
X1528848Y1131572D01*
X1529483Y1131963D01*
X1530166Y1132353D01*
X1530947Y1132695D01*
X1530996D01*
X1531045Y1132744D01*
X1531191Y1132793D01*
X1531338Y1132841D01*
X1531826Y1132939D01*
X1532460Y1133134D01*
X1533241Y1133281D01*
X1534120Y1133378D01*
X1535146Y1133476D01*
X1536219Y1133525D01*
X1536708D01*
X1537245Y1133476D01*
D02*
G37*
G36*
X1509809Y1141775D02*
X1510150D01*
X1510980Y1141726D01*
X1511908Y1141580D01*
X1512884Y1141433D01*
X1513860Y1141189D01*
X1514739Y1140848D01*
X1514788D01*
X1514837Y1140799D01*
X1515130Y1140652D01*
X1515520Y1140408D01*
X1516008Y1140115D01*
X1516594Y1139676D01*
X1517180Y1139139D01*
X1517717Y1138553D01*
X1518254Y1137821D01*
X1518303Y1137723D01*
X1518449Y1137479D01*
X1518645Y1137040D01*
X1518889Y1136503D01*
X1519133Y1135868D01*
X1519328Y1135185D01*
X1519475Y1134404D01*
X1519523Y1133574D01*
Y1133476D01*
Y1133232D01*
X1519475Y1132841D01*
X1519377Y1132304D01*
X1519230Y1131719D01*
X1519035Y1131084D01*
X1518791Y1130352D01*
X1518401Y1129668D01*
X1518352Y1129570D01*
X1518205Y1129375D01*
X1517912Y1129034D01*
X1517571Y1128643D01*
X1517083Y1128155D01*
X1516497Y1127715D01*
X1515813Y1127227D01*
X1514983Y1126788D01*
X1515032D01*
X1515130Y1126739D01*
X1515276Y1126690D01*
X1515471Y1126641D01*
X1516008Y1126397D01*
X1516643Y1126104D01*
X1517375Y1125665D01*
X1518108Y1125177D01*
X1518840Y1124591D01*
X1519475Y1123859D01*
X1519523Y1123761D01*
X1519719Y1123517D01*
X1519963Y1123078D01*
X1520305Y1122492D01*
X1520598Y1121759D01*
X1520842Y1120978D01*
X1521037Y1120051D01*
X1521086Y1119026D01*
Y1118928D01*
Y1118635D01*
X1521037Y1118196D01*
X1520988Y1117659D01*
X1520842Y1117024D01*
X1520695Y1116292D01*
X1520451Y1115559D01*
X1520109Y1114827D01*
X1520060Y1114730D01*
X1519963Y1114485D01*
X1519719Y1114144D01*
X1519475Y1113704D01*
X1519133Y1113216D01*
X1518742Y1112728D01*
X1518254Y1112240D01*
X1517766Y1111800D01*
X1517717Y1111752D01*
X1517522Y1111654D01*
X1517229Y1111459D01*
X1516790Y1111215D01*
X1516301Y1110971D01*
X1515667Y1110726D01*
X1514983Y1110482D01*
X1514251Y1110238D01*
X1514153D01*
X1513860Y1110141D01*
X1513421Y1110092D01*
X1512835Y1109994D01*
X1512054Y1109896D01*
X1511175Y1109848D01*
X1510199Y1109750D01*
X1496871D01*
Y1141824D01*
X1509467D01*
X1509809Y1141775D01*
D02*
G37*
G36*
X1407826Y1133476D02*
X1408510Y1133427D01*
X1409291Y1133329D01*
X1410121Y1133232D01*
X1410902Y1133037D01*
X1411634Y1132793D01*
X1411732Y1132744D01*
X1411927Y1132695D01*
X1412269Y1132500D01*
X1412659Y1132304D01*
X1413098Y1132060D01*
X1413587Y1131767D01*
X1413977Y1131426D01*
X1414368Y1131035D01*
X1414417Y1130986D01*
X1414514Y1130840D01*
X1414661Y1130645D01*
X1414856Y1130303D01*
X1415051Y1129912D01*
X1415246Y1129473D01*
X1415442Y1128936D01*
X1415588Y1128350D01*
Y1128301D01*
X1415637Y1128155D01*
X1415686Y1127911D01*
X1415735Y1127520D01*
Y1127032D01*
X1415784Y1126397D01*
X1415832Y1125665D01*
Y1124737D01*
Y1119465D01*
Y1119416D01*
Y1119221D01*
Y1118928D01*
Y1118586D01*
Y1118147D01*
Y1117659D01*
X1415881Y1116536D01*
Y1115315D01*
X1415930Y1114193D01*
X1415979Y1113655D01*
Y1113216D01*
X1416028Y1112826D01*
X1416076Y1112484D01*
Y1112435D01*
X1416125Y1112240D01*
X1416174Y1111947D01*
X1416272Y1111605D01*
X1416418Y1111215D01*
X1416613Y1110726D01*
X1417053Y1109750D01*
X1412952D01*
X1412903Y1109799D01*
X1412854Y1109945D01*
X1412757Y1110238D01*
X1412610Y1110580D01*
X1412464Y1111019D01*
X1412366Y1111507D01*
X1412269Y1112045D01*
X1412171Y1112679D01*
X1412073Y1112581D01*
X1411780Y1112386D01*
X1411390Y1112045D01*
X1410804Y1111654D01*
X1410169Y1111166D01*
X1409437Y1110726D01*
X1408705Y1110336D01*
X1407924Y1109994D01*
X1407826Y1109945D01*
X1407582Y1109896D01*
X1407191Y1109750D01*
X1406654Y1109604D01*
X1405971Y1109457D01*
X1405239Y1109360D01*
X1404458Y1109262D01*
X1403579Y1109213D01*
X1403237D01*
X1402944Y1109262D01*
X1402651D01*
X1402261Y1109311D01*
X1401431Y1109457D01*
X1400454Y1109652D01*
X1399527Y1109994D01*
X1398551Y1110434D01*
X1397720Y1111068D01*
X1397623Y1111166D01*
X1397379Y1111410D01*
X1397086Y1111800D01*
X1396695Y1112386D01*
X1396305Y1113070D01*
X1396012Y1113851D01*
X1395768Y1114827D01*
X1395670Y1115852D01*
Y1115950D01*
Y1116145D01*
X1395719Y1116487D01*
X1395768Y1116878D01*
X1395865Y1117366D01*
X1395963Y1117903D01*
X1396158Y1118440D01*
X1396402Y1118977D01*
X1396451Y1119026D01*
X1396549Y1119221D01*
X1396695Y1119465D01*
X1396939Y1119807D01*
X1397232Y1120148D01*
X1397623Y1120539D01*
X1398013Y1120881D01*
X1398453Y1121222D01*
X1398502Y1121271D01*
X1398697Y1121369D01*
X1398941Y1121515D01*
X1399283Y1121711D01*
X1399722Y1121955D01*
X1400161Y1122150D01*
X1400699Y1122345D01*
X1401284Y1122541D01*
X1401333D01*
X1401528Y1122589D01*
X1401772Y1122638D01*
X1402163Y1122736D01*
X1402651Y1122833D01*
X1403286Y1122931D01*
X1403969Y1123029D01*
X1404799Y1123126D01*
X1404848D01*
X1404995Y1123175D01*
X1405239D01*
X1405580Y1123224D01*
X1405971Y1123273D01*
X1406410Y1123322D01*
X1407484Y1123517D01*
X1408607Y1123712D01*
X1409779Y1123907D01*
X1410902Y1124200D01*
X1411390Y1124347D01*
X1411829Y1124493D01*
Y1124542D01*
Y1124640D01*
X1411878Y1124933D01*
Y1125274D01*
Y1125421D01*
Y1125518D01*
Y1125567D01*
Y1125616D01*
Y1125909D01*
X1411829Y1126348D01*
X1411732Y1126837D01*
X1411585Y1127374D01*
X1411390Y1127959D01*
X1411146Y1128448D01*
X1410755Y1128887D01*
X1410706Y1128936D01*
X1410462Y1129082D01*
X1410121Y1129326D01*
X1409632Y1129570D01*
X1408998Y1129815D01*
X1408217Y1130059D01*
X1407289Y1130205D01*
X1406264Y1130254D01*
X1405824D01*
X1405336Y1130205D01*
X1404702Y1130156D01*
X1404018Y1130010D01*
X1403383Y1129863D01*
X1402700Y1129619D01*
X1402163Y1129277D01*
X1402114Y1129229D01*
X1401968Y1129082D01*
X1401724Y1128838D01*
X1401431Y1128496D01*
X1401089Y1128008D01*
X1400796Y1127422D01*
X1400454Y1126690D01*
X1400210Y1125860D01*
X1396354Y1126397D01*
Y1126446D01*
X1396402Y1126495D01*
X1396451Y1126788D01*
X1396598Y1127227D01*
X1396744Y1127813D01*
X1396988Y1128448D01*
X1397281Y1129082D01*
X1397623Y1129766D01*
X1398062Y1130352D01*
X1398111Y1130400D01*
X1398306Y1130596D01*
X1398551Y1130889D01*
X1398941Y1131230D01*
X1399429Y1131572D01*
X1400064Y1131963D01*
X1400747Y1132353D01*
X1401528Y1132695D01*
X1401577D01*
X1401626Y1132744D01*
X1401772Y1132793D01*
X1401919Y1132841D01*
X1402407Y1132939D01*
X1403042Y1133134D01*
X1403823Y1133281D01*
X1404702Y1133378D01*
X1405727Y1133476D01*
X1406801Y1133525D01*
X1407289D01*
X1407826Y1133476D01*
D02*
G37*
G36*
X1323760Y1109750D02*
X1319806D01*
Y1141824D01*
X1323760D01*
Y1109750D01*
D02*
G37*
G36*
X1266593Y1109750D02*
X1262639D01*
Y1132988D01*
X1266593D01*
Y1109750D01*
D02*
G37*
G36*
X1247114Y1141775D02*
X1247896Y1141726D01*
X1248726Y1141677D01*
X1249507Y1141580D01*
X1250190Y1141482D01*
X1250288D01*
X1250581Y1141385D01*
X1251020Y1141287D01*
X1251557Y1141141D01*
X1252192Y1140945D01*
X1252826Y1140701D01*
X1253510Y1140359D01*
X1254145Y1139969D01*
X1254193Y1139920D01*
X1254437Y1139774D01*
X1254730Y1139529D01*
X1255072Y1139188D01*
X1255463Y1138748D01*
X1255902Y1138211D01*
X1256341Y1137626D01*
X1256732Y1136893D01*
X1256781Y1136796D01*
X1256878Y1136552D01*
X1257025Y1136161D01*
X1257220Y1135624D01*
X1257415Y1134989D01*
X1257562Y1134257D01*
X1257659Y1133427D01*
X1257708Y1132548D01*
Y1132500D01*
Y1132353D01*
Y1132158D01*
X1257659Y1131865D01*
X1257611Y1131523D01*
X1257562Y1131084D01*
X1257513Y1130644D01*
X1257366Y1130156D01*
X1257074Y1129033D01*
X1256585Y1127911D01*
X1256292Y1127325D01*
X1255951Y1126739D01*
X1255560Y1126153D01*
X1255072Y1125616D01*
X1255023Y1125567D01*
X1254926Y1125518D01*
X1254779Y1125372D01*
X1254584Y1125177D01*
X1254242Y1124982D01*
X1253900Y1124737D01*
X1253461Y1124493D01*
X1252924Y1124249D01*
X1252338Y1123956D01*
X1251655Y1123712D01*
X1250874Y1123468D01*
X1250044Y1123273D01*
X1249067Y1123077D01*
X1248042Y1122931D01*
X1246919Y1122882D01*
X1245699Y1122833D01*
X1237497D01*
Y1109750D01*
X1233250D01*
Y1141824D01*
X1246382D01*
X1247114Y1141775D01*
D02*
G37*
G36*
X1790517Y1133476D02*
X1790956Y1133427D01*
X1791395Y1133378D01*
X1791932Y1133281D01*
X1792518Y1133134D01*
X1793739Y1132744D01*
X1794373Y1132500D01*
X1795057Y1132207D01*
X1795691Y1131816D01*
X1796326Y1131377D01*
X1796961Y1130889D01*
X1797547Y1130352D01*
X1797595Y1130303D01*
X1797693Y1130205D01*
X1797839Y1130010D01*
X1798035Y1129766D01*
X1798279Y1129473D01*
X1798523Y1129082D01*
X1798816Y1128594D01*
X1799109Y1128106D01*
X1799353Y1127520D01*
X1799646Y1126837D01*
X1799890Y1126153D01*
X1800134Y1125372D01*
X1800329Y1124542D01*
X1800476Y1123615D01*
X1800573Y1122687D01*
X1800622Y1121662D01*
Y1121613D01*
Y1121467D01*
Y1121223D01*
Y1120930D01*
X1800573Y1120539D01*
Y1120100D01*
X1800524Y1119612D01*
X1800476Y1119074D01*
X1800280Y1117952D01*
X1800036Y1116780D01*
X1799695Y1115608D01*
X1799255Y1114583D01*
Y1114534D01*
X1799206Y1114485D01*
X1799011Y1114144D01*
X1798669Y1113704D01*
X1798230Y1113119D01*
X1797693Y1112484D01*
X1797009Y1111849D01*
X1796228Y1111215D01*
X1795301Y1110629D01*
X1795252D01*
X1795203Y1110580D01*
X1795057Y1110482D01*
X1794861Y1110434D01*
X1794324Y1110190D01*
X1793641Y1109945D01*
X1792811Y1109652D01*
X1791884Y1109457D01*
X1790858Y1109262D01*
X1789736Y1109213D01*
X1789247D01*
X1788906Y1109262D01*
X1788515Y1109311D01*
X1788027Y1109360D01*
X1787490Y1109457D01*
X1786904Y1109604D01*
X1785684Y1109994D01*
X1785000Y1110238D01*
X1784365Y1110531D01*
X1783682Y1110873D01*
X1783047Y1111312D01*
X1782413Y1111801D01*
X1781827Y1112337D01*
X1781778Y1112386D01*
X1781680Y1112484D01*
X1781534Y1112679D01*
X1781387Y1112923D01*
X1781143Y1113265D01*
X1780899Y1113656D01*
X1780606Y1114095D01*
X1780362Y1114632D01*
X1780069Y1115267D01*
X1779776Y1115901D01*
X1779532Y1116682D01*
X1779337Y1117464D01*
X1779142Y1118342D01*
X1778995Y1119270D01*
X1778898Y1120295D01*
X1778849Y1121369D01*
Y1121467D01*
Y1121662D01*
X1778898Y1122004D01*
Y1122443D01*
X1778947Y1122980D01*
X1779044Y1123566D01*
X1779142Y1124249D01*
X1779288Y1124982D01*
X1779484Y1125763D01*
X1779728Y1126544D01*
X1780021Y1127325D01*
X1780362Y1128106D01*
X1780753Y1128887D01*
X1781241Y1129619D01*
X1781778Y1130303D01*
X1782413Y1130938D01*
X1782462Y1130986D01*
X1782559Y1131035D01*
X1782706Y1131182D01*
X1782950Y1131328D01*
X1783243Y1131523D01*
X1783584Y1131767D01*
X1783975Y1132011D01*
X1784463Y1132256D01*
X1784951Y1132451D01*
X1785488Y1132695D01*
X1786758Y1133134D01*
X1788173Y1133427D01*
X1788954Y1133476D01*
X1789736Y1133525D01*
X1790175D01*
X1790517Y1133476D01*
D02*
G37*
G36*
X1718314Y1133476D02*
X1718753Y1133427D01*
X1719192Y1133378D01*
X1719729Y1133281D01*
X1720315Y1133134D01*
X1721536Y1132744D01*
X1722170Y1132500D01*
X1722854Y1132207D01*
X1723488Y1131816D01*
X1724123Y1131377D01*
X1724758Y1130889D01*
X1725343Y1130352D01*
X1725392Y1130303D01*
X1725490Y1130205D01*
X1725636Y1130010D01*
X1725832Y1129766D01*
X1726076Y1129473D01*
X1726320Y1129082D01*
X1726613Y1128594D01*
X1726906Y1128106D01*
X1727150Y1127520D01*
X1727443Y1126837D01*
X1727687Y1126153D01*
X1727931Y1125372D01*
X1728126Y1124542D01*
X1728273Y1123615D01*
X1728370Y1122687D01*
X1728419Y1121662D01*
Y1121613D01*
Y1121467D01*
Y1121223D01*
Y1120930D01*
X1728370Y1120539D01*
Y1120100D01*
X1728322Y1119612D01*
X1728273Y1119074D01*
X1728077Y1117952D01*
X1727833Y1116780D01*
X1727491Y1115608D01*
X1727052Y1114583D01*
Y1114534D01*
X1727003Y1114485D01*
X1726808Y1114144D01*
X1726466Y1113704D01*
X1726027Y1113119D01*
X1725490Y1112484D01*
X1724807Y1111849D01*
X1724025Y1111215D01*
X1723098Y1110629D01*
X1723049D01*
X1723000Y1110580D01*
X1722854Y1110482D01*
X1722659Y1110434D01*
X1722121Y1110189D01*
X1721438Y1109945D01*
X1720608Y1109652D01*
X1719680Y1109457D01*
X1718655Y1109262D01*
X1717533Y1109213D01*
X1717044D01*
X1716703Y1109262D01*
X1716312Y1109311D01*
X1715824Y1109360D01*
X1715287Y1109457D01*
X1714701Y1109604D01*
X1713481Y1109994D01*
X1712797Y1110238D01*
X1712162Y1110531D01*
X1711479Y1110873D01*
X1710844Y1111312D01*
X1710210Y1111801D01*
X1709624Y1112337D01*
X1709575Y1112386D01*
X1709477Y1112484D01*
X1709331Y1112679D01*
X1709185Y1112923D01*
X1708940Y1113265D01*
X1708696Y1113656D01*
X1708403Y1114095D01*
X1708159Y1114632D01*
X1707866Y1115267D01*
X1707574Y1115901D01*
X1707329Y1116682D01*
X1707134Y1117463D01*
X1706939Y1118342D01*
X1706792Y1119270D01*
X1706695Y1120295D01*
X1706646Y1121369D01*
Y1121467D01*
Y1121662D01*
X1706695Y1122004D01*
Y1122443D01*
X1706744Y1122980D01*
X1706841Y1123566D01*
X1706939Y1124249D01*
X1707085Y1124982D01*
X1707281Y1125763D01*
X1707525Y1126544D01*
X1707818Y1127325D01*
X1708159Y1128106D01*
X1708550Y1128887D01*
X1709038Y1129619D01*
X1709575Y1130303D01*
X1710210Y1130937D01*
X1710258Y1130986D01*
X1710356Y1131035D01*
X1710503Y1131181D01*
X1710747Y1131328D01*
X1711040Y1131523D01*
X1711381Y1131767D01*
X1711772Y1132011D01*
X1712260Y1132255D01*
X1712748Y1132451D01*
X1713285Y1132695D01*
X1714555Y1133134D01*
X1715970Y1133427D01*
X1716751Y1133476D01*
X1717533Y1133525D01*
X1717972D01*
X1718314Y1133476D01*
D02*
G37*
G36*
X1611400D02*
X1611791Y1133427D01*
X1612279Y1133378D01*
X1612767Y1133281D01*
X1613353Y1133134D01*
X1614525Y1132744D01*
X1615159Y1132500D01*
X1615794Y1132158D01*
X1616429Y1131816D01*
X1617063Y1131377D01*
X1617649Y1130889D01*
X1618235Y1130303D01*
X1618284Y1130254D01*
X1618382Y1130156D01*
X1618528Y1129961D01*
X1618723Y1129717D01*
X1618918Y1129375D01*
X1619163Y1128985D01*
X1619456Y1128545D01*
X1619748Y1128008D01*
X1619993Y1127374D01*
X1620285Y1126739D01*
X1620530Y1126007D01*
X1620774Y1125177D01*
X1620920Y1124347D01*
X1621067Y1123419D01*
X1621164Y1122443D01*
X1621213Y1121369D01*
Y1121320D01*
Y1121125D01*
Y1120783D01*
X1621164Y1120344D01*
X1603882D01*
Y1120295D01*
Y1120197D01*
X1603931Y1119953D01*
Y1119709D01*
X1603980Y1119367D01*
X1604029Y1119026D01*
X1604224Y1118147D01*
X1604517Y1117219D01*
X1604859Y1116243D01*
X1605396Y1115267D01*
X1606030Y1114437D01*
X1606128Y1114339D01*
X1606372Y1114144D01*
X1606812Y1113802D01*
X1607348Y1113460D01*
X1608081Y1113070D01*
X1608911Y1112728D01*
X1609838Y1112533D01*
X1610863Y1112435D01*
X1611254D01*
X1611644Y1112484D01*
X1612133Y1112582D01*
X1612719Y1112728D01*
X1613353Y1112923D01*
X1613988Y1113167D01*
X1614574Y1113558D01*
X1614622Y1113607D01*
X1614818Y1113802D01*
X1615111Y1114046D01*
X1615452Y1114485D01*
X1615843Y1114974D01*
X1616234Y1115608D01*
X1616624Y1116389D01*
X1617015Y1117268D01*
X1621067Y1116731D01*
Y1116682D01*
X1621018Y1116585D01*
X1620969Y1116389D01*
X1620871Y1116145D01*
X1620774Y1115852D01*
X1620627Y1115511D01*
X1620237Y1114681D01*
X1619748Y1113802D01*
X1619163Y1112875D01*
X1618382Y1111947D01*
X1617503Y1111166D01*
X1617454D01*
X1617405Y1111068D01*
X1617259Y1110971D01*
X1617015Y1110873D01*
X1616770Y1110726D01*
X1616478Y1110531D01*
X1616136Y1110385D01*
X1615697Y1110189D01*
X1614769Y1109848D01*
X1613597Y1109506D01*
X1612328Y1109311D01*
X1610863Y1109213D01*
X1610375D01*
X1610034Y1109262D01*
X1609594Y1109311D01*
X1609106Y1109360D01*
X1608569Y1109457D01*
X1607934Y1109604D01*
X1606665Y1109994D01*
X1605981Y1110238D01*
X1605347Y1110531D01*
X1604663Y1110873D01*
X1604029Y1111312D01*
X1603394Y1111801D01*
X1602808Y1112337D01*
X1602760Y1112386D01*
X1602662Y1112484D01*
X1602515Y1112679D01*
X1602369Y1112923D01*
X1602125Y1113216D01*
X1601881Y1113607D01*
X1601588Y1114095D01*
X1601344Y1114632D01*
X1601051Y1115218D01*
X1600758Y1115852D01*
X1600514Y1116585D01*
X1600319Y1117366D01*
X1600123Y1118196D01*
X1599977Y1119123D01*
X1599879Y1120100D01*
X1599830Y1121125D01*
Y1121174D01*
Y1121369D01*
Y1121711D01*
X1599879Y1122101D01*
X1599928Y1122589D01*
X1599977Y1123175D01*
X1600074Y1123810D01*
X1600221Y1124493D01*
X1600563Y1125958D01*
X1600807Y1126690D01*
X1601100Y1127471D01*
X1601441Y1128204D01*
X1601832Y1128936D01*
X1602271Y1129619D01*
X1602808Y1130254D01*
X1602857Y1130303D01*
X1602955Y1130400D01*
X1603101Y1130547D01*
X1603345Y1130791D01*
X1603638Y1131035D01*
X1604029Y1131279D01*
X1604419Y1131572D01*
X1604908Y1131914D01*
X1605444Y1132207D01*
X1606030Y1132500D01*
X1606665Y1132744D01*
X1607397Y1133037D01*
X1608130Y1133232D01*
X1608911Y1133378D01*
X1609741Y1133476D01*
X1610619Y1133525D01*
X1611059D01*
X1611400Y1133476D01*
D02*
G37*
G36*
X1305258Y1133476D02*
X1305648Y1133427D01*
X1306136Y1133378D01*
X1306625Y1133281D01*
X1307211Y1133134D01*
X1308382Y1132744D01*
X1309017Y1132500D01*
X1309651Y1132158D01*
X1310286Y1131816D01*
X1310921Y1131377D01*
X1311507Y1130889D01*
X1312092Y1130303D01*
X1312141Y1130254D01*
X1312239Y1130156D01*
X1312385Y1129961D01*
X1312581Y1129717D01*
X1312776Y1129375D01*
X1313020Y1128985D01*
X1313313Y1128545D01*
X1313606Y1128008D01*
X1313850Y1127374D01*
X1314143Y1126739D01*
X1314387Y1126007D01*
X1314631Y1125177D01*
X1314777Y1124347D01*
X1314924Y1123419D01*
X1315022Y1122443D01*
X1315070Y1121369D01*
Y1121320D01*
Y1121125D01*
Y1120783D01*
X1315022Y1120344D01*
X1297740Y1120344D01*
Y1120295D01*
Y1120197D01*
X1297789Y1119953D01*
Y1119709D01*
X1297837Y1119367D01*
X1297886Y1119026D01*
X1298081Y1118147D01*
X1298374Y1117219D01*
X1298716Y1116243D01*
X1299253Y1115266D01*
X1299888Y1114437D01*
X1299985Y1114339D01*
X1300229Y1114144D01*
X1300669Y1113802D01*
X1301206Y1113460D01*
X1301938Y1113070D01*
X1302768Y1112728D01*
X1303696Y1112533D01*
X1304721Y1112435D01*
X1305111D01*
X1305502Y1112484D01*
X1305990Y1112581D01*
X1306576Y1112728D01*
X1307211Y1112923D01*
X1307845Y1113167D01*
X1308431Y1113558D01*
X1308480Y1113607D01*
X1308675Y1113802D01*
X1308968Y1114046D01*
X1309310Y1114485D01*
X1309700Y1114974D01*
X1310091Y1115608D01*
X1310481Y1116389D01*
X1310872Y1117268D01*
X1314924Y1116731D01*
Y1116682D01*
X1314875Y1116585D01*
X1314826Y1116389D01*
X1314729Y1116145D01*
X1314631Y1115852D01*
X1314485Y1115511D01*
X1314094Y1114681D01*
X1313606Y1113802D01*
X1313020Y1112874D01*
X1312239Y1111947D01*
X1311360Y1111166D01*
X1311311D01*
X1311263Y1111068D01*
X1311116Y1110971D01*
X1310872Y1110873D01*
X1310628Y1110726D01*
X1310335Y1110531D01*
X1309993Y1110385D01*
X1309554Y1110189D01*
X1308626Y1109848D01*
X1307455Y1109506D01*
X1306185Y1109311D01*
X1304721Y1109213D01*
X1304232D01*
X1303891Y1109262D01*
X1303451Y1109311D01*
X1302963Y1109360D01*
X1302426Y1109457D01*
X1301792Y1109604D01*
X1300522Y1109994D01*
X1299839Y1110238D01*
X1299204Y1110531D01*
X1298521Y1110873D01*
X1297886Y1111312D01*
X1297251Y1111800D01*
X1296666Y1112337D01*
X1296617Y1112386D01*
X1296519Y1112484D01*
X1296373Y1112679D01*
X1296226Y1112923D01*
X1295982Y1113216D01*
X1295738Y1113607D01*
X1295445Y1114095D01*
X1295201Y1114632D01*
X1294908Y1115218D01*
X1294615Y1115852D01*
X1294371Y1116585D01*
X1294176Y1117366D01*
X1293981Y1118196D01*
X1293834Y1119123D01*
X1293737Y1120100D01*
X1293688Y1121125D01*
Y1121174D01*
Y1121369D01*
Y1121711D01*
X1293737Y1122101D01*
X1293785Y1122589D01*
X1293834Y1123175D01*
X1293932Y1123810D01*
X1294078Y1124493D01*
X1294420Y1125958D01*
X1294664Y1126690D01*
X1294957Y1127471D01*
X1295299Y1128204D01*
X1295689Y1128936D01*
X1296129Y1129619D01*
X1296666Y1130254D01*
X1296714Y1130303D01*
X1296812Y1130400D01*
X1296958Y1130547D01*
X1297203Y1130791D01*
X1297496Y1131035D01*
X1297886Y1131279D01*
X1298277Y1131572D01*
X1298765Y1131914D01*
X1299302Y1132207D01*
X1299888Y1132500D01*
X1300522Y1132744D01*
X1301255Y1133037D01*
X1301987Y1133232D01*
X1302768Y1133378D01*
X1303598Y1133476D01*
X1304477Y1133525D01*
X1304916D01*
X1305258Y1133476D01*
D02*
G37*
G36*
X1585429Y1133476D02*
X1585771Y1133427D01*
X1586210Y1133329D01*
X1587137Y1133085D01*
X1587675Y1132939D01*
X1588212Y1132695D01*
X1588797Y1132451D01*
X1589383Y1132109D01*
X1589920Y1131719D01*
X1590506Y1131279D01*
X1591043Y1130742D01*
X1591531Y1130156D01*
Y1132988D01*
X1595144D01*
Y1112875D01*
Y1112826D01*
Y1112630D01*
Y1112386D01*
Y1111996D01*
X1595095Y1111556D01*
Y1111068D01*
X1595046Y1110482D01*
X1594997Y1109896D01*
X1594851Y1108676D01*
X1594656Y1107407D01*
X1594411Y1106235D01*
X1594216Y1105698D01*
X1594021Y1105259D01*
Y1105210D01*
X1593972Y1105161D01*
X1593826Y1104868D01*
X1593533Y1104478D01*
X1593191Y1103941D01*
X1592703Y1103355D01*
X1592117Y1102769D01*
X1591385Y1102183D01*
X1590555Y1101646D01*
X1590506D01*
X1590457Y1101597D01*
X1590311Y1101548D01*
X1590115Y1101451D01*
X1589627Y1101207D01*
X1588944Y1101012D01*
X1588065Y1100767D01*
X1587040Y1100523D01*
X1585917Y1100377D01*
X1584648Y1100328D01*
X1584257D01*
X1583964Y1100377D01*
X1583622D01*
X1583183Y1100426D01*
X1582256Y1100572D01*
X1581182Y1100816D01*
X1580059Y1101109D01*
X1578936Y1101597D01*
X1577911Y1102232D01*
X1577862D01*
X1577813Y1102330D01*
X1577520Y1102574D01*
X1577130Y1103013D01*
X1576641Y1103648D01*
X1576202Y1104429D01*
X1575811Y1105405D01*
X1575567Y1106528D01*
X1575470Y1107163D01*
Y1107846D01*
X1579278Y1107309D01*
Y1107212D01*
X1579326Y1107016D01*
X1579424Y1106723D01*
X1579522Y1106333D01*
X1579717Y1105893D01*
X1579961Y1105454D01*
X1580254Y1105063D01*
X1580645Y1104722D01*
X1580693Y1104673D01*
X1580938Y1104526D01*
X1581230Y1104380D01*
X1581719Y1104185D01*
X1582256Y1103941D01*
X1582939Y1103794D01*
X1583769Y1103648D01*
X1584648Y1103599D01*
X1585087D01*
X1585575Y1103648D01*
X1586210Y1103745D01*
X1586893Y1103892D01*
X1587577Y1104087D01*
X1588260Y1104331D01*
X1588846Y1104722D01*
X1588895Y1104771D01*
X1589090Y1104917D01*
X1589334Y1105161D01*
X1589676Y1105503D01*
X1590018Y1105942D01*
X1590311Y1106430D01*
X1590604Y1107065D01*
X1590848Y1107748D01*
Y1107797D01*
X1590896Y1107993D01*
X1590945Y1108334D01*
X1590994Y1108822D01*
X1591092Y1109506D01*
Y1109945D01*
X1591141Y1110385D01*
Y1110922D01*
Y1111459D01*
Y1112093D01*
Y1112777D01*
X1591092Y1112728D01*
X1591043Y1112630D01*
X1590896Y1112484D01*
X1590701Y1112289D01*
X1590408Y1112093D01*
X1590115Y1111800D01*
X1589383Y1111263D01*
X1588456Y1110726D01*
X1587333Y1110238D01*
X1586747Y1110043D01*
X1586112Y1109896D01*
X1585429Y1109799D01*
X1584745Y1109750D01*
X1584306D01*
X1583964Y1109799D01*
X1583574Y1109848D01*
X1583085Y1109945D01*
X1582597Y1110043D01*
X1582012Y1110189D01*
X1581426Y1110336D01*
X1580840Y1110580D01*
X1580205Y1110873D01*
X1579619Y1111215D01*
X1578985Y1111605D01*
X1578399Y1112045D01*
X1577862Y1112581D01*
X1577325Y1113167D01*
X1577276Y1113216D01*
X1577227Y1113314D01*
X1577081Y1113509D01*
X1576934Y1113802D01*
X1576739Y1114144D01*
X1576495Y1114534D01*
X1576251Y1114974D01*
X1576007Y1115511D01*
X1575763Y1116096D01*
X1575519Y1116731D01*
X1575323Y1117415D01*
X1575079Y1118147D01*
X1574786Y1119709D01*
X1574738Y1120588D01*
X1574689Y1121467D01*
Y1121515D01*
Y1121613D01*
Y1121808D01*
Y1122052D01*
X1574738Y1122345D01*
Y1122687D01*
X1574835Y1123468D01*
X1574982Y1124445D01*
X1575177Y1125470D01*
X1575470Y1126544D01*
X1575860Y1127618D01*
Y1127667D01*
X1575909Y1127764D01*
X1576007Y1127911D01*
X1576104Y1128106D01*
X1576349Y1128594D01*
X1576739Y1129229D01*
X1577276Y1129912D01*
X1577862Y1130645D01*
X1578545Y1131328D01*
X1579375Y1131963D01*
X1579424D01*
X1579473Y1132011D01*
X1579619Y1132109D01*
X1579766Y1132207D01*
X1580254Y1132451D01*
X1580889Y1132744D01*
X1581719Y1133037D01*
X1582597Y1133281D01*
X1583622Y1133476D01*
X1584745Y1133525D01*
X1585136D01*
X1585429Y1133476D01*
D02*
G37*
%LPC*%
G36*
X1560531Y1130254D02*
X1559799D01*
X1559604Y1130205D01*
X1559115Y1130156D01*
X1558530Y1130010D01*
X1557846Y1129717D01*
X1557114Y1129326D01*
X1556382Y1128838D01*
X1556040Y1128496D01*
X1555698Y1128106D01*
X1555600Y1128008D01*
X1555552Y1127862D01*
X1555405Y1127715D01*
X1555308Y1127471D01*
X1555161Y1127178D01*
X1554966Y1126837D01*
X1554819Y1126446D01*
X1554673Y1126007D01*
X1554478Y1125518D01*
X1554331Y1124933D01*
X1554234Y1124347D01*
X1554087Y1123663D01*
X1554038Y1122931D01*
X1553941Y1122150D01*
Y1121320D01*
Y1121271D01*
Y1121125D01*
Y1120881D01*
X1553990Y1120588D01*
Y1120197D01*
X1554038Y1119807D01*
X1554185Y1118782D01*
X1554380Y1117708D01*
X1554722Y1116585D01*
X1555161Y1115559D01*
X1555454Y1115071D01*
X1555796Y1114632D01*
X1555894Y1114534D01*
X1556138Y1114290D01*
X1556528Y1113949D01*
X1557065Y1113558D01*
X1557700Y1113119D01*
X1558432Y1112777D01*
X1559311Y1112533D01*
X1559750Y1112484D01*
X1560238Y1112435D01*
X1560482D01*
X1560678Y1112484D01*
X1561166Y1112533D01*
X1561752Y1112679D01*
X1562435Y1112972D01*
X1563168Y1113314D01*
X1563949Y1113851D01*
X1564290Y1114144D01*
X1564632Y1114534D01*
Y1114583D01*
X1564730Y1114632D01*
X1564778Y1114778D01*
X1564925Y1114925D01*
X1565071Y1115169D01*
X1565218Y1115413D01*
X1565364Y1115755D01*
X1565560Y1116145D01*
X1565706Y1116536D01*
X1565853Y1117024D01*
X1565999Y1117561D01*
X1566145Y1118147D01*
X1566292Y1118782D01*
X1566341Y1119465D01*
X1566438Y1120197D01*
Y1120978D01*
Y1121027D01*
Y1121174D01*
Y1121418D01*
X1566389Y1121759D01*
Y1122150D01*
X1566341Y1122589D01*
X1566194Y1123663D01*
X1565999Y1124786D01*
X1565657Y1125958D01*
X1565218Y1127081D01*
X1564925Y1127569D01*
X1564583Y1128008D01*
Y1128057D01*
X1564486Y1128106D01*
X1564241Y1128350D01*
X1563851Y1128741D01*
X1563314Y1129131D01*
X1562679Y1129522D01*
X1561898Y1129912D01*
X1561019Y1130156D01*
X1560531Y1130254D01*
D02*
G37*
G36*
X1469582Y1130449D02*
X1468898D01*
X1468703Y1130400D01*
X1468264Y1130303D01*
X1467629Y1130156D01*
X1466946Y1129863D01*
X1466213Y1129424D01*
X1465823Y1129180D01*
X1465432Y1128838D01*
X1465042Y1128496D01*
X1464700Y1128057D01*
Y1128008D01*
X1464602Y1127960D01*
X1464505Y1127813D01*
X1464407Y1127618D01*
X1464261Y1127374D01*
X1464114Y1127081D01*
X1463919Y1126739D01*
X1463772Y1126348D01*
X1463577Y1125860D01*
X1463382Y1125372D01*
X1463235Y1124786D01*
X1463089Y1124200D01*
X1462991Y1123517D01*
X1462894Y1122785D01*
X1462796Y1122052D01*
Y1121223D01*
Y1121174D01*
Y1121027D01*
Y1120783D01*
X1462845Y1120490D01*
Y1120100D01*
X1462894Y1119709D01*
X1463040Y1118733D01*
X1463235Y1117610D01*
X1463528Y1116536D01*
X1463968Y1115511D01*
X1464261Y1115023D01*
X1464554Y1114583D01*
X1464651Y1114485D01*
X1464895Y1114241D01*
X1465286Y1113900D01*
X1465774Y1113509D01*
X1466409Y1113119D01*
X1467190Y1112777D01*
X1468020Y1112533D01*
X1468459Y1112484D01*
X1468947Y1112435D01*
X1469191D01*
X1469386Y1112484D01*
X1469875Y1112533D01*
X1470461Y1112728D01*
X1471193Y1112972D01*
X1471925Y1113363D01*
X1472657Y1113900D01*
X1473048Y1114241D01*
X1473390Y1114632D01*
Y1114681D01*
X1473487Y1114730D01*
X1473585Y1114876D01*
X1473683Y1115071D01*
X1473829Y1115315D01*
X1473976Y1115608D01*
X1474171Y1115950D01*
X1474366Y1116341D01*
X1474512Y1116780D01*
X1474708Y1117317D01*
X1474854Y1117854D01*
X1475001Y1118489D01*
X1475098Y1119172D01*
X1475196Y1119904D01*
X1475294Y1120686D01*
Y1121515D01*
Y1121564D01*
Y1121711D01*
Y1121955D01*
X1475245Y1122248D01*
Y1122638D01*
X1475196Y1123078D01*
X1475049Y1124054D01*
X1474854Y1125128D01*
X1474512Y1126251D01*
X1474073Y1127276D01*
X1473780Y1127764D01*
X1473439Y1128204D01*
Y1128252D01*
X1473341Y1128301D01*
X1473097Y1128545D01*
X1472755Y1128936D01*
X1472218Y1129326D01*
X1471583Y1129717D01*
X1470851Y1130107D01*
X1470021Y1130352D01*
X1469582Y1130449D01*
D02*
G37*
G36*
X2073519Y1138700D02*
X2073275D01*
X2073080Y1138651D01*
X2072592Y1138602D01*
X2071957Y1138456D01*
X2071225Y1138163D01*
X2070492Y1137772D01*
X2069711Y1137284D01*
X2069321Y1136942D01*
X2068930Y1136552D01*
X2068833Y1136454D01*
X2068637Y1136161D01*
X2068344Y1135673D01*
X2068003Y1135038D01*
X2067612Y1134257D01*
X2067319Y1133281D01*
X2067124Y1132207D01*
X2067026Y1130986D01*
Y1130938D01*
Y1130840D01*
Y1130693D01*
X2067075Y1130498D01*
X2067124Y1129912D01*
X2067270Y1129229D01*
X2067466Y1128399D01*
X2067807Y1127569D01*
X2068247Y1126788D01*
X2068833Y1126007D01*
X2068930Y1125909D01*
X2069174Y1125714D01*
X2069565Y1125421D01*
X2070102Y1125079D01*
X2070785Y1124689D01*
X2071566Y1124396D01*
X2072445Y1124201D01*
X2073422Y1124103D01*
X2073666D01*
X2073861Y1124152D01*
X2074349Y1124201D01*
X2074984Y1124347D01*
X2075667Y1124591D01*
X2076448Y1124884D01*
X2077181Y1125372D01*
X2077864Y1126007D01*
X2077962Y1126105D01*
X2078157Y1126348D01*
X2078450Y1126788D01*
X2078792Y1127374D01*
X2079084Y1128155D01*
X2079377Y1129034D01*
X2079573Y1130108D01*
X2079670Y1131279D01*
Y1131328D01*
Y1131426D01*
Y1131621D01*
X2079621Y1131865D01*
Y1132158D01*
X2079573Y1132451D01*
X2079426Y1133232D01*
X2079231Y1134111D01*
X2078889Y1134989D01*
X2078450Y1135868D01*
X2077864Y1136698D01*
X2077766Y1136796D01*
X2077522Y1136991D01*
X2077181Y1137333D01*
X2076644Y1137723D01*
X2076009Y1138065D01*
X2075277Y1138407D01*
X2074447Y1138602D01*
X2073519Y1138700D01*
D02*
G37*
G36*
X1969340Y1121418D02*
X1969242Y1121369D01*
X1969096Y1121320D01*
X1968949Y1121271D01*
X1968705Y1121174D01*
X1968412Y1121125D01*
X1968119Y1121027D01*
X1967729Y1120881D01*
X1967289Y1120783D01*
X1966801Y1120686D01*
X1966313Y1120539D01*
X1965727Y1120393D01*
X1965093Y1120295D01*
X1964409Y1120148D01*
X1963677Y1120051D01*
X1962896Y1119904D01*
X1962798D01*
X1962505Y1119856D01*
X1962066Y1119758D01*
X1961529Y1119660D01*
X1960406Y1119416D01*
X1959869Y1119270D01*
X1959430Y1119123D01*
X1959381D01*
X1959283Y1119026D01*
X1959088Y1118928D01*
X1958893Y1118782D01*
X1958405Y1118391D01*
X1957916Y1117805D01*
Y1117756D01*
X1957819Y1117659D01*
X1957770Y1117512D01*
X1957672Y1117268D01*
X1957477Y1116682D01*
X1957428Y1116341D01*
X1957379Y1115950D01*
Y1115901D01*
Y1115706D01*
X1957428Y1115413D01*
X1957526Y1115023D01*
X1957672Y1114632D01*
X1957867Y1114193D01*
X1958160Y1113753D01*
X1958551Y1113314D01*
X1958600Y1113265D01*
X1958795Y1113167D01*
X1959039Y1112972D01*
X1959430Y1112826D01*
X1959918Y1112630D01*
X1960553Y1112435D01*
X1961236Y1112337D01*
X1962066Y1112289D01*
X1962456D01*
X1962847Y1112337D01*
X1963433Y1112435D01*
X1964019Y1112533D01*
X1964702Y1112679D01*
X1965386Y1112923D01*
X1966069Y1113265D01*
X1966167Y1113314D01*
X1966362Y1113460D01*
X1966704Y1113656D01*
X1967094Y1113997D01*
X1967485Y1114339D01*
X1967924Y1114827D01*
X1968363Y1115364D01*
X1968705Y1115999D01*
X1968754Y1116048D01*
X1968803Y1116243D01*
X1968900Y1116536D01*
X1969047Y1116975D01*
X1969145Y1117561D01*
X1969242Y1118245D01*
X1969291Y1119026D01*
X1969340Y1119953D01*
Y1121418D01*
D02*
G37*
G36*
X1909586D02*
X1909488Y1121369D01*
X1909342Y1121320D01*
X1909195Y1121271D01*
X1908951Y1121174D01*
X1908658Y1121125D01*
X1908365Y1121027D01*
X1907975Y1120881D01*
X1907535Y1120783D01*
X1907047Y1120686D01*
X1906559Y1120539D01*
X1905973Y1120393D01*
X1905338Y1120295D01*
X1904655Y1120148D01*
X1903923Y1120051D01*
X1903142Y1119904D01*
X1903044D01*
X1902751Y1119856D01*
X1902312Y1119758D01*
X1901775Y1119660D01*
X1900652Y1119416D01*
X1900115Y1119270D01*
X1899675Y1119123D01*
X1899627D01*
X1899529Y1119026D01*
X1899334Y1118928D01*
X1899138Y1118782D01*
X1898650Y1118391D01*
X1898162Y1117805D01*
Y1117756D01*
X1898064Y1117659D01*
X1898016Y1117512D01*
X1897918Y1117268D01*
X1897723Y1116682D01*
X1897674Y1116341D01*
X1897625Y1115950D01*
Y1115901D01*
Y1115706D01*
X1897674Y1115413D01*
X1897771Y1115023D01*
X1897918Y1114632D01*
X1898113Y1114193D01*
X1898406Y1113753D01*
X1898797Y1113314D01*
X1898846Y1113265D01*
X1899041Y1113167D01*
X1899285Y1112972D01*
X1899675Y1112826D01*
X1900164Y1112630D01*
X1900798Y1112435D01*
X1901482Y1112337D01*
X1902312Y1112289D01*
X1902702D01*
X1903093Y1112337D01*
X1903679Y1112435D01*
X1904264Y1112533D01*
X1904948Y1112679D01*
X1905631Y1112923D01*
X1906315Y1113265D01*
X1906412Y1113314D01*
X1906608Y1113460D01*
X1906949Y1113656D01*
X1907340Y1113997D01*
X1907731Y1114339D01*
X1908170Y1114827D01*
X1908609Y1115364D01*
X1908951Y1115999D01*
X1909000Y1116048D01*
X1909049Y1116243D01*
X1909146Y1116536D01*
X1909293Y1116975D01*
X1909390Y1117561D01*
X1909488Y1118245D01*
X1909537Y1119026D01*
X1909586Y1119953D01*
Y1121418D01*
D02*
G37*
G36*
X1677257Y1138504D02*
Y1138456D01*
X1677208Y1138358D01*
Y1138211D01*
X1677159Y1137967D01*
X1677062Y1137674D01*
X1676964Y1137333D01*
X1676769Y1136552D01*
X1676525Y1135575D01*
X1676232Y1134550D01*
X1675890Y1133427D01*
X1675500Y1132304D01*
X1671985Y1122931D01*
X1682871D01*
X1679552Y1131767D01*
Y1131816D01*
X1679503Y1131963D01*
X1679405Y1132158D01*
X1679307Y1132451D01*
X1679161Y1132793D01*
X1679014Y1133183D01*
X1678722Y1134111D01*
X1678331Y1135185D01*
X1677941Y1136308D01*
X1677599Y1137430D01*
X1677257Y1138504D01*
D02*
G37*
G36*
X1541248Y1121418D02*
X1541150Y1121369D01*
X1541004Y1121320D01*
X1540857Y1121271D01*
X1540613Y1121174D01*
X1540320Y1121125D01*
X1540027Y1121027D01*
X1539637Y1120881D01*
X1539197Y1120783D01*
X1538709Y1120686D01*
X1538221Y1120539D01*
X1537635Y1120393D01*
X1537001Y1120295D01*
X1536317Y1120148D01*
X1535585Y1120051D01*
X1534804Y1119904D01*
X1534706D01*
X1534413Y1119855D01*
X1533974Y1119758D01*
X1533437Y1119660D01*
X1532314Y1119416D01*
X1531777Y1119270D01*
X1531338Y1119123D01*
X1531289D01*
X1531191Y1119026D01*
X1530996Y1118928D01*
X1530801Y1118782D01*
X1530312Y1118391D01*
X1529824Y1117805D01*
Y1117756D01*
X1529727Y1117659D01*
X1529678Y1117512D01*
X1529580Y1117268D01*
X1529385Y1116682D01*
X1529336Y1116341D01*
X1529287Y1115950D01*
Y1115901D01*
Y1115706D01*
X1529336Y1115413D01*
X1529434Y1115023D01*
X1529580Y1114632D01*
X1529775Y1114193D01*
X1530068Y1113753D01*
X1530459Y1113314D01*
X1530508Y1113265D01*
X1530703Y1113167D01*
X1530947Y1112972D01*
X1531338Y1112826D01*
X1531826Y1112630D01*
X1532460Y1112435D01*
X1533144Y1112337D01*
X1533974Y1112289D01*
X1534364D01*
X1534755Y1112337D01*
X1535341Y1112435D01*
X1535927Y1112533D01*
X1536610Y1112679D01*
X1537294Y1112923D01*
X1537977Y1113265D01*
X1538075Y1113314D01*
X1538270Y1113460D01*
X1538612Y1113656D01*
X1539002Y1113997D01*
X1539393Y1114339D01*
X1539832Y1114827D01*
X1540271Y1115364D01*
X1540613Y1115999D01*
X1540662Y1116048D01*
X1540711Y1116243D01*
X1540808Y1116536D01*
X1540955Y1116975D01*
X1541053Y1117561D01*
X1541150Y1118244D01*
X1541199Y1119026D01*
X1541248Y1119953D01*
Y1121418D01*
D02*
G37*
G36*
X1508686Y1138065D02*
X1501119D01*
Y1128301D01*
X1508979D01*
X1509564Y1128350D01*
X1510248Y1128399D01*
X1510931Y1128448D01*
X1511517Y1128545D01*
X1512054Y1128643D01*
X1512103Y1128692D01*
X1512298Y1128741D01*
X1512591Y1128838D01*
X1512982Y1129034D01*
X1513372Y1129229D01*
X1513763Y1129522D01*
X1514153Y1129863D01*
X1514495Y1130254D01*
X1514544Y1130303D01*
X1514642Y1130449D01*
X1514739Y1130693D01*
X1514935Y1131035D01*
X1515081Y1131426D01*
X1515179Y1131914D01*
X1515276Y1132451D01*
X1515325Y1133085D01*
Y1133134D01*
Y1133378D01*
X1515276Y1133671D01*
X1515227Y1134062D01*
X1515130Y1134501D01*
X1514983Y1134941D01*
X1514788Y1135429D01*
X1514544Y1135917D01*
X1514495Y1135966D01*
X1514397Y1136112D01*
X1514202Y1136308D01*
X1513958Y1136600D01*
X1513665Y1136844D01*
X1513275Y1137137D01*
X1512835Y1137382D01*
X1512347Y1137577D01*
X1512298D01*
X1512054Y1137674D01*
X1511712Y1137723D01*
X1511224Y1137821D01*
X1510541Y1137918D01*
X1509711Y1137967D01*
X1508686Y1138065D01*
D02*
G37*
G36*
X1509564Y1124542D02*
X1501119D01*
Y1113509D01*
X1510199D01*
X1511175Y1113558D01*
X1511615Y1113607D01*
X1511956Y1113656D01*
X1512005D01*
X1512201Y1113704D01*
X1512493Y1113753D01*
X1512835Y1113851D01*
X1513616Y1114095D01*
X1514397Y1114485D01*
X1514446Y1114534D01*
X1514593Y1114583D01*
X1514739Y1114730D01*
X1514983Y1114974D01*
X1515276Y1115218D01*
X1515520Y1115511D01*
X1515813Y1115901D01*
X1516057Y1116292D01*
X1516106Y1116341D01*
X1516155Y1116487D01*
X1516253Y1116731D01*
X1516399Y1117073D01*
X1516497Y1117463D01*
X1516594Y1117952D01*
X1516643Y1118440D01*
X1516692Y1119026D01*
Y1119123D01*
Y1119318D01*
X1516643Y1119660D01*
X1516594Y1120051D01*
X1516448Y1120539D01*
X1516301Y1121076D01*
X1516057Y1121613D01*
X1515716Y1122101D01*
X1515667Y1122150D01*
X1515569Y1122345D01*
X1515325Y1122541D01*
X1515032Y1122833D01*
X1514690Y1123175D01*
X1514251Y1123468D01*
X1513763Y1123761D01*
X1513177Y1124005D01*
X1513079Y1124054D01*
X1512884Y1124103D01*
X1512493Y1124200D01*
X1512005Y1124298D01*
X1511322Y1124396D01*
X1510541Y1124445D01*
X1509564Y1124542D01*
D02*
G37*
G36*
X1411829Y1121418D02*
X1411732Y1121369D01*
X1411585Y1121320D01*
X1411439Y1121271D01*
X1411194Y1121174D01*
X1410902Y1121125D01*
X1410609Y1121027D01*
X1410218Y1120881D01*
X1409779Y1120783D01*
X1409291Y1120685D01*
X1408802Y1120539D01*
X1408217Y1120393D01*
X1407582Y1120295D01*
X1406898Y1120148D01*
X1406166Y1120051D01*
X1405385Y1119904D01*
X1405287D01*
X1404995Y1119855D01*
X1404555Y1119758D01*
X1404018Y1119660D01*
X1402895Y1119416D01*
X1402358Y1119270D01*
X1401919Y1119123D01*
X1401870D01*
X1401772Y1119026D01*
X1401577Y1118928D01*
X1401382Y1118782D01*
X1400894Y1118391D01*
X1400406Y1117805D01*
Y1117756D01*
X1400308Y1117659D01*
X1400259Y1117512D01*
X1400161Y1117268D01*
X1399966Y1116682D01*
X1399917Y1116341D01*
X1399869Y1115950D01*
Y1115901D01*
Y1115706D01*
X1399917Y1115413D01*
X1400015Y1115023D01*
X1400161Y1114632D01*
X1400357Y1114193D01*
X1400650Y1113753D01*
X1401040Y1113314D01*
X1401089Y1113265D01*
X1401284Y1113167D01*
X1401528Y1112972D01*
X1401919Y1112826D01*
X1402407Y1112630D01*
X1403042Y1112435D01*
X1403725Y1112337D01*
X1404555Y1112289D01*
X1404946D01*
X1405336Y1112337D01*
X1405922Y1112435D01*
X1406508Y1112533D01*
X1407191Y1112679D01*
X1407875Y1112923D01*
X1408558Y1113265D01*
X1408656Y1113314D01*
X1408851Y1113460D01*
X1409193Y1113655D01*
X1409583Y1113997D01*
X1409974Y1114339D01*
X1410413Y1114827D01*
X1410853Y1115364D01*
X1411194Y1115999D01*
X1411243Y1116048D01*
X1411292Y1116243D01*
X1411390Y1116536D01*
X1411536Y1116975D01*
X1411634Y1117561D01*
X1411732Y1118244D01*
X1411780Y1119026D01*
X1411829Y1119953D01*
Y1121418D01*
D02*
G37*
G36*
X1246626Y1138065D02*
X1237497D01*
Y1126592D01*
X1246138D01*
X1246431Y1126641D01*
X1246773D01*
X1247114Y1126690D01*
X1247993Y1126788D01*
X1248970Y1126983D01*
X1249946Y1127227D01*
X1250825Y1127618D01*
X1251215Y1127862D01*
X1251557Y1128106D01*
X1251655Y1128155D01*
X1251850Y1128399D01*
X1252094Y1128740D01*
X1252436Y1129229D01*
X1252777Y1129815D01*
X1253022Y1130547D01*
X1253217Y1131426D01*
X1253315Y1132402D01*
Y1132500D01*
Y1132744D01*
X1253266Y1133134D01*
X1253168Y1133622D01*
X1253070Y1134159D01*
X1252875Y1134745D01*
X1252631Y1135331D01*
X1252289Y1135868D01*
X1252241Y1135917D01*
X1252094Y1136112D01*
X1251899Y1136356D01*
X1251557Y1136649D01*
X1251167Y1136942D01*
X1250727Y1137284D01*
X1250190Y1137528D01*
X1249604Y1137772D01*
X1249556D01*
X1249409Y1137821D01*
X1249116Y1137870D01*
X1248726Y1137918D01*
X1248189Y1137967D01*
X1247505Y1138016D01*
X1246626Y1138065D01*
D02*
G37*
G36*
X1790273Y1130254D02*
X1789443D01*
X1789247Y1130205D01*
X1788710Y1130156D01*
X1788027Y1129961D01*
X1787246Y1129717D01*
X1786416Y1129326D01*
X1785586Y1128741D01*
X1785195Y1128399D01*
X1784805Y1128008D01*
X1784707Y1127911D01*
X1784610Y1127764D01*
X1784512Y1127618D01*
X1784365Y1127374D01*
X1784219Y1127081D01*
X1784024Y1126739D01*
X1783877Y1126348D01*
X1783682Y1125909D01*
X1783487Y1125421D01*
X1783340Y1124884D01*
X1783194Y1124249D01*
X1783096Y1123615D01*
X1782999Y1122882D01*
X1782901Y1122150D01*
Y1121320D01*
Y1121271D01*
Y1121125D01*
Y1120881D01*
X1782950Y1120588D01*
Y1120246D01*
X1782999Y1119807D01*
X1783145Y1118830D01*
X1783389Y1117756D01*
X1783682Y1116634D01*
X1784170Y1115559D01*
X1784463Y1115071D01*
X1784805Y1114632D01*
X1784902Y1114534D01*
X1785146Y1114290D01*
X1785586Y1113949D01*
X1786172Y1113558D01*
X1786855Y1113119D01*
X1787734Y1112777D01*
X1788661Y1112533D01*
X1789198Y1112484D01*
X1789736Y1112435D01*
X1790028D01*
X1790224Y1112484D01*
X1790761Y1112533D01*
X1791444Y1112728D01*
X1792225Y1112972D01*
X1793055Y1113363D01*
X1793836Y1113900D01*
X1794227Y1114241D01*
X1794617Y1114632D01*
Y1114681D01*
X1794715Y1114730D01*
X1794813Y1114876D01*
X1794910Y1115071D01*
X1795057Y1115315D01*
X1795252Y1115608D01*
X1795399Y1115950D01*
X1795594Y1116341D01*
X1795789Y1116780D01*
X1795936Y1117268D01*
X1796131Y1117854D01*
X1796277Y1118489D01*
X1796375Y1119123D01*
X1796472Y1119856D01*
X1796570Y1120637D01*
Y1121467D01*
Y1121515D01*
Y1121662D01*
Y1121857D01*
X1796521Y1122199D01*
Y1122541D01*
X1796472Y1122931D01*
X1796326Y1123908D01*
X1796082Y1124933D01*
X1795740Y1126056D01*
X1795252Y1127081D01*
X1794569Y1128008D01*
Y1128057D01*
X1794471Y1128106D01*
X1794227Y1128350D01*
X1793788Y1128741D01*
X1793250Y1129131D01*
X1792518Y1129522D01*
X1791688Y1129912D01*
X1790761Y1130156D01*
X1790273Y1130254D01*
D02*
G37*
G36*
X1718069Y1130254D02*
X1717240D01*
X1717044Y1130205D01*
X1716507Y1130156D01*
X1715824Y1129961D01*
X1715043Y1129717D01*
X1714213Y1129326D01*
X1713383Y1128741D01*
X1712992Y1128399D01*
X1712602Y1128008D01*
X1712504Y1127911D01*
X1712406Y1127764D01*
X1712309Y1127618D01*
X1712162Y1127374D01*
X1712016Y1127081D01*
X1711821Y1126739D01*
X1711674Y1126348D01*
X1711479Y1125909D01*
X1711284Y1125421D01*
X1711137Y1124884D01*
X1710991Y1124249D01*
X1710893Y1123615D01*
X1710795Y1122882D01*
X1710698Y1122150D01*
Y1121320D01*
Y1121271D01*
Y1121125D01*
Y1120881D01*
X1710747Y1120588D01*
Y1120246D01*
X1710795Y1119807D01*
X1710942Y1118830D01*
X1711186Y1117756D01*
X1711479Y1116634D01*
X1711967Y1115559D01*
X1712260Y1115071D01*
X1712602Y1114632D01*
X1712699Y1114534D01*
X1712944Y1114290D01*
X1713383Y1113949D01*
X1713969Y1113558D01*
X1714652Y1113119D01*
X1715531Y1112777D01*
X1716458Y1112533D01*
X1716996Y1112484D01*
X1717533Y1112435D01*
X1717825D01*
X1718021Y1112484D01*
X1718558Y1112533D01*
X1719241Y1112728D01*
X1720022Y1112972D01*
X1720852Y1113363D01*
X1721633Y1113900D01*
X1722024Y1114241D01*
X1722414Y1114632D01*
Y1114681D01*
X1722512Y1114730D01*
X1722610Y1114876D01*
X1722707Y1115071D01*
X1722854Y1115315D01*
X1723049Y1115608D01*
X1723195Y1115950D01*
X1723391Y1116341D01*
X1723586Y1116780D01*
X1723732Y1117268D01*
X1723928Y1117854D01*
X1724074Y1118489D01*
X1724172Y1119123D01*
X1724270Y1119856D01*
X1724367Y1120637D01*
Y1121467D01*
Y1121515D01*
Y1121662D01*
Y1121857D01*
X1724318Y1122199D01*
Y1122541D01*
X1724270Y1122931D01*
X1724123Y1123907D01*
X1723879Y1124933D01*
X1723537Y1126056D01*
X1723049Y1127081D01*
X1722366Y1128008D01*
Y1128057D01*
X1722268Y1128106D01*
X1722024Y1128350D01*
X1721584Y1128741D01*
X1721048Y1129131D01*
X1720315Y1129522D01*
X1719485Y1129912D01*
X1718558Y1130156D01*
X1718069Y1130254D01*
D02*
G37*
G36*
X1610668Y1130303D02*
X1610424D01*
X1610229Y1130254D01*
X1609692Y1130205D01*
X1609057Y1130059D01*
X1608325Y1129863D01*
X1607593Y1129522D01*
X1606812Y1129082D01*
X1606079Y1128448D01*
X1605981Y1128350D01*
X1605786Y1128106D01*
X1605493Y1127715D01*
X1605152Y1127130D01*
X1604810Y1126446D01*
X1604468Y1125616D01*
X1604224Y1124640D01*
X1604078Y1123566D01*
X1617063D01*
Y1123615D01*
Y1123712D01*
X1617015Y1123859D01*
Y1124054D01*
X1616917Y1124591D01*
X1616770Y1125226D01*
X1616575Y1125909D01*
X1616282Y1126641D01*
X1615989Y1127374D01*
X1615550Y1127960D01*
Y1128008D01*
X1615452Y1128057D01*
X1615208Y1128350D01*
X1614769Y1128692D01*
X1614232Y1129131D01*
X1613500Y1129570D01*
X1612670Y1129961D01*
X1611742Y1130205D01*
X1611205Y1130254D01*
X1610668Y1130303D01*
D02*
G37*
G36*
X1304525Y1130303D02*
X1304281D01*
X1304086Y1130254D01*
X1303549Y1130205D01*
X1302914Y1130059D01*
X1302182Y1129863D01*
X1301450Y1129522D01*
X1300669Y1129082D01*
X1299937Y1128448D01*
X1299839Y1128350D01*
X1299644Y1128106D01*
X1299351Y1127715D01*
X1299009Y1127130D01*
X1298667Y1126446D01*
X1298326Y1125616D01*
X1298081Y1124640D01*
X1297935Y1123566D01*
X1310921Y1123566D01*
Y1123615D01*
Y1123712D01*
X1310872Y1123859D01*
Y1124054D01*
X1310774Y1124591D01*
X1310628Y1125226D01*
X1310432Y1125909D01*
X1310140Y1126641D01*
X1309847Y1127374D01*
X1309407Y1127959D01*
Y1128008D01*
X1309310Y1128057D01*
X1309066Y1128350D01*
X1308626Y1128692D01*
X1308089Y1129131D01*
X1307357Y1129570D01*
X1306527Y1129961D01*
X1305600Y1130205D01*
X1305063Y1130254D01*
X1304525Y1130303D01*
D02*
G37*
G36*
X1585526Y1130254D02*
X1584794D01*
X1584599Y1130205D01*
X1584111Y1130156D01*
X1583476Y1130010D01*
X1582793Y1129717D01*
X1582012Y1129326D01*
X1581279Y1128838D01*
X1580889Y1128496D01*
X1580547Y1128106D01*
X1580449Y1128008D01*
X1580401Y1127862D01*
X1580254Y1127715D01*
X1580108Y1127471D01*
X1579961Y1127227D01*
X1579815Y1126886D01*
X1579668Y1126495D01*
X1579473Y1126104D01*
X1579326Y1125616D01*
X1579180Y1125079D01*
X1579034Y1124542D01*
X1578838Y1123224D01*
X1578741Y1121759D01*
Y1121711D01*
Y1121564D01*
Y1121320D01*
X1578790Y1121027D01*
Y1120637D01*
X1578838Y1120197D01*
X1578985Y1119221D01*
X1579180Y1118147D01*
X1579522Y1117024D01*
X1579961Y1115999D01*
X1580254Y1115559D01*
X1580547Y1115120D01*
X1580645Y1115023D01*
X1580889Y1114778D01*
X1581279Y1114437D01*
X1581816Y1114095D01*
X1582451Y1113704D01*
X1583232Y1113363D01*
X1584111Y1113119D01*
X1584599Y1113070D01*
X1585087Y1113021D01*
X1585331D01*
X1585526Y1113070D01*
X1586064Y1113119D01*
X1586698Y1113265D01*
X1587382Y1113509D01*
X1588163Y1113900D01*
X1588895Y1114388D01*
X1589627Y1115071D01*
Y1115120D01*
X1589725Y1115169D01*
X1589823Y1115315D01*
X1589920Y1115462D01*
X1590067Y1115706D01*
X1590213Y1115950D01*
X1590359Y1116292D01*
X1590555Y1116682D01*
X1590750Y1117122D01*
X1590896Y1117610D01*
X1591043Y1118147D01*
X1591190Y1118733D01*
X1591336Y1119367D01*
X1591385Y1120051D01*
X1591482Y1120832D01*
Y1121613D01*
Y1121662D01*
Y1121808D01*
Y1122004D01*
X1591434Y1122297D01*
Y1122687D01*
X1591385Y1123078D01*
X1591238Y1124054D01*
X1591043Y1125079D01*
X1590701Y1126153D01*
X1590213Y1127178D01*
X1589920Y1127618D01*
X1589578Y1128057D01*
Y1128106D01*
X1589481Y1128155D01*
X1589237Y1128399D01*
X1588846Y1128741D01*
X1588309Y1129180D01*
X1587675Y1129570D01*
X1586893Y1129912D01*
X1586015Y1130156D01*
X1585526Y1130254D01*
D02*
G37*
%LPD*%
D11*
X2284824Y1473084D02*
Y1476894D01*
X2246724D02*
X2284824D01*
X2246724Y1473084D02*
Y1476894D01*
X2284824Y1368944D02*
Y1372754D01*
X2246724Y1368944D02*
X2284824D01*
X2246724D02*
Y1372754D01*
X2344024Y1333054D02*
X2359024D01*
X2344024D02*
Y1363054D01*
X2374024D01*
Y1333054D02*
Y1363054D01*
X2359024Y1333054D02*
X2374024D01*
X1922774Y1400184D02*
X1910778D01*
Y1406182D01*
X1912777Y1408181D01*
X1916776D01*
X1918775Y1406182D01*
Y1400184D01*
Y1404182D02*
X1922774Y1408181D01*
Y1412180D02*
Y1416179D01*
Y1414179D01*
X1910778D01*
X1912777Y1412180D01*
X1922774Y1430174D02*
Y1422177D01*
X1914776Y1430174D01*
X1912777D01*
X1910778Y1428175D01*
Y1424176D01*
X1912777Y1422177D01*
X1940274Y1419554D02*
X1928278D01*
Y1425552D01*
X1930277Y1427551D01*
X1934276D01*
X1936275Y1425552D01*
Y1419554D01*
Y1423553D02*
X1940274Y1427551D01*
Y1431550D02*
Y1435549D01*
Y1433549D01*
X1928278D01*
X1930277Y1431550D01*
X1928278Y1449544D02*
X1930277Y1445545D01*
X1934276Y1441547D01*
X1938274D01*
X1940274Y1443546D01*
Y1447545D01*
X1938274Y1449544D01*
X1936275D01*
X1934276Y1447545D01*
Y1441547D01*
X2130274Y1434554D02*
X2118278D01*
Y1440552D01*
X2120277Y1442551D01*
X2124276D01*
X2126275Y1440552D01*
Y1434554D01*
Y1438553D02*
X2130274Y1442551D01*
Y1446550D02*
Y1450549D01*
Y1448549D01*
X2118278D01*
X2120277Y1446550D01*
X2130274Y1352054D02*
X2118278D01*
Y1358052D01*
X2120277Y1360051D01*
X2124276D01*
X2126275Y1358052D01*
Y1352054D01*
Y1356053D02*
X2130274Y1360051D01*
X2118278Y1372047D02*
X2120277Y1368049D01*
X2124276Y1364050D01*
X2128274D01*
X2130274Y1366049D01*
Y1370048D01*
X2128274Y1372047D01*
X2126275D01*
X2124276Y1370048D01*
Y1364050D01*
X2102777Y1360051D02*
X2100778Y1358052D01*
Y1354053D01*
X2102777Y1352054D01*
X2110774D01*
X2112774Y1354053D01*
Y1358052D01*
X2110774Y1360051D01*
Y1364050D02*
X2112774Y1366049D01*
Y1370048D01*
X2110774Y1372047D01*
X2102777D01*
X2100778Y1370048D01*
Y1366049D01*
X2102777Y1364050D01*
X2104776D01*
X2106776Y1366049D01*
Y1372047D01*
X2094024Y1339554D02*
X2082028D01*
Y1345552D01*
X2084027Y1347551D01*
X2088026D01*
X2090025Y1345552D01*
Y1339554D01*
Y1343553D02*
X2094024Y1347551D01*
Y1359547D02*
Y1351550D01*
X2086026Y1359547D01*
X2084027D01*
X2082028Y1357548D01*
Y1353549D01*
X2084027Y1351550D01*
X2152774Y1428804D02*
X2140778D01*
Y1434802D01*
X2142777Y1436801D01*
X2146776D01*
X2148775Y1434802D01*
Y1428804D01*
Y1432802D02*
X2152774Y1436801D01*
X2150774Y1440800D02*
X2152774Y1442799D01*
Y1446798D01*
X2150774Y1448797D01*
X2142777D01*
X2140778Y1446798D01*
Y1442799D01*
X2142777Y1440800D01*
X2144776D01*
X2146776Y1442799D01*
Y1448797D01*
X2195274Y1357551D02*
X2187277D01*
X2185278Y1355552D01*
Y1351553D01*
X2187277Y1349554D01*
X2195274D01*
X2197274Y1351553D01*
Y1355552D01*
X2193275Y1353553D02*
X2197274Y1357551D01*
Y1355552D02*
X2195274Y1357551D01*
X2197274Y1369547D02*
Y1361550D01*
X2189276Y1369547D01*
X2187277D01*
X2185278Y1367548D01*
Y1363549D01*
X2187277Y1361550D01*
X2194024Y1462551D02*
X2186027D01*
X2184028Y1460552D01*
Y1456553D01*
X2186027Y1454554D01*
X2194024D01*
X2196024Y1456553D01*
Y1460552D01*
X2192025Y1458553D02*
X2196024Y1462551D01*
Y1460552D02*
X2194024Y1462551D01*
X2196024Y1466550D02*
Y1470549D01*
Y1468549D01*
X2184028D01*
X2186027Y1466550D01*
X2209574Y1329554D02*
Y1341550D01*
X2215572D01*
X2217571Y1339551D01*
Y1335552D01*
X2215572Y1333553D01*
X2209574D01*
X2213573D02*
X2217571Y1329554D01*
X2221570Y1339551D02*
X2223569Y1341550D01*
X2227568D01*
X2229567Y1339551D01*
Y1337551D01*
X2227568Y1335552D01*
X2229567Y1333553D01*
Y1331553D01*
X2227568Y1329554D01*
X2223569D01*
X2221570Y1331553D01*
Y1333553D01*
X2223569Y1335552D01*
X2221570Y1337551D01*
Y1339551D01*
X2223569Y1335552D02*
X2227568D01*
X2246724Y1494050D02*
Y1484053D01*
X2248723Y1482054D01*
X2252722D01*
X2254721Y1484053D01*
Y1494050D01*
X2264718Y1482054D02*
Y1494050D01*
X2258720Y1488052D01*
X2266717D01*
X2217774Y1427054D02*
X2205778D01*
Y1433052D01*
X2207777Y1435051D01*
X2211776D01*
X2213775Y1433052D01*
Y1427054D01*
Y1431053D02*
X2217774Y1435051D01*
Y1439050D02*
Y1443049D01*
Y1441049D01*
X2205778D01*
X2207777Y1439050D01*
Y1449047D02*
X2205778Y1451046D01*
Y1455045D01*
X2207777Y1457044D01*
X2215774D01*
X2217774Y1455045D01*
Y1451046D01*
X2215774Y1449047D01*
X2207777D01*
X2337774Y1432412D02*
X2325778D01*
Y1438410D01*
X2327777Y1440409D01*
X2331776D01*
X2333775Y1438410D01*
Y1432412D01*
Y1436411D02*
X2337774Y1440409D01*
X2325778Y1452405D02*
Y1444408D01*
X2331776D01*
X2329776Y1448407D01*
Y1450406D01*
X2331776Y1452405D01*
X2335774D01*
X2337774Y1450406D01*
Y1446407D01*
X2335774Y1444408D01*
X2343278Y1402054D02*
X2355274D01*
Y1408052D01*
X2353274Y1410051D01*
X2345277D01*
X2343278Y1408052D01*
Y1402054D01*
X2355274Y1414050D02*
Y1418049D01*
Y1416049D01*
X2343278D01*
X2345277Y1414050D01*
X2392774Y1440800D02*
X2400771D01*
X2396772D01*
Y1428804D01*
X2404770D02*
X2408769D01*
X2406769D01*
Y1440800D01*
X2404770Y1438801D01*
X2397274Y1386800D02*
Y1376803D01*
X2399273Y1374804D01*
X2403272D01*
X2405271Y1376803D01*
Y1386800D01*
X2409270Y1384801D02*
X2411269Y1386800D01*
X2415268D01*
X2417267Y1384801D01*
Y1382801D01*
X2415268Y1380802D01*
X2413269D01*
X2415268D01*
X2417267Y1378802D01*
Y1376803D01*
X2415268Y1374804D01*
X2411269D01*
X2409270Y1376803D01*
X2344024Y1380940D02*
Y1370943D01*
X2346023Y1368944D01*
X2350022D01*
X2352021Y1370943D01*
Y1380940D01*
X2364017Y1368944D02*
X2356020D01*
X2364017Y1376941D01*
Y1378941D01*
X2362018Y1380940D01*
X2358019D01*
X2356020Y1378941D01*
X2307777Y1351051D02*
X2305778Y1349052D01*
Y1345053D01*
X2307777Y1343054D01*
X2315774D01*
X2317774Y1345053D01*
Y1349052D01*
X2315774Y1351051D01*
X2305778Y1355050D02*
Y1363047D01*
X2307777D01*
X2315774Y1355050D01*
X2317774D01*
X2422774Y1312054D02*
Y1324050D01*
X2428772D01*
X2430771Y1322051D01*
Y1318052D01*
X2428772Y1316053D01*
X2422774D01*
X2426772D02*
X2430771Y1312054D01*
X2434770D02*
X2438769D01*
X2436769D01*
Y1324050D01*
X2434770Y1322051D01*
X2444767Y1312054D02*
X2448765D01*
X2446766D01*
Y1324050D01*
X2444767Y1322051D01*
X2422771Y1252706D02*
X2424770Y1254706D01*
Y1258705D01*
X2422771Y1260704D01*
X2414773D01*
X2412774Y1258705D01*
Y1254706D01*
X2414773Y1252706D01*
X2412774Y1248708D02*
Y1244709D01*
Y1246708D01*
X2424770D01*
X2422771Y1248708D01*
X2412774Y1238711D02*
Y1234712D01*
Y1236712D01*
X2424770D01*
X2422771Y1238711D01*
X2359024Y1262054D02*
Y1274050D01*
X2365022D01*
X2367021Y1272051D01*
Y1268052D01*
X2365022Y1266052D01*
X2359024D01*
X2363022D02*
X2367021Y1262054D01*
X2377018D02*
Y1274050D01*
X2371020Y1268052D01*
X2379017D01*
X2359024Y1277054D02*
Y1289050D01*
X2365022D01*
X2367021Y1287051D01*
Y1283052D01*
X2365022Y1281053D01*
X2359024D01*
X2363022D02*
X2367021Y1277054D01*
X2371020Y1287051D02*
X2373019Y1289050D01*
X2377018D01*
X2379017Y1287051D01*
Y1285051D01*
X2377018Y1283052D01*
X2375019D01*
X2377018D01*
X2379017Y1281053D01*
Y1279053D01*
X2377018Y1277054D01*
X2373019D01*
X2371020Y1279053D01*
X1684701Y1500834D02*
Y1488138D01*
X1687240Y1485599D01*
X1692318D01*
X1694857Y1488138D01*
Y1500834D01*
X1699936Y1485599D02*
X1705014D01*
X1702475D01*
Y1500834D01*
X1699936Y1498295D01*
X2208271Y1324551D02*
X2206272Y1326550D01*
X2202273D01*
X2200274Y1324551D01*
Y1316553D01*
X2202273Y1314554D01*
X2206272D01*
X2208271Y1316553D01*
X2212270Y1314554D02*
X2216269D01*
X2214269D01*
Y1326550D01*
X2212270Y1324551D01*
X2222267D02*
X2224266Y1326550D01*
X2228265D01*
X2230264Y1324551D01*
Y1316553D01*
X2228265Y1314554D01*
X2224266D01*
X2222267Y1316553D01*
Y1324551D01*
D27*
X2448317Y1631567D02*
X2452913Y1632628D01*
X2448317Y1631567D02*
X2449378Y1636163D01*
X2452913Y1632628D01*
X2451145Y1628739D02*
X2453974Y1631567D01*
X2445489Y1634395D02*
X2448317Y1637224D01*
X2418317Y1631567D02*
X2422913Y1632628D01*
X2418317Y1631567D02*
X2419378Y1636163D01*
X2422913Y1632628D01*
X2421145Y1628739D02*
X2423974Y1631567D01*
X2415489Y1634395D02*
X2418317Y1637224D01*
X2388317Y1631567D02*
X2392913Y1632628D01*
X2388317Y1631567D02*
X2389378Y1636163D01*
X2392913Y1632628D01*
X2391145Y1628739D02*
X2393974Y1631567D01*
X2385489Y1634395D02*
X2388317Y1637224D01*
X2358317Y1631567D02*
X2362913Y1632628D01*
X2358317Y1631567D02*
X2359378Y1636163D01*
X2362913Y1632628D01*
X2361145Y1628739D02*
X2363974Y1631567D01*
X2355489Y1634395D02*
X2358317Y1637224D01*
X2328317Y1631567D02*
X2332913Y1632628D01*
X2328317Y1631567D02*
X2329378Y1636163D01*
X2332913Y1632628D01*
X2331145Y1628739D02*
X2333974Y1631567D01*
X2325489Y1634395D02*
X2328317Y1637224D01*
X2298317Y1631567D02*
X2302913Y1632628D01*
X2298317Y1631567D02*
X2299378Y1636163D01*
X2302913Y1632628D01*
X2301145Y1628739D02*
X2303974Y1631567D01*
X2295489Y1634395D02*
X2298317Y1637224D01*
X2268317Y1631567D02*
X2272913Y1632628D01*
X2268317Y1631567D02*
X2269378Y1636163D01*
X2272913Y1632628D01*
X2271145Y1628739D02*
X2273974Y1631567D01*
X2265489Y1634395D02*
X2268317Y1637224D01*
X2238317Y1631567D02*
X2242913Y1632628D01*
X2238317Y1631567D02*
X2239378Y1636163D01*
X2242913Y1632628D01*
X2241145Y1628739D02*
X2243974Y1631567D01*
X2235489Y1634395D02*
X2238317Y1637224D01*
X2208317Y1631567D02*
X2212913Y1632628D01*
X2208317Y1631567D02*
X2209378Y1636163D01*
X2212913Y1632628D01*
X2211145Y1628739D02*
X2213974Y1631567D01*
X2205489Y1634395D02*
X2208317Y1637224D01*
X2178317Y1631567D02*
X2182913Y1632628D01*
X2178317Y1631567D02*
X2179378Y1636163D01*
X2182913Y1632628D01*
X2181145Y1628739D02*
X2183974Y1631567D01*
X2175489Y1634395D02*
X2178317Y1637224D01*
X2148317Y1631567D02*
X2152913Y1632628D01*
X2148317Y1631567D02*
X2149378Y1636163D01*
X2152913Y1632628D01*
X2151145Y1628739D02*
X2153974Y1631567D01*
X2145489Y1634395D02*
X2148317Y1637224D01*
X2118317Y1631567D02*
X2122913Y1632628D01*
X2118317Y1631567D02*
X2119378Y1636163D01*
X2122913Y1632628D01*
X2121145Y1628739D02*
X2123974Y1631567D01*
X2115489Y1634395D02*
X2118317Y1637224D01*
X2088317Y1631567D02*
X2092913Y1632628D01*
X2088317Y1631567D02*
X2089378Y1636163D01*
X2092913Y1632628D01*
X2091145Y1628739D02*
X2093974Y1631567D01*
X2085489Y1634395D02*
X2088317Y1637224D01*
X2058317Y1631567D02*
X2062913Y1632628D01*
X2058317Y1631567D02*
X2059378Y1636163D01*
X2062913Y1632628D01*
X2061145Y1628739D02*
X2063974Y1631567D01*
X2055489Y1634395D02*
X2058317Y1637224D01*
X2028317Y1631567D02*
X2032913Y1632628D01*
X2028317Y1631567D02*
X2029378Y1636163D01*
X2032913Y1632628D01*
X2031145Y1628739D02*
X2033974Y1631567D01*
X2025489Y1634395D02*
X2028317Y1637224D01*
X1998317Y1631567D02*
X2002913Y1632628D01*
X1998317Y1631567D02*
X1999378Y1636163D01*
X2002913Y1632628D01*
X2001145Y1628739D02*
X2003974Y1631567D01*
X1995489Y1634395D02*
X1998317Y1637224D01*
X1968317Y1631567D02*
X1972913Y1632628D01*
X1968317Y1631567D02*
X1969378Y1636163D01*
X1972913Y1632628D01*
X1971145Y1628739D02*
X1973974Y1631567D01*
X1965489Y1634395D02*
X1968317Y1637224D01*
X1938317Y1631567D02*
X1942913Y1632628D01*
X1938317Y1631567D02*
X1939378Y1636163D01*
X1942913Y1632628D01*
X1941145Y1628739D02*
X1943974Y1631567D01*
X1935489Y1634395D02*
X1938317Y1637224D01*
X1908317Y1631567D02*
X1912913Y1632628D01*
X1908317Y1631567D02*
X1909378Y1636163D01*
X1912913Y1632628D01*
X1911145Y1628739D02*
X1913974Y1631567D01*
X1905489Y1634395D02*
X1908317Y1637224D01*
X1878317Y1631567D02*
X1882913Y1632628D01*
X1878317Y1631567D02*
X1879378Y1636163D01*
X1882913Y1632628D01*
X1881145Y1628739D02*
X1883974Y1631567D01*
X1875489Y1634395D02*
X1878317Y1637224D01*
X1848317Y1631567D02*
X1852913Y1632628D01*
X1848317Y1631567D02*
X1849378Y1636163D01*
X1852913Y1632628D01*
X1851145Y1628739D02*
X1853974Y1631567D01*
X1845489Y1634395D02*
X1848317Y1637224D01*
X1818317Y1631567D02*
X1822913Y1632628D01*
X1818317Y1631567D02*
X1819378Y1636163D01*
X1822913Y1632628D01*
X1821145Y1628739D02*
X1823974Y1631567D01*
X1815489Y1634395D02*
X1818317Y1637224D01*
X1788317Y1631567D02*
X1792913Y1632628D01*
X1788317Y1631567D02*
X1789378Y1636163D01*
X1792913Y1632628D01*
X1791145Y1628739D02*
X1793974Y1631567D01*
X1785489Y1634395D02*
X1788317Y1637224D01*
X1758317Y1631567D02*
X1762913Y1632628D01*
X1758317Y1631567D02*
X1759378Y1636163D01*
X1762913Y1632628D01*
X1761145Y1628739D02*
X1763974Y1631567D01*
X1755489Y1634395D02*
X1758317Y1637224D01*
X1728317Y1631567D02*
X1732913Y1632628D01*
X1728317Y1631567D02*
X1729378Y1636163D01*
X1732913Y1632628D01*
X1731145Y1628739D02*
X1733974Y1631567D01*
X1725489Y1634395D02*
X1728317Y1637224D01*
X1698317Y1631567D02*
X1702913Y1632628D01*
X1698317Y1631567D02*
X1699378Y1636163D01*
X1702913Y1632628D01*
X1701145Y1628739D02*
X1703974Y1631567D01*
X1695489Y1634395D02*
X1698317Y1637224D01*
X1668317Y1631567D02*
X1672913Y1632628D01*
X1668317Y1631567D02*
X1669378Y1636163D01*
X1672913Y1632628D01*
X1671145Y1628739D02*
X1673974Y1631567D01*
X1665489Y1634395D02*
X1668317Y1637224D01*
X1638317Y1631567D02*
X1642913Y1632628D01*
X1638317Y1631567D02*
X1639378Y1636163D01*
X1642913Y1632628D01*
X1641145Y1628739D02*
X1643974Y1631567D01*
X1635489Y1634395D02*
X1638317Y1637224D01*
X1608317Y1631567D02*
X1612913Y1632628D01*
X1608317Y1631567D02*
X1609378Y1636163D01*
X1612913Y1632628D01*
X1611145Y1628739D02*
X1613974Y1631567D01*
X1605489Y1634395D02*
X1608317Y1637224D01*
X1578317Y1631567D02*
X1582913Y1632628D01*
X1578317Y1631567D02*
X1579378Y1636163D01*
X1582913Y1632628D01*
X1581145Y1628739D02*
X1583974Y1631567D01*
X1575489Y1634395D02*
X1578317Y1637224D01*
X1548317Y1631567D02*
X1552913Y1632628D01*
X1548317Y1631567D02*
X1549378Y1636163D01*
X1552913Y1632628D01*
X1551145Y1628739D02*
X1553974Y1631567D01*
X1545489Y1634395D02*
X1548317Y1637224D01*
X1518317Y1631567D02*
X1522913Y1632628D01*
X1518317Y1631567D02*
X1519378Y1636163D01*
X1522913Y1632628D01*
X1521145Y1628739D02*
X1523974Y1631567D01*
X1515489Y1634395D02*
X1518317Y1637224D01*
X1488317Y1631567D02*
X1492913Y1632628D01*
X1488317Y1631567D02*
X1489378Y1636163D01*
X1492913Y1632628D01*
X1491145Y1628739D02*
X1493974Y1631567D01*
X1485489Y1634395D02*
X1488317Y1637224D01*
X1458317Y1631567D02*
X1462913Y1632628D01*
X1458317Y1631567D02*
X1459378Y1636163D01*
X1462913Y1632628D01*
X1461145Y1628739D02*
X1463974Y1631567D01*
X1455489Y1634395D02*
X1458317Y1637224D01*
X1428317Y1631567D02*
X1432913Y1632628D01*
X1428317Y1631567D02*
X1429378Y1636163D01*
X1432913Y1632628D01*
X1431145Y1628739D02*
X1433974Y1631567D01*
X1425489Y1634395D02*
X1428317Y1637224D01*
X1398317Y1631567D02*
X1402913Y1632628D01*
X1398317Y1631567D02*
X1399378Y1636163D01*
X1402913Y1632628D01*
X1401145Y1628739D02*
X1403974Y1631567D01*
X1395489Y1634395D02*
X1398317Y1637224D01*
X1368317Y1631567D02*
X1372913Y1632628D01*
X1368317Y1631567D02*
X1369378Y1636163D01*
X1372913Y1632628D01*
X1371145Y1628739D02*
X1373974Y1631567D01*
X1365489Y1634395D02*
X1368317Y1637224D01*
X1338317Y1631567D02*
X1342913Y1632628D01*
X1338317Y1631567D02*
X1339378Y1636163D01*
X1342913Y1632628D01*
X1341145Y1628739D02*
X1343974Y1631567D01*
X1335489Y1634395D02*
X1338317Y1637224D01*
X1308317Y1631567D02*
X1312913Y1632628D01*
X1308317Y1631567D02*
X1309378Y1636163D01*
X1312913Y1632628D01*
X1311145Y1628739D02*
X1313974Y1631567D01*
X1305489Y1634395D02*
X1308317Y1637224D01*
X2448317Y1661567D02*
X2452913Y1662628D01*
X2448317Y1661567D02*
X2449378Y1666163D01*
X2452913Y1662628D01*
X2451145Y1658739D02*
X2453974Y1661567D01*
X2445489Y1664395D02*
X2448317Y1667224D01*
X2418317Y1661567D02*
X2422913Y1662628D01*
X2418317Y1661567D02*
X2419378Y1666163D01*
X2422913Y1662628D01*
X2421145Y1658739D02*
X2423974Y1661567D01*
X2415489Y1664395D02*
X2418317Y1667224D01*
X2388317Y1661567D02*
X2392913Y1662628D01*
X2388317Y1661567D02*
X2389378Y1666163D01*
X2392913Y1662628D01*
X2391145Y1658739D02*
X2393974Y1661567D01*
X2385489Y1664395D02*
X2388317Y1667224D01*
X2358317Y1661567D02*
X2362913Y1662628D01*
X2358317Y1661567D02*
X2359378Y1666163D01*
X2362913Y1662628D01*
X2361145Y1658739D02*
X2363974Y1661567D01*
X2355489Y1664395D02*
X2358317Y1667224D01*
X2328317Y1661567D02*
X2332913Y1662628D01*
X2328317Y1661567D02*
X2329378Y1666163D01*
X2332913Y1662628D01*
X2331145Y1658739D02*
X2333974Y1661567D01*
X2325489Y1664395D02*
X2328317Y1667224D01*
X2298317Y1661567D02*
X2302913Y1662628D01*
X2298317Y1661567D02*
X2299378Y1666163D01*
X2302913Y1662628D01*
X2301145Y1658739D02*
X2303974Y1661567D01*
X2295489Y1664395D02*
X2298317Y1667224D01*
X2268317Y1661567D02*
X2272913Y1662628D01*
X2268317Y1661567D02*
X2269378Y1666163D01*
X2272913Y1662628D01*
X2271145Y1658739D02*
X2273974Y1661567D01*
X2265489Y1664395D02*
X2268317Y1667224D01*
X2238317Y1661567D02*
X2242913Y1662628D01*
X2238317Y1661567D02*
X2239378Y1666163D01*
X2242913Y1662628D01*
X2241145Y1658739D02*
X2243974Y1661567D01*
X2235489Y1664395D02*
X2238317Y1667224D01*
X2208317Y1661567D02*
X2212913Y1662628D01*
X2208317Y1661567D02*
X2209378Y1666163D01*
X2212913Y1662628D01*
X2211145Y1658739D02*
X2213974Y1661567D01*
X2205489Y1664395D02*
X2208317Y1667224D01*
X2178317Y1661567D02*
X2182913Y1662628D01*
X2178317Y1661567D02*
X2179378Y1666163D01*
X2182913Y1662628D01*
X2181145Y1658739D02*
X2183974Y1661567D01*
X2175489Y1664395D02*
X2178317Y1667224D01*
X2148317Y1661567D02*
X2152913Y1662628D01*
X2148317Y1661567D02*
X2149378Y1666163D01*
X2152913Y1662628D01*
X2151145Y1658739D02*
X2153974Y1661567D01*
X2145489Y1664395D02*
X2148317Y1667224D01*
X2118317Y1661567D02*
X2122913Y1662628D01*
X2118317Y1661567D02*
X2119378Y1666163D01*
X2122913Y1662628D01*
X2121145Y1658739D02*
X2123974Y1661567D01*
X2115489Y1664395D02*
X2118317Y1667224D01*
X2088317Y1661567D02*
X2092913Y1662628D01*
X2088317Y1661567D02*
X2089378Y1666163D01*
X2092913Y1662628D01*
X2091145Y1658739D02*
X2093974Y1661567D01*
X2085489Y1664395D02*
X2088317Y1667224D01*
X2058317Y1661567D02*
X2062913Y1662628D01*
X2058317Y1661567D02*
X2059378Y1666163D01*
X2062913Y1662628D01*
X2061145Y1658739D02*
X2063974Y1661567D01*
X2055489Y1664395D02*
X2058317Y1667224D01*
X2028317Y1661567D02*
X2032913Y1662628D01*
X2028317Y1661567D02*
X2029378Y1666163D01*
X2032913Y1662628D01*
X2031145Y1658739D02*
X2033974Y1661567D01*
X2025489Y1664395D02*
X2028317Y1667224D01*
X1998317Y1661567D02*
X2002913Y1662628D01*
X1998317Y1661567D02*
X1999378Y1666163D01*
X2002913Y1662628D01*
X2001145Y1658739D02*
X2003974Y1661567D01*
X1995489Y1664395D02*
X1998317Y1667224D01*
X1968317Y1661567D02*
X1972913Y1662628D01*
X1968317Y1661567D02*
X1969378Y1666163D01*
X1972913Y1662628D01*
X1971145Y1658739D02*
X1973974Y1661567D01*
X1965489Y1664395D02*
X1968317Y1667224D01*
X1938317Y1661567D02*
X1942913Y1662628D01*
X1938317Y1661567D02*
X1939378Y1666163D01*
X1942913Y1662628D01*
X1941145Y1658739D02*
X1943974Y1661567D01*
X1935489Y1664395D02*
X1938317Y1667224D01*
X1908317Y1661567D02*
X1912913Y1662628D01*
X1908317Y1661567D02*
X1909378Y1666163D01*
X1912913Y1662628D01*
X1911145Y1658739D02*
X1913974Y1661567D01*
X1905489Y1664395D02*
X1908317Y1667224D01*
X1878317Y1661567D02*
X1882913Y1662628D01*
X1878317Y1661567D02*
X1879378Y1666163D01*
X1882913Y1662628D01*
X1881145Y1658739D02*
X1883974Y1661567D01*
X1875489Y1664395D02*
X1878317Y1667224D01*
X1848317Y1661567D02*
X1852913Y1662628D01*
X1848317Y1661567D02*
X1849378Y1666163D01*
X1852913Y1662628D01*
X1851145Y1658739D02*
X1853974Y1661567D01*
X1845489Y1664395D02*
X1848317Y1667224D01*
X1818317Y1661567D02*
X1822913Y1662628D01*
X1818317Y1661567D02*
X1819378Y1666163D01*
X1822913Y1662628D01*
X1821145Y1658739D02*
X1823974Y1661567D01*
X1815489Y1664395D02*
X1818317Y1667224D01*
X1788317Y1661567D02*
X1792913Y1662628D01*
X1788317Y1661567D02*
X1789378Y1666163D01*
X1792913Y1662628D01*
X1791145Y1658739D02*
X1793974Y1661567D01*
X1785489Y1664395D02*
X1788317Y1667224D01*
X1758317Y1661567D02*
X1762913Y1662628D01*
X1758317Y1661567D02*
X1759378Y1666163D01*
X1762913Y1662628D01*
X1761145Y1658739D02*
X1763974Y1661567D01*
X1755489Y1664395D02*
X1758317Y1667224D01*
X1728317Y1661567D02*
X1732913Y1662628D01*
X1728317Y1661567D02*
X1729378Y1666163D01*
X1732913Y1662628D01*
X1731145Y1658739D02*
X1733974Y1661567D01*
X1725489Y1664395D02*
X1728317Y1667224D01*
X1698317Y1661567D02*
X1702913Y1662628D01*
X1698317Y1661567D02*
X1699378Y1666163D01*
X1702913Y1662628D01*
X1701145Y1658739D02*
X1703974Y1661567D01*
X1695489Y1664395D02*
X1698317Y1667224D01*
X1668317Y1661567D02*
X1672913Y1662628D01*
X1668317Y1661567D02*
X1669378Y1666163D01*
X1672913Y1662628D01*
X1671145Y1658739D02*
X1673974Y1661567D01*
X1665489Y1664395D02*
X1668317Y1667224D01*
X1638317Y1661567D02*
X1642913Y1662628D01*
X1638317Y1661567D02*
X1639378Y1666163D01*
X1642913Y1662628D01*
X1641145Y1658739D02*
X1643974Y1661567D01*
X1635489Y1664395D02*
X1638317Y1667224D01*
X1608317Y1661567D02*
X1612913Y1662628D01*
X1608317Y1661567D02*
X1609378Y1666163D01*
X1612913Y1662628D01*
X1611145Y1658739D02*
X1613974Y1661567D01*
X1605489Y1664395D02*
X1608317Y1667224D01*
X1578317Y1661567D02*
X1582913Y1662628D01*
X1578317Y1661567D02*
X1579378Y1666163D01*
X1582913Y1662628D01*
X1581145Y1658739D02*
X1583974Y1661567D01*
X1575489Y1664395D02*
X1578317Y1667224D01*
X1548317Y1661567D02*
X1552913Y1662628D01*
X1548317Y1661567D02*
X1549378Y1666163D01*
X1552913Y1662628D01*
X1551145Y1658739D02*
X1553974Y1661567D01*
X1545489Y1664395D02*
X1548317Y1667224D01*
X1518317Y1661567D02*
X1522913Y1662628D01*
X1518317Y1661567D02*
X1519378Y1666163D01*
X1522913Y1662628D01*
X1521145Y1658739D02*
X1523974Y1661567D01*
X1515489Y1664395D02*
X1518317Y1667224D01*
X1488317Y1661567D02*
X1492913Y1662628D01*
X1488317Y1661567D02*
X1489378Y1666163D01*
X1492913Y1662628D01*
X1491145Y1658739D02*
X1493974Y1661567D01*
X1485489Y1664395D02*
X1488317Y1667224D01*
X1458317Y1661567D02*
X1462913Y1662628D01*
X1458317Y1661567D02*
X1459378Y1666163D01*
X1462913Y1662628D01*
X1461145Y1658739D02*
X1463974Y1661567D01*
X1455489Y1664395D02*
X1458317Y1667224D01*
X1428317Y1661567D02*
X1432913Y1662628D01*
X1428317Y1661567D02*
X1429378Y1666163D01*
X1432913Y1662628D01*
X1431145Y1658739D02*
X1433974Y1661567D01*
X1425489Y1664395D02*
X1428317Y1667224D01*
X1398317Y1661567D02*
X1402913Y1662628D01*
X1398317Y1661567D02*
X1399378Y1666163D01*
X1402913Y1662628D01*
X1401145Y1658739D02*
X1403974Y1661567D01*
X1395489Y1664395D02*
X1398317Y1667224D01*
X1368317Y1661567D02*
X1372913Y1662628D01*
X1368317Y1661567D02*
X1369378Y1666163D01*
X1372913Y1662628D01*
X1371145Y1658739D02*
X1373974Y1661567D01*
X1365489Y1664395D02*
X1368317Y1667224D01*
X1338317Y1661567D02*
X1342913Y1662628D01*
X1338317Y1661567D02*
X1339378Y1666163D01*
X1342913Y1662628D01*
X1341145Y1658739D02*
X1343974Y1661567D01*
X1335489Y1664395D02*
X1338317Y1667224D01*
X1308317Y1661567D02*
X1312913Y1662628D01*
X1308317Y1661567D02*
X1309378Y1666163D01*
X1312913Y1662628D01*
X1311145Y1658739D02*
X1313974Y1661567D01*
X1305489Y1664395D02*
X1308317Y1667224D01*
X2448317Y1691567D02*
X2452913Y1692628D01*
X2448317Y1691567D02*
X2449378Y1696163D01*
X2452913Y1692628D01*
X2451145Y1688739D02*
X2453974Y1691567D01*
X2445489Y1694395D02*
X2448317Y1697224D01*
X2418317Y1691567D02*
X2422913Y1692628D01*
X2418317Y1691567D02*
X2419378Y1696163D01*
X2422913Y1692628D01*
X2421145Y1688739D02*
X2423974Y1691567D01*
X2415489Y1694395D02*
X2418317Y1697224D01*
X2388317Y1691567D02*
X2392913Y1692628D01*
X2388317Y1691567D02*
X2389378Y1696163D01*
X2392913Y1692628D01*
X2391145Y1688739D02*
X2393974Y1691567D01*
X2385489Y1694395D02*
X2388317Y1697224D01*
X2358317Y1691567D02*
X2362913Y1692628D01*
X2358317Y1691567D02*
X2359378Y1696163D01*
X2362913Y1692628D01*
X2361145Y1688739D02*
X2363974Y1691567D01*
X2355489Y1694395D02*
X2358317Y1697224D01*
X2328317Y1691567D02*
X2332913Y1692628D01*
X2328317Y1691567D02*
X2329378Y1696163D01*
X2332913Y1692628D01*
X2331145Y1688739D02*
X2333974Y1691567D01*
X2325489Y1694395D02*
X2328317Y1697224D01*
X2298317Y1691567D02*
X2302913Y1692628D01*
X2298317Y1691567D02*
X2299378Y1696163D01*
X2302913Y1692628D01*
X2301145Y1688739D02*
X2303974Y1691567D01*
X2295489Y1694395D02*
X2298317Y1697224D01*
X2268317Y1691567D02*
X2272913Y1692628D01*
X2268317Y1691567D02*
X2269378Y1696163D01*
X2272913Y1692628D01*
X2271145Y1688739D02*
X2273974Y1691567D01*
X2265489Y1694395D02*
X2268317Y1697224D01*
X2238317Y1691567D02*
X2242913Y1692628D01*
X2238317Y1691567D02*
X2239378Y1696163D01*
X2242913Y1692628D01*
X2241145Y1688739D02*
X2243974Y1691567D01*
X2235489Y1694395D02*
X2238317Y1697224D01*
X2208317Y1691567D02*
X2212913Y1692628D01*
X2208317Y1691567D02*
X2209378Y1696163D01*
X2212913Y1692628D01*
X2211145Y1688739D02*
X2213974Y1691567D01*
X2205489Y1694395D02*
X2208317Y1697224D01*
X2178317Y1691567D02*
X2182913Y1692628D01*
X2178317Y1691567D02*
X2179378Y1696163D01*
X2182913Y1692628D01*
X2181145Y1688739D02*
X2183974Y1691567D01*
X2175489Y1694395D02*
X2178317Y1697224D01*
X2148317Y1691567D02*
X2152913Y1692628D01*
X2148317Y1691567D02*
X2149378Y1696163D01*
X2152913Y1692628D01*
X2151145Y1688739D02*
X2153974Y1691567D01*
X2145489Y1694395D02*
X2148317Y1697224D01*
X2118317Y1691567D02*
X2122913Y1692628D01*
X2118317Y1691567D02*
X2119378Y1696163D01*
X2122913Y1692628D01*
X2121145Y1688739D02*
X2123974Y1691567D01*
X2115489Y1694395D02*
X2118317Y1697224D01*
X2088317Y1691567D02*
X2092913Y1692628D01*
X2088317Y1691567D02*
X2089378Y1696163D01*
X2092913Y1692628D01*
X2091145Y1688739D02*
X2093974Y1691567D01*
X2085489Y1694395D02*
X2088317Y1697224D01*
X2058317Y1691567D02*
X2062913Y1692628D01*
X2058317Y1691567D02*
X2059378Y1696163D01*
X2062913Y1692628D01*
X2061145Y1688739D02*
X2063974Y1691567D01*
X2055489Y1694395D02*
X2058317Y1697224D01*
X2028317Y1691567D02*
X2032913Y1692628D01*
X2028317Y1691567D02*
X2029378Y1696163D01*
X2032913Y1692628D01*
X2031145Y1688739D02*
X2033974Y1691567D01*
X2025489Y1694395D02*
X2028317Y1697224D01*
X1998317Y1691567D02*
X2002913Y1692628D01*
X1998317Y1691567D02*
X1999378Y1696163D01*
X2002913Y1692628D01*
X2001145Y1688739D02*
X2003974Y1691567D01*
X1995489Y1694395D02*
X1998317Y1697224D01*
X1968317Y1691567D02*
X1972913Y1692628D01*
X1968317Y1691567D02*
X1969378Y1696163D01*
X1972913Y1692628D01*
X1971145Y1688739D02*
X1973974Y1691567D01*
X1965489Y1694395D02*
X1968317Y1697224D01*
X1938317Y1691567D02*
X1942913Y1692628D01*
X1938317Y1691567D02*
X1939378Y1696163D01*
X1942913Y1692628D01*
X1941145Y1688739D02*
X1943974Y1691567D01*
X1935489Y1694395D02*
X1938317Y1697224D01*
X1908317Y1691567D02*
X1912913Y1692628D01*
X1908317Y1691567D02*
X1909378Y1696163D01*
X1912913Y1692628D01*
X1911145Y1688739D02*
X1913974Y1691567D01*
X1905489Y1694395D02*
X1908317Y1697224D01*
X1878317Y1691567D02*
X1882913Y1692628D01*
X1878317Y1691567D02*
X1879378Y1696163D01*
X1882913Y1692628D01*
X1881145Y1688739D02*
X1883974Y1691567D01*
X1875489Y1694395D02*
X1878317Y1697224D01*
X1848317Y1691567D02*
X1852913Y1692628D01*
X1848317Y1691567D02*
X1849378Y1696163D01*
X1852913Y1692628D01*
X1851145Y1688739D02*
X1853974Y1691567D01*
X1845489Y1694395D02*
X1848317Y1697224D01*
X1818317Y1691567D02*
X1822913Y1692628D01*
X1818317Y1691567D02*
X1819378Y1696163D01*
X1822913Y1692628D01*
X1821145Y1688739D02*
X1823974Y1691567D01*
X1815489Y1694395D02*
X1818317Y1697224D01*
X1788317Y1691567D02*
X1792913Y1692628D01*
X1788317Y1691567D02*
X1789378Y1696163D01*
X1792913Y1692628D01*
X1791145Y1688739D02*
X1793974Y1691567D01*
X1785489Y1694395D02*
X1788317Y1697224D01*
X1758317Y1691567D02*
X1762913Y1692628D01*
X1758317Y1691567D02*
X1759378Y1696163D01*
X1762913Y1692628D01*
X1761145Y1688739D02*
X1763974Y1691567D01*
X1755489Y1694395D02*
X1758317Y1697224D01*
X1728317Y1691567D02*
X1732913Y1692628D01*
X1728317Y1691567D02*
X1729378Y1696163D01*
X1732913Y1692628D01*
X1731145Y1688739D02*
X1733974Y1691567D01*
X1725489Y1694395D02*
X1728317Y1697224D01*
X1698317Y1691567D02*
X1702913Y1692628D01*
X1698317Y1691567D02*
X1699378Y1696163D01*
X1702913Y1692628D01*
X1701145Y1688739D02*
X1703974Y1691567D01*
X1695489Y1694395D02*
X1698317Y1697224D01*
X1668317Y1691567D02*
X1672913Y1692628D01*
X1668317Y1691567D02*
X1669378Y1696163D01*
X1672913Y1692628D01*
X1671145Y1688739D02*
X1673974Y1691567D01*
X1665489Y1694395D02*
X1668317Y1697224D01*
X1638317Y1691567D02*
X1642913Y1692628D01*
X1638317Y1691567D02*
X1639378Y1696163D01*
X1642913Y1692628D01*
X1641145Y1688739D02*
X1643974Y1691567D01*
X1635489Y1694395D02*
X1638317Y1697224D01*
X1608317Y1691567D02*
X1612913Y1692628D01*
X1608317Y1691567D02*
X1609378Y1696163D01*
X1612913Y1692628D01*
X1611145Y1688739D02*
X1613974Y1691567D01*
X1605489Y1694395D02*
X1608317Y1697224D01*
X1578317Y1691567D02*
X1582913Y1692628D01*
X1578317Y1691567D02*
X1579378Y1696163D01*
X1582913Y1692628D01*
X1581145Y1688739D02*
X1583974Y1691567D01*
X1575489Y1694395D02*
X1578317Y1697224D01*
X1548317Y1691567D02*
X1552913Y1692628D01*
X1548317Y1691567D02*
X1549378Y1696163D01*
X1552913Y1692628D01*
X1551145Y1688739D02*
X1553974Y1691567D01*
X1545489Y1694395D02*
X1548317Y1697224D01*
X1518317Y1691567D02*
X1522913Y1692628D01*
X1518317Y1691567D02*
X1519378Y1696163D01*
X1522913Y1692628D01*
X1521145Y1688739D02*
X1523974Y1691567D01*
X1515489Y1694395D02*
X1518317Y1697224D01*
X1488317Y1691567D02*
X1492913Y1692628D01*
X1488317Y1691567D02*
X1489378Y1696163D01*
X1492913Y1692628D01*
X1491145Y1688739D02*
X1493974Y1691567D01*
X1485489Y1694395D02*
X1488317Y1697224D01*
X1458317Y1691567D02*
X1462913Y1692628D01*
X1458317Y1691567D02*
X1459378Y1696163D01*
X1462913Y1692628D01*
X1461145Y1688739D02*
X1463974Y1691567D01*
X1455489Y1694395D02*
X1458317Y1697224D01*
X1428317Y1691567D02*
X1432913Y1692628D01*
X1428317Y1691567D02*
X1429378Y1696163D01*
X1432913Y1692628D01*
X1431145Y1688739D02*
X1433974Y1691567D01*
X1425489Y1694395D02*
X1428317Y1697224D01*
X1398317Y1691567D02*
X1402913Y1692628D01*
X1398317Y1691567D02*
X1399378Y1696163D01*
X1402913Y1692628D01*
X1401145Y1688739D02*
X1403974Y1691567D01*
X1395489Y1694395D02*
X1398317Y1697224D01*
X1368317Y1691567D02*
X1372913Y1692628D01*
X1368317Y1691567D02*
X1369378Y1696163D01*
X1372913Y1692628D01*
X1371145Y1688739D02*
X1373974Y1691567D01*
X1365489Y1694395D02*
X1368317Y1697224D01*
X1338317Y1691567D02*
X1342913Y1692628D01*
X1338317Y1691567D02*
X1339378Y1696163D01*
X1342913Y1692628D01*
X1341145Y1688739D02*
X1343974Y1691567D01*
X1335489Y1694395D02*
X1338317Y1697224D01*
X1308317Y1691567D02*
X1312913Y1692628D01*
X1308317Y1691567D02*
X1309378Y1696163D01*
X1312913Y1692628D01*
X1311145Y1688739D02*
X1313974Y1691567D01*
X1305489Y1694395D02*
X1308317Y1697224D01*
X2448317Y1721567D02*
X2452913Y1722628D01*
X2448317Y1721567D02*
X2449378Y1726163D01*
X2452913Y1722628D01*
X2451145Y1718739D02*
X2453974Y1721567D01*
X2445489Y1724395D02*
X2448317Y1727224D01*
X2418317Y1721567D02*
X2422913Y1722628D01*
X2418317Y1721567D02*
X2419378Y1726163D01*
X2422913Y1722628D01*
X2421145Y1718739D02*
X2423974Y1721567D01*
X2415489Y1724395D02*
X2418317Y1727224D01*
X2388317Y1721567D02*
X2392913Y1722628D01*
X2388317Y1721567D02*
X2389378Y1726163D01*
X2392913Y1722628D01*
X2391145Y1718739D02*
X2393974Y1721567D01*
X2385489Y1724395D02*
X2388317Y1727224D01*
X2358317Y1721567D02*
X2362913Y1722628D01*
X2358317Y1721567D02*
X2359378Y1726163D01*
X2362913Y1722628D01*
X2361145Y1718739D02*
X2363974Y1721567D01*
X2355489Y1724395D02*
X2358317Y1727224D01*
X2328317Y1721567D02*
X2332913Y1722628D01*
X2328317Y1721567D02*
X2329378Y1726163D01*
X2332913Y1722628D01*
X2331145Y1718739D02*
X2333974Y1721567D01*
X2325489Y1724395D02*
X2328317Y1727224D01*
X2298317Y1721567D02*
X2302913Y1722628D01*
X2298317Y1721567D02*
X2299378Y1726163D01*
X2302913Y1722628D01*
X2301145Y1718739D02*
X2303974Y1721567D01*
X2295489Y1724395D02*
X2298317Y1727224D01*
X2268317Y1721567D02*
X2272913Y1722628D01*
X2268317Y1721567D02*
X2269378Y1726163D01*
X2272913Y1722628D01*
X2271145Y1718739D02*
X2273974Y1721567D01*
X2265489Y1724395D02*
X2268317Y1727224D01*
X2238317Y1721567D02*
X2242913Y1722628D01*
X2238317Y1721567D02*
X2239378Y1726163D01*
X2242913Y1722628D01*
X2241145Y1718739D02*
X2243974Y1721567D01*
X2235489Y1724395D02*
X2238317Y1727224D01*
X2208317Y1721567D02*
X2212913Y1722628D01*
X2208317Y1721567D02*
X2209378Y1726163D01*
X2212913Y1722628D01*
X2211145Y1718739D02*
X2213974Y1721567D01*
X2205489Y1724395D02*
X2208317Y1727224D01*
X2178317Y1721567D02*
X2182913Y1722628D01*
X2178317Y1721567D02*
X2179378Y1726163D01*
X2182913Y1722628D01*
X2181145Y1718739D02*
X2183974Y1721567D01*
X2175489Y1724395D02*
X2178317Y1727224D01*
X2148317Y1721567D02*
X2152913Y1722628D01*
X2148317Y1721567D02*
X2149378Y1726163D01*
X2152913Y1722628D01*
X2151145Y1718739D02*
X2153974Y1721567D01*
X2145489Y1724395D02*
X2148317Y1727224D01*
X2118317Y1721567D02*
X2122913Y1722628D01*
X2118317Y1721567D02*
X2119378Y1726163D01*
X2122913Y1722628D01*
X2121145Y1718739D02*
X2123974Y1721567D01*
X2115489Y1724395D02*
X2118317Y1727224D01*
X2088317Y1721567D02*
X2092913Y1722628D01*
X2088317Y1721567D02*
X2089378Y1726163D01*
X2092913Y1722628D01*
X2091145Y1718739D02*
X2093974Y1721567D01*
X2085489Y1724395D02*
X2088317Y1727224D01*
X2058317Y1721567D02*
X2062913Y1722628D01*
X2058317Y1721567D02*
X2059378Y1726163D01*
X2062913Y1722628D01*
X2061145Y1718739D02*
X2063974Y1721567D01*
X2055489Y1724395D02*
X2058317Y1727224D01*
X2028317Y1721567D02*
X2032913Y1722628D01*
X2028317Y1721567D02*
X2029378Y1726163D01*
X2032913Y1722628D01*
X2031145Y1718739D02*
X2033974Y1721567D01*
X2025489Y1724395D02*
X2028317Y1727224D01*
X1998317Y1721567D02*
X2002913Y1722628D01*
X1998317Y1721567D02*
X1999378Y1726163D01*
X2002913Y1722628D01*
X2001145Y1718739D02*
X2003974Y1721567D01*
X1995489Y1724395D02*
X1998317Y1727224D01*
X1968317Y1721567D02*
X1972913Y1722628D01*
X1968317Y1721567D02*
X1969378Y1726163D01*
X1972913Y1722628D01*
X1971145Y1718739D02*
X1973974Y1721567D01*
X1965489Y1724395D02*
X1968317Y1727224D01*
X1938317Y1721567D02*
X1942913Y1722628D01*
X1938317Y1721567D02*
X1939378Y1726163D01*
X1942913Y1722628D01*
X1941145Y1718739D02*
X1943974Y1721567D01*
X1935489Y1724395D02*
X1938317Y1727224D01*
X1908317Y1721567D02*
X1912913Y1722628D01*
X1908317Y1721567D02*
X1909378Y1726163D01*
X1912913Y1722628D01*
X1911145Y1718739D02*
X1913974Y1721567D01*
X1905489Y1724395D02*
X1908317Y1727224D01*
X1878317Y1721567D02*
X1882913Y1722628D01*
X1878317Y1721567D02*
X1879378Y1726163D01*
X1882913Y1722628D01*
X1881145Y1718739D02*
X1883974Y1721567D01*
X1875489Y1724395D02*
X1878317Y1727224D01*
X1848317Y1721567D02*
X1852913Y1722628D01*
X1848317Y1721567D02*
X1849378Y1726163D01*
X1852913Y1722628D01*
X1851145Y1718739D02*
X1853974Y1721567D01*
X1845489Y1724395D02*
X1848317Y1727224D01*
X1818317Y1721567D02*
X1822913Y1722628D01*
X1818317Y1721567D02*
X1819378Y1726163D01*
X1822913Y1722628D01*
X1821145Y1718739D02*
X1823974Y1721567D01*
X1815489Y1724395D02*
X1818317Y1727224D01*
X1788317Y1721567D02*
X1792913Y1722628D01*
X1788317Y1721567D02*
X1789378Y1726163D01*
X1792913Y1722628D01*
X1791145Y1718739D02*
X1793974Y1721567D01*
X1785489Y1724395D02*
X1788317Y1727224D01*
X1758317Y1721567D02*
X1762913Y1722628D01*
X1758317Y1721567D02*
X1759378Y1726163D01*
X1762913Y1722628D01*
X1761145Y1718739D02*
X1763974Y1721567D01*
X1755489Y1724395D02*
X1758317Y1727224D01*
X1728317Y1721567D02*
X1732913Y1722628D01*
X1728317Y1721567D02*
X1729378Y1726163D01*
X1732913Y1722628D01*
X1731145Y1718739D02*
X1733974Y1721567D01*
X1725489Y1724395D02*
X1728317Y1727224D01*
X1698317Y1721567D02*
X1702913Y1722628D01*
X1698317Y1721567D02*
X1699378Y1726163D01*
X1702913Y1722628D01*
X1701145Y1718739D02*
X1703974Y1721567D01*
X1695489Y1724395D02*
X1698317Y1727224D01*
X1668317Y1721567D02*
X1672913Y1722628D01*
X1668317Y1721567D02*
X1669378Y1726163D01*
X1672913Y1722628D01*
X1671145Y1718739D02*
X1673974Y1721567D01*
X1665489Y1724395D02*
X1668317Y1727224D01*
X1638317Y1721567D02*
X1642913Y1722628D01*
X1638317Y1721567D02*
X1639378Y1726163D01*
X1642913Y1722628D01*
X1641145Y1718739D02*
X1643974Y1721567D01*
X1635489Y1724395D02*
X1638317Y1727224D01*
X1608317Y1721567D02*
X1612913Y1722628D01*
X1608317Y1721567D02*
X1609378Y1726163D01*
X1612913Y1722628D01*
X1611145Y1718739D02*
X1613974Y1721567D01*
X1605489Y1724395D02*
X1608317Y1727224D01*
X1578317Y1721567D02*
X1582913Y1722628D01*
X1578317Y1721567D02*
X1579378Y1726163D01*
X1582913Y1722628D01*
X1581145Y1718739D02*
X1583974Y1721567D01*
X1575489Y1724395D02*
X1578317Y1727224D01*
X1548317Y1721567D02*
X1552913Y1722628D01*
X1548317Y1721567D02*
X1549378Y1726163D01*
X1552913Y1722628D01*
X1551145Y1718739D02*
X1553974Y1721567D01*
X1545489Y1724395D02*
X1548317Y1727224D01*
X1518317Y1721567D02*
X1522913Y1722628D01*
X1518317Y1721567D02*
X1519378Y1726163D01*
X1522913Y1722628D01*
X1521145Y1718739D02*
X1523974Y1721567D01*
X1515489Y1724395D02*
X1518317Y1727224D01*
X1488317Y1721567D02*
X1492913Y1722628D01*
X1488317Y1721567D02*
X1489378Y1726163D01*
X1492913Y1722628D01*
X1491145Y1718739D02*
X1493974Y1721567D01*
X1485489Y1724395D02*
X1488317Y1727224D01*
X1458317Y1721567D02*
X1462913Y1722628D01*
X1458317Y1721567D02*
X1459378Y1726163D01*
X1462913Y1722628D01*
X1461145Y1718739D02*
X1463974Y1721567D01*
X1455489Y1724395D02*
X1458317Y1727224D01*
X1428317Y1721567D02*
X1432913Y1722628D01*
X1428317Y1721567D02*
X1429378Y1726163D01*
X1432913Y1722628D01*
X1431145Y1718739D02*
X1433974Y1721567D01*
X1425489Y1724395D02*
X1428317Y1727224D01*
X1398317Y1721567D02*
X1402913Y1722628D01*
X1398317Y1721567D02*
X1399378Y1726163D01*
X1402913Y1722628D01*
X1401145Y1718739D02*
X1403974Y1721567D01*
X1395489Y1724395D02*
X1398317Y1727224D01*
X1368317Y1721567D02*
X1372913Y1722628D01*
X1368317Y1721567D02*
X1369378Y1726163D01*
X1372913Y1722628D01*
X1371145Y1718739D02*
X1373974Y1721567D01*
X1365489Y1724395D02*
X1368317Y1727224D01*
X1338317Y1721567D02*
X1342913Y1722628D01*
X1338317Y1721567D02*
X1339378Y1726163D01*
X1342913Y1722628D01*
X1341145Y1718739D02*
X1343974Y1721567D01*
X1335489Y1724395D02*
X1338317Y1727224D01*
X1308317Y1721567D02*
X1312913Y1722628D01*
X1308317Y1721567D02*
X1309378Y1726163D01*
X1312913Y1722628D01*
X1311145Y1718739D02*
X1313974Y1721567D01*
X1305489Y1724395D02*
X1308317Y1727224D01*
X2448317Y1751567D02*
X2452913Y1752628D01*
X2448317Y1751567D02*
X2449378Y1756163D01*
X2452913Y1752628D01*
X2451145Y1748739D02*
X2453974Y1751567D01*
X2445489Y1754395D02*
X2448317Y1757224D01*
X2418317Y1751567D02*
X2422913Y1752628D01*
X2418317Y1751567D02*
X2419378Y1756163D01*
X2422913Y1752628D01*
X2421145Y1748739D02*
X2423974Y1751567D01*
X2415489Y1754395D02*
X2418317Y1757224D01*
X2388317Y1751567D02*
X2392913Y1752628D01*
X2388317Y1751567D02*
X2389378Y1756163D01*
X2392913Y1752628D01*
X2391145Y1748739D02*
X2393974Y1751567D01*
X2385489Y1754395D02*
X2388317Y1757224D01*
X2358317Y1751567D02*
X2362913Y1752628D01*
X2358317Y1751567D02*
X2359378Y1756163D01*
X2362913Y1752628D01*
X2361145Y1748739D02*
X2363974Y1751567D01*
X2355489Y1754395D02*
X2358317Y1757224D01*
X2328317Y1751567D02*
X2332913Y1752628D01*
X2328317Y1751567D02*
X2329378Y1756163D01*
X2332913Y1752628D01*
X2331145Y1748739D02*
X2333974Y1751567D01*
X2325489Y1754395D02*
X2328317Y1757224D01*
X2298317Y1751567D02*
X2302913Y1752628D01*
X2298317Y1751567D02*
X2299378Y1756163D01*
X2302913Y1752628D01*
X2301145Y1748739D02*
X2303974Y1751567D01*
X2295489Y1754395D02*
X2298317Y1757224D01*
X2268317Y1751567D02*
X2272913Y1752628D01*
X2268317Y1751567D02*
X2269378Y1756163D01*
X2272913Y1752628D01*
X2271145Y1748739D02*
X2273974Y1751567D01*
X2265489Y1754395D02*
X2268317Y1757224D01*
X2238317Y1751567D02*
X2242913Y1752628D01*
X2238317Y1751567D02*
X2239378Y1756163D01*
X2242913Y1752628D01*
X2241145Y1748739D02*
X2243974Y1751567D01*
X2235489Y1754395D02*
X2238317Y1757224D01*
X2208317Y1751567D02*
X2212913Y1752628D01*
X2208317Y1751567D02*
X2209378Y1756163D01*
X2212913Y1752628D01*
X2211145Y1748739D02*
X2213974Y1751567D01*
X2205489Y1754395D02*
X2208317Y1757224D01*
X2178317Y1751567D02*
X2182913Y1752628D01*
X2178317Y1751567D02*
X2179378Y1756163D01*
X2182913Y1752628D01*
X2181145Y1748739D02*
X2183974Y1751567D01*
X2175489Y1754395D02*
X2178317Y1757224D01*
X2148317Y1751567D02*
X2152913Y1752628D01*
X2148317Y1751567D02*
X2149378Y1756163D01*
X2152913Y1752628D01*
X2151145Y1748739D02*
X2153974Y1751567D01*
X2145489Y1754395D02*
X2148317Y1757224D01*
X2118317Y1751567D02*
X2122913Y1752628D01*
X2118317Y1751567D02*
X2119378Y1756163D01*
X2122913Y1752628D01*
X2121145Y1748739D02*
X2123974Y1751567D01*
X2115489Y1754395D02*
X2118317Y1757224D01*
X2088317Y1751567D02*
X2092913Y1752628D01*
X2088317Y1751567D02*
X2089378Y1756163D01*
X2092913Y1752628D01*
X2091145Y1748739D02*
X2093974Y1751567D01*
X2085489Y1754395D02*
X2088317Y1757224D01*
X2058317Y1751567D02*
X2062913Y1752628D01*
X2058317Y1751567D02*
X2059378Y1756163D01*
X2062913Y1752628D01*
X2061145Y1748739D02*
X2063974Y1751567D01*
X2055489Y1754395D02*
X2058317Y1757224D01*
X2028317Y1751567D02*
X2032913Y1752628D01*
X2028317Y1751567D02*
X2029378Y1756163D01*
X2032913Y1752628D01*
X2031145Y1748739D02*
X2033974Y1751567D01*
X2025489Y1754395D02*
X2028317Y1757224D01*
X1998317Y1751567D02*
X2002913Y1752628D01*
X1998317Y1751567D02*
X1999378Y1756163D01*
X2002913Y1752628D01*
X2001145Y1748739D02*
X2003974Y1751567D01*
X1995489Y1754395D02*
X1998317Y1757224D01*
X1968317Y1751567D02*
X1972913Y1752628D01*
X1968317Y1751567D02*
X1969378Y1756163D01*
X1972913Y1752628D01*
X1971145Y1748739D02*
X1973974Y1751567D01*
X1965489Y1754395D02*
X1968317Y1757224D01*
X1938317Y1751567D02*
X1942913Y1752628D01*
X1938317Y1751567D02*
X1939378Y1756163D01*
X1942913Y1752628D01*
X1941145Y1748739D02*
X1943974Y1751567D01*
X1935489Y1754395D02*
X1938317Y1757224D01*
X1908317Y1751567D02*
X1912913Y1752628D01*
X1908317Y1751567D02*
X1909378Y1756163D01*
X1912913Y1752628D01*
X1911145Y1748739D02*
X1913974Y1751567D01*
X1905489Y1754395D02*
X1908317Y1757224D01*
X1878317Y1751567D02*
X1882913Y1752628D01*
X1878317Y1751567D02*
X1879378Y1756163D01*
X1882913Y1752628D01*
X1881145Y1748739D02*
X1883974Y1751567D01*
X1875489Y1754395D02*
X1878317Y1757224D01*
X1848317Y1751567D02*
X1852913Y1752628D01*
X1848317Y1751567D02*
X1849378Y1756163D01*
X1852913Y1752628D01*
X1851145Y1748739D02*
X1853974Y1751567D01*
X1845489Y1754395D02*
X1848317Y1757224D01*
X1818317Y1751567D02*
X1822913Y1752628D01*
X1818317Y1751567D02*
X1819378Y1756163D01*
X1822913Y1752628D01*
X1821145Y1748739D02*
X1823974Y1751567D01*
X1815489Y1754395D02*
X1818317Y1757224D01*
X1788317Y1751567D02*
X1792913Y1752628D01*
X1788317Y1751567D02*
X1789378Y1756163D01*
X1792913Y1752628D01*
X1791145Y1748739D02*
X1793974Y1751567D01*
X1785489Y1754395D02*
X1788317Y1757224D01*
X1758317Y1751567D02*
X1762913Y1752628D01*
X1758317Y1751567D02*
X1759378Y1756163D01*
X1762913Y1752628D01*
X1761145Y1748739D02*
X1763974Y1751567D01*
X1755489Y1754395D02*
X1758317Y1757224D01*
X1728317Y1751567D02*
X1732913Y1752628D01*
X1728317Y1751567D02*
X1729378Y1756163D01*
X1732913Y1752628D01*
X1731145Y1748739D02*
X1733974Y1751567D01*
X1725489Y1754395D02*
X1728317Y1757224D01*
X1698317Y1751567D02*
X1702913Y1752628D01*
X1698317Y1751567D02*
X1699378Y1756163D01*
X1702913Y1752628D01*
X1701145Y1748739D02*
X1703974Y1751567D01*
X1695489Y1754395D02*
X1698317Y1757224D01*
X1668317Y1751567D02*
X1672913Y1752628D01*
X1668317Y1751567D02*
X1669378Y1756163D01*
X1672913Y1752628D01*
X1671145Y1748739D02*
X1673974Y1751567D01*
X1665489Y1754395D02*
X1668317Y1757224D01*
X1638317Y1751567D02*
X1642913Y1752628D01*
X1638317Y1751567D02*
X1639378Y1756163D01*
X1642913Y1752628D01*
X1641145Y1748739D02*
X1643974Y1751567D01*
X1635489Y1754395D02*
X1638317Y1757224D01*
X1608317Y1751567D02*
X1612913Y1752628D01*
X1608317Y1751567D02*
X1609378Y1756163D01*
X1612913Y1752628D01*
X1611145Y1748739D02*
X1613974Y1751567D01*
X1605489Y1754395D02*
X1608317Y1757224D01*
X1578317Y1751567D02*
X1582913Y1752628D01*
X1578317Y1751567D02*
X1579378Y1756163D01*
X1582913Y1752628D01*
X1581145Y1748739D02*
X1583974Y1751567D01*
X1575489Y1754395D02*
X1578317Y1757224D01*
X1548317Y1751567D02*
X1552913Y1752628D01*
X1548317Y1751567D02*
X1549378Y1756163D01*
X1552913Y1752628D01*
X1551145Y1748739D02*
X1553974Y1751567D01*
X1545489Y1754395D02*
X1548317Y1757224D01*
X1518317Y1751567D02*
X1522913Y1752628D01*
X1518317Y1751567D02*
X1519378Y1756163D01*
X1522913Y1752628D01*
X1521145Y1748739D02*
X1523974Y1751567D01*
X1515489Y1754395D02*
X1518317Y1757224D01*
X1488317Y1751567D02*
X1492913Y1752628D01*
X1488317Y1751567D02*
X1489378Y1756163D01*
X1492913Y1752628D01*
X1491145Y1748739D02*
X1493974Y1751567D01*
X1485489Y1754395D02*
X1488317Y1757224D01*
X1458317Y1751567D02*
X1462913Y1752628D01*
X1458317Y1751567D02*
X1459378Y1756163D01*
X1462913Y1752628D01*
X1461145Y1748739D02*
X1463974Y1751567D01*
X1455489Y1754395D02*
X1458317Y1757224D01*
X1428317Y1751567D02*
X1432913Y1752628D01*
X1428317Y1751567D02*
X1429378Y1756163D01*
X1432913Y1752628D01*
X1431145Y1748739D02*
X1433974Y1751567D01*
X1425489Y1754395D02*
X1428317Y1757224D01*
X1398317Y1751567D02*
X1402913Y1752628D01*
X1398317Y1751567D02*
X1399378Y1756163D01*
X1402913Y1752628D01*
X1401145Y1748739D02*
X1403974Y1751567D01*
X1395489Y1754395D02*
X1398317Y1757224D01*
X1368317Y1751567D02*
X1372913Y1752628D01*
X1368317Y1751567D02*
X1369378Y1756163D01*
X1372913Y1752628D01*
X1371145Y1748739D02*
X1373974Y1751567D01*
X1365489Y1754395D02*
X1368317Y1757224D01*
X1338317Y1751567D02*
X1342913Y1752628D01*
X1338317Y1751567D02*
X1339378Y1756163D01*
X1342913Y1752628D01*
X1341145Y1748739D02*
X1343974Y1751567D01*
X1335489Y1754395D02*
X1338317Y1757224D01*
X1308317Y1751567D02*
X1312913Y1752628D01*
X1308317Y1751567D02*
X1309378Y1756163D01*
X1312913Y1752628D01*
X1311145Y1748739D02*
X1313974Y1751567D01*
X1305489Y1754395D02*
X1308317Y1757224D01*
X2448317Y1781567D02*
X2452913Y1782628D01*
X2448317Y1781567D02*
X2449378Y1786163D01*
X2452913Y1782628D01*
X2451145Y1778739D02*
X2453974Y1781567D01*
X2445489Y1784395D02*
X2448317Y1787224D01*
X2418317Y1781567D02*
X2422913Y1782628D01*
X2418317Y1781567D02*
X2419378Y1786163D01*
X2422913Y1782628D01*
X2421145Y1778739D02*
X2423974Y1781567D01*
X2415489Y1784395D02*
X2418317Y1787224D01*
X2388317Y1781567D02*
X2392913Y1782628D01*
X2388317Y1781567D02*
X2389378Y1786163D01*
X2392913Y1782628D01*
X2391145Y1778739D02*
X2393974Y1781567D01*
X2385489Y1784395D02*
X2388317Y1787224D01*
X2358317Y1781567D02*
X2362913Y1782628D01*
X2358317Y1781567D02*
X2359378Y1786163D01*
X2362913Y1782628D01*
X2361145Y1778739D02*
X2363974Y1781567D01*
X2355489Y1784395D02*
X2358317Y1787224D01*
X2328317Y1781567D02*
X2332913Y1782628D01*
X2328317Y1781567D02*
X2329378Y1786163D01*
X2332913Y1782628D01*
X2331145Y1778739D02*
X2333974Y1781567D01*
X2325489Y1784395D02*
X2328317Y1787224D01*
X2298317Y1781567D02*
X2302913Y1782628D01*
X2298317Y1781567D02*
X2299378Y1786163D01*
X2302913Y1782628D01*
X2301145Y1778739D02*
X2303974Y1781567D01*
X2295489Y1784395D02*
X2298317Y1787224D01*
X2268317Y1781567D02*
X2272913Y1782628D01*
X2268317Y1781567D02*
X2269378Y1786163D01*
X2272913Y1782628D01*
X2271145Y1778739D02*
X2273974Y1781567D01*
X2265489Y1784395D02*
X2268317Y1787224D01*
X2238317Y1781567D02*
X2242913Y1782628D01*
X2238317Y1781567D02*
X2239378Y1786163D01*
X2242913Y1782628D01*
X2241145Y1778739D02*
X2243974Y1781567D01*
X2235489Y1784395D02*
X2238317Y1787224D01*
X2208317Y1781567D02*
X2212913Y1782628D01*
X2208317Y1781567D02*
X2209378Y1786163D01*
X2212913Y1782628D01*
X2211145Y1778739D02*
X2213974Y1781567D01*
X2205489Y1784395D02*
X2208317Y1787224D01*
X2178317Y1781567D02*
X2182913Y1782628D01*
X2178317Y1781567D02*
X2179378Y1786163D01*
X2182913Y1782628D01*
X2181145Y1778739D02*
X2183974Y1781567D01*
X2175489Y1784395D02*
X2178317Y1787224D01*
X2148317Y1781567D02*
X2152913Y1782628D01*
X2148317Y1781567D02*
X2149378Y1786163D01*
X2152913Y1782628D01*
X2151145Y1778739D02*
X2153974Y1781567D01*
X2145489Y1784395D02*
X2148317Y1787224D01*
X2118317Y1781567D02*
X2122913Y1782628D01*
X2118317Y1781567D02*
X2119378Y1786163D01*
X2122913Y1782628D01*
X2121145Y1778739D02*
X2123974Y1781567D01*
X2115489Y1784395D02*
X2118317Y1787224D01*
X2088317Y1781567D02*
X2092913Y1782628D01*
X2088317Y1781567D02*
X2089378Y1786163D01*
X2092913Y1782628D01*
X2091145Y1778739D02*
X2093974Y1781567D01*
X2085489Y1784395D02*
X2088317Y1787224D01*
X2058317Y1781567D02*
X2062913Y1782628D01*
X2058317Y1781567D02*
X2059378Y1786163D01*
X2062913Y1782628D01*
X2061145Y1778739D02*
X2063974Y1781567D01*
X2055489Y1784395D02*
X2058317Y1787224D01*
X2028317Y1781567D02*
X2032913Y1782628D01*
X2028317Y1781567D02*
X2029378Y1786163D01*
X2032913Y1782628D01*
X2031145Y1778739D02*
X2033974Y1781567D01*
X2025489Y1784395D02*
X2028317Y1787224D01*
X1998317Y1781567D02*
X2002913Y1782628D01*
X1998317Y1781567D02*
X1999378Y1786163D01*
X2002913Y1782628D01*
X2001145Y1778739D02*
X2003974Y1781567D01*
X1995489Y1784395D02*
X1998317Y1787224D01*
X1968317Y1781567D02*
X1972913Y1782628D01*
X1968317Y1781567D02*
X1969378Y1786163D01*
X1972913Y1782628D01*
X1971145Y1778739D02*
X1973974Y1781567D01*
X1965489Y1784395D02*
X1968317Y1787224D01*
X1938317Y1781567D02*
X1942913Y1782628D01*
X1938317Y1781567D02*
X1939378Y1786163D01*
X1942913Y1782628D01*
X1941145Y1778739D02*
X1943974Y1781567D01*
X1935489Y1784395D02*
X1938317Y1787224D01*
X1908317Y1781567D02*
X1912913Y1782628D01*
X1908317Y1781567D02*
X1909378Y1786163D01*
X1912913Y1782628D01*
X1911145Y1778739D02*
X1913974Y1781567D01*
X1905489Y1784395D02*
X1908317Y1787224D01*
X1878317Y1781567D02*
X1882913Y1782628D01*
X1878317Y1781567D02*
X1879378Y1786163D01*
X1882913Y1782628D01*
X1881145Y1778739D02*
X1883974Y1781567D01*
X1875489Y1784395D02*
X1878317Y1787224D01*
X1848317Y1781567D02*
X1852913Y1782628D01*
X1848317Y1781567D02*
X1849378Y1786163D01*
X1852913Y1782628D01*
X1851145Y1778739D02*
X1853974Y1781567D01*
X1845489Y1784395D02*
X1848317Y1787224D01*
X1818317Y1781567D02*
X1822913Y1782628D01*
X1818317Y1781567D02*
X1819378Y1786163D01*
X1822913Y1782628D01*
X1821145Y1778739D02*
X1823974Y1781567D01*
X1815489Y1784395D02*
X1818317Y1787224D01*
X1788317Y1781567D02*
X1792913Y1782628D01*
X1788317Y1781567D02*
X1789378Y1786163D01*
X1792913Y1782628D01*
X1791145Y1778739D02*
X1793974Y1781567D01*
X1785489Y1784395D02*
X1788317Y1787224D01*
X1758317Y1781567D02*
X1762913Y1782628D01*
X1758317Y1781567D02*
X1759378Y1786163D01*
X1762913Y1782628D01*
X1761145Y1778739D02*
X1763974Y1781567D01*
X1755489Y1784395D02*
X1758317Y1787224D01*
X1728317Y1781567D02*
X1732913Y1782628D01*
X1728317Y1781567D02*
X1729378Y1786163D01*
X1732913Y1782628D01*
X1731145Y1778739D02*
X1733974Y1781567D01*
X1725489Y1784395D02*
X1728317Y1787224D01*
X1698317Y1781567D02*
X1702913Y1782628D01*
X1698317Y1781567D02*
X1699378Y1786163D01*
X1702913Y1782628D01*
X1701145Y1778739D02*
X1703974Y1781567D01*
X1695489Y1784395D02*
X1698317Y1787224D01*
X1668317Y1781567D02*
X1672913Y1782628D01*
X1668317Y1781567D02*
X1669378Y1786163D01*
X1672913Y1782628D01*
X1671145Y1778739D02*
X1673974Y1781567D01*
X1665489Y1784395D02*
X1668317Y1787224D01*
X1638317Y1781567D02*
X1642913Y1782628D01*
X1638317Y1781567D02*
X1639378Y1786163D01*
X1642913Y1782628D01*
X1641145Y1778739D02*
X1643974Y1781567D01*
X1635489Y1784395D02*
X1638317Y1787224D01*
X1608317Y1781567D02*
X1612913Y1782628D01*
X1608317Y1781567D02*
X1609378Y1786163D01*
X1612913Y1782628D01*
X1611145Y1778739D02*
X1613974Y1781567D01*
X1605489Y1784395D02*
X1608317Y1787224D01*
X1578317Y1781567D02*
X1582913Y1782628D01*
X1578317Y1781567D02*
X1579378Y1786163D01*
X1582913Y1782628D01*
X1581145Y1778739D02*
X1583974Y1781567D01*
X1575489Y1784395D02*
X1578317Y1787224D01*
X1548317Y1781567D02*
X1552913Y1782628D01*
X1548317Y1781567D02*
X1549378Y1786163D01*
X1552913Y1782628D01*
X1551145Y1778739D02*
X1553974Y1781567D01*
X1545489Y1784395D02*
X1548317Y1787224D01*
X1518317Y1781567D02*
X1522913Y1782628D01*
X1518317Y1781567D02*
X1519378Y1786163D01*
X1522913Y1782628D01*
X1521145Y1778739D02*
X1523974Y1781567D01*
X1515489Y1784395D02*
X1518317Y1787224D01*
X1488317Y1781567D02*
X1492913Y1782628D01*
X1488317Y1781567D02*
X1489378Y1786163D01*
X1492913Y1782628D01*
X1491145Y1778739D02*
X1493974Y1781567D01*
X1485489Y1784395D02*
X1488317Y1787224D01*
X1458317Y1781567D02*
X1462913Y1782628D01*
X1458317Y1781567D02*
X1459378Y1786163D01*
X1462913Y1782628D01*
X1461145Y1778739D02*
X1463974Y1781567D01*
X1455489Y1784395D02*
X1458317Y1787224D01*
X1428317Y1781567D02*
X1432913Y1782628D01*
X1428317Y1781567D02*
X1429378Y1786163D01*
X1432913Y1782628D01*
X1431145Y1778739D02*
X1433974Y1781567D01*
X1425489Y1784395D02*
X1428317Y1787224D01*
X1398317Y1781567D02*
X1402913Y1782628D01*
X1398317Y1781567D02*
X1399378Y1786163D01*
X1402913Y1782628D01*
X1401145Y1778739D02*
X1403974Y1781567D01*
X1395489Y1784395D02*
X1398317Y1787224D01*
X1368317Y1781567D02*
X1372913Y1782628D01*
X1368317Y1781567D02*
X1369378Y1786163D01*
X1372913Y1782628D01*
X1371145Y1778739D02*
X1373974Y1781567D01*
X1365489Y1784395D02*
X1368317Y1787224D01*
X1338317Y1781567D02*
X1342913Y1782628D01*
X1338317Y1781567D02*
X1339378Y1786163D01*
X1342913Y1782628D01*
X1341145Y1778739D02*
X1343974Y1781567D01*
X1335489Y1784395D02*
X1338317Y1787224D01*
X1308317Y1781567D02*
X1312913Y1782628D01*
X1308317Y1781567D02*
X1309378Y1786163D01*
X1312913Y1782628D01*
X1311145Y1778739D02*
X1313974Y1781567D01*
X1305489Y1784395D02*
X1308317Y1787224D01*
X2448317Y1811567D02*
X2452913Y1812628D01*
X2448317Y1811567D02*
X2449378Y1816163D01*
X2452913Y1812628D01*
X2451145Y1808739D02*
X2453974Y1811567D01*
X2445489Y1814395D02*
X2448317Y1817224D01*
X2418317Y1811567D02*
X2422913Y1812628D01*
X2418317Y1811567D02*
X2419378Y1816163D01*
X2422913Y1812628D01*
X2421145Y1808739D02*
X2423974Y1811567D01*
X2415489Y1814395D02*
X2418317Y1817224D01*
X2388317Y1811567D02*
X2392913Y1812628D01*
X2388317Y1811567D02*
X2389378Y1816163D01*
X2392913Y1812628D01*
X2391145Y1808739D02*
X2393974Y1811567D01*
X2385489Y1814395D02*
X2388317Y1817224D01*
X2358317Y1811567D02*
X2362913Y1812628D01*
X2358317Y1811567D02*
X2359378Y1816163D01*
X2362913Y1812628D01*
X2361145Y1808739D02*
X2363974Y1811567D01*
X2355489Y1814395D02*
X2358317Y1817224D01*
X2328317Y1811567D02*
X2332913Y1812628D01*
X2328317Y1811567D02*
X2329378Y1816163D01*
X2332913Y1812628D01*
X2331145Y1808739D02*
X2333974Y1811567D01*
X2325489Y1814395D02*
X2328317Y1817224D01*
X2298317Y1811567D02*
X2302913Y1812628D01*
X2298317Y1811567D02*
X2299378Y1816163D01*
X2302913Y1812628D01*
X2301145Y1808739D02*
X2303974Y1811567D01*
X2295489Y1814395D02*
X2298317Y1817224D01*
X2268317Y1811567D02*
X2272913Y1812628D01*
X2268317Y1811567D02*
X2269378Y1816163D01*
X2272913Y1812628D01*
X2271145Y1808739D02*
X2273974Y1811567D01*
X2265489Y1814395D02*
X2268317Y1817224D01*
X2238317Y1811567D02*
X2242913Y1812628D01*
X2238317Y1811567D02*
X2239378Y1816163D01*
X2242913Y1812628D01*
X2241145Y1808739D02*
X2243974Y1811567D01*
X2235489Y1814395D02*
X2238317Y1817224D01*
X2208317Y1811567D02*
X2212913Y1812628D01*
X2208317Y1811567D02*
X2209378Y1816163D01*
X2212913Y1812628D01*
X2211145Y1808739D02*
X2213974Y1811567D01*
X2205489Y1814395D02*
X2208317Y1817224D01*
X2178317Y1811567D02*
X2182913Y1812628D01*
X2178317Y1811567D02*
X2179378Y1816163D01*
X2182913Y1812628D01*
X2181145Y1808739D02*
X2183974Y1811567D01*
X2175489Y1814395D02*
X2178317Y1817224D01*
X2148317Y1811567D02*
X2152913Y1812628D01*
X2148317Y1811567D02*
X2149378Y1816163D01*
X2152913Y1812628D01*
X2151145Y1808739D02*
X2153974Y1811567D01*
X2145489Y1814395D02*
X2148317Y1817224D01*
X2118317Y1811567D02*
X2122913Y1812628D01*
X2118317Y1811567D02*
X2119378Y1816163D01*
X2122913Y1812628D01*
X2121145Y1808739D02*
X2123974Y1811567D01*
X2115489Y1814395D02*
X2118317Y1817224D01*
X2088317Y1811567D02*
X2092913Y1812628D01*
X2088317Y1811567D02*
X2089378Y1816163D01*
X2092913Y1812628D01*
X2091145Y1808739D02*
X2093974Y1811567D01*
X2085489Y1814395D02*
X2088317Y1817224D01*
X2058317Y1811567D02*
X2062913Y1812628D01*
X2058317Y1811567D02*
X2059378Y1816163D01*
X2062913Y1812628D01*
X2061145Y1808739D02*
X2063974Y1811567D01*
X2055489Y1814395D02*
X2058317Y1817224D01*
X2028317Y1811567D02*
X2032913Y1812628D01*
X2028317Y1811567D02*
X2029378Y1816163D01*
X2032913Y1812628D01*
X2031145Y1808739D02*
X2033974Y1811567D01*
X2025489Y1814395D02*
X2028317Y1817224D01*
X1998317Y1811567D02*
X2002913Y1812628D01*
X1998317Y1811567D02*
X1999378Y1816163D01*
X2002913Y1812628D01*
X2001145Y1808739D02*
X2003974Y1811567D01*
X1995489Y1814395D02*
X1998317Y1817224D01*
X1968317Y1811567D02*
X1972913Y1812628D01*
X1968317Y1811567D02*
X1969378Y1816163D01*
X1972913Y1812628D01*
X1971145Y1808739D02*
X1973974Y1811567D01*
X1965489Y1814395D02*
X1968317Y1817224D01*
X1938317Y1811567D02*
X1942913Y1812628D01*
X1938317Y1811567D02*
X1939378Y1816163D01*
X1942913Y1812628D01*
X1941145Y1808739D02*
X1943974Y1811567D01*
X1935489Y1814395D02*
X1938317Y1817224D01*
X1908317Y1811567D02*
X1912913Y1812628D01*
X1908317Y1811567D02*
X1909378Y1816163D01*
X1912913Y1812628D01*
X1911145Y1808739D02*
X1913974Y1811567D01*
X1905489Y1814395D02*
X1908317Y1817224D01*
X1878317Y1811567D02*
X1882913Y1812628D01*
X1878317Y1811567D02*
X1879378Y1816163D01*
X1882913Y1812628D01*
X1881145Y1808739D02*
X1883974Y1811567D01*
X1875489Y1814395D02*
X1878317Y1817224D01*
X1848317Y1811567D02*
X1852913Y1812628D01*
X1848317Y1811567D02*
X1849378Y1816163D01*
X1852913Y1812628D01*
X1851145Y1808739D02*
X1853974Y1811567D01*
X1845489Y1814395D02*
X1848317Y1817224D01*
X1818317Y1811567D02*
X1822913Y1812628D01*
X1818317Y1811567D02*
X1819378Y1816163D01*
X1822913Y1812628D01*
X1821145Y1808739D02*
X1823974Y1811567D01*
X1815489Y1814395D02*
X1818317Y1817224D01*
X1788317Y1811567D02*
X1792913Y1812628D01*
X1788317Y1811567D02*
X1789378Y1816163D01*
X1792913Y1812628D01*
X1791145Y1808739D02*
X1793974Y1811567D01*
X1785489Y1814395D02*
X1788317Y1817224D01*
X1758317Y1811567D02*
X1762913Y1812628D01*
X1758317Y1811567D02*
X1759378Y1816163D01*
X1762913Y1812628D01*
X1761145Y1808739D02*
X1763974Y1811567D01*
X1755489Y1814395D02*
X1758317Y1817224D01*
X1728317Y1811567D02*
X1732913Y1812628D01*
X1728317Y1811567D02*
X1729378Y1816163D01*
X1732913Y1812628D01*
X1731145Y1808739D02*
X1733974Y1811567D01*
X1725489Y1814395D02*
X1728317Y1817224D01*
X1698317Y1811567D02*
X1702913Y1812628D01*
X1698317Y1811567D02*
X1699378Y1816163D01*
X1702913Y1812628D01*
X1701145Y1808739D02*
X1703974Y1811567D01*
X1695489Y1814395D02*
X1698317Y1817224D01*
X1668317Y1811567D02*
X1672913Y1812628D01*
X1668317Y1811567D02*
X1669378Y1816163D01*
X1672913Y1812628D01*
X1671145Y1808739D02*
X1673974Y1811567D01*
X1665489Y1814395D02*
X1668317Y1817224D01*
X1638317Y1811567D02*
X1642913Y1812628D01*
X1638317Y1811567D02*
X1639378Y1816163D01*
X1642913Y1812628D01*
X1641145Y1808739D02*
X1643974Y1811567D01*
X1635489Y1814395D02*
X1638317Y1817224D01*
X1608317Y1811567D02*
X1612913Y1812628D01*
X1608317Y1811567D02*
X1609378Y1816163D01*
X1612913Y1812628D01*
X1611145Y1808739D02*
X1613974Y1811567D01*
X1605489Y1814395D02*
X1608317Y1817224D01*
X1578317Y1811567D02*
X1582913Y1812628D01*
X1578317Y1811567D02*
X1579378Y1816163D01*
X1582913Y1812628D01*
X1581145Y1808739D02*
X1583974Y1811567D01*
X1575489Y1814395D02*
X1578317Y1817224D01*
X1548317Y1811567D02*
X1552913Y1812628D01*
X1548317Y1811567D02*
X1549378Y1816163D01*
X1552913Y1812628D01*
X1551145Y1808739D02*
X1553974Y1811567D01*
X1545489Y1814395D02*
X1548317Y1817224D01*
X1518317Y1811567D02*
X1522913Y1812628D01*
X1518317Y1811567D02*
X1519378Y1816163D01*
X1522913Y1812628D01*
X1521145Y1808739D02*
X1523974Y1811567D01*
X1515489Y1814395D02*
X1518317Y1817224D01*
X1488317Y1811567D02*
X1492913Y1812628D01*
X1488317Y1811567D02*
X1489378Y1816163D01*
X1492913Y1812628D01*
X1491145Y1808739D02*
X1493974Y1811567D01*
X1485489Y1814395D02*
X1488317Y1817224D01*
X1458317Y1811567D02*
X1462913Y1812628D01*
X1458317Y1811567D02*
X1459378Y1816163D01*
X1462913Y1812628D01*
X1461145Y1808739D02*
X1463974Y1811567D01*
X1455489Y1814395D02*
X1458317Y1817224D01*
X1428317Y1811567D02*
X1432913Y1812628D01*
X1428317Y1811567D02*
X1429378Y1816163D01*
X1432913Y1812628D01*
X1431145Y1808739D02*
X1433974Y1811567D01*
X1425489Y1814395D02*
X1428317Y1817224D01*
X1398317Y1811567D02*
X1402913Y1812628D01*
X1398317Y1811567D02*
X1399378Y1816163D01*
X1402913Y1812628D01*
X1401145Y1808739D02*
X1403974Y1811567D01*
X1395489Y1814395D02*
X1398317Y1817224D01*
X1368317Y1811567D02*
X1372913Y1812628D01*
X1368317Y1811567D02*
X1369378Y1816163D01*
X1372913Y1812628D01*
X1371145Y1808739D02*
X1373974Y1811567D01*
X1365489Y1814395D02*
X1368317Y1817224D01*
X1338317Y1811567D02*
X1342913Y1812628D01*
X1338317Y1811567D02*
X1339378Y1816163D01*
X1342913Y1812628D01*
X1341145Y1808739D02*
X1343974Y1811567D01*
X1335489Y1814395D02*
X1338317Y1817224D01*
X1308317Y1811567D02*
X1312913Y1812628D01*
X1308317Y1811567D02*
X1309378Y1816163D01*
X1312913Y1812628D01*
X1311145Y1808739D02*
X1313974Y1811567D01*
X1305489Y1814395D02*
X1308317Y1817224D01*
X2448317Y1841567D02*
X2452913Y1842628D01*
X2448317Y1841567D02*
X2449378Y1846163D01*
X2452913Y1842628D01*
X2451145Y1838739D02*
X2453974Y1841567D01*
X2445489Y1844395D02*
X2448317Y1847224D01*
X2418317Y1841567D02*
X2422913Y1842628D01*
X2418317Y1841567D02*
X2419378Y1846163D01*
X2422913Y1842628D01*
X2421145Y1838739D02*
X2423974Y1841567D01*
X2415489Y1844395D02*
X2418317Y1847224D01*
X2388317Y1841567D02*
X2392913Y1842628D01*
X2388317Y1841567D02*
X2389378Y1846163D01*
X2392913Y1842628D01*
X2391145Y1838739D02*
X2393974Y1841567D01*
X2385489Y1844395D02*
X2388317Y1847224D01*
X2358317Y1841567D02*
X2362913Y1842628D01*
X2358317Y1841567D02*
X2359378Y1846163D01*
X2362913Y1842628D01*
X2361145Y1838739D02*
X2363974Y1841567D01*
X2355489Y1844395D02*
X2358317Y1847224D01*
X2328317Y1841567D02*
X2332913Y1842628D01*
X2328317Y1841567D02*
X2329378Y1846163D01*
X2332913Y1842628D01*
X2331145Y1838739D02*
X2333974Y1841567D01*
X2325489Y1844395D02*
X2328317Y1847224D01*
X2298317Y1841567D02*
X2302913Y1842628D01*
X2298317Y1841567D02*
X2299378Y1846163D01*
X2302913Y1842628D01*
X2301145Y1838739D02*
X2303974Y1841567D01*
X2295489Y1844395D02*
X2298317Y1847224D01*
X2268317Y1841567D02*
X2272913Y1842628D01*
X2268317Y1841567D02*
X2269378Y1846163D01*
X2272913Y1842628D01*
X2271145Y1838739D02*
X2273974Y1841567D01*
X2265489Y1844395D02*
X2268317Y1847224D01*
X2238317Y1841567D02*
X2242913Y1842628D01*
X2238317Y1841567D02*
X2239378Y1846163D01*
X2242913Y1842628D01*
X2241145Y1838739D02*
X2243974Y1841567D01*
X2235489Y1844395D02*
X2238317Y1847224D01*
X2208317Y1841567D02*
X2212913Y1842628D01*
X2208317Y1841567D02*
X2209378Y1846163D01*
X2212913Y1842628D01*
X2211145Y1838739D02*
X2213974Y1841567D01*
X2205489Y1844395D02*
X2208317Y1847224D01*
X2178317Y1841567D02*
X2182913Y1842628D01*
X2178317Y1841567D02*
X2179378Y1846163D01*
X2182913Y1842628D01*
X2181145Y1838739D02*
X2183974Y1841567D01*
X2175489Y1844395D02*
X2178317Y1847224D01*
X2148317Y1841567D02*
X2152913Y1842628D01*
X2148317Y1841567D02*
X2149378Y1846163D01*
X2152913Y1842628D01*
X2151145Y1838739D02*
X2153974Y1841567D01*
X2145489Y1844395D02*
X2148317Y1847224D01*
X2118317Y1841567D02*
X2122913Y1842628D01*
X2118317Y1841567D02*
X2119378Y1846163D01*
X2122913Y1842628D01*
X2121145Y1838739D02*
X2123974Y1841567D01*
X2115489Y1844395D02*
X2118317Y1847224D01*
X2088317Y1841567D02*
X2092913Y1842628D01*
X2088317Y1841567D02*
X2089378Y1846163D01*
X2092913Y1842628D01*
X2091145Y1838739D02*
X2093974Y1841567D01*
X2085489Y1844395D02*
X2088317Y1847224D01*
X2058317Y1841567D02*
X2062913Y1842628D01*
X2058317Y1841567D02*
X2059378Y1846163D01*
X2062913Y1842628D01*
X2061145Y1838739D02*
X2063974Y1841567D01*
X2055489Y1844395D02*
X2058317Y1847224D01*
X2028317Y1841567D02*
X2032913Y1842628D01*
X2028317Y1841567D02*
X2029378Y1846163D01*
X2032913Y1842628D01*
X2031145Y1838739D02*
X2033974Y1841567D01*
X2025489Y1844395D02*
X2028317Y1847224D01*
X1998317Y1841567D02*
X2002913Y1842628D01*
X1998317Y1841567D02*
X1999378Y1846163D01*
X2002913Y1842628D01*
X2001145Y1838739D02*
X2003974Y1841567D01*
X1995489Y1844395D02*
X1998317Y1847224D01*
X1968317Y1841567D02*
X1972913Y1842628D01*
X1968317Y1841567D02*
X1969378Y1846163D01*
X1972913Y1842628D01*
X1971145Y1838739D02*
X1973974Y1841567D01*
X1965489Y1844395D02*
X1968317Y1847224D01*
X1938317Y1841567D02*
X1942913Y1842628D01*
X1938317Y1841567D02*
X1939378Y1846163D01*
X1942913Y1842628D01*
X1941145Y1838739D02*
X1943974Y1841567D01*
X1935489Y1844395D02*
X1938317Y1847224D01*
X1908317Y1841567D02*
X1912913Y1842628D01*
X1908317Y1841567D02*
X1909378Y1846163D01*
X1912913Y1842628D01*
X1911145Y1838739D02*
X1913974Y1841567D01*
X1905489Y1844395D02*
X1908317Y1847224D01*
X1878317Y1841567D02*
X1882913Y1842628D01*
X1878317Y1841567D02*
X1879378Y1846163D01*
X1882913Y1842628D01*
X1881145Y1838739D02*
X1883974Y1841567D01*
X1875489Y1844395D02*
X1878317Y1847224D01*
X1848317Y1841567D02*
X1852913Y1842628D01*
X1848317Y1841567D02*
X1849378Y1846163D01*
X1852913Y1842628D01*
X1851145Y1838739D02*
X1853974Y1841567D01*
X1845489Y1844395D02*
X1848317Y1847224D01*
X1818317Y1841567D02*
X1822913Y1842628D01*
X1818317Y1841567D02*
X1819378Y1846163D01*
X1822913Y1842628D01*
X1821145Y1838739D02*
X1823974Y1841567D01*
X1815489Y1844395D02*
X1818317Y1847224D01*
X1788317Y1841567D02*
X1792913Y1842628D01*
X1788317Y1841567D02*
X1789378Y1846163D01*
X1792913Y1842628D01*
X1791145Y1838739D02*
X1793974Y1841567D01*
X1785489Y1844395D02*
X1788317Y1847224D01*
X1758317Y1841567D02*
X1762913Y1842628D01*
X1758317Y1841567D02*
X1759378Y1846163D01*
X1762913Y1842628D01*
X1761145Y1838739D02*
X1763974Y1841567D01*
X1755489Y1844395D02*
X1758317Y1847224D01*
X1728317Y1841567D02*
X1732913Y1842628D01*
X1728317Y1841567D02*
X1729378Y1846163D01*
X1732913Y1842628D01*
X1731145Y1838739D02*
X1733974Y1841567D01*
X1725489Y1844395D02*
X1728317Y1847224D01*
X1698317Y1841567D02*
X1702913Y1842628D01*
X1698317Y1841567D02*
X1699378Y1846163D01*
X1702913Y1842628D01*
X1701145Y1838739D02*
X1703974Y1841567D01*
X1695489Y1844395D02*
X1698317Y1847224D01*
X1668317Y1841567D02*
X1672913Y1842628D01*
X1668317Y1841567D02*
X1669378Y1846163D01*
X1672913Y1842628D01*
X1671145Y1838739D02*
X1673974Y1841567D01*
X1665489Y1844395D02*
X1668317Y1847224D01*
X1638317Y1841567D02*
X1642913Y1842628D01*
X1638317Y1841567D02*
X1639378Y1846163D01*
X1642913Y1842628D01*
X1641145Y1838739D02*
X1643974Y1841567D01*
X1635489Y1844395D02*
X1638317Y1847224D01*
X1608317Y1841567D02*
X1612913Y1842628D01*
X1608317Y1841567D02*
X1609378Y1846163D01*
X1612913Y1842628D01*
X1611145Y1838739D02*
X1613974Y1841567D01*
X1605489Y1844395D02*
X1608317Y1847224D01*
X1578317Y1841567D02*
X1582913Y1842628D01*
X1578317Y1841567D02*
X1579378Y1846163D01*
X1582913Y1842628D01*
X1581145Y1838739D02*
X1583974Y1841567D01*
X1575489Y1844395D02*
X1578317Y1847224D01*
X1548317Y1841567D02*
X1552913Y1842628D01*
X1548317Y1841567D02*
X1549378Y1846163D01*
X1552913Y1842628D01*
X1551145Y1838739D02*
X1553974Y1841567D01*
X1545489Y1844395D02*
X1548317Y1847224D01*
X1518317Y1841567D02*
X1522913Y1842628D01*
X1518317Y1841567D02*
X1519378Y1846163D01*
X1522913Y1842628D01*
X1521145Y1838739D02*
X1523974Y1841567D01*
X1515489Y1844395D02*
X1518317Y1847224D01*
X1488317Y1841567D02*
X1492913Y1842628D01*
X1488317Y1841567D02*
X1489378Y1846163D01*
X1492913Y1842628D01*
X1491145Y1838739D02*
X1493974Y1841567D01*
X1485489Y1844395D02*
X1488317Y1847224D01*
X1458317Y1841567D02*
X1462913Y1842628D01*
X1458317Y1841567D02*
X1459378Y1846163D01*
X1462913Y1842628D01*
X1461145Y1838739D02*
X1463974Y1841567D01*
X1455489Y1844395D02*
X1458317Y1847224D01*
X1428317Y1841567D02*
X1432913Y1842628D01*
X1428317Y1841567D02*
X1429378Y1846163D01*
X1432913Y1842628D01*
X1431145Y1838739D02*
X1433974Y1841567D01*
X1425489Y1844395D02*
X1428317Y1847224D01*
X1398317Y1841567D02*
X1402913Y1842628D01*
X1398317Y1841567D02*
X1399378Y1846163D01*
X1402913Y1842628D01*
X1401145Y1838739D02*
X1403974Y1841567D01*
X1395489Y1844395D02*
X1398317Y1847224D01*
X1368317Y1841567D02*
X1372913Y1842628D01*
X1368317Y1841567D02*
X1369378Y1846163D01*
X1372913Y1842628D01*
X1371145Y1838739D02*
X1373974Y1841567D01*
X1365489Y1844395D02*
X1368317Y1847224D01*
X1338317Y1841567D02*
X1342913Y1842628D01*
X1338317Y1841567D02*
X1339378Y1846163D01*
X1342913Y1842628D01*
X1341145Y1838739D02*
X1343974Y1841567D01*
X1335489Y1844395D02*
X1338317Y1847224D01*
X1308317Y1841567D02*
X1312913Y1842628D01*
X1308317Y1841567D02*
X1309378Y1846163D01*
X1312913Y1842628D01*
X1311145Y1838739D02*
X1313974Y1841567D01*
X1305489Y1844395D02*
X1308317Y1847224D01*
X2448317Y1871567D02*
X2452913Y1872628D01*
X2448317Y1871567D02*
X2449378Y1876163D01*
X2452913Y1872628D01*
X2451145Y1868739D02*
X2453974Y1871567D01*
X2445489Y1874395D02*
X2448317Y1877224D01*
X2418317Y1871567D02*
X2422913Y1872628D01*
X2418317Y1871567D02*
X2419378Y1876163D01*
X2422913Y1872628D01*
X2421145Y1868739D02*
X2423974Y1871567D01*
X2415489Y1874395D02*
X2418317Y1877224D01*
X2388317Y1871567D02*
X2392913Y1872628D01*
X2388317Y1871567D02*
X2389378Y1876163D01*
X2392913Y1872628D01*
X2391145Y1868739D02*
X2393974Y1871567D01*
X2385489Y1874395D02*
X2388317Y1877224D01*
X2358317Y1871567D02*
X2362913Y1872628D01*
X2358317Y1871567D02*
X2359378Y1876163D01*
X2362913Y1872628D01*
X2361145Y1868739D02*
X2363974Y1871567D01*
X2355489Y1874395D02*
X2358317Y1877224D01*
X2328317Y1871567D02*
X2332913Y1872628D01*
X2328317Y1871567D02*
X2329378Y1876163D01*
X2332913Y1872628D01*
X2331145Y1868739D02*
X2333974Y1871567D01*
X2325489Y1874395D02*
X2328317Y1877224D01*
X2298317Y1871567D02*
X2302913Y1872628D01*
X2298317Y1871567D02*
X2299378Y1876163D01*
X2302913Y1872628D01*
X2301145Y1868739D02*
X2303974Y1871567D01*
X2295489Y1874395D02*
X2298317Y1877224D01*
X2268317Y1871567D02*
X2272913Y1872628D01*
X2268317Y1871567D02*
X2269378Y1876163D01*
X2272913Y1872628D01*
X2271145Y1868739D02*
X2273974Y1871567D01*
X2265489Y1874395D02*
X2268317Y1877224D01*
X2238317Y1871567D02*
X2242913Y1872628D01*
X2238317Y1871567D02*
X2239378Y1876163D01*
X2242913Y1872628D01*
X2241145Y1868739D02*
X2243974Y1871567D01*
X2235489Y1874395D02*
X2238317Y1877224D01*
X2208317Y1871567D02*
X2212913Y1872628D01*
X2208317Y1871567D02*
X2209378Y1876163D01*
X2212913Y1872628D01*
X2211145Y1868739D02*
X2213974Y1871567D01*
X2205489Y1874395D02*
X2208317Y1877224D01*
X2178317Y1871567D02*
X2182913Y1872628D01*
X2178317Y1871567D02*
X2179378Y1876163D01*
X2182913Y1872628D01*
X2181145Y1868739D02*
X2183974Y1871567D01*
X2175489Y1874395D02*
X2178317Y1877224D01*
X2148317Y1871567D02*
X2152913Y1872628D01*
X2148317Y1871567D02*
X2149378Y1876163D01*
X2152913Y1872628D01*
X2151145Y1868739D02*
X2153974Y1871567D01*
X2145489Y1874395D02*
X2148317Y1877224D01*
X2118317Y1871567D02*
X2122913Y1872628D01*
X2118317Y1871567D02*
X2119378Y1876163D01*
X2122913Y1872628D01*
X2121145Y1868739D02*
X2123974Y1871567D01*
X2115489Y1874395D02*
X2118317Y1877224D01*
X2088317Y1871567D02*
X2092913Y1872628D01*
X2088317Y1871567D02*
X2089378Y1876163D01*
X2092913Y1872628D01*
X2091145Y1868739D02*
X2093974Y1871567D01*
X2085489Y1874395D02*
X2088317Y1877224D01*
X2058317Y1871567D02*
X2062913Y1872628D01*
X2058317Y1871567D02*
X2059378Y1876163D01*
X2062913Y1872628D01*
X2061145Y1868739D02*
X2063974Y1871567D01*
X2055489Y1874395D02*
X2058317Y1877224D01*
X2028317Y1871567D02*
X2032913Y1872628D01*
X2028317Y1871567D02*
X2029378Y1876163D01*
X2032913Y1872628D01*
X2031145Y1868739D02*
X2033974Y1871567D01*
X2025489Y1874395D02*
X2028317Y1877224D01*
X1998317Y1871567D02*
X2002913Y1872628D01*
X1998317Y1871567D02*
X1999378Y1876163D01*
X2002913Y1872628D01*
X2001145Y1868739D02*
X2003974Y1871567D01*
X1995489Y1874395D02*
X1998317Y1877224D01*
X1968317Y1871567D02*
X1972913Y1872628D01*
X1968317Y1871567D02*
X1969378Y1876163D01*
X1972913Y1872628D01*
X1971145Y1868739D02*
X1973974Y1871567D01*
X1965489Y1874395D02*
X1968317Y1877224D01*
X1938317Y1871567D02*
X1942913Y1872628D01*
X1938317Y1871567D02*
X1939378Y1876163D01*
X1942913Y1872628D01*
X1941145Y1868739D02*
X1943974Y1871567D01*
X1935489Y1874395D02*
X1938317Y1877224D01*
X1908317Y1871567D02*
X1912913Y1872628D01*
X1908317Y1871567D02*
X1909378Y1876163D01*
X1912913Y1872628D01*
X1911145Y1868739D02*
X1913974Y1871567D01*
X1905489Y1874395D02*
X1908317Y1877224D01*
X1878317Y1871567D02*
X1882913Y1872628D01*
X1878317Y1871567D02*
X1879378Y1876163D01*
X1882913Y1872628D01*
X1881145Y1868739D02*
X1883974Y1871567D01*
X1875489Y1874395D02*
X1878317Y1877224D01*
X1848317Y1871567D02*
X1852913Y1872628D01*
X1848317Y1871567D02*
X1849378Y1876163D01*
X1852913Y1872628D01*
X1851145Y1868739D02*
X1853974Y1871567D01*
X1845489Y1874395D02*
X1848317Y1877224D01*
X1818317Y1871567D02*
X1822913Y1872628D01*
X1818317Y1871567D02*
X1819378Y1876163D01*
X1822913Y1872628D01*
X1821145Y1868739D02*
X1823974Y1871567D01*
X1815489Y1874395D02*
X1818317Y1877224D01*
X1788317Y1871567D02*
X1792913Y1872628D01*
X1788317Y1871567D02*
X1789378Y1876163D01*
X1792913Y1872628D01*
X1791145Y1868739D02*
X1793974Y1871567D01*
X1785489Y1874395D02*
X1788317Y1877224D01*
X1758317Y1871567D02*
X1762913Y1872628D01*
X1758317Y1871567D02*
X1759378Y1876163D01*
X1762913Y1872628D01*
X1761145Y1868739D02*
X1763974Y1871567D01*
X1755489Y1874395D02*
X1758317Y1877224D01*
X1728317Y1871567D02*
X1732913Y1872628D01*
X1728317Y1871567D02*
X1729378Y1876163D01*
X1732913Y1872628D01*
X1731145Y1868739D02*
X1733974Y1871567D01*
X1725489Y1874395D02*
X1728317Y1877224D01*
X1698317Y1871567D02*
X1702913Y1872628D01*
X1698317Y1871567D02*
X1699378Y1876163D01*
X1702913Y1872628D01*
X1701145Y1868739D02*
X1703974Y1871567D01*
X1695489Y1874395D02*
X1698317Y1877224D01*
X1668317Y1871567D02*
X1672913Y1872628D01*
X1668317Y1871567D02*
X1669378Y1876163D01*
X1672913Y1872628D01*
X1671145Y1868739D02*
X1673974Y1871567D01*
X1665489Y1874395D02*
X1668317Y1877224D01*
X1638317Y1871567D02*
X1642913Y1872628D01*
X1638317Y1871567D02*
X1639378Y1876163D01*
X1642913Y1872628D01*
X1641145Y1868739D02*
X1643974Y1871567D01*
X1635489Y1874395D02*
X1638317Y1877224D01*
X1608317Y1871567D02*
X1612913Y1872628D01*
X1608317Y1871567D02*
X1609378Y1876163D01*
X1612913Y1872628D01*
X1611145Y1868739D02*
X1613974Y1871567D01*
X1605489Y1874395D02*
X1608317Y1877224D01*
X1578317Y1871567D02*
X1582913Y1872628D01*
X1578317Y1871567D02*
X1579378Y1876163D01*
X1582913Y1872628D01*
X1581145Y1868739D02*
X1583974Y1871567D01*
X1575489Y1874395D02*
X1578317Y1877224D01*
X1548317Y1871567D02*
X1552913Y1872628D01*
X1548317Y1871567D02*
X1549378Y1876163D01*
X1552913Y1872628D01*
X1551145Y1868739D02*
X1553974Y1871567D01*
X1545489Y1874395D02*
X1548317Y1877224D01*
X1518317Y1871567D02*
X1522913Y1872628D01*
X1518317Y1871567D02*
X1519378Y1876163D01*
X1522913Y1872628D01*
X1521145Y1868739D02*
X1523974Y1871567D01*
X1515489Y1874395D02*
X1518317Y1877224D01*
X1488317Y1871567D02*
X1492913Y1872628D01*
X1488317Y1871567D02*
X1489378Y1876163D01*
X1492913Y1872628D01*
X1491145Y1868739D02*
X1493974Y1871567D01*
X1485489Y1874395D02*
X1488317Y1877224D01*
X1458317Y1871567D02*
X1462913Y1872628D01*
X1458317Y1871567D02*
X1459378Y1876163D01*
X1462913Y1872628D01*
X1461145Y1868739D02*
X1463974Y1871567D01*
X1455489Y1874395D02*
X1458317Y1877224D01*
X1428317Y1871567D02*
X1432913Y1872628D01*
X1428317Y1871567D02*
X1429378Y1876163D01*
X1432913Y1872628D01*
X1431145Y1868739D02*
X1433974Y1871567D01*
X1425489Y1874395D02*
X1428317Y1877224D01*
X1398317Y1871567D02*
X1402913Y1872628D01*
X1398317Y1871567D02*
X1399378Y1876163D01*
X1402913Y1872628D01*
X1401145Y1868739D02*
X1403974Y1871567D01*
X1395489Y1874395D02*
X1398317Y1877224D01*
X1368317Y1871567D02*
X1372913Y1872628D01*
X1368317Y1871567D02*
X1369378Y1876163D01*
X1372913Y1872628D01*
X1371145Y1868739D02*
X1373974Y1871567D01*
X1365489Y1874395D02*
X1368317Y1877224D01*
X1338317Y1871567D02*
X1342913Y1872628D01*
X1338317Y1871567D02*
X1339378Y1876163D01*
X1342913Y1872628D01*
X1341145Y1868739D02*
X1343974Y1871567D01*
X1335489Y1874395D02*
X1338317Y1877224D01*
X1308317Y1871567D02*
X1312913Y1872628D01*
X1308317Y1871567D02*
X1309378Y1876163D01*
X1312913Y1872628D01*
X1311145Y1868739D02*
X1313974Y1871567D01*
X1305489Y1874395D02*
X1308317Y1877224D01*
X1702924Y1412304D02*
X1882124D01*
X1882524Y1220304D02*
Y1227804D01*
X1857524Y1220304D02*
X1882524D01*
X1702524D02*
X1727524D01*
X1702524D02*
Y1227804D01*
X1882524Y1407804D02*
Y1475304D01*
X1702524D02*
X1882524D01*
X1702524Y1407804D02*
Y1475304D01*
X1277774Y1443554D02*
Y1460554D01*
X1258274Y1413054D02*
X1271274D01*
X1250774Y1416554D02*
Y1433054D01*
Y1446053D01*
Y1476554D01*
X1258274Y1480054D02*
X1271274D01*
D29*
X2197274Y1393054D02*
G03*
X2197274Y1393054I-1250J0D01*
G01*
X2161024Y1431604D02*
G03*
X2161024Y1431604I-1250J0D01*
G01*
X2392274Y1426804D02*
G03*
X2392274Y1426804I-1250J0D01*
G01*
X2419024Y1334054D02*
G03*
X2419024Y1334054I-1250J0D01*
G01*
D53*
X2247400Y1584300D02*
Y1609700D01*
X2018800Y1584300D02*
X2247400D01*
X2018800D02*
Y1609700D01*
X2247400D01*
X2037950Y1919950D02*
X2374500D01*
X2018900D02*
X2037950D01*
X2018900Y1894550D02*
Y1919950D01*
Y1894550D02*
X2374500D01*
Y1919950D01*
X2019300Y1894550D02*
Y1919950D01*
X1384300Y1894550D02*
X2019300D01*
X1384300D02*
Y1919950D01*
X1403350D01*
X2019300D01*
X1262074Y1358554D02*
X1287474D01*
Y1256954D02*
Y1358554D01*
X1262074Y1256954D02*
Y1358554D01*
Y1256954D02*
X1287474D01*
X2163024Y1375054D02*
X2171024D01*
X2163024D02*
Y1381054D01*
X2185024Y1375054D02*
X2193024D01*
Y1381054D01*
X2184774Y1449604D02*
X2192774D01*
Y1443604D02*
Y1449604D01*
X2162774D02*
X2170774D01*
X2162774Y1443604D02*
Y1449604D01*
X2360024Y1399744D02*
X2378024D01*
X2360024D02*
Y1416614D01*
X2378024Y1399744D02*
Y1416614D01*
X2402024Y1394804D02*
Y1423804D01*
X2408024D01*
Y1394804D02*
Y1423804D01*
X2402024Y1394804D02*
X2408024D01*
X2404274Y1337054D02*
Y1368054D01*
X2407274Y1337054D02*
Y1368054D01*
X2404274D02*
X2407274D01*
X2404274Y1337054D02*
X2407274D01*
X2019074Y1229974D02*
X2247674D01*
X2019074Y1204574D02*
Y1229974D01*
Y1204574D02*
X2247674D01*
Y1229974D01*
X2019574Y1514824D02*
Y1540224D01*
X1384574Y1514824D02*
X2019574D01*
X1384574D02*
Y1540224D01*
X1403624D01*
X2019574D01*
X2038224Y1540224D02*
X2374774D01*
X2019174D02*
X2038224D01*
X2019174Y1514824D02*
Y1540224D01*
Y1514824D02*
X2374774D01*
Y1540224D01*
D54*
X2278979Y1383053D02*
G03*
X2278979Y1383053I-3256J0D01*
G01*
D55*
X1685754Y1400184D02*
G03*
X1685754Y1400184I-1000J0D01*
G01*
D56*
X2369023Y1402284D02*
D03*
M02*
