G04*
G04 #@! TF.GenerationSoftware,Altium Limited,Altium Designer,19.0.14 (431)*
G04*
G04 Layer_Color=65535*
%FSLAX44Y44*%
%MOMM*%
G71*
G01*
G75*
%ADD11C,0.2540*%
%ADD31C,0.2500*%
%ADD33C,0.2000*%
%ADD35C,0.1270*%
%ADD37C,0.3000*%
%ADD61C,0.1524*%
%ADD62R,1.8000X0.5080*%
D11*
X2304188Y1404295D02*
G03*
X2304188Y1404295I-1414J0D01*
G01*
X2306490D02*
G03*
X2306490Y1404295I-3717J0D01*
G01*
X2241774Y1479051D02*
Y1470720D01*
X2243440Y1469054D01*
X2246772D01*
X2248438Y1470720D01*
Y1479051D01*
X2256769Y1469054D02*
Y1479051D01*
X2251770Y1474052D01*
X2258435D01*
X1914774Y1318054D02*
Y1328051D01*
X1919772D01*
X1921438Y1326384D01*
Y1323052D01*
X1919772Y1321386D01*
X1914774D01*
X1918106D02*
X1921438Y1318054D01*
X1931435D02*
X1924771D01*
X1931435Y1324718D01*
Y1326384D01*
X1929769Y1328051D01*
X1926437D01*
X1924771Y1326384D01*
X1941432Y1328051D02*
X1938100Y1326384D01*
X1934767Y1323052D01*
Y1319720D01*
X1936434Y1318054D01*
X1939766D01*
X1941432Y1319720D01*
Y1321386D01*
X1939766Y1323052D01*
X1934767D01*
X1914774Y1364054D02*
Y1374051D01*
X1919772D01*
X1921438Y1372384D01*
Y1369052D01*
X1919772Y1367386D01*
X1914774D01*
X1918106D02*
X1921438Y1364054D01*
X1931435D02*
X1924771D01*
X1931435Y1370718D01*
Y1372384D01*
X1929769Y1374051D01*
X1926437D01*
X1924771Y1372384D01*
X1941432Y1374051D02*
X1934767D01*
Y1369052D01*
X1938100Y1370718D01*
X1939766D01*
X1941432Y1369052D01*
Y1365720D01*
X1939766Y1364054D01*
X1936434D01*
X1934767Y1365720D01*
X2326443Y1490718D02*
X2324777Y1489052D01*
Y1485720D01*
X2326443Y1484054D01*
X2333108D01*
X2334774Y1485720D01*
Y1489052D01*
X2333108Y1490718D01*
X2334774Y1494051D02*
Y1497383D01*
Y1495717D01*
X2324777D01*
X2326443Y1494051D01*
Y1502381D02*
X2324777Y1504047D01*
Y1507380D01*
X2326443Y1509046D01*
X2328109D01*
X2329775Y1507380D01*
X2331441Y1509046D01*
X2333108D01*
X2334774Y1507380D01*
Y1504047D01*
X2333108Y1502381D01*
X2331441D01*
X2329775Y1504047D01*
X2328109Y1502381D01*
X2326443D01*
X2329775Y1504047D02*
Y1507380D01*
X2308443Y1490718D02*
X2306777Y1489052D01*
Y1485720D01*
X2308443Y1484054D01*
X2315108D01*
X2316774Y1485720D01*
Y1489052D01*
X2315108Y1490718D01*
X2316774Y1494051D02*
Y1497383D01*
Y1495717D01*
X2306777D01*
X2308443Y1494051D01*
X2306777Y1502381D02*
Y1509046D01*
X2308443D01*
X2315108Y1502381D01*
X2316774D01*
X2332308Y1442128D02*
X2330642Y1443795D01*
X2327310D01*
X2325644Y1442128D01*
Y1435464D01*
X2327310Y1433798D01*
X2330642D01*
X2332308Y1435464D01*
X2342305Y1443795D02*
X2338973Y1442128D01*
X2335641Y1438796D01*
Y1435464D01*
X2337307Y1433798D01*
X2340639D01*
X2342305Y1435464D01*
Y1437130D01*
X2340639Y1438796D01*
X2335641D01*
X2316306Y1442128D02*
X2314640Y1443795D01*
X2311308D01*
X2309642Y1442128D01*
Y1435464D01*
X2311308Y1433798D01*
X2314640D01*
X2316306Y1435464D01*
X2326303Y1443795D02*
X2319639D01*
Y1438796D01*
X2322971Y1440462D01*
X2324637D01*
X2326303Y1438796D01*
Y1435464D01*
X2324637Y1433798D01*
X2321305D01*
X2319639Y1435464D01*
X2351024Y1303804D02*
Y1313801D01*
X2356022D01*
X2357688Y1312135D01*
Y1308802D01*
X2356022Y1307136D01*
X2351024D01*
X2354356D02*
X2357688Y1303804D01*
X2367685D02*
X2361021D01*
X2367685Y1310468D01*
Y1312135D01*
X2366019Y1313801D01*
X2362687D01*
X2361021Y1312135D01*
X2371017D02*
X2372683Y1313801D01*
X2376016D01*
X2377682Y1312135D01*
Y1310468D01*
X2376016Y1308802D01*
X2374350D01*
X2376016D01*
X2377682Y1307136D01*
Y1305470D01*
X2376016Y1303804D01*
X2372683D01*
X2371017Y1305470D01*
X2333774Y1389051D02*
X2340438D01*
X2337106D01*
Y1379054D01*
X2350435D02*
X2343770D01*
X2350435Y1385718D01*
Y1387384D01*
X2348769Y1389051D01*
X2345437D01*
X2343770Y1387384D01*
X2167274Y1295501D02*
X2173938D01*
X2170606D01*
Y1285504D01*
X2177271D02*
Y1295501D01*
X2182269D01*
X2183935Y1293834D01*
Y1290502D01*
X2182269Y1288836D01*
X2177271D01*
X2193932Y1295501D02*
X2190600Y1293834D01*
X2187267Y1290502D01*
Y1287170D01*
X2188934Y1285504D01*
X2192266D01*
X2193932Y1287170D01*
Y1288836D01*
X2192266Y1290502D01*
X2187267D01*
X2300774Y1258051D02*
X2307438D01*
X2304106D01*
Y1248054D01*
X2312437D02*
X2315769D01*
X2317435Y1249720D01*
Y1253052D01*
X2315769Y1254718D01*
X2312437D01*
X2310771Y1253052D01*
Y1249720D01*
X2312437Y1248054D01*
X2320767D02*
Y1258051D01*
X2325766D01*
X2327432Y1256385D01*
Y1253052D01*
X2325766Y1251386D01*
X2320767D01*
X2324100D02*
X2327432Y1248054D01*
X2335762D02*
X2332430D01*
X2330764Y1249720D01*
Y1253052D01*
X2332430Y1254718D01*
X2335762D01*
X2337429Y1253052D01*
Y1251386D01*
X2330764D01*
X2344093Y1244722D02*
X2345759D01*
X2347425Y1246388D01*
Y1254718D01*
X2342427D01*
X2340761Y1253052D01*
Y1249720D01*
X2342427Y1248054D01*
X2347425D01*
X2438777Y1486304D02*
X2445441D01*
X2448774Y1489636D01*
X2445441Y1492968D01*
X2438777D01*
Y1496301D02*
X2448774D01*
Y1501299D01*
X2447108Y1502965D01*
X2445441D01*
X2443775Y1501299D01*
Y1496301D01*
Y1501299D01*
X2442109Y1502965D01*
X2440443D01*
X2438777Y1501299D01*
Y1496301D01*
X2442109Y1506297D02*
X2447108D01*
X2448774Y1507964D01*
Y1512962D01*
X2442109D01*
X2448774Y1516294D02*
Y1521293D01*
X2447108Y1522959D01*
X2445441Y1521293D01*
Y1517960D01*
X2443775Y1516294D01*
X2442109Y1517960D01*
Y1522959D01*
X2461777Y1249546D02*
X2468441D01*
X2471774Y1252878D01*
X2468441Y1256210D01*
X2461777D01*
Y1259542D02*
X2471774D01*
Y1264541D01*
X2470108Y1266207D01*
X2468441D01*
X2466775Y1264541D01*
Y1259542D01*
Y1264541D01*
X2465109Y1266207D01*
X2463443D01*
X2461777Y1264541D01*
Y1259542D01*
X2465109Y1271205D02*
Y1274537D01*
X2466775Y1276204D01*
X2471774D01*
Y1271205D01*
X2470108Y1269539D01*
X2468441Y1271205D01*
Y1276204D01*
X2463443Y1281202D02*
X2465109D01*
Y1279536D01*
Y1282868D01*
Y1281202D01*
X2470108D01*
X2471774Y1282868D01*
X1657774Y1323304D02*
Y1333300D01*
X1662772D01*
X1664438Y1331634D01*
Y1328302D01*
X1662772Y1326636D01*
X1657774D01*
X1661106D02*
X1664438Y1323304D01*
X1674435D02*
X1667771D01*
X1674435Y1329968D01*
Y1331634D01*
X1672769Y1333300D01*
X1669437D01*
X1667771Y1331634D01*
X1677767Y1323304D02*
X1681100D01*
X1679433D01*
Y1333300D01*
X1677767Y1331634D01*
X1532024Y1323554D02*
Y1333551D01*
X1537022D01*
X1538688Y1331884D01*
Y1328552D01*
X1537022Y1326886D01*
X1532024D01*
X1535356D02*
X1538688Y1323554D01*
X1542021D02*
X1545353D01*
X1543687D01*
Y1333551D01*
X1542021Y1331884D01*
X1557016Y1333551D02*
X1550351D01*
Y1328552D01*
X1553683Y1330218D01*
X1555349D01*
X1557016Y1328552D01*
Y1325220D01*
X1555349Y1323554D01*
X1552017D01*
X1550351Y1325220D01*
X1384524Y1323054D02*
Y1333051D01*
X1389522D01*
X1391188Y1331384D01*
Y1328052D01*
X1389522Y1326386D01*
X1384524D01*
X1387856D02*
X1391188Y1323054D01*
X1394521D02*
X1397853D01*
X1396187D01*
Y1333051D01*
X1394521Y1331384D01*
X1402851D02*
X1404517Y1333051D01*
X1407850D01*
X1409516Y1331384D01*
Y1329718D01*
X1407850Y1328052D01*
X1406183D01*
X1407850D01*
X1409516Y1326386D01*
Y1324720D01*
X1407850Y1323054D01*
X1404517D01*
X1402851Y1324720D01*
X2440771Y1361054D02*
X2432440D01*
X2430774Y1359388D01*
Y1356055D01*
X2432440Y1354389D01*
X2440771D01*
X2439104Y1351057D02*
X2440771Y1349391D01*
Y1346059D01*
X2439104Y1344393D01*
X2437438D01*
X2435772Y1346059D01*
Y1347725D01*
Y1346059D01*
X2434106Y1344393D01*
X2432440D01*
X2430774Y1346059D01*
Y1349391D01*
X2432440Y1351057D01*
X1684802Y1495611D02*
Y1487280D01*
X1686468Y1485614D01*
X1689800D01*
X1691466Y1487280D01*
Y1495611D01*
X1694798Y1485614D02*
X1698131D01*
X1696465D01*
Y1495611D01*
X1694798Y1493945D01*
X2392774Y1438801D02*
X2399438D01*
X2396106D01*
Y1428804D01*
X2402771D02*
X2406103D01*
X2404437D01*
Y1438801D01*
X2402771Y1437135D01*
X1978524Y1360304D02*
X1988521D01*
Y1355305D01*
X1986854Y1353639D01*
X1983522D01*
X1981856Y1355305D01*
Y1360304D01*
Y1356972D02*
X1978524Y1353639D01*
Y1350307D02*
Y1346975D01*
Y1348641D01*
X1988521D01*
X1986854Y1350307D01*
X1988521Y1335312D02*
X1986854Y1338644D01*
X1983522Y1341976D01*
X1980190D01*
X1978524Y1340310D01*
Y1336978D01*
X1980190Y1335312D01*
X1981856D01*
X1983522Y1336978D01*
Y1341976D01*
X1957274Y1352924D02*
X1967271D01*
Y1347925D01*
X1965604Y1346259D01*
X1962272D01*
X1960606Y1347925D01*
Y1352924D01*
Y1349592D02*
X1957274Y1346259D01*
Y1342927D02*
Y1339595D01*
Y1341261D01*
X1967271D01*
X1965604Y1342927D01*
X1957274Y1327932D02*
Y1334596D01*
X1963938Y1327932D01*
X1965604D01*
X1967271Y1329598D01*
Y1332930D01*
X1965604Y1334596D01*
X2422774Y1314054D02*
Y1324051D01*
X2427772D01*
X2429438Y1322384D01*
Y1319052D01*
X2427772Y1317386D01*
X2422774D01*
X2426106D02*
X2429438Y1314054D01*
X2432771D02*
X2436103D01*
X2434437D01*
Y1324051D01*
X2432771Y1322384D01*
X2441101Y1314054D02*
X2444433D01*
X2442767D01*
Y1324051D01*
X2441101Y1322384D01*
X2271774Y1371054D02*
Y1381051D01*
X2276772D01*
X2278438Y1379384D01*
Y1376052D01*
X2276772Y1374386D01*
X2271774D01*
X2275106D02*
X2278438Y1371054D01*
X2281770D02*
X2285103D01*
X2283437D01*
Y1381051D01*
X2281770Y1379384D01*
X2290101D02*
X2291767Y1381051D01*
X2295100D01*
X2296766Y1379384D01*
Y1372720D01*
X2295100Y1371054D01*
X2291767D01*
X2290101Y1372720D01*
Y1379384D01*
X2262774Y1387054D02*
Y1397051D01*
X2267772D01*
X2269438Y1395385D01*
Y1392052D01*
X2267772Y1390386D01*
X2262774D01*
X2266106D02*
X2269438Y1387054D01*
X2272771Y1388720D02*
X2274437Y1387054D01*
X2277769D01*
X2279435Y1388720D01*
Y1395385D01*
X2277769Y1397051D01*
X2274437D01*
X2272771Y1395385D01*
Y1393718D01*
X2274437Y1392052D01*
X2279435D01*
X2346774Y1498054D02*
Y1508051D01*
X2351772D01*
X2353438Y1506384D01*
Y1503052D01*
X2351772Y1501386D01*
X2346774D01*
X2350106D02*
X2353438Y1498054D01*
X2356770Y1506384D02*
X2358437Y1508051D01*
X2361769D01*
X2363435Y1506384D01*
Y1504718D01*
X2361769Y1503052D01*
X2363435Y1501386D01*
Y1499720D01*
X2361769Y1498054D01*
X2358437D01*
X2356770Y1499720D01*
Y1501386D01*
X2358437Y1503052D01*
X2356770Y1504718D01*
Y1506384D01*
X2358437Y1503052D02*
X2361769D01*
X2129774Y1353054D02*
X2119777D01*
Y1358052D01*
X2121443Y1359718D01*
X2124775D01*
X2126441Y1358052D01*
Y1353054D01*
Y1356386D02*
X2129774Y1359718D01*
X2119777Y1369715D02*
X2121443Y1366383D01*
X2124775Y1363051D01*
X2128108D01*
X2129774Y1364717D01*
Y1368049D01*
X2128108Y1369715D01*
X2126441D01*
X2124775Y1368049D01*
Y1363051D01*
X2355774Y1431554D02*
X2345777D01*
Y1436552D01*
X2347443Y1438218D01*
X2350775D01*
X2352442Y1436552D01*
Y1431554D01*
Y1434886D02*
X2355774Y1438218D01*
X2345777Y1448215D02*
Y1441551D01*
X2350775D01*
X2349109Y1444883D01*
Y1446549D01*
X2350775Y1448215D01*
X2354108D01*
X2355774Y1446549D01*
Y1443217D01*
X2354108Y1441551D01*
X2387774Y1248054D02*
Y1258051D01*
X2392772D01*
X2394438Y1256385D01*
Y1253052D01*
X2392772Y1251386D01*
X2387774D01*
X2391106D02*
X2394438Y1248054D01*
X2402769D02*
Y1258051D01*
X2397771Y1253052D01*
X2404435D01*
X2386774Y1293054D02*
Y1303051D01*
X2391772D01*
X2393438Y1301384D01*
Y1298052D01*
X2391772Y1296386D01*
X2386774D01*
X2390106D02*
X2393438Y1293054D01*
X2396770Y1301384D02*
X2398437Y1303051D01*
X2401769D01*
X2403435Y1301384D01*
Y1299718D01*
X2401769Y1298052D01*
X2400103D01*
X2401769D01*
X2403435Y1296386D01*
Y1294720D01*
X2401769Y1293054D01*
X2398437D01*
X2396770Y1294720D01*
X2096774Y1341054D02*
X2086777D01*
Y1346052D01*
X2088443Y1347718D01*
X2091775D01*
X2093441Y1346052D01*
Y1341054D01*
Y1344386D02*
X2096774Y1347718D01*
Y1357715D02*
Y1351051D01*
X2090109Y1357715D01*
X2088443D01*
X2086777Y1356049D01*
Y1352717D01*
X2088443Y1351051D01*
X2130274Y1434054D02*
X2120277D01*
Y1439052D01*
X2121943Y1440718D01*
X2125275D01*
X2126942Y1439052D01*
Y1434054D01*
Y1437386D02*
X2130274Y1440718D01*
Y1444051D02*
Y1447383D01*
Y1445717D01*
X2120277D01*
X2121943Y1444051D01*
X2195438Y1444720D02*
Y1451384D01*
X2193772Y1453051D01*
X2190440D01*
X2188774Y1451384D01*
Y1444720D01*
X2190440Y1443054D01*
X2193772D01*
X2192106Y1446386D02*
X2195438Y1443054D01*
X2193772D02*
X2195438Y1444720D01*
X2205435Y1443054D02*
X2198770D01*
X2205435Y1449718D01*
Y1451384D01*
X2203769Y1453051D01*
X2200437D01*
X2198770Y1451384D01*
X2189438Y1357720D02*
Y1364384D01*
X2187772Y1366051D01*
X2184440D01*
X2182774Y1364384D01*
Y1357720D01*
X2184440Y1356054D01*
X2187772D01*
X2186106Y1359386D02*
X2189438Y1356054D01*
X2187772D02*
X2189438Y1357720D01*
X2192771Y1356054D02*
X2196103D01*
X2194437D01*
Y1366051D01*
X2192771Y1364384D01*
X2365027Y1434554D02*
X2375024D01*
Y1439552D01*
X2373358Y1441218D01*
X2366693D01*
X2365027Y1439552D01*
Y1434554D01*
X2375024Y1444551D02*
Y1447883D01*
Y1446217D01*
X2365027D01*
X2366693Y1444551D01*
X2423104Y1250389D02*
X2424771Y1252055D01*
Y1255388D01*
X2423104Y1257054D01*
X2416440D01*
X2414774Y1255388D01*
Y1252055D01*
X2416440Y1250389D01*
X2414774Y1247057D02*
Y1243725D01*
Y1245391D01*
X2424771D01*
X2423104Y1247057D01*
X2414774Y1238726D02*
Y1235394D01*
Y1237060D01*
X2424771D01*
X2423104Y1238726D01*
X2367438Y1474384D02*
X2365772Y1476051D01*
X2362440D01*
X2360774Y1474384D01*
Y1467720D01*
X2362440Y1466054D01*
X2365772D01*
X2367438Y1467720D01*
X2370771Y1466054D02*
X2374103D01*
X2372437D01*
Y1476051D01*
X2370771Y1474384D01*
X2379101D02*
X2380767Y1476051D01*
X2384100D01*
X2385766Y1474384D01*
Y1467720D01*
X2384100Y1466054D01*
X2380767D01*
X2379101Y1467720D01*
Y1474384D01*
X2105443Y1359718D02*
X2103777Y1358052D01*
Y1354720D01*
X2105443Y1353054D01*
X2112108D01*
X2113774Y1354720D01*
Y1358052D01*
X2112108Y1359718D01*
Y1363051D02*
X2113774Y1364717D01*
Y1368049D01*
X2112108Y1369715D01*
X2105443D01*
X2103777Y1368049D01*
Y1364717D01*
X2105443Y1363051D01*
X2107109D01*
X2108775Y1364717D01*
Y1369715D01*
X2316438Y1325385D02*
X2314772Y1327051D01*
X2311440D01*
X2309774Y1325385D01*
Y1318720D01*
X2311440Y1317054D01*
X2314772D01*
X2316438Y1318720D01*
X2319771Y1327051D02*
X2326435D01*
Y1325385D01*
X2319771Y1318720D01*
Y1317054D01*
D31*
X2346774Y1371804D02*
G03*
X2346774Y1371804I-1250J0D01*
G01*
X2196024Y1420553D02*
G03*
X2196024Y1420553I-1250J0D01*
G01*
X2190024Y1390054D02*
G03*
X2190024Y1390054I-1250J0D01*
G01*
X2392274Y1426804D02*
G03*
X2392274Y1426804I-1250J0D01*
G01*
X2419024Y1334054D02*
G03*
X2419024Y1334054I-1250J0D01*
G01*
X2418774Y1377054D02*
Y1387051D01*
X2423772D01*
X2425438Y1385385D01*
Y1382052D01*
X2423772Y1380386D01*
X2418774D01*
X2422106D02*
X2425438Y1377054D01*
X2435435D02*
X2428770D01*
X2435435Y1383718D01*
Y1385385D01*
X2433769Y1387051D01*
X2430437D01*
X2428770Y1385385D01*
X2443766Y1377054D02*
Y1387051D01*
X2438767Y1382052D01*
X2445432D01*
D33*
X2247400Y1584300D02*
Y1609700D01*
X2018800Y1584300D02*
X2247400D01*
X2018800D02*
Y1609700D01*
X2247400D01*
X2037950Y1919950D02*
X2374500D01*
X2018900D02*
X2037950D01*
X2018900Y1894550D02*
Y1919950D01*
Y1894550D02*
X2374500D01*
Y1919950D01*
X2019300Y1894550D02*
Y1919950D01*
X1384300Y1894550D02*
X2019300D01*
X1384300D02*
Y1919950D01*
X1403350D01*
X2019300D01*
X2356524Y1339804D02*
X2362524D01*
Y1368804D01*
X2356524D02*
X2362524D01*
X2356524Y1339804D02*
Y1368804D01*
X2038224Y1540224D02*
X2374774D01*
X2019174D02*
X2038224D01*
X2019174Y1514824D02*
Y1540224D01*
Y1514824D02*
X2374774D01*
Y1540224D01*
X2019074Y1229974D02*
X2247674D01*
X2019074Y1204574D02*
Y1229974D01*
Y1204574D02*
X2247674D01*
Y1229974D01*
X1262074Y1256954D02*
X1287474D01*
X1262074D02*
Y1358554D01*
X1287474Y1256954D02*
Y1358554D01*
X1262074D02*
X1287474D01*
X2219774Y1438553D02*
X2227774D01*
Y1432553D02*
Y1438553D01*
X2197774D02*
X2205774D01*
X2197774Y1432553D02*
Y1438553D01*
X2155774Y1372054D02*
X2163774D01*
X2155774D02*
Y1378054D01*
X2177774Y1372054D02*
X2185774D01*
Y1378054D01*
X2360024Y1399744D02*
X2378024D01*
X2360024D02*
Y1416614D01*
X2378024Y1399744D02*
Y1416614D01*
X2402024Y1394804D02*
Y1423804D01*
X2408024D01*
Y1394804D02*
Y1423804D01*
X2402024Y1394804D02*
X2408024D01*
X2404274Y1337054D02*
Y1368054D01*
X2407274Y1337054D02*
Y1368054D01*
X2404274D02*
X2407274D01*
X2404274Y1337054D02*
X2407274D01*
X2019574Y1514824D02*
Y1540224D01*
X1384574Y1514824D02*
X2019574D01*
X1384574D02*
Y1540224D01*
X1403624D01*
X2019574D01*
D35*
X2448317Y1631567D02*
X2452913Y1632628D01*
X2448317Y1631567D02*
X2449378Y1636163D01*
X2452913Y1632628D01*
X2451145Y1628739D02*
X2453974Y1631567D01*
X2445489Y1634395D02*
X2448317Y1637224D01*
X2418317Y1631567D02*
X2422913Y1632628D01*
X2418317Y1631567D02*
X2419378Y1636163D01*
X2422913Y1632628D01*
X2421145Y1628739D02*
X2423974Y1631567D01*
X2415489Y1634395D02*
X2418317Y1637224D01*
X2388317Y1631567D02*
X2392913Y1632628D01*
X2388317Y1631567D02*
X2389378Y1636163D01*
X2392913Y1632628D01*
X2391145Y1628739D02*
X2393974Y1631567D01*
X2385489Y1634395D02*
X2388317Y1637224D01*
X2358317Y1631567D02*
X2362913Y1632628D01*
X2358317Y1631567D02*
X2359378Y1636163D01*
X2362913Y1632628D01*
X2361145Y1628739D02*
X2363974Y1631567D01*
X2355489Y1634395D02*
X2358317Y1637224D01*
X2328317Y1631567D02*
X2332913Y1632628D01*
X2328317Y1631567D02*
X2329378Y1636163D01*
X2332913Y1632628D01*
X2331145Y1628739D02*
X2333974Y1631567D01*
X2325489Y1634395D02*
X2328317Y1637224D01*
X2298317Y1631567D02*
X2302913Y1632628D01*
X2298317Y1631567D02*
X2299378Y1636163D01*
X2302913Y1632628D01*
X2301145Y1628739D02*
X2303974Y1631567D01*
X2295489Y1634395D02*
X2298317Y1637224D01*
X2268317Y1631567D02*
X2272913Y1632628D01*
X2268317Y1631567D02*
X2269378Y1636163D01*
X2272913Y1632628D01*
X2271145Y1628739D02*
X2273974Y1631567D01*
X2265489Y1634395D02*
X2268317Y1637224D01*
X2238317Y1631567D02*
X2242913Y1632628D01*
X2238317Y1631567D02*
X2239378Y1636163D01*
X2242913Y1632628D01*
X2241145Y1628739D02*
X2243974Y1631567D01*
X2235489Y1634395D02*
X2238317Y1637224D01*
X2208317Y1631567D02*
X2212913Y1632628D01*
X2208317Y1631567D02*
X2209378Y1636163D01*
X2212913Y1632628D01*
X2211145Y1628739D02*
X2213974Y1631567D01*
X2205489Y1634395D02*
X2208317Y1637224D01*
X2178317Y1631567D02*
X2182913Y1632628D01*
X2178317Y1631567D02*
X2179378Y1636163D01*
X2182913Y1632628D01*
X2181145Y1628739D02*
X2183974Y1631567D01*
X2175489Y1634395D02*
X2178317Y1637224D01*
X2148317Y1631567D02*
X2152913Y1632628D01*
X2148317Y1631567D02*
X2149378Y1636163D01*
X2152913Y1632628D01*
X2151145Y1628739D02*
X2153974Y1631567D01*
X2145489Y1634395D02*
X2148317Y1637224D01*
X2118317Y1631567D02*
X2122913Y1632628D01*
X2118317Y1631567D02*
X2119378Y1636163D01*
X2122913Y1632628D01*
X2121145Y1628739D02*
X2123974Y1631567D01*
X2115489Y1634395D02*
X2118317Y1637224D01*
X2088317Y1631567D02*
X2092913Y1632628D01*
X2088317Y1631567D02*
X2089378Y1636163D01*
X2092913Y1632628D01*
X2091145Y1628739D02*
X2093974Y1631567D01*
X2085489Y1634395D02*
X2088317Y1637224D01*
X2058317Y1631567D02*
X2062913Y1632628D01*
X2058317Y1631567D02*
X2059378Y1636163D01*
X2062913Y1632628D01*
X2061145Y1628739D02*
X2063974Y1631567D01*
X2055489Y1634395D02*
X2058317Y1637224D01*
X2028317Y1631567D02*
X2032913Y1632628D01*
X2028317Y1631567D02*
X2029378Y1636163D01*
X2032913Y1632628D01*
X2031145Y1628739D02*
X2033974Y1631567D01*
X2025489Y1634395D02*
X2028317Y1637224D01*
X1998317Y1631567D02*
X2002913Y1632628D01*
X1998317Y1631567D02*
X1999378Y1636163D01*
X2002913Y1632628D01*
X2001145Y1628739D02*
X2003974Y1631567D01*
X1995489Y1634395D02*
X1998317Y1637224D01*
X1968317Y1631567D02*
X1972913Y1632628D01*
X1968317Y1631567D02*
X1969378Y1636163D01*
X1972913Y1632628D01*
X1971145Y1628739D02*
X1973974Y1631567D01*
X1965489Y1634395D02*
X1968317Y1637224D01*
X1938317Y1631567D02*
X1942913Y1632628D01*
X1938317Y1631567D02*
X1939378Y1636163D01*
X1942913Y1632628D01*
X1941145Y1628739D02*
X1943974Y1631567D01*
X1935489Y1634395D02*
X1938317Y1637224D01*
X1908317Y1631567D02*
X1912913Y1632628D01*
X1908317Y1631567D02*
X1909378Y1636163D01*
X1912913Y1632628D01*
X1911145Y1628739D02*
X1913974Y1631567D01*
X1905489Y1634395D02*
X1908317Y1637224D01*
X1878317Y1631567D02*
X1882913Y1632628D01*
X1878317Y1631567D02*
X1879378Y1636163D01*
X1882913Y1632628D01*
X1881145Y1628739D02*
X1883974Y1631567D01*
X1875489Y1634395D02*
X1878317Y1637224D01*
X1848317Y1631567D02*
X1852913Y1632628D01*
X1848317Y1631567D02*
X1849378Y1636163D01*
X1852913Y1632628D01*
X1851145Y1628739D02*
X1853974Y1631567D01*
X1845489Y1634395D02*
X1848317Y1637224D01*
X1818317Y1631567D02*
X1822913Y1632628D01*
X1818317Y1631567D02*
X1819378Y1636163D01*
X1822913Y1632628D01*
X1821145Y1628739D02*
X1823974Y1631567D01*
X1815489Y1634395D02*
X1818317Y1637224D01*
X1788317Y1631567D02*
X1792913Y1632628D01*
X1788317Y1631567D02*
X1789378Y1636163D01*
X1792913Y1632628D01*
X1791145Y1628739D02*
X1793974Y1631567D01*
X1785489Y1634395D02*
X1788317Y1637224D01*
X1758317Y1631567D02*
X1762913Y1632628D01*
X1758317Y1631567D02*
X1759378Y1636163D01*
X1762913Y1632628D01*
X1761145Y1628739D02*
X1763974Y1631567D01*
X1755489Y1634395D02*
X1758317Y1637224D01*
X1728317Y1631567D02*
X1732913Y1632628D01*
X1728317Y1631567D02*
X1729378Y1636163D01*
X1732913Y1632628D01*
X1731145Y1628739D02*
X1733974Y1631567D01*
X1725489Y1634395D02*
X1728317Y1637224D01*
X1698317Y1631567D02*
X1702913Y1632628D01*
X1698317Y1631567D02*
X1699378Y1636163D01*
X1702913Y1632628D01*
X1701145Y1628739D02*
X1703974Y1631567D01*
X1695489Y1634395D02*
X1698317Y1637224D01*
X1668317Y1631567D02*
X1672913Y1632628D01*
X1668317Y1631567D02*
X1669378Y1636163D01*
X1672913Y1632628D01*
X1671145Y1628739D02*
X1673974Y1631567D01*
X1665489Y1634395D02*
X1668317Y1637224D01*
X1638317Y1631567D02*
X1642913Y1632628D01*
X1638317Y1631567D02*
X1639378Y1636163D01*
X1642913Y1632628D01*
X1641145Y1628739D02*
X1643974Y1631567D01*
X1635489Y1634395D02*
X1638317Y1637224D01*
X1608317Y1631567D02*
X1612913Y1632628D01*
X1608317Y1631567D02*
X1609378Y1636163D01*
X1612913Y1632628D01*
X1611145Y1628739D02*
X1613974Y1631567D01*
X1605489Y1634395D02*
X1608317Y1637224D01*
X1578317Y1631567D02*
X1582913Y1632628D01*
X1578317Y1631567D02*
X1579378Y1636163D01*
X1582913Y1632628D01*
X1581145Y1628739D02*
X1583974Y1631567D01*
X1575489Y1634395D02*
X1578317Y1637224D01*
X1548317Y1631567D02*
X1552913Y1632628D01*
X1548317Y1631567D02*
X1549378Y1636163D01*
X1552913Y1632628D01*
X1551145Y1628739D02*
X1553974Y1631567D01*
X1545489Y1634395D02*
X1548317Y1637224D01*
X1518317Y1631567D02*
X1522913Y1632628D01*
X1518317Y1631567D02*
X1519378Y1636163D01*
X1522913Y1632628D01*
X1521145Y1628739D02*
X1523974Y1631567D01*
X1515489Y1634395D02*
X1518317Y1637224D01*
X1488317Y1631567D02*
X1492913Y1632628D01*
X1488317Y1631567D02*
X1489378Y1636163D01*
X1492913Y1632628D01*
X1491145Y1628739D02*
X1493974Y1631567D01*
X1485489Y1634395D02*
X1488317Y1637224D01*
X1458317Y1631567D02*
X1462913Y1632628D01*
X1458317Y1631567D02*
X1459378Y1636163D01*
X1462913Y1632628D01*
X1461145Y1628739D02*
X1463974Y1631567D01*
X1455489Y1634395D02*
X1458317Y1637224D01*
X1428317Y1631567D02*
X1432913Y1632628D01*
X1428317Y1631567D02*
X1429378Y1636163D01*
X1432913Y1632628D01*
X1431145Y1628739D02*
X1433974Y1631567D01*
X1425489Y1634395D02*
X1428317Y1637224D01*
X1398317Y1631567D02*
X1402913Y1632628D01*
X1398317Y1631567D02*
X1399378Y1636163D01*
X1402913Y1632628D01*
X1401145Y1628739D02*
X1403974Y1631567D01*
X1395489Y1634395D02*
X1398317Y1637224D01*
X1368317Y1631567D02*
X1372913Y1632628D01*
X1368317Y1631567D02*
X1369378Y1636163D01*
X1372913Y1632628D01*
X1371145Y1628739D02*
X1373974Y1631567D01*
X1365489Y1634395D02*
X1368317Y1637224D01*
X1338317Y1631567D02*
X1342913Y1632628D01*
X1338317Y1631567D02*
X1339378Y1636163D01*
X1342913Y1632628D01*
X1341145Y1628739D02*
X1343974Y1631567D01*
X1335489Y1634395D02*
X1338317Y1637224D01*
X1308317Y1631567D02*
X1312913Y1632628D01*
X1308317Y1631567D02*
X1309378Y1636163D01*
X1312913Y1632628D01*
X1311145Y1628739D02*
X1313974Y1631567D01*
X1305489Y1634395D02*
X1308317Y1637224D01*
X2448317Y1661567D02*
X2452913Y1662628D01*
X2448317Y1661567D02*
X2449378Y1666163D01*
X2452913Y1662628D01*
X2451145Y1658739D02*
X2453974Y1661567D01*
X2445489Y1664395D02*
X2448317Y1667224D01*
X2418317Y1661567D02*
X2422913Y1662628D01*
X2418317Y1661567D02*
X2419378Y1666163D01*
X2422913Y1662628D01*
X2421145Y1658739D02*
X2423974Y1661567D01*
X2415489Y1664395D02*
X2418317Y1667224D01*
X2388317Y1661567D02*
X2392913Y1662628D01*
X2388317Y1661567D02*
X2389378Y1666163D01*
X2392913Y1662628D01*
X2391145Y1658739D02*
X2393974Y1661567D01*
X2385489Y1664395D02*
X2388317Y1667224D01*
X2358317Y1661567D02*
X2362913Y1662628D01*
X2358317Y1661567D02*
X2359378Y1666163D01*
X2362913Y1662628D01*
X2361145Y1658739D02*
X2363974Y1661567D01*
X2355489Y1664395D02*
X2358317Y1667224D01*
X2328317Y1661567D02*
X2332913Y1662628D01*
X2328317Y1661567D02*
X2329378Y1666163D01*
X2332913Y1662628D01*
X2331145Y1658739D02*
X2333974Y1661567D01*
X2325489Y1664395D02*
X2328317Y1667224D01*
X2298317Y1661567D02*
X2302913Y1662628D01*
X2298317Y1661567D02*
X2299378Y1666163D01*
X2302913Y1662628D01*
X2301145Y1658739D02*
X2303974Y1661567D01*
X2295489Y1664395D02*
X2298317Y1667224D01*
X2268317Y1661567D02*
X2272913Y1662628D01*
X2268317Y1661567D02*
X2269378Y1666163D01*
X2272913Y1662628D01*
X2271145Y1658739D02*
X2273974Y1661567D01*
X2265489Y1664395D02*
X2268317Y1667224D01*
X2238317Y1661567D02*
X2242913Y1662628D01*
X2238317Y1661567D02*
X2239378Y1666163D01*
X2242913Y1662628D01*
X2241145Y1658739D02*
X2243974Y1661567D01*
X2235489Y1664395D02*
X2238317Y1667224D01*
X2208317Y1661567D02*
X2212913Y1662628D01*
X2208317Y1661567D02*
X2209378Y1666163D01*
X2212913Y1662628D01*
X2211145Y1658739D02*
X2213974Y1661567D01*
X2205489Y1664395D02*
X2208317Y1667224D01*
X2178317Y1661567D02*
X2182913Y1662628D01*
X2178317Y1661567D02*
X2179378Y1666163D01*
X2182913Y1662628D01*
X2181145Y1658739D02*
X2183974Y1661567D01*
X2175489Y1664395D02*
X2178317Y1667224D01*
X2148317Y1661567D02*
X2152913Y1662628D01*
X2148317Y1661567D02*
X2149378Y1666163D01*
X2152913Y1662628D01*
X2151145Y1658739D02*
X2153974Y1661567D01*
X2145489Y1664395D02*
X2148317Y1667224D01*
X2118317Y1661567D02*
X2122913Y1662628D01*
X2118317Y1661567D02*
X2119378Y1666163D01*
X2122913Y1662628D01*
X2121145Y1658739D02*
X2123974Y1661567D01*
X2115489Y1664395D02*
X2118317Y1667224D01*
X2088317Y1661567D02*
X2092913Y1662628D01*
X2088317Y1661567D02*
X2089378Y1666163D01*
X2092913Y1662628D01*
X2091145Y1658739D02*
X2093974Y1661567D01*
X2085489Y1664395D02*
X2088317Y1667224D01*
X2058317Y1661567D02*
X2062913Y1662628D01*
X2058317Y1661567D02*
X2059378Y1666163D01*
X2062913Y1662628D01*
X2061145Y1658739D02*
X2063974Y1661567D01*
X2055489Y1664395D02*
X2058317Y1667224D01*
X2028317Y1661567D02*
X2032913Y1662628D01*
X2028317Y1661567D02*
X2029378Y1666163D01*
X2032913Y1662628D01*
X2031145Y1658739D02*
X2033974Y1661567D01*
X2025489Y1664395D02*
X2028317Y1667224D01*
X1998317Y1661567D02*
X2002913Y1662628D01*
X1998317Y1661567D02*
X1999378Y1666163D01*
X2002913Y1662628D01*
X2001145Y1658739D02*
X2003974Y1661567D01*
X1995489Y1664395D02*
X1998317Y1667224D01*
X1968317Y1661567D02*
X1972913Y1662628D01*
X1968317Y1661567D02*
X1969378Y1666163D01*
X1972913Y1662628D01*
X1971145Y1658739D02*
X1973974Y1661567D01*
X1965489Y1664395D02*
X1968317Y1667224D01*
X1938317Y1661567D02*
X1942913Y1662628D01*
X1938317Y1661567D02*
X1939378Y1666163D01*
X1942913Y1662628D01*
X1941145Y1658739D02*
X1943974Y1661567D01*
X1935489Y1664395D02*
X1938317Y1667224D01*
X1908317Y1661567D02*
X1912913Y1662628D01*
X1908317Y1661567D02*
X1909378Y1666163D01*
X1912913Y1662628D01*
X1911145Y1658739D02*
X1913974Y1661567D01*
X1905489Y1664395D02*
X1908317Y1667224D01*
X1878317Y1661567D02*
X1882913Y1662628D01*
X1878317Y1661567D02*
X1879378Y1666163D01*
X1882913Y1662628D01*
X1881145Y1658739D02*
X1883974Y1661567D01*
X1875489Y1664395D02*
X1878317Y1667224D01*
X1848317Y1661567D02*
X1852913Y1662628D01*
X1848317Y1661567D02*
X1849378Y1666163D01*
X1852913Y1662628D01*
X1851145Y1658739D02*
X1853974Y1661567D01*
X1845489Y1664395D02*
X1848317Y1667224D01*
X1818317Y1661567D02*
X1822913Y1662628D01*
X1818317Y1661567D02*
X1819378Y1666163D01*
X1822913Y1662628D01*
X1821145Y1658739D02*
X1823974Y1661567D01*
X1815489Y1664395D02*
X1818317Y1667224D01*
X1788317Y1661567D02*
X1792913Y1662628D01*
X1788317Y1661567D02*
X1789378Y1666163D01*
X1792913Y1662628D01*
X1791145Y1658739D02*
X1793974Y1661567D01*
X1785489Y1664395D02*
X1788317Y1667224D01*
X1758317Y1661567D02*
X1762913Y1662628D01*
X1758317Y1661567D02*
X1759378Y1666163D01*
X1762913Y1662628D01*
X1761145Y1658739D02*
X1763974Y1661567D01*
X1755489Y1664395D02*
X1758317Y1667224D01*
X1728317Y1661567D02*
X1732913Y1662628D01*
X1728317Y1661567D02*
X1729378Y1666163D01*
X1732913Y1662628D01*
X1731145Y1658739D02*
X1733974Y1661567D01*
X1725489Y1664395D02*
X1728317Y1667224D01*
X1698317Y1661567D02*
X1702913Y1662628D01*
X1698317Y1661567D02*
X1699378Y1666163D01*
X1702913Y1662628D01*
X1701145Y1658739D02*
X1703974Y1661567D01*
X1695489Y1664395D02*
X1698317Y1667224D01*
X1668317Y1661567D02*
X1672913Y1662628D01*
X1668317Y1661567D02*
X1669378Y1666163D01*
X1672913Y1662628D01*
X1671145Y1658739D02*
X1673974Y1661567D01*
X1665489Y1664395D02*
X1668317Y1667224D01*
X1638317Y1661567D02*
X1642913Y1662628D01*
X1638317Y1661567D02*
X1639378Y1666163D01*
X1642913Y1662628D01*
X1641145Y1658739D02*
X1643974Y1661567D01*
X1635489Y1664395D02*
X1638317Y1667224D01*
X1608317Y1661567D02*
X1612913Y1662628D01*
X1608317Y1661567D02*
X1609378Y1666163D01*
X1612913Y1662628D01*
X1611145Y1658739D02*
X1613974Y1661567D01*
X1605489Y1664395D02*
X1608317Y1667224D01*
X1578317Y1661567D02*
X1582913Y1662628D01*
X1578317Y1661567D02*
X1579378Y1666163D01*
X1582913Y1662628D01*
X1581145Y1658739D02*
X1583974Y1661567D01*
X1575489Y1664395D02*
X1578317Y1667224D01*
X1548317Y1661567D02*
X1552913Y1662628D01*
X1548317Y1661567D02*
X1549378Y1666163D01*
X1552913Y1662628D01*
X1551145Y1658739D02*
X1553974Y1661567D01*
X1545489Y1664395D02*
X1548317Y1667224D01*
X1518317Y1661567D02*
X1522913Y1662628D01*
X1518317Y1661567D02*
X1519378Y1666163D01*
X1522913Y1662628D01*
X1521145Y1658739D02*
X1523974Y1661567D01*
X1515489Y1664395D02*
X1518317Y1667224D01*
X1488317Y1661567D02*
X1492913Y1662628D01*
X1488317Y1661567D02*
X1489378Y1666163D01*
X1492913Y1662628D01*
X1491145Y1658739D02*
X1493974Y1661567D01*
X1485489Y1664395D02*
X1488317Y1667224D01*
X1458317Y1661567D02*
X1462913Y1662628D01*
X1458317Y1661567D02*
X1459378Y1666163D01*
X1462913Y1662628D01*
X1461145Y1658739D02*
X1463974Y1661567D01*
X1455489Y1664395D02*
X1458317Y1667224D01*
X1428317Y1661567D02*
X1432913Y1662628D01*
X1428317Y1661567D02*
X1429378Y1666163D01*
X1432913Y1662628D01*
X1431145Y1658739D02*
X1433974Y1661567D01*
X1425489Y1664395D02*
X1428317Y1667224D01*
X1398317Y1661567D02*
X1402913Y1662628D01*
X1398317Y1661567D02*
X1399378Y1666163D01*
X1402913Y1662628D01*
X1401145Y1658739D02*
X1403974Y1661567D01*
X1395489Y1664395D02*
X1398317Y1667224D01*
X1368317Y1661567D02*
X1372913Y1662628D01*
X1368317Y1661567D02*
X1369378Y1666163D01*
X1372913Y1662628D01*
X1371145Y1658739D02*
X1373974Y1661567D01*
X1365489Y1664395D02*
X1368317Y1667224D01*
X1338317Y1661567D02*
X1342913Y1662628D01*
X1338317Y1661567D02*
X1339378Y1666163D01*
X1342913Y1662628D01*
X1341145Y1658739D02*
X1343974Y1661567D01*
X1335489Y1664395D02*
X1338317Y1667224D01*
X1308317Y1661567D02*
X1312913Y1662628D01*
X1308317Y1661567D02*
X1309378Y1666163D01*
X1312913Y1662628D01*
X1311145Y1658739D02*
X1313974Y1661567D01*
X1305489Y1664395D02*
X1308317Y1667224D01*
X2448317Y1691567D02*
X2452913Y1692628D01*
X2448317Y1691567D02*
X2449378Y1696163D01*
X2452913Y1692628D01*
X2451145Y1688739D02*
X2453974Y1691567D01*
X2445489Y1694395D02*
X2448317Y1697224D01*
X2418317Y1691567D02*
X2422913Y1692628D01*
X2418317Y1691567D02*
X2419378Y1696163D01*
X2422913Y1692628D01*
X2421145Y1688739D02*
X2423974Y1691567D01*
X2415489Y1694395D02*
X2418317Y1697224D01*
X2388317Y1691567D02*
X2392913Y1692628D01*
X2388317Y1691567D02*
X2389378Y1696163D01*
X2392913Y1692628D01*
X2391145Y1688739D02*
X2393974Y1691567D01*
X2385489Y1694395D02*
X2388317Y1697224D01*
X2358317Y1691567D02*
X2362913Y1692628D01*
X2358317Y1691567D02*
X2359378Y1696163D01*
X2362913Y1692628D01*
X2361145Y1688739D02*
X2363974Y1691567D01*
X2355489Y1694395D02*
X2358317Y1697224D01*
X2328317Y1691567D02*
X2332913Y1692628D01*
X2328317Y1691567D02*
X2329378Y1696163D01*
X2332913Y1692628D01*
X2331145Y1688739D02*
X2333974Y1691567D01*
X2325489Y1694395D02*
X2328317Y1697224D01*
X2298317Y1691567D02*
X2302913Y1692628D01*
X2298317Y1691567D02*
X2299378Y1696163D01*
X2302913Y1692628D01*
X2301145Y1688739D02*
X2303974Y1691567D01*
X2295489Y1694395D02*
X2298317Y1697224D01*
X2268317Y1691567D02*
X2272913Y1692628D01*
X2268317Y1691567D02*
X2269378Y1696163D01*
X2272913Y1692628D01*
X2271145Y1688739D02*
X2273974Y1691567D01*
X2265489Y1694395D02*
X2268317Y1697224D01*
X2238317Y1691567D02*
X2242913Y1692628D01*
X2238317Y1691567D02*
X2239378Y1696163D01*
X2242913Y1692628D01*
X2241145Y1688739D02*
X2243974Y1691567D01*
X2235489Y1694395D02*
X2238317Y1697224D01*
X2208317Y1691567D02*
X2212913Y1692628D01*
X2208317Y1691567D02*
X2209378Y1696163D01*
X2212913Y1692628D01*
X2211145Y1688739D02*
X2213974Y1691567D01*
X2205489Y1694395D02*
X2208317Y1697224D01*
X2178317Y1691567D02*
X2182913Y1692628D01*
X2178317Y1691567D02*
X2179378Y1696163D01*
X2182913Y1692628D01*
X2181145Y1688739D02*
X2183974Y1691567D01*
X2175489Y1694395D02*
X2178317Y1697224D01*
X2148317Y1691567D02*
X2152913Y1692628D01*
X2148317Y1691567D02*
X2149378Y1696163D01*
X2152913Y1692628D01*
X2151145Y1688739D02*
X2153974Y1691567D01*
X2145489Y1694395D02*
X2148317Y1697224D01*
X2118317Y1691567D02*
X2122913Y1692628D01*
X2118317Y1691567D02*
X2119378Y1696163D01*
X2122913Y1692628D01*
X2121145Y1688739D02*
X2123974Y1691567D01*
X2115489Y1694395D02*
X2118317Y1697224D01*
X2088317Y1691567D02*
X2092913Y1692628D01*
X2088317Y1691567D02*
X2089378Y1696163D01*
X2092913Y1692628D01*
X2091145Y1688739D02*
X2093974Y1691567D01*
X2085489Y1694395D02*
X2088317Y1697224D01*
X2058317Y1691567D02*
X2062913Y1692628D01*
X2058317Y1691567D02*
X2059378Y1696163D01*
X2062913Y1692628D01*
X2061145Y1688739D02*
X2063974Y1691567D01*
X2055489Y1694395D02*
X2058317Y1697224D01*
X2028317Y1691567D02*
X2032913Y1692628D01*
X2028317Y1691567D02*
X2029378Y1696163D01*
X2032913Y1692628D01*
X2031145Y1688739D02*
X2033974Y1691567D01*
X2025489Y1694395D02*
X2028317Y1697224D01*
X1998317Y1691567D02*
X2002913Y1692628D01*
X1998317Y1691567D02*
X1999378Y1696163D01*
X2002913Y1692628D01*
X2001145Y1688739D02*
X2003974Y1691567D01*
X1995489Y1694395D02*
X1998317Y1697224D01*
X1968317Y1691567D02*
X1972913Y1692628D01*
X1968317Y1691567D02*
X1969378Y1696163D01*
X1972913Y1692628D01*
X1971145Y1688739D02*
X1973974Y1691567D01*
X1965489Y1694395D02*
X1968317Y1697224D01*
X1938317Y1691567D02*
X1942913Y1692628D01*
X1938317Y1691567D02*
X1939378Y1696163D01*
X1942913Y1692628D01*
X1941145Y1688739D02*
X1943974Y1691567D01*
X1935489Y1694395D02*
X1938317Y1697224D01*
X1908317Y1691567D02*
X1912913Y1692628D01*
X1908317Y1691567D02*
X1909378Y1696163D01*
X1912913Y1692628D01*
X1911145Y1688739D02*
X1913974Y1691567D01*
X1905489Y1694395D02*
X1908317Y1697224D01*
X1878317Y1691567D02*
X1882913Y1692628D01*
X1878317Y1691567D02*
X1879378Y1696163D01*
X1882913Y1692628D01*
X1881145Y1688739D02*
X1883974Y1691567D01*
X1875489Y1694395D02*
X1878317Y1697224D01*
X1848317Y1691567D02*
X1852913Y1692628D01*
X1848317Y1691567D02*
X1849378Y1696163D01*
X1852913Y1692628D01*
X1851145Y1688739D02*
X1853974Y1691567D01*
X1845489Y1694395D02*
X1848317Y1697224D01*
X1818317Y1691567D02*
X1822913Y1692628D01*
X1818317Y1691567D02*
X1819378Y1696163D01*
X1822913Y1692628D01*
X1821145Y1688739D02*
X1823974Y1691567D01*
X1815489Y1694395D02*
X1818317Y1697224D01*
X1788317Y1691567D02*
X1792913Y1692628D01*
X1788317Y1691567D02*
X1789378Y1696163D01*
X1792913Y1692628D01*
X1791145Y1688739D02*
X1793974Y1691567D01*
X1785489Y1694395D02*
X1788317Y1697224D01*
X1758317Y1691567D02*
X1762913Y1692628D01*
X1758317Y1691567D02*
X1759378Y1696163D01*
X1762913Y1692628D01*
X1761145Y1688739D02*
X1763974Y1691567D01*
X1755489Y1694395D02*
X1758317Y1697224D01*
X1728317Y1691567D02*
X1732913Y1692628D01*
X1728317Y1691567D02*
X1729378Y1696163D01*
X1732913Y1692628D01*
X1731145Y1688739D02*
X1733974Y1691567D01*
X1725489Y1694395D02*
X1728317Y1697224D01*
X1698317Y1691567D02*
X1702913Y1692628D01*
X1698317Y1691567D02*
X1699378Y1696163D01*
X1702913Y1692628D01*
X1701145Y1688739D02*
X1703974Y1691567D01*
X1695489Y1694395D02*
X1698317Y1697224D01*
X1668317Y1691567D02*
X1672913Y1692628D01*
X1668317Y1691567D02*
X1669378Y1696163D01*
X1672913Y1692628D01*
X1671145Y1688739D02*
X1673974Y1691567D01*
X1665489Y1694395D02*
X1668317Y1697224D01*
X1638317Y1691567D02*
X1642913Y1692628D01*
X1638317Y1691567D02*
X1639378Y1696163D01*
X1642913Y1692628D01*
X1641145Y1688739D02*
X1643974Y1691567D01*
X1635489Y1694395D02*
X1638317Y1697224D01*
X1608317Y1691567D02*
X1612913Y1692628D01*
X1608317Y1691567D02*
X1609378Y1696163D01*
X1612913Y1692628D01*
X1611145Y1688739D02*
X1613974Y1691567D01*
X1605489Y1694395D02*
X1608317Y1697224D01*
X1578317Y1691567D02*
X1582913Y1692628D01*
X1578317Y1691567D02*
X1579378Y1696163D01*
X1582913Y1692628D01*
X1581145Y1688739D02*
X1583974Y1691567D01*
X1575489Y1694395D02*
X1578317Y1697224D01*
X1548317Y1691567D02*
X1552913Y1692628D01*
X1548317Y1691567D02*
X1549378Y1696163D01*
X1552913Y1692628D01*
X1551145Y1688739D02*
X1553974Y1691567D01*
X1545489Y1694395D02*
X1548317Y1697224D01*
X1518317Y1691567D02*
X1522913Y1692628D01*
X1518317Y1691567D02*
X1519378Y1696163D01*
X1522913Y1692628D01*
X1521145Y1688739D02*
X1523974Y1691567D01*
X1515489Y1694395D02*
X1518317Y1697224D01*
X1488317Y1691567D02*
X1492913Y1692628D01*
X1488317Y1691567D02*
X1489378Y1696163D01*
X1492913Y1692628D01*
X1491145Y1688739D02*
X1493974Y1691567D01*
X1485489Y1694395D02*
X1488317Y1697224D01*
X1458317Y1691567D02*
X1462913Y1692628D01*
X1458317Y1691567D02*
X1459378Y1696163D01*
X1462913Y1692628D01*
X1461145Y1688739D02*
X1463974Y1691567D01*
X1455489Y1694395D02*
X1458317Y1697224D01*
X1428317Y1691567D02*
X1432913Y1692628D01*
X1428317Y1691567D02*
X1429378Y1696163D01*
X1432913Y1692628D01*
X1431145Y1688739D02*
X1433974Y1691567D01*
X1425489Y1694395D02*
X1428317Y1697224D01*
X1398317Y1691567D02*
X1402913Y1692628D01*
X1398317Y1691567D02*
X1399378Y1696163D01*
X1402913Y1692628D01*
X1401145Y1688739D02*
X1403974Y1691567D01*
X1395489Y1694395D02*
X1398317Y1697224D01*
X1368317Y1691567D02*
X1372913Y1692628D01*
X1368317Y1691567D02*
X1369378Y1696163D01*
X1372913Y1692628D01*
X1371145Y1688739D02*
X1373974Y1691567D01*
X1365489Y1694395D02*
X1368317Y1697224D01*
X1338317Y1691567D02*
X1342913Y1692628D01*
X1338317Y1691567D02*
X1339378Y1696163D01*
X1342913Y1692628D01*
X1341145Y1688739D02*
X1343974Y1691567D01*
X1335489Y1694395D02*
X1338317Y1697224D01*
X1308317Y1691567D02*
X1312913Y1692628D01*
X1308317Y1691567D02*
X1309378Y1696163D01*
X1312913Y1692628D01*
X1311145Y1688739D02*
X1313974Y1691567D01*
X1305489Y1694395D02*
X1308317Y1697224D01*
X2448317Y1721567D02*
X2452913Y1722628D01*
X2448317Y1721567D02*
X2449378Y1726163D01*
X2452913Y1722628D01*
X2451145Y1718739D02*
X2453974Y1721567D01*
X2445489Y1724395D02*
X2448317Y1727224D01*
X2418317Y1721567D02*
X2422913Y1722628D01*
X2418317Y1721567D02*
X2419378Y1726163D01*
X2422913Y1722628D01*
X2421145Y1718739D02*
X2423974Y1721567D01*
X2415489Y1724395D02*
X2418317Y1727224D01*
X2388317Y1721567D02*
X2392913Y1722628D01*
X2388317Y1721567D02*
X2389378Y1726163D01*
X2392913Y1722628D01*
X2391145Y1718739D02*
X2393974Y1721567D01*
X2385489Y1724395D02*
X2388317Y1727224D01*
X2358317Y1721567D02*
X2362913Y1722628D01*
X2358317Y1721567D02*
X2359378Y1726163D01*
X2362913Y1722628D01*
X2361145Y1718739D02*
X2363974Y1721567D01*
X2355489Y1724395D02*
X2358317Y1727224D01*
X2328317Y1721567D02*
X2332913Y1722628D01*
X2328317Y1721567D02*
X2329378Y1726163D01*
X2332913Y1722628D01*
X2331145Y1718739D02*
X2333974Y1721567D01*
X2325489Y1724395D02*
X2328317Y1727224D01*
X2298317Y1721567D02*
X2302913Y1722628D01*
X2298317Y1721567D02*
X2299378Y1726163D01*
X2302913Y1722628D01*
X2301145Y1718739D02*
X2303974Y1721567D01*
X2295489Y1724395D02*
X2298317Y1727224D01*
X2268317Y1721567D02*
X2272913Y1722628D01*
X2268317Y1721567D02*
X2269378Y1726163D01*
X2272913Y1722628D01*
X2271145Y1718739D02*
X2273974Y1721567D01*
X2265489Y1724395D02*
X2268317Y1727224D01*
X2238317Y1721567D02*
X2242913Y1722628D01*
X2238317Y1721567D02*
X2239378Y1726163D01*
X2242913Y1722628D01*
X2241145Y1718739D02*
X2243974Y1721567D01*
X2235489Y1724395D02*
X2238317Y1727224D01*
X2208317Y1721567D02*
X2212913Y1722628D01*
X2208317Y1721567D02*
X2209378Y1726163D01*
X2212913Y1722628D01*
X2211145Y1718739D02*
X2213974Y1721567D01*
X2205489Y1724395D02*
X2208317Y1727224D01*
X2178317Y1721567D02*
X2182913Y1722628D01*
X2178317Y1721567D02*
X2179378Y1726163D01*
X2182913Y1722628D01*
X2181145Y1718739D02*
X2183974Y1721567D01*
X2175489Y1724395D02*
X2178317Y1727224D01*
X2148317Y1721567D02*
X2152913Y1722628D01*
X2148317Y1721567D02*
X2149378Y1726163D01*
X2152913Y1722628D01*
X2151145Y1718739D02*
X2153974Y1721567D01*
X2145489Y1724395D02*
X2148317Y1727224D01*
X2118317Y1721567D02*
X2122913Y1722628D01*
X2118317Y1721567D02*
X2119378Y1726163D01*
X2122913Y1722628D01*
X2121145Y1718739D02*
X2123974Y1721567D01*
X2115489Y1724395D02*
X2118317Y1727224D01*
X2088317Y1721567D02*
X2092913Y1722628D01*
X2088317Y1721567D02*
X2089378Y1726163D01*
X2092913Y1722628D01*
X2091145Y1718739D02*
X2093974Y1721567D01*
X2085489Y1724395D02*
X2088317Y1727224D01*
X2058317Y1721567D02*
X2062913Y1722628D01*
X2058317Y1721567D02*
X2059378Y1726163D01*
X2062913Y1722628D01*
X2061145Y1718739D02*
X2063974Y1721567D01*
X2055489Y1724395D02*
X2058317Y1727224D01*
X2028317Y1721567D02*
X2032913Y1722628D01*
X2028317Y1721567D02*
X2029378Y1726163D01*
X2032913Y1722628D01*
X2031145Y1718739D02*
X2033974Y1721567D01*
X2025489Y1724395D02*
X2028317Y1727224D01*
X1998317Y1721567D02*
X2002913Y1722628D01*
X1998317Y1721567D02*
X1999378Y1726163D01*
X2002913Y1722628D01*
X2001145Y1718739D02*
X2003974Y1721567D01*
X1995489Y1724395D02*
X1998317Y1727224D01*
X1968317Y1721567D02*
X1972913Y1722628D01*
X1968317Y1721567D02*
X1969378Y1726163D01*
X1972913Y1722628D01*
X1971145Y1718739D02*
X1973974Y1721567D01*
X1965489Y1724395D02*
X1968317Y1727224D01*
X1938317Y1721567D02*
X1942913Y1722628D01*
X1938317Y1721567D02*
X1939378Y1726163D01*
X1942913Y1722628D01*
X1941145Y1718739D02*
X1943974Y1721567D01*
X1935489Y1724395D02*
X1938317Y1727224D01*
X1908317Y1721567D02*
X1912913Y1722628D01*
X1908317Y1721567D02*
X1909378Y1726163D01*
X1912913Y1722628D01*
X1911145Y1718739D02*
X1913974Y1721567D01*
X1905489Y1724395D02*
X1908317Y1727224D01*
X1878317Y1721567D02*
X1882913Y1722628D01*
X1878317Y1721567D02*
X1879378Y1726163D01*
X1882913Y1722628D01*
X1881145Y1718739D02*
X1883974Y1721567D01*
X1875489Y1724395D02*
X1878317Y1727224D01*
X1848317Y1721567D02*
X1852913Y1722628D01*
X1848317Y1721567D02*
X1849378Y1726163D01*
X1852913Y1722628D01*
X1851145Y1718739D02*
X1853974Y1721567D01*
X1845489Y1724395D02*
X1848317Y1727224D01*
X1818317Y1721567D02*
X1822913Y1722628D01*
X1818317Y1721567D02*
X1819378Y1726163D01*
X1822913Y1722628D01*
X1821145Y1718739D02*
X1823974Y1721567D01*
X1815489Y1724395D02*
X1818317Y1727224D01*
X1788317Y1721567D02*
X1792913Y1722628D01*
X1788317Y1721567D02*
X1789378Y1726163D01*
X1792913Y1722628D01*
X1791145Y1718739D02*
X1793974Y1721567D01*
X1785489Y1724395D02*
X1788317Y1727224D01*
X1758317Y1721567D02*
X1762913Y1722628D01*
X1758317Y1721567D02*
X1759378Y1726163D01*
X1762913Y1722628D01*
X1761145Y1718739D02*
X1763974Y1721567D01*
X1755489Y1724395D02*
X1758317Y1727224D01*
X1728317Y1721567D02*
X1732913Y1722628D01*
X1728317Y1721567D02*
X1729378Y1726163D01*
X1732913Y1722628D01*
X1731145Y1718739D02*
X1733974Y1721567D01*
X1725489Y1724395D02*
X1728317Y1727224D01*
X1698317Y1721567D02*
X1702913Y1722628D01*
X1698317Y1721567D02*
X1699378Y1726163D01*
X1702913Y1722628D01*
X1701145Y1718739D02*
X1703974Y1721567D01*
X1695489Y1724395D02*
X1698317Y1727224D01*
X1668317Y1721567D02*
X1672913Y1722628D01*
X1668317Y1721567D02*
X1669378Y1726163D01*
X1672913Y1722628D01*
X1671145Y1718739D02*
X1673974Y1721567D01*
X1665489Y1724395D02*
X1668317Y1727224D01*
X1638317Y1721567D02*
X1642913Y1722628D01*
X1638317Y1721567D02*
X1639378Y1726163D01*
X1642913Y1722628D01*
X1641145Y1718739D02*
X1643974Y1721567D01*
X1635489Y1724395D02*
X1638317Y1727224D01*
X1608317Y1721567D02*
X1612913Y1722628D01*
X1608317Y1721567D02*
X1609378Y1726163D01*
X1612913Y1722628D01*
X1611145Y1718739D02*
X1613974Y1721567D01*
X1605489Y1724395D02*
X1608317Y1727224D01*
X1578317Y1721567D02*
X1582913Y1722628D01*
X1578317Y1721567D02*
X1579378Y1726163D01*
X1582913Y1722628D01*
X1581145Y1718739D02*
X1583974Y1721567D01*
X1575489Y1724395D02*
X1578317Y1727224D01*
X1548317Y1721567D02*
X1552913Y1722628D01*
X1548317Y1721567D02*
X1549378Y1726163D01*
X1552913Y1722628D01*
X1551145Y1718739D02*
X1553974Y1721567D01*
X1545489Y1724395D02*
X1548317Y1727224D01*
X1518317Y1721567D02*
X1522913Y1722628D01*
X1518317Y1721567D02*
X1519378Y1726163D01*
X1522913Y1722628D01*
X1521145Y1718739D02*
X1523974Y1721567D01*
X1515489Y1724395D02*
X1518317Y1727224D01*
X1488317Y1721567D02*
X1492913Y1722628D01*
X1488317Y1721567D02*
X1489378Y1726163D01*
X1492913Y1722628D01*
X1491145Y1718739D02*
X1493974Y1721567D01*
X1485489Y1724395D02*
X1488317Y1727224D01*
X1458317Y1721567D02*
X1462913Y1722628D01*
X1458317Y1721567D02*
X1459378Y1726163D01*
X1462913Y1722628D01*
X1461145Y1718739D02*
X1463974Y1721567D01*
X1455489Y1724395D02*
X1458317Y1727224D01*
X1428317Y1721567D02*
X1432913Y1722628D01*
X1428317Y1721567D02*
X1429378Y1726163D01*
X1432913Y1722628D01*
X1431145Y1718739D02*
X1433974Y1721567D01*
X1425489Y1724395D02*
X1428317Y1727224D01*
X1398317Y1721567D02*
X1402913Y1722628D01*
X1398317Y1721567D02*
X1399378Y1726163D01*
X1402913Y1722628D01*
X1401145Y1718739D02*
X1403974Y1721567D01*
X1395489Y1724395D02*
X1398317Y1727224D01*
X1368317Y1721567D02*
X1372913Y1722628D01*
X1368317Y1721567D02*
X1369378Y1726163D01*
X1372913Y1722628D01*
X1371145Y1718739D02*
X1373974Y1721567D01*
X1365489Y1724395D02*
X1368317Y1727224D01*
X1338317Y1721567D02*
X1342913Y1722628D01*
X1338317Y1721567D02*
X1339378Y1726163D01*
X1342913Y1722628D01*
X1341145Y1718739D02*
X1343974Y1721567D01*
X1335489Y1724395D02*
X1338317Y1727224D01*
X1308317Y1721567D02*
X1312913Y1722628D01*
X1308317Y1721567D02*
X1309378Y1726163D01*
X1312913Y1722628D01*
X1311145Y1718739D02*
X1313974Y1721567D01*
X1305489Y1724395D02*
X1308317Y1727224D01*
X2448317Y1751567D02*
X2452913Y1752628D01*
X2448317Y1751567D02*
X2449378Y1756163D01*
X2452913Y1752628D01*
X2451145Y1748739D02*
X2453974Y1751567D01*
X2445489Y1754395D02*
X2448317Y1757224D01*
X2418317Y1751567D02*
X2422913Y1752628D01*
X2418317Y1751567D02*
X2419378Y1756163D01*
X2422913Y1752628D01*
X2421145Y1748739D02*
X2423974Y1751567D01*
X2415489Y1754395D02*
X2418317Y1757224D01*
X2388317Y1751567D02*
X2392913Y1752628D01*
X2388317Y1751567D02*
X2389378Y1756163D01*
X2392913Y1752628D01*
X2391145Y1748739D02*
X2393974Y1751567D01*
X2385489Y1754395D02*
X2388317Y1757224D01*
X2358317Y1751567D02*
X2362913Y1752628D01*
X2358317Y1751567D02*
X2359378Y1756163D01*
X2362913Y1752628D01*
X2361145Y1748739D02*
X2363974Y1751567D01*
X2355489Y1754395D02*
X2358317Y1757224D01*
X2328317Y1751567D02*
X2332913Y1752628D01*
X2328317Y1751567D02*
X2329378Y1756163D01*
X2332913Y1752628D01*
X2331145Y1748739D02*
X2333974Y1751567D01*
X2325489Y1754395D02*
X2328317Y1757224D01*
X2298317Y1751567D02*
X2302913Y1752628D01*
X2298317Y1751567D02*
X2299378Y1756163D01*
X2302913Y1752628D01*
X2301145Y1748739D02*
X2303974Y1751567D01*
X2295489Y1754395D02*
X2298317Y1757224D01*
X2268317Y1751567D02*
X2272913Y1752628D01*
X2268317Y1751567D02*
X2269378Y1756163D01*
X2272913Y1752628D01*
X2271145Y1748739D02*
X2273974Y1751567D01*
X2265489Y1754395D02*
X2268317Y1757224D01*
X2238317Y1751567D02*
X2242913Y1752628D01*
X2238317Y1751567D02*
X2239378Y1756163D01*
X2242913Y1752628D01*
X2241145Y1748739D02*
X2243974Y1751567D01*
X2235489Y1754395D02*
X2238317Y1757224D01*
X2208317Y1751567D02*
X2212913Y1752628D01*
X2208317Y1751567D02*
X2209378Y1756163D01*
X2212913Y1752628D01*
X2211145Y1748739D02*
X2213974Y1751567D01*
X2205489Y1754395D02*
X2208317Y1757224D01*
X2178317Y1751567D02*
X2182913Y1752628D01*
X2178317Y1751567D02*
X2179378Y1756163D01*
X2182913Y1752628D01*
X2181145Y1748739D02*
X2183974Y1751567D01*
X2175489Y1754395D02*
X2178317Y1757224D01*
X2148317Y1751567D02*
X2152913Y1752628D01*
X2148317Y1751567D02*
X2149378Y1756163D01*
X2152913Y1752628D01*
X2151145Y1748739D02*
X2153974Y1751567D01*
X2145489Y1754395D02*
X2148317Y1757224D01*
X2118317Y1751567D02*
X2122913Y1752628D01*
X2118317Y1751567D02*
X2119378Y1756163D01*
X2122913Y1752628D01*
X2121145Y1748739D02*
X2123974Y1751567D01*
X2115489Y1754395D02*
X2118317Y1757224D01*
X2088317Y1751567D02*
X2092913Y1752628D01*
X2088317Y1751567D02*
X2089378Y1756163D01*
X2092913Y1752628D01*
X2091145Y1748739D02*
X2093974Y1751567D01*
X2085489Y1754395D02*
X2088317Y1757224D01*
X2058317Y1751567D02*
X2062913Y1752628D01*
X2058317Y1751567D02*
X2059378Y1756163D01*
X2062913Y1752628D01*
X2061145Y1748739D02*
X2063974Y1751567D01*
X2055489Y1754395D02*
X2058317Y1757224D01*
X2028317Y1751567D02*
X2032913Y1752628D01*
X2028317Y1751567D02*
X2029378Y1756163D01*
X2032913Y1752628D01*
X2031145Y1748739D02*
X2033974Y1751567D01*
X2025489Y1754395D02*
X2028317Y1757224D01*
X1998317Y1751567D02*
X2002913Y1752628D01*
X1998317Y1751567D02*
X1999378Y1756163D01*
X2002913Y1752628D01*
X2001145Y1748739D02*
X2003974Y1751567D01*
X1995489Y1754395D02*
X1998317Y1757224D01*
X1968317Y1751567D02*
X1972913Y1752628D01*
X1968317Y1751567D02*
X1969378Y1756163D01*
X1972913Y1752628D01*
X1971145Y1748739D02*
X1973974Y1751567D01*
X1965489Y1754395D02*
X1968317Y1757224D01*
X1938317Y1751567D02*
X1942913Y1752628D01*
X1938317Y1751567D02*
X1939378Y1756163D01*
X1942913Y1752628D01*
X1941145Y1748739D02*
X1943974Y1751567D01*
X1935489Y1754395D02*
X1938317Y1757224D01*
X1908317Y1751567D02*
X1912913Y1752628D01*
X1908317Y1751567D02*
X1909378Y1756163D01*
X1912913Y1752628D01*
X1911145Y1748739D02*
X1913974Y1751567D01*
X1905489Y1754395D02*
X1908317Y1757224D01*
X1878317Y1751567D02*
X1882913Y1752628D01*
X1878317Y1751567D02*
X1879378Y1756163D01*
X1882913Y1752628D01*
X1881145Y1748739D02*
X1883974Y1751567D01*
X1875489Y1754395D02*
X1878317Y1757224D01*
X1848317Y1751567D02*
X1852913Y1752628D01*
X1848317Y1751567D02*
X1849378Y1756163D01*
X1852913Y1752628D01*
X1851145Y1748739D02*
X1853974Y1751567D01*
X1845489Y1754395D02*
X1848317Y1757224D01*
X1818317Y1751567D02*
X1822913Y1752628D01*
X1818317Y1751567D02*
X1819378Y1756163D01*
X1822913Y1752628D01*
X1821145Y1748739D02*
X1823974Y1751567D01*
X1815489Y1754395D02*
X1818317Y1757224D01*
X1788317Y1751567D02*
X1792913Y1752628D01*
X1788317Y1751567D02*
X1789378Y1756163D01*
X1792913Y1752628D01*
X1791145Y1748739D02*
X1793974Y1751567D01*
X1785489Y1754395D02*
X1788317Y1757224D01*
X1758317Y1751567D02*
X1762913Y1752628D01*
X1758317Y1751567D02*
X1759378Y1756163D01*
X1762913Y1752628D01*
X1761145Y1748739D02*
X1763974Y1751567D01*
X1755489Y1754395D02*
X1758317Y1757224D01*
X1728317Y1751567D02*
X1732913Y1752628D01*
X1728317Y1751567D02*
X1729378Y1756163D01*
X1732913Y1752628D01*
X1731145Y1748739D02*
X1733974Y1751567D01*
X1725489Y1754395D02*
X1728317Y1757224D01*
X1698317Y1751567D02*
X1702913Y1752628D01*
X1698317Y1751567D02*
X1699378Y1756163D01*
X1702913Y1752628D01*
X1701145Y1748739D02*
X1703974Y1751567D01*
X1695489Y1754395D02*
X1698317Y1757224D01*
X1668317Y1751567D02*
X1672913Y1752628D01*
X1668317Y1751567D02*
X1669378Y1756163D01*
X1672913Y1752628D01*
X1671145Y1748739D02*
X1673974Y1751567D01*
X1665489Y1754395D02*
X1668317Y1757224D01*
X1638317Y1751567D02*
X1642913Y1752628D01*
X1638317Y1751567D02*
X1639378Y1756163D01*
X1642913Y1752628D01*
X1641145Y1748739D02*
X1643974Y1751567D01*
X1635489Y1754395D02*
X1638317Y1757224D01*
X1608317Y1751567D02*
X1612913Y1752628D01*
X1608317Y1751567D02*
X1609378Y1756163D01*
X1612913Y1752628D01*
X1611145Y1748739D02*
X1613974Y1751567D01*
X1605489Y1754395D02*
X1608317Y1757224D01*
X1578317Y1751567D02*
X1582913Y1752628D01*
X1578317Y1751567D02*
X1579378Y1756163D01*
X1582913Y1752628D01*
X1581145Y1748739D02*
X1583974Y1751567D01*
X1575489Y1754395D02*
X1578317Y1757224D01*
X1548317Y1751567D02*
X1552913Y1752628D01*
X1548317Y1751567D02*
X1549378Y1756163D01*
X1552913Y1752628D01*
X1551145Y1748739D02*
X1553974Y1751567D01*
X1545489Y1754395D02*
X1548317Y1757224D01*
X1518317Y1751567D02*
X1522913Y1752628D01*
X1518317Y1751567D02*
X1519378Y1756163D01*
X1522913Y1752628D01*
X1521145Y1748739D02*
X1523974Y1751567D01*
X1515489Y1754395D02*
X1518317Y1757224D01*
X1488317Y1751567D02*
X1492913Y1752628D01*
X1488317Y1751567D02*
X1489378Y1756163D01*
X1492913Y1752628D01*
X1491145Y1748739D02*
X1493974Y1751567D01*
X1485489Y1754395D02*
X1488317Y1757224D01*
X1458317Y1751567D02*
X1462913Y1752628D01*
X1458317Y1751567D02*
X1459378Y1756163D01*
X1462913Y1752628D01*
X1461145Y1748739D02*
X1463974Y1751567D01*
X1455489Y1754395D02*
X1458317Y1757224D01*
X1428317Y1751567D02*
X1432913Y1752628D01*
X1428317Y1751567D02*
X1429378Y1756163D01*
X1432913Y1752628D01*
X1431145Y1748739D02*
X1433974Y1751567D01*
X1425489Y1754395D02*
X1428317Y1757224D01*
X1398317Y1751567D02*
X1402913Y1752628D01*
X1398317Y1751567D02*
X1399378Y1756163D01*
X1402913Y1752628D01*
X1401145Y1748739D02*
X1403974Y1751567D01*
X1395489Y1754395D02*
X1398317Y1757224D01*
X1368317Y1751567D02*
X1372913Y1752628D01*
X1368317Y1751567D02*
X1369378Y1756163D01*
X1372913Y1752628D01*
X1371145Y1748739D02*
X1373974Y1751567D01*
X1365489Y1754395D02*
X1368317Y1757224D01*
X1338317Y1751567D02*
X1342913Y1752628D01*
X1338317Y1751567D02*
X1339378Y1756163D01*
X1342913Y1752628D01*
X1341145Y1748739D02*
X1343974Y1751567D01*
X1335489Y1754395D02*
X1338317Y1757224D01*
X1308317Y1751567D02*
X1312913Y1752628D01*
X1308317Y1751567D02*
X1309378Y1756163D01*
X1312913Y1752628D01*
X1311145Y1748739D02*
X1313974Y1751567D01*
X1305489Y1754395D02*
X1308317Y1757224D01*
X2448317Y1781567D02*
X2452913Y1782628D01*
X2448317Y1781567D02*
X2449378Y1786163D01*
X2452913Y1782628D01*
X2451145Y1778739D02*
X2453974Y1781567D01*
X2445489Y1784395D02*
X2448317Y1787224D01*
X2418317Y1781567D02*
X2422913Y1782628D01*
X2418317Y1781567D02*
X2419378Y1786163D01*
X2422913Y1782628D01*
X2421145Y1778739D02*
X2423974Y1781567D01*
X2415489Y1784395D02*
X2418317Y1787224D01*
X2388317Y1781567D02*
X2392913Y1782628D01*
X2388317Y1781567D02*
X2389378Y1786163D01*
X2392913Y1782628D01*
X2391145Y1778739D02*
X2393974Y1781567D01*
X2385489Y1784395D02*
X2388317Y1787224D01*
X2358317Y1781567D02*
X2362913Y1782628D01*
X2358317Y1781567D02*
X2359378Y1786163D01*
X2362913Y1782628D01*
X2361145Y1778739D02*
X2363974Y1781567D01*
X2355489Y1784395D02*
X2358317Y1787224D01*
X2328317Y1781567D02*
X2332913Y1782628D01*
X2328317Y1781567D02*
X2329378Y1786163D01*
X2332913Y1782628D01*
X2331145Y1778739D02*
X2333974Y1781567D01*
X2325489Y1784395D02*
X2328317Y1787224D01*
X2298317Y1781567D02*
X2302913Y1782628D01*
X2298317Y1781567D02*
X2299378Y1786163D01*
X2302913Y1782628D01*
X2301145Y1778739D02*
X2303974Y1781567D01*
X2295489Y1784395D02*
X2298317Y1787224D01*
X2268317Y1781567D02*
X2272913Y1782628D01*
X2268317Y1781567D02*
X2269378Y1786163D01*
X2272913Y1782628D01*
X2271145Y1778739D02*
X2273974Y1781567D01*
X2265489Y1784395D02*
X2268317Y1787224D01*
X2238317Y1781567D02*
X2242913Y1782628D01*
X2238317Y1781567D02*
X2239378Y1786163D01*
X2242913Y1782628D01*
X2241145Y1778739D02*
X2243974Y1781567D01*
X2235489Y1784395D02*
X2238317Y1787224D01*
X2208317Y1781567D02*
X2212913Y1782628D01*
X2208317Y1781567D02*
X2209378Y1786163D01*
X2212913Y1782628D01*
X2211145Y1778739D02*
X2213974Y1781567D01*
X2205489Y1784395D02*
X2208317Y1787224D01*
X2178317Y1781567D02*
X2182913Y1782628D01*
X2178317Y1781567D02*
X2179378Y1786163D01*
X2182913Y1782628D01*
X2181145Y1778739D02*
X2183974Y1781567D01*
X2175489Y1784395D02*
X2178317Y1787224D01*
X2148317Y1781567D02*
X2152913Y1782628D01*
X2148317Y1781567D02*
X2149378Y1786163D01*
X2152913Y1782628D01*
X2151145Y1778739D02*
X2153974Y1781567D01*
X2145489Y1784395D02*
X2148317Y1787224D01*
X2118317Y1781567D02*
X2122913Y1782628D01*
X2118317Y1781567D02*
X2119378Y1786163D01*
X2122913Y1782628D01*
X2121145Y1778739D02*
X2123974Y1781567D01*
X2115489Y1784395D02*
X2118317Y1787224D01*
X2088317Y1781567D02*
X2092913Y1782628D01*
X2088317Y1781567D02*
X2089378Y1786163D01*
X2092913Y1782628D01*
X2091145Y1778739D02*
X2093974Y1781567D01*
X2085489Y1784395D02*
X2088317Y1787224D01*
X2058317Y1781567D02*
X2062913Y1782628D01*
X2058317Y1781567D02*
X2059378Y1786163D01*
X2062913Y1782628D01*
X2061145Y1778739D02*
X2063974Y1781567D01*
X2055489Y1784395D02*
X2058317Y1787224D01*
X2028317Y1781567D02*
X2032913Y1782628D01*
X2028317Y1781567D02*
X2029378Y1786163D01*
X2032913Y1782628D01*
X2031145Y1778739D02*
X2033974Y1781567D01*
X2025489Y1784395D02*
X2028317Y1787224D01*
X1998317Y1781567D02*
X2002913Y1782628D01*
X1998317Y1781567D02*
X1999378Y1786163D01*
X2002913Y1782628D01*
X2001145Y1778739D02*
X2003974Y1781567D01*
X1995489Y1784395D02*
X1998317Y1787224D01*
X1968317Y1781567D02*
X1972913Y1782628D01*
X1968317Y1781567D02*
X1969378Y1786163D01*
X1972913Y1782628D01*
X1971145Y1778739D02*
X1973974Y1781567D01*
X1965489Y1784395D02*
X1968317Y1787224D01*
X1938317Y1781567D02*
X1942913Y1782628D01*
X1938317Y1781567D02*
X1939378Y1786163D01*
X1942913Y1782628D01*
X1941145Y1778739D02*
X1943974Y1781567D01*
X1935489Y1784395D02*
X1938317Y1787224D01*
X1908317Y1781567D02*
X1912913Y1782628D01*
X1908317Y1781567D02*
X1909378Y1786163D01*
X1912913Y1782628D01*
X1911145Y1778739D02*
X1913974Y1781567D01*
X1905489Y1784395D02*
X1908317Y1787224D01*
X1878317Y1781567D02*
X1882913Y1782628D01*
X1878317Y1781567D02*
X1879378Y1786163D01*
X1882913Y1782628D01*
X1881145Y1778739D02*
X1883974Y1781567D01*
X1875489Y1784395D02*
X1878317Y1787224D01*
X1848317Y1781567D02*
X1852913Y1782628D01*
X1848317Y1781567D02*
X1849378Y1786163D01*
X1852913Y1782628D01*
X1851145Y1778739D02*
X1853974Y1781567D01*
X1845489Y1784395D02*
X1848317Y1787224D01*
X1818317Y1781567D02*
X1822913Y1782628D01*
X1818317Y1781567D02*
X1819378Y1786163D01*
X1822913Y1782628D01*
X1821145Y1778739D02*
X1823974Y1781567D01*
X1815489Y1784395D02*
X1818317Y1787224D01*
X1788317Y1781567D02*
X1792913Y1782628D01*
X1788317Y1781567D02*
X1789378Y1786163D01*
X1792913Y1782628D01*
X1791145Y1778739D02*
X1793974Y1781567D01*
X1785489Y1784395D02*
X1788317Y1787224D01*
X1758317Y1781567D02*
X1762913Y1782628D01*
X1758317Y1781567D02*
X1759378Y1786163D01*
X1762913Y1782628D01*
X1761145Y1778739D02*
X1763974Y1781567D01*
X1755489Y1784395D02*
X1758317Y1787224D01*
X1728317Y1781567D02*
X1732913Y1782628D01*
X1728317Y1781567D02*
X1729378Y1786163D01*
X1732913Y1782628D01*
X1731145Y1778739D02*
X1733974Y1781567D01*
X1725489Y1784395D02*
X1728317Y1787224D01*
X1698317Y1781567D02*
X1702913Y1782628D01*
X1698317Y1781567D02*
X1699378Y1786163D01*
X1702913Y1782628D01*
X1701145Y1778739D02*
X1703974Y1781567D01*
X1695489Y1784395D02*
X1698317Y1787224D01*
X1668317Y1781567D02*
X1672913Y1782628D01*
X1668317Y1781567D02*
X1669378Y1786163D01*
X1672913Y1782628D01*
X1671145Y1778739D02*
X1673974Y1781567D01*
X1665489Y1784395D02*
X1668317Y1787224D01*
X1638317Y1781567D02*
X1642913Y1782628D01*
X1638317Y1781567D02*
X1639378Y1786163D01*
X1642913Y1782628D01*
X1641145Y1778739D02*
X1643974Y1781567D01*
X1635489Y1784395D02*
X1638317Y1787224D01*
X1608317Y1781567D02*
X1612913Y1782628D01*
X1608317Y1781567D02*
X1609378Y1786163D01*
X1612913Y1782628D01*
X1611145Y1778739D02*
X1613974Y1781567D01*
X1605489Y1784395D02*
X1608317Y1787224D01*
X1578317Y1781567D02*
X1582913Y1782628D01*
X1578317Y1781567D02*
X1579378Y1786163D01*
X1582913Y1782628D01*
X1581145Y1778739D02*
X1583974Y1781567D01*
X1575489Y1784395D02*
X1578317Y1787224D01*
X1548317Y1781567D02*
X1552913Y1782628D01*
X1548317Y1781567D02*
X1549378Y1786163D01*
X1552913Y1782628D01*
X1551145Y1778739D02*
X1553974Y1781567D01*
X1545489Y1784395D02*
X1548317Y1787224D01*
X1518317Y1781567D02*
X1522913Y1782628D01*
X1518317Y1781567D02*
X1519378Y1786163D01*
X1522913Y1782628D01*
X1521145Y1778739D02*
X1523974Y1781567D01*
X1515489Y1784395D02*
X1518317Y1787224D01*
X1488317Y1781567D02*
X1492913Y1782628D01*
X1488317Y1781567D02*
X1489378Y1786163D01*
X1492913Y1782628D01*
X1491145Y1778739D02*
X1493974Y1781567D01*
X1485489Y1784395D02*
X1488317Y1787224D01*
X1458317Y1781567D02*
X1462913Y1782628D01*
X1458317Y1781567D02*
X1459378Y1786163D01*
X1462913Y1782628D01*
X1461145Y1778739D02*
X1463974Y1781567D01*
X1455489Y1784395D02*
X1458317Y1787224D01*
X1428317Y1781567D02*
X1432913Y1782628D01*
X1428317Y1781567D02*
X1429378Y1786163D01*
X1432913Y1782628D01*
X1431145Y1778739D02*
X1433974Y1781567D01*
X1425489Y1784395D02*
X1428317Y1787224D01*
X1398317Y1781567D02*
X1402913Y1782628D01*
X1398317Y1781567D02*
X1399378Y1786163D01*
X1402913Y1782628D01*
X1401145Y1778739D02*
X1403974Y1781567D01*
X1395489Y1784395D02*
X1398317Y1787224D01*
X1368317Y1781567D02*
X1372913Y1782628D01*
X1368317Y1781567D02*
X1369378Y1786163D01*
X1372913Y1782628D01*
X1371145Y1778739D02*
X1373974Y1781567D01*
X1365489Y1784395D02*
X1368317Y1787224D01*
X1338317Y1781567D02*
X1342913Y1782628D01*
X1338317Y1781567D02*
X1339378Y1786163D01*
X1342913Y1782628D01*
X1341145Y1778739D02*
X1343974Y1781567D01*
X1335489Y1784395D02*
X1338317Y1787224D01*
X1308317Y1781567D02*
X1312913Y1782628D01*
X1308317Y1781567D02*
X1309378Y1786163D01*
X1312913Y1782628D01*
X1311145Y1778739D02*
X1313974Y1781567D01*
X1305489Y1784395D02*
X1308317Y1787224D01*
X2448317Y1811567D02*
X2452913Y1812628D01*
X2448317Y1811567D02*
X2449378Y1816163D01*
X2452913Y1812628D01*
X2451145Y1808739D02*
X2453974Y1811567D01*
X2445489Y1814395D02*
X2448317Y1817224D01*
X2418317Y1811567D02*
X2422913Y1812628D01*
X2418317Y1811567D02*
X2419378Y1816163D01*
X2422913Y1812628D01*
X2421145Y1808739D02*
X2423974Y1811567D01*
X2415489Y1814395D02*
X2418317Y1817224D01*
X2388317Y1811567D02*
X2392913Y1812628D01*
X2388317Y1811567D02*
X2389378Y1816163D01*
X2392913Y1812628D01*
X2391145Y1808739D02*
X2393974Y1811567D01*
X2385489Y1814395D02*
X2388317Y1817224D01*
X2358317Y1811567D02*
X2362913Y1812628D01*
X2358317Y1811567D02*
X2359378Y1816163D01*
X2362913Y1812628D01*
X2361145Y1808739D02*
X2363974Y1811567D01*
X2355489Y1814395D02*
X2358317Y1817224D01*
X2328317Y1811567D02*
X2332913Y1812628D01*
X2328317Y1811567D02*
X2329378Y1816163D01*
X2332913Y1812628D01*
X2331145Y1808739D02*
X2333974Y1811567D01*
X2325489Y1814395D02*
X2328317Y1817224D01*
X2298317Y1811567D02*
X2302913Y1812628D01*
X2298317Y1811567D02*
X2299378Y1816163D01*
X2302913Y1812628D01*
X2301145Y1808739D02*
X2303974Y1811567D01*
X2295489Y1814395D02*
X2298317Y1817224D01*
X2268317Y1811567D02*
X2272913Y1812628D01*
X2268317Y1811567D02*
X2269378Y1816163D01*
X2272913Y1812628D01*
X2271145Y1808739D02*
X2273974Y1811567D01*
X2265489Y1814395D02*
X2268317Y1817224D01*
X2238317Y1811567D02*
X2242913Y1812628D01*
X2238317Y1811567D02*
X2239378Y1816163D01*
X2242913Y1812628D01*
X2241145Y1808739D02*
X2243974Y1811567D01*
X2235489Y1814395D02*
X2238317Y1817224D01*
X2208317Y1811567D02*
X2212913Y1812628D01*
X2208317Y1811567D02*
X2209378Y1816163D01*
X2212913Y1812628D01*
X2211145Y1808739D02*
X2213974Y1811567D01*
X2205489Y1814395D02*
X2208317Y1817224D01*
X2178317Y1811567D02*
X2182913Y1812628D01*
X2178317Y1811567D02*
X2179378Y1816163D01*
X2182913Y1812628D01*
X2181145Y1808739D02*
X2183974Y1811567D01*
X2175489Y1814395D02*
X2178317Y1817224D01*
X2148317Y1811567D02*
X2152913Y1812628D01*
X2148317Y1811567D02*
X2149378Y1816163D01*
X2152913Y1812628D01*
X2151145Y1808739D02*
X2153974Y1811567D01*
X2145489Y1814395D02*
X2148317Y1817224D01*
X2118317Y1811567D02*
X2122913Y1812628D01*
X2118317Y1811567D02*
X2119378Y1816163D01*
X2122913Y1812628D01*
X2121145Y1808739D02*
X2123974Y1811567D01*
X2115489Y1814395D02*
X2118317Y1817224D01*
X2088317Y1811567D02*
X2092913Y1812628D01*
X2088317Y1811567D02*
X2089378Y1816163D01*
X2092913Y1812628D01*
X2091145Y1808739D02*
X2093974Y1811567D01*
X2085489Y1814395D02*
X2088317Y1817224D01*
X2058317Y1811567D02*
X2062913Y1812628D01*
X2058317Y1811567D02*
X2059378Y1816163D01*
X2062913Y1812628D01*
X2061145Y1808739D02*
X2063974Y1811567D01*
X2055489Y1814395D02*
X2058317Y1817224D01*
X2028317Y1811567D02*
X2032913Y1812628D01*
X2028317Y1811567D02*
X2029378Y1816163D01*
X2032913Y1812628D01*
X2031145Y1808739D02*
X2033974Y1811567D01*
X2025489Y1814395D02*
X2028317Y1817224D01*
X1998317Y1811567D02*
X2002913Y1812628D01*
X1998317Y1811567D02*
X1999378Y1816163D01*
X2002913Y1812628D01*
X2001145Y1808739D02*
X2003974Y1811567D01*
X1995489Y1814395D02*
X1998317Y1817224D01*
X1968317Y1811567D02*
X1972913Y1812628D01*
X1968317Y1811567D02*
X1969378Y1816163D01*
X1972913Y1812628D01*
X1971145Y1808739D02*
X1973974Y1811567D01*
X1965489Y1814395D02*
X1968317Y1817224D01*
X1938317Y1811567D02*
X1942913Y1812628D01*
X1938317Y1811567D02*
X1939378Y1816163D01*
X1942913Y1812628D01*
X1941145Y1808739D02*
X1943974Y1811567D01*
X1935489Y1814395D02*
X1938317Y1817224D01*
X1908317Y1811567D02*
X1912913Y1812628D01*
X1908317Y1811567D02*
X1909378Y1816163D01*
X1912913Y1812628D01*
X1911145Y1808739D02*
X1913974Y1811567D01*
X1905489Y1814395D02*
X1908317Y1817224D01*
X1878317Y1811567D02*
X1882913Y1812628D01*
X1878317Y1811567D02*
X1879378Y1816163D01*
X1882913Y1812628D01*
X1881145Y1808739D02*
X1883974Y1811567D01*
X1875489Y1814395D02*
X1878317Y1817224D01*
X1848317Y1811567D02*
X1852913Y1812628D01*
X1848317Y1811567D02*
X1849378Y1816163D01*
X1852913Y1812628D01*
X1851145Y1808739D02*
X1853974Y1811567D01*
X1845489Y1814395D02*
X1848317Y1817224D01*
X1818317Y1811567D02*
X1822913Y1812628D01*
X1818317Y1811567D02*
X1819378Y1816163D01*
X1822913Y1812628D01*
X1821145Y1808739D02*
X1823974Y1811567D01*
X1815489Y1814395D02*
X1818317Y1817224D01*
X1788317Y1811567D02*
X1792913Y1812628D01*
X1788317Y1811567D02*
X1789378Y1816163D01*
X1792913Y1812628D01*
X1791145Y1808739D02*
X1793974Y1811567D01*
X1785489Y1814395D02*
X1788317Y1817224D01*
X1758317Y1811567D02*
X1762913Y1812628D01*
X1758317Y1811567D02*
X1759378Y1816163D01*
X1762913Y1812628D01*
X1761145Y1808739D02*
X1763974Y1811567D01*
X1755489Y1814395D02*
X1758317Y1817224D01*
X1728317Y1811567D02*
X1732913Y1812628D01*
X1728317Y1811567D02*
X1729378Y1816163D01*
X1732913Y1812628D01*
X1731145Y1808739D02*
X1733974Y1811567D01*
X1725489Y1814395D02*
X1728317Y1817224D01*
X1698317Y1811567D02*
X1702913Y1812628D01*
X1698317Y1811567D02*
X1699378Y1816163D01*
X1702913Y1812628D01*
X1701145Y1808739D02*
X1703974Y1811567D01*
X1695489Y1814395D02*
X1698317Y1817224D01*
X1668317Y1811567D02*
X1672913Y1812628D01*
X1668317Y1811567D02*
X1669378Y1816163D01*
X1672913Y1812628D01*
X1671145Y1808739D02*
X1673974Y1811567D01*
X1665489Y1814395D02*
X1668317Y1817224D01*
X1638317Y1811567D02*
X1642913Y1812628D01*
X1638317Y1811567D02*
X1639378Y1816163D01*
X1642913Y1812628D01*
X1641145Y1808739D02*
X1643974Y1811567D01*
X1635489Y1814395D02*
X1638317Y1817224D01*
X1608317Y1811567D02*
X1612913Y1812628D01*
X1608317Y1811567D02*
X1609378Y1816163D01*
X1612913Y1812628D01*
X1611145Y1808739D02*
X1613974Y1811567D01*
X1605489Y1814395D02*
X1608317Y1817224D01*
X1578317Y1811567D02*
X1582913Y1812628D01*
X1578317Y1811567D02*
X1579378Y1816163D01*
X1582913Y1812628D01*
X1581145Y1808739D02*
X1583974Y1811567D01*
X1575489Y1814395D02*
X1578317Y1817224D01*
X1548317Y1811567D02*
X1552913Y1812628D01*
X1548317Y1811567D02*
X1549378Y1816163D01*
X1552913Y1812628D01*
X1551145Y1808739D02*
X1553974Y1811567D01*
X1545489Y1814395D02*
X1548317Y1817224D01*
X1518317Y1811567D02*
X1522913Y1812628D01*
X1518317Y1811567D02*
X1519378Y1816163D01*
X1522913Y1812628D01*
X1521145Y1808739D02*
X1523974Y1811567D01*
X1515489Y1814395D02*
X1518317Y1817224D01*
X1488317Y1811567D02*
X1492913Y1812628D01*
X1488317Y1811567D02*
X1489378Y1816163D01*
X1492913Y1812628D01*
X1491145Y1808739D02*
X1493974Y1811567D01*
X1485489Y1814395D02*
X1488317Y1817224D01*
X1458317Y1811567D02*
X1462913Y1812628D01*
X1458317Y1811567D02*
X1459378Y1816163D01*
X1462913Y1812628D01*
X1461145Y1808739D02*
X1463974Y1811567D01*
X1455489Y1814395D02*
X1458317Y1817224D01*
X1428317Y1811567D02*
X1432913Y1812628D01*
X1428317Y1811567D02*
X1429378Y1816163D01*
X1432913Y1812628D01*
X1431145Y1808739D02*
X1433974Y1811567D01*
X1425489Y1814395D02*
X1428317Y1817224D01*
X1398317Y1811567D02*
X1402913Y1812628D01*
X1398317Y1811567D02*
X1399378Y1816163D01*
X1402913Y1812628D01*
X1401145Y1808739D02*
X1403974Y1811567D01*
X1395489Y1814395D02*
X1398317Y1817224D01*
X1368317Y1811567D02*
X1372913Y1812628D01*
X1368317Y1811567D02*
X1369378Y1816163D01*
X1372913Y1812628D01*
X1371145Y1808739D02*
X1373974Y1811567D01*
X1365489Y1814395D02*
X1368317Y1817224D01*
X1338317Y1811567D02*
X1342913Y1812628D01*
X1338317Y1811567D02*
X1339378Y1816163D01*
X1342913Y1812628D01*
X1341145Y1808739D02*
X1343974Y1811567D01*
X1335489Y1814395D02*
X1338317Y1817224D01*
X1308317Y1811567D02*
X1312913Y1812628D01*
X1308317Y1811567D02*
X1309378Y1816163D01*
X1312913Y1812628D01*
X1311145Y1808739D02*
X1313974Y1811567D01*
X1305489Y1814395D02*
X1308317Y1817224D01*
X2448317Y1841567D02*
X2452913Y1842628D01*
X2448317Y1841567D02*
X2449378Y1846163D01*
X2452913Y1842628D01*
X2451145Y1838739D02*
X2453974Y1841567D01*
X2445489Y1844395D02*
X2448317Y1847224D01*
X2418317Y1841567D02*
X2422913Y1842628D01*
X2418317Y1841567D02*
X2419378Y1846163D01*
X2422913Y1842628D01*
X2421145Y1838739D02*
X2423974Y1841567D01*
X2415489Y1844395D02*
X2418317Y1847224D01*
X2388317Y1841567D02*
X2392913Y1842628D01*
X2388317Y1841567D02*
X2389378Y1846163D01*
X2392913Y1842628D01*
X2391145Y1838739D02*
X2393974Y1841567D01*
X2385489Y1844395D02*
X2388317Y1847224D01*
X2358317Y1841567D02*
X2362913Y1842628D01*
X2358317Y1841567D02*
X2359378Y1846163D01*
X2362913Y1842628D01*
X2361145Y1838739D02*
X2363974Y1841567D01*
X2355489Y1844395D02*
X2358317Y1847224D01*
X2328317Y1841567D02*
X2332913Y1842628D01*
X2328317Y1841567D02*
X2329378Y1846163D01*
X2332913Y1842628D01*
X2331145Y1838739D02*
X2333974Y1841567D01*
X2325489Y1844395D02*
X2328317Y1847224D01*
X2298317Y1841567D02*
X2302913Y1842628D01*
X2298317Y1841567D02*
X2299378Y1846163D01*
X2302913Y1842628D01*
X2301145Y1838739D02*
X2303974Y1841567D01*
X2295489Y1844395D02*
X2298317Y1847224D01*
X2268317Y1841567D02*
X2272913Y1842628D01*
X2268317Y1841567D02*
X2269378Y1846163D01*
X2272913Y1842628D01*
X2271145Y1838739D02*
X2273974Y1841567D01*
X2265489Y1844395D02*
X2268317Y1847224D01*
X2238317Y1841567D02*
X2242913Y1842628D01*
X2238317Y1841567D02*
X2239378Y1846163D01*
X2242913Y1842628D01*
X2241145Y1838739D02*
X2243974Y1841567D01*
X2235489Y1844395D02*
X2238317Y1847224D01*
X2208317Y1841567D02*
X2212913Y1842628D01*
X2208317Y1841567D02*
X2209378Y1846163D01*
X2212913Y1842628D01*
X2211145Y1838739D02*
X2213974Y1841567D01*
X2205489Y1844395D02*
X2208317Y1847224D01*
X2178317Y1841567D02*
X2182913Y1842628D01*
X2178317Y1841567D02*
X2179378Y1846163D01*
X2182913Y1842628D01*
X2181145Y1838739D02*
X2183974Y1841567D01*
X2175489Y1844395D02*
X2178317Y1847224D01*
X2148317Y1841567D02*
X2152913Y1842628D01*
X2148317Y1841567D02*
X2149378Y1846163D01*
X2152913Y1842628D01*
X2151145Y1838739D02*
X2153974Y1841567D01*
X2145489Y1844395D02*
X2148317Y1847224D01*
X2118317Y1841567D02*
X2122913Y1842628D01*
X2118317Y1841567D02*
X2119378Y1846163D01*
X2122913Y1842628D01*
X2121145Y1838739D02*
X2123974Y1841567D01*
X2115489Y1844395D02*
X2118317Y1847224D01*
X2088317Y1841567D02*
X2092913Y1842628D01*
X2088317Y1841567D02*
X2089378Y1846163D01*
X2092913Y1842628D01*
X2091145Y1838739D02*
X2093974Y1841567D01*
X2085489Y1844395D02*
X2088317Y1847224D01*
X2058317Y1841567D02*
X2062913Y1842628D01*
X2058317Y1841567D02*
X2059378Y1846163D01*
X2062913Y1842628D01*
X2061145Y1838739D02*
X2063974Y1841567D01*
X2055489Y1844395D02*
X2058317Y1847224D01*
X2028317Y1841567D02*
X2032913Y1842628D01*
X2028317Y1841567D02*
X2029378Y1846163D01*
X2032913Y1842628D01*
X2031145Y1838739D02*
X2033974Y1841567D01*
X2025489Y1844395D02*
X2028317Y1847224D01*
X1998317Y1841567D02*
X2002913Y1842628D01*
X1998317Y1841567D02*
X1999378Y1846163D01*
X2002913Y1842628D01*
X2001145Y1838739D02*
X2003974Y1841567D01*
X1995489Y1844395D02*
X1998317Y1847224D01*
X1968317Y1841567D02*
X1972913Y1842628D01*
X1968317Y1841567D02*
X1969378Y1846163D01*
X1972913Y1842628D01*
X1971145Y1838739D02*
X1973974Y1841567D01*
X1965489Y1844395D02*
X1968317Y1847224D01*
X1938317Y1841567D02*
X1942913Y1842628D01*
X1938317Y1841567D02*
X1939378Y1846163D01*
X1942913Y1842628D01*
X1941145Y1838739D02*
X1943974Y1841567D01*
X1935489Y1844395D02*
X1938317Y1847224D01*
X1908317Y1841567D02*
X1912913Y1842628D01*
X1908317Y1841567D02*
X1909378Y1846163D01*
X1912913Y1842628D01*
X1911145Y1838739D02*
X1913974Y1841567D01*
X1905489Y1844395D02*
X1908317Y1847224D01*
X1878317Y1841567D02*
X1882913Y1842628D01*
X1878317Y1841567D02*
X1879378Y1846163D01*
X1882913Y1842628D01*
X1881145Y1838739D02*
X1883974Y1841567D01*
X1875489Y1844395D02*
X1878317Y1847224D01*
X1848317Y1841567D02*
X1852913Y1842628D01*
X1848317Y1841567D02*
X1849378Y1846163D01*
X1852913Y1842628D01*
X1851145Y1838739D02*
X1853974Y1841567D01*
X1845489Y1844395D02*
X1848317Y1847224D01*
X1818317Y1841567D02*
X1822913Y1842628D01*
X1818317Y1841567D02*
X1819378Y1846163D01*
X1822913Y1842628D01*
X1821145Y1838739D02*
X1823974Y1841567D01*
X1815489Y1844395D02*
X1818317Y1847224D01*
X1788317Y1841567D02*
X1792913Y1842628D01*
X1788317Y1841567D02*
X1789378Y1846163D01*
X1792913Y1842628D01*
X1791145Y1838739D02*
X1793974Y1841567D01*
X1785489Y1844395D02*
X1788317Y1847224D01*
X1758317Y1841567D02*
X1762913Y1842628D01*
X1758317Y1841567D02*
X1759378Y1846163D01*
X1762913Y1842628D01*
X1761145Y1838739D02*
X1763974Y1841567D01*
X1755489Y1844395D02*
X1758317Y1847224D01*
X1728317Y1841567D02*
X1732913Y1842628D01*
X1728317Y1841567D02*
X1729378Y1846163D01*
X1732913Y1842628D01*
X1731145Y1838739D02*
X1733974Y1841567D01*
X1725489Y1844395D02*
X1728317Y1847224D01*
X1698317Y1841567D02*
X1702913Y1842628D01*
X1698317Y1841567D02*
X1699378Y1846163D01*
X1702913Y1842628D01*
X1701145Y1838739D02*
X1703974Y1841567D01*
X1695489Y1844395D02*
X1698317Y1847224D01*
X1668317Y1841567D02*
X1672913Y1842628D01*
X1668317Y1841567D02*
X1669378Y1846163D01*
X1672913Y1842628D01*
X1671145Y1838739D02*
X1673974Y1841567D01*
X1665489Y1844395D02*
X1668317Y1847224D01*
X1638317Y1841567D02*
X1642913Y1842628D01*
X1638317Y1841567D02*
X1639378Y1846163D01*
X1642913Y1842628D01*
X1641145Y1838739D02*
X1643974Y1841567D01*
X1635489Y1844395D02*
X1638317Y1847224D01*
X1608317Y1841567D02*
X1612913Y1842628D01*
X1608317Y1841567D02*
X1609378Y1846163D01*
X1612913Y1842628D01*
X1611145Y1838739D02*
X1613974Y1841567D01*
X1605489Y1844395D02*
X1608317Y1847224D01*
X1578317Y1841567D02*
X1582913Y1842628D01*
X1578317Y1841567D02*
X1579378Y1846163D01*
X1582913Y1842628D01*
X1581145Y1838739D02*
X1583974Y1841567D01*
X1575489Y1844395D02*
X1578317Y1847224D01*
X1548317Y1841567D02*
X1552913Y1842628D01*
X1548317Y1841567D02*
X1549378Y1846163D01*
X1552913Y1842628D01*
X1551145Y1838739D02*
X1553974Y1841567D01*
X1545489Y1844395D02*
X1548317Y1847224D01*
X1518317Y1841567D02*
X1522913Y1842628D01*
X1518317Y1841567D02*
X1519378Y1846163D01*
X1522913Y1842628D01*
X1521145Y1838739D02*
X1523974Y1841567D01*
X1515489Y1844395D02*
X1518317Y1847224D01*
X1488317Y1841567D02*
X1492913Y1842628D01*
X1488317Y1841567D02*
X1489378Y1846163D01*
X1492913Y1842628D01*
X1491145Y1838739D02*
X1493974Y1841567D01*
X1485489Y1844395D02*
X1488317Y1847224D01*
X1458317Y1841567D02*
X1462913Y1842628D01*
X1458317Y1841567D02*
X1459378Y1846163D01*
X1462913Y1842628D01*
X1461145Y1838739D02*
X1463974Y1841567D01*
X1455489Y1844395D02*
X1458317Y1847224D01*
X1428317Y1841567D02*
X1432913Y1842628D01*
X1428317Y1841567D02*
X1429378Y1846163D01*
X1432913Y1842628D01*
X1431145Y1838739D02*
X1433974Y1841567D01*
X1425489Y1844395D02*
X1428317Y1847224D01*
X1398317Y1841567D02*
X1402913Y1842628D01*
X1398317Y1841567D02*
X1399378Y1846163D01*
X1402913Y1842628D01*
X1401145Y1838739D02*
X1403974Y1841567D01*
X1395489Y1844395D02*
X1398317Y1847224D01*
X1368317Y1841567D02*
X1372913Y1842628D01*
X1368317Y1841567D02*
X1369378Y1846163D01*
X1372913Y1842628D01*
X1371145Y1838739D02*
X1373974Y1841567D01*
X1365489Y1844395D02*
X1368317Y1847224D01*
X1338317Y1841567D02*
X1342913Y1842628D01*
X1338317Y1841567D02*
X1339378Y1846163D01*
X1342913Y1842628D01*
X1341145Y1838739D02*
X1343974Y1841567D01*
X1335489Y1844395D02*
X1338317Y1847224D01*
X1308317Y1841567D02*
X1312913Y1842628D01*
X1308317Y1841567D02*
X1309378Y1846163D01*
X1312913Y1842628D01*
X1311145Y1838739D02*
X1313974Y1841567D01*
X1305489Y1844395D02*
X1308317Y1847224D01*
X2448317Y1871567D02*
X2452913Y1872628D01*
X2448317Y1871567D02*
X2449378Y1876163D01*
X2452913Y1872628D01*
X2451145Y1868739D02*
X2453974Y1871567D01*
X2445489Y1874395D02*
X2448317Y1877224D01*
X2418317Y1871567D02*
X2422913Y1872628D01*
X2418317Y1871567D02*
X2419378Y1876163D01*
X2422913Y1872628D01*
X2421145Y1868739D02*
X2423974Y1871567D01*
X2415489Y1874395D02*
X2418317Y1877224D01*
X2388317Y1871567D02*
X2392913Y1872628D01*
X2388317Y1871567D02*
X2389378Y1876163D01*
X2392913Y1872628D01*
X2391145Y1868739D02*
X2393974Y1871567D01*
X2385489Y1874395D02*
X2388317Y1877224D01*
X2358317Y1871567D02*
X2362913Y1872628D01*
X2358317Y1871567D02*
X2359378Y1876163D01*
X2362913Y1872628D01*
X2361145Y1868739D02*
X2363974Y1871567D01*
X2355489Y1874395D02*
X2358317Y1877224D01*
X2328317Y1871567D02*
X2332913Y1872628D01*
X2328317Y1871567D02*
X2329378Y1876163D01*
X2332913Y1872628D01*
X2331145Y1868739D02*
X2333974Y1871567D01*
X2325489Y1874395D02*
X2328317Y1877224D01*
X2298317Y1871567D02*
X2302913Y1872628D01*
X2298317Y1871567D02*
X2299378Y1876163D01*
X2302913Y1872628D01*
X2301145Y1868739D02*
X2303974Y1871567D01*
X2295489Y1874395D02*
X2298317Y1877224D01*
X2268317Y1871567D02*
X2272913Y1872628D01*
X2268317Y1871567D02*
X2269378Y1876163D01*
X2272913Y1872628D01*
X2271145Y1868739D02*
X2273974Y1871567D01*
X2265489Y1874395D02*
X2268317Y1877224D01*
X2238317Y1871567D02*
X2242913Y1872628D01*
X2238317Y1871567D02*
X2239378Y1876163D01*
X2242913Y1872628D01*
X2241145Y1868739D02*
X2243974Y1871567D01*
X2235489Y1874395D02*
X2238317Y1877224D01*
X2208317Y1871567D02*
X2212913Y1872628D01*
X2208317Y1871567D02*
X2209378Y1876163D01*
X2212913Y1872628D01*
X2211145Y1868739D02*
X2213974Y1871567D01*
X2205489Y1874395D02*
X2208317Y1877224D01*
X2178317Y1871567D02*
X2182913Y1872628D01*
X2178317Y1871567D02*
X2179378Y1876163D01*
X2182913Y1872628D01*
X2181145Y1868739D02*
X2183974Y1871567D01*
X2175489Y1874395D02*
X2178317Y1877224D01*
X2148317Y1871567D02*
X2152913Y1872628D01*
X2148317Y1871567D02*
X2149378Y1876163D01*
X2152913Y1872628D01*
X2151145Y1868739D02*
X2153974Y1871567D01*
X2145489Y1874395D02*
X2148317Y1877224D01*
X2118317Y1871567D02*
X2122913Y1872628D01*
X2118317Y1871567D02*
X2119378Y1876163D01*
X2122913Y1872628D01*
X2121145Y1868739D02*
X2123974Y1871567D01*
X2115489Y1874395D02*
X2118317Y1877224D01*
X2088317Y1871567D02*
X2092913Y1872628D01*
X2088317Y1871567D02*
X2089378Y1876163D01*
X2092913Y1872628D01*
X2091145Y1868739D02*
X2093974Y1871567D01*
X2085489Y1874395D02*
X2088317Y1877224D01*
X2058317Y1871567D02*
X2062913Y1872628D01*
X2058317Y1871567D02*
X2059378Y1876163D01*
X2062913Y1872628D01*
X2061145Y1868739D02*
X2063974Y1871567D01*
X2055489Y1874395D02*
X2058317Y1877224D01*
X2028317Y1871567D02*
X2032913Y1872628D01*
X2028317Y1871567D02*
X2029378Y1876163D01*
X2032913Y1872628D01*
X2031145Y1868739D02*
X2033974Y1871567D01*
X2025489Y1874395D02*
X2028317Y1877224D01*
X1998317Y1871567D02*
X2002913Y1872628D01*
X1998317Y1871567D02*
X1999378Y1876163D01*
X2002913Y1872628D01*
X2001145Y1868739D02*
X2003974Y1871567D01*
X1995489Y1874395D02*
X1998317Y1877224D01*
X1968317Y1871567D02*
X1972913Y1872628D01*
X1968317Y1871567D02*
X1969378Y1876163D01*
X1972913Y1872628D01*
X1971145Y1868739D02*
X1973974Y1871567D01*
X1965489Y1874395D02*
X1968317Y1877224D01*
X1938317Y1871567D02*
X1942913Y1872628D01*
X1938317Y1871567D02*
X1939378Y1876163D01*
X1942913Y1872628D01*
X1941145Y1868739D02*
X1943974Y1871567D01*
X1935489Y1874395D02*
X1938317Y1877224D01*
X1908317Y1871567D02*
X1912913Y1872628D01*
X1908317Y1871567D02*
X1909378Y1876163D01*
X1912913Y1872628D01*
X1911145Y1868739D02*
X1913974Y1871567D01*
X1905489Y1874395D02*
X1908317Y1877224D01*
X1878317Y1871567D02*
X1882913Y1872628D01*
X1878317Y1871567D02*
X1879378Y1876163D01*
X1882913Y1872628D01*
X1881145Y1868739D02*
X1883974Y1871567D01*
X1875489Y1874395D02*
X1878317Y1877224D01*
X1848317Y1871567D02*
X1852913Y1872628D01*
X1848317Y1871567D02*
X1849378Y1876163D01*
X1852913Y1872628D01*
X1851145Y1868739D02*
X1853974Y1871567D01*
X1845489Y1874395D02*
X1848317Y1877224D01*
X1818317Y1871567D02*
X1822913Y1872628D01*
X1818317Y1871567D02*
X1819378Y1876163D01*
X1822913Y1872628D01*
X1821145Y1868739D02*
X1823974Y1871567D01*
X1815489Y1874395D02*
X1818317Y1877224D01*
X1788317Y1871567D02*
X1792913Y1872628D01*
X1788317Y1871567D02*
X1789378Y1876163D01*
X1792913Y1872628D01*
X1791145Y1868739D02*
X1793974Y1871567D01*
X1785489Y1874395D02*
X1788317Y1877224D01*
X1758317Y1871567D02*
X1762913Y1872628D01*
X1758317Y1871567D02*
X1759378Y1876163D01*
X1762913Y1872628D01*
X1761145Y1868739D02*
X1763974Y1871567D01*
X1755489Y1874395D02*
X1758317Y1877224D01*
X1728317Y1871567D02*
X1732913Y1872628D01*
X1728317Y1871567D02*
X1729378Y1876163D01*
X1732913Y1872628D01*
X1731145Y1868739D02*
X1733974Y1871567D01*
X1725489Y1874395D02*
X1728317Y1877224D01*
X1698317Y1871567D02*
X1702913Y1872628D01*
X1698317Y1871567D02*
X1699378Y1876163D01*
X1702913Y1872628D01*
X1701145Y1868739D02*
X1703974Y1871567D01*
X1695489Y1874395D02*
X1698317Y1877224D01*
X1668317Y1871567D02*
X1672913Y1872628D01*
X1668317Y1871567D02*
X1669378Y1876163D01*
X1672913Y1872628D01*
X1671145Y1868739D02*
X1673974Y1871567D01*
X1665489Y1874395D02*
X1668317Y1877224D01*
X1638317Y1871567D02*
X1642913Y1872628D01*
X1638317Y1871567D02*
X1639378Y1876163D01*
X1642913Y1872628D01*
X1641145Y1868739D02*
X1643974Y1871567D01*
X1635489Y1874395D02*
X1638317Y1877224D01*
X1608317Y1871567D02*
X1612913Y1872628D01*
X1608317Y1871567D02*
X1609378Y1876163D01*
X1612913Y1872628D01*
X1611145Y1868739D02*
X1613974Y1871567D01*
X1605489Y1874395D02*
X1608317Y1877224D01*
X1578317Y1871567D02*
X1582913Y1872628D01*
X1578317Y1871567D02*
X1579378Y1876163D01*
X1582913Y1872628D01*
X1581145Y1868739D02*
X1583974Y1871567D01*
X1575489Y1874395D02*
X1578317Y1877224D01*
X1548317Y1871567D02*
X1552913Y1872628D01*
X1548317Y1871567D02*
X1549378Y1876163D01*
X1552913Y1872628D01*
X1551145Y1868739D02*
X1553974Y1871567D01*
X1545489Y1874395D02*
X1548317Y1877224D01*
X1518317Y1871567D02*
X1522913Y1872628D01*
X1518317Y1871567D02*
X1519378Y1876163D01*
X1522913Y1872628D01*
X1521145Y1868739D02*
X1523974Y1871567D01*
X1515489Y1874395D02*
X1518317Y1877224D01*
X1488317Y1871567D02*
X1492913Y1872628D01*
X1488317Y1871567D02*
X1489378Y1876163D01*
X1492913Y1872628D01*
X1491145Y1868739D02*
X1493974Y1871567D01*
X1485489Y1874395D02*
X1488317Y1877224D01*
X1458317Y1871567D02*
X1462913Y1872628D01*
X1458317Y1871567D02*
X1459378Y1876163D01*
X1462913Y1872628D01*
X1461145Y1868739D02*
X1463974Y1871567D01*
X1455489Y1874395D02*
X1458317Y1877224D01*
X1428317Y1871567D02*
X1432913Y1872628D01*
X1428317Y1871567D02*
X1429378Y1876163D01*
X1432913Y1872628D01*
X1431145Y1868739D02*
X1433974Y1871567D01*
X1425489Y1874395D02*
X1428317Y1877224D01*
X1398317Y1871567D02*
X1402913Y1872628D01*
X1398317Y1871567D02*
X1399378Y1876163D01*
X1402913Y1872628D01*
X1401145Y1868739D02*
X1403974Y1871567D01*
X1395489Y1874395D02*
X1398317Y1877224D01*
X1368317Y1871567D02*
X1372913Y1872628D01*
X1368317Y1871567D02*
X1369378Y1876163D01*
X1372913Y1872628D01*
X1371145Y1868739D02*
X1373974Y1871567D01*
X1365489Y1874395D02*
X1368317Y1877224D01*
X1338317Y1871567D02*
X1342913Y1872628D01*
X1338317Y1871567D02*
X1339378Y1876163D01*
X1342913Y1872628D01*
X1341145Y1868739D02*
X1343974Y1871567D01*
X1335489Y1874395D02*
X1338317Y1877224D01*
X1308317Y1871567D02*
X1312913Y1872628D01*
X1308317Y1871567D02*
X1309378Y1876163D01*
X1312913Y1872628D01*
X1311145Y1868739D02*
X1313974Y1871567D01*
X1305489Y1874395D02*
X1308317Y1877224D01*
X1702924Y1412304D02*
X1882124D01*
X1882524Y1220304D02*
Y1227804D01*
X1857524Y1220304D02*
X1882524D01*
X1702524D02*
X1727524D01*
X1702524D02*
Y1227804D01*
X1882524Y1407804D02*
Y1475304D01*
X1702524D02*
X1882524D01*
X1702524Y1407804D02*
Y1475304D01*
X1277774Y1443554D02*
Y1460554D01*
X1258274Y1413054D02*
X1271274D01*
X1250774Y1416554D02*
Y1433054D01*
Y1446053D01*
Y1476554D01*
X1258274Y1480054D02*
X1271274D01*
D37*
X1685754Y1400184D02*
G03*
X1685754Y1400184I-1000J0D01*
G01*
D61*
X2288117Y1411006D02*
X2295063D01*
X2288117Y1463584D02*
X2295063D01*
X2242485Y1456638D02*
Y1463584D01*
Y1411006D02*
X2249430D01*
X2295063D02*
Y1417951D01*
Y1456638D02*
Y1463584D01*
X2242485D02*
X2249430D01*
X2242485Y1411006D02*
Y1417951D01*
D62*
X2369022Y1402284D02*
D03*
M02*
