G04*
G04 #@! TF.GenerationSoftware,Altium Limited,Altium Designer,19.0.14 (431)*
G04*
G04 Layer_Color=8421504*
%FSLAX44Y44*%
%MOMM*%
G71*
G01*
G75*
%ADD10P,1.1314X4X270.0*%
%ADD13R,0.8000X0.9000*%
%ADD14R,0.9000X0.8000*%
%ADD15R,0.9652X0.2032*%
%ADD16R,0.2032X0.9652*%
%ADD18R,5.1000X5.1000*%
%ADD19R,1.0500X0.6000*%
%ADD20R,2.5000X1.5000*%
%ADD21R,3.2500X4.0000*%
%ADD22R,0.6000X1.6000*%
%ADD23R,1.2190X0.9140*%
%ADD24R,1.3000X0.7000*%
%ADD25R,2.0000X0.9000*%
%ADD26R,0.9000X2.0000*%
%ADD27R,5.0000X5.0000*%
%ADD28R,2.0000X0.8001*%
%ADD29R,0.8001X1.0000*%
%ADD30R,0.8001X0.8999*%
%ADD63R,0.0254X0.0254*%
G36*
X2284538Y1438295D02*
X2269774D01*
Y1453059D01*
X2284538D01*
Y1438295D01*
D02*
G37*
G36*
X2267774D02*
X2253010D01*
Y1453059D01*
X2267774D01*
Y1438295D01*
D02*
G37*
G36*
X2284538Y1421531D02*
X2269774D01*
Y1436295D01*
X2284538D01*
Y1421531D01*
D02*
G37*
G36*
X2267774D02*
X2253010D01*
Y1436295D01*
X2267774D01*
Y1421531D01*
D02*
G37*
G36*
X1798335Y1309524D02*
X1766667D01*
Y1341215D01*
X1798335D01*
Y1309524D01*
D02*
G37*
D10*
X2455388Y1638638D02*
D03*
X2444074Y1627325D02*
D03*
X2425388Y1638638D02*
D03*
X2414074Y1627325D02*
D03*
X2395388Y1638638D02*
D03*
X2384074Y1627325D02*
D03*
X2365388Y1638638D02*
D03*
X2354074Y1627325D02*
D03*
X2335388Y1638638D02*
D03*
X2324074Y1627325D02*
D03*
X2305388Y1638638D02*
D03*
X2294074Y1627325D02*
D03*
X2275388Y1638638D02*
D03*
X2264074Y1627325D02*
D03*
X2245388Y1638638D02*
D03*
X2234074Y1627325D02*
D03*
X2215388Y1638638D02*
D03*
X2204074Y1627325D02*
D03*
X2185388Y1638638D02*
D03*
X2174074Y1627325D02*
D03*
X2155388Y1638638D02*
D03*
X2144074Y1627325D02*
D03*
X2125388Y1638638D02*
D03*
X2114074Y1627325D02*
D03*
X2095388Y1638638D02*
D03*
X2084074Y1627325D02*
D03*
X2065388Y1638638D02*
D03*
X2054074Y1627325D02*
D03*
X2035388Y1638638D02*
D03*
X2024074Y1627325D02*
D03*
X2005388Y1638638D02*
D03*
X1994074Y1627325D02*
D03*
X1975388Y1638638D02*
D03*
X1964074Y1627325D02*
D03*
X1945388Y1638638D02*
D03*
X1934074Y1627325D02*
D03*
X1915388Y1638638D02*
D03*
X1904074Y1627325D02*
D03*
X1885388Y1638638D02*
D03*
X1874074Y1627325D02*
D03*
X1855388Y1638638D02*
D03*
X1844074Y1627325D02*
D03*
X1825388Y1638638D02*
D03*
X1814074Y1627325D02*
D03*
X1795388Y1638638D02*
D03*
X1784074Y1627325D02*
D03*
X1765388Y1638638D02*
D03*
X1754074Y1627325D02*
D03*
X1735388Y1638638D02*
D03*
X1724074Y1627325D02*
D03*
X1705388Y1638638D02*
D03*
X1694074Y1627325D02*
D03*
X1675388Y1638638D02*
D03*
X1664074Y1627325D02*
D03*
X1645388Y1638638D02*
D03*
X1634074Y1627325D02*
D03*
X1615388Y1638638D02*
D03*
X1604074Y1627325D02*
D03*
X1585388Y1638638D02*
D03*
X1574074Y1627325D02*
D03*
X1555388Y1638638D02*
D03*
X1544074Y1627325D02*
D03*
X1525388Y1638638D02*
D03*
X1514074Y1627325D02*
D03*
X1495388Y1638638D02*
D03*
X1484074Y1627325D02*
D03*
X1465388Y1638638D02*
D03*
X1454074Y1627325D02*
D03*
X1435388Y1638638D02*
D03*
X1424074Y1627325D02*
D03*
X1405388Y1638638D02*
D03*
X1394074Y1627325D02*
D03*
X1375388Y1638638D02*
D03*
X1364074Y1627325D02*
D03*
X1345388Y1638638D02*
D03*
X1334074Y1627325D02*
D03*
X1315388Y1638638D02*
D03*
X1304074Y1627325D02*
D03*
X2455388Y1668638D02*
D03*
X2444074Y1657324D02*
D03*
X2425388Y1668638D02*
D03*
X2414074Y1657324D02*
D03*
X2395388Y1668638D02*
D03*
X2384074Y1657324D02*
D03*
X2365388Y1668638D02*
D03*
X2354074Y1657324D02*
D03*
X2335388Y1668638D02*
D03*
X2324074Y1657324D02*
D03*
X2305388Y1668638D02*
D03*
X2294074Y1657324D02*
D03*
X2275388Y1668638D02*
D03*
X2264074Y1657324D02*
D03*
X2245388Y1668638D02*
D03*
X2234074Y1657324D02*
D03*
X2215388Y1668638D02*
D03*
X2204074Y1657324D02*
D03*
X2185388Y1668638D02*
D03*
X2174074Y1657324D02*
D03*
X2155388Y1668638D02*
D03*
X2144074Y1657324D02*
D03*
X2125388Y1668638D02*
D03*
X2114074Y1657324D02*
D03*
X2095388Y1668638D02*
D03*
X2084074Y1657324D02*
D03*
X2065388Y1668638D02*
D03*
X2054074Y1657324D02*
D03*
X2035388Y1668638D02*
D03*
X2024074Y1657324D02*
D03*
X2005388Y1668638D02*
D03*
X1994074Y1657324D02*
D03*
X1975388Y1668638D02*
D03*
X1964074Y1657324D02*
D03*
X1945388Y1668638D02*
D03*
X1934074Y1657324D02*
D03*
X1915388Y1668638D02*
D03*
X1904074Y1657324D02*
D03*
X1885388Y1668638D02*
D03*
X1874074Y1657324D02*
D03*
X1855388Y1668638D02*
D03*
X1844074Y1657324D02*
D03*
X1825388Y1668638D02*
D03*
X1814074Y1657324D02*
D03*
X1795388Y1668638D02*
D03*
X1784074Y1657324D02*
D03*
X1765388Y1668638D02*
D03*
X1754074Y1657324D02*
D03*
X1735388Y1668638D02*
D03*
X1724074Y1657324D02*
D03*
X1705388Y1668638D02*
D03*
X1694074Y1657324D02*
D03*
X1675388Y1668638D02*
D03*
X1664074Y1657324D02*
D03*
X1645388Y1668638D02*
D03*
X1634074Y1657324D02*
D03*
X1615388Y1668638D02*
D03*
X1604074Y1657324D02*
D03*
X1585388Y1668638D02*
D03*
X1574074Y1657324D02*
D03*
X1555388Y1668638D02*
D03*
X1544074Y1657324D02*
D03*
X1525388Y1668638D02*
D03*
X1514074Y1657324D02*
D03*
X1495388Y1668638D02*
D03*
X1484074Y1657324D02*
D03*
X1465388Y1668638D02*
D03*
X1454074Y1657324D02*
D03*
X1435388Y1668638D02*
D03*
X1424074Y1657324D02*
D03*
X1405388Y1668638D02*
D03*
X1394074Y1657324D02*
D03*
X1375388Y1668638D02*
D03*
X1364074Y1657324D02*
D03*
X1345388Y1668638D02*
D03*
X1334074Y1657324D02*
D03*
X1315388Y1668638D02*
D03*
X1304074Y1657324D02*
D03*
X2455388Y1698638D02*
D03*
X2444074Y1687324D02*
D03*
X2425388Y1698638D02*
D03*
X2414074Y1687324D02*
D03*
X2395388Y1698638D02*
D03*
X2384074Y1687324D02*
D03*
X2365388Y1698638D02*
D03*
X2354074Y1687324D02*
D03*
X2335388Y1698638D02*
D03*
X2324074Y1687324D02*
D03*
X2305388Y1698638D02*
D03*
X2294074Y1687324D02*
D03*
X2275388Y1698638D02*
D03*
X2264074Y1687324D02*
D03*
X2245388Y1698638D02*
D03*
X2234074Y1687324D02*
D03*
X2215388Y1698638D02*
D03*
X2204074Y1687324D02*
D03*
X2185388Y1698638D02*
D03*
X2174074Y1687324D02*
D03*
X2155388Y1698638D02*
D03*
X2144074Y1687324D02*
D03*
X2125388Y1698638D02*
D03*
X2114074Y1687324D02*
D03*
X2095388Y1698638D02*
D03*
X2084074Y1687324D02*
D03*
X2065388Y1698638D02*
D03*
X2054074Y1687324D02*
D03*
X2035388Y1698638D02*
D03*
X2024074Y1687324D02*
D03*
X2005388Y1698638D02*
D03*
X1994074Y1687324D02*
D03*
X1975388Y1698638D02*
D03*
X1964074Y1687324D02*
D03*
X1945388Y1698638D02*
D03*
X1934074Y1687324D02*
D03*
X1915388Y1698638D02*
D03*
X1904074Y1687324D02*
D03*
X1885388Y1698638D02*
D03*
X1874074Y1687324D02*
D03*
X1855388Y1698638D02*
D03*
X1844074Y1687324D02*
D03*
X1825388Y1698638D02*
D03*
X1814074Y1687324D02*
D03*
X1795388Y1698638D02*
D03*
X1784074Y1687324D02*
D03*
X1765388Y1698638D02*
D03*
X1754074Y1687324D02*
D03*
X1735388Y1698638D02*
D03*
X1724074Y1687324D02*
D03*
X1705388Y1698638D02*
D03*
X1694074Y1687324D02*
D03*
X1675388Y1698638D02*
D03*
X1664074Y1687324D02*
D03*
X1645388Y1698638D02*
D03*
X1634074Y1687324D02*
D03*
X1615388Y1698638D02*
D03*
X1604074Y1687324D02*
D03*
X1585388Y1698638D02*
D03*
X1574074Y1687324D02*
D03*
X1555388Y1698638D02*
D03*
X1544074Y1687324D02*
D03*
X1525388Y1698638D02*
D03*
X1514074Y1687324D02*
D03*
X1495388Y1698638D02*
D03*
X1484074Y1687324D02*
D03*
X1465388Y1698638D02*
D03*
X1454074Y1687324D02*
D03*
X1435388Y1698638D02*
D03*
X1424074Y1687324D02*
D03*
X1405388Y1698638D02*
D03*
X1394074Y1687324D02*
D03*
X1375388Y1698638D02*
D03*
X1364074Y1687324D02*
D03*
X1345388Y1698638D02*
D03*
X1334074Y1687324D02*
D03*
X1315388Y1698638D02*
D03*
X1304074Y1687324D02*
D03*
X2455388Y1728638D02*
D03*
X2444074Y1717325D02*
D03*
X2425388Y1728638D02*
D03*
X2414074Y1717325D02*
D03*
X2395388Y1728638D02*
D03*
X2384074Y1717325D02*
D03*
X2365388Y1728638D02*
D03*
X2354074Y1717325D02*
D03*
X2335388Y1728638D02*
D03*
X2324074Y1717325D02*
D03*
X2305388Y1728638D02*
D03*
X2294074Y1717325D02*
D03*
X2275388Y1728638D02*
D03*
X2264074Y1717325D02*
D03*
X2245388Y1728638D02*
D03*
X2234074Y1717325D02*
D03*
X2215388Y1728638D02*
D03*
X2204074Y1717325D02*
D03*
X2185388Y1728638D02*
D03*
X2174074Y1717325D02*
D03*
X2155388Y1728638D02*
D03*
X2144074Y1717325D02*
D03*
X2125388Y1728638D02*
D03*
X2114074Y1717325D02*
D03*
X2095388Y1728638D02*
D03*
X2084074Y1717325D02*
D03*
X2065388Y1728638D02*
D03*
X2054074Y1717325D02*
D03*
X2035388Y1728638D02*
D03*
X2024074Y1717325D02*
D03*
X2005388Y1728638D02*
D03*
X1994074Y1717325D02*
D03*
X1975388Y1728638D02*
D03*
X1964074Y1717325D02*
D03*
X1945388Y1728638D02*
D03*
X1934074Y1717325D02*
D03*
X1915388Y1728638D02*
D03*
X1904074Y1717325D02*
D03*
X1885388Y1728638D02*
D03*
X1874074Y1717325D02*
D03*
X1855388Y1728638D02*
D03*
X1844074Y1717325D02*
D03*
X1825388Y1728638D02*
D03*
X1814074Y1717325D02*
D03*
X1795388Y1728638D02*
D03*
X1784074Y1717325D02*
D03*
X1765388Y1728638D02*
D03*
X1754074Y1717325D02*
D03*
X1735388Y1728638D02*
D03*
X1724074Y1717325D02*
D03*
X1705388Y1728638D02*
D03*
X1694074Y1717325D02*
D03*
X1675388Y1728638D02*
D03*
X1664074Y1717325D02*
D03*
X1645388Y1728638D02*
D03*
X1634074Y1717325D02*
D03*
X1615388Y1728638D02*
D03*
X1604074Y1717325D02*
D03*
X1585388Y1728638D02*
D03*
X1574074Y1717325D02*
D03*
X1555388Y1728638D02*
D03*
X1544074Y1717325D02*
D03*
X1525388Y1728638D02*
D03*
X1514074Y1717325D02*
D03*
X1495388Y1728638D02*
D03*
X1484074Y1717325D02*
D03*
X1465388Y1728638D02*
D03*
X1454074Y1717325D02*
D03*
X1435388Y1728638D02*
D03*
X1424074Y1717325D02*
D03*
X1405388Y1728638D02*
D03*
X1394074Y1717325D02*
D03*
X1375388Y1728638D02*
D03*
X1364074Y1717325D02*
D03*
X1345388Y1728638D02*
D03*
X1334074Y1717325D02*
D03*
X1315388Y1728638D02*
D03*
X1304074Y1717325D02*
D03*
X2455388Y1758638D02*
D03*
X2444074Y1747324D02*
D03*
X2425388Y1758638D02*
D03*
X2414074Y1747324D02*
D03*
X2395388Y1758638D02*
D03*
X2384074Y1747324D02*
D03*
X2365388Y1758638D02*
D03*
X2354074Y1747324D02*
D03*
X2335388Y1758638D02*
D03*
X2324074Y1747324D02*
D03*
X2305388Y1758638D02*
D03*
X2294074Y1747324D02*
D03*
X2275388Y1758638D02*
D03*
X2264074Y1747324D02*
D03*
X2245388Y1758638D02*
D03*
X2234074Y1747324D02*
D03*
X2215388Y1758638D02*
D03*
X2204074Y1747324D02*
D03*
X2185388Y1758638D02*
D03*
X2174074Y1747324D02*
D03*
X2155388Y1758638D02*
D03*
X2144074Y1747324D02*
D03*
X2125388Y1758638D02*
D03*
X2114074Y1747324D02*
D03*
X2095388Y1758638D02*
D03*
X2084074Y1747324D02*
D03*
X2065388Y1758638D02*
D03*
X2054074Y1747324D02*
D03*
X2035388Y1758638D02*
D03*
X2024074Y1747324D02*
D03*
X2005388Y1758638D02*
D03*
X1994074Y1747324D02*
D03*
X1975388Y1758638D02*
D03*
X1964074Y1747324D02*
D03*
X1945388Y1758638D02*
D03*
X1934074Y1747324D02*
D03*
X1915388Y1758638D02*
D03*
X1904074Y1747324D02*
D03*
X1885388Y1758638D02*
D03*
X1874074Y1747324D02*
D03*
X1855388Y1758638D02*
D03*
X1844074Y1747324D02*
D03*
X1825388Y1758638D02*
D03*
X1814074Y1747324D02*
D03*
X1795388Y1758638D02*
D03*
X1784074Y1747324D02*
D03*
X1765388Y1758638D02*
D03*
X1754074Y1747324D02*
D03*
X1735388Y1758638D02*
D03*
X1724074Y1747324D02*
D03*
X1705388Y1758638D02*
D03*
X1694074Y1747324D02*
D03*
X1675388Y1758638D02*
D03*
X1664074Y1747324D02*
D03*
X1645388Y1758638D02*
D03*
X1634074Y1747324D02*
D03*
X1615388Y1758638D02*
D03*
X1604074Y1747324D02*
D03*
X1585388Y1758638D02*
D03*
X1574074Y1747324D02*
D03*
X1555388Y1758638D02*
D03*
X1544074Y1747324D02*
D03*
X1525388Y1758638D02*
D03*
X1514074Y1747324D02*
D03*
X1495388Y1758638D02*
D03*
X1484074Y1747324D02*
D03*
X1465388Y1758638D02*
D03*
X1454074Y1747324D02*
D03*
X1435388Y1758638D02*
D03*
X1424074Y1747324D02*
D03*
X1405388Y1758638D02*
D03*
X1394074Y1747324D02*
D03*
X1375388Y1758638D02*
D03*
X1364074Y1747324D02*
D03*
X1345388Y1758638D02*
D03*
X1334074Y1747324D02*
D03*
X1315388Y1758638D02*
D03*
X1304074Y1747324D02*
D03*
X2455388Y1788638D02*
D03*
X2444074Y1777324D02*
D03*
X2425388Y1788638D02*
D03*
X2414074Y1777324D02*
D03*
X2395388Y1788638D02*
D03*
X2384074Y1777324D02*
D03*
X2365388Y1788638D02*
D03*
X2354074Y1777324D02*
D03*
X2335388Y1788638D02*
D03*
X2324074Y1777324D02*
D03*
X2305388Y1788638D02*
D03*
X2294074Y1777324D02*
D03*
X2275388Y1788638D02*
D03*
X2264074Y1777324D02*
D03*
X2245388Y1788638D02*
D03*
X2234074Y1777324D02*
D03*
X2215388Y1788638D02*
D03*
X2204074Y1777324D02*
D03*
X2185388Y1788638D02*
D03*
X2174074Y1777324D02*
D03*
X2155388Y1788638D02*
D03*
X2144074Y1777324D02*
D03*
X2125388Y1788638D02*
D03*
X2114074Y1777324D02*
D03*
X2095388Y1788638D02*
D03*
X2084074Y1777324D02*
D03*
X2065388Y1788638D02*
D03*
X2054074Y1777324D02*
D03*
X2035388Y1788638D02*
D03*
X2024074Y1777324D02*
D03*
X2005388Y1788638D02*
D03*
X1994074Y1777324D02*
D03*
X1975388Y1788638D02*
D03*
X1964074Y1777324D02*
D03*
X1945388Y1788638D02*
D03*
X1934074Y1777324D02*
D03*
X1915388Y1788638D02*
D03*
X1904074Y1777324D02*
D03*
X1885388Y1788638D02*
D03*
X1874074Y1777324D02*
D03*
X1855388Y1788638D02*
D03*
X1844074Y1777324D02*
D03*
X1825388Y1788638D02*
D03*
X1814074Y1777324D02*
D03*
X1795388Y1788638D02*
D03*
X1784074Y1777324D02*
D03*
X1765388Y1788638D02*
D03*
X1754074Y1777324D02*
D03*
X1735388Y1788638D02*
D03*
X1724074Y1777324D02*
D03*
X1705388Y1788638D02*
D03*
X1694074Y1777324D02*
D03*
X1675388Y1788638D02*
D03*
X1664074Y1777324D02*
D03*
X1645388Y1788638D02*
D03*
X1634074Y1777324D02*
D03*
X1615388Y1788638D02*
D03*
X1604074Y1777324D02*
D03*
X1585388Y1788638D02*
D03*
X1574074Y1777324D02*
D03*
X1555388Y1788638D02*
D03*
X1544074Y1777324D02*
D03*
X1525388Y1788638D02*
D03*
X1514074Y1777324D02*
D03*
X1495388Y1788638D02*
D03*
X1484074Y1777324D02*
D03*
X1465388Y1788638D02*
D03*
X1454074Y1777324D02*
D03*
X1435388Y1788638D02*
D03*
X1424074Y1777324D02*
D03*
X1405388Y1788638D02*
D03*
X1394074Y1777324D02*
D03*
X1375388Y1788638D02*
D03*
X1364074Y1777324D02*
D03*
X1345388Y1788638D02*
D03*
X1334074Y1777324D02*
D03*
X1315388Y1788638D02*
D03*
X1304074Y1777324D02*
D03*
X2455388Y1818638D02*
D03*
X2444074Y1807325D02*
D03*
X2425388Y1818638D02*
D03*
X2414074Y1807325D02*
D03*
X2395388Y1818638D02*
D03*
X2384074Y1807325D02*
D03*
X2365388Y1818638D02*
D03*
X2354074Y1807325D02*
D03*
X2335388Y1818638D02*
D03*
X2324074Y1807325D02*
D03*
X2305388Y1818638D02*
D03*
X2294074Y1807325D02*
D03*
X2275388Y1818638D02*
D03*
X2264074Y1807325D02*
D03*
X2245388Y1818638D02*
D03*
X2234074Y1807325D02*
D03*
X2215388Y1818638D02*
D03*
X2204074Y1807325D02*
D03*
X2185388Y1818638D02*
D03*
X2174074Y1807325D02*
D03*
X2155388Y1818638D02*
D03*
X2144074Y1807325D02*
D03*
X2125388Y1818638D02*
D03*
X2114074Y1807325D02*
D03*
X2095388Y1818638D02*
D03*
X2084074Y1807325D02*
D03*
X2065388Y1818638D02*
D03*
X2054074Y1807325D02*
D03*
X2035388Y1818638D02*
D03*
X2024074Y1807325D02*
D03*
X2005388Y1818638D02*
D03*
X1994074Y1807325D02*
D03*
X1975388Y1818638D02*
D03*
X1964074Y1807325D02*
D03*
X1945388Y1818638D02*
D03*
X1934074Y1807325D02*
D03*
X1915388Y1818638D02*
D03*
X1904074Y1807325D02*
D03*
X1885388Y1818638D02*
D03*
X1874074Y1807325D02*
D03*
X1855388Y1818638D02*
D03*
X1844074Y1807325D02*
D03*
X1825388Y1818638D02*
D03*
X1814074Y1807325D02*
D03*
X1795388Y1818638D02*
D03*
X1784074Y1807325D02*
D03*
X1765388Y1818638D02*
D03*
X1754074Y1807325D02*
D03*
X1735388Y1818638D02*
D03*
X1724074Y1807325D02*
D03*
X1705388Y1818638D02*
D03*
X1694074Y1807325D02*
D03*
X1675388Y1818638D02*
D03*
X1664074Y1807325D02*
D03*
X1645388Y1818638D02*
D03*
X1634074Y1807325D02*
D03*
X1615388Y1818638D02*
D03*
X1604074Y1807325D02*
D03*
X1585388Y1818638D02*
D03*
X1574074Y1807325D02*
D03*
X1555388Y1818638D02*
D03*
X1544074Y1807325D02*
D03*
X1525388Y1818638D02*
D03*
X1514074Y1807325D02*
D03*
X1495388Y1818638D02*
D03*
X1484074Y1807325D02*
D03*
X1465388Y1818638D02*
D03*
X1454074Y1807325D02*
D03*
X1435388Y1818638D02*
D03*
X1424074Y1807325D02*
D03*
X1405388Y1818638D02*
D03*
X1394074Y1807325D02*
D03*
X1375388Y1818638D02*
D03*
X1364074Y1807325D02*
D03*
X1345388Y1818638D02*
D03*
X1334074Y1807325D02*
D03*
X1315388Y1818638D02*
D03*
X1304074Y1807325D02*
D03*
X2455388Y1848638D02*
D03*
X2444074Y1837324D02*
D03*
X2425388Y1848638D02*
D03*
X2414074Y1837324D02*
D03*
X2395388Y1848638D02*
D03*
X2384074Y1837324D02*
D03*
X2365388Y1848638D02*
D03*
X2354074Y1837324D02*
D03*
X2335388Y1848638D02*
D03*
X2324074Y1837324D02*
D03*
X2305388Y1848638D02*
D03*
X2294074Y1837324D02*
D03*
X2275388Y1848638D02*
D03*
X2264074Y1837324D02*
D03*
X2245388Y1848638D02*
D03*
X2234074Y1837324D02*
D03*
X2215388Y1848638D02*
D03*
X2204074Y1837324D02*
D03*
X2185388Y1848638D02*
D03*
X2174074Y1837324D02*
D03*
X2155388Y1848638D02*
D03*
X2144074Y1837324D02*
D03*
X2125388Y1848638D02*
D03*
X2114074Y1837324D02*
D03*
X2095388Y1848638D02*
D03*
X2084074Y1837324D02*
D03*
X2065388Y1848638D02*
D03*
X2054074Y1837324D02*
D03*
X2035388Y1848638D02*
D03*
X2024074Y1837324D02*
D03*
X2005388Y1848638D02*
D03*
X1994074Y1837324D02*
D03*
X1975388Y1848638D02*
D03*
X1964074Y1837324D02*
D03*
X1945388Y1848638D02*
D03*
X1934074Y1837324D02*
D03*
X1915388Y1848638D02*
D03*
X1904074Y1837324D02*
D03*
X1885388Y1848638D02*
D03*
X1874074Y1837324D02*
D03*
X1855388Y1848638D02*
D03*
X1844074Y1837324D02*
D03*
X1825388Y1848638D02*
D03*
X1814074Y1837324D02*
D03*
X1795388Y1848638D02*
D03*
X1784074Y1837324D02*
D03*
X1765388Y1848638D02*
D03*
X1754074Y1837324D02*
D03*
X1735388Y1848638D02*
D03*
X1724074Y1837324D02*
D03*
X1705388Y1848638D02*
D03*
X1694074Y1837324D02*
D03*
X1675388Y1848638D02*
D03*
X1664074Y1837324D02*
D03*
X1645388Y1848638D02*
D03*
X1634074Y1837324D02*
D03*
X1615388Y1848638D02*
D03*
X1604074Y1837324D02*
D03*
X1585388Y1848638D02*
D03*
X1574074Y1837324D02*
D03*
X1555388Y1848638D02*
D03*
X1544074Y1837324D02*
D03*
X1525388Y1848638D02*
D03*
X1514074Y1837324D02*
D03*
X1495388Y1848638D02*
D03*
X1484074Y1837324D02*
D03*
X1465388Y1848638D02*
D03*
X1454074Y1837324D02*
D03*
X1435388Y1848638D02*
D03*
X1424074Y1837324D02*
D03*
X1405388Y1848638D02*
D03*
X1394074Y1837324D02*
D03*
X1375388Y1848638D02*
D03*
X1364074Y1837324D02*
D03*
X1345388Y1848638D02*
D03*
X1334074Y1837324D02*
D03*
X1315388Y1848638D02*
D03*
X1304074Y1837324D02*
D03*
X2455388Y1878638D02*
D03*
X2444074Y1867324D02*
D03*
X2425388Y1878638D02*
D03*
X2414074Y1867324D02*
D03*
X2395388Y1878638D02*
D03*
X2384074Y1867324D02*
D03*
X2365388Y1878638D02*
D03*
X2354074Y1867324D02*
D03*
X2335388Y1878638D02*
D03*
X2324074Y1867324D02*
D03*
X2305388Y1878638D02*
D03*
X2294074Y1867324D02*
D03*
X2275388Y1878638D02*
D03*
X2264074Y1867324D02*
D03*
X2245388Y1878638D02*
D03*
X2234074Y1867324D02*
D03*
X2215388Y1878638D02*
D03*
X2204074Y1867324D02*
D03*
X2185388Y1878638D02*
D03*
X2174074Y1867324D02*
D03*
X2155388Y1878638D02*
D03*
X2144074Y1867324D02*
D03*
X2125388Y1878638D02*
D03*
X2114074Y1867324D02*
D03*
X2095388Y1878638D02*
D03*
X2084074Y1867324D02*
D03*
X2065388Y1878638D02*
D03*
X2054074Y1867324D02*
D03*
X2035388Y1878638D02*
D03*
X2024074Y1867324D02*
D03*
X2005388Y1878638D02*
D03*
X1994074Y1867324D02*
D03*
X1975388Y1878638D02*
D03*
X1964074Y1867324D02*
D03*
X1945388Y1878638D02*
D03*
X1934074Y1867324D02*
D03*
X1915388Y1878638D02*
D03*
X1904074Y1867324D02*
D03*
X1885388Y1878638D02*
D03*
X1874074Y1867324D02*
D03*
X1855388Y1878638D02*
D03*
X1844074Y1867324D02*
D03*
X1825388Y1878638D02*
D03*
X1814074Y1867324D02*
D03*
X1795388Y1878638D02*
D03*
X1784074Y1867324D02*
D03*
X1765388Y1878638D02*
D03*
X1754074Y1867324D02*
D03*
X1735388Y1878638D02*
D03*
X1724074Y1867324D02*
D03*
X1705388Y1878638D02*
D03*
X1694074Y1867324D02*
D03*
X1675388Y1878638D02*
D03*
X1664074Y1867324D02*
D03*
X1645388Y1878638D02*
D03*
X1634074Y1867324D02*
D03*
X1615388Y1878638D02*
D03*
X1604074Y1867324D02*
D03*
X1585388Y1878638D02*
D03*
X1574074Y1867324D02*
D03*
X1555388Y1878638D02*
D03*
X1544074Y1867324D02*
D03*
X1525388Y1878638D02*
D03*
X1514074Y1867324D02*
D03*
X1495388Y1878638D02*
D03*
X1484074Y1867324D02*
D03*
X1465388Y1878638D02*
D03*
X1454074Y1867324D02*
D03*
X1435388Y1878638D02*
D03*
X1424074Y1867324D02*
D03*
X1405388Y1878638D02*
D03*
X1394074Y1867324D02*
D03*
X1375388Y1878638D02*
D03*
X1364074Y1867324D02*
D03*
X1345388Y1878638D02*
D03*
X1334074Y1867324D02*
D03*
X1315388Y1878638D02*
D03*
X1304074Y1867324D02*
D03*
D13*
X1933774Y1353854D02*
D03*
X1919774D02*
D03*
X1933774Y1337854D02*
D03*
X1919774D02*
D03*
X2284774Y1322054D02*
D03*
X2298774D02*
D03*
X2372024Y1485804D02*
D03*
X2386024D02*
D03*
X2402524Y1283304D02*
D03*
X2388524D02*
D03*
X2388524Y1269054D02*
D03*
X2402524D02*
D03*
X2385774Y1502054D02*
D03*
X2371774D02*
D03*
X2238533Y1391171D02*
D03*
X2252533D02*
D03*
X2247774Y1375780D02*
D03*
X2261774D02*
D03*
X2399024Y1319054D02*
D03*
X2413024D02*
D03*
X1404274Y1314054D02*
D03*
X1390274D02*
D03*
X1549774D02*
D03*
X1535774D02*
D03*
X1674774D02*
D03*
X1660774D02*
D03*
X2371524Y1324054D02*
D03*
X2357524D02*
D03*
X2393524Y1381804D02*
D03*
X2407524D02*
D03*
D14*
X2329774Y1473929D02*
D03*
Y1459929D02*
D03*
X2313509Y1474054D02*
D03*
Y1460054D02*
D03*
X2108524Y1382804D02*
D03*
Y1396804D02*
D03*
X2417524Y1283004D02*
D03*
Y1269004D02*
D03*
X2124774Y1425554D02*
D03*
Y1411554D02*
D03*
X2092774Y1383054D02*
D03*
Y1369054D02*
D03*
X2350274Y1409054D02*
D03*
Y1423054D02*
D03*
X2124774Y1397054D02*
D03*
Y1383054D02*
D03*
X1963774Y1376054D02*
D03*
Y1362054D02*
D03*
X1982774Y1383054D02*
D03*
Y1369054D02*
D03*
X2313774Y1420054D02*
D03*
Y1406054D02*
D03*
X2329774Y1420054D02*
D03*
Y1406054D02*
D03*
D15*
X2292015Y1422295D02*
D03*
Y1427295D02*
D03*
Y1432295D02*
D03*
Y1437295D02*
D03*
Y1442295D02*
D03*
Y1447295D02*
D03*
Y1452295D02*
D03*
X2245533D02*
D03*
Y1447295D02*
D03*
Y1442295D02*
D03*
Y1437295D02*
D03*
Y1432295D02*
D03*
Y1427295D02*
D03*
Y1422295D02*
D03*
D16*
X2283774Y1460536D02*
D03*
X2278774D02*
D03*
X2273774D02*
D03*
X2268774D02*
D03*
X2263774D02*
D03*
X2258774D02*
D03*
X2253774D02*
D03*
Y1414054D02*
D03*
X2258774D02*
D03*
X2263774D02*
D03*
X2268774D02*
D03*
X2273774D02*
D03*
X2278774D02*
D03*
X2283774D02*
D03*
D18*
X2046774Y1427054D02*
D03*
D19*
X2348024Y1363804D02*
D03*
Y1344804D02*
D03*
X2371024Y1354304D02*
D03*
X2416524Y1409304D02*
D03*
X2393524Y1399804D02*
D03*
Y1418804D02*
D03*
D20*
X2308024Y1252804D02*
D03*
Y1275304D02*
D03*
Y1297804D02*
D03*
D21*
X2255524Y1275304D02*
D03*
D22*
X2212774Y1442553D02*
D03*
X2222274Y1420553D02*
D03*
X2203274D02*
D03*
X2170774Y1368054D02*
D03*
X2161274Y1390054D02*
D03*
X2180274D02*
D03*
D23*
X2369024Y1391171D02*
D03*
Y1423937D02*
D03*
D24*
X2393774Y1343054D02*
D03*
Y1362054D02*
D03*
X2417774D02*
D03*
Y1352554D02*
D03*
Y1343054D02*
D03*
D25*
X1877524Y1400404D02*
D03*
Y1387704D02*
D03*
Y1375004D02*
D03*
Y1362304D02*
D03*
Y1349604D02*
D03*
Y1336904D02*
D03*
Y1324204D02*
D03*
Y1311504D02*
D03*
Y1298804D02*
D03*
Y1286104D02*
D03*
Y1273404D02*
D03*
Y1260704D02*
D03*
Y1248004D02*
D03*
Y1235304D02*
D03*
X1707524D02*
D03*
Y1248004D02*
D03*
Y1260704D02*
D03*
Y1273404D02*
D03*
Y1286104D02*
D03*
Y1298804D02*
D03*
Y1311504D02*
D03*
Y1324204D02*
D03*
Y1336904D02*
D03*
Y1349604D02*
D03*
Y1362304D02*
D03*
Y1375004D02*
D03*
Y1387704D02*
D03*
Y1400404D02*
D03*
D26*
X1849674Y1225304D02*
D03*
X1836974D02*
D03*
X1824274D02*
D03*
X1811574D02*
D03*
X1798874D02*
D03*
X1786174D02*
D03*
X1773474D02*
D03*
X1760774D02*
D03*
X1748074D02*
D03*
X1735374D02*
D03*
D27*
X1782524Y1325404D02*
D03*
D28*
X1285275Y1423323D02*
D03*
Y1468324D02*
D03*
Y1438324D02*
D03*
D29*
X1253024Y1409053D02*
D03*
Y1484054D02*
D03*
D30*
X1275523Y1408553D02*
D03*
Y1484555D02*
D03*
D63*
X2268774Y1437295D02*
D03*
M02*
