M48
;Layer_Color=9474304
;FILE_FORMAT=4:4
METRIC,LZ
;TYPE=PLATED
T1F00S00C0.3000
T2F00S00C0.5000
T3F00S00C0.6500
T4F00S00C0.7000
T5F00S00C0.8001
T6F00S00C0.9000
T7F00S00C3.0000
%
T01
X02444774Y01292679
X02427774Y01343054
X02490774Y01359054
X02437771Y01439052
X02439774Y01446054
X02436774Y01463054
X02395274Y01470054
X02418774Y01430054
X02350774
X02355774Y01436054
X02359774Y01450054
X02350774Y01456054
X02371774Y01515054
X02302774Y01417054
Y01372054
X02291774Y01356554
X02281774Y01361054
X02277774Y01396804
X02269774Y01397054
X02226774Y01391054
X02195774Y01390054
X02178774Y01418553
X02168774
X02105774Y01418304
X02099772Y01423052
X02112774Y01426054
X02106774Y01406054
X02095774Y01406054
X02090774Y01395054
X02101774Y01396054
X02075024Y01365054
X02087774Y01344804
X02125771Y01350052
X02126774Y01357304
X02131374Y01336954
X02157774Y01337054
X02188774Y01341804
X02211774Y01351054
X02214774Y01361054
X02329774Y01364054
X02331384Y01347054
X02032774Y01337054
X02027774Y01359054
X01910774Y01305054
X01900774Y01285054
X01860174
X01730524Y01288054
X01731774Y01274054
X01727474Y01261054
X01727774Y01247054
X01652774Y01214054
X01660774Y01300054
X01721774Y01376054
X01769772Y01376052
X01769774Y01369054
X01769772Y01362052
X01749774Y01355054
X01518774Y01314054
X01372774
X013845Y0161775
Y016475
X014145
Y0161775
X0144475
Y016475
X0147475
X015045
Y0161775
X0147475
X015345
Y016475
X015645
Y0161775
Y0167775
X015345
X015045
X0147475
X0144475
X014445Y0170775
X014745
X0150425
X0153425
X0156425
X015645Y0173775
Y0176775
Y0179775
X015345
Y0176775
Y0173775
X015045
X0147475
Y0176775
X015045
Y0179775
X0147475
X0144475
Y0176775
Y0173775
X014145
Y0176775
Y0179775
X013845
Y0176775
Y0173775
X013545Y017375
X0132475Y0173775
Y0176775
Y0179775
X013545Y017975
Y017675
X0135425Y017075
X013245Y0170775
X0132475Y0167775
X013545Y016775
X013845Y0167775
X014145
X0141425Y0170775
X0138425
X013545Y0164725
Y016175
X0132475Y0161775
Y016475
X013245Y01828
X0135425Y0182775
X0138425Y01828
X0141425
X014145Y01858
X013845
X013545Y0185775
X0132475Y01858
X0144475
X0147475
X015045
X015345
X015645
X0156425Y01828
X0153425
X0150425
X014745
X014445
X015945
X016245
X0165425
X0168425
X0171425
X017145Y01858
X016845
X016545
X0162475
X0159475
Y0179775
X0162475
X016545
X016845
X017145
Y0176775
Y0173775
X016845
Y0176775
X016545
X0162475
Y0173775
X016545
X0165425Y0170775
X016245
X015945
X0159475Y0167775
X0162475
X016545
X016845
X017145
X0171425Y0170775
X0168425
X017445
X0177425
X0180425
X0183425
X018345Y0167775
X018045
X017745
X0174475
Y016475
X017745
Y0161775
X0174475
X017145
Y016475
X016845
Y0161775
X016545
Y016475
X0162475
Y0161775
X0159475
Y016475
Y0173775
Y0176775
X0174475
X017745
Y0179775
X0174475
X017445Y01828
X0177425
X0180425
X0183425
X018345Y01858
X018045
X017745
X0174475
X0186475
X018945
X0192425Y018585
X01924Y018285
X0189425Y01828
X018645
X0186475Y0179775
X018945
Y0176775
X0186475
Y0173775
X018945
X0192425Y0173825
Y0176825
Y0179825
X019545
Y0176825
Y0173825
X0195425Y0170825
X0198425
X019545Y0167825
Y01648
Y0161825
X0192425
Y01648
X018945Y016475
Y0161775
X0186475
Y016475
Y0167775
X018945
X0192425Y0167825
X01924Y0170825
X0189425Y0170775
X018645
X018345Y0173775
Y0176775
Y0179775
X018045
Y0176775
Y0173775
X017745
X0174475
X018045Y016475
Y0161775
X018345
Y016475
X0195425Y018285
X0198425
X019545Y018585
X019845
X0201475
X020445
X020745
X021045
X021345
X021645
X021945
X0219425Y018285
X0216425
X0213425
X0210425
X0207425
X0204425
X020145
X0201475Y0179825
X020445
Y0176825
X0201475
Y0173825
X020445
X020745
X021045
Y0176825
Y0179825
X020745
Y0176825
X021345
X021645
X0218275Y01771
X021945Y0176825
Y0179825
X022145Y01802138
X0222475Y0179825
X022545
Y0176825
X0222475
Y0173825
X022545
X0228475
X023145
X023445
X023745
Y0176825
Y0179825
X023445
Y0176825
X023145
X0228475
Y0179825
X023145
X0231425Y018285
X022845
X0228475Y018585
X0227125Y0185825
X022545Y018585
X0222475
X022245Y018285
X0224375Y01832
X0225425Y018285
X0234425
X0237425
X023745Y018585
X023445
X023145
X0231425Y0170825
X022845
X0228475Y0167825
X023145
X023445
X023745
X0237425Y0170825
X0234425
X023445Y01648
Y0161825
X023745
Y01648
X023145
Y0161825
X0228475
X0227425Y016205
X022545Y0161825
X0224375Y01620388
X0222475Y0161825
X022145Y01620388
X021945Y0161825
X0218275Y0162
X021645Y0161825
X0215275Y0162
X021345Y0161825
X0212175Y0162
X021045Y0161825
X02094Y01620388
X020745Y0161825
X0206325Y0162
X020445Y0161825
X0201475
Y01648
X020445
X0206375Y01651
X020745Y01648
X021045
X021345
X021645
X021945
X0222475
X022545
X0228475
X022545Y0167825
X0222475
X022245Y0170825
X0225425
X0219425
X0216425
X0213425
X0212175Y0171
X0210425Y0170825
X0207425
X0204425
X020145
X0201475Y0167825
X020445
X020745
X02094Y0168025
X021045Y0167825
X021345
X021645
X021945
Y0173825
X021645
X0215275Y0174
X021345Y0173825
Y0179825
X021645
X019845
Y0176825
Y0173825
Y0167825
Y01648
Y0161825
X0240475
Y01648
Y0167825
X024045Y0170825
X0240475Y0173825
Y0176825
Y0179825
X024045Y018285
X0240475Y018585
X0243475Y018575
X024345Y018275
X0243475Y0179725
Y0176725
Y0173725
X024345Y0170725
X0243475Y0167725
Y01647
Y0161725
T02
X01452Y0117395
X01462
X01472
X01482
X01492
Y0118895
X01482
X01472
X01462
X01452
X01852Y0118885
X01862
X01872
X01882
X01892
Y0117385
X01882
X01872
X01862
X01852
X02252
X02262
X02272
X02282
X02292
Y0118885
X02282
X02272
X02262
X02252
X0251215Y01347
Y01357
Y01367
Y01377
Y01387
X0252715
Y01377
Y01367
Y01357
Y01347
X02293Y0155385
X02283
X02273
X02263
X02253
Y0156885
X02263
X02273
X02283
X02293
X02062424Y01441554
Y01431554
Y01421554
Y01411554
X02052424
X02042424
X02032424
Y01421554
X02042424
X02052424
Y01431554
X02042424
X02032424
Y01441554
X02042424
X02052424
X01893Y0155385
X01883
X01873
X01863
X01853
Y0156885
X01863
X01873
X01883
X01893
X01493Y0156895
X01483
X01473
X01463
X01453
Y0155395
X01463
X01473
X01483
X01493
X01247Y01387
Y01377
Y01367
Y01357
Y01347
X01232
Y01357
Y01367
Y01377
Y01387
X012319Y01733
Y01743
Y01753
Y01763
Y01773
X012469
Y01763
Y01753
Y01743
Y01733
X01453Y0193395
X01463
X01473
X01483
X01493
Y0194895
X01483
X01473
X01463
X01453
X01853Y0194885
X01863
X01873
X01883
X01893
Y0193385
X01883
X01873
X01863
X01853
X02253
X02263
X02273
X02283
X02293
Y0194885
X02283
X02273
X02263
X02253
X02512Y01773
Y01763
Y01753
Y01743
Y01733
X02527
Y01743
Y01753
Y01763
Y01773
T03
X02462974Y01415429
Y01463929
T04
X02493274Y01412429
Y01466929
T05
X01264274Y01431553
Y01461555
T06
X02031774Y01217274
X02057174
X02082574
X02107974
X02133374
X02158774
X02184174
X02209574
X02234974
X02235074Y01527524
X02260474
X02285874
X02311274
X02336674
X02362074
X02209674
X02184274
X02158874
X02133474
X02108074
X02082674
X02057274
X02031874
X02006874Y01527524
X01981474
X01956074
X01930674
X01905274
X01879874
X01854474
X01829074
X01803674
X01778274
X01752874
X01727474
X01702074
X01676674
X01651274
X01625874
X01600474
X01575074
X01549674
X01524274
X01498874
X01473474
X01448074
X01422674
X01397274
X01274774Y01345854
Y01320454
Y01295054
Y01269654
X01397Y0190725
X014224
X014478
X014732
X014986
X01524
X015494
X015748
X016002
X016256
X01651
X016764
X017018
X017272
X017526
X01778
X018034
X018288
X018542
X018796
X01905
X019304
X019558
X019812
X020066
X020316Y0190725
X02057
X020824
X021078
X021332
X021586
X02184
X022094
X022348
X022602
X022856
X02311
X023364
X023618
X022347Y01597
X022093
X021839
X021585
X021331
X021077
X020823
X020569
X020315
T07
X02479274Y01222274
Y01522274
X01279274
Y01222274
X01279Y01602
Y01902
X02479
Y01602
M30
