G04*
G04 #@! TF.GenerationSoftware,Altium Limited,Altium Designer,19.0.14 (431)*
G04*
G04 Layer_Physical_Order=2*
G04 Layer_Color=16711680*
%FSLAX44Y44*%
%MOMM*%
G71*
G01*
G75*
%ADD11C,0.2540*%
%ADD13R,0.8000X0.9000*%
%ADD14R,0.9000X0.8000*%
%ADD31C,0.1520*%
%ADD32C,0.2500*%
%ADD33C,0.5000*%
%ADD34C,0.2000*%
%ADD35C,0.1270*%
%ADD36C,0.4500*%
%ADD37C,0.3000*%
%ADD38C,0.1000*%
%ADD40C,0.5000*%
%ADD41R,1.5000X1.5000*%
%ADD42C,1.5000*%
%ADD43C,3.0000*%
G04:AMPARAMS|DCode=44|XSize=2.15mm|YSize=1.05mm|CornerRadius=0.525mm|HoleSize=0mm|Usage=FLASHONLY|Rotation=180.000|XOffset=0mm|YOffset=0mm|HoleType=Round|Shape=RoundedRectangle|*
%AMROUNDEDRECTD44*
21,1,2.1500,0.0000,0,0,180.0*
21,1,1.1000,1.0500,0,0,180.0*
1,1,1.0500,-0.5500,0.0000*
1,1,1.0500,0.5500,0.0000*
1,1,1.0500,0.5500,0.0000*
1,1,1.0500,-0.5500,0.0000*
%
%ADD44ROUNDEDRECTD44*%
%ADD45C,1.0000*%
%ADD46R,1.5000X1.5000*%
%ADD47C,0.8001*%
%ADD48R,2.5000X0.4000*%
%ADD49R,1.0000X1.0000*%
%ADD50R,0.5300X0.9700*%
%ADD51R,4.9500X4.9500*%
%ADD52R,0.8400X0.2200*%
%ADD53R,0.2200X0.8400*%
%ADD54R,1.3500X1.3500*%
%ADD55R,1.6000X0.8000*%
%ADD56R,3.0000X2.1000*%
%ADD57R,0.8000X0.8000*%
%ADD58R,1.3000X1.5499*%
%ADD59C,0.4000*%
%ADD60C,0.0847*%
G36*
X2490759Y1931024D02*
X2495381Y1929109D01*
X2499541Y1926329D01*
X2503079Y1922791D01*
X2505859Y1918631D01*
X2507774Y1914009D01*
X2508750Y1909102D01*
Y1906600D01*
Y1597400D01*
Y1594898D01*
X2507774Y1589991D01*
X2505859Y1585369D01*
X2503079Y1581208D01*
X2499541Y1577670D01*
X2495381Y1574891D01*
X2490759Y1572976D01*
X2485852Y1572000D01*
X1271898D01*
X1266991Y1572976D01*
X1262368Y1574891D01*
X1258208Y1577670D01*
X1254670Y1581208D01*
X1251891Y1585369D01*
X1249976Y1589991D01*
X1249000Y1594898D01*
Y1597400D01*
Y1906600D01*
Y1909102D01*
X1249976Y1914009D01*
X1251891Y1918631D01*
X1254670Y1922791D01*
X1258208Y1926329D01*
X1262368Y1929109D01*
X1266991Y1931024D01*
X1271898Y1932000D01*
X2485852D01*
X2490759Y1931024D01*
D02*
G37*
%LPC*%
G36*
X1701800Y1916352D02*
X1699444Y1916042D01*
X1697249Y1915132D01*
X1695364Y1913686D01*
X1693918Y1911801D01*
X1693008Y1909606D01*
X1692698Y1907250D01*
X1693008Y1904894D01*
X1693713Y1903192D01*
X1652486Y1861964D01*
X1651917Y1861114D01*
X1651599Y1860901D01*
X1650709Y1859570D01*
X1650397Y1858000D01*
X1650709Y1856430D01*
X1651599Y1855099D01*
X1651651Y1855064D01*
Y1831103D01*
X1651349Y1830901D01*
X1650459Y1829570D01*
X1650147Y1828000D01*
X1650459Y1826430D01*
X1651349Y1825099D01*
X1651651Y1824897D01*
Y1800686D01*
X1651599Y1800651D01*
X1650709Y1799320D01*
X1650397Y1797750D01*
X1650709Y1796180D01*
X1651599Y1794849D01*
X1651651Y1794814D01*
Y1770686D01*
X1651599Y1770651D01*
X1650709Y1769320D01*
X1650397Y1767750D01*
X1650709Y1766180D01*
X1651599Y1764849D01*
X1651651Y1764814D01*
Y1740686D01*
X1651599Y1740651D01*
X1650709Y1739320D01*
X1650397Y1737750D01*
X1650709Y1736180D01*
X1651599Y1734849D01*
X1651651Y1734814D01*
Y1710853D01*
X1651349Y1710651D01*
X1650459Y1709320D01*
X1650147Y1707750D01*
X1650459Y1706180D01*
X1651349Y1704849D01*
X1651651Y1704647D01*
Y1680686D01*
X1651599Y1680651D01*
X1650709Y1679320D01*
X1650397Y1677750D01*
X1650709Y1676180D01*
X1651599Y1674849D01*
X1651651Y1674814D01*
Y1650436D01*
X1651599Y1650401D01*
X1650709Y1649070D01*
X1650397Y1647500D01*
X1650709Y1645930D01*
X1651599Y1644599D01*
X1651651Y1644564D01*
Y1620686D01*
X1651599Y1620651D01*
X1650709Y1619320D01*
X1650397Y1617750D01*
X1650709Y1616180D01*
X1651599Y1614849D01*
X1652930Y1613960D01*
X1654500Y1613647D01*
X1656070Y1613960D01*
X1657401Y1614849D01*
X1658291Y1616180D01*
X1658603Y1617750D01*
X1658291Y1619320D01*
X1657401Y1620651D01*
X1657349Y1620686D01*
Y1644564D01*
X1657401Y1644599D01*
X1658291Y1645930D01*
X1658603Y1647500D01*
X1658291Y1649070D01*
X1657401Y1650401D01*
X1657349Y1650436D01*
Y1674814D01*
X1657401Y1674849D01*
X1658291Y1676180D01*
X1658603Y1677750D01*
X1658291Y1679320D01*
X1657401Y1680651D01*
X1657349Y1680686D01*
Y1705145D01*
X1658040Y1706180D01*
X1658353Y1707750D01*
X1658040Y1709320D01*
X1657349Y1710355D01*
Y1734814D01*
X1657401Y1734849D01*
X1658291Y1736180D01*
X1658603Y1737750D01*
X1658291Y1739320D01*
X1657401Y1740651D01*
X1657349Y1740686D01*
Y1764814D01*
X1657401Y1764849D01*
X1658291Y1766180D01*
X1658603Y1767750D01*
X1658291Y1769320D01*
X1657401Y1770651D01*
X1657349Y1770686D01*
Y1794814D01*
X1657401Y1794849D01*
X1658291Y1796180D01*
X1658603Y1797750D01*
X1658291Y1799320D01*
X1657401Y1800651D01*
X1657349Y1800686D01*
Y1825395D01*
X1658040Y1826430D01*
X1658353Y1828000D01*
X1658040Y1829570D01*
X1657349Y1830605D01*
Y1855064D01*
X1657401Y1855099D01*
X1658291Y1856430D01*
X1658603Y1858000D01*
X1658291Y1859570D01*
X1658234Y1859655D01*
X1697742Y1899163D01*
X1699444Y1898458D01*
X1701800Y1898148D01*
X1704156Y1898458D01*
X1706351Y1899368D01*
X1708236Y1900814D01*
X1709682Y1902699D01*
X1710592Y1904894D01*
X1710902Y1907250D01*
X1710592Y1909606D01*
X1709682Y1911801D01*
X1708236Y1913686D01*
X1706351Y1915132D01*
X1704156Y1916042D01*
X1701800Y1916352D01*
D02*
G37*
G36*
X1676400D02*
X1674044Y1916042D01*
X1671849Y1915132D01*
X1669964Y1913686D01*
X1668517Y1911801D01*
X1667608Y1909606D01*
X1667298Y1907250D01*
X1667608Y1904894D01*
X1668313Y1903192D01*
X1627785Y1862664D01*
X1626764Y1862764D01*
X1625840Y1863382D01*
X1624750Y1863599D01*
X1623660Y1863382D01*
X1622736Y1862764D01*
X1622118Y1861840D01*
X1621944Y1860965D01*
X1621849Y1860901D01*
X1620959Y1859570D01*
X1620647Y1858000D01*
X1620959Y1856430D01*
X1621849Y1855099D01*
X1621901Y1855064D01*
Y1831103D01*
X1621599Y1830901D01*
X1620709Y1829570D01*
X1620397Y1828000D01*
X1620709Y1826430D01*
X1621599Y1825099D01*
X1621901Y1824897D01*
Y1800686D01*
X1621849Y1800651D01*
X1620959Y1799320D01*
X1620647Y1797750D01*
X1620959Y1796180D01*
X1621849Y1794849D01*
X1621901Y1794814D01*
Y1770686D01*
X1621849Y1770651D01*
X1620959Y1769320D01*
X1620647Y1767750D01*
X1620959Y1766180D01*
X1621849Y1764849D01*
X1621901Y1764814D01*
Y1740686D01*
X1621849Y1740651D01*
X1620959Y1739320D01*
X1620647Y1737750D01*
X1620959Y1736180D01*
X1621849Y1734849D01*
X1621901Y1734814D01*
Y1710853D01*
X1621599Y1710651D01*
X1620709Y1709320D01*
X1620397Y1707750D01*
X1620709Y1706180D01*
X1621599Y1704849D01*
X1621901Y1704647D01*
Y1680686D01*
X1621849Y1680651D01*
X1620959Y1679320D01*
X1620647Y1677750D01*
X1620959Y1676180D01*
X1621849Y1674849D01*
X1621901Y1674814D01*
Y1650436D01*
X1621849Y1650401D01*
X1620959Y1649070D01*
X1620647Y1647500D01*
X1620959Y1645930D01*
X1621849Y1644599D01*
X1621901Y1644564D01*
Y1620686D01*
X1621849Y1620651D01*
X1620959Y1619320D01*
X1620647Y1617750D01*
X1620959Y1616180D01*
X1621849Y1614849D01*
X1623180Y1613960D01*
X1624750Y1613647D01*
X1626320Y1613960D01*
X1627651Y1614849D01*
X1628540Y1616180D01*
X1628853Y1617750D01*
X1628540Y1619320D01*
X1627651Y1620651D01*
X1627599Y1620686D01*
Y1644564D01*
X1627651Y1644599D01*
X1628540Y1645930D01*
X1628853Y1647500D01*
X1628540Y1649070D01*
X1627651Y1650401D01*
X1627599Y1650436D01*
Y1674814D01*
X1627651Y1674849D01*
X1628540Y1676180D01*
X1628853Y1677750D01*
X1628540Y1679320D01*
X1627651Y1680651D01*
X1627599Y1680686D01*
Y1705145D01*
X1628291Y1706180D01*
X1628603Y1707750D01*
X1628291Y1709320D01*
X1627599Y1710355D01*
Y1734814D01*
X1627651Y1734849D01*
X1628540Y1736180D01*
X1628853Y1737750D01*
X1628540Y1739320D01*
X1627651Y1740651D01*
X1627599Y1740686D01*
Y1764814D01*
X1627651Y1764849D01*
X1628540Y1766180D01*
X1628853Y1767750D01*
X1628540Y1769320D01*
X1627651Y1770651D01*
X1627599Y1770686D01*
Y1794814D01*
X1627651Y1794849D01*
X1628540Y1796180D01*
X1628853Y1797750D01*
X1628540Y1799320D01*
X1627651Y1800651D01*
X1627599Y1800686D01*
Y1825395D01*
X1628291Y1826430D01*
X1628603Y1828000D01*
X1628291Y1829570D01*
X1627599Y1830605D01*
Y1855064D01*
X1627651Y1855099D01*
X1627768Y1855274D01*
X1628240Y1855368D01*
X1629164Y1855986D01*
X1672342Y1899163D01*
X1674044Y1898458D01*
X1676400Y1898148D01*
X1678756Y1898458D01*
X1680951Y1899368D01*
X1682836Y1900814D01*
X1684282Y1902699D01*
X1685192Y1904894D01*
X1685502Y1907250D01*
X1685192Y1909606D01*
X1684282Y1911801D01*
X1682836Y1913686D01*
X1680951Y1915132D01*
X1678756Y1916042D01*
X1676400Y1916352D01*
D02*
G37*
G36*
X1651000D02*
X1648644Y1916042D01*
X1646449Y1915132D01*
X1644564Y1913686D01*
X1643118Y1911801D01*
X1642208Y1909606D01*
X1641898Y1907250D01*
X1642208Y1904894D01*
X1642913Y1903192D01*
X1600570Y1860849D01*
X1597686D01*
X1597651Y1860901D01*
X1596320Y1861790D01*
X1594750Y1862103D01*
X1593180Y1861790D01*
X1591849Y1860901D01*
X1590959Y1859570D01*
X1590647Y1858000D01*
X1590959Y1856430D01*
X1591849Y1855099D01*
X1591901Y1855064D01*
Y1831103D01*
X1591599Y1830901D01*
X1590709Y1829570D01*
X1590397Y1828000D01*
X1590709Y1826430D01*
X1591599Y1825099D01*
X1591901Y1824897D01*
Y1800686D01*
X1591849Y1800651D01*
X1590959Y1799320D01*
X1590647Y1797750D01*
X1590959Y1796180D01*
X1591849Y1794849D01*
X1591901Y1794814D01*
Y1770686D01*
X1591849Y1770651D01*
X1590959Y1769320D01*
X1590647Y1767750D01*
X1590959Y1766180D01*
X1591849Y1764849D01*
X1591901Y1764814D01*
Y1740686D01*
X1591849Y1740651D01*
X1590959Y1739320D01*
X1590647Y1737750D01*
X1590959Y1736180D01*
X1591849Y1734849D01*
X1591901Y1734814D01*
Y1710853D01*
X1591599Y1710651D01*
X1590709Y1709320D01*
X1590397Y1707750D01*
X1590709Y1706180D01*
X1591599Y1704849D01*
X1591901Y1704647D01*
Y1680686D01*
X1591849Y1680651D01*
X1590959Y1679320D01*
X1590647Y1677750D01*
X1590959Y1676180D01*
X1591849Y1674849D01*
X1591901Y1674814D01*
Y1650436D01*
X1591849Y1650401D01*
X1590959Y1649070D01*
X1590647Y1647500D01*
X1590959Y1645930D01*
X1591849Y1644599D01*
X1591901Y1644564D01*
Y1620686D01*
X1591849Y1620651D01*
X1590959Y1619320D01*
X1590647Y1617750D01*
X1590959Y1616180D01*
X1591849Y1614849D01*
X1593180Y1613960D01*
X1594750Y1613647D01*
X1596320Y1613960D01*
X1597651Y1614849D01*
X1598540Y1616180D01*
X1598853Y1617750D01*
X1598540Y1619320D01*
X1597651Y1620651D01*
X1597599Y1620686D01*
Y1644564D01*
X1597651Y1644599D01*
X1598540Y1645930D01*
X1598853Y1647500D01*
X1598540Y1649070D01*
X1597651Y1650401D01*
X1597599Y1650436D01*
Y1674814D01*
X1597651Y1674849D01*
X1598540Y1676180D01*
X1598853Y1677750D01*
X1598540Y1679320D01*
X1597651Y1680651D01*
X1597599Y1680686D01*
Y1705145D01*
X1598291Y1706180D01*
X1598603Y1707750D01*
X1598291Y1709320D01*
X1597599Y1710355D01*
Y1734814D01*
X1597651Y1734849D01*
X1598540Y1736180D01*
X1598853Y1737750D01*
X1598540Y1739320D01*
X1597651Y1740651D01*
X1597599Y1740686D01*
Y1764814D01*
X1597651Y1764849D01*
X1598540Y1766180D01*
X1598853Y1767750D01*
X1598540Y1769320D01*
X1597651Y1770651D01*
X1597599Y1770686D01*
Y1794814D01*
X1597651Y1794849D01*
X1598540Y1796180D01*
X1598853Y1797750D01*
X1598540Y1799320D01*
X1597651Y1800651D01*
X1597599Y1800686D01*
Y1825395D01*
X1598291Y1826430D01*
X1598603Y1828000D01*
X1598291Y1829570D01*
X1597599Y1830605D01*
Y1855064D01*
X1597651Y1855099D01*
X1597686Y1855151D01*
X1601750D01*
X1601750Y1855151D01*
X1602840Y1855368D01*
X1603764Y1855986D01*
X1646942Y1899163D01*
X1648644Y1898458D01*
X1651000Y1898148D01*
X1653356Y1898458D01*
X1655551Y1899368D01*
X1657436Y1900814D01*
X1658882Y1902699D01*
X1659792Y1904894D01*
X1660102Y1907250D01*
X1659792Y1909606D01*
X1658882Y1911801D01*
X1657436Y1913686D01*
X1655551Y1915132D01*
X1653356Y1916042D01*
X1651000Y1916352D01*
D02*
G37*
G36*
X1625600D02*
X1623244Y1916042D01*
X1621049Y1915132D01*
X1619164Y1913686D01*
X1617717Y1911801D01*
X1616808Y1909606D01*
X1616498Y1907250D01*
X1616808Y1904894D01*
X1617513Y1903192D01*
X1575170Y1860849D01*
X1567436D01*
X1567401Y1860901D01*
X1566070Y1861790D01*
X1564500Y1862103D01*
X1562930Y1861790D01*
X1561599Y1860901D01*
X1560709Y1859570D01*
X1560397Y1858000D01*
X1560709Y1856430D01*
X1561599Y1855099D01*
X1561651Y1855064D01*
Y1831103D01*
X1561349Y1830901D01*
X1560459Y1829570D01*
X1560147Y1828000D01*
X1560459Y1826430D01*
X1561349Y1825099D01*
X1561651Y1824897D01*
Y1800686D01*
X1561599Y1800651D01*
X1560709Y1799320D01*
X1560397Y1797750D01*
X1560709Y1796180D01*
X1561599Y1794849D01*
X1561651Y1794814D01*
Y1770686D01*
X1561599Y1770651D01*
X1560709Y1769320D01*
X1560397Y1767750D01*
X1560709Y1766180D01*
X1561599Y1764849D01*
X1561651Y1764814D01*
Y1740686D01*
X1561599Y1740651D01*
X1560709Y1739320D01*
X1560397Y1737750D01*
X1560709Y1736180D01*
X1561599Y1734849D01*
X1561651Y1734814D01*
Y1710853D01*
X1561349Y1710651D01*
X1560459Y1709320D01*
X1560147Y1707750D01*
X1560459Y1706180D01*
X1561349Y1704849D01*
X1561651Y1704647D01*
Y1680686D01*
X1561599Y1680651D01*
X1560709Y1679320D01*
X1560397Y1677750D01*
X1560709Y1676180D01*
X1561599Y1674849D01*
X1561651Y1674814D01*
Y1650436D01*
X1561599Y1650401D01*
X1560709Y1649070D01*
X1560397Y1647500D01*
X1560709Y1645930D01*
X1561599Y1644599D01*
X1561651Y1644564D01*
Y1620686D01*
X1561599Y1620651D01*
X1560709Y1619320D01*
X1560397Y1617750D01*
X1560709Y1616180D01*
X1561599Y1614849D01*
X1562930Y1613960D01*
X1564500Y1613647D01*
X1566070Y1613960D01*
X1567401Y1614849D01*
X1568291Y1616180D01*
X1568603Y1617750D01*
X1568291Y1619320D01*
X1567401Y1620651D01*
X1567349Y1620686D01*
Y1644564D01*
X1567401Y1644599D01*
X1568291Y1645930D01*
X1568603Y1647500D01*
X1568291Y1649070D01*
X1567401Y1650401D01*
X1567349Y1650436D01*
Y1674814D01*
X1567401Y1674849D01*
X1568291Y1676180D01*
X1568603Y1677750D01*
X1568291Y1679320D01*
X1567401Y1680651D01*
X1567349Y1680686D01*
Y1705145D01*
X1568040Y1706180D01*
X1568353Y1707750D01*
X1568040Y1709320D01*
X1567349Y1710355D01*
Y1734814D01*
X1567401Y1734849D01*
X1568291Y1736180D01*
X1568603Y1737750D01*
X1568291Y1739320D01*
X1567401Y1740651D01*
X1567349Y1740686D01*
Y1764814D01*
X1567401Y1764849D01*
X1568291Y1766180D01*
X1568603Y1767750D01*
X1568291Y1769320D01*
X1567401Y1770651D01*
X1567349Y1770686D01*
Y1794814D01*
X1567401Y1794849D01*
X1568291Y1796180D01*
X1568603Y1797750D01*
X1568291Y1799320D01*
X1567401Y1800651D01*
X1567349Y1800686D01*
Y1825395D01*
X1568040Y1826430D01*
X1568353Y1828000D01*
X1568040Y1829570D01*
X1567349Y1830605D01*
Y1855064D01*
X1567401Y1855099D01*
X1567436Y1855151D01*
X1576350D01*
X1576350Y1855151D01*
X1577440Y1855368D01*
X1578364Y1855986D01*
X1621542Y1899163D01*
X1623244Y1898458D01*
X1625600Y1898148D01*
X1627956Y1898458D01*
X1630151Y1899368D01*
X1632036Y1900814D01*
X1633482Y1902699D01*
X1634392Y1904894D01*
X1634702Y1907250D01*
X1634392Y1909606D01*
X1633482Y1911801D01*
X1632036Y1913686D01*
X1630151Y1915132D01*
X1627956Y1916042D01*
X1625600Y1916352D01*
D02*
G37*
G36*
X1600200D02*
X1597844Y1916042D01*
X1595649Y1915132D01*
X1593764Y1913686D01*
X1592318Y1911801D01*
X1591408Y1909606D01*
X1591098Y1907250D01*
X1591408Y1904894D01*
X1592113Y1903192D01*
X1549770Y1860849D01*
X1537436D01*
X1537401Y1860901D01*
X1536070Y1861790D01*
X1535315Y1861941D01*
X1534897Y1863319D01*
X1570742Y1899163D01*
X1572444Y1898458D01*
X1574800Y1898148D01*
X1577156Y1898458D01*
X1579351Y1899368D01*
X1581236Y1900814D01*
X1582682Y1902699D01*
X1583592Y1904894D01*
X1583902Y1907250D01*
X1583592Y1909606D01*
X1582682Y1911801D01*
X1581236Y1913686D01*
X1579351Y1915132D01*
X1577156Y1916042D01*
X1574800Y1916352D01*
X1572444Y1916042D01*
X1570249Y1915132D01*
X1568364Y1913686D01*
X1566918Y1911801D01*
X1566008Y1909606D01*
X1565698Y1907250D01*
X1566008Y1904894D01*
X1566713Y1903192D01*
X1524370Y1860849D01*
X1508677D01*
X1508457Y1861116D01*
X1508421Y1861328D01*
X1508779Y1862728D01*
X1509164Y1862986D01*
X1545342Y1899163D01*
X1547044Y1898458D01*
X1549400Y1898148D01*
X1551756Y1898458D01*
X1553951Y1899368D01*
X1555836Y1900814D01*
X1557282Y1902699D01*
X1558192Y1904894D01*
X1558502Y1907250D01*
X1558192Y1909606D01*
X1557282Y1911801D01*
X1555836Y1913686D01*
X1553951Y1915132D01*
X1551756Y1916042D01*
X1549400Y1916352D01*
X1547044Y1916042D01*
X1544849Y1915132D01*
X1542964Y1913686D01*
X1541517Y1911801D01*
X1540608Y1909606D01*
X1540298Y1907250D01*
X1540608Y1904894D01*
X1541313Y1903192D01*
X1505970Y1867849D01*
X1490423D01*
X1489897Y1869119D01*
X1519942Y1899163D01*
X1521644Y1898458D01*
X1524000Y1898148D01*
X1526356Y1898458D01*
X1528551Y1899368D01*
X1530436Y1900814D01*
X1531882Y1902699D01*
X1532792Y1904894D01*
X1533102Y1907250D01*
X1532792Y1909606D01*
X1531882Y1911801D01*
X1530436Y1913686D01*
X1528551Y1915132D01*
X1526356Y1916042D01*
X1524000Y1916352D01*
X1521644Y1916042D01*
X1519449Y1915132D01*
X1517564Y1913686D01*
X1516118Y1911801D01*
X1515208Y1909606D01*
X1514898Y1907250D01*
X1515208Y1904894D01*
X1515913Y1903192D01*
X1486320Y1873599D01*
X1457500D01*
X1457500Y1873599D01*
X1456410Y1873382D01*
X1455486Y1872764D01*
X1444812Y1862090D01*
X1444750Y1862103D01*
X1443180Y1861790D01*
X1441849Y1860901D01*
X1440959Y1859570D01*
X1440647Y1858000D01*
X1440959Y1856430D01*
X1441849Y1855099D01*
X1441901Y1855064D01*
Y1831103D01*
X1441599Y1830901D01*
X1440709Y1829570D01*
X1440397Y1828000D01*
X1440709Y1826430D01*
X1441599Y1825099D01*
X1441901Y1824897D01*
Y1800686D01*
X1441849Y1800651D01*
X1440959Y1799320D01*
X1440647Y1797750D01*
X1440959Y1796180D01*
X1441849Y1794849D01*
X1441901Y1794814D01*
Y1770686D01*
X1441849Y1770651D01*
X1440959Y1769320D01*
X1440647Y1767750D01*
X1440959Y1766180D01*
X1441849Y1764849D01*
X1441901Y1764814D01*
Y1740686D01*
X1441849Y1740651D01*
X1440959Y1739320D01*
X1440647Y1737750D01*
X1440959Y1736180D01*
X1441849Y1734849D01*
X1441901Y1734814D01*
Y1710853D01*
X1441599Y1710651D01*
X1440709Y1709320D01*
X1440397Y1707750D01*
X1440709Y1706180D01*
X1441599Y1704849D01*
X1441901Y1704647D01*
Y1680686D01*
X1441849Y1680651D01*
X1440959Y1679320D01*
X1440647Y1677750D01*
X1440959Y1676180D01*
X1441849Y1674849D01*
X1441901Y1674814D01*
Y1650436D01*
X1441849Y1650401D01*
X1440959Y1649070D01*
X1440647Y1647500D01*
X1440959Y1645930D01*
X1441849Y1644599D01*
X1441901Y1644564D01*
Y1620686D01*
X1441849Y1620651D01*
X1440959Y1619320D01*
X1440647Y1617750D01*
X1440959Y1616180D01*
X1441849Y1614849D01*
X1443180Y1613960D01*
X1444750Y1613647D01*
X1446320Y1613960D01*
X1447651Y1614849D01*
X1448540Y1616180D01*
X1448853Y1617750D01*
X1448540Y1619320D01*
X1447651Y1620651D01*
X1447599Y1620686D01*
Y1644564D01*
X1447651Y1644599D01*
X1448540Y1645930D01*
X1448853Y1647500D01*
X1448540Y1649070D01*
X1447651Y1650401D01*
X1447599Y1650436D01*
Y1674814D01*
X1447651Y1674849D01*
X1448540Y1676180D01*
X1448853Y1677750D01*
X1448540Y1679320D01*
X1447651Y1680651D01*
X1447599Y1680686D01*
Y1705145D01*
X1448291Y1706180D01*
X1448603Y1707750D01*
X1448291Y1709320D01*
X1447599Y1710355D01*
Y1734814D01*
X1447651Y1734849D01*
X1448540Y1736180D01*
X1448853Y1737750D01*
X1448540Y1739320D01*
X1447651Y1740651D01*
X1447599Y1740686D01*
Y1764814D01*
X1447651Y1764849D01*
X1448540Y1766180D01*
X1448853Y1767750D01*
X1448540Y1769320D01*
X1447651Y1770651D01*
X1447599Y1770686D01*
Y1794814D01*
X1447651Y1794849D01*
X1448540Y1796180D01*
X1448853Y1797750D01*
X1448540Y1799320D01*
X1447651Y1800651D01*
X1447599Y1800686D01*
Y1825395D01*
X1448291Y1826430D01*
X1448603Y1828000D01*
X1448291Y1829570D01*
X1447599Y1830605D01*
Y1855064D01*
X1447651Y1855099D01*
X1448540Y1856430D01*
X1448853Y1858000D01*
X1448840Y1858062D01*
X1458680Y1867901D01*
X1478826D01*
X1479353Y1866631D01*
X1474812Y1862090D01*
X1474750Y1862103D01*
X1473180Y1861790D01*
X1471849Y1860901D01*
X1470959Y1859570D01*
X1470647Y1858000D01*
X1470959Y1856430D01*
X1471849Y1855099D01*
X1471901Y1855064D01*
Y1831103D01*
X1471599Y1830901D01*
X1470709Y1829570D01*
X1470397Y1828000D01*
X1470709Y1826430D01*
X1471599Y1825099D01*
X1471901Y1824897D01*
Y1800686D01*
X1471849Y1800651D01*
X1470959Y1799320D01*
X1470647Y1797750D01*
X1470959Y1796180D01*
X1471849Y1794849D01*
X1471901Y1794814D01*
Y1770686D01*
X1471849Y1770651D01*
X1470959Y1769320D01*
X1470647Y1767750D01*
X1470959Y1766180D01*
X1471849Y1764849D01*
X1471901Y1764814D01*
Y1740686D01*
X1471849Y1740651D01*
X1470959Y1739320D01*
X1470647Y1737750D01*
X1470959Y1736180D01*
X1471849Y1734849D01*
X1471901Y1734814D01*
Y1710853D01*
X1471599Y1710651D01*
X1470709Y1709320D01*
X1470397Y1707750D01*
X1470709Y1706180D01*
X1471599Y1704849D01*
X1471901Y1704647D01*
Y1680686D01*
X1471849Y1680651D01*
X1470959Y1679320D01*
X1470647Y1677750D01*
X1470959Y1676180D01*
X1471849Y1674849D01*
X1471901Y1674814D01*
Y1650436D01*
X1471849Y1650401D01*
X1470959Y1649070D01*
X1470647Y1647500D01*
X1470959Y1645930D01*
X1471849Y1644599D01*
X1471901Y1644564D01*
Y1620686D01*
X1471849Y1620651D01*
X1470959Y1619320D01*
X1470647Y1617750D01*
X1470959Y1616180D01*
X1471849Y1614849D01*
X1473180Y1613960D01*
X1474750Y1613647D01*
X1476320Y1613960D01*
X1477651Y1614849D01*
X1478540Y1616180D01*
X1478853Y1617750D01*
X1478540Y1619320D01*
X1477651Y1620651D01*
X1477599Y1620686D01*
Y1644564D01*
X1477651Y1644599D01*
X1478540Y1645930D01*
X1478853Y1647500D01*
X1478540Y1649070D01*
X1477651Y1650401D01*
X1477599Y1650436D01*
Y1674814D01*
X1477651Y1674849D01*
X1478540Y1676180D01*
X1478853Y1677750D01*
X1478540Y1679320D01*
X1477651Y1680651D01*
X1477599Y1680686D01*
Y1705145D01*
X1478291Y1706180D01*
X1478603Y1707750D01*
X1478291Y1709320D01*
X1477599Y1710355D01*
Y1734814D01*
X1477651Y1734849D01*
X1478540Y1736180D01*
X1478853Y1737750D01*
X1478540Y1739320D01*
X1477651Y1740651D01*
X1477599Y1740686D01*
Y1764814D01*
X1477651Y1764849D01*
X1478540Y1766180D01*
X1478853Y1767750D01*
X1478540Y1769320D01*
X1477651Y1770651D01*
X1477599Y1770686D01*
Y1794814D01*
X1477651Y1794849D01*
X1478540Y1796180D01*
X1478853Y1797750D01*
X1478540Y1799320D01*
X1477651Y1800651D01*
X1477599Y1800686D01*
Y1825395D01*
X1478291Y1826430D01*
X1478603Y1828000D01*
X1478291Y1829570D01*
X1477599Y1830605D01*
Y1855064D01*
X1477651Y1855099D01*
X1478540Y1856430D01*
X1478853Y1858000D01*
X1478840Y1858062D01*
X1482930Y1862151D01*
X1501184D01*
X1501599Y1860901D01*
X1500709Y1859570D01*
X1500397Y1858000D01*
X1500709Y1856430D01*
X1501599Y1855099D01*
X1501651Y1855064D01*
Y1831103D01*
X1501349Y1830901D01*
X1500459Y1829570D01*
X1500147Y1828000D01*
X1500459Y1826430D01*
X1501349Y1825099D01*
X1501651Y1824897D01*
Y1800686D01*
X1501599Y1800651D01*
X1500709Y1799320D01*
X1500397Y1797750D01*
X1500709Y1796180D01*
X1501599Y1794849D01*
X1501651Y1794814D01*
Y1770686D01*
X1501599Y1770651D01*
X1500709Y1769320D01*
X1500397Y1767750D01*
X1500709Y1766180D01*
X1501599Y1764849D01*
X1501651Y1764814D01*
Y1740686D01*
X1501599Y1740651D01*
X1500709Y1739320D01*
X1500397Y1737750D01*
X1500709Y1736180D01*
X1501599Y1734849D01*
X1501651Y1734814D01*
Y1710853D01*
X1501349Y1710651D01*
X1500459Y1709320D01*
X1500147Y1707750D01*
X1500459Y1706180D01*
X1501349Y1704849D01*
X1501651Y1704647D01*
Y1680686D01*
X1501599Y1680651D01*
X1500709Y1679320D01*
X1500397Y1677750D01*
X1500709Y1676180D01*
X1501599Y1674849D01*
X1501651Y1674814D01*
Y1650436D01*
X1501599Y1650401D01*
X1500709Y1649070D01*
X1500397Y1647500D01*
X1500709Y1645930D01*
X1501599Y1644599D01*
X1501651Y1644564D01*
Y1620686D01*
X1501599Y1620651D01*
X1500709Y1619320D01*
X1500397Y1617750D01*
X1500709Y1616180D01*
X1501599Y1614849D01*
X1502930Y1613960D01*
X1504500Y1613647D01*
X1506070Y1613960D01*
X1507401Y1614849D01*
X1508291Y1616180D01*
X1508603Y1617750D01*
X1508291Y1619320D01*
X1507401Y1620651D01*
X1507349Y1620686D01*
Y1644564D01*
X1507401Y1644599D01*
X1508291Y1645930D01*
X1508603Y1647500D01*
X1508291Y1649070D01*
X1507401Y1650401D01*
X1507349Y1650436D01*
Y1674814D01*
X1507401Y1674849D01*
X1508291Y1676180D01*
X1508603Y1677750D01*
X1508291Y1679320D01*
X1507401Y1680651D01*
X1507349Y1680686D01*
Y1705145D01*
X1508040Y1706180D01*
X1508353Y1707750D01*
X1508040Y1709320D01*
X1507349Y1710355D01*
Y1734814D01*
X1507401Y1734849D01*
X1508291Y1736180D01*
X1508603Y1737750D01*
X1508291Y1739320D01*
X1507401Y1740651D01*
X1507349Y1740686D01*
Y1764814D01*
X1507401Y1764849D01*
X1508291Y1766180D01*
X1508603Y1767750D01*
X1508291Y1769320D01*
X1507401Y1770651D01*
X1507349Y1770686D01*
Y1794814D01*
X1507401Y1794849D01*
X1508291Y1796180D01*
X1508603Y1797750D01*
X1508291Y1799320D01*
X1507401Y1800651D01*
X1507349Y1800686D01*
Y1825395D01*
X1508040Y1826430D01*
X1508353Y1828000D01*
X1508040Y1829570D01*
X1507349Y1830605D01*
Y1855064D01*
X1507401Y1855099D01*
X1507436Y1855151D01*
X1525550D01*
X1525550Y1855151D01*
X1526640Y1855368D01*
X1527564Y1855986D01*
X1529181Y1857603D01*
X1530559Y1857184D01*
X1530709Y1856430D01*
X1531599Y1855099D01*
X1531651Y1855064D01*
Y1831103D01*
X1531349Y1830901D01*
X1530459Y1829570D01*
X1530147Y1828000D01*
X1530459Y1826430D01*
X1531349Y1825099D01*
X1531651Y1824897D01*
Y1800686D01*
X1531599Y1800651D01*
X1530709Y1799320D01*
X1530397Y1797750D01*
X1530709Y1796180D01*
X1531599Y1794849D01*
X1531651Y1794814D01*
Y1770686D01*
X1531599Y1770651D01*
X1530709Y1769320D01*
X1530397Y1767750D01*
X1530709Y1766180D01*
X1531599Y1764849D01*
X1531651Y1764814D01*
Y1740686D01*
X1531599Y1740651D01*
X1530709Y1739320D01*
X1530397Y1737750D01*
X1530709Y1736180D01*
X1531599Y1734849D01*
X1531651Y1734814D01*
Y1710853D01*
X1531349Y1710651D01*
X1530459Y1709320D01*
X1530147Y1707750D01*
X1530459Y1706180D01*
X1531349Y1704849D01*
X1531651Y1704647D01*
Y1680686D01*
X1531599Y1680651D01*
X1530709Y1679320D01*
X1530397Y1677750D01*
X1530709Y1676180D01*
X1531599Y1674849D01*
X1531651Y1674814D01*
Y1650436D01*
X1531599Y1650401D01*
X1530709Y1649070D01*
X1530397Y1647500D01*
X1530709Y1645930D01*
X1531599Y1644599D01*
X1531651Y1644564D01*
Y1620686D01*
X1531599Y1620651D01*
X1530709Y1619320D01*
X1530397Y1617750D01*
X1530709Y1616180D01*
X1531599Y1614849D01*
X1532930Y1613960D01*
X1534500Y1613647D01*
X1536070Y1613960D01*
X1537401Y1614849D01*
X1538290Y1616180D01*
X1538603Y1617750D01*
X1538290Y1619320D01*
X1537401Y1620651D01*
X1537349Y1620686D01*
Y1644564D01*
X1537401Y1644599D01*
X1538290Y1645930D01*
X1538603Y1647500D01*
X1538290Y1649070D01*
X1537401Y1650401D01*
X1537349Y1650436D01*
Y1674814D01*
X1537401Y1674849D01*
X1538290Y1676180D01*
X1538603Y1677750D01*
X1538290Y1679320D01*
X1537401Y1680651D01*
X1537349Y1680686D01*
Y1705145D01*
X1538040Y1706180D01*
X1538353Y1707750D01*
X1538040Y1709320D01*
X1537349Y1710355D01*
Y1734814D01*
X1537401Y1734849D01*
X1538290Y1736180D01*
X1538603Y1737750D01*
X1538290Y1739320D01*
X1537401Y1740651D01*
X1537349Y1740686D01*
Y1764814D01*
X1537401Y1764849D01*
X1538290Y1766180D01*
X1538603Y1767750D01*
X1538290Y1769320D01*
X1537401Y1770651D01*
X1537349Y1770686D01*
Y1794814D01*
X1537401Y1794849D01*
X1538290Y1796180D01*
X1538603Y1797750D01*
X1538290Y1799320D01*
X1537401Y1800651D01*
X1537349Y1800686D01*
Y1825395D01*
X1538040Y1826430D01*
X1538353Y1828000D01*
X1538040Y1829570D01*
X1537349Y1830605D01*
Y1855064D01*
X1537401Y1855099D01*
X1537436Y1855151D01*
X1550950D01*
X1550950Y1855151D01*
X1552040Y1855368D01*
X1552964Y1855986D01*
X1596142Y1899163D01*
X1597844Y1898458D01*
X1600200Y1898148D01*
X1602556Y1898458D01*
X1604751Y1899368D01*
X1606636Y1900814D01*
X1608082Y1902699D01*
X1608992Y1904894D01*
X1609302Y1907250D01*
X1608992Y1909606D01*
X1608082Y1911801D01*
X1606636Y1913686D01*
X1604751Y1915132D01*
X1602556Y1916042D01*
X1600200Y1916352D01*
D02*
G37*
G36*
X1498600D02*
X1496244Y1916042D01*
X1494049Y1915132D01*
X1492164Y1913686D01*
X1490717Y1911801D01*
X1489808Y1909606D01*
X1489498Y1907250D01*
X1489808Y1904894D01*
X1490513Y1903192D01*
X1467920Y1880599D01*
X1452374D01*
X1451847Y1881869D01*
X1469142Y1899163D01*
X1470844Y1898458D01*
X1473200Y1898148D01*
X1475556Y1898458D01*
X1477751Y1899368D01*
X1479636Y1900814D01*
X1481082Y1902699D01*
X1481992Y1904894D01*
X1482302Y1907250D01*
X1481992Y1909606D01*
X1481082Y1911801D01*
X1479636Y1913686D01*
X1477751Y1915132D01*
X1475556Y1916042D01*
X1473200Y1916352D01*
X1470844Y1916042D01*
X1468649Y1915132D01*
X1466764Y1913686D01*
X1465318Y1911801D01*
X1464408Y1909606D01*
X1464098Y1907250D01*
X1464408Y1904894D01*
X1465113Y1903192D01*
X1448270Y1886349D01*
X1432018D01*
X1431890Y1887618D01*
X1432814Y1888236D01*
X1443742Y1899163D01*
X1445444Y1898458D01*
X1447800Y1898148D01*
X1450156Y1898458D01*
X1452351Y1899368D01*
X1454236Y1900814D01*
X1455682Y1902699D01*
X1456592Y1904894D01*
X1456902Y1907250D01*
X1456592Y1909606D01*
X1455682Y1911801D01*
X1454236Y1913686D01*
X1452351Y1915132D01*
X1450156Y1916042D01*
X1447800Y1916352D01*
X1445444Y1916042D01*
X1443249Y1915132D01*
X1441364Y1913686D01*
X1439917Y1911801D01*
X1439008Y1909606D01*
X1438698Y1907250D01*
X1439008Y1904894D01*
X1439713Y1903192D01*
X1429620Y1893099D01*
X1413999D01*
X1413629Y1893818D01*
X1413547Y1894369D01*
X1418342Y1899163D01*
X1420044Y1898458D01*
X1422400Y1898148D01*
X1424756Y1898458D01*
X1426951Y1899368D01*
X1428836Y1900814D01*
X1430282Y1902699D01*
X1431192Y1904894D01*
X1431502Y1907250D01*
X1431192Y1909606D01*
X1430282Y1911801D01*
X1428836Y1913686D01*
X1426951Y1915132D01*
X1424756Y1916042D01*
X1422400Y1916352D01*
X1420044Y1916042D01*
X1417849Y1915132D01*
X1415964Y1913686D01*
X1414518Y1911801D01*
X1413608Y1909606D01*
X1413298Y1907250D01*
X1413608Y1904894D01*
X1414313Y1903192D01*
X1410220Y1899099D01*
X1406024D01*
Y1916274D01*
X1387976D01*
Y1899099D01*
X1363000D01*
X1361910Y1898882D01*
X1360986Y1898264D01*
X1360986Y1898264D01*
X1324812Y1862090D01*
X1324750Y1862103D01*
X1323180Y1861790D01*
X1321849Y1860901D01*
X1320959Y1859570D01*
X1320647Y1858000D01*
X1320959Y1856430D01*
X1321849Y1855099D01*
X1321901Y1855064D01*
Y1831103D01*
X1321599Y1830901D01*
X1320709Y1829570D01*
X1320397Y1828000D01*
X1320709Y1826430D01*
X1321599Y1825099D01*
X1321901Y1824897D01*
Y1800686D01*
X1321849Y1800651D01*
X1320959Y1799320D01*
X1320647Y1797750D01*
X1320959Y1796180D01*
X1321849Y1794849D01*
X1321901Y1794814D01*
Y1770686D01*
X1321849Y1770651D01*
X1320959Y1769320D01*
X1320647Y1767750D01*
X1320959Y1766180D01*
X1321849Y1764849D01*
X1321901Y1764814D01*
Y1740686D01*
X1321849Y1740651D01*
X1320959Y1739320D01*
X1320647Y1737750D01*
X1320959Y1736180D01*
X1321849Y1734849D01*
X1321901Y1734814D01*
Y1710853D01*
X1321599Y1710651D01*
X1320709Y1709320D01*
X1320397Y1707750D01*
X1320709Y1706180D01*
X1321599Y1704849D01*
X1321901Y1704647D01*
Y1680686D01*
X1321849Y1680651D01*
X1320959Y1679320D01*
X1320647Y1677750D01*
X1320959Y1676180D01*
X1321849Y1674849D01*
X1321901Y1674814D01*
Y1650436D01*
X1321849Y1650401D01*
X1320959Y1649070D01*
X1320647Y1647500D01*
X1320959Y1645930D01*
X1321849Y1644599D01*
X1321901Y1644564D01*
Y1620686D01*
X1321849Y1620651D01*
X1320959Y1619320D01*
X1320647Y1617750D01*
X1320959Y1616180D01*
X1321849Y1614849D01*
X1323180Y1613960D01*
X1324750Y1613647D01*
X1326320Y1613960D01*
X1327651Y1614849D01*
X1328540Y1616180D01*
X1328853Y1617750D01*
X1328540Y1619320D01*
X1327651Y1620651D01*
X1327599Y1620686D01*
Y1644564D01*
X1327651Y1644599D01*
X1328540Y1645930D01*
X1328853Y1647500D01*
X1328540Y1649070D01*
X1327651Y1650401D01*
X1327599Y1650436D01*
Y1674814D01*
X1327651Y1674849D01*
X1328540Y1676180D01*
X1328853Y1677750D01*
X1328540Y1679320D01*
X1327651Y1680651D01*
X1327599Y1680686D01*
Y1705145D01*
X1328291Y1706180D01*
X1328603Y1707750D01*
X1328291Y1709320D01*
X1327599Y1710355D01*
Y1734814D01*
X1327651Y1734849D01*
X1328540Y1736180D01*
X1328853Y1737750D01*
X1328540Y1739320D01*
X1327651Y1740651D01*
X1327599Y1740686D01*
Y1764814D01*
X1327651Y1764849D01*
X1328540Y1766180D01*
X1328853Y1767750D01*
X1328540Y1769320D01*
X1327651Y1770651D01*
X1327599Y1770686D01*
Y1794814D01*
X1327651Y1794849D01*
X1328540Y1796180D01*
X1328853Y1797750D01*
X1328540Y1799320D01*
X1327651Y1800651D01*
X1327599Y1800686D01*
Y1825395D01*
X1328291Y1826430D01*
X1328603Y1828000D01*
X1328291Y1829570D01*
X1327599Y1830605D01*
Y1855064D01*
X1327651Y1855099D01*
X1328540Y1856430D01*
X1328853Y1858000D01*
X1328840Y1858062D01*
X1364180Y1893401D01*
X1384401D01*
X1384771Y1892682D01*
X1384852Y1892131D01*
X1354562Y1861841D01*
X1354500Y1861853D01*
X1352930Y1861541D01*
X1351599Y1860651D01*
X1350709Y1859320D01*
X1350397Y1857750D01*
X1350709Y1856180D01*
X1351599Y1854849D01*
X1351651Y1854814D01*
Y1830853D01*
X1351349Y1830651D01*
X1350459Y1829320D01*
X1350147Y1827750D01*
X1350459Y1826180D01*
X1351349Y1824849D01*
X1351651Y1824647D01*
Y1800436D01*
X1351599Y1800401D01*
X1350709Y1799070D01*
X1350397Y1797500D01*
X1350709Y1795930D01*
X1351599Y1794599D01*
X1351651Y1794564D01*
Y1770436D01*
X1351599Y1770401D01*
X1350709Y1769070D01*
X1350397Y1767500D01*
X1350709Y1765930D01*
X1351599Y1764599D01*
X1351651Y1764564D01*
Y1740436D01*
X1351599Y1740401D01*
X1350709Y1739070D01*
X1350397Y1737500D01*
X1350709Y1735930D01*
X1351599Y1734599D01*
X1351651Y1734564D01*
Y1710603D01*
X1351349Y1710401D01*
X1350459Y1709070D01*
X1350147Y1707500D01*
X1350459Y1705930D01*
X1351349Y1704599D01*
X1351651Y1704397D01*
Y1680436D01*
X1351599Y1680401D01*
X1350709Y1679070D01*
X1350397Y1677500D01*
X1350709Y1675930D01*
X1351599Y1674599D01*
X1351651Y1674564D01*
Y1650186D01*
X1351599Y1650151D01*
X1350709Y1648820D01*
X1350397Y1647250D01*
X1350709Y1645680D01*
X1351599Y1644349D01*
X1351651Y1644314D01*
Y1620436D01*
X1351599Y1620401D01*
X1350709Y1619070D01*
X1350397Y1617500D01*
X1350709Y1615930D01*
X1351599Y1614599D01*
X1352930Y1613710D01*
X1354500Y1613397D01*
X1356070Y1613710D01*
X1357401Y1614599D01*
X1358291Y1615930D01*
X1358603Y1617500D01*
X1358291Y1619070D01*
X1357401Y1620401D01*
X1357349Y1620436D01*
Y1644314D01*
X1357401Y1644349D01*
X1358291Y1645680D01*
X1358603Y1647250D01*
X1358291Y1648820D01*
X1357401Y1650151D01*
X1357349Y1650186D01*
Y1674564D01*
X1357401Y1674599D01*
X1358291Y1675930D01*
X1358603Y1677500D01*
X1358291Y1679070D01*
X1357401Y1680401D01*
X1357349Y1680436D01*
Y1704895D01*
X1358040Y1705930D01*
X1358353Y1707500D01*
X1358040Y1709070D01*
X1357349Y1710105D01*
Y1734564D01*
X1357401Y1734599D01*
X1358291Y1735930D01*
X1358603Y1737500D01*
X1358291Y1739070D01*
X1357401Y1740401D01*
X1357349Y1740436D01*
Y1764564D01*
X1357401Y1764599D01*
X1358291Y1765930D01*
X1358603Y1767500D01*
X1358291Y1769070D01*
X1357401Y1770401D01*
X1357349Y1770436D01*
Y1794564D01*
X1357401Y1794599D01*
X1358291Y1795930D01*
X1358603Y1797500D01*
X1358291Y1799070D01*
X1357401Y1800401D01*
X1357349Y1800436D01*
Y1825145D01*
X1358040Y1826180D01*
X1358353Y1827750D01*
X1358040Y1829320D01*
X1357349Y1830355D01*
Y1854814D01*
X1357401Y1854849D01*
X1358291Y1856180D01*
X1358603Y1857750D01*
X1358591Y1857812D01*
X1388180Y1887401D01*
X1408781D01*
X1408910Y1886132D01*
X1407986Y1885514D01*
X1407986Y1885514D01*
X1384562Y1862090D01*
X1384500Y1862103D01*
X1382930Y1861790D01*
X1381599Y1860901D01*
X1380709Y1859570D01*
X1380397Y1858000D01*
X1380709Y1856430D01*
X1381599Y1855099D01*
X1381651Y1855064D01*
Y1831103D01*
X1381349Y1830901D01*
X1380459Y1829570D01*
X1380147Y1828000D01*
X1380459Y1826430D01*
X1381349Y1825099D01*
X1381651Y1824897D01*
Y1800686D01*
X1381599Y1800651D01*
X1380709Y1799320D01*
X1380397Y1797750D01*
X1380709Y1796180D01*
X1381599Y1794849D01*
X1381651Y1794814D01*
Y1770686D01*
X1381599Y1770651D01*
X1380709Y1769320D01*
X1380397Y1767750D01*
X1380709Y1766180D01*
X1381599Y1764849D01*
X1381651Y1764814D01*
Y1740686D01*
X1381599Y1740651D01*
X1380709Y1739320D01*
X1380397Y1737750D01*
X1380709Y1736180D01*
X1381599Y1734849D01*
X1381651Y1734814D01*
Y1710853D01*
X1381349Y1710651D01*
X1380459Y1709320D01*
X1380147Y1707750D01*
X1380459Y1706180D01*
X1381349Y1704849D01*
X1381651Y1704647D01*
Y1680686D01*
X1381599Y1680651D01*
X1380709Y1679320D01*
X1380397Y1677750D01*
X1380709Y1676180D01*
X1381599Y1674849D01*
X1381651Y1674814D01*
Y1650436D01*
X1381599Y1650401D01*
X1380709Y1649070D01*
X1380397Y1647500D01*
X1380709Y1645930D01*
X1381599Y1644599D01*
X1381651Y1644564D01*
Y1620686D01*
X1381599Y1620651D01*
X1380709Y1619320D01*
X1380397Y1617750D01*
X1380709Y1616180D01*
X1381599Y1614849D01*
X1382930Y1613960D01*
X1384500Y1613647D01*
X1386070Y1613960D01*
X1387401Y1614849D01*
X1388290Y1616180D01*
X1388603Y1617750D01*
X1388290Y1619320D01*
X1387401Y1620651D01*
X1387349Y1620686D01*
Y1644564D01*
X1387401Y1644599D01*
X1388290Y1645930D01*
X1388603Y1647500D01*
X1388290Y1649070D01*
X1387401Y1650401D01*
X1387349Y1650436D01*
Y1674814D01*
X1387401Y1674849D01*
X1388290Y1676180D01*
X1388603Y1677750D01*
X1388290Y1679320D01*
X1387401Y1680651D01*
X1387349Y1680686D01*
Y1705145D01*
X1388040Y1706180D01*
X1388353Y1707750D01*
X1388040Y1709320D01*
X1387349Y1710355D01*
Y1734814D01*
X1387401Y1734849D01*
X1388290Y1736180D01*
X1388603Y1737750D01*
X1388290Y1739320D01*
X1387401Y1740651D01*
X1387349Y1740686D01*
Y1764814D01*
X1387401Y1764849D01*
X1388290Y1766180D01*
X1388603Y1767750D01*
X1388290Y1769320D01*
X1387401Y1770651D01*
X1387349Y1770686D01*
Y1794814D01*
X1387401Y1794849D01*
X1388290Y1796180D01*
X1388603Y1797750D01*
X1388290Y1799320D01*
X1387401Y1800651D01*
X1387349Y1800686D01*
Y1825395D01*
X1388040Y1826430D01*
X1388353Y1828000D01*
X1388040Y1829570D01*
X1387349Y1830605D01*
Y1855064D01*
X1387401Y1855099D01*
X1388290Y1856430D01*
X1388603Y1858000D01*
X1388591Y1858062D01*
X1411180Y1880651D01*
X1431326D01*
X1431852Y1879381D01*
X1414562Y1862090D01*
X1414500Y1862103D01*
X1412930Y1861790D01*
X1411599Y1860901D01*
X1410709Y1859570D01*
X1410397Y1858000D01*
X1410709Y1856430D01*
X1411599Y1855099D01*
X1411651Y1855064D01*
Y1831103D01*
X1411349Y1830901D01*
X1410459Y1829570D01*
X1410147Y1828000D01*
X1410459Y1826430D01*
X1411349Y1825099D01*
X1411651Y1824897D01*
Y1800686D01*
X1411599Y1800651D01*
X1410709Y1799320D01*
X1410397Y1797750D01*
X1410709Y1796180D01*
X1411599Y1794849D01*
X1411651Y1794814D01*
Y1770686D01*
X1411599Y1770651D01*
X1410709Y1769320D01*
X1410397Y1767750D01*
X1410709Y1766180D01*
X1411599Y1764849D01*
X1411651Y1764814D01*
Y1740686D01*
X1411599Y1740651D01*
X1410709Y1739320D01*
X1410397Y1737750D01*
X1410709Y1736180D01*
X1411599Y1734849D01*
X1411651Y1734814D01*
Y1710853D01*
X1411349Y1710651D01*
X1410459Y1709320D01*
X1410147Y1707750D01*
X1410459Y1706180D01*
X1411349Y1704849D01*
X1411651Y1704647D01*
Y1680686D01*
X1411599Y1680651D01*
X1410709Y1679320D01*
X1410397Y1677750D01*
X1410709Y1676180D01*
X1411599Y1674849D01*
X1411651Y1674814D01*
Y1650436D01*
X1411599Y1650401D01*
X1410709Y1649070D01*
X1410397Y1647500D01*
X1410709Y1645930D01*
X1411599Y1644599D01*
X1411651Y1644564D01*
Y1620686D01*
X1411599Y1620651D01*
X1410709Y1619320D01*
X1410397Y1617750D01*
X1410709Y1616180D01*
X1411599Y1614849D01*
X1412930Y1613960D01*
X1414500Y1613647D01*
X1416070Y1613960D01*
X1417401Y1614849D01*
X1418291Y1616180D01*
X1418603Y1617750D01*
X1418291Y1619320D01*
X1417401Y1620651D01*
X1417349Y1620686D01*
Y1644564D01*
X1417401Y1644599D01*
X1418291Y1645930D01*
X1418603Y1647500D01*
X1418291Y1649070D01*
X1417401Y1650401D01*
X1417349Y1650436D01*
Y1674814D01*
X1417401Y1674849D01*
X1418291Y1676180D01*
X1418603Y1677750D01*
X1418291Y1679320D01*
X1417401Y1680651D01*
X1417349Y1680686D01*
Y1705145D01*
X1418040Y1706180D01*
X1418353Y1707750D01*
X1418040Y1709320D01*
X1417349Y1710355D01*
Y1734814D01*
X1417401Y1734849D01*
X1418291Y1736180D01*
X1418603Y1737750D01*
X1418291Y1739320D01*
X1417401Y1740651D01*
X1417349Y1740686D01*
Y1764814D01*
X1417401Y1764849D01*
X1418291Y1766180D01*
X1418603Y1767750D01*
X1418291Y1769320D01*
X1417401Y1770651D01*
X1417349Y1770686D01*
Y1794814D01*
X1417401Y1794849D01*
X1418291Y1796180D01*
X1418603Y1797750D01*
X1418291Y1799320D01*
X1417401Y1800651D01*
X1417349Y1800686D01*
Y1825395D01*
X1418040Y1826430D01*
X1418353Y1828000D01*
X1418040Y1829570D01*
X1417349Y1830605D01*
Y1855064D01*
X1417401Y1855099D01*
X1418291Y1856430D01*
X1418603Y1858000D01*
X1418591Y1858062D01*
X1435430Y1874901D01*
X1469100D01*
X1469100Y1874901D01*
X1470190Y1875118D01*
X1471114Y1875736D01*
X1494542Y1899163D01*
X1496244Y1898458D01*
X1498600Y1898148D01*
X1500956Y1898458D01*
X1503151Y1899368D01*
X1505036Y1900814D01*
X1506482Y1902699D01*
X1507392Y1904894D01*
X1507702Y1907250D01*
X1507392Y1909606D01*
X1506482Y1911801D01*
X1505036Y1913686D01*
X1503151Y1915132D01*
X1500956Y1916042D01*
X1498600Y1916352D01*
D02*
G37*
G36*
X2479000Y1918604D02*
X2475761Y1918285D01*
X2472646Y1917340D01*
X2469775Y1915806D01*
X2467259Y1913741D01*
X2465194Y1911225D01*
X2463660Y1908354D01*
X2462715Y1905239D01*
X2462396Y1902000D01*
X2462715Y1898761D01*
X2463660Y1895646D01*
X2465194Y1892775D01*
X2467259Y1890259D01*
X2469775Y1888194D01*
X2472646Y1886660D01*
X2475761Y1885715D01*
X2479000Y1885396D01*
X2482239Y1885715D01*
X2485354Y1886660D01*
X2488225Y1888194D01*
X2490741Y1890259D01*
X2492806Y1892775D01*
X2494340Y1895646D01*
X2495285Y1898761D01*
X2495604Y1902000D01*
X2495285Y1905239D01*
X2494340Y1908354D01*
X2492806Y1911225D01*
X2490741Y1913741D01*
X2488225Y1915806D01*
X2485354Y1917340D01*
X2482239Y1918285D01*
X2479000Y1918604D01*
D02*
G37*
G36*
X1279000D02*
X1275761Y1918285D01*
X1272646Y1917340D01*
X1269775Y1915806D01*
X1267259Y1913741D01*
X1265194Y1911225D01*
X1263660Y1908354D01*
X1262715Y1905239D01*
X1262396Y1902000D01*
X1262715Y1898761D01*
X1263660Y1895646D01*
X1265194Y1892775D01*
X1267259Y1890259D01*
X1269775Y1888194D01*
X1272646Y1886660D01*
X1275761Y1885715D01*
X1279000Y1885396D01*
X1282239Y1885715D01*
X1285354Y1886660D01*
X1288225Y1888194D01*
X1290741Y1890259D01*
X1292806Y1892775D01*
X1294340Y1895646D01*
X1295285Y1898761D01*
X1295604Y1902000D01*
X1295285Y1905239D01*
X1294340Y1908354D01*
X1292806Y1911225D01*
X1290741Y1913741D01*
X1288225Y1915806D01*
X1285354Y1917340D01*
X1282239Y1918285D01*
X1279000Y1918604D01*
D02*
G37*
G36*
X1930400Y1916352D02*
X1928044Y1916042D01*
X1925849Y1915132D01*
X1923964Y1913686D01*
X1922518Y1911801D01*
X1921608Y1909606D01*
X1921298Y1907250D01*
X1921608Y1904894D01*
X1922518Y1902699D01*
X1923964Y1900814D01*
X1925849Y1899368D01*
X1927551Y1898663D01*
Y1865830D01*
X1924312Y1862590D01*
X1924250Y1862603D01*
X1922680Y1862290D01*
X1921349Y1861401D01*
X1920459Y1860070D01*
X1920147Y1858500D01*
X1920459Y1856930D01*
X1921349Y1855599D01*
X1921401Y1855564D01*
Y1831603D01*
X1921099Y1831401D01*
X1920209Y1830070D01*
X1919897Y1828500D01*
X1920209Y1826930D01*
X1921099Y1825599D01*
X1921401Y1825397D01*
Y1801186D01*
X1921349Y1801151D01*
X1920459Y1799820D01*
X1920147Y1798250D01*
X1920459Y1796680D01*
X1921349Y1795349D01*
X1921401Y1795314D01*
Y1771186D01*
X1921349Y1771151D01*
X1920459Y1769820D01*
X1920147Y1768250D01*
X1920459Y1766680D01*
X1921349Y1765349D01*
X1921401Y1765314D01*
Y1741186D01*
X1921349Y1741151D01*
X1920459Y1739820D01*
X1920147Y1738250D01*
X1920459Y1736680D01*
X1921349Y1735349D01*
X1921401Y1735314D01*
Y1711353D01*
X1921099Y1711151D01*
X1920209Y1709820D01*
X1919897Y1708250D01*
X1920209Y1706680D01*
X1921099Y1705349D01*
X1921401Y1705147D01*
Y1681186D01*
X1921349Y1681151D01*
X1920459Y1679820D01*
X1920147Y1678250D01*
X1920459Y1676680D01*
X1921349Y1675349D01*
X1921401Y1675314D01*
Y1650936D01*
X1921349Y1650901D01*
X1920459Y1649570D01*
X1920147Y1648000D01*
X1920459Y1646430D01*
X1921349Y1645099D01*
X1921401Y1645064D01*
Y1621186D01*
X1921349Y1621151D01*
X1920459Y1619820D01*
X1920147Y1618250D01*
X1920459Y1616680D01*
X1921349Y1615349D01*
X1922680Y1614460D01*
X1924250Y1614147D01*
X1925820Y1614460D01*
X1927151Y1615349D01*
X1928040Y1616680D01*
X1928353Y1618250D01*
X1928040Y1619820D01*
X1927151Y1621151D01*
X1927099Y1621186D01*
Y1645064D01*
X1927151Y1645099D01*
X1928040Y1646430D01*
X1928353Y1648000D01*
X1928040Y1649570D01*
X1927151Y1650901D01*
X1927099Y1650936D01*
Y1675314D01*
X1927151Y1675349D01*
X1928040Y1676680D01*
X1928353Y1678250D01*
X1928040Y1679820D01*
X1927151Y1681151D01*
X1927099Y1681186D01*
Y1705645D01*
X1927791Y1706680D01*
X1928103Y1708250D01*
X1927791Y1709820D01*
X1927099Y1710855D01*
Y1735314D01*
X1927151Y1735349D01*
X1928040Y1736680D01*
X1928353Y1738250D01*
X1928040Y1739820D01*
X1927151Y1741151D01*
X1927099Y1741186D01*
Y1765314D01*
X1927151Y1765349D01*
X1928040Y1766680D01*
X1928353Y1768250D01*
X1928040Y1769820D01*
X1927151Y1771151D01*
X1927099Y1771186D01*
Y1795314D01*
X1927151Y1795349D01*
X1928040Y1796680D01*
X1928353Y1798250D01*
X1928040Y1799820D01*
X1927151Y1801151D01*
X1927099Y1801186D01*
Y1825895D01*
X1927791Y1826930D01*
X1928103Y1828500D01*
X1927791Y1830070D01*
X1927099Y1831105D01*
Y1855564D01*
X1927151Y1855599D01*
X1928040Y1856930D01*
X1928353Y1858500D01*
X1928340Y1858562D01*
X1932414Y1862636D01*
X1932414Y1862636D01*
X1933032Y1863560D01*
X1933249Y1864650D01*
Y1898663D01*
X1934951Y1899368D01*
X1936836Y1900814D01*
X1938282Y1902699D01*
X1939192Y1904894D01*
X1939502Y1907250D01*
X1939192Y1909606D01*
X1938282Y1911801D01*
X1936836Y1913686D01*
X1934951Y1915132D01*
X1932756Y1916042D01*
X1930400Y1916352D01*
D02*
G37*
G36*
X1727200D02*
X1724844Y1916042D01*
X1722649Y1915132D01*
X1720764Y1913686D01*
X1719317Y1911801D01*
X1718408Y1909606D01*
X1718098Y1907250D01*
X1718408Y1904894D01*
X1719317Y1902699D01*
X1720764Y1900814D01*
X1721427Y1900306D01*
X1721510Y1899038D01*
X1684562Y1862090D01*
X1684500Y1862103D01*
X1682930Y1861790D01*
X1681599Y1860901D01*
X1680709Y1859570D01*
X1680397Y1858000D01*
X1680709Y1856430D01*
X1681599Y1855099D01*
X1681651Y1855064D01*
Y1831103D01*
X1681349Y1830901D01*
X1680459Y1829570D01*
X1680147Y1828000D01*
X1680459Y1826430D01*
X1681349Y1825099D01*
X1681651Y1824897D01*
Y1800686D01*
X1681599Y1800651D01*
X1680709Y1799320D01*
X1680397Y1797750D01*
X1680709Y1796180D01*
X1681599Y1794849D01*
X1681651Y1794814D01*
Y1770686D01*
X1681599Y1770651D01*
X1680709Y1769320D01*
X1680397Y1767750D01*
X1680709Y1766180D01*
X1681599Y1764849D01*
X1681651Y1764814D01*
Y1740686D01*
X1681599Y1740651D01*
X1680709Y1739320D01*
X1680397Y1737750D01*
X1680709Y1736180D01*
X1681599Y1734849D01*
X1681651Y1734814D01*
Y1710853D01*
X1681349Y1710651D01*
X1680459Y1709320D01*
X1680147Y1707750D01*
X1680459Y1706180D01*
X1681349Y1704849D01*
X1681651Y1704647D01*
Y1680686D01*
X1681599Y1680651D01*
X1680709Y1679320D01*
X1680397Y1677750D01*
X1680709Y1676180D01*
X1681599Y1674849D01*
X1681651Y1674814D01*
Y1650436D01*
X1681599Y1650401D01*
X1680709Y1649070D01*
X1680397Y1647500D01*
X1680709Y1645930D01*
X1681599Y1644599D01*
X1681651Y1644564D01*
Y1620686D01*
X1681599Y1620651D01*
X1680709Y1619320D01*
X1680397Y1617750D01*
X1680709Y1616180D01*
X1681599Y1614849D01*
X1682930Y1613960D01*
X1684500Y1613647D01*
X1686070Y1613960D01*
X1687401Y1614849D01*
X1688291Y1616180D01*
X1688603Y1617750D01*
X1688291Y1619320D01*
X1687401Y1620651D01*
X1687349Y1620686D01*
Y1644564D01*
X1687401Y1644599D01*
X1688291Y1645930D01*
X1688603Y1647500D01*
X1688291Y1649070D01*
X1687401Y1650401D01*
X1687349Y1650436D01*
Y1674814D01*
X1687401Y1674849D01*
X1688291Y1676180D01*
X1688603Y1677750D01*
X1688291Y1679320D01*
X1687401Y1680651D01*
X1687349Y1680686D01*
Y1705145D01*
X1688040Y1706180D01*
X1688353Y1707750D01*
X1688040Y1709320D01*
X1687349Y1710355D01*
Y1734814D01*
X1687401Y1734849D01*
X1688291Y1736180D01*
X1688603Y1737750D01*
X1688291Y1739320D01*
X1687401Y1740651D01*
X1687349Y1740686D01*
Y1764814D01*
X1687401Y1764849D01*
X1688291Y1766180D01*
X1688603Y1767750D01*
X1688291Y1769320D01*
X1687401Y1770651D01*
X1687349Y1770686D01*
Y1794814D01*
X1687401Y1794849D01*
X1688291Y1796180D01*
X1688603Y1797750D01*
X1688291Y1799320D01*
X1687401Y1800651D01*
X1687349Y1800686D01*
Y1825395D01*
X1688040Y1826430D01*
X1688353Y1828000D01*
X1688040Y1829570D01*
X1687349Y1830605D01*
Y1855064D01*
X1687401Y1855099D01*
X1688291Y1856430D01*
X1688603Y1858000D01*
X1688591Y1858062D01*
X1728901Y1898372D01*
X1729556Y1898458D01*
X1731751Y1899368D01*
X1733636Y1900814D01*
X1735082Y1902699D01*
X1735992Y1904894D01*
X1736302Y1907250D01*
X1735992Y1909606D01*
X1735082Y1911801D01*
X1733636Y1913686D01*
X1731751Y1915132D01*
X1729556Y1916042D01*
X1727200Y1916352D01*
D02*
G37*
G36*
X1752600D02*
X1750244Y1916042D01*
X1748049Y1915132D01*
X1746164Y1913686D01*
X1744718Y1911801D01*
X1743808Y1909606D01*
X1743498Y1907250D01*
X1743808Y1904894D01*
X1744718Y1902699D01*
X1746164Y1900814D01*
X1748049Y1899368D01*
X1749751Y1898663D01*
Y1897280D01*
X1714562Y1862090D01*
X1714500Y1862103D01*
X1712930Y1861790D01*
X1711599Y1860901D01*
X1710709Y1859570D01*
X1710397Y1858000D01*
X1710709Y1856430D01*
X1711599Y1855099D01*
X1711651Y1855064D01*
Y1831103D01*
X1711349Y1830901D01*
X1710459Y1829570D01*
X1710147Y1828000D01*
X1710459Y1826430D01*
X1711349Y1825099D01*
X1711651Y1824897D01*
Y1800686D01*
X1711599Y1800651D01*
X1710709Y1799320D01*
X1710397Y1797750D01*
X1710709Y1796180D01*
X1711599Y1794849D01*
X1711651Y1794814D01*
Y1770686D01*
X1711599Y1770651D01*
X1710709Y1769320D01*
X1710397Y1767750D01*
X1710709Y1766180D01*
X1711599Y1764849D01*
X1711651Y1764814D01*
Y1740686D01*
X1711599Y1740651D01*
X1710709Y1739320D01*
X1710397Y1737750D01*
X1710709Y1736180D01*
X1711599Y1734849D01*
X1711651Y1734814D01*
Y1710853D01*
X1711349Y1710651D01*
X1710459Y1709320D01*
X1710147Y1707750D01*
X1710459Y1706180D01*
X1711349Y1704849D01*
X1711651Y1704647D01*
Y1680686D01*
X1711599Y1680651D01*
X1710709Y1679320D01*
X1710397Y1677750D01*
X1710709Y1676180D01*
X1711599Y1674849D01*
X1711651Y1674814D01*
Y1650436D01*
X1711599Y1650401D01*
X1710709Y1649070D01*
X1710397Y1647500D01*
X1710709Y1645930D01*
X1711599Y1644599D01*
X1711651Y1644564D01*
Y1620686D01*
X1711599Y1620651D01*
X1710709Y1619320D01*
X1710397Y1617750D01*
X1710709Y1616180D01*
X1711599Y1614849D01*
X1712930Y1613960D01*
X1714500Y1613647D01*
X1716070Y1613960D01*
X1717401Y1614849D01*
X1718290Y1616180D01*
X1718603Y1617750D01*
X1718290Y1619320D01*
X1717401Y1620651D01*
X1717349Y1620686D01*
Y1644564D01*
X1717401Y1644599D01*
X1718290Y1645930D01*
X1718603Y1647500D01*
X1718290Y1649070D01*
X1717401Y1650401D01*
X1717349Y1650436D01*
Y1674814D01*
X1717401Y1674849D01*
X1718290Y1676180D01*
X1718603Y1677750D01*
X1718290Y1679320D01*
X1717401Y1680651D01*
X1717349Y1680686D01*
Y1705145D01*
X1718040Y1706180D01*
X1718353Y1707750D01*
X1718040Y1709320D01*
X1717349Y1710355D01*
Y1734814D01*
X1717401Y1734849D01*
X1718290Y1736180D01*
X1718603Y1737750D01*
X1718290Y1739320D01*
X1717401Y1740651D01*
X1717349Y1740686D01*
Y1764814D01*
X1717401Y1764849D01*
X1718290Y1766180D01*
X1718603Y1767750D01*
X1718290Y1769320D01*
X1717401Y1770651D01*
X1717349Y1770686D01*
Y1794814D01*
X1717401Y1794849D01*
X1718290Y1796180D01*
X1718603Y1797750D01*
X1718290Y1799320D01*
X1717401Y1800651D01*
X1717349Y1800686D01*
Y1825395D01*
X1718040Y1826430D01*
X1718353Y1828000D01*
X1718040Y1829570D01*
X1717349Y1830605D01*
Y1855064D01*
X1717401Y1855099D01*
X1718290Y1856430D01*
X1718603Y1858000D01*
X1718591Y1858062D01*
X1754614Y1894086D01*
X1754614Y1894086D01*
X1755232Y1895010D01*
X1755449Y1896100D01*
X1755449Y1896100D01*
Y1898663D01*
X1757151Y1899368D01*
X1759036Y1900814D01*
X1760482Y1902699D01*
X1761392Y1904894D01*
X1761702Y1907250D01*
X1761392Y1909606D01*
X1760482Y1911801D01*
X1759036Y1913686D01*
X1757151Y1915132D01*
X1754956Y1916042D01*
X1752600Y1916352D01*
D02*
G37*
G36*
X1778000D02*
X1775644Y1916042D01*
X1773449Y1915132D01*
X1771564Y1913686D01*
X1770117Y1911801D01*
X1769208Y1909606D01*
X1768898Y1907250D01*
X1769208Y1904894D01*
X1770117Y1902699D01*
X1771564Y1900814D01*
X1773449Y1899368D01*
X1775151Y1898663D01*
Y1892430D01*
X1744812Y1862090D01*
X1744750Y1862103D01*
X1743180Y1861790D01*
X1741849Y1860901D01*
X1740959Y1859570D01*
X1740647Y1858000D01*
X1740959Y1856430D01*
X1741849Y1855099D01*
X1741901Y1855064D01*
Y1831103D01*
X1741599Y1830901D01*
X1740709Y1829570D01*
X1740397Y1828000D01*
X1740709Y1826430D01*
X1741599Y1825099D01*
X1741901Y1824897D01*
Y1800686D01*
X1741849Y1800651D01*
X1740959Y1799320D01*
X1740647Y1797750D01*
X1740959Y1796180D01*
X1741849Y1794849D01*
X1741901Y1794814D01*
Y1770686D01*
X1741849Y1770651D01*
X1740959Y1769320D01*
X1740647Y1767750D01*
X1740959Y1766180D01*
X1741849Y1764849D01*
X1741901Y1764814D01*
Y1740686D01*
X1741849Y1740651D01*
X1740959Y1739320D01*
X1740647Y1737750D01*
X1740959Y1736180D01*
X1741849Y1734849D01*
X1741901Y1734814D01*
Y1710853D01*
X1741599Y1710651D01*
X1740709Y1709320D01*
X1740397Y1707750D01*
X1740709Y1706180D01*
X1741599Y1704849D01*
X1741901Y1704647D01*
Y1680686D01*
X1741849Y1680651D01*
X1740959Y1679320D01*
X1740647Y1677750D01*
X1740959Y1676180D01*
X1741849Y1674849D01*
X1741901Y1674814D01*
Y1650436D01*
X1741849Y1650401D01*
X1740959Y1649070D01*
X1740647Y1647500D01*
X1740959Y1645930D01*
X1741849Y1644599D01*
X1741901Y1644564D01*
Y1620686D01*
X1741849Y1620651D01*
X1740959Y1619320D01*
X1740647Y1617750D01*
X1740959Y1616180D01*
X1741849Y1614849D01*
X1743180Y1613960D01*
X1744750Y1613647D01*
X1746320Y1613960D01*
X1747651Y1614849D01*
X1748540Y1616180D01*
X1748853Y1617750D01*
X1748540Y1619320D01*
X1747651Y1620651D01*
X1747599Y1620686D01*
Y1644564D01*
X1747651Y1644599D01*
X1748540Y1645930D01*
X1748853Y1647500D01*
X1748540Y1649070D01*
X1747651Y1650401D01*
X1747599Y1650436D01*
Y1674814D01*
X1747651Y1674849D01*
X1748540Y1676180D01*
X1748853Y1677750D01*
X1748540Y1679320D01*
X1747651Y1680651D01*
X1747599Y1680686D01*
Y1705145D01*
X1748291Y1706180D01*
X1748603Y1707750D01*
X1748291Y1709320D01*
X1747599Y1710355D01*
Y1734814D01*
X1747651Y1734849D01*
X1748540Y1736180D01*
X1748853Y1737750D01*
X1748540Y1739320D01*
X1747651Y1740651D01*
X1747599Y1740686D01*
Y1764814D01*
X1747651Y1764849D01*
X1748540Y1766180D01*
X1748853Y1767750D01*
X1748540Y1769320D01*
X1747651Y1770651D01*
X1747599Y1770686D01*
Y1794814D01*
X1747651Y1794849D01*
X1748540Y1796180D01*
X1748853Y1797750D01*
X1748540Y1799320D01*
X1747651Y1800651D01*
X1747599Y1800686D01*
Y1825395D01*
X1748291Y1826430D01*
X1748603Y1828000D01*
X1748291Y1829570D01*
X1747599Y1830605D01*
Y1855064D01*
X1747651Y1855099D01*
X1748540Y1856430D01*
X1748853Y1858000D01*
X1748840Y1858062D01*
X1780014Y1889236D01*
X1780014Y1889236D01*
X1780632Y1890160D01*
X1780849Y1891250D01*
X1780849Y1891250D01*
Y1898663D01*
X1782551Y1899368D01*
X1784436Y1900814D01*
X1785882Y1902699D01*
X1786792Y1904894D01*
X1787102Y1907250D01*
X1786792Y1909606D01*
X1785882Y1911801D01*
X1784436Y1913686D01*
X1782551Y1915132D01*
X1780356Y1916042D01*
X1778000Y1916352D01*
D02*
G37*
G36*
X1803400D02*
X1801044Y1916042D01*
X1798849Y1915132D01*
X1796964Y1913686D01*
X1795517Y1911801D01*
X1794608Y1909606D01*
X1794298Y1907250D01*
X1794608Y1904894D01*
X1795517Y1902699D01*
X1796964Y1900814D01*
X1798849Y1899368D01*
X1800551Y1898663D01*
Y1888080D01*
X1774562Y1862090D01*
X1774500Y1862103D01*
X1772930Y1861790D01*
X1771599Y1860901D01*
X1770709Y1859570D01*
X1770397Y1858000D01*
X1770709Y1856430D01*
X1771599Y1855099D01*
X1771651Y1855064D01*
Y1831103D01*
X1771349Y1830901D01*
X1770459Y1829570D01*
X1770147Y1828000D01*
X1770459Y1826430D01*
X1771349Y1825099D01*
X1771651Y1824897D01*
Y1800686D01*
X1771599Y1800651D01*
X1770709Y1799320D01*
X1770397Y1797750D01*
X1770709Y1796180D01*
X1771599Y1794849D01*
X1771651Y1794814D01*
Y1770686D01*
X1771599Y1770651D01*
X1770709Y1769320D01*
X1770397Y1767750D01*
X1770709Y1766180D01*
X1771599Y1764849D01*
X1771651Y1764814D01*
Y1740686D01*
X1771599Y1740651D01*
X1770709Y1739320D01*
X1770397Y1737750D01*
X1770709Y1736180D01*
X1771599Y1734849D01*
X1771651Y1734814D01*
Y1710853D01*
X1771349Y1710651D01*
X1770459Y1709320D01*
X1770147Y1707750D01*
X1770459Y1706180D01*
X1771349Y1704849D01*
X1771651Y1704647D01*
Y1680686D01*
X1771599Y1680651D01*
X1770709Y1679320D01*
X1770397Y1677750D01*
X1770709Y1676180D01*
X1771599Y1674849D01*
X1771651Y1674814D01*
Y1650436D01*
X1771599Y1650401D01*
X1770709Y1649070D01*
X1770397Y1647500D01*
X1770709Y1645930D01*
X1771599Y1644599D01*
X1771651Y1644564D01*
Y1620686D01*
X1771599Y1620651D01*
X1770709Y1619320D01*
X1770397Y1617750D01*
X1770709Y1616180D01*
X1771599Y1614849D01*
X1772930Y1613960D01*
X1774500Y1613647D01*
X1776070Y1613960D01*
X1777401Y1614849D01*
X1778290Y1616180D01*
X1778603Y1617750D01*
X1778290Y1619320D01*
X1777401Y1620651D01*
X1777349Y1620686D01*
Y1644564D01*
X1777401Y1644599D01*
X1778290Y1645930D01*
X1778603Y1647500D01*
X1778290Y1649070D01*
X1777401Y1650401D01*
X1777349Y1650436D01*
Y1674814D01*
X1777401Y1674849D01*
X1778290Y1676180D01*
X1778603Y1677750D01*
X1778290Y1679320D01*
X1777401Y1680651D01*
X1777349Y1680686D01*
Y1705145D01*
X1778040Y1706180D01*
X1778353Y1707750D01*
X1778040Y1709320D01*
X1777349Y1710355D01*
Y1734814D01*
X1777401Y1734849D01*
X1778290Y1736180D01*
X1778603Y1737750D01*
X1778290Y1739320D01*
X1777401Y1740651D01*
X1777349Y1740686D01*
Y1764814D01*
X1777401Y1764849D01*
X1778290Y1766180D01*
X1778603Y1767750D01*
X1778290Y1769320D01*
X1777401Y1770651D01*
X1777349Y1770686D01*
Y1794814D01*
X1777401Y1794849D01*
X1778290Y1796180D01*
X1778603Y1797750D01*
X1778290Y1799320D01*
X1777401Y1800651D01*
X1777349Y1800686D01*
Y1825395D01*
X1778040Y1826430D01*
X1778353Y1828000D01*
X1778040Y1829570D01*
X1777349Y1830605D01*
Y1855064D01*
X1777401Y1855099D01*
X1778290Y1856430D01*
X1778603Y1858000D01*
X1778591Y1858062D01*
X1805414Y1884886D01*
X1805414Y1884886D01*
X1806032Y1885810D01*
X1806249Y1886900D01*
X1806249Y1886900D01*
Y1898663D01*
X1807951Y1899368D01*
X1809836Y1900814D01*
X1811282Y1902699D01*
X1812192Y1904894D01*
X1812502Y1907250D01*
X1812192Y1909606D01*
X1811282Y1911801D01*
X1809836Y1913686D01*
X1807951Y1915132D01*
X1805756Y1916042D01*
X1803400Y1916352D01*
D02*
G37*
G36*
X1828800D02*
X1826444Y1916042D01*
X1824249Y1915132D01*
X1822364Y1913686D01*
X1820918Y1911801D01*
X1820008Y1909606D01*
X1819698Y1907250D01*
X1820008Y1904894D01*
X1820918Y1902699D01*
X1822364Y1900814D01*
X1824249Y1899368D01*
X1825951Y1898663D01*
Y1883480D01*
X1804562Y1862090D01*
X1804500Y1862103D01*
X1802930Y1861790D01*
X1801599Y1860901D01*
X1800709Y1859570D01*
X1800397Y1858000D01*
X1800709Y1856430D01*
X1801599Y1855099D01*
X1801651Y1855064D01*
Y1831103D01*
X1801349Y1830901D01*
X1800459Y1829570D01*
X1800147Y1828000D01*
X1800459Y1826430D01*
X1801349Y1825099D01*
X1801651Y1824897D01*
Y1800686D01*
X1801599Y1800651D01*
X1800709Y1799320D01*
X1800397Y1797750D01*
X1800709Y1796180D01*
X1801599Y1794849D01*
X1801651Y1794814D01*
Y1770686D01*
X1801599Y1770651D01*
X1800709Y1769320D01*
X1800397Y1767750D01*
X1800709Y1766180D01*
X1801599Y1764849D01*
X1801651Y1764814D01*
Y1740686D01*
X1801599Y1740651D01*
X1800709Y1739320D01*
X1800397Y1737750D01*
X1800709Y1736180D01*
X1801599Y1734849D01*
X1801651Y1734814D01*
Y1710853D01*
X1801349Y1710651D01*
X1800459Y1709320D01*
X1800147Y1707750D01*
X1800459Y1706180D01*
X1801349Y1704849D01*
X1801651Y1704647D01*
Y1680686D01*
X1801599Y1680651D01*
X1800709Y1679320D01*
X1800397Y1677750D01*
X1800709Y1676180D01*
X1801599Y1674849D01*
X1801651Y1674814D01*
Y1650436D01*
X1801599Y1650401D01*
X1800709Y1649070D01*
X1800397Y1647500D01*
X1800709Y1645930D01*
X1801599Y1644599D01*
X1801651Y1644564D01*
Y1620686D01*
X1801599Y1620651D01*
X1800709Y1619320D01*
X1800397Y1617750D01*
X1800709Y1616180D01*
X1801599Y1614849D01*
X1802930Y1613960D01*
X1804500Y1613647D01*
X1806070Y1613960D01*
X1807401Y1614849D01*
X1808291Y1616180D01*
X1808603Y1617750D01*
X1808291Y1619320D01*
X1807401Y1620651D01*
X1807349Y1620686D01*
Y1644564D01*
X1807401Y1644599D01*
X1808291Y1645930D01*
X1808603Y1647500D01*
X1808291Y1649070D01*
X1807401Y1650401D01*
X1807349Y1650436D01*
Y1674814D01*
X1807401Y1674849D01*
X1808291Y1676180D01*
X1808603Y1677750D01*
X1808291Y1679320D01*
X1807401Y1680651D01*
X1807349Y1680686D01*
Y1705145D01*
X1808040Y1706180D01*
X1808353Y1707750D01*
X1808040Y1709320D01*
X1807349Y1710355D01*
Y1734814D01*
X1807401Y1734849D01*
X1808291Y1736180D01*
X1808603Y1737750D01*
X1808291Y1739320D01*
X1807401Y1740651D01*
X1807349Y1740686D01*
Y1764814D01*
X1807401Y1764849D01*
X1808291Y1766180D01*
X1808603Y1767750D01*
X1808291Y1769320D01*
X1807401Y1770651D01*
X1807349Y1770686D01*
Y1794814D01*
X1807401Y1794849D01*
X1808291Y1796180D01*
X1808603Y1797750D01*
X1808291Y1799320D01*
X1807401Y1800651D01*
X1807349Y1800686D01*
Y1825395D01*
X1808040Y1826430D01*
X1808353Y1828000D01*
X1808040Y1829570D01*
X1807349Y1830605D01*
Y1855064D01*
X1807401Y1855099D01*
X1808291Y1856430D01*
X1808603Y1858000D01*
X1808591Y1858062D01*
X1830814Y1880286D01*
X1830814Y1880286D01*
X1831432Y1881210D01*
X1831649Y1882300D01*
Y1898663D01*
X1833351Y1899368D01*
X1835236Y1900814D01*
X1836682Y1902699D01*
X1837592Y1904894D01*
X1837902Y1907250D01*
X1837592Y1909606D01*
X1836682Y1911801D01*
X1835236Y1913686D01*
X1833351Y1915132D01*
X1831156Y1916042D01*
X1828800Y1916352D01*
D02*
G37*
G36*
X1854200D02*
X1851844Y1916042D01*
X1849649Y1915132D01*
X1847764Y1913686D01*
X1846317Y1911801D01*
X1845408Y1909606D01*
X1845098Y1907250D01*
X1845408Y1904894D01*
X1846317Y1902699D01*
X1847764Y1900814D01*
X1849649Y1899368D01*
X1851351Y1898663D01*
Y1878880D01*
X1834562Y1862090D01*
X1834500Y1862103D01*
X1832930Y1861790D01*
X1831599Y1860901D01*
X1830709Y1859570D01*
X1830397Y1858000D01*
X1830709Y1856430D01*
X1831599Y1855099D01*
X1831651Y1855064D01*
Y1831103D01*
X1831349Y1830901D01*
X1830459Y1829570D01*
X1830147Y1828000D01*
X1830459Y1826430D01*
X1831349Y1825099D01*
X1831651Y1824897D01*
Y1800686D01*
X1831599Y1800651D01*
X1830709Y1799320D01*
X1830397Y1797750D01*
X1830709Y1796180D01*
X1831599Y1794849D01*
X1831651Y1794814D01*
Y1770686D01*
X1831599Y1770651D01*
X1830709Y1769320D01*
X1830397Y1767750D01*
X1830709Y1766180D01*
X1831599Y1764849D01*
X1831651Y1764814D01*
Y1740686D01*
X1831599Y1740651D01*
X1830709Y1739320D01*
X1830397Y1737750D01*
X1830709Y1736180D01*
X1831599Y1734849D01*
X1831651Y1734814D01*
Y1710853D01*
X1831349Y1710651D01*
X1830459Y1709320D01*
X1830147Y1707750D01*
X1830459Y1706180D01*
X1831349Y1704849D01*
X1831651Y1704647D01*
Y1680686D01*
X1831599Y1680651D01*
X1830709Y1679320D01*
X1830397Y1677750D01*
X1830709Y1676180D01*
X1831599Y1674849D01*
X1831651Y1674814D01*
Y1650436D01*
X1831599Y1650401D01*
X1830709Y1649070D01*
X1830397Y1647500D01*
X1830709Y1645930D01*
X1831599Y1644599D01*
X1831651Y1644564D01*
Y1620686D01*
X1831599Y1620651D01*
X1830709Y1619320D01*
X1830397Y1617750D01*
X1830709Y1616180D01*
X1831599Y1614849D01*
X1832930Y1613960D01*
X1834500Y1613647D01*
X1836070Y1613960D01*
X1837401Y1614849D01*
X1838291Y1616180D01*
X1838603Y1617750D01*
X1838291Y1619320D01*
X1837401Y1620651D01*
X1837349Y1620686D01*
Y1644564D01*
X1837401Y1644599D01*
X1838291Y1645930D01*
X1838603Y1647500D01*
X1838291Y1649070D01*
X1837401Y1650401D01*
X1837349Y1650436D01*
Y1674814D01*
X1837401Y1674849D01*
X1838291Y1676180D01*
X1838603Y1677750D01*
X1838291Y1679320D01*
X1837401Y1680651D01*
X1837349Y1680686D01*
Y1705145D01*
X1838040Y1706180D01*
X1838353Y1707750D01*
X1838040Y1709320D01*
X1837349Y1710355D01*
Y1734814D01*
X1837401Y1734849D01*
X1838291Y1736180D01*
X1838603Y1737750D01*
X1838291Y1739320D01*
X1837401Y1740651D01*
X1837349Y1740686D01*
Y1764814D01*
X1837401Y1764849D01*
X1838291Y1766180D01*
X1838603Y1767750D01*
X1838291Y1769320D01*
X1837401Y1770651D01*
X1837349Y1770686D01*
Y1794814D01*
X1837401Y1794849D01*
X1838291Y1796180D01*
X1838603Y1797750D01*
X1838291Y1799320D01*
X1837401Y1800651D01*
X1837349Y1800686D01*
Y1825395D01*
X1838040Y1826430D01*
X1838353Y1828000D01*
X1838040Y1829570D01*
X1837349Y1830605D01*
Y1855064D01*
X1837401Y1855099D01*
X1838291Y1856430D01*
X1838603Y1858000D01*
X1838591Y1858062D01*
X1856214Y1875686D01*
X1856214Y1875686D01*
X1856832Y1876610D01*
X1857049Y1877700D01*
Y1898663D01*
X1858751Y1899368D01*
X1860636Y1900814D01*
X1862082Y1902699D01*
X1862992Y1904894D01*
X1863302Y1907250D01*
X1862992Y1909606D01*
X1862082Y1911801D01*
X1860636Y1913686D01*
X1858751Y1915132D01*
X1856556Y1916042D01*
X1854200Y1916352D01*
D02*
G37*
G36*
X1879600D02*
X1877244Y1916042D01*
X1875049Y1915132D01*
X1873164Y1913686D01*
X1871718Y1911801D01*
X1870808Y1909606D01*
X1870498Y1907250D01*
X1870808Y1904894D01*
X1871718Y1902699D01*
X1873164Y1900814D01*
X1875049Y1899368D01*
X1876751Y1898663D01*
Y1874030D01*
X1864812Y1862090D01*
X1864750Y1862103D01*
X1863180Y1861790D01*
X1861849Y1860901D01*
X1860959Y1859570D01*
X1860647Y1858000D01*
X1860959Y1856430D01*
X1861849Y1855099D01*
X1861901Y1855064D01*
Y1831103D01*
X1861599Y1830901D01*
X1860709Y1829570D01*
X1860397Y1828000D01*
X1860709Y1826430D01*
X1861599Y1825099D01*
X1861901Y1824897D01*
Y1800686D01*
X1861849Y1800651D01*
X1860959Y1799320D01*
X1860647Y1797750D01*
X1860959Y1796180D01*
X1861849Y1794849D01*
X1861901Y1794814D01*
Y1770686D01*
X1861849Y1770651D01*
X1860959Y1769320D01*
X1860647Y1767750D01*
X1860959Y1766180D01*
X1861849Y1764849D01*
X1861901Y1764814D01*
Y1740686D01*
X1861849Y1740651D01*
X1860959Y1739320D01*
X1860647Y1737750D01*
X1860959Y1736180D01*
X1861849Y1734849D01*
X1861901Y1734814D01*
Y1710853D01*
X1861599Y1710651D01*
X1860709Y1709320D01*
X1860397Y1707750D01*
X1860709Y1706180D01*
X1861599Y1704849D01*
X1861901Y1704647D01*
Y1680686D01*
X1861849Y1680651D01*
X1860959Y1679320D01*
X1860647Y1677750D01*
X1860959Y1676180D01*
X1861849Y1674849D01*
X1861901Y1674814D01*
Y1650436D01*
X1861849Y1650401D01*
X1860959Y1649070D01*
X1860647Y1647500D01*
X1860959Y1645930D01*
X1861849Y1644599D01*
X1861901Y1644564D01*
Y1620686D01*
X1861849Y1620651D01*
X1860959Y1619320D01*
X1860647Y1617750D01*
X1860959Y1616180D01*
X1861849Y1614849D01*
X1863180Y1613960D01*
X1864750Y1613647D01*
X1866320Y1613960D01*
X1867651Y1614849D01*
X1868540Y1616180D01*
X1868853Y1617750D01*
X1868540Y1619320D01*
X1867651Y1620651D01*
X1867599Y1620686D01*
Y1644564D01*
X1867651Y1644599D01*
X1868540Y1645930D01*
X1868853Y1647500D01*
X1868540Y1649070D01*
X1867651Y1650401D01*
X1867599Y1650436D01*
Y1674814D01*
X1867651Y1674849D01*
X1868540Y1676180D01*
X1868853Y1677750D01*
X1868540Y1679320D01*
X1867651Y1680651D01*
X1867599Y1680686D01*
Y1705145D01*
X1868291Y1706180D01*
X1868603Y1707750D01*
X1868291Y1709320D01*
X1867599Y1710355D01*
Y1734814D01*
X1867651Y1734849D01*
X1868540Y1736180D01*
X1868853Y1737750D01*
X1868540Y1739320D01*
X1867651Y1740651D01*
X1867599Y1740686D01*
Y1764814D01*
X1867651Y1764849D01*
X1868540Y1766180D01*
X1868853Y1767750D01*
X1868540Y1769320D01*
X1867651Y1770651D01*
X1867599Y1770686D01*
Y1794814D01*
X1867651Y1794849D01*
X1868540Y1796180D01*
X1868853Y1797750D01*
X1868540Y1799320D01*
X1867651Y1800651D01*
X1867599Y1800686D01*
Y1825395D01*
X1868291Y1826430D01*
X1868603Y1828000D01*
X1868291Y1829570D01*
X1867599Y1830605D01*
Y1855064D01*
X1867651Y1855099D01*
X1868540Y1856430D01*
X1868853Y1858000D01*
X1868840Y1858062D01*
X1881614Y1870836D01*
X1881614Y1870836D01*
X1882232Y1871760D01*
X1882449Y1872850D01*
Y1898663D01*
X1884151Y1899368D01*
X1886036Y1900814D01*
X1887482Y1902699D01*
X1888392Y1904894D01*
X1888702Y1907250D01*
X1888392Y1909606D01*
X1887482Y1911801D01*
X1886036Y1913686D01*
X1884151Y1915132D01*
X1881956Y1916042D01*
X1879600Y1916352D01*
D02*
G37*
G36*
X1905000D02*
X1902644Y1916042D01*
X1900449Y1915132D01*
X1898564Y1913686D01*
X1897117Y1911801D01*
X1896208Y1909606D01*
X1895898Y1907250D01*
X1896208Y1904894D01*
X1897117Y1902699D01*
X1898564Y1900814D01*
X1900449Y1899368D01*
X1902151Y1898663D01*
Y1869680D01*
X1894562Y1862090D01*
X1894500Y1862103D01*
X1892930Y1861790D01*
X1891599Y1860901D01*
X1890709Y1859570D01*
X1890397Y1858000D01*
X1890709Y1856430D01*
X1891599Y1855099D01*
X1891651Y1855064D01*
Y1831103D01*
X1891349Y1830901D01*
X1890459Y1829570D01*
X1890147Y1828000D01*
X1890459Y1826430D01*
X1891349Y1825099D01*
X1891651Y1824897D01*
Y1800686D01*
X1891599Y1800651D01*
X1890709Y1799320D01*
X1890397Y1797750D01*
X1890709Y1796180D01*
X1891599Y1794849D01*
X1891651Y1794814D01*
Y1770686D01*
X1891599Y1770651D01*
X1890709Y1769320D01*
X1890397Y1767750D01*
X1890709Y1766180D01*
X1891599Y1764849D01*
X1891651Y1764814D01*
Y1740686D01*
X1891599Y1740651D01*
X1890709Y1739320D01*
X1890397Y1737750D01*
X1890709Y1736180D01*
X1891599Y1734849D01*
X1891651Y1734814D01*
Y1710853D01*
X1891349Y1710651D01*
X1890459Y1709320D01*
X1890147Y1707750D01*
X1890459Y1706180D01*
X1891349Y1704849D01*
X1891651Y1704647D01*
Y1680686D01*
X1891599Y1680651D01*
X1890709Y1679320D01*
X1890397Y1677750D01*
X1890709Y1676180D01*
X1891599Y1674849D01*
X1891651Y1674814D01*
Y1650436D01*
X1891599Y1650401D01*
X1890709Y1649070D01*
X1890397Y1647500D01*
X1890709Y1645930D01*
X1891599Y1644599D01*
X1891651Y1644564D01*
Y1620686D01*
X1891599Y1620651D01*
X1890709Y1619320D01*
X1890397Y1617750D01*
X1890709Y1616180D01*
X1891599Y1614849D01*
X1892930Y1613960D01*
X1894500Y1613647D01*
X1896070Y1613960D01*
X1897401Y1614849D01*
X1898291Y1616180D01*
X1898603Y1617750D01*
X1898291Y1619320D01*
X1897401Y1620651D01*
X1897349Y1620686D01*
Y1644564D01*
X1897401Y1644599D01*
X1898291Y1645930D01*
X1898603Y1647500D01*
X1898291Y1649070D01*
X1897401Y1650401D01*
X1897349Y1650436D01*
Y1674814D01*
X1897401Y1674849D01*
X1898291Y1676180D01*
X1898603Y1677750D01*
X1898291Y1679320D01*
X1897401Y1680651D01*
X1897349Y1680686D01*
Y1705145D01*
X1898040Y1706180D01*
X1898353Y1707750D01*
X1898040Y1709320D01*
X1897349Y1710355D01*
Y1734814D01*
X1897401Y1734849D01*
X1898291Y1736180D01*
X1898603Y1737750D01*
X1898291Y1739320D01*
X1897401Y1740651D01*
X1897349Y1740686D01*
Y1764814D01*
X1897401Y1764849D01*
X1898291Y1766180D01*
X1898603Y1767750D01*
X1898291Y1769320D01*
X1897401Y1770651D01*
X1897349Y1770686D01*
Y1794814D01*
X1897401Y1794849D01*
X1898291Y1796180D01*
X1898603Y1797750D01*
X1898291Y1799320D01*
X1897401Y1800651D01*
X1897349Y1800686D01*
Y1825395D01*
X1898040Y1826430D01*
X1898353Y1828000D01*
X1898040Y1829570D01*
X1897349Y1830605D01*
Y1855064D01*
X1897401Y1855099D01*
X1898291Y1856430D01*
X1898603Y1858000D01*
X1898591Y1858062D01*
X1907014Y1866486D01*
X1907014Y1866486D01*
X1907632Y1867410D01*
X1907849Y1868500D01*
X1907849Y1868500D01*
Y1898663D01*
X1909551Y1899368D01*
X1911436Y1900814D01*
X1912882Y1902699D01*
X1913792Y1904894D01*
X1914102Y1907250D01*
X1913792Y1909606D01*
X1912882Y1911801D01*
X1911436Y1913686D01*
X1909551Y1915132D01*
X1907356Y1916042D01*
X1905000Y1916352D01*
D02*
G37*
G36*
X2271250Y1862353D02*
X2269680Y1862041D01*
X2268349Y1861151D01*
X2267459Y1859820D01*
X2267147Y1858250D01*
X2267459Y1856680D01*
X2268349Y1855349D01*
X2269680Y1854460D01*
X2271250Y1854147D01*
X2271401Y1852921D01*
Y1623436D01*
X2271349Y1623401D01*
X2270459Y1622070D01*
X2270147Y1620500D01*
X2270459Y1618930D01*
X2271349Y1617599D01*
X2272680Y1616709D01*
X2274250Y1616397D01*
X2275820Y1616709D01*
X2277151Y1617599D01*
X2278040Y1618930D01*
X2278353Y1620500D01*
X2278040Y1622070D01*
X2277151Y1623401D01*
X2277099Y1623436D01*
Y1855250D01*
X2277099Y1855250D01*
X2276882Y1856340D01*
X2276264Y1857264D01*
X2276264Y1857264D01*
X2275341Y1858188D01*
X2275353Y1858250D01*
X2275040Y1859820D01*
X2274151Y1861151D01*
X2272820Y1862041D01*
X2271250Y1862353D01*
D02*
G37*
G36*
X2243750Y1836103D02*
X2242180Y1835791D01*
X2240849Y1834901D01*
X2239959Y1833570D01*
X2239647Y1832000D01*
X2239959Y1830430D01*
X2240849Y1829099D01*
X2240901Y1829064D01*
Y1623324D01*
X2240849Y1623289D01*
X2239959Y1621958D01*
X2239647Y1620388D01*
X2239959Y1618818D01*
X2240849Y1617487D01*
X2242180Y1616598D01*
X2243750Y1616285D01*
X2245320Y1616598D01*
X2246651Y1617487D01*
X2247540Y1618818D01*
X2247853Y1620388D01*
X2247540Y1621958D01*
X2246651Y1623289D01*
X2246599Y1623324D01*
Y1829064D01*
X2246651Y1829099D01*
X2247540Y1830430D01*
X2247853Y1832000D01*
X2247540Y1833570D01*
X2246651Y1834901D01*
X2245320Y1835791D01*
X2243750Y1836103D01*
D02*
G37*
G36*
X2214500Y1806241D02*
X2212930Y1805929D01*
X2211599Y1805039D01*
X2210709Y1803708D01*
X2210397Y1802138D01*
X2210709Y1800568D01*
X2211599Y1799237D01*
X2211651Y1799202D01*
Y1623324D01*
X2211599Y1623289D01*
X2210709Y1621958D01*
X2210397Y1620388D01*
X2210709Y1618818D01*
X2211599Y1617487D01*
X2212930Y1616598D01*
X2214500Y1616285D01*
X2216070Y1616598D01*
X2217401Y1617487D01*
X2218291Y1618818D01*
X2218603Y1620388D01*
X2218291Y1621958D01*
X2217401Y1623289D01*
X2217349Y1623324D01*
Y1799202D01*
X2217401Y1799237D01*
X2218291Y1800568D01*
X2218603Y1802138D01*
X2218291Y1803708D01*
X2217401Y1805039D01*
X2216070Y1805929D01*
X2214500Y1806241D01*
D02*
G37*
G36*
X2094000Y1684353D02*
X2092430Y1684041D01*
X2091099Y1683151D01*
X2090209Y1681820D01*
X2089897Y1680250D01*
X2090209Y1678680D01*
X2091099Y1677349D01*
X2091151Y1677314D01*
Y1623324D01*
X2091099Y1623289D01*
X2090209Y1621958D01*
X2089897Y1620388D01*
X2090209Y1618818D01*
X2091099Y1617487D01*
X2092430Y1616598D01*
X2094000Y1616285D01*
X2095570Y1616598D01*
X2096901Y1617487D01*
X2097791Y1618818D01*
X2098103Y1620388D01*
X2097791Y1621958D01*
X2096901Y1623289D01*
X2096849Y1623324D01*
Y1677314D01*
X2096901Y1677349D01*
X2097791Y1678680D01*
X2098103Y1680250D01*
X2097791Y1681820D01*
X2096901Y1683151D01*
X2095570Y1684041D01*
X2094000Y1684353D01*
D02*
G37*
G36*
X2182750Y1775103D02*
X2181180Y1774790D01*
X2179849Y1773901D01*
X2178959Y1772570D01*
X2178647Y1771000D01*
X2178959Y1769430D01*
X2179849Y1768099D01*
X2179901Y1768064D01*
Y1622936D01*
X2179849Y1622901D01*
X2178959Y1621570D01*
X2178647Y1620000D01*
X2178959Y1618430D01*
X2179849Y1617099D01*
X2181180Y1616209D01*
X2182750Y1615897D01*
X2184320Y1616209D01*
X2185651Y1617099D01*
X2186541Y1618430D01*
X2186853Y1620000D01*
X2186541Y1621570D01*
X2185651Y1622901D01*
X2185599Y1622936D01*
Y1768064D01*
X2185651Y1768099D01*
X2186541Y1769430D01*
X2186853Y1771000D01*
X2186541Y1772570D01*
X2185651Y1773901D01*
X2184320Y1774790D01*
X2182750Y1775103D01*
D02*
G37*
G36*
X2152750Y1744103D02*
X2151180Y1743790D01*
X2149849Y1742901D01*
X2148959Y1741570D01*
X2148647Y1740000D01*
X2148959Y1738430D01*
X2149849Y1737099D01*
X2149901Y1737064D01*
Y1622936D01*
X2149849Y1622901D01*
X2148959Y1621570D01*
X2148647Y1620000D01*
X2148959Y1618430D01*
X2149849Y1617099D01*
X2151180Y1616209D01*
X2152750Y1615897D01*
X2154320Y1616209D01*
X2155651Y1617099D01*
X2156541Y1618430D01*
X2156853Y1620000D01*
X2156541Y1621570D01*
X2155651Y1622901D01*
X2155599Y1622936D01*
Y1737064D01*
X2155651Y1737099D01*
X2156541Y1738430D01*
X2156853Y1740000D01*
X2156541Y1741570D01*
X2155651Y1742901D01*
X2154320Y1743790D01*
X2152750Y1744103D01*
D02*
G37*
G36*
X2121750Y1714103D02*
X2120180Y1713790D01*
X2118849Y1712901D01*
X2117959Y1711570D01*
X2117647Y1710000D01*
X2117959Y1708430D01*
X2118849Y1707099D01*
X2118901Y1707064D01*
Y1622936D01*
X2118849Y1622901D01*
X2117959Y1621570D01*
X2117647Y1620000D01*
X2117959Y1618430D01*
X2118849Y1617099D01*
X2120180Y1616209D01*
X2121750Y1615897D01*
X2123320Y1616209D01*
X2124651Y1617099D01*
X2125540Y1618430D01*
X2125853Y1620000D01*
X2125540Y1621570D01*
X2124651Y1622901D01*
X2124599Y1622936D01*
Y1707064D01*
X2124651Y1707099D01*
X2125540Y1708430D01*
X2125853Y1710000D01*
X2125540Y1711570D01*
X2124651Y1712901D01*
X2123320Y1713790D01*
X2121750Y1714103D01*
D02*
G37*
G36*
X2063750Y1655103D02*
X2062180Y1654790D01*
X2060849Y1653901D01*
X2059959Y1652570D01*
X2059647Y1651000D01*
X2059959Y1649430D01*
X2060849Y1648099D01*
X2060901Y1648064D01*
Y1623270D01*
X2060349Y1622901D01*
X2059459Y1621570D01*
X2059147Y1620000D01*
X2059459Y1618430D01*
X2060349Y1617099D01*
X2061680Y1616209D01*
X2063250Y1615897D01*
X2064820Y1616209D01*
X2066151Y1617099D01*
X2067040Y1618430D01*
X2067353Y1620000D01*
X2067040Y1621570D01*
X2066599Y1622231D01*
Y1648064D01*
X2066651Y1648099D01*
X2067540Y1649430D01*
X2067853Y1651000D01*
X2067540Y1652570D01*
X2066651Y1653901D01*
X2065320Y1654790D01*
X2063750Y1655103D01*
D02*
G37*
G36*
X2336400Y1916352D02*
X2334044Y1916042D01*
X2331849Y1915132D01*
X2329964Y1913686D01*
X2328517Y1911801D01*
X2327608Y1909606D01*
X2327298Y1907250D01*
X2327608Y1904894D01*
X2328517Y1902699D01*
X2329964Y1900814D01*
X2331849Y1899368D01*
X2334044Y1898458D01*
X2336400Y1898148D01*
X2338756Y1898458D01*
X2340951Y1899368D01*
X2342836Y1900814D01*
X2343372Y1900849D01*
X2387736Y1856486D01*
X2388660Y1855868D01*
X2389750Y1855651D01*
X2389750Y1855651D01*
X2401814D01*
X2401849Y1855599D01*
X2401901Y1855564D01*
Y1831603D01*
X2401599Y1831401D01*
X2400709Y1830070D01*
X2400397Y1828500D01*
X2400709Y1826930D01*
X2401599Y1825599D01*
X2401901Y1825397D01*
Y1801186D01*
X2401849Y1801151D01*
X2400959Y1799820D01*
X2400647Y1798250D01*
X2400959Y1796680D01*
X2401849Y1795349D01*
X2401901Y1795314D01*
Y1771186D01*
X2401849Y1771151D01*
X2400959Y1769820D01*
X2400647Y1768250D01*
X2400959Y1766680D01*
X2401849Y1765349D01*
X2401901Y1765314D01*
Y1741186D01*
X2401849Y1741151D01*
X2400959Y1739820D01*
X2400647Y1738250D01*
X2400959Y1736680D01*
X2401849Y1735349D01*
X2401901Y1735314D01*
Y1711353D01*
X2401599Y1711151D01*
X2400709Y1709820D01*
X2400397Y1708250D01*
X2400709Y1706680D01*
X2401599Y1705349D01*
X2401901Y1705147D01*
Y1681186D01*
X2401849Y1681151D01*
X2400959Y1679820D01*
X2400647Y1678250D01*
X2400959Y1676680D01*
X2401849Y1675349D01*
X2401901Y1675314D01*
Y1650936D01*
X2401849Y1650901D01*
X2400959Y1649570D01*
X2400647Y1648000D01*
X2400959Y1646430D01*
X2401849Y1645099D01*
X2401901Y1645064D01*
Y1621186D01*
X2401849Y1621151D01*
X2400959Y1619820D01*
X2400647Y1618250D01*
X2400959Y1616680D01*
X2401849Y1615349D01*
X2403180Y1614460D01*
X2404750Y1614147D01*
X2406320Y1614460D01*
X2407651Y1615349D01*
X2408540Y1616680D01*
X2408853Y1618250D01*
X2408540Y1619820D01*
X2407651Y1621151D01*
X2407599Y1621186D01*
Y1645064D01*
X2407651Y1645099D01*
X2408540Y1646430D01*
X2408853Y1648000D01*
X2408540Y1649570D01*
X2407651Y1650901D01*
X2407599Y1650936D01*
Y1675314D01*
X2407651Y1675349D01*
X2408540Y1676680D01*
X2408853Y1678250D01*
X2408540Y1679820D01*
X2407651Y1681151D01*
X2407599Y1681186D01*
Y1705645D01*
X2408291Y1706680D01*
X2408603Y1708250D01*
X2408291Y1709820D01*
X2407599Y1710855D01*
Y1735314D01*
X2407651Y1735349D01*
X2408540Y1736680D01*
X2408853Y1738250D01*
X2408540Y1739820D01*
X2407651Y1741151D01*
X2407599Y1741186D01*
Y1765314D01*
X2407651Y1765349D01*
X2408540Y1766680D01*
X2408853Y1768250D01*
X2408540Y1769820D01*
X2407651Y1771151D01*
X2407599Y1771186D01*
Y1795314D01*
X2407651Y1795349D01*
X2408540Y1796680D01*
X2408853Y1798250D01*
X2408540Y1799820D01*
X2407651Y1801151D01*
X2407599Y1801186D01*
Y1825895D01*
X2408291Y1826930D01*
X2408603Y1828500D01*
X2408291Y1830070D01*
X2407599Y1831105D01*
Y1855564D01*
X2407651Y1855599D01*
X2408540Y1856930D01*
X2408853Y1858500D01*
X2408540Y1860070D01*
X2407651Y1861401D01*
X2406320Y1862290D01*
X2404750Y1862603D01*
X2403180Y1862290D01*
X2401849Y1861401D01*
X2401814Y1861349D01*
X2390930D01*
X2345447Y1906832D01*
X2345502Y1907250D01*
X2345192Y1909606D01*
X2344282Y1911801D01*
X2342836Y1913686D01*
X2340951Y1915132D01*
X2338756Y1916042D01*
X2336400Y1916352D01*
D02*
G37*
G36*
X2311000D02*
X2308644Y1916042D01*
X2306449Y1915132D01*
X2304564Y1913686D01*
X2303118Y1911801D01*
X2302208Y1909606D01*
X2301898Y1907250D01*
X2302208Y1904894D01*
X2303118Y1902699D01*
X2304564Y1900814D01*
X2306449Y1899368D01*
X2308644Y1898458D01*
X2311000Y1898148D01*
X2313356Y1898458D01*
X2315058Y1899163D01*
X2357735Y1856486D01*
X2358660Y1855868D01*
X2359750Y1855651D01*
X2359750Y1855651D01*
X2371564D01*
X2371599Y1855599D01*
X2371651Y1855564D01*
Y1831603D01*
X2371349Y1831401D01*
X2370459Y1830070D01*
X2370147Y1828500D01*
X2370459Y1826930D01*
X2371349Y1825599D01*
X2371651Y1825397D01*
Y1801186D01*
X2371599Y1801151D01*
X2370709Y1799820D01*
X2370397Y1798250D01*
X2370709Y1796680D01*
X2371599Y1795349D01*
X2371651Y1795314D01*
Y1771186D01*
X2371599Y1771151D01*
X2370709Y1769820D01*
X2370397Y1768250D01*
X2370709Y1766680D01*
X2371599Y1765349D01*
X2371651Y1765314D01*
Y1741186D01*
X2371599Y1741151D01*
X2370709Y1739820D01*
X2370397Y1738250D01*
X2370709Y1736680D01*
X2371599Y1735349D01*
X2371651Y1735314D01*
Y1711353D01*
X2371349Y1711151D01*
X2370459Y1709820D01*
X2370147Y1708250D01*
X2370459Y1706680D01*
X2371349Y1705349D01*
X2371651Y1705147D01*
Y1681186D01*
X2371599Y1681151D01*
X2370709Y1679820D01*
X2370397Y1678250D01*
X2370709Y1676680D01*
X2371599Y1675349D01*
X2371651Y1675314D01*
Y1650936D01*
X2371599Y1650901D01*
X2370709Y1649570D01*
X2370397Y1648000D01*
X2370709Y1646430D01*
X2371599Y1645099D01*
X2371651Y1645064D01*
Y1621186D01*
X2371599Y1621151D01*
X2370709Y1619820D01*
X2370397Y1618250D01*
X2370709Y1616680D01*
X2371599Y1615349D01*
X2372930Y1614460D01*
X2374500Y1614147D01*
X2376070Y1614460D01*
X2377401Y1615349D01*
X2378290Y1616680D01*
X2378603Y1618250D01*
X2378290Y1619820D01*
X2377401Y1621151D01*
X2377349Y1621186D01*
Y1645064D01*
X2377401Y1645099D01*
X2378290Y1646430D01*
X2378603Y1648000D01*
X2378290Y1649570D01*
X2377401Y1650901D01*
X2377349Y1650936D01*
Y1675314D01*
X2377401Y1675349D01*
X2378290Y1676680D01*
X2378603Y1678250D01*
X2378290Y1679820D01*
X2377401Y1681151D01*
X2377349Y1681186D01*
Y1705645D01*
X2378040Y1706680D01*
X2378353Y1708250D01*
X2378040Y1709820D01*
X2377349Y1710855D01*
Y1735314D01*
X2377401Y1735349D01*
X2378290Y1736680D01*
X2378603Y1738250D01*
X2378290Y1739820D01*
X2377401Y1741151D01*
X2377349Y1741186D01*
Y1765314D01*
X2377401Y1765349D01*
X2378290Y1766680D01*
X2378603Y1768250D01*
X2378290Y1769820D01*
X2377401Y1771151D01*
X2377349Y1771186D01*
Y1795314D01*
X2377401Y1795349D01*
X2378290Y1796680D01*
X2378603Y1798250D01*
X2378290Y1799820D01*
X2377401Y1801151D01*
X2377349Y1801186D01*
Y1825895D01*
X2378040Y1826930D01*
X2378353Y1828500D01*
X2378040Y1830070D01*
X2377349Y1831105D01*
Y1855564D01*
X2377401Y1855599D01*
X2378290Y1856930D01*
X2378603Y1858500D01*
X2378290Y1860070D01*
X2377401Y1861401D01*
X2376070Y1862290D01*
X2374500Y1862603D01*
X2372930Y1862290D01*
X2371599Y1861401D01*
X2371564Y1861349D01*
X2360930D01*
X2319087Y1903192D01*
X2319792Y1904894D01*
X2320102Y1907250D01*
X2319792Y1909606D01*
X2318882Y1911801D01*
X2317436Y1913686D01*
X2315551Y1915132D01*
X2313356Y1916042D01*
X2311000Y1916352D01*
D02*
G37*
G36*
X2285600D02*
X2283244Y1916042D01*
X2281049Y1915132D01*
X2279164Y1913686D01*
X2277717Y1911801D01*
X2276808Y1909606D01*
X2276498Y1907250D01*
X2276808Y1904894D01*
X2277717Y1902699D01*
X2279164Y1900814D01*
X2281049Y1899368D01*
X2283244Y1898458D01*
X2285600Y1898148D01*
X2287956Y1898458D01*
X2289658Y1899163D01*
X2332336Y1856486D01*
X2333260Y1855868D01*
X2334350Y1855651D01*
X2334350Y1855651D01*
X2341564D01*
X2341599Y1855599D01*
X2341651Y1855564D01*
Y1831603D01*
X2341349Y1831401D01*
X2340459Y1830070D01*
X2340147Y1828500D01*
X2340459Y1826930D01*
X2341349Y1825599D01*
X2341651Y1825397D01*
Y1801186D01*
X2341599Y1801151D01*
X2340709Y1799820D01*
X2340397Y1798250D01*
X2340709Y1796680D01*
X2341599Y1795349D01*
X2341651Y1795314D01*
Y1771186D01*
X2341599Y1771151D01*
X2340709Y1769820D01*
X2340397Y1768250D01*
X2340709Y1766680D01*
X2341599Y1765349D01*
X2341651Y1765314D01*
Y1741186D01*
X2341599Y1741151D01*
X2340709Y1739820D01*
X2340397Y1738250D01*
X2340709Y1736680D01*
X2341599Y1735349D01*
X2341651Y1735314D01*
Y1711353D01*
X2341349Y1711151D01*
X2340459Y1709820D01*
X2340147Y1708250D01*
X2340459Y1706680D01*
X2341349Y1705349D01*
X2341651Y1705147D01*
Y1681186D01*
X2341599Y1681151D01*
X2340709Y1679820D01*
X2340397Y1678250D01*
X2340709Y1676680D01*
X2341599Y1675349D01*
X2341651Y1675314D01*
Y1650936D01*
X2341599Y1650901D01*
X2340709Y1649570D01*
X2340397Y1648000D01*
X2340709Y1646430D01*
X2341599Y1645099D01*
X2341651Y1645064D01*
Y1621186D01*
X2341599Y1621151D01*
X2340709Y1619820D01*
X2340397Y1618250D01*
X2340709Y1616680D01*
X2341599Y1615349D01*
X2342930Y1614460D01*
X2344500Y1614147D01*
X2346070Y1614460D01*
X2347401Y1615349D01*
X2348291Y1616680D01*
X2348603Y1618250D01*
X2348291Y1619820D01*
X2347401Y1621151D01*
X2347349Y1621186D01*
Y1645064D01*
X2347401Y1645099D01*
X2348291Y1646430D01*
X2348603Y1648000D01*
X2348291Y1649570D01*
X2347401Y1650901D01*
X2347349Y1650936D01*
Y1675314D01*
X2347401Y1675349D01*
X2348291Y1676680D01*
X2348603Y1678250D01*
X2348291Y1679820D01*
X2347401Y1681151D01*
X2347349Y1681186D01*
Y1705645D01*
X2348040Y1706680D01*
X2348353Y1708250D01*
X2348040Y1709820D01*
X2347349Y1710855D01*
Y1735314D01*
X2347401Y1735349D01*
X2348291Y1736680D01*
X2348603Y1738250D01*
X2348291Y1739820D01*
X2347401Y1741151D01*
X2347349Y1741186D01*
Y1765314D01*
X2347401Y1765349D01*
X2348291Y1766680D01*
X2348603Y1768250D01*
X2348291Y1769820D01*
X2347401Y1771151D01*
X2347349Y1771186D01*
Y1795314D01*
X2347401Y1795349D01*
X2348291Y1796680D01*
X2348603Y1798250D01*
X2348291Y1799820D01*
X2347401Y1801151D01*
X2347349Y1801186D01*
Y1825895D01*
X2348040Y1826930D01*
X2348353Y1828500D01*
X2348040Y1830070D01*
X2347349Y1831105D01*
Y1855564D01*
X2347401Y1855599D01*
X2348291Y1856930D01*
X2348603Y1858500D01*
X2348291Y1860070D01*
X2347401Y1861401D01*
X2346070Y1862290D01*
X2344500Y1862603D01*
X2342930Y1862290D01*
X2341599Y1861401D01*
X2341564Y1861349D01*
X2335530D01*
X2293687Y1903192D01*
X2294392Y1904894D01*
X2294702Y1907250D01*
X2294392Y1909606D01*
X2293482Y1911801D01*
X2292036Y1913686D01*
X2290151Y1915132D01*
X2287956Y1916042D01*
X2285600Y1916352D01*
D02*
G37*
G36*
X2260200D02*
X2257844Y1916042D01*
X2255649Y1915132D01*
X2253764Y1913686D01*
X2252318Y1911801D01*
X2251408Y1909606D01*
X2251098Y1907250D01*
X2251408Y1904894D01*
X2252318Y1902699D01*
X2253764Y1900814D01*
X2255649Y1899368D01*
X2257844Y1898458D01*
X2260200Y1898148D01*
X2262556Y1898458D01*
X2264258Y1899163D01*
X2306935Y1856486D01*
X2307860Y1855868D01*
X2308950Y1855651D01*
X2308950Y1855651D01*
X2311564D01*
X2311599Y1855599D01*
X2311651Y1855564D01*
Y1831603D01*
X2311349Y1831401D01*
X2310459Y1830070D01*
X2310147Y1828500D01*
X2310459Y1826930D01*
X2311349Y1825599D01*
X2311651Y1825397D01*
Y1801186D01*
X2311599Y1801151D01*
X2310709Y1799820D01*
X2310397Y1798250D01*
X2310709Y1796680D01*
X2311599Y1795349D01*
X2311651Y1795314D01*
Y1771186D01*
X2311599Y1771151D01*
X2310709Y1769820D01*
X2310397Y1768250D01*
X2310709Y1766680D01*
X2311599Y1765349D01*
X2311651Y1765314D01*
Y1741186D01*
X2311599Y1741151D01*
X2310709Y1739820D01*
X2310397Y1738250D01*
X2310709Y1736680D01*
X2311599Y1735349D01*
X2311651Y1735314D01*
Y1711353D01*
X2311349Y1711151D01*
X2310459Y1709820D01*
X2310147Y1708250D01*
X2310459Y1706680D01*
X2311349Y1705349D01*
X2311651Y1705147D01*
Y1681186D01*
X2311599Y1681151D01*
X2310709Y1679820D01*
X2310397Y1678250D01*
X2310709Y1676680D01*
X2311599Y1675349D01*
X2311651Y1675314D01*
Y1650936D01*
X2311599Y1650901D01*
X2310709Y1649570D01*
X2310397Y1648000D01*
X2310709Y1646430D01*
X2311599Y1645099D01*
X2311651Y1645064D01*
Y1621186D01*
X2311599Y1621151D01*
X2310709Y1619820D01*
X2310397Y1618250D01*
X2310709Y1616680D01*
X2311599Y1615349D01*
X2312930Y1614460D01*
X2314500Y1614147D01*
X2316070Y1614460D01*
X2317401Y1615349D01*
X2318291Y1616680D01*
X2318603Y1618250D01*
X2318291Y1619820D01*
X2317401Y1621151D01*
X2317349Y1621186D01*
Y1645064D01*
X2317401Y1645099D01*
X2318291Y1646430D01*
X2318603Y1648000D01*
X2318291Y1649570D01*
X2317401Y1650901D01*
X2317349Y1650936D01*
Y1675314D01*
X2317401Y1675349D01*
X2318291Y1676680D01*
X2318603Y1678250D01*
X2318291Y1679820D01*
X2317401Y1681151D01*
X2317349Y1681186D01*
Y1705645D01*
X2318040Y1706680D01*
X2318353Y1708250D01*
X2318040Y1709820D01*
X2317349Y1710855D01*
Y1735314D01*
X2317401Y1735349D01*
X2318291Y1736680D01*
X2318603Y1738250D01*
X2318291Y1739820D01*
X2317401Y1741151D01*
X2317349Y1741186D01*
Y1765314D01*
X2317401Y1765349D01*
X2318291Y1766680D01*
X2318603Y1768250D01*
X2318291Y1769820D01*
X2317401Y1771151D01*
X2317349Y1771186D01*
Y1795314D01*
X2317401Y1795349D01*
X2318291Y1796680D01*
X2318603Y1798250D01*
X2318291Y1799820D01*
X2317401Y1801151D01*
X2317349Y1801186D01*
Y1825895D01*
X2318040Y1826930D01*
X2318353Y1828500D01*
X2318040Y1830070D01*
X2317349Y1831105D01*
Y1855564D01*
X2317401Y1855599D01*
X2318291Y1856930D01*
X2318603Y1858500D01*
X2318291Y1860070D01*
X2317401Y1861401D01*
X2316070Y1862290D01*
X2314500Y1862603D01*
X2312930Y1862290D01*
X2311599Y1861401D01*
X2311564Y1861349D01*
X2310130D01*
X2268287Y1903192D01*
X2268992Y1904894D01*
X2269302Y1907250D01*
X2268992Y1909606D01*
X2268082Y1911801D01*
X2266636Y1913686D01*
X2264751Y1915132D01*
X2262556Y1916042D01*
X2260200Y1916352D01*
D02*
G37*
G36*
X2234800D02*
X2232444Y1916042D01*
X2230249Y1915132D01*
X2228364Y1913686D01*
X2226918Y1911801D01*
X2226008Y1909606D01*
X2225698Y1907250D01*
X2226008Y1904894D01*
X2226918Y1902699D01*
X2228364Y1900814D01*
X2230249Y1899368D01*
X2232444Y1898458D01*
X2234800Y1898148D01*
X2237156Y1898458D01*
X2238858Y1899163D01*
X2280927Y1857095D01*
X2280959Y1856930D01*
X2281849Y1855599D01*
X2281901Y1855564D01*
Y1831603D01*
X2281599Y1831401D01*
X2280709Y1830070D01*
X2280397Y1828500D01*
X2280709Y1826930D01*
X2281599Y1825599D01*
X2281901Y1825397D01*
Y1801186D01*
X2281849Y1801151D01*
X2280959Y1799820D01*
X2280647Y1798250D01*
X2280959Y1796680D01*
X2281849Y1795349D01*
X2281901Y1795314D01*
Y1771186D01*
X2281849Y1771151D01*
X2280959Y1769820D01*
X2280647Y1768250D01*
X2280959Y1766680D01*
X2281849Y1765349D01*
X2281901Y1765314D01*
Y1741186D01*
X2281849Y1741151D01*
X2280959Y1739820D01*
X2280647Y1738250D01*
X2280959Y1736680D01*
X2281849Y1735349D01*
X2281901Y1735314D01*
Y1711353D01*
X2281599Y1711151D01*
X2280709Y1709820D01*
X2280397Y1708250D01*
X2280709Y1706680D01*
X2281599Y1705349D01*
X2281901Y1705147D01*
Y1681186D01*
X2281849Y1681151D01*
X2280959Y1679820D01*
X2280647Y1678250D01*
X2280959Y1676680D01*
X2281849Y1675349D01*
X2281901Y1675314D01*
Y1650936D01*
X2281849Y1650901D01*
X2280959Y1649570D01*
X2280647Y1648000D01*
X2280959Y1646430D01*
X2281849Y1645099D01*
X2281901Y1645064D01*
Y1621186D01*
X2281849Y1621151D01*
X2280959Y1619820D01*
X2280647Y1618250D01*
X2280959Y1616680D01*
X2281849Y1615349D01*
X2283180Y1614460D01*
X2284750Y1614147D01*
X2286320Y1614460D01*
X2287651Y1615349D01*
X2288540Y1616680D01*
X2288853Y1618250D01*
X2288540Y1619820D01*
X2287651Y1621151D01*
X2287599Y1621186D01*
Y1645064D01*
X2287651Y1645099D01*
X2288540Y1646430D01*
X2288853Y1648000D01*
X2288540Y1649570D01*
X2287651Y1650901D01*
X2287599Y1650936D01*
Y1675314D01*
X2287651Y1675349D01*
X2288540Y1676680D01*
X2288853Y1678250D01*
X2288540Y1679820D01*
X2287651Y1681151D01*
X2287599Y1681186D01*
Y1705645D01*
X2288291Y1706680D01*
X2288603Y1708250D01*
X2288291Y1709820D01*
X2287599Y1710855D01*
Y1735314D01*
X2287651Y1735349D01*
X2288540Y1736680D01*
X2288853Y1738250D01*
X2288540Y1739820D01*
X2287651Y1741151D01*
X2287599Y1741186D01*
Y1765314D01*
X2287651Y1765349D01*
X2288540Y1766680D01*
X2288853Y1768250D01*
X2288540Y1769820D01*
X2287651Y1771151D01*
X2287599Y1771186D01*
Y1795314D01*
X2287651Y1795349D01*
X2288540Y1796680D01*
X2288853Y1798250D01*
X2288540Y1799820D01*
X2287651Y1801151D01*
X2287599Y1801186D01*
Y1825895D01*
X2288291Y1826930D01*
X2288603Y1828500D01*
X2288291Y1830070D01*
X2287599Y1831105D01*
Y1855564D01*
X2287651Y1855599D01*
X2288540Y1856930D01*
X2288853Y1858500D01*
X2288540Y1860070D01*
X2287651Y1861401D01*
X2286320Y1862290D01*
X2284750Y1862603D01*
X2283687Y1862391D01*
X2242887Y1903192D01*
X2243592Y1904894D01*
X2243902Y1907250D01*
X2243592Y1909606D01*
X2242682Y1911801D01*
X2241236Y1913686D01*
X2239351Y1915132D01*
X2237156Y1916042D01*
X2234800Y1916352D01*
D02*
G37*
G36*
X2209400D02*
X2207044Y1916042D01*
X2204849Y1915132D01*
X2202964Y1913686D01*
X2201517Y1911801D01*
X2200608Y1909606D01*
X2200298Y1907250D01*
X2200608Y1904894D01*
X2201517Y1902699D01*
X2202964Y1900814D01*
X2204849Y1899368D01*
X2207044Y1898458D01*
X2209400Y1898148D01*
X2210658Y1898314D01*
X2250409Y1858562D01*
X2250397Y1858500D01*
X2250709Y1856930D01*
X2251599Y1855599D01*
X2251651Y1855564D01*
Y1831603D01*
X2251349Y1831401D01*
X2250459Y1830070D01*
X2250147Y1828500D01*
X2250459Y1826930D01*
X2251349Y1825599D01*
X2251651Y1825397D01*
Y1801186D01*
X2251599Y1801151D01*
X2250709Y1799820D01*
X2250397Y1798250D01*
X2250709Y1796680D01*
X2251599Y1795349D01*
X2251651Y1795314D01*
Y1771186D01*
X2251599Y1771151D01*
X2250709Y1769820D01*
X2250397Y1768250D01*
X2250709Y1766680D01*
X2251599Y1765349D01*
X2251651Y1765314D01*
Y1741186D01*
X2251599Y1741151D01*
X2250709Y1739820D01*
X2250397Y1738250D01*
X2250709Y1736680D01*
X2251599Y1735349D01*
X2251651Y1735314D01*
Y1711353D01*
X2251349Y1711151D01*
X2250459Y1709820D01*
X2250147Y1708250D01*
X2250459Y1706680D01*
X2251349Y1705349D01*
X2251651Y1705147D01*
Y1681186D01*
X2251599Y1681151D01*
X2250709Y1679820D01*
X2250397Y1678250D01*
X2250709Y1676680D01*
X2251599Y1675349D01*
X2251651Y1675314D01*
Y1650936D01*
X2251599Y1650901D01*
X2250709Y1649570D01*
X2250397Y1648000D01*
X2250709Y1646430D01*
X2251599Y1645099D01*
X2251651Y1645064D01*
Y1621186D01*
X2251599Y1621151D01*
X2250709Y1619820D01*
X2250397Y1618250D01*
X2250709Y1616680D01*
X2251599Y1615349D01*
X2252930Y1614460D01*
X2254500Y1614147D01*
X2256070Y1614460D01*
X2257401Y1615349D01*
X2258291Y1616680D01*
X2258603Y1618250D01*
X2258291Y1619820D01*
X2257401Y1621151D01*
X2257349Y1621186D01*
Y1645064D01*
X2257401Y1645099D01*
X2258291Y1646430D01*
X2258603Y1648000D01*
X2258291Y1649570D01*
X2257401Y1650901D01*
X2257349Y1650936D01*
Y1675314D01*
X2257401Y1675349D01*
X2258291Y1676680D01*
X2258603Y1678250D01*
X2258291Y1679820D01*
X2257401Y1681151D01*
X2257349Y1681186D01*
Y1705645D01*
X2258040Y1706680D01*
X2258353Y1708250D01*
X2258040Y1709820D01*
X2257349Y1710855D01*
Y1735314D01*
X2257401Y1735349D01*
X2258291Y1736680D01*
X2258603Y1738250D01*
X2258291Y1739820D01*
X2257401Y1741151D01*
X2257349Y1741186D01*
Y1765314D01*
X2257401Y1765349D01*
X2258291Y1766680D01*
X2258603Y1768250D01*
X2258291Y1769820D01*
X2257401Y1771151D01*
X2257349Y1771186D01*
Y1795314D01*
X2257401Y1795349D01*
X2258291Y1796680D01*
X2258603Y1798250D01*
X2258291Y1799820D01*
X2257401Y1801151D01*
X2257349Y1801186D01*
Y1825895D01*
X2258040Y1826930D01*
X2258353Y1828500D01*
X2258040Y1830070D01*
X2257349Y1831105D01*
Y1855564D01*
X2257401Y1855599D01*
X2258291Y1856930D01*
X2258603Y1858500D01*
X2258291Y1860070D01*
X2257401Y1861401D01*
X2256070Y1862290D01*
X2254500Y1862603D01*
X2254438Y1862590D01*
X2216000Y1901028D01*
X2217282Y1902699D01*
X2218192Y1904894D01*
X2218502Y1907250D01*
X2218192Y1909606D01*
X2217282Y1911801D01*
X2215836Y1913686D01*
X2213951Y1915132D01*
X2211756Y1916042D01*
X2209400Y1916352D01*
D02*
G37*
G36*
X2184000D02*
X2181644Y1916042D01*
X2179449Y1915132D01*
X2177564Y1913686D01*
X2176118Y1911801D01*
X2175208Y1909606D01*
X2174898Y1907250D01*
X2175208Y1904894D01*
X2176118Y1902699D01*
X2177564Y1900814D01*
X2179449Y1899368D01*
X2181279Y1898610D01*
X2181368Y1898160D01*
X2181986Y1897236D01*
X2220659Y1858562D01*
X2220647Y1858500D01*
X2220959Y1856930D01*
X2221849Y1855599D01*
X2221901Y1855564D01*
Y1831603D01*
X2221599Y1831401D01*
X2220709Y1830070D01*
X2220397Y1828500D01*
X2220709Y1826930D01*
X2221599Y1825599D01*
X2221901Y1825397D01*
Y1801186D01*
X2221849Y1801151D01*
X2220959Y1799820D01*
X2220647Y1798250D01*
X2220959Y1796680D01*
X2221849Y1795349D01*
X2221901Y1795314D01*
Y1771186D01*
X2221849Y1771151D01*
X2220959Y1769820D01*
X2220647Y1768250D01*
X2220959Y1766680D01*
X2221849Y1765349D01*
X2221901Y1765314D01*
Y1741186D01*
X2221849Y1741151D01*
X2220959Y1739820D01*
X2220647Y1738250D01*
X2220959Y1736680D01*
X2221849Y1735349D01*
X2221901Y1735314D01*
Y1711353D01*
X2221599Y1711151D01*
X2220709Y1709820D01*
X2220397Y1708250D01*
X2220709Y1706680D01*
X2221599Y1705349D01*
X2221901Y1705147D01*
Y1681186D01*
X2221849Y1681151D01*
X2220959Y1679820D01*
X2220647Y1678250D01*
X2220959Y1676680D01*
X2221849Y1675349D01*
X2221901Y1675314D01*
Y1650936D01*
X2221849Y1650901D01*
X2220959Y1649570D01*
X2220647Y1648000D01*
X2220959Y1646430D01*
X2221849Y1645099D01*
X2221901Y1645064D01*
Y1621186D01*
X2221849Y1621151D01*
X2220959Y1619820D01*
X2220647Y1618250D01*
X2220959Y1616680D01*
X2221849Y1615349D01*
X2223180Y1614460D01*
X2224750Y1614147D01*
X2226320Y1614460D01*
X2227651Y1615349D01*
X2228540Y1616680D01*
X2228853Y1618250D01*
X2228540Y1619820D01*
X2227651Y1621151D01*
X2227599Y1621186D01*
Y1645064D01*
X2227651Y1645099D01*
X2228540Y1646430D01*
X2228853Y1648000D01*
X2228540Y1649570D01*
X2227651Y1650901D01*
X2227599Y1650936D01*
Y1675314D01*
X2227651Y1675349D01*
X2228540Y1676680D01*
X2228853Y1678250D01*
X2228540Y1679820D01*
X2227651Y1681151D01*
X2227599Y1681186D01*
Y1705645D01*
X2228291Y1706680D01*
X2228603Y1708250D01*
X2228291Y1709820D01*
X2227599Y1710855D01*
Y1735314D01*
X2227651Y1735349D01*
X2228540Y1736680D01*
X2228853Y1738250D01*
X2228540Y1739820D01*
X2227651Y1741151D01*
X2227599Y1741186D01*
Y1765314D01*
X2227651Y1765349D01*
X2228540Y1766680D01*
X2228853Y1768250D01*
X2228540Y1769820D01*
X2227651Y1771151D01*
X2227599Y1771186D01*
Y1795314D01*
X2227651Y1795349D01*
X2228540Y1796680D01*
X2228853Y1798250D01*
X2228540Y1799820D01*
X2227651Y1801151D01*
X2227599Y1801186D01*
Y1825895D01*
X2228291Y1826930D01*
X2228603Y1828500D01*
X2228291Y1830070D01*
X2227599Y1831105D01*
Y1855564D01*
X2227651Y1855599D01*
X2228540Y1856930D01*
X2228853Y1858500D01*
X2228540Y1860070D01*
X2227651Y1861401D01*
X2226320Y1862290D01*
X2224750Y1862603D01*
X2224688Y1862590D01*
X2189004Y1898274D01*
X2189205Y1899870D01*
X2190436Y1900814D01*
X2191882Y1902699D01*
X2192792Y1904894D01*
X2193102Y1907250D01*
X2192792Y1909606D01*
X2191882Y1911801D01*
X2190436Y1913686D01*
X2188551Y1915132D01*
X2186356Y1916042D01*
X2184000Y1916352D01*
D02*
G37*
G36*
X2158600D02*
X2156244Y1916042D01*
X2154049Y1915132D01*
X2152164Y1913686D01*
X2150717Y1911801D01*
X2149808Y1909606D01*
X2149498Y1907250D01*
X2149808Y1904894D01*
X2150717Y1902699D01*
X2152164Y1900814D01*
X2154049Y1899368D01*
X2155751Y1898662D01*
Y1894400D01*
X2155751Y1894400D01*
X2155968Y1893310D01*
X2156586Y1892386D01*
X2190409Y1858562D01*
X2190397Y1858500D01*
X2190709Y1856930D01*
X2191599Y1855599D01*
X2191651Y1855564D01*
Y1831603D01*
X2191349Y1831401D01*
X2190459Y1830070D01*
X2190147Y1828500D01*
X2190459Y1826930D01*
X2191349Y1825599D01*
X2191651Y1825397D01*
Y1801186D01*
X2191599Y1801151D01*
X2190709Y1799820D01*
X2190397Y1798250D01*
X2190709Y1796680D01*
X2191599Y1795349D01*
X2191651Y1795314D01*
Y1771186D01*
X2191599Y1771151D01*
X2190709Y1769820D01*
X2190397Y1768250D01*
X2190709Y1766680D01*
X2191599Y1765349D01*
X2191651Y1765314D01*
Y1741186D01*
X2191599Y1741151D01*
X2190709Y1739820D01*
X2190397Y1738250D01*
X2190709Y1736680D01*
X2191599Y1735349D01*
X2191651Y1735314D01*
Y1711353D01*
X2191349Y1711151D01*
X2190459Y1709820D01*
X2190147Y1708250D01*
X2190459Y1706680D01*
X2191349Y1705349D01*
X2191651Y1705147D01*
Y1681186D01*
X2191599Y1681151D01*
X2190709Y1679820D01*
X2190397Y1678250D01*
X2190709Y1676680D01*
X2191599Y1675349D01*
X2191651Y1675314D01*
Y1650936D01*
X2191599Y1650901D01*
X2190709Y1649570D01*
X2190397Y1648000D01*
X2190709Y1646430D01*
X2191599Y1645099D01*
X2191651Y1645064D01*
Y1621186D01*
X2191599Y1621151D01*
X2190709Y1619820D01*
X2190397Y1618250D01*
X2190709Y1616680D01*
X2191599Y1615349D01*
X2192930Y1614460D01*
X2194500Y1614147D01*
X2196070Y1614460D01*
X2197401Y1615349D01*
X2198290Y1616680D01*
X2198603Y1618250D01*
X2198290Y1619820D01*
X2197401Y1621151D01*
X2197349Y1621186D01*
Y1645064D01*
X2197401Y1645099D01*
X2198290Y1646430D01*
X2198603Y1648000D01*
X2198290Y1649570D01*
X2197401Y1650901D01*
X2197349Y1650936D01*
Y1675314D01*
X2197401Y1675349D01*
X2198290Y1676680D01*
X2198603Y1678250D01*
X2198290Y1679820D01*
X2197401Y1681151D01*
X2197349Y1681186D01*
Y1705645D01*
X2198040Y1706680D01*
X2198353Y1708250D01*
X2198040Y1709820D01*
X2197349Y1710855D01*
Y1735314D01*
X2197401Y1735349D01*
X2198290Y1736680D01*
X2198603Y1738250D01*
X2198290Y1739820D01*
X2197401Y1741151D01*
X2197349Y1741186D01*
Y1765314D01*
X2197401Y1765349D01*
X2198290Y1766680D01*
X2198603Y1768250D01*
X2198290Y1769820D01*
X2197401Y1771151D01*
X2197349Y1771186D01*
Y1795314D01*
X2197401Y1795349D01*
X2198290Y1796680D01*
X2198603Y1798250D01*
X2198290Y1799820D01*
X2197401Y1801151D01*
X2197349Y1801186D01*
Y1825895D01*
X2198040Y1826930D01*
X2198353Y1828500D01*
X2198040Y1830070D01*
X2197349Y1831105D01*
Y1855564D01*
X2197401Y1855599D01*
X2198290Y1856930D01*
X2198603Y1858500D01*
X2198290Y1860070D01*
X2197401Y1861401D01*
X2196070Y1862290D01*
X2194500Y1862603D01*
X2194438Y1862590D01*
X2161449Y1895580D01*
Y1898662D01*
X2163151Y1899368D01*
X2165036Y1900814D01*
X2166482Y1902699D01*
X2167392Y1904894D01*
X2167702Y1907250D01*
X2167392Y1909606D01*
X2166482Y1911801D01*
X2165036Y1913686D01*
X2163151Y1915132D01*
X2160956Y1916042D01*
X2158600Y1916352D01*
D02*
G37*
G36*
X2133200D02*
X2130844Y1916042D01*
X2128649Y1915132D01*
X2126764Y1913686D01*
X2125318Y1911801D01*
X2124408Y1909606D01*
X2124098Y1907250D01*
X2124408Y1904894D01*
X2125318Y1902699D01*
X2126764Y1900814D01*
X2128649Y1899368D01*
X2130351Y1898662D01*
Y1889800D01*
X2130351Y1889800D01*
X2130568Y1888710D01*
X2131186Y1887786D01*
X2160409Y1858562D01*
X2160397Y1858500D01*
X2160709Y1856930D01*
X2161599Y1855599D01*
X2161651Y1855564D01*
Y1831603D01*
X2161349Y1831401D01*
X2160459Y1830070D01*
X2160147Y1828500D01*
X2160459Y1826930D01*
X2161349Y1825599D01*
X2161651Y1825397D01*
Y1801186D01*
X2161599Y1801151D01*
X2160709Y1799820D01*
X2160397Y1798250D01*
X2160709Y1796680D01*
X2161599Y1795349D01*
X2161651Y1795314D01*
Y1771186D01*
X2161599Y1771151D01*
X2160709Y1769820D01*
X2160397Y1768250D01*
X2160709Y1766680D01*
X2161599Y1765349D01*
X2161651Y1765314D01*
Y1741186D01*
X2161599Y1741151D01*
X2160709Y1739820D01*
X2160397Y1738250D01*
X2160709Y1736680D01*
X2161599Y1735349D01*
X2161651Y1735314D01*
Y1711353D01*
X2161349Y1711151D01*
X2160459Y1709820D01*
X2160147Y1708250D01*
X2160459Y1706680D01*
X2161349Y1705349D01*
X2161651Y1705147D01*
Y1681186D01*
X2161599Y1681151D01*
X2160709Y1679820D01*
X2160397Y1678250D01*
X2160709Y1676680D01*
X2161599Y1675349D01*
X2161651Y1675314D01*
Y1650936D01*
X2161599Y1650901D01*
X2160709Y1649570D01*
X2160397Y1648000D01*
X2160709Y1646430D01*
X2161599Y1645099D01*
X2161651Y1645064D01*
Y1621186D01*
X2161599Y1621151D01*
X2160709Y1619820D01*
X2160397Y1618250D01*
X2160709Y1616680D01*
X2161599Y1615349D01*
X2162930Y1614460D01*
X2164500Y1614147D01*
X2166070Y1614460D01*
X2167401Y1615349D01*
X2168291Y1616680D01*
X2168603Y1618250D01*
X2168291Y1619820D01*
X2167401Y1621151D01*
X2167349Y1621186D01*
Y1645064D01*
X2167401Y1645099D01*
X2168291Y1646430D01*
X2168603Y1648000D01*
X2168291Y1649570D01*
X2167401Y1650901D01*
X2167349Y1650936D01*
Y1675314D01*
X2167401Y1675349D01*
X2168291Y1676680D01*
X2168603Y1678250D01*
X2168291Y1679820D01*
X2167401Y1681151D01*
X2167349Y1681186D01*
Y1705645D01*
X2168040Y1706680D01*
X2168353Y1708250D01*
X2168040Y1709820D01*
X2167349Y1710855D01*
Y1735314D01*
X2167401Y1735349D01*
X2168291Y1736680D01*
X2168603Y1738250D01*
X2168291Y1739820D01*
X2167401Y1741151D01*
X2167349Y1741186D01*
Y1765314D01*
X2167401Y1765349D01*
X2168291Y1766680D01*
X2168603Y1768250D01*
X2168291Y1769820D01*
X2167401Y1771151D01*
X2167349Y1771186D01*
Y1795314D01*
X2167401Y1795349D01*
X2168291Y1796680D01*
X2168603Y1798250D01*
X2168291Y1799820D01*
X2167401Y1801151D01*
X2167349Y1801186D01*
Y1825895D01*
X2168040Y1826930D01*
X2168353Y1828500D01*
X2168040Y1830070D01*
X2167349Y1831105D01*
Y1855564D01*
X2167401Y1855599D01*
X2168291Y1856930D01*
X2168603Y1858500D01*
X2168291Y1860070D01*
X2167401Y1861401D01*
X2166070Y1862290D01*
X2164500Y1862603D01*
X2164438Y1862590D01*
X2136049Y1890980D01*
Y1898662D01*
X2137751Y1899368D01*
X2139636Y1900814D01*
X2141082Y1902699D01*
X2141992Y1904894D01*
X2142302Y1907250D01*
X2141992Y1909606D01*
X2141082Y1911801D01*
X2139636Y1913686D01*
X2137751Y1915132D01*
X2135556Y1916042D01*
X2133200Y1916352D01*
D02*
G37*
G36*
X2107800D02*
X2105444Y1916042D01*
X2103249Y1915132D01*
X2101364Y1913686D01*
X2099917Y1911801D01*
X2099008Y1909606D01*
X2098698Y1907250D01*
X2099008Y1904894D01*
X2099917Y1902699D01*
X2101364Y1900814D01*
X2103249Y1899368D01*
X2104951Y1898662D01*
Y1885200D01*
X2104951Y1885200D01*
X2105168Y1884110D01*
X2105786Y1883186D01*
X2130409Y1858562D01*
X2130397Y1858500D01*
X2130709Y1856930D01*
X2131599Y1855599D01*
X2131651Y1855564D01*
Y1831603D01*
X2131349Y1831401D01*
X2130459Y1830070D01*
X2130147Y1828500D01*
X2130459Y1826930D01*
X2131349Y1825599D01*
X2131651Y1825397D01*
Y1801186D01*
X2131599Y1801151D01*
X2130709Y1799820D01*
X2130397Y1798250D01*
X2130709Y1796680D01*
X2131599Y1795349D01*
X2131651Y1795314D01*
Y1771186D01*
X2131599Y1771151D01*
X2130709Y1769820D01*
X2130397Y1768250D01*
X2130709Y1766680D01*
X2131599Y1765349D01*
X2131651Y1765314D01*
Y1741186D01*
X2131599Y1741151D01*
X2130709Y1739820D01*
X2130397Y1738250D01*
X2130709Y1736680D01*
X2131599Y1735349D01*
X2131651Y1735314D01*
Y1711353D01*
X2131349Y1711151D01*
X2130459Y1709820D01*
X2130147Y1708250D01*
X2130459Y1706680D01*
X2131349Y1705349D01*
X2131651Y1705147D01*
Y1681186D01*
X2131599Y1681151D01*
X2130709Y1679820D01*
X2130397Y1678250D01*
X2130709Y1676680D01*
X2131599Y1675349D01*
X2131651Y1675314D01*
Y1650936D01*
X2131599Y1650901D01*
X2130709Y1649570D01*
X2130397Y1648000D01*
X2130709Y1646430D01*
X2131599Y1645099D01*
X2131651Y1645064D01*
Y1621186D01*
X2131599Y1621151D01*
X2130709Y1619820D01*
X2130397Y1618250D01*
X2130709Y1616680D01*
X2131599Y1615349D01*
X2132930Y1614460D01*
X2134500Y1614147D01*
X2136070Y1614460D01*
X2137401Y1615349D01*
X2138291Y1616680D01*
X2138603Y1618250D01*
X2138291Y1619820D01*
X2137401Y1621151D01*
X2137349Y1621186D01*
Y1645064D01*
X2137401Y1645099D01*
X2138291Y1646430D01*
X2138603Y1648000D01*
X2138291Y1649570D01*
X2137401Y1650901D01*
X2137349Y1650936D01*
Y1675314D01*
X2137401Y1675349D01*
X2138291Y1676680D01*
X2138603Y1678250D01*
X2138291Y1679820D01*
X2137401Y1681151D01*
X2137349Y1681186D01*
Y1705645D01*
X2138040Y1706680D01*
X2138353Y1708250D01*
X2138040Y1709820D01*
X2137349Y1710855D01*
Y1735314D01*
X2137401Y1735349D01*
X2138291Y1736680D01*
X2138603Y1738250D01*
X2138291Y1739820D01*
X2137401Y1741151D01*
X2137349Y1741186D01*
Y1765314D01*
X2137401Y1765349D01*
X2138291Y1766680D01*
X2138603Y1768250D01*
X2138291Y1769820D01*
X2137401Y1771151D01*
X2137349Y1771186D01*
Y1795314D01*
X2137401Y1795349D01*
X2138291Y1796680D01*
X2138603Y1798250D01*
X2138291Y1799820D01*
X2137401Y1801151D01*
X2137349Y1801186D01*
Y1825895D01*
X2138040Y1826930D01*
X2138353Y1828500D01*
X2138040Y1830070D01*
X2137349Y1831105D01*
Y1855564D01*
X2137401Y1855599D01*
X2138291Y1856930D01*
X2138603Y1858500D01*
X2138291Y1860070D01*
X2137401Y1861401D01*
X2136070Y1862290D01*
X2134500Y1862603D01*
X2134438Y1862590D01*
X2110649Y1886380D01*
Y1898662D01*
X2112351Y1899368D01*
X2114236Y1900814D01*
X2115682Y1902699D01*
X2116592Y1904894D01*
X2116902Y1907250D01*
X2116592Y1909606D01*
X2115682Y1911801D01*
X2114236Y1913686D01*
X2112351Y1915132D01*
X2110156Y1916042D01*
X2107800Y1916352D01*
D02*
G37*
G36*
X2082400D02*
X2080044Y1916042D01*
X2077849Y1915132D01*
X2075964Y1913686D01*
X2074518Y1911801D01*
X2073608Y1909606D01*
X2073298Y1907250D01*
X2073608Y1904894D01*
X2074518Y1902699D01*
X2075964Y1900814D01*
X2077849Y1899368D01*
X2079551Y1898662D01*
Y1880600D01*
X2079551Y1880600D01*
X2079768Y1879510D01*
X2080386Y1878586D01*
X2100409Y1858562D01*
X2100397Y1858500D01*
X2100709Y1856930D01*
X2101599Y1855599D01*
X2101651Y1855564D01*
Y1831603D01*
X2101349Y1831401D01*
X2100459Y1830070D01*
X2100147Y1828500D01*
X2100459Y1826930D01*
X2101349Y1825599D01*
X2101651Y1825397D01*
Y1801186D01*
X2101599Y1801151D01*
X2100709Y1799820D01*
X2100397Y1798250D01*
X2100709Y1796680D01*
X2101599Y1795349D01*
X2101651Y1795314D01*
Y1771186D01*
X2101599Y1771151D01*
X2100709Y1769820D01*
X2100397Y1768250D01*
X2100709Y1766680D01*
X2101599Y1765349D01*
X2101651Y1765314D01*
Y1741186D01*
X2101599Y1741151D01*
X2100709Y1739820D01*
X2100397Y1738250D01*
X2100709Y1736680D01*
X2101599Y1735349D01*
X2101651Y1735314D01*
Y1711353D01*
X2101349Y1711151D01*
X2100459Y1709820D01*
X2100147Y1708250D01*
X2100459Y1706680D01*
X2101349Y1705349D01*
X2101651Y1705147D01*
Y1681186D01*
X2101599Y1681151D01*
X2100709Y1679820D01*
X2100397Y1678250D01*
X2100709Y1676680D01*
X2101599Y1675349D01*
X2101651Y1675314D01*
Y1650936D01*
X2101599Y1650901D01*
X2100709Y1649570D01*
X2100397Y1648000D01*
X2100709Y1646430D01*
X2101599Y1645099D01*
X2101651Y1645064D01*
Y1621186D01*
X2101599Y1621151D01*
X2100709Y1619820D01*
X2100397Y1618250D01*
X2100709Y1616680D01*
X2101599Y1615349D01*
X2102930Y1614460D01*
X2104500Y1614147D01*
X2106070Y1614460D01*
X2107401Y1615349D01*
X2108290Y1616680D01*
X2108603Y1618250D01*
X2108290Y1619820D01*
X2107401Y1621151D01*
X2107349Y1621186D01*
Y1645064D01*
X2107401Y1645099D01*
X2108290Y1646430D01*
X2108603Y1648000D01*
X2108290Y1649570D01*
X2107401Y1650901D01*
X2107349Y1650936D01*
Y1675314D01*
X2107401Y1675349D01*
X2108290Y1676680D01*
X2108603Y1678250D01*
X2108290Y1679820D01*
X2107401Y1681151D01*
X2107349Y1681186D01*
Y1705645D01*
X2108040Y1706680D01*
X2108353Y1708250D01*
X2108040Y1709820D01*
X2107349Y1710855D01*
Y1735314D01*
X2107401Y1735349D01*
X2108290Y1736680D01*
X2108603Y1738250D01*
X2108290Y1739820D01*
X2107401Y1741151D01*
X2107349Y1741186D01*
Y1765314D01*
X2107401Y1765349D01*
X2108290Y1766680D01*
X2108603Y1768250D01*
X2108290Y1769820D01*
X2107401Y1771151D01*
X2107349Y1771186D01*
Y1795314D01*
X2107401Y1795349D01*
X2108290Y1796680D01*
X2108603Y1798250D01*
X2108290Y1799820D01*
X2107401Y1801151D01*
X2107349Y1801186D01*
Y1825895D01*
X2108040Y1826930D01*
X2108353Y1828500D01*
X2108040Y1830070D01*
X2107349Y1831105D01*
Y1855564D01*
X2107401Y1855599D01*
X2108290Y1856930D01*
X2108603Y1858500D01*
X2108290Y1860070D01*
X2107401Y1861401D01*
X2106070Y1862290D01*
X2104500Y1862603D01*
X2104438Y1862590D01*
X2085249Y1881780D01*
Y1898662D01*
X2086951Y1899368D01*
X2088836Y1900814D01*
X2090282Y1902699D01*
X2091192Y1904894D01*
X2091502Y1907250D01*
X2091192Y1909606D01*
X2090282Y1911801D01*
X2088836Y1913686D01*
X2086951Y1915132D01*
X2084756Y1916042D01*
X2082400Y1916352D01*
D02*
G37*
G36*
X2057000D02*
X2054644Y1916042D01*
X2052449Y1915132D01*
X2050564Y1913686D01*
X2049117Y1911801D01*
X2048208Y1909606D01*
X2047898Y1907250D01*
X2048208Y1904894D01*
X2049117Y1902699D01*
X2050564Y1900814D01*
X2052449Y1899368D01*
X2054151Y1898662D01*
Y1876000D01*
X2054151Y1876000D01*
X2054368Y1874910D01*
X2054986Y1873986D01*
X2070409Y1858562D01*
X2070397Y1858500D01*
X2070709Y1856930D01*
X2071599Y1855599D01*
X2071651Y1855564D01*
Y1831603D01*
X2071349Y1831401D01*
X2070459Y1830070D01*
X2070147Y1828500D01*
X2070459Y1826930D01*
X2071349Y1825599D01*
X2071651Y1825397D01*
Y1801186D01*
X2071599Y1801151D01*
X2070709Y1799820D01*
X2070397Y1798250D01*
X2070709Y1796680D01*
X2071599Y1795349D01*
X2071651Y1795314D01*
Y1771186D01*
X2071599Y1771151D01*
X2070709Y1769820D01*
X2070397Y1768250D01*
X2070709Y1766680D01*
X2071599Y1765349D01*
X2071651Y1765314D01*
Y1741186D01*
X2071599Y1741151D01*
X2070709Y1739820D01*
X2070397Y1738250D01*
X2070709Y1736680D01*
X2071599Y1735349D01*
X2071651Y1735314D01*
Y1711353D01*
X2071349Y1711151D01*
X2070459Y1709820D01*
X2070147Y1708250D01*
X2070459Y1706680D01*
X2071349Y1705349D01*
X2071651Y1705147D01*
Y1681186D01*
X2071599Y1681151D01*
X2070709Y1679820D01*
X2070397Y1678250D01*
X2070709Y1676680D01*
X2071599Y1675349D01*
X2071651Y1675314D01*
Y1650936D01*
X2071599Y1650901D01*
X2070709Y1649570D01*
X2070397Y1648000D01*
X2070709Y1646430D01*
X2071599Y1645099D01*
X2071651Y1645064D01*
Y1621186D01*
X2071599Y1621151D01*
X2070709Y1619820D01*
X2070397Y1618250D01*
X2070709Y1616680D01*
X2071599Y1615349D01*
X2072930Y1614460D01*
X2074500Y1614147D01*
X2076070Y1614460D01*
X2077401Y1615349D01*
X2078291Y1616680D01*
X2078603Y1618250D01*
X2078291Y1619820D01*
X2077401Y1621151D01*
X2077349Y1621186D01*
Y1645064D01*
X2077401Y1645099D01*
X2078291Y1646430D01*
X2078603Y1648000D01*
X2078291Y1649570D01*
X2077401Y1650901D01*
X2077349Y1650936D01*
Y1675314D01*
X2077401Y1675349D01*
X2078291Y1676680D01*
X2078603Y1678250D01*
X2078291Y1679820D01*
X2077401Y1681151D01*
X2077349Y1681186D01*
Y1705645D01*
X2078040Y1706680D01*
X2078353Y1708250D01*
X2078040Y1709820D01*
X2077349Y1710855D01*
Y1735314D01*
X2077401Y1735349D01*
X2078291Y1736680D01*
X2078603Y1738250D01*
X2078291Y1739820D01*
X2077401Y1741151D01*
X2077349Y1741186D01*
Y1765314D01*
X2077401Y1765349D01*
X2078291Y1766680D01*
X2078603Y1768250D01*
X2078291Y1769820D01*
X2077401Y1771151D01*
X2077349Y1771186D01*
Y1795314D01*
X2077401Y1795349D01*
X2078291Y1796680D01*
X2078603Y1798250D01*
X2078291Y1799820D01*
X2077401Y1801151D01*
X2077349Y1801186D01*
Y1825895D01*
X2078040Y1826930D01*
X2078353Y1828500D01*
X2078040Y1830070D01*
X2077349Y1831105D01*
Y1855564D01*
X2077401Y1855599D01*
X2078291Y1856930D01*
X2078603Y1858500D01*
X2078291Y1860070D01*
X2077401Y1861401D01*
X2076070Y1862290D01*
X2074500Y1862603D01*
X2074438Y1862590D01*
X2059849Y1877180D01*
Y1898662D01*
X2061551Y1899368D01*
X2063436Y1900814D01*
X2064882Y1902699D01*
X2065792Y1904894D01*
X2066102Y1907250D01*
X2065792Y1909606D01*
X2064882Y1911801D01*
X2063436Y1913686D01*
X2061551Y1915132D01*
X2059356Y1916042D01*
X2057000Y1916352D01*
D02*
G37*
G36*
X2040624Y1916274D02*
X2022576D01*
Y1898226D01*
X2028751D01*
Y1871400D01*
X2028751Y1871400D01*
X2028968Y1870310D01*
X2029586Y1869386D01*
X2040409Y1858562D01*
X2040397Y1858500D01*
X2040709Y1856930D01*
X2041599Y1855599D01*
X2041651Y1855564D01*
Y1831603D01*
X2041349Y1831401D01*
X2040459Y1830070D01*
X2040147Y1828500D01*
X2040459Y1826930D01*
X2041349Y1825599D01*
X2041651Y1825397D01*
Y1801186D01*
X2041599Y1801151D01*
X2040709Y1799820D01*
X2040397Y1798250D01*
X2040709Y1796680D01*
X2041599Y1795349D01*
X2041651Y1795314D01*
Y1771186D01*
X2041599Y1771151D01*
X2040709Y1769820D01*
X2040397Y1768250D01*
X2040709Y1766680D01*
X2041599Y1765349D01*
X2041651Y1765314D01*
Y1741186D01*
X2041599Y1741151D01*
X2040709Y1739820D01*
X2040397Y1738250D01*
X2040709Y1736680D01*
X2041599Y1735349D01*
X2041651Y1735314D01*
Y1711353D01*
X2041349Y1711151D01*
X2040459Y1709820D01*
X2040147Y1708250D01*
X2040459Y1706680D01*
X2041349Y1705349D01*
X2041651Y1705147D01*
Y1681186D01*
X2041599Y1681151D01*
X2040709Y1679820D01*
X2040397Y1678250D01*
X2040709Y1676680D01*
X2041599Y1675349D01*
X2041651Y1675314D01*
Y1650936D01*
X2041599Y1650901D01*
X2040709Y1649570D01*
X2040397Y1648000D01*
X2040709Y1646430D01*
X2041599Y1645099D01*
X2041651Y1645064D01*
Y1621186D01*
X2041599Y1621151D01*
X2040709Y1619820D01*
X2040397Y1618250D01*
X2040709Y1616680D01*
X2041599Y1615349D01*
X2042930Y1614460D01*
X2044500Y1614147D01*
X2046070Y1614460D01*
X2047401Y1615349D01*
X2048290Y1616680D01*
X2048603Y1618250D01*
X2048290Y1619820D01*
X2047401Y1621151D01*
X2047349Y1621186D01*
Y1645064D01*
X2047401Y1645099D01*
X2048290Y1646430D01*
X2048603Y1648000D01*
X2048290Y1649570D01*
X2047401Y1650901D01*
X2047349Y1650936D01*
Y1675314D01*
X2047401Y1675349D01*
X2048290Y1676680D01*
X2048603Y1678250D01*
X2048290Y1679820D01*
X2047401Y1681151D01*
X2047349Y1681186D01*
Y1705645D01*
X2048040Y1706680D01*
X2048353Y1708250D01*
X2048040Y1709820D01*
X2047349Y1710855D01*
Y1735314D01*
X2047401Y1735349D01*
X2048290Y1736680D01*
X2048603Y1738250D01*
X2048290Y1739820D01*
X2047401Y1741151D01*
X2047349Y1741186D01*
Y1765314D01*
X2047401Y1765349D01*
X2048290Y1766680D01*
X2048603Y1768250D01*
X2048290Y1769820D01*
X2047401Y1771151D01*
X2047349Y1771186D01*
Y1795314D01*
X2047401Y1795349D01*
X2048290Y1796680D01*
X2048603Y1798250D01*
X2048290Y1799820D01*
X2047401Y1801151D01*
X2047349Y1801186D01*
Y1825895D01*
X2048040Y1826930D01*
X2048353Y1828500D01*
X2048040Y1830070D01*
X2047349Y1831105D01*
Y1855564D01*
X2047401Y1855599D01*
X2048290Y1856930D01*
X2048603Y1858500D01*
X2048290Y1860070D01*
X2047401Y1861401D01*
X2046070Y1862290D01*
X2044500Y1862603D01*
X2044438Y1862590D01*
X2034449Y1872580D01*
Y1898226D01*
X2040624D01*
Y1916274D01*
D02*
G37*
G36*
X2006600Y1916352D02*
X2004244Y1916042D01*
X2002049Y1915132D01*
X2000164Y1913686D01*
X1998717Y1911801D01*
X1997808Y1909606D01*
X1997498Y1907250D01*
X1997808Y1904894D01*
X1998717Y1902699D01*
X2000164Y1900814D01*
X2002049Y1899368D01*
X2003751Y1898663D01*
Y1866650D01*
X2003751Y1866650D01*
X2003968Y1865560D01*
X2004586Y1864636D01*
X2010659Y1858562D01*
X2010647Y1858500D01*
X2010959Y1856930D01*
X2011849Y1855599D01*
X2011901Y1855564D01*
Y1831603D01*
X2011599Y1831401D01*
X2010709Y1830070D01*
X2010397Y1828500D01*
X2010709Y1826930D01*
X2011599Y1825599D01*
X2011901Y1825397D01*
Y1801186D01*
X2011849Y1801151D01*
X2010959Y1799820D01*
X2010647Y1798250D01*
X2010959Y1796680D01*
X2011849Y1795349D01*
X2011901Y1795314D01*
Y1771186D01*
X2011849Y1771151D01*
X2010959Y1769820D01*
X2010647Y1768250D01*
X2010959Y1766680D01*
X2011849Y1765349D01*
X2011901Y1765314D01*
Y1741186D01*
X2011849Y1741151D01*
X2010959Y1739820D01*
X2010647Y1738250D01*
X2010959Y1736680D01*
X2011849Y1735349D01*
X2011901Y1735314D01*
Y1711353D01*
X2011599Y1711151D01*
X2010709Y1709820D01*
X2010397Y1708250D01*
X2010709Y1706680D01*
X2011599Y1705349D01*
X2011901Y1705147D01*
Y1681186D01*
X2011849Y1681151D01*
X2010959Y1679820D01*
X2010647Y1678250D01*
X2010959Y1676680D01*
X2011849Y1675349D01*
X2011901Y1675314D01*
Y1650936D01*
X2011849Y1650901D01*
X2010959Y1649570D01*
X2010647Y1648000D01*
X2010959Y1646430D01*
X2011849Y1645099D01*
X2011901Y1645064D01*
Y1621186D01*
X2011849Y1621151D01*
X2010959Y1619820D01*
X2010647Y1618250D01*
X2010959Y1616680D01*
X2011849Y1615349D01*
X2013180Y1614460D01*
X2014750Y1614147D01*
X2016320Y1614460D01*
X2017651Y1615349D01*
X2018540Y1616680D01*
X2018853Y1618250D01*
X2018540Y1619820D01*
X2017651Y1621151D01*
X2017599Y1621186D01*
Y1645064D01*
X2017651Y1645099D01*
X2018540Y1646430D01*
X2018853Y1648000D01*
X2018540Y1649570D01*
X2017651Y1650901D01*
X2017599Y1650936D01*
Y1675314D01*
X2017651Y1675349D01*
X2018540Y1676680D01*
X2018853Y1678250D01*
X2018540Y1679820D01*
X2017651Y1681151D01*
X2017599Y1681186D01*
Y1705645D01*
X2018291Y1706680D01*
X2018603Y1708250D01*
X2018291Y1709820D01*
X2017599Y1710855D01*
Y1735314D01*
X2017651Y1735349D01*
X2018540Y1736680D01*
X2018853Y1738250D01*
X2018540Y1739820D01*
X2017651Y1741151D01*
X2017599Y1741186D01*
Y1765314D01*
X2017651Y1765349D01*
X2018540Y1766680D01*
X2018853Y1768250D01*
X2018540Y1769820D01*
X2017651Y1771151D01*
X2017599Y1771186D01*
Y1795314D01*
X2017651Y1795349D01*
X2018540Y1796680D01*
X2018853Y1798250D01*
X2018540Y1799820D01*
X2017651Y1801151D01*
X2017599Y1801186D01*
Y1825895D01*
X2018291Y1826930D01*
X2018603Y1828500D01*
X2018291Y1830070D01*
X2017599Y1831105D01*
Y1855564D01*
X2017651Y1855599D01*
X2018540Y1856930D01*
X2018853Y1858500D01*
X2018540Y1860070D01*
X2017651Y1861401D01*
X2016320Y1862290D01*
X2014750Y1862603D01*
X2014688Y1862590D01*
X2009449Y1867830D01*
Y1898663D01*
X2011151Y1899368D01*
X2013036Y1900814D01*
X2014482Y1902699D01*
X2015392Y1904894D01*
X2015702Y1907250D01*
X2015392Y1909606D01*
X2014482Y1911801D01*
X2013036Y1913686D01*
X2011151Y1915132D01*
X2008956Y1916042D01*
X2006600Y1916352D01*
D02*
G37*
G36*
X1981200D02*
X1978844Y1916042D01*
X1976649Y1915132D01*
X1974764Y1913686D01*
X1973318Y1911801D01*
X1972408Y1909606D01*
X1972098Y1907250D01*
X1972408Y1904894D01*
X1973318Y1902699D01*
X1974764Y1900814D01*
X1976649Y1899368D01*
X1978351Y1898663D01*
Y1861800D01*
X1978351Y1861800D01*
X1978568Y1860710D01*
X1979186Y1859786D01*
X1980409Y1858562D01*
X1980397Y1858500D01*
X1980709Y1856930D01*
X1981599Y1855599D01*
X1981651Y1855564D01*
Y1831603D01*
X1981349Y1831401D01*
X1980459Y1830070D01*
X1980147Y1828500D01*
X1980459Y1826930D01*
X1981349Y1825599D01*
X1981651Y1825397D01*
Y1801186D01*
X1981599Y1801151D01*
X1980709Y1799820D01*
X1980397Y1798250D01*
X1980709Y1796680D01*
X1981599Y1795349D01*
X1981651Y1795314D01*
Y1771186D01*
X1981599Y1771151D01*
X1980709Y1769820D01*
X1980397Y1768250D01*
X1980709Y1766680D01*
X1981599Y1765349D01*
X1981651Y1765314D01*
Y1741186D01*
X1981599Y1741151D01*
X1980709Y1739820D01*
X1980397Y1738250D01*
X1980709Y1736680D01*
X1981599Y1735349D01*
X1981651Y1735314D01*
Y1711353D01*
X1981349Y1711151D01*
X1980459Y1709820D01*
X1980147Y1708250D01*
X1980459Y1706680D01*
X1981349Y1705349D01*
X1981651Y1705147D01*
Y1681186D01*
X1981599Y1681151D01*
X1980709Y1679820D01*
X1980397Y1678250D01*
X1980709Y1676680D01*
X1981599Y1675349D01*
X1981651Y1675314D01*
Y1650936D01*
X1981599Y1650901D01*
X1980709Y1649570D01*
X1980397Y1648000D01*
X1980709Y1646430D01*
X1981599Y1645099D01*
X1981651Y1645064D01*
Y1621186D01*
X1981599Y1621151D01*
X1980709Y1619820D01*
X1980397Y1618250D01*
X1980709Y1616680D01*
X1981599Y1615349D01*
X1982930Y1614460D01*
X1984500Y1614147D01*
X1986070Y1614460D01*
X1987401Y1615349D01*
X1988291Y1616680D01*
X1988603Y1618250D01*
X1988291Y1619820D01*
X1987401Y1621151D01*
X1987349Y1621186D01*
Y1645064D01*
X1987401Y1645099D01*
X1988291Y1646430D01*
X1988603Y1648000D01*
X1988291Y1649570D01*
X1987401Y1650901D01*
X1987349Y1650936D01*
Y1675314D01*
X1987401Y1675349D01*
X1988291Y1676680D01*
X1988603Y1678250D01*
X1988291Y1679820D01*
X1987401Y1681151D01*
X1987349Y1681186D01*
Y1705645D01*
X1988040Y1706680D01*
X1988353Y1708250D01*
X1988040Y1709820D01*
X1987349Y1710855D01*
Y1735314D01*
X1987401Y1735349D01*
X1988291Y1736680D01*
X1988603Y1738250D01*
X1988291Y1739820D01*
X1987401Y1741151D01*
X1987349Y1741186D01*
Y1765314D01*
X1987401Y1765349D01*
X1988291Y1766680D01*
X1988603Y1768250D01*
X1988291Y1769820D01*
X1987401Y1771151D01*
X1987349Y1771186D01*
Y1795314D01*
X1987401Y1795349D01*
X1988291Y1796680D01*
X1988603Y1798250D01*
X1988291Y1799820D01*
X1987401Y1801151D01*
X1987349Y1801186D01*
Y1825895D01*
X1988040Y1826930D01*
X1988353Y1828500D01*
X1988040Y1830070D01*
X1987349Y1831105D01*
Y1855564D01*
X1987401Y1855599D01*
X1988291Y1856930D01*
X1988603Y1858500D01*
X1988291Y1860070D01*
X1987401Y1861401D01*
X1986070Y1862290D01*
X1984500Y1862603D01*
X1984049Y1863741D01*
Y1898663D01*
X1985751Y1899368D01*
X1987636Y1900814D01*
X1989082Y1902699D01*
X1989992Y1904894D01*
X1990302Y1907250D01*
X1989992Y1909606D01*
X1989082Y1911801D01*
X1987636Y1913686D01*
X1985751Y1915132D01*
X1983556Y1916042D01*
X1981200Y1916352D01*
D02*
G37*
G36*
X1955800D02*
X1953444Y1916042D01*
X1951249Y1915132D01*
X1949364Y1913686D01*
X1947917Y1911801D01*
X1947008Y1909606D01*
X1946698Y1907250D01*
X1947008Y1904894D01*
X1947917Y1902699D01*
X1949364Y1900814D01*
X1951249Y1899368D01*
X1952951Y1898663D01*
Y1862295D01*
X1952930Y1862290D01*
X1951599Y1861401D01*
X1950709Y1860070D01*
X1950397Y1858500D01*
X1950709Y1856930D01*
X1951599Y1855599D01*
X1951651Y1855564D01*
Y1831603D01*
X1951349Y1831401D01*
X1950459Y1830070D01*
X1950147Y1828500D01*
X1950459Y1826930D01*
X1951349Y1825599D01*
X1951651Y1825397D01*
Y1801186D01*
X1951599Y1801151D01*
X1950709Y1799820D01*
X1950397Y1798250D01*
X1950709Y1796680D01*
X1951599Y1795349D01*
X1951651Y1795314D01*
Y1771186D01*
X1951599Y1771151D01*
X1950709Y1769820D01*
X1950397Y1768250D01*
X1950709Y1766680D01*
X1951599Y1765349D01*
X1951651Y1765314D01*
Y1741186D01*
X1951599Y1741151D01*
X1950709Y1739820D01*
X1950397Y1738250D01*
X1950709Y1736680D01*
X1951599Y1735349D01*
X1951651Y1735314D01*
Y1711353D01*
X1951349Y1711151D01*
X1950459Y1709820D01*
X1950147Y1708250D01*
X1950459Y1706680D01*
X1951349Y1705349D01*
X1951651Y1705147D01*
Y1681186D01*
X1951599Y1681151D01*
X1950709Y1679820D01*
X1950397Y1678250D01*
X1950709Y1676680D01*
X1951599Y1675349D01*
X1951651Y1675314D01*
Y1650936D01*
X1951599Y1650901D01*
X1950709Y1649570D01*
X1950397Y1648000D01*
X1950709Y1646430D01*
X1951599Y1645099D01*
X1951651Y1645064D01*
Y1621186D01*
X1951599Y1621151D01*
X1950709Y1619820D01*
X1950397Y1618250D01*
X1950709Y1616680D01*
X1951599Y1615349D01*
X1952930Y1614460D01*
X1954500Y1614147D01*
X1956070Y1614460D01*
X1957401Y1615349D01*
X1958290Y1616680D01*
X1958603Y1618250D01*
X1958290Y1619820D01*
X1957401Y1621151D01*
X1957349Y1621186D01*
Y1645064D01*
X1957401Y1645099D01*
X1958290Y1646430D01*
X1958603Y1648000D01*
X1958290Y1649570D01*
X1957401Y1650901D01*
X1957349Y1650936D01*
Y1675314D01*
X1957401Y1675349D01*
X1958290Y1676680D01*
X1958603Y1678250D01*
X1958290Y1679820D01*
X1957401Y1681151D01*
X1957349Y1681186D01*
Y1705645D01*
X1958040Y1706680D01*
X1958353Y1708250D01*
X1958040Y1709820D01*
X1957349Y1710855D01*
Y1735314D01*
X1957401Y1735349D01*
X1958290Y1736680D01*
X1958603Y1738250D01*
X1958290Y1739820D01*
X1957401Y1741151D01*
X1957349Y1741186D01*
Y1765314D01*
X1957401Y1765349D01*
X1958290Y1766680D01*
X1958603Y1768250D01*
X1958290Y1769820D01*
X1957401Y1771151D01*
X1957349Y1771186D01*
Y1795314D01*
X1957401Y1795349D01*
X1958290Y1796680D01*
X1958603Y1798250D01*
X1958290Y1799820D01*
X1957401Y1801151D01*
X1957349Y1801186D01*
Y1825895D01*
X1958040Y1826930D01*
X1958353Y1828500D01*
X1958040Y1830070D01*
X1957349Y1831105D01*
Y1855564D01*
X1957401Y1855599D01*
X1958290Y1856930D01*
X1958603Y1858500D01*
X1958496Y1859034D01*
X1958649Y1859800D01*
Y1898663D01*
X1960351Y1899368D01*
X1962236Y1900814D01*
X1963682Y1902699D01*
X1964592Y1904894D01*
X1964902Y1907250D01*
X1964592Y1909606D01*
X1963682Y1911801D01*
X1962236Y1913686D01*
X1960351Y1915132D01*
X1958156Y1916042D01*
X1955800Y1916352D01*
D02*
G37*
G36*
X2361800Y1916352D02*
X2359444Y1916042D01*
X2357249Y1915132D01*
X2355364Y1913686D01*
X2353918Y1911801D01*
X2353008Y1909606D01*
X2352698Y1907250D01*
X2353008Y1904894D01*
X2353918Y1902699D01*
X2355364Y1900814D01*
X2357249Y1899368D01*
X2359444Y1898458D01*
X2361800Y1898148D01*
X2364156Y1898458D01*
X2366351Y1899368D01*
X2368236Y1900814D01*
X2369682Y1902699D01*
X2370388Y1904401D01*
X2372070D01*
X2420986Y1855486D01*
X2420986Y1855486D01*
X2421910Y1854868D01*
X2423000Y1854651D01*
X2423000Y1854651D01*
X2431814D01*
X2431849Y1854599D01*
X2431901Y1854564D01*
Y1830603D01*
X2431599Y1830401D01*
X2430709Y1829070D01*
X2430397Y1827500D01*
X2430709Y1825930D01*
X2431599Y1824599D01*
X2431901Y1824397D01*
Y1800186D01*
X2431849Y1800151D01*
X2430959Y1798820D01*
X2430647Y1797250D01*
X2430959Y1795680D01*
X2431849Y1794349D01*
X2431901Y1794314D01*
Y1770186D01*
X2431849Y1770151D01*
X2430959Y1768820D01*
X2430647Y1767250D01*
X2430959Y1765680D01*
X2431849Y1764349D01*
X2431901Y1764314D01*
Y1740186D01*
X2431849Y1740151D01*
X2430959Y1738820D01*
X2430647Y1737250D01*
X2430959Y1735680D01*
X2431849Y1734349D01*
X2431901Y1734314D01*
Y1710353D01*
X2431599Y1710151D01*
X2430709Y1708820D01*
X2430397Y1707250D01*
X2430709Y1705680D01*
X2431599Y1704349D01*
X2431901Y1704147D01*
Y1680186D01*
X2431849Y1680151D01*
X2430959Y1678820D01*
X2430647Y1677250D01*
X2430959Y1675680D01*
X2431849Y1674349D01*
X2431901Y1674314D01*
Y1649936D01*
X2431849Y1649901D01*
X2430959Y1648570D01*
X2430647Y1647000D01*
X2430959Y1645430D01*
X2431849Y1644099D01*
X2431901Y1644064D01*
Y1620186D01*
X2431849Y1620151D01*
X2430959Y1618820D01*
X2430647Y1617250D01*
X2430959Y1615680D01*
X2431849Y1614349D01*
X2433180Y1613459D01*
X2434750Y1613147D01*
X2436320Y1613459D01*
X2437651Y1614349D01*
X2438540Y1615680D01*
X2438853Y1617250D01*
X2438540Y1618820D01*
X2437651Y1620151D01*
X2437599Y1620186D01*
Y1644064D01*
X2437651Y1644099D01*
X2438540Y1645430D01*
X2438853Y1647000D01*
X2438540Y1648570D01*
X2437651Y1649901D01*
X2437599Y1649936D01*
Y1674314D01*
X2437651Y1674349D01*
X2438540Y1675680D01*
X2438853Y1677250D01*
X2438540Y1678820D01*
X2437651Y1680151D01*
X2437599Y1680186D01*
Y1704645D01*
X2438291Y1705680D01*
X2438603Y1707250D01*
X2438291Y1708820D01*
X2437599Y1709855D01*
Y1734314D01*
X2437651Y1734349D01*
X2438540Y1735680D01*
X2438853Y1737250D01*
X2438540Y1738820D01*
X2437651Y1740151D01*
X2437599Y1740186D01*
Y1764314D01*
X2437651Y1764349D01*
X2438540Y1765680D01*
X2438853Y1767250D01*
X2438540Y1768820D01*
X2437651Y1770151D01*
X2437599Y1770186D01*
Y1794314D01*
X2437651Y1794349D01*
X2438540Y1795680D01*
X2438853Y1797250D01*
X2438540Y1798820D01*
X2437651Y1800151D01*
X2437599Y1800186D01*
Y1824895D01*
X2438291Y1825930D01*
X2438603Y1827500D01*
X2438291Y1829070D01*
X2437599Y1830105D01*
Y1854564D01*
X2437651Y1854599D01*
X2438540Y1855930D01*
X2438853Y1857500D01*
X2438540Y1859070D01*
X2437651Y1860401D01*
X2436320Y1861290D01*
X2434750Y1861603D01*
X2433180Y1861290D01*
X2431849Y1860401D01*
X2431814Y1860349D01*
X2424180D01*
X2375264Y1909264D01*
X2374340Y1909882D01*
X2373250Y1910099D01*
X2373250Y1910099D01*
X2370388D01*
X2369682Y1911801D01*
X2368236Y1913686D01*
X2366351Y1915132D01*
X2364156Y1916042D01*
X2361800Y1916352D01*
D02*
G37*
G36*
X2040524Y1606024D02*
X2022476D01*
Y1587976D01*
X2040524D01*
Y1606024D01*
D02*
G37*
G36*
X2234700Y1606102D02*
X2232344Y1605792D01*
X2230149Y1604882D01*
X2228264Y1603436D01*
X2226817Y1601551D01*
X2225908Y1599356D01*
X2225598Y1597000D01*
X2225908Y1594644D01*
X2226817Y1592449D01*
X2228264Y1590564D01*
X2230149Y1589117D01*
X2232344Y1588208D01*
X2234700Y1587898D01*
X2237056Y1588208D01*
X2239251Y1589117D01*
X2241136Y1590564D01*
X2242582Y1592449D01*
X2243492Y1594644D01*
X2243802Y1597000D01*
X2243492Y1599356D01*
X2242582Y1601551D01*
X2241136Y1603436D01*
X2239251Y1604882D01*
X2237056Y1605792D01*
X2234700Y1606102D01*
D02*
G37*
G36*
X2209300D02*
X2206944Y1605792D01*
X2204749Y1604882D01*
X2202864Y1603436D01*
X2201418Y1601551D01*
X2200508Y1599356D01*
X2200198Y1597000D01*
X2200508Y1594644D01*
X2201418Y1592449D01*
X2202864Y1590564D01*
X2204749Y1589117D01*
X2206944Y1588208D01*
X2209300Y1587898D01*
X2211656Y1588208D01*
X2213851Y1589117D01*
X2215736Y1590564D01*
X2217182Y1592449D01*
X2218092Y1594644D01*
X2218402Y1597000D01*
X2218092Y1599356D01*
X2217182Y1601551D01*
X2215736Y1603436D01*
X2213851Y1604882D01*
X2211656Y1605792D01*
X2209300Y1606102D01*
D02*
G37*
G36*
X2183900D02*
X2181544Y1605792D01*
X2179349Y1604882D01*
X2177464Y1603436D01*
X2176017Y1601551D01*
X2175108Y1599356D01*
X2174798Y1597000D01*
X2175108Y1594644D01*
X2176017Y1592449D01*
X2177464Y1590564D01*
X2179349Y1589117D01*
X2181544Y1588208D01*
X2183900Y1587898D01*
X2186256Y1588208D01*
X2188451Y1589117D01*
X2190336Y1590564D01*
X2191782Y1592449D01*
X2192692Y1594644D01*
X2193002Y1597000D01*
X2192692Y1599356D01*
X2191782Y1601551D01*
X2190336Y1603436D01*
X2188451Y1604882D01*
X2186256Y1605792D01*
X2183900Y1606102D01*
D02*
G37*
G36*
X2158500D02*
X2156144Y1605792D01*
X2153949Y1604882D01*
X2152064Y1603436D01*
X2150618Y1601551D01*
X2149708Y1599356D01*
X2149398Y1597000D01*
X2149708Y1594644D01*
X2150618Y1592449D01*
X2152064Y1590564D01*
X2153949Y1589117D01*
X2156144Y1588208D01*
X2158500Y1587898D01*
X2160856Y1588208D01*
X2163051Y1589117D01*
X2164936Y1590564D01*
X2166382Y1592449D01*
X2167292Y1594644D01*
X2167602Y1597000D01*
X2167292Y1599356D01*
X2166382Y1601551D01*
X2164936Y1603436D01*
X2163051Y1604882D01*
X2160856Y1605792D01*
X2158500Y1606102D01*
D02*
G37*
G36*
X2133100D02*
X2130744Y1605792D01*
X2128549Y1604882D01*
X2126664Y1603436D01*
X2125217Y1601551D01*
X2124308Y1599356D01*
X2123998Y1597000D01*
X2124308Y1594644D01*
X2125217Y1592449D01*
X2126664Y1590564D01*
X2128549Y1589117D01*
X2130744Y1588208D01*
X2133100Y1587898D01*
X2135456Y1588208D01*
X2137651Y1589117D01*
X2139536Y1590564D01*
X2140982Y1592449D01*
X2141892Y1594644D01*
X2142202Y1597000D01*
X2141892Y1599356D01*
X2140982Y1601551D01*
X2139536Y1603436D01*
X2137651Y1604882D01*
X2135456Y1605792D01*
X2133100Y1606102D01*
D02*
G37*
G36*
X2107700D02*
X2105344Y1605792D01*
X2103149Y1604882D01*
X2101264Y1603436D01*
X2099818Y1601551D01*
X2098908Y1599356D01*
X2098598Y1597000D01*
X2098908Y1594644D01*
X2099818Y1592449D01*
X2101264Y1590564D01*
X2103149Y1589117D01*
X2105344Y1588208D01*
X2107700Y1587898D01*
X2110056Y1588208D01*
X2112251Y1589117D01*
X2114136Y1590564D01*
X2115582Y1592449D01*
X2116492Y1594644D01*
X2116802Y1597000D01*
X2116492Y1599356D01*
X2115582Y1601551D01*
X2114136Y1603436D01*
X2112251Y1604882D01*
X2110056Y1605792D01*
X2107700Y1606102D01*
D02*
G37*
G36*
X2082300D02*
X2079944Y1605792D01*
X2077749Y1604882D01*
X2075864Y1603436D01*
X2074418Y1601551D01*
X2073508Y1599356D01*
X2073198Y1597000D01*
X2073508Y1594644D01*
X2074418Y1592449D01*
X2075864Y1590564D01*
X2077749Y1589117D01*
X2079944Y1588208D01*
X2082300Y1587898D01*
X2084656Y1588208D01*
X2086851Y1589117D01*
X2088736Y1590564D01*
X2090182Y1592449D01*
X2091092Y1594644D01*
X2091402Y1597000D01*
X2091092Y1599356D01*
X2090182Y1601551D01*
X2088736Y1603436D01*
X2086851Y1604882D01*
X2084656Y1605792D01*
X2082300Y1606102D01*
D02*
G37*
G36*
X2056900D02*
X2054544Y1605792D01*
X2052349Y1604882D01*
X2050464Y1603436D01*
X2049017Y1601551D01*
X2048108Y1599356D01*
X2047798Y1597000D01*
X2048108Y1594644D01*
X2049017Y1592449D01*
X2050464Y1590564D01*
X2052349Y1589117D01*
X2054544Y1588208D01*
X2056900Y1587898D01*
X2059256Y1588208D01*
X2061451Y1589117D01*
X2063336Y1590564D01*
X2064782Y1592449D01*
X2065692Y1594644D01*
X2066002Y1597000D01*
X2065692Y1599356D01*
X2064782Y1601551D01*
X2063336Y1603436D01*
X2061451Y1604882D01*
X2059256Y1605792D01*
X2056900Y1606102D01*
D02*
G37*
G36*
X2479000Y1618604D02*
X2475761Y1618285D01*
X2472646Y1617340D01*
X2469775Y1615806D01*
X2467259Y1613741D01*
X2465194Y1611225D01*
X2463660Y1608354D01*
X2462715Y1605239D01*
X2462396Y1602000D01*
X2462715Y1598761D01*
X2463660Y1595646D01*
X2465194Y1592775D01*
X2467259Y1590259D01*
X2469775Y1588194D01*
X2472646Y1586660D01*
X2475761Y1585715D01*
X2479000Y1585396D01*
X2482239Y1585715D01*
X2485354Y1586660D01*
X2488225Y1588194D01*
X2490741Y1590259D01*
X2492806Y1592775D01*
X2494340Y1595646D01*
X2495285Y1598761D01*
X2495604Y1602000D01*
X2495285Y1605239D01*
X2494340Y1608354D01*
X2492806Y1611225D01*
X2490741Y1613741D01*
X2488225Y1615806D01*
X2485354Y1617340D01*
X2482239Y1618285D01*
X2479000Y1618604D01*
D02*
G37*
G36*
X1279000D02*
X1275761Y1618285D01*
X1272646Y1617340D01*
X1269775Y1615806D01*
X1267259Y1613741D01*
X1265194Y1611225D01*
X1263660Y1608354D01*
X1262715Y1605239D01*
X1262396Y1602000D01*
X1262715Y1598761D01*
X1263660Y1595646D01*
X1265194Y1592775D01*
X1267259Y1590259D01*
X1269775Y1588194D01*
X1272646Y1586660D01*
X1275761Y1585715D01*
X1279000Y1585396D01*
X1282239Y1585715D01*
X1285354Y1586660D01*
X1288225Y1588194D01*
X1290741Y1590259D01*
X1292806Y1592775D01*
X1294340Y1595646D01*
X1295285Y1598761D01*
X1295604Y1602000D01*
X1295285Y1605239D01*
X1294340Y1608354D01*
X1292806Y1611225D01*
X1290741Y1613741D01*
X1288225Y1615806D01*
X1285354Y1617340D01*
X1282239Y1618285D01*
X1279000Y1618604D01*
D02*
G37*
%LPD*%
D11*
X2434750Y1677250D02*
Y1737250D01*
Y1797250D02*
Y1857000D01*
X2423000Y1857500D02*
X2434750D01*
X2373250Y1907250D02*
X2423000Y1857500D01*
X2361800Y1907250D02*
X2373250D01*
X2404750Y1678250D02*
Y1738250D01*
Y1798250D02*
Y1858000D01*
X2389750Y1858500D02*
X2404750D01*
X2341000Y1907250D02*
X2389750Y1858500D01*
X2336400Y1907250D02*
X2341000D01*
X2271250Y1858250D02*
X2274250Y1855250D01*
Y1620500D02*
Y1855250D01*
X2243750Y1620388D02*
Y1832000D01*
X2214500Y1620388D02*
Y1802138D01*
X2182750Y1620000D02*
Y1771000D01*
X2152750Y1620000D02*
Y1740000D01*
X2121750Y1620000D02*
Y1710000D01*
X2094000Y1620388D02*
Y1680250D01*
X2063750Y1620500D02*
Y1651000D01*
X2063250Y1620000D02*
X2063750Y1620500D01*
X1324750Y1797750D02*
Y1857500D01*
Y1858000D02*
X1363000Y1896250D01*
X1411400D01*
X1422400Y1907250D01*
X1354500Y1797500D02*
Y1857250D01*
Y1677500D02*
Y1737500D01*
X1430800Y1890250D02*
X1447800Y1907250D01*
X1387000Y1890250D02*
X1430800D01*
X1354500Y1857750D02*
X1387000Y1890250D01*
X1384500Y1797750D02*
Y1857500D01*
Y1677750D02*
Y1737750D01*
X1449450Y1883500D02*
X1473200Y1907250D01*
X1410000Y1883500D02*
X1449450D01*
X1384500Y1858000D02*
X1410000Y1883500D01*
X1414500Y1797750D02*
Y1857500D01*
Y1677750D02*
Y1737750D01*
X1469100Y1877750D02*
X1498600Y1907250D01*
X1434250Y1877750D02*
X1469100D01*
X1414500Y1858000D02*
X1434250Y1877750D01*
X1444750Y1797750D02*
Y1857500D01*
Y1677750D02*
Y1737750D01*
X1487500Y1870750D02*
X1524000Y1907250D01*
X1457500Y1870750D02*
X1487500D01*
X1444750Y1858000D02*
X1457500Y1870750D01*
X1474750Y1797750D02*
Y1857500D01*
Y1677750D02*
Y1737750D01*
X1507150Y1865000D02*
X1549400Y1907250D01*
X1481750Y1865000D02*
X1507150D01*
X1474750Y1858000D02*
X1481750Y1865000D01*
X1445500Y1907250D02*
X1447800D01*
X1504500Y1858000D02*
X1525550D01*
X1504500Y1797750D02*
Y1857500D01*
X1525550Y1858000D02*
X1574800Y1907250D01*
X1534500Y1797750D02*
Y1857500D01*
Y1858000D02*
X1550950D01*
X1600200Y1907250D01*
X1564500Y1797750D02*
Y1857500D01*
Y1858000D02*
X1576350D01*
X1625600Y1907250D01*
X1594750Y1797750D02*
Y1857500D01*
Y1858000D02*
X1601750D01*
X1651000Y1907250D01*
X1624750Y1797750D02*
Y1857500D01*
Y1858000D02*
X1627150D01*
X1676400Y1907250D01*
X2374500Y1798250D02*
Y1858000D01*
X2359750Y1858500D02*
X2374500D01*
X2311000Y1907250D02*
X2359750Y1858500D01*
X2344500Y1798250D02*
Y1858000D01*
X2334350Y1858500D02*
X2344500D01*
X2285600Y1907250D02*
X2334350Y1858500D01*
X2314500Y1798250D02*
Y1858000D01*
X2308950Y1858500D02*
X2314500D01*
X2260200Y1907250D02*
X2308950Y1858500D01*
X2284750Y1798250D02*
Y1858000D01*
X2283550Y1858500D02*
X2284750D01*
X2234800Y1907250D02*
X2283550Y1858500D01*
X2254500Y1798250D02*
Y1858000D01*
X2209400Y1903600D02*
X2254500Y1858500D01*
X2209400Y1903600D02*
Y1907250D01*
X2224750Y1798250D02*
Y1858000D01*
X2184000Y1899250D02*
X2224750Y1858500D01*
X2184000Y1899250D02*
Y1907250D01*
X2194500Y1798250D02*
Y1858000D01*
X2158600Y1894400D02*
X2194500Y1858500D01*
X2158600Y1894400D02*
Y1907250D01*
X2164500Y1798250D02*
Y1858000D01*
X2133200Y1889800D02*
X2164500Y1858500D01*
X2133200Y1889800D02*
Y1907250D01*
X2134500Y1798250D02*
Y1858000D01*
X2107800Y1885200D02*
X2134500Y1858500D01*
X2107800Y1885200D02*
Y1907250D01*
X2104500Y1798250D02*
Y1858000D01*
X2082400Y1880600D02*
X2104500Y1858500D01*
X2082400Y1880600D02*
Y1907250D01*
X2074500Y1798250D02*
Y1858000D01*
X2057000Y1876000D02*
X2074500Y1858500D01*
X2057000Y1876000D02*
Y1907250D01*
X2044500Y1798250D02*
Y1858000D01*
X2031600Y1871400D02*
X2044500Y1858500D01*
X2031600Y1871400D02*
Y1907250D01*
X2014750Y1798250D02*
Y1858000D01*
X2006600Y1866650D02*
X2014750Y1858500D01*
X2006600Y1866650D02*
Y1907250D01*
X1984500Y1798250D02*
Y1858000D01*
X1981200Y1861800D02*
X1984500Y1858500D01*
X1981200Y1861800D02*
Y1907250D01*
X1954500Y1798250D02*
Y1858000D01*
Y1858500D02*
X1955800Y1859800D01*
Y1907250D01*
X1924250Y1798250D02*
Y1858000D01*
Y1858500D02*
X1930400Y1864650D01*
Y1907250D01*
X1894500Y1797750D02*
Y1857500D01*
Y1858000D02*
X1905000Y1868500D01*
Y1907250D01*
X1864750Y1797750D02*
Y1857500D01*
Y1858000D02*
X1879600Y1872850D01*
Y1907250D01*
X1834500Y1797750D02*
Y1857500D01*
Y1858000D02*
X1854200Y1877700D01*
Y1907250D01*
X1804500Y1797750D02*
Y1857500D01*
Y1858000D02*
X1828800Y1882300D01*
Y1907250D01*
X1774500Y1797750D02*
Y1857500D01*
Y1858000D02*
X1803400Y1886900D01*
Y1907250D01*
X1744750Y1797750D02*
Y1857500D01*
Y1858000D02*
X1778000Y1891250D01*
Y1907250D01*
X1714500Y1797750D02*
Y1857500D01*
X1752600Y1896100D02*
Y1907250D01*
X1714500Y1858000D02*
X1752600Y1896100D01*
X1684500Y1797750D02*
Y1857500D01*
X1727200Y1900700D02*
Y1907250D01*
X1684500Y1858000D02*
X1727200Y1900700D01*
X1654500Y1797750D02*
Y1857500D01*
Y1859950D02*
X1701800Y1907250D01*
X1654500Y1858000D02*
Y1859950D01*
X1624750Y1858000D02*
Y1860750D01*
X1597500Y1907250D02*
X1600200D01*
X1324750Y1647500D02*
Y1677750D01*
Y1737750D01*
Y1617750D02*
Y1647500D01*
Y1767750D02*
Y1797750D01*
Y1737750D02*
Y1767750D01*
X2404750Y1618250D02*
Y1648000D01*
Y1678250D01*
Y1738250D02*
Y1768250D01*
Y1798250D01*
X2374500Y1618250D02*
Y1648000D01*
Y1678250D01*
Y1738250D01*
Y1768250D01*
Y1798250D01*
X2344500Y1618250D02*
Y1648000D01*
Y1678250D01*
Y1738250D01*
Y1768250D01*
Y1798250D01*
X2314500Y1618250D02*
Y1648000D01*
Y1678250D01*
Y1738250D01*
Y1768250D01*
Y1798250D01*
X2284750Y1618250D02*
Y1648000D01*
Y1678250D01*
Y1738250D01*
Y1768250D01*
Y1798250D01*
X2254500Y1618250D02*
Y1648000D01*
Y1678250D01*
Y1738250D01*
Y1768250D01*
Y1798250D01*
X2224750Y1618250D02*
Y1648000D01*
Y1678250D01*
Y1738250D01*
Y1768250D01*
Y1798250D01*
X2194500Y1618250D02*
Y1648000D01*
Y1678250D01*
Y1738250D01*
Y1768250D01*
Y1798250D01*
X2164500Y1618250D02*
Y1648000D01*
Y1678250D01*
Y1738250D01*
Y1768250D01*
Y1798250D01*
X2134500Y1618250D02*
Y1648000D01*
Y1678250D01*
Y1738250D01*
Y1768250D01*
Y1798250D01*
X2104500Y1618250D02*
Y1648000D01*
Y1678250D01*
Y1738250D01*
Y1768250D01*
Y1798250D01*
X2074500Y1618250D02*
Y1648000D01*
Y1678250D01*
Y1738250D01*
Y1768250D01*
Y1798250D01*
X2044500Y1618250D02*
Y1648000D01*
Y1678250D01*
Y1738250D01*
Y1768250D01*
Y1798250D01*
X2014750Y1618250D02*
Y1648000D01*
Y1678250D01*
Y1738250D01*
Y1768250D01*
Y1798250D01*
X1984500Y1618250D02*
Y1648000D01*
Y1678250D01*
Y1738250D01*
Y1768250D01*
Y1798250D01*
X1954500Y1618250D02*
Y1648000D01*
Y1678250D01*
Y1738250D01*
Y1768250D01*
Y1798250D01*
X1924250Y1618250D02*
Y1648000D01*
Y1678250D01*
Y1738250D01*
Y1768250D01*
Y1798250D01*
X1894500Y1617750D02*
Y1647500D01*
Y1677750D01*
Y1737750D01*
Y1767750D01*
Y1797750D01*
X2434750Y1617250D02*
Y1647000D01*
Y1677250D01*
Y1737250D02*
Y1767250D01*
Y1797250D01*
X1864750Y1617750D02*
Y1647500D01*
Y1677750D01*
Y1737750D01*
Y1767750D01*
Y1797750D01*
X1834500Y1617750D02*
Y1647500D01*
Y1677750D01*
Y1737750D01*
Y1767750D01*
Y1797750D01*
X1804500Y1617750D02*
Y1647500D01*
Y1677750D01*
Y1737750D01*
Y1767750D01*
Y1797750D01*
X1774500Y1617750D02*
Y1647500D01*
Y1677750D01*
Y1737750D01*
Y1767750D01*
Y1797750D01*
X1744750Y1617750D02*
Y1647500D01*
Y1677750D01*
Y1737750D01*
Y1767750D01*
Y1797750D01*
X1714500Y1617750D02*
Y1647500D01*
Y1677750D01*
Y1737750D01*
Y1767750D01*
Y1797750D01*
X1684500Y1617750D02*
Y1647500D01*
Y1677750D01*
Y1737750D01*
Y1767750D01*
Y1797750D01*
X1654500Y1617750D02*
Y1647500D01*
Y1677750D01*
Y1737750D01*
Y1767750D01*
Y1797750D01*
X1624750Y1617750D02*
Y1647500D01*
Y1677750D01*
Y1737750D01*
Y1767750D01*
Y1797750D01*
X1594750Y1617750D02*
Y1647500D01*
Y1677750D01*
Y1737750D01*
Y1767750D01*
Y1797750D01*
X1564500Y1617750D02*
Y1647500D01*
Y1677750D01*
Y1737750D01*
Y1767750D01*
Y1797750D01*
X1534500Y1617750D02*
Y1647500D01*
Y1677750D01*
Y1737750D01*
Y1767750D01*
Y1797750D01*
X1504500Y1617750D02*
Y1647500D01*
Y1677750D01*
Y1737750D01*
Y1767750D01*
Y1797750D01*
X1474750Y1617750D02*
Y1647500D01*
Y1677750D01*
Y1737750D02*
Y1767750D01*
Y1797750D01*
X1444750Y1617750D02*
Y1647500D01*
Y1677750D01*
Y1737750D02*
Y1767750D01*
Y1797750D01*
X1414500Y1617750D02*
Y1647500D01*
Y1677750D01*
Y1737750D02*
Y1767750D01*
Y1797750D01*
X1384500Y1617750D02*
Y1647500D01*
Y1677750D01*
Y1737750D02*
Y1767750D01*
Y1797750D01*
X1354500Y1617500D02*
Y1647250D01*
Y1677500D01*
Y1737500D02*
Y1767500D01*
Y1797500D01*
D13*
X2448024Y1374554D02*
D03*
X2462024D02*
D03*
X2462024Y1359054D02*
D03*
X2448024D02*
D03*
X1804024Y1301054D02*
D03*
X1790024D02*
D03*
X1804024Y1281554D02*
D03*
X1790024D02*
D03*
X1804024Y1262804D02*
D03*
X1790024D02*
D03*
X1804024Y1244554D02*
D03*
X1790024D02*
D03*
D14*
X2090274Y1382804D02*
D03*
Y1368804D02*
D03*
X2108024Y1383054D02*
D03*
Y1369054D02*
D03*
D31*
X2099074Y1422354D02*
X2099772Y1423052D01*
D32*
X2081474Y1391104D02*
X2089774Y1382804D01*
X2081474Y1391104D02*
Y1398354D01*
X2012574Y1418354D02*
X2039024D01*
X2047024Y1426354D01*
X2048137Y1425240D02*
X2057525Y1434628D01*
X2057097Y1426354D02*
X2068097D01*
X2052324Y1431654D02*
X2055024Y1434354D01*
X2068097Y1410354D02*
Y1426354D01*
X2057525Y1434628D02*
X2068097D01*
X2055024Y1434354D02*
Y1460804D01*
X2068097Y1426354D02*
Y1434628D01*
Y1426354D02*
X2081474D01*
X2047024D02*
X2048137Y1425240D01*
X2068097Y1410354D02*
X2081474D01*
X2081724D01*
X2107774Y1382804D02*
X2108024Y1383054D01*
X2089774Y1382804D02*
X2090274D01*
X2081474Y1398354D02*
Y1402354D01*
X2213254Y1527524D02*
X2237774Y1503004D01*
X2209674Y1527524D02*
X2213254D01*
X2253774Y1500804D02*
Y1510222D01*
X2259825Y1516274D01*
Y1526875D01*
X2260474Y1527524D01*
X2244592Y1501985D02*
X2245774Y1500804D01*
X2244592Y1501985D02*
Y1509404D01*
X2237466Y1516531D02*
X2244592Y1509404D01*
X2237466Y1516531D02*
Y1525132D01*
X2235074Y1527524D02*
X2237466Y1525132D01*
X2285874Y1527104D02*
Y1527524D01*
X2261774Y1503004D02*
X2285874Y1527104D01*
X2261774Y1500804D02*
Y1503004D01*
X2237774Y1500804D02*
Y1503004D01*
X2346774Y1512224D02*
X2362074Y1527524D01*
X2346774Y1500804D02*
Y1512224D01*
X2337724Y1501854D02*
X2338774Y1500804D01*
X2337724Y1501854D02*
Y1526474D01*
X2336674Y1527524D02*
X2337724Y1526474D01*
X2329394Y1502184D02*
X2330774Y1500804D01*
X2329394Y1502184D02*
Y1509404D01*
X2311274Y1527524D02*
X2329394Y1509404D01*
X2151774Y1500804D02*
Y1510022D01*
X2158025Y1516274D01*
Y1526675D01*
X2158874Y1527524D01*
X2184274Y1527504D02*
Y1527524D01*
X2159774Y1503004D02*
X2184274Y1527504D01*
X2159774Y1500804D02*
Y1503004D01*
X2135774Y1500804D02*
Y1503004D01*
X2111254Y1527524D02*
X2135774Y1503004D01*
X2108074Y1527524D02*
X2111254D01*
X1830774Y1500804D02*
Y1503004D01*
X1806254Y1527524D02*
X1830774Y1503004D01*
X1803674Y1527524D02*
X1806254D01*
X1745774Y1502054D02*
X1745780Y1502060D01*
Y1510654D01*
X1751400Y1516274D01*
Y1526050D01*
X1752874Y1527524D01*
X1737774Y1502054D02*
Y1517224D01*
X1727474Y1527524D02*
X1737774Y1517224D01*
X1753774Y1502054D02*
Y1504254D01*
X1777044Y1527524D01*
X1778274D01*
X1729774Y1502054D02*
Y1504254D01*
X1728374Y1505654D02*
X1729774Y1504254D01*
X1723944Y1505654D02*
X1728374D01*
X1702074Y1527524D02*
X1723944Y1505654D01*
X1641774Y1500804D02*
X1642355Y1501385D01*
Y1509404D01*
X1649225Y1516274D01*
Y1525475D01*
X1651274Y1527524D01*
X1633774Y1500804D02*
Y1509623D01*
X1627122Y1516274D02*
X1633774Y1509623D01*
X1627122Y1516274D02*
Y1526275D01*
X1625874Y1527524D02*
X1627122Y1526275D01*
X1649774Y1500804D02*
Y1503004D01*
X1674294Y1527524D01*
X1676674D01*
X1625774Y1500804D02*
Y1503004D01*
X1601254Y1527524D02*
X1625774Y1503004D01*
X1600474Y1527524D02*
X1601254D01*
X1574294D02*
X1575074D01*
X1549774Y1503004D02*
X1574294Y1527524D01*
X1549774Y1500804D02*
Y1503004D01*
X1525774Y1500804D02*
Y1503004D01*
X1501254Y1527524D02*
X1525774Y1503004D01*
X1498874Y1527524D02*
X1501254D01*
X1541774Y1500804D02*
Y1509622D01*
X1548425Y1516274D01*
Y1526275D01*
X1549674Y1527524D01*
X1533192Y1501385D02*
X1533774Y1500804D01*
X1533192Y1501385D02*
Y1509404D01*
X1526322Y1516274D02*
X1533192Y1509404D01*
X1526322Y1516274D02*
Y1525475D01*
X1524274Y1527524D02*
X1526322Y1525475D01*
X1447625Y1517275D02*
Y1527075D01*
X1441774Y1511424D02*
X1447625Y1517275D01*
X1441774Y1500804D02*
Y1511424D01*
X1433774Y1500804D02*
Y1512054D01*
X1422674Y1523154D02*
X1433774Y1512054D01*
X1422674Y1523154D02*
Y1527524D01*
X1418404Y1516424D02*
X1425774Y1509054D01*
X1408374Y1516424D02*
X1418404D01*
X1397274Y1527524D02*
X1408374Y1516424D01*
X1449774Y1508054D02*
X1457774Y1516054D01*
X1449774Y1500804D02*
Y1508054D01*
X1469274Y1516054D02*
X1473474Y1520254D01*
X1457774Y1516054D02*
X1469274D01*
X1425774Y1500804D02*
Y1509054D01*
X1473474Y1520254D02*
Y1527524D01*
X1447625Y1527075D02*
X1448074Y1527524D01*
D33*
X2107649Y1382929D02*
X2107774Y1382804D01*
X2131374Y1336954D02*
X2157674D01*
X2157774Y1337054D01*
X2284774Y1364054D02*
X2329774D01*
X2281774Y1361054D02*
X2284774Y1364054D01*
X2201774Y1361054D02*
X2214774D01*
X2178774Y1384054D02*
X2201774Y1361054D01*
X2178774Y1384054D02*
Y1418553D01*
X2196024Y1351054D02*
X2211774D01*
X2168774Y1378304D02*
X2196024Y1351054D01*
X2168774Y1378304D02*
Y1418553D01*
X2147524Y1383054D02*
X2188774Y1341804D01*
X2108024Y1383054D02*
X2147524D01*
X2321884Y1356554D02*
X2331384Y1347054D01*
X2291774Y1356554D02*
X2321884D01*
X1749774Y1355054D02*
X1860774D01*
X1910774Y1305054D01*
X2090399Y1382929D02*
X2107649D01*
X2090274Y1382804D02*
X2090399Y1382929D01*
X2444774Y1292679D02*
X2444899Y1292804D01*
X2458274D01*
D34*
X2081800Y1418028D02*
X2106050D01*
X2081499Y1418329D02*
X2081800Y1418028D01*
X2106050D02*
X2110024Y1414054D01*
X2081474Y1422354D02*
X2099074D01*
X2095848Y1395628D02*
X2096274Y1396054D01*
X2091348Y1395628D02*
X2095848D01*
X2090774Y1395054D02*
X2091348Y1395628D01*
X2096274Y1396054D02*
X2101774D01*
X2070000Y1355473D02*
X2208199Y1217274D01*
X2083250Y1363758D02*
X2155248Y1291760D01*
X2160488D01*
X2234974Y1217274D01*
X2070000Y1355473D02*
Y1375376D01*
X2071024Y1376400D01*
Y1391904D01*
X2075024Y1372159D02*
X2083250Y1363933D01*
Y1363758D02*
Y1363933D01*
X2075024Y1372159D02*
Y1391904D01*
Y1357554D02*
Y1365054D01*
Y1357554D02*
X2087774Y1344804D01*
X2208199Y1217274D02*
X2209574D01*
X2355897Y1436054D02*
Y1446152D01*
X2073124Y1484404D02*
X2135774D01*
X1722824Y1375004D02*
X1769774D01*
X2032344Y1502054D02*
X2039774D01*
X1645274Y1221553D02*
X1652774Y1214054D01*
X1645274Y1221553D02*
Y1234853D01*
X2032774Y1337054D02*
Y1354054D01*
X2027774Y1359054D02*
X2032774Y1354054D01*
X2302774Y1372054D02*
Y1417054D01*
X2126774Y1357304D02*
X2166169D01*
X2186693Y1336780D02*
X2209500D01*
X2166169Y1357304D02*
X2186693Y1336780D01*
X2209500D02*
X2269774Y1397054D01*
X2218308Y1332054D02*
X2277558Y1391304D01*
X2177774Y1332054D02*
X2218308D01*
X2159776Y1350052D02*
X2177774Y1332054D01*
X1964750Y1381078D02*
X1968774Y1377054D01*
X1431750Y1381078D02*
X1964750D01*
X1425774Y1387054D02*
X1431750Y1381078D01*
X1721774Y1376054D02*
X1722824Y1375004D01*
X1355774Y1335518D02*
X1389310Y1369054D01*
X1355774Y1319855D02*
Y1335518D01*
X1350274Y1314355D02*
X1355774Y1319855D01*
X1497774Y1350050D02*
X1509776Y1362052D01*
X1497774Y1314355D02*
Y1350050D01*
X1509776Y1362052D02*
X1769772D01*
X1389310Y1369054D02*
X1769774D01*
X2355774Y1436054D02*
X2355897D01*
X2495774Y1375434D02*
Y1381054D01*
X2495394Y1375054D02*
X2495774Y1375434D01*
X2487774Y1389054D02*
X2495774Y1381054D01*
X2426285Y1389054D02*
X2487774D01*
X2379285Y1436054D02*
X2426285Y1389054D01*
X2355897Y1436054D02*
X2379285D01*
X2277558Y1391304D02*
Y1396588D01*
X2277774Y1396804D01*
X2125771Y1350052D02*
X2159776D01*
X2445200Y1452780D02*
Y1454627D01*
X2436774Y1463054D02*
X2445200Y1454627D01*
X2371774Y1462054D02*
Y1515054D01*
X2359774Y1450054D02*
X2371774Y1462054D01*
X2408524Y1470054D02*
X2409024Y1470554D01*
X2395274Y1470054D02*
X2408524D01*
X2355897Y1446152D02*
X2359774Y1450029D01*
Y1450054D01*
X2345750Y1446030D02*
Y1482280D01*
X2346774Y1483304D01*
X2334074Y1434354D02*
X2345750Y1446030D01*
X2437771Y1439052D02*
X2438084Y1439365D01*
X2464710D01*
X2465024Y1439679D01*
X2439774Y1446054D02*
X2439899Y1446179D01*
X2465024D01*
X1860174Y1285054D02*
X1900774D01*
X1350274Y1314355D02*
X1350575Y1314054D01*
X1372774D01*
X1350274Y1234853D02*
Y1314355D01*
X1497774D02*
X1498075Y1314054D01*
X1518774D01*
X1497774Y1234853D02*
Y1314355D01*
X1645274Y1292054D02*
Y1314355D01*
Y1234853D02*
Y1292054D01*
X1652774D02*
X1660774Y1300054D01*
X1645274Y1292054D02*
X1652774D01*
X1730524Y1288054D02*
X1740524Y1298054D01*
X1744904D01*
X1747904Y1301054D01*
X1731774Y1274054D02*
X1739274Y1281554D01*
X1748004D01*
X1727474Y1261054D02*
X1728974Y1262554D01*
X1748004D01*
X1727774Y1247054D02*
X1730524Y1244304D01*
X1748004D01*
X1789774D02*
X1790024Y1244554D01*
X1764004Y1244304D02*
X1789774D01*
Y1262554D02*
X1790024Y1262804D01*
X1764004Y1262554D02*
X1789774D01*
X1764004Y1281554D02*
X1790024D01*
X1790024Y1301054D02*
X1790024Y1301054D01*
X1763904Y1301054D02*
X1790024D01*
X2195774Y1390054D02*
X2220274D01*
X2221274Y1391054D01*
X2226774D01*
X2032774Y1337054D02*
X2039024Y1343304D01*
Y1391904D01*
X2108474Y1430354D02*
X2112774Y1426054D01*
X2081474Y1430354D02*
X2108474D01*
X2098474Y1414354D02*
X2106774Y1406054D01*
X2081474Y1414354D02*
X2098474D01*
X2092474Y1406354D02*
X2092774Y1406054D01*
X2081474Y1406354D02*
X2092474D01*
X2067024Y1334424D02*
Y1391904D01*
Y1334424D02*
X2184174Y1217274D01*
X2063024Y1313024D02*
Y1391904D01*
Y1313024D02*
X2158774Y1217274D01*
X2059024Y1291624D02*
Y1391904D01*
Y1291624D02*
X2133374Y1217274D01*
X2055024Y1270224D02*
Y1391904D01*
Y1270224D02*
X2107974Y1217274D01*
X2051024Y1261054D02*
Y1391904D01*
Y1261054D02*
X2082574Y1229504D01*
Y1217274D02*
Y1229504D01*
X2057274Y1217374D02*
Y1246054D01*
X2057174Y1217274D02*
X2057274Y1217374D01*
X2047024Y1256304D02*
X2057274Y1246054D01*
X2047024Y1256304D02*
Y1391904D01*
X2031774Y1217274D02*
X2043024Y1228524D01*
Y1391904D01*
X2081474Y1434354D02*
X2334074D01*
X2081474Y1438354D02*
X2329394D01*
X2338774Y1447734D01*
Y1483304D01*
X2330537Y1448054D02*
Y1483067D01*
X2330774Y1483304D01*
X2324837Y1442354D02*
X2330537Y1448054D01*
X2081474Y1442354D02*
X2324837D01*
X2097774Y1458054D02*
X2231774D01*
X2095024Y1460804D02*
X2097774Y1458054D01*
X2075024Y1460804D02*
X2095024D01*
X2103274Y1478054D02*
X2111274Y1470054D01*
X2072774Y1478054D02*
X2103274D01*
X2063124Y1468404D02*
X2072774Y1478054D01*
X2073874Y1473804D02*
X2099774D01*
X2067124Y1467054D02*
X2073874Y1473804D01*
X2099774D02*
X2107804Y1465773D01*
X2097424Y1468404D02*
X2104272Y1461555D01*
X2073754Y1468404D02*
X2097424D01*
X2071124Y1465773D02*
X2073754Y1468404D01*
X2165324Y1446054D02*
X2245774D01*
X2165024Y1446354D02*
X2165324Y1446054D01*
X2081474Y1446354D02*
X2165024D01*
X2245774Y1446054D02*
X2261774Y1462054D01*
Y1483304D01*
X2253774Y1462560D02*
Y1483304D01*
X2241568Y1450354D02*
X2253774Y1462560D01*
X2081474Y1450354D02*
X2241568D01*
X2245774Y1462679D02*
Y1483304D01*
X2237449Y1454354D02*
X2245774Y1462679D01*
X2081474Y1454354D02*
X2237449D01*
X2231774Y1458054D02*
X2236774Y1463054D01*
Y1482304D01*
X2237774Y1483304D01*
X2111274Y1470054D02*
X2136274D01*
X2142124Y1475904D01*
Y1481654D01*
X2143774Y1483304D01*
X2107804Y1465773D02*
X2140774D01*
X2150454Y1475454D01*
Y1481984D01*
X2151774Y1483304D01*
X2104272Y1461555D02*
X2147275D01*
X2159774Y1474054D02*
Y1483304D01*
X2147275Y1461555D02*
X2159774Y1474054D01*
X2071124Y1460904D02*
Y1465773D01*
X2067124Y1460904D02*
Y1467054D01*
X2063124Y1460904D02*
Y1468404D01*
X2059124Y1470404D02*
X2073124Y1484404D01*
X2059124Y1460904D02*
Y1470404D01*
X2051024Y1468304D02*
X2060124Y1477404D01*
X2047024Y1470304D02*
X2053174Y1476454D01*
Y1483704D01*
X2053774Y1484304D01*
X2045774Y1478054D02*
Y1484304D01*
X2043024Y1475304D02*
X2045774Y1478054D01*
X2043024Y1460804D02*
Y1475304D01*
X2039024Y1460804D02*
Y1483054D01*
X2037774Y1484304D02*
X2039024Y1483054D01*
X2061774Y1501054D02*
Y1501804D01*
Y1506624D02*
X2082674Y1527524D01*
X2061774Y1504054D02*
Y1506624D01*
X2053774Y1524024D02*
X2057274Y1527524D01*
X2053774Y1504054D02*
Y1524024D01*
X2031874Y1527524D02*
X2044774Y1514624D01*
Y1505054D02*
Y1514624D01*
X2027774Y1481054D02*
X2035024Y1473804D01*
X1957024Y1481054D02*
X2027774D01*
X1954774Y1483304D02*
X1957024Y1481054D01*
X2035024Y1460804D02*
Y1473804D01*
X2135774Y1483304D02*
Y1484404D01*
X2071024Y1460804D02*
X2071124Y1460904D01*
X2067024Y1460804D02*
X2067124Y1460904D01*
X2063024Y1460804D02*
X2063124Y1460904D01*
X2059024Y1460804D02*
X2059124Y1460904D01*
X2060124Y1477404D02*
Y1482654D01*
X2061774Y1484304D01*
X2051024Y1460804D02*
Y1468304D01*
X2047024Y1460804D02*
Y1470304D01*
X2037124Y1483654D02*
X2037774Y1484304D01*
X2039024Y1460804D02*
X2039124Y1460904D01*
X1934274Y1468054D02*
X2020924D01*
X1930774Y1471554D02*
X1934274Y1468054D01*
X1930774Y1471554D02*
Y1483304D01*
X1958469Y1475930D02*
X1958593Y1476054D01*
X1951078Y1475930D02*
X1958469D01*
X1950954Y1476054D02*
X1951078Y1475930D01*
X1946774Y1478054D02*
X1948774Y1476054D01*
X1946774Y1478054D02*
Y1483304D01*
X1948774Y1476054D02*
X1950954D01*
X2024024Y1472054D02*
X2027024Y1469054D01*
X1941774Y1472054D02*
X2024024D01*
X1938774Y1475054D02*
X1941774Y1472054D01*
X2020924Y1468054D02*
X2022924Y1466054D01*
X1958593Y1476054D02*
X2027024D01*
X2031024Y1472054D01*
Y1460804D02*
Y1472054D01*
X2027024Y1460804D02*
Y1469054D01*
X1938774Y1475054D02*
Y1483304D01*
X2022924Y1460904D02*
Y1466054D01*
Y1460904D02*
X2023024Y1460804D01*
X2143774Y1500804D02*
Y1517224D01*
X2133474Y1527524D02*
X2143774Y1517224D01*
X2006874Y1527524D02*
X2032344Y1502054D01*
X1979294Y1527524D02*
X1981474D01*
X1954774Y1503004D02*
X1979294Y1527524D01*
X1954774Y1500804D02*
Y1503004D01*
X1946774Y1500804D02*
Y1508855D01*
X1954943Y1517024D01*
Y1526393D01*
X1956074Y1527524D01*
X1938774Y1500804D02*
Y1509455D01*
X1931205Y1517024D02*
X1938774Y1509455D01*
X1931205Y1517024D02*
Y1526993D01*
X1930674Y1527524D02*
X1931205Y1526993D01*
X1930774Y1500804D02*
Y1503004D01*
X1906254Y1527524D02*
X1930774Y1503004D01*
X1905274Y1527524D02*
X1906254D01*
X1846774Y1500804D02*
Y1509655D01*
X1854143Y1517024D01*
Y1527193D01*
X1854474Y1527524D01*
X1838774Y1500804D02*
Y1517824D01*
X1829074Y1527524D02*
X1838774Y1517824D01*
X1879294Y1527524D02*
X1879874D01*
X1854774Y1503004D02*
X1879294Y1527524D01*
X1854774Y1500804D02*
Y1503004D01*
X2018102Y1459882D02*
X2019024Y1460804D01*
X1857945Y1459882D02*
X2018102D01*
X1854774Y1463054D02*
X1857945Y1459882D01*
X1854774Y1463054D02*
Y1483304D01*
X1449774Y1399054D02*
X1454774Y1394054D01*
X1449774Y1399054D02*
Y1483304D01*
X1441774Y1395554D02*
X1447774Y1389554D01*
X1441774Y1395554D02*
Y1483304D01*
X1433774Y1391054D02*
X1439774Y1385054D01*
X1433774Y1391054D02*
Y1483304D01*
X1425774Y1387054D02*
Y1483304D01*
X2022924Y1391804D02*
X2023024Y1391904D01*
X2022924Y1386934D02*
Y1391804D01*
X2019543Y1383554D02*
X2022924Y1386934D01*
X2001274Y1383554D02*
X2019543D01*
X1995274Y1389554D02*
X2001274Y1383554D01*
X1974774Y1394054D02*
X1979274Y1389554D01*
X1995274D01*
X2027024Y1383804D02*
Y1391904D01*
X1975940Y1385387D02*
X1994274D01*
X2022274Y1379054D02*
X2027024Y1383804D01*
X2000274Y1379054D02*
X2022274D01*
X1994274Y1385054D02*
X2000274Y1379054D01*
X1971774Y1389554D02*
X1975940Y1385387D01*
X1447774Y1389554D02*
X1971774D01*
X2035024Y1375804D02*
Y1391904D01*
X1968774Y1377054D02*
X1989774D01*
X2028774Y1369554D02*
X2035024Y1375804D01*
X1997274Y1369554D02*
X2028774D01*
X1989774Y1377054D02*
X1997274Y1369554D01*
X2031024Y1378554D02*
Y1391904D01*
X1971940Y1381221D02*
X1991774D01*
X2027024Y1374554D02*
X2031024Y1378554D01*
X1998274Y1374554D02*
X2027024D01*
X1991774Y1381054D02*
X1998274Y1374554D01*
X1968107Y1385054D02*
X1971940Y1381221D01*
X1439774Y1385054D02*
X1968107D01*
X1454774Y1394054D02*
X1974774D01*
X2000774D02*
X2002924Y1391904D01*
X1982074Y1394054D02*
X2000774D01*
X1977774Y1398354D02*
X1982074Y1394054D01*
X1835724Y1446354D02*
X2012574D01*
X1830774Y1451304D02*
X1835724Y1446354D01*
X1830774Y1451304D02*
Y1483304D01*
X1852774Y1454354D02*
X2012574D01*
X1846774Y1460354D02*
X1852774Y1454354D01*
X1846774Y1460354D02*
Y1483304D01*
X1842774Y1450354D02*
X2012574D01*
X1838774Y1454354D02*
X1842774Y1450354D01*
X1838774Y1454354D02*
Y1483304D01*
X1549774Y1415854D02*
X1555274Y1410354D01*
X1549774Y1415854D02*
Y1483304D01*
X1545188Y1406354D02*
X1555274D01*
X1541774Y1409768D02*
X1545188Y1406354D01*
X1541774Y1409768D02*
Y1483304D01*
X1557774Y1402354D02*
X1981474Y1402354D01*
X1557774D02*
X1557774Y1402354D01*
X1537774Y1402354D02*
X1557774D01*
X1533774Y1406354D02*
X1537774Y1402354D01*
X1533774Y1406354D02*
Y1483304D01*
X1533688Y1398354D02*
X1977774D01*
X1525774Y1406268D02*
X1533688Y1398354D01*
X1525774Y1406268D02*
Y1483304D01*
X2002924Y1391904D02*
X2019024D01*
X1555274Y1410354D02*
X1989474Y1410354D01*
X1555274Y1406354D02*
X1985474Y1406354D01*
X1989474Y1410354D02*
X1993474Y1406354D01*
X2012574D01*
X1981474Y1402354D02*
X1985474Y1398354D01*
X2012574D01*
X1985474Y1406354D02*
X1989474Y1402354D01*
X2012574D01*
X2000474Y1414354D02*
X2012574D01*
X1996474Y1418354D02*
X2000474Y1414354D01*
X1641774Y1418354D02*
X1996474D01*
X1653474Y1426354D02*
X2012574D01*
X1649774Y1430054D02*
X1653474Y1426354D01*
X1649774Y1430054D02*
Y1483304D01*
X1647774Y1422354D02*
X2012574D01*
X1641774Y1428354D02*
X1647774Y1422354D01*
X1641774Y1428354D02*
Y1483304D01*
X1633774Y1426354D02*
X1641774Y1418354D01*
X1633774Y1426354D02*
Y1483304D01*
X1625774Y1422354D02*
X1633774Y1414354D01*
X1625774Y1422354D02*
Y1483304D01*
X1633774Y1414354D02*
X1992774D01*
X1996774Y1410354D01*
X2012574D01*
X1757474Y1442354D02*
X2012574D01*
X1753774Y1446054D02*
X1757474Y1442354D01*
X1753774Y1446054D02*
Y1484554D01*
X1752774Y1438354D02*
X2012574D01*
X1745774Y1445354D02*
X1752774Y1438354D01*
X1745774Y1445354D02*
Y1484554D01*
Y1434354D02*
X2012574D01*
X1737774Y1442354D02*
X1745774Y1434354D01*
X1737774Y1442354D02*
Y1484554D01*
X1742474Y1430354D02*
X2012574D01*
X1729774Y1443054D02*
X1742474Y1430354D01*
X1729774Y1443054D02*
Y1484554D01*
D35*
X2050674Y1423854D02*
X2066674Y1407854D01*
X2050674Y1423854D02*
X2058674Y1431854D01*
X2042674Y1415854D02*
X2050674Y1423854D01*
D36*
X2350774Y1445200D02*
Y1456054D01*
X2349500Y1443926D02*
X2350774Y1445200D01*
X2349500Y1433455D02*
Y1443926D01*
Y1433455D02*
X2350678Y1432277D01*
Y1430150D02*
Y1432277D01*
Y1430150D02*
X2350774Y1430054D01*
D37*
X2462524Y1375054D02*
X2479394D01*
X2462024Y1374554D02*
X2462524Y1375054D01*
X2462024Y1359054D02*
X2479394D01*
X2462024Y1359054D02*
X2462024Y1359054D01*
X2448024Y1348762D02*
Y1359054D01*
X2442316Y1343054D02*
X2448024Y1348762D01*
X2427774Y1343054D02*
X2442316D01*
D38*
X2081474Y1418354D02*
X2081499Y1418329D01*
D40*
X1247000Y1387000D02*
D03*
Y1377000D02*
D03*
Y1367000D02*
D03*
Y1357000D02*
D03*
Y1347000D02*
D03*
X1232000D02*
D03*
Y1357000D02*
D03*
Y1367000D02*
D03*
Y1377000D02*
D03*
Y1387000D02*
D03*
X2512150D02*
D03*
Y1377000D02*
D03*
Y1367000D02*
D03*
Y1357000D02*
D03*
Y1347000D02*
D03*
X2527150D02*
D03*
Y1357000D02*
D03*
Y1367000D02*
D03*
Y1377000D02*
D03*
Y1387000D02*
D03*
X2512000Y1773000D02*
D03*
Y1763000D02*
D03*
Y1753000D02*
D03*
Y1743000D02*
D03*
Y1733000D02*
D03*
X2527000D02*
D03*
Y1743000D02*
D03*
Y1753000D02*
D03*
Y1763000D02*
D03*
Y1773000D02*
D03*
X1246900D02*
D03*
Y1763000D02*
D03*
Y1753000D02*
D03*
Y1743000D02*
D03*
Y1733000D02*
D03*
X1231900D02*
D03*
Y1743000D02*
D03*
Y1753000D02*
D03*
Y1763000D02*
D03*
Y1773000D02*
D03*
X1492000Y1188950D02*
D03*
X1482000D02*
D03*
X1472000D02*
D03*
X1462000D02*
D03*
X1452000D02*
D03*
Y1173950D02*
D03*
X1462000D02*
D03*
X1472000D02*
D03*
X1482000D02*
D03*
X1492000D02*
D03*
X1892000Y1173850D02*
D03*
X1882000D02*
D03*
X1872000D02*
D03*
X1862000D02*
D03*
X1852000D02*
D03*
Y1188850D02*
D03*
X1862000D02*
D03*
X1872000D02*
D03*
X1882000D02*
D03*
X1892000D02*
D03*
X2292000Y1173850D02*
D03*
X2282000D02*
D03*
X2272000D02*
D03*
X2262000D02*
D03*
X2252000D02*
D03*
Y1188850D02*
D03*
X2262000D02*
D03*
X2272000D02*
D03*
X2282000D02*
D03*
X2292000D02*
D03*
X2293000Y1948850D02*
D03*
X2283000D02*
D03*
X2273000D02*
D03*
X2263000D02*
D03*
X2253000D02*
D03*
Y1933850D02*
D03*
X2263000D02*
D03*
X2273000D02*
D03*
X2283000D02*
D03*
X2293000D02*
D03*
X1893000Y1948850D02*
D03*
X1883000D02*
D03*
X1873000D02*
D03*
X1863000D02*
D03*
X1853000D02*
D03*
Y1933850D02*
D03*
X1863000D02*
D03*
X1873000D02*
D03*
X1883000D02*
D03*
X1893000D02*
D03*
X1493000Y1933950D02*
D03*
X1483000D02*
D03*
X1473000D02*
D03*
X1463000D02*
D03*
X1453000D02*
D03*
Y1948950D02*
D03*
X1463000D02*
D03*
X1473000D02*
D03*
X1483000D02*
D03*
X1493000D02*
D03*
X2293000Y1568850D02*
D03*
X2283000D02*
D03*
X2273000D02*
D03*
X2263000D02*
D03*
X2253000D02*
D03*
Y1553850D02*
D03*
X2263000D02*
D03*
X2273000D02*
D03*
X2283000D02*
D03*
X2293000D02*
D03*
X1893000Y1568850D02*
D03*
X1883000D02*
D03*
X1873000D02*
D03*
X1863000D02*
D03*
X1853000D02*
D03*
Y1553850D02*
D03*
X1863000D02*
D03*
X1873000D02*
D03*
X1883000D02*
D03*
X1893000D02*
D03*
X1493000Y1553950D02*
D03*
X1483000D02*
D03*
X1473000D02*
D03*
X1463000D02*
D03*
X1453000D02*
D03*
Y1568950D02*
D03*
X1463000D02*
D03*
X1473000D02*
D03*
X1483000D02*
D03*
X1493000D02*
D03*
X2271250Y1858250D02*
D03*
X2274250Y1620500D02*
D03*
X2243750Y1832000D02*
D03*
Y1620388D02*
D03*
X2214500Y1802138D02*
D03*
Y1620388D02*
D03*
X2182750Y1771000D02*
D03*
Y1620000D02*
D03*
X2152750Y1740000D02*
D03*
Y1620000D02*
D03*
X2121750Y1710000D02*
D03*
Y1620000D02*
D03*
X2094000Y1680250D02*
D03*
Y1620388D02*
D03*
X2063750Y1651000D02*
D03*
X2063250Y1620000D02*
D03*
X1384500Y1858000D02*
D03*
X1504500D02*
D03*
X1324750Y1677750D02*
D03*
Y1647500D02*
D03*
Y1617750D02*
D03*
X1324500Y1707750D02*
D03*
X1324750Y1737750D02*
D03*
Y1767750D02*
D03*
Y1797750D02*
D03*
X1324500Y1828000D02*
D03*
X1324750Y1858000D02*
D03*
X2404750Y1858500D02*
D03*
X2404500Y1828500D02*
D03*
X2404750Y1798250D02*
D03*
Y1768250D02*
D03*
Y1738250D02*
D03*
X2404500Y1708250D02*
D03*
X2404750Y1678250D02*
D03*
Y1648000D02*
D03*
Y1618250D02*
D03*
X2374500Y1858500D02*
D03*
X2374250Y1828500D02*
D03*
X2374500Y1798250D02*
D03*
Y1768250D02*
D03*
Y1738250D02*
D03*
X2374250Y1708250D02*
D03*
X2374500Y1678250D02*
D03*
Y1648000D02*
D03*
Y1618250D02*
D03*
X2344500Y1858500D02*
D03*
X2344250Y1828500D02*
D03*
X2344500Y1798250D02*
D03*
Y1768250D02*
D03*
Y1738250D02*
D03*
X2344250Y1708250D02*
D03*
X2344500Y1678250D02*
D03*
Y1648000D02*
D03*
Y1618250D02*
D03*
X2314500Y1858500D02*
D03*
X2314250Y1828500D02*
D03*
X2314500Y1798250D02*
D03*
Y1768250D02*
D03*
Y1738250D02*
D03*
X2314250Y1708250D02*
D03*
X2314500Y1678250D02*
D03*
Y1648000D02*
D03*
Y1618250D02*
D03*
X2284750Y1858500D02*
D03*
X2284500Y1828500D02*
D03*
X2284750Y1798250D02*
D03*
Y1768250D02*
D03*
Y1738250D02*
D03*
X2284500Y1708250D02*
D03*
X2284750Y1678250D02*
D03*
Y1648000D02*
D03*
Y1618250D02*
D03*
X2254500Y1858500D02*
D03*
X2254250Y1828500D02*
D03*
X2254500Y1798250D02*
D03*
Y1768250D02*
D03*
Y1738250D02*
D03*
X2254250Y1708250D02*
D03*
X2254500Y1678250D02*
D03*
Y1648000D02*
D03*
Y1618250D02*
D03*
X2224750Y1858500D02*
D03*
X2224500Y1828500D02*
D03*
X2224750Y1798250D02*
D03*
Y1768250D02*
D03*
Y1738250D02*
D03*
X2224500Y1708250D02*
D03*
X2224750Y1678250D02*
D03*
Y1648000D02*
D03*
Y1618250D02*
D03*
X2194500Y1858500D02*
D03*
X2194250Y1828500D02*
D03*
X2194500Y1798250D02*
D03*
Y1768250D02*
D03*
Y1738250D02*
D03*
X2194250Y1708250D02*
D03*
X2194500Y1678250D02*
D03*
Y1648000D02*
D03*
Y1618250D02*
D03*
X2164500Y1858500D02*
D03*
X2164250Y1828500D02*
D03*
X2164500Y1798250D02*
D03*
Y1768250D02*
D03*
Y1738250D02*
D03*
X2164250Y1708250D02*
D03*
X2164500Y1678250D02*
D03*
Y1648000D02*
D03*
Y1618250D02*
D03*
X2134500Y1858500D02*
D03*
X2134250Y1828500D02*
D03*
X2134500Y1798250D02*
D03*
Y1768250D02*
D03*
Y1738250D02*
D03*
X2134250Y1708250D02*
D03*
X2134500Y1678250D02*
D03*
Y1648000D02*
D03*
Y1618250D02*
D03*
X2104500Y1858500D02*
D03*
X2104250Y1828500D02*
D03*
X2104500Y1798250D02*
D03*
Y1768250D02*
D03*
Y1738250D02*
D03*
X2104250Y1708250D02*
D03*
X2104500Y1678250D02*
D03*
Y1648000D02*
D03*
Y1618250D02*
D03*
X2074500Y1858500D02*
D03*
X2074250Y1828500D02*
D03*
X2074500Y1798250D02*
D03*
Y1768250D02*
D03*
Y1738250D02*
D03*
X2074250Y1708250D02*
D03*
X2074500Y1678250D02*
D03*
Y1648000D02*
D03*
Y1618250D02*
D03*
X2044500Y1858500D02*
D03*
X2044250Y1828500D02*
D03*
X2044500Y1798250D02*
D03*
Y1768250D02*
D03*
Y1738250D02*
D03*
X2044250Y1708250D02*
D03*
X2044500Y1678250D02*
D03*
Y1648000D02*
D03*
Y1618250D02*
D03*
X2014750Y1858500D02*
D03*
X2014500Y1828500D02*
D03*
X2014750Y1798250D02*
D03*
Y1768250D02*
D03*
Y1738250D02*
D03*
X2014500Y1708250D02*
D03*
X2014750Y1678250D02*
D03*
Y1648000D02*
D03*
Y1618250D02*
D03*
X1984500Y1858500D02*
D03*
X1984250Y1828500D02*
D03*
X1984500Y1798250D02*
D03*
Y1768250D02*
D03*
Y1738250D02*
D03*
X1984250Y1708250D02*
D03*
X1984500Y1678250D02*
D03*
Y1648000D02*
D03*
Y1618250D02*
D03*
X1954500Y1858500D02*
D03*
X1954250Y1828500D02*
D03*
X1954500Y1798250D02*
D03*
Y1768250D02*
D03*
Y1738250D02*
D03*
X1954250Y1708250D02*
D03*
X1954500Y1678250D02*
D03*
Y1648000D02*
D03*
Y1618250D02*
D03*
X1924250Y1858500D02*
D03*
X1924000Y1828500D02*
D03*
X1924250Y1798250D02*
D03*
Y1768250D02*
D03*
Y1738250D02*
D03*
X1924000Y1708250D02*
D03*
X1924250Y1678250D02*
D03*
Y1648000D02*
D03*
Y1618250D02*
D03*
X1894500Y1858000D02*
D03*
X1894250Y1828000D02*
D03*
X1894500Y1797750D02*
D03*
Y1767750D02*
D03*
Y1737750D02*
D03*
X1894250Y1707750D02*
D03*
X1894500Y1677750D02*
D03*
Y1647500D02*
D03*
Y1617750D02*
D03*
X2434750Y1857500D02*
D03*
X2434500Y1827500D02*
D03*
X2434750Y1797250D02*
D03*
Y1767250D02*
D03*
Y1737250D02*
D03*
X2434500Y1707250D02*
D03*
X2434750Y1677250D02*
D03*
Y1647000D02*
D03*
Y1617250D02*
D03*
X1864750Y1858000D02*
D03*
X1864500Y1828000D02*
D03*
X1864750Y1797750D02*
D03*
Y1767750D02*
D03*
Y1737750D02*
D03*
X1864500Y1707750D02*
D03*
X1864750Y1677750D02*
D03*
Y1647500D02*
D03*
Y1617750D02*
D03*
X1834500Y1858000D02*
D03*
X1834250Y1828000D02*
D03*
X1834500Y1797750D02*
D03*
Y1767750D02*
D03*
Y1737750D02*
D03*
X1834250Y1707750D02*
D03*
X1834500Y1677750D02*
D03*
Y1647500D02*
D03*
Y1617750D02*
D03*
X1804500Y1858000D02*
D03*
X1804250Y1828000D02*
D03*
X1804500Y1797750D02*
D03*
Y1767750D02*
D03*
Y1737750D02*
D03*
X1804250Y1707750D02*
D03*
X1804500Y1677750D02*
D03*
Y1647500D02*
D03*
Y1617750D02*
D03*
X1774500Y1858000D02*
D03*
X1774250Y1828000D02*
D03*
X1774500Y1797750D02*
D03*
Y1767750D02*
D03*
Y1737750D02*
D03*
X1774250Y1707750D02*
D03*
X1774500Y1677750D02*
D03*
Y1647500D02*
D03*
Y1617750D02*
D03*
X1744750Y1858000D02*
D03*
X1744500Y1828000D02*
D03*
X1744750Y1797750D02*
D03*
Y1767750D02*
D03*
Y1737750D02*
D03*
X1744500Y1707750D02*
D03*
X1744750Y1677750D02*
D03*
Y1647500D02*
D03*
Y1617750D02*
D03*
X1714500Y1858000D02*
D03*
X1714250Y1828000D02*
D03*
X1714500Y1797750D02*
D03*
Y1767750D02*
D03*
Y1737750D02*
D03*
X1714250Y1707750D02*
D03*
X1714500Y1677750D02*
D03*
Y1647500D02*
D03*
Y1617750D02*
D03*
X1684500Y1858000D02*
D03*
X1684250Y1828000D02*
D03*
X1684500Y1797750D02*
D03*
Y1767750D02*
D03*
Y1737750D02*
D03*
X1684250Y1707750D02*
D03*
X1684500Y1677750D02*
D03*
Y1647500D02*
D03*
Y1617750D02*
D03*
X1654500Y1858000D02*
D03*
X1654250Y1828000D02*
D03*
X1654500Y1797750D02*
D03*
Y1767750D02*
D03*
Y1737750D02*
D03*
X1654250Y1707750D02*
D03*
X1654500Y1677750D02*
D03*
Y1647500D02*
D03*
Y1617750D02*
D03*
X1624750Y1858000D02*
D03*
X1624500Y1828000D02*
D03*
X1624750Y1797750D02*
D03*
Y1767750D02*
D03*
Y1737750D02*
D03*
X1624500Y1707750D02*
D03*
X1624750Y1677750D02*
D03*
Y1647500D02*
D03*
Y1617750D02*
D03*
X1594750Y1858000D02*
D03*
X1594500Y1828000D02*
D03*
X1594750Y1797750D02*
D03*
Y1767750D02*
D03*
Y1737750D02*
D03*
X1594500Y1707750D02*
D03*
X1594750Y1677750D02*
D03*
Y1647500D02*
D03*
Y1617750D02*
D03*
X1564500Y1858000D02*
D03*
X1564250Y1828000D02*
D03*
X1564500Y1797750D02*
D03*
Y1767750D02*
D03*
Y1737750D02*
D03*
X1564250Y1707750D02*
D03*
X1564500Y1677750D02*
D03*
Y1647500D02*
D03*
Y1617750D02*
D03*
X1534500Y1858000D02*
D03*
X1534250Y1828000D02*
D03*
X1534500Y1797750D02*
D03*
Y1767750D02*
D03*
Y1737750D02*
D03*
X1534250Y1707750D02*
D03*
X1534500Y1677750D02*
D03*
Y1647500D02*
D03*
Y1617750D02*
D03*
X1504250Y1828000D02*
D03*
X1504500Y1797750D02*
D03*
Y1767750D02*
D03*
Y1737750D02*
D03*
X1504250Y1707750D02*
D03*
X1504500Y1677750D02*
D03*
Y1647500D02*
D03*
Y1617750D02*
D03*
X1474750Y1858000D02*
D03*
X1474500Y1828000D02*
D03*
X1474750Y1797750D02*
D03*
Y1767750D02*
D03*
Y1737750D02*
D03*
X1474500Y1707750D02*
D03*
X1474750Y1677750D02*
D03*
Y1647500D02*
D03*
Y1617750D02*
D03*
X1444750Y1858000D02*
D03*
X1444500Y1828000D02*
D03*
X1444750Y1797750D02*
D03*
Y1767750D02*
D03*
Y1737750D02*
D03*
X1444500Y1707750D02*
D03*
X1444750Y1677750D02*
D03*
Y1647500D02*
D03*
Y1617750D02*
D03*
X1414500Y1858000D02*
D03*
X1414250Y1828000D02*
D03*
X1414500Y1797750D02*
D03*
Y1767750D02*
D03*
Y1737750D02*
D03*
X1414250Y1707750D02*
D03*
X1414500Y1677750D02*
D03*
Y1647500D02*
D03*
Y1617750D02*
D03*
X1384250Y1828000D02*
D03*
X1384500Y1797750D02*
D03*
Y1767750D02*
D03*
Y1737750D02*
D03*
X1384250Y1707750D02*
D03*
X1384500Y1677750D02*
D03*
Y1647500D02*
D03*
Y1617750D02*
D03*
X1354500Y1857750D02*
D03*
X1354250Y1827750D02*
D03*
X1354500Y1797500D02*
D03*
Y1767500D02*
D03*
Y1737500D02*
D03*
X1354250Y1707500D02*
D03*
X1354500Y1677500D02*
D03*
Y1647250D02*
D03*
Y1617500D02*
D03*
X2110024Y1414054D02*
D03*
X2101774Y1396054D02*
D03*
X2090774Y1395054D02*
D03*
X2075024Y1365054D02*
D03*
X2087774Y1344804D02*
D03*
X2157774Y1337054D02*
D03*
X2131374Y1336954D02*
D03*
X1652774Y1214054D02*
D03*
X2027774Y1359054D02*
D03*
X2302774Y1372054D02*
D03*
Y1417054D02*
D03*
X2329774Y1364054D02*
D03*
X2281774Y1361054D02*
D03*
X2214774D02*
D03*
X2211774Y1351054D02*
D03*
X2188774Y1341804D02*
D03*
X2178774Y1418553D02*
D03*
X2331384Y1347054D02*
D03*
X2291774Y1356554D02*
D03*
X2168774Y1418553D02*
D03*
X1721774Y1376054D02*
D03*
X1769772Y1376052D02*
D03*
Y1362052D02*
D03*
X1769774Y1369054D02*
D03*
X1749774Y1355054D02*
D03*
X1910774Y1305054D02*
D03*
X2277774Y1396804D02*
D03*
X2125771Y1350052D02*
D03*
X2269774Y1397054D02*
D03*
X2126774Y1357304D02*
D03*
X2355774Y1436054D02*
D03*
X2350774Y1430054D02*
D03*
X2436774Y1463054D02*
D03*
X2371774Y1515054D02*
D03*
X2395274Y1470054D02*
D03*
X2359774Y1450054D02*
D03*
X2350774Y1456054D02*
D03*
X2490774Y1359054D02*
D03*
X2427774Y1343054D02*
D03*
X2444774Y1292679D02*
D03*
X2418774Y1430054D02*
D03*
X2437771Y1439052D02*
D03*
X2439774Y1446054D02*
D03*
X1900774Y1285054D02*
D03*
X1860174D02*
D03*
X1372774Y1314054D02*
D03*
X1518774D02*
D03*
X1660774Y1300054D02*
D03*
X1730524Y1288054D02*
D03*
X1731774Y1274054D02*
D03*
X1727474Y1261054D02*
D03*
X1727774Y1247054D02*
D03*
X2195774Y1390054D02*
D03*
X2226774Y1391054D02*
D03*
X2032774Y1337054D02*
D03*
X2112774Y1426054D02*
D03*
X2099772Y1423052D02*
D03*
X2106774Y1406054D02*
D03*
X2095774Y1406054D02*
D03*
D41*
X2031500Y1597000D02*
D03*
X2031600Y1907250D02*
D03*
X1397000Y1907250D02*
D03*
X2031874Y1527524D02*
D03*
X2031774Y1217274D02*
D03*
X1397274Y1527524D02*
D03*
D42*
X2082300Y1597000D02*
D03*
X2107700D02*
D03*
X2133100D02*
D03*
X2158500D02*
D03*
X2183900D02*
D03*
X2209300D02*
D03*
X2234700D02*
D03*
X2056900D02*
D03*
X2361800Y1907250D02*
D03*
X2336400D02*
D03*
X2311000D02*
D03*
X2285600D02*
D03*
X2260200D02*
D03*
X2234800D02*
D03*
X2209400D02*
D03*
X2184000D02*
D03*
X2158600D02*
D03*
X2133200D02*
D03*
X2107800D02*
D03*
X2082400D02*
D03*
X2057000D02*
D03*
X1422400Y1907250D02*
D03*
X1447800D02*
D03*
X1473200D02*
D03*
X1498600D02*
D03*
X1524000D02*
D03*
X1549400D02*
D03*
X1574800D02*
D03*
X1600200D02*
D03*
X1625600D02*
D03*
X1651000D02*
D03*
X1676400D02*
D03*
X1701800D02*
D03*
X1727200D02*
D03*
X1752600D02*
D03*
X1778000D02*
D03*
X1803400D02*
D03*
X1828800D02*
D03*
X1854200D02*
D03*
X1879600D02*
D03*
X1905000D02*
D03*
X1930400D02*
D03*
X1955800D02*
D03*
X1981200D02*
D03*
X2006600D02*
D03*
X2362074Y1527524D02*
D03*
X2336674D02*
D03*
X2311274D02*
D03*
X2285874D02*
D03*
X2260474D02*
D03*
X2235074D02*
D03*
X2209674D02*
D03*
X2184274D02*
D03*
X2158874D02*
D03*
X2133474D02*
D03*
X2108074D02*
D03*
X2082674D02*
D03*
X2057274D02*
D03*
X2057174Y1217274D02*
D03*
X2234974D02*
D03*
X2209574D02*
D03*
X2184174D02*
D03*
X2158774D02*
D03*
X2133374D02*
D03*
X2107974D02*
D03*
X2082574D02*
D03*
X1274774Y1320454D02*
D03*
Y1295054D02*
D03*
Y1269654D02*
D03*
X1829074Y1527524D02*
D03*
X1803674D02*
D03*
X1778274D02*
D03*
X1676674D02*
D03*
X1702074D02*
D03*
X1727474D02*
D03*
X1752874D02*
D03*
X1854474D02*
D03*
X1422674D02*
D03*
X1448074D02*
D03*
X1473474D02*
D03*
X1498874D02*
D03*
X1524274D02*
D03*
X1549674D02*
D03*
X1575074D02*
D03*
X1600474D02*
D03*
X1625874D02*
D03*
X1651274D02*
D03*
X1879874D02*
D03*
X1905274D02*
D03*
X1930674D02*
D03*
X1956074D02*
D03*
X1981474D02*
D03*
X2006874D02*
D03*
D43*
X1279000Y1602000D02*
D03*
X2479000D02*
D03*
Y1902000D02*
D03*
X1279000D02*
D03*
X1279274Y1522274D02*
D03*
X2479274D02*
D03*
Y1222274D02*
D03*
X1279274D02*
D03*
D44*
X2495294Y1468154D02*
D03*
X2495394Y1411554D02*
D03*
D45*
X2032424D02*
D03*
X2042424D02*
D03*
X2052424D02*
D03*
X2062424D02*
D03*
Y1421554D02*
D03*
X2052424D02*
D03*
X2042424D02*
D03*
X2032424D02*
D03*
Y1431554D02*
D03*
X2042424D02*
D03*
X2052424D02*
D03*
X2062424D02*
D03*
Y1441554D02*
D03*
X2052424D02*
D03*
X2042424D02*
D03*
X2032424D02*
D03*
D46*
X1274774Y1345854D02*
D03*
D47*
X1264274Y1431553D02*
D03*
Y1461555D02*
D03*
D48*
X2462794Y1433354D02*
D03*
Y1426854D02*
D03*
Y1439854D02*
D03*
Y1446354D02*
D03*
Y1452854D02*
D03*
D49*
X2469794Y1471754D02*
D03*
Y1407954D02*
D03*
D50*
X1649774Y1500804D02*
D03*
X1641774D02*
D03*
X1633774D02*
D03*
X1625774D02*
D03*
X1649774Y1483304D02*
D03*
X1641774D02*
D03*
X1633774D02*
D03*
X1625774D02*
D03*
X1753774Y1502054D02*
D03*
X1745774D02*
D03*
X1737774D02*
D03*
X1729774D02*
D03*
X1753774Y1484554D02*
D03*
X1745774D02*
D03*
X1737774D02*
D03*
X1729774D02*
D03*
X2061774Y1501804D02*
D03*
X2053774D02*
D03*
X2045774D02*
D03*
X2037774D02*
D03*
X2061774Y1484304D02*
D03*
X2053774D02*
D03*
X2045774D02*
D03*
X2037774D02*
D03*
X2159774Y1500804D02*
D03*
X2151774D02*
D03*
X2143774D02*
D03*
X2135774D02*
D03*
X2159774Y1483304D02*
D03*
X2151774D02*
D03*
X2143774D02*
D03*
X2135774D02*
D03*
X1449774Y1500804D02*
D03*
X1441774D02*
D03*
X1433774D02*
D03*
X1425774D02*
D03*
X1449774Y1483304D02*
D03*
X1441774D02*
D03*
X1433774D02*
D03*
X1425774D02*
D03*
X1549774Y1500804D02*
D03*
X1541774D02*
D03*
X1533774D02*
D03*
X1525774D02*
D03*
X1549774Y1483304D02*
D03*
X1541774D02*
D03*
X1533774D02*
D03*
X1525774D02*
D03*
X1854774Y1500804D02*
D03*
X1846774D02*
D03*
X1838774D02*
D03*
X1830774D02*
D03*
X1854774Y1483304D02*
D03*
X1846774D02*
D03*
X1838774D02*
D03*
X1830774D02*
D03*
X1954774Y1500804D02*
D03*
X1946774D02*
D03*
X1938774D02*
D03*
X1930774D02*
D03*
X1954774Y1483304D02*
D03*
X1946774D02*
D03*
X1938774D02*
D03*
X1930774D02*
D03*
X2261774Y1500804D02*
D03*
X2253774D02*
D03*
X2245774D02*
D03*
X2237774D02*
D03*
X2261774Y1483304D02*
D03*
X2253774D02*
D03*
X2245774D02*
D03*
X2237774D02*
D03*
X2354774Y1500804D02*
D03*
X2346774D02*
D03*
X2338774D02*
D03*
X2330774D02*
D03*
X2354774Y1483304D02*
D03*
X2346774D02*
D03*
X2338774D02*
D03*
X2330774D02*
D03*
D51*
X2047024Y1426354D02*
D03*
D52*
X2012574Y1454354D02*
D03*
Y1450354D02*
D03*
Y1446354D02*
D03*
Y1442354D02*
D03*
Y1438354D02*
D03*
Y1434354D02*
D03*
Y1430354D02*
D03*
Y1426354D02*
D03*
Y1422354D02*
D03*
Y1418354D02*
D03*
Y1414354D02*
D03*
Y1410354D02*
D03*
Y1406354D02*
D03*
Y1402354D02*
D03*
Y1398354D02*
D03*
X2081474D02*
D03*
Y1402354D02*
D03*
Y1406354D02*
D03*
Y1410354D02*
D03*
Y1414354D02*
D03*
Y1418354D02*
D03*
Y1422354D02*
D03*
Y1426354D02*
D03*
Y1430354D02*
D03*
Y1434354D02*
D03*
Y1438354D02*
D03*
Y1442354D02*
D03*
Y1446354D02*
D03*
Y1450354D02*
D03*
Y1454354D02*
D03*
D53*
X2075024Y1460804D02*
D03*
X2071024D02*
D03*
X2067024D02*
D03*
X2063024D02*
D03*
X2059024D02*
D03*
X2055024D02*
D03*
X2051024D02*
D03*
X2047024D02*
D03*
X2043024D02*
D03*
X2039024D02*
D03*
X2035024D02*
D03*
X2031024D02*
D03*
X2027024D02*
D03*
X2023024D02*
D03*
X2019024D02*
D03*
Y1391904D02*
D03*
X2023024D02*
D03*
X2027024D02*
D03*
X2031024D02*
D03*
X2035024D02*
D03*
X2039024D02*
D03*
X2043024D02*
D03*
X2047024D02*
D03*
X2051024D02*
D03*
X2055024D02*
D03*
X2059024D02*
D03*
X2063024D02*
D03*
X2067024D02*
D03*
X2071024D02*
D03*
X2075024D02*
D03*
D54*
X2409024Y1517554D02*
D03*
Y1470554D02*
D03*
D55*
X2458274Y1305304D02*
D03*
Y1292804D02*
D03*
D56*
X2487274Y1330804D02*
D03*
Y1267304D02*
D03*
D57*
X2495394Y1375054D02*
D03*
X2479394D02*
D03*
X2495394Y1359054D02*
D03*
X2479394D02*
D03*
X1748004Y1262554D02*
D03*
X1764004D02*
D03*
X1748004Y1281554D02*
D03*
X1764004D02*
D03*
X1748004Y1244304D02*
D03*
X1764004D02*
D03*
X1747904Y1301054D02*
D03*
X1763904D02*
D03*
D58*
X1395273Y1234853D02*
D03*
Y1314355D02*
D03*
X1350274Y1234853D02*
D03*
Y1314355D02*
D03*
X1690273Y1234853D02*
D03*
Y1314355D02*
D03*
X1645274Y1234853D02*
D03*
Y1314355D02*
D03*
X1542773Y1234853D02*
D03*
Y1314355D02*
D03*
X1497774Y1234853D02*
D03*
Y1314355D02*
D03*
D59*
X2445301Y1452679D02*
X2465024D01*
X2418774Y1444320D02*
X2427233Y1452780D01*
X2418774Y1430054D02*
Y1444320D01*
X2427233Y1452780D02*
X2445200D01*
D60*
X2378926Y1219771D02*
X2384010D01*
X2340797D02*
X2345881D01*
X2259453D02*
X2261995D01*
X2443323Y1214687D02*
X2446713D01*
X2443323Y1213840D02*
X2445865D01*
X2443323Y1212993D02*
X2445865D01*
X2442476Y1212145D02*
X2445865D01*
X2442476Y1211298D02*
X2445018D01*
X2379774Y1223161D02*
X2384010D01*
X2379774Y1222313D02*
X2384010D01*
X2379774Y1221466D02*
X2384010D01*
X2379774Y1220619D02*
X2384010D01*
X2381468Y1218924D02*
X2384010D01*
X2382316Y1218077D02*
X2384010D01*
X2382316Y1217229D02*
X2384010D01*
X2382316Y1216382D02*
X2384010D01*
X2382316Y1215535D02*
X2384010D01*
X2382316Y1214687D02*
X2384010D01*
X2382316Y1213840D02*
X2384010D01*
X2382316Y1212993D02*
X2384010D01*
X2382316Y1212145D02*
X2384858D01*
X2357743D02*
X2367064D01*
X2382316Y1211298D02*
X2384858D01*
X2360285D02*
X2366216D01*
X2295888Y1223161D02*
X2300972D01*
X2294194Y1222313D02*
X2301820D01*
X2300972Y1221466D02*
X2302667D01*
X2339102Y1218924D02*
X2346728D01*
X2321308D02*
X2328087D01*
X2339102Y1218077D02*
X2341644D01*
X2321308D02*
X2324698D01*
X2339102Y1217229D02*
X2341644D01*
X2321308D02*
X2323850D01*
X2339102Y1216382D02*
X2342491D01*
X2321308D02*
X2323003D01*
X2339102Y1215535D02*
X2345881D01*
X2321308D02*
X2323003D01*
X2321308Y1214687D02*
X2323850D01*
X2321308Y1213840D02*
X2323850D01*
X2339949Y1212993D02*
X2341644D01*
X2321308D02*
X2323850D01*
X2339949Y1212145D02*
X2341644D01*
X2339949Y1211298D02*
X2341644D01*
X2297583Y1214687D02*
X2300972D01*
X2298430Y1213840D02*
X2301820D01*
X2299278Y1212993D02*
X2302667D01*
X2294194Y1212145D02*
X2303514D01*
X2294194Y1211298D02*
X2303514D01*
X2260301Y1222313D02*
X2267927D01*
X2259453Y1221466D02*
X2262843D01*
X2259453Y1220619D02*
X2261995D01*
X2259453Y1218924D02*
X2261995D01*
X2259453Y1218077D02*
X2261995D01*
X2259453Y1217229D02*
X2261995D01*
X2259453Y1216382D02*
X2262843D01*
X2260301Y1215535D02*
X2262843D01*
X2260301Y1214687D02*
X2263690D01*
X2449254Y1219771D02*
X2451797D01*
X2445865D02*
X2447560D01*
X2435697D02*
X2441629D01*
X2427224D02*
X2431461D01*
X2419598D02*
X2421293D01*
X2413667D02*
X2417056D01*
X2404346D02*
X2408583D01*
X2394178D02*
X2398415D01*
X2372148D02*
X2374690D01*
X2369606D02*
X2371301D01*
X2363674D02*
X2366216D01*
X2356896D02*
X2358591D01*
X2351812D02*
X2354354D01*
X2348423D02*
X2350965D01*
X2334018D02*
X2335713D01*
X2328934D02*
X2330629D01*
X2323003D02*
X2327240D01*
X2311988D02*
X2317072D01*
X2294194D02*
X2296736D01*
X2289110D02*
X2290804D01*
X2282331D02*
X2285720D01*
X2273858D02*
X2276400D01*
X2266232D02*
X2268774D01*
X2446713Y1223161D02*
X2450102D01*
X2446713Y1222313D02*
X2450949D01*
X2445865Y1221466D02*
X2450949D01*
X2449254Y1220619D02*
X2451797D01*
X2445865D02*
X2448407D01*
X2444171Y1215535D02*
X2454339D01*
X2451797Y1214687D02*
X2454339D01*
X2451797Y1213840D02*
X2455186D01*
X2452644Y1212993D02*
X2455186D01*
X2452644Y1212145D02*
X2456033D01*
X2453491Y1211298D02*
X2456033D01*
X2450102Y1218924D02*
X2452644D01*
X2445018D02*
X2447560D01*
X2450102Y1218077D02*
X2452644D01*
X2445018D02*
X2447560D01*
X2450102Y1217229D02*
X2453491D01*
X2445018D02*
X2447560D01*
X2444171Y1216382D02*
X2453491D01*
X2434850Y1223161D02*
X2439087D01*
X2436545Y1222313D02*
X2439934D01*
X2434850D02*
X2435697D01*
X2437392Y1221466D02*
X2439934D01*
X2437392Y1220619D02*
X2439934D01*
X2435697Y1218924D02*
X2441629D01*
X2425529D02*
X2433155D01*
X2437392Y1218077D02*
X2439934D01*
X2429766D02*
X2433155D01*
X2424682D02*
X2428071D01*
X2437392Y1217229D02*
X2439934D01*
X2431461D02*
X2434003D01*
X2424682D02*
X2427224D01*
X2437392Y1216382D02*
X2439934D01*
X2431461D02*
X2434003D01*
X2424682D02*
X2426377D01*
X2437392Y1215535D02*
X2439934D01*
X2432308D02*
X2434003D01*
X2424682D02*
X2426377D01*
X2438239Y1214687D02*
X2439934D01*
X2432308D02*
X2434003D01*
X2424682D02*
X2426377D01*
X2438239Y1213840D02*
X2439934D01*
X2431461D02*
X2434003D01*
X2424682D02*
X2427224D01*
X2438239Y1212993D02*
X2439934D01*
X2430613D02*
X2434003D01*
X2424682D02*
X2428071D01*
X2438239Y1212145D02*
X2440781D01*
X2425529D02*
X2433155D01*
X2438239Y1211298D02*
X2440781D01*
X2426377D02*
X2432308D01*
X2411972Y1218924D02*
X2421293D01*
X2403499D02*
X2409430D01*
X2417903Y1218077D02*
X2421293D01*
X2411972D02*
X2415361D01*
X2406888D02*
X2409430D01*
X2403499D02*
X2404346D01*
X2418751Y1217229D02*
X2421293D01*
X2411972D02*
X2414514D01*
X2407735D02*
X2409430D01*
X2419598Y1216382D02*
X2421293D01*
X2411972D02*
X2413667D01*
X2406888D02*
X2409430D01*
X2419598Y1215535D02*
X2422140D01*
X2411972D02*
X2413667D01*
X2405193D02*
X2408583D01*
X2419598Y1214687D02*
X2422140D01*
X2411972D02*
X2413667D01*
X2404346D02*
X2406888D01*
X2419598Y1213840D02*
X2422140D01*
X2411972D02*
X2414514D01*
X2403499D02*
X2406041D01*
X2420445Y1212993D02*
X2422140D01*
X2411972D02*
X2414514D01*
X2403499D02*
X2406041D01*
X2420445Y1212145D02*
X2422140D01*
X2412820D02*
X2414514D01*
X2403499D02*
X2410278D01*
X2420445Y1211298D02*
X2422140D01*
X2412820D02*
X2414514D01*
X2404346D02*
X2410278D01*
X2392484Y1218924D02*
X2400110D01*
X2396720Y1218077D02*
X2400110D01*
X2391636D02*
X2395026D01*
X2398415Y1217229D02*
X2400957D01*
X2391636D02*
X2394178D01*
X2398415Y1216382D02*
X2400957D01*
X2391636D02*
X2393331D01*
X2399262Y1215535D02*
X2400957D01*
X2391636D02*
X2393331D01*
X2399262Y1214687D02*
X2400957D01*
X2391636D02*
X2393331D01*
X2398415Y1213840D02*
X2400957D01*
X2391636D02*
X2394178D01*
X2397568Y1212993D02*
X2400957D01*
X2391636D02*
X2395026D01*
X2392484Y1212145D02*
X2400110D01*
X2393331Y1211298D02*
X2399262D01*
X2369606Y1223161D02*
X2372995D01*
X2369606Y1222313D02*
X2373842D01*
X2369606Y1221466D02*
X2373842D01*
X2372148Y1220619D02*
X2374690D01*
X2369606D02*
X2371301D01*
X2378926Y1218924D02*
X2380621D01*
X2372995D02*
X2374690D01*
X2369606D02*
X2371301D01*
X2363674D02*
X2366216D01*
X2378926Y1218077D02*
X2380621D01*
X2372995D02*
X2375537D01*
X2369606D02*
X2372148D01*
X2364522D02*
X2366216D01*
X2378079Y1217229D02*
X2380621D01*
X2373842D02*
X2375537D01*
X2369606D02*
X2372148D01*
X2364522D02*
X2366216D01*
X2378079Y1216382D02*
X2379774D01*
X2373842D02*
X2376384D01*
X2369606D02*
X2372148D01*
X2364522D02*
X2366216D01*
X2378079Y1215535D02*
X2379774D01*
X2374690D02*
X2376384D01*
X2370453D02*
X2372148D01*
X2364522D02*
X2366216D01*
X2378079Y1214687D02*
X2379774D01*
X2374690D02*
X2377232D01*
X2370453D02*
X2372148D01*
X2364522D02*
X2367064D01*
X2375537Y1213840D02*
X2379774D01*
X2370453D02*
X2372148D01*
X2364522D02*
X2367064D01*
X2375537Y1212993D02*
X2378926D01*
X2370453D02*
X2372148D01*
X2363674D02*
X2367064D01*
X2375537Y1212145D02*
X2378926D01*
X2370453D02*
X2372148D01*
X2376384Y1211298D02*
X2378926D01*
X2370453D02*
X2372148D01*
X2356896Y1218924D02*
X2358591D01*
X2348423D02*
X2354354D01*
X2356896Y1218077D02*
X2358591D01*
X2350117D02*
X2354354D01*
X2356896Y1217229D02*
X2359438D01*
X2350965D02*
X2354354D01*
X2356896Y1216382D02*
X2359438D01*
X2351812D02*
X2354354D01*
X2356896Y1215535D02*
X2359438D01*
X2351812D02*
X2354354D01*
X2356896Y1214687D02*
X2359438D01*
X2352659D02*
X2354354D01*
X2344186D02*
X2347575D01*
X2357743Y1213840D02*
X2359438D01*
X2352659D02*
X2354354D01*
X2345881D02*
X2348423D01*
X2357743Y1212993D02*
X2360285D01*
X2352659D02*
X2354354D01*
X2345881D02*
X2348423D01*
X2352659Y1212145D02*
X2354354D01*
X2345033D02*
X2348423D01*
X2342491D02*
X2343339D01*
X2357743Y1211298D02*
X2359438D01*
X2352659D02*
X2355201D01*
X2343339D02*
X2347575D01*
X2334018Y1223161D02*
X2335713D01*
X2328934D02*
X2330629D01*
X2334018Y1222313D02*
X2335713D01*
X2328934D02*
X2330629D01*
X2334018Y1221466D02*
X2335713D01*
X2328934D02*
X2330629D01*
X2334018Y1220619D02*
X2335713D01*
X2328934D02*
X2330629D01*
X2334018Y1218924D02*
X2335713D01*
X2328934D02*
X2330629D01*
X2334018Y1218077D02*
X2336560D01*
X2327240D02*
X2331476D01*
X2334018Y1217229D02*
X2336560D01*
X2328087D02*
X2331476D01*
X2334018Y1216382D02*
X2336560D01*
X2328934D02*
X2331476D01*
X2334018Y1215535D02*
X2336560D01*
X2328934D02*
X2331476D01*
X2339102Y1214687D02*
X2340797D01*
X2334018D02*
X2336560D01*
X2328934D02*
X2331476D01*
X2339102Y1213840D02*
X2340797D01*
X2334865D02*
X2336560D01*
X2329781D02*
X2331476D01*
X2334865Y1212993D02*
X2336560D01*
X2329781D02*
X2331476D01*
X2334865Y1212145D02*
X2336560D01*
X2329781D02*
X2331476D01*
X2322155D02*
X2323850D01*
X2334865Y1211298D02*
X2336560D01*
X2329781D02*
X2331476D01*
X2322155D02*
X2323850D01*
X2310293Y1218924D02*
X2317919D01*
X2310293Y1218077D02*
X2312835D01*
X2310293Y1217229D02*
X2312835D01*
X2310293Y1216382D02*
X2313682D01*
X2310293Y1215535D02*
X2317072D01*
X2315377Y1214687D02*
X2318766D01*
X2310293D02*
X2311988D01*
X2317072Y1213840D02*
X2319613D01*
X2310293D02*
X2311988D01*
X2317072Y1212993D02*
X2319613D01*
X2311140D02*
X2312835D01*
X2316224Y1212145D02*
X2319613D01*
X2313682D02*
X2314530D01*
X2311140D02*
X2312835D01*
X2314530Y1211298D02*
X2318766D01*
X2311140D02*
X2312835D01*
X2288262Y1223161D02*
X2290804D01*
X2288262Y1222313D02*
X2290804D01*
X2294194Y1221466D02*
X2298430D01*
X2288262D02*
X2290804D01*
X2294194Y1220619D02*
X2296736D01*
X2289110D02*
X2290804D01*
X2294194Y1218924D02*
X2296736D01*
X2289110D02*
X2290804D01*
X2283179D02*
X2286568D01*
X2295041Y1218077D02*
X2297583D01*
X2289110D02*
X2290804D01*
X2284026D02*
X2286568D01*
X2295041Y1217229D02*
X2298430D01*
X2289110D02*
X2290804D01*
X2284873D02*
X2287415D01*
X2295888Y1216382D02*
X2299278D01*
X2289110D02*
X2290804D01*
X2285720D02*
X2288262D01*
X2296736Y1215535D02*
X2300125D01*
X2289110D02*
X2290804D01*
X2285720D02*
X2288262D01*
X2289110Y1214687D02*
X2290804D01*
X2285720D02*
X2288262D01*
X2289110Y1213840D02*
X2290804D01*
X2284873D02*
X2287415D01*
X2289110Y1212993D02*
X2290804D01*
X2284026D02*
X2286568D01*
X2289110Y1212145D02*
X2291652D01*
X2283179D02*
X2285720D01*
X2289110Y1211298D02*
X2291652D01*
X2282331D02*
X2285720D01*
X2273858Y1223161D02*
X2276400D01*
X2261995D02*
X2266232D01*
X2273858Y1222313D02*
X2278094D01*
X2273858Y1221466D02*
X2278094D01*
X2264537D02*
X2268774D01*
X2277247Y1220619D02*
X2278094D01*
X2273858D02*
X2276400D01*
X2266232D02*
X2268774D01*
X2273858Y1218924D02*
X2276400D01*
X2266232D02*
X2268774D01*
X2273858Y1218077D02*
X2276400D01*
X2265385D02*
X2268774D01*
X2273858Y1217229D02*
X2276400D01*
X2262843D02*
X2268774D01*
X2273858Y1216382D02*
X2276400D01*
X2263690D02*
X2267927D01*
X2273858Y1215535D02*
X2276400D01*
X2273858Y1214687D02*
X2276400D01*
X2273858Y1213840D02*
X2276400D01*
X2261148D02*
X2264537D01*
X2273858Y1212993D02*
X2276400D01*
X2261995D02*
X2264537D01*
X2273858Y1212145D02*
X2276400D01*
X2261995D02*
X2265385D01*
X2273858Y1211298D02*
X2276400D01*
X2262843D02*
X2266232D01*
M02*
