G04*
G04 #@! TF.GenerationSoftware,Altium Limited,Altium Designer,19.0.14 (431)*
G04*
G04 Layer_Color=32768*
%FSLAX44Y44*%
%MOMM*%
G71*
G01*
G75*
%ADD38C,0.1000*%
%ADD61C,0.1524*%
%ADD105C,0.0500*%
D38*
X1939524Y1347604D02*
Y1360104D01*
X1914024Y1347604D02*
Y1360104D01*
Y1347604D02*
X1939524D01*
X1914024Y1360104D02*
X1939524D01*
X1922024Y1353854D02*
X1931524D01*
X1926774Y1349104D02*
Y1358604D01*
X1939524Y1331604D02*
Y1344104D01*
X1914024Y1331604D02*
Y1344104D01*
Y1331604D02*
X1939524D01*
X1914024Y1344104D02*
X1939524D01*
X1922024Y1337854D02*
X1931524D01*
X1926774Y1333104D02*
Y1342604D01*
X2323524Y1479679D02*
X2336024D01*
X2323524Y1454179D02*
X2336024D01*
Y1479679D01*
X2323524Y1454179D02*
Y1479679D01*
X2329774Y1462179D02*
Y1471679D01*
X2325024Y1466929D02*
X2334524D01*
X2307259Y1479804D02*
X2319759D01*
X2307259Y1454304D02*
X2319759D01*
Y1479804D01*
X2307259Y1454304D02*
Y1479804D01*
X2313509Y1462304D02*
Y1471804D01*
X2308759Y1467054D02*
X2318259D01*
X2085524Y1375804D02*
X2095024D01*
X2090274Y1371054D02*
Y1380554D01*
X2084024Y1363054D02*
Y1388554D01*
X2096524Y1363054D02*
Y1388554D01*
X2084024D02*
X2096524D01*
X2084024Y1363054D02*
X2096524D01*
X2103274Y1376054D02*
X2112774D01*
X2108024Y1371304D02*
Y1380804D01*
X2101774Y1363304D02*
Y1388804D01*
X2114274Y1363304D02*
Y1388804D01*
X2101774D02*
X2114274D01*
X2101774Y1363304D02*
X2114274D01*
X2291774Y1317304D02*
Y1326804D01*
X2287024Y1322054D02*
X2296524D01*
X2279024Y1328304D02*
X2304524D01*
X2279024Y1315804D02*
X2304524D01*
X2279024D02*
Y1328304D01*
X2304524Y1315804D02*
Y1328304D01*
X2103774Y1389804D02*
X2113274D01*
X2108524Y1385054D02*
Y1394554D01*
X2102274Y1377054D02*
Y1402554D01*
X2114774Y1377054D02*
Y1402554D01*
X2102274Y1377054D02*
X2114774D01*
X2102274Y1402554D02*
X2114774D01*
X2379024Y1481054D02*
Y1490554D01*
X2374274Y1485804D02*
X2383774D01*
X2366274Y1492054D02*
X2391774D01*
X2366274Y1479554D02*
X2391774D01*
X2366274D02*
Y1492054D01*
X2391774Y1479554D02*
Y1492054D01*
X2412774Y1276004D02*
X2422274D01*
X2417524Y1271254D02*
Y1280754D01*
X2423774Y1263254D02*
Y1288754D01*
X2411274Y1263254D02*
Y1288754D01*
X2423774D01*
X2411274Y1263254D02*
X2423774D01*
X2120024Y1418554D02*
X2129524D01*
X2124774Y1413804D02*
Y1423304D01*
X2131024Y1405804D02*
Y1431304D01*
X2118524Y1405804D02*
Y1431304D01*
X2131024D01*
X2118524Y1405804D02*
X2131024D01*
X2088024Y1376054D02*
X2097524D01*
X2092774Y1371304D02*
Y1380804D01*
X2099024Y1363304D02*
Y1388804D01*
X2086524Y1363304D02*
Y1388804D01*
X2099024D01*
X2086524Y1363304D02*
X2099024D01*
X2395524Y1278554D02*
Y1288054D01*
X2390774Y1283304D02*
X2400274D01*
X2382774Y1277054D02*
X2408274D01*
X2382774Y1289554D02*
X2408274D01*
Y1277054D02*
Y1289554D01*
X2382774Y1277054D02*
Y1289554D01*
X2395524Y1264304D02*
Y1273804D01*
X2390774Y1269054D02*
X2400274D01*
X2382774Y1275304D02*
X2408274D01*
X2382774Y1262804D02*
X2408274D01*
X2382774D02*
Y1275304D01*
X2408274Y1262804D02*
Y1275304D01*
X2345524Y1416054D02*
X2355024D01*
X2350274Y1411304D02*
Y1420804D01*
X2344024Y1403304D02*
Y1428804D01*
X2356524Y1403304D02*
Y1428804D01*
X2344024Y1403304D02*
X2356524D01*
X2344024Y1428804D02*
X2356524D01*
X2120024Y1390054D02*
X2129524D01*
X2124774Y1385304D02*
Y1394804D01*
X2131024Y1377304D02*
Y1402804D01*
X2118524Y1377304D02*
Y1402804D01*
X2131024D01*
X2118524Y1377304D02*
X2131024D01*
X2455024Y1369804D02*
Y1379304D01*
X2450274Y1374554D02*
X2459774D01*
X2442274Y1368304D02*
X2467774D01*
X2442274Y1380804D02*
X2467774D01*
X2442274Y1368304D02*
Y1380804D01*
X2467774Y1368304D02*
Y1380804D01*
X2378774Y1497304D02*
Y1506804D01*
X2374024Y1502054D02*
X2383524D01*
X2366024Y1495804D02*
X2391524D01*
X2366024Y1508304D02*
X2391524D01*
Y1495804D02*
Y1508304D01*
X2366024Y1495804D02*
Y1508304D01*
X2245533Y1386421D02*
Y1395921D01*
X2240783Y1391171D02*
X2250283D01*
X2232783Y1397421D02*
X2258283D01*
X2232783Y1384921D02*
X2258283D01*
X2232783D02*
Y1397421D01*
X2258283Y1384921D02*
Y1397421D01*
X2254774Y1371030D02*
Y1380530D01*
X2250024Y1375780D02*
X2259524D01*
X2242024Y1382030D02*
X2267524D01*
X2242024Y1369530D02*
X2267524D01*
X2242024D02*
Y1382030D01*
X2267524Y1369530D02*
Y1382030D01*
X2406024Y1314304D02*
Y1323804D01*
X2401274Y1319054D02*
X2410774D01*
X2393274Y1325304D02*
X2418774D01*
X2393274Y1312804D02*
X2418774D01*
X2393274D02*
Y1325304D01*
X2418774Y1312804D02*
Y1325304D01*
X1959024Y1369054D02*
X1968524D01*
X1963774Y1364304D02*
Y1373804D01*
X1970024Y1356304D02*
Y1381804D01*
X1957524Y1356304D02*
Y1381804D01*
X1970024D01*
X1957524Y1356304D02*
X1970024D01*
X2455024Y1354304D02*
Y1363804D01*
X2450274Y1359054D02*
X2459774D01*
X2442274Y1365304D02*
X2467774D01*
X2442274Y1352804D02*
X2467774D01*
Y1365304D01*
X2442274Y1352804D02*
Y1365304D01*
X1978024Y1376054D02*
X1987524D01*
X1982774Y1371304D02*
Y1380804D01*
X1989024Y1363304D02*
Y1388804D01*
X1976524Y1363304D02*
Y1388804D01*
X1989024D01*
X1976524Y1363304D02*
X1989024D01*
X1797024Y1296304D02*
Y1305804D01*
X1792274Y1301054D02*
X1801774D01*
X1784274Y1307304D02*
X1809774D01*
X1784274Y1294804D02*
X1809774D01*
Y1307304D01*
X1784274Y1294804D02*
Y1307304D01*
X1797024Y1276804D02*
Y1286304D01*
X1792274Y1281554D02*
X1801774D01*
X1784274Y1287804D02*
X1809774D01*
X1784274Y1275304D02*
X1809774D01*
Y1287804D01*
X1784274Y1275304D02*
Y1287804D01*
X1797024Y1258054D02*
Y1267554D01*
X1792274Y1262804D02*
X1801774D01*
X1784274Y1269054D02*
X1809774D01*
X1784274Y1256554D02*
X1809774D01*
Y1269054D01*
X1784274Y1256554D02*
Y1269054D01*
X1797024Y1239804D02*
Y1249304D01*
X1792274Y1244554D02*
X1801774D01*
X1784274Y1250804D02*
X1809774D01*
X1784274Y1238304D02*
X1809774D01*
Y1250804D01*
X1784274Y1238304D02*
Y1250804D01*
X1397274Y1309304D02*
Y1318804D01*
X1392524Y1314054D02*
X1402024D01*
X1384524Y1307804D02*
X1410024D01*
X1384524Y1320304D02*
X1410024D01*
Y1307804D02*
Y1320304D01*
X1384524Y1307804D02*
Y1320304D01*
X1542774Y1309304D02*
Y1318804D01*
X1538024Y1314054D02*
X1547524D01*
X1530024Y1307804D02*
X1555524D01*
X1530024Y1320304D02*
X1555524D01*
Y1307804D02*
Y1320304D01*
X1530024Y1307804D02*
Y1320304D01*
X1667774Y1309304D02*
Y1318804D01*
X1663024Y1314054D02*
X1672524D01*
X1655024Y1307804D02*
X1680524D01*
X1655024Y1320304D02*
X1680524D01*
Y1307804D02*
Y1320304D01*
X1655024Y1307804D02*
Y1320304D01*
X2364524Y1319304D02*
Y1328804D01*
X2359774Y1324054D02*
X2369274D01*
X2351774Y1317804D02*
X2377274D01*
X2351774Y1330304D02*
X2377274D01*
Y1317804D02*
Y1330304D01*
X2351774Y1317804D02*
Y1330304D01*
X2400524Y1377054D02*
Y1386554D01*
X2395774Y1381804D02*
X2405274D01*
X2387774Y1388054D02*
X2413274D01*
X2387774Y1375554D02*
X2413274D01*
X2387774D02*
Y1388054D01*
X2413274Y1375554D02*
Y1388054D01*
X2309024Y1413054D02*
X2318524D01*
X2313774Y1408304D02*
Y1417804D01*
X2320024Y1400304D02*
Y1425804D01*
X2307524Y1400304D02*
Y1425804D01*
X2320024D01*
X2307524Y1400304D02*
X2320024D01*
X2325024Y1413054D02*
X2334524D01*
X2329774Y1408304D02*
Y1417804D01*
X2336024Y1400304D02*
Y1425804D01*
X2323524Y1400304D02*
Y1425804D01*
X2336024D01*
X2323524Y1400304D02*
X2336024D01*
X2467774Y1299054D02*
X2477774D01*
X2472774Y1294054D02*
Y1304054D01*
X2207774Y1431553D02*
X2217774D01*
X2212774Y1426553D02*
Y1436553D01*
X2165774Y1379054D02*
X2175774D01*
X2170774Y1374054D02*
Y1384054D01*
X2369024Y1405054D02*
Y1410054D01*
X2366524Y1407554D02*
X2371524D01*
X2405774Y1347554D02*
Y1357554D01*
X2400774Y1352554D02*
X2410774D01*
D61*
X2296333Y1455851D02*
Y1464854D01*
Y1455851D02*
X2299381D01*
Y1418739D02*
Y1455851D01*
X2296333Y1418739D02*
X2299381D01*
X2296333Y1409736D02*
Y1418739D01*
X2287330Y1409736D02*
X2296333D01*
X2287330Y1406688D02*
Y1409736D01*
X2250218Y1406688D02*
X2287330D01*
X2250218D02*
Y1409736D01*
X2241215D02*
X2250218D01*
X2241215D02*
Y1418739D01*
X2238167D02*
X2241215D01*
X2238167D02*
Y1455851D01*
X2241215D01*
Y1464854D01*
X2250218D01*
Y1467902D01*
X2287330D01*
Y1464854D02*
Y1467902D01*
Y1464854D02*
X2296333D01*
D105*
X2363024Y1354304D02*
G03*
X2363024Y1354304I-3500J0D01*
G01*
X2408524Y1409304D02*
G03*
X2408524Y1409304I-3500J0D01*
G01*
X2340024Y1336304D02*
X2379024D01*
Y1372304D01*
X2340024D02*
X2379024D01*
X2340024Y1336304D02*
Y1372304D01*
X2359524Y1349304D02*
Y1359304D01*
X2354524Y1354304D02*
X2364524D01*
X2449274Y1342304D02*
X2509274D01*
X2449274Y1255804D02*
Y1342304D01*
X2509274Y1255804D02*
Y1342304D01*
X2449274Y1255804D02*
X2509274D01*
X2232774Y1407553D02*
Y1455553D01*
X2192774Y1407553D02*
Y1455553D01*
X2232774D01*
X2192774Y1407553D02*
X2232774D01*
X2150774Y1355054D02*
Y1403054D01*
X2190774Y1355054D02*
Y1403054D01*
X2150774Y1355054D02*
X2190774D01*
X2150774Y1403054D02*
X2190774D01*
X2360024Y1385604D02*
Y1429504D01*
X2378024D01*
Y1385604D02*
Y1429504D01*
X2360024Y1385604D02*
X2378024D01*
X2400024Y1409304D02*
X2410024D01*
X2405024Y1404304D02*
Y1414304D01*
X2385524Y1391304D02*
Y1427304D01*
X2424524D01*
Y1391304D02*
Y1427304D01*
X2385524Y1391304D02*
X2424524D01*
X2382274Y1373054D02*
X2429274D01*
X2382274Y1332054D02*
X2429274D01*
X2382274D02*
Y1373054D01*
X2429274Y1332054D02*
Y1373054D01*
M02*
