G04*
G04 #@! TF.GenerationSoftware,Altium Limited,Altium Designer,18.1.9 (240)*
G04*
G04 Layer_Physical_Order=2*
G04 Layer_Color=16711680*
%FSLAX44Y44*%
%MOMM*%
G71*
G01*
G75*
%ADD11C,0.1270*%
%ADD12C,0.2540*%
%ADD19R,1.5000X1.5000*%
%ADD20C,1.5000*%
%ADD21C,0.5000*%
%ADD22C,3.0000*%
D11*
X1567903Y772496D02*
X1579216Y783810D01*
X1562246Y778153D02*
X1573560Y789467D01*
X1562246Y778153D02*
X1567903Y772496D01*
X1573560Y789467D02*
X1579216Y783810D01*
X1537903Y772496D02*
X1549217Y783810D01*
X1532246Y778153D02*
X1543560Y789467D01*
X1532246Y778153D02*
X1537903Y772496D01*
X1543560Y789467D02*
X1549217Y783810D01*
X1507903Y772496D02*
X1519216Y783810D01*
X1502246Y778153D02*
X1513560Y789467D01*
X1502246Y778153D02*
X1507903Y772496D01*
X1513560Y789467D02*
X1519216Y783810D01*
X1477903Y772496D02*
X1489217Y783810D01*
X1472246Y778153D02*
X1483560Y789467D01*
X1472246Y778153D02*
X1477903Y772496D01*
X1483560Y789467D02*
X1489217Y783810D01*
X1447903Y772496D02*
X1459217Y783810D01*
X1442246Y778153D02*
X1453560Y789467D01*
X1442246Y778153D02*
X1447903Y772496D01*
X1453560Y789467D02*
X1459217Y783810D01*
X1417903Y772496D02*
X1429216Y783810D01*
X1412246Y778153D02*
X1423560Y789467D01*
X1412246Y778153D02*
X1417903Y772496D01*
X1423560Y789467D02*
X1429216Y783810D01*
X1387903Y772496D02*
X1399217Y783810D01*
X1382246Y778153D02*
X1393560Y789467D01*
X1382246Y778153D02*
X1387903Y772496D01*
X1393560Y789467D02*
X1399217Y783810D01*
X1357903Y772496D02*
X1369216Y783810D01*
X1352246Y778153D02*
X1363560Y789467D01*
X1352246Y778153D02*
X1357903Y772496D01*
X1363560Y789467D02*
X1369216Y783810D01*
X1327903Y772496D02*
X1339217Y783810D01*
X1322246Y778153D02*
X1333560Y789467D01*
X1322246Y778153D02*
X1327903Y772496D01*
X1333560Y789467D02*
X1339217Y783810D01*
X1297903Y772496D02*
X1309217Y783810D01*
X1292246Y778153D02*
X1303560Y789467D01*
X1292246Y778153D02*
X1297903Y772496D01*
X1303560Y789467D02*
X1309217Y783810D01*
X1267903Y772496D02*
X1279217Y783810D01*
X1262246Y778153D02*
X1273560Y789467D01*
X1262246Y778153D02*
X1267903Y772496D01*
X1273560Y789467D02*
X1279217Y783810D01*
X1237903Y772496D02*
X1249217Y783810D01*
X1232246Y778153D02*
X1243560Y789467D01*
X1232246Y778153D02*
X1237903Y772496D01*
X1243560Y789467D02*
X1249217Y783810D01*
X1207903Y772496D02*
X1219217Y783810D01*
X1202246Y778153D02*
X1213560Y789467D01*
X1202246Y778153D02*
X1207903Y772496D01*
X1213560Y789467D02*
X1219217Y783810D01*
X1177903Y772496D02*
X1189217Y783810D01*
X1172246Y778153D02*
X1183560Y789467D01*
X1172246Y778153D02*
X1177903Y772496D01*
X1183560Y789467D02*
X1189217Y783810D01*
X1147903Y772496D02*
X1159217Y783810D01*
X1142246Y778153D02*
X1153560Y789467D01*
X1142246Y778153D02*
X1147903Y772496D01*
X1153560Y789467D02*
X1159217Y783810D01*
X1117903Y772496D02*
X1129217Y783810D01*
X1112246Y778153D02*
X1123560Y789467D01*
X1112246Y778153D02*
X1117903Y772496D01*
X1123560Y789467D02*
X1129217Y783810D01*
X1087903Y772496D02*
X1099217Y783810D01*
X1082246Y778153D02*
X1093560Y789467D01*
X1082246Y778153D02*
X1087903Y772496D01*
X1093560Y789467D02*
X1099217Y783810D01*
X1057903Y772496D02*
X1069217Y783810D01*
X1052246Y778153D02*
X1063560Y789467D01*
X1052246Y778153D02*
X1057903Y772496D01*
X1063560Y789467D02*
X1069217Y783810D01*
X1027903Y772496D02*
X1039217Y783810D01*
X1022246Y778153D02*
X1033560Y789467D01*
X1022246Y778153D02*
X1027903Y772496D01*
X1033560Y789467D02*
X1039217Y783810D01*
X997903Y772496D02*
X1009217Y783810D01*
X992246Y778153D02*
X1003560Y789467D01*
X992246Y778153D02*
X997903Y772496D01*
X1003560Y789467D02*
X1009217Y783810D01*
X967903Y772496D02*
X979217Y783810D01*
X962246Y778153D02*
X973560Y789467D01*
X962246Y778153D02*
X967903Y772496D01*
X973560Y789467D02*
X979217Y783810D01*
X937903Y772496D02*
X949217Y783810D01*
X932246Y778153D02*
X943560Y789467D01*
X932246Y778153D02*
X937903Y772496D01*
X943560Y789467D02*
X949217Y783810D01*
X907903Y772496D02*
X919217Y783810D01*
X902246Y778153D02*
X913560Y789467D01*
X902246Y778153D02*
X907903Y772496D01*
X913560Y789467D02*
X919217Y783810D01*
X877903Y772496D02*
X889217Y783810D01*
X872246Y778153D02*
X883560Y789467D01*
X872246Y778153D02*
X877903Y772496D01*
X883560Y789467D02*
X889217Y783810D01*
X847903Y772496D02*
X859217Y783810D01*
X842246Y778153D02*
X853560Y789467D01*
X842246Y778153D02*
X847903Y772496D01*
X853560Y789467D02*
X859217Y783810D01*
X817903Y772496D02*
X829217Y783810D01*
X812246Y778153D02*
X823560Y789467D01*
X812246Y778153D02*
X817903Y772496D01*
X823560Y789467D02*
X829217Y783810D01*
X787903Y772496D02*
X799217Y783810D01*
X782246Y778153D02*
X793560Y789467D01*
X782246Y778153D02*
X787903Y772496D01*
X793560Y789467D02*
X799217Y783810D01*
X757903Y772496D02*
X769217Y783810D01*
X752246Y778153D02*
X763560Y789467D01*
X752246Y778153D02*
X757903Y772496D01*
X763560Y789467D02*
X769217Y783810D01*
X727903Y772496D02*
X739217Y783810D01*
X722246Y778153D02*
X733560Y789467D01*
X722246Y778153D02*
X727903Y772496D01*
X733560Y789467D02*
X739217Y783810D01*
X697903Y772496D02*
X709217Y783810D01*
X692246Y778153D02*
X703560Y789467D01*
X692246Y778153D02*
X697903Y772496D01*
X703560Y789467D02*
X709217Y783810D01*
X667903Y772496D02*
X679217Y783810D01*
X662246Y778153D02*
X673560Y789467D01*
X662246Y778153D02*
X667903Y772496D01*
X673560Y789467D02*
X679217Y783810D01*
X637903Y772496D02*
X649217Y783810D01*
X632246Y778153D02*
X643560Y789467D01*
X632246Y778153D02*
X637903Y772496D01*
X643560Y789467D02*
X649217Y783810D01*
X607903Y772496D02*
X619217Y783810D01*
X602246Y778153D02*
X613560Y789467D01*
X602246Y778153D02*
X607903Y772496D01*
X613560Y789467D02*
X619217Y783810D01*
X577903Y772496D02*
X589217Y783810D01*
X572246Y778153D02*
X583560Y789467D01*
X572246Y778153D02*
X577903Y772496D01*
X583560Y789467D02*
X589217Y783810D01*
X547903Y772496D02*
X559217Y783810D01*
X542246Y778153D02*
X553560Y789467D01*
X542246Y778153D02*
X547903Y772496D01*
X553560Y789467D02*
X559217Y783810D01*
X517903Y772496D02*
X529217Y783810D01*
X512246Y778153D02*
X523560Y789467D01*
X512246Y778153D02*
X517903Y772496D01*
X523560Y789467D02*
X529217Y783810D01*
X487903Y772496D02*
X499217Y783810D01*
X482246Y778153D02*
X493560Y789467D01*
X482246Y778153D02*
X487903Y772496D01*
X493560Y789467D02*
X499217Y783810D01*
X457903Y772496D02*
X469217Y783810D01*
X452246Y778153D02*
X463560Y789467D01*
X452246Y778153D02*
X457903Y772496D01*
X463560Y789467D02*
X469217Y783810D01*
X427903Y772496D02*
X439217Y783810D01*
X422246Y778153D02*
X433560Y789467D01*
X422246Y778153D02*
X427903Y772496D01*
X433560Y789467D02*
X439217Y783810D01*
X1567903Y802496D02*
X1579216Y813810D01*
X1562246Y808153D02*
X1573560Y819467D01*
X1562246Y808153D02*
X1567903Y802496D01*
X1573560Y819467D02*
X1579216Y813810D01*
X1537903Y802496D02*
X1549217Y813810D01*
X1532246Y808153D02*
X1543560Y819467D01*
X1532246Y808153D02*
X1537903Y802496D01*
X1543560Y819467D02*
X1549217Y813810D01*
X1507903Y802496D02*
X1519216Y813810D01*
X1502246Y808153D02*
X1513560Y819467D01*
X1502246Y808153D02*
X1507903Y802496D01*
X1513560Y819467D02*
X1519216Y813810D01*
X1477903Y802496D02*
X1489217Y813810D01*
X1472246Y808153D02*
X1483560Y819467D01*
X1472246Y808153D02*
X1477903Y802496D01*
X1483560Y819467D02*
X1489217Y813810D01*
X1447903Y802496D02*
X1459217Y813810D01*
X1442246Y808153D02*
X1453560Y819467D01*
X1442246Y808153D02*
X1447903Y802496D01*
X1453560Y819467D02*
X1459217Y813810D01*
X1417903Y802496D02*
X1429216Y813810D01*
X1412246Y808153D02*
X1423560Y819467D01*
X1412246Y808153D02*
X1417903Y802496D01*
X1423560Y819467D02*
X1429216Y813810D01*
X1387903Y802496D02*
X1399217Y813810D01*
X1382246Y808153D02*
X1393560Y819467D01*
X1382246Y808153D02*
X1387903Y802496D01*
X1393560Y819467D02*
X1399217Y813810D01*
X1357903Y802496D02*
X1369216Y813810D01*
X1352246Y808153D02*
X1363560Y819467D01*
X1352246Y808153D02*
X1357903Y802496D01*
X1363560Y819467D02*
X1369216Y813810D01*
X1327903Y802496D02*
X1339217Y813810D01*
X1322246Y808153D02*
X1333560Y819467D01*
X1322246Y808153D02*
X1327903Y802496D01*
X1333560Y819467D02*
X1339217Y813810D01*
X1297903Y802496D02*
X1309217Y813810D01*
X1292246Y808153D02*
X1303560Y819467D01*
X1292246Y808153D02*
X1297903Y802496D01*
X1303560Y819467D02*
X1309217Y813810D01*
X1267903Y802496D02*
X1279217Y813810D01*
X1262246Y808153D02*
X1273560Y819467D01*
X1262246Y808153D02*
X1267903Y802496D01*
X1273560Y819467D02*
X1279217Y813810D01*
X1237903Y802496D02*
X1249217Y813810D01*
X1232246Y808153D02*
X1243560Y819467D01*
X1232246Y808153D02*
X1237903Y802496D01*
X1243560Y819467D02*
X1249217Y813810D01*
X1207903Y802496D02*
X1219217Y813810D01*
X1202246Y808153D02*
X1213560Y819467D01*
X1202246Y808153D02*
X1207903Y802496D01*
X1213560Y819467D02*
X1219217Y813810D01*
X1177903Y802496D02*
X1189217Y813810D01*
X1172246Y808153D02*
X1183560Y819467D01*
X1172246Y808153D02*
X1177903Y802496D01*
X1183560Y819467D02*
X1189217Y813810D01*
X1147903Y802496D02*
X1159217Y813810D01*
X1142246Y808153D02*
X1153560Y819467D01*
X1142246Y808153D02*
X1147903Y802496D01*
X1153560Y819467D02*
X1159217Y813810D01*
X1117903Y802496D02*
X1129217Y813810D01*
X1112246Y808153D02*
X1123560Y819467D01*
X1112246Y808153D02*
X1117903Y802496D01*
X1123560Y819467D02*
X1129217Y813810D01*
X1087903Y802496D02*
X1099217Y813810D01*
X1082246Y808153D02*
X1093560Y819467D01*
X1082246Y808153D02*
X1087903Y802496D01*
X1093560Y819467D02*
X1099217Y813810D01*
X1057903Y802496D02*
X1069217Y813810D01*
X1052246Y808153D02*
X1063560Y819467D01*
X1052246Y808153D02*
X1057903Y802496D01*
X1063560Y819467D02*
X1069217Y813810D01*
X1027903Y802496D02*
X1039217Y813810D01*
X1022246Y808153D02*
X1033560Y819467D01*
X1022246Y808153D02*
X1027903Y802496D01*
X1033560Y819467D02*
X1039217Y813810D01*
X997903Y802496D02*
X1009217Y813810D01*
X992246Y808153D02*
X1003560Y819467D01*
X992246Y808153D02*
X997903Y802496D01*
X1003560Y819467D02*
X1009217Y813810D01*
X967903Y802496D02*
X979217Y813810D01*
X962246Y808153D02*
X973560Y819467D01*
X962246Y808153D02*
X967903Y802496D01*
X973560Y819467D02*
X979217Y813810D01*
X937903Y802496D02*
X949217Y813810D01*
X932246Y808153D02*
X943560Y819467D01*
X932246Y808153D02*
X937903Y802496D01*
X943560Y819467D02*
X949217Y813810D01*
X907903Y802496D02*
X919217Y813810D01*
X902246Y808153D02*
X913560Y819467D01*
X902246Y808153D02*
X907903Y802496D01*
X913560Y819467D02*
X919217Y813810D01*
X877903Y802496D02*
X889217Y813810D01*
X872246Y808153D02*
X883560Y819467D01*
X872246Y808153D02*
X877903Y802496D01*
X883560Y819467D02*
X889217Y813810D01*
X847903Y802496D02*
X859217Y813810D01*
X842246Y808153D02*
X853560Y819467D01*
X842246Y808153D02*
X847903Y802496D01*
X853560Y819467D02*
X859217Y813810D01*
X817903Y802496D02*
X829217Y813810D01*
X812246Y808153D02*
X823560Y819467D01*
X812246Y808153D02*
X817903Y802496D01*
X823560Y819467D02*
X829217Y813810D01*
X787903Y802496D02*
X799217Y813810D01*
X782246Y808153D02*
X793560Y819467D01*
X782246Y808153D02*
X787903Y802496D01*
X793560Y819467D02*
X799217Y813810D01*
X757903Y802496D02*
X769217Y813810D01*
X752246Y808153D02*
X763560Y819467D01*
X752246Y808153D02*
X757903Y802496D01*
X763560Y819467D02*
X769217Y813810D01*
X727903Y802496D02*
X739217Y813810D01*
X722246Y808153D02*
X733560Y819467D01*
X722246Y808153D02*
X727903Y802496D01*
X733560Y819467D02*
X739217Y813810D01*
X697903Y802496D02*
X709217Y813810D01*
X692246Y808153D02*
X703560Y819467D01*
X692246Y808153D02*
X697903Y802496D01*
X703560Y819467D02*
X709217Y813810D01*
X667903Y802496D02*
X679217Y813810D01*
X662246Y808153D02*
X673560Y819467D01*
X662246Y808153D02*
X667903Y802496D01*
X673560Y819467D02*
X679217Y813810D01*
X637903Y802496D02*
X649217Y813810D01*
X632246Y808153D02*
X643560Y819467D01*
X632246Y808153D02*
X637903Y802496D01*
X643560Y819467D02*
X649217Y813810D01*
X607903Y802496D02*
X619217Y813810D01*
X602246Y808153D02*
X613560Y819467D01*
X602246Y808153D02*
X607903Y802496D01*
X613560Y819467D02*
X619217Y813810D01*
X577903Y802496D02*
X589217Y813810D01*
X572246Y808153D02*
X583560Y819467D01*
X572246Y808153D02*
X577903Y802496D01*
X583560Y819467D02*
X589217Y813810D01*
X547903Y802496D02*
X559217Y813810D01*
X542246Y808153D02*
X553560Y819467D01*
X542246Y808153D02*
X547903Y802496D01*
X553560Y819467D02*
X559217Y813810D01*
X517903Y802496D02*
X529217Y813810D01*
X512246Y808153D02*
X523560Y819467D01*
X512246Y808153D02*
X517903Y802496D01*
X523560Y819467D02*
X529217Y813810D01*
X487903Y802496D02*
X499217Y813810D01*
X482246Y808153D02*
X493560Y819467D01*
X482246Y808153D02*
X487903Y802496D01*
X493560Y819467D02*
X499217Y813810D01*
X457903Y802496D02*
X469217Y813810D01*
X452246Y808153D02*
X463560Y819467D01*
X452246Y808153D02*
X457903Y802496D01*
X463560Y819467D02*
X469217Y813810D01*
X427903Y802496D02*
X439217Y813810D01*
X422246Y808153D02*
X433560Y819467D01*
X422246Y808153D02*
X427903Y802496D01*
X433560Y819467D02*
X439217Y813810D01*
X1567903Y832496D02*
X1579216Y843810D01*
X1562246Y838153D02*
X1573560Y849467D01*
X1562246Y838153D02*
X1567903Y832496D01*
X1573560Y849467D02*
X1579216Y843810D01*
X1537903Y832496D02*
X1549217Y843810D01*
X1532246Y838153D02*
X1543560Y849467D01*
X1532246Y838153D02*
X1537903Y832496D01*
X1543560Y849467D02*
X1549217Y843810D01*
X1507903Y832496D02*
X1519216Y843810D01*
X1502246Y838153D02*
X1513560Y849467D01*
X1502246Y838153D02*
X1507903Y832496D01*
X1513560Y849467D02*
X1519216Y843810D01*
X1477903Y832496D02*
X1489217Y843810D01*
X1472246Y838153D02*
X1483560Y849467D01*
X1472246Y838153D02*
X1477903Y832496D01*
X1483560Y849467D02*
X1489217Y843810D01*
X1447903Y832496D02*
X1459217Y843810D01*
X1442246Y838153D02*
X1453560Y849467D01*
X1442246Y838153D02*
X1447903Y832496D01*
X1453560Y849467D02*
X1459217Y843810D01*
X1417903Y832496D02*
X1429216Y843810D01*
X1412246Y838153D02*
X1423560Y849467D01*
X1412246Y838153D02*
X1417903Y832496D01*
X1423560Y849467D02*
X1429216Y843810D01*
X1387903Y832496D02*
X1399217Y843810D01*
X1382246Y838153D02*
X1393560Y849467D01*
X1382246Y838153D02*
X1387903Y832496D01*
X1393560Y849467D02*
X1399217Y843810D01*
X1357903Y832496D02*
X1369216Y843810D01*
X1352246Y838153D02*
X1363560Y849467D01*
X1352246Y838153D02*
X1357903Y832496D01*
X1363560Y849467D02*
X1369216Y843810D01*
X1327903Y832496D02*
X1339217Y843810D01*
X1322246Y838153D02*
X1333560Y849467D01*
X1322246Y838153D02*
X1327903Y832496D01*
X1333560Y849467D02*
X1339217Y843810D01*
X1297903Y832496D02*
X1309217Y843810D01*
X1292246Y838153D02*
X1303560Y849467D01*
X1292246Y838153D02*
X1297903Y832496D01*
X1303560Y849467D02*
X1309217Y843810D01*
X1267903Y832496D02*
X1279217Y843810D01*
X1262246Y838153D02*
X1273560Y849467D01*
X1262246Y838153D02*
X1267903Y832496D01*
X1273560Y849467D02*
X1279217Y843810D01*
X1237903Y832496D02*
X1249217Y843810D01*
X1232246Y838153D02*
X1243560Y849467D01*
X1232246Y838153D02*
X1237903Y832496D01*
X1243560Y849467D02*
X1249217Y843810D01*
X1207903Y832496D02*
X1219217Y843810D01*
X1202246Y838153D02*
X1213560Y849467D01*
X1202246Y838153D02*
X1207903Y832496D01*
X1213560Y849467D02*
X1219217Y843810D01*
X1177903Y832496D02*
X1189217Y843810D01*
X1172246Y838153D02*
X1183560Y849467D01*
X1172246Y838153D02*
X1177903Y832496D01*
X1183560Y849467D02*
X1189217Y843810D01*
X1147903Y832496D02*
X1159217Y843810D01*
X1142246Y838153D02*
X1153560Y849467D01*
X1142246Y838153D02*
X1147903Y832496D01*
X1153560Y849467D02*
X1159217Y843810D01*
X1117903Y832496D02*
X1129217Y843810D01*
X1112246Y838153D02*
X1123560Y849467D01*
X1112246Y838153D02*
X1117903Y832496D01*
X1123560Y849467D02*
X1129217Y843810D01*
X1087903Y832496D02*
X1099217Y843810D01*
X1082246Y838153D02*
X1093560Y849467D01*
X1082246Y838153D02*
X1087903Y832496D01*
X1093560Y849467D02*
X1099217Y843810D01*
X1057903Y832496D02*
X1069217Y843810D01*
X1052246Y838153D02*
X1063560Y849467D01*
X1052246Y838153D02*
X1057903Y832496D01*
X1063560Y849467D02*
X1069217Y843810D01*
X1027903Y832496D02*
X1039217Y843810D01*
X1022246Y838153D02*
X1033560Y849467D01*
X1022246Y838153D02*
X1027903Y832496D01*
X1033560Y849467D02*
X1039217Y843810D01*
X997903Y832496D02*
X1009217Y843810D01*
X992246Y838153D02*
X1003560Y849467D01*
X992246Y838153D02*
X997903Y832496D01*
X1003560Y849467D02*
X1009217Y843810D01*
X967903Y832496D02*
X979217Y843810D01*
X962246Y838153D02*
X973560Y849467D01*
X962246Y838153D02*
X967903Y832496D01*
X973560Y849467D02*
X979217Y843810D01*
X937903Y832496D02*
X949217Y843810D01*
X932246Y838153D02*
X943560Y849467D01*
X932246Y838153D02*
X937903Y832496D01*
X943560Y849467D02*
X949217Y843810D01*
X907903Y832496D02*
X919217Y843810D01*
X902246Y838153D02*
X913560Y849467D01*
X902246Y838153D02*
X907903Y832496D01*
X913560Y849467D02*
X919217Y843810D01*
X877903Y832496D02*
X889217Y843810D01*
X872246Y838153D02*
X883560Y849467D01*
X872246Y838153D02*
X877903Y832496D01*
X883560Y849467D02*
X889217Y843810D01*
X847903Y832496D02*
X859217Y843810D01*
X842246Y838153D02*
X853560Y849467D01*
X842246Y838153D02*
X847903Y832496D01*
X853560Y849467D02*
X859217Y843810D01*
X817903Y832496D02*
X829217Y843810D01*
X812246Y838153D02*
X823560Y849467D01*
X812246Y838153D02*
X817903Y832496D01*
X823560Y849467D02*
X829217Y843810D01*
X787903Y832496D02*
X799217Y843810D01*
X782246Y838153D02*
X793560Y849467D01*
X782246Y838153D02*
X787903Y832496D01*
X793560Y849467D02*
X799217Y843810D01*
X757903Y832496D02*
X769217Y843810D01*
X752246Y838153D02*
X763560Y849467D01*
X752246Y838153D02*
X757903Y832496D01*
X763560Y849467D02*
X769217Y843810D01*
X727903Y832496D02*
X739217Y843810D01*
X722246Y838153D02*
X733560Y849467D01*
X722246Y838153D02*
X727903Y832496D01*
X733560Y849467D02*
X739217Y843810D01*
X697903Y832496D02*
X709217Y843810D01*
X692246Y838153D02*
X703560Y849467D01*
X692246Y838153D02*
X697903Y832496D01*
X703560Y849467D02*
X709217Y843810D01*
X667903Y832496D02*
X679217Y843810D01*
X662246Y838153D02*
X673560Y849467D01*
X662246Y838153D02*
X667903Y832496D01*
X673560Y849467D02*
X679217Y843810D01*
X637903Y832496D02*
X649217Y843810D01*
X632246Y838153D02*
X643560Y849467D01*
X632246Y838153D02*
X637903Y832496D01*
X643560Y849467D02*
X649217Y843810D01*
X607903Y832496D02*
X619217Y843810D01*
X602246Y838153D02*
X613560Y849467D01*
X602246Y838153D02*
X607903Y832496D01*
X613560Y849467D02*
X619217Y843810D01*
X577903Y832496D02*
X589217Y843810D01*
X572246Y838153D02*
X583560Y849467D01*
X572246Y838153D02*
X577903Y832496D01*
X583560Y849467D02*
X589217Y843810D01*
X547903Y832496D02*
X559217Y843810D01*
X542246Y838153D02*
X553560Y849467D01*
X542246Y838153D02*
X547903Y832496D01*
X553560Y849467D02*
X559217Y843810D01*
X517903Y832496D02*
X529217Y843810D01*
X512246Y838153D02*
X523560Y849467D01*
X512246Y838153D02*
X517903Y832496D01*
X523560Y849467D02*
X529217Y843810D01*
X487903Y832496D02*
X499217Y843810D01*
X482246Y838153D02*
X493560Y849467D01*
X482246Y838153D02*
X487903Y832496D01*
X493560Y849467D02*
X499217Y843810D01*
X457903Y832496D02*
X469217Y843810D01*
X452246Y838153D02*
X463560Y849467D01*
X452246Y838153D02*
X457903Y832496D01*
X463560Y849467D02*
X469217Y843810D01*
X427903Y832496D02*
X439217Y843810D01*
X422246Y838153D02*
X433560Y849467D01*
X422246Y838153D02*
X427903Y832496D01*
X433560Y849467D02*
X439217Y843810D01*
X1567903Y862496D02*
X1579216Y873810D01*
X1562246Y868153D02*
X1573560Y879467D01*
X1562246Y868153D02*
X1567903Y862496D01*
X1573560Y879467D02*
X1579216Y873810D01*
X1537903Y862496D02*
X1549217Y873810D01*
X1532246Y868153D02*
X1543560Y879467D01*
X1532246Y868153D02*
X1537903Y862496D01*
X1543560Y879467D02*
X1549217Y873810D01*
X1507903Y862496D02*
X1519216Y873810D01*
X1502246Y868153D02*
X1513560Y879467D01*
X1502246Y868153D02*
X1507903Y862496D01*
X1513560Y879467D02*
X1519216Y873810D01*
X1477903Y862496D02*
X1489217Y873810D01*
X1472246Y868153D02*
X1483560Y879467D01*
X1472246Y868153D02*
X1477903Y862496D01*
X1483560Y879467D02*
X1489217Y873810D01*
X1447903Y862496D02*
X1459217Y873810D01*
X1442246Y868153D02*
X1453560Y879467D01*
X1442246Y868153D02*
X1447903Y862496D01*
X1453560Y879467D02*
X1459217Y873810D01*
X1417903Y862496D02*
X1429216Y873810D01*
X1412246Y868153D02*
X1423560Y879467D01*
X1412246Y868153D02*
X1417903Y862496D01*
X1423560Y879467D02*
X1429216Y873810D01*
X1387903Y862496D02*
X1399217Y873810D01*
X1382246Y868153D02*
X1393560Y879467D01*
X1382246Y868153D02*
X1387903Y862496D01*
X1393560Y879467D02*
X1399217Y873810D01*
X1357903Y862496D02*
X1369216Y873810D01*
X1352246Y868153D02*
X1363560Y879467D01*
X1352246Y868153D02*
X1357903Y862496D01*
X1363560Y879467D02*
X1369216Y873810D01*
X1327903Y862496D02*
X1339217Y873810D01*
X1322246Y868153D02*
X1333560Y879467D01*
X1322246Y868153D02*
X1327903Y862496D01*
X1333560Y879467D02*
X1339217Y873810D01*
X1297903Y862496D02*
X1309217Y873810D01*
X1292246Y868153D02*
X1303560Y879467D01*
X1292246Y868153D02*
X1297903Y862496D01*
X1303560Y879467D02*
X1309217Y873810D01*
X1267903Y862496D02*
X1279217Y873810D01*
X1262246Y868153D02*
X1273560Y879467D01*
X1262246Y868153D02*
X1267903Y862496D01*
X1273560Y879467D02*
X1279217Y873810D01*
X1237903Y862496D02*
X1249217Y873810D01*
X1232246Y868153D02*
X1243560Y879467D01*
X1232246Y868153D02*
X1237903Y862496D01*
X1243560Y879467D02*
X1249217Y873810D01*
X1207903Y862496D02*
X1219217Y873810D01*
X1202246Y868153D02*
X1213560Y879467D01*
X1202246Y868153D02*
X1207903Y862496D01*
X1213560Y879467D02*
X1219217Y873810D01*
X1177903Y862496D02*
X1189217Y873810D01*
X1172246Y868153D02*
X1183560Y879467D01*
X1172246Y868153D02*
X1177903Y862496D01*
X1183560Y879467D02*
X1189217Y873810D01*
X1147903Y862496D02*
X1159217Y873810D01*
X1142246Y868153D02*
X1153560Y879467D01*
X1142246Y868153D02*
X1147903Y862496D01*
X1153560Y879467D02*
X1159217Y873810D01*
X1117903Y862496D02*
X1129217Y873810D01*
X1112246Y868153D02*
X1123560Y879467D01*
X1112246Y868153D02*
X1117903Y862496D01*
X1123560Y879467D02*
X1129217Y873810D01*
X1087903Y862496D02*
X1099217Y873810D01*
X1082246Y868153D02*
X1093560Y879467D01*
X1082246Y868153D02*
X1087903Y862496D01*
X1093560Y879467D02*
X1099217Y873810D01*
X1057903Y862496D02*
X1069217Y873810D01*
X1052246Y868153D02*
X1063560Y879467D01*
X1052246Y868153D02*
X1057903Y862496D01*
X1063560Y879467D02*
X1069217Y873810D01*
X1027903Y862496D02*
X1039217Y873810D01*
X1022246Y868153D02*
X1033560Y879467D01*
X1022246Y868153D02*
X1027903Y862496D01*
X1033560Y879467D02*
X1039217Y873810D01*
X997903Y862496D02*
X1009217Y873810D01*
X992246Y868153D02*
X1003560Y879467D01*
X992246Y868153D02*
X997903Y862496D01*
X1003560Y879467D02*
X1009217Y873810D01*
X967903Y862496D02*
X979217Y873810D01*
X962246Y868153D02*
X973560Y879467D01*
X962246Y868153D02*
X967903Y862496D01*
X973560Y879467D02*
X979217Y873810D01*
X937903Y862496D02*
X949217Y873810D01*
X932246Y868153D02*
X943560Y879467D01*
X932246Y868153D02*
X937903Y862496D01*
X943560Y879467D02*
X949217Y873810D01*
X907903Y862496D02*
X919217Y873810D01*
X902246Y868153D02*
X913560Y879467D01*
X902246Y868153D02*
X907903Y862496D01*
X913560Y879467D02*
X919217Y873810D01*
X877903Y862496D02*
X889217Y873810D01*
X872246Y868153D02*
X883560Y879467D01*
X872246Y868153D02*
X877903Y862496D01*
X883560Y879467D02*
X889217Y873810D01*
X847903Y862496D02*
X859217Y873810D01*
X842246Y868153D02*
X853560Y879467D01*
X842246Y868153D02*
X847903Y862496D01*
X853560Y879467D02*
X859217Y873810D01*
X817903Y862496D02*
X829217Y873810D01*
X812246Y868153D02*
X823560Y879467D01*
X812246Y868153D02*
X817903Y862496D01*
X823560Y879467D02*
X829217Y873810D01*
X787903Y862496D02*
X799217Y873810D01*
X782246Y868153D02*
X793560Y879467D01*
X782246Y868153D02*
X787903Y862496D01*
X793560Y879467D02*
X799217Y873810D01*
X757903Y862496D02*
X769217Y873810D01*
X752246Y868153D02*
X763560Y879467D01*
X752246Y868153D02*
X757903Y862496D01*
X763560Y879467D02*
X769217Y873810D01*
X727903Y862496D02*
X739217Y873810D01*
X722246Y868153D02*
X733560Y879467D01*
X722246Y868153D02*
X727903Y862496D01*
X733560Y879467D02*
X739217Y873810D01*
X697903Y862496D02*
X709217Y873810D01*
X692246Y868153D02*
X703560Y879467D01*
X692246Y868153D02*
X697903Y862496D01*
X703560Y879467D02*
X709217Y873810D01*
X667903Y862496D02*
X679217Y873810D01*
X662246Y868153D02*
X673560Y879467D01*
X662246Y868153D02*
X667903Y862496D01*
X673560Y879467D02*
X679217Y873810D01*
X637903Y862496D02*
X649217Y873810D01*
X632246Y868153D02*
X643560Y879467D01*
X632246Y868153D02*
X637903Y862496D01*
X643560Y879467D02*
X649217Y873810D01*
X607903Y862496D02*
X619217Y873810D01*
X602246Y868153D02*
X613560Y879467D01*
X602246Y868153D02*
X607903Y862496D01*
X613560Y879467D02*
X619217Y873810D01*
X577903Y862496D02*
X589217Y873810D01*
X572246Y868153D02*
X583560Y879467D01*
X572246Y868153D02*
X577903Y862496D01*
X583560Y879467D02*
X589217Y873810D01*
X547903Y862496D02*
X559217Y873810D01*
X542246Y868153D02*
X553560Y879467D01*
X542246Y868153D02*
X547903Y862496D01*
X553560Y879467D02*
X559217Y873810D01*
X517903Y862496D02*
X529217Y873810D01*
X512246Y868153D02*
X523560Y879467D01*
X512246Y868153D02*
X517903Y862496D01*
X523560Y879467D02*
X529217Y873810D01*
X487903Y862496D02*
X499217Y873810D01*
X482246Y868153D02*
X493560Y879467D01*
X482246Y868153D02*
X487903Y862496D01*
X493560Y879467D02*
X499217Y873810D01*
X457903Y862496D02*
X469217Y873810D01*
X452246Y868153D02*
X463560Y879467D01*
X452246Y868153D02*
X457903Y862496D01*
X463560Y879467D02*
X469217Y873810D01*
X427903Y862496D02*
X439217Y873810D01*
X422246Y868153D02*
X433560Y879467D01*
X422246Y868153D02*
X427903Y862496D01*
X433560Y879467D02*
X439217Y873810D01*
X1567903Y892496D02*
X1579216Y903810D01*
X1562246Y898153D02*
X1573560Y909467D01*
X1562246Y898153D02*
X1567903Y892496D01*
X1573560Y909467D02*
X1579216Y903810D01*
X1537903Y892496D02*
X1549217Y903810D01*
X1532246Y898153D02*
X1543560Y909467D01*
X1532246Y898153D02*
X1537903Y892496D01*
X1543560Y909467D02*
X1549217Y903810D01*
X1507903Y892496D02*
X1519216Y903810D01*
X1502246Y898153D02*
X1513560Y909467D01*
X1502246Y898153D02*
X1507903Y892496D01*
X1513560Y909467D02*
X1519216Y903810D01*
X1477903Y892496D02*
X1489217Y903810D01*
X1472246Y898153D02*
X1483560Y909467D01*
X1472246Y898153D02*
X1477903Y892496D01*
X1483560Y909467D02*
X1489217Y903810D01*
X1447903Y892496D02*
X1459217Y903810D01*
X1442246Y898153D02*
X1453560Y909467D01*
X1442246Y898153D02*
X1447903Y892496D01*
X1453560Y909467D02*
X1459217Y903810D01*
X1417903Y892496D02*
X1429216Y903810D01*
X1412246Y898153D02*
X1423560Y909467D01*
X1412246Y898153D02*
X1417903Y892496D01*
X1423560Y909467D02*
X1429216Y903810D01*
X1387903Y892496D02*
X1399217Y903810D01*
X1382246Y898153D02*
X1393560Y909467D01*
X1382246Y898153D02*
X1387903Y892496D01*
X1393560Y909467D02*
X1399217Y903810D01*
X1357903Y892496D02*
X1369216Y903810D01*
X1352246Y898153D02*
X1363560Y909467D01*
X1352246Y898153D02*
X1357903Y892496D01*
X1363560Y909467D02*
X1369216Y903810D01*
X1327903Y892496D02*
X1339217Y903810D01*
X1322246Y898153D02*
X1333560Y909467D01*
X1322246Y898153D02*
X1327903Y892496D01*
X1333560Y909467D02*
X1339217Y903810D01*
X1297903Y892496D02*
X1309217Y903810D01*
X1292246Y898153D02*
X1303560Y909467D01*
X1292246Y898153D02*
X1297903Y892496D01*
X1303560Y909467D02*
X1309217Y903810D01*
X1267903Y892496D02*
X1279217Y903810D01*
X1262246Y898153D02*
X1273560Y909467D01*
X1262246Y898153D02*
X1267903Y892496D01*
X1273560Y909467D02*
X1279217Y903810D01*
X1237903Y892496D02*
X1249217Y903810D01*
X1232246Y898153D02*
X1243560Y909467D01*
X1232246Y898153D02*
X1237903Y892496D01*
X1243560Y909467D02*
X1249217Y903810D01*
X1207903Y892496D02*
X1219217Y903810D01*
X1202246Y898153D02*
X1213560Y909467D01*
X1202246Y898153D02*
X1207903Y892496D01*
X1213560Y909467D02*
X1219217Y903810D01*
X1177903Y892496D02*
X1189217Y903810D01*
X1172246Y898153D02*
X1183560Y909467D01*
X1172246Y898153D02*
X1177903Y892496D01*
X1183560Y909467D02*
X1189217Y903810D01*
X1147903Y892496D02*
X1159217Y903810D01*
X1142246Y898153D02*
X1153560Y909467D01*
X1142246Y898153D02*
X1147903Y892496D01*
X1153560Y909467D02*
X1159217Y903810D01*
X1117903Y892496D02*
X1129217Y903810D01*
X1112246Y898153D02*
X1123560Y909467D01*
X1112246Y898153D02*
X1117903Y892496D01*
X1123560Y909467D02*
X1129217Y903810D01*
X1087903Y892496D02*
X1099217Y903810D01*
X1082246Y898153D02*
X1093560Y909467D01*
X1082246Y898153D02*
X1087903Y892496D01*
X1093560Y909467D02*
X1099217Y903810D01*
X1057903Y892496D02*
X1069217Y903810D01*
X1052246Y898153D02*
X1063560Y909467D01*
X1052246Y898153D02*
X1057903Y892496D01*
X1063560Y909467D02*
X1069217Y903810D01*
X1027903Y892496D02*
X1039217Y903810D01*
X1022246Y898153D02*
X1033560Y909467D01*
X1022246Y898153D02*
X1027903Y892496D01*
X1033560Y909467D02*
X1039217Y903810D01*
X997903Y892496D02*
X1009217Y903810D01*
X992246Y898153D02*
X1003560Y909467D01*
X992246Y898153D02*
X997903Y892496D01*
X1003560Y909467D02*
X1009217Y903810D01*
X967903Y892496D02*
X979217Y903810D01*
X962246Y898153D02*
X973560Y909467D01*
X962246Y898153D02*
X967903Y892496D01*
X973560Y909467D02*
X979217Y903810D01*
X937903Y892496D02*
X949217Y903810D01*
X932246Y898153D02*
X943560Y909467D01*
X932246Y898153D02*
X937903Y892496D01*
X943560Y909467D02*
X949217Y903810D01*
X907903Y892496D02*
X919217Y903810D01*
X902246Y898153D02*
X913560Y909467D01*
X902246Y898153D02*
X907903Y892496D01*
X913560Y909467D02*
X919217Y903810D01*
X877903Y892496D02*
X889217Y903810D01*
X872246Y898153D02*
X883560Y909467D01*
X872246Y898153D02*
X877903Y892496D01*
X883560Y909467D02*
X889217Y903810D01*
X847903Y892496D02*
X859217Y903810D01*
X842246Y898153D02*
X853560Y909467D01*
X842246Y898153D02*
X847903Y892496D01*
X853560Y909467D02*
X859217Y903810D01*
X817903Y892496D02*
X829217Y903810D01*
X812246Y898153D02*
X823560Y909467D01*
X812246Y898153D02*
X817903Y892496D01*
X823560Y909467D02*
X829217Y903810D01*
X787903Y892496D02*
X799217Y903810D01*
X782246Y898153D02*
X793560Y909467D01*
X782246Y898153D02*
X787903Y892496D01*
X793560Y909467D02*
X799217Y903810D01*
X757903Y892496D02*
X769217Y903810D01*
X752246Y898153D02*
X763560Y909467D01*
X752246Y898153D02*
X757903Y892496D01*
X763560Y909467D02*
X769217Y903810D01*
X727903Y892496D02*
X739217Y903810D01*
X722246Y898153D02*
X733560Y909467D01*
X722246Y898153D02*
X727903Y892496D01*
X733560Y909467D02*
X739217Y903810D01*
X697903Y892496D02*
X709217Y903810D01*
X692246Y898153D02*
X703560Y909467D01*
X692246Y898153D02*
X697903Y892496D01*
X703560Y909467D02*
X709217Y903810D01*
X667903Y892496D02*
X679217Y903810D01*
X662246Y898153D02*
X673560Y909467D01*
X662246Y898153D02*
X667903Y892496D01*
X673560Y909467D02*
X679217Y903810D01*
X637903Y892496D02*
X649217Y903810D01*
X632246Y898153D02*
X643560Y909467D01*
X632246Y898153D02*
X637903Y892496D01*
X643560Y909467D02*
X649217Y903810D01*
X607903Y892496D02*
X619217Y903810D01*
X602246Y898153D02*
X613560Y909467D01*
X602246Y898153D02*
X607903Y892496D01*
X613560Y909467D02*
X619217Y903810D01*
X577903Y892496D02*
X589217Y903810D01*
X572246Y898153D02*
X583560Y909467D01*
X572246Y898153D02*
X577903Y892496D01*
X583560Y909467D02*
X589217Y903810D01*
X547903Y892496D02*
X559217Y903810D01*
X542246Y898153D02*
X553560Y909467D01*
X542246Y898153D02*
X547903Y892496D01*
X553560Y909467D02*
X559217Y903810D01*
X517903Y892496D02*
X529217Y903810D01*
X512246Y898153D02*
X523560Y909467D01*
X512246Y898153D02*
X517903Y892496D01*
X523560Y909467D02*
X529217Y903810D01*
X487903Y892496D02*
X499217Y903810D01*
X482246Y898153D02*
X493560Y909467D01*
X482246Y898153D02*
X487903Y892496D01*
X493560Y909467D02*
X499217Y903810D01*
X457903Y892496D02*
X469217Y903810D01*
X452246Y898153D02*
X463560Y909467D01*
X452246Y898153D02*
X457903Y892496D01*
X463560Y909467D02*
X469217Y903810D01*
X427903Y892496D02*
X439217Y903810D01*
X422246Y898153D02*
X433560Y909467D01*
X422246Y898153D02*
X427903Y892496D01*
X433560Y909467D02*
X439217Y903810D01*
X1567903Y922496D02*
X1579216Y933810D01*
X1562246Y928153D02*
X1573560Y939467D01*
X1562246Y928153D02*
X1567903Y922496D01*
X1573560Y939467D02*
X1579216Y933810D01*
X1537903Y922496D02*
X1549217Y933810D01*
X1532246Y928153D02*
X1543560Y939467D01*
X1532246Y928153D02*
X1537903Y922496D01*
X1543560Y939467D02*
X1549217Y933810D01*
X1507903Y922496D02*
X1519216Y933810D01*
X1502246Y928153D02*
X1513560Y939467D01*
X1502246Y928153D02*
X1507903Y922496D01*
X1513560Y939467D02*
X1519216Y933810D01*
X1477903Y922496D02*
X1489217Y933810D01*
X1472246Y928153D02*
X1483560Y939467D01*
X1472246Y928153D02*
X1477903Y922496D01*
X1483560Y939467D02*
X1489217Y933810D01*
X1447903Y922496D02*
X1459217Y933810D01*
X1442246Y928153D02*
X1453560Y939467D01*
X1442246Y928153D02*
X1447903Y922496D01*
X1453560Y939467D02*
X1459217Y933810D01*
X1417903Y922496D02*
X1429216Y933810D01*
X1412246Y928153D02*
X1423560Y939467D01*
X1412246Y928153D02*
X1417903Y922496D01*
X1423560Y939467D02*
X1429216Y933810D01*
X1387903Y922496D02*
X1399217Y933810D01*
X1382246Y928153D02*
X1393560Y939467D01*
X1382246Y928153D02*
X1387903Y922496D01*
X1393560Y939467D02*
X1399217Y933810D01*
X1357903Y922496D02*
X1369216Y933810D01*
X1352246Y928153D02*
X1363560Y939467D01*
X1352246Y928153D02*
X1357903Y922496D01*
X1363560Y939467D02*
X1369216Y933810D01*
X1327903Y922496D02*
X1339217Y933810D01*
X1322246Y928153D02*
X1333560Y939467D01*
X1322246Y928153D02*
X1327903Y922496D01*
X1333560Y939467D02*
X1339217Y933810D01*
X1297903Y922496D02*
X1309217Y933810D01*
X1292246Y928153D02*
X1303560Y939467D01*
X1292246Y928153D02*
X1297903Y922496D01*
X1303560Y939467D02*
X1309217Y933810D01*
X1267903Y922496D02*
X1279217Y933810D01*
X1262246Y928153D02*
X1273560Y939467D01*
X1262246Y928153D02*
X1267903Y922496D01*
X1273560Y939467D02*
X1279217Y933810D01*
X1237903Y922496D02*
X1249217Y933810D01*
X1232246Y928153D02*
X1243560Y939467D01*
X1232246Y928153D02*
X1237903Y922496D01*
X1243560Y939467D02*
X1249217Y933810D01*
X1207903Y922496D02*
X1219217Y933810D01*
X1202246Y928153D02*
X1213560Y939467D01*
X1202246Y928153D02*
X1207903Y922496D01*
X1213560Y939467D02*
X1219217Y933810D01*
X1177903Y922496D02*
X1189217Y933810D01*
X1172246Y928153D02*
X1183560Y939467D01*
X1172246Y928153D02*
X1177903Y922496D01*
X1183560Y939467D02*
X1189217Y933810D01*
X1147903Y922496D02*
X1159217Y933810D01*
X1142246Y928153D02*
X1153560Y939467D01*
X1142246Y928153D02*
X1147903Y922496D01*
X1153560Y939467D02*
X1159217Y933810D01*
X1117903Y922496D02*
X1129217Y933810D01*
X1112246Y928153D02*
X1123560Y939467D01*
X1112246Y928153D02*
X1117903Y922496D01*
X1123560Y939467D02*
X1129217Y933810D01*
X1087903Y922496D02*
X1099217Y933810D01*
X1082246Y928153D02*
X1093560Y939467D01*
X1082246Y928153D02*
X1087903Y922496D01*
X1093560Y939467D02*
X1099217Y933810D01*
X1057903Y922496D02*
X1069217Y933810D01*
X1052246Y928153D02*
X1063560Y939467D01*
X1052246Y928153D02*
X1057903Y922496D01*
X1063560Y939467D02*
X1069217Y933810D01*
X1027903Y922496D02*
X1039217Y933810D01*
X1022246Y928153D02*
X1033560Y939467D01*
X1022246Y928153D02*
X1027903Y922496D01*
X1033560Y939467D02*
X1039217Y933810D01*
X997903Y922496D02*
X1009217Y933810D01*
X992246Y928153D02*
X1003560Y939467D01*
X992246Y928153D02*
X997903Y922496D01*
X1003560Y939467D02*
X1009217Y933810D01*
X967903Y922496D02*
X979217Y933810D01*
X962246Y928153D02*
X973560Y939467D01*
X962246Y928153D02*
X967903Y922496D01*
X973560Y939467D02*
X979217Y933810D01*
X937903Y922496D02*
X949217Y933810D01*
X932246Y928153D02*
X943560Y939467D01*
X932246Y928153D02*
X937903Y922496D01*
X943560Y939467D02*
X949217Y933810D01*
X907903Y922496D02*
X919217Y933810D01*
X902246Y928153D02*
X913560Y939467D01*
X902246Y928153D02*
X907903Y922496D01*
X913560Y939467D02*
X919217Y933810D01*
X877903Y922496D02*
X889217Y933810D01*
X872246Y928153D02*
X883560Y939467D01*
X872246Y928153D02*
X877903Y922496D01*
X883560Y939467D02*
X889217Y933810D01*
X847903Y922496D02*
X859217Y933810D01*
X842246Y928153D02*
X853560Y939467D01*
X842246Y928153D02*
X847903Y922496D01*
X853560Y939467D02*
X859217Y933810D01*
X817903Y922496D02*
X829217Y933810D01*
X812246Y928153D02*
X823560Y939467D01*
X812246Y928153D02*
X817903Y922496D01*
X823560Y939467D02*
X829217Y933810D01*
X787903Y922496D02*
X799217Y933810D01*
X782246Y928153D02*
X793560Y939467D01*
X782246Y928153D02*
X787903Y922496D01*
X793560Y939467D02*
X799217Y933810D01*
X757903Y922496D02*
X769217Y933810D01*
X752246Y928153D02*
X763560Y939467D01*
X752246Y928153D02*
X757903Y922496D01*
X763560Y939467D02*
X769217Y933810D01*
X727903Y922496D02*
X739217Y933810D01*
X722246Y928153D02*
X733560Y939467D01*
X722246Y928153D02*
X727903Y922496D01*
X733560Y939467D02*
X739217Y933810D01*
X697903Y922496D02*
X709217Y933810D01*
X692246Y928153D02*
X703560Y939467D01*
X692246Y928153D02*
X697903Y922496D01*
X703560Y939467D02*
X709217Y933810D01*
X667903Y922496D02*
X679217Y933810D01*
X662246Y928153D02*
X673560Y939467D01*
X662246Y928153D02*
X667903Y922496D01*
X673560Y939467D02*
X679217Y933810D01*
X637903Y922496D02*
X649217Y933810D01*
X632246Y928153D02*
X643560Y939467D01*
X632246Y928153D02*
X637903Y922496D01*
X643560Y939467D02*
X649217Y933810D01*
X607903Y922496D02*
X619217Y933810D01*
X602246Y928153D02*
X613560Y939467D01*
X602246Y928153D02*
X607903Y922496D01*
X613560Y939467D02*
X619217Y933810D01*
X577903Y922496D02*
X589217Y933810D01*
X572246Y928153D02*
X583560Y939467D01*
X572246Y928153D02*
X577903Y922496D01*
X583560Y939467D02*
X589217Y933810D01*
X547903Y922496D02*
X559217Y933810D01*
X542246Y928153D02*
X553560Y939467D01*
X542246Y928153D02*
X547903Y922496D01*
X553560Y939467D02*
X559217Y933810D01*
X517903Y922496D02*
X529217Y933810D01*
X512246Y928153D02*
X523560Y939467D01*
X512246Y928153D02*
X517903Y922496D01*
X523560Y939467D02*
X529217Y933810D01*
X487903Y922496D02*
X499217Y933810D01*
X482246Y928153D02*
X493560Y939467D01*
X482246Y928153D02*
X487903Y922496D01*
X493560Y939467D02*
X499217Y933810D01*
X457903Y922496D02*
X469217Y933810D01*
X452246Y928153D02*
X463560Y939467D01*
X452246Y928153D02*
X457903Y922496D01*
X463560Y939467D02*
X469217Y933810D01*
X427903Y922496D02*
X439217Y933810D01*
X422246Y928153D02*
X433560Y939467D01*
X422246Y928153D02*
X427903Y922496D01*
X433560Y939467D02*
X439217Y933810D01*
X1567903Y952496D02*
X1579216Y963810D01*
X1562246Y958153D02*
X1573560Y969467D01*
X1562246Y958153D02*
X1567903Y952496D01*
X1573560Y969467D02*
X1579216Y963810D01*
X1537903Y952496D02*
X1549217Y963810D01*
X1532246Y958153D02*
X1543560Y969467D01*
X1532246Y958153D02*
X1537903Y952496D01*
X1543560Y969467D02*
X1549217Y963810D01*
X1507903Y952496D02*
X1519216Y963810D01*
X1502246Y958153D02*
X1513560Y969467D01*
X1502246Y958153D02*
X1507903Y952496D01*
X1513560Y969467D02*
X1519216Y963810D01*
X1477903Y952496D02*
X1489217Y963810D01*
X1472246Y958153D02*
X1483560Y969467D01*
X1472246Y958153D02*
X1477903Y952496D01*
X1483560Y969467D02*
X1489217Y963810D01*
X1447903Y952496D02*
X1459217Y963810D01*
X1442246Y958153D02*
X1453560Y969467D01*
X1442246Y958153D02*
X1447903Y952496D01*
X1453560Y969467D02*
X1459217Y963810D01*
X1417903Y952496D02*
X1429216Y963810D01*
X1412246Y958153D02*
X1423560Y969467D01*
X1412246Y958153D02*
X1417903Y952496D01*
X1423560Y969467D02*
X1429216Y963810D01*
X1387903Y952496D02*
X1399217Y963810D01*
X1382246Y958153D02*
X1393560Y969467D01*
X1382246Y958153D02*
X1387903Y952496D01*
X1393560Y969467D02*
X1399217Y963810D01*
X1357903Y952496D02*
X1369216Y963810D01*
X1352246Y958153D02*
X1363560Y969467D01*
X1352246Y958153D02*
X1357903Y952496D01*
X1363560Y969467D02*
X1369216Y963810D01*
X1327903Y952496D02*
X1339217Y963810D01*
X1322246Y958153D02*
X1333560Y969467D01*
X1322246Y958153D02*
X1327903Y952496D01*
X1333560Y969467D02*
X1339217Y963810D01*
X1297903Y952496D02*
X1309217Y963810D01*
X1292246Y958153D02*
X1303560Y969467D01*
X1292246Y958153D02*
X1297903Y952496D01*
X1303560Y969467D02*
X1309217Y963810D01*
X1267903Y952496D02*
X1279217Y963810D01*
X1262246Y958153D02*
X1273560Y969467D01*
X1262246Y958153D02*
X1267903Y952496D01*
X1273560Y969467D02*
X1279217Y963810D01*
X1237903Y952496D02*
X1249217Y963810D01*
X1232246Y958153D02*
X1243560Y969467D01*
X1232246Y958153D02*
X1237903Y952496D01*
X1243560Y969467D02*
X1249217Y963810D01*
X1207903Y952496D02*
X1219217Y963810D01*
X1202246Y958153D02*
X1213560Y969467D01*
X1202246Y958153D02*
X1207903Y952496D01*
X1213560Y969467D02*
X1219217Y963810D01*
X1177903Y952496D02*
X1189217Y963810D01*
X1172246Y958153D02*
X1183560Y969467D01*
X1172246Y958153D02*
X1177903Y952496D01*
X1183560Y969467D02*
X1189217Y963810D01*
X1147903Y952496D02*
X1159217Y963810D01*
X1142246Y958153D02*
X1153560Y969467D01*
X1142246Y958153D02*
X1147903Y952496D01*
X1153560Y969467D02*
X1159217Y963810D01*
X1117903Y952496D02*
X1129217Y963810D01*
X1112246Y958153D02*
X1123560Y969467D01*
X1112246Y958153D02*
X1117903Y952496D01*
X1123560Y969467D02*
X1129217Y963810D01*
X1087903Y952496D02*
X1099217Y963810D01*
X1082246Y958153D02*
X1093560Y969467D01*
X1082246Y958153D02*
X1087903Y952496D01*
X1093560Y969467D02*
X1099217Y963810D01*
X1057903Y952496D02*
X1069217Y963810D01*
X1052246Y958153D02*
X1063560Y969467D01*
X1052246Y958153D02*
X1057903Y952496D01*
X1063560Y969467D02*
X1069217Y963810D01*
X1027903Y952496D02*
X1039217Y963810D01*
X1022246Y958153D02*
X1033560Y969467D01*
X1022246Y958153D02*
X1027903Y952496D01*
X1033560Y969467D02*
X1039217Y963810D01*
X997903Y952496D02*
X1009217Y963810D01*
X992246Y958153D02*
X1003560Y969467D01*
X992246Y958153D02*
X997903Y952496D01*
X1003560Y969467D02*
X1009217Y963810D01*
X967903Y952496D02*
X979217Y963810D01*
X962246Y958153D02*
X973560Y969467D01*
X962246Y958153D02*
X967903Y952496D01*
X973560Y969467D02*
X979217Y963810D01*
X937903Y952496D02*
X949217Y963810D01*
X932246Y958153D02*
X943560Y969467D01*
X932246Y958153D02*
X937903Y952496D01*
X943560Y969467D02*
X949217Y963810D01*
X907903Y952496D02*
X919217Y963810D01*
X902246Y958153D02*
X913560Y969467D01*
X902246Y958153D02*
X907903Y952496D01*
X913560Y969467D02*
X919217Y963810D01*
X877903Y952496D02*
X889217Y963810D01*
X872246Y958153D02*
X883560Y969467D01*
X872246Y958153D02*
X877903Y952496D01*
X883560Y969467D02*
X889217Y963810D01*
X847903Y952496D02*
X859217Y963810D01*
X842246Y958153D02*
X853560Y969467D01*
X842246Y958153D02*
X847903Y952496D01*
X853560Y969467D02*
X859217Y963810D01*
X817903Y952496D02*
X829217Y963810D01*
X812246Y958153D02*
X823560Y969467D01*
X812246Y958153D02*
X817903Y952496D01*
X823560Y969467D02*
X829217Y963810D01*
X787903Y952496D02*
X799217Y963810D01*
X782246Y958153D02*
X793560Y969467D01*
X782246Y958153D02*
X787903Y952496D01*
X793560Y969467D02*
X799217Y963810D01*
X757903Y952496D02*
X769217Y963810D01*
X752246Y958153D02*
X763560Y969467D01*
X752246Y958153D02*
X757903Y952496D01*
X763560Y969467D02*
X769217Y963810D01*
X727903Y952496D02*
X739217Y963810D01*
X722246Y958153D02*
X733560Y969467D01*
X722246Y958153D02*
X727903Y952496D01*
X733560Y969467D02*
X739217Y963810D01*
X697903Y952496D02*
X709217Y963810D01*
X692246Y958153D02*
X703560Y969467D01*
X692246Y958153D02*
X697903Y952496D01*
X703560Y969467D02*
X709217Y963810D01*
X667903Y952496D02*
X679217Y963810D01*
X662246Y958153D02*
X673560Y969467D01*
X662246Y958153D02*
X667903Y952496D01*
X673560Y969467D02*
X679217Y963810D01*
X637903Y952496D02*
X649217Y963810D01*
X632246Y958153D02*
X643560Y969467D01*
X632246Y958153D02*
X637903Y952496D01*
X643560Y969467D02*
X649217Y963810D01*
X607903Y952496D02*
X619217Y963810D01*
X602246Y958153D02*
X613560Y969467D01*
X602246Y958153D02*
X607903Y952496D01*
X613560Y969467D02*
X619217Y963810D01*
X577903Y952496D02*
X589217Y963810D01*
X572246Y958153D02*
X583560Y969467D01*
X572246Y958153D02*
X577903Y952496D01*
X583560Y969467D02*
X589217Y963810D01*
X547903Y952496D02*
X559217Y963810D01*
X542246Y958153D02*
X553560Y969467D01*
X542246Y958153D02*
X547903Y952496D01*
X553560Y969467D02*
X559217Y963810D01*
X517903Y952496D02*
X529217Y963810D01*
X512246Y958153D02*
X523560Y969467D01*
X512246Y958153D02*
X517903Y952496D01*
X523560Y969467D02*
X529217Y963810D01*
X487903Y952496D02*
X499217Y963810D01*
X482246Y958153D02*
X493560Y969467D01*
X482246Y958153D02*
X487903Y952496D01*
X493560Y969467D02*
X499217Y963810D01*
X457903Y952496D02*
X469217Y963810D01*
X452246Y958153D02*
X463560Y969467D01*
X452246Y958153D02*
X457903Y952496D01*
X463560Y969467D02*
X469217Y963810D01*
X427903Y952496D02*
X439217Y963810D01*
X422246Y958153D02*
X433560Y969467D01*
X422246Y958153D02*
X427903Y952496D01*
X433560Y969467D02*
X439217Y963810D01*
X1567903Y982496D02*
X1579216Y993810D01*
X1562246Y988153D02*
X1573560Y999467D01*
X1562246Y988153D02*
X1567903Y982496D01*
X1573560Y999467D02*
X1579216Y993810D01*
X1537903Y982496D02*
X1549217Y993810D01*
X1532246Y988153D02*
X1543560Y999467D01*
X1532246Y988153D02*
X1537903Y982496D01*
X1543560Y999467D02*
X1549217Y993810D01*
X1507903Y982496D02*
X1519216Y993810D01*
X1502246Y988153D02*
X1513560Y999467D01*
X1502246Y988153D02*
X1507903Y982496D01*
X1513560Y999467D02*
X1519216Y993810D01*
X1477903Y982496D02*
X1489217Y993810D01*
X1472246Y988153D02*
X1483560Y999467D01*
X1472246Y988153D02*
X1477903Y982496D01*
X1483560Y999467D02*
X1489217Y993810D01*
X1447903Y982496D02*
X1459217Y993810D01*
X1442246Y988153D02*
X1453560Y999467D01*
X1442246Y988153D02*
X1447903Y982496D01*
X1453560Y999467D02*
X1459217Y993810D01*
X1417903Y982496D02*
X1429216Y993810D01*
X1412246Y988153D02*
X1423560Y999467D01*
X1412246Y988153D02*
X1417903Y982496D01*
X1423560Y999467D02*
X1429216Y993810D01*
X1387903Y982496D02*
X1399217Y993810D01*
X1382246Y988153D02*
X1393560Y999467D01*
X1382246Y988153D02*
X1387903Y982496D01*
X1393560Y999467D02*
X1399217Y993810D01*
X1357903Y982496D02*
X1369216Y993810D01*
X1352246Y988153D02*
X1363560Y999467D01*
X1352246Y988153D02*
X1357903Y982496D01*
X1363560Y999467D02*
X1369216Y993810D01*
X1327903Y982496D02*
X1339217Y993810D01*
X1322246Y988153D02*
X1333560Y999467D01*
X1322246Y988153D02*
X1327903Y982496D01*
X1333560Y999467D02*
X1339217Y993810D01*
X1297903Y982496D02*
X1309217Y993810D01*
X1292246Y988153D02*
X1303560Y999467D01*
X1292246Y988153D02*
X1297903Y982496D01*
X1303560Y999467D02*
X1309217Y993810D01*
X1267903Y982496D02*
X1279217Y993810D01*
X1262246Y988153D02*
X1273560Y999467D01*
X1262246Y988153D02*
X1267903Y982496D01*
X1273560Y999467D02*
X1279217Y993810D01*
X1237903Y982496D02*
X1249217Y993810D01*
X1232246Y988153D02*
X1243560Y999467D01*
X1232246Y988153D02*
X1237903Y982496D01*
X1243560Y999467D02*
X1249217Y993810D01*
X1207903Y982496D02*
X1219217Y993810D01*
X1202246Y988153D02*
X1213560Y999467D01*
X1202246Y988153D02*
X1207903Y982496D01*
X1213560Y999467D02*
X1219217Y993810D01*
X1177903Y982496D02*
X1189217Y993810D01*
X1172246Y988153D02*
X1183560Y999467D01*
X1172246Y988153D02*
X1177903Y982496D01*
X1183560Y999467D02*
X1189217Y993810D01*
X1147903Y982496D02*
X1159217Y993810D01*
X1142246Y988153D02*
X1153560Y999467D01*
X1142246Y988153D02*
X1147903Y982496D01*
X1153560Y999467D02*
X1159217Y993810D01*
X1117903Y982496D02*
X1129217Y993810D01*
X1112246Y988153D02*
X1123560Y999467D01*
X1112246Y988153D02*
X1117903Y982496D01*
X1123560Y999467D02*
X1129217Y993810D01*
X1087903Y982496D02*
X1099217Y993810D01*
X1082246Y988153D02*
X1093560Y999467D01*
X1082246Y988153D02*
X1087903Y982496D01*
X1093560Y999467D02*
X1099217Y993810D01*
X1057903Y982496D02*
X1069217Y993810D01*
X1052246Y988153D02*
X1063560Y999467D01*
X1052246Y988153D02*
X1057903Y982496D01*
X1063560Y999467D02*
X1069217Y993810D01*
X1027903Y982496D02*
X1039217Y993810D01*
X1022246Y988153D02*
X1033560Y999467D01*
X1022246Y988153D02*
X1027903Y982496D01*
X1033560Y999467D02*
X1039217Y993810D01*
X997903Y982496D02*
X1009217Y993810D01*
X992246Y988153D02*
X1003560Y999467D01*
X992246Y988153D02*
X997903Y982496D01*
X1003560Y999467D02*
X1009217Y993810D01*
X967903Y982496D02*
X979217Y993810D01*
X962246Y988153D02*
X973560Y999467D01*
X962246Y988153D02*
X967903Y982496D01*
X973560Y999467D02*
X979217Y993810D01*
X937903Y982496D02*
X949217Y993810D01*
X932246Y988153D02*
X943560Y999467D01*
X932246Y988153D02*
X937903Y982496D01*
X943560Y999467D02*
X949217Y993810D01*
X907903Y982496D02*
X919217Y993810D01*
X902246Y988153D02*
X913560Y999467D01*
X902246Y988153D02*
X907903Y982496D01*
X913560Y999467D02*
X919217Y993810D01*
X877903Y982496D02*
X889217Y993810D01*
X872246Y988153D02*
X883560Y999467D01*
X872246Y988153D02*
X877903Y982496D01*
X883560Y999467D02*
X889217Y993810D01*
X847903Y982496D02*
X859217Y993810D01*
X842246Y988153D02*
X853560Y999467D01*
X842246Y988153D02*
X847903Y982496D01*
X853560Y999467D02*
X859217Y993810D01*
X817903Y982496D02*
X829217Y993810D01*
X812246Y988153D02*
X823560Y999467D01*
X812246Y988153D02*
X817903Y982496D01*
X823560Y999467D02*
X829217Y993810D01*
X787903Y982496D02*
X799217Y993810D01*
X782246Y988153D02*
X793560Y999467D01*
X782246Y988153D02*
X787903Y982496D01*
X793560Y999467D02*
X799217Y993810D01*
X757903Y982496D02*
X769217Y993810D01*
X752246Y988153D02*
X763560Y999467D01*
X752246Y988153D02*
X757903Y982496D01*
X763560Y999467D02*
X769217Y993810D01*
X727903Y982496D02*
X739217Y993810D01*
X722246Y988153D02*
X733560Y999467D01*
X722246Y988153D02*
X727903Y982496D01*
X733560Y999467D02*
X739217Y993810D01*
X697903Y982496D02*
X709217Y993810D01*
X692246Y988153D02*
X703560Y999467D01*
X692246Y988153D02*
X697903Y982496D01*
X703560Y999467D02*
X709217Y993810D01*
X667903Y982496D02*
X679217Y993810D01*
X662246Y988153D02*
X673560Y999467D01*
X662246Y988153D02*
X667903Y982496D01*
X673560Y999467D02*
X679217Y993810D01*
X637903Y982496D02*
X649217Y993810D01*
X632246Y988153D02*
X643560Y999467D01*
X632246Y988153D02*
X637903Y982496D01*
X643560Y999467D02*
X649217Y993810D01*
X607903Y982496D02*
X619217Y993810D01*
X602246Y988153D02*
X613560Y999467D01*
X602246Y988153D02*
X607903Y982496D01*
X613560Y999467D02*
X619217Y993810D01*
X577903Y982496D02*
X589217Y993810D01*
X572246Y988153D02*
X583560Y999467D01*
X572246Y988153D02*
X577903Y982496D01*
X583560Y999467D02*
X589217Y993810D01*
X547903Y982496D02*
X559217Y993810D01*
X542246Y988153D02*
X553560Y999467D01*
X542246Y988153D02*
X547903Y982496D01*
X553560Y999467D02*
X559217Y993810D01*
X517903Y982496D02*
X529217Y993810D01*
X512246Y988153D02*
X523560Y999467D01*
X512246Y988153D02*
X517903Y982496D01*
X523560Y999467D02*
X529217Y993810D01*
X487903Y982496D02*
X499217Y993810D01*
X482246Y988153D02*
X493560Y999467D01*
X482246Y988153D02*
X487903Y982496D01*
X493560Y999467D02*
X499217Y993810D01*
X457903Y982496D02*
X469217Y993810D01*
X452246Y988153D02*
X463560Y999467D01*
X452246Y988153D02*
X457903Y982496D01*
X463560Y999467D02*
X469217Y993810D01*
X427903Y982496D02*
X439217Y993810D01*
X422246Y988153D02*
X433560Y999467D01*
X422246Y988153D02*
X427903Y982496D01*
X433560Y999467D02*
X439217Y993810D01*
X1567903Y1012496D02*
X1579216Y1023810D01*
X1562246Y1018153D02*
X1573560Y1029467D01*
X1562246Y1018153D02*
X1567903Y1012496D01*
X1573560Y1029467D02*
X1579216Y1023810D01*
X1537903Y1012496D02*
X1549217Y1023810D01*
X1532246Y1018153D02*
X1543560Y1029467D01*
X1532246Y1018153D02*
X1537903Y1012496D01*
X1543560Y1029467D02*
X1549217Y1023810D01*
X1507903Y1012496D02*
X1519216Y1023810D01*
X1502246Y1018153D02*
X1513560Y1029467D01*
X1502246Y1018153D02*
X1507903Y1012496D01*
X1513560Y1029467D02*
X1519216Y1023810D01*
X1477903Y1012496D02*
X1489217Y1023810D01*
X1472246Y1018153D02*
X1483560Y1029467D01*
X1472246Y1018153D02*
X1477903Y1012496D01*
X1483560Y1029467D02*
X1489217Y1023810D01*
X1447903Y1012496D02*
X1459217Y1023810D01*
X1442246Y1018153D02*
X1453560Y1029467D01*
X1442246Y1018153D02*
X1447903Y1012496D01*
X1453560Y1029467D02*
X1459217Y1023810D01*
X1417903Y1012496D02*
X1429216Y1023810D01*
X1412246Y1018153D02*
X1423560Y1029467D01*
X1412246Y1018153D02*
X1417903Y1012496D01*
X1423560Y1029467D02*
X1429216Y1023810D01*
X1387903Y1012496D02*
X1399217Y1023810D01*
X1382246Y1018153D02*
X1393560Y1029467D01*
X1382246Y1018153D02*
X1387903Y1012496D01*
X1393560Y1029467D02*
X1399217Y1023810D01*
X1357903Y1012496D02*
X1369216Y1023810D01*
X1352246Y1018153D02*
X1363560Y1029467D01*
X1352246Y1018153D02*
X1357903Y1012496D01*
X1363560Y1029467D02*
X1369216Y1023810D01*
X1327903Y1012496D02*
X1339217Y1023810D01*
X1322246Y1018153D02*
X1333560Y1029467D01*
X1322246Y1018153D02*
X1327903Y1012496D01*
X1333560Y1029467D02*
X1339217Y1023810D01*
X1297903Y1012496D02*
X1309217Y1023810D01*
X1292246Y1018153D02*
X1303560Y1029467D01*
X1292246Y1018153D02*
X1297903Y1012496D01*
X1303560Y1029467D02*
X1309217Y1023810D01*
X1267903Y1012496D02*
X1279217Y1023810D01*
X1262246Y1018153D02*
X1273560Y1029467D01*
X1262246Y1018153D02*
X1267903Y1012496D01*
X1273560Y1029467D02*
X1279217Y1023810D01*
X1237903Y1012496D02*
X1249217Y1023810D01*
X1232246Y1018153D02*
X1243560Y1029467D01*
X1232246Y1018153D02*
X1237903Y1012496D01*
X1243560Y1029467D02*
X1249217Y1023810D01*
X1207903Y1012496D02*
X1219217Y1023810D01*
X1202246Y1018153D02*
X1213560Y1029467D01*
X1202246Y1018153D02*
X1207903Y1012496D01*
X1213560Y1029467D02*
X1219217Y1023810D01*
X1177903Y1012496D02*
X1189217Y1023810D01*
X1172246Y1018153D02*
X1183560Y1029467D01*
X1172246Y1018153D02*
X1177903Y1012496D01*
X1183560Y1029467D02*
X1189217Y1023810D01*
X1147903Y1012496D02*
X1159217Y1023810D01*
X1142246Y1018153D02*
X1153560Y1029467D01*
X1142246Y1018153D02*
X1147903Y1012496D01*
X1153560Y1029467D02*
X1159217Y1023810D01*
X1117903Y1012496D02*
X1129217Y1023810D01*
X1112246Y1018153D02*
X1123560Y1029467D01*
X1112246Y1018153D02*
X1117903Y1012496D01*
X1123560Y1029467D02*
X1129217Y1023810D01*
X1087903Y1012496D02*
X1099217Y1023810D01*
X1082246Y1018153D02*
X1093560Y1029467D01*
X1082246Y1018153D02*
X1087903Y1012496D01*
X1093560Y1029467D02*
X1099217Y1023810D01*
X1057903Y1012496D02*
X1069217Y1023810D01*
X1052246Y1018153D02*
X1063560Y1029467D01*
X1052246Y1018153D02*
X1057903Y1012496D01*
X1063560Y1029467D02*
X1069217Y1023810D01*
X1027903Y1012496D02*
X1039217Y1023810D01*
X1022246Y1018153D02*
X1033560Y1029467D01*
X1022246Y1018153D02*
X1027903Y1012496D01*
X1033560Y1029467D02*
X1039217Y1023810D01*
X997903Y1012496D02*
X1009217Y1023810D01*
X992246Y1018153D02*
X1003560Y1029467D01*
X992246Y1018153D02*
X997903Y1012496D01*
X1003560Y1029467D02*
X1009217Y1023810D01*
X967903Y1012496D02*
X979217Y1023810D01*
X962246Y1018153D02*
X973560Y1029467D01*
X962246Y1018153D02*
X967903Y1012496D01*
X973560Y1029467D02*
X979217Y1023810D01*
X937903Y1012496D02*
X949217Y1023810D01*
X932246Y1018153D02*
X943560Y1029467D01*
X932246Y1018153D02*
X937903Y1012496D01*
X943560Y1029467D02*
X949217Y1023810D01*
X907903Y1012496D02*
X919217Y1023810D01*
X902246Y1018153D02*
X913560Y1029467D01*
X902246Y1018153D02*
X907903Y1012496D01*
X913560Y1029467D02*
X919217Y1023810D01*
X877903Y1012496D02*
X889217Y1023810D01*
X872246Y1018153D02*
X883560Y1029467D01*
X872246Y1018153D02*
X877903Y1012496D01*
X883560Y1029467D02*
X889217Y1023810D01*
X847903Y1012496D02*
X859217Y1023810D01*
X842246Y1018153D02*
X853560Y1029467D01*
X842246Y1018153D02*
X847903Y1012496D01*
X853560Y1029467D02*
X859217Y1023810D01*
X817903Y1012496D02*
X829217Y1023810D01*
X812246Y1018153D02*
X823560Y1029467D01*
X812246Y1018153D02*
X817903Y1012496D01*
X823560Y1029467D02*
X829217Y1023810D01*
X787903Y1012496D02*
X799217Y1023810D01*
X782246Y1018153D02*
X793560Y1029467D01*
X782246Y1018153D02*
X787903Y1012496D01*
X793560Y1029467D02*
X799217Y1023810D01*
X757903Y1012496D02*
X769217Y1023810D01*
X752246Y1018153D02*
X763560Y1029467D01*
X752246Y1018153D02*
X757903Y1012496D01*
X763560Y1029467D02*
X769217Y1023810D01*
X727903Y1012496D02*
X739217Y1023810D01*
X722246Y1018153D02*
X733560Y1029467D01*
X722246Y1018153D02*
X727903Y1012496D01*
X733560Y1029467D02*
X739217Y1023810D01*
X697903Y1012496D02*
X709217Y1023810D01*
X692246Y1018153D02*
X703560Y1029467D01*
X692246Y1018153D02*
X697903Y1012496D01*
X703560Y1029467D02*
X709217Y1023810D01*
X667903Y1012496D02*
X679217Y1023810D01*
X662246Y1018153D02*
X673560Y1029467D01*
X662246Y1018153D02*
X667903Y1012496D01*
X673560Y1029467D02*
X679217Y1023810D01*
X637903Y1012496D02*
X649217Y1023810D01*
X632246Y1018153D02*
X643560Y1029467D01*
X632246Y1018153D02*
X637903Y1012496D01*
X643560Y1029467D02*
X649217Y1023810D01*
X607903Y1012496D02*
X619217Y1023810D01*
X602246Y1018153D02*
X613560Y1029467D01*
X602246Y1018153D02*
X607903Y1012496D01*
X613560Y1029467D02*
X619217Y1023810D01*
X577903Y1012496D02*
X589217Y1023810D01*
X572246Y1018153D02*
X583560Y1029467D01*
X572246Y1018153D02*
X577903Y1012496D01*
X583560Y1029467D02*
X589217Y1023810D01*
X547903Y1012496D02*
X559217Y1023810D01*
X542246Y1018153D02*
X553560Y1029467D01*
X542246Y1018153D02*
X547903Y1012496D01*
X553560Y1029467D02*
X559217Y1023810D01*
X517903Y1012496D02*
X529217Y1023810D01*
X512246Y1018153D02*
X523560Y1029467D01*
X512246Y1018153D02*
X517903Y1012496D01*
X523560Y1029467D02*
X529217Y1023810D01*
X487903Y1012496D02*
X499217Y1023810D01*
X482246Y1018153D02*
X493560Y1029467D01*
X482246Y1018153D02*
X487903Y1012496D01*
X493560Y1029467D02*
X499217Y1023810D01*
X457903Y1012496D02*
X469217Y1023810D01*
X452246Y1018153D02*
X463560Y1029467D01*
X452246Y1018153D02*
X457903Y1012496D01*
X463560Y1029467D02*
X469217Y1023810D01*
X427903Y1012496D02*
X439217Y1023810D01*
X422246Y1018153D02*
X433560Y1029467D01*
X422246Y1018153D02*
X427903Y1012496D01*
X433560Y1029467D02*
X439217Y1023810D01*
D12*
X445750Y945750D02*
Y1005500D01*
Y915750D02*
Y945750D01*
Y885750D02*
Y915750D01*
Y825750D02*
Y885750D01*
Y795500D02*
Y825750D01*
Y765750D02*
Y795500D01*
X1525750Y766250D02*
Y796000D01*
Y826250D01*
Y886250D01*
Y916250D01*
Y946250D01*
Y1006000D01*
X1495500Y766250D02*
Y796000D01*
Y826250D01*
Y886250D01*
Y916250D01*
Y946250D01*
Y1006000D01*
X1465500Y766250D02*
Y796000D01*
Y826250D01*
Y886250D01*
Y916250D01*
Y946250D01*
Y1006000D01*
X1435500Y766250D02*
Y796000D01*
Y826250D01*
Y886250D01*
Y916250D01*
Y946250D01*
Y1006000D01*
X1405750Y766250D02*
Y796000D01*
Y826250D01*
Y886250D01*
Y916250D01*
Y946250D01*
Y1006000D01*
X1375500Y766250D02*
Y796000D01*
Y826250D01*
Y886250D01*
Y916250D01*
Y946250D01*
Y1006000D01*
X1345750Y766250D02*
Y796000D01*
Y826250D01*
Y886250D01*
Y916250D01*
Y946250D01*
Y1006000D01*
X1315500Y766250D02*
Y796000D01*
Y826250D01*
Y886250D01*
Y916250D01*
Y946250D01*
Y1006000D01*
X1285500Y766250D02*
Y796000D01*
Y826250D01*
Y886250D01*
Y916250D01*
Y946250D01*
Y1006000D01*
X1255500Y766250D02*
Y796000D01*
Y826250D01*
Y886250D01*
Y916250D01*
Y946250D01*
Y1006000D01*
X1225500Y766250D02*
Y796000D01*
Y826250D01*
Y886250D01*
Y916250D01*
Y946250D01*
Y1006000D01*
X1195500Y766250D02*
Y796000D01*
Y826250D01*
Y886250D01*
Y916250D01*
Y946250D01*
Y1006000D01*
X1165500Y766250D02*
Y796000D01*
Y826250D01*
Y886250D01*
Y916250D01*
Y946250D01*
Y1006000D01*
X1135750Y766250D02*
Y796000D01*
Y826250D01*
Y886250D01*
Y916250D01*
Y946250D01*
Y1006000D01*
X1105500Y766250D02*
Y796000D01*
Y826250D01*
Y886250D01*
Y916250D01*
Y946250D01*
Y1006000D01*
X1075500Y766250D02*
Y796000D01*
Y826250D01*
Y886250D01*
Y916250D01*
Y946250D01*
Y1006000D01*
X1045250Y766250D02*
Y796000D01*
Y826250D01*
Y886250D01*
Y916250D01*
Y946250D01*
Y1006000D01*
X1015500Y765750D02*
Y795500D01*
Y825750D01*
Y885750D01*
Y915750D01*
Y945750D01*
Y1005500D01*
X1555750Y765250D02*
Y795000D01*
Y825250D01*
Y885250D01*
Y915250D01*
Y945250D01*
Y1005000D01*
X985750Y765750D02*
Y795500D01*
Y825750D01*
Y885750D01*
Y915750D01*
Y945750D01*
Y1005500D01*
X955500Y765750D02*
Y795500D01*
Y825750D01*
Y885750D01*
Y915750D01*
Y945750D01*
Y1005500D01*
X925500Y765750D02*
Y795500D01*
Y825750D01*
Y885750D01*
Y915750D01*
Y945750D01*
Y1005500D01*
X895500Y765750D02*
Y795500D01*
Y825750D01*
Y885750D01*
Y915750D01*
Y945750D01*
Y1005500D01*
X865750Y765750D02*
Y795500D01*
Y825750D01*
Y885750D01*
Y915750D01*
Y945750D01*
Y1005500D01*
X835500Y765750D02*
Y795500D01*
Y825750D01*
Y885750D01*
Y915750D01*
Y945750D01*
Y1005500D01*
X805500Y765750D02*
Y795500D01*
Y825750D01*
Y885750D01*
Y915750D01*
Y945750D01*
Y1005500D01*
X775500Y765750D02*
Y795500D01*
Y825750D01*
Y885750D01*
Y915750D01*
Y945750D01*
Y1005500D01*
X745750Y765750D02*
Y795500D01*
Y825750D01*
Y885750D01*
Y915750D01*
Y945750D01*
Y1005500D01*
X715750Y765750D02*
Y795500D01*
Y825750D01*
Y885750D01*
Y915750D01*
Y945750D01*
Y1005500D01*
X685500Y765750D02*
Y795500D01*
Y825750D01*
Y885750D01*
Y915750D01*
Y945750D01*
Y1005500D01*
X655500Y765750D02*
Y795500D01*
Y825750D01*
Y885750D01*
Y915750D01*
Y945750D01*
Y1005500D01*
X625500Y765750D02*
Y795500D01*
Y825750D01*
Y885750D01*
Y915750D01*
Y945750D01*
Y1005500D01*
X595750Y765750D02*
Y795500D01*
Y825750D01*
Y885750D01*
Y915750D01*
Y945750D01*
Y1005500D01*
X565750Y765750D02*
Y795500D01*
Y825750D01*
Y885750D01*
Y915750D01*
Y945750D01*
Y1005500D01*
X535500Y765750D02*
Y795500D01*
Y825750D01*
Y885750D01*
Y915750D01*
Y945750D01*
Y1005500D01*
X505500Y765750D02*
Y795500D01*
Y825750D01*
Y885750D01*
Y915750D01*
Y945750D01*
Y1005500D01*
X475500Y765500D02*
Y795250D01*
Y825500D01*
Y885500D01*
Y915500D01*
Y945500D01*
Y1005250D01*
X1630000Y1050000D02*
G03*
X1600000Y1080000I-30000J0D01*
G01*
X400000D02*
G03*
X370000Y1050000I0J-30000D01*
G01*
Y750000D02*
G03*
X400000Y720000I30000J0D01*
G01*
X1600000D02*
G03*
X1630000Y750000I0J30000D01*
G01*
Y1050000D01*
X400000Y1080000D02*
X1600000D01*
X370000Y750000D02*
Y1050000D01*
X400000Y720000D02*
X1600000D01*
D19*
X446700Y742500D02*
D03*
X1152600Y1055250D02*
D03*
X518000Y1055250D02*
D03*
D20*
X497500Y742500D02*
D03*
X522900D02*
D03*
X548300D02*
D03*
X573700D02*
D03*
X599100D02*
D03*
X624500D02*
D03*
X649900D02*
D03*
X472100D02*
D03*
X1482800Y1055250D02*
D03*
X1457400D02*
D03*
X1432000D02*
D03*
X1406600D02*
D03*
X1381200D02*
D03*
X1355800D02*
D03*
X1330400D02*
D03*
X1305000D02*
D03*
X1279600D02*
D03*
X1254200D02*
D03*
X1228800D02*
D03*
X1203400D02*
D03*
X1178000D02*
D03*
X543400Y1055250D02*
D03*
X568800D02*
D03*
X594200D02*
D03*
X619600D02*
D03*
X645000D02*
D03*
X670400D02*
D03*
X695800D02*
D03*
X721200D02*
D03*
X746600D02*
D03*
X772000D02*
D03*
X797400D02*
D03*
X822800D02*
D03*
X848200D02*
D03*
X873600D02*
D03*
X899000D02*
D03*
X924400D02*
D03*
X949800D02*
D03*
X975200D02*
D03*
X1000600D02*
D03*
X1026000D02*
D03*
X1051400D02*
D03*
X1076800D02*
D03*
X1102200D02*
D03*
X1127600D02*
D03*
D21*
X445750Y765750D02*
D03*
Y825750D02*
D03*
X445500Y855750D02*
D03*
X445750Y885750D02*
D03*
Y915750D02*
D03*
Y945750D02*
D03*
X445500Y976000D02*
D03*
X445750Y1006000D02*
D03*
Y795500D02*
D03*
X1525750Y1006500D02*
D03*
X1525500Y976500D02*
D03*
X1525750Y946250D02*
D03*
Y916250D02*
D03*
Y886250D02*
D03*
X1525500Y856250D02*
D03*
X1525750Y826250D02*
D03*
Y796000D02*
D03*
Y766250D02*
D03*
X1495500Y1006500D02*
D03*
X1495250Y976500D02*
D03*
X1495500Y946250D02*
D03*
Y916250D02*
D03*
Y886250D02*
D03*
X1495250Y856250D02*
D03*
X1495500Y826250D02*
D03*
Y796000D02*
D03*
Y766250D02*
D03*
X1465500Y1006500D02*
D03*
X1465250Y976500D02*
D03*
X1465500Y946250D02*
D03*
Y916250D02*
D03*
Y886250D02*
D03*
X1465250Y856250D02*
D03*
X1465500Y826250D02*
D03*
Y796000D02*
D03*
Y766250D02*
D03*
X1435500Y1006500D02*
D03*
X1435250Y976500D02*
D03*
X1435500Y946250D02*
D03*
Y916250D02*
D03*
Y886250D02*
D03*
X1435250Y856250D02*
D03*
X1435500Y826250D02*
D03*
Y796000D02*
D03*
Y766250D02*
D03*
X1405750Y1006500D02*
D03*
X1405500Y976500D02*
D03*
X1405750Y946250D02*
D03*
Y916250D02*
D03*
Y886250D02*
D03*
X1405500Y856250D02*
D03*
X1405750Y826250D02*
D03*
Y796000D02*
D03*
Y766250D02*
D03*
X1375500Y1006500D02*
D03*
X1375250Y976500D02*
D03*
X1375500Y946250D02*
D03*
Y916250D02*
D03*
Y886250D02*
D03*
X1375250Y856250D02*
D03*
X1375500Y826250D02*
D03*
Y796000D02*
D03*
Y766250D02*
D03*
X1345750Y1006500D02*
D03*
X1345500Y976500D02*
D03*
X1345750Y946250D02*
D03*
Y916250D02*
D03*
Y886250D02*
D03*
X1345500Y856250D02*
D03*
X1345750Y826250D02*
D03*
Y796000D02*
D03*
Y766250D02*
D03*
X1315500Y1006500D02*
D03*
X1315250Y976500D02*
D03*
X1315500Y946250D02*
D03*
Y916250D02*
D03*
Y886250D02*
D03*
X1315250Y856250D02*
D03*
X1315500Y826250D02*
D03*
Y796000D02*
D03*
Y766250D02*
D03*
X1285500Y1006500D02*
D03*
X1285250Y976500D02*
D03*
X1285500Y946250D02*
D03*
Y916250D02*
D03*
Y886250D02*
D03*
X1285250Y856250D02*
D03*
X1285500Y826250D02*
D03*
Y796000D02*
D03*
Y766250D02*
D03*
X1255500Y1006500D02*
D03*
X1255250Y976500D02*
D03*
X1255500Y946250D02*
D03*
Y916250D02*
D03*
Y886250D02*
D03*
X1255250Y856250D02*
D03*
X1255500Y826250D02*
D03*
Y796000D02*
D03*
Y766250D02*
D03*
X1225500Y1006500D02*
D03*
X1225250Y976500D02*
D03*
X1225500Y946250D02*
D03*
Y916250D02*
D03*
Y886250D02*
D03*
X1225250Y856250D02*
D03*
X1225500Y826250D02*
D03*
Y796000D02*
D03*
Y766250D02*
D03*
X1195500Y1006500D02*
D03*
X1195250Y976500D02*
D03*
X1195500Y946250D02*
D03*
Y916250D02*
D03*
Y886250D02*
D03*
X1195250Y856250D02*
D03*
X1195500Y826250D02*
D03*
Y796000D02*
D03*
Y766250D02*
D03*
X1165500Y1006500D02*
D03*
X1165250Y976500D02*
D03*
X1165500Y946250D02*
D03*
Y916250D02*
D03*
Y886250D02*
D03*
X1165250Y856250D02*
D03*
X1165500Y826250D02*
D03*
Y796000D02*
D03*
Y766250D02*
D03*
X1135750Y1006500D02*
D03*
X1135500Y976500D02*
D03*
X1135750Y946250D02*
D03*
Y916250D02*
D03*
Y886250D02*
D03*
X1135500Y856250D02*
D03*
X1135750Y826250D02*
D03*
Y796000D02*
D03*
Y766250D02*
D03*
X1105500Y1006500D02*
D03*
X1105250Y976500D02*
D03*
X1105500Y946250D02*
D03*
Y916250D02*
D03*
Y886250D02*
D03*
X1105250Y856250D02*
D03*
X1105500Y826250D02*
D03*
Y796000D02*
D03*
Y766250D02*
D03*
X1075500Y1006500D02*
D03*
X1075250Y976500D02*
D03*
X1075500Y946250D02*
D03*
Y916250D02*
D03*
Y886250D02*
D03*
X1075250Y856250D02*
D03*
X1075500Y826250D02*
D03*
Y796000D02*
D03*
Y766250D02*
D03*
X1045250Y1006500D02*
D03*
X1045000Y976500D02*
D03*
X1045250Y946250D02*
D03*
Y916250D02*
D03*
Y886250D02*
D03*
X1045000Y856250D02*
D03*
X1045250Y826250D02*
D03*
Y796000D02*
D03*
Y766250D02*
D03*
X1015500Y1006000D02*
D03*
X1015250Y976000D02*
D03*
X1015500Y945750D02*
D03*
Y915750D02*
D03*
Y885750D02*
D03*
X1015250Y855750D02*
D03*
X1015500Y825750D02*
D03*
Y795500D02*
D03*
Y765750D02*
D03*
X1555750Y1005500D02*
D03*
X1555500Y975500D02*
D03*
X1555750Y945250D02*
D03*
Y915250D02*
D03*
Y885250D02*
D03*
X1555500Y855250D02*
D03*
X1555750Y825250D02*
D03*
Y795000D02*
D03*
Y765250D02*
D03*
X985750Y1006000D02*
D03*
X985500Y976000D02*
D03*
X985750Y945750D02*
D03*
Y915750D02*
D03*
Y885750D02*
D03*
X985500Y855750D02*
D03*
X985750Y825750D02*
D03*
Y795500D02*
D03*
Y765750D02*
D03*
X955500Y1006000D02*
D03*
X955250Y976000D02*
D03*
X955500Y945750D02*
D03*
Y915750D02*
D03*
Y885750D02*
D03*
X955250Y855750D02*
D03*
X955500Y825750D02*
D03*
Y795500D02*
D03*
Y765750D02*
D03*
X925500Y1006000D02*
D03*
X925250Y976000D02*
D03*
X925500Y945750D02*
D03*
Y915750D02*
D03*
Y885750D02*
D03*
X925250Y855750D02*
D03*
X925500Y825750D02*
D03*
Y795500D02*
D03*
Y765750D02*
D03*
X895500Y1006000D02*
D03*
X895250Y976000D02*
D03*
X895500Y945750D02*
D03*
Y915750D02*
D03*
Y885750D02*
D03*
X895250Y855750D02*
D03*
X895500Y825750D02*
D03*
Y795500D02*
D03*
Y765750D02*
D03*
X865750Y1006000D02*
D03*
X865500Y976000D02*
D03*
X865750Y945750D02*
D03*
Y915750D02*
D03*
Y885750D02*
D03*
X865500Y855750D02*
D03*
X865750Y825750D02*
D03*
Y795500D02*
D03*
Y765750D02*
D03*
X835500Y1006000D02*
D03*
X835250Y976000D02*
D03*
X835500Y945750D02*
D03*
Y915750D02*
D03*
Y885750D02*
D03*
X835250Y855750D02*
D03*
X835500Y825750D02*
D03*
Y795500D02*
D03*
Y765750D02*
D03*
X805500Y1006000D02*
D03*
X805250Y976000D02*
D03*
X805500Y945750D02*
D03*
Y915750D02*
D03*
Y885750D02*
D03*
X805250Y855750D02*
D03*
X805500Y825750D02*
D03*
Y795500D02*
D03*
Y765750D02*
D03*
X775500Y1006000D02*
D03*
X775250Y976000D02*
D03*
X775500Y945750D02*
D03*
Y915750D02*
D03*
Y885750D02*
D03*
X775250Y855750D02*
D03*
X775500Y825750D02*
D03*
Y795500D02*
D03*
Y765750D02*
D03*
X745750Y1006000D02*
D03*
X745500Y976000D02*
D03*
X745750Y945750D02*
D03*
Y915750D02*
D03*
Y885750D02*
D03*
X745500Y855750D02*
D03*
X745750Y825750D02*
D03*
Y795500D02*
D03*
Y765750D02*
D03*
X715750Y1006000D02*
D03*
X715500Y976000D02*
D03*
X715750Y945750D02*
D03*
Y915750D02*
D03*
Y885750D02*
D03*
X715500Y855750D02*
D03*
X715750Y825750D02*
D03*
Y795500D02*
D03*
Y765750D02*
D03*
X685500Y1006000D02*
D03*
X685250Y976000D02*
D03*
X685500Y945750D02*
D03*
Y915750D02*
D03*
Y885750D02*
D03*
X685250Y855750D02*
D03*
X685500Y825750D02*
D03*
Y795500D02*
D03*
Y765750D02*
D03*
X655500Y1006000D02*
D03*
X655250Y976000D02*
D03*
X655500Y945750D02*
D03*
Y915750D02*
D03*
Y885750D02*
D03*
X655250Y855750D02*
D03*
X655500Y825750D02*
D03*
Y795500D02*
D03*
Y765750D02*
D03*
X625500Y1006000D02*
D03*
X625250Y976000D02*
D03*
X625500Y945750D02*
D03*
Y915750D02*
D03*
Y885750D02*
D03*
X625250Y855750D02*
D03*
X625500Y825750D02*
D03*
Y795500D02*
D03*
Y765750D02*
D03*
X595750Y1006000D02*
D03*
X595500Y976000D02*
D03*
X595750Y945750D02*
D03*
Y915750D02*
D03*
Y885750D02*
D03*
X595500Y855750D02*
D03*
X595750Y825750D02*
D03*
Y795500D02*
D03*
Y765750D02*
D03*
X565750Y1006000D02*
D03*
X565500Y976000D02*
D03*
X565750Y945750D02*
D03*
Y915750D02*
D03*
Y885750D02*
D03*
X565500Y855750D02*
D03*
X565750Y825750D02*
D03*
Y795500D02*
D03*
Y765750D02*
D03*
X535500Y1006000D02*
D03*
X535250Y976000D02*
D03*
X535500Y945750D02*
D03*
Y915750D02*
D03*
Y885750D02*
D03*
X535250Y855750D02*
D03*
X535500Y825750D02*
D03*
Y795500D02*
D03*
Y765750D02*
D03*
X505500Y1006000D02*
D03*
X505250Y976000D02*
D03*
X505500Y945750D02*
D03*
Y915750D02*
D03*
Y885750D02*
D03*
X505250Y855750D02*
D03*
X505500Y825750D02*
D03*
Y795500D02*
D03*
Y765750D02*
D03*
X475500Y1005750D02*
D03*
X475250Y975750D02*
D03*
X475500Y945500D02*
D03*
Y915500D02*
D03*
Y885500D02*
D03*
X475250Y855500D02*
D03*
X475500Y825500D02*
D03*
Y795250D02*
D03*
Y765500D02*
D03*
D22*
X400000Y750000D02*
D03*
X1600000D02*
D03*
Y1050000D02*
D03*
X400000D02*
D03*
M02*
