G04*
G04 #@! TF.GenerationSoftware,Altium Limited,Altium Designer,18.1.9 (240)*
G04*
G04 Layer_Color=8421504*
%FSLAX44Y44*%
%MOMM*%
G71*
G01*
G75*
%ADD11C,0.1270*%
%ADD12C,0.2540*%
%ADD13P,1.1314X4X270.0*%
D11*
X1567903Y772496D02*
X1579216Y783810D01*
X1562246Y778153D02*
X1573560Y789467D01*
X1562246Y778153D02*
X1567903Y772496D01*
X1573560Y789467D02*
X1579216Y783810D01*
X1537903Y772496D02*
X1549217Y783810D01*
X1532246Y778153D02*
X1543560Y789467D01*
X1532246Y778153D02*
X1537903Y772496D01*
X1543560Y789467D02*
X1549217Y783810D01*
X1507903Y772496D02*
X1519216Y783810D01*
X1502246Y778153D02*
X1513560Y789467D01*
X1502246Y778153D02*
X1507903Y772496D01*
X1513560Y789467D02*
X1519216Y783810D01*
X1477903Y772496D02*
X1489217Y783810D01*
X1472246Y778153D02*
X1483560Y789467D01*
X1472246Y778153D02*
X1477903Y772496D01*
X1483560Y789467D02*
X1489217Y783810D01*
X1447903Y772496D02*
X1459217Y783810D01*
X1442246Y778153D02*
X1453560Y789467D01*
X1442246Y778153D02*
X1447903Y772496D01*
X1453560Y789467D02*
X1459217Y783810D01*
X1417903Y772496D02*
X1429216Y783810D01*
X1412246Y778153D02*
X1423560Y789467D01*
X1412246Y778153D02*
X1417903Y772496D01*
X1423560Y789467D02*
X1429216Y783810D01*
X1387903Y772496D02*
X1399217Y783810D01*
X1382246Y778153D02*
X1393560Y789467D01*
X1382246Y778153D02*
X1387903Y772496D01*
X1393560Y789467D02*
X1399217Y783810D01*
X1357903Y772496D02*
X1369216Y783810D01*
X1352246Y778153D02*
X1363560Y789467D01*
X1352246Y778153D02*
X1357903Y772496D01*
X1363560Y789467D02*
X1369216Y783810D01*
X1327903Y772496D02*
X1339217Y783810D01*
X1322246Y778153D02*
X1333560Y789467D01*
X1322246Y778153D02*
X1327903Y772496D01*
X1333560Y789467D02*
X1339217Y783810D01*
X1297903Y772496D02*
X1309217Y783810D01*
X1292246Y778153D02*
X1303560Y789467D01*
X1292246Y778153D02*
X1297903Y772496D01*
X1303560Y789467D02*
X1309217Y783810D01*
X1267903Y772496D02*
X1279217Y783810D01*
X1262246Y778153D02*
X1273560Y789467D01*
X1262246Y778153D02*
X1267903Y772496D01*
X1273560Y789467D02*
X1279217Y783810D01*
X1237903Y772496D02*
X1249217Y783810D01*
X1232246Y778153D02*
X1243560Y789467D01*
X1232246Y778153D02*
X1237903Y772496D01*
X1243560Y789467D02*
X1249217Y783810D01*
X1207903Y772496D02*
X1219217Y783810D01*
X1202246Y778153D02*
X1213560Y789467D01*
X1202246Y778153D02*
X1207903Y772496D01*
X1213560Y789467D02*
X1219217Y783810D01*
X1177903Y772496D02*
X1189217Y783810D01*
X1172246Y778153D02*
X1183560Y789467D01*
X1172246Y778153D02*
X1177903Y772496D01*
X1183560Y789467D02*
X1189217Y783810D01*
X1147903Y772496D02*
X1159217Y783810D01*
X1142246Y778153D02*
X1153560Y789467D01*
X1142246Y778153D02*
X1147903Y772496D01*
X1153560Y789467D02*
X1159217Y783810D01*
X1117903Y772496D02*
X1129217Y783810D01*
X1112246Y778153D02*
X1123560Y789467D01*
X1112246Y778153D02*
X1117903Y772496D01*
X1123560Y789467D02*
X1129217Y783810D01*
X1087903Y772496D02*
X1099217Y783810D01*
X1082246Y778153D02*
X1093560Y789467D01*
X1082246Y778153D02*
X1087903Y772496D01*
X1093560Y789467D02*
X1099217Y783810D01*
X1057903Y772496D02*
X1069217Y783810D01*
X1052246Y778153D02*
X1063560Y789467D01*
X1052246Y778153D02*
X1057903Y772496D01*
X1063560Y789467D02*
X1069217Y783810D01*
X1027903Y772496D02*
X1039217Y783810D01*
X1022246Y778153D02*
X1033560Y789467D01*
X1022246Y778153D02*
X1027903Y772496D01*
X1033560Y789467D02*
X1039217Y783810D01*
X997903Y772496D02*
X1009217Y783810D01*
X992246Y778153D02*
X1003560Y789467D01*
X992246Y778153D02*
X997903Y772496D01*
X1003560Y789467D02*
X1009217Y783810D01*
X967903Y772496D02*
X979217Y783810D01*
X962246Y778153D02*
X973560Y789467D01*
X962246Y778153D02*
X967903Y772496D01*
X973560Y789467D02*
X979217Y783810D01*
X937903Y772496D02*
X949217Y783810D01*
X932246Y778153D02*
X943560Y789467D01*
X932246Y778153D02*
X937903Y772496D01*
X943560Y789467D02*
X949217Y783810D01*
X907903Y772496D02*
X919217Y783810D01*
X902246Y778153D02*
X913560Y789467D01*
X902246Y778153D02*
X907903Y772496D01*
X913560Y789467D02*
X919217Y783810D01*
X877903Y772496D02*
X889217Y783810D01*
X872246Y778153D02*
X883560Y789467D01*
X872246Y778153D02*
X877903Y772496D01*
X883560Y789467D02*
X889217Y783810D01*
X847903Y772496D02*
X859217Y783810D01*
X842246Y778153D02*
X853560Y789467D01*
X842246Y778153D02*
X847903Y772496D01*
X853560Y789467D02*
X859217Y783810D01*
X817903Y772496D02*
X829217Y783810D01*
X812246Y778153D02*
X823560Y789467D01*
X812246Y778153D02*
X817903Y772496D01*
X823560Y789467D02*
X829217Y783810D01*
X787903Y772496D02*
X799217Y783810D01*
X782246Y778153D02*
X793560Y789467D01*
X782246Y778153D02*
X787903Y772496D01*
X793560Y789467D02*
X799217Y783810D01*
X757903Y772496D02*
X769217Y783810D01*
X752246Y778153D02*
X763560Y789467D01*
X752246Y778153D02*
X757903Y772496D01*
X763560Y789467D02*
X769217Y783810D01*
X727903Y772496D02*
X739217Y783810D01*
X722246Y778153D02*
X733560Y789467D01*
X722246Y778153D02*
X727903Y772496D01*
X733560Y789467D02*
X739217Y783810D01*
X697903Y772496D02*
X709217Y783810D01*
X692246Y778153D02*
X703560Y789467D01*
X692246Y778153D02*
X697903Y772496D01*
X703560Y789467D02*
X709217Y783810D01*
X667903Y772496D02*
X679217Y783810D01*
X662246Y778153D02*
X673560Y789467D01*
X662246Y778153D02*
X667903Y772496D01*
X673560Y789467D02*
X679217Y783810D01*
X637903Y772496D02*
X649217Y783810D01*
X632246Y778153D02*
X643560Y789467D01*
X632246Y778153D02*
X637903Y772496D01*
X643560Y789467D02*
X649217Y783810D01*
X607903Y772496D02*
X619217Y783810D01*
X602246Y778153D02*
X613560Y789467D01*
X602246Y778153D02*
X607903Y772496D01*
X613560Y789467D02*
X619217Y783810D01*
X577903Y772496D02*
X589217Y783810D01*
X572246Y778153D02*
X583560Y789467D01*
X572246Y778153D02*
X577903Y772496D01*
X583560Y789467D02*
X589217Y783810D01*
X547903Y772496D02*
X559217Y783810D01*
X542246Y778153D02*
X553560Y789467D01*
X542246Y778153D02*
X547903Y772496D01*
X553560Y789467D02*
X559217Y783810D01*
X517903Y772496D02*
X529217Y783810D01*
X512246Y778153D02*
X523560Y789467D01*
X512246Y778153D02*
X517903Y772496D01*
X523560Y789467D02*
X529217Y783810D01*
X487903Y772496D02*
X499217Y783810D01*
X482246Y778153D02*
X493560Y789467D01*
X482246Y778153D02*
X487903Y772496D01*
X493560Y789467D02*
X499217Y783810D01*
X457903Y772496D02*
X469217Y783810D01*
X452246Y778153D02*
X463560Y789467D01*
X452246Y778153D02*
X457903Y772496D01*
X463560Y789467D02*
X469217Y783810D01*
X427903Y772496D02*
X439217Y783810D01*
X422246Y778153D02*
X433560Y789467D01*
X422246Y778153D02*
X427903Y772496D01*
X433560Y789467D02*
X439217Y783810D01*
X1567903Y802496D02*
X1579216Y813810D01*
X1562246Y808153D02*
X1573560Y819467D01*
X1562246Y808153D02*
X1567903Y802496D01*
X1573560Y819467D02*
X1579216Y813810D01*
X1537903Y802496D02*
X1549217Y813810D01*
X1532246Y808153D02*
X1543560Y819467D01*
X1532246Y808153D02*
X1537903Y802496D01*
X1543560Y819467D02*
X1549217Y813810D01*
X1507903Y802496D02*
X1519216Y813810D01*
X1502246Y808153D02*
X1513560Y819467D01*
X1502246Y808153D02*
X1507903Y802496D01*
X1513560Y819467D02*
X1519216Y813810D01*
X1477903Y802496D02*
X1489217Y813810D01*
X1472246Y808153D02*
X1483560Y819467D01*
X1472246Y808153D02*
X1477903Y802496D01*
X1483560Y819467D02*
X1489217Y813810D01*
X1447903Y802496D02*
X1459217Y813810D01*
X1442246Y808153D02*
X1453560Y819467D01*
X1442246Y808153D02*
X1447903Y802496D01*
X1453560Y819467D02*
X1459217Y813810D01*
X1417903Y802496D02*
X1429216Y813810D01*
X1412246Y808153D02*
X1423560Y819467D01*
X1412246Y808153D02*
X1417903Y802496D01*
X1423560Y819467D02*
X1429216Y813810D01*
X1387903Y802496D02*
X1399217Y813810D01*
X1382246Y808153D02*
X1393560Y819467D01*
X1382246Y808153D02*
X1387903Y802496D01*
X1393560Y819467D02*
X1399217Y813810D01*
X1357903Y802496D02*
X1369216Y813810D01*
X1352246Y808153D02*
X1363560Y819467D01*
X1352246Y808153D02*
X1357903Y802496D01*
X1363560Y819467D02*
X1369216Y813810D01*
X1327903Y802496D02*
X1339217Y813810D01*
X1322246Y808153D02*
X1333560Y819467D01*
X1322246Y808153D02*
X1327903Y802496D01*
X1333560Y819467D02*
X1339217Y813810D01*
X1297903Y802496D02*
X1309217Y813810D01*
X1292246Y808153D02*
X1303560Y819467D01*
X1292246Y808153D02*
X1297903Y802496D01*
X1303560Y819467D02*
X1309217Y813810D01*
X1267903Y802496D02*
X1279217Y813810D01*
X1262246Y808153D02*
X1273560Y819467D01*
X1262246Y808153D02*
X1267903Y802496D01*
X1273560Y819467D02*
X1279217Y813810D01*
X1237903Y802496D02*
X1249217Y813810D01*
X1232246Y808153D02*
X1243560Y819467D01*
X1232246Y808153D02*
X1237903Y802496D01*
X1243560Y819467D02*
X1249217Y813810D01*
X1207903Y802496D02*
X1219217Y813810D01*
X1202246Y808153D02*
X1213560Y819467D01*
X1202246Y808153D02*
X1207903Y802496D01*
X1213560Y819467D02*
X1219217Y813810D01*
X1177903Y802496D02*
X1189217Y813810D01*
X1172246Y808153D02*
X1183560Y819467D01*
X1172246Y808153D02*
X1177903Y802496D01*
X1183560Y819467D02*
X1189217Y813810D01*
X1147903Y802496D02*
X1159217Y813810D01*
X1142246Y808153D02*
X1153560Y819467D01*
X1142246Y808153D02*
X1147903Y802496D01*
X1153560Y819467D02*
X1159217Y813810D01*
X1117903Y802496D02*
X1129217Y813810D01*
X1112246Y808153D02*
X1123560Y819467D01*
X1112246Y808153D02*
X1117903Y802496D01*
X1123560Y819467D02*
X1129217Y813810D01*
X1087903Y802496D02*
X1099217Y813810D01*
X1082246Y808153D02*
X1093560Y819467D01*
X1082246Y808153D02*
X1087903Y802496D01*
X1093560Y819467D02*
X1099217Y813810D01*
X1057903Y802496D02*
X1069217Y813810D01*
X1052246Y808153D02*
X1063560Y819467D01*
X1052246Y808153D02*
X1057903Y802496D01*
X1063560Y819467D02*
X1069217Y813810D01*
X1027903Y802496D02*
X1039217Y813810D01*
X1022246Y808153D02*
X1033560Y819467D01*
X1022246Y808153D02*
X1027903Y802496D01*
X1033560Y819467D02*
X1039217Y813810D01*
X997903Y802496D02*
X1009217Y813810D01*
X992246Y808153D02*
X1003560Y819467D01*
X992246Y808153D02*
X997903Y802496D01*
X1003560Y819467D02*
X1009217Y813810D01*
X967903Y802496D02*
X979217Y813810D01*
X962246Y808153D02*
X973560Y819467D01*
X962246Y808153D02*
X967903Y802496D01*
X973560Y819467D02*
X979217Y813810D01*
X937903Y802496D02*
X949217Y813810D01*
X932246Y808153D02*
X943560Y819467D01*
X932246Y808153D02*
X937903Y802496D01*
X943560Y819467D02*
X949217Y813810D01*
X907903Y802496D02*
X919217Y813810D01*
X902246Y808153D02*
X913560Y819467D01*
X902246Y808153D02*
X907903Y802496D01*
X913560Y819467D02*
X919217Y813810D01*
X877903Y802496D02*
X889217Y813810D01*
X872246Y808153D02*
X883560Y819467D01*
X872246Y808153D02*
X877903Y802496D01*
X883560Y819467D02*
X889217Y813810D01*
X847903Y802496D02*
X859217Y813810D01*
X842246Y808153D02*
X853560Y819467D01*
X842246Y808153D02*
X847903Y802496D01*
X853560Y819467D02*
X859217Y813810D01*
X817903Y802496D02*
X829217Y813810D01*
X812246Y808153D02*
X823560Y819467D01*
X812246Y808153D02*
X817903Y802496D01*
X823560Y819467D02*
X829217Y813810D01*
X787903Y802496D02*
X799217Y813810D01*
X782246Y808153D02*
X793560Y819467D01*
X782246Y808153D02*
X787903Y802496D01*
X793560Y819467D02*
X799217Y813810D01*
X757903Y802496D02*
X769217Y813810D01*
X752246Y808153D02*
X763560Y819467D01*
X752246Y808153D02*
X757903Y802496D01*
X763560Y819467D02*
X769217Y813810D01*
X727903Y802496D02*
X739217Y813810D01*
X722246Y808153D02*
X733560Y819467D01*
X722246Y808153D02*
X727903Y802496D01*
X733560Y819467D02*
X739217Y813810D01*
X697903Y802496D02*
X709217Y813810D01*
X692246Y808153D02*
X703560Y819467D01*
X692246Y808153D02*
X697903Y802496D01*
X703560Y819467D02*
X709217Y813810D01*
X667903Y802496D02*
X679217Y813810D01*
X662246Y808153D02*
X673560Y819467D01*
X662246Y808153D02*
X667903Y802496D01*
X673560Y819467D02*
X679217Y813810D01*
X637903Y802496D02*
X649217Y813810D01*
X632246Y808153D02*
X643560Y819467D01*
X632246Y808153D02*
X637903Y802496D01*
X643560Y819467D02*
X649217Y813810D01*
X607903Y802496D02*
X619217Y813810D01*
X602246Y808153D02*
X613560Y819467D01*
X602246Y808153D02*
X607903Y802496D01*
X613560Y819467D02*
X619217Y813810D01*
X577903Y802496D02*
X589217Y813810D01*
X572246Y808153D02*
X583560Y819467D01*
X572246Y808153D02*
X577903Y802496D01*
X583560Y819467D02*
X589217Y813810D01*
X547903Y802496D02*
X559217Y813810D01*
X542246Y808153D02*
X553560Y819467D01*
X542246Y808153D02*
X547903Y802496D01*
X553560Y819467D02*
X559217Y813810D01*
X517903Y802496D02*
X529217Y813810D01*
X512246Y808153D02*
X523560Y819467D01*
X512246Y808153D02*
X517903Y802496D01*
X523560Y819467D02*
X529217Y813810D01*
X487903Y802496D02*
X499217Y813810D01*
X482246Y808153D02*
X493560Y819467D01*
X482246Y808153D02*
X487903Y802496D01*
X493560Y819467D02*
X499217Y813810D01*
X457903Y802496D02*
X469217Y813810D01*
X452246Y808153D02*
X463560Y819467D01*
X452246Y808153D02*
X457903Y802496D01*
X463560Y819467D02*
X469217Y813810D01*
X427903Y802496D02*
X439217Y813810D01*
X422246Y808153D02*
X433560Y819467D01*
X422246Y808153D02*
X427903Y802496D01*
X433560Y819467D02*
X439217Y813810D01*
X1567903Y832496D02*
X1579216Y843810D01*
X1562246Y838153D02*
X1573560Y849467D01*
X1562246Y838153D02*
X1567903Y832496D01*
X1573560Y849467D02*
X1579216Y843810D01*
X1537903Y832496D02*
X1549217Y843810D01*
X1532246Y838153D02*
X1543560Y849467D01*
X1532246Y838153D02*
X1537903Y832496D01*
X1543560Y849467D02*
X1549217Y843810D01*
X1507903Y832496D02*
X1519216Y843810D01*
X1502246Y838153D02*
X1513560Y849467D01*
X1502246Y838153D02*
X1507903Y832496D01*
X1513560Y849467D02*
X1519216Y843810D01*
X1477903Y832496D02*
X1489217Y843810D01*
X1472246Y838153D02*
X1483560Y849467D01*
X1472246Y838153D02*
X1477903Y832496D01*
X1483560Y849467D02*
X1489217Y843810D01*
X1447903Y832496D02*
X1459217Y843810D01*
X1442246Y838153D02*
X1453560Y849467D01*
X1442246Y838153D02*
X1447903Y832496D01*
X1453560Y849467D02*
X1459217Y843810D01*
X1417903Y832496D02*
X1429216Y843810D01*
X1412246Y838153D02*
X1423560Y849467D01*
X1412246Y838153D02*
X1417903Y832496D01*
X1423560Y849467D02*
X1429216Y843810D01*
X1387903Y832496D02*
X1399217Y843810D01*
X1382246Y838153D02*
X1393560Y849467D01*
X1382246Y838153D02*
X1387903Y832496D01*
X1393560Y849467D02*
X1399217Y843810D01*
X1357903Y832496D02*
X1369216Y843810D01*
X1352246Y838153D02*
X1363560Y849467D01*
X1352246Y838153D02*
X1357903Y832496D01*
X1363560Y849467D02*
X1369216Y843810D01*
X1327903Y832496D02*
X1339217Y843810D01*
X1322246Y838153D02*
X1333560Y849467D01*
X1322246Y838153D02*
X1327903Y832496D01*
X1333560Y849467D02*
X1339217Y843810D01*
X1297903Y832496D02*
X1309217Y843810D01*
X1292246Y838153D02*
X1303560Y849467D01*
X1292246Y838153D02*
X1297903Y832496D01*
X1303560Y849467D02*
X1309217Y843810D01*
X1267903Y832496D02*
X1279217Y843810D01*
X1262246Y838153D02*
X1273560Y849467D01*
X1262246Y838153D02*
X1267903Y832496D01*
X1273560Y849467D02*
X1279217Y843810D01*
X1237903Y832496D02*
X1249217Y843810D01*
X1232246Y838153D02*
X1243560Y849467D01*
X1232246Y838153D02*
X1237903Y832496D01*
X1243560Y849467D02*
X1249217Y843810D01*
X1207903Y832496D02*
X1219217Y843810D01*
X1202246Y838153D02*
X1213560Y849467D01*
X1202246Y838153D02*
X1207903Y832496D01*
X1213560Y849467D02*
X1219217Y843810D01*
X1177903Y832496D02*
X1189217Y843810D01*
X1172246Y838153D02*
X1183560Y849467D01*
X1172246Y838153D02*
X1177903Y832496D01*
X1183560Y849467D02*
X1189217Y843810D01*
X1147903Y832496D02*
X1159217Y843810D01*
X1142246Y838153D02*
X1153560Y849467D01*
X1142246Y838153D02*
X1147903Y832496D01*
X1153560Y849467D02*
X1159217Y843810D01*
X1117903Y832496D02*
X1129217Y843810D01*
X1112246Y838153D02*
X1123560Y849467D01*
X1112246Y838153D02*
X1117903Y832496D01*
X1123560Y849467D02*
X1129217Y843810D01*
X1087903Y832496D02*
X1099217Y843810D01*
X1082246Y838153D02*
X1093560Y849467D01*
X1082246Y838153D02*
X1087903Y832496D01*
X1093560Y849467D02*
X1099217Y843810D01*
X1057903Y832496D02*
X1069217Y843810D01*
X1052246Y838153D02*
X1063560Y849467D01*
X1052246Y838153D02*
X1057903Y832496D01*
X1063560Y849467D02*
X1069217Y843810D01*
X1027903Y832496D02*
X1039217Y843810D01*
X1022246Y838153D02*
X1033560Y849467D01*
X1022246Y838153D02*
X1027903Y832496D01*
X1033560Y849467D02*
X1039217Y843810D01*
X997903Y832496D02*
X1009217Y843810D01*
X992246Y838153D02*
X1003560Y849467D01*
X992246Y838153D02*
X997903Y832496D01*
X1003560Y849467D02*
X1009217Y843810D01*
X967903Y832496D02*
X979217Y843810D01*
X962246Y838153D02*
X973560Y849467D01*
X962246Y838153D02*
X967903Y832496D01*
X973560Y849467D02*
X979217Y843810D01*
X937903Y832496D02*
X949217Y843810D01*
X932246Y838153D02*
X943560Y849467D01*
X932246Y838153D02*
X937903Y832496D01*
X943560Y849467D02*
X949217Y843810D01*
X907903Y832496D02*
X919217Y843810D01*
X902246Y838153D02*
X913560Y849467D01*
X902246Y838153D02*
X907903Y832496D01*
X913560Y849467D02*
X919217Y843810D01*
X877903Y832496D02*
X889217Y843810D01*
X872246Y838153D02*
X883560Y849467D01*
X872246Y838153D02*
X877903Y832496D01*
X883560Y849467D02*
X889217Y843810D01*
X847903Y832496D02*
X859217Y843810D01*
X842246Y838153D02*
X853560Y849467D01*
X842246Y838153D02*
X847903Y832496D01*
X853560Y849467D02*
X859217Y843810D01*
X817903Y832496D02*
X829217Y843810D01*
X812246Y838153D02*
X823560Y849467D01*
X812246Y838153D02*
X817903Y832496D01*
X823560Y849467D02*
X829217Y843810D01*
X787903Y832496D02*
X799217Y843810D01*
X782246Y838153D02*
X793560Y849467D01*
X782246Y838153D02*
X787903Y832496D01*
X793560Y849467D02*
X799217Y843810D01*
X757903Y832496D02*
X769217Y843810D01*
X752246Y838153D02*
X763560Y849467D01*
X752246Y838153D02*
X757903Y832496D01*
X763560Y849467D02*
X769217Y843810D01*
X727903Y832496D02*
X739217Y843810D01*
X722246Y838153D02*
X733560Y849467D01*
X722246Y838153D02*
X727903Y832496D01*
X733560Y849467D02*
X739217Y843810D01*
X697903Y832496D02*
X709217Y843810D01*
X692246Y838153D02*
X703560Y849467D01*
X692246Y838153D02*
X697903Y832496D01*
X703560Y849467D02*
X709217Y843810D01*
X667903Y832496D02*
X679217Y843810D01*
X662246Y838153D02*
X673560Y849467D01*
X662246Y838153D02*
X667903Y832496D01*
X673560Y849467D02*
X679217Y843810D01*
X637903Y832496D02*
X649217Y843810D01*
X632246Y838153D02*
X643560Y849467D01*
X632246Y838153D02*
X637903Y832496D01*
X643560Y849467D02*
X649217Y843810D01*
X607903Y832496D02*
X619217Y843810D01*
X602246Y838153D02*
X613560Y849467D01*
X602246Y838153D02*
X607903Y832496D01*
X613560Y849467D02*
X619217Y843810D01*
X577903Y832496D02*
X589217Y843810D01*
X572246Y838153D02*
X583560Y849467D01*
X572246Y838153D02*
X577903Y832496D01*
X583560Y849467D02*
X589217Y843810D01*
X547903Y832496D02*
X559217Y843810D01*
X542246Y838153D02*
X553560Y849467D01*
X542246Y838153D02*
X547903Y832496D01*
X553560Y849467D02*
X559217Y843810D01*
X517903Y832496D02*
X529217Y843810D01*
X512246Y838153D02*
X523560Y849467D01*
X512246Y838153D02*
X517903Y832496D01*
X523560Y849467D02*
X529217Y843810D01*
X487903Y832496D02*
X499217Y843810D01*
X482246Y838153D02*
X493560Y849467D01*
X482246Y838153D02*
X487903Y832496D01*
X493560Y849467D02*
X499217Y843810D01*
X457903Y832496D02*
X469217Y843810D01*
X452246Y838153D02*
X463560Y849467D01*
X452246Y838153D02*
X457903Y832496D01*
X463560Y849467D02*
X469217Y843810D01*
X427903Y832496D02*
X439217Y843810D01*
X422246Y838153D02*
X433560Y849467D01*
X422246Y838153D02*
X427903Y832496D01*
X433560Y849467D02*
X439217Y843810D01*
X1567903Y862496D02*
X1579216Y873810D01*
X1562246Y868153D02*
X1573560Y879467D01*
X1562246Y868153D02*
X1567903Y862496D01*
X1573560Y879467D02*
X1579216Y873810D01*
X1537903Y862496D02*
X1549217Y873810D01*
X1532246Y868153D02*
X1543560Y879467D01*
X1532246Y868153D02*
X1537903Y862496D01*
X1543560Y879467D02*
X1549217Y873810D01*
X1507903Y862496D02*
X1519216Y873810D01*
X1502246Y868153D02*
X1513560Y879467D01*
X1502246Y868153D02*
X1507903Y862496D01*
X1513560Y879467D02*
X1519216Y873810D01*
X1477903Y862496D02*
X1489217Y873810D01*
X1472246Y868153D02*
X1483560Y879467D01*
X1472246Y868153D02*
X1477903Y862496D01*
X1483560Y879467D02*
X1489217Y873810D01*
X1447903Y862496D02*
X1459217Y873810D01*
X1442246Y868153D02*
X1453560Y879467D01*
X1442246Y868153D02*
X1447903Y862496D01*
X1453560Y879467D02*
X1459217Y873810D01*
X1417903Y862496D02*
X1429216Y873810D01*
X1412246Y868153D02*
X1423560Y879467D01*
X1412246Y868153D02*
X1417903Y862496D01*
X1423560Y879467D02*
X1429216Y873810D01*
X1387903Y862496D02*
X1399217Y873810D01*
X1382246Y868153D02*
X1393560Y879467D01*
X1382246Y868153D02*
X1387903Y862496D01*
X1393560Y879467D02*
X1399217Y873810D01*
X1357903Y862496D02*
X1369216Y873810D01*
X1352246Y868153D02*
X1363560Y879467D01*
X1352246Y868153D02*
X1357903Y862496D01*
X1363560Y879467D02*
X1369216Y873810D01*
X1327903Y862496D02*
X1339217Y873810D01*
X1322246Y868153D02*
X1333560Y879467D01*
X1322246Y868153D02*
X1327903Y862496D01*
X1333560Y879467D02*
X1339217Y873810D01*
X1297903Y862496D02*
X1309217Y873810D01*
X1292246Y868153D02*
X1303560Y879467D01*
X1292246Y868153D02*
X1297903Y862496D01*
X1303560Y879467D02*
X1309217Y873810D01*
X1267903Y862496D02*
X1279217Y873810D01*
X1262246Y868153D02*
X1273560Y879467D01*
X1262246Y868153D02*
X1267903Y862496D01*
X1273560Y879467D02*
X1279217Y873810D01*
X1237903Y862496D02*
X1249217Y873810D01*
X1232246Y868153D02*
X1243560Y879467D01*
X1232246Y868153D02*
X1237903Y862496D01*
X1243560Y879467D02*
X1249217Y873810D01*
X1207903Y862496D02*
X1219217Y873810D01*
X1202246Y868153D02*
X1213560Y879467D01*
X1202246Y868153D02*
X1207903Y862496D01*
X1213560Y879467D02*
X1219217Y873810D01*
X1177903Y862496D02*
X1189217Y873810D01*
X1172246Y868153D02*
X1183560Y879467D01*
X1172246Y868153D02*
X1177903Y862496D01*
X1183560Y879467D02*
X1189217Y873810D01*
X1147903Y862496D02*
X1159217Y873810D01*
X1142246Y868153D02*
X1153560Y879467D01*
X1142246Y868153D02*
X1147903Y862496D01*
X1153560Y879467D02*
X1159217Y873810D01*
X1117903Y862496D02*
X1129217Y873810D01*
X1112246Y868153D02*
X1123560Y879467D01*
X1112246Y868153D02*
X1117903Y862496D01*
X1123560Y879467D02*
X1129217Y873810D01*
X1087903Y862496D02*
X1099217Y873810D01*
X1082246Y868153D02*
X1093560Y879467D01*
X1082246Y868153D02*
X1087903Y862496D01*
X1093560Y879467D02*
X1099217Y873810D01*
X1057903Y862496D02*
X1069217Y873810D01*
X1052246Y868153D02*
X1063560Y879467D01*
X1052246Y868153D02*
X1057903Y862496D01*
X1063560Y879467D02*
X1069217Y873810D01*
X1027903Y862496D02*
X1039217Y873810D01*
X1022246Y868153D02*
X1033560Y879467D01*
X1022246Y868153D02*
X1027903Y862496D01*
X1033560Y879467D02*
X1039217Y873810D01*
X997903Y862496D02*
X1009217Y873810D01*
X992246Y868153D02*
X1003560Y879467D01*
X992246Y868153D02*
X997903Y862496D01*
X1003560Y879467D02*
X1009217Y873810D01*
X967903Y862496D02*
X979217Y873810D01*
X962246Y868153D02*
X973560Y879467D01*
X962246Y868153D02*
X967903Y862496D01*
X973560Y879467D02*
X979217Y873810D01*
X937903Y862496D02*
X949217Y873810D01*
X932246Y868153D02*
X943560Y879467D01*
X932246Y868153D02*
X937903Y862496D01*
X943560Y879467D02*
X949217Y873810D01*
X907903Y862496D02*
X919217Y873810D01*
X902246Y868153D02*
X913560Y879467D01*
X902246Y868153D02*
X907903Y862496D01*
X913560Y879467D02*
X919217Y873810D01*
X877903Y862496D02*
X889217Y873810D01*
X872246Y868153D02*
X883560Y879467D01*
X872246Y868153D02*
X877903Y862496D01*
X883560Y879467D02*
X889217Y873810D01*
X847903Y862496D02*
X859217Y873810D01*
X842246Y868153D02*
X853560Y879467D01*
X842246Y868153D02*
X847903Y862496D01*
X853560Y879467D02*
X859217Y873810D01*
X817903Y862496D02*
X829217Y873810D01*
X812246Y868153D02*
X823560Y879467D01*
X812246Y868153D02*
X817903Y862496D01*
X823560Y879467D02*
X829217Y873810D01*
X787903Y862496D02*
X799217Y873810D01*
X782246Y868153D02*
X793560Y879467D01*
X782246Y868153D02*
X787903Y862496D01*
X793560Y879467D02*
X799217Y873810D01*
X757903Y862496D02*
X769217Y873810D01*
X752246Y868153D02*
X763560Y879467D01*
X752246Y868153D02*
X757903Y862496D01*
X763560Y879467D02*
X769217Y873810D01*
X727903Y862496D02*
X739217Y873810D01*
X722246Y868153D02*
X733560Y879467D01*
X722246Y868153D02*
X727903Y862496D01*
X733560Y879467D02*
X739217Y873810D01*
X697903Y862496D02*
X709217Y873810D01*
X692246Y868153D02*
X703560Y879467D01*
X692246Y868153D02*
X697903Y862496D01*
X703560Y879467D02*
X709217Y873810D01*
X667903Y862496D02*
X679217Y873810D01*
X662246Y868153D02*
X673560Y879467D01*
X662246Y868153D02*
X667903Y862496D01*
X673560Y879467D02*
X679217Y873810D01*
X637903Y862496D02*
X649217Y873810D01*
X632246Y868153D02*
X643560Y879467D01*
X632246Y868153D02*
X637903Y862496D01*
X643560Y879467D02*
X649217Y873810D01*
X607903Y862496D02*
X619217Y873810D01*
X602246Y868153D02*
X613560Y879467D01*
X602246Y868153D02*
X607903Y862496D01*
X613560Y879467D02*
X619217Y873810D01*
X577903Y862496D02*
X589217Y873810D01*
X572246Y868153D02*
X583560Y879467D01*
X572246Y868153D02*
X577903Y862496D01*
X583560Y879467D02*
X589217Y873810D01*
X547903Y862496D02*
X559217Y873810D01*
X542246Y868153D02*
X553560Y879467D01*
X542246Y868153D02*
X547903Y862496D01*
X553560Y879467D02*
X559217Y873810D01*
X517903Y862496D02*
X529217Y873810D01*
X512246Y868153D02*
X523560Y879467D01*
X512246Y868153D02*
X517903Y862496D01*
X523560Y879467D02*
X529217Y873810D01*
X487903Y862496D02*
X499217Y873810D01*
X482246Y868153D02*
X493560Y879467D01*
X482246Y868153D02*
X487903Y862496D01*
X493560Y879467D02*
X499217Y873810D01*
X457903Y862496D02*
X469217Y873810D01*
X452246Y868153D02*
X463560Y879467D01*
X452246Y868153D02*
X457903Y862496D01*
X463560Y879467D02*
X469217Y873810D01*
X427903Y862496D02*
X439217Y873810D01*
X422246Y868153D02*
X433560Y879467D01*
X422246Y868153D02*
X427903Y862496D01*
X433560Y879467D02*
X439217Y873810D01*
X1567903Y892496D02*
X1579216Y903810D01*
X1562246Y898153D02*
X1573560Y909467D01*
X1562246Y898153D02*
X1567903Y892496D01*
X1573560Y909467D02*
X1579216Y903810D01*
X1537903Y892496D02*
X1549217Y903810D01*
X1532246Y898153D02*
X1543560Y909467D01*
X1532246Y898153D02*
X1537903Y892496D01*
X1543560Y909467D02*
X1549217Y903810D01*
X1507903Y892496D02*
X1519216Y903810D01*
X1502246Y898153D02*
X1513560Y909467D01*
X1502246Y898153D02*
X1507903Y892496D01*
X1513560Y909467D02*
X1519216Y903810D01*
X1477903Y892496D02*
X1489217Y903810D01*
X1472246Y898153D02*
X1483560Y909467D01*
X1472246Y898153D02*
X1477903Y892496D01*
X1483560Y909467D02*
X1489217Y903810D01*
X1447903Y892496D02*
X1459217Y903810D01*
X1442246Y898153D02*
X1453560Y909467D01*
X1442246Y898153D02*
X1447903Y892496D01*
X1453560Y909467D02*
X1459217Y903810D01*
X1417903Y892496D02*
X1429216Y903810D01*
X1412246Y898153D02*
X1423560Y909467D01*
X1412246Y898153D02*
X1417903Y892496D01*
X1423560Y909467D02*
X1429216Y903810D01*
X1387903Y892496D02*
X1399217Y903810D01*
X1382246Y898153D02*
X1393560Y909467D01*
X1382246Y898153D02*
X1387903Y892496D01*
X1393560Y909467D02*
X1399217Y903810D01*
X1357903Y892496D02*
X1369216Y903810D01*
X1352246Y898153D02*
X1363560Y909467D01*
X1352246Y898153D02*
X1357903Y892496D01*
X1363560Y909467D02*
X1369216Y903810D01*
X1327903Y892496D02*
X1339217Y903810D01*
X1322246Y898153D02*
X1333560Y909467D01*
X1322246Y898153D02*
X1327903Y892496D01*
X1333560Y909467D02*
X1339217Y903810D01*
X1297903Y892496D02*
X1309217Y903810D01*
X1292246Y898153D02*
X1303560Y909467D01*
X1292246Y898153D02*
X1297903Y892496D01*
X1303560Y909467D02*
X1309217Y903810D01*
X1267903Y892496D02*
X1279217Y903810D01*
X1262246Y898153D02*
X1273560Y909467D01*
X1262246Y898153D02*
X1267903Y892496D01*
X1273560Y909467D02*
X1279217Y903810D01*
X1237903Y892496D02*
X1249217Y903810D01*
X1232246Y898153D02*
X1243560Y909467D01*
X1232246Y898153D02*
X1237903Y892496D01*
X1243560Y909467D02*
X1249217Y903810D01*
X1207903Y892496D02*
X1219217Y903810D01*
X1202246Y898153D02*
X1213560Y909467D01*
X1202246Y898153D02*
X1207903Y892496D01*
X1213560Y909467D02*
X1219217Y903810D01*
X1177903Y892496D02*
X1189217Y903810D01*
X1172246Y898153D02*
X1183560Y909467D01*
X1172246Y898153D02*
X1177903Y892496D01*
X1183560Y909467D02*
X1189217Y903810D01*
X1147903Y892496D02*
X1159217Y903810D01*
X1142246Y898153D02*
X1153560Y909467D01*
X1142246Y898153D02*
X1147903Y892496D01*
X1153560Y909467D02*
X1159217Y903810D01*
X1117903Y892496D02*
X1129217Y903810D01*
X1112246Y898153D02*
X1123560Y909467D01*
X1112246Y898153D02*
X1117903Y892496D01*
X1123560Y909467D02*
X1129217Y903810D01*
X1087903Y892496D02*
X1099217Y903810D01*
X1082246Y898153D02*
X1093560Y909467D01*
X1082246Y898153D02*
X1087903Y892496D01*
X1093560Y909467D02*
X1099217Y903810D01*
X1057903Y892496D02*
X1069217Y903810D01*
X1052246Y898153D02*
X1063560Y909467D01*
X1052246Y898153D02*
X1057903Y892496D01*
X1063560Y909467D02*
X1069217Y903810D01*
X1027903Y892496D02*
X1039217Y903810D01*
X1022246Y898153D02*
X1033560Y909467D01*
X1022246Y898153D02*
X1027903Y892496D01*
X1033560Y909467D02*
X1039217Y903810D01*
X997903Y892496D02*
X1009217Y903810D01*
X992246Y898153D02*
X1003560Y909467D01*
X992246Y898153D02*
X997903Y892496D01*
X1003560Y909467D02*
X1009217Y903810D01*
X967903Y892496D02*
X979217Y903810D01*
X962246Y898153D02*
X973560Y909467D01*
X962246Y898153D02*
X967903Y892496D01*
X973560Y909467D02*
X979217Y903810D01*
X937903Y892496D02*
X949217Y903810D01*
X932246Y898153D02*
X943560Y909467D01*
X932246Y898153D02*
X937903Y892496D01*
X943560Y909467D02*
X949217Y903810D01*
X907903Y892496D02*
X919217Y903810D01*
X902246Y898153D02*
X913560Y909467D01*
X902246Y898153D02*
X907903Y892496D01*
X913560Y909467D02*
X919217Y903810D01*
X877903Y892496D02*
X889217Y903810D01*
X872246Y898153D02*
X883560Y909467D01*
X872246Y898153D02*
X877903Y892496D01*
X883560Y909467D02*
X889217Y903810D01*
X847903Y892496D02*
X859217Y903810D01*
X842246Y898153D02*
X853560Y909467D01*
X842246Y898153D02*
X847903Y892496D01*
X853560Y909467D02*
X859217Y903810D01*
X817903Y892496D02*
X829217Y903810D01*
X812246Y898153D02*
X823560Y909467D01*
X812246Y898153D02*
X817903Y892496D01*
X823560Y909467D02*
X829217Y903810D01*
X787903Y892496D02*
X799217Y903810D01*
X782246Y898153D02*
X793560Y909467D01*
X782246Y898153D02*
X787903Y892496D01*
X793560Y909467D02*
X799217Y903810D01*
X757903Y892496D02*
X769217Y903810D01*
X752246Y898153D02*
X763560Y909467D01*
X752246Y898153D02*
X757903Y892496D01*
X763560Y909467D02*
X769217Y903810D01*
X727903Y892496D02*
X739217Y903810D01*
X722246Y898153D02*
X733560Y909467D01*
X722246Y898153D02*
X727903Y892496D01*
X733560Y909467D02*
X739217Y903810D01*
X697903Y892496D02*
X709217Y903810D01*
X692246Y898153D02*
X703560Y909467D01*
X692246Y898153D02*
X697903Y892496D01*
X703560Y909467D02*
X709217Y903810D01*
X667903Y892496D02*
X679217Y903810D01*
X662246Y898153D02*
X673560Y909467D01*
X662246Y898153D02*
X667903Y892496D01*
X673560Y909467D02*
X679217Y903810D01*
X637903Y892496D02*
X649217Y903810D01*
X632246Y898153D02*
X643560Y909467D01*
X632246Y898153D02*
X637903Y892496D01*
X643560Y909467D02*
X649217Y903810D01*
X607903Y892496D02*
X619217Y903810D01*
X602246Y898153D02*
X613560Y909467D01*
X602246Y898153D02*
X607903Y892496D01*
X613560Y909467D02*
X619217Y903810D01*
X577903Y892496D02*
X589217Y903810D01*
X572246Y898153D02*
X583560Y909467D01*
X572246Y898153D02*
X577903Y892496D01*
X583560Y909467D02*
X589217Y903810D01*
X547903Y892496D02*
X559217Y903810D01*
X542246Y898153D02*
X553560Y909467D01*
X542246Y898153D02*
X547903Y892496D01*
X553560Y909467D02*
X559217Y903810D01*
X517903Y892496D02*
X529217Y903810D01*
X512246Y898153D02*
X523560Y909467D01*
X512246Y898153D02*
X517903Y892496D01*
X523560Y909467D02*
X529217Y903810D01*
X487903Y892496D02*
X499217Y903810D01*
X482246Y898153D02*
X493560Y909467D01*
X482246Y898153D02*
X487903Y892496D01*
X493560Y909467D02*
X499217Y903810D01*
X457903Y892496D02*
X469217Y903810D01*
X452246Y898153D02*
X463560Y909467D01*
X452246Y898153D02*
X457903Y892496D01*
X463560Y909467D02*
X469217Y903810D01*
X427903Y892496D02*
X439217Y903810D01*
X422246Y898153D02*
X433560Y909467D01*
X422246Y898153D02*
X427903Y892496D01*
X433560Y909467D02*
X439217Y903810D01*
X1567903Y922496D02*
X1579216Y933810D01*
X1562246Y928153D02*
X1573560Y939467D01*
X1562246Y928153D02*
X1567903Y922496D01*
X1573560Y939467D02*
X1579216Y933810D01*
X1537903Y922496D02*
X1549217Y933810D01*
X1532246Y928153D02*
X1543560Y939467D01*
X1532246Y928153D02*
X1537903Y922496D01*
X1543560Y939467D02*
X1549217Y933810D01*
X1507903Y922496D02*
X1519216Y933810D01*
X1502246Y928153D02*
X1513560Y939467D01*
X1502246Y928153D02*
X1507903Y922496D01*
X1513560Y939467D02*
X1519216Y933810D01*
X1477903Y922496D02*
X1489217Y933810D01*
X1472246Y928153D02*
X1483560Y939467D01*
X1472246Y928153D02*
X1477903Y922496D01*
X1483560Y939467D02*
X1489217Y933810D01*
X1447903Y922496D02*
X1459217Y933810D01*
X1442246Y928153D02*
X1453560Y939467D01*
X1442246Y928153D02*
X1447903Y922496D01*
X1453560Y939467D02*
X1459217Y933810D01*
X1417903Y922496D02*
X1429216Y933810D01*
X1412246Y928153D02*
X1423560Y939467D01*
X1412246Y928153D02*
X1417903Y922496D01*
X1423560Y939467D02*
X1429216Y933810D01*
X1387903Y922496D02*
X1399217Y933810D01*
X1382246Y928153D02*
X1393560Y939467D01*
X1382246Y928153D02*
X1387903Y922496D01*
X1393560Y939467D02*
X1399217Y933810D01*
X1357903Y922496D02*
X1369216Y933810D01*
X1352246Y928153D02*
X1363560Y939467D01*
X1352246Y928153D02*
X1357903Y922496D01*
X1363560Y939467D02*
X1369216Y933810D01*
X1327903Y922496D02*
X1339217Y933810D01*
X1322246Y928153D02*
X1333560Y939467D01*
X1322246Y928153D02*
X1327903Y922496D01*
X1333560Y939467D02*
X1339217Y933810D01*
X1297903Y922496D02*
X1309217Y933810D01*
X1292246Y928153D02*
X1303560Y939467D01*
X1292246Y928153D02*
X1297903Y922496D01*
X1303560Y939467D02*
X1309217Y933810D01*
X1267903Y922496D02*
X1279217Y933810D01*
X1262246Y928153D02*
X1273560Y939467D01*
X1262246Y928153D02*
X1267903Y922496D01*
X1273560Y939467D02*
X1279217Y933810D01*
X1237903Y922496D02*
X1249217Y933810D01*
X1232246Y928153D02*
X1243560Y939467D01*
X1232246Y928153D02*
X1237903Y922496D01*
X1243560Y939467D02*
X1249217Y933810D01*
X1207903Y922496D02*
X1219217Y933810D01*
X1202246Y928153D02*
X1213560Y939467D01*
X1202246Y928153D02*
X1207903Y922496D01*
X1213560Y939467D02*
X1219217Y933810D01*
X1177903Y922496D02*
X1189217Y933810D01*
X1172246Y928153D02*
X1183560Y939467D01*
X1172246Y928153D02*
X1177903Y922496D01*
X1183560Y939467D02*
X1189217Y933810D01*
X1147903Y922496D02*
X1159217Y933810D01*
X1142246Y928153D02*
X1153560Y939467D01*
X1142246Y928153D02*
X1147903Y922496D01*
X1153560Y939467D02*
X1159217Y933810D01*
X1117903Y922496D02*
X1129217Y933810D01*
X1112246Y928153D02*
X1123560Y939467D01*
X1112246Y928153D02*
X1117903Y922496D01*
X1123560Y939467D02*
X1129217Y933810D01*
X1087903Y922496D02*
X1099217Y933810D01*
X1082246Y928153D02*
X1093560Y939467D01*
X1082246Y928153D02*
X1087903Y922496D01*
X1093560Y939467D02*
X1099217Y933810D01*
X1057903Y922496D02*
X1069217Y933810D01*
X1052246Y928153D02*
X1063560Y939467D01*
X1052246Y928153D02*
X1057903Y922496D01*
X1063560Y939467D02*
X1069217Y933810D01*
X1027903Y922496D02*
X1039217Y933810D01*
X1022246Y928153D02*
X1033560Y939467D01*
X1022246Y928153D02*
X1027903Y922496D01*
X1033560Y939467D02*
X1039217Y933810D01*
X997903Y922496D02*
X1009217Y933810D01*
X992246Y928153D02*
X1003560Y939467D01*
X992246Y928153D02*
X997903Y922496D01*
X1003560Y939467D02*
X1009217Y933810D01*
X967903Y922496D02*
X979217Y933810D01*
X962246Y928153D02*
X973560Y939467D01*
X962246Y928153D02*
X967903Y922496D01*
X973560Y939467D02*
X979217Y933810D01*
X937903Y922496D02*
X949217Y933810D01*
X932246Y928153D02*
X943560Y939467D01*
X932246Y928153D02*
X937903Y922496D01*
X943560Y939467D02*
X949217Y933810D01*
X907903Y922496D02*
X919217Y933810D01*
X902246Y928153D02*
X913560Y939467D01*
X902246Y928153D02*
X907903Y922496D01*
X913560Y939467D02*
X919217Y933810D01*
X877903Y922496D02*
X889217Y933810D01*
X872246Y928153D02*
X883560Y939467D01*
X872246Y928153D02*
X877903Y922496D01*
X883560Y939467D02*
X889217Y933810D01*
X847903Y922496D02*
X859217Y933810D01*
X842246Y928153D02*
X853560Y939467D01*
X842246Y928153D02*
X847903Y922496D01*
X853560Y939467D02*
X859217Y933810D01*
X817903Y922496D02*
X829217Y933810D01*
X812246Y928153D02*
X823560Y939467D01*
X812246Y928153D02*
X817903Y922496D01*
X823560Y939467D02*
X829217Y933810D01*
X787903Y922496D02*
X799217Y933810D01*
X782246Y928153D02*
X793560Y939467D01*
X782246Y928153D02*
X787903Y922496D01*
X793560Y939467D02*
X799217Y933810D01*
X757903Y922496D02*
X769217Y933810D01*
X752246Y928153D02*
X763560Y939467D01*
X752246Y928153D02*
X757903Y922496D01*
X763560Y939467D02*
X769217Y933810D01*
X727903Y922496D02*
X739217Y933810D01*
X722246Y928153D02*
X733560Y939467D01*
X722246Y928153D02*
X727903Y922496D01*
X733560Y939467D02*
X739217Y933810D01*
X697903Y922496D02*
X709217Y933810D01*
X692246Y928153D02*
X703560Y939467D01*
X692246Y928153D02*
X697903Y922496D01*
X703560Y939467D02*
X709217Y933810D01*
X667903Y922496D02*
X679217Y933810D01*
X662246Y928153D02*
X673560Y939467D01*
X662246Y928153D02*
X667903Y922496D01*
X673560Y939467D02*
X679217Y933810D01*
X637903Y922496D02*
X649217Y933810D01*
X632246Y928153D02*
X643560Y939467D01*
X632246Y928153D02*
X637903Y922496D01*
X643560Y939467D02*
X649217Y933810D01*
X607903Y922496D02*
X619217Y933810D01*
X602246Y928153D02*
X613560Y939467D01*
X602246Y928153D02*
X607903Y922496D01*
X613560Y939467D02*
X619217Y933810D01*
X577903Y922496D02*
X589217Y933810D01*
X572246Y928153D02*
X583560Y939467D01*
X572246Y928153D02*
X577903Y922496D01*
X583560Y939467D02*
X589217Y933810D01*
X547903Y922496D02*
X559217Y933810D01*
X542246Y928153D02*
X553560Y939467D01*
X542246Y928153D02*
X547903Y922496D01*
X553560Y939467D02*
X559217Y933810D01*
X517903Y922496D02*
X529217Y933810D01*
X512246Y928153D02*
X523560Y939467D01*
X512246Y928153D02*
X517903Y922496D01*
X523560Y939467D02*
X529217Y933810D01*
X487903Y922496D02*
X499217Y933810D01*
X482246Y928153D02*
X493560Y939467D01*
X482246Y928153D02*
X487903Y922496D01*
X493560Y939467D02*
X499217Y933810D01*
X457903Y922496D02*
X469217Y933810D01*
X452246Y928153D02*
X463560Y939467D01*
X452246Y928153D02*
X457903Y922496D01*
X463560Y939467D02*
X469217Y933810D01*
X427903Y922496D02*
X439217Y933810D01*
X422246Y928153D02*
X433560Y939467D01*
X422246Y928153D02*
X427903Y922496D01*
X433560Y939467D02*
X439217Y933810D01*
X1567903Y952496D02*
X1579216Y963810D01*
X1562246Y958153D02*
X1573560Y969467D01*
X1562246Y958153D02*
X1567903Y952496D01*
X1573560Y969467D02*
X1579216Y963810D01*
X1537903Y952496D02*
X1549217Y963810D01*
X1532246Y958153D02*
X1543560Y969467D01*
X1532246Y958153D02*
X1537903Y952496D01*
X1543560Y969467D02*
X1549217Y963810D01*
X1507903Y952496D02*
X1519216Y963810D01*
X1502246Y958153D02*
X1513560Y969467D01*
X1502246Y958153D02*
X1507903Y952496D01*
X1513560Y969467D02*
X1519216Y963810D01*
X1477903Y952496D02*
X1489217Y963810D01*
X1472246Y958153D02*
X1483560Y969467D01*
X1472246Y958153D02*
X1477903Y952496D01*
X1483560Y969467D02*
X1489217Y963810D01*
X1447903Y952496D02*
X1459217Y963810D01*
X1442246Y958153D02*
X1453560Y969467D01*
X1442246Y958153D02*
X1447903Y952496D01*
X1453560Y969467D02*
X1459217Y963810D01*
X1417903Y952496D02*
X1429216Y963810D01*
X1412246Y958153D02*
X1423560Y969467D01*
X1412246Y958153D02*
X1417903Y952496D01*
X1423560Y969467D02*
X1429216Y963810D01*
X1387903Y952496D02*
X1399217Y963810D01*
X1382246Y958153D02*
X1393560Y969467D01*
X1382246Y958153D02*
X1387903Y952496D01*
X1393560Y969467D02*
X1399217Y963810D01*
X1357903Y952496D02*
X1369216Y963810D01*
X1352246Y958153D02*
X1363560Y969467D01*
X1352246Y958153D02*
X1357903Y952496D01*
X1363560Y969467D02*
X1369216Y963810D01*
X1327903Y952496D02*
X1339217Y963810D01*
X1322246Y958153D02*
X1333560Y969467D01*
X1322246Y958153D02*
X1327903Y952496D01*
X1333560Y969467D02*
X1339217Y963810D01*
X1297903Y952496D02*
X1309217Y963810D01*
X1292246Y958153D02*
X1303560Y969467D01*
X1292246Y958153D02*
X1297903Y952496D01*
X1303560Y969467D02*
X1309217Y963810D01*
X1267903Y952496D02*
X1279217Y963810D01*
X1262246Y958153D02*
X1273560Y969467D01*
X1262246Y958153D02*
X1267903Y952496D01*
X1273560Y969467D02*
X1279217Y963810D01*
X1237903Y952496D02*
X1249217Y963810D01*
X1232246Y958153D02*
X1243560Y969467D01*
X1232246Y958153D02*
X1237903Y952496D01*
X1243560Y969467D02*
X1249217Y963810D01*
X1207903Y952496D02*
X1219217Y963810D01*
X1202246Y958153D02*
X1213560Y969467D01*
X1202246Y958153D02*
X1207903Y952496D01*
X1213560Y969467D02*
X1219217Y963810D01*
X1177903Y952496D02*
X1189217Y963810D01*
X1172246Y958153D02*
X1183560Y969467D01*
X1172246Y958153D02*
X1177903Y952496D01*
X1183560Y969467D02*
X1189217Y963810D01*
X1147903Y952496D02*
X1159217Y963810D01*
X1142246Y958153D02*
X1153560Y969467D01*
X1142246Y958153D02*
X1147903Y952496D01*
X1153560Y969467D02*
X1159217Y963810D01*
X1117903Y952496D02*
X1129217Y963810D01*
X1112246Y958153D02*
X1123560Y969467D01*
X1112246Y958153D02*
X1117903Y952496D01*
X1123560Y969467D02*
X1129217Y963810D01*
X1087903Y952496D02*
X1099217Y963810D01*
X1082246Y958153D02*
X1093560Y969467D01*
X1082246Y958153D02*
X1087903Y952496D01*
X1093560Y969467D02*
X1099217Y963810D01*
X1057903Y952496D02*
X1069217Y963810D01*
X1052246Y958153D02*
X1063560Y969467D01*
X1052246Y958153D02*
X1057903Y952496D01*
X1063560Y969467D02*
X1069217Y963810D01*
X1027903Y952496D02*
X1039217Y963810D01*
X1022246Y958153D02*
X1033560Y969467D01*
X1022246Y958153D02*
X1027903Y952496D01*
X1033560Y969467D02*
X1039217Y963810D01*
X997903Y952496D02*
X1009217Y963810D01*
X992246Y958153D02*
X1003560Y969467D01*
X992246Y958153D02*
X997903Y952496D01*
X1003560Y969467D02*
X1009217Y963810D01*
X967903Y952496D02*
X979217Y963810D01*
X962246Y958153D02*
X973560Y969467D01*
X962246Y958153D02*
X967903Y952496D01*
X973560Y969467D02*
X979217Y963810D01*
X937903Y952496D02*
X949217Y963810D01*
X932246Y958153D02*
X943560Y969467D01*
X932246Y958153D02*
X937903Y952496D01*
X943560Y969467D02*
X949217Y963810D01*
X907903Y952496D02*
X919217Y963810D01*
X902246Y958153D02*
X913560Y969467D01*
X902246Y958153D02*
X907903Y952496D01*
X913560Y969467D02*
X919217Y963810D01*
X877903Y952496D02*
X889217Y963810D01*
X872246Y958153D02*
X883560Y969467D01*
X872246Y958153D02*
X877903Y952496D01*
X883560Y969467D02*
X889217Y963810D01*
X847903Y952496D02*
X859217Y963810D01*
X842246Y958153D02*
X853560Y969467D01*
X842246Y958153D02*
X847903Y952496D01*
X853560Y969467D02*
X859217Y963810D01*
X817903Y952496D02*
X829217Y963810D01*
X812246Y958153D02*
X823560Y969467D01*
X812246Y958153D02*
X817903Y952496D01*
X823560Y969467D02*
X829217Y963810D01*
X787903Y952496D02*
X799217Y963810D01*
X782246Y958153D02*
X793560Y969467D01*
X782246Y958153D02*
X787903Y952496D01*
X793560Y969467D02*
X799217Y963810D01*
X757903Y952496D02*
X769217Y963810D01*
X752246Y958153D02*
X763560Y969467D01*
X752246Y958153D02*
X757903Y952496D01*
X763560Y969467D02*
X769217Y963810D01*
X727903Y952496D02*
X739217Y963810D01*
X722246Y958153D02*
X733560Y969467D01*
X722246Y958153D02*
X727903Y952496D01*
X733560Y969467D02*
X739217Y963810D01*
X697903Y952496D02*
X709217Y963810D01*
X692246Y958153D02*
X703560Y969467D01*
X692246Y958153D02*
X697903Y952496D01*
X703560Y969467D02*
X709217Y963810D01*
X667903Y952496D02*
X679217Y963810D01*
X662246Y958153D02*
X673560Y969467D01*
X662246Y958153D02*
X667903Y952496D01*
X673560Y969467D02*
X679217Y963810D01*
X637903Y952496D02*
X649217Y963810D01*
X632246Y958153D02*
X643560Y969467D01*
X632246Y958153D02*
X637903Y952496D01*
X643560Y969467D02*
X649217Y963810D01*
X607903Y952496D02*
X619217Y963810D01*
X602246Y958153D02*
X613560Y969467D01*
X602246Y958153D02*
X607903Y952496D01*
X613560Y969467D02*
X619217Y963810D01*
X577903Y952496D02*
X589217Y963810D01*
X572246Y958153D02*
X583560Y969467D01*
X572246Y958153D02*
X577903Y952496D01*
X583560Y969467D02*
X589217Y963810D01*
X547903Y952496D02*
X559217Y963810D01*
X542246Y958153D02*
X553560Y969467D01*
X542246Y958153D02*
X547903Y952496D01*
X553560Y969467D02*
X559217Y963810D01*
X517903Y952496D02*
X529217Y963810D01*
X512246Y958153D02*
X523560Y969467D01*
X512246Y958153D02*
X517903Y952496D01*
X523560Y969467D02*
X529217Y963810D01*
X487903Y952496D02*
X499217Y963810D01*
X482246Y958153D02*
X493560Y969467D01*
X482246Y958153D02*
X487903Y952496D01*
X493560Y969467D02*
X499217Y963810D01*
X457903Y952496D02*
X469217Y963810D01*
X452246Y958153D02*
X463560Y969467D01*
X452246Y958153D02*
X457903Y952496D01*
X463560Y969467D02*
X469217Y963810D01*
X427903Y952496D02*
X439217Y963810D01*
X422246Y958153D02*
X433560Y969467D01*
X422246Y958153D02*
X427903Y952496D01*
X433560Y969467D02*
X439217Y963810D01*
X1567903Y982496D02*
X1579216Y993810D01*
X1562246Y988153D02*
X1573560Y999467D01*
X1562246Y988153D02*
X1567903Y982496D01*
X1573560Y999467D02*
X1579216Y993810D01*
X1537903Y982496D02*
X1549217Y993810D01*
X1532246Y988153D02*
X1543560Y999467D01*
X1532246Y988153D02*
X1537903Y982496D01*
X1543560Y999467D02*
X1549217Y993810D01*
X1507903Y982496D02*
X1519216Y993810D01*
X1502246Y988153D02*
X1513560Y999467D01*
X1502246Y988153D02*
X1507903Y982496D01*
X1513560Y999467D02*
X1519216Y993810D01*
X1477903Y982496D02*
X1489217Y993810D01*
X1472246Y988153D02*
X1483560Y999467D01*
X1472246Y988153D02*
X1477903Y982496D01*
X1483560Y999467D02*
X1489217Y993810D01*
X1447903Y982496D02*
X1459217Y993810D01*
X1442246Y988153D02*
X1453560Y999467D01*
X1442246Y988153D02*
X1447903Y982496D01*
X1453560Y999467D02*
X1459217Y993810D01*
X1417903Y982496D02*
X1429216Y993810D01*
X1412246Y988153D02*
X1423560Y999467D01*
X1412246Y988153D02*
X1417903Y982496D01*
X1423560Y999467D02*
X1429216Y993810D01*
X1387903Y982496D02*
X1399217Y993810D01*
X1382246Y988153D02*
X1393560Y999467D01*
X1382246Y988153D02*
X1387903Y982496D01*
X1393560Y999467D02*
X1399217Y993810D01*
X1357903Y982496D02*
X1369216Y993810D01*
X1352246Y988153D02*
X1363560Y999467D01*
X1352246Y988153D02*
X1357903Y982496D01*
X1363560Y999467D02*
X1369216Y993810D01*
X1327903Y982496D02*
X1339217Y993810D01*
X1322246Y988153D02*
X1333560Y999467D01*
X1322246Y988153D02*
X1327903Y982496D01*
X1333560Y999467D02*
X1339217Y993810D01*
X1297903Y982496D02*
X1309217Y993810D01*
X1292246Y988153D02*
X1303560Y999467D01*
X1292246Y988153D02*
X1297903Y982496D01*
X1303560Y999467D02*
X1309217Y993810D01*
X1267903Y982496D02*
X1279217Y993810D01*
X1262246Y988153D02*
X1273560Y999467D01*
X1262246Y988153D02*
X1267903Y982496D01*
X1273560Y999467D02*
X1279217Y993810D01*
X1237903Y982496D02*
X1249217Y993810D01*
X1232246Y988153D02*
X1243560Y999467D01*
X1232246Y988153D02*
X1237903Y982496D01*
X1243560Y999467D02*
X1249217Y993810D01*
X1207903Y982496D02*
X1219217Y993810D01*
X1202246Y988153D02*
X1213560Y999467D01*
X1202246Y988153D02*
X1207903Y982496D01*
X1213560Y999467D02*
X1219217Y993810D01*
X1177903Y982496D02*
X1189217Y993810D01*
X1172246Y988153D02*
X1183560Y999467D01*
X1172246Y988153D02*
X1177903Y982496D01*
X1183560Y999467D02*
X1189217Y993810D01*
X1147903Y982496D02*
X1159217Y993810D01*
X1142246Y988153D02*
X1153560Y999467D01*
X1142246Y988153D02*
X1147903Y982496D01*
X1153560Y999467D02*
X1159217Y993810D01*
X1117903Y982496D02*
X1129217Y993810D01*
X1112246Y988153D02*
X1123560Y999467D01*
X1112246Y988153D02*
X1117903Y982496D01*
X1123560Y999467D02*
X1129217Y993810D01*
X1087903Y982496D02*
X1099217Y993810D01*
X1082246Y988153D02*
X1093560Y999467D01*
X1082246Y988153D02*
X1087903Y982496D01*
X1093560Y999467D02*
X1099217Y993810D01*
X1057903Y982496D02*
X1069217Y993810D01*
X1052246Y988153D02*
X1063560Y999467D01*
X1052246Y988153D02*
X1057903Y982496D01*
X1063560Y999467D02*
X1069217Y993810D01*
X1027903Y982496D02*
X1039217Y993810D01*
X1022246Y988153D02*
X1033560Y999467D01*
X1022246Y988153D02*
X1027903Y982496D01*
X1033560Y999467D02*
X1039217Y993810D01*
X997903Y982496D02*
X1009217Y993810D01*
X992246Y988153D02*
X1003560Y999467D01*
X992246Y988153D02*
X997903Y982496D01*
X1003560Y999467D02*
X1009217Y993810D01*
X967903Y982496D02*
X979217Y993810D01*
X962246Y988153D02*
X973560Y999467D01*
X962246Y988153D02*
X967903Y982496D01*
X973560Y999467D02*
X979217Y993810D01*
X937903Y982496D02*
X949217Y993810D01*
X932246Y988153D02*
X943560Y999467D01*
X932246Y988153D02*
X937903Y982496D01*
X943560Y999467D02*
X949217Y993810D01*
X907903Y982496D02*
X919217Y993810D01*
X902246Y988153D02*
X913560Y999467D01*
X902246Y988153D02*
X907903Y982496D01*
X913560Y999467D02*
X919217Y993810D01*
X877903Y982496D02*
X889217Y993810D01*
X872246Y988153D02*
X883560Y999467D01*
X872246Y988153D02*
X877903Y982496D01*
X883560Y999467D02*
X889217Y993810D01*
X847903Y982496D02*
X859217Y993810D01*
X842246Y988153D02*
X853560Y999467D01*
X842246Y988153D02*
X847903Y982496D01*
X853560Y999467D02*
X859217Y993810D01*
X817903Y982496D02*
X829217Y993810D01*
X812246Y988153D02*
X823560Y999467D01*
X812246Y988153D02*
X817903Y982496D01*
X823560Y999467D02*
X829217Y993810D01*
X787903Y982496D02*
X799217Y993810D01*
X782246Y988153D02*
X793560Y999467D01*
X782246Y988153D02*
X787903Y982496D01*
X793560Y999467D02*
X799217Y993810D01*
X757903Y982496D02*
X769217Y993810D01*
X752246Y988153D02*
X763560Y999467D01*
X752246Y988153D02*
X757903Y982496D01*
X763560Y999467D02*
X769217Y993810D01*
X727903Y982496D02*
X739217Y993810D01*
X722246Y988153D02*
X733560Y999467D01*
X722246Y988153D02*
X727903Y982496D01*
X733560Y999467D02*
X739217Y993810D01*
X697903Y982496D02*
X709217Y993810D01*
X692246Y988153D02*
X703560Y999467D01*
X692246Y988153D02*
X697903Y982496D01*
X703560Y999467D02*
X709217Y993810D01*
X667903Y982496D02*
X679217Y993810D01*
X662246Y988153D02*
X673560Y999467D01*
X662246Y988153D02*
X667903Y982496D01*
X673560Y999467D02*
X679217Y993810D01*
X637903Y982496D02*
X649217Y993810D01*
X632246Y988153D02*
X643560Y999467D01*
X632246Y988153D02*
X637903Y982496D01*
X643560Y999467D02*
X649217Y993810D01*
X607903Y982496D02*
X619217Y993810D01*
X602246Y988153D02*
X613560Y999467D01*
X602246Y988153D02*
X607903Y982496D01*
X613560Y999467D02*
X619217Y993810D01*
X577903Y982496D02*
X589217Y993810D01*
X572246Y988153D02*
X583560Y999467D01*
X572246Y988153D02*
X577903Y982496D01*
X583560Y999467D02*
X589217Y993810D01*
X547903Y982496D02*
X559217Y993810D01*
X542246Y988153D02*
X553560Y999467D01*
X542246Y988153D02*
X547903Y982496D01*
X553560Y999467D02*
X559217Y993810D01*
X517903Y982496D02*
X529217Y993810D01*
X512246Y988153D02*
X523560Y999467D01*
X512246Y988153D02*
X517903Y982496D01*
X523560Y999467D02*
X529217Y993810D01*
X487903Y982496D02*
X499217Y993810D01*
X482246Y988153D02*
X493560Y999467D01*
X482246Y988153D02*
X487903Y982496D01*
X493560Y999467D02*
X499217Y993810D01*
X457903Y982496D02*
X469217Y993810D01*
X452246Y988153D02*
X463560Y999467D01*
X452246Y988153D02*
X457903Y982496D01*
X463560Y999467D02*
X469217Y993810D01*
X427903Y982496D02*
X439217Y993810D01*
X422246Y988153D02*
X433560Y999467D01*
X422246Y988153D02*
X427903Y982496D01*
X433560Y999467D02*
X439217Y993810D01*
X1567903Y1012496D02*
X1579216Y1023810D01*
X1562246Y1018153D02*
X1573560Y1029467D01*
X1562246Y1018153D02*
X1567903Y1012496D01*
X1573560Y1029467D02*
X1579216Y1023810D01*
X1537903Y1012496D02*
X1549217Y1023810D01*
X1532246Y1018153D02*
X1543560Y1029467D01*
X1532246Y1018153D02*
X1537903Y1012496D01*
X1543560Y1029467D02*
X1549217Y1023810D01*
X1507903Y1012496D02*
X1519216Y1023810D01*
X1502246Y1018153D02*
X1513560Y1029467D01*
X1502246Y1018153D02*
X1507903Y1012496D01*
X1513560Y1029467D02*
X1519216Y1023810D01*
X1477903Y1012496D02*
X1489217Y1023810D01*
X1472246Y1018153D02*
X1483560Y1029467D01*
X1472246Y1018153D02*
X1477903Y1012496D01*
X1483560Y1029467D02*
X1489217Y1023810D01*
X1447903Y1012496D02*
X1459217Y1023810D01*
X1442246Y1018153D02*
X1453560Y1029467D01*
X1442246Y1018153D02*
X1447903Y1012496D01*
X1453560Y1029467D02*
X1459217Y1023810D01*
X1417903Y1012496D02*
X1429216Y1023810D01*
X1412246Y1018153D02*
X1423560Y1029467D01*
X1412246Y1018153D02*
X1417903Y1012496D01*
X1423560Y1029467D02*
X1429216Y1023810D01*
X1387903Y1012496D02*
X1399217Y1023810D01*
X1382246Y1018153D02*
X1393560Y1029467D01*
X1382246Y1018153D02*
X1387903Y1012496D01*
X1393560Y1029467D02*
X1399217Y1023810D01*
X1357903Y1012496D02*
X1369216Y1023810D01*
X1352246Y1018153D02*
X1363560Y1029467D01*
X1352246Y1018153D02*
X1357903Y1012496D01*
X1363560Y1029467D02*
X1369216Y1023810D01*
X1327903Y1012496D02*
X1339217Y1023810D01*
X1322246Y1018153D02*
X1333560Y1029467D01*
X1322246Y1018153D02*
X1327903Y1012496D01*
X1333560Y1029467D02*
X1339217Y1023810D01*
X1297903Y1012496D02*
X1309217Y1023810D01*
X1292246Y1018153D02*
X1303560Y1029467D01*
X1292246Y1018153D02*
X1297903Y1012496D01*
X1303560Y1029467D02*
X1309217Y1023810D01*
X1267903Y1012496D02*
X1279217Y1023810D01*
X1262246Y1018153D02*
X1273560Y1029467D01*
X1262246Y1018153D02*
X1267903Y1012496D01*
X1273560Y1029467D02*
X1279217Y1023810D01*
X1237903Y1012496D02*
X1249217Y1023810D01*
X1232246Y1018153D02*
X1243560Y1029467D01*
X1232246Y1018153D02*
X1237903Y1012496D01*
X1243560Y1029467D02*
X1249217Y1023810D01*
X1207903Y1012496D02*
X1219217Y1023810D01*
X1202246Y1018153D02*
X1213560Y1029467D01*
X1202246Y1018153D02*
X1207903Y1012496D01*
X1213560Y1029467D02*
X1219217Y1023810D01*
X1177903Y1012496D02*
X1189217Y1023810D01*
X1172246Y1018153D02*
X1183560Y1029467D01*
X1172246Y1018153D02*
X1177903Y1012496D01*
X1183560Y1029467D02*
X1189217Y1023810D01*
X1147903Y1012496D02*
X1159217Y1023810D01*
X1142246Y1018153D02*
X1153560Y1029467D01*
X1142246Y1018153D02*
X1147903Y1012496D01*
X1153560Y1029467D02*
X1159217Y1023810D01*
X1117903Y1012496D02*
X1129217Y1023810D01*
X1112246Y1018153D02*
X1123560Y1029467D01*
X1112246Y1018153D02*
X1117903Y1012496D01*
X1123560Y1029467D02*
X1129217Y1023810D01*
X1087903Y1012496D02*
X1099217Y1023810D01*
X1082246Y1018153D02*
X1093560Y1029467D01*
X1082246Y1018153D02*
X1087903Y1012496D01*
X1093560Y1029467D02*
X1099217Y1023810D01*
X1057903Y1012496D02*
X1069217Y1023810D01*
X1052246Y1018153D02*
X1063560Y1029467D01*
X1052246Y1018153D02*
X1057903Y1012496D01*
X1063560Y1029467D02*
X1069217Y1023810D01*
X1027903Y1012496D02*
X1039217Y1023810D01*
X1022246Y1018153D02*
X1033560Y1029467D01*
X1022246Y1018153D02*
X1027903Y1012496D01*
X1033560Y1029467D02*
X1039217Y1023810D01*
X997903Y1012496D02*
X1009217Y1023810D01*
X992246Y1018153D02*
X1003560Y1029467D01*
X992246Y1018153D02*
X997903Y1012496D01*
X1003560Y1029467D02*
X1009217Y1023810D01*
X967903Y1012496D02*
X979217Y1023810D01*
X962246Y1018153D02*
X973560Y1029467D01*
X962246Y1018153D02*
X967903Y1012496D01*
X973560Y1029467D02*
X979217Y1023810D01*
X937903Y1012496D02*
X949217Y1023810D01*
X932246Y1018153D02*
X943560Y1029467D01*
X932246Y1018153D02*
X937903Y1012496D01*
X943560Y1029467D02*
X949217Y1023810D01*
X907903Y1012496D02*
X919217Y1023810D01*
X902246Y1018153D02*
X913560Y1029467D01*
X902246Y1018153D02*
X907903Y1012496D01*
X913560Y1029467D02*
X919217Y1023810D01*
X877903Y1012496D02*
X889217Y1023810D01*
X872246Y1018153D02*
X883560Y1029467D01*
X872246Y1018153D02*
X877903Y1012496D01*
X883560Y1029467D02*
X889217Y1023810D01*
X847903Y1012496D02*
X859217Y1023810D01*
X842246Y1018153D02*
X853560Y1029467D01*
X842246Y1018153D02*
X847903Y1012496D01*
X853560Y1029467D02*
X859217Y1023810D01*
X817903Y1012496D02*
X829217Y1023810D01*
X812246Y1018153D02*
X823560Y1029467D01*
X812246Y1018153D02*
X817903Y1012496D01*
X823560Y1029467D02*
X829217Y1023810D01*
X787903Y1012496D02*
X799217Y1023810D01*
X782246Y1018153D02*
X793560Y1029467D01*
X782246Y1018153D02*
X787903Y1012496D01*
X793560Y1029467D02*
X799217Y1023810D01*
X757903Y1012496D02*
X769217Y1023810D01*
X752246Y1018153D02*
X763560Y1029467D01*
X752246Y1018153D02*
X757903Y1012496D01*
X763560Y1029467D02*
X769217Y1023810D01*
X727903Y1012496D02*
X739217Y1023810D01*
X722246Y1018153D02*
X733560Y1029467D01*
X722246Y1018153D02*
X727903Y1012496D01*
X733560Y1029467D02*
X739217Y1023810D01*
X697903Y1012496D02*
X709217Y1023810D01*
X692246Y1018153D02*
X703560Y1029467D01*
X692246Y1018153D02*
X697903Y1012496D01*
X703560Y1029467D02*
X709217Y1023810D01*
X667903Y1012496D02*
X679217Y1023810D01*
X662246Y1018153D02*
X673560Y1029467D01*
X662246Y1018153D02*
X667903Y1012496D01*
X673560Y1029467D02*
X679217Y1023810D01*
X637903Y1012496D02*
X649217Y1023810D01*
X632246Y1018153D02*
X643560Y1029467D01*
X632246Y1018153D02*
X637903Y1012496D01*
X643560Y1029467D02*
X649217Y1023810D01*
X607903Y1012496D02*
X619217Y1023810D01*
X602246Y1018153D02*
X613560Y1029467D01*
X602246Y1018153D02*
X607903Y1012496D01*
X613560Y1029467D02*
X619217Y1023810D01*
X577903Y1012496D02*
X589217Y1023810D01*
X572246Y1018153D02*
X583560Y1029467D01*
X572246Y1018153D02*
X577903Y1012496D01*
X583560Y1029467D02*
X589217Y1023810D01*
X547903Y1012496D02*
X559217Y1023810D01*
X542246Y1018153D02*
X553560Y1029467D01*
X542246Y1018153D02*
X547903Y1012496D01*
X553560Y1029467D02*
X559217Y1023810D01*
X517903Y1012496D02*
X529217Y1023810D01*
X512246Y1018153D02*
X523560Y1029467D01*
X512246Y1018153D02*
X517903Y1012496D01*
X523560Y1029467D02*
X529217Y1023810D01*
X487903Y1012496D02*
X499217Y1023810D01*
X482246Y1018153D02*
X493560Y1029467D01*
X482246Y1018153D02*
X487903Y1012496D01*
X493560Y1029467D02*
X499217Y1023810D01*
X457903Y1012496D02*
X469217Y1023810D01*
X452246Y1018153D02*
X463560Y1029467D01*
X452246Y1018153D02*
X457903Y1012496D01*
X463560Y1029467D02*
X469217Y1023810D01*
X427903Y1012496D02*
X439217Y1023810D01*
X422246Y1018153D02*
X433560Y1029467D01*
X422246Y1018153D02*
X427903Y1012496D01*
X433560Y1029467D02*
X439217Y1023810D01*
D12*
X1630000Y1050000D02*
G03*
X1600000Y1080000I-30000J0D01*
G01*
X400000D02*
G03*
X370000Y1050000I0J-30000D01*
G01*
Y750000D02*
G03*
X400000Y720000I30000J0D01*
G01*
X1600000D02*
G03*
X1630000Y750000I0J30000D01*
G01*
Y1050000D01*
X400000Y1080000D02*
X1600000D01*
X370000Y750000D02*
Y1050000D01*
X400000Y720000D02*
X1600000D01*
D13*
X1576388Y786638D02*
D03*
X1565074Y775324D02*
D03*
X1546388Y786638D02*
D03*
X1535074Y775324D02*
D03*
X1516388Y786638D02*
D03*
X1505074Y775324D02*
D03*
X1486388Y786638D02*
D03*
X1475074Y775324D02*
D03*
X1456388Y786638D02*
D03*
X1445074Y775324D02*
D03*
X1426388Y786638D02*
D03*
X1415074Y775324D02*
D03*
X1396388Y786638D02*
D03*
X1385074Y775324D02*
D03*
X1366388Y786638D02*
D03*
X1355074Y775324D02*
D03*
X1336388Y786638D02*
D03*
X1325074Y775324D02*
D03*
X1306388Y786638D02*
D03*
X1295074Y775324D02*
D03*
X1276388Y786638D02*
D03*
X1265074Y775324D02*
D03*
X1246388Y786638D02*
D03*
X1235074Y775324D02*
D03*
X1216388Y786638D02*
D03*
X1205074Y775324D02*
D03*
X1186388Y786638D02*
D03*
X1175074Y775324D02*
D03*
X1156388Y786638D02*
D03*
X1145074Y775324D02*
D03*
X1126388Y786638D02*
D03*
X1115074Y775324D02*
D03*
X1096388Y786638D02*
D03*
X1085074Y775324D02*
D03*
X1066388Y786638D02*
D03*
X1055074Y775324D02*
D03*
X1036388Y786638D02*
D03*
X1025074Y775324D02*
D03*
X1006388Y786638D02*
D03*
X995074Y775324D02*
D03*
X976388Y786638D02*
D03*
X965074Y775324D02*
D03*
X946388Y786638D02*
D03*
X935074Y775324D02*
D03*
X916388Y786638D02*
D03*
X905074Y775324D02*
D03*
X886388Y786638D02*
D03*
X875074Y775324D02*
D03*
X856388Y786638D02*
D03*
X845074Y775324D02*
D03*
X826388Y786638D02*
D03*
X815074Y775324D02*
D03*
X796388Y786638D02*
D03*
X785074Y775324D02*
D03*
X766388Y786638D02*
D03*
X755074Y775324D02*
D03*
X736388Y786638D02*
D03*
X725074Y775324D02*
D03*
X706388Y786638D02*
D03*
X695074Y775324D02*
D03*
X676388Y786638D02*
D03*
X665074Y775324D02*
D03*
X646388Y786638D02*
D03*
X635074Y775324D02*
D03*
X616388Y786638D02*
D03*
X605074Y775324D02*
D03*
X586388Y786638D02*
D03*
X575074Y775324D02*
D03*
X556388Y786638D02*
D03*
X545074Y775324D02*
D03*
X526388Y786638D02*
D03*
X515074Y775324D02*
D03*
X496388Y786638D02*
D03*
X485074Y775324D02*
D03*
X466388Y786638D02*
D03*
X455074Y775324D02*
D03*
X436388Y786638D02*
D03*
X425074Y775324D02*
D03*
X1576388Y816638D02*
D03*
X1565074Y805324D02*
D03*
X1546388Y816638D02*
D03*
X1535074Y805324D02*
D03*
X1516388Y816638D02*
D03*
X1505074Y805324D02*
D03*
X1486388Y816638D02*
D03*
X1475074Y805324D02*
D03*
X1456388Y816638D02*
D03*
X1445074Y805324D02*
D03*
X1426388Y816638D02*
D03*
X1415074Y805324D02*
D03*
X1396388Y816638D02*
D03*
X1385074Y805324D02*
D03*
X1366388Y816638D02*
D03*
X1355074Y805324D02*
D03*
X1336388Y816638D02*
D03*
X1325074Y805324D02*
D03*
X1306388Y816638D02*
D03*
X1295074Y805324D02*
D03*
X1276388Y816638D02*
D03*
X1265074Y805324D02*
D03*
X1246388Y816638D02*
D03*
X1235074Y805324D02*
D03*
X1216388Y816638D02*
D03*
X1205074Y805324D02*
D03*
X1186388Y816638D02*
D03*
X1175074Y805324D02*
D03*
X1156388Y816638D02*
D03*
X1145074Y805324D02*
D03*
X1126388Y816638D02*
D03*
X1115074Y805324D02*
D03*
X1096388Y816638D02*
D03*
X1085074Y805324D02*
D03*
X1066388Y816638D02*
D03*
X1055074Y805324D02*
D03*
X1036388Y816638D02*
D03*
X1025074Y805324D02*
D03*
X1006388Y816638D02*
D03*
X995074Y805324D02*
D03*
X976388Y816638D02*
D03*
X965074Y805324D02*
D03*
X946388Y816638D02*
D03*
X935074Y805324D02*
D03*
X916388Y816638D02*
D03*
X905074Y805324D02*
D03*
X886388Y816638D02*
D03*
X875074Y805324D02*
D03*
X856388Y816638D02*
D03*
X845074Y805324D02*
D03*
X826388Y816638D02*
D03*
X815074Y805324D02*
D03*
X796388Y816638D02*
D03*
X785074Y805324D02*
D03*
X766388Y816638D02*
D03*
X755074Y805324D02*
D03*
X736388Y816638D02*
D03*
X725074Y805324D02*
D03*
X706388Y816638D02*
D03*
X695074Y805324D02*
D03*
X676388Y816638D02*
D03*
X665074Y805324D02*
D03*
X646388Y816638D02*
D03*
X635074Y805324D02*
D03*
X616388Y816638D02*
D03*
X605074Y805324D02*
D03*
X586388Y816638D02*
D03*
X575074Y805324D02*
D03*
X556388Y816638D02*
D03*
X545074Y805324D02*
D03*
X526388Y816638D02*
D03*
X515074Y805324D02*
D03*
X496388Y816638D02*
D03*
X485074Y805324D02*
D03*
X466388Y816638D02*
D03*
X455074Y805324D02*
D03*
X436388Y816638D02*
D03*
X425074Y805324D02*
D03*
X1576388Y846638D02*
D03*
X1565074Y835324D02*
D03*
X1546388Y846638D02*
D03*
X1535074Y835324D02*
D03*
X1516388Y846638D02*
D03*
X1505074Y835324D02*
D03*
X1486388Y846638D02*
D03*
X1475074Y835324D02*
D03*
X1456388Y846638D02*
D03*
X1445074Y835324D02*
D03*
X1426388Y846638D02*
D03*
X1415074Y835324D02*
D03*
X1396388Y846638D02*
D03*
X1385074Y835324D02*
D03*
X1366388Y846638D02*
D03*
X1355074Y835324D02*
D03*
X1336388Y846638D02*
D03*
X1325074Y835324D02*
D03*
X1306388Y846638D02*
D03*
X1295074Y835324D02*
D03*
X1276388Y846638D02*
D03*
X1265074Y835324D02*
D03*
X1246388Y846638D02*
D03*
X1235074Y835324D02*
D03*
X1216388Y846638D02*
D03*
X1205074Y835324D02*
D03*
X1186388Y846638D02*
D03*
X1175074Y835324D02*
D03*
X1156388Y846638D02*
D03*
X1145074Y835324D02*
D03*
X1126388Y846638D02*
D03*
X1115074Y835324D02*
D03*
X1096388Y846638D02*
D03*
X1085074Y835324D02*
D03*
X1066388Y846638D02*
D03*
X1055074Y835324D02*
D03*
X1036388Y846638D02*
D03*
X1025074Y835324D02*
D03*
X1006388Y846638D02*
D03*
X995074Y835324D02*
D03*
X976388Y846638D02*
D03*
X965074Y835324D02*
D03*
X946388Y846638D02*
D03*
X935074Y835324D02*
D03*
X916388Y846638D02*
D03*
X905074Y835324D02*
D03*
X886388Y846638D02*
D03*
X875074Y835324D02*
D03*
X856388Y846638D02*
D03*
X845074Y835324D02*
D03*
X826388Y846638D02*
D03*
X815074Y835324D02*
D03*
X796388Y846638D02*
D03*
X785074Y835324D02*
D03*
X766388Y846638D02*
D03*
X755074Y835324D02*
D03*
X736388Y846638D02*
D03*
X725074Y835324D02*
D03*
X706388Y846638D02*
D03*
X695074Y835324D02*
D03*
X676388Y846638D02*
D03*
X665074Y835324D02*
D03*
X646388Y846638D02*
D03*
X635074Y835324D02*
D03*
X616388Y846638D02*
D03*
X605074Y835324D02*
D03*
X586388Y846638D02*
D03*
X575074Y835324D02*
D03*
X556388Y846638D02*
D03*
X545074Y835324D02*
D03*
X526388Y846638D02*
D03*
X515074Y835324D02*
D03*
X496388Y846638D02*
D03*
X485074Y835324D02*
D03*
X466388Y846638D02*
D03*
X455074Y835324D02*
D03*
X436388Y846638D02*
D03*
X425074Y835324D02*
D03*
X1576388Y876638D02*
D03*
X1565074Y865324D02*
D03*
X1546388Y876638D02*
D03*
X1535074Y865324D02*
D03*
X1516388Y876638D02*
D03*
X1505074Y865324D02*
D03*
X1486388Y876638D02*
D03*
X1475074Y865324D02*
D03*
X1456388Y876638D02*
D03*
X1445074Y865324D02*
D03*
X1426388Y876638D02*
D03*
X1415074Y865324D02*
D03*
X1396388Y876638D02*
D03*
X1385074Y865324D02*
D03*
X1366388Y876638D02*
D03*
X1355074Y865324D02*
D03*
X1336388Y876638D02*
D03*
X1325074Y865324D02*
D03*
X1306388Y876638D02*
D03*
X1295074Y865324D02*
D03*
X1276388Y876638D02*
D03*
X1265074Y865324D02*
D03*
X1246388Y876638D02*
D03*
X1235074Y865324D02*
D03*
X1216388Y876638D02*
D03*
X1205074Y865324D02*
D03*
X1186388Y876638D02*
D03*
X1175074Y865324D02*
D03*
X1156388Y876638D02*
D03*
X1145074Y865324D02*
D03*
X1126388Y876638D02*
D03*
X1115074Y865324D02*
D03*
X1096388Y876638D02*
D03*
X1085074Y865324D02*
D03*
X1066388Y876638D02*
D03*
X1055074Y865324D02*
D03*
X1036388Y876638D02*
D03*
X1025074Y865324D02*
D03*
X1006388Y876638D02*
D03*
X995074Y865324D02*
D03*
X976388Y876638D02*
D03*
X965074Y865324D02*
D03*
X946388Y876638D02*
D03*
X935074Y865324D02*
D03*
X916388Y876638D02*
D03*
X905074Y865324D02*
D03*
X886388Y876638D02*
D03*
X875074Y865324D02*
D03*
X856388Y876638D02*
D03*
X845074Y865324D02*
D03*
X826388Y876638D02*
D03*
X815074Y865324D02*
D03*
X796388Y876638D02*
D03*
X785074Y865324D02*
D03*
X766388Y876638D02*
D03*
X755074Y865324D02*
D03*
X736388Y876638D02*
D03*
X725074Y865324D02*
D03*
X706388Y876638D02*
D03*
X695074Y865324D02*
D03*
X676388Y876638D02*
D03*
X665074Y865324D02*
D03*
X646388Y876638D02*
D03*
X635074Y865324D02*
D03*
X616388Y876638D02*
D03*
X605074Y865324D02*
D03*
X586388Y876638D02*
D03*
X575074Y865324D02*
D03*
X556388Y876638D02*
D03*
X545074Y865324D02*
D03*
X526388Y876638D02*
D03*
X515074Y865324D02*
D03*
X496388Y876638D02*
D03*
X485074Y865324D02*
D03*
X466388Y876638D02*
D03*
X455074Y865324D02*
D03*
X436388Y876638D02*
D03*
X425074Y865324D02*
D03*
X1576388Y906638D02*
D03*
X1565074Y895324D02*
D03*
X1546388Y906638D02*
D03*
X1535074Y895324D02*
D03*
X1516388Y906638D02*
D03*
X1505074Y895324D02*
D03*
X1486388Y906638D02*
D03*
X1475074Y895324D02*
D03*
X1456388Y906638D02*
D03*
X1445074Y895324D02*
D03*
X1426388Y906638D02*
D03*
X1415074Y895324D02*
D03*
X1396388Y906638D02*
D03*
X1385074Y895324D02*
D03*
X1366388Y906638D02*
D03*
X1355074Y895324D02*
D03*
X1336388Y906638D02*
D03*
X1325074Y895324D02*
D03*
X1306388Y906638D02*
D03*
X1295074Y895324D02*
D03*
X1276388Y906638D02*
D03*
X1265074Y895324D02*
D03*
X1246388Y906638D02*
D03*
X1235074Y895324D02*
D03*
X1216388Y906638D02*
D03*
X1205074Y895324D02*
D03*
X1186388Y906638D02*
D03*
X1175074Y895324D02*
D03*
X1156388Y906638D02*
D03*
X1145074Y895324D02*
D03*
X1126388Y906638D02*
D03*
X1115074Y895324D02*
D03*
X1096388Y906638D02*
D03*
X1085074Y895324D02*
D03*
X1066388Y906638D02*
D03*
X1055074Y895324D02*
D03*
X1036388Y906638D02*
D03*
X1025074Y895324D02*
D03*
X1006388Y906638D02*
D03*
X995074Y895324D02*
D03*
X976388Y906638D02*
D03*
X965074Y895324D02*
D03*
X946388Y906638D02*
D03*
X935074Y895324D02*
D03*
X916388Y906638D02*
D03*
X905074Y895324D02*
D03*
X886388Y906638D02*
D03*
X875074Y895324D02*
D03*
X856388Y906638D02*
D03*
X845074Y895324D02*
D03*
X826388Y906638D02*
D03*
X815074Y895324D02*
D03*
X796388Y906638D02*
D03*
X785074Y895324D02*
D03*
X766388Y906638D02*
D03*
X755074Y895324D02*
D03*
X736388Y906638D02*
D03*
X725074Y895324D02*
D03*
X706388Y906638D02*
D03*
X695074Y895324D02*
D03*
X676388Y906638D02*
D03*
X665074Y895324D02*
D03*
X646388Y906638D02*
D03*
X635074Y895324D02*
D03*
X616388Y906638D02*
D03*
X605074Y895324D02*
D03*
X586388Y906638D02*
D03*
X575074Y895324D02*
D03*
X556388Y906638D02*
D03*
X545074Y895324D02*
D03*
X526388Y906638D02*
D03*
X515074Y895324D02*
D03*
X496388Y906638D02*
D03*
X485074Y895324D02*
D03*
X466388Y906638D02*
D03*
X455074Y895324D02*
D03*
X436388Y906638D02*
D03*
X425074Y895324D02*
D03*
X1576388Y936638D02*
D03*
X1565074Y925324D02*
D03*
X1546388Y936638D02*
D03*
X1535074Y925324D02*
D03*
X1516388Y936638D02*
D03*
X1505074Y925324D02*
D03*
X1486388Y936638D02*
D03*
X1475074Y925324D02*
D03*
X1456388Y936638D02*
D03*
X1445074Y925324D02*
D03*
X1426388Y936638D02*
D03*
X1415074Y925324D02*
D03*
X1396388Y936638D02*
D03*
X1385074Y925324D02*
D03*
X1366388Y936638D02*
D03*
X1355074Y925324D02*
D03*
X1336388Y936638D02*
D03*
X1325074Y925324D02*
D03*
X1306388Y936638D02*
D03*
X1295074Y925324D02*
D03*
X1276388Y936638D02*
D03*
X1265074Y925324D02*
D03*
X1246388Y936638D02*
D03*
X1235074Y925324D02*
D03*
X1216388Y936638D02*
D03*
X1205074Y925324D02*
D03*
X1186388Y936638D02*
D03*
X1175074Y925324D02*
D03*
X1156388Y936638D02*
D03*
X1145074Y925324D02*
D03*
X1126388Y936638D02*
D03*
X1115074Y925324D02*
D03*
X1096388Y936638D02*
D03*
X1085074Y925324D02*
D03*
X1066388Y936638D02*
D03*
X1055074Y925324D02*
D03*
X1036388Y936638D02*
D03*
X1025074Y925324D02*
D03*
X1006388Y936638D02*
D03*
X995074Y925324D02*
D03*
X976388Y936638D02*
D03*
X965074Y925324D02*
D03*
X946388Y936638D02*
D03*
X935074Y925324D02*
D03*
X916388Y936638D02*
D03*
X905074Y925324D02*
D03*
X886388Y936638D02*
D03*
X875074Y925324D02*
D03*
X856388Y936638D02*
D03*
X845074Y925324D02*
D03*
X826388Y936638D02*
D03*
X815074Y925324D02*
D03*
X796388Y936638D02*
D03*
X785074Y925324D02*
D03*
X766388Y936638D02*
D03*
X755074Y925324D02*
D03*
X736388Y936638D02*
D03*
X725074Y925324D02*
D03*
X706388Y936638D02*
D03*
X695074Y925324D02*
D03*
X676388Y936638D02*
D03*
X665074Y925324D02*
D03*
X646388Y936638D02*
D03*
X635074Y925324D02*
D03*
X616388Y936638D02*
D03*
X605074Y925324D02*
D03*
X586388Y936638D02*
D03*
X575074Y925324D02*
D03*
X556388Y936638D02*
D03*
X545074Y925324D02*
D03*
X526388Y936638D02*
D03*
X515074Y925324D02*
D03*
X496388Y936638D02*
D03*
X485074Y925324D02*
D03*
X466388Y936638D02*
D03*
X455074Y925324D02*
D03*
X436388Y936638D02*
D03*
X425074Y925324D02*
D03*
X1576388Y966638D02*
D03*
X1565074Y955324D02*
D03*
X1546388Y966638D02*
D03*
X1535074Y955324D02*
D03*
X1516388Y966638D02*
D03*
X1505074Y955324D02*
D03*
X1486388Y966638D02*
D03*
X1475074Y955324D02*
D03*
X1456388Y966638D02*
D03*
X1445074Y955324D02*
D03*
X1426388Y966638D02*
D03*
X1415074Y955324D02*
D03*
X1396388Y966638D02*
D03*
X1385074Y955324D02*
D03*
X1366388Y966638D02*
D03*
X1355074Y955324D02*
D03*
X1336388Y966638D02*
D03*
X1325074Y955324D02*
D03*
X1306388Y966638D02*
D03*
X1295074Y955324D02*
D03*
X1276388Y966638D02*
D03*
X1265074Y955324D02*
D03*
X1246388Y966638D02*
D03*
X1235074Y955324D02*
D03*
X1216388Y966638D02*
D03*
X1205074Y955324D02*
D03*
X1186388Y966638D02*
D03*
X1175074Y955324D02*
D03*
X1156388Y966638D02*
D03*
X1145074Y955324D02*
D03*
X1126388Y966638D02*
D03*
X1115074Y955324D02*
D03*
X1096388Y966638D02*
D03*
X1085074Y955324D02*
D03*
X1066388Y966638D02*
D03*
X1055074Y955324D02*
D03*
X1036388Y966638D02*
D03*
X1025074Y955324D02*
D03*
X1006388Y966638D02*
D03*
X995074Y955324D02*
D03*
X976388Y966638D02*
D03*
X965074Y955324D02*
D03*
X946388Y966638D02*
D03*
X935074Y955324D02*
D03*
X916388Y966638D02*
D03*
X905074Y955324D02*
D03*
X886388Y966638D02*
D03*
X875074Y955324D02*
D03*
X856388Y966638D02*
D03*
X845074Y955324D02*
D03*
X826388Y966638D02*
D03*
X815074Y955324D02*
D03*
X796388Y966638D02*
D03*
X785074Y955324D02*
D03*
X766388Y966638D02*
D03*
X755074Y955324D02*
D03*
X736388Y966638D02*
D03*
X725074Y955324D02*
D03*
X706388Y966638D02*
D03*
X695074Y955324D02*
D03*
X676388Y966638D02*
D03*
X665074Y955324D02*
D03*
X646388Y966638D02*
D03*
X635074Y955324D02*
D03*
X616388Y966638D02*
D03*
X605074Y955324D02*
D03*
X586388Y966638D02*
D03*
X575074Y955324D02*
D03*
X556388Y966638D02*
D03*
X545074Y955324D02*
D03*
X526388Y966638D02*
D03*
X515074Y955324D02*
D03*
X496388Y966638D02*
D03*
X485074Y955324D02*
D03*
X466388Y966638D02*
D03*
X455074Y955324D02*
D03*
X436388Y966638D02*
D03*
X425074Y955324D02*
D03*
X1576388Y996638D02*
D03*
X1565074Y985324D02*
D03*
X1546388Y996638D02*
D03*
X1535074Y985324D02*
D03*
X1516388Y996638D02*
D03*
X1505074Y985324D02*
D03*
X1486388Y996638D02*
D03*
X1475074Y985324D02*
D03*
X1456388Y996638D02*
D03*
X1445074Y985324D02*
D03*
X1426388Y996638D02*
D03*
X1415074Y985324D02*
D03*
X1396388Y996638D02*
D03*
X1385074Y985324D02*
D03*
X1366388Y996638D02*
D03*
X1355074Y985324D02*
D03*
X1336388Y996638D02*
D03*
X1325074Y985324D02*
D03*
X1306388Y996638D02*
D03*
X1295074Y985324D02*
D03*
X1276388Y996638D02*
D03*
X1265074Y985324D02*
D03*
X1246388Y996638D02*
D03*
X1235074Y985324D02*
D03*
X1216388Y996638D02*
D03*
X1205074Y985324D02*
D03*
X1186388Y996638D02*
D03*
X1175074Y985324D02*
D03*
X1156388Y996638D02*
D03*
X1145074Y985324D02*
D03*
X1126388Y996638D02*
D03*
X1115074Y985324D02*
D03*
X1096388Y996638D02*
D03*
X1085074Y985324D02*
D03*
X1066388Y996638D02*
D03*
X1055074Y985324D02*
D03*
X1036388Y996638D02*
D03*
X1025074Y985324D02*
D03*
X1006388Y996638D02*
D03*
X995074Y985324D02*
D03*
X976388Y996638D02*
D03*
X965074Y985324D02*
D03*
X946388Y996638D02*
D03*
X935074Y985324D02*
D03*
X916388Y996638D02*
D03*
X905074Y985324D02*
D03*
X886388Y996638D02*
D03*
X875074Y985324D02*
D03*
X856388Y996638D02*
D03*
X845074Y985324D02*
D03*
X826388Y996638D02*
D03*
X815074Y985324D02*
D03*
X796388Y996638D02*
D03*
X785074Y985324D02*
D03*
X766388Y996638D02*
D03*
X755074Y985324D02*
D03*
X736388Y996638D02*
D03*
X725074Y985324D02*
D03*
X706388Y996638D02*
D03*
X695074Y985324D02*
D03*
X676388Y996638D02*
D03*
X665074Y985324D02*
D03*
X646388Y996638D02*
D03*
X635074Y985324D02*
D03*
X616388Y996638D02*
D03*
X605074Y985324D02*
D03*
X586388Y996638D02*
D03*
X575074Y985324D02*
D03*
X556388Y996638D02*
D03*
X545074Y985324D02*
D03*
X526388Y996638D02*
D03*
X515074Y985324D02*
D03*
X496388Y996638D02*
D03*
X485074Y985324D02*
D03*
X466388Y996638D02*
D03*
X455074Y985324D02*
D03*
X436388Y996638D02*
D03*
X425074Y985324D02*
D03*
X1576388Y1026638D02*
D03*
X1565074Y1015324D02*
D03*
X1546388Y1026638D02*
D03*
X1535074Y1015324D02*
D03*
X1516388Y1026638D02*
D03*
X1505074Y1015324D02*
D03*
X1486388Y1026638D02*
D03*
X1475074Y1015324D02*
D03*
X1456388Y1026638D02*
D03*
X1445074Y1015324D02*
D03*
X1426388Y1026638D02*
D03*
X1415074Y1015324D02*
D03*
X1396388Y1026638D02*
D03*
X1385074Y1015324D02*
D03*
X1366388Y1026638D02*
D03*
X1355074Y1015324D02*
D03*
X1336388Y1026638D02*
D03*
X1325074Y1015324D02*
D03*
X1306388Y1026638D02*
D03*
X1295074Y1015324D02*
D03*
X1276388Y1026638D02*
D03*
X1265074Y1015324D02*
D03*
X1246388Y1026638D02*
D03*
X1235074Y1015324D02*
D03*
X1216388Y1026638D02*
D03*
X1205074Y1015324D02*
D03*
X1186388Y1026638D02*
D03*
X1175074Y1015324D02*
D03*
X1156388Y1026638D02*
D03*
X1145074Y1015324D02*
D03*
X1126388Y1026638D02*
D03*
X1115074Y1015324D02*
D03*
X1096388Y1026638D02*
D03*
X1085074Y1015324D02*
D03*
X1066388Y1026638D02*
D03*
X1055074Y1015324D02*
D03*
X1036388Y1026638D02*
D03*
X1025074Y1015324D02*
D03*
X1006388Y1026638D02*
D03*
X995074Y1015324D02*
D03*
X976388Y1026638D02*
D03*
X965074Y1015324D02*
D03*
X946388Y1026638D02*
D03*
X935074Y1015324D02*
D03*
X916388Y1026638D02*
D03*
X905074Y1015324D02*
D03*
X886388Y1026638D02*
D03*
X875074Y1015324D02*
D03*
X856388Y1026638D02*
D03*
X845074Y1015324D02*
D03*
X826388Y1026638D02*
D03*
X815074Y1015324D02*
D03*
X796388Y1026638D02*
D03*
X785074Y1015324D02*
D03*
X766388Y1026638D02*
D03*
X755074Y1015324D02*
D03*
X736388Y1026638D02*
D03*
X725074Y1015324D02*
D03*
X706388Y1026638D02*
D03*
X695074Y1015324D02*
D03*
X676388Y1026638D02*
D03*
X665074Y1015324D02*
D03*
X646388Y1026638D02*
D03*
X635074Y1015324D02*
D03*
X616388Y1026638D02*
D03*
X605074Y1015324D02*
D03*
X586388Y1026638D02*
D03*
X575074Y1015324D02*
D03*
X556388Y1026638D02*
D03*
X545074Y1015324D02*
D03*
X526388Y1026638D02*
D03*
X515074Y1015324D02*
D03*
X496388Y1026638D02*
D03*
X485074Y1015324D02*
D03*
X466388Y1026638D02*
D03*
X455074Y1015324D02*
D03*
X436388Y1026638D02*
D03*
X425074Y1015324D02*
D03*
M02*
