G04*
G04 #@! TF.GenerationSoftware,Altium Limited,Altium Designer,18.1.9 (240)*
G04*
G04 Layer_Color=16711935*
%FSLAX44Y44*%
%MOMM*%
G71*
G01*
G75*
%ADD10C,0.3000*%
%ADD15C,0.1270*%
%ADD16C,0.2540*%
%ADD18C,0.1000*%
%ADD19C,0.1984*%
%ADD56R,1.7032X1.7032*%
%ADD57C,1.7032*%
%ADD58R,1.7032X1.7032*%
%ADD59R,1.3032X1.3032*%
%ADD60O,1.4032X1.8032*%
%ADD61O,1.3032X2.0032*%
%ADD62C,3.2032*%
D10*
X3963180Y829620D02*
G03*
X3963180Y829620I-1000J0D01*
G01*
D15*
X3955350Y841740D02*
X4134550D01*
X3954950Y649740D02*
Y904740D01*
Y649740D02*
X4134950D01*
Y904740D01*
X3954950D02*
X4134950D01*
X2763330Y885190D02*
Y901190D01*
X2771330Y885190D02*
Y901190D01*
X2763330D02*
X2771330D01*
X2763330Y885190D02*
X2771330D01*
D16*
X1526500Y885220D02*
G03*
X1556500Y915220I0J30000D01*
G01*
X296500D02*
G03*
X326500Y885220I30000J0D01*
G01*
Y1245220D02*
G03*
X296500Y1215220I0J-30000D01*
G01*
X1556500D02*
G03*
X1526500Y1245220I-30000J0D01*
G01*
X326500Y885220D02*
X1526500D01*
X296500Y915220D02*
Y1215220D01*
X326500Y1245220D02*
X1526500D01*
X1556500Y915220D02*
Y1215220D01*
D18*
X3410750Y845280D02*
X3510750D01*
X3432810Y841928D02*
Y836930D01*
X3435309D01*
X3436142Y837763D01*
Y838596D01*
X3435309Y839429D01*
X3432810D01*
X3435309D01*
X3436142Y840262D01*
Y841095D01*
X3435309Y841928D01*
X3432810D01*
X3438641Y836930D02*
X3440308D01*
X3441141Y837763D01*
Y839429D01*
X3440308Y840262D01*
X3438641D01*
X3437809Y839429D01*
Y837763D01*
X3438641Y836930D01*
X3443640Y840262D02*
X3445306D01*
X3446139Y839429D01*
Y836930D01*
X3443640D01*
X3442807Y837763D01*
X3443640Y838596D01*
X3446139D01*
X3447805Y840262D02*
Y836930D01*
Y838596D01*
X3448638Y839429D01*
X3449471Y840262D01*
X3450304D01*
X3456136Y841928D02*
Y836930D01*
X3453636D01*
X3452804Y837763D01*
Y839429D01*
X3453636Y840262D01*
X3456136D01*
X3466133Y841928D02*
X3462800D01*
Y836930D01*
X3466133D01*
X3462800Y839429D02*
X3464466D01*
X3471131Y841928D02*
Y836930D01*
X3468632D01*
X3467798Y837763D01*
Y839429D01*
X3468632Y840262D01*
X3471131D01*
X3474463Y835264D02*
X3475296D01*
X3476129Y836097D01*
Y840262D01*
X3473630D01*
X3472797Y839429D01*
Y837763D01*
X3473630Y836930D01*
X3476129D01*
X3480294D02*
X3478628D01*
X3477795Y837763D01*
Y839429D01*
X3478628Y840262D01*
X3480294D01*
X3481128Y839429D01*
Y838596D01*
X3477795D01*
D19*
X4001984Y861249D02*
X3994842Y879995D01*
X3987701Y861249D01*
X3990379Y867498D02*
X3999306D01*
X4006358Y879995D02*
Y861249D01*
Y879995D02*
X4018855Y861249D01*
Y879995D02*
Y861249D01*
X4030281Y879995D02*
Y861249D01*
X4024033Y879995D02*
X4036530D01*
X4050366D02*
X4038762D01*
Y861249D01*
X4050366D01*
X4038762Y871069D02*
X4045903D01*
X4053490Y879995D02*
Y861249D01*
Y879995D02*
X4065988Y861249D01*
Y879995D02*
Y861249D01*
X4071165Y879995D02*
Y861249D01*
Y879995D02*
X4083663Y861249D01*
Y879995D02*
Y861249D01*
X4103123D02*
X4095981Y879995D01*
X4088840Y861249D01*
X4091518Y867498D02*
X4100445D01*
D56*
X444500Y1220470D02*
D03*
X1079100Y1220470D02*
D03*
D57*
X469900Y1220470D02*
D03*
X495300D02*
D03*
X520700D02*
D03*
X546100D02*
D03*
X571500D02*
D03*
X596900D02*
D03*
X622300D02*
D03*
X647700D02*
D03*
X673100D02*
D03*
X698500D02*
D03*
X723900D02*
D03*
X749300D02*
D03*
X774700D02*
D03*
X800100D02*
D03*
X825500D02*
D03*
X850900D02*
D03*
X876300D02*
D03*
X901700D02*
D03*
X927100D02*
D03*
X952500D02*
D03*
X977900D02*
D03*
X1003300D02*
D03*
X1028700D02*
D03*
X1054100D02*
D03*
X1409300Y1220470D02*
D03*
X1383900D02*
D03*
X1358500D02*
D03*
X1333100D02*
D03*
X1307700D02*
D03*
X1282300D02*
D03*
X1256900D02*
D03*
X1231500D02*
D03*
X1206100D02*
D03*
X1180700D02*
D03*
X1155300D02*
D03*
X1129900D02*
D03*
X1104500D02*
D03*
X4169410Y741680D02*
D03*
Y767080D02*
D03*
Y792480D02*
D03*
Y817880D02*
D03*
Y843280D02*
D03*
Y868680D02*
D03*
Y894080D02*
D03*
Y716280D02*
D03*
X3211830Y894080D02*
D03*
Y868680D02*
D03*
Y843280D02*
D03*
Y817880D02*
D03*
D58*
X4169410Y690880D02*
D03*
X3211830Y792480D02*
D03*
D59*
X3503000Y869650D02*
D03*
Y860410D02*
D03*
X3418500D02*
D03*
Y869650D02*
D03*
D60*
X3424750Y890780D02*
D03*
X3496750D02*
D03*
D61*
X3418500Y873780D02*
D03*
Y856280D02*
D03*
X3503000D02*
D03*
Y873780D02*
D03*
D62*
X326500Y1215220D02*
D03*
X1526500D02*
D03*
Y915220D02*
D03*
X326500D02*
D03*
M02*
