G04*
G04 #@! TF.GenerationSoftware,Altium Limited,Altium Designer,18.1.9 (240)*
G04*
G04 Layer_Color=16711935*
%FSLAX44Y44*%
%MOMM*%
G71*
G01*
G75*
%ADD10C,0.3000*%
%ADD15C,0.1270*%
%ADD16C,0.2540*%
%ADD18C,0.1000*%
%ADD19C,0.1984*%
D10*
X3963180Y829620D02*
G03*
X3963180Y829620I-1000J0D01*
G01*
D15*
X3955350Y841740D02*
X4134550D01*
X3954950Y649740D02*
Y904740D01*
Y649740D02*
X4134950D01*
Y904740D01*
X3954950D02*
X4134950D01*
X2763330Y885190D02*
Y901190D01*
X2771330Y885190D02*
Y901190D01*
X2763330D02*
X2771330D01*
X2763330Y885190D02*
X2771330D01*
D16*
X1526500Y885220D02*
G03*
X1556500Y915220I0J30000D01*
G01*
X296500D02*
G03*
X326500Y885220I30000J0D01*
G01*
Y1245220D02*
G03*
X296500Y1215220I0J-30000D01*
G01*
X1556500D02*
G03*
X1526500Y1245220I-30000J0D01*
G01*
X326500Y885220D02*
X1526500D01*
X296500Y915220D02*
Y1215220D01*
X326500Y1245220D02*
X1526500D01*
X1556500Y915220D02*
Y1215220D01*
D18*
X3864940Y885330D02*
X3874440D01*
X3864940Y902830D02*
X3874440D01*
X3864940Y885330D02*
Y902830D01*
X3874440Y885330D02*
Y902830D01*
X3793820Y885330D02*
X3803320D01*
X3793820Y902830D02*
X3803320D01*
X3793820Y885330D02*
Y902830D01*
X3803320Y885330D02*
Y902830D01*
X3722700Y885330D02*
X3732200D01*
X3722700Y902830D02*
X3732200D01*
X3722700Y885330D02*
Y902830D01*
X3732200Y885330D02*
Y902830D01*
X3414250Y898280D02*
X3507250D01*
X3414250Y828280D02*
Y898280D01*
Y828280D02*
X3507250D01*
Y898280D01*
X3375800Y895680D02*
Y905180D01*
X3393300Y895680D02*
Y905180D01*
X3375800D02*
X3393300D01*
X3375800Y895680D02*
X3393300D01*
X3332620D02*
Y905180D01*
X3350120Y895680D02*
Y905180D01*
X3332620D02*
X3350120D01*
X3332620Y895680D02*
X3350120D01*
X3289440D02*
Y905180D01*
X3306940Y895680D02*
Y905180D01*
X3289440D02*
X3306940D01*
X3289440Y895680D02*
X3306940D01*
X3246260D02*
Y905180D01*
X3263760Y895680D02*
Y905180D01*
X3246260D02*
X3263760D01*
X3246260Y895680D02*
X3263760D01*
X3047890Y870960D02*
Y901960D01*
X3065890Y870960D02*
Y901960D01*
X3047890D02*
X3065890D01*
X3047890Y870960D02*
X3065890D01*
X2994800Y895680D02*
Y905180D01*
X3012300Y895680D02*
Y905180D01*
X2994800D02*
X3012300D01*
X2994800Y895680D02*
X3012300D01*
X2951620D02*
Y905180D01*
X2969120Y895680D02*
Y905180D01*
X2951620D02*
X2969120D01*
X2951620Y895680D02*
X2969120D01*
X2878150Y885330D02*
X2887650D01*
X2878150Y902830D02*
X2887650D01*
X2878150Y885330D02*
Y902830D01*
X2887650Y885330D02*
Y902830D01*
X2837320Y895680D02*
Y905180D01*
X2854820Y895680D02*
Y905180D01*
X2837320D02*
X2854820D01*
X2837320Y895680D02*
X2854820D01*
X2723020D02*
Y905180D01*
X2740520Y895680D02*
Y905180D01*
X2723020D02*
X2740520D01*
X2723020Y895680D02*
X2740520D01*
X2679840D02*
Y905180D01*
X2697340Y895680D02*
Y905180D01*
X2679840D02*
X2697340D01*
X2679840Y895680D02*
X2697340D01*
X2632060Y871260D02*
Y901660D01*
X2646060Y871260D02*
Y901660D01*
X2632060D02*
X2646060D01*
X2632060Y871260D02*
X2646060D01*
X2508580Y885330D02*
X2518080D01*
X2508580Y902830D02*
X2518080D01*
X2508580Y885330D02*
Y902830D01*
X2518080Y885330D02*
Y902830D01*
X2461880Y871260D02*
Y901660D01*
X2475880Y871260D02*
Y901660D01*
X2461880D02*
X2475880D01*
X2461880Y871260D02*
X2475880D01*
X2351240Y905890D02*
X2378240D01*
X2351240Y889890D02*
Y905890D01*
X2378240Y889890D02*
Y905890D01*
X2351240Y889890D02*
X2378240D01*
X2273630Y885330D02*
X2283130D01*
X2273630Y902830D02*
X2283130D01*
X2273630Y885330D02*
Y902830D01*
X2283130Y885330D02*
Y902830D01*
X2225180Y895680D02*
Y905180D01*
X2242680Y895680D02*
Y905180D01*
X2225180D02*
X2242680D01*
X2225180Y895680D02*
X2242680D01*
X1849450Y885330D02*
X1858950D01*
X1849450Y902830D02*
X1858950D01*
X1849450Y885330D02*
Y902830D01*
X1858950Y885330D02*
Y902830D01*
X1793570Y885330D02*
X1803070D01*
X1793570Y902830D02*
X1803070D01*
X1793570Y885330D02*
Y902830D01*
X1803070Y885330D02*
Y902830D01*
X3410750Y845280D02*
X3510750D01*
X3432810Y841928D02*
Y836930D01*
X3435309D01*
X3436142Y837763D01*
Y838596D01*
X3435309Y839429D01*
X3432810D01*
X3435309D01*
X3436142Y840262D01*
Y841095D01*
X3435309Y841928D01*
X3432810D01*
X3438641Y836930D02*
X3440308D01*
X3441141Y837763D01*
Y839429D01*
X3440308Y840262D01*
X3438641D01*
X3437809Y839429D01*
Y837763D01*
X3438641Y836930D01*
X3443640Y840262D02*
X3445306D01*
X3446139Y839429D01*
Y836930D01*
X3443640D01*
X3442807Y837763D01*
X3443640Y838596D01*
X3446139D01*
X3447805Y840262D02*
Y836930D01*
Y838596D01*
X3448638Y839429D01*
X3449471Y840262D01*
X3450304D01*
X3456136Y841928D02*
Y836930D01*
X3453636D01*
X3452804Y837763D01*
Y839429D01*
X3453636Y840262D01*
X3456136D01*
X3466133Y841928D02*
X3462800D01*
Y836930D01*
X3466133D01*
X3462800Y839429D02*
X3464466D01*
X3471131Y841928D02*
Y836930D01*
X3468632D01*
X3467798Y837763D01*
Y839429D01*
X3468632Y840262D01*
X3471131D01*
X3474463Y835264D02*
X3475296D01*
X3476129Y836097D01*
Y840262D01*
X3473630D01*
X3472797Y839429D01*
Y837763D01*
X3473630Y836930D01*
X3476129D01*
X3480294D02*
X3478628D01*
X3477795Y837763D01*
Y839429D01*
X3478628Y840262D01*
X3480294D01*
X3481128Y839429D01*
Y838596D01*
X3477795D01*
D19*
X4001984Y861249D02*
X3994842Y879995D01*
X3987701Y861249D01*
X3990379Y867498D02*
X3999306D01*
X4006358Y879995D02*
Y861249D01*
Y879995D02*
X4018855Y861249D01*
Y879995D02*
Y861249D01*
X4030281Y879995D02*
Y861249D01*
X4024033Y879995D02*
X4036530D01*
X4050366D02*
X4038762D01*
Y861249D01*
X4050366D01*
X4038762Y871069D02*
X4045903D01*
X4053490Y879995D02*
Y861249D01*
Y879995D02*
X4065988Y861249D01*
Y879995D02*
Y861249D01*
X4071165Y879995D02*
Y861249D01*
Y879995D02*
X4083663Y861249D01*
Y879995D02*
Y861249D01*
X4103123D02*
X4095981Y879995D01*
X4088840Y861249D01*
X4091518Y867498D02*
X4100445D01*
M02*
