G04*
G04 #@! TF.GenerationSoftware,Altium Limited,Altium Designer,18.1.9 (240)*
G04*
G04 Layer_Physical_Order=1*
G04 Layer_Color=255*
%FSLAX44Y44*%
%MOMM*%
G71*
G01*
G75*
%ADD10C,0.3000*%
%ADD15C,0.1270*%
%ADD16C,0.2540*%
%ADD18C,0.1000*%
%ADD19C,0.1984*%
%ADD20R,2.0000X0.9000*%
%ADD21R,0.9000X2.0000*%
%ADD22R,5.0000X5.0000*%
%ADD23R,0.9000X0.8000*%
%ADD24R,0.8400X0.2200*%
%ADD25R,0.2200X0.8400*%
%ADD26R,4.9500X4.9500*%
%ADD27R,0.4500X1.2000*%
%ADD28R,0.8000X0.9000*%
%ADD29R,1.5240X0.6350*%
%ADD30R,1.3000X0.7000*%
%ADD31R,0.8000X0.8000*%
%ADD32R,1.6000X0.6000*%
%ADD33R,1.0500X0.6000*%
%ADD34R,0.4500X0.6000*%
%ADD35R,2.6000X1.8000*%
%ADD36R,0.9140X1.2190*%
%ADD37R,1.3000X1.5499*%
%ADD63R,1.5000X1.5000*%
%ADD64C,1.5000*%
%ADD65R,1.5000X1.5000*%
%ADD66R,1.1000X1.1000*%
%ADD67O,1.2000X1.6000*%
%ADD68O,1.1000X1.8000*%
%ADD69C,3.0000*%
D10*
X3963180Y829620D02*
G03*
X3963180Y829620I-1000J0D01*
G01*
D15*
X3955350Y841740D02*
X4134550D01*
X3954950Y649740D02*
Y904740D01*
Y649740D02*
X4134950D01*
Y904740D01*
X3954950D02*
X4134950D01*
X2763330Y885190D02*
Y901190D01*
X2771330Y885190D02*
Y901190D01*
X2763330D02*
X2771330D01*
X2763330Y885190D02*
X2771330D01*
D16*
X1526500Y885220D02*
G03*
X1556500Y915220I0J30000D01*
G01*
X296500D02*
G03*
X326500Y885220I30000J0D01*
G01*
Y1245220D02*
G03*
X296500Y1215220I0J-30000D01*
G01*
X1556500D02*
G03*
X1526500Y1245220I-30000J0D01*
G01*
X326500Y885220D02*
X1526500D01*
X296500Y915220D02*
Y1215220D01*
X326500Y1245220D02*
X1526500D01*
X1556500Y915220D02*
Y1215220D01*
D18*
X3410750Y845280D02*
X3510750D01*
X3432810Y841928D02*
Y836930D01*
X3435309D01*
X3436142Y837763D01*
Y838596D01*
X3435309Y839429D01*
X3432810D01*
X3435309D01*
X3436142Y840262D01*
Y841095D01*
X3435309Y841928D01*
X3432810D01*
X3438641Y836930D02*
X3440308D01*
X3441141Y837763D01*
Y839429D01*
X3440308Y840262D01*
X3438641D01*
X3437809Y839429D01*
Y837763D01*
X3438641Y836930D01*
X3443640Y840262D02*
X3445306D01*
X3446139Y839429D01*
Y836930D01*
X3443640D01*
X3442807Y837763D01*
X3443640Y838596D01*
X3446139D01*
X3447805Y840262D02*
Y836930D01*
Y838596D01*
X3448638Y839429D01*
X3449471Y840262D01*
X3450304D01*
X3456136Y841928D02*
Y836930D01*
X3453636D01*
X3452804Y837763D01*
Y839429D01*
X3453636Y840262D01*
X3456136D01*
X3466133Y841928D02*
X3462800D01*
Y836930D01*
X3466133D01*
X3462800Y839429D02*
X3464466D01*
X3471131Y841928D02*
Y836930D01*
X3468632D01*
X3467798Y837763D01*
Y839429D01*
X3468632Y840262D01*
X3471131D01*
X3474463Y835264D02*
X3475296D01*
X3476129Y836097D01*
Y840262D01*
X3473630D01*
X3472797Y839429D01*
Y837763D01*
X3473630Y836930D01*
X3476129D01*
X3480294D02*
X3478628D01*
X3477795Y837763D01*
Y839429D01*
X3478628Y840262D01*
X3480294D01*
X3481128Y839429D01*
Y838596D01*
X3477795D01*
D19*
X4001984Y861249D02*
X3994842Y879995D01*
X3987701Y861249D01*
X3990379Y867498D02*
X3999306D01*
X4006358Y879995D02*
Y861249D01*
Y879995D02*
X4018855Y861249D01*
Y879995D02*
Y861249D01*
X4030281Y879995D02*
Y861249D01*
X4024033Y879995D02*
X4036530D01*
X4050366D02*
X4038762D01*
Y861249D01*
X4050366D01*
X4038762Y871069D02*
X4045903D01*
X4053490Y879995D02*
Y861249D01*
Y879995D02*
X4065988Y861249D01*
Y879995D02*
Y861249D01*
X4071165Y879995D02*
Y861249D01*
Y879995D02*
X4083663Y861249D01*
Y879995D02*
Y861249D01*
X4103123D02*
X4095981Y879995D01*
X4088840Y861249D01*
X4091518Y867498D02*
X4100445D01*
D20*
X4129950Y829840D02*
D03*
Y817140D02*
D03*
Y804440D02*
D03*
Y791740D02*
D03*
Y779040D02*
D03*
Y766340D02*
D03*
Y753640D02*
D03*
Y740940D02*
D03*
Y728240D02*
D03*
Y715540D02*
D03*
Y702840D02*
D03*
Y690140D02*
D03*
Y677440D02*
D03*
Y664740D02*
D03*
X3959950D02*
D03*
Y677440D02*
D03*
Y690140D02*
D03*
Y702840D02*
D03*
Y715540D02*
D03*
Y728240D02*
D03*
Y740940D02*
D03*
Y753640D02*
D03*
Y766340D02*
D03*
Y779040D02*
D03*
Y791740D02*
D03*
Y804440D02*
D03*
Y817140D02*
D03*
Y829840D02*
D03*
D21*
X4102100Y654740D02*
D03*
X4089400D02*
D03*
X4076700D02*
D03*
X4064000D02*
D03*
X4051300D02*
D03*
X4038600D02*
D03*
X4025900D02*
D03*
X4013200D02*
D03*
X4000500D02*
D03*
X3987800D02*
D03*
D22*
X4034950Y754840D02*
D03*
D23*
X3869690Y887080D02*
D03*
Y901080D02*
D03*
X3798570Y887080D02*
D03*
Y901080D02*
D03*
X3727450Y887080D02*
D03*
Y901080D02*
D03*
X2882900Y887080D02*
D03*
Y901080D02*
D03*
X2513330Y887080D02*
D03*
Y901080D02*
D03*
X2278380Y887080D02*
D03*
Y901080D02*
D03*
X1854200Y887080D02*
D03*
Y901080D02*
D03*
X1798320Y887080D02*
D03*
Y901080D02*
D03*
D24*
X3700940Y863540D02*
D03*
Y867540D02*
D03*
Y871540D02*
D03*
Y875540D02*
D03*
Y879540D02*
D03*
Y883540D02*
D03*
Y887540D02*
D03*
Y891540D02*
D03*
Y895540D02*
D03*
Y899540D02*
D03*
Y903540D02*
D03*
Y907540D02*
D03*
Y911540D02*
D03*
Y915540D02*
D03*
Y919540D02*
D03*
X3632040D02*
D03*
Y915540D02*
D03*
Y911540D02*
D03*
Y907540D02*
D03*
Y903540D02*
D03*
Y899540D02*
D03*
Y895540D02*
D03*
Y891540D02*
D03*
Y887540D02*
D03*
Y883540D02*
D03*
Y879540D02*
D03*
Y875540D02*
D03*
Y871540D02*
D03*
Y867540D02*
D03*
Y863540D02*
D03*
D25*
X3638490Y857090D02*
D03*
X3642490D02*
D03*
X3646490D02*
D03*
X3650490D02*
D03*
X3654490D02*
D03*
X3658490D02*
D03*
X3662490D02*
D03*
X3666490D02*
D03*
X3670490D02*
D03*
X3674490D02*
D03*
X3678490D02*
D03*
X3682490D02*
D03*
X3686490D02*
D03*
X3690490D02*
D03*
X3694490D02*
D03*
Y925990D02*
D03*
X3690490D02*
D03*
X3686490D02*
D03*
X3682490D02*
D03*
X3678490D02*
D03*
X3674490D02*
D03*
X3670490D02*
D03*
X3666490D02*
D03*
X3662490D02*
D03*
X3658490D02*
D03*
X3654490D02*
D03*
X3650490D02*
D03*
X3646490D02*
D03*
X3642490D02*
D03*
X3638490D02*
D03*
D26*
X3666490Y891540D02*
D03*
D27*
X3447750Y893780D02*
D03*
X3454250D02*
D03*
X3460750D02*
D03*
X3467250D02*
D03*
X3473750D02*
D03*
D28*
X3377550Y900430D02*
D03*
X3391550D02*
D03*
X3334370D02*
D03*
X3348370D02*
D03*
X3291190D02*
D03*
X3305190D02*
D03*
X3248010D02*
D03*
X3262010D02*
D03*
X2996550D02*
D03*
X3010550D02*
D03*
X2953370D02*
D03*
X2967370D02*
D03*
X2839070D02*
D03*
X2853070D02*
D03*
X2724770D02*
D03*
X2738770D02*
D03*
X2681590D02*
D03*
X2695590D02*
D03*
X2226930D02*
D03*
X2240930D02*
D03*
D29*
X3176549Y845820D02*
D03*
X3122650Y871220D02*
D03*
X3176549Y833120D02*
D03*
Y858520D02*
D03*
Y871220D02*
D03*
X3122650Y858520D02*
D03*
Y883920D02*
D03*
Y896620D02*
D03*
X3176549D02*
D03*
X3122650Y922020D02*
D03*
X3176549Y883920D02*
D03*
Y909320D02*
D03*
X3122650D02*
D03*
X3176549Y922020D02*
D03*
X3122650Y845820D02*
D03*
Y833120D02*
D03*
D30*
X3044890Y895960D02*
D03*
Y886460D02*
D03*
Y876960D02*
D03*
X3068890D02*
D03*
Y895960D02*
D03*
D31*
X2767330Y885190D02*
D03*
Y901190D02*
D03*
D32*
X2628060Y895960D02*
D03*
Y876960D02*
D03*
X2650060Y886460D02*
D03*
X2457880Y895960D02*
D03*
Y876960D02*
D03*
X2479880Y886460D02*
D03*
D33*
X2570410Y897230D02*
D03*
Y878230D02*
D03*
X2593410Y887730D02*
D03*
D34*
X2406040Y903000D02*
D03*
X2415540Y875000D02*
D03*
X2425040Y903000D02*
D03*
X2415540D02*
D03*
X2406040Y875000D02*
D03*
X2425040D02*
D03*
D35*
X2415540Y889000D02*
D03*
D36*
X2348357Y897890D02*
D03*
X2381123D02*
D03*
D37*
X2153011Y818769D02*
D03*
Y898271D02*
D03*
X2198009Y818769D02*
D03*
Y898271D02*
D03*
X2076811Y818769D02*
D03*
Y898271D02*
D03*
X2121809Y818769D02*
D03*
Y898271D02*
D03*
X1999341Y818769D02*
D03*
Y898271D02*
D03*
X2044339Y818769D02*
D03*
Y898271D02*
D03*
X1923141Y818769D02*
D03*
Y898271D02*
D03*
X1968139Y818769D02*
D03*
Y898271D02*
D03*
D63*
X444500Y1220470D02*
D03*
X1079100Y1220470D02*
D03*
D64*
X469900Y1220470D02*
D03*
X495300D02*
D03*
X520700D02*
D03*
X546100D02*
D03*
X571500D02*
D03*
X596900D02*
D03*
X622300D02*
D03*
X647700D02*
D03*
X673100D02*
D03*
X698500D02*
D03*
X723900D02*
D03*
X749300D02*
D03*
X774700D02*
D03*
X800100D02*
D03*
X825500D02*
D03*
X850900D02*
D03*
X876300D02*
D03*
X901700D02*
D03*
X927100D02*
D03*
X952500D02*
D03*
X977900D02*
D03*
X1003300D02*
D03*
X1028700D02*
D03*
X1054100D02*
D03*
X1409300Y1220470D02*
D03*
X1383900D02*
D03*
X1358500D02*
D03*
X1333100D02*
D03*
X1307700D02*
D03*
X1282300D02*
D03*
X1256900D02*
D03*
X1231500D02*
D03*
X1206100D02*
D03*
X1180700D02*
D03*
X1155300D02*
D03*
X1129900D02*
D03*
X1104500D02*
D03*
X4169410Y741680D02*
D03*
Y767080D02*
D03*
Y792480D02*
D03*
Y817880D02*
D03*
Y843280D02*
D03*
Y868680D02*
D03*
Y894080D02*
D03*
Y716280D02*
D03*
X3211830Y894080D02*
D03*
Y868680D02*
D03*
Y843280D02*
D03*
Y817880D02*
D03*
D65*
X4169410Y690880D02*
D03*
X3211830Y792480D02*
D03*
D66*
X3503000Y869650D02*
D03*
Y860410D02*
D03*
X3418500D02*
D03*
Y869650D02*
D03*
D67*
X3424750Y890780D02*
D03*
X3496750D02*
D03*
D68*
X3418500Y873780D02*
D03*
Y856280D02*
D03*
X3503000D02*
D03*
Y873780D02*
D03*
D69*
X326500Y1215220D02*
D03*
X1526500D02*
D03*
Y915220D02*
D03*
X326500D02*
D03*
M02*
