G04*
G04 #@! TF.GenerationSoftware,Altium Limited,Altium Designer,19.0.14 (431)*
G04*
G04 Layer_Physical_Order=2*
G04 Layer_Color=16711680*
%FSLAX44Y44*%
%MOMM*%
G71*
G01*
G75*
%ADD10C,0.2500*%
%ADD12C,0.3000*%
%ADD13C,0.1520*%
%ADD14C,0.2000*%
%ADD16C,0.1270*%
%ADD19R,0.9000X0.8000*%
%ADD20R,0.8000X0.9000*%
%ADD22R,2.0000X2.0000*%
%ADD68C,3.0000*%
%ADD70C,0.5000*%
%ADD71C,0.1250*%
%ADD73C,0.4000*%
%ADD74C,0.1000*%
G04:AMPARAMS|DCode=76|XSize=2.15mm|YSize=1.05mm|CornerRadius=0.525mm|HoleSize=0mm|Usage=FLASHONLY|Rotation=180.000|XOffset=0mm|YOffset=0mm|HoleType=Round|Shape=RoundedRectangle|*
%AMROUNDEDRECTD76*
21,1,2.1500,0.0000,0,0,180.0*
21,1,1.1000,1.0500,0,0,180.0*
1,1,1.0500,-0.5500,0.0000*
1,1,1.0500,0.5500,0.0000*
1,1,1.0500,0.5500,0.0000*
1,1,1.0500,-0.5500,0.0000*
%
%ADD76ROUNDEDRECTD76*%
%ADD77C,1.0000*%
%ADD78C,1.5000*%
%ADD79R,1.5000X1.5000*%
%ADD80R,1.5000X1.5000*%
%ADD81C,0.8001*%
%ADD82C,0.5000*%
%ADD83R,4.9500X4.9500*%
%ADD84R,1.1000X0.2200*%
%ADD85R,0.2200X1.1000*%
%ADD86R,2.5000X0.4000*%
%ADD87R,1.0000X1.0000*%
%ADD88R,0.5300X0.9700*%
%ADD89R,1.3500X1.3500*%
%ADD90R,1.6000X0.8000*%
%ADD91R,3.0000X2.1000*%
%ADD92R,0.8000X0.8000*%
%ADD93R,1.3000X1.5499*%
%ADD94C,0.3500*%
%ADD95C,0.3810*%
%ADD96C,0.0847*%
G36*
X328628Y1245750D02*
X1525372D01*
X1525372Y1245750D01*
X1525372Y1245750D01*
X1527422Y1245748D01*
X1531487Y1245210D01*
X1535447Y1244146D01*
X1539234Y1242574D01*
X1542784Y1240521D01*
X1546035Y1238022D01*
X1548932Y1235121D01*
X1551426Y1231866D01*
X1553473Y1228313D01*
X1555039Y1224524D01*
X1556098Y1220562D01*
X1556630Y1216496D01*
X1556628Y1214446D01*
Y1163993D01*
X1555358Y1163740D01*
X1554825Y1165029D01*
X1553576Y1166656D01*
X1551949Y1167905D01*
X1550054Y1168689D01*
X1548020Y1168957D01*
X1543790D01*
Y1161100D01*
Y1153243D01*
X1548020D01*
X1550054Y1153511D01*
X1551949Y1154296D01*
X1553576Y1155544D01*
X1554825Y1157171D01*
X1555358Y1158460D01*
X1556628Y1158207D01*
Y1107635D01*
X1555358Y1107382D01*
X1554924Y1108429D01*
X1553676Y1110056D01*
X1552049Y1111305D01*
X1550154Y1112089D01*
X1548120Y1112357D01*
X1543890D01*
Y1104500D01*
Y1096643D01*
X1548120D01*
X1550154Y1096910D01*
X1552049Y1097695D01*
X1553676Y1098944D01*
X1554924Y1100571D01*
X1555358Y1101618D01*
X1556628Y1101366D01*
Y914446D01*
X1556628Y914446D01*
X1556628Y912401D01*
X1556094Y908347D01*
X1555036Y904397D01*
X1553471Y900619D01*
X1551426Y897077D01*
X1548937Y893833D01*
X1546045Y890941D01*
X1542801Y888452D01*
X1539259Y886407D01*
X1535481Y884842D01*
X1531531Y883784D01*
X1527477Y883250D01*
X1525432D01*
X325324Y883250D01*
X323278Y883250D01*
X319220Y883784D01*
X315267Y884844D01*
X311486Y886410D01*
X307942Y888456D01*
X304695Y890947D01*
X301801Y893841D01*
X299310Y897088D01*
X297264Y900632D01*
X295698Y904413D01*
X294639Y908366D01*
X294104Y912424D01*
X294104Y914470D01*
X294229Y1217263D01*
X294229Y1217263D01*
X294229Y1217263D01*
X294423Y1219324D01*
X295345Y1223360D01*
X296786Y1227241D01*
X298721Y1230901D01*
X301118Y1234277D01*
X303934Y1237311D01*
X307123Y1239951D01*
X310629Y1242153D01*
X314392Y1243878D01*
X318349Y1245098D01*
X322430Y1245790D01*
X326567Y1245944D01*
X328628Y1245750D01*
D02*
G37*
%LPC*%
G36*
X1454980Y1219790D02*
X1446960D01*
Y1211770D01*
X1454980D01*
Y1219790D01*
D02*
G37*
G36*
X1054100Y1229572D02*
X1051744Y1229262D01*
X1049549Y1228352D01*
X1047664Y1226906D01*
X1046218Y1225021D01*
X1045308Y1222826D01*
X1044998Y1220470D01*
X1045308Y1218114D01*
X1046218Y1215919D01*
X1047664Y1214034D01*
X1049549Y1212588D01*
X1051744Y1211678D01*
X1054100Y1211368D01*
X1056456Y1211678D01*
X1058433Y1212497D01*
X1077750Y1193180D01*
X1078585Y1192622D01*
X1079570Y1192427D01*
X1080826D01*
Y1188376D01*
X1113174D01*
Y1200105D01*
X1125567Y1212497D01*
X1127544Y1211678D01*
X1129900Y1211368D01*
X1132256Y1211678D01*
X1134451Y1212588D01*
X1136336Y1214034D01*
X1137782Y1215919D01*
X1138692Y1218114D01*
X1139002Y1220470D01*
X1138692Y1222826D01*
X1137782Y1225021D01*
X1136336Y1226906D01*
X1134451Y1228352D01*
X1132256Y1229262D01*
X1129900Y1229572D01*
X1127544Y1229262D01*
X1125349Y1228352D01*
X1123464Y1226906D01*
X1122018Y1225021D01*
X1121108Y1222826D01*
X1120798Y1220470D01*
X1121108Y1218114D01*
X1121927Y1216137D01*
X1107180Y1201390D01*
X1107003Y1201124D01*
X1103573D01*
Y1210555D01*
X1104500Y1211368D01*
X1106856Y1211678D01*
X1109051Y1212588D01*
X1110936Y1214034D01*
X1112382Y1215919D01*
X1113292Y1218114D01*
X1113602Y1220470D01*
X1113292Y1222826D01*
X1112382Y1225021D01*
X1110936Y1226906D01*
X1109051Y1228352D01*
X1106856Y1229262D01*
X1104500Y1229572D01*
X1102144Y1229262D01*
X1099949Y1228352D01*
X1098064Y1226906D01*
X1096618Y1225021D01*
X1095708Y1222826D01*
X1095398Y1220470D01*
X1095708Y1218114D01*
X1096618Y1215919D01*
X1098064Y1214034D01*
X1098427Y1213756D01*
Y1201124D01*
X1094574D01*
Y1207570D01*
X1094378Y1208555D01*
X1093820Y1209390D01*
X1088124Y1215085D01*
Y1229494D01*
X1070076D01*
Y1211446D01*
X1084485D01*
X1089426Y1206504D01*
Y1201124D01*
X1080826D01*
Y1199180D01*
X1079556Y1198653D01*
X1062073Y1216137D01*
X1062892Y1218114D01*
X1063202Y1220470D01*
X1062892Y1222826D01*
X1061982Y1225021D01*
X1060536Y1226906D01*
X1058651Y1228352D01*
X1056456Y1229262D01*
X1054100Y1229572D01*
D02*
G37*
G36*
X1365270Y1205886D02*
Y1202270D01*
X1368886D01*
X1368748Y1202967D01*
X1367634Y1204634D01*
X1365966Y1205748D01*
X1365270Y1205886D01*
D02*
G37*
G36*
X1362730D02*
X1362034Y1205748D01*
X1360366Y1204634D01*
X1359252Y1202967D01*
X1359114Y1202270D01*
X1362730D01*
Y1205886D01*
D02*
G37*
G36*
X1344270D02*
Y1202270D01*
X1347886D01*
X1347748Y1202967D01*
X1346634Y1204634D01*
X1344966Y1205748D01*
X1344270Y1205886D01*
D02*
G37*
G36*
X1341730D02*
X1341033Y1205748D01*
X1339366Y1204634D01*
X1338252Y1202967D01*
X1338114Y1202270D01*
X1341730D01*
Y1205886D01*
D02*
G37*
G36*
X825500Y1229572D02*
X823144Y1229262D01*
X820949Y1228352D01*
X819064Y1226906D01*
X817618Y1225021D01*
X816708Y1222826D01*
X816398Y1220470D01*
X816708Y1218114D01*
X817061Y1217261D01*
X801174Y1201374D01*
X796355D01*
X796050Y1202644D01*
X800626Y1207220D01*
X801239Y1208138D01*
X801455Y1209220D01*
Y1211546D01*
X802456Y1211678D01*
X804651Y1212588D01*
X806536Y1214034D01*
X807982Y1215919D01*
X808892Y1218114D01*
X809202Y1220470D01*
X808892Y1222826D01*
X807982Y1225021D01*
X806536Y1226906D01*
X804651Y1228352D01*
X802456Y1229262D01*
X800100Y1229572D01*
X797744Y1229262D01*
X795549Y1228352D01*
X793664Y1226906D01*
X792218Y1225021D01*
X791308Y1222826D01*
X790998Y1220470D01*
X791308Y1218114D01*
X792218Y1215919D01*
X793664Y1214034D01*
X795549Y1212588D01*
X795798Y1212485D01*
Y1210392D01*
X791006Y1205600D01*
X790393Y1204682D01*
X790178Y1203600D01*
Y1201374D01*
X787828D01*
Y1210170D01*
X787828Y1210170D01*
X787613Y1211252D01*
X787000Y1212170D01*
X787000Y1212170D01*
X782778Y1216392D01*
X783492Y1218114D01*
X783802Y1220470D01*
X783492Y1222826D01*
X782582Y1225021D01*
X781136Y1226906D01*
X779251Y1228352D01*
X777056Y1229262D01*
X774700Y1229572D01*
X772344Y1229262D01*
X770149Y1228352D01*
X768264Y1226906D01*
X766818Y1225021D01*
X765908Y1222826D01*
X765598Y1220470D01*
X765908Y1218114D01*
X766818Y1215919D01*
X768264Y1214034D01*
X770149Y1212588D01*
X772344Y1211678D01*
X774700Y1211368D01*
X777056Y1211678D01*
X778778Y1212392D01*
X782172Y1208998D01*
Y1201374D01*
X775873D01*
X775600Y1201428D01*
X772342D01*
X757378Y1216392D01*
X758092Y1218114D01*
X758402Y1220470D01*
X758092Y1222826D01*
X757182Y1225021D01*
X755736Y1226906D01*
X753851Y1228352D01*
X751656Y1229262D01*
X749300Y1229572D01*
X746944Y1229262D01*
X744749Y1228352D01*
X742864Y1226906D01*
X741418Y1225021D01*
X740508Y1222826D01*
X740198Y1220470D01*
X740508Y1218114D01*
X741418Y1215919D01*
X742864Y1214034D01*
X744749Y1212588D01*
X746944Y1211678D01*
X749300Y1211368D01*
X751656Y1211678D01*
X753378Y1212392D01*
X769170Y1196600D01*
X770088Y1195987D01*
X771170Y1195772D01*
X772826D01*
Y1188626D01*
X805174D01*
Y1197374D01*
X820631Y1212831D01*
X820949Y1212588D01*
X823144Y1211678D01*
X825500Y1211368D01*
X827856Y1211678D01*
X830051Y1212588D01*
X831936Y1214034D01*
X833382Y1215919D01*
X834292Y1218114D01*
X834602Y1220470D01*
X834292Y1222826D01*
X833382Y1225021D01*
X831936Y1226906D01*
X830051Y1228352D01*
X827856Y1229262D01*
X825500Y1229572D01*
D02*
G37*
G36*
X1454980Y1209230D02*
X1446960D01*
Y1201210D01*
X1454980D01*
Y1209230D01*
D02*
G37*
G36*
X1409300Y1229572D02*
X1406944Y1229262D01*
X1404749Y1228352D01*
X1402864Y1226906D01*
X1401418Y1225021D01*
X1400508Y1222826D01*
X1400198Y1220470D01*
X1400508Y1218114D01*
X1401222Y1216392D01*
X1392000Y1207170D01*
X1391387Y1206252D01*
X1391172Y1205170D01*
Y1200124D01*
X1387778D01*
Y1212309D01*
X1388451Y1212588D01*
X1390336Y1214034D01*
X1391782Y1215919D01*
X1392692Y1218114D01*
X1393002Y1220470D01*
X1392692Y1222826D01*
X1391782Y1225021D01*
X1390336Y1226906D01*
X1388451Y1228352D01*
X1386256Y1229262D01*
X1383900Y1229572D01*
X1381544Y1229262D01*
X1379349Y1228352D01*
X1377464Y1226906D01*
X1376018Y1225021D01*
X1375108Y1222826D01*
X1374798Y1220470D01*
X1375108Y1218114D01*
X1376018Y1215919D01*
X1377464Y1214034D01*
X1379349Y1212588D01*
X1381544Y1211678D01*
X1382122Y1211602D01*
Y1200124D01*
X1379448D01*
Y1202350D01*
X1379233Y1203432D01*
X1378620Y1204350D01*
X1366578Y1216392D01*
X1367292Y1218114D01*
X1367602Y1220470D01*
X1367292Y1222826D01*
X1366382Y1225021D01*
X1364936Y1226906D01*
X1363051Y1228352D01*
X1360856Y1229262D01*
X1358500Y1229572D01*
X1356144Y1229262D01*
X1353949Y1228352D01*
X1352064Y1226906D01*
X1350618Y1225021D01*
X1349708Y1222826D01*
X1349398Y1220470D01*
X1349708Y1218114D01*
X1350618Y1215919D01*
X1352064Y1214034D01*
X1353949Y1212588D01*
X1356144Y1211678D01*
X1358500Y1211368D01*
X1360856Y1211678D01*
X1362578Y1212392D01*
X1373792Y1201178D01*
Y1195130D01*
X1373826Y1194957D01*
Y1187376D01*
X1406174D01*
Y1200124D01*
X1396828D01*
Y1203998D01*
X1405222Y1212392D01*
X1406944Y1211678D01*
X1409300Y1211368D01*
X1411656Y1211678D01*
X1413851Y1212588D01*
X1415736Y1214034D01*
X1417182Y1215919D01*
X1418092Y1218114D01*
X1418402Y1220470D01*
X1418092Y1222826D01*
X1417182Y1225021D01*
X1415736Y1226906D01*
X1413851Y1228352D01*
X1411656Y1229262D01*
X1409300Y1229572D01*
D02*
G37*
G36*
X1333100D02*
X1330744Y1229262D01*
X1328549Y1228352D01*
X1326664Y1226906D01*
X1325218Y1225021D01*
X1324308Y1222826D01*
X1323998Y1220470D01*
X1324308Y1218114D01*
X1325145Y1216095D01*
X1309174Y1200124D01*
X1303828D01*
Y1201997D01*
X1309051Y1207220D01*
X1309664Y1208138D01*
X1309880Y1209220D01*
Y1211655D01*
X1310056Y1211678D01*
X1312251Y1212588D01*
X1314136Y1214034D01*
X1315582Y1215919D01*
X1316492Y1218114D01*
X1316802Y1220470D01*
X1316492Y1222826D01*
X1315582Y1225021D01*
X1314136Y1226906D01*
X1312251Y1228352D01*
X1310056Y1229262D01*
X1307700Y1229572D01*
X1305344Y1229262D01*
X1303149Y1228352D01*
X1301264Y1226906D01*
X1299818Y1225021D01*
X1298908Y1222826D01*
X1298598Y1220470D01*
X1298908Y1218114D01*
X1299818Y1215919D01*
X1301264Y1214034D01*
X1303149Y1212588D01*
X1304223Y1212143D01*
Y1210391D01*
X1299000Y1205169D01*
X1298387Y1204251D01*
X1298172Y1203169D01*
Y1200124D01*
X1294647D01*
Y1202350D01*
X1294647Y1202350D01*
X1294432Y1203432D01*
X1293819Y1204350D01*
X1293819Y1204350D01*
X1287520Y1210648D01*
Y1213101D01*
X1288736Y1214034D01*
X1290182Y1215919D01*
X1291092Y1218114D01*
X1291402Y1220470D01*
X1291092Y1222826D01*
X1290182Y1225021D01*
X1288736Y1226906D01*
X1286851Y1228352D01*
X1284656Y1229262D01*
X1282300Y1229572D01*
X1279944Y1229262D01*
X1277749Y1228352D01*
X1275864Y1226906D01*
X1274418Y1225021D01*
X1273508Y1222826D01*
X1273198Y1220470D01*
X1273508Y1218114D01*
X1274418Y1215919D01*
X1275864Y1214034D01*
X1277749Y1212588D01*
X1279944Y1211678D01*
X1281863Y1211426D01*
Y1209477D01*
X1282079Y1208395D01*
X1282692Y1207477D01*
X1288775Y1201394D01*
X1288470Y1200124D01*
X1284826D01*
X1265825Y1219125D01*
X1266002Y1220470D01*
X1265692Y1222826D01*
X1264782Y1225021D01*
X1263336Y1226906D01*
X1261451Y1228352D01*
X1259256Y1229262D01*
X1256900Y1229572D01*
X1254544Y1229262D01*
X1252349Y1228352D01*
X1250464Y1226906D01*
X1249018Y1225021D01*
X1248108Y1222826D01*
X1247798Y1220470D01*
X1248108Y1218114D01*
X1249018Y1215919D01*
X1250464Y1214034D01*
X1252349Y1212588D01*
X1254544Y1211678D01*
X1256900Y1211368D01*
X1259256Y1211678D01*
X1261451Y1212588D01*
X1263098Y1213852D01*
X1280826Y1196124D01*
Y1187376D01*
X1313174D01*
Y1196124D01*
X1329319Y1212269D01*
X1330744Y1211678D01*
X1333100Y1211368D01*
X1335456Y1211678D01*
X1337651Y1212588D01*
X1339536Y1214034D01*
X1340982Y1215919D01*
X1341892Y1218114D01*
X1342202Y1220470D01*
X1341892Y1222826D01*
X1340982Y1225021D01*
X1339536Y1226906D01*
X1337651Y1228352D01*
X1335456Y1229262D01*
X1333100Y1229572D01*
D02*
G37*
G36*
X1231500D02*
X1229144Y1229262D01*
X1226949Y1228352D01*
X1225064Y1226906D01*
X1223618Y1225021D01*
X1222708Y1222826D01*
X1222398Y1220470D01*
X1222708Y1218114D01*
X1223428Y1216377D01*
X1207174Y1200124D01*
X1201828D01*
Y1201797D01*
X1207251Y1207220D01*
X1207864Y1208138D01*
X1208080Y1209220D01*
Y1211629D01*
X1208456Y1211678D01*
X1210651Y1212588D01*
X1212536Y1214034D01*
X1213982Y1215919D01*
X1214892Y1218114D01*
X1215202Y1220470D01*
X1214892Y1222826D01*
X1213982Y1225021D01*
X1212536Y1226906D01*
X1210651Y1228352D01*
X1208456Y1229262D01*
X1206100Y1229572D01*
X1203744Y1229262D01*
X1201549Y1228352D01*
X1199664Y1226906D01*
X1198218Y1225021D01*
X1197308Y1222826D01*
X1196998Y1220470D01*
X1197308Y1218114D01*
X1198218Y1215919D01*
X1199664Y1214034D01*
X1201549Y1212588D01*
X1202423Y1212226D01*
Y1210391D01*
X1197000Y1204969D01*
X1196387Y1204051D01*
X1196172Y1202969D01*
Y1200124D01*
X1193574D01*
Y1210170D01*
X1193378Y1211155D01*
X1192820Y1211990D01*
X1188673Y1216137D01*
X1189492Y1218114D01*
X1189802Y1220470D01*
X1189492Y1222826D01*
X1188582Y1225021D01*
X1187136Y1226906D01*
X1185251Y1228352D01*
X1183056Y1229262D01*
X1180700Y1229572D01*
X1178344Y1229262D01*
X1176149Y1228352D01*
X1174264Y1226906D01*
X1172818Y1225021D01*
X1171908Y1222826D01*
X1171598Y1220470D01*
X1171908Y1218114D01*
X1172818Y1215919D01*
X1174264Y1214034D01*
X1176149Y1212588D01*
X1178344Y1211678D01*
X1180700Y1211368D01*
X1183056Y1211678D01*
X1185033Y1212497D01*
X1188427Y1209104D01*
Y1200124D01*
X1182826D01*
X1164178Y1218772D01*
X1164402Y1220470D01*
X1164092Y1222826D01*
X1163182Y1225021D01*
X1161736Y1226906D01*
X1159851Y1228352D01*
X1157656Y1229262D01*
X1155300Y1229572D01*
X1152944Y1229262D01*
X1150749Y1228352D01*
X1148864Y1226906D01*
X1147418Y1225021D01*
X1146508Y1222826D01*
X1146198Y1220470D01*
X1146508Y1218114D01*
X1147418Y1215919D01*
X1148864Y1214034D01*
X1150749Y1212588D01*
X1152944Y1211678D01*
X1155300Y1211368D01*
X1157656Y1211678D01*
X1159851Y1212588D01*
X1161272Y1213678D01*
X1178826Y1196124D01*
Y1187376D01*
X1211174D01*
Y1196124D01*
X1227436Y1212386D01*
X1229144Y1211678D01*
X1231500Y1211368D01*
X1233856Y1211678D01*
X1236051Y1212588D01*
X1237936Y1214034D01*
X1239382Y1215919D01*
X1240292Y1218114D01*
X1240602Y1220470D01*
X1240292Y1222826D01*
X1239382Y1225021D01*
X1237936Y1226906D01*
X1236051Y1228352D01*
X1233856Y1229262D01*
X1231500Y1229572D01*
D02*
G37*
G36*
X1028700Y1229572D02*
X1026344Y1229262D01*
X1024149Y1228352D01*
X1022264Y1226906D01*
X1020818Y1225021D01*
X1019908Y1222826D01*
X1019598Y1220470D01*
X1019908Y1218114D01*
X1020089Y1217678D01*
X1002535Y1200124D01*
X997758D01*
X997232Y1201394D01*
X1003989Y1208150D01*
X1004547Y1208985D01*
X1004742Y1209970D01*
Y1211558D01*
X1005656Y1211678D01*
X1007851Y1212588D01*
X1009736Y1214034D01*
X1011182Y1215919D01*
X1012092Y1218114D01*
X1012402Y1220470D01*
X1012092Y1222826D01*
X1011182Y1225021D01*
X1009736Y1226906D01*
X1007851Y1228352D01*
X1005656Y1229262D01*
X1003300Y1229572D01*
X1000944Y1229262D01*
X998749Y1228352D01*
X996864Y1226906D01*
X995418Y1225021D01*
X994508Y1222826D01*
X994198Y1220470D01*
X994508Y1218114D01*
X995418Y1215919D01*
X996864Y1214034D01*
X998749Y1212588D01*
X999595Y1212237D01*
Y1211036D01*
X992180Y1203621D01*
X991622Y1202786D01*
X991426Y1201801D01*
Y1200124D01*
X988574D01*
Y1202401D01*
X988378Y1203386D01*
X987820Y1204221D01*
X981225Y1210815D01*
X981388Y1212147D01*
X982451Y1212588D01*
X984336Y1214034D01*
X985782Y1215919D01*
X986692Y1218114D01*
X987002Y1220470D01*
X986692Y1222826D01*
X985782Y1225021D01*
X984336Y1226906D01*
X982451Y1228352D01*
X980256Y1229262D01*
X977900Y1229572D01*
X975544Y1229262D01*
X973349Y1228352D01*
X971464Y1226906D01*
X970018Y1225021D01*
X969108Y1222826D01*
X968798Y1220470D01*
X969108Y1218114D01*
X970018Y1215919D01*
X971464Y1214034D01*
X973349Y1212588D01*
X975544Y1211678D01*
X975858Y1211637D01*
Y1209970D01*
X976053Y1208985D01*
X976611Y1208150D01*
X983368Y1201394D01*
X983284Y1200124D01*
X977465D01*
X960760Y1216830D01*
X961292Y1218114D01*
X961602Y1220470D01*
X961292Y1222826D01*
X960382Y1225021D01*
X958936Y1226906D01*
X957051Y1228352D01*
X954856Y1229262D01*
X952500Y1229572D01*
X950144Y1229262D01*
X947949Y1228352D01*
X946064Y1226906D01*
X944618Y1225021D01*
X943708Y1222826D01*
X943398Y1220470D01*
X943708Y1218114D01*
X944618Y1215919D01*
X946064Y1214034D01*
X947949Y1212588D01*
X950144Y1211678D01*
X952500Y1211368D01*
X954856Y1211678D01*
X957051Y1212588D01*
X957431Y1212879D01*
X973826Y1196485D01*
Y1187376D01*
X1006174D01*
Y1196485D01*
X1023090Y1213400D01*
X1024149Y1212588D01*
X1026344Y1211678D01*
X1028700Y1211368D01*
X1031056Y1211678D01*
X1033251Y1212588D01*
X1035136Y1214034D01*
X1036582Y1215919D01*
X1037492Y1218114D01*
X1037802Y1220470D01*
X1037492Y1222826D01*
X1036582Y1225021D01*
X1035136Y1226906D01*
X1033251Y1228352D01*
X1031056Y1229262D01*
X1028700Y1229572D01*
D02*
G37*
G36*
X927100D02*
X924744Y1229262D01*
X922549Y1228352D01*
X920664Y1226906D01*
X919218Y1225021D01*
X918308Y1222826D01*
X917998Y1220470D01*
X918308Y1218114D01*
X918958Y1216547D01*
X902535Y1200124D01*
X896573D01*
Y1201535D01*
X903189Y1208150D01*
X903746Y1208985D01*
X903942Y1209970D01*
Y1211663D01*
X904056Y1211678D01*
X906251Y1212588D01*
X908136Y1214034D01*
X909582Y1215919D01*
X910492Y1218114D01*
X910802Y1220470D01*
X910492Y1222826D01*
X909582Y1225021D01*
X908136Y1226906D01*
X906251Y1228352D01*
X904056Y1229262D01*
X901700Y1229572D01*
X899344Y1229262D01*
X897149Y1228352D01*
X895264Y1226906D01*
X893818Y1225021D01*
X892908Y1222826D01*
X892598Y1220470D01*
X892908Y1218114D01*
X893818Y1215919D01*
X895264Y1214034D01*
X897149Y1212588D01*
X898312Y1212106D01*
X898492Y1210732D01*
X892180Y1204421D01*
X891622Y1203586D01*
X891426Y1202601D01*
Y1200124D01*
X888574D01*
Y1210770D01*
X888378Y1211755D01*
X887820Y1212590D01*
X884273Y1216137D01*
X885092Y1218114D01*
X885402Y1220470D01*
X885092Y1222826D01*
X884182Y1225021D01*
X882736Y1226906D01*
X880851Y1228352D01*
X878656Y1229262D01*
X876300Y1229572D01*
X873944Y1229262D01*
X871749Y1228352D01*
X869864Y1226906D01*
X868418Y1225021D01*
X867508Y1222826D01*
X867198Y1220470D01*
X867508Y1218114D01*
X868418Y1215919D01*
X869864Y1214034D01*
X871749Y1212588D01*
X873944Y1211678D01*
X876300Y1211368D01*
X878656Y1211678D01*
X880633Y1212497D01*
X883427Y1209704D01*
Y1200124D01*
X877826D01*
X859708Y1218241D01*
X860002Y1220470D01*
X859692Y1222826D01*
X858782Y1225021D01*
X857336Y1226906D01*
X855451Y1228352D01*
X853256Y1229262D01*
X850900Y1229572D01*
X848544Y1229262D01*
X846349Y1228352D01*
X844464Y1226906D01*
X843018Y1225021D01*
X842108Y1222826D01*
X841798Y1220470D01*
X842108Y1218114D01*
X843018Y1215919D01*
X844464Y1214034D01*
X846349Y1212588D01*
X848544Y1211678D01*
X850900Y1211368D01*
X853256Y1211678D01*
X855451Y1212588D01*
X856533Y1213418D01*
X873826Y1196124D01*
Y1187376D01*
X906174D01*
Y1196485D01*
X922395Y1212706D01*
X922549Y1212588D01*
X924744Y1211678D01*
X927100Y1211368D01*
X929456Y1211678D01*
X931651Y1212588D01*
X933536Y1214034D01*
X934982Y1215919D01*
X935892Y1218114D01*
X936202Y1220470D01*
X935892Y1222826D01*
X934982Y1225021D01*
X933536Y1226906D01*
X931651Y1228352D01*
X929456Y1229262D01*
X927100Y1229572D01*
D02*
G37*
G36*
X723900D02*
X721544Y1229262D01*
X719349Y1228352D01*
X717464Y1226906D01*
X716018Y1225021D01*
X715108Y1222826D01*
X714798Y1220470D01*
X715108Y1218114D01*
X715125Y1218075D01*
X697174Y1200124D01*
X692930D01*
X692625Y1201394D01*
X698451Y1207220D01*
X699064Y1208138D01*
X699280Y1209220D01*
Y1211471D01*
X700856Y1211678D01*
X703051Y1212588D01*
X704936Y1214034D01*
X706382Y1215919D01*
X707292Y1218114D01*
X707602Y1220470D01*
X707292Y1222826D01*
X706382Y1225021D01*
X704936Y1226906D01*
X703051Y1228352D01*
X700856Y1229262D01*
X698500Y1229572D01*
X696144Y1229262D01*
X693949Y1228352D01*
X692064Y1226906D01*
X690618Y1225021D01*
X689708Y1222826D01*
X689398Y1220470D01*
X689708Y1218114D01*
X690618Y1215919D01*
X692064Y1214034D01*
X693623Y1212838D01*
Y1210392D01*
X687581Y1204350D01*
X686968Y1203432D01*
X686753Y1202350D01*
Y1200124D01*
X683828D01*
Y1202569D01*
X683613Y1203651D01*
X683000Y1204569D01*
X683000Y1204569D01*
X677177Y1210392D01*
Y1212391D01*
X677651Y1212588D01*
X679536Y1214034D01*
X680982Y1215919D01*
X681892Y1218114D01*
X682202Y1220470D01*
X681892Y1222826D01*
X680982Y1225021D01*
X679536Y1226906D01*
X677651Y1228352D01*
X675456Y1229262D01*
X673100Y1229572D01*
X670744Y1229262D01*
X668549Y1228352D01*
X666664Y1226906D01*
X665218Y1225021D01*
X664308Y1222826D01*
X663998Y1220470D01*
X664308Y1218114D01*
X665218Y1215919D01*
X666664Y1214034D01*
X668549Y1212588D01*
X670744Y1211678D01*
X671520Y1211576D01*
Y1209220D01*
X671736Y1208138D01*
X672349Y1207220D01*
X678172Y1201397D01*
Y1200124D01*
X672826D01*
X656007Y1216943D01*
X656492Y1218114D01*
X656802Y1220470D01*
X656492Y1222826D01*
X655582Y1225021D01*
X654136Y1226906D01*
X652251Y1228352D01*
X650056Y1229262D01*
X647700Y1229572D01*
X645344Y1229262D01*
X643149Y1228352D01*
X641264Y1226906D01*
X639818Y1225021D01*
X638908Y1222826D01*
X638598Y1220470D01*
X638908Y1218114D01*
X639818Y1215919D01*
X641264Y1214034D01*
X643149Y1212588D01*
X645344Y1211678D01*
X647700Y1211368D01*
X650056Y1211678D01*
X652251Y1212588D01*
X652314Y1212636D01*
X668826Y1196124D01*
Y1187376D01*
X701174D01*
Y1196124D01*
X718381Y1213331D01*
X719349Y1212588D01*
X721544Y1211678D01*
X723900Y1211368D01*
X726256Y1211678D01*
X728451Y1212588D01*
X730336Y1214034D01*
X731782Y1215919D01*
X732692Y1218114D01*
X733002Y1220470D01*
X732692Y1222826D01*
X731782Y1225021D01*
X730336Y1226906D01*
X728451Y1228352D01*
X726256Y1229262D01*
X723900Y1229572D01*
D02*
G37*
G36*
X622300D02*
X619944Y1229262D01*
X617749Y1228352D01*
X615864Y1226906D01*
X614418Y1225021D01*
X613508Y1222826D01*
X613198Y1220470D01*
X613508Y1218114D01*
X613993Y1216943D01*
X597174Y1200124D01*
X591828D01*
Y1201397D01*
X597651Y1207220D01*
X598264Y1208138D01*
X598480Y1209220D01*
Y1211576D01*
X599256Y1211678D01*
X601451Y1212588D01*
X603336Y1214034D01*
X604782Y1215919D01*
X605692Y1218114D01*
X606002Y1220470D01*
X605692Y1222826D01*
X604782Y1225021D01*
X603336Y1226906D01*
X601451Y1228352D01*
X599256Y1229262D01*
X596900Y1229572D01*
X594544Y1229262D01*
X592349Y1228352D01*
X590464Y1226906D01*
X589018Y1225021D01*
X588108Y1222826D01*
X587798Y1220470D01*
X588108Y1218114D01*
X589018Y1215919D01*
X590464Y1214034D01*
X592349Y1212588D01*
X592823Y1212391D01*
Y1210392D01*
X587000Y1204569D01*
X586387Y1203651D01*
X586172Y1202569D01*
Y1200124D01*
X583247D01*
Y1202350D01*
X583032Y1203432D01*
X582419Y1204350D01*
X576377Y1210392D01*
Y1212838D01*
X577936Y1214034D01*
X579382Y1215919D01*
X580292Y1218114D01*
X580602Y1220470D01*
X580292Y1222826D01*
X579382Y1225021D01*
X577936Y1226906D01*
X576051Y1228352D01*
X573856Y1229262D01*
X571500Y1229572D01*
X569144Y1229262D01*
X566949Y1228352D01*
X565064Y1226906D01*
X563618Y1225021D01*
X562708Y1222826D01*
X562398Y1220470D01*
X562708Y1218114D01*
X563618Y1215919D01*
X565064Y1214034D01*
X566949Y1212588D01*
X569144Y1211678D01*
X570720Y1211471D01*
Y1209220D01*
X570936Y1208138D01*
X571549Y1207220D01*
X577375Y1201394D01*
X577070Y1200124D01*
X572826D01*
X554875Y1218075D01*
X554892Y1218114D01*
X555202Y1220470D01*
X554892Y1222826D01*
X553982Y1225021D01*
X552536Y1226906D01*
X550651Y1228352D01*
X548456Y1229262D01*
X546100Y1229572D01*
X543744Y1229262D01*
X541549Y1228352D01*
X539664Y1226906D01*
X538218Y1225021D01*
X537308Y1222826D01*
X536998Y1220470D01*
X537308Y1218114D01*
X538218Y1215919D01*
X539664Y1214034D01*
X541549Y1212588D01*
X543744Y1211678D01*
X546100Y1211368D01*
X548456Y1211678D01*
X550651Y1212588D01*
X551619Y1213331D01*
X568826Y1196124D01*
Y1187376D01*
X601174D01*
Y1196124D01*
X617686Y1212636D01*
X617749Y1212588D01*
X619944Y1211678D01*
X622300Y1211368D01*
X624656Y1211678D01*
X626851Y1212588D01*
X628736Y1214034D01*
X630182Y1215919D01*
X631092Y1218114D01*
X631402Y1220470D01*
X631092Y1222826D01*
X630182Y1225021D01*
X628736Y1226906D01*
X626851Y1228352D01*
X624656Y1229262D01*
X622300Y1229572D01*
D02*
G37*
G36*
X520700D02*
X518344Y1229262D01*
X516149Y1228352D01*
X514264Y1226906D01*
X512818Y1225021D01*
X511908Y1222826D01*
X511598Y1220470D01*
X511908Y1218114D01*
X512818Y1215919D01*
X514264Y1214034D01*
X514509Y1213846D01*
X514687Y1212163D01*
X514405Y1211828D01*
X505000D01*
X503918Y1211613D01*
X503000Y1211000D01*
X495000Y1203000D01*
X494387Y1202082D01*
X494172Y1201000D01*
Y1200124D01*
X491828D01*
Y1203198D01*
X496851Y1208221D01*
X497464Y1209139D01*
X497680Y1210221D01*
X497680Y1210221D01*
Y1211688D01*
X499851Y1212588D01*
X501736Y1214034D01*
X503182Y1215919D01*
X504092Y1218114D01*
X504402Y1220470D01*
X504092Y1222826D01*
X503182Y1225021D01*
X501736Y1226906D01*
X499851Y1228352D01*
X497656Y1229262D01*
X495300Y1229572D01*
X492944Y1229262D01*
X490749Y1228352D01*
X488864Y1226906D01*
X487418Y1225021D01*
X486508Y1222826D01*
X486198Y1220470D01*
X486508Y1218114D01*
X487418Y1215919D01*
X488864Y1214034D01*
X490749Y1212588D01*
X491295Y1212361D01*
X491523Y1210892D01*
X487000Y1206370D01*
X486387Y1205452D01*
X486172Y1204370D01*
Y1200124D01*
X483828D01*
Y1205000D01*
X483828Y1205000D01*
X483613Y1206082D01*
X483000Y1207000D01*
X476313Y1213687D01*
X476336Y1214034D01*
X477782Y1215919D01*
X478692Y1218114D01*
X479002Y1220470D01*
X478692Y1222826D01*
X477782Y1225021D01*
X476336Y1226906D01*
X474451Y1228352D01*
X472256Y1229262D01*
X469900Y1229572D01*
X467544Y1229262D01*
X465349Y1228352D01*
X463464Y1226906D01*
X462018Y1225021D01*
X461108Y1222826D01*
X460798Y1220470D01*
X461108Y1218114D01*
X462018Y1215919D01*
X463464Y1214034D01*
X464201Y1213468D01*
X463770Y1212198D01*
X456772D01*
X453524Y1215446D01*
Y1229494D01*
X435476D01*
Y1211446D01*
X449524D01*
X453600Y1207370D01*
X454518Y1206757D01*
X455600Y1206542D01*
X455600Y1206542D01*
X464459D01*
X469606Y1201394D01*
X469080Y1200124D01*
X468826D01*
Y1187376D01*
X501174D01*
Y1200124D01*
X501174D01*
X500866Y1200866D01*
X506172Y1206172D01*
X516500D01*
X517582Y1206387D01*
X518500Y1207000D01*
X522700Y1211200D01*
X523016Y1211673D01*
X523056Y1211678D01*
X525251Y1212588D01*
X527136Y1214034D01*
X528582Y1215919D01*
X529492Y1218114D01*
X529802Y1220470D01*
X529492Y1222826D01*
X528582Y1225021D01*
X527136Y1226906D01*
X525251Y1228352D01*
X523056Y1229262D01*
X520700Y1229572D01*
D02*
G37*
G36*
X1526500Y1231824D02*
X1523261Y1231505D01*
X1520146Y1230560D01*
X1517275Y1229026D01*
X1514759Y1226961D01*
X1512694Y1224445D01*
X1511160Y1221574D01*
X1510215Y1218459D01*
X1509896Y1215220D01*
X1510215Y1211981D01*
X1511160Y1208866D01*
X1512694Y1205995D01*
X1514759Y1203479D01*
X1517275Y1201414D01*
X1520146Y1199880D01*
X1523261Y1198935D01*
X1526500Y1198616D01*
X1529739Y1198935D01*
X1532854Y1199880D01*
X1535725Y1201414D01*
X1538241Y1203479D01*
X1540306Y1205995D01*
X1541840Y1208866D01*
X1542785Y1211981D01*
X1543104Y1215220D01*
X1542785Y1218459D01*
X1541840Y1221574D01*
X1540306Y1224445D01*
X1538241Y1226961D01*
X1535725Y1229026D01*
X1532854Y1230560D01*
X1529739Y1231505D01*
X1526500Y1231824D01*
D02*
G37*
G36*
X326500D02*
X323261Y1231505D01*
X320146Y1230560D01*
X317275Y1229026D01*
X314759Y1226961D01*
X312694Y1224445D01*
X311160Y1221574D01*
X310215Y1218459D01*
X309896Y1215220D01*
X310215Y1211981D01*
X311160Y1208866D01*
X312694Y1205995D01*
X314759Y1203479D01*
X317275Y1201414D01*
X320146Y1199880D01*
X323261Y1198935D01*
X326500Y1198616D01*
X329739Y1198935D01*
X332854Y1199880D01*
X335725Y1201414D01*
X338241Y1203479D01*
X340306Y1205995D01*
X341840Y1208866D01*
X342785Y1211981D01*
X343104Y1215220D01*
X342785Y1218459D01*
X341840Y1221574D01*
X340306Y1224445D01*
X338241Y1226961D01*
X335725Y1229026D01*
X332854Y1230560D01*
X329739Y1231505D01*
X326500Y1231824D01*
D02*
G37*
G36*
X1368886Y1199730D02*
X1365270D01*
Y1196114D01*
X1365966Y1196252D01*
X1367634Y1197366D01*
X1368748Y1199034D01*
X1368886Y1199730D01*
D02*
G37*
G36*
X1362730D02*
X1359114D01*
X1359252Y1199034D01*
X1360366Y1197366D01*
X1362034Y1196252D01*
X1362730Y1196114D01*
Y1199730D01*
D02*
G37*
G36*
X1347886D02*
X1344270D01*
Y1196114D01*
X1344966Y1196252D01*
X1346634Y1197366D01*
X1347748Y1199034D01*
X1347886Y1199730D01*
D02*
G37*
G36*
X1341730D02*
X1338114D01*
X1338252Y1199034D01*
X1339366Y1197366D01*
X1341033Y1196252D01*
X1341730Y1196114D01*
Y1199730D01*
D02*
G37*
G36*
X1411270Y1186580D02*
Y1182964D01*
X1414886D01*
X1414748Y1183661D01*
X1413634Y1185328D01*
X1411967Y1186442D01*
X1411270Y1186580D01*
D02*
G37*
G36*
X1414886Y1180424D02*
X1411270D01*
Y1176808D01*
X1411967Y1176947D01*
X1413634Y1178061D01*
X1414748Y1179728D01*
X1414886Y1180424D01*
D02*
G37*
G36*
X1410570Y1171886D02*
Y1168270D01*
X1414186D01*
X1414048Y1168967D01*
X1412934Y1170634D01*
X1411266Y1171748D01*
X1410570Y1171886D01*
D02*
G37*
G36*
X1465540Y1219790D02*
X1457520D01*
Y1210500D01*
X1456250D01*
D01*
X1457520D01*
Y1201210D01*
X1464404D01*
Y1172866D01*
X1464207Y1172570D01*
X1464048Y1171774D01*
X1447976D01*
Y1165574D01*
X1445620D01*
X1445401Y1165901D01*
X1444070Y1166790D01*
X1442500Y1167103D01*
X1440930Y1166790D01*
X1439599Y1165901D01*
X1438710Y1164570D01*
X1438397Y1163000D01*
X1438710Y1161430D01*
X1439599Y1160099D01*
X1440930Y1159210D01*
X1442500Y1158897D01*
X1444070Y1159210D01*
X1445401Y1160099D01*
X1445620Y1160427D01*
X1447976D01*
Y1155226D01*
X1464383D01*
Y1150657D01*
X1463113Y1150003D01*
X1462891Y1150152D01*
X1462000Y1150329D01*
X1453284D01*
X1452901Y1150901D01*
X1451570Y1151790D01*
X1450000Y1152103D01*
X1448430Y1151790D01*
X1447099Y1150901D01*
X1446210Y1149570D01*
X1445897Y1148000D01*
X1446210Y1146430D01*
X1447099Y1145099D01*
X1448430Y1144210D01*
X1450000Y1143897D01*
X1451570Y1144210D01*
X1452901Y1145099D01*
X1453284Y1145671D01*
X1461035D01*
X1464404Y1142303D01*
Y1126773D01*
X1463099Y1125901D01*
X1462209Y1124570D01*
X1461897Y1123000D01*
X1462209Y1121430D01*
X1463099Y1120099D01*
X1464430Y1119210D01*
X1466000Y1118897D01*
X1467570Y1119210D01*
X1468901Y1120099D01*
X1469790Y1121430D01*
X1469860Y1121778D01*
X1470538Y1122456D01*
X1471317Y1123622D01*
X1471590Y1124997D01*
Y1138379D01*
X1472860Y1138905D01*
X1478140Y1133626D01*
X1477973Y1132788D01*
X1478286Y1131218D01*
X1479175Y1129887D01*
X1480506Y1128997D01*
X1482076Y1128685D01*
X1483646Y1128997D01*
X1484977Y1129887D01*
X1485460Y1130609D01*
X1495996D01*
Y1124340D01*
X1494980D01*
Y1121070D01*
X1510020D01*
X1525060D01*
Y1124340D01*
X1524044D01*
Y1135776D01*
Y1142276D01*
Y1149324D01*
X1523066D01*
X1522387Y1150594D01*
X1522681Y1151035D01*
X1523033Y1152800D01*
X1522681Y1154565D01*
X1521682Y1156062D01*
X1520418Y1156906D01*
X1520579Y1158049D01*
X1520629Y1158176D01*
X1523544D01*
Y1171224D01*
X1510496D01*
Y1158176D01*
X1516211D01*
X1516261Y1158049D01*
X1516422Y1156906D01*
X1515158Y1156062D01*
X1514158Y1154565D01*
X1513807Y1152800D01*
X1514158Y1151035D01*
X1514453Y1150594D01*
X1513774Y1149324D01*
X1495996D01*
Y1149218D01*
X1490439D01*
X1485093Y1154565D01*
X1483927Y1155343D01*
X1482552Y1155617D01*
X1471569D01*
Y1169103D01*
X1471788Y1169430D01*
X1472100Y1171000D01*
X1471788Y1172570D01*
X1471590Y1172866D01*
Y1206132D01*
X1471788Y1206428D01*
X1472100Y1207998D01*
X1471788Y1209568D01*
X1470898Y1210899D01*
X1469567Y1211788D01*
X1467997Y1212100D01*
X1466810Y1211864D01*
X1465540Y1212607D01*
Y1219790D01*
D02*
G37*
G36*
X1541250Y1168957D02*
X1537020D01*
X1534986Y1168689D01*
X1533091Y1167905D01*
X1531464Y1166656D01*
X1530215Y1165029D01*
X1529431Y1163134D01*
X1529330Y1162370D01*
X1541250D01*
Y1168957D01*
D02*
G37*
G36*
X1414186Y1165730D02*
X1410570D01*
Y1162114D01*
X1411266Y1162252D01*
X1412934Y1163366D01*
X1414048Y1165033D01*
X1414186Y1165730D01*
D02*
G37*
G36*
X1408030D02*
X1404414D01*
X1404552Y1165033D01*
X1405666Y1163366D01*
X1407334Y1162252D01*
X1408030Y1162114D01*
Y1165730D01*
D02*
G37*
G36*
X1541250Y1159830D02*
X1529330D01*
X1529431Y1159066D01*
X1530215Y1157171D01*
X1531464Y1155544D01*
X1533091Y1154296D01*
X1534986Y1153511D01*
X1537020Y1153243D01*
X1541250D01*
Y1159830D01*
D02*
G37*
G36*
X1408000Y1160103D02*
X1406430Y1159790D01*
X1405099Y1158901D01*
X1404209Y1157570D01*
X1403897Y1156000D01*
X1404209Y1154430D01*
X1405099Y1153099D01*
X1406430Y1152209D01*
X1408000Y1151897D01*
X1409570Y1152209D01*
X1410901Y1153099D01*
X1411790Y1154430D01*
X1412103Y1156000D01*
X1411790Y1157570D01*
X1410901Y1158901D01*
X1409570Y1159790D01*
X1408000Y1160103D01*
D02*
G37*
G36*
X311500Y1160134D02*
X309345Y1159705D01*
X307517Y1158484D01*
X306296Y1156657D01*
X305867Y1154501D01*
X306296Y1152346D01*
X307517Y1150518D01*
X309345Y1149297D01*
X311500Y1148868D01*
X313656Y1149297D01*
X315483Y1150518D01*
X316704Y1152346D01*
X317133Y1154501D01*
X316704Y1156657D01*
X315483Y1158484D01*
X313656Y1159705D01*
X311500Y1160134D01*
D02*
G37*
G36*
X1419000Y1212103D02*
X1417430Y1211790D01*
X1416099Y1210901D01*
X1415210Y1209570D01*
X1414897Y1208000D01*
X1415210Y1206430D01*
X1416099Y1205099D01*
X1416427Y1204880D01*
Y1156066D01*
X1407386Y1147026D01*
X1407000Y1147103D01*
X1405430Y1146790D01*
X1404099Y1145901D01*
X1403210Y1144570D01*
X1402897Y1143000D01*
X1402978Y1142593D01*
X1401304Y1140918D01*
X1400746Y1140083D01*
X1400550Y1139099D01*
Y1132202D01*
X1400099Y1131901D01*
X1399209Y1130570D01*
X1398897Y1129000D01*
X1399209Y1127430D01*
X1400099Y1126099D01*
X1401430Y1125210D01*
X1403000Y1124897D01*
X1404570Y1125210D01*
X1405901Y1126099D01*
X1406120Y1126427D01*
X1425445D01*
X1471692Y1080180D01*
X1472527Y1079622D01*
X1473511Y1079426D01*
X1533934D01*
X1538663Y1074697D01*
X1538177Y1073524D01*
X1537096D01*
Y1062476D01*
X1548144D01*
Y1073524D01*
X1545573D01*
Y1074000D01*
X1545378Y1074985D01*
X1544820Y1075820D01*
X1536820Y1083820D01*
X1535985Y1084378D01*
X1535000Y1084573D01*
X1474577D01*
X1428331Y1130820D01*
X1427496Y1131378D01*
X1426511Y1131573D01*
X1406120D01*
X1405901Y1131901D01*
X1405697Y1132038D01*
Y1138033D01*
X1406634Y1138970D01*
X1407000Y1138897D01*
X1408570Y1139210D01*
X1409901Y1140099D01*
X1410791Y1141430D01*
X1411103Y1143000D01*
X1411026Y1143387D01*
X1420820Y1153180D01*
X1421378Y1154015D01*
X1421573Y1155000D01*
Y1204880D01*
X1421901Y1205099D01*
X1422791Y1206430D01*
X1423103Y1208000D01*
X1422791Y1209570D01*
X1421901Y1210901D01*
X1420570Y1211790D01*
X1419000Y1212103D01*
D02*
G37*
G36*
X1408730Y1186580D02*
X1408033Y1186442D01*
X1406366Y1185328D01*
X1405252Y1183661D01*
X1405046Y1182624D01*
X1373826D01*
Y1169876D01*
X1375190D01*
Y1142066D01*
X1370997Y1137873D01*
X1297172D01*
X1296686Y1139047D01*
X1310820Y1153180D01*
X1311378Y1154015D01*
X1311573Y1155000D01*
Y1169876D01*
X1313174D01*
Y1182624D01*
X1280826D01*
Y1169876D01*
X1281427D01*
Y1157066D01*
X1277934Y1153574D01*
X1198872D01*
X1198386Y1154747D01*
X1208820Y1165180D01*
X1209378Y1166015D01*
X1209574Y1167000D01*
Y1169876D01*
X1211174D01*
Y1182624D01*
X1178826D01*
Y1179923D01*
X1176066D01*
X1172170Y1183820D01*
X1171335Y1184378D01*
X1170350Y1184573D01*
X1120226D01*
X1119241Y1184378D01*
X1118406Y1183820D01*
X1114444Y1179857D01*
X1113174Y1180383D01*
Y1183624D01*
X1080826D01*
Y1181609D01*
X1079556Y1181083D01*
X1078820Y1181820D01*
X1077985Y1182378D01*
X1077000Y1182573D01*
X1009000D01*
X1008015Y1182378D01*
X1007444Y1181996D01*
X1006174Y1182426D01*
Y1182624D01*
X973826D01*
Y1169876D01*
X975426D01*
Y1164500D01*
X975622Y1163515D01*
X976180Y1162680D01*
X981961Y1156900D01*
X982302Y1156672D01*
X981917Y1155402D01*
X906237D01*
X904574Y1157066D01*
Y1169876D01*
X906174D01*
Y1182624D01*
X873826D01*
Y1169876D01*
X875426D01*
Y1144250D01*
X875622Y1143265D01*
X876180Y1142430D01*
X879564Y1139047D01*
X879078Y1137873D01*
X805766D01*
X803573Y1140066D01*
Y1171126D01*
X805174D01*
Y1183874D01*
X772826D01*
Y1171126D01*
X774426D01*
Y1136000D01*
X774622Y1135015D01*
X775180Y1134180D01*
X786314Y1123047D01*
X785828Y1121873D01*
X701766D01*
X699574Y1124066D01*
Y1169876D01*
X701174D01*
Y1182624D01*
X668826D01*
Y1169876D01*
X670426D01*
Y1115300D01*
X670622Y1114315D01*
X671180Y1113480D01*
X677614Y1107047D01*
X677128Y1105873D01*
X603566D01*
X599574Y1109866D01*
Y1169876D01*
X601174D01*
Y1182624D01*
X568826D01*
Y1169876D01*
X570426D01*
Y1099214D01*
X570622Y1098230D01*
X571180Y1097395D01*
X577828Y1090747D01*
X577342Y1089574D01*
X503066D01*
X499573Y1093066D01*
Y1169876D01*
X501174D01*
Y1182624D01*
X468826D01*
Y1169876D01*
X470426D01*
Y1080000D01*
X470622Y1079015D01*
X471180Y1078180D01*
X477156Y1072204D01*
X477991Y1071646D01*
X478976Y1071451D01*
X764387D01*
X765132Y1070181D01*
X764897Y1069000D01*
X765210Y1067430D01*
X766099Y1066099D01*
X766481Y1065844D01*
X766096Y1064574D01*
X436536D01*
X435551Y1064378D01*
X434716Y1063820D01*
X401181Y1030284D01*
X400623Y1029449D01*
X400427Y1028464D01*
Y1016574D01*
X389477D01*
Y998027D01*
X394927D01*
Y937073D01*
X389477D01*
Y918525D01*
X405524D01*
Y937073D01*
X400074D01*
Y998027D01*
X405524D01*
Y1004426D01*
X416880D01*
X417099Y1004099D01*
X418430Y1003210D01*
X420000Y1002897D01*
X421570Y1003210D01*
X422901Y1004099D01*
X423791Y1005430D01*
X424103Y1007000D01*
X423791Y1008570D01*
X422901Y1009901D01*
X421570Y1010790D01*
X420000Y1011103D01*
X418430Y1010790D01*
X417099Y1009901D01*
X416880Y1009573D01*
X405524D01*
Y1012552D01*
X405574Y1012801D01*
Y1027399D01*
X437602Y1059427D01*
X812882D01*
X813468Y1058157D01*
X812970Y1057573D01*
X812965Y1057571D01*
X557002D01*
X556017Y1057375D01*
X555182Y1056818D01*
X543181Y1044816D01*
X542623Y1043981D01*
X542427Y1042997D01*
Y1016574D01*
X536977D01*
Y998027D01*
X542427D01*
Y937073D01*
X536977D01*
Y918525D01*
X553024D01*
Y937073D01*
X547574D01*
Y998027D01*
X553024D01*
Y1004426D01*
X562880D01*
X563099Y1004099D01*
X564430Y1003210D01*
X566000Y1002897D01*
X567570Y1003210D01*
X568901Y1004099D01*
X569790Y1005430D01*
X570103Y1007000D01*
X569790Y1008570D01*
X568901Y1009901D01*
X567570Y1010790D01*
X566000Y1011103D01*
X564430Y1010790D01*
X563099Y1009901D01*
X562880Y1009573D01*
X553024D01*
Y1016574D01*
X547574D01*
Y1041930D01*
X558068Y1052424D01*
X780307D01*
X780750Y1051154D01*
X779822Y1049766D01*
X779684Y1049070D01*
X789456D01*
X789318Y1049766D01*
X788390Y1051154D01*
X788833Y1052424D01*
X794093D01*
X794478Y1051154D01*
X794099Y1050901D01*
X793210Y1049570D01*
X792897Y1048000D01*
X793210Y1046430D01*
X794099Y1045099D01*
X795430Y1044210D01*
X797000Y1043897D01*
X901525D01*
X901756Y1043589D01*
X902087Y1042627D01*
X901381Y1041570D01*
X901069Y1040000D01*
X901146Y1039613D01*
X874106Y1012573D01*
X783000D01*
X782015Y1012378D01*
X781180Y1011820D01*
X755934Y986573D01*
X730120D01*
X729901Y986901D01*
X728570Y987791D01*
X727000Y988103D01*
X725430Y987791D01*
X724099Y986901D01*
X723210Y985570D01*
X722897Y984000D01*
X723210Y982430D01*
X724099Y981099D01*
X725430Y980210D01*
X725438Y978913D01*
X725208Y978568D01*
X724896Y976998D01*
X725208Y975428D01*
X726097Y974097D01*
X727429Y973207D01*
X728998Y972895D01*
X730569Y973207D01*
X731900Y974097D01*
X732119Y974425D01*
X759998D01*
X760983Y974621D01*
X761818Y975178D01*
X789066Y1002427D01*
X881000D01*
X881985Y1002622D01*
X882820Y1003180D01*
X906613Y1026974D01*
X907000Y1026897D01*
X908570Y1027209D01*
X909901Y1028099D01*
X910790Y1029430D01*
X911103Y1031000D01*
X910790Y1032570D01*
X909901Y1033901D01*
X908570Y1034790D01*
X907152Y1035073D01*
X907004Y1035484D01*
X906953Y1035704D01*
X906904Y1036318D01*
X908073Y1037099D01*
X908962Y1038430D01*
X909130Y1039272D01*
X910508Y1039690D01*
X955099Y995099D01*
X956430Y994210D01*
X958000Y993897D01*
X959570Y994210D01*
X960901Y995099D01*
X961790Y996430D01*
X962103Y998000D01*
X961790Y999570D01*
X960901Y1000901D01*
X910901Y1050901D01*
X909570Y1051790D01*
X908000Y1052103D01*
X821251D01*
X820652Y1053223D01*
X820789Y1053428D01*
X821101Y1054998D01*
X820789Y1056568D01*
X820051Y1057672D01*
X819900Y1059047D01*
Y1059098D01*
X819901Y1059099D01*
X820790Y1060430D01*
X821103Y1062000D01*
X820790Y1063570D01*
X819901Y1064901D01*
X820053Y1066327D01*
X820789Y1067428D01*
X821101Y1068998D01*
X820866Y1070181D01*
X821610Y1071451D01*
X1010910D01*
X1014180Y1068180D01*
X1015015Y1067622D01*
X1016000Y1067427D01*
X1032934D01*
X1042180Y1058180D01*
X1042454Y1057998D01*
X1042925Y1057196D01*
X1042754Y1056386D01*
X1042209Y1055570D01*
X1041897Y1054000D01*
X1042209Y1052430D01*
X1043099Y1051099D01*
X1043427Y1050880D01*
Y1040000D01*
X1043622Y1039015D01*
X1044180Y1038180D01*
X1044974Y1037386D01*
X1044897Y1037000D01*
X1045210Y1035430D01*
X1046099Y1034099D01*
X1047430Y1033210D01*
X1049000Y1032897D01*
X1050570Y1033210D01*
X1051901Y1034099D01*
X1052791Y1035430D01*
X1053103Y1037000D01*
X1052791Y1038570D01*
X1051901Y1039901D01*
X1050570Y1040790D01*
X1049000Y1041103D01*
X1048573Y1042313D01*
Y1050880D01*
X1048901Y1051099D01*
X1049790Y1052430D01*
X1050103Y1054000D01*
X1049790Y1055570D01*
X1049399Y1056156D01*
X1050078Y1057427D01*
X1079000D01*
X1079985Y1057622D01*
X1080820Y1058180D01*
X1082503Y1059864D01*
X1083677Y1059378D01*
Y1055720D01*
X1083593Y1055637D01*
X1083089Y1054881D01*
X1082911Y1053990D01*
Y1051024D01*
X1076476D01*
Y1038976D01*
X1078662D01*
Y1034024D01*
X1076476D01*
Y1031969D01*
X1076209Y1031570D01*
X1075897Y1030000D01*
X1076209Y1028430D01*
X1076476Y1028031D01*
Y1025249D01*
X1076426Y1025000D01*
Y1021347D01*
X1075816Y1020853D01*
X1075640Y1020803D01*
X1074540Y1021791D01*
X1074540Y1022133D01*
Y1026730D01*
X1068000D01*
X1061460D01*
Y1024140D01*
X1060190Y1023463D01*
X1059983Y1023602D01*
X1059790Y1024570D01*
X1058901Y1025901D01*
X1057570Y1026790D01*
X1056000Y1027103D01*
X1054430Y1026790D01*
X1053099Y1025901D01*
X1052209Y1024570D01*
X1051897Y1023000D01*
X1052209Y1021430D01*
X1053099Y1020099D01*
X1054430Y1019210D01*
X1056000Y1018897D01*
X1056386Y1018974D01*
X1062180Y1013180D01*
X1063015Y1012622D01*
X1064000Y1012427D01*
X1073783D01*
X1074767Y1012622D01*
X1075602Y1013180D01*
X1080820Y1018398D01*
X1081378Y1019233D01*
X1081573Y1020218D01*
Y1021976D01*
X1087524D01*
X1087677Y1020769D01*
Y922536D01*
X1084385Y919244D01*
X1069976D01*
Y901196D01*
X1088024D01*
Y915605D01*
X1092070Y919650D01*
X1092628Y920485D01*
X1092823Y921470D01*
Y945378D01*
X1093997Y945864D01*
X1101926Y937934D01*
Y918963D01*
X1099849Y918102D01*
X1097964Y916656D01*
X1096518Y914771D01*
X1095608Y912576D01*
X1095298Y910220D01*
X1095608Y907864D01*
X1096518Y905669D01*
X1097964Y903784D01*
X1099849Y902338D01*
X1102044Y901428D01*
X1104400Y901118D01*
X1106756Y901428D01*
X1108951Y902338D01*
X1110836Y903784D01*
X1112282Y905669D01*
X1113192Y907864D01*
X1113502Y910220D01*
X1113192Y912576D01*
X1112282Y914771D01*
X1110836Y916656D01*
X1108951Y918102D01*
X1107074Y918880D01*
Y939000D01*
X1106889Y939925D01*
X1106944Y940006D01*
X1108007Y940603D01*
X1127226Y921384D01*
Y918922D01*
X1125249Y918102D01*
X1123364Y916656D01*
X1121918Y914771D01*
X1121008Y912576D01*
X1120698Y910220D01*
X1121008Y907864D01*
X1121918Y905669D01*
X1123364Y903784D01*
X1125249Y902338D01*
X1127444Y901428D01*
X1129800Y901118D01*
X1132156Y901428D01*
X1134351Y902338D01*
X1136236Y903784D01*
X1137682Y905669D01*
X1138592Y907864D01*
X1138902Y910220D01*
X1138592Y912576D01*
X1137682Y914771D01*
X1136236Y916656D01*
X1134351Y918102D01*
X1132374Y918922D01*
Y922450D01*
X1132178Y923435D01*
X1131620Y924270D01*
X1100824Y955066D01*
Y959298D01*
X1101997Y959784D01*
X1147227Y914553D01*
X1146408Y912576D01*
X1146098Y910220D01*
X1146408Y907864D01*
X1147318Y905669D01*
X1148764Y903784D01*
X1150649Y902338D01*
X1152844Y901428D01*
X1155200Y901118D01*
X1157556Y901428D01*
X1159751Y902338D01*
X1161636Y903784D01*
X1163082Y905669D01*
X1163992Y907864D01*
X1164302Y910220D01*
X1163992Y912576D01*
X1163082Y914771D01*
X1161636Y916656D01*
X1159751Y918102D01*
X1157556Y919012D01*
X1155200Y919322D01*
X1152844Y919012D01*
X1150867Y918193D01*
X1104824Y964236D01*
Y980698D01*
X1105997Y981184D01*
X1172627Y914553D01*
X1171808Y912576D01*
X1171498Y910220D01*
X1171808Y907864D01*
X1172718Y905669D01*
X1174164Y903784D01*
X1176049Y902338D01*
X1178244Y901428D01*
X1180600Y901118D01*
X1182956Y901428D01*
X1185151Y902338D01*
X1187036Y903784D01*
X1188482Y905669D01*
X1189392Y907864D01*
X1189702Y910220D01*
X1189392Y912576D01*
X1188482Y914771D01*
X1187036Y916656D01*
X1185151Y918102D01*
X1182956Y919012D01*
X1180600Y919322D01*
X1178244Y919012D01*
X1176267Y918193D01*
X1108823Y985636D01*
Y1002098D01*
X1109997Y1002584D01*
X1198027Y914553D01*
X1197208Y912576D01*
X1196898Y910220D01*
X1197208Y907864D01*
X1198118Y905669D01*
X1199564Y903784D01*
X1201449Y902338D01*
X1203644Y901428D01*
X1206000Y901118D01*
X1208356Y901428D01*
X1210551Y902338D01*
X1212436Y903784D01*
X1213882Y905669D01*
X1214792Y907864D01*
X1215102Y910220D01*
X1214792Y912576D01*
X1213882Y914771D01*
X1212436Y916656D01*
X1210551Y918102D01*
X1208356Y919012D01*
X1206000Y919322D01*
X1203644Y919012D01*
X1201667Y918193D01*
X1112823Y1007036D01*
Y1023498D01*
X1113997Y1023984D01*
X1223427Y914553D01*
X1222608Y912576D01*
X1222298Y910220D01*
X1222608Y907864D01*
X1223518Y905669D01*
X1224964Y903784D01*
X1226849Y902338D01*
X1229044Y901428D01*
X1231400Y901118D01*
X1233756Y901428D01*
X1235951Y902338D01*
X1237836Y903784D01*
X1239282Y905669D01*
X1240192Y907864D01*
X1240502Y910220D01*
X1240192Y912576D01*
X1239282Y914771D01*
X1237836Y916656D01*
X1235951Y918102D01*
X1233756Y919012D01*
X1231400Y919322D01*
X1229044Y919012D01*
X1227067Y918193D01*
X1116824Y1028436D01*
Y1043523D01*
X1117997Y1044009D01*
X1248425Y913581D01*
X1248008Y912576D01*
X1247698Y910220D01*
X1248008Y907864D01*
X1248918Y905669D01*
X1250364Y903784D01*
X1252249Y902338D01*
X1254444Y901428D01*
X1256800Y901118D01*
X1259156Y901428D01*
X1261351Y902338D01*
X1263236Y903784D01*
X1264682Y905669D01*
X1265592Y907864D01*
X1265902Y910220D01*
X1265592Y912576D01*
X1264682Y914771D01*
X1263236Y916656D01*
X1261351Y918102D01*
X1259156Y919012D01*
X1256800Y919322D01*
X1254444Y919012D01*
X1252249Y918102D01*
X1251645Y917639D01*
X1136529Y1032755D01*
X1136900Y1034180D01*
X1137901Y1034849D01*
X1138791Y1036180D01*
X1139103Y1037750D01*
X1138791Y1039320D01*
X1137901Y1040651D01*
X1136570Y1041541D01*
X1135000Y1041853D01*
X1134613Y1041776D01*
X1124824Y1051566D01*
Y1054880D01*
X1125151Y1055099D01*
X1125820Y1056100D01*
X1127245Y1056471D01*
X1128305Y1055411D01*
X1128656Y1054885D01*
X1200655Y982886D01*
X1201490Y982328D01*
X1202475Y982133D01*
X1206648D01*
X1274227Y914553D01*
X1273408Y912576D01*
X1273098Y910220D01*
X1273408Y907864D01*
X1274318Y905669D01*
X1275764Y903784D01*
X1277649Y902338D01*
X1279844Y901428D01*
X1282200Y901118D01*
X1284556Y901428D01*
X1286751Y902338D01*
X1288636Y903784D01*
X1290082Y905669D01*
X1290992Y907864D01*
X1291302Y910220D01*
X1290992Y912576D01*
X1290082Y914771D01*
X1288636Y916656D01*
X1286751Y918102D01*
X1284556Y919012D01*
X1282200Y919322D01*
X1279844Y919012D01*
X1277867Y918193D01*
X1209534Y986526D01*
X1208699Y987084D01*
X1207714Y987280D01*
X1203540D01*
X1136783Y1054037D01*
X1137269Y1055210D01*
X1144540D01*
Y1060480D01*
X1137500D01*
Y1061750D01*
X1136230D01*
Y1068290D01*
X1130460D01*
Y1062194D01*
X1129287Y1061708D01*
X1124824Y1066171D01*
Y1076526D01*
X1124874D01*
Y1082145D01*
X1126051Y1082895D01*
X1126144Y1082882D01*
X1126700Y1082050D01*
X1131476Y1077274D01*
Y1070226D01*
X1143524D01*
Y1071772D01*
X1149226D01*
Y1070476D01*
X1161274D01*
Y1071897D01*
X1193051D01*
X1210951Y1053997D01*
X1210465Y1052823D01*
X1177120D01*
X1176901Y1053151D01*
X1175570Y1054041D01*
X1174000Y1054353D01*
X1172430Y1054041D01*
X1171099Y1053151D01*
X1170210Y1051820D01*
X1169897Y1050250D01*
X1170210Y1048680D01*
X1170807Y1047785D01*
X1171090Y1047331D01*
X1170540Y1046195D01*
X1170097Y1045899D01*
X1169207Y1044568D01*
X1168895Y1042998D01*
X1169207Y1041428D01*
X1170097Y1040097D01*
X1171428Y1039207D01*
X1172998Y1038895D01*
X1174568Y1039207D01*
X1175899Y1040097D01*
X1176118Y1040424D01*
X1205936D01*
X1223180Y1023180D01*
X1224015Y1022622D01*
X1225000Y1022427D01*
X1265534D01*
X1266519Y1022622D01*
X1267354Y1023180D01*
X1326604Y1082430D01*
X1327162Y1083265D01*
X1327358Y1084250D01*
Y1086486D01*
X1327901Y1086849D01*
X1328790Y1088180D01*
X1329103Y1089750D01*
X1328790Y1091320D01*
X1327901Y1092651D01*
X1326570Y1093540D01*
X1325000Y1093853D01*
X1323430Y1093540D01*
X1322099Y1092651D01*
X1321847Y1092274D01*
X1320320Y1092274D01*
X1319901Y1092901D01*
X1318570Y1093791D01*
X1317000Y1094103D01*
X1315430Y1093791D01*
X1314099Y1092901D01*
X1313210Y1091570D01*
X1312897Y1090000D01*
X1312974Y1089613D01*
X1255660Y1032299D01*
X1240613D01*
X1239868Y1033569D01*
X1240103Y1034750D01*
X1239790Y1036320D01*
X1238901Y1037651D01*
X1197651Y1078901D01*
X1196320Y1079790D01*
X1194750Y1080103D01*
X1161274D01*
Y1081524D01*
X1149226D01*
Y1079978D01*
X1143524D01*
Y1081274D01*
X1135476D01*
X1131528Y1085222D01*
Y1088676D01*
X1133342D01*
X1133897Y1088000D01*
X1134210Y1086430D01*
X1135099Y1085099D01*
X1136430Y1084210D01*
X1138000Y1083897D01*
X1139570Y1084210D01*
X1140901Y1085099D01*
X1141504Y1086001D01*
X1143074D01*
X1144059Y1086197D01*
X1144403Y1086427D01*
X1145880D01*
X1146099Y1086099D01*
X1147430Y1085210D01*
X1149000Y1084897D01*
X1150570Y1085210D01*
X1151901Y1086099D01*
X1152791Y1087430D01*
X1153103Y1089000D01*
X1152791Y1090570D01*
X1151901Y1091901D01*
X1150570Y1092791D01*
X1149000Y1093103D01*
X1147430Y1092791D01*
X1146099Y1091901D01*
X1145880Y1091573D01*
X1143500D01*
X1142515Y1091378D01*
X1142171Y1091148D01*
X1140533D01*
X1139570Y1091790D01*
X1138000Y1092103D01*
X1137024Y1093204D01*
Y1096727D01*
X1138859D01*
X1139015Y1096622D01*
X1139862Y1096454D01*
X1140099Y1096099D01*
X1141430Y1095210D01*
X1143000Y1094897D01*
X1144570Y1095210D01*
X1145901Y1096099D01*
X1146790Y1097430D01*
X1147103Y1099000D01*
X1146790Y1100570D01*
X1146380Y1101185D01*
X1147366Y1101994D01*
X1149974Y1099387D01*
X1149897Y1099000D01*
X1150210Y1097430D01*
X1151099Y1096099D01*
X1152430Y1095210D01*
X1154000Y1094897D01*
X1155570Y1095210D01*
X1156901Y1096099D01*
X1157791Y1097430D01*
X1158103Y1099000D01*
X1157791Y1100570D01*
X1157060Y1101663D01*
X1157121Y1102060D01*
X1157291Y1102499D01*
X1157594Y1102966D01*
X1158820Y1103210D01*
X1160151Y1104099D01*
X1161040Y1105430D01*
X1161353Y1107000D01*
X1161040Y1108570D01*
X1160151Y1109901D01*
X1158820Y1110790D01*
X1157250Y1111103D01*
X1156863Y1111026D01*
X1155096Y1112794D01*
X1154261Y1113351D01*
X1153276Y1113547D01*
X1151611D01*
X1150866Y1114817D01*
X1151100Y1115998D01*
X1150788Y1117568D01*
X1149899Y1118899D01*
X1149064Y1119456D01*
X1149449Y1120726D01*
X1154634D01*
X1155974Y1119387D01*
X1155897Y1119000D01*
X1156209Y1117430D01*
X1157099Y1116099D01*
X1158430Y1115210D01*
X1160000Y1114897D01*
X1161570Y1115210D01*
X1162901Y1116099D01*
X1163791Y1117430D01*
X1164103Y1119000D01*
X1163791Y1120570D01*
X1162901Y1121901D01*
X1161570Y1122791D01*
X1160246Y1123054D01*
X1159919Y1123457D01*
X1160313Y1124471D01*
X1160583Y1124727D01*
X1381300D01*
X1382285Y1124922D01*
X1383120Y1125480D01*
X1394796Y1137156D01*
X1395354Y1137991D01*
X1395549Y1138976D01*
Y1169876D01*
X1403749D01*
X1404481Y1168606D01*
X1404414Y1168270D01*
X1408030D01*
Y1171886D01*
X1407444Y1171769D01*
X1407128Y1171810D01*
X1406174Y1172320D01*
Y1176662D01*
X1407444Y1177341D01*
X1408033Y1176947D01*
X1408730Y1176808D01*
Y1181694D01*
Y1186580D01*
D02*
G37*
G36*
X311500Y1130132D02*
X309345Y1129703D01*
X307517Y1128482D01*
X306296Y1126654D01*
X305867Y1124499D01*
X306296Y1122343D01*
X307517Y1120516D01*
X309345Y1119295D01*
X311500Y1118866D01*
X313656Y1119295D01*
X315483Y1120516D01*
X316704Y1122343D01*
X317133Y1124499D01*
X316704Y1126654D01*
X315483Y1128482D01*
X313656Y1129703D01*
X311500Y1130132D01*
D02*
G37*
G36*
X1363270Y1121886D02*
Y1118270D01*
X1366886D01*
X1366748Y1118967D01*
X1365634Y1120634D01*
X1363967Y1121748D01*
X1363270Y1121886D01*
D02*
G37*
G36*
X1360730D02*
X1360034Y1121748D01*
X1358366Y1120634D01*
X1357252Y1118967D01*
X1357114Y1118270D01*
X1360730D01*
Y1121886D01*
D02*
G37*
G36*
X1508750Y1118530D02*
X1494980D01*
Y1115260D01*
X1508750D01*
Y1118530D01*
D02*
G37*
G36*
X1366886Y1115730D02*
X1363270D01*
Y1112114D01*
X1363967Y1112252D01*
X1365634Y1113366D01*
X1366748Y1115033D01*
X1366886Y1115730D01*
D02*
G37*
G36*
X1360730D02*
X1357114D01*
X1357252Y1115033D01*
X1358366Y1113366D01*
X1360034Y1112252D01*
X1360730Y1112114D01*
Y1115730D01*
D02*
G37*
G36*
X1541350Y1112357D02*
X1537120D01*
X1535086Y1112089D01*
X1533191Y1111305D01*
X1531564Y1110056D01*
X1530316Y1108429D01*
X1529530Y1106534D01*
X1529430Y1105770D01*
X1541350D01*
Y1112357D01*
D02*
G37*
G36*
X1416270Y1107886D02*
Y1104270D01*
X1419886D01*
X1419748Y1104967D01*
X1418634Y1106634D01*
X1416967Y1107748D01*
X1416270Y1107886D01*
D02*
G37*
G36*
X1413730D02*
X1413033Y1107748D01*
X1411366Y1106634D01*
X1410252Y1104967D01*
X1410114Y1104270D01*
X1413730D01*
Y1107886D01*
D02*
G37*
G36*
X1380270D02*
Y1104270D01*
X1383886D01*
X1383748Y1104967D01*
X1382634Y1106634D01*
X1380966Y1107748D01*
X1380270Y1107886D01*
D02*
G37*
G36*
X1377730D02*
X1377034Y1107748D01*
X1375366Y1106634D01*
X1374252Y1104967D01*
X1374114Y1104270D01*
X1377730D01*
Y1107886D01*
D02*
G37*
G36*
X1342270Y1105686D02*
Y1102070D01*
X1345886D01*
X1345748Y1102766D01*
X1344634Y1104434D01*
X1342966Y1105548D01*
X1342270Y1105686D01*
D02*
G37*
G36*
X1339730D02*
X1339034Y1105548D01*
X1337366Y1104434D01*
X1336252Y1102766D01*
X1336114Y1102070D01*
X1339730D01*
Y1105686D01*
D02*
G37*
G36*
X1419886Y1101730D02*
X1416270D01*
Y1098114D01*
X1416967Y1098252D01*
X1418634Y1099366D01*
X1419748Y1101033D01*
X1419886Y1101730D01*
D02*
G37*
G36*
X1413730D02*
X1410114D01*
X1410252Y1101033D01*
X1411366Y1099366D01*
X1413033Y1098252D01*
X1413730Y1098114D01*
Y1101730D01*
D02*
G37*
G36*
X1383886D02*
X1380270D01*
Y1098114D01*
X1380966Y1098252D01*
X1382634Y1099366D01*
X1383748Y1101033D01*
X1383886Y1101730D01*
D02*
G37*
G36*
X1377730D02*
X1374114D01*
X1374252Y1101033D01*
X1375366Y1099366D01*
X1377034Y1098252D01*
X1377730Y1098114D01*
Y1101730D01*
D02*
G37*
G36*
X1541350Y1103230D02*
X1529430D01*
X1529530Y1102466D01*
X1530316Y1100571D01*
X1531564Y1098944D01*
X1533191Y1097695D01*
X1535086Y1096910D01*
X1537120Y1096643D01*
X1541350D01*
Y1103230D01*
D02*
G37*
G36*
X1345886Y1099530D02*
X1342270D01*
Y1095914D01*
X1342966Y1096052D01*
X1344634Y1097166D01*
X1345748Y1098833D01*
X1345886Y1099530D01*
D02*
G37*
G36*
X1339730D02*
X1336114D01*
X1336252Y1098833D01*
X1337366Y1097166D01*
X1339034Y1096052D01*
X1339730Y1095914D01*
Y1099530D01*
D02*
G37*
G36*
X1525060Y1118530D02*
X1511290D01*
Y1115260D01*
X1513212D01*
X1514044Y1113990D01*
X1513807Y1112800D01*
X1514158Y1111035D01*
X1515158Y1109538D01*
X1516422Y1108694D01*
X1516261Y1107551D01*
X1516211Y1107424D01*
X1510496D01*
Y1094376D01*
X1523544D01*
Y1107424D01*
X1520629D01*
X1520578Y1107551D01*
X1520418Y1108694D01*
X1521682Y1109538D01*
X1522681Y1111035D01*
X1523033Y1112800D01*
X1522796Y1113990D01*
X1523628Y1115260D01*
X1525060D01*
Y1118530D01*
D02*
G37*
G36*
X1398769Y1090886D02*
Y1087270D01*
X1402386D01*
X1402247Y1087967D01*
X1401133Y1089634D01*
X1399466Y1090748D01*
X1398769Y1090886D01*
D02*
G37*
G36*
X1396229D02*
X1395533Y1090748D01*
X1393866Y1089634D01*
X1392752Y1087967D01*
X1392613Y1087270D01*
X1396229D01*
Y1090886D01*
D02*
G37*
G36*
X1274000Y1088103D02*
X1272430Y1087791D01*
X1271099Y1086901D01*
X1270880Y1086573D01*
X1268500D01*
X1267515Y1086378D01*
X1266680Y1085820D01*
X1266434Y1085573D01*
X1246120D01*
X1245901Y1085901D01*
X1244570Y1086790D01*
X1243000Y1087103D01*
X1241430Y1086790D01*
X1240099Y1085901D01*
X1239210Y1084570D01*
X1238897Y1083000D01*
X1239210Y1081430D01*
X1240099Y1080099D01*
X1241430Y1079210D01*
X1243000Y1078897D01*
X1244570Y1079210D01*
X1245901Y1080099D01*
X1246120Y1080426D01*
X1267500D01*
X1268485Y1080622D01*
X1269320Y1081180D01*
X1269566Y1081426D01*
X1270880D01*
X1271099Y1081099D01*
X1272430Y1080210D01*
X1274000Y1079897D01*
X1275570Y1080210D01*
X1276901Y1081099D01*
X1277791Y1082430D01*
X1278103Y1084000D01*
X1277791Y1085570D01*
X1276901Y1086901D01*
X1275570Y1087791D01*
X1274000Y1088103D01*
D02*
G37*
G36*
X1402386Y1084730D02*
X1398769D01*
Y1081114D01*
X1399466Y1081252D01*
X1401133Y1082366D01*
X1402247Y1084034D01*
X1402386Y1084730D01*
D02*
G37*
G36*
X1396229D02*
X1392613D01*
X1392752Y1084034D01*
X1393866Y1082366D01*
X1395533Y1081252D01*
X1396229Y1081114D01*
Y1084730D01*
D02*
G37*
G36*
X1501790Y1074540D02*
X1496520D01*
Y1068770D01*
X1501790D01*
Y1074540D01*
D02*
G37*
G36*
X1493980D02*
X1488710D01*
Y1068770D01*
X1493980D01*
Y1074540D01*
D02*
G37*
G36*
X1340270Y1071886D02*
Y1068270D01*
X1343886D01*
X1343748Y1068967D01*
X1342634Y1070634D01*
X1340966Y1071748D01*
X1340270Y1071886D01*
D02*
G37*
G36*
X1337730D02*
X1337034Y1071748D01*
X1335366Y1070634D01*
X1334252Y1068967D01*
X1334114Y1068270D01*
X1337730D01*
Y1071886D01*
D02*
G37*
G36*
X1162290Y1068540D02*
X1156520D01*
Y1063270D01*
X1162290D01*
Y1068540D01*
D02*
G37*
G36*
X1153980D02*
X1148210D01*
Y1063270D01*
X1153980D01*
Y1068540D01*
D02*
G37*
G36*
X1144540Y1068290D02*
X1138770D01*
Y1063020D01*
X1144540D01*
Y1068290D01*
D02*
G37*
G36*
X1514774Y1073524D02*
X1503726D01*
Y1061476D01*
X1514774D01*
Y1064917D01*
X1521096D01*
Y1062476D01*
X1532144D01*
Y1073524D01*
X1521096D01*
Y1071083D01*
X1514774D01*
Y1073524D01*
D02*
G37*
G36*
X1350000Y1114103D02*
X1348430Y1113791D01*
X1347099Y1112901D01*
X1346210Y1111570D01*
X1345897Y1110000D01*
X1346210Y1108430D01*
X1347099Y1107099D01*
X1347426Y1106880D01*
Y1068120D01*
X1347099Y1067901D01*
X1346210Y1066570D01*
X1345897Y1065000D01*
X1346210Y1063430D01*
X1346916Y1062373D01*
X1346584Y1061411D01*
X1346353Y1061103D01*
X1341358D01*
X1341179Y1061629D01*
X1341147Y1062373D01*
X1342634Y1063366D01*
X1343748Y1065033D01*
X1343886Y1065730D01*
X1334114D01*
X1334252Y1065033D01*
X1335366Y1063366D01*
X1336853Y1062373D01*
X1336821Y1061629D01*
X1336642Y1061103D01*
X1332000D01*
X1330430Y1060790D01*
X1329099Y1059901D01*
X1326099Y1056901D01*
X1325210Y1055570D01*
X1324897Y1054000D01*
X1325210Y1052430D01*
X1326099Y1051099D01*
X1327430Y1050210D01*
X1329000Y1049897D01*
X1330570Y1050210D01*
X1331901Y1051099D01*
X1333699Y1052897D01*
X1334903D01*
X1335582Y1051627D01*
X1335210Y1051070D01*
X1334897Y1049500D01*
X1335210Y1047930D01*
X1336099Y1046599D01*
X1337430Y1045710D01*
X1339000Y1045397D01*
X1367411D01*
X1375710Y1037099D01*
X1377041Y1036209D01*
X1378611Y1035897D01*
X1380181Y1036209D01*
X1381512Y1037099D01*
X1382401Y1038430D01*
X1382713Y1040000D01*
X1382401Y1041570D01*
X1381512Y1042901D01*
X1372786Y1051627D01*
X1373312Y1052897D01*
X1377000D01*
X1378570Y1053210D01*
X1379901Y1054099D01*
X1380791Y1055430D01*
X1381103Y1057000D01*
X1380791Y1058570D01*
X1379901Y1059901D01*
X1378570Y1060790D01*
X1377000Y1061103D01*
X1353647D01*
X1353416Y1061411D01*
X1353084Y1062373D01*
X1353790Y1063430D01*
X1354103Y1065000D01*
X1353790Y1066570D01*
X1352901Y1067901D01*
X1352573Y1068120D01*
Y1106880D01*
X1352901Y1107099D01*
X1353790Y1108430D01*
X1354103Y1110000D01*
X1353790Y1111570D01*
X1352901Y1112901D01*
X1351570Y1113791D01*
X1350000Y1114103D01*
D02*
G37*
G36*
X1501790Y1066230D02*
X1496520D01*
Y1060460D01*
X1501790D01*
Y1066230D01*
D02*
G37*
G36*
X1493980D02*
X1488710D01*
Y1060460D01*
X1493980D01*
Y1066230D01*
D02*
G37*
G36*
X1162290Y1060730D02*
X1156520D01*
Y1055460D01*
X1162290D01*
Y1060730D01*
D02*
G37*
G36*
X1153980D02*
X1148210D01*
Y1055460D01*
X1153980D01*
Y1060730D01*
D02*
G37*
G36*
X1226000Y1115602D02*
X1224430Y1115289D01*
X1223099Y1114400D01*
X1222209Y1113069D01*
X1221897Y1111499D01*
Y1077000D01*
X1222209Y1075430D01*
X1223099Y1074099D01*
X1246099Y1051099D01*
X1247430Y1050210D01*
X1249000Y1049897D01*
X1262000D01*
X1263570Y1050210D01*
X1264901Y1051099D01*
X1265790Y1052430D01*
X1266103Y1054000D01*
X1265790Y1055570D01*
X1264901Y1056901D01*
X1263570Y1057791D01*
X1262000Y1058103D01*
X1250699D01*
X1230103Y1078699D01*
Y1111499D01*
X1229790Y1113069D01*
X1228901Y1114400D01*
X1227570Y1115289D01*
X1226000Y1115602D01*
D02*
G37*
G36*
X1548144Y1057524D02*
X1537096D01*
Y1055923D01*
X1536430Y1055790D01*
X1535099Y1054901D01*
X1534209Y1053570D01*
X1533897Y1052000D01*
X1534209Y1050430D01*
X1535099Y1049099D01*
X1536430Y1048210D01*
X1537096Y1048077D01*
Y1046476D01*
X1548144D01*
Y1057524D01*
D02*
G37*
G36*
X1514774Y1058024D02*
X1503726D01*
Y1045976D01*
X1514774D01*
Y1048917D01*
X1521096D01*
Y1046476D01*
X1532144D01*
Y1057524D01*
X1521096D01*
Y1055083D01*
X1514774D01*
Y1058024D01*
D02*
G37*
G36*
X1074540Y1052040D02*
X1069270D01*
Y1046270D01*
X1074540D01*
Y1052040D01*
D02*
G37*
G36*
X1066730D02*
X1061460D01*
Y1046270D01*
X1066730D01*
Y1052040D01*
D02*
G37*
G36*
X775900Y1046886D02*
Y1043270D01*
X779516D01*
X779378Y1043967D01*
X778263Y1045634D01*
X776596Y1046748D01*
X775900Y1046886D01*
D02*
G37*
G36*
X773360D02*
X772663Y1046748D01*
X770996Y1045634D01*
X769882Y1043967D01*
X769744Y1043270D01*
X773360D01*
Y1046886D01*
D02*
G37*
G36*
X733389D02*
Y1043270D01*
X737005D01*
X736866Y1043967D01*
X735752Y1045634D01*
X734085Y1046748D01*
X733389Y1046886D01*
D02*
G37*
G36*
X730849D02*
X730152Y1046748D01*
X728485Y1045634D01*
X727371Y1043967D01*
X727233Y1043270D01*
X730849D01*
Y1046886D01*
D02*
G37*
G36*
X714369D02*
Y1043270D01*
X717985D01*
X717846Y1043967D01*
X716732Y1045634D01*
X715065Y1046748D01*
X714369Y1046886D01*
D02*
G37*
G36*
X711829D02*
X711132Y1046748D01*
X709465Y1045634D01*
X708351Y1043967D01*
X708213Y1043270D01*
X711829D01*
Y1046886D01*
D02*
G37*
G36*
X789456Y1046530D02*
X785840D01*
Y1042914D01*
X786537Y1043053D01*
X788204Y1044166D01*
X789318Y1045834D01*
X789456Y1046530D01*
D02*
G37*
G36*
X783300D02*
X779684D01*
X779822Y1045834D01*
X780937Y1044166D01*
X782604Y1043053D01*
X783300Y1042914D01*
Y1046530D01*
D02*
G37*
G36*
X694270Y1046166D02*
Y1042550D01*
X697886D01*
X697748Y1043247D01*
X696634Y1044914D01*
X694967Y1046028D01*
X694270Y1046166D01*
D02*
G37*
G36*
X691730D02*
X691033Y1046028D01*
X689366Y1044914D01*
X688252Y1043247D01*
X688114Y1042550D01*
X691730D01*
Y1046166D01*
D02*
G37*
G36*
X671669D02*
Y1042550D01*
X675285D01*
X675146Y1043247D01*
X674032Y1044914D01*
X672365Y1046028D01*
X671669Y1046166D01*
D02*
G37*
G36*
X669129D02*
X668432Y1046028D01*
X666765Y1044914D01*
X665651Y1043247D01*
X665513Y1042550D01*
X669129D01*
Y1046166D01*
D02*
G37*
G36*
X1216000Y1115602D02*
X1214430Y1115289D01*
X1213099Y1114400D01*
X1212209Y1113069D01*
X1211897Y1111499D01*
Y1071250D01*
X1212209Y1069680D01*
X1213099Y1068349D01*
X1240349Y1041099D01*
X1241680Y1040210D01*
X1243250Y1039897D01*
X1259000D01*
X1260570Y1040210D01*
X1261901Y1041099D01*
X1262791Y1042430D01*
X1263103Y1044000D01*
X1262791Y1045570D01*
X1261901Y1046901D01*
X1260570Y1047791D01*
X1259000Y1048103D01*
X1244949D01*
X1220103Y1072949D01*
Y1111499D01*
X1219790Y1113069D01*
X1218901Y1114400D01*
X1217570Y1115289D01*
X1216000Y1115602D01*
D02*
G37*
G36*
X1500774Y1058024D02*
X1489726D01*
Y1045976D01*
X1492167D01*
Y1042985D01*
X1488265Y1039083D01*
X1477629D01*
X1476570Y1039790D01*
X1475000Y1040103D01*
X1473430Y1039790D01*
X1472099Y1038901D01*
X1471210Y1037570D01*
X1470897Y1036000D01*
X1471210Y1034430D01*
X1472099Y1033099D01*
X1473430Y1032209D01*
X1475000Y1031897D01*
X1476570Y1032209D01*
X1477629Y1032917D01*
X1489542D01*
X1489542Y1032917D01*
X1490722Y1033151D01*
X1491722Y1033820D01*
X1497430Y1039528D01*
X1497430Y1039528D01*
X1498099Y1040528D01*
X1498333Y1041708D01*
X1498333Y1041708D01*
Y1045976D01*
X1500774D01*
Y1058024D01*
D02*
G37*
G36*
X1074540Y1043730D02*
X1069270D01*
Y1037960D01*
X1074540D01*
Y1043730D01*
D02*
G37*
G36*
X1066730D02*
X1061460D01*
Y1037960D01*
X1066730D01*
Y1043730D01*
D02*
G37*
G36*
X779516Y1040730D02*
X775900D01*
Y1037114D01*
X776596Y1037252D01*
X778263Y1038366D01*
X779378Y1040033D01*
X779516Y1040730D01*
D02*
G37*
G36*
X773360D02*
X769744D01*
X769882Y1040033D01*
X770996Y1038366D01*
X772663Y1037252D01*
X773360Y1037114D01*
Y1040730D01*
D02*
G37*
G36*
X737005D02*
X733389D01*
Y1037114D01*
X734085Y1037252D01*
X735752Y1038366D01*
X736866Y1040033D01*
X737005Y1040730D01*
D02*
G37*
G36*
X730849D02*
X727233D01*
X727371Y1040033D01*
X728485Y1038366D01*
X730152Y1037252D01*
X730849Y1037114D01*
Y1040730D01*
D02*
G37*
G36*
X717985D02*
X714369D01*
Y1037114D01*
X715065Y1037252D01*
X716732Y1038366D01*
X717846Y1040033D01*
X717985Y1040730D01*
D02*
G37*
G36*
X711829D02*
X708213D01*
X708351Y1040033D01*
X709465Y1038366D01*
X711132Y1037252D01*
X711829Y1037114D01*
Y1040730D01*
D02*
G37*
G36*
X697886Y1040010D02*
X694270D01*
Y1036394D01*
X694967Y1036532D01*
X696634Y1037646D01*
X697748Y1039314D01*
X697886Y1040010D01*
D02*
G37*
G36*
X691730D02*
X688114D01*
X688252Y1039314D01*
X689366Y1037646D01*
X691033Y1036532D01*
X691730Y1036394D01*
Y1040010D01*
D02*
G37*
G36*
X675285D02*
X671669D01*
Y1036394D01*
X672365Y1036532D01*
X674032Y1037646D01*
X675146Y1039314D01*
X675285Y1040010D01*
D02*
G37*
G36*
X669129D02*
X665513D01*
X665651Y1039314D01*
X666765Y1037646D01*
X668432Y1036532D01*
X669129Y1036394D01*
Y1040010D01*
D02*
G37*
G36*
X785840Y1039886D02*
Y1036270D01*
X789456D01*
X789318Y1036966D01*
X788204Y1038634D01*
X786537Y1039748D01*
X785840Y1039886D01*
D02*
G37*
G36*
X783300D02*
X782604Y1039748D01*
X780937Y1038634D01*
X779822Y1036966D01*
X779684Y1036270D01*
X783300D01*
Y1039886D01*
D02*
G37*
G36*
X733389Y1034886D02*
Y1031270D01*
X737005D01*
X736866Y1031966D01*
X735752Y1033634D01*
X734085Y1034748D01*
X733389Y1034886D01*
D02*
G37*
G36*
X730849D02*
X730152Y1034748D01*
X728485Y1033634D01*
X727371Y1031966D01*
X727233Y1031270D01*
X730849D01*
Y1034886D01*
D02*
G37*
G36*
X714270Y1034316D02*
Y1030700D01*
X717886D01*
X717748Y1031396D01*
X716634Y1033064D01*
X714967Y1034177D01*
X714270Y1034316D01*
D02*
G37*
G36*
X711730D02*
X711033Y1034177D01*
X709366Y1033064D01*
X708252Y1031396D01*
X708114Y1030700D01*
X711730D01*
Y1034316D01*
D02*
G37*
G36*
X694270D02*
Y1030700D01*
X697886D01*
X697748Y1031396D01*
X696634Y1033064D01*
X694967Y1034177D01*
X694270Y1034316D01*
D02*
G37*
G36*
X691730D02*
X691033Y1034177D01*
X689366Y1033064D01*
X688252Y1031396D01*
X688114Y1030700D01*
X691730D01*
Y1034316D01*
D02*
G37*
G36*
X671892D02*
Y1030700D01*
X675508D01*
X675370Y1031396D01*
X674256Y1033064D01*
X672589Y1034177D01*
X671892Y1034316D01*
D02*
G37*
G36*
X669352D02*
X668656Y1034177D01*
X666989Y1033064D01*
X665875Y1031396D01*
X665736Y1030700D01*
X669352D01*
Y1034316D01*
D02*
G37*
G36*
X789456Y1033730D02*
X785840D01*
Y1030114D01*
X786537Y1030252D01*
X788204Y1031366D01*
X789318Y1033034D01*
X789456Y1033730D01*
D02*
G37*
G36*
X783300D02*
X779684D01*
X779822Y1033034D01*
X780937Y1031366D01*
X782604Y1030252D01*
X783300Y1030114D01*
Y1033730D01*
D02*
G37*
G36*
X331024Y1047824D02*
X312976D01*
Y1029776D01*
X331024D01*
Y1047824D01*
D02*
G37*
G36*
X1074540Y1035040D02*
X1069270D01*
Y1029270D01*
X1074540D01*
Y1035040D01*
D02*
G37*
G36*
X1066730D02*
X1061460D01*
Y1029270D01*
X1066730D01*
Y1035040D01*
D02*
G37*
G36*
X776270Y1031783D02*
Y1028167D01*
X779886D01*
X779748Y1028864D01*
X778634Y1030531D01*
X776966Y1031645D01*
X776270Y1031783D01*
D02*
G37*
G36*
X773730D02*
X773034Y1031645D01*
X771366Y1030531D01*
X770252Y1028864D01*
X770114Y1028167D01*
X773730D01*
Y1031783D01*
D02*
G37*
G36*
X1205000Y1034103D02*
X1204497Y1034003D01*
X1178600D01*
X1177030Y1033690D01*
X1175699Y1032801D01*
X1174809Y1031470D01*
X1174497Y1029900D01*
X1174809Y1028330D01*
X1175699Y1026999D01*
X1177030Y1026109D01*
X1178600Y1025797D01*
X1204900D01*
X1206470Y1026109D01*
X1207801Y1026999D01*
X1207901Y1027099D01*
X1208791Y1028430D01*
X1209103Y1030000D01*
X1208791Y1031570D01*
X1207901Y1032901D01*
X1206570Y1033791D01*
X1205000Y1034103D01*
D02*
G37*
G36*
X737005Y1028730D02*
X733389D01*
Y1025114D01*
X734085Y1025252D01*
X735752Y1026366D01*
X736866Y1028034D01*
X737005Y1028730D01*
D02*
G37*
G36*
X730849D02*
X727233D01*
X727371Y1028034D01*
X728485Y1026366D01*
X730152Y1025252D01*
X730849Y1025114D01*
Y1028730D01*
D02*
G37*
G36*
X717886Y1028160D02*
X714270D01*
Y1024544D01*
X714967Y1024682D01*
X716634Y1025796D01*
X717748Y1027463D01*
X717886Y1028160D01*
D02*
G37*
G36*
X711730D02*
X708114D01*
X708252Y1027463D01*
X709366Y1025796D01*
X711033Y1024682D01*
X711730Y1024544D01*
Y1028160D01*
D02*
G37*
G36*
X697886D02*
X694270D01*
Y1024544D01*
X694967Y1024682D01*
X696634Y1025796D01*
X697748Y1027463D01*
X697886Y1028160D01*
D02*
G37*
G36*
X691730D02*
X688114D01*
X688252Y1027463D01*
X689366Y1025796D01*
X691033Y1024682D01*
X691730Y1024544D01*
Y1028160D01*
D02*
G37*
G36*
X675508D02*
X671892D01*
Y1024544D01*
X672589Y1024682D01*
X674256Y1025796D01*
X675370Y1027463D01*
X675508Y1028160D01*
D02*
G37*
G36*
X669352D02*
X665736D01*
X665875Y1027463D01*
X666989Y1025796D01*
X668656Y1024682D01*
X669352Y1024544D01*
Y1028160D01*
D02*
G37*
G36*
X779886Y1025627D02*
X776270D01*
Y1022011D01*
X776966Y1022150D01*
X778634Y1023263D01*
X779748Y1024931D01*
X779886Y1025627D01*
D02*
G37*
G36*
X773730D02*
X770114D01*
X770252Y1024931D01*
X771366Y1023263D01*
X773034Y1022150D01*
X773730Y1022011D01*
Y1025627D01*
D02*
G37*
G36*
X1385170Y1019886D02*
Y1016270D01*
X1388786D01*
X1388648Y1016966D01*
X1387534Y1018634D01*
X1385867Y1019748D01*
X1385170Y1019886D01*
D02*
G37*
G36*
X1382630D02*
X1381933Y1019748D01*
X1380266Y1018634D01*
X1379152Y1016966D01*
X1379014Y1016270D01*
X1382630D01*
Y1019886D01*
D02*
G37*
G36*
X1362270D02*
Y1016270D01*
X1365886D01*
X1365748Y1016966D01*
X1364634Y1018634D01*
X1362966Y1019748D01*
X1362270Y1019886D01*
D02*
G37*
G36*
X1359730D02*
X1359034Y1019748D01*
X1357366Y1018634D01*
X1356252Y1016966D01*
X1356114Y1016270D01*
X1359730D01*
Y1019886D01*
D02*
G37*
G36*
X1551024Y1035774D02*
X1517976D01*
Y1011726D01*
X1551024D01*
Y1035774D01*
D02*
G37*
G36*
X1388786Y1013730D02*
X1385170D01*
Y1010114D01*
X1385867Y1010252D01*
X1387534Y1011366D01*
X1388648Y1013034D01*
X1388786Y1013730D01*
D02*
G37*
G36*
X1382630D02*
X1379014D01*
X1379152Y1013034D01*
X1380266Y1011366D01*
X1381933Y1010252D01*
X1382630Y1010114D01*
Y1013730D01*
D02*
G37*
G36*
X1365886D02*
X1362270D01*
Y1010114D01*
X1362966Y1010252D01*
X1364634Y1011366D01*
X1365748Y1013034D01*
X1365886Y1013730D01*
D02*
G37*
G36*
X1359730D02*
X1356114D01*
X1356252Y1013034D01*
X1357366Y1011366D01*
X1359034Y1010252D01*
X1359730Y1010114D01*
Y1013730D01*
D02*
G37*
G36*
X746539Y1017590D02*
X738769D01*
Y1008571D01*
X746539D01*
Y1017590D01*
D02*
G37*
G36*
X451539D02*
X443769D01*
Y1008571D01*
X451539D01*
Y1017590D01*
D02*
G37*
G36*
X736229D02*
X728459D01*
Y1008571D01*
X736229D01*
Y1017590D01*
D02*
G37*
G36*
X441229D02*
X433459D01*
Y1008571D01*
X441229D01*
Y1017590D01*
D02*
G37*
G36*
X599039D02*
X591269D01*
Y1008571D01*
X599039D01*
Y1017590D01*
D02*
G37*
G36*
X588729D02*
X580959D01*
Y1008571D01*
X588729D01*
Y1017590D01*
D02*
G37*
G36*
X322000Y1022502D02*
X319644Y1022192D01*
X317449Y1021282D01*
X315564Y1019836D01*
X314118Y1017951D01*
X313208Y1015756D01*
X312898Y1013400D01*
X313208Y1011044D01*
X314118Y1008849D01*
X315564Y1006964D01*
X317449Y1005518D01*
X319644Y1004608D01*
X322000Y1004298D01*
X324356Y1004608D01*
X326551Y1005518D01*
X328436Y1006964D01*
X329882Y1008849D01*
X330792Y1011044D01*
X331102Y1013400D01*
X330792Y1015756D01*
X329882Y1017951D01*
X328436Y1019836D01*
X326551Y1021282D01*
X324356Y1022192D01*
X322000Y1022502D01*
D02*
G37*
G36*
X1470270Y1003261D02*
Y999645D01*
X1473886D01*
X1473748Y1000341D01*
X1472634Y1002009D01*
X1470966Y1003123D01*
X1470270Y1003261D01*
D02*
G37*
G36*
X1467730D02*
X1467034Y1003123D01*
X1465366Y1002009D01*
X1464252Y1000341D01*
X1464114Y999645D01*
X1467730D01*
Y1003261D01*
D02*
G37*
G36*
X1454397D02*
Y999645D01*
X1458013D01*
X1457874Y1000341D01*
X1456760Y1002009D01*
X1455093Y1003123D01*
X1454397Y1003261D01*
D02*
G37*
G36*
X1451857D02*
X1451160Y1003123D01*
X1449493Y1002009D01*
X1448379Y1000341D01*
X1448241Y999645D01*
X1451857D01*
Y1003261D01*
D02*
G37*
G36*
X1516040Y1004790D02*
X1506770D01*
Y999520D01*
X1516040D01*
Y1004790D01*
D02*
G37*
G36*
X1504230D02*
X1494960D01*
Y999520D01*
X1504230D01*
Y1004790D01*
D02*
G37*
G36*
X746539Y1006031D02*
X738769D01*
Y997011D01*
X746539D01*
Y1006031D01*
D02*
G37*
G36*
X736229D02*
X728459D01*
Y997011D01*
X736229D01*
Y1006031D01*
D02*
G37*
G36*
X599039Y1006031D02*
X591269D01*
Y997011D01*
X599039D01*
Y1006031D01*
D02*
G37*
G36*
X588729D02*
X580959D01*
Y997011D01*
X588729D01*
Y1006031D01*
D02*
G37*
G36*
X451539Y1006031D02*
X443769D01*
Y997011D01*
X451539D01*
Y1006031D01*
D02*
G37*
G36*
X441229D02*
X433459D01*
Y997011D01*
X441229D01*
Y1006031D01*
D02*
G37*
G36*
X842774Y1000024D02*
X831726D01*
Y996573D01*
X816654D01*
Y999524D01*
X805606D01*
Y988476D01*
X816654D01*
Y991426D01*
X831726D01*
Y987976D01*
X842774D01*
Y1000024D01*
D02*
G37*
G36*
X857790Y1001040D02*
X852520D01*
Y995270D01*
X857790D01*
Y1001040D01*
D02*
G37*
G36*
X849980D02*
X844710D01*
Y995270D01*
X849980D01*
Y1001040D01*
D02*
G37*
G36*
X1473886Y997105D02*
X1470270D01*
Y993489D01*
X1470966Y993627D01*
X1472634Y994741D01*
X1473748Y996408D01*
X1473886Y997105D01*
D02*
G37*
G36*
X1467730D02*
X1464114D01*
X1464252Y996408D01*
X1465366Y994741D01*
X1467034Y993627D01*
X1467730Y993489D01*
Y997105D01*
D02*
G37*
G36*
X1451857D02*
X1448241D01*
X1448379Y996408D01*
X1449493Y994741D01*
X1451160Y993627D01*
X1451857Y993489D01*
Y997105D01*
D02*
G37*
G36*
X1461520Y994886D02*
Y991270D01*
X1465136D01*
X1464998Y991966D01*
X1463884Y993634D01*
X1462216Y994748D01*
X1461520Y994886D01*
D02*
G37*
G36*
X1458013Y997105D02*
X1454397D01*
Y993489D01*
X1455083Y993625D01*
X1455117Y993603D01*
X1455994Y992702D01*
X1455502Y991966D01*
X1455364Y991270D01*
X1458980D01*
Y994886D01*
X1458293Y994750D01*
X1458259Y994772D01*
X1457383Y995673D01*
X1457874Y996408D01*
X1458013Y997105D01*
D02*
G37*
G36*
X700525Y1016574D02*
X684477D01*
Y998027D01*
X689927D01*
Y985000D01*
Y937073D01*
X684477D01*
Y919707D01*
X684477Y918959D01*
X683272Y918367D01*
X677820Y923820D01*
X676985Y924378D01*
X676000Y924574D01*
X607895D01*
X607570Y924790D01*
X606000Y925103D01*
X604430Y924790D01*
X603099Y923901D01*
X602210Y922570D01*
X601897Y921000D01*
X602210Y919430D01*
X603099Y918099D01*
X604430Y917209D01*
X606000Y916897D01*
X607570Y917209D01*
X608901Y918099D01*
X609788Y919427D01*
X613923D01*
X614601Y918157D01*
X614534Y918056D01*
X614180Y917820D01*
X613622Y916985D01*
X613427Y916000D01*
X613622Y915015D01*
X614180Y914180D01*
X614534Y913944D01*
X614624Y913810D01*
X613945Y912540D01*
X611660Y912540D01*
X610390Y912540D01*
X600070D01*
Y900000D01*
Y887460D01*
X610390D01*
X611340Y887460D01*
X612610Y887460D01*
X622930D01*
Y900000D01*
X625470D01*
Y887460D01*
X635790D01*
X636740Y887460D01*
X638010Y887460D01*
X648330D01*
Y900000D01*
X649600D01*
Y901270D01*
X662140D01*
Y912115D01*
X662228Y912239D01*
X663169Y913121D01*
X664099Y913099D01*
X665430Y912209D01*
X667000Y911897D01*
X668570Y912209D01*
X669901Y913099D01*
X670790Y914430D01*
X671103Y916000D01*
X670790Y917570D01*
X670399Y918157D01*
X671077Y919427D01*
X674934D01*
X699180Y895180D01*
X700015Y894622D01*
X701000Y894427D01*
X774050D01*
X775035Y894622D01*
X775870Y895180D01*
X794913Y914224D01*
X795300Y914147D01*
X796870Y914460D01*
X798201Y915349D01*
X799090Y916680D01*
X799403Y918250D01*
X799090Y919820D01*
X798201Y921151D01*
X796870Y922040D01*
X795300Y922353D01*
X793730Y922040D01*
X792399Y921151D01*
X791509Y919820D01*
X791197Y918250D01*
X791274Y917863D01*
X772984Y899574D01*
X702066D01*
X684318Y917321D01*
X684910Y918525D01*
X685567Y918525D01*
X699657D01*
X700633Y918309D01*
X701052Y917474D01*
X701209Y916680D01*
X702099Y915349D01*
X703430Y914460D01*
X705000Y914147D01*
X706570Y914460D01*
X707901Y915349D01*
X708791Y916680D01*
X708970Y917580D01*
X715613Y924224D01*
X716000Y924147D01*
X717570Y924460D01*
X718901Y925349D01*
X719790Y926680D01*
X720103Y928250D01*
X719790Y929820D01*
X718901Y931151D01*
X717570Y932040D01*
X716000Y932353D01*
X714430Y932040D01*
X713099Y931151D01*
X712209Y929820D01*
X711897Y928250D01*
X711974Y927863D01*
X706221Y922110D01*
X705000Y922353D01*
X703430Y922040D01*
X702099Y921151D01*
X701795Y920696D01*
X700525Y921081D01*
Y937073D01*
X695074D01*
Y982427D01*
X700000D01*
X700985Y982622D01*
X701820Y983180D01*
X707614Y988974D01*
X708000Y988897D01*
X709570Y989210D01*
X710901Y990099D01*
X711790Y991430D01*
X712103Y993000D01*
X711790Y994570D01*
X710901Y995901D01*
X709570Y996790D01*
X708000Y997103D01*
X706430Y996790D01*
X705099Y995901D01*
X704210Y994570D01*
X703897Y993000D01*
X703974Y992614D01*
X698934Y987573D01*
X695074D01*
Y998027D01*
X700525D01*
Y1016574D01*
D02*
G37*
G36*
X857790Y992730D02*
X852520D01*
Y986960D01*
X857790D01*
Y992730D01*
D02*
G37*
G36*
X849980D02*
X844710D01*
Y986960D01*
X849980D01*
Y992730D01*
D02*
G37*
G36*
X868700Y990511D02*
Y986895D01*
X872316D01*
X872178Y987592D01*
X871064Y989259D01*
X869396Y990373D01*
X868700Y990511D01*
D02*
G37*
G36*
X866160D02*
X865463Y990373D01*
X863796Y989259D01*
X862682Y987592D01*
X862544Y986895D01*
X866160D01*
Y990511D01*
D02*
G37*
G36*
X1465136Y988730D02*
X1461520D01*
Y985114D01*
X1462216Y985252D01*
X1463884Y986366D01*
X1464998Y988034D01*
X1465136Y988730D01*
D02*
G37*
G36*
X1458980D02*
X1455364D01*
X1455502Y988034D01*
X1456616Y986366D01*
X1458284Y985252D01*
X1458980Y985114D01*
Y988730D01*
D02*
G37*
G36*
X800654Y999524D02*
X789606D01*
Y993573D01*
X787750D01*
X786765Y993378D01*
X785930Y992820D01*
X778137Y985026D01*
X777750Y985103D01*
X776180Y984790D01*
X774849Y983901D01*
X773960Y982570D01*
X773647Y981000D01*
X773960Y979430D01*
X774849Y978099D01*
X776180Y977209D01*
X777750Y976897D01*
X779320Y977209D01*
X780651Y978099D01*
X781541Y979430D01*
X781853Y981000D01*
X781776Y981386D01*
X788816Y988427D01*
X792130D01*
X792379Y988476D01*
X800654D01*
Y999524D01*
D02*
G37*
G36*
X872316Y984355D02*
X868700D01*
Y980739D01*
X869396Y980878D01*
X871064Y981992D01*
X872178Y983659D01*
X872316Y984355D01*
D02*
G37*
G36*
X866160D02*
X862544D01*
X862682Y983659D01*
X863796Y981992D01*
X865463Y980878D01*
X866160Y980739D01*
Y984355D01*
D02*
G37*
G36*
X948000Y982103D02*
X946430Y981790D01*
X945099Y980901D01*
X944880Y980574D01*
X910520D01*
X910301Y980901D01*
X908970Y981790D01*
X907400Y982103D01*
X905830Y981790D01*
X904499Y980901D01*
X903609Y979570D01*
X903297Y978000D01*
X903609Y976430D01*
X904499Y975099D01*
X905830Y974210D01*
X907400Y973897D01*
X908970Y974210D01*
X910301Y975099D01*
X910520Y975426D01*
X944880D01*
X945099Y975099D01*
X946430Y974210D01*
X948000Y973897D01*
X949570Y974210D01*
X950901Y975099D01*
X951790Y976430D01*
X952103Y978000D01*
X951790Y979570D01*
X950901Y980901D01*
X949570Y981790D01*
X948000Y982103D01*
D02*
G37*
G36*
X1516040Y996980D02*
X1505500D01*
X1494960D01*
Y991887D01*
X1494960Y991887D01*
Y991710D01*
X1495072Y991643D01*
X1495267Y990042D01*
X1495078Y989853D01*
X1492125D01*
X1490555Y989540D01*
X1489224Y988651D01*
X1489099Y988526D01*
X1488210Y987195D01*
X1487897Y985625D01*
X1488210Y984055D01*
X1489099Y982724D01*
X1490430Y981835D01*
X1492000Y981522D01*
X1492628Y981647D01*
X1495976D01*
Y980226D01*
X1515024D01*
X1515024Y991097D01*
X1516040Y991710D01*
X1516040Y991887D01*
X1516040Y991887D01*
Y996980D01*
D02*
G37*
G36*
X322000Y997102D02*
X319644Y996792D01*
X317449Y995882D01*
X315564Y994436D01*
X314118Y992551D01*
X313208Y990356D01*
X312898Y988000D01*
X313208Y985644D01*
X314118Y983449D01*
X315564Y981564D01*
X317449Y980118D01*
X319644Y979208D01*
X322000Y978898D01*
X324356Y979208D01*
X326551Y980118D01*
X328436Y981564D01*
X329882Y983449D01*
X330792Y985644D01*
X331102Y988000D01*
X330792Y990356D01*
X329882Y992551D01*
X328436Y994436D01*
X326551Y995882D01*
X324356Y996792D01*
X322000Y997102D01*
D02*
G37*
G36*
X842774Y980524D02*
X831726D01*
Y977073D01*
X816754D01*
Y980024D01*
X805706D01*
Y968976D01*
X816754D01*
Y971926D01*
X831726D01*
Y968476D01*
X842774D01*
Y980524D01*
D02*
G37*
G36*
X879390Y979886D02*
Y976270D01*
X883006D01*
X882867Y976966D01*
X881753Y978634D01*
X880086Y979748D01*
X879390Y979886D01*
D02*
G37*
G36*
X876850D02*
X876153Y979748D01*
X874486Y978634D01*
X873372Y976966D01*
X873234Y976270D01*
X876850D01*
Y979886D01*
D02*
G37*
G36*
X857790Y981540D02*
X852520D01*
Y975770D01*
X857790D01*
Y981540D01*
D02*
G37*
G36*
X849980D02*
X844710D01*
Y975770D01*
X849980D01*
Y981540D01*
D02*
G37*
G36*
X883006Y973730D02*
X879390D01*
Y970114D01*
X880086Y970252D01*
X881753Y971366D01*
X882867Y973034D01*
X883006Y973730D01*
D02*
G37*
G36*
X876850D02*
X873234D01*
X873372Y973034D01*
X874486Y971366D01*
X876153Y970252D01*
X876850Y970114D01*
Y973730D01*
D02*
G37*
G36*
X800754Y980024D02*
X789706D01*
Y977073D01*
X786500D01*
X785515Y976878D01*
X784680Y976320D01*
X779387Y971026D01*
X779000Y971103D01*
X777430Y970790D01*
X776099Y969901D01*
X775210Y968570D01*
X774897Y967000D01*
X775210Y965430D01*
X776099Y964099D01*
X777430Y963210D01*
X779000Y962897D01*
X780570Y963210D01*
X781901Y964099D01*
X782791Y965430D01*
X783103Y967000D01*
X783026Y967386D01*
X787566Y971926D01*
X789706D01*
Y968976D01*
X800754D01*
Y980024D01*
D02*
G37*
G36*
X857790Y973230D02*
X852520D01*
Y967460D01*
X857790D01*
Y973230D01*
D02*
G37*
G36*
X849980D02*
X844710D01*
Y967460D01*
X849980D01*
Y973230D01*
D02*
G37*
G36*
X868270Y970886D02*
Y967270D01*
X871886D01*
X871748Y967967D01*
X870634Y969634D01*
X868967Y970748D01*
X868270Y970886D01*
D02*
G37*
G36*
X865730D02*
X865033Y970748D01*
X863366Y969634D01*
X862252Y967967D01*
X862114Y967270D01*
X865730D01*
Y970886D01*
D02*
G37*
G36*
X323270Y972559D02*
Y963870D01*
X331959D01*
X331782Y965221D01*
X330770Y967663D01*
X329161Y969761D01*
X327063Y971370D01*
X324621Y972382D01*
X323270Y972559D01*
D02*
G37*
G36*
X320730Y972559D02*
X319379Y972382D01*
X316937Y971370D01*
X314839Y969761D01*
X313230Y967663D01*
X312218Y965221D01*
X312041Y963870D01*
X320730D01*
Y972559D01*
D02*
G37*
G36*
X871886Y964730D02*
X868270D01*
Y961114D01*
X868967Y961252D01*
X870634Y962366D01*
X871748Y964034D01*
X871886Y964730D01*
D02*
G37*
G36*
X865730D02*
X862114D01*
X862252Y964034D01*
X863366Y962366D01*
X865033Y961252D01*
X865730Y961114D01*
Y964730D01*
D02*
G37*
G36*
X842774Y961774D02*
X831726D01*
Y958073D01*
X816754D01*
Y961024D01*
X805706D01*
Y949976D01*
X816754D01*
Y952926D01*
X831726D01*
Y949726D01*
X842774D01*
Y961774D01*
D02*
G37*
G36*
X800754Y961024D02*
X789706D01*
Y958073D01*
X776200D01*
X775524Y957939D01*
X774700Y958103D01*
X773130Y957791D01*
X771799Y956901D01*
X770910Y955570D01*
X770597Y954000D01*
X770910Y952430D01*
X771799Y951099D01*
X773130Y950210D01*
X774700Y949897D01*
X776270Y950210D01*
X777601Y951099D01*
X778491Y952430D01*
X778589Y952926D01*
X789706D01*
Y949976D01*
X800754D01*
Y961024D01*
D02*
G37*
G36*
X857790Y962790D02*
X852520D01*
Y957020D01*
X857790D01*
Y962790D01*
D02*
G37*
G36*
X849980D02*
X844710D01*
Y957020D01*
X849980D01*
Y962790D01*
D02*
G37*
G36*
X880270Y957886D02*
Y954270D01*
X883886D01*
X883748Y954967D01*
X882634Y956634D01*
X880966Y957748D01*
X880270Y957886D01*
D02*
G37*
G36*
X877730D02*
X877033Y957748D01*
X875366Y956634D01*
X874252Y954967D01*
X874114Y954270D01*
X877730D01*
Y957886D01*
D02*
G37*
G36*
X320730Y961330D02*
X312041D01*
X312218Y959979D01*
X313230Y957537D01*
X314839Y955439D01*
X316937Y953830D01*
X319379Y952818D01*
X320730Y952641D01*
Y961330D01*
D02*
G37*
G36*
X331959D02*
X323270D01*
Y952641D01*
X324621Y952818D01*
X327063Y953830D01*
X329161Y955439D01*
X330770Y957537D01*
X331782Y959979D01*
X331959Y961330D01*
D02*
G37*
G36*
X857790Y954480D02*
X852520D01*
Y948710D01*
X857790D01*
Y954480D01*
D02*
G37*
G36*
X849980D02*
X844710D01*
Y948710D01*
X849980D01*
Y954480D01*
D02*
G37*
G36*
X1551024Y972274D02*
X1517976D01*
Y948226D01*
X1551024D01*
Y972274D01*
D02*
G37*
G36*
X883886Y951730D02*
X880270D01*
Y948114D01*
X880966Y948252D01*
X882634Y949366D01*
X883748Y951033D01*
X883886Y951730D01*
D02*
G37*
G36*
X877730D02*
X874114D01*
X874252Y951033D01*
X875366Y949366D01*
X877033Y948252D01*
X877730Y948114D01*
Y951730D01*
D02*
G37*
G36*
X842774Y943524D02*
X831726D01*
Y939823D01*
X816754D01*
Y942774D01*
X805706D01*
Y931726D01*
X816754D01*
Y934677D01*
X831726D01*
Y931476D01*
X842774D01*
Y943524D01*
D02*
G37*
G36*
X857790Y944540D02*
X852520D01*
Y938770D01*
X857790D01*
Y944540D01*
D02*
G37*
G36*
X849980D02*
X844710D01*
Y938770D01*
X849980D01*
Y944540D01*
D02*
G37*
G36*
X783000Y944103D02*
X781430Y943791D01*
X780099Y942901D01*
X779210Y941570D01*
X778897Y940000D01*
X779210Y938430D01*
X780099Y937099D01*
X781430Y936209D01*
X783000Y935897D01*
X783675Y936031D01*
X784103Y935603D01*
X784859Y935098D01*
X785750Y934921D01*
X789706D01*
Y931726D01*
X800754D01*
Y942774D01*
X789706D01*
Y939579D01*
X787449D01*
X787103Y940000D01*
X786790Y941570D01*
X785901Y942901D01*
X784570Y943791D01*
X783000Y944103D01*
D02*
G37*
G36*
X662000Y945573D02*
X577000D01*
X576015Y945378D01*
X575180Y944820D01*
X562180Y931820D01*
X561622Y930985D01*
X561427Y930000D01*
Y925120D01*
X561099Y924901D01*
X560210Y923570D01*
X559897Y922000D01*
X560210Y920430D01*
X561099Y919099D01*
X562430Y918210D01*
X564000Y917897D01*
X565570Y918210D01*
X566901Y919099D01*
X567790Y920430D01*
X568103Y922000D01*
X567790Y923570D01*
X566901Y924901D01*
X566573Y925120D01*
Y928934D01*
X578066Y940426D01*
X660934D01*
X665974Y935387D01*
X665897Y935000D01*
X666209Y933430D01*
X667099Y932099D01*
X668430Y931209D01*
X670000Y930897D01*
X671570Y931209D01*
X672901Y932099D01*
X673791Y933430D01*
X674103Y935000D01*
X673791Y936570D01*
X672901Y937901D01*
X671570Y938791D01*
X670000Y939103D01*
X669613Y939026D01*
X663820Y944820D01*
X662985Y945378D01*
X662000Y945573D01*
D02*
G37*
G36*
X857790Y936230D02*
X852520D01*
Y930460D01*
X857790D01*
Y936230D01*
D02*
G37*
G36*
X849980D02*
X844710D01*
Y930460D01*
X849980D01*
Y936230D01*
D02*
G37*
G36*
X746539Y938089D02*
X738769D01*
Y929069D01*
X746539D01*
Y938089D01*
D02*
G37*
G36*
X451539D02*
X443769D01*
Y929069D01*
X451539D01*
Y938089D01*
D02*
G37*
G36*
X736229D02*
X728459D01*
Y929069D01*
X736229D01*
Y938089D01*
D02*
G37*
G36*
X441229D02*
X433459D01*
Y929069D01*
X441229D01*
Y938089D01*
D02*
G37*
G36*
X599039D02*
X591269D01*
Y929069D01*
X599039D01*
Y938089D01*
D02*
G37*
G36*
X588729D02*
X580959D01*
Y929069D01*
X588729D01*
Y938089D01*
D02*
G37*
G36*
X462000Y926103D02*
X460430Y925790D01*
X459099Y924901D01*
X458209Y923570D01*
X457897Y922000D01*
X457974Y921613D01*
X449885Y913524D01*
X439876D01*
Y890476D01*
X462924D01*
Y913524D01*
X458823D01*
X458337Y914697D01*
X461614Y917974D01*
X462000Y917897D01*
X463570Y918210D01*
X464901Y919099D01*
X465790Y920430D01*
X466103Y922000D01*
X465790Y923570D01*
X464901Y924901D01*
X463570Y925790D01*
X462000Y926103D01*
D02*
G37*
G36*
X746539Y926529D02*
X738769D01*
Y917510D01*
X746539D01*
Y926529D01*
D02*
G37*
G36*
X736229D02*
X728459D01*
Y917510D01*
X736229D01*
Y926529D01*
D02*
G37*
G36*
X599039Y926529D02*
X591269D01*
Y917510D01*
X599039D01*
Y926529D01*
D02*
G37*
G36*
X588729D02*
X580959D01*
Y917510D01*
X588729D01*
Y926529D01*
D02*
G37*
G36*
X451539Y926529D02*
X443769D01*
Y917510D01*
X451539D01*
Y926529D01*
D02*
G37*
G36*
X441229D02*
X433459D01*
Y917510D01*
X441229D01*
Y926529D01*
D02*
G37*
G36*
X1348199Y918093D02*
X1343115D01*
X1342355Y917942D01*
X1341710Y917511D01*
X1341533Y917245D01*
X1341420D01*
X1340660Y917094D01*
X1339875Y916870D01*
X1339435Y917511D01*
X1338791Y917942D01*
X1338031Y918093D01*
X1335489D01*
X1334729Y917942D01*
X1334084Y917511D01*
X1333654Y916867D01*
X1333503Y916107D01*
X1333548Y915879D01*
X1333201Y915199D01*
X1333107Y915074D01*
X1332319Y914703D01*
X1329557D01*
X1328797Y914552D01*
X1328513Y914362D01*
X1328442Y914365D01*
X1327429Y914756D01*
X1327239Y914922D01*
X1327307Y915260D01*
X1327155Y916020D01*
X1326725Y916664D01*
X1326081Y917094D01*
X1325321Y917245D01*
X1325208D01*
X1325030Y917511D01*
X1324386Y917942D01*
X1323626Y918093D01*
X1321084D01*
X1320324Y917942D01*
X1319680Y917511D01*
X1319249Y916867D01*
X1319098Y916107D01*
X1318889Y915881D01*
X1317404Y915816D01*
X1316897Y916156D01*
X1316557Y916664D01*
X1315913Y917094D01*
X1315153Y917245D01*
X1315040D01*
X1314862Y917511D01*
X1314218Y917942D01*
X1313458Y918093D01*
X1309221D01*
X1308462Y917942D01*
X1307817Y917511D01*
X1307640Y917245D01*
X1307527D01*
X1306767Y917094D01*
X1306123Y916664D01*
X1305783Y916156D01*
X1305275Y915816D01*
X1304845Y915172D01*
X1304694Y914412D01*
X1304778Y913989D01*
X1304694Y913565D01*
X1304778Y913141D01*
X1304694Y912718D01*
X1304778Y912294D01*
X1304694Y911870D01*
X1304778Y911447D01*
X1304694Y911023D01*
X1304778Y910599D01*
X1304694Y910176D01*
X1304778Y909752D01*
X1304694Y909328D01*
X1304845Y908568D01*
X1305275Y907924D01*
X1305561Y907733D01*
X1305541Y907634D01*
X1305692Y906874D01*
X1306123Y906229D01*
X1306631Y905890D01*
X1306970Y905382D01*
X1307256Y905191D01*
X1307236Y905092D01*
X1307387Y904332D01*
X1307817Y903688D01*
X1308325Y903348D01*
X1308665Y902840D01*
X1309309Y902410D01*
X1310069Y902259D01*
X1313458D01*
X1314218Y902410D01*
X1314862Y902840D01*
X1315293Y903484D01*
X1315444Y904244D01*
X1315293Y905004D01*
X1314862Y905648D01*
X1314354Y905988D01*
X1314298Y906072D01*
X1314859Y907341D01*
X1314860Y907343D01*
X1315153D01*
X1315913Y907494D01*
X1316557Y907924D01*
X1316896Y908432D01*
X1317404Y908771D01*
X1318889Y908707D01*
X1319098Y908481D01*
X1319183Y908057D01*
X1319098Y907634D01*
X1319183Y907210D01*
X1319098Y906786D01*
X1319183Y906363D01*
X1319098Y905939D01*
X1319183Y905515D01*
X1319098Y905092D01*
X1319183Y904668D01*
X1319098Y904244D01*
X1319249Y903484D01*
X1319680Y902840D01*
X1320324Y902410D01*
X1321084Y902259D01*
X1323626D01*
X1324386Y902410D01*
X1325030Y902840D01*
X1325461Y903484D01*
X1325612Y904244D01*
X1325528Y904668D01*
X1325612Y905092D01*
X1325528Y905515D01*
X1325612Y905939D01*
X1325528Y906363D01*
X1325612Y906786D01*
X1325528Y907210D01*
X1325612Y907634D01*
X1325528Y908057D01*
X1325612Y908481D01*
X1325528Y908905D01*
X1325612Y909328D01*
X1325528Y909752D01*
X1325612Y910176D01*
X1325561Y910432D01*
X1325878Y911424D01*
X1326081Y911730D01*
X1326427Y911962D01*
X1327208Y911959D01*
X1327920Y911663D01*
X1328153Y911313D01*
X1328661Y910974D01*
X1329001Y910466D01*
X1329509Y910127D01*
X1329848Y909619D01*
X1330197Y909385D01*
X1330518Y908615D01*
X1330368Y907987D01*
X1330197Y907577D01*
X1329848Y907343D01*
X1329508Y906835D01*
X1329001Y906496D01*
X1328661Y905988D01*
X1328153Y905648D01*
X1327723Y905004D01*
X1327572Y904244D01*
X1327723Y903484D01*
X1328153Y902840D01*
X1328797Y902410D01*
X1329557Y902259D01*
X1332947D01*
X1333707Y902410D01*
X1334641Y902738D01*
X1335576Y902410D01*
X1336336Y902259D01*
X1338878D01*
X1339638Y902410D01*
X1340149Y902751D01*
X1340660Y902410D01*
X1341420Y902259D01*
X1350741D01*
X1351501Y902410D01*
X1352145Y902840D01*
X1352575Y903484D01*
X1352726Y904244D01*
X1352642Y904668D01*
X1352726Y905092D01*
X1352575Y905852D01*
X1352145Y906496D01*
X1351637Y906835D01*
X1351297Y907343D01*
X1350789Y907683D01*
X1350450Y908191D01*
X1349942Y908530D01*
X1349603Y909038D01*
X1349095Y909377D01*
X1348755Y909885D01*
X1348248Y910225D01*
X1347908Y910732D01*
X1347400Y911072D01*
X1347232Y911324D01*
X1347676Y912282D01*
X1347861Y912494D01*
X1348199Y912426D01*
X1349893D01*
X1350653Y912578D01*
X1351297Y913008D01*
X1351728Y913652D01*
X1351879Y914412D01*
X1351728Y915172D01*
X1351297Y915816D01*
X1350789Y916156D01*
X1350450Y916664D01*
X1349942Y917003D01*
X1349603Y917511D01*
X1348958Y917942D01*
X1348199Y918093D01*
D02*
G37*
G36*
X948000Y930103D02*
X946430Y929790D01*
X945099Y928901D01*
X944210Y927570D01*
X943897Y926000D01*
X944210Y924430D01*
X945099Y923099D01*
X945108Y921747D01*
X938387Y915026D01*
X938000Y915103D01*
X936430Y914790D01*
X935099Y913901D01*
X934210Y912570D01*
X933897Y911000D01*
X934210Y909430D01*
X935099Y908099D01*
X936430Y907209D01*
X938000Y906897D01*
X939570Y907209D01*
X940901Y908099D01*
X941790Y909430D01*
X942103Y911000D01*
X942026Y911386D01*
X949820Y919180D01*
X950378Y920015D01*
X950574Y921000D01*
Y922880D01*
X950901Y923099D01*
X951790Y924430D01*
X952103Y926000D01*
X951790Y927570D01*
X950901Y928901D01*
X949570Y929790D01*
X948000Y930103D01*
D02*
G37*
G36*
X1431237Y918093D02*
X1427000D01*
X1426240Y917942D01*
X1425596Y917511D01*
X1425165Y916867D01*
X1425014Y916107D01*
X1425099Y915683D01*
X1425014Y915260D01*
X1424959Y915190D01*
X1424677Y914988D01*
X1423611Y914973D01*
X1423025Y915407D01*
X1422903Y916020D01*
X1422473Y916664D01*
X1421965Y917003D01*
X1421626Y917511D01*
X1420981Y917942D01*
X1420221Y918093D01*
X1416832D01*
X1416072Y917942D01*
X1415428Y917511D01*
X1414997Y916867D01*
X1414846Y916107D01*
X1414931Y915683D01*
X1414915Y915604D01*
X1414594Y915131D01*
X1413728Y914687D01*
X1413603Y914672D01*
X1413443Y914703D01*
X1410901D01*
X1410141Y914552D01*
X1409497Y914122D01*
X1409066Y913477D01*
X1409006Y913176D01*
X1407711D01*
X1407651Y913477D01*
X1407221Y914122D01*
X1406577Y914552D01*
X1405817Y914703D01*
X1404122D01*
X1403362Y914552D01*
X1402851Y914211D01*
X1402340Y914552D01*
X1401580Y914703D01*
X1399038D01*
X1398615Y914619D01*
X1398191Y914703D01*
X1395649D01*
X1394889Y914552D01*
X1394378Y914211D01*
X1393867Y914552D01*
X1393107Y914703D01*
X1388023D01*
X1387263Y914552D01*
X1386619Y914122D01*
X1386441Y913856D01*
X1386328D01*
X1386100Y913811D01*
X1385177Y914283D01*
X1384856Y914756D01*
X1384841Y914836D01*
X1384925Y915260D01*
X1384841Y915683D01*
X1384925Y916107D01*
X1384774Y916867D01*
X1384343Y917511D01*
X1383699Y917942D01*
X1382939Y918093D01*
X1381244D01*
X1380484Y917942D01*
X1379840Y917511D01*
X1379259D01*
X1378615Y917942D01*
X1377855Y918093D01*
X1376160D01*
X1375400Y917942D01*
X1374756Y917511D01*
X1374326Y916867D01*
X1374174Y916107D01*
X1374201Y915973D01*
X1373681Y915028D01*
X1372990Y914703D01*
X1370229D01*
X1369469Y914552D01*
X1368825Y914122D01*
X1368647Y913856D01*
X1368534D01*
X1367775Y913705D01*
X1367130Y913274D01*
X1365936Y913772D01*
X1365702Y914122D01*
X1365058Y914552D01*
X1364298Y914703D01*
X1359214D01*
X1358454Y914552D01*
X1357810Y914122D01*
X1357632Y913856D01*
X1357519D01*
X1356759Y913705D01*
X1356115Y913274D01*
X1355685Y912630D01*
X1355533Y911870D01*
X1355618Y911447D01*
X1355533Y911023D01*
X1355618Y910599D01*
X1355533Y910176D01*
X1355618Y909752D01*
X1355533Y909328D01*
X1355618Y908905D01*
X1355533Y908481D01*
X1355618Y908057D01*
X1355533Y907634D01*
X1355618Y907210D01*
X1355533Y906786D01*
X1355685Y906026D01*
X1356115Y905382D01*
X1356400Y905191D01*
X1356381Y905092D01*
X1356465Y904668D01*
X1356381Y904244D01*
X1356532Y903484D01*
X1356962Y902840D01*
X1357607Y902410D01*
X1358366Y902259D01*
X1360061D01*
X1360821Y902410D01*
X1360909Y902468D01*
X1360996Y902410D01*
X1361756Y902259D01*
X1365992D01*
X1366752Y902410D01*
X1367687Y902738D01*
X1368622Y902410D01*
X1369382Y902259D01*
X1371076D01*
X1371836Y902410D01*
X1372480Y902840D01*
X1372911Y903484D01*
X1373062Y904244D01*
X1372978Y904668D01*
X1373062Y905092D01*
X1372978Y905515D01*
X1373062Y905939D01*
X1373272Y906165D01*
X1374756Y906229D01*
X1375042Y906039D01*
X1375022Y905939D01*
X1375106Y905515D01*
X1375022Y905092D01*
X1375106Y904668D01*
X1375022Y904244D01*
X1375173Y903484D01*
X1375603Y902840D01*
X1376248Y902410D01*
X1377008Y902259D01*
X1378702D01*
X1379462Y902410D01*
X1380397Y902738D01*
X1381332Y902410D01*
X1382092Y902259D01*
X1383786D01*
X1384546Y902410D01*
X1385481Y902738D01*
X1386416Y902410D01*
X1387176Y902259D01*
X1388870D01*
X1389630Y902410D01*
X1389718Y902468D01*
X1389805Y902410D01*
X1390565Y902259D01*
X1394801D01*
X1395562Y902410D01*
X1396206Y902840D01*
X1396545Y903348D01*
X1396755Y903488D01*
X1397138Y903487D01*
X1397899Y903335D01*
X1398248Y903190D01*
X1398481Y902840D01*
X1399126Y902410D01*
X1399886Y902259D01*
X1402427D01*
X1403187Y902410D01*
X1403698Y902751D01*
X1404209Y902410D01*
X1404969Y902259D01*
X1406664D01*
X1407088Y902343D01*
X1407511Y902259D01*
X1413443D01*
X1414203Y902410D01*
X1414847Y902840D01*
X1416272D01*
X1416281Y902836D01*
X1416919Y902410D01*
X1417679Y902259D01*
X1419374D01*
X1420134Y902410D01*
X1420773Y902836D01*
X1420781Y902840D01*
X1422207D01*
X1422851Y902410D01*
X1423611Y902259D01*
X1426153D01*
X1426913Y902410D01*
X1427557Y902840D01*
X1428138D01*
X1428782Y902410D01*
X1429542Y902259D01*
X1432084D01*
X1432844Y902410D01*
X1433488Y902840D01*
X1433919Y903484D01*
X1434070Y904244D01*
X1433985Y904668D01*
X1434070Y905092D01*
X1433919Y905852D01*
X1433488Y906496D01*
X1433203Y906687D01*
X1433222Y906786D01*
X1433138Y907210D01*
X1433222Y907634D01*
X1433138Y908057D01*
X1433222Y908481D01*
X1433138Y908905D01*
X1433222Y909328D01*
X1433138Y909752D01*
X1433222Y910176D01*
X1433138Y910599D01*
X1433222Y911023D01*
X1433138Y911447D01*
X1433222Y911870D01*
X1433138Y912294D01*
X1433222Y912718D01*
X1433138Y913141D01*
X1433222Y913565D01*
X1433138Y913989D01*
X1433222Y914412D01*
X1433138Y914836D01*
X1433222Y915260D01*
X1433138Y915683D01*
X1433222Y916107D01*
X1433071Y916867D01*
X1432641Y917511D01*
X1431996Y917942D01*
X1431237Y918093D01*
D02*
G37*
G36*
X1497328D02*
X1493939D01*
X1493179Y917942D01*
X1492535Y917511D01*
X1492104Y916867D01*
X1491953Y916107D01*
X1491973Y916007D01*
X1491687Y915816D01*
X1491257Y915172D01*
X1491203Y914902D01*
X1491071Y914793D01*
X1489969Y914365D01*
X1489899Y914362D01*
X1489615Y914552D01*
X1489146Y915260D01*
X1488995Y916020D01*
X1488564Y916664D01*
X1488056Y917003D01*
X1487717Y917511D01*
X1487073Y917942D01*
X1486313Y918093D01*
X1482076D01*
X1481316Y917942D01*
X1480672Y917511D01*
X1480242Y916867D01*
X1480090Y916107D01*
X1480175Y915683D01*
X1480159Y915604D01*
X1479838Y915131D01*
X1478915Y914658D01*
X1478687Y914703D01*
X1474450D01*
X1473690Y914552D01*
X1473046Y914122D01*
X1472868Y913856D01*
X1472756D01*
X1471996Y913705D01*
X1471649Y913473D01*
X1470868Y913476D01*
X1470157Y913772D01*
X1469923Y914122D01*
X1469279Y914552D01*
X1468519Y914703D01*
X1466824D01*
X1466064Y914552D01*
X1465553Y914211D01*
X1465042Y914552D01*
X1464282Y914703D01*
X1460893D01*
X1460133Y914552D01*
X1459489Y914122D01*
X1459311Y913856D01*
X1459198D01*
X1458438Y913705D01*
X1457927Y913363D01*
X1457553Y913614D01*
X1457213Y914122D01*
X1456569Y914552D01*
X1455809Y914703D01*
X1451573D01*
X1450813Y914552D01*
X1450168Y914122D01*
X1449935Y913772D01*
X1449525Y913601D01*
X1448849Y913440D01*
X1448096Y913705D01*
X1447336Y913856D01*
X1447223D01*
X1447045Y914122D01*
X1446401Y914552D01*
X1445641Y914703D01*
X1441405D01*
X1440645Y914552D01*
X1440000Y914122D01*
X1439823Y913856D01*
X1439710D01*
X1438950Y913705D01*
X1438306Y913274D01*
X1437966Y912767D01*
X1437458Y912427D01*
X1437028Y911783D01*
X1436877Y911023D01*
X1436961Y910599D01*
X1436877Y910176D01*
X1436961Y909752D01*
X1436877Y909328D01*
X1436961Y908905D01*
X1436877Y908481D01*
X1436961Y908057D01*
X1436877Y907634D01*
X1436961Y907210D01*
X1436877Y906786D01*
X1436961Y906363D01*
X1436877Y905939D01*
X1437028Y905179D01*
X1437458Y904535D01*
X1437966Y904195D01*
X1438306Y903688D01*
X1438814Y903348D01*
X1439153Y902840D01*
X1439797Y902410D01*
X1440557Y902259D01*
X1446488D01*
X1447248Y902410D01*
X1447893Y902840D01*
X1448126Y903190D01*
X1448536Y903361D01*
X1449030Y903478D01*
X1449525Y903361D01*
X1449935Y903190D01*
X1450168Y902840D01*
X1450813Y902410D01*
X1451573Y902259D01*
X1457504D01*
X1458264Y902410D01*
X1458775Y902751D01*
X1459286Y902410D01*
X1460046Y902259D01*
X1461740D01*
X1462500Y902410D01*
X1463145Y902840D01*
X1463575Y903484D01*
X1463726Y904244D01*
X1463642Y904668D01*
X1463726Y905092D01*
X1463936Y905318D01*
X1465420Y905382D01*
X1465706Y905191D01*
X1465686Y905092D01*
X1465770Y904668D01*
X1465686Y904244D01*
X1465837Y903484D01*
X1466268Y902840D01*
X1466912Y902410D01*
X1467672Y902259D01*
X1469366D01*
X1470126Y902410D01*
X1470765Y902836D01*
X1470773Y902840D01*
X1472199D01*
X1472843Y902410D01*
X1473603Y902259D01*
X1479534D01*
X1480294Y902410D01*
X1480938Y902840D01*
X1481278Y903348D01*
X1481786Y903688D01*
X1482125Y904195D01*
X1482273Y904295D01*
X1482344Y904292D01*
X1483445Y903864D01*
X1483577Y903755D01*
X1483631Y903484D01*
X1484061Y902840D01*
X1484706Y902410D01*
X1485466Y902259D01*
X1488008D01*
X1488768Y902410D01*
X1488855Y902468D01*
X1488942Y902410D01*
X1489702Y902259D01*
X1492244D01*
X1493004Y902410D01*
X1493648Y902840D01*
X1493988Y903348D01*
X1494496Y903688D01*
X1494926Y904332D01*
X1495077Y905092D01*
X1495009Y905437D01*
X1495518Y906165D01*
X1495869Y906344D01*
X1497188Y906026D01*
X1497619Y905382D01*
X1497904Y905191D01*
X1497884Y905092D01*
X1498035Y904332D01*
X1498466Y903688D01*
X1498974Y903348D01*
X1499313Y902840D01*
X1499957Y902410D01*
X1500717Y902259D01*
X1503259D01*
X1504019Y902410D01*
X1504664Y902840D01*
X1505094Y903484D01*
X1505245Y904244D01*
X1505161Y904668D01*
X1505245Y905092D01*
X1505094Y905852D01*
X1504664Y906496D01*
X1504378Y906687D01*
X1504398Y906786D01*
X1504247Y907546D01*
X1503816Y908191D01*
X1503531Y908381D01*
X1503551Y908481D01*
X1503399Y909241D01*
X1502969Y909885D01*
X1502683Y910076D01*
X1502703Y910176D01*
X1502552Y910936D01*
X1502122Y911580D01*
X1501836Y911770D01*
X1501856Y911870D01*
X1501705Y912630D01*
X1501274Y913274D01*
X1500989Y913465D01*
X1501009Y913565D01*
X1500857Y914325D01*
X1500427Y914969D01*
X1500141Y915160D01*
X1500161Y915260D01*
X1500010Y916020D01*
X1499580Y916664D01*
X1499072Y917003D01*
X1498732Y917511D01*
X1498088Y917942D01*
X1497328Y918093D01*
D02*
G37*
G36*
X892000Y905103D02*
X890430Y904790D01*
X889099Y903901D01*
X888880Y903574D01*
X872120D01*
X871901Y903901D01*
X870570Y904790D01*
X869000Y905103D01*
X867430Y904790D01*
X866099Y903901D01*
X865210Y902570D01*
X864897Y901000D01*
X865210Y899430D01*
X866099Y898099D01*
X867430Y897209D01*
X869000Y896897D01*
X870570Y897209D01*
X871901Y898099D01*
X872120Y898427D01*
X888880D01*
X889099Y898099D01*
X890430Y897209D01*
X892000Y896897D01*
X893570Y897209D01*
X894901Y898099D01*
X895790Y899430D01*
X896103Y901000D01*
X895790Y902570D01*
X894901Y903901D01*
X893570Y904790D01*
X892000Y905103D01*
D02*
G37*
G36*
X572130Y912540D02*
X560860D01*
Y901270D01*
X572130D01*
Y912540D01*
D02*
G37*
G36*
X1526500Y931824D02*
X1523261Y931505D01*
X1520146Y930560D01*
X1517275Y929026D01*
X1514759Y926961D01*
X1512694Y924445D01*
X1511160Y921574D01*
X1510215Y918459D01*
X1509896Y915220D01*
X1510215Y911981D01*
X1511160Y908866D01*
X1512694Y905995D01*
X1514759Y903479D01*
X1517275Y901414D01*
X1520146Y899880D01*
X1523261Y898935D01*
X1526500Y898616D01*
X1529739Y898935D01*
X1532854Y899880D01*
X1535725Y901414D01*
X1538241Y903479D01*
X1540306Y905995D01*
X1541840Y908866D01*
X1542785Y911981D01*
X1543104Y915220D01*
X1542785Y918459D01*
X1541840Y921574D01*
X1540306Y924445D01*
X1538241Y926961D01*
X1535725Y929026D01*
X1532854Y930560D01*
X1529739Y931505D01*
X1526500Y931824D01*
D02*
G37*
G36*
X326500D02*
X323261Y931505D01*
X320146Y930560D01*
X317275Y929026D01*
X314759Y926961D01*
X312694Y924445D01*
X311160Y921574D01*
X310215Y918459D01*
X309896Y915220D01*
X310215Y911981D01*
X311160Y908866D01*
X312694Y905995D01*
X314759Y903479D01*
X317275Y901414D01*
X320146Y899880D01*
X323261Y898935D01*
X326500Y898616D01*
X329739Y898935D01*
X332854Y899880D01*
X335725Y901414D01*
X338241Y903479D01*
X340306Y905995D01*
X341840Y908866D01*
X342785Y911981D01*
X343104Y915220D01*
X342785Y918459D01*
X341840Y921574D01*
X340306Y924445D01*
X338241Y926961D01*
X335725Y929026D01*
X332854Y930560D01*
X329739Y931505D01*
X326500Y931824D01*
D02*
G37*
G36*
X426000Y927103D02*
X424430Y926790D01*
X423099Y925901D01*
X422210Y924570D01*
X421897Y923000D01*
X422210Y921430D01*
X423099Y920099D01*
X423427Y919880D01*
Y913524D01*
X414476D01*
Y890476D01*
X437524D01*
Y913524D01*
X428573D01*
Y919880D01*
X428901Y920099D01*
X429790Y921430D01*
X430103Y923000D01*
X429790Y924570D01*
X428901Y925901D01*
X427570Y926790D01*
X426000Y927103D01*
D02*
G37*
G36*
X412124Y913524D02*
X389076D01*
Y890476D01*
X412124D01*
Y913524D01*
D02*
G37*
G36*
X559524Y911524D02*
X536476D01*
Y888476D01*
X559524D01*
Y911524D01*
D02*
G37*
G36*
X662140Y898730D02*
X650870D01*
Y887460D01*
X662140D01*
Y898730D01*
D02*
G37*
G36*
X586260Y912540D02*
X584990Y912540D01*
X574670D01*
Y900000D01*
Y887460D01*
X584990D01*
X585940Y887460D01*
X587210Y887460D01*
X597530D01*
Y900000D01*
Y912540D01*
X587210D01*
X586260Y912540D01*
D02*
G37*
G36*
X572130Y898730D02*
X560860D01*
Y887460D01*
X572130D01*
Y898730D01*
D02*
G37*
%LPD*%
G36*
X1173180Y1175530D02*
X1174015Y1174972D01*
X1175000Y1174777D01*
X1178826D01*
Y1169876D01*
X1185077D01*
X1185563Y1168703D01*
X1182434Y1165574D01*
X1168066D01*
X1156220Y1177420D01*
X1155385Y1177978D01*
X1154400Y1178173D01*
X1154441Y1179426D01*
X1169284D01*
X1173180Y1175530D01*
D02*
G37*
G36*
X1063626Y1162074D02*
Y1155402D01*
X1015583D01*
X1015198Y1156672D01*
X1015539Y1156900D01*
X1021566Y1162926D01*
X1062709D01*
X1063626Y1162074D01*
D02*
G37*
G36*
X1158864Y1154747D02*
X1158378Y1153574D01*
X1146066D01*
X1144070Y1155570D01*
X1143235Y1156128D01*
X1142250Y1156323D01*
X1124874D01*
Y1161927D01*
X1151684D01*
X1158864Y1154747D01*
D02*
G37*
G36*
X1103520Y1147010D02*
X1105890D01*
Y1148026D01*
X1122976D01*
Y1144676D01*
Y1140676D01*
Y1136676D01*
Y1132676D01*
Y1128676D01*
Y1124676D01*
Y1122940D01*
X1121960D01*
Y1120570D01*
X1130000D01*
Y1118030D01*
X1121960D01*
Y1115660D01*
X1122976D01*
Y1112676D01*
Y1108676D01*
Y1106940D01*
X1121960D01*
Y1104570D01*
X1130000D01*
Y1102030D01*
X1121960D01*
Y1099660D01*
X1122976D01*
Y1096676D01*
Y1092676D01*
Y1090574D01*
X1065524D01*
Y1092676D01*
Y1096676D01*
Y1100676D01*
Y1104676D01*
Y1107660D01*
X1066540D01*
Y1110030D01*
X1058500D01*
Y1112570D01*
X1066540D01*
Y1114940D01*
X1065524D01*
Y1116676D01*
Y1120676D01*
Y1124676D01*
Y1128676D01*
Y1132676D01*
Y1136676D01*
Y1140676D01*
Y1144676D01*
Y1148026D01*
X1098610D01*
Y1147010D01*
X1100980D01*
Y1155050D01*
X1103520D01*
Y1147010D01*
D02*
G37*
G36*
X678427Y1119300D02*
X678622Y1118315D01*
X679180Y1117480D01*
X685614Y1111047D01*
X685128Y1109873D01*
X682066D01*
X675574Y1116366D01*
Y1169876D01*
X678427D01*
Y1119300D01*
D02*
G37*
G36*
X594426Y1108800D02*
X594622Y1107815D01*
X595180Y1106980D01*
X599114Y1103047D01*
X598628Y1101873D01*
X593480D01*
X591573Y1103780D01*
Y1169876D01*
X594426D01*
Y1108800D01*
D02*
G37*
G36*
X578427Y1099300D02*
X578446Y1099204D01*
X577275Y1098579D01*
X575573Y1100280D01*
Y1169876D01*
X578427D01*
Y1099300D01*
D02*
G37*
G36*
X586427Y1102714D02*
X586622Y1101730D01*
X587180Y1100895D01*
X589028Y1099047D01*
X588542Y1097873D01*
X586066D01*
X583573Y1100366D01*
Y1169876D01*
X586427D01*
Y1102714D01*
D02*
G37*
G36*
X1321680Y1087475D02*
X1322099Y1086849D01*
X1322211Y1086774D01*
Y1085316D01*
X1264469Y1027573D01*
X1260009D01*
X1259483Y1028844D01*
X1316613Y1085974D01*
X1317000Y1085897D01*
X1318570Y1086209D01*
X1319901Y1087099D01*
X1320153Y1087476D01*
X1321680Y1087475D01*
D02*
G37*
G36*
X494426Y1092000D02*
X494622Y1091015D01*
X495180Y1090180D01*
X499017Y1086343D01*
X498491Y1085073D01*
X496066D01*
X491573Y1089566D01*
Y1169876D01*
X494426D01*
Y1092000D01*
D02*
G37*
G36*
X486427Y1088500D02*
X486622Y1087515D01*
X487180Y1086680D01*
X492017Y1081843D01*
X491491Y1080574D01*
X488066D01*
X483573Y1085066D01*
Y1169876D01*
X486427D01*
Y1088500D01*
D02*
G37*
G36*
X478427Y1084000D02*
X478622Y1083015D01*
X479180Y1082180D01*
X483590Y1077771D01*
X483104Y1076597D01*
X480042D01*
X475573Y1081066D01*
Y1169876D01*
X478427D01*
Y1084000D01*
D02*
G37*
G36*
X1231162Y1028844D02*
X1230636Y1027573D01*
X1226066D01*
X1208822Y1044818D01*
X1207987Y1045376D01*
X1207002Y1045571D01*
X1176867D01*
X1176312Y1046753D01*
X1176458Y1047053D01*
X1176901Y1047349D01*
X1177120Y1047676D01*
X1212329D01*
X1231162Y1028844D01*
D02*
G37*
%LPC*%
G36*
X1120524Y1145574D02*
X1067976D01*
Y1093026D01*
X1120524D01*
Y1145574D01*
D02*
G37*
%LPD*%
D10*
X1128700Y1084050D02*
Y1095300D01*
Y1084050D02*
X1137000Y1075750D01*
X1059800Y1111300D02*
X1086250D01*
X1094250Y1119300D01*
X1095363Y1118186D02*
X1104751Y1127574D01*
X1104323Y1119300D02*
X1115323D01*
X1099550Y1124600D02*
X1102250Y1127300D01*
X1115323Y1103300D02*
Y1119300D01*
X1104751Y1127574D02*
X1115323D01*
X1102250Y1127300D02*
Y1153750D01*
X1115323Y1119300D02*
Y1127574D01*
Y1119300D02*
X1128700D01*
X1094250D02*
X1095363Y1118186D01*
X1115323Y1103300D02*
X1128950D01*
X1155000Y1075750D02*
X1155250Y1076000D01*
X1137000Y1075750D02*
X1137500D01*
X1260480Y1220470D02*
X1285000Y1195950D01*
X1256900Y1220470D02*
X1260480D01*
X1301000Y1193750D02*
Y1203169D01*
X1307051Y1209220D01*
Y1219821D01*
X1307700Y1220470D01*
X1291819Y1194931D02*
X1293000Y1193750D01*
X1291819Y1194931D02*
Y1202350D01*
X1284692Y1209477D02*
X1291819Y1202350D01*
X1284692Y1209477D02*
Y1218078D01*
X1282300Y1220470D02*
X1284692Y1218078D01*
X1333100Y1220050D02*
Y1220470D01*
X1309000Y1195950D02*
X1333100Y1220050D01*
X1309000Y1193750D02*
Y1195950D01*
X1285000Y1193750D02*
Y1195950D01*
X1394000Y1205170D02*
X1409300Y1220470D01*
X1394000Y1193750D02*
Y1205170D01*
X1384950Y1194800D02*
X1386000Y1193750D01*
X1384950Y1194800D02*
Y1219420D01*
X1383900Y1220470D02*
X1384950Y1219420D01*
X1376620Y1195130D02*
X1378000Y1193750D01*
X1376620Y1195130D02*
Y1202350D01*
X1358500Y1220470D02*
X1376620Y1202350D01*
X1199000Y1193750D02*
Y1202969D01*
X1205251Y1209220D01*
Y1219621D01*
X1206100Y1220470D01*
X1231500Y1220450D02*
Y1220470D01*
X1207000Y1195950D02*
X1231500Y1220450D01*
X1207000Y1193750D02*
Y1195950D01*
X1183000Y1193750D02*
Y1195950D01*
X1158480Y1220470D02*
X1183000Y1195950D01*
X1155300Y1220470D02*
X1158480D01*
X878000Y1193750D02*
Y1195950D01*
X853480Y1220470D02*
X878000Y1195950D01*
X850900Y1220470D02*
X853480D01*
X793000Y1195000D02*
X793006Y1195006D01*
Y1203600D01*
X798626Y1209220D01*
Y1218996D01*
X800100Y1220470D01*
X785000Y1195000D02*
Y1210170D01*
X774700Y1220470D02*
X785000Y1210170D01*
X801000Y1195000D02*
Y1197200D01*
X824270Y1220470D01*
X825500D01*
X777000Y1195000D02*
Y1197200D01*
X775600Y1198600D02*
X777000Y1197200D01*
X771170Y1198600D02*
X775600D01*
X749300Y1220470D02*
X771170Y1198600D01*
X689000Y1193750D02*
X689581Y1194331D01*
Y1202350D01*
X696451Y1209220D01*
Y1218421D01*
X698500Y1220470D01*
X681000Y1193750D02*
Y1202569D01*
X674349Y1209220D02*
X681000Y1202569D01*
X674349Y1209220D02*
Y1219221D01*
X673100Y1220470D02*
X674349Y1219221D01*
X697000Y1193750D02*
Y1195950D01*
X721520Y1220470D01*
X723900D01*
X673000Y1193750D02*
Y1195950D01*
X648480Y1220470D02*
X673000Y1195950D01*
X647700Y1220470D02*
X648480D01*
X621520D02*
X622300D01*
X597000Y1195950D02*
X621520Y1220470D01*
X597000Y1193750D02*
Y1195950D01*
X573000Y1193750D02*
Y1195950D01*
X548480Y1220470D02*
X573000Y1195950D01*
X546100Y1220470D02*
X548480D01*
X589000Y1193750D02*
Y1202569D01*
X595651Y1209220D01*
Y1219221D01*
X596900Y1220470D01*
X580419Y1194331D02*
X581000Y1193750D01*
X580419Y1194331D02*
Y1202350D01*
X573549Y1209220D02*
X580419Y1202350D01*
X573549Y1209220D02*
Y1218421D01*
X571500Y1220470D02*
X573549Y1218421D01*
X494851Y1210221D02*
Y1220021D01*
X489000Y1204370D02*
X494851Y1210221D01*
X489000Y1193750D02*
Y1204370D01*
X481000Y1193750D02*
Y1205000D01*
X469900Y1216100D02*
X481000Y1205000D01*
X469900Y1216100D02*
Y1220470D01*
X465630Y1209370D02*
X473000Y1202000D01*
X455600Y1209370D02*
X465630D01*
X444500Y1220470D02*
X455600Y1209370D01*
X497000Y1201000D02*
X505000Y1209000D01*
X497000Y1193750D02*
Y1201000D01*
X516500Y1209000D02*
X520700Y1213200D01*
X505000Y1209000D02*
X516500D01*
X473000Y1193750D02*
Y1202000D01*
X520700Y1213200D02*
Y1220470D01*
X494851Y1220021D02*
X495300Y1220470D01*
D12*
X1509750Y1068000D02*
X1526620D01*
X1509250Y1067500D02*
X1509750Y1068000D01*
X1509250Y1052000D02*
X1526620D01*
X1509250Y1052000D02*
X1509250Y1052000D01*
X1495250Y1041708D02*
Y1052000D01*
X1489542Y1036000D02*
X1495250Y1041708D01*
X1475000Y1036000D02*
X1489542D01*
D13*
X783000Y940000D02*
X785750Y937250D01*
X795230D01*
X1085240Y1053990D02*
X1086250Y1055000D01*
X1085240Y1048240D02*
Y1053990D01*
X1082000Y1045000D02*
X1085240Y1048240D01*
X1450000Y1148000D02*
X1462000D01*
X1467003Y1142997D02*
X1467997D01*
X1462000Y1148000D02*
X1467003Y1142997D01*
X1146300Y1115300D02*
X1146998Y1115998D01*
D14*
X1403123Y1129000D02*
Y1139099D01*
X1079000Y1025000D02*
X1082000Y1028000D01*
X770050Y1067950D02*
X817000D01*
X1128700Y1135300D02*
X1372063D01*
X1377763Y1141000D01*
X891000Y901000D02*
X892000Y900000D01*
X618000Y916000D02*
X667000D01*
X616000D02*
X618000D01*
X607000Y922000D02*
X676000D01*
X606000Y921000D02*
X607000Y922000D01*
X705000Y918250D02*
X706000D01*
X716000Y928250D01*
X662000Y943000D02*
X670000Y935000D01*
X577000Y943000D02*
X662000D01*
X564000Y930000D02*
X577000Y943000D01*
X564000Y922000D02*
Y930000D01*
X676000Y922000D02*
X701000Y897000D01*
X774050D01*
X795300Y918250D01*
X948000Y921000D02*
Y926000D01*
X938000Y911000D02*
X948000Y921000D01*
X892000Y900000D02*
Y901000D01*
X869000D02*
X891000D01*
X759998Y976998D02*
X788000Y1005000D01*
X881000D02*
X907000Y1031000D01*
X788000Y1005000D02*
X881000D01*
X875172Y1010000D02*
X905172Y1040000D01*
X783000Y1010000D02*
X875172D01*
X728998Y976998D02*
X759998D01*
X451400Y911400D02*
X462000Y922000D01*
X451400Y902000D02*
Y911400D01*
X757000Y984000D02*
X783000Y1010000D01*
X727000Y984000D02*
X757000D01*
X426000Y902000D02*
Y923000D01*
X1073783Y1015000D02*
X1079000Y1020218D01*
Y1025000D01*
X1064000Y1015000D02*
X1073783D01*
X1056000Y1023000D02*
X1064000Y1015000D01*
X1046000Y1040000D02*
X1049000Y1037000D01*
X1046000Y1040000D02*
Y1054000D01*
X1086250Y1083550D02*
Y1084850D01*
Y1055000D02*
Y1083550D01*
X1123514Y1175600D02*
X1154400D01*
X1110350Y1162436D02*
X1123514Y1175600D01*
X1110350Y1153850D02*
Y1162436D01*
X1044000Y1060000D02*
X1079000D01*
X1034000Y1070000D02*
X1044000Y1060000D01*
X1079000D02*
X1082250Y1063250D01*
Y1083550D01*
X1016000Y1070000D02*
X1034000D01*
X1011976Y1074024D02*
X1016000Y1070000D01*
X1175000Y1177350D02*
X1183000D01*
X1106350Y1153850D02*
Y1163531D01*
X1120226Y1182000D02*
X1170350D01*
X1115323Y1177097D02*
X1120226Y1182000D01*
X1115323Y1172504D02*
Y1177097D01*
X1098250Y1161336D02*
X1109000Y1172086D01*
X1098250Y1155050D02*
Y1161336D01*
X1106350Y1163531D02*
X1115323Y1172504D01*
X1109000Y1172086D02*
Y1177250D01*
X1114350Y1153850D02*
Y1162350D01*
X1123000Y1171000D02*
X1152000D01*
X1114350Y1162350D02*
X1123000Y1171000D01*
X1118350Y1153850D02*
Y1161320D01*
X1121531Y1164500D02*
X1152750D01*
X1118350Y1161320D02*
X1121531Y1164500D01*
X1152750D02*
X1162749Y1154501D01*
X1194501D01*
X1164280Y1158719D02*
X1188000D01*
X1152000Y1171000D02*
X1164280Y1158719D01*
X1167000Y1163000D02*
X1183500D01*
X1154400Y1175600D02*
X1167000Y1163000D01*
X1170350Y1182000D02*
X1175000Y1177350D01*
X1013719Y1158719D02*
X1020500Y1165500D01*
X1070150Y1153850D02*
Y1159000D01*
X1020500Y1165500D02*
X1067750D01*
X1070250Y1163000D01*
Y1155050D02*
Y1163000D01*
X1074250Y1155050D02*
Y1165500D01*
X1069400Y1170350D02*
X1074250Y1165500D01*
X1017350Y1170350D02*
X1069400D01*
X1074216Y1170566D02*
X1078250Y1166533D01*
X1012600Y1174600D02*
X1073045D01*
X1074216Y1173428D01*
Y1170566D02*
Y1173428D01*
X1079000Y1172000D02*
X1082250Y1168750D01*
X1009000Y1180000D02*
X1077000D01*
X1079000Y1178000D01*
Y1172000D02*
Y1178000D01*
X1078250Y1155050D02*
Y1166533D01*
X1082250Y1155050D02*
Y1168750D01*
X1005250Y1176250D02*
X1009000Y1180000D01*
X1002000Y1176250D02*
X1005250D01*
X1004750Y1166750D02*
X1012600Y1174600D01*
X998250Y1166750D02*
X1004750D01*
X994000Y1171000D02*
X998250Y1166750D01*
X1010000Y1163000D02*
X1017350Y1170350D01*
X993000Y1163000D02*
X1010000D01*
X986000Y1170000D02*
X993000Y1163000D01*
X983781Y1158719D02*
X1013719D01*
X978000Y1164500D02*
X983781Y1158719D01*
X986000Y1170000D02*
Y1176250D01*
X1074250Y1153750D02*
Y1155050D01*
X1078250Y1153750D02*
Y1155050D01*
X1082250Y1153750D02*
Y1155050D01*
X1070150Y1077281D02*
Y1084750D01*
X1049031Y1074250D02*
X1067120D01*
X1040780Y1082500D02*
X1049031Y1074250D01*
X1026500Y1082500D02*
X1040780D01*
X1067120Y1074250D02*
X1070150Y1077281D01*
X1046700Y1070000D02*
X1070000D01*
X1038367Y1078333D02*
X1046700Y1070000D01*
X1023167Y1078333D02*
X1038367D01*
X1045218Y1065105D02*
X1073783D01*
X1036156Y1074167D02*
X1045218Y1065105D01*
X1019167Y1074167D02*
X1036156D01*
X1070000Y1070000D02*
X1074250Y1074250D01*
Y1083550D02*
Y1084850D01*
Y1074250D02*
Y1083550D01*
X1073783Y1065105D02*
X1078250Y1069573D01*
Y1083550D02*
Y1084850D01*
Y1069573D02*
Y1083550D01*
X1082250D02*
Y1084850D01*
X1403123Y1139099D02*
X1407000Y1142975D01*
Y1143000D02*
X1419000Y1155000D01*
X1407000Y1142975D02*
Y1143000D01*
X1511936Y1132311D02*
X1512250Y1132625D01*
X1129026Y1110974D02*
X1153276D01*
X1128725Y1111275D02*
X1129026Y1110974D01*
X1153276D02*
X1157250Y1107000D01*
X1128700Y1115300D02*
X1146300D01*
X1143074Y1088574D02*
X1143500Y1089000D01*
X1138574Y1088574D02*
X1143074D01*
X1138000Y1088000D02*
X1138574Y1088574D01*
X1143500Y1089000D02*
X1149000D01*
X1117226Y1048419D02*
X1255425Y910220D01*
X1130476Y1056704D02*
X1202475Y984706D01*
X1207714D01*
X1282200Y910220D01*
X1117226Y1048419D02*
Y1068323D01*
X1118250Y1069346D01*
Y1084850D01*
X1122250Y1065105D02*
X1130476Y1056879D01*
Y1056704D02*
Y1056879D01*
X1122250Y1065105D02*
Y1084850D01*
Y1050500D02*
Y1058000D01*
Y1050500D02*
X1135000Y1037750D01*
X1255425Y910220D02*
X1256800D01*
X1079570Y1195000D02*
X1087000D01*
X1350000Y1065000D02*
Y1110000D01*
X1174000Y1050250D02*
X1213395D01*
X1233919Y1029726D02*
X1256726D01*
X1213395Y1050250D02*
X1233919Y1029726D01*
X1256726D02*
X1317000Y1090000D01*
X1265534Y1025000D02*
X1324784Y1084250D01*
X1225000Y1025000D02*
X1265534D01*
X1207002Y1042998D02*
X1225000Y1025000D01*
X478976Y1074024D02*
X1011976D01*
X473000Y1080000D02*
X478976Y1074024D01*
X769000Y1069000D02*
X770050Y1067950D01*
X403000Y1028464D02*
X436536Y1062000D01*
X403000Y1012801D02*
Y1028464D01*
X397501Y1007301D02*
X403000Y1012801D01*
X545001Y1042997D02*
X557002Y1054998D01*
X545001Y1007301D02*
Y1042997D01*
X557002Y1054998D02*
X816998D01*
X436536Y1062000D02*
X817000D01*
X1403000Y1129000D02*
X1403123D01*
X1543000Y1068380D02*
Y1074000D01*
X1542620Y1068000D02*
X1543000Y1068380D01*
X1535000Y1082000D02*
X1543000Y1074000D01*
X1473511Y1082000D02*
X1535000D01*
X1426511Y1129000D02*
X1473511Y1082000D01*
X1403123Y1129000D02*
X1426511D01*
X1324784Y1084250D02*
Y1089534D01*
X1325000Y1089750D01*
X1172998Y1042998D02*
X1207002D01*
X1419000Y1155000D02*
Y1208000D01*
X1455750Y1163000D02*
X1456250Y1163500D01*
X1442500Y1163000D02*
X1455750D01*
X1392976Y1138976D02*
Y1175226D01*
X1394000Y1176250D01*
X1381300Y1127300D02*
X1392976Y1138976D01*
X907400Y978000D02*
X948000D01*
X397501Y1007301D02*
X397802Y1007000D01*
X420000D01*
X397501Y927799D02*
Y1007301D01*
X545001D02*
X545302Y1007000D01*
X566000D01*
X545001Y927799D02*
Y1007301D01*
X692501Y985000D02*
Y1007301D01*
Y927799D02*
Y985000D01*
X700000D02*
X708000Y993000D01*
X692501Y985000D02*
X700000D01*
X777750Y981000D02*
X787750Y991000D01*
X792130D01*
X795130Y994000D01*
X779000Y967000D02*
X786500Y974500D01*
X795230D01*
X774700Y954000D02*
X776200Y955500D01*
X795230D01*
X837000Y937250D02*
X837250Y937500D01*
X811230Y937250D02*
X837000D01*
Y955500D02*
X837250Y955750D01*
X811230Y955500D02*
X837000D01*
X811230Y974500D02*
X837250D01*
X837250Y994000D02*
X837250Y994000D01*
X811130Y994000D02*
X837250D01*
X1243000Y1083000D02*
X1267500D01*
X1268500Y1084000D01*
X1274000D01*
X1155700Y1123300D02*
X1160000Y1119000D01*
X1128700Y1123300D02*
X1155700D01*
X1145700Y1107300D02*
X1154000Y1099000D01*
X1128700Y1107300D02*
X1145700D01*
X1139700Y1099300D02*
X1140000Y1099000D01*
X1128700Y1099300D02*
X1139700D01*
X1114250Y1027370D02*
Y1084850D01*
Y1027370D02*
X1231400Y910220D01*
X1110250Y1005970D02*
Y1084850D01*
Y1005970D02*
X1206000Y910220D01*
X1106250Y984570D02*
Y1084850D01*
Y984570D02*
X1180600Y910220D01*
X1102250Y963170D02*
Y1084850D01*
Y963170D02*
X1155200Y910220D01*
X1098250Y954000D02*
Y1084850D01*
Y954000D02*
X1129800Y922450D01*
Y910220D02*
Y922450D01*
X1104500Y910320D02*
Y939000D01*
X1104400Y910220D02*
X1104500Y910320D01*
X1094250Y949250D02*
X1104500Y939000D01*
X1094250Y949250D02*
Y1084850D01*
X1079000Y910220D02*
X1090250Y921470D01*
Y1084850D01*
X1128700Y1127300D02*
X1381300D01*
X1128700Y1131300D02*
X1376620D01*
X1386000Y1140680D01*
Y1176250D01*
X1377763Y1141000D02*
Y1176013D01*
X1378000Y1176250D01*
X1145000Y1151000D02*
X1279000D01*
X1142250Y1153750D02*
X1145000Y1151000D01*
X1122250Y1153750D02*
X1142250D01*
X1212550Y1139000D02*
X1293000D01*
X1212250Y1139300D02*
X1212550Y1139000D01*
X1128700Y1139300D02*
X1212250D01*
X1293000Y1139000D02*
X1309000Y1155000D01*
Y1176250D01*
X1301000Y1155506D02*
Y1176250D01*
X1288794Y1143300D02*
X1301000Y1155506D01*
X1128700Y1143300D02*
X1288794D01*
X1293000Y1155625D02*
Y1176250D01*
X1284675Y1147300D02*
X1293000Y1155625D01*
X1128700Y1147300D02*
X1284675D01*
X1279000Y1151000D02*
X1284000Y1156000D01*
Y1175250D01*
X1285000Y1176250D01*
X1183500Y1163000D02*
X1189350Y1168850D01*
Y1174600D01*
X1191000Y1176250D01*
X1188000Y1158719D02*
X1197681Y1168400D01*
Y1174930D01*
X1199000Y1176250D01*
X1207000Y1167000D02*
Y1176250D01*
X1194501Y1154501D02*
X1207000Y1167000D01*
X1094250Y1163250D02*
X1100400Y1169400D01*
Y1176650D01*
X1101000Y1177250D01*
X1093000Y1171000D02*
Y1177250D01*
X1090250Y1168250D02*
X1093000Y1171000D01*
X1090250Y1153750D02*
Y1168250D01*
X1086250Y1153750D02*
Y1176000D01*
X1085000Y1177250D02*
X1086250Y1176000D01*
X1109000Y1194000D02*
Y1194750D01*
Y1199570D02*
X1129900Y1220470D01*
X1109000Y1197000D02*
Y1199570D01*
X1101000Y1216970D02*
X1104500Y1220470D01*
X1101000Y1197000D02*
Y1216970D01*
X1079100Y1220470D02*
X1092000Y1207570D01*
Y1198000D02*
Y1207570D01*
X1183000Y1176250D02*
Y1177350D01*
X1118250Y1153750D02*
X1118350Y1153850D01*
X1114250Y1153750D02*
X1114350Y1153850D01*
X1110250Y1153750D02*
X1110350Y1153850D01*
X1106250Y1153750D02*
X1106350Y1153850D01*
X1094250Y1153750D02*
Y1163250D01*
X1084350Y1176600D02*
X1085000Y1177250D01*
X1086250Y1153750D02*
X1086350Y1153850D01*
X978000Y1164500D02*
Y1176250D01*
X994000Y1171000D02*
Y1176250D01*
X1070150Y1153850D02*
X1070250Y1153750D01*
X1191000Y1193750D02*
Y1210170D01*
X1180700Y1220470D02*
X1191000Y1210170D01*
X1054100Y1220470D02*
X1079570Y1195000D01*
X1026520Y1220470D02*
X1028700D01*
X1002000Y1195950D02*
X1026520Y1220470D01*
X1002000Y1193750D02*
Y1195950D01*
X994000Y1193750D02*
Y1201801D01*
X1002169Y1209970D01*
Y1219339D01*
X1003300Y1220470D01*
X986000Y1193750D02*
Y1202401D01*
X978431Y1209970D02*
X986000Y1202401D01*
X978431Y1209970D02*
Y1219939D01*
X977900Y1220470D02*
X978431Y1219939D01*
X978000Y1193750D02*
Y1195950D01*
X953480Y1220470D02*
X978000Y1195950D01*
X952500Y1220470D02*
X953480D01*
X894000Y1193750D02*
Y1202601D01*
X901369Y1209970D01*
Y1220139D01*
X901700Y1220470D01*
X886000Y1193750D02*
Y1210770D01*
X876300Y1220470D02*
X886000Y1210770D01*
X926520Y1220470D02*
X927100D01*
X902000Y1195950D02*
X926520Y1220470D01*
X902000Y1193750D02*
Y1195950D01*
X1065329Y1152828D02*
X1066250Y1153750D01*
X905172Y1152828D02*
X1065329D01*
X902000Y1156000D02*
X905172Y1152828D01*
X902000Y1156000D02*
Y1176250D01*
X497000Y1092000D02*
X502000Y1087000D01*
X497000Y1092000D02*
Y1176250D01*
X489000Y1088500D02*
X495000Y1082500D01*
X489000Y1088500D02*
Y1176250D01*
X481000Y1084000D02*
X487000Y1078000D01*
X481000Y1084000D02*
Y1176250D01*
X473000Y1080000D02*
Y1176250D01*
X1070150Y1084750D02*
X1070250Y1084850D01*
X1022000Y1087000D02*
X1026500Y1082500D01*
X1019000D02*
X1023167Y1078333D01*
X495000Y1082500D02*
X1019000D01*
X1015333Y1078000D02*
X1019167Y1074167D01*
X487000Y1078000D02*
X1015333D01*
X502000Y1087000D02*
X1022000D01*
X1048000D02*
X1050150Y1084850D01*
X1029300Y1087000D02*
X1048000D01*
X1025000Y1091300D02*
X1029300Y1087000D01*
X882950Y1139300D02*
X1059800D01*
X878000Y1144250D02*
X882950Y1139300D01*
X878000Y1144250D02*
Y1176250D01*
X900000Y1147300D02*
X1059800D01*
X894000Y1153300D02*
X900000Y1147300D01*
X894000Y1153300D02*
Y1176250D01*
X890000Y1143300D02*
X1059800D01*
X886000Y1147300D02*
X890000Y1143300D01*
X886000Y1147300D02*
Y1176250D01*
X597000Y1108800D02*
X602500Y1103300D01*
X597000Y1108800D02*
Y1176250D01*
X592414Y1099300D02*
X602500D01*
X589000Y1102714D02*
X592414Y1099300D01*
X589000Y1102714D02*
Y1176250D01*
X605000Y1095300D02*
X1028700Y1095300D01*
X605000D02*
X605000Y1095300D01*
X585000Y1095300D02*
X605000D01*
X581000Y1099300D02*
X585000Y1095300D01*
X581000Y1099300D02*
Y1176250D01*
X580914Y1091300D02*
X1025000D01*
X573000Y1099214D02*
X580914Y1091300D01*
X573000Y1099214D02*
Y1176250D01*
X1050150Y1084850D02*
X1066250D01*
X602500Y1103300D02*
X1036700Y1103300D01*
X602500Y1099300D02*
X1032700Y1099300D01*
X1036700Y1103300D02*
X1040700Y1099300D01*
X1059800D01*
X1028700Y1095300D02*
X1032700Y1091300D01*
X1059800D01*
X1032700Y1099300D02*
X1036700Y1095300D01*
X1059800D01*
X1047700Y1107300D02*
X1059800D01*
X1043700Y1111300D02*
X1047700Y1107300D01*
X689000Y1111300D02*
X1043700D01*
X700700Y1119300D02*
X1059800D01*
X697000Y1123000D02*
X700700Y1119300D01*
X697000Y1123000D02*
Y1176250D01*
X695000Y1115300D02*
X1059800D01*
X689000Y1121300D02*
X695000Y1115300D01*
X689000Y1121300D02*
Y1176250D01*
X681000Y1119300D02*
X689000Y1111300D01*
X681000Y1119300D02*
Y1176250D01*
X673000Y1115300D02*
X681000Y1107300D01*
X673000Y1115300D02*
Y1176250D01*
X681000Y1107300D02*
X1040000D01*
X1044000Y1103300D01*
X1059800D01*
X804700Y1135300D02*
X1059800D01*
X801000Y1139000D02*
X804700Y1135300D01*
X801000Y1139000D02*
Y1177500D01*
X800000Y1131300D02*
X1059800D01*
X793000Y1138300D02*
X800000Y1131300D01*
X793000Y1138300D02*
Y1177500D01*
Y1127300D02*
X1059800D01*
X785000Y1135300D02*
X793000Y1127300D01*
X785000Y1135300D02*
Y1177500D01*
X789700Y1123300D02*
X1059800D01*
X777000Y1136000D02*
X789700Y1123300D01*
X777000Y1136000D02*
Y1177500D01*
D16*
X1097900Y1116800D02*
X1113900Y1100800D01*
X1097900Y1116800D02*
X1105900Y1124800D01*
X1089900Y1108800D02*
X1097900Y1116800D01*
D19*
X1137500Y1075750D02*
D03*
Y1061750D02*
D03*
X1155250Y1076000D02*
D03*
Y1062000D02*
D03*
D20*
X1082000Y1028000D02*
D03*
X1068000D02*
D03*
X1082000Y1045000D02*
D03*
X1068000D02*
D03*
X1495250Y1067500D02*
D03*
X1509250D02*
D03*
X1509250Y1052000D02*
D03*
X1495250D02*
D03*
X851250Y994000D02*
D03*
X837250D02*
D03*
X851250Y974500D02*
D03*
X837250D02*
D03*
X851250Y955750D02*
D03*
X837250D02*
D03*
X851250Y937500D02*
D03*
X837250D02*
D03*
D22*
X598800Y900000D02*
D03*
X573400D02*
D03*
X548000D02*
D03*
X624200D02*
D03*
X649600D02*
D03*
X451400Y902000D02*
D03*
X426000D02*
D03*
X400600D02*
D03*
D68*
X326500Y1215220D02*
D03*
X1526500D02*
D03*
Y915220D02*
D03*
X326500D02*
D03*
D70*
X1154875Y1075875D02*
X1155000Y1075750D01*
X908000Y1048000D02*
X958000Y998000D01*
X797000Y1048000D02*
X908000D01*
X1178600Y1029900D02*
X1204900D01*
X1205000Y1030000D01*
X1332000Y1057000D02*
X1377000D01*
X1329000Y1054000D02*
X1332000Y1057000D01*
X1249000Y1054000D02*
X1262000D01*
X1226000Y1077000D02*
X1249000Y1054000D01*
X1226000Y1077000D02*
Y1111499D01*
X1243250Y1044000D02*
X1259000D01*
X1216000Y1071250D02*
X1243250Y1044000D01*
X1216000Y1071250D02*
Y1111499D01*
X1194750Y1076000D02*
X1236000Y1034750D01*
X1155250Y1076000D02*
X1194750D01*
X1369111Y1049500D02*
X1378611Y1040000D01*
X1339000Y1049500D02*
X1369111D01*
X1137625Y1075875D02*
X1154875D01*
X1137500Y1075750D02*
X1137625Y1075875D01*
X1492000Y985625D02*
X1492125Y985750D01*
X1505500D01*
D71*
X1474000Y1140864D02*
X1482076Y1132788D01*
X1474000Y1140864D02*
Y1146000D01*
X1482088Y1139300D02*
X1510020D01*
X1481000Y1140388D02*
X1482088Y1139300D01*
Y1132800D02*
X1510020D01*
D73*
X1482552Y1152024D02*
X1488951Y1145625D01*
X1467976Y1148495D02*
Y1170979D01*
X1467997Y1171000D01*
X1471505Y1152024D02*
X1482552D01*
X1488951Y1145625D02*
X1512250D01*
X1467976Y1148495D02*
X1471505Y1152024D01*
X1467976Y1143505D02*
Y1148495D01*
X1467997Y1171000D02*
Y1207998D01*
Y1124997D02*
Y1142997D01*
X1466000Y1123000D02*
X1467997Y1124997D01*
D74*
X1128700Y1111300D02*
X1128725Y1111275D01*
D76*
X1542520Y1161100D02*
D03*
X1542620Y1104500D02*
D03*
D77*
X1079650D02*
D03*
X1089650D02*
D03*
X1099650D02*
D03*
X1109650D02*
D03*
Y1114500D02*
D03*
X1099650D02*
D03*
X1089650D02*
D03*
X1079650D02*
D03*
Y1124500D02*
D03*
X1089650D02*
D03*
X1099650D02*
D03*
X1109650D02*
D03*
Y1134500D02*
D03*
X1099650D02*
D03*
X1089650D02*
D03*
X1079650D02*
D03*
D78*
X1409300Y1220470D02*
D03*
X1383900D02*
D03*
X1358500D02*
D03*
X1333100D02*
D03*
X1307700D02*
D03*
X1282300D02*
D03*
X1256900D02*
D03*
X1231500D02*
D03*
X1206100D02*
D03*
X1180700D02*
D03*
X1155300D02*
D03*
X1129900D02*
D03*
X1104500D02*
D03*
X1104400Y910220D02*
D03*
X1282200D02*
D03*
X1256800D02*
D03*
X1231400D02*
D03*
X1206000D02*
D03*
X1180600D02*
D03*
X1155200D02*
D03*
X1129800D02*
D03*
X322000Y1013400D02*
D03*
Y988000D02*
D03*
Y962600D02*
D03*
X876300Y1220470D02*
D03*
X850900D02*
D03*
X825500D02*
D03*
X723900D02*
D03*
X749300D02*
D03*
X774700D02*
D03*
X800100D02*
D03*
X901700D02*
D03*
X469900D02*
D03*
X495300D02*
D03*
X520700D02*
D03*
X546100D02*
D03*
X571500D02*
D03*
X596900D02*
D03*
X622300D02*
D03*
X647700D02*
D03*
X673100D02*
D03*
X698500D02*
D03*
X927100D02*
D03*
X952500D02*
D03*
X977900D02*
D03*
X1003300D02*
D03*
X1028700D02*
D03*
X1054100D02*
D03*
D79*
X1079100Y1220470D02*
D03*
X1079000Y910220D02*
D03*
X444500Y1220470D02*
D03*
D80*
X322000Y1038800D02*
D03*
D81*
X311500Y1124499D02*
D03*
Y1154501D02*
D03*
D82*
X670622Y1029430D02*
D03*
X670399Y1041280D02*
D03*
X693000D02*
D03*
Y1029430D02*
D03*
X713000D02*
D03*
X713099Y1042000D02*
D03*
X732119Y1030000D02*
D03*
Y1042000D02*
D03*
X775000Y1026897D02*
D03*
X774630Y1042000D02*
D03*
X784570Y1047800D02*
D03*
Y1035000D02*
D03*
X867000Y966000D02*
D03*
X867430Y985625D02*
D03*
X878120Y975000D02*
D03*
X879000Y953000D02*
D03*
X1410000Y1181694D02*
D03*
X783000Y940000D02*
D03*
X1339000Y1067000D02*
D03*
X1341000Y1100800D02*
D03*
X1379000Y1103000D02*
D03*
X1397499Y1086000D02*
D03*
X1415000Y1103000D02*
D03*
X1383900Y1015000D02*
D03*
X1361000D02*
D03*
X1343000Y1201000D02*
D03*
X1364000D02*
D03*
X1409300Y1167000D02*
D03*
X1460250Y990000D02*
D03*
X1469000Y998375D02*
D03*
X1453127D02*
D03*
X1362000Y1117000D02*
D03*
X618000Y916000D02*
D03*
X667000D02*
D03*
X705000Y918250D02*
D03*
X716000Y928250D02*
D03*
X670000Y935000D02*
D03*
X564000Y922000D02*
D03*
X606000Y921000D02*
D03*
X795300Y918250D02*
D03*
X948000Y926000D02*
D03*
X938000Y911000D02*
D03*
X892000Y901000D02*
D03*
X869000D02*
D03*
X907000Y1031000D02*
D03*
X905172Y1040000D02*
D03*
X728998Y976998D02*
D03*
X462000Y922000D02*
D03*
X727000Y984000D02*
D03*
X426000Y923000D02*
D03*
X1056000Y1023000D02*
D03*
X1049000Y1037000D02*
D03*
X1046000Y1054000D02*
D03*
X1080000Y1030000D02*
D03*
X1474000Y1146000D02*
D03*
X1450000Y1148000D02*
D03*
X1408000Y1156000D02*
D03*
X1407000Y1143000D02*
D03*
X1467997Y1171000D02*
D03*
X1481000Y1142000D02*
D03*
X1482076Y1132788D02*
D03*
X1467997Y1207998D02*
D03*
X1157250Y1107000D02*
D03*
X1149000Y1089000D02*
D03*
X1138000Y1088000D02*
D03*
X1122250Y1058000D02*
D03*
X1135000Y1037750D02*
D03*
X1205000Y1030000D02*
D03*
X1178600Y1029900D02*
D03*
X1350000Y1065000D02*
D03*
Y1110000D02*
D03*
X1377000Y1057000D02*
D03*
X1329000Y1054000D02*
D03*
X1262000D02*
D03*
X1259000Y1044000D02*
D03*
X1236000Y1034750D02*
D03*
X1226000Y1111499D02*
D03*
X1378611Y1040000D02*
D03*
X1339000Y1049500D02*
D03*
X1216000Y1111499D02*
D03*
X769000Y1069000D02*
D03*
X816998Y1068998D02*
D03*
Y1054998D02*
D03*
X817000Y1062000D02*
D03*
X797000Y1048000D02*
D03*
X958000Y998000D02*
D03*
X1325000Y1089750D02*
D03*
X1172998Y1042998D02*
D03*
X1317000Y1090000D02*
D03*
X1174000Y1050250D02*
D03*
X1403000Y1129000D02*
D03*
X1419000Y1208000D02*
D03*
X1442500Y1163000D02*
D03*
X1538000Y1052000D02*
D03*
X1475000Y1036000D02*
D03*
X1492000Y985625D02*
D03*
X1466000Y1123000D02*
D03*
X948000Y978000D02*
D03*
X907400D02*
D03*
X420000Y1007000D02*
D03*
X566000D02*
D03*
X708000Y993000D02*
D03*
X777750Y981000D02*
D03*
X779000Y967000D02*
D03*
X774700Y954000D02*
D03*
X1243000Y1083000D02*
D03*
X1274000Y1084000D02*
D03*
X1160000Y1119000D02*
D03*
X1146998Y1115998D02*
D03*
X1154000Y1099000D02*
D03*
X1143000Y1099000D02*
D03*
D83*
X1094250Y1119300D02*
D03*
D84*
X1058500Y1147300D02*
D03*
Y1143300D02*
D03*
Y1139300D02*
D03*
Y1135300D02*
D03*
Y1131300D02*
D03*
Y1127300D02*
D03*
Y1123300D02*
D03*
Y1119300D02*
D03*
Y1115300D02*
D03*
Y1111300D02*
D03*
Y1107300D02*
D03*
Y1103300D02*
D03*
Y1099300D02*
D03*
Y1095300D02*
D03*
Y1091300D02*
D03*
X1130000D02*
D03*
Y1095300D02*
D03*
Y1099300D02*
D03*
Y1103300D02*
D03*
Y1107300D02*
D03*
Y1111300D02*
D03*
Y1115300D02*
D03*
Y1119300D02*
D03*
Y1123300D02*
D03*
Y1127300D02*
D03*
Y1131300D02*
D03*
Y1135300D02*
D03*
Y1139300D02*
D03*
Y1143300D02*
D03*
Y1147300D02*
D03*
D85*
X1122250Y1155050D02*
D03*
X1118250D02*
D03*
X1114250D02*
D03*
X1110250D02*
D03*
X1106250D02*
D03*
X1102250D02*
D03*
X1098250D02*
D03*
X1094250D02*
D03*
X1090250D02*
D03*
X1086250D02*
D03*
X1082250D02*
D03*
X1078250D02*
D03*
X1074250D02*
D03*
X1070250D02*
D03*
X1066250D02*
D03*
Y1083550D02*
D03*
X1070250D02*
D03*
X1074250D02*
D03*
X1078250D02*
D03*
X1082250D02*
D03*
X1086250D02*
D03*
X1090250D02*
D03*
X1094250D02*
D03*
X1098250D02*
D03*
X1102250D02*
D03*
X1106250D02*
D03*
X1110250D02*
D03*
X1114250D02*
D03*
X1118250D02*
D03*
X1122250D02*
D03*
D86*
X1510020Y1126300D02*
D03*
Y1119800D02*
D03*
Y1132800D02*
D03*
Y1139300D02*
D03*
Y1145800D02*
D03*
D87*
X1517020Y1164700D02*
D03*
Y1100900D02*
D03*
D88*
X697000Y1193750D02*
D03*
X689000D02*
D03*
X681000D02*
D03*
X673000D02*
D03*
X697000Y1176250D02*
D03*
X689000D02*
D03*
X681000D02*
D03*
X673000D02*
D03*
X801000Y1195000D02*
D03*
X793000D02*
D03*
X785000D02*
D03*
X777000D02*
D03*
X801000Y1177500D02*
D03*
X793000D02*
D03*
X785000D02*
D03*
X777000D02*
D03*
X1109000Y1194750D02*
D03*
X1101000D02*
D03*
X1093000D02*
D03*
X1085000D02*
D03*
X1109000Y1177250D02*
D03*
X1101000D02*
D03*
X1093000D02*
D03*
X1085000D02*
D03*
X1207000Y1193750D02*
D03*
X1199000D02*
D03*
X1191000D02*
D03*
X1183000D02*
D03*
X1207000Y1176250D02*
D03*
X1199000D02*
D03*
X1191000D02*
D03*
X1183000D02*
D03*
X497000Y1193750D02*
D03*
X489000D02*
D03*
X481000D02*
D03*
X473000D02*
D03*
X497000Y1176250D02*
D03*
X489000D02*
D03*
X481000D02*
D03*
X473000D02*
D03*
X597000Y1193750D02*
D03*
X589000D02*
D03*
X581000D02*
D03*
X573000D02*
D03*
X597000Y1176250D02*
D03*
X589000D02*
D03*
X581000D02*
D03*
X573000D02*
D03*
X902000Y1193750D02*
D03*
X894000D02*
D03*
X886000D02*
D03*
X878000D02*
D03*
X902000Y1176250D02*
D03*
X894000D02*
D03*
X886000D02*
D03*
X878000D02*
D03*
X1002000Y1193750D02*
D03*
X994000D02*
D03*
X986000D02*
D03*
X978000D02*
D03*
X1002000Y1176250D02*
D03*
X994000D02*
D03*
X986000D02*
D03*
X978000D02*
D03*
X1309000Y1193750D02*
D03*
X1301000D02*
D03*
X1293000D02*
D03*
X1285000D02*
D03*
X1309000Y1176250D02*
D03*
X1301000D02*
D03*
X1293000D02*
D03*
X1285000D02*
D03*
X1402000Y1193750D02*
D03*
X1394000D02*
D03*
X1386000D02*
D03*
X1378000D02*
D03*
X1402000Y1176250D02*
D03*
X1394000D02*
D03*
X1386000D02*
D03*
X1378000D02*
D03*
D89*
X1456250Y1210500D02*
D03*
Y1163500D02*
D03*
D90*
X1505500Y998250D02*
D03*
Y985750D02*
D03*
D91*
X1534500Y1023750D02*
D03*
Y960250D02*
D03*
D92*
X1542620Y1068000D02*
D03*
X1526620D02*
D03*
X1542620Y1052000D02*
D03*
X1526620D02*
D03*
X795230Y955500D02*
D03*
X811230D02*
D03*
X795230Y974500D02*
D03*
X811230D02*
D03*
X795230Y937250D02*
D03*
X811230D02*
D03*
X795130Y994000D02*
D03*
X811130D02*
D03*
D93*
X442499Y927799D02*
D03*
Y1007301D02*
D03*
X397501Y927799D02*
D03*
Y1007301D02*
D03*
X737499Y927799D02*
D03*
Y1007301D02*
D03*
X692501Y927799D02*
D03*
Y1007301D02*
D03*
X589999Y927799D02*
D03*
Y1007301D02*
D03*
X545001Y927799D02*
D03*
Y1007301D02*
D03*
D94*
X1082000Y1028000D02*
Y1045000D01*
D95*
X1482076Y1132788D02*
X1482088Y1132800D01*
D96*
X1426153Y912718D02*
X1431237D01*
X1388023D02*
X1393107D01*
X1306680D02*
X1309221D01*
X1490549Y907634D02*
X1493939D01*
X1490549Y906786D02*
X1493091D01*
X1490549Y905939D02*
X1493091D01*
X1489702Y905092D02*
X1493091D01*
X1489702Y904244D02*
X1492244D01*
X1427000Y916107D02*
X1431237D01*
X1427000Y915260D02*
X1431237D01*
X1427000Y914412D02*
X1431237D01*
X1427000Y913565D02*
X1431237D01*
X1428695Y911870D02*
X1431237D01*
X1429542Y911023D02*
X1431237D01*
X1429542Y910176D02*
X1431237D01*
X1429542Y909328D02*
X1431237D01*
X1429542Y908481D02*
X1431237D01*
X1429542Y907634D02*
X1431237D01*
X1429542Y906786D02*
X1431237D01*
X1429542Y905939D02*
X1431237D01*
X1429542Y905092D02*
X1432084D01*
X1404969D02*
X1414290D01*
X1429542Y904244D02*
X1432084D01*
X1407511D02*
X1413443D01*
X1343115Y916107D02*
X1348199D01*
X1341420Y915260D02*
X1349046D01*
X1348199Y914412D02*
X1349893D01*
X1386328Y911870D02*
X1393954D01*
X1368534D02*
X1375313D01*
X1386328Y911023D02*
X1388870D01*
X1368534D02*
X1371924D01*
X1386328Y910176D02*
X1388870D01*
X1368534D02*
X1371076D01*
X1386328Y909328D02*
X1389718D01*
X1368534D02*
X1370229D01*
X1386328Y908481D02*
X1393107D01*
X1368534D02*
X1370229D01*
X1368534Y907634D02*
X1371076D01*
X1368534Y906786D02*
X1371076D01*
X1387176Y905939D02*
X1388870D01*
X1368534D02*
X1371076D01*
X1387176Y905092D02*
X1388870D01*
X1387176Y904244D02*
X1388870D01*
X1344809Y907634D02*
X1348199D01*
X1345657Y906786D02*
X1349046D01*
X1346504Y905939D02*
X1349893D01*
X1341420Y905092D02*
X1350741D01*
X1341420Y904244D02*
X1350741D01*
X1307527Y915260D02*
X1315153D01*
X1306680Y914412D02*
X1310069D01*
X1306680Y913565D02*
X1309221D01*
X1306680Y911870D02*
X1309221D01*
X1306680Y911023D02*
X1309221D01*
X1306680Y910176D02*
X1309221D01*
X1306680Y909328D02*
X1310069D01*
X1307527Y908481D02*
X1310069D01*
X1307527Y907634D02*
X1310916D01*
X1496481Y912718D02*
X1499023D01*
X1493091D02*
X1494786D01*
X1482923D02*
X1488855D01*
X1474450D02*
X1478687D01*
X1466824D02*
X1468519D01*
X1460893D02*
X1464282D01*
X1451573D02*
X1455809D01*
X1441405D02*
X1445641D01*
X1419374D02*
X1421916D01*
X1416832D02*
X1418527D01*
X1410901D02*
X1413443D01*
X1404122D02*
X1405817D01*
X1399038D02*
X1401580D01*
X1395649D02*
X1398191D01*
X1381244D02*
X1382939D01*
X1376160D02*
X1377855D01*
X1370229D02*
X1374466D01*
X1359214D02*
X1364298D01*
X1341420D02*
X1343962D01*
X1336336D02*
X1338031D01*
X1329557D02*
X1332947D01*
X1321084D02*
X1323626D01*
X1313458D02*
X1316000D01*
X1493939Y916107D02*
X1497328D01*
X1493939Y915260D02*
X1498175D01*
X1493091Y914412D02*
X1498175D01*
X1496481Y913565D02*
X1499023D01*
X1493091D02*
X1495634D01*
X1491397Y908481D02*
X1501565D01*
X1499023Y907634D02*
X1501565D01*
X1499023Y906786D02*
X1502412D01*
X1499870Y905939D02*
X1502412D01*
X1499870Y905092D02*
X1503259D01*
X1500717Y904244D02*
X1503259D01*
X1497328Y911870D02*
X1499870D01*
X1492244D02*
X1494786D01*
X1497328Y911023D02*
X1499870D01*
X1492244D02*
X1494786D01*
X1497328Y910176D02*
X1500717D01*
X1492244D02*
X1494786D01*
X1491397Y909328D02*
X1500717D01*
X1482076Y916107D02*
X1486313D01*
X1483771Y915260D02*
X1487160D01*
X1482076D02*
X1482923D01*
X1484618Y914412D02*
X1487160D01*
X1484618Y913565D02*
X1487160D01*
X1482923Y911870D02*
X1488855D01*
X1472756D02*
X1480382D01*
X1484618Y911023D02*
X1487160D01*
X1476992D02*
X1480382D01*
X1471908D02*
X1475298D01*
X1484618Y910176D02*
X1487160D01*
X1478687D02*
X1481229D01*
X1471908D02*
X1474450D01*
X1484618Y909328D02*
X1487160D01*
X1478687D02*
X1481229D01*
X1471908D02*
X1473603D01*
X1484618Y908481D02*
X1487160D01*
X1479534D02*
X1481229D01*
X1471908D02*
X1473603D01*
X1485466Y907634D02*
X1487160D01*
X1479534D02*
X1481229D01*
X1471908D02*
X1473603D01*
X1485466Y906786D02*
X1487160D01*
X1478687D02*
X1481229D01*
X1471908D02*
X1474450D01*
X1485466Y905939D02*
X1487160D01*
X1477840D02*
X1481229D01*
X1471908D02*
X1475298D01*
X1485466Y905092D02*
X1488008D01*
X1472756D02*
X1480382D01*
X1485466Y904244D02*
X1488008D01*
X1473603D02*
X1479534D01*
X1459198Y911870D02*
X1468519D01*
X1450725D02*
X1456656D01*
X1465130Y911023D02*
X1468519D01*
X1459198D02*
X1462588D01*
X1454114D02*
X1456656D01*
X1450725D02*
X1451573D01*
X1465977Y910176D02*
X1468519D01*
X1459198D02*
X1461740D01*
X1454962D02*
X1456656D01*
X1466824Y909328D02*
X1468519D01*
X1459198D02*
X1460893D01*
X1454114D02*
X1456656D01*
X1466824Y908481D02*
X1469366D01*
X1459198D02*
X1460893D01*
X1452420D02*
X1455809D01*
X1466824Y907634D02*
X1469366D01*
X1459198D02*
X1460893D01*
X1451573D02*
X1454114D01*
X1466824Y906786D02*
X1469366D01*
X1459198D02*
X1461740D01*
X1450725D02*
X1453267D01*
X1467672Y905939D02*
X1469366D01*
X1459198D02*
X1461740D01*
X1450725D02*
X1453267D01*
X1467672Y905092D02*
X1469366D01*
X1460046D02*
X1461740D01*
X1450725D02*
X1457504D01*
X1467672Y904244D02*
X1469366D01*
X1460046D02*
X1461740D01*
X1451573D02*
X1457504D01*
X1439710Y911870D02*
X1447336D01*
X1443947Y911023D02*
X1447336D01*
X1438862D02*
X1442252D01*
X1445641Y910176D02*
X1448183D01*
X1438862D02*
X1441405D01*
X1445641Y909328D02*
X1448183D01*
X1438862D02*
X1440557D01*
X1446488Y908481D02*
X1448183D01*
X1438862D02*
X1440557D01*
X1446488Y907634D02*
X1448183D01*
X1438862D02*
X1440557D01*
X1445641Y906786D02*
X1448183D01*
X1438862D02*
X1441405D01*
X1444794Y905939D02*
X1448183D01*
X1438862D02*
X1442252D01*
X1439710Y905092D02*
X1447336D01*
X1440557Y904244D02*
X1446488D01*
X1416832Y916107D02*
X1420221D01*
X1416832Y915260D02*
X1421069D01*
X1416832Y914412D02*
X1421069D01*
X1419374Y913565D02*
X1421916D01*
X1416832D02*
X1418527D01*
X1426153Y911870D02*
X1427847D01*
X1420221D02*
X1421916D01*
X1416832D02*
X1418527D01*
X1410901D02*
X1413443D01*
X1426153Y911023D02*
X1427847D01*
X1420221D02*
X1422763D01*
X1416832D02*
X1419374D01*
X1411748D02*
X1413443D01*
X1425305Y910176D02*
X1427847D01*
X1421069D02*
X1422763D01*
X1416832D02*
X1419374D01*
X1411748D02*
X1413443D01*
X1425305Y909328D02*
X1427000D01*
X1421069D02*
X1423611D01*
X1416832D02*
X1419374D01*
X1411748D02*
X1413443D01*
X1425305Y908481D02*
X1427000D01*
X1421916D02*
X1423611D01*
X1417679D02*
X1419374D01*
X1411748D02*
X1413443D01*
X1425305Y907634D02*
X1427000D01*
X1421916D02*
X1424458D01*
X1417679D02*
X1419374D01*
X1411748D02*
X1414290D01*
X1422763Y906786D02*
X1427000D01*
X1417679D02*
X1419374D01*
X1411748D02*
X1414290D01*
X1422763Y905939D02*
X1426153D01*
X1417679D02*
X1419374D01*
X1410901D02*
X1414290D01*
X1422763Y905092D02*
X1426153D01*
X1417679D02*
X1419374D01*
X1423611Y904244D02*
X1426153D01*
X1417679D02*
X1419374D01*
X1404122Y911870D02*
X1405817D01*
X1395649D02*
X1401580D01*
X1404122Y911023D02*
X1405817D01*
X1397343D02*
X1401580D01*
X1404122Y910176D02*
X1406664D01*
X1398191D02*
X1401580D01*
X1404122Y909328D02*
X1406664D01*
X1399038D02*
X1401580D01*
X1404122Y908481D02*
X1406664D01*
X1399038D02*
X1401580D01*
X1404122Y907634D02*
X1406664D01*
X1399886D02*
X1401580D01*
X1391412D02*
X1394801D01*
X1404969Y906786D02*
X1406664D01*
X1399886D02*
X1401580D01*
X1393107D02*
X1395649D01*
X1404969Y905939D02*
X1407511D01*
X1399886D02*
X1401580D01*
X1393107D02*
X1395649D01*
X1399886Y905092D02*
X1401580D01*
X1392260D02*
X1395649D01*
X1389718D02*
X1390565D01*
X1404969Y904244D02*
X1406664D01*
X1399886D02*
X1402427D01*
X1390565D02*
X1394801D01*
X1381244Y916107D02*
X1382939D01*
X1376160D02*
X1377855D01*
X1381244Y915260D02*
X1382939D01*
X1376160D02*
X1377855D01*
X1381244Y914412D02*
X1382939D01*
X1376160D02*
X1377855D01*
X1381244Y913565D02*
X1382939D01*
X1376160D02*
X1377855D01*
X1381244Y911870D02*
X1382939D01*
X1376160D02*
X1377855D01*
X1381244Y911023D02*
X1383786D01*
X1374466D02*
X1378702D01*
X1381244Y910176D02*
X1383786D01*
X1375313D02*
X1378702D01*
X1381244Y909328D02*
X1383786D01*
X1376160D02*
X1378702D01*
X1381244Y908481D02*
X1383786D01*
X1376160D02*
X1378702D01*
X1386328Y907634D02*
X1388023D01*
X1381244D02*
X1383786D01*
X1376160D02*
X1378702D01*
X1386328Y906786D02*
X1388023D01*
X1382092D02*
X1383786D01*
X1377008D02*
X1378702D01*
X1382092Y905939D02*
X1383786D01*
X1377008D02*
X1378702D01*
X1382092Y905092D02*
X1383786D01*
X1377008D02*
X1378702D01*
X1369382D02*
X1371076D01*
X1382092Y904244D02*
X1383786D01*
X1377008D02*
X1378702D01*
X1369382D02*
X1371076D01*
X1357519Y911870D02*
X1365145D01*
X1357519Y911023D02*
X1360061D01*
X1357519Y910176D02*
X1360061D01*
X1357519Y909328D02*
X1360909D01*
X1357519Y908481D02*
X1364298D01*
X1362603Y907634D02*
X1365992D01*
X1357519D02*
X1359214D01*
X1364298Y906786D02*
X1366840D01*
X1357519D02*
X1359214D01*
X1364298Y905939D02*
X1366840D01*
X1358366D02*
X1360061D01*
X1363450Y905092D02*
X1366840D01*
X1360909D02*
X1361756D01*
X1358366D02*
X1360061D01*
X1361756Y904244D02*
X1365992D01*
X1358366D02*
X1360061D01*
X1335489Y916107D02*
X1338031D01*
X1335489Y915260D02*
X1338031D01*
X1341420Y914412D02*
X1345657D01*
X1335489D02*
X1338031D01*
X1341420Y913565D02*
X1343962D01*
X1336336D02*
X1338031D01*
X1341420Y911870D02*
X1343962D01*
X1336336D02*
X1338031D01*
X1330405D02*
X1333794D01*
X1342267Y911023D02*
X1344809D01*
X1336336D02*
X1338031D01*
X1331252D02*
X1333794D01*
X1342267Y910176D02*
X1345657D01*
X1336336D02*
X1338031D01*
X1332099D02*
X1334641D01*
X1343115Y909328D02*
X1346504D01*
X1336336D02*
X1338031D01*
X1332947D02*
X1335489D01*
X1343962Y908481D02*
X1347351D01*
X1336336D02*
X1338031D01*
X1332947D02*
X1335489D01*
X1336336Y907634D02*
X1338031D01*
X1332947D02*
X1335489D01*
X1336336Y906786D02*
X1338031D01*
X1332099D02*
X1334641D01*
X1336336Y905939D02*
X1338031D01*
X1331252D02*
X1333794D01*
X1336336Y905092D02*
X1338878D01*
X1330405D02*
X1332947D01*
X1336336Y904244D02*
X1338878D01*
X1329557D02*
X1332947D01*
X1321084Y916107D02*
X1323626D01*
X1309221D02*
X1313458D01*
X1321084Y915260D02*
X1325321D01*
X1321084Y914412D02*
X1325321D01*
X1311763D02*
X1316000D01*
X1324473Y913565D02*
X1325321D01*
X1321084D02*
X1323626D01*
X1313458D02*
X1316000D01*
X1321084Y911870D02*
X1323626D01*
X1313458D02*
X1316000D01*
X1321084Y911023D02*
X1323626D01*
X1312611D02*
X1316000D01*
X1321084Y910176D02*
X1323626D01*
X1310069D02*
X1316000D01*
X1321084Y909328D02*
X1323626D01*
X1310916D02*
X1315153D01*
X1321084Y908481D02*
X1323626D01*
X1321084Y907634D02*
X1323626D01*
X1321084Y906786D02*
X1323626D01*
X1308374D02*
X1311763D01*
X1321084Y905939D02*
X1323626D01*
X1309221D02*
X1311763D01*
X1321084Y905092D02*
X1323626D01*
X1309221D02*
X1312611D01*
X1321084Y904244D02*
X1323626D01*
X1310069D02*
X1313458D01*
M02*
