G04*
G04 #@! TF.GenerationSoftware,Altium Limited,Altium Designer,19.0.14 (431)*
G04*
G04 Layer_Physical_Order=1*
G04 Layer_Color=255*
%FSLAX44Y44*%
%MOMM*%
G71*
G01*
G75*
%ADD10C,0.2500*%
%ADD12C,0.3000*%
%ADD13C,0.1520*%
%ADD14C,0.2000*%
%ADD16C,0.1270*%
%ADD19R,0.9000X0.8000*%
%ADD20R,0.8000X0.9000*%
%ADD21R,0.9140X1.2190*%
%ADD22R,2.0000X2.0000*%
%ADD23R,0.9000X1.3000*%
%ADD24R,1.1000X1.3000*%
%ADD25R,0.2032X1.2000*%
%ADD26R,1.2000X0.2032*%
%ADD27R,5.1000X5.1000*%
%ADD28R,1.0500X0.6000*%
%ADD29R,2.5000X1.5000*%
%ADD30R,3.2500X4.0000*%
%ADD31R,0.6000X1.6000*%
%ADD32R,1.2190X0.9140*%
%ADD33R,1.3000X0.7000*%
%ADD34R,2.0000X0.9000*%
%ADD35R,0.9000X2.0000*%
%ADD36R,5.0000X5.0000*%
%ADD37R,2.0000X0.8001*%
%ADD38R,0.8001X1.0000*%
%ADD39R,0.8001X0.8999*%
%ADD44R,3.0000X3.0000*%
%ADD68C,3.0000*%
G04:AMPARAMS|DCode=69|XSize=2mm|YSize=2mm|CornerRadius=1mm|HoleSize=0mm|Usage=FLASHONLY|Rotation=0.000|XOffset=0mm|YOffset=0mm|HoleType=Round|Shape=RoundedRectangle|*
%AMROUNDEDRECTD69*
21,1,2.0000,0.0000,0,0,0.0*
21,1,0.0000,2.0000,0,0,0.0*
1,1,2.0000,0.0000,0.0000*
1,1,2.0000,0.0000,0.0000*
1,1,2.0000,0.0000,0.0000*
1,1,2.0000,0.0000,0.0000*
%
%ADD69ROUNDEDRECTD69*%
%ADD70C,0.5000*%
%ADD71C,0.1250*%
%ADD72C,0.4500*%
%ADD73C,0.4000*%
%ADD74C,0.1000*%
%ADD75R,3.0000X4.0000*%
G04:AMPARAMS|DCode=76|XSize=2.15mm|YSize=1.05mm|CornerRadius=0.525mm|HoleSize=0mm|Usage=FLASHONLY|Rotation=180.000|XOffset=0mm|YOffset=0mm|HoleType=Round|Shape=RoundedRectangle|*
%AMROUNDEDRECTD76*
21,1,2.1500,0.0000,0,0,180.0*
21,1,1.1000,1.0500,0,0,180.0*
1,1,1.0500,-0.5500,0.0000*
1,1,1.0500,0.5500,0.0000*
1,1,1.0500,0.5500,0.0000*
1,1,1.0500,-0.5500,0.0000*
%
%ADD76ROUNDEDRECTD76*%
%ADD77C,1.0000*%
%ADD78C,1.5000*%
%ADD79R,1.5000X1.5000*%
%ADD80R,1.5000X1.5000*%
%ADD81C,0.8001*%
%ADD82C,0.5000*%
G36*
X327500Y1245220D02*
X327500Y1245220D01*
X1527500Y1245220D01*
X1529433Y1245171D01*
X1533255Y1244569D01*
X1536965Y1243473D01*
X1540500Y1241902D01*
X1543799Y1239884D01*
X1546808Y1237451D01*
X1549473Y1234648D01*
X1551749Y1231520D01*
X1553597Y1228121D01*
X1554986Y1224511D01*
X1555892Y1220750D01*
X1556299Y1216904D01*
X1556250Y1214970D01*
X1556250Y1214970D01*
X1556250Y1214970D01*
X1556500Y1196470D01*
Y1164302D01*
X1555230Y1164050D01*
X1554825Y1165029D01*
X1553576Y1166656D01*
X1551949Y1167905D01*
X1550054Y1168689D01*
X1548020Y1168957D01*
X1543790D01*
Y1161100D01*
Y1153243D01*
X1548020D01*
X1550054Y1153511D01*
X1551949Y1154296D01*
X1553576Y1155544D01*
X1554825Y1157171D01*
X1555230Y1158150D01*
X1556500Y1157898D01*
Y1114220D01*
X1556492Y1107963D01*
X1555222Y1107711D01*
X1554924Y1108429D01*
X1553676Y1110056D01*
X1552049Y1111305D01*
X1550154Y1112089D01*
X1548120Y1112357D01*
X1543890D01*
Y1104500D01*
Y1096643D01*
X1548120D01*
X1550154Y1096910D01*
X1552049Y1097695D01*
X1553676Y1098944D01*
X1554924Y1100571D01*
X1555214Y1101270D01*
X1556484Y1101016D01*
X1556250Y913208D01*
X1556159Y911283D01*
X1555476Y907491D01*
X1554304Y903821D01*
X1552663Y900334D01*
X1550581Y897092D01*
X1548093Y894150D01*
X1545243Y891557D01*
X1542079Y889359D01*
X1538655Y887592D01*
X1535029Y886287D01*
X1531264Y885467D01*
X1527425Y885145D01*
X1525500Y885237D01*
X1525500Y885237D01*
X1525500Y885237D01*
X327500D01*
X325570Y885140D01*
X321716Y885451D01*
X317937Y886263D01*
X314296Y887561D01*
X310855Y889323D01*
X307674Y891519D01*
X304807Y894112D01*
X302303Y897057D01*
X300204Y900303D01*
X298548Y903796D01*
X297361Y907475D01*
X296665Y911277D01*
X296567Y913208D01*
X296568Y913208D01*
X296527Y1094577D01*
X297425Y1095475D01*
X305775D01*
Y1108523D01*
X296524D01*
X296510Y1169578D01*
X297408Y1170477D01*
X305775D01*
Y1183525D01*
X296507D01*
X296500Y1216470D01*
X296574Y1218428D01*
X297231Y1222291D01*
X298387Y1226036D01*
X300022Y1229598D01*
X302108Y1232915D01*
X304609Y1235933D01*
X307482Y1238598D01*
X310679Y1240865D01*
X314144Y1242695D01*
X317819Y1244057D01*
X321640Y1244929D01*
X325542Y1245294D01*
X327500Y1245220D01*
D02*
G37*
%LPC*%
G36*
X453524Y1229494D02*
X435476D01*
Y1211446D01*
X453524D01*
Y1229494D01*
D02*
G37*
G36*
X1088124Y1229494D02*
X1070076D01*
Y1211446D01*
X1088124D01*
Y1229494D01*
D02*
G37*
G36*
X1054100Y1229572D02*
X1051744Y1229262D01*
X1049549Y1228352D01*
X1047664Y1226906D01*
X1046218Y1225021D01*
X1045308Y1222826D01*
X1044998Y1220470D01*
X1045308Y1218114D01*
X1046218Y1215919D01*
X1047664Y1214034D01*
X1049549Y1212588D01*
X1051744Y1211678D01*
X1054100Y1211368D01*
X1056456Y1211678D01*
X1058651Y1212588D01*
X1060536Y1214034D01*
X1061982Y1215919D01*
X1062892Y1218114D01*
X1063202Y1220470D01*
X1062892Y1222826D01*
X1061982Y1225021D01*
X1060536Y1226906D01*
X1058651Y1228352D01*
X1056456Y1229262D01*
X1054100Y1229572D01*
D02*
G37*
G36*
X1028700D02*
X1026344Y1229262D01*
X1024149Y1228352D01*
X1022264Y1226906D01*
X1020818Y1225021D01*
X1019908Y1222826D01*
X1019598Y1220470D01*
X1019908Y1218114D01*
X1020818Y1215919D01*
X1022264Y1214034D01*
X1024149Y1212588D01*
X1026344Y1211678D01*
X1028700Y1211368D01*
X1031056Y1211678D01*
X1033251Y1212588D01*
X1035136Y1214034D01*
X1036582Y1215919D01*
X1037492Y1218114D01*
X1037802Y1220470D01*
X1037492Y1222826D01*
X1036582Y1225021D01*
X1035136Y1226906D01*
X1033251Y1228352D01*
X1031056Y1229262D01*
X1028700Y1229572D01*
D02*
G37*
G36*
X1003300D02*
X1000944Y1229262D01*
X998749Y1228352D01*
X996864Y1226906D01*
X995418Y1225021D01*
X994508Y1222826D01*
X994198Y1220470D01*
X994508Y1218114D01*
X995418Y1215919D01*
X996864Y1214034D01*
X998749Y1212588D01*
X1000944Y1211678D01*
X1003300Y1211368D01*
X1005656Y1211678D01*
X1007851Y1212588D01*
X1009736Y1214034D01*
X1011182Y1215919D01*
X1012092Y1218114D01*
X1012402Y1220470D01*
X1012092Y1222826D01*
X1011182Y1225021D01*
X1009736Y1226906D01*
X1007851Y1228352D01*
X1005656Y1229262D01*
X1003300Y1229572D01*
D02*
G37*
G36*
X977900D02*
X975544Y1229262D01*
X973349Y1228352D01*
X971464Y1226906D01*
X970018Y1225021D01*
X969108Y1222826D01*
X968798Y1220470D01*
X969108Y1218114D01*
X970018Y1215919D01*
X971464Y1214034D01*
X973349Y1212588D01*
X975544Y1211678D01*
X977900Y1211368D01*
X980256Y1211678D01*
X982451Y1212588D01*
X984336Y1214034D01*
X985782Y1215919D01*
X986692Y1218114D01*
X987002Y1220470D01*
X986692Y1222826D01*
X985782Y1225021D01*
X984336Y1226906D01*
X982451Y1228352D01*
X980256Y1229262D01*
X977900Y1229572D01*
D02*
G37*
G36*
X952500D02*
X950144Y1229262D01*
X947949Y1228352D01*
X946064Y1226906D01*
X944618Y1225021D01*
X943708Y1222826D01*
X943398Y1220470D01*
X943708Y1218114D01*
X944618Y1215919D01*
X946064Y1214034D01*
X947949Y1212588D01*
X950144Y1211678D01*
X952500Y1211368D01*
X954856Y1211678D01*
X957051Y1212588D01*
X958936Y1214034D01*
X960382Y1215919D01*
X961292Y1218114D01*
X961602Y1220470D01*
X961292Y1222826D01*
X960382Y1225021D01*
X958936Y1226906D01*
X957051Y1228352D01*
X954856Y1229262D01*
X952500Y1229572D01*
D02*
G37*
G36*
X927100D02*
X924744Y1229262D01*
X922549Y1228352D01*
X920664Y1226906D01*
X919218Y1225021D01*
X918308Y1222826D01*
X917998Y1220470D01*
X918308Y1218114D01*
X919218Y1215919D01*
X920664Y1214034D01*
X922549Y1212588D01*
X924744Y1211678D01*
X927100Y1211368D01*
X929456Y1211678D01*
X931651Y1212588D01*
X933536Y1214034D01*
X934982Y1215919D01*
X935892Y1218114D01*
X936202Y1220470D01*
X935892Y1222826D01*
X934982Y1225021D01*
X933536Y1226906D01*
X931651Y1228352D01*
X929456Y1229262D01*
X927100Y1229572D01*
D02*
G37*
G36*
X901700D02*
X899344Y1229262D01*
X897149Y1228352D01*
X895264Y1226906D01*
X893818Y1225021D01*
X892908Y1222826D01*
X892598Y1220470D01*
X892908Y1218114D01*
X893818Y1215919D01*
X895264Y1214034D01*
X897149Y1212588D01*
X899344Y1211678D01*
X901700Y1211368D01*
X904056Y1211678D01*
X906251Y1212588D01*
X908136Y1214034D01*
X909582Y1215919D01*
X910492Y1218114D01*
X910802Y1220470D01*
X910492Y1222826D01*
X909582Y1225021D01*
X908136Y1226906D01*
X906251Y1228352D01*
X904056Y1229262D01*
X901700Y1229572D01*
D02*
G37*
G36*
X876300D02*
X873944Y1229262D01*
X871749Y1228352D01*
X869864Y1226906D01*
X868418Y1225021D01*
X867508Y1222826D01*
X867198Y1220470D01*
X867508Y1218114D01*
X868418Y1215919D01*
X869864Y1214034D01*
X871749Y1212588D01*
X873944Y1211678D01*
X876300Y1211368D01*
X878656Y1211678D01*
X880851Y1212588D01*
X882736Y1214034D01*
X884182Y1215919D01*
X885092Y1218114D01*
X885402Y1220470D01*
X885092Y1222826D01*
X884182Y1225021D01*
X882736Y1226906D01*
X880851Y1228352D01*
X878656Y1229262D01*
X876300Y1229572D01*
D02*
G37*
G36*
X850900D02*
X848544Y1229262D01*
X846349Y1228352D01*
X844464Y1226906D01*
X843018Y1225021D01*
X842108Y1222826D01*
X841798Y1220470D01*
X842108Y1218114D01*
X843018Y1215919D01*
X844464Y1214034D01*
X846349Y1212588D01*
X848544Y1211678D01*
X850900Y1211368D01*
X853256Y1211678D01*
X855451Y1212588D01*
X857336Y1214034D01*
X858782Y1215919D01*
X859692Y1218114D01*
X860002Y1220470D01*
X859692Y1222826D01*
X858782Y1225021D01*
X857336Y1226906D01*
X855451Y1228352D01*
X853256Y1229262D01*
X850900Y1229572D01*
D02*
G37*
G36*
X825500D02*
X823144Y1229262D01*
X820949Y1228352D01*
X819064Y1226906D01*
X817618Y1225021D01*
X816708Y1222826D01*
X816398Y1220470D01*
X816708Y1218114D01*
X817618Y1215919D01*
X819064Y1214034D01*
X820949Y1212588D01*
X823144Y1211678D01*
X825500Y1211368D01*
X827856Y1211678D01*
X830051Y1212588D01*
X831936Y1214034D01*
X833382Y1215919D01*
X834292Y1218114D01*
X834602Y1220470D01*
X834292Y1222826D01*
X833382Y1225021D01*
X831936Y1226906D01*
X830051Y1228352D01*
X827856Y1229262D01*
X825500Y1229572D01*
D02*
G37*
G36*
X800100D02*
X797744Y1229262D01*
X795549Y1228352D01*
X793664Y1226906D01*
X792218Y1225021D01*
X791308Y1222826D01*
X790998Y1220470D01*
X791308Y1218114D01*
X792218Y1215919D01*
X793664Y1214034D01*
X795549Y1212588D01*
X797744Y1211678D01*
X800100Y1211368D01*
X802456Y1211678D01*
X804651Y1212588D01*
X806536Y1214034D01*
X807982Y1215919D01*
X808892Y1218114D01*
X809202Y1220470D01*
X808892Y1222826D01*
X807982Y1225021D01*
X806536Y1226906D01*
X804651Y1228352D01*
X802456Y1229262D01*
X800100Y1229572D01*
D02*
G37*
G36*
X774700D02*
X772344Y1229262D01*
X770149Y1228352D01*
X768264Y1226906D01*
X766818Y1225021D01*
X765908Y1222826D01*
X765598Y1220470D01*
X765908Y1218114D01*
X766818Y1215919D01*
X768264Y1214034D01*
X770149Y1212588D01*
X772344Y1211678D01*
X774700Y1211368D01*
X777056Y1211678D01*
X779251Y1212588D01*
X781136Y1214034D01*
X782582Y1215919D01*
X783492Y1218114D01*
X783802Y1220470D01*
X783492Y1222826D01*
X782582Y1225021D01*
X781136Y1226906D01*
X779251Y1228352D01*
X777056Y1229262D01*
X774700Y1229572D01*
D02*
G37*
G36*
X749300D02*
X746944Y1229262D01*
X744749Y1228352D01*
X742864Y1226906D01*
X741418Y1225021D01*
X740508Y1222826D01*
X740198Y1220470D01*
X740508Y1218114D01*
X741418Y1215919D01*
X742864Y1214034D01*
X744749Y1212588D01*
X746944Y1211678D01*
X749300Y1211368D01*
X751656Y1211678D01*
X753851Y1212588D01*
X755736Y1214034D01*
X757182Y1215919D01*
X758092Y1218114D01*
X758402Y1220470D01*
X758092Y1222826D01*
X757182Y1225021D01*
X755736Y1226906D01*
X753851Y1228352D01*
X751656Y1229262D01*
X749300Y1229572D01*
D02*
G37*
G36*
X723900D02*
X721544Y1229262D01*
X719349Y1228352D01*
X717464Y1226906D01*
X716018Y1225021D01*
X715108Y1222826D01*
X714798Y1220470D01*
X715108Y1218114D01*
X716018Y1215919D01*
X717464Y1214034D01*
X719349Y1212588D01*
X721544Y1211678D01*
X723900Y1211368D01*
X726256Y1211678D01*
X728451Y1212588D01*
X730336Y1214034D01*
X731782Y1215919D01*
X732692Y1218114D01*
X733002Y1220470D01*
X732692Y1222826D01*
X731782Y1225021D01*
X730336Y1226906D01*
X728451Y1228352D01*
X726256Y1229262D01*
X723900Y1229572D01*
D02*
G37*
G36*
X698500D02*
X696144Y1229262D01*
X693949Y1228352D01*
X692064Y1226906D01*
X690618Y1225021D01*
X689708Y1222826D01*
X689398Y1220470D01*
X689708Y1218114D01*
X690618Y1215919D01*
X692064Y1214034D01*
X693949Y1212588D01*
X696144Y1211678D01*
X698500Y1211368D01*
X700856Y1211678D01*
X703051Y1212588D01*
X704936Y1214034D01*
X706382Y1215919D01*
X707292Y1218114D01*
X707602Y1220470D01*
X707292Y1222826D01*
X706382Y1225021D01*
X704936Y1226906D01*
X703051Y1228352D01*
X700856Y1229262D01*
X698500Y1229572D01*
D02*
G37*
G36*
X673100D02*
X670744Y1229262D01*
X668549Y1228352D01*
X666664Y1226906D01*
X665218Y1225021D01*
X664308Y1222826D01*
X663998Y1220470D01*
X664308Y1218114D01*
X665218Y1215919D01*
X666664Y1214034D01*
X668549Y1212588D01*
X670744Y1211678D01*
X673100Y1211368D01*
X675456Y1211678D01*
X677651Y1212588D01*
X679536Y1214034D01*
X680982Y1215919D01*
X681892Y1218114D01*
X682202Y1220470D01*
X681892Y1222826D01*
X680982Y1225021D01*
X679536Y1226906D01*
X677651Y1228352D01*
X675456Y1229262D01*
X673100Y1229572D01*
D02*
G37*
G36*
X647700D02*
X645344Y1229262D01*
X643149Y1228352D01*
X641264Y1226906D01*
X639818Y1225021D01*
X638908Y1222826D01*
X638598Y1220470D01*
X638908Y1218114D01*
X639818Y1215919D01*
X641264Y1214034D01*
X643149Y1212588D01*
X645344Y1211678D01*
X647700Y1211368D01*
X650056Y1211678D01*
X652251Y1212588D01*
X654136Y1214034D01*
X655582Y1215919D01*
X656492Y1218114D01*
X656802Y1220470D01*
X656492Y1222826D01*
X655582Y1225021D01*
X654136Y1226906D01*
X652251Y1228352D01*
X650056Y1229262D01*
X647700Y1229572D01*
D02*
G37*
G36*
X622300D02*
X619944Y1229262D01*
X617749Y1228352D01*
X615864Y1226906D01*
X614418Y1225021D01*
X613508Y1222826D01*
X613198Y1220470D01*
X613508Y1218114D01*
X614418Y1215919D01*
X615864Y1214034D01*
X617749Y1212588D01*
X619944Y1211678D01*
X622300Y1211368D01*
X624656Y1211678D01*
X626851Y1212588D01*
X628736Y1214034D01*
X630182Y1215919D01*
X631092Y1218114D01*
X631402Y1220470D01*
X631092Y1222826D01*
X630182Y1225021D01*
X628736Y1226906D01*
X626851Y1228352D01*
X624656Y1229262D01*
X622300Y1229572D01*
D02*
G37*
G36*
X596900D02*
X594544Y1229262D01*
X592349Y1228352D01*
X590464Y1226906D01*
X589018Y1225021D01*
X588108Y1222826D01*
X587798Y1220470D01*
X588108Y1218114D01*
X589018Y1215919D01*
X590464Y1214034D01*
X592349Y1212588D01*
X594544Y1211678D01*
X596900Y1211368D01*
X599256Y1211678D01*
X601451Y1212588D01*
X603336Y1214034D01*
X604782Y1215919D01*
X605692Y1218114D01*
X606002Y1220470D01*
X605692Y1222826D01*
X604782Y1225021D01*
X603336Y1226906D01*
X601451Y1228352D01*
X599256Y1229262D01*
X596900Y1229572D01*
D02*
G37*
G36*
X571500D02*
X569144Y1229262D01*
X566949Y1228352D01*
X565064Y1226906D01*
X563618Y1225021D01*
X562708Y1222826D01*
X562398Y1220470D01*
X562708Y1218114D01*
X563618Y1215919D01*
X565064Y1214034D01*
X566949Y1212588D01*
X569144Y1211678D01*
X571500Y1211368D01*
X573856Y1211678D01*
X576051Y1212588D01*
X577936Y1214034D01*
X579382Y1215919D01*
X580292Y1218114D01*
X580602Y1220470D01*
X580292Y1222826D01*
X579382Y1225021D01*
X577936Y1226906D01*
X576051Y1228352D01*
X573856Y1229262D01*
X571500Y1229572D01*
D02*
G37*
G36*
X546100D02*
X543744Y1229262D01*
X541549Y1228352D01*
X539664Y1226906D01*
X538218Y1225021D01*
X537308Y1222826D01*
X536998Y1220470D01*
X537308Y1218114D01*
X538218Y1215919D01*
X539664Y1214034D01*
X541549Y1212588D01*
X543744Y1211678D01*
X546100Y1211368D01*
X548456Y1211678D01*
X550651Y1212588D01*
X552536Y1214034D01*
X553982Y1215919D01*
X554892Y1218114D01*
X555202Y1220470D01*
X554892Y1222826D01*
X553982Y1225021D01*
X552536Y1226906D01*
X550651Y1228352D01*
X548456Y1229262D01*
X546100Y1229572D01*
D02*
G37*
G36*
X520700D02*
X518344Y1229262D01*
X516149Y1228352D01*
X514264Y1226906D01*
X512818Y1225021D01*
X511908Y1222826D01*
X511598Y1220470D01*
X511908Y1218114D01*
X512818Y1215919D01*
X514264Y1214034D01*
X516149Y1212588D01*
X518344Y1211678D01*
X520700Y1211368D01*
X523056Y1211678D01*
X525251Y1212588D01*
X527136Y1214034D01*
X528582Y1215919D01*
X529492Y1218114D01*
X529802Y1220470D01*
X529492Y1222826D01*
X528582Y1225021D01*
X527136Y1226906D01*
X525251Y1228352D01*
X523056Y1229262D01*
X520700Y1229572D01*
D02*
G37*
G36*
X495300D02*
X492944Y1229262D01*
X490749Y1228352D01*
X488864Y1226906D01*
X487418Y1225021D01*
X486508Y1222826D01*
X486198Y1220470D01*
X486508Y1218114D01*
X487418Y1215919D01*
X488864Y1214034D01*
X490749Y1212588D01*
X492944Y1211678D01*
X495300Y1211368D01*
X497656Y1211678D01*
X499851Y1212588D01*
X501736Y1214034D01*
X503182Y1215919D01*
X504092Y1218114D01*
X504402Y1220470D01*
X504092Y1222826D01*
X503182Y1225021D01*
X501736Y1226906D01*
X499851Y1228352D01*
X497656Y1229262D01*
X495300Y1229572D01*
D02*
G37*
G36*
X469900D02*
X467544Y1229262D01*
X465349Y1228352D01*
X463464Y1226906D01*
X462018Y1225021D01*
X461108Y1222826D01*
X460798Y1220470D01*
X461108Y1218114D01*
X462018Y1215919D01*
X463464Y1214034D01*
X465349Y1212588D01*
X467544Y1211678D01*
X469900Y1211368D01*
X472256Y1211678D01*
X474451Y1212588D01*
X476336Y1214034D01*
X477782Y1215919D01*
X478692Y1218114D01*
X479002Y1220470D01*
X478692Y1222826D01*
X477782Y1225021D01*
X476336Y1226906D01*
X474451Y1228352D01*
X472256Y1229262D01*
X469900Y1229572D01*
D02*
G37*
G36*
X1409300Y1229572D02*
X1406944Y1229262D01*
X1404749Y1228352D01*
X1402864Y1226906D01*
X1401418Y1225021D01*
X1400508Y1222826D01*
X1400198Y1220470D01*
X1400508Y1218114D01*
X1401418Y1215919D01*
X1402864Y1214034D01*
X1404749Y1212588D01*
X1406944Y1211678D01*
X1409300Y1211368D01*
X1411656Y1211678D01*
X1413851Y1212588D01*
X1415736Y1214034D01*
X1417182Y1215919D01*
X1418092Y1218114D01*
X1418402Y1220470D01*
X1418092Y1222826D01*
X1417182Y1225021D01*
X1415736Y1226906D01*
X1413851Y1228352D01*
X1411656Y1229262D01*
X1409300Y1229572D01*
D02*
G37*
G36*
X1256900D02*
X1254544Y1229262D01*
X1252349Y1228352D01*
X1250464Y1226906D01*
X1249018Y1225021D01*
X1248108Y1222826D01*
X1247798Y1220470D01*
X1248108Y1218114D01*
X1249018Y1215919D01*
X1250464Y1214034D01*
X1252349Y1212588D01*
X1254544Y1211678D01*
X1256900Y1211368D01*
X1259256Y1211678D01*
X1261451Y1212588D01*
X1263336Y1214034D01*
X1264782Y1215919D01*
X1265692Y1218114D01*
X1266002Y1220470D01*
X1265692Y1222826D01*
X1264782Y1225021D01*
X1263336Y1226906D01*
X1261451Y1228352D01*
X1259256Y1229262D01*
X1256900Y1229572D01*
D02*
G37*
G36*
X1231500D02*
X1229144Y1229262D01*
X1226949Y1228352D01*
X1225064Y1226906D01*
X1223618Y1225021D01*
X1222708Y1222826D01*
X1222398Y1220470D01*
X1222708Y1218114D01*
X1223618Y1215919D01*
X1225064Y1214034D01*
X1226949Y1212588D01*
X1229144Y1211678D01*
X1231500Y1211368D01*
X1233856Y1211678D01*
X1236051Y1212588D01*
X1237936Y1214034D01*
X1239382Y1215919D01*
X1240292Y1218114D01*
X1240602Y1220470D01*
X1240292Y1222826D01*
X1239382Y1225021D01*
X1237936Y1226906D01*
X1236051Y1228352D01*
X1233856Y1229262D01*
X1231500Y1229572D01*
D02*
G37*
G36*
X1206100D02*
X1203744Y1229262D01*
X1201549Y1228352D01*
X1199664Y1226906D01*
X1198218Y1225021D01*
X1197308Y1222826D01*
X1196998Y1220470D01*
X1197308Y1218114D01*
X1198218Y1215919D01*
X1199664Y1214034D01*
X1201549Y1212588D01*
X1203744Y1211678D01*
X1206100Y1211368D01*
X1208456Y1211678D01*
X1210651Y1212588D01*
X1212536Y1214034D01*
X1213982Y1215919D01*
X1214892Y1218114D01*
X1215202Y1220470D01*
X1214892Y1222826D01*
X1213982Y1225021D01*
X1212536Y1226906D01*
X1210651Y1228352D01*
X1208456Y1229262D01*
X1206100Y1229572D01*
D02*
G37*
G36*
X1180700D02*
X1178344Y1229262D01*
X1176149Y1228352D01*
X1174264Y1226906D01*
X1172818Y1225021D01*
X1171908Y1222826D01*
X1171598Y1220470D01*
X1171908Y1218114D01*
X1172818Y1215919D01*
X1174264Y1214034D01*
X1176149Y1212588D01*
X1178344Y1211678D01*
X1180700Y1211368D01*
X1183056Y1211678D01*
X1185251Y1212588D01*
X1187136Y1214034D01*
X1188582Y1215919D01*
X1189492Y1218114D01*
X1189802Y1220470D01*
X1189492Y1222826D01*
X1188582Y1225021D01*
X1187136Y1226906D01*
X1185251Y1228352D01*
X1183056Y1229262D01*
X1180700Y1229572D01*
D02*
G37*
G36*
X1155300D02*
X1152944Y1229262D01*
X1150749Y1228352D01*
X1148864Y1226906D01*
X1147418Y1225021D01*
X1146508Y1222826D01*
X1146198Y1220470D01*
X1146508Y1218114D01*
X1147418Y1215919D01*
X1148864Y1214034D01*
X1150749Y1212588D01*
X1152944Y1211678D01*
X1155300Y1211368D01*
X1157656Y1211678D01*
X1159851Y1212588D01*
X1161736Y1214034D01*
X1163182Y1215919D01*
X1164092Y1218114D01*
X1164402Y1220470D01*
X1164092Y1222826D01*
X1163182Y1225021D01*
X1161736Y1226906D01*
X1159851Y1228352D01*
X1157656Y1229262D01*
X1155300Y1229572D01*
D02*
G37*
G36*
X1129900D02*
X1127544Y1229262D01*
X1125349Y1228352D01*
X1123464Y1226906D01*
X1122018Y1225021D01*
X1121108Y1222826D01*
X1120798Y1220470D01*
X1121108Y1218114D01*
X1122018Y1215919D01*
X1123464Y1214034D01*
X1125349Y1212588D01*
X1127544Y1211678D01*
X1129900Y1211368D01*
X1132256Y1211678D01*
X1134451Y1212588D01*
X1136336Y1214034D01*
X1137782Y1215919D01*
X1138692Y1218114D01*
X1139002Y1220470D01*
X1138692Y1222826D01*
X1137782Y1225021D01*
X1136336Y1226906D01*
X1134451Y1228352D01*
X1132256Y1229262D01*
X1129900Y1229572D01*
D02*
G37*
G36*
X1104500D02*
X1102144Y1229262D01*
X1099949Y1228352D01*
X1098064Y1226906D01*
X1096618Y1225021D01*
X1095708Y1222826D01*
X1095398Y1220470D01*
X1095708Y1218114D01*
X1096618Y1215919D01*
X1098064Y1214034D01*
X1099949Y1212588D01*
X1102144Y1211678D01*
X1104500Y1211368D01*
X1106856Y1211678D01*
X1109051Y1212588D01*
X1110936Y1214034D01*
X1112382Y1215919D01*
X1113292Y1218114D01*
X1113602Y1220470D01*
X1113292Y1222826D01*
X1112382Y1225021D01*
X1110936Y1226906D01*
X1109051Y1228352D01*
X1106856Y1229262D01*
X1104500Y1229572D01*
D02*
G37*
G36*
X1383900D02*
X1381544Y1229262D01*
X1379349Y1228352D01*
X1377464Y1226906D01*
X1376018Y1225021D01*
X1375108Y1222826D01*
X1374798Y1220470D01*
X1375108Y1218114D01*
X1376018Y1215919D01*
X1377464Y1214034D01*
X1379335Y1212599D01*
X1379341Y1212552D01*
X1379069Y1211329D01*
X1363331D01*
X1363059Y1212552D01*
X1363065Y1212599D01*
X1364936Y1214034D01*
X1366382Y1215919D01*
X1367292Y1218114D01*
X1367602Y1220470D01*
X1367292Y1222826D01*
X1366382Y1225021D01*
X1364936Y1226906D01*
X1363051Y1228352D01*
X1360856Y1229262D01*
X1358500Y1229572D01*
X1356144Y1229262D01*
X1353949Y1228352D01*
X1352064Y1226906D01*
X1350618Y1225021D01*
X1349708Y1222826D01*
X1349398Y1220470D01*
X1349708Y1218114D01*
X1350618Y1215919D01*
X1352064Y1214034D01*
X1353934Y1212599D01*
X1353941Y1212552D01*
X1353669Y1211329D01*
X1337931D01*
X1337659Y1212552D01*
X1337666Y1212599D01*
X1339536Y1214034D01*
X1340982Y1215919D01*
X1341892Y1218114D01*
X1342202Y1220470D01*
X1341892Y1222826D01*
X1340982Y1225021D01*
X1339536Y1226906D01*
X1337651Y1228352D01*
X1335456Y1229262D01*
X1333100Y1229572D01*
X1330744Y1229262D01*
X1328549Y1228352D01*
X1326664Y1226906D01*
X1325218Y1225021D01*
X1324308Y1222826D01*
X1323998Y1220470D01*
X1324308Y1218114D01*
X1325218Y1215919D01*
X1326664Y1214034D01*
X1328535Y1212599D01*
X1328541Y1212552D01*
X1328269Y1211329D01*
X1312531D01*
X1312259Y1212552D01*
X1312265Y1212599D01*
X1314136Y1214034D01*
X1315582Y1215919D01*
X1316492Y1218114D01*
X1316802Y1220470D01*
X1316492Y1222826D01*
X1315582Y1225021D01*
X1314136Y1226906D01*
X1312251Y1228352D01*
X1310056Y1229262D01*
X1307700Y1229572D01*
X1305344Y1229262D01*
X1303149Y1228352D01*
X1301264Y1226906D01*
X1299818Y1225021D01*
X1298908Y1222826D01*
X1298598Y1220470D01*
X1298908Y1218114D01*
X1299818Y1215919D01*
X1301264Y1214034D01*
X1303134Y1212599D01*
X1303141Y1212552D01*
X1302869Y1211329D01*
X1287131D01*
X1286859Y1212552D01*
X1286866Y1212599D01*
X1288736Y1214034D01*
X1290182Y1215919D01*
X1291092Y1218114D01*
X1291402Y1220470D01*
X1291092Y1222826D01*
X1290182Y1225021D01*
X1288736Y1226906D01*
X1286851Y1228352D01*
X1284656Y1229262D01*
X1282300Y1229572D01*
X1279944Y1229262D01*
X1277749Y1228352D01*
X1275864Y1226906D01*
X1274418Y1225021D01*
X1273508Y1222826D01*
X1273198Y1220470D01*
X1273508Y1218114D01*
X1274418Y1215919D01*
X1275864Y1214034D01*
X1277735Y1212599D01*
X1277741Y1212552D01*
X1277469Y1211329D01*
X1272000D01*
X1271109Y1211152D01*
X1270353Y1210647D01*
X1270353Y1210647D01*
X1258353Y1198647D01*
X1257849Y1197891D01*
X1257671Y1197000D01*
Y1145023D01*
X1255476D01*
Y1137828D01*
X1247499D01*
X1247499Y1137828D01*
X1246608Y1137650D01*
X1245852Y1137145D01*
X1240353Y1131647D01*
X1239848Y1130891D01*
X1239671Y1130000D01*
Y1110965D01*
X1233035Y1104329D01*
X1213000D01*
X1213000Y1104329D01*
X1212109Y1104152D01*
X1211353Y1103647D01*
X1188101Y1080395D01*
X1188015Y1080378D01*
X1187180Y1079820D01*
X1186622Y1078985D01*
X1186427Y1078000D01*
Y986066D01*
X1159934Y959573D01*
X984066D01*
X963820Y979820D01*
X962985Y980378D01*
X962000Y980574D01*
X951120D01*
X950901Y980901D01*
X949570Y981790D01*
X948000Y982103D01*
X946430Y981790D01*
X945099Y980901D01*
X944210Y979570D01*
X943897Y978000D01*
X944210Y976430D01*
X945099Y975099D01*
X946430Y974210D01*
X948000Y973897D01*
X949570Y974210D01*
X950901Y975099D01*
X951120Y975426D01*
X960934D01*
X981180Y955180D01*
X981555Y954930D01*
X981663Y954738D01*
X981803Y953636D01*
X981749Y953389D01*
X956934Y928574D01*
X951120D01*
X950901Y928901D01*
X949570Y929790D01*
X948000Y930103D01*
X946430Y929790D01*
X945099Y928901D01*
X944880Y928574D01*
X936274D01*
X936274Y934600D01*
X936274Y935544D01*
Y946356D01*
X936274Y947300D01*
X936274Y948244D01*
Y959674D01*
X936274D01*
Y960326D01*
X936274D01*
Y971756D01*
X936274Y972700D01*
X936274Y973644D01*
Y984456D01*
X936274Y985400D01*
X936274Y986344D01*
Y989177D01*
X940750D01*
X941735Y989372D01*
X942570Y989930D01*
X953634Y1000994D01*
X954620Y1000185D01*
X954210Y999570D01*
X953897Y998000D01*
X954210Y996430D01*
X955099Y995099D01*
X956430Y994210D01*
X958000Y993897D01*
X1074000D01*
X1075570Y994210D01*
X1076901Y995099D01*
X1107599Y1025797D01*
X1178600D01*
X1180170Y1026109D01*
X1181501Y1026999D01*
X1182391Y1028330D01*
X1182703Y1029900D01*
X1182391Y1031470D01*
X1181501Y1032801D01*
X1180170Y1033690D01*
X1178600Y1034003D01*
X1138747D01*
X1138184Y1035273D01*
X1138791Y1036180D01*
X1139103Y1037750D01*
X1138823Y1039154D01*
X1139032Y1039772D01*
X1139381Y1040424D01*
X1169878D01*
X1170097Y1040097D01*
X1171428Y1039207D01*
X1172998Y1038895D01*
X1174568Y1039207D01*
X1175899Y1040097D01*
X1176788Y1041428D01*
X1177101Y1042998D01*
X1176788Y1044568D01*
X1176190Y1045463D01*
X1175908Y1045917D01*
X1176458Y1047053D01*
X1176901Y1047349D01*
X1177791Y1048680D01*
X1178103Y1050250D01*
X1177791Y1051820D01*
X1176901Y1053151D01*
X1175570Y1054041D01*
X1174000Y1054353D01*
X1172430Y1054041D01*
X1171099Y1053151D01*
X1170880Y1052823D01*
X1123362D01*
X1123237Y1054093D01*
X1123820Y1054210D01*
X1125151Y1055099D01*
X1126040Y1056430D01*
X1126353Y1058000D01*
X1126276Y1058387D01*
X1129820Y1061930D01*
X1130378Y1062765D01*
X1130574Y1063750D01*
Y1076684D01*
X1132803Y1078913D01*
X1133976Y1078427D01*
Y1070476D01*
X1146024D01*
Y1081524D01*
X1145598D01*
Y1084906D01*
X1146868Y1085585D01*
X1147430Y1085210D01*
X1149000Y1084897D01*
X1149726Y1084301D01*
Y1084226D01*
X1161774D01*
Y1087177D01*
X1165976D01*
Y1084476D01*
X1178024D01*
Y1095524D01*
X1165976D01*
Y1092323D01*
X1161774D01*
Y1095274D01*
X1157779D01*
X1157198Y1096544D01*
X1157791Y1097430D01*
X1158103Y1099000D01*
X1157791Y1100570D01*
X1157060Y1101663D01*
X1157121Y1102060D01*
X1157291Y1102499D01*
X1157594Y1102966D01*
X1158820Y1103210D01*
X1160151Y1104099D01*
X1161040Y1105430D01*
X1161353Y1107000D01*
X1161040Y1108570D01*
X1160151Y1109901D01*
X1158820Y1110790D01*
X1157250Y1111103D01*
X1155680Y1110790D01*
X1154349Y1109901D01*
X1153966Y1109329D01*
X1149418D01*
X1149080Y1109776D01*
X1148810Y1110599D01*
X1149149Y1111106D01*
X1149326Y1111998D01*
Y1112714D01*
X1149899Y1113097D01*
X1150788Y1114428D01*
X1151100Y1115998D01*
X1150788Y1117568D01*
X1149899Y1118899D01*
X1148568Y1119788D01*
X1146998Y1120101D01*
X1145428Y1119788D01*
X1144097Y1118899D01*
X1143207Y1117568D01*
X1142895Y1115998D01*
X1143207Y1114428D01*
X1144097Y1113097D01*
X1144160Y1112453D01*
X1142035Y1110329D01*
X1135000D01*
X1134109Y1110152D01*
X1133353Y1109647D01*
X1126353Y1102647D01*
X1125848Y1101891D01*
X1125671Y1101000D01*
Y1094965D01*
X1123310Y1092603D01*
X1122040Y1093129D01*
Y1118730D01*
X1095270D01*
Y1091960D01*
X1120871D01*
X1121397Y1090690D01*
X1110035Y1079329D01*
X1036024D01*
Y1081524D01*
X1023976D01*
Y1079329D01*
X944965D01*
X941997Y1082297D01*
X941241Y1082802D01*
X940350Y1082979D01*
X936274D01*
Y1086310D01*
X937290D01*
Y1092080D01*
X924750D01*
X912210D01*
Y1086310D01*
X913226D01*
Y1082979D01*
X892315D01*
X889647Y1085647D01*
X888891Y1086152D01*
X888000Y1086329D01*
X827965D01*
X792647Y1121647D01*
X791891Y1122151D01*
X791000Y1122329D01*
X719000D01*
X718109Y1122151D01*
X717353Y1121647D01*
X717353Y1121647D01*
X706035Y1110329D01*
X446000D01*
X445109Y1110152D01*
X444353Y1109647D01*
X444353Y1109647D01*
X399035Y1064329D01*
X310750D01*
X309859Y1064152D01*
X309103Y1063647D01*
X309103Y1063647D01*
X301353Y1055897D01*
X300849Y1055141D01*
X300671Y1054250D01*
Y995000D01*
X300849Y994109D01*
X301353Y993353D01*
X308353Y986353D01*
X309109Y985848D01*
X310000Y985671D01*
X313205D01*
X313208Y985644D01*
X314118Y983449D01*
X315564Y981564D01*
X317449Y980118D01*
X319644Y979208D01*
X322000Y978898D01*
X324356Y979208D01*
X326551Y980118D01*
X328436Y981564D01*
X329882Y983449D01*
X330792Y985644D01*
X331102Y988000D01*
X330792Y990356D01*
X329882Y992551D01*
X328436Y994436D01*
X326551Y995882D01*
X324356Y996792D01*
X322000Y997102D01*
X319644Y996792D01*
X317449Y995882D01*
X315564Y994436D01*
X314118Y992551D01*
X313208Y990356D01*
X313205Y990329D01*
X310965D01*
X305329Y995965D01*
Y1015877D01*
X305636Y1016095D01*
X306599Y1016358D01*
X310353Y1012603D01*
X311109Y1012098D01*
X312000Y1011921D01*
X313134Y1011608D01*
X313208Y1011044D01*
X314118Y1008849D01*
X315564Y1006964D01*
X317449Y1005518D01*
X319644Y1004608D01*
X322000Y1004298D01*
X324356Y1004608D01*
X326551Y1005518D01*
X328436Y1006964D01*
X329882Y1008849D01*
X330792Y1011044D01*
X331102Y1013400D01*
X330792Y1015756D01*
X329882Y1017951D01*
X328436Y1019836D01*
X326551Y1021282D01*
X324356Y1022192D01*
X322000Y1022502D01*
X319644Y1022192D01*
X317449Y1021282D01*
X315564Y1019836D01*
X314118Y1017951D01*
X313892Y1017406D01*
X312406Y1017137D01*
X310329Y1019215D01*
Y1047535D01*
X312465Y1049671D01*
X405000D01*
X405891Y1049848D01*
X406647Y1050353D01*
X453965Y1097671D01*
X712250D01*
X713141Y1097849D01*
X713897Y1098353D01*
X726215Y1110671D01*
X730462D01*
X730847Y1109401D01*
X730099Y1108901D01*
X716301Y1095103D01*
X459000D01*
X457430Y1094790D01*
X456099Y1093901D01*
X405101Y1042903D01*
X331024D01*
Y1047824D01*
X312976D01*
Y1029776D01*
X331024D01*
Y1034697D01*
X406800D01*
X408370Y1035010D01*
X409701Y1035899D01*
X460699Y1086897D01*
X718000D01*
X719570Y1087209D01*
X720901Y1088099D01*
X734699Y1101897D01*
X778301D01*
X792897Y1087300D01*
Y1073565D01*
X791724Y1073078D01*
X781901Y1082901D01*
X780570Y1083791D01*
X779000Y1084103D01*
X766274D01*
Y1086310D01*
X767290D01*
Y1092080D01*
X742210D01*
Y1086310D01*
X743226D01*
Y1083223D01*
X737342D01*
X736357Y1083028D01*
X735522Y1082470D01*
X720180Y1067128D01*
X719622Y1066293D01*
X719427Y1065308D01*
Y1042533D01*
X718157Y1042407D01*
X718079Y1042795D01*
X717846Y1043967D01*
X716732Y1045634D01*
X715065Y1046748D01*
X714369Y1046886D01*
Y1042000D01*
Y1037114D01*
X715065Y1037252D01*
X716732Y1038366D01*
X717846Y1040033D01*
X718079Y1041205D01*
X718157Y1041593D01*
X719427Y1041468D01*
Y1024573D01*
X717089D01*
X716720Y1025564D01*
X716665Y1025843D01*
X717748Y1027463D01*
X717886Y1028160D01*
X708114D01*
X708252Y1027463D01*
X709335Y1025843D01*
X709280Y1025564D01*
X708911Y1024573D01*
X697089D01*
X696720Y1025564D01*
X696665Y1025843D01*
X697748Y1027463D01*
X697886Y1028160D01*
X688114D01*
X688252Y1027463D01*
X689335Y1025843D01*
X689280Y1025564D01*
X688911Y1024573D01*
X674712D01*
X674343Y1025564D01*
X674288Y1025843D01*
X675370Y1027463D01*
X675508Y1028160D01*
X665736D01*
X665875Y1027463D01*
X666957Y1025843D01*
X666902Y1025564D01*
X666533Y1024573D01*
X418430D01*
X417445Y1024378D01*
X416610Y1023820D01*
X398780Y1005990D01*
X398222Y1005155D01*
X398027Y1004170D01*
Y913524D01*
X389076D01*
Y890476D01*
X412124D01*
Y913524D01*
X403173D01*
Y1003104D01*
X419496Y1019426D01*
X448927D01*
Y1013024D01*
X445976D01*
Y1000976D01*
X457024D01*
Y1013024D01*
X454073D01*
Y1019426D01*
X593506D01*
X594458Y1018157D01*
X594426Y1018000D01*
Y1013024D01*
X591476D01*
Y1000976D01*
X602524D01*
Y1013024D01*
X599574D01*
Y1016934D01*
X602066Y1019426D01*
X719427D01*
Y1013024D01*
X716476D01*
Y1000976D01*
X727524D01*
Y1013024D01*
X724574D01*
Y1022000D01*
Y1064242D01*
X738408Y1078077D01*
X742328D01*
X743226Y1077178D01*
X743226Y1074300D01*
X743226Y1073356D01*
Y1062290D01*
X742210D01*
Y1056520D01*
X767290D01*
Y1062290D01*
X766274D01*
Y1064635D01*
X767221Y1065141D01*
X767544Y1065187D01*
X769000Y1064897D01*
X770570Y1065210D01*
X771901Y1066099D01*
X772791Y1067430D01*
X773103Y1069000D01*
X772791Y1070570D01*
X771901Y1071901D01*
X770570Y1072791D01*
X769000Y1073103D01*
X767544Y1072813D01*
X767221Y1072859D01*
X766274Y1073365D01*
Y1074999D01*
X767172Y1075897D01*
X777301D01*
X792897Y1060301D01*
Y1048000D01*
X793210Y1046430D01*
X794099Y1045099D01*
X795430Y1044210D01*
X797000Y1043897D01*
X798570Y1044210D01*
X799901Y1045099D01*
X800790Y1046430D01*
X801103Y1048000D01*
Y1062000D01*
Y1089000D01*
X800790Y1090570D01*
X799901Y1091901D01*
X782901Y1108901D01*
X782153Y1109401D01*
X782538Y1110671D01*
X787035D01*
X822353Y1075353D01*
X822353Y1075353D01*
X823109Y1074848D01*
X824000Y1074671D01*
X888035D01*
X896403Y1066303D01*
X897159Y1065798D01*
X898050Y1065621D01*
X898050Y1065621D01*
X912328D01*
X913226Y1064723D01*
X913226Y1061600D01*
X913226Y1060656D01*
Y1058745D01*
X912172D01*
X911187Y1058549D01*
X910352Y1057991D01*
X903844Y1051483D01*
X902573Y1052009D01*
Y1056000D01*
X902378Y1056985D01*
X901820Y1057820D01*
X888822Y1070818D01*
X887987Y1071375D01*
X887002Y1071571D01*
X820118D01*
X819900Y1071899D01*
X818568Y1072788D01*
X816998Y1073101D01*
X815428Y1072788D01*
X814097Y1071899D01*
X813208Y1070568D01*
X812896Y1068998D01*
X813208Y1067428D01*
X814097Y1066097D01*
X813945Y1064671D01*
X813210Y1063570D01*
X812897Y1062000D01*
X813210Y1060430D01*
X813947Y1059326D01*
X814099Y1057951D01*
Y1057900D01*
X814097Y1057899D01*
X813208Y1056568D01*
X812896Y1054998D01*
X813208Y1053428D01*
X814097Y1052097D01*
X815428Y1051207D01*
X816998Y1050895D01*
X818568Y1051207D01*
X819900Y1052097D01*
X820118Y1052424D01*
X874998D01*
X875780Y1052580D01*
X881627Y1046734D01*
Y980065D01*
X880507Y979467D01*
X880086Y979748D01*
X879390Y979886D01*
Y975000D01*
Y970114D01*
X880086Y970252D01*
X880507Y970533D01*
X881627Y969935D01*
Y969800D01*
X881822Y968815D01*
X882380Y967980D01*
X898530Y951830D01*
X899365Y951272D01*
X900350Y951077D01*
X912328D01*
X913226Y950179D01*
X913226Y947300D01*
X913226Y946356D01*
Y935544D01*
X913226Y934600D01*
X913226Y933656D01*
Y922226D01*
X912226Y921573D01*
X912066D01*
X909573Y924066D01*
Y936000D01*
X909378Y936985D01*
X908820Y937820D01*
X902820Y943820D01*
X901985Y944378D01*
X901000Y944573D01*
X803066D01*
X797873Y949766D01*
Y1009700D01*
X797678Y1010685D01*
X797120Y1011520D01*
X789670Y1018970D01*
X788835Y1019528D01*
X787850Y1019724D01*
X767172D01*
X766274Y1020621D01*
X766274Y1023500D01*
X766274Y1024444D01*
Y1035510D01*
X767290D01*
Y1041280D01*
X742210D01*
Y1035510D01*
X743226D01*
Y1024444D01*
X743226Y1023500D01*
X743226Y1022556D01*
Y1011744D01*
X743226Y1010800D01*
X743226Y1009856D01*
Y999044D01*
X743226Y998100D01*
X743226Y997156D01*
Y995573D01*
X711120D01*
X710901Y995901D01*
X710574Y996120D01*
Y1000976D01*
X713524D01*
Y1013024D01*
X702476D01*
Y1000976D01*
X705427D01*
Y996120D01*
X705099Y995901D01*
X704210Y994570D01*
X703897Y993000D01*
X704210Y991430D01*
X705099Y990099D01*
X706430Y989210D01*
X708000Y988897D01*
X709570Y989210D01*
X710901Y990099D01*
X711120Y990426D01*
X743226D01*
X743226Y985400D01*
X743226Y984456D01*
Y973026D01*
X743226D01*
Y972374D01*
X743226D01*
Y960944D01*
X743226Y960000D01*
X743226Y959056D01*
Y948244D01*
X743226Y947300D01*
X743226Y946356D01*
Y943523D01*
X722000D01*
X721015Y943328D01*
X720180Y942770D01*
X714984Y937573D01*
X673558D01*
X673081Y938157D01*
X673682Y939426D01*
X685000D01*
X685985Y939622D01*
X686820Y940180D01*
X721064Y974425D01*
X725879D01*
X726097Y974097D01*
X727429Y973207D01*
X728998Y972895D01*
X730569Y973207D01*
X731900Y974097D01*
X732789Y975428D01*
X733101Y976998D01*
X732789Y978568D01*
X731900Y979899D01*
X730569Y980789D01*
X730560Y982085D01*
X730790Y982430D01*
X731103Y984000D01*
X730790Y985570D01*
X729901Y986901D01*
X728570Y987791D01*
X727000Y988103D01*
X725430Y987791D01*
X724099Y986901D01*
X723880Y986573D01*
X717150D01*
X716165Y986378D01*
X715330Y985820D01*
X678084Y948573D01*
X432000D01*
X431015Y948378D01*
X430180Y947820D01*
X424180Y941820D01*
X423622Y940985D01*
X423427Y940000D01*
Y926120D01*
X423099Y925901D01*
X422210Y924570D01*
X421897Y923000D01*
X422210Y921430D01*
X423099Y920099D01*
X424430Y919210D01*
X426000Y918897D01*
X427570Y919210D01*
X428901Y920099D01*
X429790Y921430D01*
X430103Y923000D01*
X429790Y924570D01*
X428901Y925901D01*
X428573Y926120D01*
Y938934D01*
X433066Y943427D01*
X463128D01*
X463614Y942253D01*
X460180Y938820D01*
X459622Y937985D01*
X459426Y937000D01*
Y925120D01*
X459099Y924901D01*
X458209Y923570D01*
X457897Y922000D01*
X458209Y920430D01*
X459099Y919099D01*
X460430Y918210D01*
X462000Y917897D01*
X463570Y918210D01*
X464901Y919099D01*
X465790Y920430D01*
X466103Y922000D01*
X465790Y923570D01*
X464901Y924901D01*
X464573Y925120D01*
Y935934D01*
X468066Y939426D01*
X667096D01*
X667481Y938157D01*
X667099Y937901D01*
X666209Y936570D01*
X665897Y935000D01*
X666209Y933430D01*
X667099Y932099D01*
X667107Y932094D01*
X666722Y930824D01*
X519000D01*
X518015Y930628D01*
X517180Y930070D01*
X491684Y904574D01*
X462924D01*
Y913524D01*
X439876D01*
Y890476D01*
X462924D01*
Y899426D01*
X492750D01*
X493735Y899622D01*
X494570Y900180D01*
X520066Y925677D01*
X560147D01*
X560768Y924407D01*
X560603Y924159D01*
X560352Y923991D01*
X555180Y918820D01*
X554622Y917985D01*
X554427Y917000D01*
Y911524D01*
X536476D01*
Y888476D01*
X559524D01*
Y908751D01*
X559574Y909000D01*
Y915934D01*
X562082Y918442D01*
X562430Y918210D01*
X564000Y917897D01*
X565570Y918210D01*
X566901Y919099D01*
X567790Y920430D01*
X568103Y922000D01*
X567790Y923570D01*
X567232Y924407D01*
X567853Y925677D01*
X603470D01*
X603855Y924407D01*
X603099Y923901D01*
X602880Y923574D01*
X578750D01*
X577765Y923378D01*
X576930Y922820D01*
X574180Y920070D01*
X573622Y919235D01*
X573427Y918250D01*
Y911524D01*
X561876D01*
Y888476D01*
X584924D01*
Y911524D01*
X578573D01*
Y917184D01*
X579816Y918427D01*
X602880D01*
X603099Y918099D01*
X604037Y917472D01*
X604383Y916022D01*
X604180Y915820D01*
X603622Y914985D01*
X603427Y914000D01*
Y911524D01*
X587276D01*
Y888476D01*
X610324D01*
Y911524D01*
X608573D01*
Y912934D01*
X609066Y913427D01*
X614556D01*
X615087Y912794D01*
X614543Y911524D01*
X612676D01*
Y888476D01*
X635724D01*
Y911524D01*
X630573D01*
X630087Y912697D01*
X638816Y921427D01*
X698184D01*
X700974Y918636D01*
X700897Y918250D01*
X701209Y916680D01*
X702099Y915349D01*
X703430Y914460D01*
X705000Y914147D01*
X706570Y914460D01*
X707901Y915349D01*
X708791Y916680D01*
X709103Y918250D01*
X709050Y918514D01*
X710221Y919140D01*
X730180Y899180D01*
X731015Y898622D01*
X732000Y898427D01*
X865442D01*
X865919Y897843D01*
X865318Y896573D01*
X690066D01*
X671026Y915613D01*
X671103Y916000D01*
X670790Y917570D01*
X669901Y918901D01*
X668570Y919790D01*
X667000Y920103D01*
X665430Y919790D01*
X664099Y918901D01*
X663210Y917570D01*
X662897Y916000D01*
X663210Y914430D01*
X664099Y913099D01*
X665430Y912209D01*
X667000Y911897D01*
X667386Y911974D01*
X687180Y892180D01*
X688015Y891622D01*
X689000Y891426D01*
X876300D01*
X877285Y891622D01*
X878120Y892180D01*
X886020Y900080D01*
X886578Y900915D01*
X886773Y901900D01*
Y905828D01*
X887672Y906726D01*
X890550Y906726D01*
X891494Y906726D01*
X902924D01*
Y929774D01*
X891494D01*
X890550Y929774D01*
X889606Y929774D01*
X878794D01*
X877850Y929774D01*
X876906Y929774D01*
X866094D01*
X865150Y929774D01*
X864206Y929774D01*
X853394D01*
X852450Y929774D01*
X851506Y929774D01*
X840694D01*
X839750Y929774D01*
X838806Y929774D01*
X827994D01*
X827050Y929774D01*
X826106Y929774D01*
X815294D01*
X814350Y929774D01*
X813406Y929774D01*
X802594D01*
X801650Y929774D01*
X800706Y929774D01*
X789640D01*
Y930790D01*
X783870D01*
Y918250D01*
Y905710D01*
X789640D01*
Y906726D01*
X800706D01*
X801650Y906726D01*
X802594Y906726D01*
X813406D01*
X814350Y906726D01*
X815294Y906726D01*
X826106D01*
X827050Y906726D01*
X827994Y906726D01*
X838806D01*
X839750Y906726D01*
X840694Y906726D01*
X851506D01*
X852450Y906726D01*
X853394Y906726D01*
X864206D01*
X865150Y906726D01*
X866094Y906726D01*
X876906D01*
X877850Y906726D01*
X878794Y906726D01*
X881627D01*
Y902966D01*
X875234Y896573D01*
X871904D01*
X871519Y897843D01*
X871901Y898099D01*
X872791Y899430D01*
X873103Y901000D01*
X872791Y902570D01*
X871901Y903901D01*
X870570Y904790D01*
X869000Y905103D01*
X867430Y904790D01*
X866099Y903901D01*
X865880Y903574D01*
X733066D01*
X706570Y930070D01*
X705735Y930628D01*
X704750Y930824D01*
X674511D01*
X673872Y932094D01*
X674119Y932427D01*
X712722D01*
X713107Y931157D01*
X713099Y931151D01*
X712209Y929820D01*
X711897Y928250D01*
X712209Y926680D01*
X713099Y925349D01*
X714430Y924460D01*
X716000Y924147D01*
X717570Y924460D01*
X718901Y925349D01*
X719120Y925677D01*
X743226D01*
Y922226D01*
X766274D01*
Y933656D01*
X766274Y934600D01*
X766274Y935544D01*
Y946356D01*
X766274Y947300D01*
X766274Y948244D01*
Y951077D01*
X771832D01*
X773130Y950210D01*
X774700Y949897D01*
X776270Y950210D01*
X777601Y951099D01*
X778491Y952430D01*
X778803Y954000D01*
X778491Y955570D01*
X777601Y956901D01*
X776270Y957791D01*
X774700Y958103D01*
X773130Y957791D01*
X771799Y956901D01*
X771346Y956224D01*
X767172D01*
X766274Y957122D01*
X766274Y960000D01*
X766274Y960944D01*
Y964426D01*
X775880D01*
X776099Y964099D01*
X777430Y963210D01*
X779000Y962897D01*
X780185Y963133D01*
X781455Y962390D01*
Y956318D01*
X781353Y956216D01*
X780848Y955461D01*
X780671Y954570D01*
Y943284D01*
X780099Y942901D01*
X779210Y941570D01*
X778897Y940000D01*
X779210Y938430D01*
X780099Y937099D01*
X781430Y936209D01*
X783000Y935897D01*
X784570Y936209D01*
X785901Y937099D01*
X786790Y938430D01*
X787103Y940000D01*
X786790Y941570D01*
X785901Y942901D01*
X785329Y943284D01*
Y953605D01*
X785431Y953707D01*
X785936Y954463D01*
X786113Y955354D01*
Y991216D01*
X785936Y992107D01*
X785431Y992863D01*
X772197Y1006097D01*
X771441Y1006601D01*
X770550Y1006779D01*
X767172D01*
X766274Y1007677D01*
X766274Y1010800D01*
X766274Y1011744D01*
Y1014577D01*
X786784D01*
X792727Y1008634D01*
Y948700D01*
X792922Y947715D01*
X793480Y946880D01*
X800180Y940180D01*
X801015Y939622D01*
X802000Y939426D01*
X899934D01*
X904426Y934934D01*
Y923000D01*
X904622Y922015D01*
X905180Y921180D01*
X909180Y917180D01*
X910015Y916622D01*
X911000Y916426D01*
X961000D01*
X961985Y916622D01*
X962820Y917180D01*
X990066Y944427D01*
X1270934D01*
X1296180Y919180D01*
X1297015Y918622D01*
X1298000Y918427D01*
X1424750D01*
X1425735Y918622D01*
X1426570Y919180D01*
X1437570Y930180D01*
X1438128Y931015D01*
X1438323Y932000D01*
Y955976D01*
X1441274D01*
Y968024D01*
X1438323D01*
Y970226D01*
X1441274D01*
Y982274D01*
X1430920D01*
X1430226Y982274D01*
X1429650Y983305D01*
Y1001509D01*
X1430019Y1001748D01*
X1430481Y1001641D01*
X1431289Y1001056D01*
Y987381D01*
X1442366D01*
X1444147Y985600D01*
Y977750D01*
X1444226Y977354D01*
Y970310D01*
X1444226Y970226D01*
X1444023Y969040D01*
X1443210D01*
Y963270D01*
X1449750D01*
X1456290D01*
Y969040D01*
X1455477D01*
X1455274Y970226D01*
X1455274Y970310D01*
Y971997D01*
X1458726D01*
Y970426D01*
X1470774D01*
Y975672D01*
X1476624Y981522D01*
X1486147D01*
Y956274D01*
X1484438Y955566D01*
X1482031Y953719D01*
X1480184Y951312D01*
X1479023Y948508D01*
X1478627Y945500D01*
X1479023Y942492D01*
X1480184Y939688D01*
X1482031Y937281D01*
X1484438Y935434D01*
X1487242Y934273D01*
X1490250Y933877D01*
X1493258Y934273D01*
X1496062Y935434D01*
X1498469Y937281D01*
X1500316Y939688D01*
X1501477Y942492D01*
X1501873Y945500D01*
X1501477Y948508D01*
X1500316Y951312D01*
X1498469Y953719D01*
X1496062Y955566D01*
X1494353Y956274D01*
Y982176D01*
X1494901Y982724D01*
X1495791Y984055D01*
X1496103Y985625D01*
X1496066Y985813D01*
X1496103Y986000D01*
X1495791Y987570D01*
X1494901Y988901D01*
X1493771Y989656D01*
X1488103Y995325D01*
Y1049000D01*
X1487791Y1050570D01*
X1486901Y1051901D01*
X1481901Y1056901D01*
X1480570Y1057791D01*
X1479000Y1058103D01*
X1473024D01*
Y1060024D01*
X1468478D01*
Y1097726D01*
X1470524D01*
Y1106774D01*
X1457848D01*
Y1119976D01*
X1459524D01*
Y1120267D01*
X1462987D01*
X1463099Y1120099D01*
X1464430Y1119210D01*
X1465577Y1118981D01*
X1534373Y1050185D01*
X1535099Y1049099D01*
X1536430Y1048210D01*
X1538000Y1047897D01*
X1539570Y1048210D01*
X1540901Y1049099D01*
X1541790Y1050430D01*
X1542103Y1052000D01*
X1541790Y1053570D01*
X1540901Y1054901D01*
X1539815Y1055627D01*
X1469721Y1125721D01*
X1468473Y1126555D01*
X1467689Y1126711D01*
X1467570Y1126790D01*
X1467503Y1126804D01*
X1467471Y1126836D01*
X1466223Y1127670D01*
X1464750Y1127963D01*
X1459524D01*
Y1131964D01*
X1478137D01*
X1478286Y1131218D01*
X1479175Y1129887D01*
X1480506Y1128997D01*
X1482076Y1128685D01*
X1483646Y1128997D01*
X1484977Y1129887D01*
X1485867Y1131218D01*
X1486179Y1132788D01*
X1485867Y1134358D01*
X1484977Y1135689D01*
X1483646Y1136579D01*
X1482324Y1136842D01*
X1482076Y1136891D01*
X1482016Y1138099D01*
X1482187Y1138133D01*
X1482570Y1138210D01*
X1483901Y1139099D01*
X1484104Y1139403D01*
X1484176Y1139451D01*
X1484651Y1140162D01*
X1484668Y1140246D01*
X1484790Y1140430D01*
X1485103Y1142000D01*
X1484790Y1143570D01*
X1483901Y1144901D01*
X1483191Y1145376D01*
Y1153670D01*
X1483330D01*
Y1169718D01*
X1472846D01*
X1472040Y1170700D01*
X1472100Y1171000D01*
X1471788Y1172570D01*
X1471244Y1173384D01*
X1471482Y1174236D01*
X1471705Y1174654D01*
X1474036D01*
Y1182424D01*
X1467266D01*
Y1179475D01*
X1466092Y1178989D01*
X1464330Y1180752D01*
Y1191718D01*
X1452282D01*
Y1175670D01*
X1459248D01*
X1463898Y1171020D01*
X1463894Y1171000D01*
X1463954Y1170700D01*
X1463148Y1169718D01*
X1452282D01*
Y1153670D01*
X1463231D01*
X1470064Y1146837D01*
X1469897Y1146000D01*
X1470210Y1144430D01*
X1471099Y1143099D01*
X1471406Y1142893D01*
X1471531Y1141629D01*
X1470037Y1140136D01*
X1418033D01*
X1417767Y1140526D01*
X1417545Y1141406D01*
X1419615Y1143476D01*
X1428024D01*
Y1153671D01*
X1441835D01*
X1446164Y1149342D01*
X1445897Y1148000D01*
X1446210Y1146430D01*
X1447099Y1145099D01*
X1448430Y1144210D01*
X1450000Y1143897D01*
X1451570Y1144210D01*
X1452901Y1145099D01*
X1453790Y1146430D01*
X1454103Y1148000D01*
X1453790Y1149570D01*
X1452901Y1150901D01*
X1451570Y1151790D01*
X1450000Y1152103D01*
X1449992Y1152101D01*
X1444447Y1157647D01*
X1444051Y1157911D01*
X1444064Y1158768D01*
X1444142Y1159251D01*
X1444145Y1159259D01*
X1445401Y1160099D01*
X1446290Y1161430D01*
X1446603Y1163000D01*
X1446290Y1164570D01*
X1445401Y1165901D01*
X1444070Y1166790D01*
X1442500Y1167103D01*
X1442113Y1167026D01*
X1437587Y1171553D01*
X1438073Y1172726D01*
X1438774D01*
Y1184774D01*
X1435884D01*
X1435698Y1185000D01*
Y1188976D01*
X1438524D01*
Y1201024D01*
X1427476D01*
Y1189888D01*
X1424524D01*
Y1201024D01*
X1421573D01*
Y1204880D01*
X1421901Y1205099D01*
X1422791Y1206430D01*
X1423103Y1208000D01*
X1422791Y1209570D01*
X1421901Y1210901D01*
X1420570Y1211790D01*
X1419000Y1212103D01*
X1417430Y1211790D01*
X1416099Y1210901D01*
X1415210Y1209570D01*
X1414897Y1208000D01*
X1415210Y1206430D01*
X1416099Y1205099D01*
X1416427Y1204880D01*
Y1201024D01*
X1413476D01*
Y1193795D01*
X1412206Y1193184D01*
X1411629Y1193636D01*
Y1200200D01*
X1411629Y1200200D01*
X1411452Y1201091D01*
X1410947Y1201847D01*
X1402147Y1210647D01*
X1401391Y1211152D01*
X1400500Y1211329D01*
X1388731D01*
X1388459Y1212552D01*
X1388466Y1212599D01*
X1390336Y1214034D01*
X1391782Y1215919D01*
X1392692Y1218114D01*
X1393002Y1220470D01*
X1392692Y1222826D01*
X1391782Y1225021D01*
X1390336Y1226906D01*
X1388451Y1228352D01*
X1386256Y1229262D01*
X1383900Y1229572D01*
D02*
G37*
G36*
X1526500Y1231824D02*
X1523261Y1231505D01*
X1520146Y1230560D01*
X1517275Y1229026D01*
X1514759Y1226961D01*
X1512694Y1224445D01*
X1511160Y1221574D01*
X1510215Y1218459D01*
X1509896Y1215220D01*
X1510215Y1211981D01*
X1511160Y1208866D01*
X1512694Y1205995D01*
X1514759Y1203479D01*
X1517275Y1201414D01*
X1520146Y1199880D01*
X1523261Y1198935D01*
X1526500Y1198616D01*
X1529739Y1198935D01*
X1532854Y1199880D01*
X1535725Y1201414D01*
X1538241Y1203479D01*
X1540306Y1205995D01*
X1541840Y1208866D01*
X1542785Y1211981D01*
X1543104Y1215220D01*
X1542785Y1218459D01*
X1541840Y1221574D01*
X1540306Y1224445D01*
X1538241Y1226961D01*
X1535725Y1229026D01*
X1532854Y1230560D01*
X1529739Y1231505D01*
X1526500Y1231824D01*
D02*
G37*
G36*
X326500D02*
X323261Y1231505D01*
X320146Y1230560D01*
X317275Y1229026D01*
X314759Y1226961D01*
X312694Y1224445D01*
X311160Y1221574D01*
X310215Y1218459D01*
X309896Y1215220D01*
X310215Y1211981D01*
X311160Y1208866D01*
X312694Y1205995D01*
X314759Y1203479D01*
X317275Y1201414D01*
X320146Y1199880D01*
X323261Y1198935D01*
X326500Y1198616D01*
X329739Y1198935D01*
X332854Y1199880D01*
X335725Y1201414D01*
X338241Y1203479D01*
X340306Y1205995D01*
X341840Y1208866D01*
X342785Y1211981D01*
X343104Y1215220D01*
X342785Y1218459D01*
X341840Y1221574D01*
X340306Y1224445D01*
X338241Y1226961D01*
X335725Y1229026D01*
X332854Y1230560D01*
X329739Y1231505D01*
X326500Y1231824D01*
D02*
G37*
G36*
X1464750Y1219623D02*
X1461742Y1219227D01*
X1458938Y1218066D01*
X1456531Y1216219D01*
X1454684Y1213812D01*
X1453523Y1211008D01*
X1453127Y1208000D01*
X1453523Y1204992D01*
X1454684Y1202188D01*
X1456531Y1199781D01*
X1458938Y1197934D01*
X1461742Y1196773D01*
X1464750Y1196377D01*
X1467758Y1196773D01*
X1470562Y1197934D01*
X1472969Y1199781D01*
X1474816Y1202188D01*
X1475977Y1204992D01*
X1476373Y1208000D01*
X1475977Y1211008D01*
X1474816Y1213812D01*
X1472969Y1216219D01*
X1470562Y1218066D01*
X1467758Y1219227D01*
X1464750Y1219623D01*
D02*
G37*
G36*
X1483346Y1192734D02*
X1476576D01*
Y1184964D01*
X1483346D01*
Y1192734D01*
D02*
G37*
G36*
X1474036D02*
X1467266D01*
Y1184964D01*
X1474036D01*
Y1192734D01*
D02*
G37*
G36*
X1483346Y1182424D02*
X1476576D01*
Y1174654D01*
X1483346D01*
Y1182424D01*
D02*
G37*
G36*
X328274Y1183525D02*
X317225D01*
Y1171477D01*
X328274D01*
Y1183525D01*
D02*
G37*
G36*
X345041Y1167811D02*
X333771D01*
Y1162540D01*
X345041D01*
Y1167811D01*
D02*
G37*
G36*
X331231D02*
X319961D01*
Y1162540D01*
X331231D01*
Y1167811D01*
D02*
G37*
G36*
X1541250Y1168957D02*
X1537020D01*
X1534986Y1168689D01*
X1533091Y1167905D01*
X1531464Y1166656D01*
X1530215Y1165029D01*
X1529431Y1163134D01*
X1529330Y1162370D01*
X1541250D01*
Y1168957D01*
D02*
G37*
G36*
X345041Y1160000D02*
X333771D01*
Y1154730D01*
X345041D01*
Y1160000D01*
D02*
G37*
G36*
X331231D02*
X319961D01*
Y1154730D01*
X331231D01*
Y1160000D01*
D02*
G37*
G36*
X1541250Y1159830D02*
X1529330D01*
X1529431Y1159066D01*
X1530215Y1157171D01*
X1531464Y1155544D01*
X1533091Y1154296D01*
X1534986Y1153511D01*
X1537020Y1153243D01*
X1541250D01*
Y1159830D01*
D02*
G37*
G36*
X311500Y1160134D02*
X309345Y1159705D01*
X307517Y1158484D01*
X306296Y1156657D01*
X305867Y1154501D01*
X306296Y1152346D01*
X307517Y1150518D01*
X309345Y1149297D01*
X311500Y1148868D01*
X313656Y1149297D01*
X315483Y1150518D01*
X316704Y1152346D01*
X317133Y1154501D01*
X316704Y1156657D01*
X315483Y1158484D01*
X313656Y1159705D01*
X311500Y1160134D01*
D02*
G37*
G36*
X1518420Y1157413D02*
X1516655Y1157061D01*
X1515158Y1156062D01*
X1514158Y1154565D01*
X1513807Y1152800D01*
X1514158Y1151035D01*
X1515158Y1149538D01*
X1516655Y1148539D01*
X1518420Y1148187D01*
X1520185Y1148539D01*
X1521682Y1149538D01*
X1522681Y1151035D01*
X1523033Y1152800D01*
X1522681Y1154565D01*
X1521682Y1156062D01*
X1520185Y1157061D01*
X1518420Y1157413D01*
D02*
G37*
G36*
X1178024Y1124024D02*
X1165976D01*
Y1121329D01*
X1163284D01*
X1162901Y1121901D01*
X1161570Y1122791D01*
X1160000Y1123103D01*
X1158430Y1122791D01*
X1157099Y1121901D01*
X1156209Y1120570D01*
X1155897Y1119000D01*
X1156209Y1117430D01*
X1157099Y1116099D01*
X1158430Y1115210D01*
X1160000Y1114897D01*
X1161570Y1115210D01*
X1162901Y1116099D01*
X1163284Y1116671D01*
X1165976D01*
Y1112976D01*
X1178024D01*
Y1124024D01*
D02*
G37*
G36*
X1122040Y1148040D02*
X1095270D01*
Y1121270D01*
X1122040D01*
Y1148040D01*
D02*
G37*
G36*
X1092730D02*
X1065960D01*
Y1121270D01*
X1092730D01*
Y1148040D01*
D02*
G37*
G36*
X311500Y1130132D02*
X309345Y1129703D01*
X307517Y1128482D01*
X306296Y1126654D01*
X305867Y1124499D01*
X306296Y1122343D01*
X307517Y1120516D01*
X309345Y1119295D01*
X311500Y1118866D01*
X313656Y1119295D01*
X315483Y1120516D01*
X316704Y1122343D01*
X317133Y1124499D01*
X316704Y1126654D01*
X315483Y1128482D01*
X313656Y1129703D01*
X311500Y1130132D01*
D02*
G37*
G36*
X1518420Y1117413D02*
X1516655Y1117061D01*
X1515158Y1116062D01*
X1514158Y1114565D01*
X1513807Y1112800D01*
X1514158Y1111035D01*
X1515158Y1109538D01*
X1516655Y1108539D01*
X1518420Y1108187D01*
X1520185Y1108539D01*
X1521682Y1109538D01*
X1522681Y1111035D01*
X1523033Y1112800D01*
X1522681Y1114565D01*
X1521682Y1116062D01*
X1520185Y1117061D01*
X1518420Y1117413D01*
D02*
G37*
G36*
X1204000Y1200103D02*
X403230D01*
X401660Y1199790D01*
X400329Y1198901D01*
X338222Y1136795D01*
X320977D01*
Y1125746D01*
X340515D01*
X341001Y1124573D01*
X338222Y1121794D01*
X320977D01*
Y1110745D01*
X344025D01*
Y1115991D01*
X407699Y1179666D01*
X1197532D01*
X1211897Y1165301D01*
Y1111499D01*
X1212209Y1109929D01*
X1213099Y1108598D01*
X1214430Y1107708D01*
X1216000Y1107396D01*
X1217570Y1107708D01*
X1218901Y1108598D01*
X1219790Y1109929D01*
X1220103Y1111499D01*
Y1167000D01*
X1219790Y1168570D01*
X1218901Y1169901D01*
X1202132Y1186670D01*
X1200801Y1187560D01*
X1199231Y1187872D01*
X406000D01*
X404430Y1187560D01*
X403099Y1186670D01*
X345198Y1128769D01*
X344025Y1129255D01*
Y1130993D01*
X404929Y1191897D01*
X1202301D01*
X1221897Y1172301D01*
Y1111499D01*
X1222209Y1109929D01*
X1223099Y1108598D01*
X1224430Y1107708D01*
X1226000Y1107396D01*
X1227570Y1107708D01*
X1228901Y1108598D01*
X1229790Y1109929D01*
X1230103Y1111499D01*
Y1174000D01*
X1229790Y1175570D01*
X1228901Y1176901D01*
X1206901Y1198901D01*
X1205570Y1199790D01*
X1204000Y1200103D01*
D02*
G37*
G36*
X1179040Y1111040D02*
X1173270D01*
Y1105770D01*
X1179040D01*
Y1111040D01*
D02*
G37*
G36*
X1170730D02*
X1164960D01*
Y1105770D01*
X1170730D01*
Y1111040D01*
D02*
G37*
G36*
X1541350Y1112357D02*
X1537120D01*
X1535086Y1112089D01*
X1533191Y1111305D01*
X1531564Y1110056D01*
X1530316Y1108429D01*
X1529530Y1106534D01*
X1529430Y1105770D01*
X1541350D01*
Y1112357D01*
D02*
G37*
G36*
X1179040Y1103230D02*
X1173270D01*
Y1097960D01*
X1179040D01*
Y1103230D01*
D02*
G37*
G36*
X1170730D02*
X1164960D01*
Y1097960D01*
X1170730D01*
Y1103230D01*
D02*
G37*
G36*
X1541350D02*
X1529430D01*
X1529530Y1102466D01*
X1530316Y1100571D01*
X1531564Y1098944D01*
X1533191Y1097695D01*
X1535086Y1096910D01*
X1537120Y1096643D01*
X1541350D01*
Y1103230D01*
D02*
G37*
G36*
X328274Y1107523D02*
X317225D01*
Y1095475D01*
X328274D01*
Y1107523D01*
D02*
G37*
G36*
X937290Y1100390D02*
X926020D01*
Y1094620D01*
X937290D01*
Y1100390D01*
D02*
G37*
G36*
X767290D02*
X756020D01*
Y1094620D01*
X767290D01*
Y1100390D01*
D02*
G37*
G36*
X753480D02*
X742210D01*
Y1094620D01*
X753480D01*
Y1100390D01*
D02*
G37*
G36*
X923480D02*
X912210D01*
Y1094620D01*
X923480D01*
Y1100390D01*
D02*
G37*
G36*
X1092730Y1118730D02*
X1065960D01*
Y1091960D01*
X1092730D01*
Y1118730D01*
D02*
G37*
G36*
X1179040Y1082540D02*
X1173270D01*
Y1077270D01*
X1179040D01*
Y1082540D01*
D02*
G37*
G36*
X1170730D02*
X1164960D01*
Y1077270D01*
X1170730D01*
Y1082540D01*
D02*
G37*
G36*
X1162790Y1082290D02*
X1157020D01*
Y1077020D01*
X1162790D01*
Y1082290D01*
D02*
G37*
G36*
X1154480D02*
X1148710D01*
Y1077020D01*
X1154480D01*
Y1082290D01*
D02*
G37*
G36*
X1179040Y1074730D02*
X1173270D01*
Y1069460D01*
X1179040D01*
Y1074730D01*
D02*
G37*
G36*
X1170730D02*
X1164960D01*
Y1069460D01*
X1170730D01*
Y1074730D01*
D02*
G37*
G36*
X1162790Y1074480D02*
X1157020D01*
Y1069210D01*
X1162790D01*
Y1074480D01*
D02*
G37*
G36*
X1154480D02*
X1148710D01*
Y1069210D01*
X1154480D01*
Y1074480D01*
D02*
G37*
G36*
X1147040Y1068540D02*
X1141270D01*
Y1063270D01*
X1147040D01*
Y1068540D01*
D02*
G37*
G36*
X1138730D02*
X1132960D01*
Y1063270D01*
X1138730D01*
Y1068540D01*
D02*
G37*
G36*
X1147040Y1060730D02*
X1141270D01*
Y1055460D01*
X1147040D01*
Y1060730D01*
D02*
G37*
G36*
X1138730D02*
X1132960D01*
Y1055460D01*
X1138730D01*
Y1060730D01*
D02*
G37*
G36*
X785840Y1052686D02*
Y1049070D01*
X789456D01*
X789318Y1049766D01*
X788204Y1051434D01*
X786537Y1052548D01*
X785840Y1052686D01*
D02*
G37*
G36*
X783300D02*
X782604Y1052548D01*
X780937Y1051434D01*
X779822Y1049766D01*
X779684Y1049070D01*
X783300D01*
Y1052686D01*
D02*
G37*
G36*
X767290Y1053980D02*
X742210D01*
Y1048210D01*
Y1043820D01*
X767290D01*
Y1048210D01*
Y1053980D01*
D02*
G37*
G36*
X775900Y1046886D02*
Y1043270D01*
X779516D01*
X779378Y1043967D01*
X778263Y1045634D01*
X776596Y1046748D01*
X775900Y1046886D01*
D02*
G37*
G36*
X773360D02*
X772663Y1046748D01*
X770996Y1045634D01*
X769882Y1043967D01*
X769744Y1043270D01*
X773360D01*
Y1046886D01*
D02*
G37*
G36*
X733389D02*
Y1043270D01*
X737005D01*
X736866Y1043967D01*
X735752Y1045634D01*
X734085Y1046748D01*
X733389Y1046886D01*
D02*
G37*
G36*
X730849D02*
X730152Y1046748D01*
X728485Y1045634D01*
X727371Y1043967D01*
X727233Y1043270D01*
X730849D01*
Y1046886D01*
D02*
G37*
G36*
X711829D02*
X711132Y1046748D01*
X709465Y1045634D01*
X708351Y1043967D01*
X708213Y1043270D01*
X711829D01*
Y1046886D01*
D02*
G37*
G36*
X789456Y1046530D02*
X785840D01*
Y1042914D01*
X786537Y1043053D01*
X788204Y1044166D01*
X789318Y1045834D01*
X789456Y1046530D01*
D02*
G37*
G36*
X783300D02*
X779684D01*
X779822Y1045834D01*
X780937Y1044166D01*
X782604Y1043053D01*
X783300Y1042914D01*
Y1046530D01*
D02*
G37*
G36*
X694270Y1046166D02*
Y1042550D01*
X697886D01*
X697748Y1043247D01*
X696634Y1044914D01*
X694967Y1046028D01*
X694270Y1046166D01*
D02*
G37*
G36*
X691730D02*
X691033Y1046028D01*
X689366Y1044914D01*
X688252Y1043247D01*
X688114Y1042550D01*
X691730D01*
Y1046166D01*
D02*
G37*
G36*
X671669D02*
Y1042550D01*
X675285D01*
X675146Y1043247D01*
X674032Y1044914D01*
X672365Y1046028D01*
X671669Y1046166D01*
D02*
G37*
G36*
X669129D02*
X668432Y1046028D01*
X666765Y1044914D01*
X665651Y1043247D01*
X665513Y1042550D01*
X669129D01*
Y1046166D01*
D02*
G37*
G36*
X779516Y1040730D02*
X775900D01*
Y1037114D01*
X776596Y1037252D01*
X778263Y1038366D01*
X779378Y1040033D01*
X779516Y1040730D01*
D02*
G37*
G36*
X773360D02*
X769744D01*
X769882Y1040033D01*
X770996Y1038366D01*
X772663Y1037252D01*
X773360Y1037114D01*
Y1040730D01*
D02*
G37*
G36*
X737005D02*
X733389D01*
Y1037114D01*
X734085Y1037252D01*
X735752Y1038366D01*
X736866Y1040033D01*
X737005Y1040730D01*
D02*
G37*
G36*
X730849D02*
X727233D01*
X727371Y1040033D01*
X728485Y1038366D01*
X730152Y1037252D01*
X730849Y1037114D01*
Y1040730D01*
D02*
G37*
G36*
X711829D02*
X708213D01*
X708351Y1040033D01*
X709465Y1038366D01*
X711132Y1037252D01*
X711829Y1037114D01*
Y1040730D01*
D02*
G37*
G36*
X697886Y1040010D02*
X694270D01*
Y1036394D01*
X694967Y1036532D01*
X696634Y1037646D01*
X697748Y1039314D01*
X697886Y1040010D01*
D02*
G37*
G36*
X691730D02*
X688114D01*
X688252Y1039314D01*
X689366Y1037646D01*
X691033Y1036532D01*
X691730Y1036394D01*
Y1040010D01*
D02*
G37*
G36*
X675285D02*
X671669D01*
Y1036394D01*
X672365Y1036532D01*
X674032Y1037646D01*
X675146Y1039314D01*
X675285Y1040010D01*
D02*
G37*
G36*
X669129D02*
X665513D01*
X665651Y1039314D01*
X666765Y1037646D01*
X668432Y1036532D01*
X669129Y1036394D01*
Y1040010D01*
D02*
G37*
G36*
X785840Y1039886D02*
Y1036270D01*
X789456D01*
X789318Y1036966D01*
X788204Y1038634D01*
X786537Y1039748D01*
X785840Y1039886D01*
D02*
G37*
G36*
X783300D02*
X782604Y1039748D01*
X780937Y1038634D01*
X779822Y1036966D01*
X779684Y1036270D01*
X783300D01*
Y1039886D01*
D02*
G37*
G36*
X733389Y1034886D02*
Y1031270D01*
X737005D01*
X736866Y1031966D01*
X735752Y1033634D01*
X734085Y1034748D01*
X733389Y1034886D01*
D02*
G37*
G36*
X730849D02*
X730152Y1034748D01*
X728485Y1033634D01*
X727371Y1031966D01*
X727233Y1031270D01*
X730849D01*
Y1034886D01*
D02*
G37*
G36*
X714270Y1034316D02*
Y1030700D01*
X717886D01*
X717748Y1031396D01*
X716634Y1033064D01*
X714967Y1034177D01*
X714270Y1034316D01*
D02*
G37*
G36*
X711730D02*
X711033Y1034177D01*
X709366Y1033064D01*
X708252Y1031396D01*
X708114Y1030700D01*
X711730D01*
Y1034316D01*
D02*
G37*
G36*
X694270D02*
Y1030700D01*
X697886D01*
X697748Y1031396D01*
X696634Y1033064D01*
X694967Y1034177D01*
X694270Y1034316D01*
D02*
G37*
G36*
X691730D02*
X691033Y1034177D01*
X689366Y1033064D01*
X688252Y1031396D01*
X688114Y1030700D01*
X691730D01*
Y1034316D01*
D02*
G37*
G36*
X671892D02*
Y1030700D01*
X675508D01*
X675370Y1031396D01*
X674256Y1033064D01*
X672589Y1034177D01*
X671892Y1034316D01*
D02*
G37*
G36*
X669352D02*
X668656Y1034177D01*
X666989Y1033064D01*
X665875Y1031396D01*
X665736Y1030700D01*
X669352D01*
Y1034316D01*
D02*
G37*
G36*
X789456Y1033730D02*
X785840D01*
Y1030114D01*
X786537Y1030252D01*
X788204Y1031366D01*
X789318Y1033034D01*
X789456Y1033730D01*
D02*
G37*
G36*
X783300D02*
X779684D01*
X779822Y1033034D01*
X780937Y1031366D01*
X782604Y1030252D01*
X783300Y1030114D01*
Y1033730D01*
D02*
G37*
G36*
X776270Y1031783D02*
Y1028167D01*
X779886D01*
X779748Y1028864D01*
X778634Y1030531D01*
X776966Y1031645D01*
X776270Y1031783D01*
D02*
G37*
G36*
X773730D02*
X773034Y1031645D01*
X771366Y1030531D01*
X770252Y1028864D01*
X770114Y1028167D01*
X773730D01*
Y1031783D01*
D02*
G37*
G36*
X737005Y1028730D02*
X733389D01*
Y1025114D01*
X734085Y1025252D01*
X735752Y1026366D01*
X736866Y1028034D01*
X737005Y1028730D01*
D02*
G37*
G36*
X730849D02*
X727233D01*
X727371Y1028034D01*
X728485Y1026366D01*
X730152Y1025252D01*
X730849Y1025114D01*
Y1028730D01*
D02*
G37*
G36*
X779886Y1025627D02*
X776270D01*
Y1022011D01*
X776966Y1022150D01*
X778634Y1023263D01*
X779748Y1024931D01*
X779886Y1025627D01*
D02*
G37*
G36*
X773730D02*
X770114D01*
X770252Y1024931D01*
X771366Y1023263D01*
X773034Y1022150D01*
X773730Y1022011D01*
Y1025627D01*
D02*
G37*
G36*
X857290Y1045890D02*
X831020D01*
Y1019620D01*
X857290D01*
Y1045890D01*
D02*
G37*
G36*
X828480D02*
X802210D01*
Y1019620D01*
X828480D01*
Y1045890D01*
D02*
G37*
G36*
X443024Y1013024D02*
X431976D01*
Y1009574D01*
X423120D01*
X422901Y1009901D01*
X421570Y1010790D01*
X420000Y1011103D01*
X418430Y1010790D01*
X417099Y1009901D01*
X416209Y1008570D01*
X415897Y1007000D01*
X416209Y1005430D01*
X417099Y1004099D01*
X418430Y1003210D01*
X420000Y1002897D01*
X421570Y1003210D01*
X422901Y1004099D01*
X423120Y1004427D01*
X431976D01*
Y1000976D01*
X443024D01*
Y1013024D01*
D02*
G37*
G36*
X588524D02*
X577476D01*
Y1009573D01*
X569120D01*
X568901Y1009901D01*
X567570Y1010790D01*
X566000Y1011103D01*
X564430Y1010790D01*
X563099Y1009901D01*
X562210Y1008570D01*
X561897Y1007000D01*
X562210Y1005430D01*
X563099Y1004099D01*
X564430Y1003210D01*
X566000Y1002897D01*
X567570Y1003210D01*
X568901Y1004099D01*
X569120Y1004426D01*
X577476D01*
Y1000976D01*
X588524D01*
Y1013024D01*
D02*
G37*
G36*
X857290Y1017080D02*
X831020D01*
Y990810D01*
X857290D01*
Y1017080D01*
D02*
G37*
G36*
X828480D02*
X802210D01*
Y990810D01*
X828480D01*
Y1017080D01*
D02*
G37*
G36*
X868700Y990511D02*
Y986895D01*
X872316D01*
X872178Y987592D01*
X871064Y989259D01*
X869396Y990373D01*
X868700Y990511D01*
D02*
G37*
G36*
X866160D02*
X865463Y990373D01*
X863796Y989259D01*
X862682Y987592D01*
X862544Y986895D01*
X866160D01*
Y990511D01*
D02*
G37*
G36*
X872316Y984355D02*
X868700D01*
Y980739D01*
X869396Y980878D01*
X871064Y981992D01*
X872178Y983659D01*
X872316Y984355D01*
D02*
G37*
G36*
X866160D02*
X862544D01*
X862682Y983659D01*
X863796Y981992D01*
X865463Y980878D01*
X866160Y980739D01*
Y984355D01*
D02*
G37*
G36*
X876850Y979886D02*
X876153Y979748D01*
X874486Y978634D01*
X873372Y976966D01*
X873234Y976270D01*
X876850D01*
Y979886D01*
D02*
G37*
G36*
Y973730D02*
X873234D01*
X873372Y973034D01*
X874486Y971366D01*
X876153Y970252D01*
X876850Y970114D01*
Y973730D01*
D02*
G37*
G36*
X868270Y970886D02*
Y967270D01*
X871886D01*
X871748Y967967D01*
X870634Y969634D01*
X868967Y970748D01*
X868270Y970886D01*
D02*
G37*
G36*
X865730D02*
X865033Y970748D01*
X863366Y969634D01*
X862252Y967967D01*
X862114Y967270D01*
X865730D01*
Y970886D01*
D02*
G37*
G36*
X323270Y972559D02*
Y963870D01*
X331959D01*
X331782Y965221D01*
X330770Y967663D01*
X329161Y969761D01*
X327063Y971370D01*
X324621Y972382D01*
X323270Y972559D01*
D02*
G37*
G36*
X320730Y972559D02*
X319379Y972382D01*
X316937Y971370D01*
X314839Y969761D01*
X313230Y967663D01*
X312218Y965221D01*
X312041Y963870D01*
X320730D01*
Y972559D01*
D02*
G37*
G36*
X1471790Y968490D02*
X1466020D01*
Y963220D01*
X1471790D01*
Y968490D01*
D02*
G37*
G36*
X1463480D02*
X1457710D01*
Y963220D01*
X1463480D01*
Y968490D01*
D02*
G37*
G36*
X871886Y964730D02*
X868270D01*
Y961114D01*
X868967Y961252D01*
X870634Y962366D01*
X871748Y964034D01*
X871886Y964730D01*
D02*
G37*
G36*
X865730D02*
X862114D01*
X862252Y964034D01*
X863366Y962366D01*
X865033Y961252D01*
X865730Y961114D01*
Y964730D01*
D02*
G37*
G36*
X1471790Y960680D02*
X1466020D01*
Y955410D01*
X1471790D01*
Y960680D01*
D02*
G37*
G36*
X1463480D02*
X1457710D01*
Y955410D01*
X1463480D01*
Y960680D01*
D02*
G37*
G36*
X1456290Y960730D02*
X1451020D01*
Y954960D01*
X1456290D01*
Y960730D01*
D02*
G37*
G36*
X1448480D02*
X1443210D01*
Y954960D01*
X1448480D01*
Y960730D01*
D02*
G37*
G36*
X880270Y957886D02*
Y954270D01*
X883886D01*
X883748Y954967D01*
X882634Y956634D01*
X880966Y957748D01*
X880270Y957886D01*
D02*
G37*
G36*
X877730D02*
X877033Y957748D01*
X875366Y956634D01*
X874252Y954967D01*
X874114Y954270D01*
X877730D01*
Y957886D01*
D02*
G37*
G36*
X320730Y961330D02*
X312041D01*
X312218Y959979D01*
X313230Y957537D01*
X314839Y955439D01*
X316937Y953830D01*
X319379Y952818D01*
X320730Y952641D01*
Y961330D01*
D02*
G37*
G36*
X331959D02*
X323270D01*
Y952641D01*
X324621Y952818D01*
X327063Y953830D01*
X329161Y955439D01*
X330770Y957537D01*
X331782Y959979D01*
X331959Y961330D01*
D02*
G37*
G36*
X883886Y951730D02*
X880270D01*
Y948114D01*
X880966Y948252D01*
X882634Y949366D01*
X883748Y951033D01*
X883886Y951730D01*
D02*
G37*
G36*
X877730D02*
X874114D01*
X874252Y951033D01*
X875366Y949366D01*
X877033Y948252D01*
X877730Y948114D01*
Y951730D01*
D02*
G37*
G36*
X781330Y930790D02*
X775560D01*
Y919520D01*
X781330D01*
Y930790D01*
D02*
G37*
G36*
X938000Y915103D02*
X936430Y914790D01*
X935099Y913901D01*
X934210Y912570D01*
X933897Y911000D01*
X933974Y910613D01*
X926934Y903574D01*
X895120D01*
X894901Y903901D01*
X893570Y904790D01*
X892000Y905103D01*
X890430Y904790D01*
X889099Y903901D01*
X888210Y902570D01*
X887897Y901000D01*
X888210Y899430D01*
X889099Y898099D01*
X890430Y897209D01*
X892000Y896897D01*
X893570Y897209D01*
X894901Y898099D01*
X895120Y898427D01*
X928000D01*
X928985Y898622D01*
X929820Y899180D01*
X937614Y906974D01*
X938000Y906897D01*
X939570Y907209D01*
X940901Y908099D01*
X941790Y909430D01*
X942103Y911000D01*
X941790Y912570D01*
X940901Y913901D01*
X939570Y914790D01*
X938000Y915103D01*
D02*
G37*
G36*
X781330Y916980D02*
X775560D01*
Y905710D01*
X781330D01*
Y916980D01*
D02*
G37*
G36*
X438540Y914540D02*
X427270D01*
Y903270D01*
X438540D01*
Y914540D01*
D02*
G37*
G36*
X424730D02*
X413460D01*
Y903270D01*
X424730D01*
Y914540D01*
D02*
G37*
G36*
X1088024Y919244D02*
X1069976D01*
Y901196D01*
X1088024D01*
Y919244D01*
D02*
G37*
G36*
X1282200Y919322D02*
X1279844Y919012D01*
X1277649Y918102D01*
X1275764Y916656D01*
X1274318Y914771D01*
X1273408Y912576D01*
X1273098Y910220D01*
X1273408Y907864D01*
X1274318Y905669D01*
X1275764Y903784D01*
X1277649Y902338D01*
X1279844Y901428D01*
X1282200Y901118D01*
X1284556Y901428D01*
X1286751Y902338D01*
X1288636Y903784D01*
X1290082Y905669D01*
X1290992Y907864D01*
X1291302Y910220D01*
X1290992Y912576D01*
X1290082Y914771D01*
X1288636Y916656D01*
X1286751Y918102D01*
X1284556Y919012D01*
X1282200Y919322D01*
D02*
G37*
G36*
X1256800D02*
X1254444Y919012D01*
X1252249Y918102D01*
X1250364Y916656D01*
X1248918Y914771D01*
X1248008Y912576D01*
X1247698Y910220D01*
X1248008Y907864D01*
X1248918Y905669D01*
X1250364Y903784D01*
X1252249Y902338D01*
X1254444Y901428D01*
X1256800Y901118D01*
X1259156Y901428D01*
X1261351Y902338D01*
X1263236Y903784D01*
X1264682Y905669D01*
X1265592Y907864D01*
X1265902Y910220D01*
X1265592Y912576D01*
X1264682Y914771D01*
X1263236Y916656D01*
X1261351Y918102D01*
X1259156Y919012D01*
X1256800Y919322D01*
D02*
G37*
G36*
X1231400D02*
X1229044Y919012D01*
X1226849Y918102D01*
X1224964Y916656D01*
X1223518Y914771D01*
X1222608Y912576D01*
X1222298Y910220D01*
X1222608Y907864D01*
X1223518Y905669D01*
X1224964Y903784D01*
X1226849Y902338D01*
X1229044Y901428D01*
X1231400Y901118D01*
X1233756Y901428D01*
X1235951Y902338D01*
X1237836Y903784D01*
X1239282Y905669D01*
X1240192Y907864D01*
X1240502Y910220D01*
X1240192Y912576D01*
X1239282Y914771D01*
X1237836Y916656D01*
X1235951Y918102D01*
X1233756Y919012D01*
X1231400Y919322D01*
D02*
G37*
G36*
X1206000D02*
X1203644Y919012D01*
X1201449Y918102D01*
X1199564Y916656D01*
X1198118Y914771D01*
X1197208Y912576D01*
X1196898Y910220D01*
X1197208Y907864D01*
X1198118Y905669D01*
X1199564Y903784D01*
X1201449Y902338D01*
X1203644Y901428D01*
X1206000Y901118D01*
X1208356Y901428D01*
X1210551Y902338D01*
X1212436Y903784D01*
X1213882Y905669D01*
X1214792Y907864D01*
X1215102Y910220D01*
X1214792Y912576D01*
X1213882Y914771D01*
X1212436Y916656D01*
X1210551Y918102D01*
X1208356Y919012D01*
X1206000Y919322D01*
D02*
G37*
G36*
X1180600D02*
X1178244Y919012D01*
X1176049Y918102D01*
X1174164Y916656D01*
X1172718Y914771D01*
X1171808Y912576D01*
X1171498Y910220D01*
X1171808Y907864D01*
X1172718Y905669D01*
X1174164Y903784D01*
X1176049Y902338D01*
X1178244Y901428D01*
X1180600Y901118D01*
X1182956Y901428D01*
X1185151Y902338D01*
X1187036Y903784D01*
X1188482Y905669D01*
X1189392Y907864D01*
X1189702Y910220D01*
X1189392Y912576D01*
X1188482Y914771D01*
X1187036Y916656D01*
X1185151Y918102D01*
X1182956Y919012D01*
X1180600Y919322D01*
D02*
G37*
G36*
X1155200D02*
X1152844Y919012D01*
X1150649Y918102D01*
X1148764Y916656D01*
X1147318Y914771D01*
X1146408Y912576D01*
X1146098Y910220D01*
X1146408Y907864D01*
X1147318Y905669D01*
X1148764Y903784D01*
X1150649Y902338D01*
X1152844Y901428D01*
X1155200Y901118D01*
X1157556Y901428D01*
X1159751Y902338D01*
X1161636Y903784D01*
X1163082Y905669D01*
X1163992Y907864D01*
X1164302Y910220D01*
X1163992Y912576D01*
X1163082Y914771D01*
X1161636Y916656D01*
X1159751Y918102D01*
X1157556Y919012D01*
X1155200Y919322D01*
D02*
G37*
G36*
X1129800D02*
X1127444Y919012D01*
X1125249Y918102D01*
X1123364Y916656D01*
X1121918Y914771D01*
X1121008Y912576D01*
X1120698Y910220D01*
X1121008Y907864D01*
X1121918Y905669D01*
X1123364Y903784D01*
X1125249Y902338D01*
X1127444Y901428D01*
X1129800Y901118D01*
X1132156Y901428D01*
X1134351Y902338D01*
X1136236Y903784D01*
X1137682Y905669D01*
X1138592Y907864D01*
X1138902Y910220D01*
X1138592Y912576D01*
X1137682Y914771D01*
X1136236Y916656D01*
X1134351Y918102D01*
X1132156Y919012D01*
X1129800Y919322D01*
D02*
G37*
G36*
X1104400D02*
X1102044Y919012D01*
X1099849Y918102D01*
X1097964Y916656D01*
X1096518Y914771D01*
X1095608Y912576D01*
X1095298Y910220D01*
X1095608Y907864D01*
X1096518Y905669D01*
X1097964Y903784D01*
X1099849Y902338D01*
X1102044Y901428D01*
X1104400Y901118D01*
X1106756Y901428D01*
X1108951Y902338D01*
X1110836Y903784D01*
X1112282Y905669D01*
X1113192Y907864D01*
X1113502Y910220D01*
X1113192Y912576D01*
X1112282Y914771D01*
X1110836Y916656D01*
X1108951Y918102D01*
X1106756Y919012D01*
X1104400Y919322D01*
D02*
G37*
G36*
X1526500Y931824D02*
X1523261Y931505D01*
X1520146Y930560D01*
X1517275Y929026D01*
X1514759Y926961D01*
X1512694Y924445D01*
X1511160Y921574D01*
X1510215Y918459D01*
X1509896Y915220D01*
X1510215Y911981D01*
X1511160Y908866D01*
X1512694Y905995D01*
X1514759Y903479D01*
X1517275Y901414D01*
X1520146Y899880D01*
X1523261Y898935D01*
X1526500Y898616D01*
X1529739Y898935D01*
X1532854Y899880D01*
X1535725Y901414D01*
X1538241Y903479D01*
X1540306Y905995D01*
X1541840Y908866D01*
X1542785Y911981D01*
X1543104Y915220D01*
X1542785Y918459D01*
X1541840Y921574D01*
X1540306Y924445D01*
X1538241Y926961D01*
X1535725Y929026D01*
X1532854Y930560D01*
X1529739Y931505D01*
X1526500Y931824D01*
D02*
G37*
G36*
X326500D02*
X323261Y931505D01*
X320146Y930560D01*
X317275Y929026D01*
X314759Y926961D01*
X312694Y924445D01*
X311160Y921574D01*
X310215Y918459D01*
X309896Y915220D01*
X310215Y911981D01*
X311160Y908866D01*
X312694Y905995D01*
X314759Y903479D01*
X317275Y901414D01*
X320146Y899880D01*
X323261Y898935D01*
X326500Y898616D01*
X329739Y898935D01*
X332854Y899880D01*
X335725Y901414D01*
X338241Y903479D01*
X340306Y905995D01*
X341840Y908866D01*
X342785Y911981D01*
X343104Y915220D01*
X342785Y918459D01*
X341840Y921574D01*
X340306Y924445D01*
X338241Y926961D01*
X335725Y929026D01*
X332854Y930560D01*
X329739Y931505D01*
X326500Y931824D01*
D02*
G37*
G36*
X438540Y900730D02*
X427270D01*
Y889460D01*
X438540D01*
Y900730D01*
D02*
G37*
G36*
X424730D02*
X413460D01*
Y889460D01*
X424730D01*
Y900730D01*
D02*
G37*
G36*
X661124Y911524D02*
X638076D01*
Y888476D01*
X661124D01*
Y911524D01*
D02*
G37*
%LPD*%
G36*
X1285204Y1205498D02*
X1278353Y1198647D01*
X1277849Y1197891D01*
X1277671Y1197000D01*
Y1178274D01*
X1275226D01*
Y1166226D01*
X1286274D01*
Y1178274D01*
X1282329D01*
Y1196035D01*
X1290374Y1204080D01*
X1337657D01*
X1338072Y1203304D01*
X1338221Y1202810D01*
X1338114Y1202270D01*
X1343000D01*
Y1199730D01*
X1338114D01*
X1338252Y1199034D01*
X1339211Y1197599D01*
X1338807Y1196329D01*
X1336524D01*
Y1200024D01*
X1325476D01*
Y1187976D01*
X1328671D01*
Y1185024D01*
X1325476D01*
Y1172976D01*
X1328671D01*
Y1165373D01*
X1328364Y1165155D01*
X1327401Y1164892D01*
X1321603Y1170690D01*
X1322129Y1171960D01*
X1323540D01*
Y1177730D01*
X1317000D01*
X1310460D01*
Y1172113D01*
X1309181D01*
X1307397Y1173897D01*
X1306641Y1174401D01*
X1305750Y1174579D01*
X1300274D01*
Y1178274D01*
X1289226D01*
Y1166226D01*
X1300274D01*
Y1169921D01*
X1304785D01*
X1306569Y1168137D01*
X1307325Y1167633D01*
X1308216Y1167455D01*
X1318251D01*
X1322268Y1163438D01*
X1321782Y1162265D01*
X1298460D01*
Y1147781D01*
X1283976D01*
Y1142701D01*
Y1132701D01*
Y1122701D01*
Y1112701D01*
X1298460D01*
Y1098217D01*
X1308427D01*
Y1087750D01*
X1307358Y1086690D01*
X1305283D01*
Y1090141D01*
X1302332D01*
Y1090991D01*
X1302137Y1091976D01*
X1301579Y1092811D01*
X1295820Y1098570D01*
X1294985Y1099128D01*
X1294000Y1099323D01*
X1278066D01*
X1274073Y1103316D01*
Y1111499D01*
X1274024Y1111747D01*
Y1123023D01*
X1264976D01*
Y1103975D01*
X1268926D01*
Y1102250D01*
X1269122Y1101265D01*
X1269680Y1100430D01*
X1275180Y1094930D01*
X1276015Y1094372D01*
X1277000Y1094176D01*
X1292934D01*
X1295796Y1091314D01*
X1295310Y1090141D01*
X1294235D01*
Y1078093D01*
X1305283D01*
Y1081544D01*
X1309367D01*
X1310352Y1081739D01*
X1311187Y1082297D01*
X1312991Y1084102D01*
X1313549Y1084937D01*
X1313745Y1085922D01*
X1315015Y1086487D01*
X1315430Y1086209D01*
X1317000Y1085897D01*
X1318570Y1086209D01*
X1319901Y1087099D01*
X1320153Y1087476D01*
X1321680Y1087475D01*
X1322099Y1086849D01*
X1323430Y1085959D01*
X1325000Y1085647D01*
X1326570Y1085959D01*
X1327157Y1086351D01*
X1328427Y1085673D01*
Y1079719D01*
X1318934Y1070227D01*
X1314524D01*
Y1074750D01*
X1303476D01*
Y1062702D01*
X1302259Y1062573D01*
X1301741D01*
X1300524Y1062702D01*
X1300524Y1063844D01*
Y1074750D01*
X1289476D01*
Y1070948D01*
X1281066D01*
X1273266Y1078748D01*
X1273892Y1079919D01*
X1274000Y1079897D01*
X1275570Y1080210D01*
X1276901Y1081099D01*
X1277120Y1081426D01*
X1280235D01*
Y1078093D01*
X1291283D01*
Y1090141D01*
X1280235D01*
Y1086573D01*
X1277120D01*
X1276901Y1086901D01*
X1275570Y1087791D01*
X1274000Y1088103D01*
X1272430Y1087791D01*
X1271099Y1086901D01*
X1270210Y1085570D01*
X1269897Y1084000D01*
X1269919Y1083892D01*
X1268748Y1083266D01*
X1253073Y1098941D01*
Y1103975D01*
X1255024D01*
Y1123023D01*
X1245976D01*
Y1103975D01*
X1247926D01*
Y1098259D01*
X1246941Y1097731D01*
X1246694Y1097695D01*
X1245820Y1098570D01*
X1244985Y1099128D01*
X1244000Y1099323D01*
X1236370D01*
X1236138Y1099653D01*
X1235887Y1100593D01*
X1243647Y1108353D01*
X1244152Y1109109D01*
X1244329Y1110000D01*
Y1129035D01*
X1248463Y1133170D01*
X1255476D01*
Y1125975D01*
X1264524D01*
Y1145023D01*
X1262329D01*
Y1196035D01*
X1272965Y1206671D01*
X1284718D01*
X1285204Y1205498D01*
D02*
G37*
G36*
X1406971Y1199235D02*
Y1192360D01*
X1407148Y1191468D01*
X1407653Y1190713D01*
X1410421Y1187946D01*
X1409781Y1186789D01*
X1408033Y1186442D01*
X1407025Y1185768D01*
X1400524Y1192269D01*
Y1201024D01*
X1394089D01*
Y1204603D01*
X1394089Y1204603D01*
X1393930Y1205401D01*
X1393938Y1205537D01*
X1394653Y1206671D01*
X1399535D01*
X1406971Y1199235D01*
D02*
G37*
G36*
X1375476Y1199387D02*
Y1188976D01*
X1378671D01*
Y1185525D01*
X1375476D01*
Y1173477D01*
X1378671D01*
Y1169525D01*
X1375726D01*
Y1160986D01*
X1375681Y1160761D01*
Y1160275D01*
X1371197Y1155791D01*
X1370024Y1156277D01*
Y1165324D01*
X1357976D01*
Y1159769D01*
X1346032Y1147826D01*
X1343077D01*
Y1151035D01*
X1347647Y1155605D01*
X1347647Y1155605D01*
X1348152Y1156360D01*
X1348329Y1157252D01*
Y1163476D01*
X1352024D01*
Y1174524D01*
X1339976D01*
Y1163476D01*
X1343671D01*
Y1158216D01*
X1339102Y1153647D01*
X1338597Y1152891D01*
X1338420Y1152000D01*
Y1147781D01*
X1333540D01*
Y1162265D01*
X1333329D01*
Y1172976D01*
X1336524D01*
Y1185024D01*
X1333329D01*
Y1187976D01*
X1336524D01*
Y1191671D01*
X1360582D01*
X1361108Y1190401D01*
X1355035Y1184329D01*
X1352024D01*
Y1188524D01*
X1339976D01*
Y1177476D01*
X1352024D01*
Y1179671D01*
X1356000D01*
X1356891Y1179848D01*
X1357647Y1180353D01*
X1365647Y1188353D01*
X1365647Y1188353D01*
X1366151Y1189109D01*
X1366329Y1190000D01*
Y1191671D01*
X1368000D01*
X1368891Y1191849D01*
X1369647Y1192353D01*
X1370152Y1193109D01*
X1370329Y1194000D01*
Y1196035D01*
X1374206Y1199913D01*
X1375476Y1199387D01*
D02*
G37*
G36*
X1427726Y1184035D02*
Y1172726D01*
X1430677D01*
Y1172250D01*
X1430872Y1171265D01*
X1431430Y1170430D01*
X1438474Y1163387D01*
X1438397Y1163000D01*
X1438710Y1161430D01*
X1439599Y1160099D01*
X1440347Y1159599D01*
X1439962Y1158329D01*
X1428024D01*
Y1168524D01*
X1419269D01*
X1417257Y1170537D01*
X1417743Y1171710D01*
X1417980D01*
Y1178750D01*
X1419250D01*
Y1180020D01*
X1425790D01*
Y1184427D01*
X1426456Y1184756D01*
X1427726Y1184035D01*
D02*
G37*
G36*
X1403171Y1182308D02*
Y1179000D01*
X1403349Y1178109D01*
X1403853Y1177353D01*
X1408154Y1173053D01*
X1407785Y1171837D01*
X1407334Y1171748D01*
X1405666Y1170634D01*
X1404552Y1168967D01*
X1404414Y1168270D01*
X1409300D01*
Y1167000D01*
X1410570D01*
Y1162114D01*
X1411266Y1162252D01*
X1412934Y1163366D01*
X1413991Y1164948D01*
X1414230Y1165077D01*
X1415361Y1165350D01*
X1415976Y1164847D01*
Y1158329D01*
X1411284D01*
X1410901Y1158901D01*
X1409570Y1159790D01*
X1408000Y1160103D01*
X1406430Y1159790D01*
X1405099Y1158901D01*
X1404716Y1158329D01*
X1401790D01*
Y1162231D01*
X1395250D01*
Y1163501D01*
X1393980D01*
Y1170541D01*
X1389863D01*
Y1172461D01*
X1393730D01*
Y1179501D01*
X1395000D01*
Y1180771D01*
X1401540D01*
Y1181920D01*
X1402810Y1182569D01*
X1403171Y1182308D01*
D02*
G37*
G36*
X1466427Y1167209D02*
X1467997Y1166897D01*
X1469567Y1167209D01*
X1470012Y1167507D01*
X1471282Y1166828D01*
Y1153670D01*
X1478809D01*
Y1148332D01*
X1477539Y1147947D01*
X1476901Y1148901D01*
X1475570Y1149790D01*
X1474000Y1150103D01*
X1473163Y1149936D01*
X1464330Y1158769D01*
Y1167134D01*
X1465600Y1167762D01*
X1466427Y1167209D01*
D02*
G37*
G36*
X1389374Y1154353D02*
X1389374Y1154353D01*
X1390130Y1153848D01*
X1391021Y1153671D01*
X1391021Y1153671D01*
X1404716D01*
X1405099Y1153099D01*
X1406430Y1152209D01*
X1408000Y1151897D01*
X1409570Y1152209D01*
X1410901Y1153099D01*
X1411284Y1153671D01*
X1415976D01*
Y1147115D01*
X1414434Y1145574D01*
X1410120D01*
X1409901Y1145901D01*
X1408570Y1146790D01*
X1407000Y1147103D01*
X1405430Y1146790D01*
X1404467Y1146148D01*
X1403292D01*
X1401820Y1147620D01*
X1400985Y1148178D01*
X1400000Y1148373D01*
X1398524D01*
Y1151824D01*
X1387476D01*
Y1139776D01*
X1388884D01*
X1389411Y1138506D01*
X1387886Y1136981D01*
X1357085D01*
X1357067Y1137025D01*
X1356874Y1138251D01*
X1357388Y1138594D01*
X1359069Y1140276D01*
X1370024D01*
Y1143471D01*
X1373476D01*
Y1139776D01*
X1384524D01*
Y1151824D01*
X1375477D01*
X1374991Y1152997D01*
X1379470Y1157477D01*
X1386250D01*
X1389374Y1154353D01*
D02*
G37*
G36*
X1434476Y1119976D02*
X1436527D01*
Y1116274D01*
X1433976D01*
Y1107920D01*
X1432706Y1107394D01*
X1423869Y1116231D01*
Y1122977D01*
X1408631D01*
Y1120664D01*
X1403524D01*
Y1121524D01*
X1391478D01*
X1390580Y1122423D01*
X1394584Y1126427D01*
X1399880D01*
X1400099Y1126099D01*
X1401430Y1125210D01*
X1403000Y1124897D01*
X1404570Y1125210D01*
X1405901Y1126099D01*
X1406790Y1127430D01*
X1407103Y1129000D01*
X1406790Y1130570D01*
X1406708Y1130694D01*
X1407387Y1131964D01*
X1434476D01*
Y1119976D01*
D02*
G37*
G36*
X1388514Y1127636D02*
X1373452Y1112573D01*
X1366559D01*
X1365952Y1113843D01*
X1366748Y1115033D01*
X1366886Y1115730D01*
X1357114D01*
X1357252Y1115033D01*
X1358048Y1113843D01*
X1357441Y1112573D01*
X1353120D01*
X1352901Y1112901D01*
X1351570Y1113791D01*
X1350000Y1114103D01*
X1349294Y1113962D01*
X1348024Y1114930D01*
Y1121685D01*
X1349040D01*
Y1123971D01*
X1340500D01*
Y1126511D01*
X1349040D01*
Y1128573D01*
X1349214Y1128608D01*
X1349515Y1128809D01*
X1388028D01*
X1388514Y1127636D01*
D02*
G37*
G36*
X1391476Y1121523D02*
Y1110476D01*
X1403524D01*
Y1112969D01*
X1408631D01*
Y1110789D01*
X1418427D01*
X1430187Y1099029D01*
X1430187Y1099029D01*
X1431436Y1098195D01*
X1431798Y1098123D01*
X1431673Y1096853D01*
X1426408D01*
X1424838Y1096541D01*
X1423507Y1095651D01*
X1418067Y1090211D01*
X1408631D01*
Y1082443D01*
X1408595Y1082265D01*
X1402599Y1076268D01*
X1401709Y1074937D01*
X1401397Y1073367D01*
Y1061274D01*
X1388476D01*
Y1061103D01*
X1377000D01*
X1375430Y1060790D01*
X1374099Y1059901D01*
X1373210Y1058570D01*
X1372897Y1057000D01*
X1373210Y1055430D01*
X1374099Y1054099D01*
X1375430Y1053210D01*
X1377000Y1052897D01*
X1388476D01*
Y1052226D01*
X1401397D01*
Y1042274D01*
X1388476D01*
Y1041853D01*
X1382560D01*
X1381512Y1042901D01*
X1380181Y1043791D01*
X1378611Y1044103D01*
X1377041Y1043791D01*
X1375710Y1042901D01*
X1374820Y1041570D01*
X1374508Y1040000D01*
X1374820Y1038430D01*
X1375710Y1037099D01*
X1377959Y1034849D01*
X1379291Y1033960D01*
X1380861Y1033647D01*
X1388476D01*
Y1033226D01*
X1391147D01*
Y1027000D01*
Y1005892D01*
X1391460Y1004322D01*
X1392349Y1002991D01*
X1398523Y996817D01*
Y987381D01*
X1407903D01*
X1408389Y986208D01*
X1407011Y984830D01*
X1399683Y984830D01*
X1398347Y986166D01*
X1397180Y986650D01*
X1396900D01*
Y993750D01*
X1396416Y994917D01*
X1387166Y1004166D01*
X1386000Y1004650D01*
X1342210D01*
X1341044Y1004166D01*
X1340103Y1003226D01*
X1339978Y1002923D01*
X1339746Y1002691D01*
Y1002363D01*
X1339620Y1002060D01*
X1339746Y1001757D01*
Y1001429D01*
X1340272Y1000159D01*
X1340504Y999927D01*
X1340630Y999624D01*
X1340933Y999498D01*
X1341165Y999266D01*
X1341226D01*
Y981726D01*
X1368640D01*
Y981684D01*
X1369124Y980517D01*
X1382874Y966766D01*
Y928000D01*
X1383358Y926834D01*
X1384524Y926350D01*
X1420278D01*
X1420834Y925794D01*
X1422000Y925311D01*
X1423166Y925794D01*
X1431392Y934020D01*
X1431876Y935187D01*
Y946000D01*
X1431392Y947166D01*
X1430264Y948295D01*
X1430009Y948401D01*
X1429827Y948608D01*
X1429448Y948633D01*
X1429097Y948778D01*
X1428842Y948673D01*
X1428567Y948691D01*
X1428053Y948516D01*
X1426668Y949307D01*
X1426579Y949985D01*
X1426976Y950993D01*
X1427628Y951300D01*
X1428322Y951438D01*
X1428722Y951705D01*
X1429166Y951890D01*
X1429231Y952046D01*
X1429372Y952140D01*
X1429465Y952611D01*
X1429650Y953056D01*
Y954945D01*
X1430226Y955976D01*
X1430920Y955976D01*
X1433177D01*
Y933066D01*
X1423684Y923574D01*
X1299066D01*
X1273820Y948820D01*
X1272985Y949378D01*
X1272000Y949574D01*
X1168719D01*
X1168193Y950844D01*
X1197991Y980642D01*
X1198549Y981477D01*
X1198745Y982462D01*
Y984118D01*
X1198573Y984981D01*
Y1040934D01*
X1212303Y1054663D01*
X1213476Y1054177D01*
Y1051476D01*
X1222524D01*
Y1070524D01*
X1213476D01*
Y1063017D01*
X1213180Y1062820D01*
X1194180Y1043820D01*
X1193622Y1042985D01*
X1193427Y1042000D01*
Y984290D01*
X1193581Y983511D01*
X1165167Y955096D01*
X1164622Y955186D01*
X1164185Y956546D01*
X1190820Y983180D01*
X1191378Y984015D01*
X1191573Y985000D01*
Y1077280D01*
X1202803Y1088509D01*
X1203976Y1088023D01*
Y1073476D01*
X1213024D01*
Y1088885D01*
X1218316Y1094176D01*
X1242934D01*
X1277738Y1059373D01*
X1277212Y1058103D01*
X1262000D01*
X1260430Y1057791D01*
X1259099Y1056901D01*
X1258210Y1055570D01*
X1257897Y1054000D01*
X1258210Y1052430D01*
X1259099Y1051099D01*
X1260430Y1050210D01*
X1262000Y1049897D01*
X1329000D01*
X1330570Y1050210D01*
X1331901Y1051099D01*
X1332791Y1052430D01*
X1333103Y1054000D01*
X1332791Y1055570D01*
X1331901Y1056901D01*
X1330570Y1057791D01*
X1329000Y1058103D01*
X1310074D01*
X1309548Y1059373D01*
X1310820Y1060645D01*
X1311378Y1061480D01*
X1311573Y1062465D01*
Y1062702D01*
X1314524D01*
Y1065080D01*
X1320000D01*
X1320985Y1065276D01*
X1321820Y1065833D01*
X1332820Y1076833D01*
X1333378Y1077668D01*
X1333573Y1078653D01*
Y1107000D01*
X1333540Y1107168D01*
Y1112701D01*
X1345618D01*
X1346090Y1111818D01*
X1346182Y1111431D01*
X1345897Y1110000D01*
X1346210Y1108430D01*
X1347099Y1107099D01*
X1348430Y1106209D01*
X1350000Y1105897D01*
X1351570Y1106209D01*
X1352901Y1107099D01*
X1353120Y1107427D01*
X1374441D01*
X1374633Y1107197D01*
X1375110Y1106249D01*
X1374252Y1104967D01*
X1374114Y1104270D01*
X1377730D01*
Y1108169D01*
X1377241Y1109084D01*
X1390577Y1122420D01*
X1391476Y1121523D01*
D02*
G37*
G36*
X825353Y1082353D02*
X825353Y1082353D01*
X826109Y1081849D01*
X827000Y1081671D01*
X887035D01*
X888108Y1080599D01*
X887582Y1079329D01*
X824965D01*
X789647Y1114647D01*
X788891Y1115152D01*
X788000Y1115329D01*
X725250D01*
X724359Y1115152D01*
X723603Y1114647D01*
X711285Y1102329D01*
X453000D01*
X453000Y1102329D01*
X452109Y1102151D01*
X451353Y1101647D01*
X404035Y1054329D01*
X311500D01*
X311500Y1054329D01*
X310609Y1054152D01*
X309853Y1053647D01*
X309853Y1053647D01*
X306599Y1050392D01*
X305636Y1050655D01*
X305329Y1050873D01*
Y1053285D01*
X311715Y1059671D01*
X400000D01*
X400891Y1059848D01*
X401647Y1060353D01*
X446965Y1105671D01*
X707000D01*
X707891Y1105848D01*
X708647Y1106353D01*
X719965Y1117671D01*
X790035D01*
X825353Y1082353D01*
D02*
G37*
G36*
X1110108Y1073401D02*
X1108035Y1071329D01*
X1036024D01*
Y1074671D01*
X1109582D01*
X1110108Y1073401D01*
D02*
G37*
G36*
X942353Y1075353D02*
X943109Y1074848D01*
X944000Y1074671D01*
X944000Y1074671D01*
X1003767D01*
X1004976Y1074524D01*
Y1071329D01*
X962500D01*
X962500Y1071329D01*
X961609Y1071152D01*
X960853Y1070647D01*
X960485Y1070279D01*
X936274D01*
Y1073974D01*
X936274D01*
Y1074626D01*
X936274D01*
Y1078321D01*
X939385D01*
X942353Y1075353D01*
D02*
G37*
G36*
X913226Y1074626D02*
X913226D01*
Y1073974D01*
X913226D01*
Y1070279D01*
X899015D01*
X892242Y1077051D01*
X892768Y1078321D01*
X913226D01*
Y1074626D01*
D02*
G37*
G36*
X1449226Y1080587D02*
Y1068726D01*
X1450902D01*
Y1065094D01*
X1445906Y1060098D01*
X1445250D01*
X1445250Y1060098D01*
X1444878Y1060024D01*
X1433146D01*
X1432976Y1060024D01*
X1432742Y1060111D01*
X1432434Y1061581D01*
X1435204Y1064350D01*
X1445872D01*
X1446003Y1064405D01*
X1446142Y1064372D01*
X1446571Y1064640D01*
X1447039Y1064834D01*
X1447093Y1064965D01*
X1447213Y1065040D01*
X1448084Y1066256D01*
X1448129Y1066447D01*
X1448267Y1066585D01*
X1448267Y1067041D01*
X1448371Y1067485D01*
X1448267Y1067652D01*
X1448267Y1067848D01*
X1448062Y1068342D01*
X1447830Y1068574D01*
X1447705Y1068876D01*
X1447401Y1069002D01*
X1447169Y1069234D01*
X1446274Y1070269D01*
Y1080157D01*
X1446792Y1080372D01*
X1447359Y1080583D01*
X1448203Y1081370D01*
X1449226Y1080587D01*
D02*
G37*
G36*
X1023976Y1060115D02*
X1021434Y1057573D01*
X1017024D01*
Y1060524D01*
X1004976D01*
Y1049573D01*
X986524D01*
Y1052824D01*
X975476D01*
Y1040776D01*
X986524D01*
Y1044426D01*
X992328D01*
X992814Y1043253D01*
X986385Y1036824D01*
X975476D01*
Y1024776D01*
X986524D01*
Y1029685D01*
X997264Y1040424D01*
X1044921D01*
X1045600Y1039155D01*
X1045210Y1038570D01*
X1044897Y1037000D01*
X1045210Y1035430D01*
X1046099Y1034099D01*
X1046427Y1033880D01*
Y1030000D01*
X1046622Y1029015D01*
X1047180Y1028180D01*
X1051974Y1023387D01*
X1051897Y1023000D01*
X1052209Y1021430D01*
X1053099Y1020099D01*
X1054100Y1019430D01*
X1054471Y1018005D01*
X1044039Y1007573D01*
X954000D01*
X953015Y1007378D01*
X952180Y1006820D01*
X939684Y994324D01*
X937172D01*
X936274Y995221D01*
X936274Y998100D01*
X936274Y999044D01*
Y1009856D01*
X936274Y1010800D01*
X936274Y1011744D01*
Y1022556D01*
X936274Y1023500D01*
X936274Y1024444D01*
Y1035256D01*
X936274Y1036200D01*
X936274Y1037144D01*
Y1039977D01*
X944134D01*
X955130Y1028980D01*
X955965Y1028422D01*
X956950Y1028226D01*
X961476D01*
Y1024776D01*
X972524D01*
Y1036824D01*
X961476D01*
Y1033373D01*
X958016D01*
X947020Y1044370D01*
X946185Y1044928D01*
X945200Y1045124D01*
X936274D01*
Y1048574D01*
X936274D01*
Y1049226D01*
X936274D01*
Y1052677D01*
X947684D01*
X954380Y1045980D01*
X955215Y1045423D01*
X956200Y1045227D01*
X961476D01*
Y1040776D01*
X972524D01*
Y1052824D01*
X961476D01*
Y1050374D01*
X957266D01*
X950570Y1057070D01*
X949735Y1057628D01*
X948750Y1057823D01*
X937172D01*
X936274Y1058721D01*
X936274Y1061600D01*
X936274Y1062544D01*
Y1065621D01*
X961450D01*
X962341Y1065798D01*
X963097Y1066303D01*
X963465Y1066671D01*
X1004976D01*
Y1063476D01*
X1017024D01*
Y1066671D01*
X1023976D01*
Y1060115D01*
D02*
G37*
G36*
X1134098Y1089008D02*
X1133897Y1088000D01*
X1134016Y1087405D01*
X1126180Y1079570D01*
X1125622Y1078735D01*
X1125427Y1077750D01*
Y1064816D01*
X1122636Y1062026D01*
X1122250Y1062103D01*
X1120680Y1061790D01*
X1119349Y1060901D01*
X1118459Y1059570D01*
X1118147Y1058000D01*
X1118459Y1056430D01*
X1119349Y1055099D01*
X1120680Y1054210D01*
X1121263Y1054093D01*
X1121138Y1052823D01*
X1114841D01*
X1113856Y1052628D01*
X1113021Y1052070D01*
X1110501Y1049549D01*
X1048868D01*
X1048483Y1050819D01*
X1048901Y1051099D01*
X1049790Y1052430D01*
X1050103Y1054000D01*
X1049790Y1055570D01*
X1048901Y1056901D01*
X1047570Y1057791D01*
X1046000Y1058103D01*
X1045613Y1058026D01*
X1039820Y1063820D01*
X1038985Y1064378D01*
X1038000Y1064574D01*
X1036024D01*
Y1066671D01*
X1109000D01*
X1109891Y1066849D01*
X1110647Y1067353D01*
X1132927Y1089634D01*
X1134098Y1089008D01*
D02*
G37*
G36*
X1041974Y1054387D02*
X1041897Y1054000D01*
X1042209Y1052430D01*
X1043099Y1051099D01*
X1043481Y1050843D01*
X1043096Y1049573D01*
X1017024D01*
Y1052427D01*
X1022500D01*
X1023485Y1052623D01*
X1024320Y1053180D01*
X1027615Y1056476D01*
X1036024D01*
Y1058558D01*
X1037294Y1059067D01*
X1041974Y1054387D01*
D02*
G37*
G36*
X1170685Y1046495D02*
X1170540Y1046195D01*
X1170097Y1045899D01*
X1169878Y1045571D01*
X1115461D01*
X1114975Y1046745D01*
X1115907Y1047676D01*
X1170131D01*
X1170685Y1046495D01*
D02*
G37*
G36*
X1075620Y1039155D02*
X1060995Y1024529D01*
X1059570Y1024900D01*
X1058901Y1025901D01*
X1057570Y1026790D01*
X1056000Y1027103D01*
X1055613Y1027026D01*
X1051573Y1031066D01*
Y1033880D01*
X1051901Y1034099D01*
X1052791Y1035430D01*
X1053103Y1037000D01*
X1052791Y1038570D01*
X1052400Y1039155D01*
X1053079Y1040424D01*
X1075094D01*
X1075620Y1039155D01*
D02*
G37*
G36*
X1456976Y1058488D02*
Y1051540D01*
X1455960D01*
Y1046770D01*
X1465000D01*
Y1044230D01*
X1455960D01*
Y1039460D01*
X1456976D01*
Y1030976D01*
X1473024D01*
Y1031070D01*
X1474294Y1032038D01*
X1475000Y1031897D01*
X1476570Y1032209D01*
X1477901Y1033099D01*
X1478627Y1034185D01*
X1479877Y1033982D01*
X1479897Y1033974D01*
Y993625D01*
X1480210Y992055D01*
X1480916Y990998D01*
X1480478Y989728D01*
X1474925D01*
X1473355Y989416D01*
X1472024Y988526D01*
X1464972Y981474D01*
X1458726D01*
Y980203D01*
X1455274D01*
Y982274D01*
X1452353D01*
Y987299D01*
X1452041Y988869D01*
X1451151Y990200D01*
X1443477Y997874D01*
Y1002619D01*
X1432454D01*
X1431757Y1002619D01*
X1431190Y1003848D01*
X1431392Y1004051D01*
X1431876Y1005217D01*
Y1030566D01*
X1432976Y1030976D01*
X1433146Y1030976D01*
X1440652D01*
Y1013750D01*
X1440726Y1013378D01*
Y1005976D01*
X1451774D01*
Y1018024D01*
X1448348D01*
Y1030976D01*
X1449024D01*
Y1041024D01*
X1433146D01*
X1432976Y1041024D01*
X1431876Y1041433D01*
Y1049566D01*
X1432976Y1049976D01*
X1433146Y1049976D01*
X1449024D01*
Y1052729D01*
X1450221Y1053529D01*
X1455706Y1059014D01*
X1456976Y1058488D01*
D02*
G37*
G36*
X1411804Y1022559D02*
X1412210Y1022390D01*
X1413226D01*
Y1012788D01*
X1413145Y1011605D01*
X1412632Y1011347D01*
X1412100Y1011126D01*
X1412075Y1011066D01*
X1412017Y1011037D01*
X1411188Y1010075D01*
X1411168Y1010014D01*
X1411112Y1009980D01*
X1410972Y1009422D01*
X1410792Y1008876D01*
X1410822Y1008819D01*
X1410806Y1008755D01*
X1411355Y1005063D01*
X1411412Y1003599D01*
X1410179Y1002619D01*
X1404325D01*
X1399353Y1007591D01*
Y1010976D01*
X1410274D01*
Y1021964D01*
X1411048Y1022429D01*
X1411544Y1022596D01*
X1411804Y1022559D01*
D02*
G37*
G36*
X1075986Y1030445D02*
X1075897Y1030000D01*
X1076209Y1028430D01*
X1077099Y1027099D01*
X1078430Y1026209D01*
X1080000Y1025897D01*
X1094436D01*
X1094922Y1024724D01*
X1072301Y1002103D01*
X1047598D01*
X1047281Y1002611D01*
X1047117Y1003373D01*
X1074815Y1031071D01*
X1075986Y1030445D01*
D02*
G37*
G36*
X781455Y990251D02*
Y984810D01*
X780185Y984212D01*
X779320Y984790D01*
X777750Y985103D01*
X776180Y984790D01*
X774849Y983901D01*
X774630Y983573D01*
X769700D01*
X768715Y983378D01*
X767880Y982820D01*
X767544Y982483D01*
X766274Y983009D01*
X766274Y985400D01*
X766274Y986344D01*
Y997156D01*
X766274Y998100D01*
X766274Y999044D01*
Y1002121D01*
X769585D01*
X781455Y990251D01*
D02*
G37*
G36*
X1447502Y1082972D02*
X1446234Y1081790D01*
X1442020D01*
Y1074750D01*
X1440750D01*
D01*
X1442020D01*
Y1067710D01*
X1446538Y1067710D01*
X1446743Y1067216D01*
X1445872Y1066000D01*
X1434520D01*
X1430000Y1061480D01*
X1430226Y1061254D01*
Y1005217D01*
X1428000Y1002991D01*
Y953056D01*
X1426730Y952803D01*
X1426204Y954074D01*
X1424194Y956694D01*
X1421574Y958704D01*
X1418524Y959967D01*
X1416520Y960231D01*
Y947750D01*
Y935269D01*
X1418524Y935533D01*
X1421574Y936796D01*
X1424194Y938806D01*
X1426204Y941426D01*
X1427467Y944476D01*
X1427757Y946674D01*
X1429097Y947129D01*
X1430226Y946000D01*
Y935187D01*
X1422000Y926961D01*
X1420961Y928000D01*
X1384524D01*
Y967450D01*
X1370290Y981684D01*
Y989480D01*
X1355250D01*
Y990750D01*
X1353980D01*
Y1000790D01*
X1341796D01*
X1341270Y1002060D01*
X1342210Y1003000D01*
X1386000D01*
X1395250Y993750D01*
Y985000D01*
X1397180D01*
X1399000Y983180D01*
X1407694Y983180D01*
X1413625Y989111D01*
X1413000Y1005217D01*
X1412437Y1008998D01*
X1413267Y1009960D01*
X1417480D01*
Y1017000D01*
Y1024040D01*
X1412210D01*
X1411916Y1025188D01*
Y1041710D01*
X1416980D01*
Y1047250D01*
Y1052790D01*
X1412061D01*
X1411916Y1054060D01*
X1411916Y1070674D01*
X1419397Y1078023D01*
X1423869D01*
Y1082710D01*
X1428000Y1087184D01*
X1447497D01*
X1447502Y1082972D01*
D02*
G37*
G36*
X774849Y978099D02*
X776180Y977209D01*
X777750Y976897D01*
X779320Y977209D01*
X780185Y977788D01*
X781455Y977190D01*
Y971610D01*
X780185Y970867D01*
X779000Y971103D01*
X777430Y970790D01*
X776099Y969901D01*
X775880Y969573D01*
X766274D01*
Y972374D01*
X766274D01*
Y973026D01*
X766274D01*
Y976477D01*
X767750D01*
X768735Y976672D01*
X769570Y977230D01*
X770766Y978427D01*
X774630D01*
X774849Y978099D01*
D02*
G37*
G36*
X897427Y1054934D02*
Y985400D01*
X897622Y984415D01*
X898180Y983580D01*
X903374Y978387D01*
X903297Y978000D01*
X903609Y976430D01*
X904499Y975099D01*
X905830Y974210D01*
X907400Y973897D01*
X908970Y974210D01*
X910301Y975099D01*
X911190Y976430D01*
X911503Y978000D01*
X911190Y979570D01*
X910301Y980901D01*
X908970Y981790D01*
X907400Y982103D01*
X907013Y982026D01*
X902573Y986466D01*
Y1028096D01*
X903844Y1028481D01*
X904099Y1028099D01*
X905430Y1027209D01*
X907000Y1026897D01*
X908570Y1027209D01*
X909901Y1028099D01*
X910790Y1029430D01*
X911103Y1031000D01*
X910790Y1032570D01*
X910257Y1033368D01*
X911956Y1035067D01*
X913226Y1034540D01*
Y1024444D01*
X913226Y1023500D01*
X913226Y1022556D01*
Y1011744D01*
X913226Y1010800D01*
X913226Y1009856D01*
Y999044D01*
X913226Y998100D01*
X913226Y997156D01*
Y986344D01*
X913226Y985400D01*
X913226Y984456D01*
Y973644D01*
X913226Y972700D01*
X913226Y971756D01*
Y968923D01*
X908466D01*
X894573Y982816D01*
Y1052000D01*
X894378Y1052985D01*
X893820Y1053820D01*
X883820Y1063820D01*
X882985Y1064378D01*
X882000Y1064574D01*
X821059D01*
X820552Y1065154D01*
X821130Y1066424D01*
X885936D01*
X897427Y1054934D01*
D02*
G37*
G36*
X889426Y1050934D02*
Y981750D01*
X889622Y980765D01*
X890180Y979930D01*
X905580Y964530D01*
X906415Y963972D01*
X907400Y963777D01*
X913226D01*
Y960326D01*
X913226D01*
Y959674D01*
X913226D01*
Y956224D01*
X901416D01*
X886773Y970866D01*
Y1047800D01*
X886578Y1048785D01*
X886020Y1049620D01*
X877820Y1057820D01*
X877316Y1058157D01*
X877701Y1059427D01*
X880934D01*
X889426Y1050934D01*
D02*
G37*
G36*
X743226Y937478D02*
X743226Y934600D01*
X743226Y933656D01*
Y930824D01*
X719120D01*
X718901Y931151D01*
X718010Y931747D01*
X717875Y933093D01*
X717912Y933223D01*
X723066Y938377D01*
X742328D01*
X743226Y937478D01*
D02*
G37*
G36*
X634614Y924503D02*
X625606Y915495D01*
X625015Y915378D01*
X624180Y914820D01*
X623622Y913985D01*
X623427Y913000D01*
Y911524D01*
X620830D01*
X620445Y912794D01*
X620901Y913099D01*
X621791Y914430D01*
X622103Y916000D01*
X621791Y917570D01*
X620901Y918901D01*
X619570Y919790D01*
X618000Y920103D01*
X616430Y919790D01*
X615099Y918901D01*
X614880Y918573D01*
X610629D01*
X609873Y919844D01*
X610103Y921000D01*
X609790Y922570D01*
X608901Y923901D01*
X608145Y924407D01*
X608530Y925677D01*
X634128D01*
X634614Y924503D01*
D02*
G37*
%LPC*%
G36*
X1323540Y1201040D02*
X1318270D01*
Y1195270D01*
X1323540D01*
Y1201040D01*
D02*
G37*
G36*
X1315730D02*
X1310460D01*
Y1195270D01*
X1315730D01*
Y1201040D01*
D02*
G37*
G36*
X1323540Y1192730D02*
X1317000D01*
X1310460D01*
Y1187310D01*
X1310460Y1186960D01*
Y1186040D01*
X1310460Y1185690D01*
Y1180270D01*
X1317000D01*
X1323540D01*
Y1185690D01*
X1323540Y1186040D01*
Y1186960D01*
X1323540Y1187310D01*
Y1192730D01*
D02*
G37*
G36*
X1425790Y1177480D02*
X1420520D01*
Y1171710D01*
X1425790D01*
Y1177480D01*
D02*
G37*
G36*
X1401540Y1178231D02*
X1396270D01*
Y1172461D01*
X1401540D01*
Y1178231D01*
D02*
G37*
G36*
X1401790Y1170541D02*
X1396520D01*
Y1164771D01*
X1401790D01*
Y1170541D01*
D02*
G37*
G36*
X1408030Y1165730D02*
X1404414D01*
X1404552Y1165033D01*
X1405666Y1163366D01*
X1407334Y1162252D01*
X1408030Y1162114D01*
Y1165730D01*
D02*
G37*
G36*
X1363270Y1121886D02*
Y1118270D01*
X1366886D01*
X1366748Y1118967D01*
X1365634Y1120634D01*
X1363967Y1121748D01*
X1363270Y1121886D01*
D02*
G37*
G36*
X1360730D02*
X1360034Y1121748D01*
X1358366Y1120634D01*
X1357252Y1118967D01*
X1357114Y1118270D01*
X1360730D01*
Y1121886D01*
D02*
G37*
G36*
X1416270Y1107886D02*
Y1104270D01*
X1419886D01*
X1419748Y1104967D01*
X1418634Y1106634D01*
X1416967Y1107748D01*
X1416270Y1107886D01*
D02*
G37*
G36*
X1413730D02*
X1413033Y1107748D01*
X1411366Y1106634D01*
X1410252Y1104967D01*
X1410114Y1104270D01*
X1413730D01*
Y1107886D01*
D02*
G37*
G36*
X1380270D02*
Y1104270D01*
X1383886D01*
X1383748Y1104967D01*
X1382634Y1106634D01*
X1380966Y1107748D01*
X1380270Y1107886D01*
D02*
G37*
G36*
X1404540Y1108540D02*
X1398770D01*
Y1103270D01*
X1404540D01*
Y1108540D01*
D02*
G37*
G36*
X1396230D02*
X1390460D01*
Y1103270D01*
X1396230D01*
Y1108540D01*
D02*
G37*
G36*
X1342270Y1105686D02*
Y1102070D01*
X1345886D01*
X1345748Y1102766D01*
X1344634Y1104434D01*
X1342966Y1105548D01*
X1342270Y1105686D01*
D02*
G37*
G36*
X1339730D02*
X1339034Y1105548D01*
X1337366Y1104434D01*
X1336252Y1102766D01*
X1336114Y1102070D01*
X1339730D01*
Y1105686D01*
D02*
G37*
G36*
X1419886Y1101730D02*
X1416270D01*
Y1098114D01*
X1416967Y1098252D01*
X1418634Y1099366D01*
X1419748Y1101033D01*
X1419886Y1101730D01*
D02*
G37*
G36*
X1413730D02*
X1410114D01*
X1410252Y1101033D01*
X1411366Y1099366D01*
X1413033Y1098252D01*
X1413730Y1098114D01*
Y1101730D01*
D02*
G37*
G36*
X1383886D02*
X1380270D01*
Y1098114D01*
X1380966Y1098252D01*
X1382634Y1099366D01*
X1383748Y1101033D01*
X1383886Y1101730D01*
D02*
G37*
G36*
X1377730D02*
X1374114D01*
X1374252Y1101033D01*
X1375366Y1099366D01*
X1377034Y1098252D01*
X1377730Y1098114D01*
Y1101730D01*
D02*
G37*
G36*
X1345886Y1099530D02*
X1342270D01*
Y1095914D01*
X1342966Y1096052D01*
X1344634Y1097166D01*
X1345748Y1098833D01*
X1345886Y1099530D01*
D02*
G37*
G36*
X1339730D02*
X1336114D01*
X1336252Y1098833D01*
X1337366Y1097166D01*
X1339034Y1096052D01*
X1339730Y1095914D01*
Y1099530D01*
D02*
G37*
G36*
X1404540Y1100730D02*
X1398770D01*
Y1095460D01*
X1404540D01*
Y1100730D01*
D02*
G37*
G36*
X1396230D02*
X1390460D01*
Y1095460D01*
X1396230D01*
Y1100730D01*
D02*
G37*
G36*
X1398769Y1090886D02*
Y1087270D01*
X1402386D01*
X1402247Y1087967D01*
X1401133Y1089634D01*
X1399466Y1090748D01*
X1398769Y1090886D01*
D02*
G37*
G36*
X1396229D02*
X1395533Y1090748D01*
X1393866Y1089634D01*
X1392752Y1087967D01*
X1392613Y1087270D01*
X1396229D01*
Y1090886D01*
D02*
G37*
G36*
X1402386Y1084730D02*
X1398769D01*
Y1081114D01*
X1399466Y1081252D01*
X1401133Y1082366D01*
X1402247Y1084034D01*
X1402386Y1084730D01*
D02*
G37*
G36*
X1396229D02*
X1392613D01*
X1392752Y1084034D01*
X1393866Y1082366D01*
X1395533Y1081252D01*
X1396229Y1081114D01*
Y1084730D01*
D02*
G37*
G36*
X1232024Y1092524D02*
X1222976D01*
Y1073476D01*
X1232024D01*
Y1080426D01*
X1239880D01*
X1240099Y1080099D01*
X1241430Y1079210D01*
X1243000Y1078897D01*
X1244570Y1079210D01*
X1245901Y1080099D01*
X1246790Y1081430D01*
X1247103Y1083000D01*
X1246790Y1084570D01*
X1245901Y1085901D01*
X1244570Y1086790D01*
X1243000Y1087103D01*
X1241430Y1086790D01*
X1240099Y1085901D01*
X1239880Y1085573D01*
X1232024D01*
Y1092524D01*
D02*
G37*
G36*
X1340270Y1071886D02*
Y1068270D01*
X1343886D01*
X1343748Y1068967D01*
X1342634Y1070634D01*
X1340966Y1071748D01*
X1340270Y1071886D01*
D02*
G37*
G36*
X1337730D02*
X1337034Y1071748D01*
X1335366Y1070634D01*
X1334252Y1068967D01*
X1334114Y1068270D01*
X1337730D01*
Y1071886D01*
D02*
G37*
G36*
X1343886Y1065730D02*
X1340270D01*
Y1062114D01*
X1340966Y1062252D01*
X1342634Y1063366D01*
X1343748Y1065033D01*
X1343886Y1065730D01*
D02*
G37*
G36*
X1337730D02*
X1334114D01*
X1334252Y1065033D01*
X1335366Y1063366D01*
X1337034Y1062252D01*
X1337730Y1062114D01*
Y1065730D01*
D02*
G37*
G36*
X1350000Y1069103D02*
X1348430Y1068791D01*
X1347099Y1067901D01*
X1346210Y1066570D01*
X1345897Y1065000D01*
X1346210Y1063430D01*
X1347099Y1062099D01*
X1347426Y1061880D01*
Y1051066D01*
X1344023Y1047662D01*
X1342864Y1048299D01*
X1343103Y1049500D01*
X1342791Y1051070D01*
X1341901Y1052401D01*
X1340570Y1053290D01*
X1339000Y1053603D01*
X1337430Y1053290D01*
X1336099Y1052401D01*
X1331801Y1048103D01*
X1259000D01*
X1257430Y1047791D01*
X1256099Y1046901D01*
X1255210Y1045570D01*
X1254897Y1044000D01*
X1255210Y1042430D01*
X1256099Y1041099D01*
X1257430Y1040210D01*
X1257866Y1040123D01*
X1257740Y1038853D01*
X1209750D01*
X1208180Y1038540D01*
X1206849Y1037651D01*
X1202099Y1032901D01*
X1201209Y1031570D01*
X1200897Y1030000D01*
X1201209Y1028430D01*
X1202099Y1027099D01*
X1203430Y1026209D01*
X1205000Y1025897D01*
X1206570Y1026209D01*
X1207901Y1027099D01*
X1211449Y1030647D01*
X1239185D01*
X1239671Y1029474D01*
X1225726Y1015528D01*
X1225000Y1015623D01*
X1221992Y1015227D01*
X1219188Y1014066D01*
X1216781Y1012219D01*
X1214934Y1009812D01*
X1213773Y1007008D01*
X1213377Y1004000D01*
X1213773Y1000992D01*
X1214934Y998188D01*
X1216781Y995781D01*
X1219188Y993934D01*
X1221992Y992773D01*
X1225000Y992377D01*
X1228008Y992773D01*
X1230812Y993934D01*
X1233219Y995781D01*
X1235066Y998188D01*
X1236227Y1000992D01*
X1236623Y1004000D01*
X1236227Y1007008D01*
X1235066Y1009812D01*
X1233567Y1011765D01*
X1252449Y1030647D01*
X1325551D01*
X1326897Y1029301D01*
Y1021024D01*
X1326476D01*
Y1008976D01*
X1326897D01*
Y978000D01*
X1327209Y976430D01*
X1328099Y975099D01*
X1338099Y965099D01*
X1339430Y964210D01*
X1341000Y963897D01*
X1341226D01*
Y959226D01*
X1369274D01*
Y977274D01*
X1341226D01*
Y975236D01*
X1340053Y974750D01*
X1335103Y979699D01*
Y1008976D01*
X1337524D01*
Y1021024D01*
X1335103D01*
Y1031000D01*
X1334823Y1032406D01*
X1335017Y1032993D01*
X1335382Y1033677D01*
X1336250D01*
X1337235Y1033872D01*
X1338070Y1034430D01*
X1351820Y1048180D01*
X1352378Y1049015D01*
X1352573Y1050000D01*
Y1061880D01*
X1352901Y1062099D01*
X1353790Y1063430D01*
X1354103Y1065000D01*
X1353790Y1066570D01*
X1352901Y1067901D01*
X1351570Y1068791D01*
X1350000Y1069103D01*
D02*
G37*
G36*
X1385170Y1019886D02*
Y1016270D01*
X1388786D01*
X1388648Y1016966D01*
X1387534Y1018634D01*
X1385867Y1019748D01*
X1385170Y1019886D01*
D02*
G37*
G36*
X1382630D02*
X1381933Y1019748D01*
X1380266Y1018634D01*
X1379152Y1016966D01*
X1379014Y1016270D01*
X1382630D01*
Y1019886D01*
D02*
G37*
G36*
X1362270D02*
Y1016270D01*
X1365886D01*
X1365748Y1016966D01*
X1364634Y1018634D01*
X1362966Y1019748D01*
X1362270Y1019886D01*
D02*
G37*
G36*
X1359730D02*
X1359034Y1019748D01*
X1357366Y1018634D01*
X1356252Y1016966D01*
X1356114Y1016270D01*
X1359730D01*
Y1019886D01*
D02*
G37*
G36*
X1352540Y1022040D02*
X1347270D01*
Y1016270D01*
X1352540D01*
Y1022040D01*
D02*
G37*
G36*
X1344730D02*
X1339460D01*
Y1016270D01*
X1344730D01*
Y1022040D01*
D02*
G37*
G36*
X1388786Y1013730D02*
X1385170D01*
Y1010114D01*
X1385867Y1010252D01*
X1387534Y1011366D01*
X1388648Y1013034D01*
X1388786Y1013730D01*
D02*
G37*
G36*
X1382630D02*
X1379014D01*
X1379152Y1013034D01*
X1380266Y1011366D01*
X1381933Y1010252D01*
X1382630Y1010114D01*
Y1013730D01*
D02*
G37*
G36*
X1365886D02*
X1362270D01*
Y1010114D01*
X1362966Y1010252D01*
X1364634Y1011366D01*
X1365748Y1013034D01*
X1365886Y1013730D01*
D02*
G37*
G36*
X1359730D02*
X1356114D01*
X1356252Y1013034D01*
X1357366Y1011366D01*
X1359034Y1010252D01*
X1359730Y1010114D01*
Y1013730D01*
D02*
G37*
G36*
X1352540Y1013730D02*
X1347270D01*
Y1007960D01*
X1352540D01*
Y1013730D01*
D02*
G37*
G36*
X1344730D02*
X1339460D01*
Y1007960D01*
X1344730D01*
Y1013730D01*
D02*
G37*
G36*
X1370290Y955790D02*
X1356520D01*
Y947020D01*
X1370290D01*
Y955790D01*
D02*
G37*
G36*
X1353980D02*
X1340210D01*
Y947020D01*
X1353980D01*
Y955790D01*
D02*
G37*
G36*
X1317750Y989900D02*
X1287750D01*
X1287447Y989774D01*
X1284976D01*
Y946726D01*
X1287447D01*
X1287750Y946600D01*
X1317750D01*
X1318053Y946726D01*
X1320524D01*
Y989774D01*
X1318053D01*
X1317750Y989900D01*
D02*
G37*
G36*
X1370290Y944480D02*
X1356520D01*
Y935710D01*
X1370290D01*
Y944480D01*
D02*
G37*
G36*
X1353980D02*
X1340210D01*
Y935710D01*
X1353980D01*
Y944480D01*
D02*
G37*
G36*
X1466790Y1019040D02*
X1461520D01*
Y1013270D01*
X1466790D01*
Y1019040D01*
D02*
G37*
G36*
X1458980D02*
X1453710D01*
Y1013270D01*
X1458980D01*
Y1019040D01*
D02*
G37*
G36*
X1466790Y1010730D02*
X1461520D01*
Y1004960D01*
X1466790D01*
Y1010730D01*
D02*
G37*
G36*
X1458980D02*
X1453710D01*
Y1004960D01*
X1458980D01*
Y1010730D01*
D02*
G37*
G36*
X1470270Y1003261D02*
Y999645D01*
X1473886D01*
X1473748Y1000341D01*
X1472634Y1002009D01*
X1470966Y1003123D01*
X1470270Y1003261D01*
D02*
G37*
G36*
X1467730D02*
X1467034Y1003123D01*
X1465366Y1002009D01*
X1464252Y1000341D01*
X1464114Y999645D01*
X1467730D01*
Y1003261D01*
D02*
G37*
G36*
X1454397D02*
Y999645D01*
X1458013D01*
X1457874Y1000341D01*
X1456760Y1002009D01*
X1455093Y1003123D01*
X1454397Y1003261D01*
D02*
G37*
G36*
X1451857D02*
X1451160Y1003123D01*
X1449493Y1002009D01*
X1448379Y1000341D01*
X1448241Y999645D01*
X1451857D01*
Y1003261D01*
D02*
G37*
G36*
X1473886Y997105D02*
X1470270D01*
Y993489D01*
X1470966Y993627D01*
X1472634Y994741D01*
X1473748Y996408D01*
X1473886Y997105D01*
D02*
G37*
G36*
X1467730D02*
X1464114D01*
X1464252Y996408D01*
X1465366Y994741D01*
X1467034Y993627D01*
X1467730Y993489D01*
Y997105D01*
D02*
G37*
G36*
X1451857D02*
X1448241D01*
X1448379Y996408D01*
X1449493Y994741D01*
X1451160Y993627D01*
X1451857Y993489D01*
Y997105D01*
D02*
G37*
G36*
X1461520Y994886D02*
Y991270D01*
X1465136D01*
X1464998Y991966D01*
X1463884Y993634D01*
X1462216Y994748D01*
X1461520Y994886D01*
D02*
G37*
G36*
X1458013Y997105D02*
X1454397D01*
Y993489D01*
X1455083Y993625D01*
X1455117Y993603D01*
X1455994Y992702D01*
X1455502Y991966D01*
X1455364Y991270D01*
X1458980D01*
Y994886D01*
X1458293Y994750D01*
X1458259Y994772D01*
X1457383Y995673D01*
X1457874Y996408D01*
X1458013Y997105D01*
D02*
G37*
G36*
X1465136Y988730D02*
X1461520D01*
Y985114D01*
X1462216Y985252D01*
X1463884Y986366D01*
X1464998Y988034D01*
X1465136Y988730D01*
D02*
G37*
G36*
X1458980D02*
X1455364D01*
X1455502Y988034D01*
X1456616Y986366D01*
X1458284Y985252D01*
X1458980Y985114D01*
Y988730D01*
D02*
G37*
G36*
X1439480Y1081790D02*
X1434210D01*
Y1076020D01*
X1439480D01*
Y1081790D01*
D02*
G37*
G36*
Y1073480D02*
X1434210D01*
Y1067710D01*
X1439480D01*
Y1073480D01*
D02*
G37*
G36*
X1426040Y1052790D02*
X1419520D01*
Y1048520D01*
X1426040D01*
Y1052790D01*
D02*
G37*
G36*
Y1045980D02*
X1419520D01*
Y1041710D01*
X1426040D01*
Y1045980D01*
D02*
G37*
G36*
X1420020Y1024040D02*
Y1018270D01*
X1425290D01*
Y1024040D01*
X1420020D01*
D02*
G37*
G36*
X1425290Y1015730D02*
X1420020D01*
Y1009960D01*
X1425290D01*
Y1015730D01*
D02*
G37*
G36*
X1370290Y1000790D02*
X1356520D01*
Y992020D01*
X1370290D01*
Y1000790D01*
D02*
G37*
G36*
X1413980Y960231D02*
X1411976Y959967D01*
X1408926Y958704D01*
X1406306Y956694D01*
X1404296Y954074D01*
X1403033Y951024D01*
X1402769Y949020D01*
X1413980D01*
Y960231D01*
D02*
G37*
G36*
Y946480D02*
X1402769D01*
X1403033Y944476D01*
X1404296Y941426D01*
X1406306Y938806D01*
X1408926Y936796D01*
X1411976Y935533D01*
X1413980Y935269D01*
Y946480D01*
D02*
G37*
%LPD*%
D10*
X1343000Y1201000D02*
X1364000D01*
X1395000Y1163751D02*
Y1179001D01*
X1402581Y1171419D02*
X1404881D01*
X1395000Y1179001D02*
X1402581Y1171419D01*
X1395000Y1179001D02*
Y1179501D01*
X1404881Y1171419D02*
X1409300Y1167000D01*
X1395000Y1163751D02*
X1395250Y1163501D01*
X1410000Y1181694D02*
X1416500D01*
X1419250Y1178944D01*
Y1178750D02*
Y1178944D01*
X1433250Y1178250D02*
Y1178750D01*
X1208500Y1083000D02*
Y1088000D01*
X1309000Y1068726D02*
X1310073Y1067653D01*
D12*
X1465000Y1036000D02*
X1475000D01*
X1465000Y1036000D02*
X1465000Y1036000D01*
D13*
X1378010Y1160761D02*
X1381000Y1163751D01*
X1280000Y1173000D02*
Y1197000D01*
Y1173000D02*
X1280750Y1172250D01*
X1280000Y1197000D02*
X1289409Y1206409D01*
X1385998D01*
X1386407Y1206000D01*
X1390363D01*
X1391760Y1204603D01*
Y1198240D02*
Y1204603D01*
Y1198240D02*
X1395000Y1195000D01*
X1400500Y1209000D02*
X1409300Y1200200D01*
X1272000Y1209000D02*
X1400500D01*
X1260000Y1197000D02*
X1272000Y1209000D01*
X1409300Y1192360D02*
Y1200200D01*
Y1192360D02*
X1414100Y1187560D01*
X1430565D01*
X1395000Y1194500D02*
X1405500Y1184000D01*
Y1179000D02*
Y1184000D01*
Y1179000D02*
X1421500Y1163000D01*
X1422000D01*
X1395000Y1194500D02*
Y1195000D01*
X1340500Y1140241D02*
X1355741D01*
X1319216Y1169784D02*
X1326000Y1163000D01*
X1308216Y1169784D02*
X1319216D01*
X1305750Y1172250D02*
X1308216Y1169784D01*
X1346997Y1145497D02*
X1360500Y1159000D01*
X1340756Y1145497D02*
X1346997D01*
X1340748Y1145489D02*
X1340756Y1145497D01*
X1360500Y1159000D02*
X1361000D01*
X1326000Y1154741D02*
Y1163000D01*
X1294750Y1172250D02*
X1305750D01*
X1381000Y1179501D02*
Y1195000D01*
X1364000Y1194000D02*
X1368000D01*
X1387534Y1159487D02*
Y1201466D01*
X1385000Y1204000D02*
X1387534Y1201466D01*
X1375000Y1204000D02*
X1385000D01*
X1368000Y1197000D02*
X1375000Y1204000D01*
X1368000Y1194000D02*
Y1197000D01*
X770550Y1004450D02*
X783784Y991216D01*
X754750Y1004450D02*
X770550D01*
X783784Y955354D02*
Y991216D01*
X783000Y954570D02*
X783784Y955354D01*
X783000Y940000D02*
Y954570D01*
X1430565Y1187560D02*
X1433125Y1185000D01*
Y1178875D02*
Y1185000D01*
Y1178875D02*
X1433250Y1178750D01*
X1331000Y1190000D02*
X1335000Y1194000D01*
X1442800Y1156000D02*
X1450400Y1148400D01*
X1364000Y1190000D02*
Y1194000D01*
X1335000D02*
X1364000D01*
Y1145800D02*
X1364000Y1145800D01*
X1379000D01*
X1408000Y1156000D02*
X1442800D01*
X1391021D02*
X1408000D01*
X1387534Y1159487D02*
X1391021Y1156000D01*
X1378010Y1159310D02*
Y1160761D01*
X1364500Y1145800D02*
X1378010Y1159310D01*
X1364000Y1145800D02*
X1364500D01*
X1381000Y1163751D02*
Y1179501D01*
X1340748Y1145489D02*
Y1152000D01*
X1340500Y1145241D02*
X1340748Y1145489D01*
Y1152000D02*
X1346000Y1157252D01*
Y1169000D01*
X1347000Y1182000D02*
X1356000D01*
X1346000Y1183000D02*
X1347000Y1182000D01*
X1356000D02*
X1364000Y1190000D01*
X1331000Y1179000D02*
Y1190000D01*
X1360500Y1145000D02*
X1361000D01*
X1355741Y1140241D02*
X1360500Y1145000D01*
X1331000Y1154741D02*
Y1175000D01*
X1260000Y1135499D02*
Y1197000D01*
X1148750Y1107000D02*
X1157250D01*
X1146750Y1105000D02*
X1148750Y1107000D01*
X944000Y1077000D02*
X1031000D01*
X962500Y1069000D02*
X1109000D01*
X1132000Y1092000D02*
Y1100000D01*
X1109000Y1069000D02*
X1132000Y1092000D01*
X1031000Y1077000D02*
X1111000D01*
X1128000Y1094000D02*
Y1101000D01*
X1111000Y1077000D02*
X1128000Y1094000D01*
X961450Y1067950D02*
X962500Y1069000D01*
X303000Y995000D02*
Y1054250D01*
Y995000D02*
X310000Y988000D01*
X322000D01*
X303000Y1054250D02*
X310750Y1062000D01*
X308000Y1048500D02*
X311500Y1052000D01*
X308000Y1018250D02*
Y1048500D01*
Y1018250D02*
X312000Y1014250D01*
X311500Y1052000D02*
X405000D01*
X310750Y1062000D02*
X400000D01*
X446000Y1108000D01*
X707000D01*
X719000Y1120000D01*
X791000D01*
X827000Y1084000D01*
X888000D01*
X891350Y1080650D01*
X924750D01*
X312000Y1014250D02*
X321150D01*
X322000Y1013400D01*
X405000Y1052000D02*
X453000Y1100000D01*
X712250D01*
X725250Y1113000D01*
X788000D01*
X824000Y1077000D01*
X889000D01*
X898050Y1067950D01*
X924750D01*
X1242000Y1110000D02*
Y1130000D01*
X1234000Y1102000D02*
X1242000Y1110000D01*
X1213000Y1102000D02*
X1234000D01*
X1242000Y1130000D02*
X1247499Y1135499D01*
X1189000Y1078000D02*
X1213000Y1102000D01*
X1247499Y1135499D02*
X1260000D01*
X1128000Y1101000D02*
X1135000Y1108000D01*
X1132000Y1100000D02*
X1137000Y1105000D01*
X1171500Y1119000D02*
X1172000Y1118500D01*
X1160000Y1119000D02*
X1171500D01*
X1146998Y1111998D02*
Y1115998D01*
X1143000Y1108000D02*
X1146998Y1111998D01*
X1135000Y1108000D02*
X1143000D01*
X1137000Y1105000D02*
X1146750D01*
X940350Y1080650D02*
X944000Y1077000D01*
X924750Y1080650D02*
X940350D01*
X924750Y1067950D02*
X961450D01*
D14*
X722000Y1065308D02*
X737342Y1080650D01*
X722000Y1022000D02*
Y1065308D01*
X451500Y1007000D02*
Y1022000D01*
X418430D02*
X451500D01*
X400600Y1004170D02*
X418430Y1022000D01*
X400600Y902000D02*
Y1004170D01*
X420000Y1007000D02*
X437500D01*
X451500Y1022000D02*
X601000D01*
X597000Y1007000D02*
Y1018000D01*
X601000Y1022000D01*
X722000D01*
Y1007000D02*
Y1022000D01*
X737342Y1080650D02*
X754750D01*
X1407000Y1143000D02*
X1415500D01*
X1421500Y1149000D01*
X1422000D01*
X1165710Y952000D02*
X1196172Y982462D01*
X984000Y952000D02*
X1165710D01*
X1196172Y982462D02*
Y984118D01*
X1433125Y1185000D02*
Y1194875D01*
X606000Y907200D02*
Y914000D01*
X598800Y900000D02*
X606000Y907200D01*
Y914000D02*
X608000Y916000D01*
X618000D01*
X667000D02*
X689000Y894000D01*
X876300D01*
X884200Y901900D01*
Y918250D01*
X753500Y993000D02*
X754750Y991750D01*
X708000Y993000D02*
X753500D01*
X699250Y924000D02*
X705000Y918250D01*
X637750Y924000D02*
X699250D01*
X626750Y913000D02*
X637750Y924000D01*
X626000Y913000D02*
X626750D01*
X624200Y900000D02*
X626000Y901800D01*
Y913000D01*
X716000Y928250D02*
X754750D01*
X722000Y940950D02*
X754750D01*
X716050Y935000D02*
X722000Y940950D01*
X670000Y935000D02*
X716050D01*
X562172Y922172D02*
X563828D01*
X564000Y922000D01*
X557000Y917000D02*
X562172Y922172D01*
X519000Y928250D02*
X704750D01*
X492750Y902000D02*
X519000Y928250D01*
X704750D02*
X732000Y901000D01*
X557000Y909000D02*
Y917000D01*
X548000Y900000D02*
X557000Y909000D01*
X576000Y902600D02*
Y918250D01*
X573400Y900000D02*
X576000Y902600D01*
Y918250D02*
X578750Y921000D01*
X606000D01*
X732000Y901000D02*
X869000D01*
X948000Y926000D02*
X958000D01*
X927000D02*
X948000D01*
X928000Y901000D02*
X938000Y911000D01*
X892000Y901000D02*
X928000D01*
X451400Y902000D02*
X492750D01*
X907000Y1031000D02*
Y1033750D01*
X912300Y1039050D01*
X921250D01*
X924750Y1042550D01*
X905172Y1049172D02*
X912172Y1056172D01*
X905172Y1040000D02*
Y1049172D01*
X685000Y942000D02*
X719998Y976998D01*
X728998D01*
X467000Y942000D02*
X685000D01*
X462000Y937000D02*
X467000Y942000D01*
X462000Y922000D02*
Y937000D01*
X432000Y946000D02*
X679150D01*
X717150Y984000D01*
X426000Y940000D02*
X432000Y946000D01*
X717150Y984000D02*
X727000D01*
X912172Y1056172D02*
X923828D01*
X924750Y1055250D01*
X426000Y923000D02*
Y940000D01*
X954000Y1005000D02*
X1045105D01*
X1077855Y1037750D01*
X1135000D01*
X1049000Y1030000D02*
X1056000Y1023000D01*
X1049000Y1030000D02*
Y1037000D01*
X1038000Y1062000D02*
X1046000Y1054000D01*
X1030000Y1062000D02*
X1038000D01*
X1393518Y1129000D02*
X1403000D01*
X1374518Y1110000D02*
X1393518Y1129000D01*
X1350000Y1110000D02*
X1374518D01*
X1400000Y1145800D02*
X1402226Y1143574D01*
X1406426D01*
X1407000Y1143000D01*
X1393000Y1145800D02*
X1400000D01*
X1149000Y1089000D02*
X1155000D01*
X1155750Y1089750D01*
X1143000Y1099000D02*
X1143024Y1098976D01*
Y1079000D02*
Y1098976D01*
X1140024Y1076000D02*
X1143024Y1079000D01*
X1140000Y1076000D02*
X1140024D01*
X1138000Y1087750D02*
Y1088000D01*
X1128000Y1077750D02*
X1138000Y1087750D01*
X1128000Y1063750D02*
Y1077750D01*
X1122250Y1058000D02*
X1128000Y1063750D01*
X940750Y991750D02*
X954000Y1005000D01*
X924750Y991750D02*
X940750D01*
X1336250Y1036250D02*
X1350000Y1050000D01*
X1325500Y1036250D02*
X1336250D01*
X1324000Y1034750D02*
X1325500Y1036250D01*
X981000Y1030000D02*
X983200D01*
X1311000Y1087750D02*
Y1107000D01*
Y1087750D02*
X1311172Y1087578D01*
X985000Y1047000D02*
X1048272D01*
X1048296Y1046976D01*
X1111567D01*
X1114841Y1050250D01*
X1174000D01*
X1022500Y1055000D02*
X1029500Y1062000D01*
X1030000D01*
X1011000Y1055000D02*
X1022500D01*
X996198Y1042998D02*
X1172998D01*
X983200Y1030000D02*
X996198Y1042998D01*
X956950Y1030800D02*
X962800D01*
X945200Y1042550D02*
X956950Y1030800D01*
X956200Y1047800D02*
X963800D01*
X948750Y1055250D02*
X956200Y1047800D01*
X1350000Y1050000D02*
Y1065000D01*
X1171750Y1089750D02*
X1172000Y1090000D01*
X1155750Y1089750D02*
X1171750D01*
X1306535Y1060000D02*
X1309000Y1062465D01*
X1280750Y1060000D02*
X1306535D01*
X1244000Y1096750D02*
X1280750Y1060000D01*
X1309000Y1062465D02*
Y1068726D01*
X1189000Y985000D02*
Y1078000D01*
X754750Y1067950D02*
X755800Y1069000D01*
X769000D01*
X887002Y1068998D02*
X900000Y1056000D01*
X816998Y1068998D02*
X887002D01*
X876000Y1056000D02*
X884200Y1047800D01*
X816998Y1054998D02*
X874998D01*
X876000Y1056000D01*
X884200Y969800D02*
Y1047800D01*
X882000Y1062000D02*
X892000Y1052000D01*
X817000Y1062000D02*
X882000D01*
X1332000Y1015000D02*
Y1032000D01*
X1325000Y1089750D02*
Y1095875D01*
X1321000Y1099875D02*
X1325000Y1095875D01*
X1321000Y1099875D02*
Y1107000D01*
X1317000Y1090000D02*
Y1090812D01*
X1316000Y1091812D02*
X1317000Y1090812D01*
X1316000Y1091812D02*
Y1107000D01*
X924750Y1042550D02*
X945200D01*
X924750Y1055250D02*
X948750D01*
X1419000Y1208000D02*
X1419000Y1208000D01*
Y1195000D02*
Y1208000D01*
X1433250Y1172250D02*
Y1178250D01*
Y1172250D02*
X1442500Y1163000D01*
X1433000Y1195000D02*
X1433125Y1194875D01*
X1215000Y1061000D02*
X1218000D01*
X1196000Y1042000D02*
X1215000Y1061000D01*
X1196000Y984290D02*
Y1042000D01*
X1272000Y947000D02*
X1298000Y921000D01*
X989000Y947000D02*
X1272000D01*
X961000Y919000D02*
X989000Y947000D01*
X900000Y985400D02*
Y1056000D01*
Y985400D02*
X907400Y978000D01*
X892000Y981750D02*
Y1052000D01*
Y981750D02*
X907400Y966350D01*
X884200Y969800D02*
X900350Y953650D01*
X983000Y957000D02*
X1161000D01*
X962000Y978000D02*
X983000Y957000D01*
X948000Y978000D02*
X962000D01*
X1196000Y984290D02*
X1196172Y984118D01*
X420000Y1007000D02*
X420000Y1007000D01*
X907400Y966350D02*
X924750D01*
X583000Y1007000D02*
X583000Y1007000D01*
X566000Y1007000D02*
X583000D01*
X900350Y953650D02*
X924750D01*
X907000Y923000D02*
Y936000D01*
Y923000D02*
X911000Y919000D01*
X961000D01*
X1298000Y921000D02*
X1424750D01*
X1435750Y932000D02*
Y962000D01*
X1424750Y921000D02*
X1435750Y932000D01*
X901000Y942000D02*
X907000Y936000D01*
X802000Y942000D02*
X901000D01*
X795300Y948700D02*
X802000Y942000D01*
X795300Y948700D02*
Y1009700D01*
X787850Y1017150D02*
X795300Y1009700D01*
X754750Y1017150D02*
X787850D01*
X1435750Y976250D02*
X1435750Y976250D01*
X1435750Y962000D02*
Y976250D01*
X708000Y993000D02*
Y1007000D01*
X767750Y979050D02*
X769700Y981000D01*
X777750D01*
X754750Y979050D02*
X767750D01*
X754750Y966350D02*
X755400Y967000D01*
X779000D01*
X754750Y953650D02*
X774350D01*
X774700Y954000D01*
X754750Y940950D02*
X755700Y940000D01*
X1161000Y957000D02*
X1189000Y985000D01*
X1250500Y1097875D02*
Y1113499D01*
Y1097875D02*
X1280000Y1068375D01*
X1227500Y1083000D02*
X1243000D01*
X1217250Y1096750D02*
X1244000D01*
X1208500Y1088000D02*
X1217250Y1096750D01*
X1285642Y1084000D02*
X1285759Y1084117D01*
X1274000Y1084000D02*
X1285642D01*
X1277000Y1096750D02*
X1294000D01*
X1271500Y1102250D02*
X1277000Y1096750D01*
X1271500Y1102250D02*
Y1111499D01*
X1269500Y1113499D02*
X1271500Y1111499D01*
X1299759Y1084117D02*
Y1090991D01*
X1294000Y1096750D02*
X1299759Y1090991D01*
X1280000Y1068375D02*
X1294649D01*
X1295000Y1068726D01*
X1311172Y1085922D02*
Y1087578D01*
X1309367Y1084117D02*
X1311172Y1085922D01*
X1299759Y1084117D02*
X1309367D01*
X1310073Y1067653D02*
X1320000D01*
X1331000Y1078653D01*
Y1107000D01*
X924750Y928250D02*
X927000Y926000D01*
X958000D02*
X984000Y952000D01*
X1154000Y1091500D02*
Y1099000D01*
Y1091500D02*
X1155750Y1089750D01*
D16*
X1031000Y1077000D02*
X1031250Y1077250D01*
X1030000Y1076000D02*
X1031000Y1077000D01*
D19*
X1422000Y1163000D02*
D03*
Y1149000D02*
D03*
X1346000Y1183000D02*
D03*
Y1169000D02*
D03*
X1364000Y1159800D02*
D03*
Y1145800D02*
D03*
X1155750Y1075750D02*
D03*
Y1089750D02*
D03*
X1464750Y975950D02*
D03*
Y961950D02*
D03*
X1172000Y1118500D02*
D03*
Y1104500D02*
D03*
X1140000Y1076000D02*
D03*
Y1062000D02*
D03*
X1397500Y1102000D02*
D03*
Y1116000D02*
D03*
X1172000Y1090000D02*
D03*
Y1076000D02*
D03*
X1011000Y1069000D02*
D03*
Y1055000D02*
D03*
X1030000Y1076000D02*
D03*
Y1062000D02*
D03*
D20*
X1294750Y1172250D02*
D03*
X1280750D02*
D03*
X1381000Y1195000D02*
D03*
X1395000D02*
D03*
X1440000Y1126000D02*
D03*
X1454000D02*
D03*
X1395250Y1163501D02*
D03*
X1381250D02*
D03*
X1379000Y1145800D02*
D03*
X1393000D02*
D03*
X1395000Y1179501D02*
D03*
X1381000D02*
D03*
X981000Y1046800D02*
D03*
X967000D02*
D03*
X981000Y1030800D02*
D03*
X967000D02*
D03*
X1317000Y1194000D02*
D03*
X1331000D02*
D03*
X1317000Y1179000D02*
D03*
X1331000D02*
D03*
X1332000Y1015000D02*
D03*
X1346000D02*
D03*
X1419250Y1178750D02*
D03*
X1433250D02*
D03*
X1449750Y976250D02*
D03*
X1435750D02*
D03*
X1435750Y962000D02*
D03*
X1449750D02*
D03*
X1433000Y1195000D02*
D03*
X1419000D02*
D03*
X1285759Y1084117D02*
D03*
X1299759D02*
D03*
X1295000Y1068726D02*
D03*
X1309000D02*
D03*
X1446250Y1012000D02*
D03*
X1460250D02*
D03*
X451500Y1007000D02*
D03*
X437500D02*
D03*
X597000D02*
D03*
X583000D02*
D03*
X722000D02*
D03*
X708000D02*
D03*
X1418750Y1017000D02*
D03*
X1404750D02*
D03*
X1440750Y1074750D02*
D03*
X1454750D02*
D03*
D21*
X1437383Y995000D02*
D03*
X1404617D02*
D03*
D22*
X598800Y900000D02*
D03*
X573400D02*
D03*
X548000D02*
D03*
X624200D02*
D03*
X649600D02*
D03*
X451400Y902000D02*
D03*
X426000D02*
D03*
X400600D02*
D03*
D23*
X1477306Y1161694D02*
D03*
X1458306D02*
D03*
Y1183694D02*
D03*
D24*
X1475306D02*
D03*
D25*
X1331000Y1105741D02*
D03*
X1326000D02*
D03*
X1321000D02*
D03*
X1316000D02*
D03*
X1311000D02*
D03*
X1306000D02*
D03*
X1301000D02*
D03*
Y1154741D02*
D03*
X1306000D02*
D03*
X1311000D02*
D03*
X1316000D02*
D03*
X1321000D02*
D03*
X1326000D02*
D03*
X1331000D02*
D03*
D26*
X1291500Y1115241D02*
D03*
Y1120241D02*
D03*
Y1125241D02*
D03*
Y1130241D02*
D03*
Y1135241D02*
D03*
Y1140241D02*
D03*
Y1145241D02*
D03*
X1340500D02*
D03*
Y1140241D02*
D03*
Y1135241D02*
D03*
Y1130241D02*
D03*
Y1125241D02*
D03*
Y1120241D02*
D03*
Y1115241D02*
D03*
D27*
X1094000Y1120000D02*
D03*
D28*
X1395250Y1056750D02*
D03*
Y1037750D02*
D03*
X1418250Y1047250D02*
D03*
X1463750Y1102250D02*
D03*
X1440750Y1092750D02*
D03*
Y1111750D02*
D03*
D29*
X1355250Y945750D02*
D03*
Y968250D02*
D03*
Y990750D02*
D03*
D30*
X1302750Y968250D02*
D03*
D31*
X1260000Y1135499D02*
D03*
X1269500Y1113499D02*
D03*
X1250500D02*
D03*
X1218000Y1061000D02*
D03*
X1208500Y1083000D02*
D03*
X1227500D02*
D03*
D32*
X1416250Y1084117D02*
D03*
Y1116883D02*
D03*
D33*
X1441000Y1036000D02*
D03*
Y1055000D02*
D03*
X1465000D02*
D03*
Y1045500D02*
D03*
Y1036000D02*
D03*
D34*
X924750Y1093350D02*
D03*
Y1080650D02*
D03*
Y1067950D02*
D03*
Y1055250D02*
D03*
Y1042550D02*
D03*
Y1029850D02*
D03*
Y1017150D02*
D03*
Y1004450D02*
D03*
Y991750D02*
D03*
Y979050D02*
D03*
Y966350D02*
D03*
Y953650D02*
D03*
Y940950D02*
D03*
Y928250D02*
D03*
X754750D02*
D03*
Y940950D02*
D03*
Y953650D02*
D03*
Y966350D02*
D03*
Y979050D02*
D03*
Y991750D02*
D03*
Y1004450D02*
D03*
Y1017150D02*
D03*
Y1029850D02*
D03*
Y1042550D02*
D03*
Y1055250D02*
D03*
Y1067950D02*
D03*
Y1080650D02*
D03*
Y1093350D02*
D03*
D35*
X896900Y918250D02*
D03*
X884200D02*
D03*
X871500D02*
D03*
X858800D02*
D03*
X846100D02*
D03*
X833400D02*
D03*
X820700D02*
D03*
X808000D02*
D03*
X795300D02*
D03*
X782600D02*
D03*
D36*
X829750Y1018350D02*
D03*
D37*
X332501Y1116269D02*
D03*
Y1161270D02*
D03*
Y1131270D02*
D03*
D38*
X300250Y1101999D02*
D03*
Y1177001D02*
D03*
D39*
X322750Y1101499D02*
D03*
Y1177501D02*
D03*
D44*
X1316000Y1130241D02*
D03*
D68*
X326500Y1215220D02*
D03*
X1526500D02*
D03*
Y915220D02*
D03*
X326500D02*
D03*
D69*
X1490250Y945500D02*
D03*
X1464750Y1208000D02*
D03*
X1415250Y947750D02*
D03*
X1225000Y1004000D02*
D03*
D70*
X1331000Y978000D02*
Y1031000D01*
X1395250Y1005892D02*
X1404617Y996525D01*
X1395250Y1005892D02*
Y1027000D01*
X1404617Y995000D02*
Y996525D01*
X1491625Y986000D02*
X1492000D01*
X1448250Y977750D02*
Y987299D01*
X1440549Y995000D02*
X1448250Y987299D01*
X1437383Y995000D02*
X1440549D01*
X1448250Y977750D02*
X1449750Y976250D01*
X1404750Y1017000D02*
X1405500Y1017750D01*
X1395250Y1027000D02*
X1404750Y1017500D01*
Y1017000D02*
Y1017500D01*
X1395250Y1027000D02*
Y1037750D01*
X1324000Y1034750D02*
X1327250D01*
X1250750D02*
X1324000D01*
X1209750D02*
X1236000D01*
X1205000Y1030000D02*
X1209750Y1034750D01*
X1074000Y998000D02*
X1105900Y1029900D01*
X1105800Y1030000D02*
X1105900Y1029900D01*
X1080000Y1030000D02*
X1105800D01*
X1236000Y1034750D02*
X1250750D01*
X1377000Y1057000D02*
X1395000D01*
X1395250Y1056750D01*
X1262000Y1054000D02*
X1329000D01*
X1333500Y1044000D02*
X1339000Y1049500D01*
X1259000Y1044000D02*
X1333500D01*
X1327250Y1034750D02*
X1331000Y1031000D01*
X1223000Y1007000D02*
X1250750Y1034750D01*
X1226000Y1111499D02*
Y1174000D01*
X1199231Y1183769D02*
X1216000Y1167000D01*
X1378611Y1040000D02*
X1380861Y1037750D01*
X1395250D01*
X1216000Y1111499D02*
Y1167000D01*
X406000Y1183769D02*
X1199231D01*
X338500Y1116269D02*
X406000Y1183769D01*
X332501Y1116269D02*
X338500D01*
X1204000Y1196000D02*
X1226000Y1174000D01*
X403230Y1196000D02*
X1204000D01*
X338500Y1131270D02*
X403230Y1196000D01*
X332501Y1131270D02*
X338500D01*
X733000Y1106000D02*
X780000D01*
X406800Y1038800D02*
X459000Y1091000D01*
X718000D02*
X733000Y1106000D01*
X459000Y1091000D02*
X718000D01*
X322000Y1038800D02*
X406800D01*
X780000Y1106000D02*
X797000Y1089000D01*
Y1062000D02*
Y1089000D01*
X755400Y1080000D02*
X779000D01*
X754750Y1080650D02*
X755400Y1080000D01*
X779000D02*
X797000Y1062000D01*
Y1048000D02*
Y1062000D01*
X958000Y998000D02*
X1074000D01*
X1105900Y1029900D02*
X1178600D01*
X1415250Y947750D02*
X1416000Y948500D01*
X1355250Y990750D02*
X1357000Y989000D01*
X1331000Y978000D02*
X1341000Y968000D01*
X1355000D01*
X1355250Y968250D01*
X1416250Y1084117D02*
X1417775D01*
X1414725D02*
X1416250D01*
X1417775D02*
X1426408Y1092750D01*
X1440750D01*
X1405500Y1017750D02*
Y1073367D01*
X1412655Y1080522D01*
Y1082047D01*
X1414725Y1084117D01*
X1463750Y1102250D02*
X1463875D01*
X1464375Y1101750D01*
Y1055625D02*
Y1101750D01*
Y1055625D02*
X1465000Y1055000D01*
X1490250Y945500D02*
Y983875D01*
X1492000Y985625D01*
X1474925D02*
X1492000D01*
X1465250Y975950D02*
X1474925Y985625D01*
X1484000Y993625D02*
X1491625Y986000D01*
X1484000Y993625D02*
Y1049000D01*
X1479000Y1054000D02*
X1484000Y1049000D01*
X1466000Y1054000D02*
X1479000D01*
X1465000Y1055000D02*
X1466000Y1054000D01*
X1464750Y975950D02*
X1465250D01*
X1464600Y976100D02*
X1464750Y975950D01*
X1449900Y976100D02*
X1464600D01*
X1449750Y976250D02*
X1449900Y976100D01*
X1418375Y1047250D02*
X1418875Y1046750D01*
X1418250Y1047250D02*
X1418375D01*
D71*
X1458306Y1161694D02*
X1474000Y1146000D01*
Y1141000D02*
X1481000D01*
X1470945Y1137945D02*
X1474000Y1141000D01*
X1391948Y1137945D02*
X1470945D01*
X1393518Y1134155D02*
X1479695D01*
X1481062Y1132788D02*
X1482076D01*
X1348578Y1134790D02*
X1388793D01*
X1348743Y1131000D02*
X1390363D01*
X1388793Y1134790D02*
X1391948Y1137945D01*
X1390363Y1131000D02*
X1393518Y1134155D01*
X1479695D02*
X1481062Y1132788D01*
X1481000Y1141000D02*
X1482626D01*
X1477306Y1161694D02*
X1481000Y1158000D01*
Y1142000D02*
Y1158000D01*
Y1141000D02*
Y1142000D01*
X1340500Y1135241D02*
X1340748Y1134993D01*
X1348375D01*
X1348578Y1134790D01*
X1340500Y1130241D02*
X1340891Y1130632D01*
X1348375D01*
X1348743Y1131000D01*
D72*
X1467000Y1123000D02*
X1538000Y1052000D01*
X1466000Y1123000D02*
X1467000D01*
X1454000Y1125865D02*
Y1126000D01*
Y1106500D02*
Y1125865D01*
X1465865Y1123000D02*
X1466000D01*
X1464750Y1124115D02*
X1465865Y1123000D01*
X1455750Y1124115D02*
X1464750D01*
X1454000Y1125865D02*
X1455750Y1124115D01*
X1440375Y1112125D02*
X1440750Y1111750D01*
X1440375Y1112125D02*
Y1125625D01*
X1440000Y1126000D02*
X1440375Y1125625D01*
X1449250Y1101750D02*
X1454000Y1106500D01*
Y1075500D02*
Y1097000D01*
Y1075500D02*
X1454750Y1074750D01*
X1449250Y1101750D02*
X1454000Y1097000D01*
X1432908Y1101750D02*
X1449250D01*
X1417775Y1116883D02*
X1432908Y1101750D01*
X1416250Y1116883D02*
X1417775D01*
X1398004Y1116816D02*
X1416183D01*
X1444500Y1013750D02*
X1446250Y1012000D01*
X1444500Y1013750D02*
Y1034750D01*
X1443250Y1036000D02*
X1444500Y1034750D01*
X1441000Y1036000D02*
X1443250D01*
X1454750Y1063500D02*
Y1074750D01*
X1447500Y1056250D02*
X1454750Y1063500D01*
X1445250Y1056250D02*
X1447500D01*
X1441000Y1055000D02*
X1444000D01*
X1445250Y1056250D01*
X1416183Y1116816D02*
X1416250Y1116883D01*
D73*
X1467806Y1171191D02*
X1467997Y1171000D01*
X1467806Y1171191D02*
Y1172194D01*
X1458306Y1181694D02*
X1467806Y1172194D01*
X1458306Y1181694D02*
Y1183694D01*
D74*
X1011000Y1069000D02*
X1013050Y1071050D01*
D75*
X1302750Y968250D02*
D03*
D76*
X1542520Y1161100D02*
D03*
X1542620Y1104500D02*
D03*
D77*
X1079650D02*
D03*
X1089650D02*
D03*
X1099650D02*
D03*
X1109650D02*
D03*
Y1114500D02*
D03*
X1099650D02*
D03*
X1089650D02*
D03*
X1079650D02*
D03*
Y1124500D02*
D03*
X1089650D02*
D03*
X1099650D02*
D03*
X1109650D02*
D03*
Y1134500D02*
D03*
X1099650D02*
D03*
X1089650D02*
D03*
X1079650D02*
D03*
D78*
X1409300Y1220470D02*
D03*
X1383900D02*
D03*
X1358500D02*
D03*
X1333100D02*
D03*
X1307700D02*
D03*
X1282300D02*
D03*
X1256900D02*
D03*
X1231500D02*
D03*
X1206100D02*
D03*
X1180700D02*
D03*
X1155300D02*
D03*
X1129900D02*
D03*
X1104500D02*
D03*
X1104400Y910220D02*
D03*
X1282200D02*
D03*
X1256800D02*
D03*
X1231400D02*
D03*
X1206000D02*
D03*
X1180600D02*
D03*
X1155200D02*
D03*
X1129800D02*
D03*
X322000Y1013400D02*
D03*
Y988000D02*
D03*
Y962600D02*
D03*
X876300Y1220470D02*
D03*
X850900D02*
D03*
X825500D02*
D03*
X723900D02*
D03*
X749300D02*
D03*
X774700D02*
D03*
X800100D02*
D03*
X901700D02*
D03*
X469900D02*
D03*
X495300D02*
D03*
X520700D02*
D03*
X546100D02*
D03*
X571500D02*
D03*
X596900D02*
D03*
X622300D02*
D03*
X647700D02*
D03*
X673100D02*
D03*
X698500D02*
D03*
X927100D02*
D03*
X952500D02*
D03*
X977900D02*
D03*
X1003300D02*
D03*
X1028700D02*
D03*
X1054100D02*
D03*
D79*
X1079100Y1220470D02*
D03*
X1079000Y910220D02*
D03*
X444500Y1220470D02*
D03*
D80*
X322000Y1038800D02*
D03*
D81*
X311500Y1124499D02*
D03*
Y1154501D02*
D03*
D82*
X670622Y1029430D02*
D03*
X670399Y1041280D02*
D03*
X693000D02*
D03*
Y1029430D02*
D03*
X713000D02*
D03*
X713099Y1042000D02*
D03*
X732119Y1030000D02*
D03*
Y1042000D02*
D03*
X775000Y1026897D02*
D03*
X774630Y1042000D02*
D03*
X784570Y1047800D02*
D03*
Y1035000D02*
D03*
X867000Y966000D02*
D03*
X867430Y985625D02*
D03*
X878120Y975000D02*
D03*
X879000Y953000D02*
D03*
X1410000Y1181694D02*
D03*
X783000Y940000D02*
D03*
X1339000Y1067000D02*
D03*
X1341000Y1100800D02*
D03*
X1379000Y1103000D02*
D03*
X1397499Y1086000D02*
D03*
X1415000Y1103000D02*
D03*
X1383900Y1015000D02*
D03*
X1361000D02*
D03*
X1343000Y1201000D02*
D03*
X1364000D02*
D03*
X1409300Y1167000D02*
D03*
X1460250Y990000D02*
D03*
X1469000Y998375D02*
D03*
X1453127D02*
D03*
X1362000Y1117000D02*
D03*
X618000Y916000D02*
D03*
X667000D02*
D03*
X705000Y918250D02*
D03*
X716000Y928250D02*
D03*
X670000Y935000D02*
D03*
X564000Y922000D02*
D03*
X606000Y921000D02*
D03*
X795300Y918250D02*
D03*
X948000Y926000D02*
D03*
X938000Y911000D02*
D03*
X892000Y901000D02*
D03*
X869000D02*
D03*
X907000Y1031000D02*
D03*
X905172Y1040000D02*
D03*
X728998Y976998D02*
D03*
X462000Y922000D02*
D03*
X727000Y984000D02*
D03*
X426000Y923000D02*
D03*
X1056000Y1023000D02*
D03*
X1049000Y1037000D02*
D03*
X1046000Y1054000D02*
D03*
X1080000Y1030000D02*
D03*
X1474000Y1146000D02*
D03*
X1450000Y1148000D02*
D03*
X1408000Y1156000D02*
D03*
X1407000Y1143000D02*
D03*
X1467997Y1171000D02*
D03*
X1481000Y1142000D02*
D03*
X1482076Y1132788D02*
D03*
X1467997Y1207998D02*
D03*
X1157250Y1107000D02*
D03*
X1149000Y1089000D02*
D03*
X1138000Y1088000D02*
D03*
X1122250Y1058000D02*
D03*
X1135000Y1037750D02*
D03*
X1205000Y1030000D02*
D03*
X1178600Y1029900D02*
D03*
X1350000Y1065000D02*
D03*
Y1110000D02*
D03*
X1377000Y1057000D02*
D03*
X1329000Y1054000D02*
D03*
X1262000D02*
D03*
X1259000Y1044000D02*
D03*
X1236000Y1034750D02*
D03*
X1226000Y1111499D02*
D03*
X1378611Y1040000D02*
D03*
X1339000Y1049500D02*
D03*
X1216000Y1111499D02*
D03*
X769000Y1069000D02*
D03*
X816998Y1068998D02*
D03*
Y1054998D02*
D03*
X817000Y1062000D02*
D03*
X797000Y1048000D02*
D03*
X958000Y998000D02*
D03*
X1325000Y1089750D02*
D03*
X1172998Y1042998D02*
D03*
X1317000Y1090000D02*
D03*
X1174000Y1050250D02*
D03*
X1403000Y1129000D02*
D03*
X1419000Y1208000D02*
D03*
X1442500Y1163000D02*
D03*
X1538000Y1052000D02*
D03*
X1475000Y1036000D02*
D03*
X1492000Y985625D02*
D03*
X1466000Y1123000D02*
D03*
X948000Y978000D02*
D03*
X907400D02*
D03*
X420000Y1007000D02*
D03*
X566000D02*
D03*
X708000Y993000D02*
D03*
X777750Y981000D02*
D03*
X779000Y967000D02*
D03*
X774700Y954000D02*
D03*
X1243000Y1083000D02*
D03*
X1274000Y1084000D02*
D03*
X1160000Y1119000D02*
D03*
X1146998Y1115998D02*
D03*
X1154000Y1099000D02*
D03*
X1143000Y1099000D02*
D03*
M02*
