G04*
G04 #@! TF.GenerationSoftware,Altium Limited,Altium Designer,19.0.14 (431)*
G04*
G04 Layer_Color=65535*
%FSLAX44Y44*%
%MOMM*%
G71*
G01*
G75*
%ADD10C,0.2500*%
%ADD11C,0.2540*%
%ADD12C,0.3000*%
%ADD13C,0.1520*%
%ADD14C,0.2000*%
%ADD15C,0.1524*%
%ADD16C,0.1270*%
%ADD17R,0.5080X1.8000*%
%ADD18R,1.8000X0.5080*%
G36*
X524677Y1181383D02*
Y1180557D01*
Y1179732D01*
Y1178906D01*
Y1178081D01*
Y1177255D01*
Y1176430D01*
Y1175604D01*
X531281D01*
Y1174779D01*
Y1173953D01*
Y1173128D01*
Y1172302D01*
Y1171477D01*
Y1170651D01*
Y1169826D01*
Y1169000D01*
Y1168175D01*
Y1167349D01*
Y1166523D01*
Y1165698D01*
Y1164872D01*
Y1164047D01*
Y1163221D01*
Y1162396D01*
X524677D01*
Y1163221D01*
Y1164047D01*
Y1164872D01*
Y1165698D01*
Y1166523D01*
Y1167349D01*
Y1168175D01*
Y1169000D01*
Y1169826D01*
Y1170651D01*
Y1171477D01*
Y1172302D01*
Y1173128D01*
Y1173953D01*
Y1174779D01*
Y1175604D01*
X518073D01*
Y1176430D01*
Y1177255D01*
Y1178081D01*
Y1178906D01*
Y1179732D01*
Y1180557D01*
Y1181383D01*
Y1182208D01*
X524677D01*
Y1181383D01*
D02*
G37*
G36*
X584115D02*
Y1180557D01*
Y1179732D01*
Y1178906D01*
Y1178081D01*
Y1177255D01*
Y1176430D01*
Y1175604D01*
Y1174779D01*
Y1173953D01*
Y1173128D01*
Y1172302D01*
Y1171477D01*
Y1170651D01*
Y1169826D01*
Y1169000D01*
Y1168175D01*
Y1167349D01*
Y1166523D01*
Y1165698D01*
Y1164872D01*
Y1164047D01*
Y1163221D01*
Y1162396D01*
Y1161570D01*
Y1160745D01*
Y1159919D01*
Y1159094D01*
Y1158268D01*
Y1157443D01*
Y1156617D01*
Y1155792D01*
Y1154966D01*
Y1154141D01*
Y1153315D01*
Y1152489D01*
Y1151664D01*
Y1150838D01*
Y1150013D01*
Y1149187D01*
Y1148362D01*
Y1147536D01*
Y1146711D01*
Y1145885D01*
Y1145060D01*
Y1144234D01*
Y1143409D01*
Y1142583D01*
Y1141758D01*
Y1140932D01*
Y1140107D01*
Y1139281D01*
Y1138456D01*
Y1137630D01*
Y1136805D01*
Y1135979D01*
X537885D01*
Y1136805D01*
Y1137630D01*
Y1138456D01*
Y1139281D01*
Y1140107D01*
Y1140932D01*
Y1141758D01*
Y1142583D01*
Y1143409D01*
Y1144234D01*
Y1145060D01*
Y1145885D01*
Y1146711D01*
Y1147536D01*
Y1148362D01*
Y1149187D01*
Y1150013D01*
Y1150838D01*
Y1151664D01*
Y1152489D01*
Y1153315D01*
Y1154141D01*
Y1154966D01*
Y1155792D01*
Y1156617D01*
Y1157443D01*
Y1158268D01*
Y1159094D01*
Y1159919D01*
Y1160745D01*
Y1161570D01*
Y1162396D01*
Y1163221D01*
Y1164047D01*
Y1164872D01*
Y1165698D01*
Y1166523D01*
Y1167349D01*
Y1168175D01*
Y1169000D01*
Y1169826D01*
Y1170651D01*
Y1171477D01*
Y1172302D01*
Y1173128D01*
Y1173953D01*
Y1174779D01*
Y1175604D01*
Y1176430D01*
Y1177255D01*
Y1178081D01*
Y1178906D01*
Y1179732D01*
Y1180557D01*
Y1181383D01*
Y1182208D01*
X584115D01*
Y1181383D01*
D02*
G37*
G36*
X504864D02*
Y1180557D01*
Y1179732D01*
Y1178906D01*
Y1178081D01*
Y1177255D01*
Y1176430D01*
Y1175604D01*
Y1174779D01*
Y1173953D01*
Y1173128D01*
Y1172302D01*
Y1171477D01*
Y1170651D01*
Y1169826D01*
Y1169000D01*
X518073D01*
Y1168175D01*
Y1167349D01*
Y1166523D01*
Y1165698D01*
Y1164872D01*
Y1164047D01*
Y1163221D01*
Y1162396D01*
X524677D01*
Y1161570D01*
Y1160745D01*
Y1159919D01*
Y1159094D01*
Y1158268D01*
Y1157443D01*
Y1156617D01*
Y1155792D01*
X531281D01*
Y1154966D01*
Y1154141D01*
Y1153315D01*
Y1152489D01*
Y1151664D01*
Y1150838D01*
Y1150013D01*
Y1149187D01*
Y1148362D01*
Y1147536D01*
Y1146711D01*
Y1145885D01*
Y1145060D01*
Y1144234D01*
Y1143409D01*
Y1142583D01*
Y1141758D01*
Y1140932D01*
Y1140107D01*
Y1139281D01*
Y1138456D01*
Y1137630D01*
Y1136805D01*
Y1135979D01*
X524677D01*
Y1136805D01*
Y1137630D01*
Y1138456D01*
Y1139281D01*
Y1140107D01*
Y1140932D01*
Y1141758D01*
Y1142583D01*
X518073D01*
Y1143409D01*
Y1144234D01*
Y1145060D01*
Y1145885D01*
Y1146711D01*
Y1147536D01*
Y1148362D01*
Y1149187D01*
Y1150013D01*
Y1150838D01*
Y1151664D01*
Y1152489D01*
Y1153315D01*
Y1154141D01*
Y1154966D01*
Y1155792D01*
Y1156617D01*
Y1157443D01*
Y1158268D01*
Y1159094D01*
Y1159919D01*
Y1160745D01*
Y1161570D01*
Y1162396D01*
X504864D01*
Y1161570D01*
Y1160745D01*
Y1159919D01*
Y1159094D01*
Y1158268D01*
Y1157443D01*
Y1156617D01*
Y1155792D01*
X511469D01*
Y1154966D01*
Y1154141D01*
Y1153315D01*
Y1152489D01*
Y1151664D01*
Y1150838D01*
Y1150013D01*
Y1149187D01*
Y1148362D01*
Y1147536D01*
Y1146711D01*
Y1145885D01*
Y1145060D01*
Y1144234D01*
Y1143409D01*
Y1142583D01*
X518073D01*
Y1141758D01*
Y1140932D01*
Y1140107D01*
Y1139281D01*
Y1138456D01*
Y1137630D01*
Y1136805D01*
Y1135979D01*
X524677D01*
Y1135154D01*
Y1134328D01*
Y1133503D01*
Y1132677D01*
Y1131851D01*
Y1131026D01*
Y1130200D01*
Y1129375D01*
X504864D01*
Y1130200D01*
Y1131026D01*
Y1131851D01*
Y1132677D01*
Y1133503D01*
Y1134328D01*
Y1135154D01*
Y1135979D01*
X498260D01*
Y1136805D01*
Y1137630D01*
Y1138456D01*
Y1139281D01*
Y1140107D01*
Y1140932D01*
Y1141758D01*
Y1142583D01*
Y1143409D01*
Y1144234D01*
Y1145060D01*
Y1145885D01*
Y1146711D01*
Y1147536D01*
Y1148362D01*
Y1149187D01*
X504864D01*
Y1150013D01*
Y1150838D01*
Y1151664D01*
Y1152489D01*
Y1153315D01*
Y1154141D01*
Y1154966D01*
Y1155792D01*
X498260D01*
Y1156617D01*
Y1157443D01*
Y1158268D01*
Y1159094D01*
Y1159919D01*
Y1160745D01*
Y1161570D01*
Y1162396D01*
Y1163221D01*
Y1164047D01*
Y1164872D01*
Y1165698D01*
Y1166523D01*
Y1167349D01*
Y1168175D01*
Y1169000D01*
Y1169826D01*
Y1170651D01*
Y1171477D01*
Y1172302D01*
Y1173128D01*
Y1173953D01*
Y1174779D01*
Y1175604D01*
Y1176430D01*
Y1177255D01*
Y1178081D01*
Y1178906D01*
Y1179732D01*
Y1180557D01*
Y1181383D01*
Y1182208D01*
X504864D01*
Y1181383D01*
D02*
G37*
G36*
X491656D02*
Y1180557D01*
Y1179732D01*
Y1178906D01*
Y1178081D01*
Y1177255D01*
Y1176430D01*
Y1175604D01*
Y1174779D01*
Y1173953D01*
Y1173128D01*
Y1172302D01*
Y1171477D01*
Y1170651D01*
Y1169826D01*
Y1169000D01*
Y1168175D01*
Y1167349D01*
Y1166523D01*
Y1165698D01*
Y1164872D01*
Y1164047D01*
Y1163221D01*
Y1162396D01*
Y1161570D01*
Y1160745D01*
Y1159919D01*
Y1159094D01*
Y1158268D01*
Y1157443D01*
Y1156617D01*
Y1155792D01*
Y1154966D01*
Y1154141D01*
Y1153315D01*
Y1152489D01*
Y1151664D01*
Y1150838D01*
Y1150013D01*
Y1149187D01*
Y1148362D01*
Y1147536D01*
Y1146711D01*
Y1145885D01*
Y1145060D01*
Y1144234D01*
Y1143409D01*
Y1142583D01*
Y1141758D01*
Y1140932D01*
Y1140107D01*
Y1139281D01*
Y1138456D01*
Y1137630D01*
Y1136805D01*
Y1135979D01*
X445427D01*
Y1136805D01*
Y1137630D01*
Y1138456D01*
Y1139281D01*
Y1140107D01*
Y1140932D01*
Y1141758D01*
Y1142583D01*
Y1143409D01*
Y1144234D01*
Y1145060D01*
Y1145885D01*
Y1146711D01*
Y1147536D01*
Y1148362D01*
Y1149187D01*
Y1150013D01*
Y1150838D01*
Y1151664D01*
Y1152489D01*
Y1153315D01*
Y1154141D01*
Y1154966D01*
Y1155792D01*
Y1156617D01*
Y1157443D01*
Y1158268D01*
Y1159094D01*
Y1159919D01*
Y1160745D01*
Y1161570D01*
Y1162396D01*
Y1163221D01*
Y1164047D01*
Y1164872D01*
Y1165698D01*
Y1166523D01*
Y1167349D01*
Y1168175D01*
Y1169000D01*
Y1169826D01*
Y1170651D01*
Y1171477D01*
Y1172302D01*
Y1173128D01*
Y1173953D01*
Y1174779D01*
Y1175604D01*
Y1176430D01*
Y1177255D01*
Y1178081D01*
Y1178906D01*
Y1179732D01*
Y1180557D01*
Y1181383D01*
Y1182208D01*
X491656D01*
Y1181383D01*
D02*
G37*
G36*
X531281Y1121945D02*
Y1121120D01*
Y1120294D01*
Y1119469D01*
Y1118643D01*
Y1117818D01*
Y1116992D01*
Y1116167D01*
X524677D01*
Y1116992D01*
Y1117818D01*
Y1118643D01*
Y1119469D01*
Y1120294D01*
Y1121120D01*
Y1121945D01*
Y1122771D01*
X531281D01*
Y1121945D01*
D02*
G37*
G36*
X551094Y1128549D02*
Y1127724D01*
Y1126898D01*
Y1126073D01*
Y1125247D01*
Y1124422D01*
Y1123596D01*
Y1122771D01*
X557698D01*
Y1121945D01*
Y1121120D01*
Y1120294D01*
Y1119469D01*
Y1118643D01*
Y1117818D01*
Y1116992D01*
Y1116167D01*
X564302D01*
Y1115341D01*
Y1114515D01*
Y1113690D01*
Y1112864D01*
Y1112039D01*
Y1111213D01*
Y1110388D01*
Y1109562D01*
X551094D01*
Y1110388D01*
Y1111213D01*
Y1112039D01*
Y1112864D01*
Y1113690D01*
Y1114515D01*
Y1115341D01*
Y1116167D01*
Y1116992D01*
Y1117818D01*
Y1118643D01*
Y1119469D01*
Y1120294D01*
Y1121120D01*
Y1121945D01*
Y1122771D01*
X544490D01*
Y1123596D01*
Y1124422D01*
Y1125247D01*
Y1126073D01*
Y1126898D01*
Y1127724D01*
Y1128549D01*
Y1129375D01*
X551094D01*
Y1128549D01*
D02*
G37*
G36*
Y1108737D02*
Y1107911D01*
Y1107086D01*
Y1106260D01*
Y1105435D01*
Y1104609D01*
Y1103784D01*
Y1102958D01*
X544490D01*
Y1103784D01*
Y1104609D01*
Y1105435D01*
Y1106260D01*
Y1107086D01*
Y1107911D01*
Y1108737D01*
Y1109562D01*
X551094D01*
Y1108737D01*
D02*
G37*
G36*
X584115Y1128549D02*
Y1127724D01*
Y1126898D01*
Y1126073D01*
Y1125247D01*
Y1124422D01*
Y1123596D01*
Y1122771D01*
X577510D01*
Y1121945D01*
Y1121120D01*
Y1120294D01*
Y1119469D01*
Y1118643D01*
Y1117818D01*
Y1116992D01*
Y1116167D01*
Y1115341D01*
Y1114515D01*
Y1113690D01*
Y1112864D01*
Y1112039D01*
Y1111213D01*
Y1110388D01*
Y1109562D01*
X584115D01*
Y1108737D01*
Y1107911D01*
Y1107086D01*
Y1106260D01*
Y1105435D01*
Y1104609D01*
Y1103784D01*
Y1102958D01*
Y1102133D01*
Y1101307D01*
Y1100481D01*
Y1099656D01*
Y1098830D01*
Y1098005D01*
Y1097179D01*
Y1096354D01*
X570906D01*
Y1097179D01*
Y1098005D01*
Y1098830D01*
Y1099656D01*
Y1100481D01*
Y1101307D01*
Y1102133D01*
Y1102958D01*
Y1103784D01*
Y1104609D01*
Y1105435D01*
Y1106260D01*
Y1107086D01*
Y1107911D01*
Y1108737D01*
Y1109562D01*
Y1110388D01*
Y1111213D01*
Y1112039D01*
Y1112864D01*
Y1113690D01*
Y1114515D01*
Y1115341D01*
Y1116167D01*
Y1116992D01*
Y1117818D01*
Y1118643D01*
Y1119469D01*
Y1120294D01*
Y1121120D01*
Y1121945D01*
Y1122771D01*
X557698D01*
Y1123596D01*
Y1124422D01*
Y1125247D01*
Y1126073D01*
Y1126898D01*
Y1127724D01*
Y1128549D01*
Y1129375D01*
X584115D01*
Y1128549D01*
D02*
G37*
G36*
X491656D02*
Y1127724D01*
Y1126898D01*
Y1126073D01*
Y1125247D01*
Y1124422D01*
Y1123596D01*
Y1122771D01*
X511469D01*
Y1121945D01*
Y1121120D01*
Y1120294D01*
Y1119469D01*
Y1118643D01*
Y1117818D01*
Y1116992D01*
Y1116167D01*
Y1115341D01*
Y1114515D01*
Y1113690D01*
Y1112864D01*
Y1112039D01*
Y1111213D01*
Y1110388D01*
Y1109562D01*
X524677D01*
Y1108737D01*
Y1107911D01*
Y1107086D01*
Y1106260D01*
Y1105435D01*
Y1104609D01*
Y1103784D01*
Y1102958D01*
X537885D01*
Y1102133D01*
Y1101307D01*
Y1100481D01*
Y1099656D01*
Y1098830D01*
Y1098005D01*
Y1097179D01*
Y1096354D01*
X524677D01*
Y1097179D01*
Y1098005D01*
Y1098830D01*
Y1099656D01*
Y1100481D01*
Y1101307D01*
Y1102133D01*
Y1102958D01*
X504864D01*
Y1103784D01*
Y1104609D01*
Y1105435D01*
Y1106260D01*
Y1107086D01*
Y1107911D01*
Y1108737D01*
Y1109562D01*
Y1110388D01*
Y1111213D01*
Y1112039D01*
Y1112864D01*
Y1113690D01*
Y1114515D01*
Y1115341D01*
Y1116167D01*
X491656D01*
Y1116992D01*
Y1117818D01*
Y1118643D01*
Y1119469D01*
Y1120294D01*
Y1121120D01*
Y1121945D01*
Y1122771D01*
X485052D01*
Y1121945D01*
Y1121120D01*
Y1120294D01*
Y1119469D01*
Y1118643D01*
Y1117818D01*
Y1116992D01*
Y1116167D01*
X491656D01*
Y1115341D01*
Y1114515D01*
Y1113690D01*
Y1112864D01*
Y1112039D01*
Y1111213D01*
Y1110388D01*
Y1109562D01*
X485052D01*
Y1110388D01*
Y1111213D01*
Y1112039D01*
Y1112864D01*
Y1113690D01*
Y1114515D01*
Y1115341D01*
Y1116167D01*
X478448D01*
Y1116992D01*
Y1117818D01*
Y1118643D01*
Y1119469D01*
Y1120294D01*
Y1121120D01*
Y1121945D01*
Y1122771D01*
X471843D01*
Y1123596D01*
Y1124422D01*
Y1125247D01*
Y1126073D01*
Y1126898D01*
Y1127724D01*
Y1128549D01*
Y1129375D01*
X491656D01*
Y1128549D01*
D02*
G37*
G36*
X544490Y1088924D02*
Y1088099D01*
Y1087273D01*
Y1086448D01*
Y1085622D01*
Y1084797D01*
Y1083971D01*
Y1083146D01*
X537885D01*
Y1083971D01*
Y1084797D01*
Y1085622D01*
Y1086448D01*
Y1087273D01*
Y1088099D01*
Y1088924D01*
Y1089750D01*
X544490D01*
Y1088924D01*
D02*
G37*
G36*
X564302Y1095528D02*
Y1094703D01*
Y1093877D01*
Y1093052D01*
Y1092226D01*
Y1091401D01*
Y1090575D01*
Y1089750D01*
X577510D01*
Y1088924D01*
Y1088099D01*
Y1087273D01*
Y1086448D01*
Y1085622D01*
Y1084797D01*
Y1083971D01*
Y1083146D01*
Y1082320D01*
Y1081495D01*
Y1080669D01*
Y1079843D01*
Y1079018D01*
Y1078192D01*
Y1077367D01*
Y1076541D01*
X584115D01*
Y1075716D01*
Y1074890D01*
Y1074065D01*
Y1073239D01*
Y1072414D01*
Y1071588D01*
Y1070763D01*
Y1069937D01*
Y1069112D01*
Y1068286D01*
Y1067461D01*
Y1066635D01*
Y1065809D01*
Y1064984D01*
Y1064158D01*
Y1063333D01*
X577510D01*
Y1064158D01*
Y1064984D01*
Y1065809D01*
Y1066635D01*
Y1067461D01*
Y1068286D01*
Y1069112D01*
Y1069937D01*
X570906D01*
Y1070763D01*
Y1071588D01*
Y1072414D01*
Y1073239D01*
Y1074065D01*
Y1074890D01*
Y1075716D01*
Y1076541D01*
Y1077367D01*
Y1078192D01*
Y1079018D01*
Y1079843D01*
Y1080669D01*
Y1081495D01*
Y1082320D01*
Y1083146D01*
X564302D01*
Y1083971D01*
Y1084797D01*
Y1085622D01*
Y1086448D01*
Y1087273D01*
Y1088099D01*
Y1088924D01*
Y1089750D01*
X557698D01*
Y1088924D01*
Y1088099D01*
Y1087273D01*
Y1086448D01*
Y1085622D01*
Y1084797D01*
Y1083971D01*
Y1083146D01*
Y1082320D01*
Y1081495D01*
Y1080669D01*
Y1079843D01*
Y1079018D01*
Y1078192D01*
Y1077367D01*
Y1076541D01*
X564302D01*
Y1075716D01*
Y1074890D01*
Y1074065D01*
Y1073239D01*
Y1072414D01*
Y1071588D01*
Y1070763D01*
Y1069937D01*
X570906D01*
Y1069112D01*
Y1068286D01*
Y1067461D01*
Y1066635D01*
Y1065809D01*
Y1064984D01*
Y1064158D01*
Y1063333D01*
Y1062507D01*
Y1061682D01*
Y1060856D01*
Y1060031D01*
Y1059205D01*
Y1058380D01*
Y1057554D01*
Y1056729D01*
X557698D01*
Y1055903D01*
Y1055078D01*
Y1054252D01*
Y1053427D01*
Y1052601D01*
Y1051776D01*
Y1050950D01*
Y1050125D01*
X564302D01*
Y1049299D01*
Y1048474D01*
Y1047648D01*
Y1046823D01*
Y1045997D01*
Y1045171D01*
Y1044346D01*
Y1043520D01*
X557698D01*
Y1044346D01*
Y1045171D01*
Y1045997D01*
Y1046823D01*
Y1047648D01*
Y1048474D01*
Y1049299D01*
Y1050125D01*
X551094D01*
Y1049299D01*
Y1048474D01*
Y1047648D01*
Y1046823D01*
Y1045997D01*
Y1045171D01*
Y1044346D01*
Y1043520D01*
X544490D01*
Y1044346D01*
Y1045171D01*
Y1045997D01*
Y1046823D01*
Y1047648D01*
Y1048474D01*
Y1049299D01*
Y1050125D01*
Y1050950D01*
Y1051776D01*
Y1052601D01*
Y1053427D01*
Y1054252D01*
Y1055078D01*
Y1055903D01*
Y1056729D01*
X551094D01*
Y1057554D01*
Y1058380D01*
Y1059205D01*
Y1060031D01*
Y1060856D01*
Y1061682D01*
Y1062507D01*
Y1063333D01*
X537885D01*
Y1062507D01*
Y1061682D01*
Y1060856D01*
Y1060031D01*
Y1059205D01*
Y1058380D01*
Y1057554D01*
Y1056729D01*
Y1055903D01*
Y1055078D01*
Y1054252D01*
Y1053427D01*
Y1052601D01*
Y1051776D01*
Y1050950D01*
Y1050125D01*
X531281D01*
Y1050950D01*
Y1051776D01*
Y1052601D01*
Y1053427D01*
Y1054252D01*
Y1055078D01*
Y1055903D01*
Y1056729D01*
Y1057554D01*
Y1058380D01*
Y1059205D01*
Y1060031D01*
Y1060856D01*
Y1061682D01*
Y1062507D01*
Y1063333D01*
Y1064158D01*
Y1064984D01*
Y1065809D01*
Y1066635D01*
Y1067461D01*
Y1068286D01*
Y1069112D01*
Y1069937D01*
Y1070763D01*
Y1071588D01*
Y1072414D01*
Y1073239D01*
Y1074065D01*
Y1074890D01*
Y1075716D01*
Y1076541D01*
X524677D01*
Y1077367D01*
Y1078192D01*
Y1079018D01*
Y1079843D01*
Y1080669D01*
Y1081495D01*
Y1082320D01*
Y1083146D01*
X537885D01*
Y1082320D01*
Y1081495D01*
Y1080669D01*
Y1079843D01*
Y1079018D01*
Y1078192D01*
Y1077367D01*
Y1076541D01*
Y1075716D01*
Y1074890D01*
Y1074065D01*
Y1073239D01*
Y1072414D01*
Y1071588D01*
Y1070763D01*
Y1069937D01*
X544490D01*
Y1070763D01*
Y1071588D01*
Y1072414D01*
Y1073239D01*
Y1074065D01*
Y1074890D01*
Y1075716D01*
Y1076541D01*
X551094D01*
Y1075716D01*
Y1074890D01*
Y1074065D01*
Y1073239D01*
Y1072414D01*
Y1071588D01*
Y1070763D01*
Y1069937D01*
X557698D01*
Y1069112D01*
Y1068286D01*
Y1067461D01*
Y1066635D01*
Y1065809D01*
Y1064984D01*
Y1064158D01*
Y1063333D01*
X564302D01*
Y1064158D01*
Y1064984D01*
Y1065809D01*
Y1066635D01*
Y1067461D01*
Y1068286D01*
Y1069112D01*
Y1069937D01*
X557698D01*
Y1070763D01*
Y1071588D01*
Y1072414D01*
Y1073239D01*
Y1074065D01*
Y1074890D01*
Y1075716D01*
Y1076541D01*
X551094D01*
Y1077367D01*
Y1078192D01*
Y1079018D01*
Y1079843D01*
Y1080669D01*
Y1081495D01*
Y1082320D01*
Y1083146D01*
Y1083971D01*
Y1084797D01*
Y1085622D01*
Y1086448D01*
Y1087273D01*
Y1088099D01*
Y1088924D01*
Y1089750D01*
X544490D01*
Y1090575D01*
Y1091401D01*
Y1092226D01*
Y1093052D01*
Y1093877D01*
Y1094703D01*
Y1095528D01*
Y1096354D01*
X564302D01*
Y1095528D01*
D02*
G37*
G36*
X584115Y1049299D02*
Y1048474D01*
Y1047648D01*
Y1046823D01*
Y1045997D01*
Y1045171D01*
Y1044346D01*
Y1043520D01*
X577510D01*
Y1044346D01*
Y1045171D01*
Y1045997D01*
Y1046823D01*
Y1047648D01*
Y1048474D01*
Y1049299D01*
Y1050125D01*
X584115D01*
Y1049299D01*
D02*
G37*
G36*
X458635Y1128549D02*
Y1127724D01*
Y1126898D01*
Y1126073D01*
Y1125247D01*
Y1124422D01*
Y1123596D01*
Y1122771D01*
Y1121945D01*
Y1121120D01*
Y1120294D01*
Y1119469D01*
Y1118643D01*
Y1117818D01*
Y1116992D01*
Y1116167D01*
X465239D01*
Y1115341D01*
Y1114515D01*
Y1113690D01*
Y1112864D01*
Y1112039D01*
Y1111213D01*
Y1110388D01*
Y1109562D01*
X471843D01*
Y1110388D01*
Y1111213D01*
Y1112039D01*
Y1112864D01*
Y1113690D01*
Y1114515D01*
Y1115341D01*
Y1116167D01*
X465239D01*
Y1116992D01*
Y1117818D01*
Y1118643D01*
Y1119469D01*
Y1120294D01*
Y1121120D01*
Y1121945D01*
Y1122771D01*
X471843D01*
Y1121945D01*
Y1121120D01*
Y1120294D01*
Y1119469D01*
Y1118643D01*
Y1117818D01*
Y1116992D01*
Y1116167D01*
X478448D01*
Y1115341D01*
Y1114515D01*
Y1113690D01*
Y1112864D01*
Y1112039D01*
Y1111213D01*
Y1110388D01*
Y1109562D01*
X485052D01*
Y1108737D01*
Y1107911D01*
Y1107086D01*
Y1106260D01*
Y1105435D01*
Y1104609D01*
Y1103784D01*
Y1102958D01*
X498260D01*
Y1102133D01*
Y1101307D01*
Y1100481D01*
Y1099656D01*
Y1098830D01*
Y1098005D01*
Y1097179D01*
Y1096354D01*
X524677D01*
Y1095528D01*
Y1094703D01*
Y1093877D01*
Y1093052D01*
Y1092226D01*
Y1091401D01*
Y1090575D01*
Y1089750D01*
X518073D01*
Y1088924D01*
Y1088099D01*
Y1087273D01*
Y1086448D01*
Y1085622D01*
Y1084797D01*
Y1083971D01*
Y1083146D01*
Y1082320D01*
Y1081495D01*
Y1080669D01*
Y1079843D01*
Y1079018D01*
Y1078192D01*
Y1077367D01*
Y1076541D01*
X524677D01*
Y1075716D01*
Y1074890D01*
Y1074065D01*
Y1073239D01*
Y1072414D01*
Y1071588D01*
Y1070763D01*
Y1069937D01*
X518073D01*
Y1069112D01*
Y1068286D01*
Y1067461D01*
Y1066635D01*
Y1065809D01*
Y1064984D01*
Y1064158D01*
Y1063333D01*
X524677D01*
Y1062507D01*
Y1061682D01*
Y1060856D01*
Y1060031D01*
Y1059205D01*
Y1058380D01*
Y1057554D01*
Y1056729D01*
Y1055903D01*
Y1055078D01*
Y1054252D01*
Y1053427D01*
Y1052601D01*
Y1051776D01*
Y1050950D01*
Y1050125D01*
X531281D01*
Y1049299D01*
Y1048474D01*
Y1047648D01*
Y1046823D01*
Y1045997D01*
Y1045171D01*
Y1044346D01*
Y1043520D01*
X518073D01*
Y1044346D01*
Y1045171D01*
Y1045997D01*
Y1046823D01*
Y1047648D01*
Y1048474D01*
Y1049299D01*
Y1050125D01*
X504864D01*
Y1049299D01*
Y1048474D01*
Y1047648D01*
Y1046823D01*
Y1045997D01*
Y1045171D01*
Y1044346D01*
Y1043520D01*
X498260D01*
Y1044346D01*
Y1045171D01*
Y1045997D01*
Y1046823D01*
Y1047648D01*
Y1048474D01*
Y1049299D01*
Y1050125D01*
Y1050950D01*
Y1051776D01*
Y1052601D01*
Y1053427D01*
Y1054252D01*
Y1055078D01*
Y1055903D01*
Y1056729D01*
X511469D01*
Y1057554D01*
Y1058380D01*
Y1059205D01*
Y1060031D01*
Y1060856D01*
Y1061682D01*
Y1062507D01*
Y1063333D01*
Y1064158D01*
Y1064984D01*
Y1065809D01*
Y1066635D01*
Y1067461D01*
Y1068286D01*
Y1069112D01*
Y1069937D01*
X498260D01*
Y1070763D01*
Y1071588D01*
Y1072414D01*
Y1073239D01*
Y1074065D01*
Y1074890D01*
Y1075716D01*
Y1076541D01*
Y1077367D01*
Y1078192D01*
Y1079018D01*
Y1079843D01*
Y1080669D01*
Y1081495D01*
Y1082320D01*
Y1083146D01*
X511469D01*
Y1083971D01*
Y1084797D01*
Y1085622D01*
Y1086448D01*
Y1087273D01*
Y1088099D01*
Y1088924D01*
Y1089750D01*
X498260D01*
Y1090575D01*
Y1091401D01*
Y1092226D01*
Y1093052D01*
Y1093877D01*
Y1094703D01*
Y1095528D01*
Y1096354D01*
X485052D01*
Y1097179D01*
Y1098005D01*
Y1098830D01*
Y1099656D01*
Y1100481D01*
Y1101307D01*
Y1102133D01*
Y1102958D01*
X452031D01*
Y1103784D01*
Y1104609D01*
Y1105435D01*
Y1106260D01*
Y1107086D01*
Y1107911D01*
Y1108737D01*
Y1109562D01*
X445427D01*
Y1110388D01*
Y1111213D01*
Y1112039D01*
Y1112864D01*
Y1113690D01*
Y1114515D01*
Y1115341D01*
Y1116167D01*
Y1116992D01*
Y1117818D01*
Y1118643D01*
Y1119469D01*
Y1120294D01*
Y1121120D01*
Y1121945D01*
Y1122771D01*
Y1123596D01*
Y1124422D01*
Y1125247D01*
Y1126073D01*
Y1126898D01*
Y1127724D01*
Y1128549D01*
Y1129375D01*
X458635D01*
Y1128549D01*
D02*
G37*
G36*
X491656Y1088924D02*
Y1088099D01*
Y1087273D01*
Y1086448D01*
Y1085622D01*
Y1084797D01*
Y1083971D01*
Y1083146D01*
Y1082320D01*
Y1081495D01*
Y1080669D01*
Y1079843D01*
Y1079018D01*
Y1078192D01*
Y1077367D01*
Y1076541D01*
Y1075716D01*
Y1074890D01*
Y1074065D01*
Y1073239D01*
Y1072414D01*
Y1071588D01*
Y1070763D01*
Y1069937D01*
Y1069112D01*
Y1068286D01*
Y1067461D01*
Y1066635D01*
Y1065809D01*
Y1064984D01*
Y1064158D01*
Y1063333D01*
Y1062507D01*
Y1061682D01*
Y1060856D01*
Y1060031D01*
Y1059205D01*
Y1058380D01*
Y1057554D01*
Y1056729D01*
Y1055903D01*
Y1055078D01*
Y1054252D01*
Y1053427D01*
Y1052601D01*
Y1051776D01*
Y1050950D01*
Y1050125D01*
Y1049299D01*
Y1048474D01*
Y1047648D01*
Y1046823D01*
Y1045997D01*
Y1045171D01*
Y1044346D01*
Y1043520D01*
X445427D01*
Y1044346D01*
Y1045171D01*
Y1045997D01*
Y1046823D01*
Y1047648D01*
Y1048474D01*
Y1049299D01*
Y1050125D01*
Y1050950D01*
Y1051776D01*
Y1052601D01*
Y1053427D01*
Y1054252D01*
Y1055078D01*
Y1055903D01*
Y1056729D01*
Y1057554D01*
Y1058380D01*
Y1059205D01*
Y1060031D01*
Y1060856D01*
Y1061682D01*
Y1062507D01*
Y1063333D01*
Y1064158D01*
Y1064984D01*
Y1065809D01*
Y1066635D01*
Y1067461D01*
Y1068286D01*
Y1069112D01*
Y1069937D01*
Y1070763D01*
Y1071588D01*
Y1072414D01*
Y1073239D01*
Y1074065D01*
Y1074890D01*
Y1075716D01*
Y1076541D01*
Y1077367D01*
Y1078192D01*
Y1079018D01*
Y1079843D01*
Y1080669D01*
Y1081495D01*
Y1082320D01*
Y1083146D01*
Y1083971D01*
Y1084797D01*
Y1085622D01*
Y1086448D01*
Y1087273D01*
Y1088099D01*
Y1088924D01*
Y1089750D01*
X491656D01*
Y1088924D01*
D02*
G37*
%LPC*%
G36*
X577510Y1175604D02*
X544490D01*
Y1174779D01*
Y1173953D01*
Y1173128D01*
Y1172302D01*
Y1171477D01*
Y1170651D01*
Y1169826D01*
Y1169000D01*
Y1168175D01*
Y1167349D01*
Y1166523D01*
Y1165698D01*
Y1164872D01*
Y1164047D01*
Y1163221D01*
Y1162396D01*
Y1161570D01*
Y1160745D01*
Y1159919D01*
Y1159094D01*
Y1158268D01*
Y1157443D01*
Y1156617D01*
Y1155792D01*
Y1154966D01*
Y1154141D01*
Y1153315D01*
Y1152489D01*
Y1151664D01*
Y1150838D01*
Y1150013D01*
Y1149187D01*
Y1148362D01*
Y1147536D01*
Y1146711D01*
Y1145885D01*
Y1145060D01*
Y1144234D01*
Y1143409D01*
Y1142583D01*
X577510D01*
Y1143409D01*
Y1144234D01*
Y1145060D01*
Y1145885D01*
Y1146711D01*
Y1147536D01*
Y1148362D01*
Y1149187D01*
Y1150013D01*
Y1150838D01*
Y1151664D01*
Y1152489D01*
Y1153315D01*
Y1154141D01*
Y1154966D01*
Y1155792D01*
Y1156617D01*
Y1157443D01*
Y1158268D01*
Y1159094D01*
Y1159919D01*
Y1160745D01*
Y1161570D01*
Y1162396D01*
Y1163221D01*
Y1164047D01*
Y1164872D01*
Y1165698D01*
Y1166523D01*
Y1167349D01*
Y1168175D01*
Y1169000D01*
Y1169826D01*
Y1170651D01*
Y1171477D01*
Y1172302D01*
Y1173128D01*
Y1173953D01*
Y1174779D01*
Y1175604D01*
D02*
G37*
%LPD*%
G36*
X570906Y1168175D02*
Y1167349D01*
Y1166523D01*
Y1165698D01*
Y1164872D01*
Y1164047D01*
Y1163221D01*
Y1162396D01*
Y1161570D01*
Y1160745D01*
Y1159919D01*
Y1159094D01*
Y1158268D01*
Y1157443D01*
Y1156617D01*
Y1155792D01*
Y1154966D01*
Y1154141D01*
Y1153315D01*
Y1152489D01*
Y1151664D01*
Y1150838D01*
Y1150013D01*
Y1149187D01*
X551094D01*
Y1150013D01*
Y1150838D01*
Y1151664D01*
Y1152489D01*
Y1153315D01*
Y1154141D01*
Y1154966D01*
Y1155792D01*
Y1156617D01*
Y1157443D01*
Y1158268D01*
Y1159094D01*
Y1159919D01*
Y1160745D01*
Y1161570D01*
Y1162396D01*
Y1163221D01*
Y1164047D01*
Y1164872D01*
Y1165698D01*
Y1166523D01*
Y1167349D01*
Y1168175D01*
Y1169000D01*
X570906D01*
Y1168175D01*
D02*
G37*
%LPC*%
G36*
X511469Y1142583D02*
X504864D01*
Y1141758D01*
Y1140932D01*
Y1140107D01*
Y1139281D01*
Y1138456D01*
Y1137630D01*
Y1136805D01*
Y1135979D01*
X511469D01*
Y1136805D01*
Y1137630D01*
Y1138456D01*
Y1139281D01*
Y1140107D01*
Y1140932D01*
Y1141758D01*
Y1142583D01*
D02*
G37*
G36*
X485052Y1175604D02*
X452031D01*
Y1174779D01*
Y1173953D01*
Y1173128D01*
Y1172302D01*
Y1171477D01*
Y1170651D01*
Y1169826D01*
Y1169000D01*
Y1168175D01*
Y1167349D01*
Y1166523D01*
Y1165698D01*
Y1164872D01*
Y1164047D01*
Y1163221D01*
Y1162396D01*
Y1161570D01*
Y1160745D01*
Y1159919D01*
Y1159094D01*
Y1158268D01*
Y1157443D01*
Y1156617D01*
Y1155792D01*
Y1154966D01*
Y1154141D01*
Y1153315D01*
Y1152489D01*
Y1151664D01*
Y1150838D01*
Y1150013D01*
Y1149187D01*
Y1148362D01*
Y1147536D01*
Y1146711D01*
Y1145885D01*
Y1145060D01*
Y1144234D01*
Y1143409D01*
Y1142583D01*
X485052D01*
Y1143409D01*
Y1144234D01*
Y1145060D01*
Y1145885D01*
Y1146711D01*
Y1147536D01*
Y1148362D01*
Y1149187D01*
Y1150013D01*
Y1150838D01*
Y1151664D01*
Y1152489D01*
Y1153315D01*
Y1154141D01*
Y1154966D01*
Y1155792D01*
Y1156617D01*
Y1157443D01*
Y1158268D01*
Y1159094D01*
Y1159919D01*
Y1160745D01*
Y1161570D01*
Y1162396D01*
Y1163221D01*
Y1164047D01*
Y1164872D01*
Y1165698D01*
Y1166523D01*
Y1167349D01*
Y1168175D01*
Y1169000D01*
Y1169826D01*
Y1170651D01*
Y1171477D01*
Y1172302D01*
Y1173128D01*
Y1173953D01*
Y1174779D01*
Y1175604D01*
D02*
G37*
%LPD*%
G36*
X478448Y1168175D02*
Y1167349D01*
Y1166523D01*
Y1165698D01*
Y1164872D01*
Y1164047D01*
Y1163221D01*
Y1162396D01*
Y1161570D01*
Y1160745D01*
Y1159919D01*
Y1159094D01*
Y1158268D01*
Y1157443D01*
Y1156617D01*
Y1155792D01*
Y1154966D01*
Y1154141D01*
Y1153315D01*
Y1152489D01*
Y1151664D01*
Y1150838D01*
Y1150013D01*
Y1149187D01*
X458635D01*
Y1150013D01*
Y1150838D01*
Y1151664D01*
Y1152489D01*
Y1153315D01*
Y1154141D01*
Y1154966D01*
Y1155792D01*
Y1156617D01*
Y1157443D01*
Y1158268D01*
Y1159094D01*
Y1159919D01*
Y1160745D01*
Y1161570D01*
Y1162396D01*
Y1163221D01*
Y1164047D01*
Y1164872D01*
Y1165698D01*
Y1166523D01*
Y1167349D01*
Y1168175D01*
Y1169000D01*
X478448D01*
Y1168175D01*
D02*
G37*
%LPC*%
G36*
X485052Y1083146D02*
X452031D01*
Y1082320D01*
Y1081495D01*
Y1080669D01*
Y1079843D01*
Y1079018D01*
Y1078192D01*
Y1077367D01*
Y1076541D01*
Y1075716D01*
Y1074890D01*
Y1074065D01*
Y1073239D01*
Y1072414D01*
Y1071588D01*
Y1070763D01*
Y1069937D01*
Y1069112D01*
Y1068286D01*
Y1067461D01*
Y1066635D01*
Y1065809D01*
Y1064984D01*
Y1064158D01*
Y1063333D01*
Y1062507D01*
Y1061682D01*
Y1060856D01*
Y1060031D01*
Y1059205D01*
Y1058380D01*
Y1057554D01*
Y1056729D01*
Y1055903D01*
Y1055078D01*
Y1054252D01*
Y1053427D01*
Y1052601D01*
Y1051776D01*
Y1050950D01*
Y1050125D01*
X485052D01*
Y1050950D01*
Y1051776D01*
Y1052601D01*
Y1053427D01*
Y1054252D01*
Y1055078D01*
Y1055903D01*
Y1056729D01*
Y1057554D01*
Y1058380D01*
Y1059205D01*
Y1060031D01*
Y1060856D01*
Y1061682D01*
Y1062507D01*
Y1063333D01*
Y1064158D01*
Y1064984D01*
Y1065809D01*
Y1066635D01*
Y1067461D01*
Y1068286D01*
Y1069112D01*
Y1069937D01*
Y1070763D01*
Y1071588D01*
Y1072414D01*
Y1073239D01*
Y1074065D01*
Y1074890D01*
Y1075716D01*
Y1076541D01*
Y1077367D01*
Y1078192D01*
Y1079018D01*
Y1079843D01*
Y1080669D01*
Y1081495D01*
Y1082320D01*
Y1083146D01*
D02*
G37*
%LPD*%
G36*
X478448Y1075716D02*
Y1074890D01*
Y1074065D01*
Y1073239D01*
Y1072414D01*
Y1071588D01*
Y1070763D01*
Y1069937D01*
Y1069112D01*
Y1068286D01*
Y1067461D01*
Y1066635D01*
Y1065809D01*
Y1064984D01*
Y1064158D01*
Y1063333D01*
Y1062507D01*
Y1061682D01*
Y1060856D01*
Y1060031D01*
Y1059205D01*
Y1058380D01*
Y1057554D01*
Y1056729D01*
X458635D01*
Y1057554D01*
Y1058380D01*
Y1059205D01*
Y1060031D01*
Y1060856D01*
Y1061682D01*
Y1062507D01*
Y1063333D01*
Y1064158D01*
Y1064984D01*
Y1065809D01*
Y1066635D01*
Y1067461D01*
Y1068286D01*
Y1069112D01*
Y1069937D01*
Y1070763D01*
Y1071588D01*
Y1072414D01*
Y1073239D01*
Y1074065D01*
Y1074890D01*
Y1075716D01*
Y1076541D01*
X478448D01*
Y1075716D01*
D02*
G37*
D10*
X1477406Y1196194D02*
G03*
X1477406Y1196194I-1250J0D01*
G01*
X1394000Y1064750D02*
G03*
X1394000Y1064750I-1250J0D01*
G01*
X1243250Y1113499D02*
G03*
X1243250Y1113499I-1250J0D01*
G01*
X1237250Y1083000D02*
G03*
X1237250Y1083000I-1250J0D01*
G01*
X1439500Y1119750D02*
G03*
X1439500Y1119750I-1250J0D01*
G01*
X1466250Y1027000D02*
G03*
X1466250Y1027000I-1250J0D01*
G01*
X1466000Y1070000D02*
Y1079997D01*
X1470998D01*
X1472664Y1078331D01*
Y1074998D01*
X1470998Y1073332D01*
X1466000D01*
X1469332D02*
X1472664Y1070000D01*
X1475997D02*
X1479329D01*
X1477663D01*
Y1079997D01*
X1475997Y1078331D01*
X1484327Y1079997D02*
X1490992D01*
Y1078331D01*
X1484327Y1071666D01*
Y1070000D01*
D11*
X1353716Y1097241D02*
G03*
X1353716Y1097241I-3717J0D01*
G01*
X1351414D02*
G03*
X1351414Y1097241I-1414J0D01*
G01*
X1430060Y1136000D02*
Y1145997D01*
X1435058D01*
X1436725Y1144331D01*
Y1140998D01*
X1435058Y1139332D01*
X1430060D01*
X1433392D02*
X1436725Y1136000D01*
X1440057Y1144331D02*
X1441723Y1145997D01*
X1445055D01*
X1446721Y1144331D01*
Y1142664D01*
X1445055Y1140998D01*
X1446721Y1139332D01*
Y1137666D01*
X1445055Y1136000D01*
X1441723D01*
X1440057Y1137666D01*
Y1139332D01*
X1441723Y1140998D01*
X1440057Y1142664D01*
Y1144331D01*
X1441723Y1140998D02*
X1445055D01*
X1343000Y1191000D02*
Y1200997D01*
X1347998D01*
X1349664Y1199331D01*
Y1195998D01*
X1347998Y1194332D01*
X1343000D01*
X1346332D02*
X1349664Y1191000D01*
X1359661Y1200997D02*
X1352997D01*
Y1195998D01*
X1356329Y1197664D01*
X1357995D01*
X1359661Y1195998D01*
Y1192666D01*
X1357995Y1191000D01*
X1354663D01*
X1352997Y1192666D01*
X1369000Y1169000D02*
X1359003D01*
Y1173998D01*
X1360669Y1175665D01*
X1364002D01*
X1365668Y1173998D01*
Y1169000D01*
Y1172332D02*
X1369000Y1175665D01*
Y1185661D02*
Y1178997D01*
X1362336Y1185661D01*
X1360669D01*
X1359003Y1183995D01*
Y1180663D01*
X1360669Y1178997D01*
X1374000Y1127000D02*
Y1136997D01*
X1378998D01*
X1380665Y1135331D01*
Y1131998D01*
X1378998Y1130332D01*
X1374000D01*
X1377332D02*
X1380665Y1127000D01*
X1383997D02*
X1387329D01*
X1385663D01*
Y1136997D01*
X1383997Y1135331D01*
X1396000Y982997D02*
Y973000D01*
X1400998D01*
X1402664Y974666D01*
Y981331D01*
X1400998Y982997D01*
X1396000D01*
X1412661Y973000D02*
X1405997D01*
X1412661Y979665D01*
Y981331D01*
X1410995Y982997D01*
X1407663D01*
X1405997Y981331D01*
X1488003Y1179000D02*
X1498000D01*
Y1183998D01*
X1496334Y1185665D01*
X1489669D01*
X1488003Y1183998D01*
Y1179000D01*
X1498000Y1188997D02*
Y1192329D01*
Y1190663D01*
X1488003D01*
X1489669Y1188997D01*
X1266000Y1170997D02*
Y1162666D01*
X1267666Y1161000D01*
X1270998D01*
X1272664Y1162666D01*
Y1170997D01*
X1282661Y1161000D02*
X1275997D01*
X1282661Y1167664D01*
Y1169331D01*
X1280995Y1170997D01*
X1277663D01*
X1275997Y1169331D01*
X962000Y1011000D02*
Y1020997D01*
X966998D01*
X968664Y1019331D01*
Y1015998D01*
X966998Y1014332D01*
X962000D01*
X965332D02*
X968664Y1011000D01*
X976995D02*
Y1020997D01*
X971997Y1015998D01*
X978661D01*
X962000Y1057000D02*
Y1066997D01*
X966998D01*
X968664Y1065331D01*
Y1061998D01*
X966998Y1060332D01*
X962000D01*
X965332D02*
X968664Y1057000D01*
X971997Y1065331D02*
X973663Y1066997D01*
X976995D01*
X978661Y1065331D01*
Y1063664D01*
X976995Y1061998D01*
X975329D01*
X976995D01*
X978661Y1060332D01*
Y1058666D01*
X976995Y1057000D01*
X973663D01*
X971997Y1058666D01*
X1297664Y1197331D02*
X1295998Y1198997D01*
X1292666D01*
X1291000Y1197331D01*
Y1190666D01*
X1292666Y1189000D01*
X1295998D01*
X1297664Y1190666D01*
X1305995Y1189000D02*
Y1198997D01*
X1300997Y1193998D01*
X1307661D01*
X1297664Y1182331D02*
X1295998Y1183997D01*
X1292666D01*
X1291000Y1182331D01*
Y1175666D01*
X1292666Y1174000D01*
X1295998D01*
X1297664Y1175666D01*
X1300997Y1182331D02*
X1302663Y1183997D01*
X1305995D01*
X1307661Y1182331D01*
Y1180665D01*
X1305995Y1178998D01*
X1304329D01*
X1305995D01*
X1307661Y1177332D01*
Y1175666D01*
X1305995Y1174000D01*
X1302663D01*
X1300997Y1175666D01*
X1384664Y1198331D02*
X1382998Y1199997D01*
X1379666D01*
X1378000Y1198331D01*
Y1191666D01*
X1379666Y1190000D01*
X1382998D01*
X1384664Y1191666D01*
X1394661Y1190000D02*
X1387997D01*
X1394661Y1196665D01*
Y1198331D01*
X1392995Y1199997D01*
X1389663D01*
X1387997Y1198331D01*
X1416414Y1166331D02*
X1414748Y1167997D01*
X1411416D01*
X1409750Y1166331D01*
Y1159666D01*
X1411416Y1158000D01*
X1414748D01*
X1416414Y1159666D01*
X1419747Y1158000D02*
X1423079D01*
X1421413D01*
Y1167997D01*
X1419747Y1166331D01*
X1370000Y1012000D02*
Y1021997D01*
X1374998D01*
X1376664Y1020331D01*
Y1016998D01*
X1374998Y1015332D01*
X1370000D01*
X1373332D02*
X1376664Y1012000D01*
X1379997D02*
X1383329D01*
X1381663D01*
Y1021997D01*
X1379997Y1020331D01*
X1388327D02*
X1389994Y1021997D01*
X1393326D01*
X1394992Y1020331D01*
Y1013666D01*
X1393326Y1012000D01*
X1389994D01*
X1388327Y1013666D01*
Y1020331D01*
X1381000Y1081997D02*
X1387664D01*
X1384332D01*
Y1072000D01*
X1397661D02*
X1390997D01*
X1397661Y1078664D01*
Y1080331D01*
X1395995Y1081997D01*
X1392663D01*
X1390997Y1080331D01*
X1214500Y988447D02*
X1221164D01*
X1217832D01*
Y978450D01*
X1224497D02*
Y988447D01*
X1229495D01*
X1231161Y986781D01*
Y983448D01*
X1229495Y981782D01*
X1224497D01*
X1234494Y978450D02*
X1237826D01*
X1236160D01*
Y988447D01*
X1234494Y986781D01*
X1348000Y950997D02*
X1354664D01*
X1351332D01*
Y941000D01*
X1359663D02*
X1362995D01*
X1364661Y942666D01*
Y945998D01*
X1362995Y947664D01*
X1359663D01*
X1357997Y945998D01*
Y942666D01*
X1359663Y941000D01*
X1367994D02*
Y950997D01*
X1372992D01*
X1374658Y949331D01*
Y945998D01*
X1372992Y944332D01*
X1367994D01*
X1371326D02*
X1374658Y941000D01*
X1382989D02*
X1379657D01*
X1377990Y942666D01*
Y945998D01*
X1379657Y947664D01*
X1382989D01*
X1384655Y945998D01*
Y944332D01*
X1377990D01*
X1391319Y937668D02*
X1392986D01*
X1394652Y939334D01*
Y947664D01*
X1389653D01*
X1387987Y945998D01*
Y942666D01*
X1389653Y941000D01*
X1394652D01*
X1397984D02*
X1401316D01*
X1399650D01*
Y950997D01*
X1397984Y949331D01*
X1471000Y1230997D02*
Y1224332D01*
X1474332Y1221000D01*
X1477664Y1224332D01*
Y1230997D01*
X1480997D02*
Y1221000D01*
X1485995D01*
X1487661Y1222666D01*
Y1224332D01*
X1485995Y1225998D01*
X1480997D01*
X1485995D01*
X1487661Y1227664D01*
Y1229331D01*
X1485995Y1230997D01*
X1480997D01*
X1490994Y1227664D02*
Y1222666D01*
X1492660Y1221000D01*
X1497658D01*
Y1227664D01*
X1500990Y1221000D02*
X1505989D01*
X1507655Y1222666D01*
X1505989Y1224332D01*
X1502657D01*
X1500990Y1225998D01*
X1502657Y1227664D01*
X1507655D01*
X1510987Y1221000D02*
X1514319D01*
X1512653D01*
Y1230997D01*
X1510987Y1229331D01*
X1507003Y939000D02*
X1513668D01*
X1517000Y942332D01*
X1513668Y945665D01*
X1507003D01*
Y948997D02*
X1517000D01*
Y953995D01*
X1515334Y955661D01*
X1513668D01*
X1512002Y953995D01*
Y948997D01*
Y953995D01*
X1510336Y955661D01*
X1508669D01*
X1507003Y953995D01*
Y948997D01*
X1510336Y960660D02*
Y963992D01*
X1512002Y965658D01*
X1517000D01*
Y960660D01*
X1515334Y958994D01*
X1513668Y960660D01*
Y965658D01*
X1508669Y970657D02*
X1510336D01*
Y968990D01*
Y972323D01*
Y970657D01*
X1515334D01*
X1517000Y972323D01*
Y977321D02*
Y980653D01*
Y978987D01*
X1507003D01*
X1508669Y977321D01*
X705000Y1016250D02*
Y1026247D01*
X709998D01*
X711665Y1024581D01*
Y1021248D01*
X709998Y1019582D01*
X705000D01*
X708332D02*
X711665Y1016250D01*
X721661D02*
X714997D01*
X721661Y1022914D01*
Y1024581D01*
X719995Y1026247D01*
X716663D01*
X714997Y1024581D01*
X724994D02*
X726660Y1026247D01*
X729992D01*
X731658Y1024581D01*
Y1022914D01*
X729992Y1021248D01*
X728326D01*
X729992D01*
X731658Y1019582D01*
Y1017916D01*
X729992Y1016250D01*
X726660D01*
X724994Y1017916D01*
X579250Y1016500D02*
Y1026497D01*
X584248D01*
X585914Y1024831D01*
Y1021498D01*
X584248Y1019832D01*
X579250D01*
X582582D02*
X585914Y1016500D01*
X595911D02*
X589247D01*
X595911Y1023165D01*
Y1024831D01*
X594245Y1026497D01*
X590913D01*
X589247Y1024831D01*
X605908Y1016500D02*
X599244D01*
X605908Y1023165D01*
Y1024831D01*
X604242Y1026497D01*
X600910D01*
X599244Y1024831D01*
X431750Y1016000D02*
Y1025997D01*
X436748D01*
X438414Y1024331D01*
Y1020998D01*
X436748Y1019332D01*
X431750D01*
X435082D02*
X438414Y1016000D01*
X448411D02*
X441747D01*
X448411Y1022664D01*
Y1024331D01*
X446745Y1025997D01*
X443413D01*
X441747Y1024331D01*
X451744Y1016000D02*
X455076D01*
X453410D01*
Y1025997D01*
X451744Y1024331D01*
X1487997Y1054000D02*
X1479666D01*
X1478000Y1052334D01*
Y1049002D01*
X1479666Y1047336D01*
X1487997D01*
X1478000Y1039005D02*
X1487997D01*
X1482998Y1044003D01*
Y1037339D01*
X732028Y1188557D02*
Y1180226D01*
X733694Y1178560D01*
X737026D01*
X738692Y1180226D01*
Y1188557D01*
X742025Y1178560D02*
X745357D01*
X743691D01*
Y1188557D01*
X742025Y1186891D01*
X1473003Y1088000D02*
Y1094665D01*
Y1091332D01*
X1483000D01*
Y1097997D02*
Y1101329D01*
Y1099663D01*
X1473003D01*
X1474669Y1097997D01*
X1025750Y1053250D02*
X1035747D01*
Y1048252D01*
X1034081Y1046585D01*
X1030748D01*
X1029082Y1048252D01*
Y1053250D01*
Y1049918D02*
X1025750Y1046585D01*
Y1036589D02*
Y1043253D01*
X1032414Y1036589D01*
X1034081D01*
X1035747Y1038255D01*
Y1041587D01*
X1034081Y1043253D01*
X1035747Y1026592D02*
Y1033256D01*
X1030748D01*
X1032414Y1029924D01*
Y1028258D01*
X1030748Y1026592D01*
X1027416D01*
X1025750Y1028258D01*
Y1031590D01*
X1027416Y1033256D01*
X1004500Y1045870D02*
X1014497D01*
Y1040872D01*
X1012831Y1039205D01*
X1009498D01*
X1007832Y1040872D01*
Y1045870D01*
Y1042538D02*
X1004500Y1039205D01*
Y1029209D02*
Y1035873D01*
X1011164Y1029209D01*
X1012831D01*
X1014497Y1030875D01*
Y1034207D01*
X1012831Y1035873D01*
X1004500Y1020878D02*
X1014497D01*
X1009498Y1025876D01*
Y1019212D01*
X1470000Y1007000D02*
Y1016997D01*
X1474998D01*
X1476664Y1015331D01*
Y1011998D01*
X1474998Y1010332D01*
X1470000D01*
X1473332D02*
X1476664Y1007000D01*
X1479997D02*
X1483329D01*
X1481663D01*
Y1016997D01*
X1479997Y1015331D01*
X1488327Y1008666D02*
X1489994Y1007000D01*
X1493326D01*
X1494992Y1008666D01*
Y1015331D01*
X1493326Y1016997D01*
X1489994D01*
X1488327Y1015331D01*
Y1013664D01*
X1489994Y1011998D01*
X1494992D01*
X1319000Y1064000D02*
Y1073997D01*
X1323998D01*
X1325665Y1072331D01*
Y1068998D01*
X1323998Y1067332D01*
X1319000D01*
X1322332D02*
X1325665Y1064000D01*
X1328997D02*
X1332329D01*
X1330663D01*
Y1073997D01*
X1328997Y1072331D01*
X1337327D02*
X1338994Y1073997D01*
X1342326D01*
X1343992Y1072331D01*
Y1070665D01*
X1342326Y1068998D01*
X1343992Y1067332D01*
Y1065666D01*
X1342326Y1064000D01*
X1338994D01*
X1337327Y1065666D01*
Y1067332D01*
X1338994Y1068998D01*
X1337327Y1070665D01*
Y1072331D01*
X1338994Y1068998D02*
X1342326D01*
X1310000Y1080000D02*
Y1089997D01*
X1314998D01*
X1316664Y1088331D01*
Y1084998D01*
X1314998Y1083332D01*
X1310000D01*
X1313332D02*
X1316664Y1080000D01*
X1319997D02*
X1323329D01*
X1321663D01*
Y1089997D01*
X1319997Y1088331D01*
X1334992Y1089997D02*
X1328327D01*
Y1084998D01*
X1331660Y1086665D01*
X1333326D01*
X1334992Y1084998D01*
Y1081666D01*
X1333326Y1080000D01*
X1329994D01*
X1328327Y1081666D01*
X1452000Y1239000D02*
Y1229003D01*
X1447002D01*
X1445336Y1230669D01*
Y1234002D01*
X1447002Y1235668D01*
X1452000D01*
X1448668D02*
X1445336Y1239000D01*
X1442003D02*
X1438671D01*
X1440337D01*
Y1229003D01*
X1442003Y1230669D01*
X1433673D02*
X1432006Y1229003D01*
X1428674D01*
X1427008Y1230669D01*
Y1232336D01*
X1428674Y1234002D01*
X1430340D01*
X1428674D01*
X1427008Y1235668D01*
Y1237334D01*
X1428674Y1239000D01*
X1432006D01*
X1433673Y1237334D01*
X1177000Y1046000D02*
X1167003D01*
Y1050998D01*
X1168669Y1052664D01*
X1172002D01*
X1173668Y1050998D01*
Y1046000D01*
Y1049332D02*
X1177000Y1052664D01*
Y1055997D02*
Y1059329D01*
Y1057663D01*
X1167003D01*
X1168669Y1055997D01*
X1167003Y1070992D02*
X1168669Y1067660D01*
X1172002Y1064327D01*
X1175334D01*
X1177000Y1065994D01*
Y1069326D01*
X1175334Y1070992D01*
X1173668D01*
X1172002Y1069326D01*
Y1064327D01*
X1388000Y1095000D02*
X1378003D01*
Y1099998D01*
X1379669Y1101665D01*
X1383002D01*
X1384668Y1099998D01*
Y1095000D01*
Y1098332D02*
X1388000Y1101665D01*
Y1104997D02*
Y1108329D01*
Y1106663D01*
X1378003D01*
X1379669Y1104997D01*
X1388000Y1119992D02*
Y1113327D01*
X1381335Y1119992D01*
X1379669D01*
X1378003Y1118326D01*
Y1114994D01*
X1379669Y1113327D01*
X1435000Y923000D02*
Y932997D01*
X1439998D01*
X1441664Y931331D01*
Y927998D01*
X1439998Y926332D01*
X1435000D01*
X1438332D02*
X1441664Y923000D01*
X1444997Y932997D02*
X1451661D01*
Y931331D01*
X1444997Y924666D01*
Y923000D01*
X1434000Y940000D02*
Y949997D01*
X1438998D01*
X1440665Y948331D01*
Y944998D01*
X1438998Y943332D01*
X1434000D01*
X1437332D02*
X1440665Y940000D01*
X1450661Y949997D02*
X1447329Y948331D01*
X1443997Y944998D01*
Y941666D01*
X1445663Y940000D01*
X1448995D01*
X1450661Y941666D01*
Y943332D01*
X1448995Y944998D01*
X1443997D01*
X1144000Y1034000D02*
X1134003D01*
Y1038998D01*
X1135669Y1040665D01*
X1139002D01*
X1140668Y1038998D01*
Y1034000D01*
Y1037332D02*
X1144000Y1040665D01*
Y1043997D02*
Y1047329D01*
Y1045663D01*
X1134003D01*
X1135669Y1043997D01*
X1144000Y1052327D02*
Y1055660D01*
Y1053994D01*
X1134003D01*
X1135669Y1052327D01*
X1177500Y1127000D02*
X1167503D01*
Y1131998D01*
X1169169Y1133664D01*
X1172502D01*
X1174168Y1131998D01*
Y1127000D01*
Y1130332D02*
X1177500Y1133664D01*
X1175834Y1136997D02*
X1177500Y1138663D01*
Y1141995D01*
X1175834Y1143661D01*
X1169169D01*
X1167503Y1141995D01*
Y1138663D01*
X1169169Y1136997D01*
X1170835D01*
X1172502Y1138663D01*
Y1143661D01*
X1242664Y1137666D02*
Y1144331D01*
X1240998Y1145997D01*
X1237666D01*
X1236000Y1144331D01*
Y1137666D01*
X1237666Y1136000D01*
X1240998D01*
X1239332Y1139332D02*
X1242664Y1136000D01*
X1240998D02*
X1242664Y1137666D01*
X1252661Y1136000D02*
X1245997D01*
X1252661Y1142664D01*
Y1144331D01*
X1250995Y1145997D01*
X1247663D01*
X1245997Y1144331D01*
X1236665Y1050666D02*
Y1057331D01*
X1234998Y1058997D01*
X1231666D01*
X1230000Y1057331D01*
Y1050666D01*
X1231666Y1049000D01*
X1234998D01*
X1233332Y1052332D02*
X1236665Y1049000D01*
X1234998D02*
X1236665Y1050666D01*
X1239997Y1049000D02*
X1243329D01*
X1241663D01*
Y1058997D01*
X1239997Y1057331D01*
X1412253Y1127500D02*
X1422250D01*
Y1132498D01*
X1420584Y1134165D01*
X1413919D01*
X1412253Y1132498D01*
Y1127500D01*
X1413919Y1137497D02*
X1412253Y1139163D01*
Y1142495D01*
X1413919Y1144161D01*
X1415585D01*
X1417252Y1142495D01*
Y1140829D01*
Y1142495D01*
X1418918Y1144161D01*
X1420584D01*
X1422250Y1142495D01*
Y1139163D01*
X1420584Y1137497D01*
X1470331Y943335D02*
X1471997Y945002D01*
Y948334D01*
X1470331Y950000D01*
X1463666D01*
X1462000Y948334D01*
Y945002D01*
X1463666Y943335D01*
X1462000Y940003D02*
Y936671D01*
Y938337D01*
X1471997D01*
X1470331Y940003D01*
Y931673D02*
X1471997Y930006D01*
Y926674D01*
X1470331Y925008D01*
X1468665D01*
X1466998Y926674D01*
Y928340D01*
Y926674D01*
X1465332Y925008D01*
X1463666D01*
X1462000Y926674D01*
Y930006D01*
X1463666Y931673D01*
X1445336Y1214669D02*
X1447002Y1213003D01*
X1450334D01*
X1452000Y1214669D01*
Y1221334D01*
X1450334Y1223000D01*
X1447002D01*
X1445336Y1221334D01*
X1442003Y1223000D02*
X1438671D01*
X1440337D01*
Y1213003D01*
X1442003Y1214669D01*
X1427008Y1223000D02*
X1433673D01*
X1427008Y1216336D01*
Y1214669D01*
X1428674Y1213003D01*
X1432006D01*
X1433673Y1214669D01*
X1151669Y1050665D02*
X1150003Y1048998D01*
Y1045666D01*
X1151669Y1044000D01*
X1158334D01*
X1160000Y1045666D01*
Y1048998D01*
X1158334Y1050665D01*
X1160000Y1053997D02*
Y1057329D01*
Y1055663D01*
X1150003D01*
X1151669Y1053997D01*
X1160000Y1062327D02*
Y1065660D01*
Y1063994D01*
X1150003D01*
X1151669Y1062327D01*
X1311664Y1018331D02*
X1309998Y1019997D01*
X1306666D01*
X1305000Y1018331D01*
Y1011666D01*
X1306666Y1010000D01*
X1309998D01*
X1311664Y1011666D01*
X1314997D02*
X1316663Y1010000D01*
X1319995D01*
X1321661Y1011666D01*
Y1018331D01*
X1319995Y1019997D01*
X1316663D01*
X1314997Y1018331D01*
Y1016665D01*
X1316663Y1014998D01*
X1321661D01*
D12*
X732980Y1093130D02*
G03*
X732980Y1093130I-1000J0D01*
G01*
D13*
X1395000Y1204000D02*
X1403750Y1198000D01*
X1404000Y1176000D01*
X1489000Y1175000D02*
X1498000D01*
X1501000Y1177000D01*
Y1180000D01*
X1258000Y1162000D02*
X1262000Y1157780D01*
X1288461D01*
X1287000Y1171000D02*
X1336000D01*
X1287000D02*
Y1199000D01*
X1340000Y1191000D02*
Y1204000D01*
X1361000D01*
X1356000Y1137000D02*
Y1178000D01*
Y1137000D02*
X1360000D01*
X1391000Y1126000D02*
X1400000Y1139000D01*
Y1150834D01*
X1425248Y1156000D02*
X1428000Y1160000D01*
X1377000Y1156000D02*
X1425248D01*
X735000Y1001000D02*
Y1026000D01*
X609000Y1002000D02*
Y1028000D01*
X459000Y1001000D02*
Y1025000D01*
X958000Y1046000D02*
Y1071000D01*
X980000D01*
X957000Y1008000D02*
Y1032000D01*
Y1008000D02*
X982000D01*
X1001000Y1019000D02*
X1005000Y1013000D01*
X1001000Y1019000D02*
Y1053250D01*
X1022000Y1024000D02*
X1025000Y1020000D01*
X1022000Y1024000D02*
Y1061000D01*
X1143000Y1027000D02*
X1147000Y1032000D01*
Y1055000D01*
X1160000Y1037000D02*
X1164000Y1041000D01*
Y1069000D01*
X1177500Y1039000D02*
X1183000Y1046000D01*
Y1092690D01*
Y1100000D02*
Y1145000D01*
X1177000Y1150000D02*
X1183000Y1145000D01*
X1231000Y1133000D02*
X1239000Y1124500D01*
X1231000Y1133000D02*
Y1146000D01*
X1246000Y1049000D02*
Y1062000D01*
X1238000Y1068000D02*
X1246000Y1062000D01*
X1339000Y1077000D02*
X1343000Y1080000D01*
X1281000Y1077000D02*
X1339000D01*
X1342000Y1060000D02*
X1347000Y1063000D01*
X1288461Y1060000D02*
X1342000D01*
X1475000Y923000D02*
Y983000D01*
X1456000Y1004000D02*
X1494000D01*
X1476000Y1037000D02*
Y1063000D01*
X1466250D02*
X1476000D01*
X1462000Y1071000D02*
X1465000Y1068000D01*
X1486000D01*
X1466250Y1117000D02*
X1470000Y1113499D01*
Y1089000D02*
Y1113499D01*
X1430060Y1134000D02*
X1458000D01*
X1422250Y1123000D02*
X1425250Y1124500D01*
X1425248Y1142000D02*
X1425250Y1124500D01*
X1398000Y1092690D02*
X1404000Y1096000D01*
X1379000Y1092690D02*
X1398000D01*
X1386000Y1065000D02*
X1411000D01*
X1375000Y1069000D02*
X1386000Y1065000D01*
X1375000Y1069000D02*
Y1084000D01*
X1369000Y1010000D02*
X1425000D01*
X1343000Y1007000D02*
X1351000D01*
X1305000D02*
X1343000D01*
X1455250Y971000D02*
Y983000D01*
X1454000Y923000D02*
Y948000D01*
X1455250Y951000D01*
Y971000D01*
X1439000Y1172000D02*
Y1201000D01*
X1454000Y1214000D01*
Y1237000D01*
D14*
X1413190Y986000D02*
X1430060D01*
X1413190Y1004000D02*
X1430060D01*
X1413190Y986000D02*
Y1004000D01*
X1485606Y1167694D02*
Y1177694D01*
X1450006Y1167694D02*
Y1177694D01*
X1403750Y1032750D02*
X1409750D01*
Y1061750D01*
X1403750D02*
X1409750D01*
X1403750Y1032750D02*
Y1061750D01*
X1085450Y1233170D02*
X1422000D01*
X1066400D02*
X1085450D01*
X1066400Y1207770D02*
Y1233170D01*
Y1207770D02*
X1422000D01*
Y1233170D01*
X1066300Y922920D02*
X1294900D01*
X1066300Y897520D02*
Y922920D01*
Y897520D02*
X1294900D01*
Y922920D01*
X309300Y949900D02*
X334700D01*
X309300D02*
Y1051500D01*
X334700Y949900D02*
Y1051500D01*
X309300D02*
X334700D01*
X1267000Y1131499D02*
X1275000D01*
Y1125499D02*
Y1131499D01*
X1245000D02*
X1253000D01*
X1245000Y1125499D02*
Y1131499D01*
X1203000Y1065000D02*
X1211000D01*
X1203000D02*
Y1071000D01*
X1225000Y1065000D02*
X1233000D01*
Y1071000D01*
X1407250Y1092690D02*
X1425250D01*
X1407250D02*
Y1109560D01*
X1425250Y1092690D02*
Y1109560D01*
X1449250Y1087750D02*
Y1116750D01*
X1455250D01*
Y1087750D02*
Y1116750D01*
X1449250Y1087750D02*
X1455250D01*
X1451500Y1030000D02*
Y1061000D01*
X1454500Y1030000D02*
Y1061000D01*
X1451500D02*
X1454500D01*
X1451500Y1030000D02*
X1454500D01*
X1066800Y1207770D02*
Y1233170D01*
X431800Y1207770D02*
X1066800D01*
X431800D02*
Y1233170D01*
X450850D01*
X1066800D01*
D15*
X1288461Y1102702D02*
Y1109648D01*
X1288461Y1157780D02*
X1295407D01*
X1343539Y1150834D02*
Y1157780D01*
Y1102702D02*
Y1109648D01*
X1288461Y1102702D02*
X1295407D01*
X1288461Y1150834D02*
Y1157780D01*
X1336593D02*
X1343539D01*
X1336593Y1102702D02*
X1343539D01*
D16*
X750150Y1105250D02*
X929350D01*
X929750Y913250D02*
Y920750D01*
X904750Y913250D02*
X929750D01*
X749750D02*
X774750D01*
X749750D02*
Y920750D01*
X929750Y1100750D02*
Y1168250D01*
X749750D02*
X929750D01*
X749750Y1100750D02*
Y1168250D01*
X325000Y1136500D02*
Y1153501D01*
X305501Y1106000D02*
X318500D01*
X298000Y1109500D02*
Y1126000D01*
Y1139000D01*
Y1169500D01*
X305501Y1173000D02*
X318500D01*
D17*
X1415730Y995000D02*
D03*
D18*
X1416247Y1095230D02*
D03*
M02*
