G04*
G04 #@! TF.GenerationSoftware,Altium Limited,Altium Designer,19.0.14 (431)*
G04*
G04 Layer_Color=8388736*
%FSLAX44Y44*%
%MOMM*%
G71*
G01*
G75*
%ADD23R,0.9000X1.3000*%
%ADD24R,1.1000X1.3000*%
%ADD25R,0.2032X1.2000*%
%ADD26R,1.2000X0.2032*%
%ADD40R,1.1032X1.0032*%
%ADD41R,1.0032X1.1032*%
%ADD42R,1.1172X1.4222*%
%ADD43R,2.2032X2.2032*%
%ADD44R,3.0000X3.0000*%
G04:AMPARAMS|DCode=45|XSize=2.2032mm|YSize=2.2032mm|CornerRadius=1.1016mm|HoleSize=0mm|Usage=FLASHONLY|Rotation=0.000|XOffset=0mm|YOffset=0mm|HoleType=Round|Shape=RoundedRectangle|*
%AMROUNDEDRECTD45*
21,1,2.2032,0.0000,0,0,0.0*
21,1,0.0000,2.2032,0,0,0.0*
1,1,2.2032,0.0000,0.0000*
1,1,2.2032,0.0000,0.0000*
1,1,2.2032,0.0000,0.0000*
1,1,2.2032,0.0000,0.0000*
%
%ADD45ROUNDEDRECTD45*%
%ADD46R,5.3032X5.3032*%
%ADD47R,1.2532X0.8032*%
%ADD48R,2.7032X1.7032*%
%ADD49R,3.4532X4.2032*%
%ADD50R,0.8032X1.8032*%
%ADD51R,1.4222X1.1172*%
%ADD52R,1.5032X0.9032*%
%ADD53R,2.2032X1.1032*%
%ADD54R,1.1032X2.2032*%
%ADD55R,5.2032X5.2032*%
%ADD56R,2.2032X1.0033*%
%ADD57R,1.0033X1.2032*%
%ADD58R,1.0033X1.1031*%
%ADD59C,0.2032*%
G04:AMPARAMS|DCode=60|XSize=2.3532mm|YSize=1.2532mm|CornerRadius=0.6266mm|HoleSize=0mm|Usage=FLASHONLY|Rotation=180.000|XOffset=0mm|YOffset=0mm|HoleType=Round|Shape=RoundedRectangle|*
%AMROUNDEDRECTD60*
21,1,2.3532,0.0000,0,0,180.0*
21,1,1.1000,1.2532,0,0,180.0*
1,1,1.2532,-0.5500,0.0000*
1,1,1.2532,0.5500,0.0000*
1,1,1.2532,0.5500,0.0000*
1,1,1.2532,-0.5500,0.0000*
%
%ADD60ROUNDEDRECTD60*%
%ADD61C,1.2032*%
%ADD62C,1.7032*%
%ADD63R,1.7032X1.7032*%
%ADD64R,1.7032X1.7032*%
%ADD65C,1.0033*%
%ADD66C,0.3000*%
%ADD67C,0.7032*%
%ADD68C,3.0000*%
G36*
X1120500Y1093250D02*
X1068250D01*
Y1145000D01*
X1068457Y1145500D01*
X1120500D01*
Y1093250D01*
D02*
G37*
D23*
X1477306Y1161694D02*
D03*
X1458306D02*
D03*
Y1183694D02*
D03*
D24*
X1475306D02*
D03*
D25*
X1331000Y1105741D02*
D03*
X1326000D02*
D03*
X1321000D02*
D03*
X1316000D02*
D03*
X1311000D02*
D03*
X1306000D02*
D03*
X1301000D02*
D03*
Y1154741D02*
D03*
X1306000D02*
D03*
X1311000D02*
D03*
X1316000D02*
D03*
X1321000D02*
D03*
X1326000D02*
D03*
X1331000D02*
D03*
D26*
X1291500Y1115241D02*
D03*
Y1120241D02*
D03*
Y1125241D02*
D03*
Y1130241D02*
D03*
Y1135241D02*
D03*
Y1140241D02*
D03*
Y1145241D02*
D03*
X1340500D02*
D03*
Y1140241D02*
D03*
Y1135241D02*
D03*
Y1130241D02*
D03*
Y1125241D02*
D03*
Y1120241D02*
D03*
Y1115241D02*
D03*
D40*
X1422000Y1163000D02*
D03*
Y1149000D02*
D03*
X1346000Y1183000D02*
D03*
Y1169000D02*
D03*
X1364000Y1159800D02*
D03*
Y1145800D02*
D03*
X1155750Y1075750D02*
D03*
Y1089750D02*
D03*
X1464750Y975950D02*
D03*
Y961950D02*
D03*
X1172000Y1118500D02*
D03*
Y1104500D02*
D03*
X1140000Y1076000D02*
D03*
Y1062000D02*
D03*
X1397500Y1102000D02*
D03*
Y1116000D02*
D03*
X1172000Y1090000D02*
D03*
Y1076000D02*
D03*
X1011000Y1069000D02*
D03*
Y1055000D02*
D03*
X1030000Y1076000D02*
D03*
Y1062000D02*
D03*
D41*
X1294750Y1172250D02*
D03*
X1280750D02*
D03*
X1381000Y1195000D02*
D03*
X1395000D02*
D03*
X1440000Y1126000D02*
D03*
X1454000D02*
D03*
X1395250Y1163501D02*
D03*
X1381250D02*
D03*
X1379000Y1145800D02*
D03*
X1393000D02*
D03*
X1395000Y1179501D02*
D03*
X1381000D02*
D03*
X981000Y1046800D02*
D03*
X967000D02*
D03*
X981000Y1030800D02*
D03*
X967000D02*
D03*
X1317000Y1194000D02*
D03*
X1331000D02*
D03*
X1317000Y1179000D02*
D03*
X1331000D02*
D03*
X1332000Y1015000D02*
D03*
X1346000D02*
D03*
X1419250Y1178750D02*
D03*
X1433250D02*
D03*
X1449750Y976250D02*
D03*
X1435750D02*
D03*
X1435750Y962000D02*
D03*
X1449750D02*
D03*
X1433000Y1195000D02*
D03*
X1419000D02*
D03*
X1285759Y1084117D02*
D03*
X1299759D02*
D03*
X1295000Y1068726D02*
D03*
X1309000D02*
D03*
X1446250Y1012000D02*
D03*
X1460250D02*
D03*
X451500Y1007000D02*
D03*
X437500D02*
D03*
X597000D02*
D03*
X583000D02*
D03*
X722000D02*
D03*
X708000D02*
D03*
X1418750Y1017000D02*
D03*
X1404750D02*
D03*
X1440750Y1074750D02*
D03*
X1454750D02*
D03*
D42*
X1437383Y995000D02*
D03*
X1404617D02*
D03*
D43*
X598800Y900000D02*
D03*
X573400D02*
D03*
X548000D02*
D03*
X624200D02*
D03*
X649600D02*
D03*
X451400Y902000D02*
D03*
X426000D02*
D03*
X400600D02*
D03*
D44*
X1316000Y1130241D02*
D03*
D45*
X1490250Y945500D02*
D03*
X1464750Y1208000D02*
D03*
X1415250Y947750D02*
D03*
X1225000Y1004000D02*
D03*
D46*
X1094000Y1120000D02*
D03*
D47*
X1395250Y1056750D02*
D03*
Y1037750D02*
D03*
X1418250Y1047250D02*
D03*
X1463750Y1102250D02*
D03*
X1440750Y1092750D02*
D03*
Y1111750D02*
D03*
D48*
X1355250Y945750D02*
D03*
Y968250D02*
D03*
Y990750D02*
D03*
D49*
X1302750Y968250D02*
D03*
D50*
X1260000Y1135499D02*
D03*
X1269500Y1113499D02*
D03*
X1250500D02*
D03*
X1218000Y1061000D02*
D03*
X1208500Y1083000D02*
D03*
X1227500D02*
D03*
D51*
X1416250Y1084117D02*
D03*
Y1116883D02*
D03*
D52*
X1441000Y1036000D02*
D03*
Y1055000D02*
D03*
X1465000D02*
D03*
Y1045500D02*
D03*
Y1036000D02*
D03*
D53*
X924750Y1093350D02*
D03*
Y1080650D02*
D03*
Y1067950D02*
D03*
Y1055250D02*
D03*
Y1042550D02*
D03*
Y1029850D02*
D03*
Y1017150D02*
D03*
Y1004450D02*
D03*
Y991750D02*
D03*
Y979050D02*
D03*
Y966350D02*
D03*
Y953650D02*
D03*
Y940950D02*
D03*
Y928250D02*
D03*
X754750D02*
D03*
Y940950D02*
D03*
Y953650D02*
D03*
Y966350D02*
D03*
Y979050D02*
D03*
Y991750D02*
D03*
Y1004450D02*
D03*
Y1017150D02*
D03*
Y1029850D02*
D03*
Y1042550D02*
D03*
Y1055250D02*
D03*
Y1067950D02*
D03*
Y1080650D02*
D03*
Y1093350D02*
D03*
D54*
X896900Y918250D02*
D03*
X884200D02*
D03*
X871500D02*
D03*
X858800D02*
D03*
X846100D02*
D03*
X833400D02*
D03*
X820700D02*
D03*
X808000D02*
D03*
X795300D02*
D03*
X782600D02*
D03*
D55*
X829750Y1018350D02*
D03*
D56*
X332501Y1116269D02*
D03*
Y1161270D02*
D03*
Y1131270D02*
D03*
D57*
X300250Y1101999D02*
D03*
Y1177001D02*
D03*
D58*
X322750Y1101499D02*
D03*
Y1177501D02*
D03*
D59*
X1518420Y1152800D02*
D03*
Y1112800D02*
D03*
D60*
X1542520Y1161100D02*
D03*
X1542620Y1104500D02*
D03*
D61*
X1079650D02*
D03*
X1089650D02*
D03*
X1099650D02*
D03*
X1109650D02*
D03*
Y1114500D02*
D03*
X1099650D02*
D03*
X1089650D02*
D03*
X1079650D02*
D03*
Y1124500D02*
D03*
X1089650D02*
D03*
X1099650D02*
D03*
X1109650D02*
D03*
Y1134500D02*
D03*
X1099650D02*
D03*
X1089650D02*
D03*
X1079650D02*
D03*
D62*
X1409300Y1220470D02*
D03*
X1383900D02*
D03*
X1358500D02*
D03*
X1333100D02*
D03*
X1307700D02*
D03*
X1282300D02*
D03*
X1256900D02*
D03*
X1231500D02*
D03*
X1206100D02*
D03*
X1180700D02*
D03*
X1155300D02*
D03*
X1129900D02*
D03*
X1104500D02*
D03*
X1104400Y910220D02*
D03*
X1282200D02*
D03*
X1256800D02*
D03*
X1231400D02*
D03*
X1206000D02*
D03*
X1180600D02*
D03*
X1155200D02*
D03*
X1129800D02*
D03*
X322000Y1013400D02*
D03*
Y988000D02*
D03*
Y962600D02*
D03*
X876300Y1220470D02*
D03*
X850900D02*
D03*
X825500D02*
D03*
X723900D02*
D03*
X749300D02*
D03*
X774700D02*
D03*
X800100D02*
D03*
X901700D02*
D03*
X469900D02*
D03*
X495300D02*
D03*
X520700D02*
D03*
X546100D02*
D03*
X571500D02*
D03*
X596900D02*
D03*
X622300D02*
D03*
X647700D02*
D03*
X673100D02*
D03*
X698500D02*
D03*
X927100D02*
D03*
X952500D02*
D03*
X977900D02*
D03*
X1003300D02*
D03*
X1028700D02*
D03*
X1054100D02*
D03*
D63*
X1079100Y1220470D02*
D03*
X1079000Y910220D02*
D03*
X444500Y1220470D02*
D03*
D64*
X322000Y1038800D02*
D03*
D65*
X311500Y1124499D02*
D03*
Y1154501D02*
D03*
D66*
X670622Y1029430D02*
D03*
X670399Y1041280D02*
D03*
X693000D02*
D03*
Y1029430D02*
D03*
X713000D02*
D03*
X713099Y1042000D02*
D03*
X732119Y1030000D02*
D03*
Y1042000D02*
D03*
X775000Y1026897D02*
D03*
X774630Y1042000D02*
D03*
X784570Y1047800D02*
D03*
Y1035000D02*
D03*
X867000Y966000D02*
D03*
X867430Y985625D02*
D03*
X878120Y975000D02*
D03*
X879000Y953000D02*
D03*
X1410000Y1181694D02*
D03*
X1339000Y1067000D02*
D03*
X1341000Y1100800D02*
D03*
X1379000Y1103000D02*
D03*
X1397499Y1086000D02*
D03*
X1415000Y1103000D02*
D03*
X1383900Y1015000D02*
D03*
X1361000D02*
D03*
X1343000Y1201000D02*
D03*
X1364000D02*
D03*
X1409300Y1167000D02*
D03*
X1460250Y990000D02*
D03*
X1469000Y998375D02*
D03*
X1453127D02*
D03*
X1362000Y1117000D02*
D03*
X618000Y916000D02*
D03*
X667000D02*
D03*
X705000Y918250D02*
D03*
X716000Y928250D02*
D03*
X670000Y935000D02*
D03*
X564000Y922000D02*
D03*
X606000Y921000D02*
D03*
X795300Y918250D02*
D03*
X948000Y926000D02*
D03*
X938000Y911000D02*
D03*
X892000Y901000D02*
D03*
X869000D02*
D03*
X907000Y1031000D02*
D03*
X905172Y1040000D02*
D03*
X728998Y976998D02*
D03*
X462000Y922000D02*
D03*
X727000Y984000D02*
D03*
X426000Y923000D02*
D03*
X1056000Y1023000D02*
D03*
X1049000Y1037000D02*
D03*
X1046000Y1054000D02*
D03*
X1080000Y1030000D02*
D03*
X1474000Y1146000D02*
D03*
X1450000Y1148000D02*
D03*
X1408000Y1156000D02*
D03*
X1407000Y1143000D02*
D03*
X1467997Y1171000D02*
D03*
X1481000Y1142000D02*
D03*
X1482076Y1132788D02*
D03*
X1467997Y1207998D02*
D03*
X1157250Y1107000D02*
D03*
X1149000Y1089000D02*
D03*
X1138000Y1088000D02*
D03*
X1122250Y1058000D02*
D03*
X1135000Y1037750D02*
D03*
X1205000Y1030000D02*
D03*
X1178600Y1029900D02*
D03*
X1350000Y1065000D02*
D03*
Y1110000D02*
D03*
X1377000Y1057000D02*
D03*
X1329000Y1054000D02*
D03*
X1262000D02*
D03*
X1259000Y1044000D02*
D03*
X1236000Y1034750D02*
D03*
X1226000Y1111499D02*
D03*
X1378611Y1040000D02*
D03*
X1339000Y1049500D02*
D03*
X1216000Y1111499D02*
D03*
X769000Y1069000D02*
D03*
X816998Y1068998D02*
D03*
Y1054998D02*
D03*
X817000Y1062000D02*
D03*
X797000Y1048000D02*
D03*
X958000Y998000D02*
D03*
X1325000Y1089750D02*
D03*
X1172998Y1042998D02*
D03*
X1317000Y1090000D02*
D03*
X1174000Y1050250D02*
D03*
X1403000Y1129000D02*
D03*
X1419000Y1208000D02*
D03*
X1442500Y1163000D02*
D03*
X1538000Y1052000D02*
D03*
X1475000Y1036000D02*
D03*
X1492000Y985625D02*
D03*
X1466000Y1123000D02*
D03*
X948000Y978000D02*
D03*
X907400D02*
D03*
X420000Y1007000D02*
D03*
X566000D02*
D03*
X708000Y993000D02*
D03*
X777750Y981000D02*
D03*
X779000Y967000D02*
D03*
X774700Y954000D02*
D03*
X1243000Y1083000D02*
D03*
X1274000Y1084000D02*
D03*
X1160000Y1119000D02*
D03*
X1146998Y1115998D02*
D03*
X1154000Y1099000D02*
D03*
X1143000Y1099000D02*
D03*
D67*
X783000Y940000D02*
D03*
D68*
X326500Y1215220D02*
D03*
X1526500D02*
D03*
Y915220D02*
D03*
X326500D02*
D03*
M02*
