G04*
G04 #@! TF.GenerationSoftware,Altium Limited,Altium Designer,19.0.14 (431)*
G04*
G04 Layer_Color=0*
%FSLAX44Y44*%
%MOMM*%
G71*
G01*
G75*
%ADD111C,0.0500*%
D111*
X1053100Y1078150D02*
Y1160450D01*
X1135400Y1078150D02*
Y1160450D01*
X1053100D02*
X1135400D01*
X1053100Y1078150D02*
X1135400D01*
X665500Y1201100D02*
X704500D01*
X665500Y1168900D02*
Y1201100D01*
Y1168900D02*
X704500D01*
Y1201100D01*
X769500Y1202350D02*
X808500D01*
X769500Y1170150D02*
Y1202350D01*
Y1170150D02*
X808500D01*
Y1202350D01*
X1077500Y1202100D02*
X1116500D01*
X1077500Y1169900D02*
Y1202100D01*
Y1169900D02*
X1116500D01*
Y1202100D01*
X1175500Y1201100D02*
X1214500D01*
X1175500Y1168900D02*
Y1201100D01*
Y1168900D02*
X1214500D01*
Y1201100D01*
X465500D02*
X504500D01*
X465500Y1168900D02*
Y1201100D01*
Y1168900D02*
X504500D01*
Y1201100D01*
X565500D02*
X604500D01*
X565500Y1168900D02*
Y1201100D01*
Y1168900D02*
X604500D01*
Y1201100D01*
X870500D02*
X909500D01*
X870500Y1168900D02*
Y1201100D01*
Y1168900D02*
X909500D01*
Y1201100D01*
X970500D02*
X1009500D01*
X970500Y1168900D02*
Y1201100D01*
Y1168900D02*
X1009500D01*
Y1201100D01*
X1277500D02*
X1316500D01*
X1277500Y1168900D02*
Y1201100D01*
Y1168900D02*
X1316500D01*
Y1201100D01*
X1370500D02*
X1409500D01*
X1370500Y1168900D02*
Y1201100D01*
Y1168900D02*
X1409500D01*
Y1201100D01*
M02*
