G04*
G04 #@! TF.GenerationSoftware,Altium Limited,Altium Designer,19.0.14 (431)*
G04*
G04 Layer_Color=16711935*
%FSLAX44Y44*%
%MOMM*%
G71*
G01*
G75*
%ADD41R,2.2032X2.2032*%
%ADD42R,1.0032X1.1032*%
%ADD43R,1.1032X1.0032*%
%ADD59C,0.2032*%
G04:AMPARAMS|DCode=60|XSize=2.3532mm|YSize=1.2532mm|CornerRadius=0.6266mm|HoleSize=0mm|Usage=FLASHONLY|Rotation=180.000|XOffset=0mm|YOffset=0mm|HoleType=Round|Shape=RoundedRectangle|*
%AMROUNDEDRECTD60*
21,1,2.3532,0.0000,0,0,180.0*
21,1,1.1000,1.2532,0,0,180.0*
1,1,1.2532,-0.5500,0.0000*
1,1,1.2532,0.5500,0.0000*
1,1,1.2532,0.5500,0.0000*
1,1,1.2532,-0.5500,0.0000*
%
%ADD60ROUNDEDRECTD60*%
%ADD61C,1.2032*%
%ADD62C,1.7032*%
%ADD63R,1.7032X1.7032*%
%ADD64R,1.7032X1.7032*%
%ADD65C,1.0033*%
%ADD66C,0.3000*%
%ADD67C,3.0000*%
%ADD95C,0.0847*%
%ADD96R,5.1532X5.1532*%
%ADD97R,1.3032X0.4232*%
%ADD98R,0.4232X1.3032*%
%ADD99R,2.7032X0.6032*%
%ADD100R,1.2032X1.2032*%
%ADD101R,0.7332X1.1732*%
%ADD102R,1.5532X1.5532*%
%ADD103R,1.8032X1.0032*%
%ADD104R,3.2032X2.3032*%
%ADD105R,1.0032X1.0032*%
%ADD106R,1.5032X1.7531*%
D41*
X598800Y900000D02*
D03*
X573400D02*
D03*
X548000D02*
D03*
X624200D02*
D03*
X649600D02*
D03*
X451400Y902000D02*
D03*
X426000D02*
D03*
X400600D02*
D03*
D42*
X1082000Y1028000D02*
D03*
X1068000D02*
D03*
X1082000Y1045000D02*
D03*
X1068000D02*
D03*
X1495250Y1067500D02*
D03*
X1509250D02*
D03*
X1509250Y1052000D02*
D03*
X1495250D02*
D03*
X851250Y994000D02*
D03*
X837250D02*
D03*
X851250Y974500D02*
D03*
X837250D02*
D03*
X851250Y955750D02*
D03*
X837250D02*
D03*
X851250Y937500D02*
D03*
X837250D02*
D03*
D43*
X1137500Y1075750D02*
D03*
Y1061750D02*
D03*
X1155250Y1076000D02*
D03*
Y1062000D02*
D03*
D59*
X1518420Y1152800D02*
D03*
Y1112800D02*
D03*
D60*
X1542520Y1161100D02*
D03*
X1542620Y1104500D02*
D03*
D61*
X1079650D02*
D03*
X1089650D02*
D03*
X1099650D02*
D03*
X1109650D02*
D03*
Y1114500D02*
D03*
X1099650D02*
D03*
X1089650D02*
D03*
X1079650D02*
D03*
Y1124500D02*
D03*
X1089650D02*
D03*
X1099650D02*
D03*
X1109650D02*
D03*
Y1134500D02*
D03*
X1099650D02*
D03*
X1089650D02*
D03*
X1079650D02*
D03*
D62*
X1409300Y1220470D02*
D03*
X1383900D02*
D03*
X1358500D02*
D03*
X1333100D02*
D03*
X1307700D02*
D03*
X1282300D02*
D03*
X1256900D02*
D03*
X1231500D02*
D03*
X1206100D02*
D03*
X1180700D02*
D03*
X1155300D02*
D03*
X1129900D02*
D03*
X1104500D02*
D03*
X1104400Y910220D02*
D03*
X1282200D02*
D03*
X1256800D02*
D03*
X1231400D02*
D03*
X1206000D02*
D03*
X1180600D02*
D03*
X1155200D02*
D03*
X1129800D02*
D03*
X322000Y1013400D02*
D03*
Y988000D02*
D03*
Y962600D02*
D03*
X876300Y1220470D02*
D03*
X850900D02*
D03*
X825500D02*
D03*
X723900D02*
D03*
X749300D02*
D03*
X774700D02*
D03*
X800100D02*
D03*
X901700D02*
D03*
X469900D02*
D03*
X495300D02*
D03*
X520700D02*
D03*
X546100D02*
D03*
X571500D02*
D03*
X596900D02*
D03*
X622300D02*
D03*
X647700D02*
D03*
X673100D02*
D03*
X698500D02*
D03*
X927100D02*
D03*
X952500D02*
D03*
X977900D02*
D03*
X1003300D02*
D03*
X1028700D02*
D03*
X1054100D02*
D03*
D63*
X1079100Y1220470D02*
D03*
X1079000Y910220D02*
D03*
X444500Y1220470D02*
D03*
D64*
X322000Y1038800D02*
D03*
D65*
X311500Y1124499D02*
D03*
Y1154501D02*
D03*
D66*
X1339000Y1067000D02*
D03*
X1341000Y1100800D02*
D03*
X1379000Y1103000D02*
D03*
X1397499Y1086000D02*
D03*
X1415000Y1103000D02*
D03*
X1383900Y1015000D02*
D03*
X1361000D02*
D03*
X1343000Y1201000D02*
D03*
X1364000D02*
D03*
X1409300Y1167000D02*
D03*
X1460250Y990000D02*
D03*
X1469000Y998375D02*
D03*
X1453127D02*
D03*
X1362000Y1117000D02*
D03*
X618000Y916000D02*
D03*
X667000D02*
D03*
X705000Y918250D02*
D03*
X716000Y928250D02*
D03*
X670000Y935000D02*
D03*
X564000Y922000D02*
D03*
X606000Y921000D02*
D03*
X795300Y918250D02*
D03*
X948000Y926000D02*
D03*
X938000Y911000D02*
D03*
X892000Y901000D02*
D03*
X869000D02*
D03*
X907000Y1031000D02*
D03*
X905172Y1040000D02*
D03*
X728998Y976998D02*
D03*
X462000Y922000D02*
D03*
X727000Y984000D02*
D03*
X426000Y923000D02*
D03*
X1056000Y1023000D02*
D03*
X1049000Y1037000D02*
D03*
X1046000Y1054000D02*
D03*
X1080000Y1030000D02*
D03*
X1474000Y1146000D02*
D03*
X1450000Y1148000D02*
D03*
X1408000Y1156000D02*
D03*
X1407000Y1143000D02*
D03*
X1467997Y1171000D02*
D03*
X1481000Y1142000D02*
D03*
X1482076Y1132788D02*
D03*
X1467997Y1207998D02*
D03*
X1157250Y1107000D02*
D03*
X1149000Y1089000D02*
D03*
X1138000Y1088000D02*
D03*
X1122250Y1058000D02*
D03*
X1135000Y1037750D02*
D03*
X1205000Y1030000D02*
D03*
X1178600Y1029900D02*
D03*
X1350000Y1065000D02*
D03*
Y1110000D02*
D03*
X1377000Y1057000D02*
D03*
X1329000Y1054000D02*
D03*
X1262000D02*
D03*
X1259000Y1044000D02*
D03*
X1236000Y1034750D02*
D03*
X1226000Y1111499D02*
D03*
X1378611Y1040000D02*
D03*
X1339000Y1049500D02*
D03*
X1216000Y1111499D02*
D03*
X769000Y1069000D02*
D03*
X816998Y1068998D02*
D03*
Y1054998D02*
D03*
X817000Y1062000D02*
D03*
X797000Y1048000D02*
D03*
X958000Y998000D02*
D03*
X1325000Y1089750D02*
D03*
X1172998Y1042998D02*
D03*
X1317000Y1090000D02*
D03*
X1174000Y1050250D02*
D03*
X1403000Y1129000D02*
D03*
X1419000Y1208000D02*
D03*
X1442500Y1163000D02*
D03*
X1538000Y1052000D02*
D03*
X1475000Y1036000D02*
D03*
X1492000Y985625D02*
D03*
X1466000Y1123000D02*
D03*
X948000Y978000D02*
D03*
X907400D02*
D03*
X420000Y1007000D02*
D03*
X566000D02*
D03*
X708000Y993000D02*
D03*
X777750Y981000D02*
D03*
X779000Y967000D02*
D03*
X774700Y954000D02*
D03*
X775000Y940000D02*
D03*
X1243000Y1083000D02*
D03*
X1274000Y1084000D02*
D03*
X1160000Y1119000D02*
D03*
X1146998Y1115998D02*
D03*
X1154000Y1099000D02*
D03*
X1143000Y1099000D02*
D03*
D67*
X326500Y1215220D02*
D03*
X1526500D02*
D03*
Y915220D02*
D03*
X326500D02*
D03*
D95*
X1426153Y912718D02*
X1431237D01*
X1388023D02*
X1393107D01*
X1306680D02*
X1309221D01*
X1489702Y904244D02*
X1492244D01*
X1489702Y905092D02*
X1493091D01*
X1490549Y905939D02*
X1493091D01*
X1490549Y906786D02*
X1493091D01*
X1490549Y907634D02*
X1493939D01*
X1427000Y913565D02*
X1431237D01*
X1427000Y914412D02*
X1431237D01*
X1427000Y915260D02*
X1431237D01*
X1427000Y916107D02*
X1431237D01*
X1407511Y904244D02*
X1413443D01*
X1429542D02*
X1432084D01*
X1404969Y905092D02*
X1414290D01*
X1429542D02*
X1432084D01*
X1429542Y905939D02*
X1431237D01*
X1429542Y906786D02*
X1431237D01*
X1429542Y907634D02*
X1431237D01*
X1429542Y908481D02*
X1431237D01*
X1429542Y909328D02*
X1431237D01*
X1429542Y910176D02*
X1431237D01*
X1429542Y911023D02*
X1431237D01*
X1428695Y911870D02*
X1431237D01*
X1348199Y914412D02*
X1349893D01*
X1341420Y915260D02*
X1349046D01*
X1343115Y916107D02*
X1348199D01*
X1341420Y904244D02*
X1350741D01*
X1341420Y905092D02*
X1350741D01*
X1346504Y905939D02*
X1349893D01*
X1345657Y906786D02*
X1349046D01*
X1344809Y907634D02*
X1348199D01*
X1387176Y904244D02*
X1388870D01*
X1387176Y905092D02*
X1388870D01*
X1368534Y905939D02*
X1371076D01*
X1387176D02*
X1388870D01*
X1368534Y906786D02*
X1371076D01*
X1368534Y907634D02*
X1371076D01*
X1368534Y908481D02*
X1370229D01*
X1386328D02*
X1393107D01*
X1368534Y909328D02*
X1370229D01*
X1386328D02*
X1389718D01*
X1368534Y910176D02*
X1371076D01*
X1386328D02*
X1388870D01*
X1368534Y911023D02*
X1371924D01*
X1386328D02*
X1388870D01*
X1368534Y911870D02*
X1375313D01*
X1386328D02*
X1393954D01*
X1306680Y913565D02*
X1309221D01*
X1306680Y914412D02*
X1310069D01*
X1307527Y915260D02*
X1315153D01*
X1307527Y907634D02*
X1310916D01*
X1307527Y908481D02*
X1310069D01*
X1306680Y909328D02*
X1310069D01*
X1306680Y910176D02*
X1309221D01*
X1306680Y911023D02*
X1309221D01*
X1306680Y911870D02*
X1309221D01*
X1493091Y912718D02*
X1494786D01*
X1496481D02*
X1499023D01*
X1474450D02*
X1478687D01*
X1482923D02*
X1488855D01*
X1451573D02*
X1455809D01*
X1460893D02*
X1464282D01*
X1466824D02*
X1468519D01*
X1441405D02*
X1445641D01*
X1410901D02*
X1413443D01*
X1416832D02*
X1418527D01*
X1419374D02*
X1421916D01*
X1395649D02*
X1398191D01*
X1399038D02*
X1401580D01*
X1404122D02*
X1405817D01*
X1370229D02*
X1374466D01*
X1376160D02*
X1377855D01*
X1381244D02*
X1382939D01*
X1359214D02*
X1364298D01*
X1329557D02*
X1332947D01*
X1336336D02*
X1338031D01*
X1341420D02*
X1343962D01*
X1313458D02*
X1316000D01*
X1321084D02*
X1323626D01*
X1493091Y913565D02*
X1495634D01*
X1496481D02*
X1499023D01*
X1493091Y914412D02*
X1498175D01*
X1493939Y915260D02*
X1498175D01*
X1493939Y916107D02*
X1497328D01*
X1491397Y909328D02*
X1500717D01*
X1492244Y910176D02*
X1494786D01*
X1497328D02*
X1500717D01*
X1492244Y911023D02*
X1494786D01*
X1497328D02*
X1499870D01*
X1492244Y911870D02*
X1494786D01*
X1497328D02*
X1499870D01*
X1500717Y904244D02*
X1503259D01*
X1499870Y905092D02*
X1503259D01*
X1499870Y905939D02*
X1502412D01*
X1499023Y906786D02*
X1502412D01*
X1499023Y907634D02*
X1501565D01*
X1491397Y908481D02*
X1501565D01*
X1484618Y913565D02*
X1487160D01*
X1484618Y914412D02*
X1487160D01*
X1482076Y915260D02*
X1482923D01*
X1483771D02*
X1487160D01*
X1482076Y916107D02*
X1486313D01*
X1473603Y904244D02*
X1479534D01*
X1485466D02*
X1488008D01*
X1472756Y905092D02*
X1480382D01*
X1485466D02*
X1488008D01*
X1471908Y905939D02*
X1475298D01*
X1477840D02*
X1481229D01*
X1485466D02*
X1487160D01*
X1471908Y906786D02*
X1474450D01*
X1478687D02*
X1481229D01*
X1485466D02*
X1487160D01*
X1471908Y907634D02*
X1473603D01*
X1479534D02*
X1481229D01*
X1485466D02*
X1487160D01*
X1471908Y908481D02*
X1473603D01*
X1479534D02*
X1481229D01*
X1484618D02*
X1487160D01*
X1471908Y909328D02*
X1473603D01*
X1478687D02*
X1481229D01*
X1484618D02*
X1487160D01*
X1471908Y910176D02*
X1474450D01*
X1478687D02*
X1481229D01*
X1484618D02*
X1487160D01*
X1471908Y911023D02*
X1475298D01*
X1476992D02*
X1480382D01*
X1484618D02*
X1487160D01*
X1472756Y911870D02*
X1480382D01*
X1482923D02*
X1488855D01*
X1451573Y904244D02*
X1457504D01*
X1460046D02*
X1461740D01*
X1467672D02*
X1469366D01*
X1450725Y905092D02*
X1457504D01*
X1460046D02*
X1461740D01*
X1467672D02*
X1469366D01*
X1450725Y905939D02*
X1453267D01*
X1459198D02*
X1461740D01*
X1467672D02*
X1469366D01*
X1450725Y906786D02*
X1453267D01*
X1459198D02*
X1461740D01*
X1466824D02*
X1469366D01*
X1451573Y907634D02*
X1454114D01*
X1459198D02*
X1460893D01*
X1466824D02*
X1469366D01*
X1452420Y908481D02*
X1455809D01*
X1459198D02*
X1460893D01*
X1466824D02*
X1469366D01*
X1454114Y909328D02*
X1456656D01*
X1459198D02*
X1460893D01*
X1466824D02*
X1468519D01*
X1454962Y910176D02*
X1456656D01*
X1459198D02*
X1461740D01*
X1465977D02*
X1468519D01*
X1450725Y911023D02*
X1451573D01*
X1454114D02*
X1456656D01*
X1459198D02*
X1462588D01*
X1465130D02*
X1468519D01*
X1450725Y911870D02*
X1456656D01*
X1459198D02*
X1468519D01*
X1440557Y904244D02*
X1446488D01*
X1439710Y905092D02*
X1447336D01*
X1438862Y905939D02*
X1442252D01*
X1444794D02*
X1448183D01*
X1438862Y906786D02*
X1441405D01*
X1445641D02*
X1448183D01*
X1438862Y907634D02*
X1440557D01*
X1446488D02*
X1448183D01*
X1438862Y908481D02*
X1440557D01*
X1446488D02*
X1448183D01*
X1438862Y909328D02*
X1440557D01*
X1445641D02*
X1448183D01*
X1438862Y910176D02*
X1441405D01*
X1445641D02*
X1448183D01*
X1438862Y911023D02*
X1442252D01*
X1443947D02*
X1447336D01*
X1439710Y911870D02*
X1447336D01*
X1416832Y913565D02*
X1418527D01*
X1419374D02*
X1421916D01*
X1416832Y914412D02*
X1421069D01*
X1416832Y915260D02*
X1421069D01*
X1416832Y916107D02*
X1420221D01*
X1417679Y904244D02*
X1419374D01*
X1423611D02*
X1426153D01*
X1417679Y905092D02*
X1419374D01*
X1422763D02*
X1426153D01*
X1410901Y905939D02*
X1414290D01*
X1417679D02*
X1419374D01*
X1422763D02*
X1426153D01*
X1411748Y906786D02*
X1414290D01*
X1417679D02*
X1419374D01*
X1422763D02*
X1427000D01*
X1411748Y907634D02*
X1414290D01*
X1417679D02*
X1419374D01*
X1421916D02*
X1424458D01*
X1425305D02*
X1427000D01*
X1411748Y908481D02*
X1413443D01*
X1417679D02*
X1419374D01*
X1421916D02*
X1423611D01*
X1425305D02*
X1427000D01*
X1411748Y909328D02*
X1413443D01*
X1416832D02*
X1419374D01*
X1421069D02*
X1423611D01*
X1425305D02*
X1427000D01*
X1411748Y910176D02*
X1413443D01*
X1416832D02*
X1419374D01*
X1421069D02*
X1422763D01*
X1425305D02*
X1427847D01*
X1411748Y911023D02*
X1413443D01*
X1416832D02*
X1419374D01*
X1420221D02*
X1422763D01*
X1426153D02*
X1427847D01*
X1410901Y911870D02*
X1413443D01*
X1416832D02*
X1418527D01*
X1420221D02*
X1421916D01*
X1426153D02*
X1427847D01*
X1390565Y904244D02*
X1394801D01*
X1399886D02*
X1402427D01*
X1404969D02*
X1406664D01*
X1389718Y905092D02*
X1390565D01*
X1392260D02*
X1395649D01*
X1399886D02*
X1401580D01*
X1393107Y905939D02*
X1395649D01*
X1399886D02*
X1401580D01*
X1404969D02*
X1407511D01*
X1393107Y906786D02*
X1395649D01*
X1399886D02*
X1401580D01*
X1404969D02*
X1406664D01*
X1391412Y907634D02*
X1394801D01*
X1399886D02*
X1401580D01*
X1404122D02*
X1406664D01*
X1399038Y908481D02*
X1401580D01*
X1404122D02*
X1406664D01*
X1399038Y909328D02*
X1401580D01*
X1404122D02*
X1406664D01*
X1398191Y910176D02*
X1401580D01*
X1404122D02*
X1406664D01*
X1397343Y911023D02*
X1401580D01*
X1404122D02*
X1405817D01*
X1395649Y911870D02*
X1401580D01*
X1404122D02*
X1405817D01*
X1376160Y913565D02*
X1377855D01*
X1381244D02*
X1382939D01*
X1376160Y914412D02*
X1377855D01*
X1381244D02*
X1382939D01*
X1376160Y915260D02*
X1377855D01*
X1381244D02*
X1382939D01*
X1376160Y916107D02*
X1377855D01*
X1381244D02*
X1382939D01*
X1369382Y904244D02*
X1371076D01*
X1377008D02*
X1378702D01*
X1382092D02*
X1383786D01*
X1369382Y905092D02*
X1371076D01*
X1377008D02*
X1378702D01*
X1382092D02*
X1383786D01*
X1377008Y905939D02*
X1378702D01*
X1382092D02*
X1383786D01*
X1377008Y906786D02*
X1378702D01*
X1382092D02*
X1383786D01*
X1386328D02*
X1388023D01*
X1376160Y907634D02*
X1378702D01*
X1381244D02*
X1383786D01*
X1386328D02*
X1388023D01*
X1376160Y908481D02*
X1378702D01*
X1381244D02*
X1383786D01*
X1376160Y909328D02*
X1378702D01*
X1381244D02*
X1383786D01*
X1375313Y910176D02*
X1378702D01*
X1381244D02*
X1383786D01*
X1374466Y911023D02*
X1378702D01*
X1381244D02*
X1383786D01*
X1376160Y911870D02*
X1377855D01*
X1381244D02*
X1382939D01*
X1358366Y904244D02*
X1360061D01*
X1361756D02*
X1365992D01*
X1358366Y905092D02*
X1360061D01*
X1360909D02*
X1361756D01*
X1363450D02*
X1366840D01*
X1358366Y905939D02*
X1360061D01*
X1364298D02*
X1366840D01*
X1357519Y906786D02*
X1359214D01*
X1364298D02*
X1366840D01*
X1357519Y907634D02*
X1359214D01*
X1362603D02*
X1365992D01*
X1357519Y908481D02*
X1364298D01*
X1357519Y909328D02*
X1360909D01*
X1357519Y910176D02*
X1360061D01*
X1357519Y911023D02*
X1360061D01*
X1357519Y911870D02*
X1365145D01*
X1336336Y913565D02*
X1338031D01*
X1341420D02*
X1343962D01*
X1335489Y914412D02*
X1338031D01*
X1341420D02*
X1345657D01*
X1335489Y915260D02*
X1338031D01*
X1335489Y916107D02*
X1338031D01*
X1329557Y904244D02*
X1332947D01*
X1336336D02*
X1338878D01*
X1330405Y905092D02*
X1332947D01*
X1336336D02*
X1338878D01*
X1331252Y905939D02*
X1333794D01*
X1336336D02*
X1338031D01*
X1332099Y906786D02*
X1334641D01*
X1336336D02*
X1338031D01*
X1332947Y907634D02*
X1335489D01*
X1336336D02*
X1338031D01*
X1332947Y908481D02*
X1335489D01*
X1336336D02*
X1338031D01*
X1343962D02*
X1347351D01*
X1332947Y909328D02*
X1335489D01*
X1336336D02*
X1338031D01*
X1343115D02*
X1346504D01*
X1332099Y910176D02*
X1334641D01*
X1336336D02*
X1338031D01*
X1342267D02*
X1345657D01*
X1331252Y911023D02*
X1333794D01*
X1336336D02*
X1338031D01*
X1342267D02*
X1344809D01*
X1330405Y911870D02*
X1333794D01*
X1336336D02*
X1338031D01*
X1341420D02*
X1343962D01*
X1313458Y913565D02*
X1316000D01*
X1321084D02*
X1323626D01*
X1324473D02*
X1325321D01*
X1311763Y914412D02*
X1316000D01*
X1321084D02*
X1325321D01*
X1321084Y915260D02*
X1325321D01*
X1309221Y916107D02*
X1313458D01*
X1321084D02*
X1323626D01*
X1310069Y904244D02*
X1313458D01*
X1321084D02*
X1323626D01*
X1309221Y905092D02*
X1312611D01*
X1321084D02*
X1323626D01*
X1309221Y905939D02*
X1311763D01*
X1321084D02*
X1323626D01*
X1308374Y906786D02*
X1311763D01*
X1321084D02*
X1323626D01*
X1321084Y907634D02*
X1323626D01*
X1321084Y908481D02*
X1323626D01*
X1310916Y909328D02*
X1315153D01*
X1321084D02*
X1323626D01*
X1310069Y910176D02*
X1316000D01*
X1321084D02*
X1323626D01*
X1312611Y911023D02*
X1316000D01*
X1321084D02*
X1323626D01*
X1313458Y911870D02*
X1316000D01*
X1321084D02*
X1323626D01*
D96*
X1094250Y1119300D02*
D03*
D97*
X1058500Y1147300D02*
D03*
Y1143300D02*
D03*
Y1139300D02*
D03*
Y1135300D02*
D03*
Y1131300D02*
D03*
Y1127300D02*
D03*
Y1123300D02*
D03*
Y1119300D02*
D03*
Y1115300D02*
D03*
Y1111300D02*
D03*
Y1107300D02*
D03*
Y1103300D02*
D03*
Y1099300D02*
D03*
Y1095300D02*
D03*
Y1091300D02*
D03*
X1130000D02*
D03*
Y1095300D02*
D03*
Y1099300D02*
D03*
Y1103300D02*
D03*
Y1107300D02*
D03*
Y1111300D02*
D03*
Y1115300D02*
D03*
Y1119300D02*
D03*
Y1123300D02*
D03*
Y1127300D02*
D03*
Y1131300D02*
D03*
Y1135300D02*
D03*
Y1139300D02*
D03*
Y1143300D02*
D03*
Y1147300D02*
D03*
D98*
X1122250Y1155050D02*
D03*
X1118250D02*
D03*
X1114250D02*
D03*
X1110250D02*
D03*
X1106250D02*
D03*
X1102250D02*
D03*
X1098250D02*
D03*
X1094250D02*
D03*
X1090250D02*
D03*
X1086250D02*
D03*
X1082250D02*
D03*
X1078250D02*
D03*
X1074250D02*
D03*
X1070250D02*
D03*
X1066250D02*
D03*
Y1083550D02*
D03*
X1070250D02*
D03*
X1074250D02*
D03*
X1078250D02*
D03*
X1082250D02*
D03*
X1086250D02*
D03*
X1090250D02*
D03*
X1094250D02*
D03*
X1098250D02*
D03*
X1102250D02*
D03*
X1106250D02*
D03*
X1110250D02*
D03*
X1114250D02*
D03*
X1118250D02*
D03*
X1122250D02*
D03*
D99*
X1510020Y1126300D02*
D03*
Y1119800D02*
D03*
Y1132800D02*
D03*
Y1139300D02*
D03*
Y1145800D02*
D03*
D100*
X1517020Y1164700D02*
D03*
Y1100900D02*
D03*
D101*
X697000Y1193750D02*
D03*
X689000D02*
D03*
X681000D02*
D03*
X673000D02*
D03*
X697000Y1176250D02*
D03*
X689000D02*
D03*
X681000D02*
D03*
X673000D02*
D03*
X801000Y1195000D02*
D03*
X793000D02*
D03*
X785000D02*
D03*
X777000D02*
D03*
X801000Y1177500D02*
D03*
X793000D02*
D03*
X785000D02*
D03*
X777000D02*
D03*
X1109000Y1194750D02*
D03*
X1101000D02*
D03*
X1093000D02*
D03*
X1085000D02*
D03*
X1109000Y1177250D02*
D03*
X1101000D02*
D03*
X1093000D02*
D03*
X1085000D02*
D03*
X1207000Y1193750D02*
D03*
X1199000D02*
D03*
X1191000D02*
D03*
X1183000D02*
D03*
X1207000Y1176250D02*
D03*
X1199000D02*
D03*
X1191000D02*
D03*
X1183000D02*
D03*
X497000Y1193750D02*
D03*
X489000D02*
D03*
X481000D02*
D03*
X473000D02*
D03*
X497000Y1176250D02*
D03*
X489000D02*
D03*
X481000D02*
D03*
X473000D02*
D03*
X597000Y1193750D02*
D03*
X589000D02*
D03*
X581000D02*
D03*
X573000D02*
D03*
X597000Y1176250D02*
D03*
X589000D02*
D03*
X581000D02*
D03*
X573000D02*
D03*
X902000Y1193750D02*
D03*
X894000D02*
D03*
X886000D02*
D03*
X878000D02*
D03*
X902000Y1176250D02*
D03*
X894000D02*
D03*
X886000D02*
D03*
X878000D02*
D03*
X1002000Y1193750D02*
D03*
X994000D02*
D03*
X986000D02*
D03*
X978000D02*
D03*
X1002000Y1176250D02*
D03*
X994000D02*
D03*
X986000D02*
D03*
X978000D02*
D03*
X1309000Y1193750D02*
D03*
X1301000D02*
D03*
X1293000D02*
D03*
X1285000D02*
D03*
X1309000Y1176250D02*
D03*
X1301000D02*
D03*
X1293000D02*
D03*
X1285000D02*
D03*
X1402000Y1193750D02*
D03*
X1394000D02*
D03*
X1386000D02*
D03*
X1378000D02*
D03*
X1402000Y1176250D02*
D03*
X1394000D02*
D03*
X1386000D02*
D03*
X1378000D02*
D03*
D102*
X1456250Y1210500D02*
D03*
Y1163500D02*
D03*
D103*
X1505500Y998250D02*
D03*
Y985750D02*
D03*
D104*
X1534500Y1023750D02*
D03*
Y960250D02*
D03*
D105*
X1542620Y1068000D02*
D03*
X1526620D02*
D03*
X1542620Y1052000D02*
D03*
X1526620D02*
D03*
X795230Y955500D02*
D03*
X811230D02*
D03*
X795230Y974500D02*
D03*
X811230D02*
D03*
X795230Y937250D02*
D03*
X811230D02*
D03*
X795130Y994000D02*
D03*
X811130D02*
D03*
D106*
X442499Y927799D02*
D03*
Y1007301D02*
D03*
X397501Y927799D02*
D03*
Y1007301D02*
D03*
X737499Y927799D02*
D03*
Y1007301D02*
D03*
X692501Y927799D02*
D03*
Y1007301D02*
D03*
X589999Y927799D02*
D03*
Y1007301D02*
D03*
X545001Y927799D02*
D03*
Y1007301D02*
D03*
M02*
